<svg width="293" height="96" viewBox="0 0 293 96" fill="none" xmlns="http://www.w3.org/2000/svg">
<path d="M266.454 42.7075C266.456 42.7075 266.458 42.7149 266.458 42.7294L266.465 43.0356L266.511 42.802C266.499 42.655 266.384 42.7298 266.454 42.7127V42.7075ZM272.778 34.4645C272.775 34.4667 272.77 34.4667 272.768 34.4689C272.77 34.4711 272.775 34.4733 272.778 34.4764C272.775 34.4742 272.778 34.4689 272.778 34.4641V34.4645Z" fill="#FEFEFE"/>
<path d="M272.18 44.6672L272.238 43.6163C272.334 42.8524 272.242 42.0719 272.443 41.3168C272.542 40.9265 272.226 40.468 272.631 40.1259L272.53 39.7934C272.416 39.6053 272.475 39.4224 272.542 39.2391C272.535 38.5688 272.542 37.899 272.663 37.2362L272.773 34.4712C272.771 34.469 272.766 34.4669 272.764 34.4638C270.795 35.3677 268.939 34.1024 268.623 32.5838C268.415 31.5863 268.527 30.6435 269.305 29.8818C269.435 29.7541 269.546 29.6071 269.667 29.4671C269.985 27.5596 269.754 25.8096 268.134 24.4464C268.377 24.3064 268.597 24.386 268.79 24.3501C266.795 23.847 264.371 25.2142 263.568 27.3019C263.327 27.9284 263.197 28.5707 263.238 29.247C265.22 28.3283 267 29.4255 267.484 31.0959C267.993 32.8337 266.638 34.6729 264.838 34.6992C264.313 34.7066 263.814 34.6195 263.317 34.4725L263.428 37.3504C263.498 37.9795 263.572 38.606 263.541 39.2404L263.556 39.6888L263.541 39.9877C263.688 40.5901 263.72 41.2096 263.765 41.8269C263.761 41.8111 263.758 41.795 263.756 41.7788C263.758 41.7963 263.763 41.8103 263.765 41.8225L263.917 44.9703C263.949 45.4043 263.792 45.6209 263.392 45.7316C262.92 45.8642 262.455 46.0234 261.987 46.1726C262.613 46.2592 263.231 46.2688 263.848 46.2544C264.515 46.24 264.819 45.9482 264.884 45.2805L265 44.0153L265.13 41.7206H265.224V43.902L265.262 44.8951C265.359 46.4351 265.405 46.4255 263.869 46.7326C263.833 46.74 263.802 46.7615 263.769 46.7763L264.044 46.9601C264.072 46.9675 264.096 46.9793 264.111 47.006C264.477 47.0082 264.846 47.0397 265.208 47.006C265.866 46.9435 266.177 46.5913 266.225 45.9385C266.254 45.5185 266.297 45.0998 266.333 44.6803C266.276 44.1233 266.36 43.5765 266.463 43.0292L266.456 42.7229C266.456 42.7085 266.452 42.6988 266.452 42.701C266.382 42.7185 266.497 42.6433 266.509 42.7903L266.548 42.5952V45.1213L266.57 46.0081C266.582 47.0808 266.514 47.1771 265.492 47.4833C265.21 47.5678 264.916 47.6146 264.636 47.7122C264.434 47.7822 264.176 47.7437 263.986 47.9821C264.817 47.9506 265.596 48.0447 266.37 47.9195C267.171 47.7896 267.488 47.4663 267.652 46.6858C267.772 46.117 267.827 45.522 268.042 44.9358C268.074 44.9983 268.098 45.0233 268.105 45.0609L268.433 46.6902C268.583 47.4492 268.891 47.7725 269.658 47.9073C270.456 48.0447 271.264 47.951 272.09 47.9698C271.972 47.7673 271.787 47.801 271.637 47.7577C271.124 47.608 270.6 47.4803 270.097 47.307C269.731 47.1793 269.468 46.9457 269.473 46.4946L269.477 42.7925H269.627L269.784 45.1112C269.878 46.8997 270.09 47.0948 271.886 46.996C271.986 46.8271 272.236 46.9597 272.329 46.779C271.898 46.7768 271.522 46.569 271.126 46.4368C270.904 46.3625 270.779 46.1621 270.784 45.9118C270.803 44.644 270.755 43.3713 270.926 42.1082L271.194 45.2923C271.233 45.7889 271.457 46.177 271.982 46.2111C272.682 46.2548 273.392 46.2233 274.098 46.2233C273.724 46.0352 273.341 45.9245 272.96 45.8033C272.097 45.526 272.103 45.5233 272.181 44.6466L272.18 44.6672ZM266.752 26.5831C266.75 26.7526 266.682 26.9146 266.562 27.0344C266.443 27.1543 266.281 27.2223 266.111 27.224C265.733 27.2315 265.448 27.014 265.441 26.5227C265.482 26.1662 265.682 25.9225 266.106 25.9129C266.557 25.9054 266.759 26.2095 266.752 26.5831ZM269.649 37.1255C269.651 38.1012 268.905 38.9525 268.051 38.9499C267.246 38.9477 266.424 37.9979 266.453 37.101L266.303 36.1972C266.879 36.59 267.364 36.9925 268.012 37.0065C268.675 37.0188 269.196 36.6784 269.738 36.2812C269.854 36.5992 269.562 36.8477 269.649 37.1247V37.1255Z" fill="#FE733E"/>
<path d="M263.544 39.2412L263.404 39.1857C262.748 38.9157 262.173 38.501 261.642 38.0407C259.729 36.387 258.466 34.3167 258.16 31.8055C257.813 28.9517 258.452 26.3171 260.356 24.0539C262.094 21.9906 264.309 20.7879 266.954 20.5101C269.892 20.2039 272.531 21.0264 274.753 23.0555C276.607 24.7473 277.685 26.8442 277.966 29.31C278.203 31.41 277.824 33.4387 276.744 35.2827C275.764 36.9584 274.457 38.3172 272.69 39.1778L272.546 39.2478C272.478 39.4316 272.418 39.614 272.533 39.8021C272.575 39.7658 272.61 39.7203 272.659 39.6936C275.327 38.2814 277.178 36.1818 278.043 33.2606C278.118 33.0126 278.234 32.8896 278.511 32.9185C278.888 32.957 278.993 32.7063 278.993 32.3935L278.995 28.7876C278.995 28.5251 278.932 28.2451 278.665 28.2162C278.173 28.1585 278.112 27.7993 278.014 27.4497C277.43 25.4162 276.321 23.7196 274.659 22.4202C271.26 19.7515 267.529 19.2702 263.615 21.0727C260.71 22.4106 258.856 24.732 258.018 27.8387C257.965 28.0312 257.989 28.2604 257.661 28.1887C257.193 28.0924 257.018 28.3672 257.015 28.7815L257.013 32.3874C257.013 32.7877 257.216 32.9999 257.601 32.9054C257.951 32.8187 258.04 32.9946 258.112 33.2641C258.425 34.4161 258.949 35.4691 259.657 36.4316C260.693 37.8369 261.956 38.9691 263.561 39.6831L263.544 39.2325V39.2412Z" fill="#B5D2F3"/>
<path d="M263.546 39.9841C263.19 40.9842 262.24 40.9597 261.432 41.2108C262.039 41.3675 262.657 41.5477 263.264 41.4445C263.625 41.3819 263.695 41.5118 263.748 41.7266L263.761 41.7774L263.77 41.8211C263.724 41.2016 263.693 40.5848 263.546 39.9836V39.9841Z" fill="#FE684B"/>
<path d="M272.443 41.3193C273.214 41.6693 273.942 41.3171 274.687 41.2156C273.959 40.9072 273.017 41.066 272.633 40.1284C272.226 40.4705 272.546 40.929 272.443 41.3193Z" fill="#FE6446"/>
<path d="M266.55 42.6013L266.511 42.7964L266.465 43.0301C266.362 43.5769 266.277 44.1238 266.335 44.6812C266.516 44.7753 266.379 45.0233 266.554 45.1248V42.6013H266.55Z" fill="#FED6C8"/>
<path d="M265.134 41.7197L265.004 44.0144L265.228 43.9006V41.7192H265.134V41.7197Z" fill="#FEEBE3"/>
<path d="M262.87 47.0079H264.113L264.046 46.9619L263.771 46.7782C263.499 46.7637 263.243 46.8241 262.87 47.007V47.0079Z" fill="#FE9166"/>
<path d="M271.889 47.0078H273.099C272.853 46.8656 272.612 46.7453 272.332 46.7908C272.238 46.9745 271.988 46.8345 271.889 47.0078Z" fill="#FE8F64"/>
<path d="M272.691 39.1713C274.458 38.3138 275.763 36.954 276.746 35.2762C277.826 33.4322 278.204 31.403 277.968 29.3035C277.691 26.836 276.61 24.739 274.755 23.0538C272.533 21.0225 269.893 20.1982 266.959 20.5067C264.317 20.7814 262.1 21.9867 260.361 24.0504C258.451 26.3132 257.815 28.9469 258.162 31.8012C258.468 34.315 259.731 36.3831 261.645 38.0364C262.177 38.4967 262.748 38.9136 263.406 39.1813C263.452 39.2006 263.494 39.2198 263.546 39.2369C263.578 38.6025 263.503 37.9769 263.433 37.3469L263.288 37.2432C262.799 36.8932 262.38 36.4527 261.958 36.0235C261.831 35.8935 261.671 35.7828 261.671 35.5702C261.387 35.775 261.182 35.6328 261.015 35.4062C260.089 34.1431 259.53 32.7427 259.456 31.1624C259.388 29.7694 259.514 28.4149 260.099 27.1112C260.844 25.4552 261.989 24.19 263.526 23.2498C263.787 23.0905 263.936 23.2323 264.117 23.3504C264.293 23.3329 264.449 23.2734 264.563 23.1286L264.541 23.0778C264.387 22.7523 264.379 22.3835 264.751 22.2969C265.125 22.2077 265.338 22.5157 265.339 22.9042C268.128 21.9924 270.721 22.3638 273.062 24.1497C274.812 25.485 275.815 27.2757 276.125 29.4597C276.52 32.2675 275.57 34.5959 273.613 36.5647C273.381 36.7965 273.122 37.0057 272.828 37.1623C272.777 37.1882 272.727 37.2131 272.676 37.2371C272.555 37.8999 272.548 38.5702 272.555 39.24L272.695 39.17L272.691 39.1713Z" fill="#E2F5FC"/>
<path d="M273.609 36.5725C275.563 34.6037 276.514 32.2749 276.12 29.4675C275.814 27.2813 274.811 25.4862 273.057 24.1576C270.721 22.3669 268.121 21.9985 265.34 22.912C265.336 22.9142 265.33 22.9194 265.325 22.9216C265.107 23.0616 264.935 23.3626 264.619 23.1745C264.6 23.1622 264.583 23.1526 264.564 23.1382C264.45 23.2826 264.296 23.3429 264.118 23.36C264.11 23.3889 264.1 23.4156 264.091 23.4444C263.891 24.0062 263.291 24.1532 262.888 24.4944C261.796 25.4079 260.986 26.5069 260.509 27.8282C259.743 29.9632 259.899 32.0557 260.926 34.0757C261.092 34.4038 261.297 34.7144 261.517 35.0111C261.638 35.1717 261.693 35.3727 261.671 35.5728C261.671 35.7898 261.83 35.9031 261.958 36.0331C262.382 36.4618 262.799 36.8984 263.288 37.2528L263.432 37.3565L263.322 34.4786C262.483 33.9291 261.871 33.23 261.764 32.1887C261.632 30.9042 262.171 29.9544 263.222 29.2627C263.227 29.2606 263.232 29.2553 263.237 29.2531C263.196 28.5781 263.326 27.9319 263.567 27.308C264.366 25.2194 266.791 23.85 268.789 24.3509C270.122 24.5679 271.211 25.1734 271.992 26.2838C272.616 27.1732 272.939 28.1541 272.867 29.2483C273.62 29.8197 274.226 30.4895 274.325 31.4804C274.458 32.8135 273.889 33.7869 272.768 34.4668V34.4791L272.657 37.2441C272.71 37.22 272.761 37.2003 272.809 37.1697C273.108 37.0131 273.368 36.8035 273.599 36.5694L273.609 36.5725Z" fill="#CDECF6"/>
<path d="M270.358 29.1403C271.19 28.7335 271.988 28.9522 272.786 29.2147L272.875 29.2436C272.942 28.1468 272.619 27.1655 272 26.2791C271.219 25.1678 270.129 24.5628 268.804 24.3484C268.599 24.3869 268.379 24.3046 268.136 24.4446C269.765 25.8088 269.99 27.5588 269.669 29.4654L270.364 29.1399L270.358 29.1403Z" fill="#FE6B3C"/>
<path d="M274.335 31.4782C274.236 30.4877 273.629 29.8174 272.877 29.2461L272.788 29.2172C271.987 28.9547 271.187 28.7351 270.361 29.1428L269.818 29.4053L269.668 29.4753L269.307 29.8901C268.526 30.6513 268.418 31.5941 268.625 32.5921C268.94 34.1128 270.796 35.3789 272.768 34.4768C272.77 34.4746 272.775 34.4746 272.777 34.4724C273.898 33.7899 274.469 32.8099 274.335 31.4843V31.4782ZM271.387 34.1417C270.108 34.1321 269.11 33.1149 269.121 31.8304C269.133 30.5651 270.171 29.5624 271.442 29.572C272.724 29.5816 273.705 30.5914 273.695 31.8881C273.686 33.1752 272.683 34.1544 271.386 34.1412L271.387 34.1417Z" fill="#FE6142"/>
<path d="M263.221 29.2531C262.17 29.9443 261.63 30.8946 261.763 32.1791C261.869 33.2203 262.481 33.9195 263.315 34.4663C263.817 34.616 264.313 34.7026 264.841 34.6951C266.634 34.6689 267.996 32.8314 267.488 31.0919C267.006 29.4224 265.219 28.3256 263.244 29.2443C263.234 29.2465 263.229 29.2518 263.225 29.254L263.221 29.2531ZM264.658 34.1413C263.344 34.1456 262.327 33.1385 262.332 31.8321C262.334 30.5503 263.335 29.5571 264.625 29.5497C265.928 29.5423 266.97 30.5691 266.965 31.851C266.961 33.111 265.927 34.136 264.659 34.1408L264.658 34.1413Z" fill="#FE6143"/>
<path d="M266.757 37.3138C266.668 37.2245 266.603 37.1037 266.454 37.1016C266.425 37.9984 267.244 38.9478 268.052 38.9504C268.908 38.9526 269.652 38.1017 269.65 37.1261C269.327 37.2923 269.122 37.6344 268.751 37.7359C268.007 37.9385 267.331 37.8877 266.758 37.3142L266.757 37.3138Z" fill="#070909"/>
<path d="M269.739 36.282C269.196 36.6757 268.678 37.0196 268.013 37.0074C267.362 36.9951 266.875 36.5904 266.304 36.198L266.453 37.1019C266.603 37.1062 266.672 37.2244 266.757 37.3141C267.328 37.8828 268.01 37.9384 268.75 37.7358C269.121 37.6352 269.326 37.2948 269.649 37.1259C269.563 36.8486 269.854 36.6009 269.739 36.2824V36.282Z" fill="#FDFCFB"/>
<path d="M266.106 25.915C265.68 25.9225 265.48 26.1657 265.441 26.5249C265.449 27.0166 265.733 27.231 266.112 27.2262C266.281 27.2245 266.443 27.1564 266.563 27.0366C266.683 26.9168 266.751 26.7547 266.753 26.5853C266.76 26.209 266.557 25.9054 266.107 25.915H266.106Z" fill="#FEA777"/>
<path d="M261.667 35.5663C261.689 35.3662 261.634 35.1652 261.512 35.0046C261.295 34.7079 261.088 34.3973 260.922 34.0692C259.895 32.0493 259.741 29.9567 260.505 27.8217C260.986 26.4961 261.792 25.4023 262.884 24.4879C263.286 24.1511 263.887 24.0058 264.087 23.4379C264.097 23.4117 264.106 23.3824 264.113 23.3535C263.933 23.2354 263.783 23.0932 263.523 23.2529C261.985 24.1935 260.84 25.4579 260.095 27.1143C259.509 28.418 259.384 29.7729 259.452 31.1655C259.529 32.7396 260.087 34.1423 261.011 35.4093C261.178 35.6359 261.385 35.7781 261.668 35.5733L261.667 35.5663Z" fill="#FDFEFE"/>
<path d="M265.318 22.9216C265.322 22.9194 265.328 22.9142 265.333 22.912C265.328 22.5191 265.114 22.2155 264.745 22.3047C264.375 22.394 264.381 22.7628 264.535 23.0857L264.556 23.1364C264.574 23.1496 264.593 23.1617 264.612 23.1727C264.928 23.3631 265.099 23.059 265.318 22.9221V22.9216Z" fill="#FBFDFE"/>
<path d="M273.696 31.8905C273.706 30.5964 272.725 29.5862 271.443 29.5744C270.166 29.5648 269.134 30.5675 269.122 31.8328C269.116 32.1341 269.171 32.4336 269.282 32.7138C269.393 32.9939 269.559 33.2491 269.77 33.4643C269.981 33.6795 270.233 33.8505 270.511 33.9672C270.788 34.084 271.087 34.1441 271.388 34.1441C272.685 34.1537 273.688 33.175 273.697 31.891L273.696 31.8905ZM271.5 32.1412C271.066 32.1487 270.813 31.9028 270.775 31.4762C270.739 31.0825 271.096 30.7075 271.491 30.7338C271.915 30.7653 272.153 31.0138 272.204 31.457C272.146 31.8525 271.943 32.1342 271.504 32.1417L271.5 32.1412ZM264.624 29.5525C263.335 29.56 262.337 30.5527 262.332 31.835C262.329 33.1413 263.344 34.1537 264.657 34.1441C265.925 34.1397 266.959 33.1151 266.964 31.8568C266.966 30.5723 265.925 29.5455 264.623 29.5525H264.624ZM264.626 32.1412C264.197 32.1456 263.939 31.9006 263.906 31.4688C263.874 31.075 264.234 30.7023 264.631 30.736C265.051 30.7723 265.296 31.016 265.331 31.4592C265.279 31.866 265.056 32.1364 264.622 32.1417L264.626 32.1412Z" fill="#FEFEFE"/>
<path d="M271.491 30.7335C271.096 30.7046 270.739 31.0756 270.776 31.476C270.814 31.9047 271.067 32.1484 271.501 32.141C271.942 32.1335 272.147 31.8522 272.201 31.4563C272.15 31.0126 271.912 30.765 271.488 30.7331L271.491 30.7335Z" fill="#090B0B"/>
<path d="M264.631 30.7363C264.237 30.7026 263.874 31.0714 263.906 31.4691C263.939 31.9005 264.198 32.1463 264.626 32.1415C265.06 32.1371 265.283 31.8668 265.335 31.459C265.294 31.0128 265.048 30.7695 264.635 30.7358L264.631 30.7363Z" fill="#090C0C"/>
<path d="M0.83061 63H1.7085V60.4631H4.609V63H5.4897V57.1818H4.609V59.7102H1.7085V57.1818H0.83061V63ZM7.9698 63.0966C8.6914 63.0966 9.0977 62.7301 9.2596 62.4034H9.2937V63H10.1232V60.1023C10.1232 58.8324 9.1232 58.5795 8.43 58.5795C7.6403 58.5795 6.913 58.8977 6.6289 59.6932L7.4272 59.875C7.5522 59.5653 7.8704 59.267 8.4414 59.267C8.9897 59.267 9.271 59.554 9.271 60.0483V60.0682C9.271 60.3778 8.9528 60.3722 8.1687 60.4631C7.342 60.5597 6.4954 60.7756 6.4954 61.767C6.4954 62.625 7.1403 63.0966 7.9698 63.0966ZM8.1545 62.4148C7.6744 62.4148 7.3278 62.1989 7.3278 61.7784C7.3278 61.3239 7.7312 61.1619 8.2227 61.0966C8.4982 61.0597 9.1516 60.9858 9.2738 60.8636V61.4261C9.2738 61.9432 8.8619 62.4148 8.1545 62.4148ZM11.2546 63H12.104V60.3352C12.104 59.7642 12.5444 59.3523 13.1467 59.3523C13.3228 59.3523 13.5217 59.3835 13.5898 59.4034V58.5909C13.5046 58.5795 13.337 58.571 13.229 58.571C12.7177 58.571 12.2802 58.8608 12.1211 59.3295H12.0756V58.6364H11.2546V63ZM15.1744 60.4091C15.1744 59.7131 15.6005 59.3153 16.1914 59.3153C16.7681 59.3153 17.1175 59.6932 17.1175 60.3267V63H17.967V60.2244C17.967 59.1449 17.3732 58.5795 16.4812 58.5795C15.8249 58.5795 15.396 58.8835 15.1942 59.3466H15.1403V58.6364H14.3249V63H15.1744V60.4091ZM20.9869 63.0881C21.9386 63.0881 22.6119 62.6193 22.805 61.9091L22.0011 61.7642C21.8477 62.1761 21.4783 62.3864 20.9954 62.3864C20.2681 62.3864 19.7795 61.9148 19.7567 61.0739H22.859V60.7727C22.859 59.196 21.9158 58.5795 20.9272 58.5795C19.7113 58.5795 18.9102 59.5057 18.9102 60.8466C18.9102 62.2017 19.6999 63.0881 20.9869 63.0881ZM19.7596 60.4375C19.7937 59.8182 20.2425 59.2812 20.9329 59.2812C21.592 59.2812 22.0238 59.7699 22.0266 60.4375H19.7596ZM27.0714 59.7017C26.8952 59.0227 26.364 58.5795 25.4208 58.5795C24.435 58.5795 23.7362 59.0994 23.7362 59.8722C23.7362 60.4915 24.1112 60.9034 24.9293 61.0852L25.668 61.2472C26.0884 61.3409 26.2844 61.5284 26.2844 61.8011C26.2844 62.1392 25.9237 62.4034 25.3668 62.4034C24.8583 62.4034 24.5316 62.1847 24.4293 61.7557L23.6083 61.8807C23.7504 62.6534 24.3924 63.0881 25.3725 63.0881C26.4265 63.0881 27.1566 62.5284 27.1566 61.7386C27.1566 61.1222 26.7646 60.7415 25.9634 60.5568L25.2702 60.3977C24.7901 60.2841 24.5827 60.1222 24.5856 59.8267C24.5827 59.4915 24.9464 59.2528 25.4293 59.2528C25.9577 59.2528 26.2021 59.5455 26.3015 59.8381L27.0714 59.7017ZM31.3604 59.7017C31.1843 59.0227 30.6531 58.5795 29.7099 58.5795C28.7241 58.5795 28.0252 59.0994 28.0252 59.8722C28.0252 60.4915 28.4002 60.9034 29.2184 61.0852L29.957 61.2472C30.3775 61.3409 30.5735 61.5284 30.5735 61.8011C30.5735 62.1392 30.2127 62.4034 29.6559 62.4034C29.1474 62.4034 28.8207 62.1847 28.7184 61.7557L27.8974 61.8807C28.0394 62.6534 28.6815 63.0881 29.6616 63.0881C30.7156 63.0881 31.4457 62.5284 31.4457 61.7386C31.4457 61.1222 31.0536 60.7415 30.2525 60.5568L29.5593 60.3977C29.0792 60.2841 28.8718 60.1222 28.8746 59.8267C28.8718 59.4915 29.2354 59.2528 29.7184 59.2528C30.2468 59.2528 30.4911 59.5455 30.5906 59.8381L31.3604 59.7017ZM0.4478 73H1.3256V70.9545H2.5188C3.8683 70.9545 4.5359 70.1392 4.5359 69.0653C4.5359 67.9943 3.8739 67.1818 2.5217 67.1818H0.4478V73ZM1.3256 70.2102V67.9347H2.4279C3.2972 67.9347 3.6523 68.4062 3.6523 69.0653C3.6523 69.7244 3.2972 70.2102 2.4393 70.2102H1.3256ZM6.3462 67.1818H5.4968V73H6.3462V67.1818ZM8.7589 73.0966C9.4805 73.0966 9.8867 72.7301 10.0487 72.4034H10.0827V73H10.9123V70.1023C10.9123 68.8324 9.9123 68.5795 9.2191 68.5795C8.4293 68.5795 7.7021 68.8977 7.418 69.6932L8.2163 69.875C8.3413 69.5653 8.6594 69.267 9.2305 69.267C9.7788 69.267 10.06 69.554 10.06 70.0483V70.0682C10.06 70.3778 9.7418 70.3722 8.9577 70.4631C8.131 70.5597 7.2844 70.7756 7.2844 71.767C7.2844 72.625 7.9293 73.0966 8.7589 73.0966ZM8.9435 72.4148C8.4634 72.4148 8.1168 72.1989 8.1168 71.7784C8.1168 71.3239 8.5202 71.1619 9.0117 71.0966C9.2873 71.0597 9.9407 70.9858 10.0629 70.8636V71.4261C10.0629 71.9432 9.6509 72.4148 8.9435 72.4148ZM14.0806 68.6364H13.1857V67.5909H12.3363V68.6364H11.6971V69.3182H12.3363V71.8949C12.3335 72.6875 12.9386 73.071 13.609 73.0568C13.8789 73.054 14.0607 73.0028 14.1602 72.9659L14.0067 72.2642C13.9499 72.2756 13.8448 72.3011 13.7085 72.3011C13.4329 72.3011 13.1857 72.2102 13.1857 71.7188V69.3182H14.0806V68.6364ZM17.0969 68.6364H16.1566V68.2443C16.1566 67.858 16.3157 67.6477 16.7305 67.6477C16.9066 67.6477 17.0316 67.6875 17.1112 67.7131L17.31 67.0256C17.1907 66.9801 16.9435 66.9091 16.5998 66.9091C15.9094 66.9091 15.3043 67.3125 15.3043 68.1307V68.6364H14.631V69.3182H15.3043V73H16.1566V69.3182H17.0969V68.6364ZM19.6396 73.0881C20.8697 73.0881 21.6737 72.1875 21.6737 70.8381C21.6737 69.4801 20.8697 68.5795 19.6396 68.5795C18.4094 68.5795 17.6055 69.4801 17.6055 70.8381C17.6055 72.1875 18.4094 73.0881 19.6396 73.0881ZM19.6424 72.375C18.8384 72.375 18.4634 71.6733 18.4634 70.8352C18.4634 70 18.8384 69.2898 19.6424 69.2898C20.4407 69.2898 20.8157 70 20.8157 70.8352C20.8157 71.6733 20.4407 72.375 19.6424 72.375ZM22.6218 73H23.4712V70.3352C23.4712 69.7642 23.9116 69.3523 24.5138 69.3523C24.69 69.3523 24.8888 69.3835 24.957 69.4034V68.5909C24.8718 68.5795 24.7042 68.571 24.5962 68.571C24.0849 68.571 23.6474 68.8608 23.4883 69.3295H23.4428V68.6364H22.6218V73ZM25.6921 73H26.5415V70.3097C26.5415 69.7216 26.9535 69.3125 27.4364 69.3125C27.908 69.3125 28.2347 69.625 28.2347 70.0994V73H29.0813V70.2188C29.0813 69.6932 29.4023 69.3125 29.9563 69.3125C30.4052 69.3125 30.7745 69.5625 30.7745 70.1534V73H31.6239V70.0739C31.6239 69.0767 31.0671 68.5795 30.2773 68.5795C29.6495 68.5795 29.1779 68.8807 28.9677 69.3466H28.9222C28.7319 68.8693 28.3313 68.5795 27.7489 68.5795C27.1722 68.5795 26.7433 68.8665 26.5614 69.3466H26.5075V68.6364H25.6921V73Z" fill="#4F5162"/>
<path d="M93.756 73H94.634V70.4631H97.106V69.7102H94.634V67.9375H97.364V67.1818H93.756V73ZM98.376 73H99.225V68.6364H98.376V73ZM98.805 67.9631C99.097 67.9631 99.342 67.7358 99.342 67.4574C99.342 67.179 99.097 66.9489 98.805 66.9489C98.509 66.9489 98.268 67.179 98.268 67.4574C98.268 67.7358 98.509 67.9631 98.805 67.9631ZM100.368 73H101.217V70.3352C101.217 69.7642 101.658 69.3523 102.26 69.3523C102.436 69.3523 102.635 69.3835 102.703 69.4034V68.5909C102.618 68.5795 102.45 68.571 102.342 68.571C101.831 68.571 101.393 68.8608 101.234 69.3295H101.189V68.6364H100.368V73ZM105.163 73.0881C106.114 73.0881 106.788 72.6193 106.981 71.9091L106.177 71.7642C106.023 72.1761 105.654 72.3864 105.171 72.3864C104.444 72.3864 103.955 71.9148 103.933 71.0739H107.035V70.7727C107.035 69.196 106.092 68.5795 105.103 68.5795C103.887 68.5795 103.086 69.5057 103.086 70.8466C103.086 72.2017 103.876 73.0881 105.163 73.0881ZM103.935 70.4375C103.969 69.8182 104.418 69.2812 105.109 69.2812C105.768 69.2812 106.2 69.7699 106.202 70.4375H103.935ZM108.915 73H109.779L110.665 69.8494H110.731L111.617 73H112.484L113.765 68.6364H112.887L112.038 71.8267H111.995L111.143 68.6364H110.265L109.407 71.8409H109.364L108.509 68.6364H107.631L108.915 73ZM115.841 73.0966C116.562 73.0966 116.969 72.7301 117.131 72.4034H117.165V73H117.994V70.1023C117.994 68.8324 116.994 68.5795 116.301 68.5795C115.511 68.5795 114.784 68.8977 114.5 69.6932L115.298 69.875C115.423 69.5653 115.741 69.267 116.312 69.267C116.861 69.267 117.142 69.554 117.142 70.0483V70.0682C117.142 70.3778 116.824 70.3722 116.04 70.4631C115.213 70.5597 114.366 70.7756 114.366 71.767C114.366 72.625 115.011 73.0966 115.841 73.0966ZM116.026 72.4148C115.545 72.4148 115.199 72.1989 115.199 71.7784C115.199 71.3239 115.602 71.1619 116.094 71.0966C116.369 71.0597 117.023 70.9858 117.145 70.8636V71.4261C117.145 71.9432 116.733 72.4148 116.026 72.4148ZM119.975 67.1818H119.126V73H119.975V67.1818ZM121.967 67.1818H121.118V73H121.967V67.1818Z" fill="#4F5162"/>
<path d="M175.772 65H176.65V62.4631H179.55V65H180.431V59.1818H179.55V61.7102H176.65V59.1818H175.772V65ZM182.911 65.0966C183.633 65.0966 184.039 64.7301 184.201 64.4034H184.235V65H185.065V62.1023C185.065 60.8324 184.065 60.5795 183.371 60.5795C182.582 60.5795 181.854 60.8977 181.57 61.6932L182.369 61.875C182.494 61.5653 182.812 61.267 183.383 61.267C183.931 61.267 184.212 61.554 184.212 62.0483V62.0682C184.212 62.3778 183.894 62.3722 183.11 62.4631C182.283 62.5597 181.437 62.7756 181.437 63.767C181.437 64.625 182.082 65.0966 182.911 65.0966ZM183.096 64.4148C182.616 64.4148 182.269 64.1989 182.269 63.7784C182.269 63.3239 182.673 63.1619 183.164 63.0966C183.44 63.0597 184.093 62.9858 184.215 62.8636V63.4261C184.215 63.9432 183.803 64.4148 183.096 64.4148ZM186.196 65H187.045V62.3352C187.045 61.7642 187.486 61.3523 188.088 61.3523C188.264 61.3523 188.463 61.3835 188.531 61.4034V60.5909C188.446 60.5795 188.278 60.571 188.17 60.571C187.659 60.571 187.222 60.8608 187.062 61.3295H187.017V60.6364H186.196V65ZM190.116 62.4091C190.116 61.7131 190.542 61.3153 191.133 61.3153C191.71 61.3153 192.059 61.6932 192.059 62.3267V65H192.908V62.2244C192.908 61.1449 192.315 60.5795 191.423 60.5795C190.766 60.5795 190.337 60.8835 190.136 61.3466H190.082V60.6364H189.266V65H190.116V62.4091ZM195.928 65.0881C196.88 65.0881 197.553 64.6193 197.746 63.9091L196.942 63.7642C196.789 64.1761 196.42 64.3864 195.937 64.3864C195.21 64.3864 194.721 63.9148 194.698 63.0739H197.8V62.7727C197.8 61.196 196.857 60.5795 195.869 60.5795C194.653 60.5795 193.852 61.5057 193.852 62.8466C193.852 64.2017 194.641 65.0881 195.928 65.0881ZM194.701 62.4375C194.735 61.8182 195.184 61.2812 195.874 61.2812C196.533 61.2812 196.965 61.7699 196.968 62.4375H194.701ZM202.013 61.7017C201.837 61.0227 201.305 60.5795 200.362 60.5795C199.376 60.5795 198.678 61.0994 198.678 61.8722C198.678 62.4915 199.053 62.9034 199.871 63.0852L200.609 63.2472C201.03 63.3409 201.226 63.5284 201.226 63.8011C201.226 64.1392 200.865 64.4034 200.308 64.4034C199.8 64.4034 199.473 64.1847 199.371 63.7557L198.55 63.8807C198.692 64.6534 199.334 65.0881 200.314 65.0881C201.368 65.0881 202.098 64.5284 202.098 63.7386C202.098 63.1222 201.706 62.7415 200.905 62.5568L200.212 62.3977C199.732 62.2841 199.524 62.1222 199.527 61.8267C199.524 61.4915 199.888 61.2528 200.371 61.2528C200.899 61.2528 201.143 61.5455 201.243 61.8381L202.013 61.7017ZM206.302 61.7017C206.126 61.0227 205.594 60.5795 204.651 60.5795C203.665 60.5795 202.967 61.0994 202.967 61.8722C202.967 62.4915 203.342 62.9034 204.16 63.0852L204.898 63.2472C205.319 63.3409 205.515 63.5284 205.515 63.8011C205.515 64.1392 205.154 64.4034 204.597 64.4034C204.089 64.4034 203.762 64.1847 203.66 63.7557L202.839 63.8807C202.981 64.6534 203.623 65.0881 204.603 65.0881C205.657 65.0881 206.387 64.5284 206.387 63.7386C206.387 63.1222 205.995 62.7415 205.194 62.5568L204.501 62.3977C204.021 62.2841 203.813 62.1222 203.816 61.8267C203.813 61.4915 204.177 61.2528 204.66 61.2528C205.188 61.2528 205.433 61.5455 205.532 61.8381L206.302 61.7017ZM177.767 75L178.301 73.4602H180.574L181.105 75H182.037L179.944 69.1818H178.929L176.836 75H177.767ZM178.557 72.7216L179.415 70.2386H179.461L180.319 72.7216H178.557ZM184.373 75.0852C185.168 75.0852 185.48 74.5994 185.634 74.321H185.705V75H186.534V69.1818H185.685V71.3438H185.634C185.48 71.0739 185.191 70.5795 184.378 70.5795C183.324 70.5795 182.549 71.4119 182.549 72.8267C182.549 74.2386 183.313 75.0852 184.373 75.0852ZM184.56 74.3608C183.801 74.3608 183.407 73.6932 183.407 72.8182C183.407 71.9517 183.793 71.3011 184.56 71.3011C185.301 71.3011 185.699 71.9062 185.699 72.8182C185.699 73.7358 185.293 74.3608 184.56 74.3608ZM189.017 75.0966C189.738 75.0966 190.145 74.7301 190.306 74.4034H190.341V75H191.17V72.1023C191.17 70.8324 190.17 70.5795 189.477 70.5795C188.687 70.5795 187.96 70.8977 187.676 71.6932L188.474 71.875C188.599 71.5653 188.917 71.267 189.488 71.267C190.037 71.267 190.318 71.554 190.318 72.0483V72.0682C190.318 72.3778 190 72.3722 189.216 72.4631C188.389 72.5597 187.542 72.7756 187.542 73.767C187.542 74.625 188.187 75.0966 189.017 75.0966ZM189.201 74.4148C188.721 74.4148 188.375 74.1989 188.375 73.7784C188.375 73.3239 188.778 73.1619 189.27 73.0966C189.545 73.0597 190.199 72.9858 190.321 72.8636V73.4261C190.321 73.9432 189.909 74.4148 189.201 74.4148ZM192.301 76.6364H193.151V74.321H193.202C193.355 74.5994 193.668 75.0852 194.463 75.0852C195.52 75.0852 196.287 74.2386 196.287 72.8267C196.287 71.4119 195.509 70.5795 194.455 70.5795C193.645 70.5795 193.353 71.0739 193.202 71.3438H193.131V70.6364H192.301V76.6364ZM193.134 72.8182C193.134 71.9062 193.532 71.3011 194.273 71.3011C195.043 71.3011 195.429 71.9517 195.429 72.8182C195.429 73.6932 195.032 74.3608 194.273 74.3608C193.543 74.3608 193.134 73.7358 193.134 72.8182ZM199.276 70.6364H198.381V69.5909H197.532V70.6364H196.892V71.3182H197.532V73.8949C197.529 74.6875 198.134 75.071 198.804 75.0568C199.074 75.054 199.256 75.0028 199.355 74.9659L199.202 74.2642C199.145 74.2756 199.04 74.3011 198.904 74.3011C198.628 74.3011 198.381 74.2102 198.381 73.7188V71.3182H199.276V70.6364ZM202.049 75.0881C203.001 75.0881 203.674 74.6193 203.868 73.9091L203.064 73.7642C202.91 74.1761 202.541 74.3864 202.058 74.3864C201.331 74.3864 200.842 73.9148 200.819 73.0739H203.922V72.7727C203.922 71.196 202.978 70.5795 201.99 70.5795C200.774 70.5795 199.973 71.5057 199.973 72.8466C199.973 74.2017 200.762 75.0881 202.049 75.0881ZM200.822 72.4375C200.856 71.8182 201.305 71.2812 201.995 71.2812C202.654 71.2812 203.086 71.7699 203.089 72.4375H200.822ZM204.864 75H205.713V72.3352C205.713 71.7642 206.154 71.3523 206.756 71.3523C206.932 71.3523 207.131 71.3835 207.199 71.4034V70.5909C207.114 70.5795 206.946 70.571 206.838 70.571C206.327 70.571 205.89 70.8608 205.73 71.3295H205.685V70.6364H204.864V75Z" fill="#4F5162"/>
<path d="M262.107 65L262.641 63.4602H264.914L265.445 65H266.377L264.283 59.1818H263.269L261.175 65H262.107ZM262.897 62.7216L263.755 60.2386H263.8L264.658 62.7216H262.897ZM267.149 65H267.999V62.3352C267.999 61.7642 268.439 61.3523 269.041 61.3523C269.217 61.3523 269.416 61.3835 269.484 61.4034V60.5909C269.399 60.5795 269.232 60.571 269.124 60.571C268.612 60.571 268.175 60.8608 268.016 61.3295H267.97V60.6364H267.149V65ZM271.893 66.7273C273.004 66.7273 273.862 66.2188 273.862 65.0966V60.6364H273.029V61.3438H272.967C272.816 61.0739 272.515 60.5795 271.702 60.5795C270.648 60.5795 269.873 61.4119 269.873 62.8011C269.873 64.1932 270.665 64.9347 271.697 64.9347C272.498 64.9347 272.808 64.483 272.961 64.2045H273.015V65.0625C273.015 65.7472 272.546 66.0426 271.901 66.0426C271.194 66.0426 270.918 65.6875 270.768 65.4375L270.038 65.7386C270.268 66.2727 270.85 66.7273 271.893 66.7273ZM271.884 64.2301C271.126 64.2301 270.731 63.6477 270.731 62.7898C270.731 61.9517 271.117 61.3011 271.884 61.3011C272.626 61.3011 273.023 61.9062 273.023 62.7898C273.023 63.6903 272.617 64.2301 271.884 64.2301ZM276.839 65.0881C278.069 65.0881 278.873 64.1875 278.873 62.8381C278.873 61.4801 278.069 60.5795 276.839 60.5795C275.609 60.5795 274.805 61.4801 274.805 62.8381C274.805 64.1875 275.609 65.0881 276.839 65.0881ZM276.842 64.375C276.038 64.375 275.663 63.6733 275.663 62.8352C275.663 62 276.038 61.2898 276.842 61.2898C277.64 61.2898 278.015 62 278.015 62.8352C278.015 63.6733 277.64 64.375 276.842 64.375ZM286.839 61.0739C286.64 59.8295 285.665 59.1023 284.435 59.1023C282.93 59.1023 281.819 60.2301 281.819 62.0909C281.819 63.9517 282.924 65.0795 284.435 65.0795C285.714 65.0795 286.648 64.2784 286.839 63.1278L285.952 63.125C285.802 63.8693 285.177 64.2784 284.441 64.2784C283.444 64.2784 282.691 63.5142 282.691 62.0909C282.691 60.679 283.441 59.9034 284.444 59.9034C285.185 59.9034 285.808 60.321 285.952 61.0739H286.839ZM289.773 65C291.545 65 292.571 63.9006 292.571 62.0824C292.571 60.2727 291.545 59.1818 289.832 59.1818H287.889V65H289.773ZM288.767 64.233V59.9489H289.778C291.051 59.9489 291.707 60.7102 291.707 62.0824C291.707 63.4602 291.051 64.233 289.724 64.233H288.767ZM268.219 70.7102H269.065C269.04 69.7784 268.216 69.1023 267.034 69.1023C265.866 69.1023 264.972 69.7699 264.972 70.7727C264.972 71.5824 265.551 72.0568 266.486 72.3097L267.173 72.4972C267.795 72.6619 268.276 72.8665 268.276 73.3835C268.276 73.9517 267.733 74.3267 266.986 74.3267C266.31 74.3267 265.747 74.0256 265.696 73.392H264.815C264.872 74.446 265.688 75.0966 266.991 75.0966C268.358 75.0966 269.145 74.3778 269.145 73.392C269.145 72.3438 268.21 71.9375 267.472 71.7557L266.903 71.608C266.449 71.4915 265.844 71.2784 265.847 70.7216C265.847 70.2273 266.298 69.8608 267.014 69.8608C267.682 69.8608 268.156 70.1733 268.219 70.7102ZM272.006 75.0881C272.958 75.0881 273.631 74.6193 273.825 73.9091L273.021 73.7642C272.867 74.1761 272.498 74.3864 272.015 74.3864C271.288 74.3864 270.799 73.9148 270.776 73.0739H273.879V72.7727C273.879 71.196 272.935 70.5795 271.947 70.5795C270.731 70.5795 269.93 71.5057 269.93 72.8466C269.93 74.2017 270.719 75.0881 272.006 75.0881ZM270.779 72.4375C270.813 71.8182 271.262 71.2812 271.952 71.2812C272.612 71.2812 273.043 71.7699 273.046 72.4375H270.779ZM274.821 75H275.67V72.3352C275.67 71.7642 276.111 71.3523 276.713 71.3523C276.889 71.3523 277.088 71.3835 277.156 71.4034V70.5909C277.071 70.5795 276.903 70.571 276.795 70.571C276.284 70.571 275.847 70.8608 275.688 71.3295H275.642V70.6364H274.821V75ZM281.757 70.6364H280.845L279.743 73.9943H279.697L278.592 70.6364H277.68L279.266 75H280.175L281.757 70.6364ZM284.28 75.0881C285.232 75.0881 285.905 74.6193 286.098 73.9091L285.294 73.7642C285.141 74.1761 284.771 74.3864 284.288 74.3864C283.561 74.3864 283.072 73.9148 283.05 73.0739H286.152V72.7727C286.152 71.196 285.209 70.5795 284.22 70.5795C283.004 70.5795 282.203 71.5057 282.203 72.8466C282.203 74.2017 282.993 75.0881 284.28 75.0881ZM283.053 72.4375C283.087 71.8182 283.536 71.2812 284.226 71.2812C284.885 71.2812 285.317 71.7699 285.32 72.4375H283.053ZM287.094 75H287.944V72.3352C287.944 71.7642 288.384 71.3523 288.987 71.3523C289.163 71.3523 289.362 71.3835 289.43 71.4034V70.5909C289.344 70.5795 289.177 70.571 289.069 70.571C288.558 70.571 288.12 70.8608 287.961 71.3295H287.915V70.6364H287.094V75Z" fill="#4F5162"/>
<path fill-rule="evenodd" clip-rule="evenodd" d="M27.0698 35.101C26.7982 35.8249 26.3456 36.4583 26.2551 36.4583L24.2635 38.4491L20.2802 34.5581L24.1729 30.6672L26.1645 32.6579C26.7982 33.2008 27.3414 33.9247 27.0698 35.101ZM17.0225 44.0595C16.2983 43.788 15.6646 43.3356 15.6646 43.2451L13.673 41.2543L17.5657 37.3634L21.4584 41.2543L19.4668 43.2451C18.9236 43.788 18.1089 44.3309 17.0225 44.0595ZM8.05921 34.0152C8.33071 33.2913 8.78341 32.6579 8.87391 32.6579L10.8655 30.6672L14.7582 34.5581L10.8655 38.4491L8.78341 36.4583C8.24021 35.9154 7.69701 35.101 8.05921 34.0152ZM18.1089 25.0572C18.8331 25.3287 19.4668 25.7811 19.4668 25.8716L21.4584 27.8623L17.5657 31.7533L13.673 27.8623L15.6646 25.8716C16.2078 25.3287 16.932 24.6952 18.1089 25.0572ZM29.062 29.8535L22.2724 23.067C22.1819 22.9765 21.0955 21.8906 19.466 21.3477C17.1123 20.5333 14.8491 21.1667 12.948 23.067L6.06791 29.8535C5.97741 29.944 4.89101 31.0299 4.34791 32.6586C3.53311 35.0113 4.16681 37.2735 6.06791 39.1737L12.8575 45.9603C12.948 46.0508 14.0343 47.1366 15.6639 47.6796C16.2975 47.8605 17.0218 48.0415 17.6555 48.0415C19.285 48.0415 20.8239 47.3176 22.1819 46.0508L28.9715 39.2642C29.062 39.1737 30.1483 38.0879 30.6915 36.4591C31.5062 34.1064 30.8725 31.7538 29.062 29.8535Z" fill="#0278D5"/>
<path d="M188.171 29.606L194.723 33.389V40.9551L188.171 44.7381L181.619 40.9551V33.389L188.171 29.606Z" fill="#A3E9FF"/>
<path d="M179.84 32.3614L188.171 27.5512L196.503 32.3614V41.9818L188.171 46.792L179.84 41.9818V32.3614Z" stroke="#30AAD1"/>
<path d="M179.84 32.3614L188.171 27.5512L196.503 32.3614V41.9818L188.171 46.792L179.84 41.9818V32.3614Z" stroke="#30AAD1"/>
<path d="M179.84 32.3614L188.171 27.5512L196.503 32.3614V41.9818L188.171 46.792L179.84 41.9818V32.3614Z" stroke="#30AAD1"/>
<path d="M178.131 31.3744L188.172 25.5774L198.212 31.3744V42.9686L188.172 48.7657L178.131 42.9686V31.3744Z" stroke="#30AAD1"/>
<path d="M178.131 31.3744L188.172 25.5774L198.212 31.3744V42.9686L188.172 48.7657L178.131 42.9686V31.3744Z" stroke="#30AAD1"/>
<path d="M178.131 31.3744L188.172 25.5774L198.212 31.3744V42.9686L188.172 48.7657L178.131 42.9686V31.3744Z" stroke="#E5F2F7"/>
<path d="M179.84 32.3614L188.171 27.5512L196.503 32.3614V41.9818L188.171 46.792L179.84 41.9818V32.3614Z" stroke="#30AAD1"/>
<path d="M179.84 32.3614L188.171 27.5512L196.503 32.3614V41.9818L188.171 46.792L179.84 41.9818V32.3614Z" stroke="#30AAD1"/>
<path d="M179.84 32.3614L188.171 27.5512L196.503 32.3614V41.9818L188.171 46.792L179.84 41.9818V32.3614Z" stroke="#30AAD1"/>
<path d="M249.283 35.2828C249.439 35.1266 249.439 34.8734 249.283 34.7172L246.737 32.1716C246.581 32.0154 246.328 32.0154 246.172 32.1716C246.015 32.3278 246.015 32.581 246.172 32.7373L248.434 35L246.172 37.2627C246.015 37.4189 246.015 37.6722 246.172 37.8284C246.328 37.9846 246.581 37.9846 246.737 37.8284L249.283 35.2828ZM205 35.4H249V34.6H205V35.4Z" fill="#3DC7F6"/>
<path d="M33.7172 44.7172C33.5609 44.8734 33.5609 45.1266 33.7172 45.2828L36.2627 47.8284C36.419 47.9846 36.6722 47.9846 36.8284 47.8284C36.9846 47.6722 36.9846 47.419 36.8284 47.2627L34.5657 45L36.8284 42.7373C36.9846 42.581 36.9846 42.3278 36.8284 42.1716C36.6722 42.0154 36.419 42.0154 36.2627 42.1716L33.7172 44.7172ZM34 45.4H173V44.6H34V45.4Z" fill="#3DC7F6"/>
<path d="M205 45H249" stroke="#3DC7F6" stroke-width="0.8"/>
<path d="M173 34H35" stroke="#3DC7F6" stroke-width="0.8"/>
<path d="M81.3167 18.3858L73.1997 13.7136C73.1054 13.6487 72.9952 13.6097 72.8805 13.6008C72.7658 13.5919 72.6507 13.6134 72.5473 13.6631L68.418 15.9198L77.8177 29.2771L81.9397 27.0276C82.0646 26.9357 82.1628 26.8131 82.2246 26.6721C82.2863 26.5311 82.3094 26.3766 82.2916 26.2241L82.3185 20.284C82.3209 19.5574 81.8738 18.7058 81.3167 18.3858Z" fill="url(#paint0_linear)"/>
<path d="M77.1188 29.2455L69.0018 24.5829C68.4447 24.2654 68 23.4137 68 22.6823L68.0269 16.7398C68.0269 16.0181 68.4838 15.674 69.0384 15.994L77.1579 20.6566C77.7125 20.9742 78.1597 21.8282 78.1572 22.5596L78.1303 28.4997C78.1279 29.2311 77.6734 29.5655 77.1188 29.2455Z" fill="url(#paint1_linear)"/>
<g style="mix-blend-mode:overlay">
<g style="mix-blend-mode:overlay">
<path style="mix-blend-mode:overlay" d="M81.3167 18.3398L73.1997 13.6797C73.1059 13.6138 72.9957 13.5742 72.8809 13.5649C72.7661 13.5556 72.6508 13.5769 72.5473 13.6267L68.418 15.8786L77.8177 29.2311L81.9397 26.9841C82.0641 26.8932 82.1622 26.7719 82.2243 26.6322C82.2865 26.4926 82.3105 26.3393 82.294 26.1877L82.3209 20.2477C82.3209 19.5115 81.8738 18.6598 81.3167 18.3398Z" fill="url(#paint2_linear)"/>
</g>
<g style="mix-blend-mode:overlay">
<path style="mix-blend-mode:overlay" d="M77.1188 29.1999L69.0018 24.5398C68.4447 24.2198 68 23.3681 68 22.6367L68.0269 16.6966C68.0269 15.9749 68.4838 15.6308 69.0384 15.9484L77.1579 20.611C77.7125 20.931 78.1597 21.7826 78.1572 22.514L78.1303 28.4541C78.1279 29.1855 77.6734 29.5199 77.1188 29.1999Z" fill="url(#paint3_linear)"/>
</g>
</g>
<path d="M92.043 24.4173L83.9233 19.7571C83.83 19.6913 83.7202 19.6516 83.6058 19.6423C83.4913 19.6329 83.3765 19.6543 83.2734 19.7042L79.144 21.9537L88.5414 35.3086L92.678 33.0615C92.802 32.9707 92.9 32.8494 92.963 32.7097C93.025 32.57 93.049 32.4168 93.032 32.2652L93.057 26.3251C93.047 25.5889 92.597 24.7372 92.043 24.4173Z" fill="url(#paint4_linear)"/>
<path d="M87.8454 35.2771L79.7284 30.6169C79.1737 30.2969 78.7242 29.4453 78.729 28.7139L78.751 22.7738C78.751 22.052 79.2055 21.708 79.7626 22.0256L87.8796 26.6881C88.4367 27.0081 88.8838 27.8598 88.8814 28.5912L88.8545 34.5312C88.8545 35.2626 88.4 35.6067 87.8454 35.2771Z" fill="url(#paint5_linear)"/>
<g style="mix-blend-mode:overlay">
<g style="mix-blend-mode:overlay">
<path style="mix-blend-mode:overlay" d="M92.043 24.3714L83.9238 19.7112C83.8305 19.6454 83.7207 19.6057 83.6063 19.5964C83.4918 19.587 83.377 19.6084 83.2739 19.6583L79.1445 21.9078L88.5418 35.2627L92.679 33.0156C92.803 32.9248 92.901 32.8035 92.963 32.6638C93.025 32.5241 93.049 32.3709 93.033 32.2193L93.057 26.2792C93.047 25.543 92.598 24.6914 92.043 24.3714Z" fill="url(#paint6_linear)"/>
</g>
<g style="mix-blend-mode:overlay">
<path style="mix-blend-mode:overlay" d="M87.8454 35.2317L79.7284 30.5715C79.1737 30.2515 78.7242 29.3998 78.729 28.6685L78.751 22.7284C78.751 22.0066 79.2055 21.6626 79.7626 21.9802L87.8796 26.6427C88.4367 26.9627 88.8838 27.8144 88.8814 28.5458L88.8545 34.4858C88.8545 35.2172 88.4 35.5516 87.8454 35.2317Z" fill="url(#paint7_linear)"/>
</g>
</g>
<path d="M102.769 30.4392L94.65 25.7766C94.556 25.7113 94.447 25.6719 94.332 25.6625C94.218 25.6532 94.103 25.6743 94 25.7237L89.8755 27.978L99.275 41.3281L103.4 39.081C103.524 38.9908 103.622 38.8699 103.684 38.7305C103.745 38.5911 103.769 38.4382 103.752 38.2871L103.778 32.347C103.771 31.6108 103.324 30.7592 102.769 30.4392Z" fill="url(#paint8_linear)"/>
<path d="M98.569 41.299L90.4525 36.6364C89.8954 36.3188 89.4483 35.4648 89.4507 34.7334L89.4776 28.7933C89.4776 28.0715 89.9345 27.7275 90.4916 28.0475L98.609 32.7197C99.166 33.0397 99.613 33.8913 99.61 34.6227L99.583 40.5628C99.579 41.2845 99.127 41.6214 98.569 41.299Z" fill="url(#paint9_linear)"/>
<g style="mix-blend-mode:overlay">
<g style="mix-blend-mode:overlay">
<path style="mix-blend-mode:overlay" d="M102.77 30.3932L94.65 25.7427C94.557 25.6777 94.447 25.6388 94.332 25.6299C94.218 25.621 94.103 25.6425 94 25.6922L89.876 27.9441L99.276 41.2846L103.4 39.0351C103.524 38.9441 103.622 38.8228 103.684 38.6831C103.745 38.5434 103.769 38.3902 103.752 38.2388L103.779 32.2987C103.772 31.5649 103.324 30.7132 102.77 30.3932Z" fill="url(#paint10_linear)"/>
</g>
<g style="mix-blend-mode:overlay">
<path style="mix-blend-mode:overlay" d="M98.569 41.2533L90.4525 36.5908C89.8954 36.2732 89.4483 35.4215 89.4507 34.6877L89.4776 28.7477C89.4776 28.0259 89.9345 27.6819 90.4916 28.0018L98.609 32.6644C99.166 32.982 99.613 33.8336 99.61 34.5674L99.583 40.5075C99.579 41.2389 99.127 41.5733 98.569 41.2533Z" fill="url(#paint11_linear)"/>
</g>
</g>
<path d="M113.493 36.5041L105.384 31.844C105.29 31.7782 105.18 31.7385 105.065 31.7292C104.95 31.7199 104.835 31.7412 104.731 31.791L100.604 34.0453L109.994 47.3954L114.119 45.1484C114.334 45.0257 114.471 44.7514 114.473 44.352L114.5 38.412C114.498 37.6758 114.051 36.8241 113.493 36.5041Z" fill="url(#paint12_linear)"/>
<path d="M109.293 47.3643L101.179 42.7042C100.621 42.3842 100.174 41.5325 100.177 40.8011L100.204 34.861C100.204 34.1273 100.661 33.7928 101.215 34.1128L109.335 38.7754C109.889 39.0954 110.339 39.947 110.334 40.6784L110.307 46.6185C110.305 47.3499 109.853 47.6843 109.293 47.3643Z" fill="url(#paint13_linear)"/>
<g style="mix-blend-mode:overlay">
<g style="mix-blend-mode:overlay">
<path style="mix-blend-mode:overlay" d="M113.494 36.4585L105.384 31.7983C105.29 31.7325 105.18 31.6928 105.065 31.6835C104.951 31.6742 104.835 31.6956 104.732 31.7454L100.595 33.9949L109.995 47.3498L114.119 45.1027C114.334 44.9824 114.471 44.7058 114.474 44.3064L114.501 38.3663C114.498 37.6301 114.051 36.7784 113.494 36.4585Z" fill="url(#paint14_linear)"/>
</g>
<g style="mix-blend-mode:overlay">
<path style="mix-blend-mode:overlay" d="M109.294 47.3186L101.177 42.6584C100.62 42.3384 100.172 41.4868 100.175 40.7554L100.202 34.8153C100.202 34.0935 100.659 33.7495 101.213 34.0671L109.335 38.7344C109.89 39.0544 110.339 39.9061 110.334 40.6375L110.308 46.5776C110.305 47.3041 109.853 47.6361 109.294 47.3186Z" fill="url(#paint15_linear)"/>
</g>
</g>
<path d="M124.22 42.769L116.104 38.1088C116.01 38.043 115.9 38.0034 115.785 37.9941C115.67 37.9848 115.555 38.0061 115.451 38.0559L111.324 40.3102L120.719 53.6507L124.844 51.4036C124.968 51.3128 125.066 51.1915 125.128 51.0518C125.19 50.9121 125.214 50.7589 125.198 50.6073L125.225 44.6672C125.225 43.9407 124.778 43.089 124.22 42.769Z" fill="url(#paint16_linear)"/>
<path d="M120.023 53.6291L111.903 48.9689C111.349 48.649 110.901 47.7973 110.904 47.0659L110.931 41.1258C110.931 40.4041 111.388 40.06 111.942 40.3776L120.059 45.0402C120.616 45.3602 121.063 46.2118 121.061 46.9432L121.034 52.8833C121.022 53.6147 120.577 53.9491 120.023 53.6291Z" fill="url(#paint17_linear)"/>
<g style="mix-blend-mode:overlay">
<g style="mix-blend-mode:overlay">
<path style="mix-blend-mode:overlay" d="M124.22 42.7233L116.104 38.0632C116.01 37.9974 115.9 37.9577 115.785 37.9484C115.67 37.9391 115.555 37.9605 115.451 38.0103L111.324 40.2646L120.722 53.6195L124.846 51.3724C124.97 51.2815 125.068 51.1603 125.131 51.0206C125.193 50.8809 125.217 50.7277 125.2 50.5761L125.227 44.636C125.225 43.895 124.778 43.0433 124.22 42.7233Z" fill="url(#paint18_linear)"/>
</g>
<g style="mix-blend-mode:overlay">
<path style="mix-blend-mode:overlay" d="M120.023 53.5834L111.903 48.9233C111.349 48.6033 110.901 47.7516 110.904 47.0203L110.931 41.0802C110.931 40.3584 111.388 40.0144 111.942 40.332L120.059 44.9897C120.616 45.3097 121.063 46.1614 121.061 46.8928L121.034 52.8328C121.022 53.569 120.577 53.9034 120.023 53.5834Z" fill="url(#paint19_linear)"/>
</g>
</g>
<path d="M134.949 48.8388L126.83 44.1763C126.736 44.1109 126.626 44.0715 126.512 44.0622C126.398 44.0529 126.283 44.074 126.18 44.1233L122.055 46.3776L131.452 59.7326L135.577 57.4855C135.701 57.3952 135.799 57.2743 135.861 57.1349C135.923 56.9956 135.946 56.8427 135.929 56.6916L135.956 50.7515C135.951 50.0081 135.501 49.154 134.949 48.8388Z" fill="url(#paint20_linear)"/>
<path d="M130.746 59.6969L122.629 55.0344C122.075 54.7144 121.625 53.8627 121.63 53.1313L121.654 47.1913C121.654 46.4695 122.111 46.1255 122.668 46.4454L130.795 51.1056C131.352 51.4256 131.799 52.2772 131.797 53.0086L131.772 58.9439C131.758 59.6801 131.303 60.0145 130.746 59.6969Z" fill="url(#paint21_linear)"/>
<g style="mix-blend-mode:overlay">
<g style="mix-blend-mode:overlay">
<path style="mix-blend-mode:overlay" d="M134.949 48.791L126.83 44.1284C126.736 44.0631 126.626 44.0237 126.512 44.0144C126.398 44.005 126.283 44.0262 126.18 44.0755L122.055 46.3298L131.452 59.6847L135.577 57.4377C135.701 57.3474 135.799 57.2265 135.861 57.0871C135.923 56.9477 135.946 56.7948 135.929 56.6437L135.956 50.7036C135.951 49.9626 135.501 49.111 134.949 48.791Z" fill="url(#paint22_linear)"/>
</g>
<g style="mix-blend-mode:overlay">
<path style="mix-blend-mode:overlay" d="M130.746 59.6508L122.629 54.9882C122.075 54.6706 121.625 53.8166 121.63 53.0852L121.654 47.1451C121.654 46.4234 122.111 46.0793 122.668 46.3993L130.795 51.0594C131.352 51.3794 131.799 52.2311 131.797 52.9625L131.772 58.9026C131.758 59.6363 131.303 59.9708 130.746 59.6508Z" fill="url(#paint23_linear)"/>
</g>
</g>
<path d="M102.977 21.1115L94.86 16.4489C94.766 16.3836 94.656 16.3442 94.541 16.3349C94.427 16.3256 94.312 16.3467 94.208 16.396L90.0786 18.6455L99.478 31.998L103.6 29.7485C103.725 29.6575 103.823 29.5362 103.885 29.3965C103.947 29.2569 103.971 29.1038 103.955 28.9522L103.982 23.0121C103.982 22.2831 103.534 21.4314 102.977 21.1115Z" fill="url(#paint24_linear)"/>
<path d="M98.787 31.9716L90.6624 27.309C90.1054 26.9914 89.6582 26.1374 89.6607 25.406L89.6875 19.4659C89.6875 18.7442 90.1444 18.4001 90.6991 18.7201L98.819 23.3827C99.373 23.7002 99.82 24.5519 99.818 25.2857L99.791 31.2258C99.789 31.9571 99.334 32.2916 98.787 31.9716Z" fill="url(#paint25_linear)"/>
<g style="mix-blend-mode:overlay">
<g style="mix-blend-mode:overlay">
<path style="mix-blend-mode:overlay" d="M102.977 21.0659L94.86 16.4033C94.766 16.3383 94.656 16.2994 94.541 16.2905C94.426 16.2816 94.311 16.3031 94.208 16.3528L90.0786 18.5998L99.478 31.9572L103.6 29.7077C103.725 29.6167 103.823 29.4954 103.885 29.3557C103.947 29.2161 103.971 29.063 103.955 28.9114L103.982 22.9713C103.982 22.2375 103.534 21.3858 102.977 21.0659Z" fill="url(#paint26_linear)"/>
</g>
<g style="mix-blend-mode:overlay">
<path style="mix-blend-mode:overlay" d="M98.787 31.9259L90.6624 27.2634C90.1054 26.9458 89.6582 26.0941 89.6607 25.3627L89.6875 19.4203C89.6875 18.6985 90.1444 18.3545 90.6991 18.6744L98.819 23.337C99.373 23.6546 99.82 24.5087 99.818 25.24L99.791 31.1801C99.789 31.9115 99.334 32.2387 98.787 31.9259Z" fill="url(#paint27_linear)"/>
</g>
</g>
<path d="M113.704 27.1863L105.587 22.5166C105.493 22.4508 105.383 22.4111 105.268 22.4018C105.153 22.3925 105.038 22.4138 104.935 22.4636L100.808 24.7179L110.205 38.0729L114.329 35.8258C114.454 35.7349 114.552 35.6136 114.614 35.474C114.676 35.3343 114.7 35.1811 114.684 35.0295L114.708 29.0894C114.708 28.3484 114.259 27.4967 113.704 27.1863Z" fill="url(#paint28_linear)"/>
<path d="M109.506 38.0366L101.387 33.3764C100.832 33.0564 100.382 32.2048 100.387 31.4734L100.414 25.5333C100.414 24.8116 100.869 24.4675 101.426 24.7851L109.538 29.4477C110.095 29.7676 110.542 30.6193 110.54 31.3507L110.515 37.2908C110.515 38.0125 110.061 38.3566 109.506 38.0366Z" fill="url(#paint29_linear)"/>
<g style="mix-blend-mode:overlay">
<g style="mix-blend-mode:overlay">
<path style="mix-blend-mode:overlay" d="M113.704 27.1332L105.587 22.4707C105.493 22.4049 105.383 22.3652 105.268 22.3559C105.153 22.3466 105.038 22.3679 104.935 22.4177L100.808 24.672L110.202 38.0125L114.327 35.7655C114.451 35.675 114.549 35.5541 114.611 35.4149C114.673 35.2756 114.698 35.1228 114.681 34.9715L114.706 29.029C114.708 28.3025 114.259 27.4508 113.704 27.1332Z" fill="url(#paint30_linear)"/>
</g>
<g style="mix-blend-mode:overlay">
<path style="mix-blend-mode:overlay" d="M109.506 37.9933L101.387 33.3308C100.832 33.0108 100.382 32.1591 100.387 31.4277L100.414 25.4877C100.414 24.7659 100.869 24.4219 101.426 24.7394L109.538 29.402C110.095 29.722 110.542 30.5737 110.54 31.305L110.515 37.2451C110.515 37.9765 110.061 38.3109 109.506 37.9933Z" fill="url(#paint31_linear)"/>
</g>
</g>
<g opacity="0.4">
<path opacity="0.4" d="M124.443 33.4417L116.323 28.7815C116.23 28.7157 116.12 28.676 116.006 28.6667C115.891 28.6574 115.776 28.6788 115.673 28.7286L111.549 30.9829L120.946 44.3378L125.071 42.0908C125.195 41.9999 125.293 41.8786 125.355 41.7389C125.416 41.5991 125.44 41.4459 125.422 41.2944L125.449 35.3543C125.432 34.6133 124.985 33.7617 124.443 33.4417Z" fill="url(#paint32_linear)"/>
<path opacity="0.4" d="M120.23 44.3017L112.113 39.6416C111.556 39.3216 111.109 38.4699 111.111 37.7385L111.138 31.7985C111.138 31.0767 111.595 30.7327 112.152 31.0502L120.269 35.7128C120.826 36.0328 121.273 36.8844 121.271 37.6158L121.244 43.5463C121.239 44.2873 120.777 44.6217 120.23 44.3017Z" fill="url(#paint33_linear)"/>
<g style="mix-blend-mode:overlay" opacity="0.4">
<path style="mix-blend-mode:overlay" opacity="0.4" d="M124.443 33.3982L116.323 28.7356C116.23 28.6698 116.12 28.6301 116.006 28.6208C115.891 28.6115 115.776 28.6329 115.673 28.6827L111.549 30.937L120.946 44.2919L125.071 42.0449C125.195 41.9544 125.292 41.8335 125.354 41.6942C125.416 41.5548 125.439 41.402 125.422 41.2509L125.449 35.3109C125.432 34.5674 124.985 33.7158 124.443 33.3982Z" fill="url(#paint34_linear)"/>
<path style="mix-blend-mode:overlay" opacity="0.4" d="M120.23 44.2677L112.113 39.6052C111.556 39.2852 111.109 38.4335 111.111 37.7021L111.138 31.7621C111.138 31.0403 111.595 30.6963 112.152 31.0139L120.269 35.6764C120.826 35.9964 121.273 36.8481 121.271 37.5794L121.244 43.5195C121.239 44.2413 120.777 44.5757 120.23 44.2677Z" fill="url(#paint35_linear)"/>
</g>
</g>
<g style="mix-blend-mode:overlay" opacity="0.5">
<g style="mix-blend-mode:overlay" opacity="0.5">
<path style="mix-blend-mode:overlay" opacity="0.5" d="M124.443 33.4414L116.323 28.7789C116.229 28.7139 116.12 28.6749 116.005 28.666C115.891 28.6571 115.776 28.6787 115.673 28.7283L111.549 30.9802L120.946 44.3376L125.053 42.1025C125.178 42.0115 125.275 41.8902 125.337 41.7505C125.399 41.6108 125.422 41.4576 125.405 41.3062L125.42 35.3661C125.432 34.6227 124.985 33.771 124.443 33.4414Z" fill="url(#paint36_linear)"/>
</g>
<g style="mix-blend-mode:overlay" opacity="0.5">
<path style="mix-blend-mode:overlay" opacity="0.5" d="M120.23 44.3109L112.113 39.6484C111.556 39.3308 111.109 38.4791 111.111 37.7477L111.138 31.8053C111.138 31.0835 111.595 30.7395 112.152 31.0595L120.269 35.722C120.826 36.0396 121.273 36.8937 121.271 37.625L121.244 43.5651C121.239 44.2965 120.777 44.6309 120.23 44.3109Z" fill="url(#paint37_linear)"/>
</g>
<g style="mix-blend-mode:overlay" opacity="0.5">
<g style="mix-blend-mode:overlay" opacity="0.5">
<path style="mix-blend-mode:overlay" opacity="0.5" d="M124.443 33.4053L116.323 28.7452C116.23 28.6793 116.12 28.6396 116.006 28.6303C115.891 28.621 115.776 28.6424 115.673 28.6922L111.549 30.9465L120.946 44.3015L125.071 42.0544C125.195 41.9636 125.293 41.8422 125.355 41.7025C125.416 41.5627 125.44 41.4095 125.422 41.2581L125.449 35.318C125.432 34.577 124.985 33.7253 124.443 33.4053Z" fill="url(#paint38_linear)"/>
</g>
<g style="mix-blend-mode:overlay" opacity="0.5">
<path style="mix-blend-mode:overlay" opacity="0.5" d="M120.23 44.2678L112.113 39.6077C111.556 39.2877 111.109 38.436 111.111 37.7046L111.138 31.7646C111.138 31.0308 111.595 30.6988 112.152 31.0163L120.269 35.6789C120.826 35.9989 121.273 36.8506 121.271 37.5819L121.244 43.522C121.239 44.251 120.777 44.5854 120.23 44.2678Z" fill="url(#paint39_linear)"/>
</g>
</g>
</g>
<path d="M135.155 39.5092L127.038 34.8466C126.944 34.7813 126.833 34.7419 126.719 34.7326C126.604 34.7233 126.489 34.7444 126.385 34.7937L122.256 37.0504L131.656 50.4053L135.78 48.1583C135.995 48.038 136.132 47.7637 136.134 47.3643L136.161 41.4242C136.171 40.6808 135.712 39.8292 135.155 39.5092Z" fill="url(#paint40_linear)"/>
<path d="M130.957 50.3693L122.84 45.7116C122.283 45.3916 121.835 44.5399 121.838 43.8086L121.865 37.8685C121.865 37.1467 122.322 36.8027 122.876 37.1227L130.996 41.7828C131.55 42.1028 132 42.9545 131.995 43.6859L131.968 49.6259C131.966 50.3549 131.514 50.6893 130.957 50.3693Z" fill="url(#paint41_linear)"/>
<g style="mix-blend-mode:overlay">
<g style="mix-blend-mode:overlay">
<path style="mix-blend-mode:overlay" d="M135.155 39.456L127.038 34.7934C126.944 34.7281 126.833 34.6887 126.719 34.6794C126.604 34.6701 126.489 34.6912 126.385 34.7405L122.258 36.9924L131.658 50.3497L135.78 48.1171C135.995 47.9944 136.132 47.7201 136.134 47.3207L136.161 41.3806C136.171 40.6348 135.712 39.7832 135.155 39.456Z" fill="url(#paint42_linear)"/>
</g>
<g style="mix-blend-mode:overlay">
<path style="mix-blend-mode:overlay" d="M130.957 50.3231L122.84 45.6606C122.283 45.343 121.835 44.4889 121.838 43.7575L121.865 37.8175C121.865 37.0957 122.322 36.7517 122.876 37.0717L130.996 41.7342C131.55 42.0518 132 42.9035 131.995 43.6373L131.968 49.5773C131.966 50.3087 131.514 50.6431 130.957 50.3231Z" fill="url(#paint43_linear)"/>
</g>
</g>
<path d="M113.821 17.6374L105.704 12.9748C105.61 12.9099 105.5 12.8709 105.385 12.8621C105.27 12.8532 105.155 12.8747 105.052 12.9243L100.925 15.1762L110.322 28.5335L114.447 26.2841C114.571 26.193 114.669 26.0717 114.731 25.9321C114.793 25.7925 114.817 25.6393 114.801 25.4877L114.825 19.5476C114.825 18.809 114.376 17.9574 113.821 17.6374Z" fill="url(#paint44_linear)"/>
<path d="M109.623 28.4975L101.504 23.8349C100.949 23.5173 100.5 22.6657 100.504 21.9319L100.531 15.9918C100.531 15.27 100.988 14.926 101.543 15.246L109.66 19.9085C110.217 20.2261 110.664 21.0778 110.662 21.8116L110.635 27.7516C110.632 28.483 110.178 28.8174 109.623 28.4975Z" fill="url(#paint45_linear)"/>
<g style="mix-blend-mode:overlay">
<g style="mix-blend-mode:overlay">
<path style="mix-blend-mode:overlay" d="M113.821 17.5917L105.704 12.9292C105.61 12.8642 105.5 12.8253 105.385 12.8164C105.27 12.8075 105.155 12.829 105.052 12.8787L100.925 15.1305L110.322 28.4879L114.444 26.224C114.568 26.1329 114.666 26.0116 114.728 25.872C114.791 25.7324 114.815 25.5792 114.798 25.4276L114.823 19.4876C114.825 18.7658 114.376 17.9117 113.821 17.5917Z" fill="url(#paint46_linear)"/>
</g>
<g style="mix-blend-mode:overlay">
<path style="mix-blend-mode:overlay" d="M109.623 28.4519L101.504 23.7917C100.949 23.4717 100.497 22.6153 100.497 21.8935L100.524 15.951C100.524 15.2293 100.981 14.8852 101.536 15.2052L109.66 19.863C110.217 20.1805 110.664 21.0346 110.662 21.766L110.635 27.7061C110.632 28.4374 110.178 28.7719 109.623 28.4519Z" fill="url(#paint47_linear)"/>
</g>
</g>
<path d="M124.548 23.9022L116.428 19.2469C116.334 19.1819 116.225 19.1429 116.11 19.134C115.996 19.1251 115.881 19.1467 115.778 19.1963L111.649 21.4362L121.046 34.7935L125.176 32.5441C125.3 32.4531 125.397 32.3317 125.459 32.192C125.521 32.0523 125.544 31.8992 125.527 31.7477L125.554 25.8077C125.552 25.0739 125.102 24.2222 124.548 23.9022Z" fill="url(#paint48_linear)"/>
<path d="M120.347 34.7624L112.225 30.0998C111.671 29.7822 111.221 28.9305 111.224 28.1968L111.248 22.2567C111.248 21.5349 111.705 21.1909 112.262 21.5109L120.379 26.1734C120.936 26.491 121.383 27.3427 121.381 28.0765L121.354 34.0165C121.356 34.7479 120.904 35.0823 120.347 34.7624Z" fill="url(#paint49_linear)"/>
<g style="mix-blend-mode:overlay">
<g style="mix-blend-mode:overlay">
<path style="mix-blend-mode:overlay" d="M124.548 23.8567L116.428 19.1966C116.335 19.1307 116.225 19.091 116.111 19.0817C115.996 19.0724 115.881 19.0938 115.778 19.1436L111.654 21.3979L121.051 34.7529L125.176 32.501C125.3 32.41 125.397 32.2886 125.459 32.1489C125.521 32.0092 125.544 31.8561 125.527 31.7046L125.554 25.7646C125.552 25.0212 125.102 24.1767 124.548 23.8567Z" fill="url(#paint50_linear)"/>
</g>
<g style="mix-blend-mode:overlay">
<path style="mix-blend-mode:overlay" d="M120.347 34.7168L112.225 30.0566C111.671 29.7367 111.221 28.885 111.224 28.1536L111.248 22.2135C111.248 21.4918 111.705 21.1453 112.262 21.4653L120.386 26.1279C120.943 26.4479 121.391 27.2995 121.388 28.0309L121.361 33.971C121.356 34.7024 120.904 35.0368 120.347 34.7168Z" fill="url(#paint51_linear)"/>
</g>
</g>
<g opacity="0.4">
<path opacity="0.4" d="M135.271 29.9676L127.154 25.3074C127.061 25.2416 126.951 25.2019 126.837 25.1926C126.722 25.1832 126.607 25.2046 126.504 25.2545L122.377 27.5088L131.772 40.8589L135.897 38.6118C136.112 38.4915 136.249 38.2149 136.251 37.8155L136.278 31.8754C136.275 31.1392 135.828 30.2875 135.271 29.9676Z" fill="url(#paint52_linear)"/>
<path opacity="0.4" d="M131.074 40.8278L122.957 36.1677C122.4 35.8477 121.953 34.996 121.955 34.2646L121.982 28.3246C121.982 27.6028 122.439 27.2588 122.994 27.5764L131.113 32.2389C131.668 32.5589 132.117 33.4106 132.112 34.142L132.088 40.082C132.083 40.8134 131.631 41.1406 131.074 40.8278Z" fill="url(#paint53_linear)"/>
<g style="mix-blend-mode:overlay" opacity="0.4">
<path style="mix-blend-mode:overlay" opacity="0.4" d="M135.271 29.9243L127.154 25.2617C127.061 25.1964 126.951 25.157 126.837 25.1477C126.722 25.1383 126.608 25.1595 126.504 25.2088L122.377 27.4631L131.772 40.8132L135.897 38.5661C136.112 38.4458 136.249 38.1716 136.251 37.7722L136.278 31.8321C136.275 31.0935 135.828 30.2419 135.271 29.9243Z" fill="url(#paint54_linear)"/>
<path style="mix-blend-mode:overlay" opacity="0.4" d="M131.074 40.7843L122.957 36.1218C122.4 35.8018 121.953 34.9501 121.955 34.2187L121.982 28.2787C121.982 27.5569 122.439 27.2129 122.994 27.5328L131.113 32.193C131.668 32.513 132.117 33.3647 132.112 34.096L132.088 40.0361C132.083 40.7675 131.631 41.1019 131.074 40.7843Z" fill="url(#paint55_linear)"/>
</g>
</g>
<g style="mix-blend-mode:overlay">
<g style="mix-blend-mode:overlay" opacity="0.5">
<path style="mix-blend-mode:overlay" opacity="0.5" d="M135.271 29.9773L127.154 25.3172C127.061 25.2513 126.951 25.2116 126.837 25.2023C126.722 25.193 126.607 25.2144 126.504 25.2642L122.377 27.5161L131.772 40.8687L135.897 38.6192C136.112 38.4965 136.249 38.2222 136.251 37.8228L136.278 31.8828C136.275 31.149 135.828 30.2973 135.271 29.9773Z" fill="url(#paint56_linear)"/>
</g>
<g style="mix-blend-mode:overlay" opacity="0.5">
<path style="mix-blend-mode:overlay" opacity="0.5" d="M131.074 40.8374L122.957 36.1772C122.4 35.8573 121.953 35.0056 121.955 34.2742L121.982 28.3341C121.982 27.6124 122.439 27.2659 122.994 27.5859L131.113 32.2389C131.668 32.5564 132.117 33.4105 132.112 34.1419L132.088 40.082C132.083 40.823 131.631 41.1574 131.074 40.8374Z" fill="url(#paint57_linear)"/>
</g>
<g style="mix-blend-mode:overlay" opacity="0.5">
<g style="mix-blend-mode:overlay" opacity="0.5">
<path style="mix-blend-mode:overlay" opacity="0.5" d="M135.271 29.9315L127.154 25.2618C127.061 25.1959 126.951 25.1562 126.837 25.1469C126.722 25.1376 126.607 25.159 126.504 25.2088L122.377 27.4631L131.772 40.8229L135.897 38.5758C136.112 38.4555 136.249 38.1788 136.251 37.7795L136.278 31.8394C136.275 31.1032 135.828 30.2515 135.271 29.9315Z" fill="url(#paint58_linear)"/>
</g>
<g style="mix-blend-mode:overlay" opacity="0.5">
<path style="mix-blend-mode:overlay" opacity="0.5" d="M131.074 40.7915L122.957 36.1313C122.4 35.8113 121.953 34.9597 121.955 34.2283L121.982 28.2882C121.982 27.5664 122.439 27.2224 122.994 27.54L131.113 32.2025C131.668 32.5225 132.117 33.3742 132.112 34.1056L132.088 40.0456C132.083 40.777 131.631 41.1114 131.074 40.7915Z" fill="url(#paint59_linear)"/>
</g>
</g>
</g>
<path d="M124.665 14.3654L116.545 9.70288C116.452 9.63752 116.342 9.59813 116.228 9.58882C116.113 9.5795 115.999 9.60062 115.895 9.64995L111.769 11.9042L121.163 25.2616L125.288 23.0145C125.412 22.9242 125.51 22.8033 125.572 22.664C125.634 22.5246 125.657 22.3717 125.64 22.2206L125.664 16.2685C125.664 15.5347 125.219 14.6758 124.665 14.3654Z" fill="url(#paint60_linear)"/>
<path d="M120.465 25.2255L112.348 20.5629C111.793 20.2429 111.343 19.3913 111.348 18.6599L111.373 12.7198C111.373 11.9981 111.83 11.654 112.387 11.974L120.504 16.6342C121.061 16.9541 121.508 17.8058 121.505 18.5372L121.479 24.4773C121.476 25.2086 121.022 25.5431 120.465 25.2255Z" fill="url(#paint61_linear)"/>
<g style="mix-blend-mode:overlay">
<g style="mix-blend-mode:overlay">
<path style="mix-blend-mode:overlay" d="M124.665 14.3198L116.545 9.65723C116.452 9.59187 116.342 9.55247 116.228 9.54316C116.113 9.53385 115.999 9.55496 115.895 9.6043L111.769 11.8586L121.166 25.2135L125.29 22.9665C125.415 22.8762 125.513 22.7553 125.574 22.6159C125.636 22.4765 125.659 22.3236 125.642 22.1725L125.664 16.2228C125.664 15.4914 125.219 14.6374 124.665 14.3198Z" fill="url(#paint62_linear)"/>
</g>
<g style="mix-blend-mode:overlay">
<path style="mix-blend-mode:overlay" d="M120.465 25.1798L112.348 20.5173C111.793 20.1973 111.343 19.3456 111.348 18.6142L111.373 12.6742C111.373 11.9524 111.83 11.6084 112.387 11.9283L120.504 16.6005C121.061 16.9205 121.508 17.7722 121.505 18.5036L121.479 24.4436C121.476 25.1654 121.022 25.5022 120.465 25.1798Z" fill="url(#paint63_linear)"/>
</g>
</g>
<path d="M135.389 20.4307L127.272 15.7681C127.178 15.7031 127.068 15.6642 126.954 15.6553C126.84 15.6464 126.725 15.6679 126.622 15.7176L122.488 17.9647L131.888 31.322L136.012 29.0725C136.136 28.9812 136.233 28.8598 136.295 28.7202C136.357 28.5806 136.38 28.4276 136.364 28.2762L136.391 22.3361C136.393 21.6023 135.946 20.7506 135.389 20.4307Z" fill="url(#paint64_linear)"/>
<path d="M131.191 31.2907L123.074 26.6281C122.517 26.3105 122.07 25.4589 122.072 24.7251L122.099 18.785C122.099 18.0632 122.556 17.7192 123.113 18.0392L131.23 22.7017C131.785 23.0193 132.234 23.871 132.229 24.6048L132.205 30.5449C132.2 31.2762 131.748 31.6107 131.191 31.2907Z" fill="url(#paint65_linear)"/>
<g style="mix-blend-mode:overlay">
<g style="mix-blend-mode:overlay">
<path style="mix-blend-mode:overlay" d="M135.389 20.3848L127.272 15.7222C127.178 15.6572 127.068 15.6183 126.954 15.6094C126.84 15.6005 126.725 15.622 126.622 15.6717L122.488 17.9188L131.89 31.2761L136.014 29.0266C136.138 28.9353 136.236 28.8139 136.297 28.6743C136.359 28.5347 136.383 28.3817 136.366 28.2303L136.393 22.2902C136.393 21.5564 135.946 20.7047 135.389 20.3848Z" fill="url(#paint66_linear)"/>
</g>
<g style="mix-blend-mode:overlay">
<path style="mix-blend-mode:overlay" d="M131.191 31.2448L123.074 26.5846C122.517 26.2646 122.07 25.413 122.072 24.6816L122.099 18.7391C122.099 18.0173 122.556 17.6733 123.113 17.9933L131.23 22.6559C131.785 22.9734 132.234 23.8275 132.229 24.5589L132.205 30.499C132.2 31.2303 131.748 31.5648 131.191 31.2448Z" fill="url(#paint67_linear)"/>
</g>
</g>
<path d="M124.782 4.82376L116.663 0.16361C116.57 0.0977705 116.46 0.0580797 116.346 0.0487596C116.231 0.0394395 116.116 0.0608389 116.013 0.110681L111.884 2.36016L121.281 15.7151L125.406 13.4728C125.53 13.3818 125.628 13.2605 125.69 13.1209C125.752 12.9812 125.776 12.8281 125.76 12.6765L125.784 6.73642C125.787 5.99542 125.337 5.14374 124.782 4.82376Z" fill="url(#paint68_linear)"/>
<path d="M120.584 15.6846L112.47 11.0245C111.915 10.7045 111.465 9.85281 111.47 9.12143L111.492 3.18136C111.492 2.44757 111.947 2.11316 112.504 2.43313L120.621 7.0957C121.178 7.41568 121.625 8.26735 121.623 8.99873L121.596 14.9388C121.593 15.6702 121.139 16.0046 120.584 15.6846Z" fill="url(#paint69_linear)"/>
<g style="mix-blend-mode:overlay">
<g style="mix-blend-mode:overlay">
<path style="mix-blend-mode:overlay" d="M124.782 4.77811L116.663 0.117956C116.569 0.0521162 116.459 0.0124254 116.345 0.00310531C116.231 -0.00621475 116.116 0.0151846 116.013 0.065027L111.883 2.31451L121.281 15.6694L125.405 13.4224C125.529 13.3315 125.628 13.2102 125.69 13.0705C125.752 12.9309 125.776 12.7776 125.759 12.626L125.784 6.68596C125.786 5.94976 125.337 5.09809 124.782 4.77811Z" fill="url(#paint70_linear)"/>
</g>
<g style="mix-blend-mode:overlay">
<path d="M120.584 15.638L112.47 10.9779C111.915 10.6579 111.465 9.80622 111.47 9.07484L111.492 3.12755C111.492 2.4058 111.947 2.06176 112.504 2.37933L120.621 7.04911C121.178 7.36909 121.625 8.22076 121.623 8.95214L121.596 14.8922C121.593 15.6236 121.139 15.958 120.584 15.638Z" fill="#56CCF2"/>
</g>
</g>
<path d="M145.671 55.0171L137.554 50.357C137.46 50.2911 137.351 50.2514 137.236 50.2421C137.122 50.2328 137.007 50.2542 136.904 50.304L132.777 52.5583L142.172 65.9205L146.296 63.6734C146.511 63.5507 146.648 63.2765 146.65 62.8771L146.677 56.937C146.677 56.1888 146.228 55.3347 145.671 55.0171Z" fill="url(#paint71_linear)"/>
<path d="M141.473 65.8775L133.356 61.2173C132.799 60.8973 132.352 60.0456 132.355 59.3143L132.381 53.3742C132.381 52.6524 132.838 52.306 133.395 52.626L141.512 57.2885C142.067 57.6085 142.524 58.4626 142.524 59.1843L142.499 65.1244C142.482 65.863 142.035 66.1974 141.473 65.8775Z" fill="url(#paint72_linear)"/>
<g style="mix-blend-mode:overlay">
<g style="mix-blend-mode:overlay">
<path style="mix-blend-mode:overlay" d="M145.671 54.9715L137.554 50.3113C137.46 50.2455 137.351 50.2058 137.236 50.1965C137.122 50.1871 137.007 50.2085 136.904 50.2584L132.777 52.5127L142.177 65.8676L146.301 63.6205C146.516 63.5003 146.653 63.2236 146.655 62.8242L146.677 56.8745C146.677 56.1431 146.228 55.2915 145.671 54.9715Z" fill="url(#paint73_linear)"/>
</g>
<g style="mix-blend-mode:overlay">
<path style="mix-blend-mode:overlay" d="M141.473 65.8317L133.356 61.1716C132.799 60.8516 132.352 59.9999 132.355 59.2686L132.381 53.3285C132.381 52.6067 132.838 52.2627 133.395 52.5803L141.512 57.2428C142.067 57.5628 142.517 58.4145 142.512 59.1459L142.487 65.0859C142.482 65.8173 142.035 66.1613 141.473 65.8317Z" fill="url(#paint74_linear)"/>
</g>
</g>
<path d="M145.881 45.6899L137.764 41.0297C137.67 40.9639 137.56 40.9243 137.445 40.915C137.331 40.9057 137.215 40.927 137.112 40.9768L132.995 43.2263L142.392 56.5812L146.516 54.3342C146.641 54.2433 146.739 54.122 146.801 53.9823C146.863 53.8427 146.887 53.6894 146.871 53.5378L146.898 47.5977C146.885 46.8616 146.433 46.0099 145.881 45.6899Z" fill="url(#paint75_linear)"/>
<path d="M141.683 56.5498L133.564 51.8896C133.009 51.5696 132.562 50.7179 132.564 49.9866L132.591 44.0465C132.591 43.3247 133.048 42.9807 133.603 43.2983L141.72 47.9608C142.277 48.2808 142.724 49.1325 142.722 49.8639L142.695 55.816C142.692 56.5377 142.238 56.8697 141.683 56.5498Z" fill="url(#paint76_linear)"/>
<g style="mix-blend-mode:overlay">
<g style="mix-blend-mode:overlay">
<path style="mix-blend-mode:overlay" d="M145.881 45.6464L137.764 40.9839C137.67 40.918 137.56 40.8784 137.445 40.8691C137.331 40.8598 137.215 40.8811 137.112 40.9309L132.995 43.1804L142.38 56.5377L146.504 54.2907C146.628 54.2002 146.726 54.0793 146.788 53.9401C146.851 53.8008 146.875 53.648 146.858 53.4967L146.885 47.5543C146.885 46.8157 146.433 45.964 145.881 45.6464Z" fill="url(#paint77_linear)"/>
</g>
<g style="mix-blend-mode:overlay">
<path style="mix-blend-mode:overlay" d="M141.683 56.5065L133.564 51.844C133.009 51.524 132.562 50.6723 132.564 49.9409L132.591 44.0008C132.591 43.2791 133.048 42.935 133.603 43.2526L141.72 47.9152C142.277 48.2352 142.724 49.0868 142.722 49.8182L142.695 55.7583C142.692 56.4897 142.238 56.8241 141.683 56.5065Z" fill="url(#paint78_linear)"/>
</g>
</g>
<g opacity="0.4">
<path opacity="0.4" d="M145.998 36.1506L137.881 31.488C137.787 31.4231 137.677 31.3841 137.562 31.3752C137.447 31.3664 137.332 31.3879 137.229 31.4375L133.1 33.6822L142.497 47.0395L146.621 44.79C146.746 44.699 146.844 44.5777 146.906 44.4381C146.968 44.2984 146.992 44.1453 146.976 43.9937L147.003 38.0536C147.003 37.3222 146.555 36.4706 145.998 36.1506Z" fill="url(#paint79_linear)"/>
<path opacity="0.4" d="M141.791 47.0106L133.681 42.3432C133.126 42.0256 132.679 41.174 132.682 40.4402L132.709 34.5001C132.709 33.7783 133.165 33.4343 133.72 33.7543L141.84 38.4216C142.394 38.7392 142.841 39.5909 142.839 40.3247L142.812 46.2648C142.81 46.9961 142.355 47.3306 141.791 47.0106Z" fill="url(#paint80_linear)"/>
<g style="mix-blend-mode:overlay" opacity="0.4">
<g style="mix-blend-mode:overlay" opacity="0.4">
<path style="mix-blend-mode:overlay" opacity="0.4" d="M145.998 36.1047L137.881 31.4421C137.787 31.3772 137.677 31.3382 137.562 31.3293C137.447 31.3205 137.332 31.342 137.229 31.3916L133.102 33.6435L142.499 47.0008L146.621 44.7489C146.746 44.6579 146.844 44.5366 146.906 44.397C146.968 44.2573 146.992 44.1042 146.976 43.9526L147.003 38.0125C147.003 37.2763 146.555 36.4247 145.998 36.1047Z" fill="url(#paint81_linear)"/>
</g>
<g style="mix-blend-mode:overlay" opacity="0.4">
<path style="mix-blend-mode:overlay" opacity="0.4" d="M141.791 46.9648L133.671 42.3046C133.117 41.9846 132.669 41.1329 132.672 40.4016L132.699 34.4591C132.699 33.7373 133.156 33.3933 133.71 33.7133L141.83 38.3758C142.384 38.6934 142.832 39.5475 142.829 40.2789L142.802 46.2189C142.81 46.9503 142.355 47.2847 141.791 46.9648Z" fill="url(#paint82_linear)"/>
</g>
</g>
</g>
<g style="mix-blend-mode:overlay" opacity="0.5">
<g style="mix-blend-mode:overlay" opacity="0.5">
<path style="mix-blend-mode:overlay" opacity="0.5" d="M145.998 36.1605L137.881 31.498C137.787 31.4327 137.677 31.3933 137.562 31.384C137.448 31.3747 137.333 31.3958 137.229 31.4451L133.102 33.6993L142.499 47.0543L146.624 44.8072C146.748 44.7169 146.846 44.596 146.908 44.4568C146.971 44.3175 146.995 44.1646 146.978 44.0133L147.005 38.0732C147.003 37.3322 146.555 36.4781 145.998 36.1605Z" fill="url(#paint83_linear)"/>
</g>
<g style="mix-blend-mode:overlay" opacity="0.5">
<path style="mix-blend-mode:overlay" opacity="0.5" d="M141.791 47.0207L133.671 42.3581C133.117 42.0381 132.669 41.1864 132.672 40.4551L132.699 34.515C132.699 33.7932 133.156 33.4492 133.71 33.7692L141.83 38.4293C142.384 38.7493 142.832 39.601 142.829 40.3324L142.802 46.2724C142.81 47.0038 142.355 47.3382 141.791 47.0207Z" fill="url(#paint84_linear)"/>
</g>
<g style="mix-blend-mode:overlay" opacity="0.5">
<g style="mix-blend-mode:overlay" opacity="0.5">
<path style="mix-blend-mode:overlay" opacity="0.5" d="M145.998 36.1146L137.881 31.4521C137.787 31.3868 137.677 31.3474 137.562 31.3381C137.448 31.3288 137.333 31.3499 137.229 31.3992L133.102 33.6535L142.499 47.0108L146.621 44.7493C146.746 44.659 146.844 44.5381 146.906 44.3988C146.968 44.2595 146.992 44.1066 146.976 43.9554L147.003 38.0153C147.003 37.2911 146.555 36.4346 145.998 36.1146Z" fill="url(#paint85_linear)"/>
</g>
<g style="mix-blend-mode:overlay" opacity="0.5">
<path style="mix-blend-mode:overlay" opacity="0.5" d="M141.791 46.9748L133.671 42.3122C133.117 41.9946 132.669 41.1405 132.672 40.4092L132.699 34.4691C132.699 33.7473 133.156 33.4033 133.71 33.7233L141.83 38.3834C142.384 38.7034 142.832 39.5551 142.829 40.2865L142.802 46.2265C142.81 46.9603 142.355 47.2947 141.791 46.9748Z" fill="url(#paint86_linear)"/>
</g>
</g>
</g>
<path d="M164.268 91.0739C164.07 89.8295 163.095 89.1023 161.865 89.1023C160.359 89.1023 159.249 90.2301 159.249 92.0909C159.249 93.9517 160.354 95.0795 161.865 95.0795C163.143 95.0795 164.078 94.2784 164.268 93.1278L163.382 93.125C163.232 93.8693 162.607 94.2784 161.871 94.2784C160.874 94.2784 160.121 93.5142 160.121 92.0909C160.121 90.679 160.871 89.9034 161.874 89.9034C162.615 89.9034 163.237 90.321 163.382 91.0739H164.268ZM168.015 93.1903C168.018 93.9318 167.467 94.2841 166.989 94.2841C166.464 94.2841 166.1 93.9034 166.1 93.3097V90.6364H165.251V93.4119C165.251 94.4943 165.844 95.0568 166.683 95.0568C167.339 95.0568 167.785 94.7102 167.987 94.2443H168.032V95H168.867V90.6364H168.015V93.1903ZM173.278 91.7017C173.102 91.0227 172.571 90.5795 171.628 90.5795C170.642 90.5795 169.943 91.0994 169.943 91.8722C169.943 92.4915 170.318 92.9034 171.136 93.0852L171.875 93.2472C172.295 93.3409 172.491 93.5284 172.491 93.8011C172.491 94.1392 172.131 94.4034 171.574 94.4034C171.065 94.4034 170.739 94.1847 170.636 93.7557L169.815 93.8807C169.957 94.6534 170.599 95.0881 171.58 95.0881C172.634 95.0881 173.364 94.5284 173.364 93.7386C173.364 93.1222 172.972 92.7415 172.17 92.5568L171.477 92.3977C170.997 92.2841 170.79 92.1222 170.793 91.8267C170.79 91.4915 171.153 91.2528 171.636 91.2528C172.165 91.2528 172.409 91.5455 172.509 91.8381L173.278 91.7017ZM176.335 90.6364H175.44V89.5909H174.59V90.6364H173.951V91.3182H174.59V93.8949C174.587 94.6875 175.192 95.071 175.863 95.0568C176.133 95.054 176.315 95.0028 176.414 94.9659L176.261 94.2642C176.204 94.2756 176.099 94.3011 175.962 94.3011C175.687 94.3011 175.44 94.2102 175.44 93.7188V91.3182H176.335V90.6364ZM179.065 95.0881C180.295 95.0881 181.099 94.1875 181.099 92.8381C181.099 91.4801 180.295 90.5795 179.065 90.5795C177.835 90.5795 177.031 91.4801 177.031 92.8381C177.031 94.1875 177.835 95.0881 179.065 95.0881ZM179.068 94.375C178.264 94.375 177.889 93.6733 177.889 92.8352C177.889 92 178.264 91.2898 179.068 91.2898C179.866 91.2898 180.241 92 180.241 92.8352C180.241 93.6733 179.866 94.375 179.068 94.375ZM182.048 95H182.897V92.3097C182.897 91.7216 183.309 91.3125 183.792 91.3125C184.263 91.3125 184.59 91.625 184.59 92.0994V95H185.437V92.2188C185.437 91.6932 185.758 91.3125 186.312 91.3125C186.761 91.3125 187.13 91.5625 187.13 92.1534V95H187.979V92.0739C187.979 91.0767 187.423 90.5795 186.633 90.5795C186.005 90.5795 185.533 90.8807 185.323 91.3466H185.278C185.087 90.8693 184.687 90.5795 184.104 90.5795C183.528 90.5795 183.099 90.8665 182.917 91.3466H182.863V90.6364H182.048V95ZM190.999 95.0881C191.95 95.0881 192.624 94.6193 192.817 93.9091L192.013 93.7642C191.859 94.1761 191.49 94.3864 191.007 94.3864C190.28 94.3864 189.791 93.9148 189.768 93.0739H192.871V92.7727C192.871 91.196 191.928 90.5795 190.939 90.5795C189.723 90.5795 188.922 91.5057 188.922 92.8466C188.922 94.2017 189.712 95.0881 190.999 95.0881ZM189.771 92.4375C189.805 91.8182 190.254 91.2812 190.945 91.2812C191.604 91.2812 192.036 91.7699 192.038 92.4375H189.771ZM193.813 95H194.663V92.3352C194.663 91.7642 195.103 91.3523 195.705 91.3523C195.881 91.3523 196.08 91.3835 196.148 91.4034V90.5909C196.063 90.5795 195.896 90.571 195.788 90.571C195.276 90.571 194.839 90.8608 194.68 91.3295H194.634V90.6364H193.813V95ZM199.069 95H199.947V92.9545H201.14C202.489 92.9545 203.157 92.1392 203.157 91.0653C203.157 89.9943 202.495 89.1818 201.143 89.1818H199.069V95ZM199.947 92.2102V89.9347H201.049C201.918 89.9347 202.273 90.4062 202.273 91.0653C202.273 91.7244 201.918 92.2102 201.06 92.2102H199.947ZM204.118 95H204.967V92.3352C204.967 91.7642 205.408 91.3523 206.01 91.3523C206.186 91.3523 206.385 91.3835 206.453 91.4034V90.5909C206.368 90.5795 206.2 90.571 206.092 90.571C205.581 90.571 205.143 90.8608 204.984 91.3295H204.939V90.6364H204.118V95ZM208.913 95.0881C209.864 95.0881 210.538 94.6193 210.731 93.9091L209.927 93.7642C209.773 94.1761 209.404 94.3864 208.921 94.3864C208.194 94.3864 207.705 93.9148 207.683 93.0739H210.785V92.7727C210.785 91.196 209.842 90.5795 208.853 90.5795C207.637 90.5795 206.836 91.5057 206.836 92.8466C206.836 94.2017 207.626 95.0881 208.913 95.0881ZM207.685 92.4375C207.719 91.8182 208.168 91.2812 208.859 91.2812C209.518 91.2812 209.95 91.7699 209.952 92.4375H207.685ZM211.727 95H212.577V92.3097C212.577 91.7216 212.989 91.3125 213.472 91.3125C213.943 91.3125 214.27 91.625 214.27 92.0994V95H215.116V92.2188C215.116 91.6932 215.438 91.3125 215.991 91.3125C216.44 91.3125 216.81 91.5625 216.81 92.1534V95H217.659V92.0739C217.659 91.0767 217.102 90.5795 216.312 90.5795C215.685 90.5795 215.213 90.8807 215.003 91.3466H214.957C214.767 90.8693 214.366 90.5795 213.784 90.5795C213.207 90.5795 212.778 90.8665 212.597 91.3466H212.543V90.6364H211.727V95ZM218.798 95H219.647V90.6364H218.798V95ZM219.227 89.9631C219.519 89.9631 219.763 89.7358 219.763 89.4574C219.763 89.179 219.519 88.9489 219.227 88.9489C218.931 88.9489 218.69 89.179 218.69 89.4574C218.69 89.7358 218.931 89.9631 219.227 89.9631ZM224.06 91.7017C223.884 91.0227 223.352 90.5795 222.409 90.5795C221.423 90.5795 220.724 91.0994 220.724 91.8722C220.724 92.4915 221.099 92.9034 221.918 93.0852L222.656 93.2472C223.077 93.3409 223.273 93.5284 223.273 93.8011C223.273 94.1392 222.912 94.4034 222.355 94.4034C221.847 94.4034 221.52 94.1847 221.418 93.7557L220.597 93.8807C220.739 94.6534 221.381 95.0881 222.361 95.0881C223.415 95.0881 224.145 94.5284 224.145 93.7386C224.145 93.1222 223.753 92.7415 222.952 92.5568L222.259 92.3977C221.778 92.2841 221.571 92.1222 221.574 91.8267C221.571 91.4915 221.935 91.2528 222.418 91.2528C222.946 91.2528 223.19 91.5455 223.29 91.8381L224.06 91.7017ZM226.96 95.0881C227.911 95.0881 228.585 94.6193 228.778 93.9091L227.974 93.7642C227.82 94.1761 227.451 94.3864 226.968 94.3864C226.241 94.3864 225.752 93.9148 225.729 93.0739H228.832V92.7727C228.832 91.196 227.888 90.5795 226.9 90.5795C225.684 90.5795 224.883 91.5057 224.883 92.8466C224.883 94.2017 225.673 95.0881 226.96 95.0881ZM225.732 92.4375C225.766 91.8182 226.215 91.2812 226.906 91.2812C227.565 91.2812 227.996 91.7699 227.999 92.4375H225.732Z" fill="#4F5162"/>
<path d="M90 84.75H290" stroke="#9293AB" stroke-width="0.5"/>
<path d="M35.5 37.5C37.433 37.5 39 35.933 39 34C39 32.067 37.433 30.5 35.5 30.5C33.567 30.5 32 32.067 32 34C32 35.933 33.567 37.5 35.5 37.5Z" fill="#4DC952"/>
<path d="M37.2 33.8268C37.3333 33.9038 37.3333 34.0962 37.2 34.1732L34.8 35.5588C34.6667 35.6358 34.5 35.5396 34.5 35.3856V32.6144C34.5 32.4604 34.6667 32.3642 34.8 32.4412L37.2 33.8268Z" fill="#FFF9F9"/>
<defs>
<linearGradient id="paint0_linear" x1="63.928" y1="18.6631" x2="74.5042" y2="33.1782" gradientUnits="userSpaceOnUse">
<stop stop-color="#73DFE7"/>
<stop offset="1" stop-color="#0063F7"/>
</linearGradient>
<linearGradient id="paint1_linear" x1="64.7191" y1="20.2323" x2="74.1704" y2="31.2456" gradientUnits="userSpaceOnUse">
<stop stop-color="#73DFE7"/>
<stop offset="1" stop-color="#0063F7"/>
</linearGradient>
<linearGradient id="paint2_linear" x1="63.9272" y1="18.6238" x2="74.4942" y2="33.1379" gradientUnits="userSpaceOnUse">
<stop stop-color="#73DFE7"/>
<stop offset="1" stop-color="#0063F7"/>
</linearGradient>
<linearGradient id="paint3_linear" x1="64.7191" y1="20.1877" x2="74.1692" y2="31.2007" gradientUnits="userSpaceOnUse">
<stop stop-color="#73DFE7"/>
<stop offset="1" stop-color="#0063F7"/>
</linearGradient>
<linearGradient id="paint4_linear" x1="74.6501" y1="24.7012" x2="85.2149" y2="39.2224" gradientUnits="userSpaceOnUse">
<stop stop-color="#73DFE7"/>
<stop offset="1" stop-color="#0063F7"/>
</linearGradient>
<linearGradient id="paint5_linear" x1="75.4497" y1="26.2662" x2="84.9038" y2="37.2753" gradientUnits="userSpaceOnUse">
<stop stop-color="#73DFE7"/>
<stop offset="1" stop-color="#0063F7"/>
</linearGradient>
<linearGradient id="paint6_linear" x1="74.6506" y1="24.6553" x2="85.2154" y2="39.1765" gradientUnits="userSpaceOnUse">
<stop stop-color="#73DFE7"/>
<stop offset="1" stop-color="#0063F7"/>
</linearGradient>
<linearGradient id="paint7_linear" x1="75.4497" y1="26.2194" x2="84.9005" y2="37.228" gradientUnits="userSpaceOnUse">
<stop stop-color="#73DFE7"/>
<stop offset="1" stop-color="#0063F7"/>
</linearGradient>
<linearGradient id="paint8_linear" x1="85.3847" y1="30.7212" x2="95.951" y2="45.2351" gradientUnits="userSpaceOnUse">
<stop stop-color="#73DFE7"/>
<stop offset="1" stop-color="#0063F7"/>
</linearGradient>
<linearGradient id="paint9_linear" x1="86.169" y1="32.2862" x2="95.621" y2="43.3018" gradientUnits="userSpaceOnUse">
<stop stop-color="#73DFE7"/>
<stop offset="1" stop-color="#0063F7"/>
</linearGradient>
<linearGradient id="paint10_linear" x1="85.3852" y1="30.6852" x2="95.942" y2="45.1959" gradientUnits="userSpaceOnUse">
<stop stop-color="#73DFE7"/>
<stop offset="1" stop-color="#0063F7"/>
</linearGradient>
<linearGradient id="paint11_linear" x1="86.169" y1="32.2402" x2="95.62" y2="43.2556" gradientUnits="userSpaceOnUse">
<stop stop-color="#73DFE7"/>
<stop offset="1" stop-color="#0063F7"/>
</linearGradient>
<linearGradient id="paint12_linear" x1="96.116" y1="36.7881" x2="106.685" y2="51.2969" gradientUnits="userSpaceOnUse">
<stop stop-color="#73DFE7"/>
<stop offset="1" stop-color="#0063F7"/>
</linearGradient>
<linearGradient id="paint13_linear" x1="96.896" y1="38.3502" x2="106.348" y2="49.3636" gradientUnits="userSpaceOnUse">
<stop stop-color="#73DFE7"/>
<stop offset="1" stop-color="#0063F7"/>
</linearGradient>
<linearGradient id="paint14_linear" x1="96.104" y1="36.7424" x2="106.67" y2="51.2583" gradientUnits="userSpaceOnUse">
<stop stop-color="#73DFE7"/>
<stop offset="1" stop-color="#0063F7"/>
</linearGradient>
<linearGradient id="paint15_linear" x1="96.893" y1="38.306" x2="106.342" y2="49.3213" gradientUnits="userSpaceOnUse">
<stop stop-color="#73DFE7"/>
<stop offset="1" stop-color="#0063F7"/>
</linearGradient>
<linearGradient id="paint16_linear" x1="106.834" y1="43.0499" x2="117.393" y2="57.5595" gradientUnits="userSpaceOnUse">
<stop stop-color="#73DFE7"/>
<stop offset="1" stop-color="#0063F7"/>
</linearGradient>
<linearGradient id="paint17_linear" x1="107.623" y1="44.6169" x2="117.073" y2="55.6299" gradientUnits="userSpaceOnUse">
<stop stop-color="#73DFE7"/>
<stop offset="1" stop-color="#0063F7"/>
</linearGradient>
<linearGradient id="paint18_linear" x1="106.833" y1="43.0089" x2="117.405" y2="57.5243" gradientUnits="userSpaceOnUse">
<stop stop-color="#73DFE7"/>
<stop offset="1" stop-color="#0063F7"/>
</linearGradient>
<linearGradient id="paint19_linear" x1="107.623" y1="44.5712" x2="117.073" y2="55.5842" gradientUnits="userSpaceOnUse">
<stop stop-color="#73DFE7"/>
<stop offset="1" stop-color="#0063F7"/>
</linearGradient>
<linearGradient id="paint20_linear" x1="117.565" y1="49.1224" x2="128.136" y2="63.6359" gradientUnits="userSpaceOnUse">
<stop stop-color="#73DFE7"/>
<stop offset="1" stop-color="#0063F7"/>
</linearGradient>
<linearGradient id="paint21_linear" x1="118.346" y1="50.6833" x2="127.794" y2="61.7053" gradientUnits="userSpaceOnUse">
<stop stop-color="#73DFE7"/>
<stop offset="1" stop-color="#0063F7"/>
</linearGradient>
<linearGradient id="paint22_linear" x1="117.565" y1="49.0746" x2="128.136" y2="63.5881" gradientUnits="userSpaceOnUse">
<stop stop-color="#73DFE7"/>
<stop offset="1" stop-color="#0063F7"/>
</linearGradient>
<linearGradient id="paint23_linear" x1="118.346" y1="50.6376" x2="127.796" y2="61.6598" gradientUnits="userSpaceOnUse">
<stop stop-color="#73DFE7"/>
<stop offset="1" stop-color="#0063F7"/>
</linearGradient>
<linearGradient id="paint24_linear" x1="85.5878" y1="21.3928" x2="96.152" y2="35.906" gradientUnits="userSpaceOnUse">
<stop stop-color="#73DFE7"/>
<stop offset="1" stop-color="#0063F7"/>
</linearGradient>
<linearGradient id="paint25_linear" x1="86.3798" y1="22.9584" x2="95.831" y2="33.9716" gradientUnits="userSpaceOnUse">
<stop stop-color="#73DFE7"/>
<stop offset="1" stop-color="#0063F7"/>
</linearGradient>
<linearGradient id="paint26_linear" x1="85.5878" y1="21.3497" x2="96.155" y2="35.8638" gradientUnits="userSpaceOnUse">
<stop stop-color="#73DFE7"/>
<stop offset="1" stop-color="#0063F7"/>
</linearGradient>
<linearGradient id="paint27_linear" x1="86.3798" y1="22.9118" x2="95.829" y2="33.9246" gradientUnits="userSpaceOnUse">
<stop stop-color="#73DFE7"/>
<stop offset="1" stop-color="#0063F7"/>
</linearGradient>
<linearGradient id="paint28_linear" x1="96.318" y1="27.4622" x2="106.889" y2="41.9759" gradientUnits="userSpaceOnUse">
<stop stop-color="#73DFE7"/>
<stop offset="1" stop-color="#0063F7"/>
</linearGradient>
<linearGradient id="paint29_linear" x1="97.108" y1="29.0239" x2="106.558" y2="40.0323" gradientUnits="userSpaceOnUse">
<stop stop-color="#73DFE7"/>
<stop offset="1" stop-color="#0063F7"/>
</linearGradient>
<linearGradient id="paint30_linear" x1="96.318" y1="27.4117" x2="106.878" y2="41.9195" gradientUnits="userSpaceOnUse">
<stop stop-color="#73DFE7"/>
<stop offset="1" stop-color="#0063F7"/>
</linearGradient>
<linearGradient id="paint31_linear" x1="97.108" y1="28.979" x2="106.559" y2="39.9877" gradientUnits="userSpaceOnUse">
<stop stop-color="#73DFE7"/>
<stop offset="1" stop-color="#0063F7"/>
</linearGradient>
<linearGradient id="paint32_linear" x1="3126.98" y1="2486.08" x2="3050.39" y2="2353.92" gradientUnits="userSpaceOnUse">
<stop stop-color="#3161FF"/>
<stop offset="1" stop-color="#00C9E2"/>
</linearGradient>
<linearGradient id="paint33_linear" x1="2315.36" y1="2513.74" x2="1374.45" y2="1528.68" gradientUnits="userSpaceOnUse">
<stop stop-color="#3124FF"/>
<stop offset="1" stop-color="#00FFE2"/>
</linearGradient>
<linearGradient id="paint34_linear" x1="3126.98" y1="2483.05" x2="3050.39" y2="2350.9" gradientUnits="userSpaceOnUse">
<stop stop-color="#3161FF"/>
<stop offset="1" stop-color="#00C9E2"/>
</linearGradient>
<linearGradient id="paint35_linear" x1="2315.36" y1="2510.34" x2="1374.79" y2="1525.43" gradientUnits="userSpaceOnUse">
<stop stop-color="#3124FF"/>
<stop offset="1" stop-color="#00FFE2"/>
</linearGradient>
<linearGradient id="paint36_linear" x1="107.068" y1="33.7267" x2="117.647" y2="48.2194" gradientUnits="userSpaceOnUse">
<stop stop-color="#73DFE7"/>
<stop offset="1" stop-color="#0063F7"/>
</linearGradient>
<linearGradient id="paint37_linear" x1="107.83" y1="35.2978" x2="117.281" y2="46.3132" gradientUnits="userSpaceOnUse">
<stop stop-color="#73DFE7"/>
<stop offset="1" stop-color="#0063F7"/>
</linearGradient>
<linearGradient id="paint38_linear" x1="107.059" y1="33.6908" x2="117.631" y2="48.2045" gradientUnits="userSpaceOnUse">
<stop stop-color="#73DFE7"/>
<stop offset="1" stop-color="#0063F7"/>
</linearGradient>
<linearGradient id="paint39_linear" x1="107.83" y1="35.254" x2="117.28" y2="46.2693" gradientUnits="userSpaceOnUse">
<stop stop-color="#73DFE7"/>
<stop offset="1" stop-color="#0063F7"/>
</linearGradient>
<linearGradient id="paint40_linear" x1="117.764" y1="39.7936" x2="128.336" y2="54.3114" gradientUnits="userSpaceOnUse">
<stop stop-color="#73DFE7"/>
<stop offset="1" stop-color="#0063F7"/>
</linearGradient>
<linearGradient id="paint41_linear" x1="118.557" y1="41.3595" x2="128.004" y2="52.3721" gradientUnits="userSpaceOnUse">
<stop stop-color="#73DFE7"/>
<stop offset="1" stop-color="#0063F7"/>
</linearGradient>
<linearGradient id="paint42_linear" x1="117.767" y1="39.7396" x2="128.338" y2="54.2549" gradientUnits="userSpaceOnUse">
<stop stop-color="#73DFE7"/>
<stop offset="1" stop-color="#0063F7"/>
</linearGradient>
<linearGradient id="paint43_linear" x1="118.557" y1="41.31" x2="128.008" y2="52.3232" gradientUnits="userSpaceOnUse">
<stop stop-color="#73DFE7"/>
<stop offset="1" stop-color="#0063F7"/>
</linearGradient>
<linearGradient id="paint44_linear" x1="96.435" y1="17.9228" x2="107.007" y2="32.4365" gradientUnits="userSpaceOnUse">
<stop stop-color="#73DFE7"/>
<stop offset="1" stop-color="#0063F7"/>
</linearGradient>
<linearGradient id="paint45_linear" x1="97.224" y1="19.4843" x2="106.675" y2="30.4976" gradientUnits="userSpaceOnUse">
<stop stop-color="#73DFE7"/>
<stop offset="1" stop-color="#0063F7"/>
</linearGradient>
<linearGradient id="paint46_linear" x1="96.436" y1="17.8771" x2="107.008" y2="32.3891" gradientUnits="userSpaceOnUse">
<stop stop-color="#73DFE7"/>
<stop offset="1" stop-color="#0063F7"/>
</linearGradient>
<linearGradient id="paint47_linear" x1="97.214" y1="19.442" x2="106.66" y2="30.4613" gradientUnits="userSpaceOnUse">
<stop stop-color="#73DFE7"/>
<stop offset="1" stop-color="#0063F7"/>
</linearGradient>
<linearGradient id="paint48_linear" x1="107.157" y1="24.1909" x2="117.718" y2="38.7048" gradientUnits="userSpaceOnUse">
<stop stop-color="#73DFE7"/>
<stop offset="1" stop-color="#0063F7"/>
</linearGradient>
<linearGradient id="paint49_linear" x1="107.943" y1="25.7492" x2="117.394" y2="36.7624" gradientUnits="userSpaceOnUse">
<stop stop-color="#73DFE7"/>
<stop offset="1" stop-color="#0063F7"/>
</linearGradient>
<linearGradient id="paint50_linear" x1="107.164" y1="24.1422" x2="117.736" y2="38.6559" gradientUnits="userSpaceOnUse">
<stop stop-color="#73DFE7"/>
<stop offset="1" stop-color="#0063F7"/>
</linearGradient>
<linearGradient id="paint51_linear" x1="107.94" y1="25.7039" x2="117.39" y2="36.7238" gradientUnits="userSpaceOnUse">
<stop stop-color="#73DFE7"/>
<stop offset="1" stop-color="#0063F7"/>
</linearGradient>
<linearGradient id="paint52_linear" x1="3754.72" y1="2255.6" x2="3678.16" y2="2123.46" gradientUnits="userSpaceOnUse">
<stop stop-color="#3161FF"/>
<stop offset="1" stop-color="#00C9E2"/>
</linearGradient>
<linearGradient id="paint53_linear" x1="2776.46" y1="2314.96" x2="1835.75" y2="1330.13" gradientUnits="userSpaceOnUse">
<stop stop-color="#3124FF"/>
<stop offset="1" stop-color="#00FFE2"/>
</linearGradient>
<linearGradient id="paint54_linear" x1="3754.72" y1="2252.47" x2="3678.17" y2="2120.5" gradientUnits="userSpaceOnUse">
<stop stop-color="#3161FF"/>
<stop offset="1" stop-color="#00C9E2"/>
</linearGradient>
<linearGradient id="paint55_linear" x1="2776.46" y1="2312.87" x2="1835.55" y2="1328.17" gradientUnits="userSpaceOnUse">
<stop stop-color="#3124FF"/>
<stop offset="1" stop-color="#00FFE2"/>
</linearGradient>
<linearGradient id="paint56_linear" x1="117.887" y1="30.2612" x2="128.455" y2="44.7736" gradientUnits="userSpaceOnUse">
<stop stop-color="#73DFE7"/>
<stop offset="1" stop-color="#0063F7"/>
</linearGradient>
<linearGradient id="paint57_linear" x1="118.674" y1="31.8245" x2="128.125" y2="42.8376" gradientUnits="userSpaceOnUse">
<stop stop-color="#73DFE7"/>
<stop offset="1" stop-color="#0063F7"/>
</linearGradient>
<linearGradient id="paint58_linear" x1="117.887" y1="30.2089" x2="128.464" y2="44.724" gradientUnits="userSpaceOnUse">
<stop stop-color="#73DFE7"/>
<stop offset="1" stop-color="#0063F7"/>
</linearGradient>
<linearGradient id="paint59_linear" x1="118.674" y1="31.7793" x2="128.124" y2="42.7923" gradientUnits="userSpaceOnUse">
<stop stop-color="#73DFE7"/>
<stop offset="1" stop-color="#0063F7"/>
</linearGradient>
<linearGradient id="paint60_linear" x1="107.28" y1="14.6498" x2="117.855" y2="29.1604" gradientUnits="userSpaceOnUse">
<stop stop-color="#73DFE7"/>
<stop offset="1" stop-color="#0063F7"/>
</linearGradient>
<linearGradient id="paint61_linear" x1="108.067" y1="16.2119" x2="117.517" y2="27.2249" gradientUnits="userSpaceOnUse">
<stop stop-color="#73DFE7"/>
<stop offset="1" stop-color="#0063F7"/>
</linearGradient>
<linearGradient id="paint62_linear" x1="107.28" y1="14.6034" x2="117.852" y2="29.1133" gradientUnits="userSpaceOnUse">
<stop stop-color="#73DFE7"/>
<stop offset="1" stop-color="#0063F7"/>
</linearGradient>
<linearGradient id="paint63_linear" x1="108.067" y1="16.1671" x2="117.519" y2="27.1804" gradientUnits="userSpaceOnUse">
<stop stop-color="#73DFE7"/>
<stop offset="1" stop-color="#0063F7"/>
</linearGradient>
<linearGradient id="paint64_linear" x1="117.997" y1="20.7144" x2="128.564" y2="35.2286" gradientUnits="userSpaceOnUse">
<stop stop-color="#73DFE7"/>
<stop offset="1" stop-color="#0063F7"/>
</linearGradient>
<linearGradient id="paint65_linear" x1="118.791" y1="22.2775" x2="128.243" y2="33.2908" gradientUnits="userSpaceOnUse">
<stop stop-color="#73DFE7"/>
<stop offset="1" stop-color="#0063F7"/>
</linearGradient>
<linearGradient id="paint66_linear" x1="117.996" y1="20.6685" x2="128.563" y2="35.1845" gradientUnits="userSpaceOnUse">
<stop stop-color="#73DFE7"/>
<stop offset="1" stop-color="#0063F7"/>
</linearGradient>
<linearGradient id="paint67_linear" x1="118.791" y1="22.2316" x2="128.243" y2="33.2449" gradientUnits="userSpaceOnUse">
<stop stop-color="#73DFE7"/>
<stop offset="1" stop-color="#0063F7"/>
</linearGradient>
<linearGradient id="paint68_linear" x1="3147.34" y1="592.942" x2="3070.78" y2="460.807" gradientUnits="userSpaceOnUse">
<stop stop-color="#3161FF"/>
<stop offset="1" stop-color="#00C9E2"/>
</linearGradient>
<linearGradient id="paint69_linear" x1="108.191" y1="6.67053" x2="117.644" y2="17.6794" gradientUnits="userSpaceOnUse">
<stop stop-color="#73DFE7"/>
<stop offset="1" stop-color="#0063F7"/>
</linearGradient>
<linearGradient id="paint70_linear" x1="107.393" y1="5.06203" x2="117.961" y2="19.5744" gradientUnits="userSpaceOnUse">
<stop stop-color="#73DFE7"/>
<stop offset="1" stop-color="#0063F7"/>
</linearGradient>
<linearGradient id="paint71_linear" x1="128.287" y1="55.3049" x2="138.865" y2="69.8207" gradientUnits="userSpaceOnUse">
<stop stop-color="#73DFE7"/>
<stop offset="1" stop-color="#0063F7"/>
</linearGradient>
<linearGradient id="paint72_linear" x1="129.07" y1="56.8645" x2="138.519" y2="67.8889" gradientUnits="userSpaceOnUse">
<stop stop-color="#73DFE7"/>
<stop offset="1" stop-color="#0063F7"/>
</linearGradient>
<linearGradient id="paint73_linear" x1="128.287" y1="55.2569" x2="138.859" y2="69.7707" gradientUnits="userSpaceOnUse">
<stop stop-color="#73DFE7"/>
<stop offset="1" stop-color="#0063F7"/>
</linearGradient>
<linearGradient id="paint74_linear" x1="129.074" y1="56.8209" x2="138.527" y2="67.8344" gradientUnits="userSpaceOnUse">
<stop stop-color="#73DFE7"/>
<stop offset="1" stop-color="#0063F7"/>
</linearGradient>
<linearGradient id="paint75_linear" x1="128.504" y1="45.9739" x2="139.071" y2="60.488" gradientUnits="userSpaceOnUse">
<stop stop-color="#73DFE7"/>
<stop offset="1" stop-color="#0063F7"/>
</linearGradient>
<linearGradient id="paint76_linear" x1="129.284" y1="47.5377" x2="138.734" y2="58.5508" gradientUnits="userSpaceOnUse">
<stop stop-color="#73DFE7"/>
<stop offset="1" stop-color="#0063F7"/>
</linearGradient>
<linearGradient id="paint77_linear" x1="128.508" y1="45.9288" x2="139.08" y2="60.4347" gradientUnits="userSpaceOnUse">
<stop stop-color="#73DFE7"/>
<stop offset="1" stop-color="#0063F7"/>
</linearGradient>
<linearGradient id="paint78_linear" x1="129.284" y1="47.4922" x2="138.734" y2="58.5054" gradientUnits="userSpaceOnUse">
<stop stop-color="#73DFE7"/>
<stop offset="1" stop-color="#0063F7"/>
</linearGradient>
<linearGradient id="paint79_linear" x1="128.609" y1="36.4336" x2="139.174" y2="50.9471" gradientUnits="userSpaceOnUse">
<stop stop-color="#73DFE7"/>
<stop offset="1" stop-color="#0063F7"/>
</linearGradient>
<linearGradient id="paint80_linear" x1="129.401" y1="37.9942" x2="138.856" y2="49.008" gradientUnits="userSpaceOnUse">
<stop stop-color="#73DFE7"/>
<stop offset="1" stop-color="#0063F7"/>
</linearGradient>
<linearGradient id="paint81_linear" x1="128.612" y1="36.3901" x2="139.184" y2="50.9038" gradientUnits="userSpaceOnUse">
<stop stop-color="#73DFE7"/>
<stop offset="1" stop-color="#0063F7"/>
</linearGradient>
<linearGradient id="paint82_linear" x1="129.391" y1="37.9516" x2="138.842" y2="48.9648" gradientUnits="userSpaceOnUse">
<stop stop-color="#73DFE7"/>
<stop offset="1" stop-color="#0063F7"/>
</linearGradient>
<linearGradient id="paint83_linear" x1="128.611" y1="36.4442" x2="139.182" y2="50.9594" gradientUnits="userSpaceOnUse">
<stop stop-color="#73DFE7"/>
<stop offset="1" stop-color="#0063F7"/>
</linearGradient>
<linearGradient id="paint84_linear" x1="129.391" y1="38.007" x2="138.841" y2="49.0201" gradientUnits="userSpaceOnUse">
<stop stop-color="#73DFE7"/>
<stop offset="1" stop-color="#0063F7"/>
</linearGradient>
<linearGradient id="paint85_linear" x1="128.612" y1="36.3991" x2="139.185" y2="50.9132" gradientUnits="userSpaceOnUse">
<stop stop-color="#73DFE7"/>
<stop offset="1" stop-color="#0063F7"/>
</linearGradient>
<linearGradient id="paint86_linear" x1="129.391" y1="37.9616" x2="138.842" y2="48.9748" gradientUnits="userSpaceOnUse">
<stop stop-color="#73DFE7"/>
<stop offset="1" stop-color="#0063F7"/>
</linearGradient>
</defs>
</svg>
