<svg width="24" height="24" viewBox="0 0 24 24" fill="none" xmlns="http://www.w3.org/2000/svg">
<path d="M3.46694 3.46572V3.16572C3.30126 3.16572 3.16694 3.30004 3.16694 3.46572H3.46694ZM3.46694 10.5965H3.16694C3.16694 10.7621 3.30126 10.8965 3.46694 10.8965V10.5965ZM8.38889 3.46572H8.68889C8.68889 3.30004 8.55457 3.16572 8.38889 3.16572V3.46572ZM8.38889 10.5965V10.8965C8.55457 10.8965 8.68889 10.7621 8.68889 10.5965H8.38889ZM3.46694 14.51V14.21C3.30126 14.21 3.16694 14.3443 3.16694 14.51H3.46694ZM3.46694 20.5363H3.16694C3.16694 20.702 3.30126 20.8363 3.46694 20.8363V20.5363ZM12.8064 14.51H13.1064C13.1064 14.3443 12.9721 14.21 12.8064 14.21V14.51ZM12.8064 20.5363V20.8363C12.9721 20.8363 13.1064 20.702 13.1064 20.5363H12.8064ZM12.3018 10.5965H12.0018C12.0018 10.7621 12.1361 10.8965 12.3018 10.8965V10.5965ZM12.3018 3.46572V3.16572C12.1361 3.16572 12.0018 3.30004 12.0018 3.46572H12.3018ZM20.5369 10.5965V10.8965C20.7026 10.8965 20.8369 10.7621 20.8369 10.5965H20.5369ZM20.5369 3.46572H20.8369C20.8369 3.30004 20.7026 3.16572 20.5369 3.16572V3.46572ZM16.2074 13.9979L15.9952 13.7857L15.9952 13.7857L16.2074 13.9979ZM16.7195 14.51V14.21C16.5538 14.21 16.4195 14.3443 16.4195 14.51H16.7195ZM16.7195 20.5363H16.4195C16.4195 20.702 16.5538 20.8363 16.7195 20.8363V20.5363ZM20.5371 14.51H20.8371C20.8371 14.3443 20.7027 14.21 20.5371 14.21V14.51ZM20.5371 20.5363V20.8363C20.7027 20.8363 20.8371 20.702 20.8371 20.5363H20.5371ZM3.16694 3.16572V2.56572C2.83557 2.56572 2.56694 2.83435 2.56694 3.16572H3.16694ZM3.16694 10.8965V3.16572H2.56694V10.8965H3.16694ZM3.16694 10.8965H2.56694C2.56694 11.2278 2.83557 11.4965 3.16694 11.4965V10.8965ZM8.68889 10.8965H3.16694V11.4965H8.68889V10.8965ZM8.68889 10.8965V11.4965C9.02026 11.4965 9.28889 11.2278 9.28889 10.8965H8.68889ZM8.68889 3.16572V10.8965H9.28889V3.16572H8.68889ZM8.68889 3.16572H9.28889C9.28889 2.83435 9.02026 2.56572 8.68889 2.56572V3.16572ZM3.16694 3.16572H8.68889V2.56572H3.16694V3.16572ZM3.16694 3.46572V10.5965H3.76694V3.46572H3.16694ZM8.38889 3.16572H3.46694V3.76572H8.38889V3.16572ZM8.68889 10.5965V3.46572H8.08889V10.5965H8.68889ZM3.46694 10.8965H8.38889V10.2965H3.46694V10.8965ZM3.16694 14.21V13.61C2.83557 13.61 2.56694 13.8786 2.56694 14.21H3.16694ZM3.16694 20.8363V14.21H2.56694V20.8363H3.16694ZM3.16694 20.8363H2.56694C2.56694 21.1677 2.83557 21.4363 3.16694 21.4363V20.8363ZM13.1064 20.8363H3.16694V21.4363H13.1064V20.8363ZM13.1064 20.8363V21.4363C13.4378 21.4363 13.7064 21.1677 13.7064 20.8363H13.1064ZM13.1064 14.21V20.8363H13.7064V14.21H13.1064ZM13.1064 14.21H13.7064C13.7064 13.8786 13.4378 13.61 13.1064 13.61V14.21ZM3.16694 14.21H13.1064V13.61H3.16694V14.21ZM3.16694 14.51V20.5363H3.76694V14.51H3.16694ZM12.8064 14.21H3.46694V14.81H12.8064V14.21ZM13.1064 20.5363V14.51H12.5064V20.5363H13.1064ZM3.46694 20.8363H12.8064V20.2363H3.46694V20.8363ZM12.0018 2.56572C11.6704 2.56572 11.4018 2.83435 11.4018 3.16572H12.0018V2.56572ZM20.8369 2.56572H12.0018V3.16572H20.8369V2.56572ZM21.4369 3.16572C21.4369 2.83435 21.1683 2.56572 20.8369 2.56572V3.16572H21.4369ZM21.4369 10.8965V3.16572H20.8369V10.8965H21.4369ZM20.8369 11.4965C21.1683 11.4965 21.4369 11.2278 21.4369 10.8965H20.8369V11.4965ZM12.0018 11.4965H20.8369V10.8965H12.0018V11.4965ZM11.4018 10.8965C11.4018 11.2278 11.6704 11.4965 12.0018 11.4965V10.8965H11.4018ZM11.4018 3.16572V10.8965H12.0018V3.16572H11.4018ZM12.6018 10.5965V3.46572H12.0018V10.5965H12.6018ZM20.5369 10.2965H12.3018V10.8965H20.5369V10.2965ZM20.2369 3.46572V10.5965H20.8369V3.46572H20.2369ZM12.3018 3.76572H20.5369V3.16572H12.3018V3.76572ZM16.4195 14.21L16.4195 14.21V13.61C16.2604 13.61 16.1078 13.6732 15.9952 13.7857L16.4195 14.21ZM16.4195 14.21L16.4195 14.21L15.9952 13.7857C15.8827 13.8983 15.8195 14.0509 15.8195 14.21H16.4195ZM16.4195 20.8363V14.21H15.8195V20.8363H16.4195ZM16.4195 20.8363H15.8195C15.8195 21.1677 16.0881 21.4363 16.4195 21.4363V20.8363ZM20.8371 20.8363H16.4195V21.4363H20.8371V20.8363ZM20.8371 20.8363V21.4363C21.1684 21.4363 21.4371 21.1677 21.4371 20.8363H20.8371ZM20.8371 14.21V20.8363H21.4371V14.21H20.8371ZM20.8371 14.21H21.4371C21.4371 13.8786 21.1684 13.61 20.8371 13.61V14.21ZM16.4195 14.21H20.8371V13.61H16.4195V14.21ZM16.4195 14.51V20.5363H17.0195V14.51H16.4195ZM20.5371 14.21H16.7195V14.81H20.5371V14.21ZM20.8371 20.5363V14.51H20.2371V20.5363H20.8371ZM16.7195 20.8363H20.5371V20.2363H16.7195V20.8363Z" fill="#9293AB"/>
</svg>
