<svg xmlns="http://www.w3.org/2000/svg" height="81" width="80" fill="none" viewBox="0 0 80 81"><path fill="#5FB34E" d="M62.657 36.877c0 13.675-11.086 26.594-24.761 26.594-13.676 0-24.762-12.92-24.762-26.594 0-13.676 11.086-24.762 24.761-24.762 13.676 0 24.762 11.086 24.762 24.761z"/><path fill="#000" fill-rule="evenodd" d="M16.959 23.257C21.488 14 30.482 9.34 39.985 10.456 64.59 13.347 73.158 44.48 53.191 60.582a.445.445 0 0 1-.126.07c-11.529 4.228-22.98 1.172-30.338-6.096-7.366-7.274-10.608-18.74-5.784-31.263a.43.43 0 0 1 .016-.036zm.807.374c-4.69 12.19-1.521 23.274 5.585 30.292 7.101 7.014 18.159 9.99 29.34 5.92C72.014 44.188 63.623 14.13 39.88 11.34c-9.122-1.072-17.75 3.385-22.115 12.292z" clip-rule="evenodd"/><path fill="#000" fill-rule="evenodd" d="M25.58 14.08a.444.444 0 0 1 .475.412c.63 9.145 3.583 19.775 8.255 28.353 4.684 8.6 11.026 15.014 18.377 15.962a.445.445 0 0 1-.114.882c-7.788-1.005-14.32-7.748-19.044-16.42-4.735-8.693-7.722-19.448-8.36-28.716a.444.444 0 0 1 .412-.474z" clip-rule="evenodd"/><path fill="#000" fill-rule="evenodd" d="M26.488 13.68a.444.444 0 0 1 .6-.186c6.148 3.236 11.755 10.153 16.32 18.469 4.57 8.328 8.128 18.121 10.145 27.189a.444.444 0 0 1-.868.193c-2-8.992-5.53-18.705-10.057-26.955-4.535-8.263-10.038-14.996-15.954-18.11a.444.444 0 0 1-.186-.6zm-1.241.49a.444.444 0 0 1 .083.623c-.096.125-.25.403-.444.85-.19.436-.406 1.005-.633 1.69a42.284 42.284 0 0 0-1.348 5.3c-.806 4.231-1.25 9.625-.337 14.982.912 5.352 3.175 10.649 7.768 14.726 4.593 4.077 11.562 6.977 21.965 7.45a.444.444 0 1 1-.04.888c-10.551-.48-17.733-3.428-22.515-7.673s-7.118-9.746-8.054-15.242c-.936-5.492-.48-10.998.34-15.297.41-2.15.91-4.006 1.377-5.414.234-.703.46-1.298.662-1.765.198-.456.387-.819.553-1.035a.445.445 0 0 1 .623-.083z" clip-rule="evenodd"/><path fill="#000" fill-rule="evenodd" d="M38.264 15.805c-4.076-1.974-7.935-2.723-10.652-2.119a.444.444 0 0 1-.193-.868c2.998-.666 7.075.173 11.233 2.187 4.172 2.02 8.49 5.254 11.983 9.471 7.002 8.45 10.701 20.861 3.308 35.327a.444.444 0 0 1-.792-.405c7.21-14.105 3.608-26.138-3.2-34.354-3.41-4.117-7.625-7.272-11.687-9.24z" clip-rule="evenodd"/><path fill="#000" fill-rule="evenodd" d="M49.87 13.463a.444.444 0 0 1 .292.556c-2.16 6.94-6.358 12.28-12.291 15.393-5.93 3.11-13.547 3.973-22.512 2.052a.445.445 0 0 1 .187-.87c8.813 1.89 16.208 1.023 21.912-1.969 5.699-2.99 9.756-8.126 11.855-14.87a.444.444 0 0 1 .557-.293zm9.345 8.871a.445.445 0 0 1 .489.394c.983 9.171-6.06 16.767-15.091 21.083-9.042 4.32-20.305 5.476-28.089 1.584a.444.444 0 0 1 .398-.795c7.454 3.727 18.413 2.66 27.307-1.59 8.905-4.256 15.513-11.581 14.591-20.187a.444.444 0 0 1 .395-.49zm4.605 15.25a.444.444 0 0 1 .315.544c-1.631 6.133-6.807 12.088-13.458 16.106-6.656 4.022-14.863 6.148-22.617 4.532a.444.444 0 1 1 .181-.87c7.484 1.559 15.462-.486 21.977-4.422 6.52-3.94 11.503-9.73 13.058-15.574a.444.444 0 0 1 .544-.316z" clip-rule="evenodd"/><path fill="#fff" d="m52.693 54.778-9.197 12.646 9.197-3.99 10.346 5.714c-1.724-5.365-3.08-15.871-2.299-16.095 4.024-1.15 5.748-4.023 6.323-7.472.575-3.449-6.898-8.623-10.921-3.45-3.22 4.14-.575 8.24 1.15 9.773l-13.796-6.898 9.197 9.772z"/><path fill="#000" fill-rule="evenodd" d="M53.534 54.423a.444.444 0 0 1 .089.622c-2.662 3.55-5.959 7.783-8.956 11.389a29.21 29.21 0 0 1 2.822-1.665c1.164-.594 2.358-1.077 3.47-1.31 1.105-.233 2.184-.231 3.074.213 3.09 1.546 7.692 4.914 9.597 6.396a.444.444 0 1 1-.545.702c-1.905-1.481-6.446-4.8-9.45-6.302-.634-.318-1.48-.353-2.493-.14-1.006.212-2.122.658-3.249 1.233-2.252 1.15-4.478 2.779-5.835 3.927a.444.444 0 0 1-.621-.632c3.526-4.02 8.029-9.75 11.475-14.344a.445.445 0 0 1 .622-.09z" clip-rule="evenodd"/><path fill="#000" fill-rule="evenodd" d="M60.74 52.61c.246 0 .445.198.445.444 0 5.707.887 12.168 2.599 17.873a.445.445 0 0 1-.852.255c-1.738-5.791-2.636-12.339-2.636-18.128 0-.246.199-.445.444-.445z" clip-rule="evenodd"/><path fill="#000" fill-rule="evenodd" d="M67.348 43.544c.406 1.075.494 2.363.152 3.86a.5.5 0 0 1-.008.031c-1.208 3.922-4.253 5.778-7.182 5.78-2.92 0-5.712-1.854-6.33-5.251-.376-2.067.41-3.921 1.56-5.311 1.142-1.383 2.686-2.362 3.943-2.676 1.838-.46 4.167-.145 5.882 1.055.864.604 1.578 1.438 1.983 2.512zm-2.493-1.784c-1.486-1.04-3.546-1.324-5.157-.921-1.043.26-2.432 1.119-3.474 2.38-1.035 1.253-1.685 2.85-1.37 4.586.532 2.925 2.913 4.52 5.456 4.52 2.528 0 5.229-1.59 6.327-5.136.305-1.345.213-2.447-.12-3.33-.335-.888-.926-1.584-1.662-2.1z" clip-rule="evenodd"/><path fill="#000" fill-rule="evenodd" d="M41.434 43.28a.445.445 0 0 1 .604-.066c5.32 3.99 8.053 5.372 14.26 7.7a.444.444 0 1 1-.312.831c-4.32-1.62-6.997-2.797-10.008-4.695l7.6 7.41a.444.444 0 0 1-.62.636L41.46 43.887a.445.445 0 0 1-.027-.607zm13.579 1.308c.24-.05.476.104.526.344.214 1.026 1.023 1.85 2.223 2.365 1.197.515 2.73.696 4.258.461a.445.445 0 0 1 .135.879c-1.672.257-3.376.065-4.745-.523-1.365-.588-2.449-1.598-2.741-3a.444.444 0 0 1 .344-.526z" clip-rule="evenodd"/><path fill="#fff" d="m25.87 53.983 9.196 12.646-9.197-3.99-10.346 5.714c1.724-5.365 3.08-15.871 2.299-16.095-4.024-1.15-5.748-4.023-6.323-7.472-.575-3.449 6.898-8.623 10.921-3.45 3.22 4.14.575 8.24-1.15 9.772l13.796-6.897-9.197 9.772z"/><path fill="#000" fill-rule="evenodd" d="M25.028 53.627a.444.444 0 0 0-.089.623c2.662 3.55 5.959 7.782 8.956 11.388a29.21 29.21 0 0 0-2.822-1.664c-1.164-.594-2.358-1.077-3.47-1.31-1.105-.233-2.184-.232-3.074.213-3.09 1.545-7.692 4.914-9.597 6.396a.444.444 0 0 0 .545.702c1.905-1.481 6.445-4.8 9.45-6.303.634-.317 1.48-.352 2.493-.139 1.006.212 2.122.658 3.249 1.233 2.252 1.15 4.478 2.778 5.835 3.927a.444.444 0 0 0 .622-.632c-3.527-4.02-8.03-9.75-11.476-14.345a.444.444 0 0 0-.622-.089z" clip-rule="evenodd"/><path fill="#000" fill-rule="evenodd" d="M17.822 51.814a.444.444 0 0 0-.445.444c0 5.708-.887 12.169-2.599 17.873a.445.445 0 0 0 .852.256c1.738-5.792 2.636-12.34 2.636-18.129a.444.444 0 0 0-.444-.444z" clip-rule="evenodd"/><path fill="#000" fill-rule="evenodd" d="M11.214 42.75c-.406 1.074-.494 2.362-.152 3.858l.008.032c1.208 3.922 4.253 5.778 7.182 5.779 2.92 0 5.712-1.853 6.33-5.25.376-2.067-.41-3.921-1.56-5.312-1.142-1.382-2.686-2.361-3.943-2.676-1.838-.46-4.167-.145-5.882 1.055-.864.605-1.577 1.439-1.983 2.513zm2.493-1.785c1.486-1.04 3.546-1.324 5.157-.921 1.043.26 2.432 1.118 3.474 2.38 1.035 1.253 1.685 2.85 1.37 4.586-.532 2.925-2.913 4.52-5.455 4.52-2.529 0-5.23-1.59-6.328-5.136-.305-1.346-.214-2.447.12-3.33.335-.888.926-1.584 1.662-2.1z" clip-rule="evenodd"/><path fill="#000" fill-rule="evenodd" d="M37.129 42.485a.444.444 0 0 0-.605-.067c-5.32 3.99-8.053 5.373-14.26 7.7a.444.444 0 1 0 .312.832c4.32-1.62 6.997-2.797 10.008-4.695l-7.6 7.41a.444.444 0 0 0 .62.636l11.497-11.209a.444.444 0 0 0 .028-.607zM23.55 43.793a.444.444 0 0 0-.527.344C22.81 45.163 22 45.986 20.8 46.502c-1.197.515-2.73.696-4.258.461a.445.445 0 0 0-.135.879c1.671.257 3.376.065 4.745-.524 1.365-.587 2.449-1.598 2.741-3a.444.444 0 0 0-.344-.525z" clip-rule="evenodd"/></svg>