<svg height="65" width="64" viewBox="0 0 64 65" fill="none" xmlns="http://www.w3.org/2000/svg"><path d="M9.21 4.89 5.61 8.08v17.557c1.467 3.06 4.628 9.577 8.8 9.577 5.6 0 10-3.325 12-5.985V16.062L9.21 4.889Z" fill="#5FB34E"/><path fill-rule="evenodd" clip-rule="evenodd" d="M5.611 5.308a.4.4 0 0 1 .4.399c0 3.08-.002 5.614-.004 7.854-.003 3.788-.006 6.737.004 10.081a.4.4 0 0 1-.8.003c-.01-3.346-.007-6.297-.004-10.087.002-2.24.004-4.772.004-7.851a.4.4 0 0 1 .4-.4Z" fill="#000"/><path fill-rule="evenodd" clip-rule="evenodd" d="M5.583 22.447a.4.4 0 0 1 .427.37c.194 2.711 1.364 5.733 3.074 8.073 1.72 2.353 3.916 3.926 6.127 3.926a.4.4 0 1 1 0 .798c-2.589 0-4.993-1.818-6.773-4.254-1.79-2.448-3.02-5.611-3.226-8.486a.4.4 0 0 1 .37-.427Z" fill="#000"/><path fill-rule="evenodd" clip-rule="evenodd" d="M22.505 30.926a.398.398 0 0 1 .034.563c-.935 1.057-2.457 1.984-4.178 2.647-1.727.665-3.694 1.079-5.55 1.079a.4.4 0 1 1 0-.798c1.744 0 3.614-.39 5.262-1.025 1.654-.637 3.047-1.505 3.867-2.431a.4.4 0 0 1 .564-.035Z" fill="#000"/><path fill-rule="evenodd" clip-rule="evenodd" d="M26.016 29.85a.398.398 0 0 1 .035.564l-.22.25c-.832.947-1.877 2.138-3.558 3.107-1.838 1.06-4.406 1.843-8.263 1.843a.4.4 0 1 1 0-.798c3.744 0 6.168-.758 7.862-1.735 1.563-.902 2.528-2 3.363-2.949.073-.083.145-.166.217-.246a.4.4 0 0 1 .564-.035ZM8.475 4.326a.4.4 0 0 1 .554-.117l1.621 1.054c6.44 4.182 9.003 5.847 17.075 10.948a.398.398 0 1 1-.428.674c-8.076-5.103-10.642-6.77-17.084-10.954l-1.62-1.053a.398.398 0 0 1-.118-.552ZM4.467 7.533a.4.4 0 0 1 .548-.139c2.894 1.718 5.42 3.29 7.964 4.871 3.38 2.102 6.79 4.224 11.133 6.732a.399.399 0 1 1-.401.69c-4.337-2.504-7.781-4.646-11.18-6.76-2.548-1.584-5.07-3.153-7.925-4.847a.398.398 0 0 1-.14-.547Z" fill="#000"/><path fill-rule="evenodd" clip-rule="evenodd" d="M22.3 16.834a.4.4 0 0 1 .4.399v14.652a.4.4 0 0 1-.8 0V17.233a.4.4 0 0 1 .4-.4ZM26.01 14.865a.4.4 0 0 1 .4.399v14.652a.4.4 0 0 1-.8 0V15.264a.4.4 0 0 1 .4-.4ZM9.531 5.049a.398.398 0 0 1-.08.558c-1.61 1.205-2.819 2.01-4.422 3.045a.398.398 0 1 1-.435-.67C6.19 6.951 7.382 6.158 8.97 4.969a.4.4 0 0 1 .56.08Z" fill="#000"/><path fill-rule="evenodd" clip-rule="evenodd" d="M27.53 14.625a.398.398 0 0 1-.08.559c-1.61 1.206-4.02 2.808-5.622 3.842a.399.399 0 1 1-.435-.67c1.6-1.032 3.99-2.622 5.578-3.81a.4.4 0 0 1 .56.08ZM23.515 13.808a.398.398 0 0 1-.045.562c-.89.759-1.487 1.179-2.182 1.668-.315.221-.65.457-1.04.744a.4.4 0 0 1-.56-.084.398.398 0 0 1 .085-.558c.417-.307.762-.55 1.08-.774a24.982 24.982 0 0 0 2.098-1.603.4.4 0 0 1 .564.045ZM20.315 12.212a.398.398 0 0 1-.044.562c-.89.758-1.488 1.179-2.182 1.668-.315.221-.65.457-1.04.744a.4.4 0 0 1-.56-.084.398.398 0 0 1 .085-.558c.417-.307.762-.55 1.08-.774.68-.478 1.235-.869 2.098-1.603a.4.4 0 0 1 .563.045ZM17.915 10.616a.398.398 0 0 1-.044.562 26.269 26.269 0 0 1-2.183 1.667c-.314.222-.649.457-1.04.745a.4.4 0 0 1-.56-.085.398.398 0 0 1 .086-.557c.416-.307.762-.55 1.08-.774.68-.478 1.235-.869 2.097-1.603a.4.4 0 0 1 .564.045ZM15.515 9.02a.398.398 0 0 1-.045.562 26.28 26.28 0 0 1-2.182 1.667c-.315.222-.65.457-1.04.745a.4.4 0 0 1-.56-.085.398.398 0 0 1 .085-.558c.417-.306.762-.549 1.08-.773.68-.478 1.236-.869 2.098-1.603a.4.4 0 0 1 .564.045ZM13.115 7.423a.398.398 0 0 1-.044.563 26.26 26.26 0 0 1-2.182 1.667c-.315.222-.65.457-1.04.745a.4.4 0 0 1-.56-.085.398.398 0 0 1 .085-.558c.416-.306.762-.55 1.08-.773.68-.478 1.235-.869 2.097-1.603a.4.4 0 0 1 .564.044ZM10.715 5.827a.398.398 0 0 1-.045.563 26.273 26.273 0 0 1-2.182 1.667c-.314.222-.65.457-1.04.745a.398.398 0 1 1-.475-.642c.417-.307.762-.55 1.08-.774.68-.478 1.236-.87 2.098-1.603a.4.4 0 0 1 .564.044ZM26.372 29.457a.399.399 0 0 1-.189.532c-.574.273-1.091.553-1.58.818-.183.099-.361.196-.537.289-.635.337-1.243.633-1.834.776a.4.4 0 1 1-.189-.775c.483-.117 1.012-.369 1.647-.706.165-.087.336-.18.514-.277a33.85 33.85 0 0 1 1.635-.846.4.4 0 0 1 .533.19ZM26.646 25.866a.399.399 0 0 1-.19.532c-.573.272-1.09.553-1.58.818-.182.099-.36.195-.537.289-.634.336-1.243.633-1.834.776a.399.399 0 1 1-.188-.776c.482-.116 1.012-.368 1.646-.705.165-.087.337-.18.515-.277.494-.267 1.04-.563 1.634-.846a.4.4 0 0 1 .534.189ZM25.97 22.668a.399.399 0 0 1-.181.535c-.473.233-.897.473-1.3.7-.152.086-.3.17-.447.25-.524.29-1.034.55-1.533.675a.399.399 0 1 1-.196-.774c.388-.097.817-.31 1.342-.599.135-.074.276-.154.423-.237.408-.23.862-.486 1.355-.73a.4.4 0 0 1 .536.18ZM25.97 19.476a.399.399 0 0 1-.181.535c-.473.233-.897.473-1.3.7-.152.086-.3.17-.447.25-.524.29-1.034.55-1.533.675a.4.4 0 0 1-.196-.774c.388-.097.817-.31 1.342-.599l.423-.237c.408-.23.862-.486 1.355-.73a.4.4 0 0 1 .536.18Z" fill="#000"/><path d="M20.105 23.555c.01 3.052-2.428 5.533-5.443 5.541-3.016.01-5.467-2.458-5.476-5.51-.009-3.052 2.428-5.533 5.444-5.541 3.015-.01 5.467 2.458 5.475 5.51Z" fill="#fff"/><path fill-rule="evenodd" clip-rule="evenodd" d="M18.368 17.053a.398.398 0 0 1-.125.55c-3.468 2.178-4.87 4.8-5.426 6.732a8.659 8.659 0 0 0-.352 2.263 4.84 4.84 0 0 0 .007.337c.01.028.016.057.019.086a1.864 1.864 0 0 1 .009.14v.002c0 .008 0 .046-.01.088a.407.407 0 0 1-.13.224.704.704 0 0 1-.183.09.702.702 0 0 1-.223-.02.4.4 0 0 1-.18-.138c-.037-.05-.053-.096-.056-.106a.842.842 0 0 1-.035-.196c-.515-1.397-1.29-2.404-2.236-3.335a.398.398 0 0 1-.004-.565.4.4 0 0 1 .566-.003c.663.653 1.262 1.357 1.756 2.204.058-.386.148-.821.283-1.291.606-2.105 2.12-4.896 5.769-7.187a.4.4 0 0 1 .551.125Z" fill="#000"/><path fill-rule="evenodd" clip-rule="evenodd" d="M11.069 18.31c1.476-.595 3.384-.567 4.804-.015.9.35 2.017 1.256 2.722 2.51.715 1.27 1.018 2.92.23 4.722-.705 1.616-1.888 2.82-3.327 3.402-1.444.583-3.113.524-4.75-.326-1.667-.866-2.717-2.37-3.047-4.25a5.05 5.05 0 0 1 .41-3.007.398.398 0 0 1-.365-.609c.722-1.154 2.09-1.93 3.323-2.427Zm3.37.431a.4.4 0 0 1-.394.33c-2.42.006-3.881.803-4.699 1.807-.826 1.014-1.04 2.292-.857 3.338.29 1.651 1.197 2.936 2.628 3.679 1.443.75 2.867.784 4.081.294 1.22-.493 2.26-1.53 2.894-2.981.672-1.538.417-2.925-.195-4.013-.621-1.105-1.6-1.879-2.315-2.157a5.397 5.397 0 0 0-1.144-.297Z" fill="#000"/><path d="m29.03 51.672.629-36.921L44.063 6.34l13.701 8.41.703 37.5-14.404 8.243-15.033-8.821Z" fill="#fff"/><path d="m44.063 22.336 14.404-8.411V52.25l-14.404 8.243V22.336Z" fill="#5FB34E"/><path fill-rule="evenodd" clip-rule="evenodd" d="M43.677 21.711a.4.4 0 0 1 .4.4v38.692a.4.4 0 0 1-.8 0V22.11a.4.4 0 0 1 .4-.399ZM58.324 13.3a.4.4 0 0 1 .4.4v38.885a.4.4 0 0 1-.8 0V13.7a.4.4 0 0 1 .4-.399ZM29.603 13.668a.4.4 0 0 1 .397.402l-.292 38.183a.4.4 0 0 1-.8-.006l.292-38.183a.4.4 0 0 1 .403-.396Z" fill="#000"/><path fill-rule="evenodd" clip-rule="evenodd" d="M27.905 13.853a.4.4 0 0 1 .546-.15l16.16 9.111a.398.398 0 1 1-.394.695l-16.16-9.112a.399.399 0 0 1-.152-.544ZM41.5 5.089a.4.4 0 0 1 .546-.146l17.805 10.26a.398.398 0 1 1-.4.69L41.646 5.633a.398.398 0 0 1-.146-.544ZM26.853 50.56a.4.4 0 0 1 .547-.147l17.804 10.26a.398.398 0 1 1-.4.691L27 51.104a.399.399 0 0 1-.147-.545Z" fill="#000"/><path fill-rule="evenodd" clip-rule="evenodd" d="M28.68 14.704a.399.399 0 0 1 .157-.542l16.087-8.873a.399.399 0 1 1 .387.698L29.224 14.86a.4.4 0 0 1-.543-.156ZM43.332 22.841a.399.399 0 0 1 .14-.546l15.142-8.94a.398.398 0 1 1 .407.687l-15.14 8.94a.4.4 0 0 1-.549-.14ZM42.663 61.21a.398.398 0 0 1 .146-.544l16.23-9.34a.398.398 0 1 1 .4.691l-16.23 9.34a.4.4 0 0 1-.546-.146Z" fill="#000"/><path fill-rule="evenodd" clip-rule="evenodd" d="M56.755 14.96c.213.057.34.277.281.49L44.8 60.397a.4.4 0 0 1-.772-.21L56.264 15.24a.4.4 0 0 1 .491-.28Zm-4.727 2.56c.213.056.34.275.282.488L43.746 49.91a.4.4 0 0 1-.772-.207l8.564-31.902a.4.4 0 0 1 .49-.283Zm-4.652 2.803c.214.058.34.277.282.49l-3.912 14.369a.4.4 0 0 1-.772-.21l3.912-14.368a.4.4 0 0 1 .49-.28ZM58.4 22.426c.213.058.339.277.281.49l-9.639 35.407a.4.4 0 0 1-.772-.21l9.639-35.406a.4.4 0 0 1 .49-.28Zm.178 12.266a.399.399 0 0 1 .28.49L53.32 55.359a.4.4 0 0 1-.771-.21l5.537-20.176a.4.4 0 0 1 .491-.28Zm.165 10.864c.213.058.34.276.282.49l-1.988 7.359a.4.4 0 0 1-.772-.208l1.988-7.36a.4.4 0 0 1 .49-.28ZM37.7 25.638a.4.4 0 0 1 .4.4v3.291a.4.4 0 0 1-.8 0v-3.292c0-.22.179-.399.4-.399Z" fill="#000"/><path fill-rule="evenodd" clip-rule="evenodd" d="M37.26 25.828a.4.4 0 0 1 .55-.13c.638.391 1.042.69 1.373.935l.043.031c.336.248.587.43.953.612a.399.399 0 1 1-.358.714c-.433-.216-.732-.434-1.071-.684l-.042-.031c-.327-.242-.709-.524-1.317-.898a.399.399 0 0 1-.131-.549ZM37.267 29.407a.4.4 0 0 1 .555-.11l1.154.769c.514.343.885.59 1.243.825a.398.398 0 1 1-.438.668 149.26 149.26 0 0 1-1.255-.833l-1.148-.765a.398.398 0 0 1-.11-.554Z" fill="#000"/><path fill-rule="evenodd" clip-rule="evenodd" d="M40 27.234a.4.4 0 0 1 .4.4v3.59a.4.4 0 0 1-.8 0v-3.59a.4.4 0 0 1 .4-.4ZM32.9 22.446a.4.4 0 0 1 .4.4v3.291a.4.4 0 0 1-.8 0v-3.292a.4.4 0 0 1 .4-.399Z" fill="#000"/><path fill-rule="evenodd" clip-rule="evenodd" d="M32.46 22.636a.4.4 0 0 1 .55-.13 17.51 17.51 0 0 1 1.416.966c.336.248.587.43.953.612a.398.398 0 1 1-.357.714c-.434-.216-.733-.434-1.072-.684l-.042-.031a16.734 16.734 0 0 0-1.317-.898.398.398 0 0 1-.131-.549ZM32.468 26.215a.4.4 0 0 1 .554-.11l1.154.769c.514.343.885.59 1.243.825a.398.398 0 1 1-.438.667c-.361-.236-.737-.487-1.255-.833l-1.147-.765a.398.398 0 0 1-.111-.553Z" fill="#000"/><path fill-rule="evenodd" clip-rule="evenodd" d="M35.2 24.042a.4.4 0 0 1 .4.4v3.59a.4.4 0 0 1-.8 0v-3.59a.4.4 0 0 1 .4-.4ZM37.7 32.82a.4.4 0 0 1 .4.4v3.292a.4.4 0 0 1-.8 0V33.22c0-.22.179-.4.4-.4Z" fill="#000"/><path fill-rule="evenodd" clip-rule="evenodd" d="M37.26 33.01a.4.4 0 0 1 .55-.13c.638.392 1.042.69 1.373.935l.043.032c.336.248.587.43.953.612a.399.399 0 1 1-.358.714c-.433-.217-.732-.434-1.071-.685l-.042-.03c-.327-.242-.709-.525-1.317-.898a.399.399 0 0 1-.131-.55ZM37.267 36.59a.4.4 0 0 1 .555-.111l1.154.77c.514.343.885.59 1.243.824a.398.398 0 1 1-.438.668c-.361-.236-.737-.487-1.255-.833l-1.148-.765a.398.398 0 0 1-.11-.553Z" fill="#000"/><path fill-rule="evenodd" clip-rule="evenodd" d="M40 34.417a.4.4 0 0 1 .4.399v3.591a.4.4 0 0 1-.8 0v-3.591a.4.4 0 0 1 .4-.4ZM32.9 29.629a.4.4 0 0 1 .4.399v3.291a.4.4 0 0 1-.8 0v-3.291a.4.4 0 0 1 .4-.4Z" fill="#000"/><path fill-rule="evenodd" clip-rule="evenodd" d="M32.46 29.819a.4.4 0 0 1 .55-.131 17.51 17.51 0 0 1 1.416.967c.336.248.587.429.953.612a.398.398 0 1 1-.357.714c-.434-.217-.733-.434-1.072-.685l-.042-.03a16.734 16.734 0 0 0-1.317-.899.398.398 0 0 1-.131-.549ZM32.468 33.397a.4.4 0 0 1 .554-.11c.461.306.835.556 1.154.77.514.343.885.59 1.243.824a.398.398 0 1 1-.438.668c-.361-.236-.737-.487-1.255-.833l-1.147-.765a.398.398 0 0 1-.111-.554Z" fill="#000"/><path fill-rule="evenodd" clip-rule="evenodd" d="M35.2 31.225a.4.4 0 0 1 .4.399v3.59a.4.4 0 0 1-.8 0v-3.59c0-.22.179-.4.4-.4ZM37.7 40.003a.4.4 0 0 1 .4.4v3.291a.4.4 0 0 1-.8 0v-3.292c0-.22.179-.399.4-.399Z" fill="#000"/><path fill-rule="evenodd" clip-rule="evenodd" d="M37.26 40.193a.4.4 0 0 1 .55-.13c.638.39 1.042.69 1.373.935l.043.031c.336.248.587.43.953.612a.399.399 0 1 1-.358.714c-.433-.216-.732-.434-1.071-.684l-.042-.031c-.327-.242-.709-.525-1.317-.898a.399.399 0 0 1-.131-.549ZM37.267 43.772a.4.4 0 0 1 .555-.11l1.154.769c.514.343.885.59 1.243.825a.398.398 0 1 1-.438.667 149.26 149.26 0 0 1-1.255-.833l-1.148-.765a.398.398 0 0 1-.11-.553Z" fill="#000"/><path fill-rule="evenodd" clip-rule="evenodd" d="M40 41.6a.4.4 0 0 1 .4.398v3.591a.4.4 0 0 1-.8 0V42a.4.4 0 0 1 .4-.4ZM32.9 36.81a.4.4 0 0 1 .4.4v3.292a.4.4 0 0 1-.8 0V37.21c0-.22.18-.4.4-.4Z" fill="#000"/><path fill-rule="evenodd" clip-rule="evenodd" d="M32.46 37a.4.4 0 0 1 .55-.13 17.534 17.534 0 0 1 1.416.967c.336.248.587.43.953.612a.398.398 0 1 1-.357.714c-.434-.216-.733-.434-1.072-.685l-.042-.03a16.734 16.734 0 0 0-1.317-.898.399.399 0 0 1-.131-.55ZM32.468 40.58a.4.4 0 0 1 .554-.11l1.154.769c.514.343.885.59 1.243.824a.398.398 0 1 1-.438.668c-.361-.236-.737-.487-1.255-.833l-1.147-.765a.398.398 0 0 1-.111-.553Z" fill="#000"/><path fill-rule="evenodd" clip-rule="evenodd" d="M35.2 38.407a.4.4 0 0 1 .4.4v3.59a.4.4 0 0 1-.8 0v-3.59c0-.221.179-.4.4-.4ZM37.7 47.185a.4.4 0 0 1 .4.4v3.291a.4.4 0 0 1-.8 0v-3.291a.4.4 0 0 1 .4-.4Z" fill="#000"/><path fill-rule="evenodd" clip-rule="evenodd" d="M37.26 47.375a.4.4 0 0 1 .55-.13c.638.391 1.042.69 1.373.935l.043.032c.336.248.587.429.953.612a.399.399 0 1 1-.358.714c-.433-.217-.732-.434-1.071-.685l-.042-.031c-.327-.242-.709-.524-1.317-.898a.399.399 0 0 1-.131-.549ZM37.267 50.954a.4.4 0 0 1 .555-.11l1.154.77c.514.343.885.59 1.243.824a.398.398 0 1 1-.438.668 149.26 149.26 0 0 1-1.255-.833l-1.148-.765a.398.398 0 0 1-.11-.554Z" fill="#000"/><path fill-rule="evenodd" clip-rule="evenodd" d="M40 48.782a.4.4 0 0 1 .4.399v3.59a.4.4 0 0 1-.8 0v-3.59a.4.4 0 0 1 .4-.4ZM32.9 43.993a.4.4 0 0 1 .4.4v3.291a.4.4 0 0 1-.8 0v-3.292c0-.22.18-.399.4-.399Z" fill="#000"/><path fill-rule="evenodd" clip-rule="evenodd" d="M32.46 44.183a.4.4 0 0 1 .55-.13c.638.391 1.043.69 1.373.935l.043.031c.336.248.587.43.953.613a.398.398 0 1 1-.357.713c-.434-.216-.733-.434-1.072-.684l-.042-.031a16.734 16.734 0 0 0-1.317-.898.399.399 0 0 1-.131-.549ZM32.468 47.762a.4.4 0 0 1 .554-.11l1.154.769c.514.343.885.59 1.243.825a.398.398 0 1 1-.438.667c-.361-.235-.737-.487-1.255-.832l-1.147-.765a.398.398 0 0 1-.111-.554Z" fill="#000"/><path fill-rule="evenodd" clip-rule="evenodd" d="M35.2 45.59a.4.4 0 0 1 .4.398v3.592a.4.4 0 0 1-.8 0v-3.591c0-.22.179-.4.4-.4Z" fill="#000"/></svg>