<svg xmlns="http://www.w3.org/2000/svg" fill="none" viewBox="0 0 449 214"><defs/><path fill="#25A6F7" d="M15 71h188v3H15z"/><path fill="#D9DAE6" d="M237 71h190v3H237z"/><path stroke="#D9DAE6" stroke-linecap="round" stroke-linejoin="round" stroke-width="2" d="M411 73h-4.047c-11.046 0-20 8.9543-20 20v62c0 11.046-8.954 20-20 20H363"/><path stroke="#25A6F6" stroke-linecap="round" stroke-linejoin="round" stroke-width="2" d="M246 73h4.692c11.046 0 20 8.9543 20 20v62c0 11.046 8.955 20 20 20H294"/><rect width="77.3043" height="34.5109" x="62" y="55" fill="#0092E4" rx="6"/><rect width="77.3043" height="34.5109" x="170" y="55" fill="#0092E4" rx="6"/><rect width="77.3043" height="34.5109" x="288.391" y="55.1836" fill="#D9DAE6" rx="6"/><rect width="77.3043" height="34.5109" x="288" y="157" fill="#D9DAE6" rx="6"/><path fill="#000" d="M89.6034 103.672h2.2657V110h1.0937v-6.328h2.2692v-.945h-5.6286v.945zm8.347 6.438c1.1896 0 2.0312-.586 2.2726-1.474l-1.0049-.181c-.1917.515-.6534.778-1.2571.778-.9091 0-1.5199-.59-1.5483-1.641h3.8783v-.376c0-1.971-1.1794-2.742-2.4152-2.742-1.5199 0-2.5213 1.158-2.5213 2.834 0 1.694.9872 2.802 2.5959 2.802zm-1.5341-3.313c.0426-.774.6037-1.445 1.4666-1.445.8239 0 1.3636.61 1.3672 1.445h-2.8338zm9.1397-.92c-.22-.849-.884-1.403-2.063-1.403-1.232 0-2.106.65-2.106 1.616 0 .774.469 1.289 1.491 1.517l.924.202c.525.117.77.352.77.692 0 .423-.451.753-1.147.753-.635 0-1.044-.273-1.172-.809l-1.026.156c.178.966.98 1.509 2.205 1.509 1.318 0 2.231-.699 2.231-1.687 0-.77-.491-1.246-1.492-1.477l-.866-.199c-.601-.142-.86-.344-.856-.714-.004-.419.451-.717 1.054-.717.661 0 .966.366 1.091.732l.962-.171zm3.82-1.332h-1.118v-1.306h-1.062v1.306h-.799v.853h.799v3.221c-.004.99.753 1.47 1.591 1.452.337-.004.564-.067.689-.114l-.192-.877c-.071.014-.203.046-.373.046-.345 0-.653-.113-.653-.728v-3h1.118v-.853zM176.05 110h2.788c1.69 0 2.453-.842 2.453-1.957 0-1.125-.788-1.761-1.509-1.8v-.071c.668-.171 1.225-.625 1.225-1.534 0-1.076-.745-1.911-2.294-1.911h-2.663V110zm1.097-.941v-2.33h1.623c.881 0 1.431.569 1.431 1.261 0 .611-.415 1.069-1.47 1.069h-1.584zm0-3.185v-2.213h1.499c.87 0 1.285.458 1.285 1.062 0 .703-.575 1.151-1.314 1.151h-1.47zm8.816 1.864c.004.927-.685 1.367-1.282 1.367-.657 0-1.111-.476-1.111-1.218v-3.342h-1.062v3.47c0 1.353.742 2.056 1.789 2.056.821 0 1.378-.433 1.63-1.016h.057V110h1.044v-5.455h-1.065v3.193zm2.492 2.262h1.062v-5.455h-1.062V110zm.536-6.296c.366 0 .671-.284.671-.632 0-.348-.305-.636-.671-.636-.369 0-.671.288-.671.636 0 .348.302.632.671.632zm3.016-.977h-1.062V110h1.062v-7.273zm3.47 7.38c.995 0 1.385-.608 1.577-.956h.089V110h1.037v-7.273h-1.062v2.703h-.064c-.192-.338-.554-.956-1.57-.956-1.317 0-2.286 1.041-2.286 2.809 0 1.765.955 2.824 2.279 2.824zm.235-.906c-.948 0-1.442-.835-1.442-1.928 0-1.083.483-1.897 1.442-1.897.927 0 1.424.757 1.424 1.897 0 1.147-.508 1.928-1.424 1.928zm8.746.902c.657 0 1.385-.22 1.875-.678l.49.575h1.201l-1.034-1.236c.309-.412.604-1.058.604-2.067h-.959c0 .487-.114.92-.302 1.282l-1.456-1.74.497-.365c.604-.441.966-.949.966-1.641 0-.849-.685-1.584-1.804-1.584-1.108 0-1.836.714-1.836 1.719 0 .65.341 1.165.799 1.722-.831.575-1.395 1.112-1.395 1.978 0 1.169.891 2.035 2.354 2.035zm1.279-1.381c-.377.312-.828.483-1.275.483-.789 0-1.304-.537-1.304-1.165 0-.224.189-.671.757-1.09l.192-.142 1.63 1.914zm-1.446-3.189c-.33-.405-.589-.778-.589-1.147 0-.423.348-.849.859-.849.49 0 .81.383.81.724 0 .434-.238.696-.632.956l-.448.316zm7.296 4.467h1.097v-2.557h1.492c1.687 0 2.521-1.019 2.521-2.361 0-1.339-.827-2.355-2.518-2.355h-2.592V110zm1.097-3.487v-2.845h1.378c1.087 0 1.531.59 1.531 1.414s-.444 1.431-1.517 1.431h-1.392zm8.67 1.225c.003.927-.686 1.367-1.282 1.367-.657 0-1.112-.476-1.112-1.218v-3.342h-1.062v3.47c0 1.353.743 2.056 1.79 2.056.82 0 1.378-.433 1.63-1.016h.057V110h1.044v-5.455h-1.065v3.193zm2.577 2.262h1.037v-.849h.089c.191.348.582.956 1.576.956 1.321 0 2.28-1.059 2.28-2.824 0-1.768-.973-2.809-2.29-2.809-1.012 0-1.378.618-1.566.956h-.064v-2.703h-1.062V110zm1.04-2.727c0-1.14.497-1.897 1.424-1.897.963 0 1.446.814 1.446 1.897 0 1.093-.498 1.928-1.446 1.928-.912 0-1.424-.781-1.424-1.928zm6.196-4.546h-1.062V110h1.062v-7.273zm1.429 7.273h1.061v-5.455h-1.061V110zm.536-6.296c.366 0 .671-.284.671-.632 0-.348-.305-.636-.671-.636-.369 0-.671.288-.671.636 0 .348.302.632.671.632zm6.041 2.173c-.22-.849-.884-1.403-2.063-1.403-1.232 0-2.106.65-2.106 1.616 0 .774.469 1.289 1.492 1.517l.923.202c.526.117.771.352.771.692 0 .423-.451.753-1.147.753-.636 0-1.045-.273-1.172-.809l-1.027.156c.178.966.98 1.509 2.206 1.509 1.317 0 2.23-.699 2.23-1.687 0-.77-.49-1.246-1.492-1.477l-.866-.199c-.6-.142-.86-.344-.856-.714-.004-.419.451-.717 1.055-.717.66 0 .966.366 1.09.732l.962-.171zm2.336.884c0-.87.55-1.367 1.307-1.367.731 0 1.168.465 1.168 1.264V110h1.062v-3.469c0-1.361-.746-2.057-1.868-2.057-.849 0-1.36.37-1.616.959h-.067v-2.706h-1.048V110h1.062v-3.239zM285.898 101.638h1.059c-.032-1.165-1.062-2.0102-2.539-2.0102-1.46 0-2.579.8342-2.579 2.0882 0 1.012.725 1.605 1.893 1.921l.86.234c.777.206 1.377.462 1.377 1.108 0 .711-.678 1.179-1.612 1.179-.845 0-1.548-.376-1.612-1.168h-1.101c.071 1.318 1.09 2.131 2.72 2.131 1.708 0 2.692-.899 2.692-2.131 0-1.31-1.168-1.818-2.092-2.045l-.71-.185c-.568-.146-1.324-.412-1.321-1.108 0-.618.565-1.076 1.46-1.076.834 0 1.427.391 1.505 1.062zm5.839 3.1c.004.927-.685 1.367-1.282 1.367-.657 0-1.111-.476-1.111-1.218v-3.342h-1.062v3.47c0 1.353.742 2.056 1.79 2.056.82 0 1.378-.433 1.63-1.016h.057V107h1.044v-5.455h-1.066v3.193zm2.578 2.262h1.037v-.849h.088c.192.348.583.956 1.577.956 1.321 0 2.28-1.059 2.28-2.824 0-1.768-.973-2.809-2.291-2.809-1.012 0-1.377.618-1.566.956h-.064v-2.7027h-1.061V107zm1.04-2.727c0-1.14.497-1.897 1.424-1.897.962 0 1.445.814 1.445 1.897 0 1.093-.497 1.928-1.445 1.928-.913 0-1.424-.781-1.424-1.928zm5.134 2.727h1.062v-3.363c0-.735.515-1.246 1.119-1.246.589 0 .997.39.997.983V107h1.059v-3.477c0-.657.401-1.132 1.093-1.132.562 0 1.023.312 1.023 1.051V107h1.062v-3.658c0-1.246-.696-1.868-1.683-1.868-.785 0-1.375.377-1.637.959h-.057c-.238-.596-.739-.959-1.467-.959-.721 0-1.257.359-1.484.959h-.068v-.888h-1.019V107zm8.838 0h1.062v-5.455h-1.062V107zm.536-6.296c.366 0 .671-.284.671-.632 0-.3483-.305-.6359-.671-.6359-.369 0-.671.2876-.671.6359 0 .348.302.632.671.632zm4.5.841h-1.118v-1.306h-1.062v1.306h-.799v.853h.799v3.221c-.003.99.753 1.47 1.591 1.452.337-.004.565-.067.689-.114l-.192-.877c-.071.014-.202.046-.373.046-.344 0-.653-.113-.653-.728v-3h1.118v-.853zm6.733-1.8177v5.1567c-.003.838-.394 1.285-1.09 1.285-.643 0-1.09-.383-1.094-.987h-1.09c0 1.229.924 1.917 2.156 1.917 1.335 0 2.209-.816 2.212-2.215v-5.1567h-1.094zm3.789 0h-1.098V107h1.098v-7.2727zM326.483 107h1.097v-2.752h1.562L330.62 107h1.25l-1.613-2.944c.892-.33 1.336-1.072 1.336-2.049 0-1.339-.831-2.2797-2.518-2.2797h-2.592V107zm1.097-3.697v-2.635h1.378c1.083 0 1.53.515 1.53 1.339 0 .82-.447 1.296-1.516 1.296h-1.392zm5.962 3.697l.668-1.925h2.841l.664 1.925h1.165l-2.618-7.2727h-1.267L332.377 107h1.165zm.987-2.848l1.073-3.104h.057l1.072 3.104h-2.202zm10.508-2.607h-1.118v-1.306h-1.062v1.306h-.799v.853h.799v3.221c-.004.99.753 1.47 1.591 1.452.337-.004.564-.067.689-.114l-.192-.877c-.071.014-.202.046-.373.046-.344 0-.653-.113-.653-.728v-3h1.118v-.853zm1.175 5.455h1.062v-5.455h-1.062V107zm.536-6.296c.366 0 .671-.284.671-.632 0-.3483-.305-.6359-.671-.6359-.369 0-.671.2876-.671.6359 0 .348.302.632.671.632zM351 107.11c1.289 0 2.123-.774 2.24-1.836h-1.033c-.135.59-.593.938-1.2.938-.899 0-1.478-.75-1.478-1.939 0-1.169.59-1.904 1.478-1.904.674 0 1.086.426 1.2.938h1.033c-.113-1.101-1.012-1.833-2.251-1.833-1.538 0-2.532 1.158-2.532 2.824 0 1.644.959 2.812 2.543 2.812zm3.376-.11h1.062v-1.935l.529-.529L357.82 107h1.304l-2.358-3.114 2.209-2.341h-1.272l-2.173 2.309h-.092v-4.1267h-1.062V107zm7.693.11c1.189 0 2.031-.586 2.272-1.474l-1.005-.181c-.191.515-.653.778-1.257.778-.909 0-1.52-.59-1.548-1.641h3.878v-.376c0-1.971-1.179-2.742-2.415-2.742-1.52 0-2.521 1.158-2.521 2.834 0 1.694.987 2.802 2.596 2.802zm-1.535-3.313c.043-.774.604-1.445 1.467-1.445.824 0 1.364.61 1.367 1.445h-2.834zm7.599-2.252h-1.119v-1.306h-1.061v1.306h-.799v.853h.799v3.221c-.004.99.752 1.47 1.591 1.452.337-.004.564-.067.688-.114l-.191-.877c-.071.014-.203.046-.373.046-.345 0-.654-.113-.654-.728v-3h1.119v-.853zm5.174 1.332c-.22-.849-.884-1.403-2.063-1.403-1.232 0-2.106.65-2.106 1.616 0 .774.469 1.289 1.491 1.517l.924.202c.525.117.77.352.77.692 0 .423-.451.753-1.147.753-.635 0-1.044-.273-1.172-.809l-1.026.156c.178.966.98 1.509 2.205 1.509 1.318 0 2.231-.699 2.231-1.687 0-.77-.491-1.246-1.492-1.477l-.866-.199c-.601-.142-.86-.344-.856-.714-.004-.419.451-.717 1.054-.717.661 0 .966.366 1.091.732l.962-.171zm-78.078 12.668h-1.176v-.49c0-.483.199-.745.718-.745.22 0 .376.049.475.081l.249-.859c-.149-.057-.458-.146-.888-.146-.863 0-1.619.505-1.619 1.527v.632h-.842v.853h.842V121h1.065v-4.602h1.176v-.853zm3.178 5.565c1.538 0 2.542-1.126 2.542-2.812 0-1.698-1.004-2.824-2.542-2.824-1.538 0-2.543 1.126-2.543 2.824 0 1.686 1.005 2.812 2.543 2.812zm.003-.891c-1.005 0-1.473-.877-1.473-1.925 0-1.044.468-1.932 1.473-1.932.998 0 1.467.888 1.467 1.932 0 1.048-.469 1.925-1.467 1.925zm3.725.781h1.061v-3.331c0-.714.551-1.229 1.304-1.229.22 0 .468.039.554.064v-1.015c-.107-.015-.316-.025-.451-.025-.639 0-1.186.362-1.385.948h-.057v-.867h-1.026V121zm6.569 0h1.098v-3.171h3.089v-.941h-3.089v-2.216h3.412v-.945h-4.51V121zm7.342.121c.902 0 1.41-.458 1.612-.867h.043V121h1.037v-3.622c0-1.588-1.25-1.904-2.116-1.904-.988 0-1.897.398-2.252 1.392l.998.228c.156-.387.554-.76 1.268-.76.685 0 1.037.358 1.037.976v.025c0 .387-.398.38-1.378.494-1.034.121-2.092.39-2.092 1.63 0 1.072.806 1.662 1.843 1.662zm.231-.853c-.6 0-1.033-.269-1.033-.795 0-.568.504-.771 1.118-.852.345-.046 1.162-.139 1.314-.291v.703c0 .646-.515 1.235-1.399 1.235zm3.875.732h1.062v-5.455h-1.062V121zm.536-6.296c.366 0 .672-.284.672-.632 0-.348-.306-.636-.672-.636-.369 0-.671.288-.671.636 0 .348.302.632.671.632zm3.016-.977h-1.062V121h1.062v-7.273zm3.78 7.383c1.189 0 2.031-.586 2.272-1.474l-1.005-.181c-.191.515-.653.778-1.257.778-.909 0-1.52-.59-1.548-1.641h3.878v-.376c0-1.971-1.179-2.742-2.415-2.742-1.52 0-2.521 1.158-2.521 2.834 0 1.694.987 2.802 2.596 2.802zm-1.535-3.313c.043-.774.604-1.445 1.467-1.445.824 0 1.364.61 1.367 1.445h-2.834zm7.095 3.31c.994 0 1.385-.608 1.576-.956h.089V121h1.037v-7.273h-1.062v2.703h-.064c-.191-.338-.554-.956-1.569-.956-1.318 0-2.287 1.041-2.287 2.809 0 1.765.955 2.824 2.28 2.824zm.234-.906c-.948 0-1.442-.835-1.442-1.928 0-1.083.483-1.897 1.442-1.897.927 0 1.424.757 1.424 1.897 0 1.147-.508 1.928-1.424 1.928zm9.176-4.656h-1.118v-1.306h-1.062v1.306h-.799v.853h.799v3.221c-.004.99.753 1.47 1.591 1.452.337-.004.564-.067.689-.114l-.192-.877c-.071.014-.202.046-.373.046-.344 0-.653-.113-.653-.728v-3h1.118v-.853zm3.467 5.565c1.19 0 2.031-.586 2.273-1.474l-1.005-.181c-.192.515-.654.778-1.257.778-.909 0-1.52-.59-1.549-1.641h3.878v-.376c0-1.971-1.179-2.742-2.414-2.742-1.52 0-2.522 1.158-2.522 2.834 0 1.694.987 2.802 2.596 2.802zm-1.534-3.313c.043-.774.604-1.445 1.467-1.445.823 0 1.363.61 1.367 1.445h-2.834zm9.14-.92c-.22-.849-.885-1.403-2.063-1.403-1.233 0-2.106.65-2.106 1.616 0 .774.468 1.289 1.491 1.517l.923.202c.526.117.771.352.771.692 0 .423-.451.753-1.147.753-.636 0-1.044-.273-1.172-.809l-1.026.156c.177.966.98 1.509 2.205 1.509 1.318 0 2.23-.699 2.23-1.687 0-.77-.49-1.246-1.491-1.477l-.867-.199c-.6-.142-.859-.344-.856-.714-.003-.419.451-.717 1.055-.717.661 0 .966.366 1.09.732l.963-.171zm3.82-1.332h-1.119v-1.306h-1.062v1.306h-.799v.853h.799v3.221c-.003.99.753 1.47 1.591 1.452.338-.004.565-.067.689-.114l-.191-.877c-.071.014-.203.046-.373.046-.345 0-.654-.113-.654-.728v-3h1.119v-.853zm5.174 1.332c-.22-.849-.884-1.403-2.063-1.403-1.233 0-2.106.65-2.106 1.616 0 .774.469 1.289 1.491 1.517l.924.202c.525.117.77.352.77.692 0 .423-.451.753-1.147.753-.635 0-1.044-.273-1.172-.809l-1.026.156c.178.966.98 1.509 2.205 1.509 1.318 0 2.23-.699 2.23-1.687 0-.77-.49-1.246-1.491-1.477l-.867-.199c-.6-.142-.859-.344-.855-.714-.004-.419.451-.717 1.054-.717.661 0 .966.366 1.091.732l.962-.171zM297.056 200.727h-1.087v5.341h-.067l-3.701-5.341h-1.015V208h1.097v-5.334h.067l3.697 5.334h1.009v-7.273zm3.813 7.383c1.537 0 2.542-1.126 2.542-2.812 0-1.698-1.005-2.824-2.542-2.824-1.538 0-2.543 1.126-2.543 2.824 0 1.686 1.005 2.812 2.543 2.812zm.003-.891c-1.005 0-1.473-.877-1.473-1.925 0-1.044.468-1.932 1.473-1.932.998 0 1.467.888 1.467 1.932 0 1.048-.469 1.925-1.467 1.925zm6.271-4.674h-1.119v-1.306h-1.062v1.306h-.799v.853h.799v3.221c-.003.99.753 1.47 1.591 1.452.338-.004.565-.067.689-.114l-.192-.877c-.071.014-.202.046-.372.046-.345 0-.654-.113-.654-.728v-3h1.119v-.853zm1.174 5.455h1.062v-5.455h-1.062V208zm.537-6.296c.365 0 .671-.284.671-.632 0-.348-.306-.636-.671-.636-.37 0-.672.288-.672.636 0 .348.302.632.672.632zm4.549.841h-1.175v-.49c0-.483.199-.745.717-.745.22 0 .377.049.476.081l.249-.859c-.149-.057-.458-.146-.888-.146-.863 0-1.619.505-1.619 1.527v.632h-.842v.853h.842V208h1.065v-4.602h1.175v-.853zm1.767 7.5c.877 0 1.431-.458 1.747-1.317l2.255-6.172-1.147-.011-1.381 4.233h-.057l-1.381-4.233h-1.137l1.996 5.526-.131.362c-.27.725-.65.785-1.233.625l-.255.87c.128.057.404.117.724.117zm9.947-1.935c1.537 0 2.542-1.126 2.542-2.812 0-1.698-1.005-2.824-2.542-2.824-1.538 0-2.543 1.126-2.543 2.824 0 1.686 1.005 2.812 2.543 2.812zm.003-.891c-1.005 0-1.473-.877-1.473-1.925 0-1.044.468-1.932 1.473-1.932.998 0 1.467.888 1.467 1.932 0 1.048-.469 1.925-1.467 1.925zm4.786-2.458c0-.87.533-1.367 1.272-1.367.721 0 1.157.472 1.157 1.264V208h1.062v-3.469c0-1.35-.742-2.057-1.857-2.057-.82 0-1.357.38-1.609.959h-.067v-.888h-1.019V208h1.061v-3.239zm11.614-2.123h1.058c-.032-1.165-1.062-2.01-2.539-2.01-1.46 0-2.578.834-2.578 2.088 0 1.012.724 1.605 1.892 1.921l.86.234c.777.206 1.378.462 1.378 1.108 0 .711-.679 1.179-1.613 1.179-.845 0-1.548-.376-1.612-1.168h-1.101c.071 1.318 1.09 2.131 2.72 2.131 1.709 0 2.692-.899 2.692-2.131 0-1.31-1.168-1.818-2.091-2.045l-.711-.185c-.568-.146-1.324-.412-1.321-1.108 0-.618.565-1.076 1.46-1.076.834 0 1.427.391 1.506 1.062zm3.445-1.911h-1.062V208h1.062v-7.273zm3.016 7.394c.902 0 1.41-.458 1.612-.867h.043V208h1.037v-3.622c0-1.588-1.25-1.904-2.117-1.904-.987 0-1.896.398-2.251 1.392l.998.228c.156-.387.554-.76 1.267-.76.686 0 1.037.358 1.037.976v.025c0 .387-.397.38-1.378.494-1.033.121-2.091.39-2.091 1.63 0 1.072.806 1.662 1.843 1.662zm.231-.853c-.6 0-1.034-.269-1.034-.795 0-.568.505-.771 1.119-.852.344-.046 1.161-.139 1.314-.291v.703c0 .646-.515 1.235-1.399 1.235zm6.172.842c1.289 0 2.124-.774 2.241-1.836h-1.033c-.135.59-.593.938-1.2.938-.899 0-1.478-.75-1.478-1.939 0-1.169.59-1.904 1.478-1.904.674 0 1.086.426 1.2.938h1.033c-.113-1.101-1.012-1.833-2.251-1.833-1.538 0-2.532 1.158-2.532 2.824 0 1.644.959 2.812 2.542 2.812zm3.377-.11h1.061v-1.935l.53-.529 1.853 2.464h1.304l-2.358-3.114 2.208-2.341h-1.271l-2.173 2.309h-.093v-4.127h-1.061V208z"/><g filter="url(#filter0_dd)"><circle cx="16.5" cy="72.5" r="14.5" fill="#F3F3FA"/></g><path fill="#42AB45" d="M14.7685 67.2246c-.3329-.2528-.7811-.2957-1.1564-.1108-.3752.185-.6125.5659-.6121.9826v8.8081c0 .4166.2374.7971.6125.9819.3752.1847.8232.1417 1.156-.111l5.7988-4.4047C20.84 73.1634 21 72.8415 21 72.5s-.16-.6634-.4327-.8707l-5.7988-4.4047z"/><g filter="url(#filter1_dd)"><circle cx="432.5" cy="72.5" r="14.5" fill="#F3F3FA"/></g><rect width="8" height="8" x="429" y="69" fill="#4F5162" rx="1"/><rect width="56" height="16" x="2" fill="#4F5162" rx="8"/><path fill="#FAFBFC" d="M12.8358 4.72727h-1.4453L13.9509 12h1.6264l2.5639-7.27273h-1.4488l-1.8892 5.72443h-.0746l-1.8928-5.72443zm7.7808 0h-1.3174V12h1.3174V4.72727zm5.5791 1.99929h1.2678c-.0249-1.22869-1.0725-2.09872-2.6208-2.09872-1.527 0-2.674.85938-2.6704 2.14489 0 1.04403.7422 1.64417 1.9389 1.95312l.8274.21307c.7848.19886 1.3033.44389 1.3068 1.00852-.0035.62146-.593 1.03696-1.4524 1.03696-.8238 0-1.463-.3693-1.5163-1.13284h-1.2962c.0533 1.44534 1.1293 2.25854 2.8232 2.25854 1.7436 0 2.7557-.87 2.7592-2.152-.0035-1.26066-1.044-1.83594-2.1378-2.09517l-.6818-.17046c-.5966-.14204-1.2429-.39417-1.2358-1.00142.0036-.54687.4936-.94815 1.3175-.94815.7848 0 1.3032.36576 1.3707.98366zm7.3263-1.99929v4.64134c0 .91259-.6357 1.56609-1.6336 1.56609-1.0014 0-1.6335-.6535-1.6335-1.56609V4.72727h-1.3175v4.75142c0 1.56251 1.1719 2.63141 2.951 2.63141 1.7721 0 2.951-1.0689 2.951-2.63141V4.72727H33.522zM37.4054 12l.6001-1.7933h2.7344L41.3436 12h1.4062l-2.5639-7.27273h-1.6264L35.9991 12h1.4063zm.9552-2.85156l.9837-2.92969h.0568l.9837 2.92969h-2.0242zM43.9078 12h4.5206v-1.1044h-3.2032V4.72727h-1.3174V12z"/><rect width="45.6" height="15.6" x="64.2" y=".2" stroke="#B0B1C4" stroke-width=".4" rx="7.8"/><path fill="#4F5162" d="M73.2893 4.72727l2.6456 4.55966V12h1.3139V9.28693l2.6456-4.55966h-1.4879L76.6274 7.9446h-.071l-1.7792-3.21733h-1.4879zM81.2192 12l.6002-1.7933h2.7344L85.1575 12h1.4062l-2.5639-7.27273h-1.6264L79.813 12h1.4062zm.9553-2.85156l.9837-2.92969h.0568l.9837 2.92969h-2.0242zm5.5471-4.42117V12h1.2642V6.9929h.0675l2.0099 4.9858h.9446l2.01-4.97515h.0675V12h1.2642V4.72727h-1.6122l-2.1591 5.26989h-.0853l-2.1591-5.26989h-1.6122zM96.9841 12h4.5209v-1.1044h-3.2034V4.72727h-1.3175V12z"/><defs><filter id="filter0_dd" width="33" height="33" x="0" y="56.5" color-interpolation-filters="sRGB" filterUnits="userSpaceOnUse"><feFlood flood-opacity="0" result="BackgroundImageFix"/><feColorMatrix in="SourceAlpha" values="0 0 0 0 0 0 0 0 0 0 0 0 0 0 0 0 0 0 127 0"/><feOffset dy=".5"/><feGaussianBlur stdDeviation="1"/><feColorMatrix values="0 0 0 0 0.376471 0 0 0 0 0.380392 0 0 0 0 0.439216 0 0 0 0.16 0"/><feBlend in2="BackgroundImageFix" result="effect1_dropShadow"/><feColorMatrix in="SourceAlpha" values="0 0 0 0 0 0 0 0 0 0 0 0 0 0 0 0 0 0 127 0"/><feOffset/><feGaussianBlur stdDeviation=".5"/><feColorMatrix values="0 0 0 0 0.156863 0 0 0 0 0.160784 0 0 0 0 0.239216 0 0 0 0.08 0"/><feBlend in2="effect1_dropShadow" result="effect2_dropShadow"/><feBlend in="SourceGraphic" in2="effect2_dropShadow" result="shape"/></filter><filter id="filter1_dd" width="33" height="33" x="416" y="56.5" color-interpolation-filters="sRGB" filterUnits="userSpaceOnUse"><feFlood flood-opacity="0" result="BackgroundImageFix"/><feColorMatrix in="SourceAlpha" values="0 0 0 0 0 0 0 0 0 0 0 0 0 0 0 0 0 0 127 0"/><feOffset dy=".5"/><feGaussianBlur stdDeviation="1"/><feColorMatrix values="0 0 0 0 0.376471 0 0 0 0 0.380392 0 0 0 0 0.439216 0 0 0 0.16 0"/><feBlend in2="BackgroundImageFix" result="effect1_dropShadow"/><feColorMatrix in="SourceAlpha" values="0 0 0 0 0 0 0 0 0 0 0 0 0 0 0 0 0 0 127 0"/><feOffset/><feGaussianBlur stdDeviation=".5"/><feColorMatrix values="0 0 0 0 0.156863 0 0 0 0 0.160784 0 0 0 0 0.239216 0 0 0 0.08 0"/><feBlend in2="effect1_dropShadow" result="effect2_dropShadow"/><feBlend in="SourceGraphic" in2="effect2_dropShadow" result="shape"/></filter></defs></svg>