<svg width="16" height="16" viewBox="0 0 16 16" fill="none" xmlns="http://www.w3.org/2000/svg">
<path d="M3.33325 2H10.6666L12.6666 4.66667V14H3.33325V2Z" stroke="#383946" stroke-linecap="round" stroke-linejoin="round"/>
<path d="M7.99852 10C7.77875 10 7.60059 9.82184 7.60059 9.60207V6.39793C7.60059 6.17816 7.77875 6 7.99852 6C8.21829 6 8.39645 6.17816 8.39645 6.39793V9.60207C8.39645 9.82184 8.21829 10 7.99852 10ZM6.39793 8.39645C6.17816 8.39645 6 8.21829 6 7.99852C6 7.77875 6.17816 7.60059 6.39793 7.60059H9.60207C9.82184 7.60059 10 7.77875 10 7.99852C10 8.21829 9.82184 8.39645 9.60207 8.39645H6.39793Z" fill="#383946"/>
</svg>
