<svg width="16" height="16" viewBox="0 0 16 16" fill="none" xmlns="http://www.w3.org/2000/svg">
<path d="M2.66675 2.6665H6.66675L8.00008 4.6665H13.3334V13.3332H2.66675V2.6665Z" stroke="#383946" stroke-linecap="round" stroke-linejoin="round"/>
<path fill-rule="evenodd" clip-rule="evenodd" d="M7.72102 6.71354C7.87633 6.56228 8.12387 6.56228 8.27918 6.71354L10.2792 8.66137C10.4374 8.8155 10.4408 9.06874 10.2867 9.227C10.1325 9.38526 9.87928 9.38861 9.72102 9.23448L8.4001 7.94802V11.0001C8.4001 11.221 8.22101 11.4001 8.0001 11.4001C7.77918 11.4001 7.6001 11.221 7.6001 11.0001V7.94802L6.27918 9.23448C6.12092 9.38861 5.86767 9.38526 5.71354 9.227C5.55941 9.06874 5.56276 8.8155 5.72102 8.66137L7.72102 6.71354Z" fill="#383946"/>
<path opacity="0.3" d="M8.66675 2.66683H13.3334" stroke="#383946" stroke-linecap="round" stroke-linejoin="round"/>
</svg>
