<svg enable-background="new 0 0 961 452" viewBox="0 0 961 452" xmlns="http://www.w3.org/2000/svg" xmlns:xlink="http://www.w3.org/1999/xlink"><linearGradient id="a" gradientTransform="matrix(1 0 0 -1 0 452)" gradientUnits="userSpaceOnUse" x1="1037.9005" x2="25.4005" y1="319.8135" y2="3.3135"><stop offset=".094" stop-color="#f8f8f8" stop-opacity="0"/><stop offset=".257" stop-color="#f8f8f8"/><stop offset=".61" stop-color="#f8f8f8"/><stop offset="1" stop-color="#f8f8f8" stop-opacity="0"/></linearGradient><linearGradient id="b" gradientTransform="matrix(1 0 0 -1 0 452)" gradientUnits="userSpaceOnUse" x1="128.5851" x2="-88.8649" y1="48.8569" y2="5.0679"><stop offset=".032" stop-opacity="0"/><stop offset=".245" stop-opacity=".52"/><stop offset=".385" stop-opacity=".62"/><stop offset=".639" stop-opacity="0"/></linearGradient><linearGradient id="c" gradientTransform="matrix(1 0 0 -1 0 452)" gradientUnits="userSpaceOnUse" x1="1020.01" x2="137.7499" y1="491.6707" y2="72.2657"><stop offset=".032" stop-opacity="0"/><stop offset=".245"/><stop offset=".858"/><stop offset=".973" stop-opacity="0"/></linearGradient><linearGradient id="d" gradientTransform="matrix(1 0 0 -1 0 452)" gradientUnits="userSpaceOnUse" x1="992.5325" x2="98.6544" y1="346.8629" y2="12.623"><stop offset=".064" stop-opacity="0"/><stop offset=".245"/><stop offset=".825"/><stop offset=".973" stop-opacity="0"/></linearGradient><linearGradient id="e" gradientTransform="matrix(1 0 0 -1 0 452)" gradientUnits="userSpaceOnUse" x1="857.8901" x2="47.5582" y1="274.8949" y2="-.2602"><stop offset=".032" stop-opacity="0"/><stop offset=".245"/><stop offset=".843"/><stop offset=".973" stop-opacity="0"/></linearGradient><linearGradient id="f"><stop offset=".032" stop-opacity="0"/><stop offset=".245"/><stop offset=".797"/><stop offset=".973" stop-opacity="0"/></linearGradient><linearGradient id="g" gradientTransform="matrix(1 0 0 -1 0 452)" gradientUnits="userSpaceOnUse" x1="968.8648" x2="198.9768" xlink:href="#f" y1="585.1599" y2="113.0419"/><linearGradient id="h" gradientTransform="matrix(1 0 0 -1 0 452)" gradientUnits="userSpaceOnUse" x1="913.8407" x2="236.2556" xlink:href="#f" y1="674.7151" y2="157.0082"/><linearGradient id="i" gradientTransform="matrix(1 0 0 -1 0 452)" gradientUnits="userSpaceOnUse" x1="1148.4717" x2="290.7577" xlink:href="#f" y1="319.3624" y2="61.5314"/><linearGradient id="j" gradientTransform="matrix(1 0 0 -1 0 452)" gradientUnits="userSpaceOnUse" x1="1124.1304" x2="-1.5366" xlink:href="#f" y1="399.6049" y2="-.9921"/><linearGradient id="k" gradientTransform="matrix(1 0 0 -1 0 452)" gradientUnits="userSpaceOnUse" x1="775.006" x2="799.863" y1="399.9785" y2="361.7245"><stop offset="0" stop-color="#ffc100"/><stop offset="1" stop-color="#e66b35"/></linearGradient><linearGradient id="l" gradientTransform="matrix(1 0 0 -1 0 452)" gradientUnits="userSpaceOnUse" x1="656.3582" x2="672.2862" y1="229.6888" y2="194.3477"><stop offset="0" stop-color="#00cfde"/><stop offset="1" stop-color="#05a660"/></linearGradient><linearGradient id="m" gradientTransform="matrix(1 0 0 -1 0 452)" gradientUnits="userSpaceOnUse" x1="503.6891" x2="523.3701" y1="397.5215" y2="361.4335"><stop offset="0" stop-color="#9e74ff"/><stop offset="1" stop-color="#8a36ff"/></linearGradient><linearGradient id="n" gradientTransform="matrix(1 0 0 -1 0 452)" gradientUnits="userSpaceOnUse" x1="388.9019" x2="399.3879" y1="237.9398" y2="220.4408"><stop offset="0" stop-color="#62f91f"/><stop offset="1" stop-color="#5eaa53"/></linearGradient><linearGradient id="o" gradientTransform="matrix(1 0 0 -1 0 452)" gradientUnits="userSpaceOnUse" x1="157.7838" x2="182.7738" y1="211.659" y2="173.171"><stop offset="0" stop-color="#73dfe7"/><stop offset="1" stop-color="#0095f7"/></linearGradient><path d="m-.5 484c23.5-9 258.6-106.1 274-110 36.5-9.3 77 14.6 104 21 18 4.3 41 5 59.5-5 14.8-8 78.5-40.3 112.5-58.5 18.5-9.9 14.6-24.5 0-29.5-20.5-7-64-18.5-81-23s-18.4-20.8 0-29c27-12 98.5-38.5 120.5-48 25.4-11 34.8-5.9 71.5 0 28 4.5 111 22.5 129 26s58 7.1 93.5-11c27.5-14 129-73.5 183-102.5" fill="none" stroke="url(#a)" stroke-width="15"/><g clip-rule="evenodd" fill-rule="evenodd" opacity=".2"><path d="m-126.2 366.3-.3-.2.3-.7.3.2zm4.2 2-.7-.3.3-.7.7.3zm4.2 1.9-.7-.3.3-.7.7.3zm4.2 1.9-.7-.3.3-.7.7.3zm4.1 2-.7-.3.3-.7.7.3zm4.2 1.9-.7-.3.3-.7.7.3zm4.2 1.9-.7-.3.3-.7.7.3zm4.1 2-.7-.3.3-.7.7.3zm4.2 1.9-.7-.3.3-.7.7.3zm4.2 1.9-.7-.3.3-.7.7.3zm4.2 1.9-.7-.3.3-.7.7.3zm4.1 2-.7-.3.3-.7.7.3zm4.2 1.9-.7-.3.3-.7.7.3zm4.2 1.9-.7-.3.3-.7.7.3zm4.2 2-.7-.3.3-.7.7.3zm4.1 1.9-.7-.3.3-.7.7.3c.1 0-.3.7-.3.7zm4.2 1.9-.7-.3.3-.7.7.3zm4.2 2-.7-.3.3-.7.7.3zm4.1 1.9-.7-.3.3-.7.7.3zm4.2 1.9-.7-.3.3-.7.7.3zm4.2 1.9-.7-.3.3-.7.7.3zm4.2 2-.7-.3.3-.7.7.3zm4.1 1.9-.7-.3.3-.7.7.3zm4.2 1.9-.7-.3.3-.7.7.3zm4.2 2-.7-.3.3-.7.7.3zm4.2 1.9-.7-.3.3-.7.7.3zm4.1 1.9-.7-.3.3-.7.7.3zm4.2 2-.7-.3.3-.7.7.3zm4.2 1.9-.7-.3.3-.7.7.3zm4.2 1.9-.7-.3.3-.7.7.3zm4.1 1.9-.7-.3.3-.7.7.3zm4.2 2-.7-.3.3-.7.7.3zm4.2 1.9-.7-.3.3-.7.7.3zm4.1 1.9-.7-.3.3-.7.7.3zm4.2 2-.7-.3.3-.7.7.3s-.3.7-.3.7zm4.2 1.9-.7-.3.3-.7.7.3zm4.2 1.9-.7-.3.3-.7.7.3zm4.1 2-.7-.3.3-.7.7.3zm4.2 1.9-.7-.3.3-.7.7.3zm4.2 1.9-.7-.3.3-.7.7.3zm4.2 1.9-.7-.3.3-.7.7.3zm4.1 2-.7-.3.3-.7.7.3zm4.2 1.9-.7-.3.3-.7.7.3zm4.2 1.9-.7-.3.3-.7.7.3zm4.1 2-.7-.3.3-.7.7.3zm4.2 1.9-.7-.3.3-.7.7.3zm4.2 1.9-.7-.3.3-.7.7.3zm4.2 1.9-.7-.3.3-.7.7.3zm4.1 2-.7-.3.3-.7.7.3zm4.2 1.9-.7-.3.3-.7.7.3zm4.2 1.9-.7-.3.3-.7.7.3zm4.2 2-.7-.3.3-.7.7.3zm4.1 1.9-.7-.3.3-.7.7.3zm4.2 1.9-.7-.3.3-.7.7.3zm4.2 2-.7-.3.3-.7.7.3zm4.1 1.9-.7-.3.3-.7.7.3zm4.2 1.9-.7-.3.3-.7.7.3zm4.2 1.9-.7-.3.3-.7.7.3zm4.2 2-.7-.3.3-.7.7.3zm4.1 1.9-.7-.3.3-.7.7.3zm4.2 1.9-.7-.3.3-.7.7.3zm4.2 2-.7-.3.3-.7.7.3zm4.2 1.9-.7-.3.3-.7.7.3zm4.1 1.9-.7-.3.3-.7.7.3zm3.9 1.8-.3-.2.3-.7.3.2z" fill="url(#b)"/><path d="m-110.6 69.9-.4-.1.1-.8.4.1zm4.5.9-.8-.1.1-.8.8.1zm4.6.8-.8-.1.1-.8.8.1zm4.5.9-.8-.1.1-.8.8.1zm4.6.9-.8-.1.1-.8.8.1zm4.5.9-.8-.1.1-.8.8.1zm4.6.9-.8-.1.1-.8.8.1zm4.5.9-.8-.1.1-.8.8.1zm4.5.9-.8-.1.1-.8.8.1zm4.6.9-.8-.1.1-.8.8.1zm4.5.9-.8-.1.1-.8.9.1zm4.6.9-.8-.1.1-.8.8.1zm4.5.8-.8-.1.1-.8.8.1zm4.6.9-.8-.1.1-.8.8.1zm4.5.9-.8-.1.1-.8.8.1zm4.5.9-.8-.1.1-.8.8.1zm4.6.9-.8-.1.1-.8.8.1zm4.5.9-.8-.1.1-.8.8.1zm4.6.9-.8-.1.1-.8.8.1zm4.5.9-.8-.1.1-.8.8.1zm4.6.9-.8-.1.1-.8.8.1zm4.5.9-.8-.1.1-.8.8.1zm4.6.8-.8-.1.1-.8.8.1zm4.5.9-.8-.1.1-.8.8.1c0 .1-.1.8-.1.8zm4.5.9-.8-.1.1-.8.8.1zm4.6.9-.8-.1.1-.8.8.1zm4.5.9-.8-.1.1-.8.8.1zm4.6.9-.8-.1.1-.8.8.1zm4.5.9-.8-.1.1-.8.8.1zm4.6.9-.8-.1.1-.8.8.1zm4.5.9-.7-.2.1-.8.8.1zm4.6.9-.8-.1.1-.8.8.1zm4.5.8-.8-.1.1-.8.8.1zm4.5.9-.8-.1.1-.8.8.1zm4.6.9-.8-.1.1-.8.8.1zm4.5.9-.8-.1.1-.8.8.1zm4.6.9-.8-.1.1-.8.8.1zm4.5.9-.8-.1.1-.8.8.1zm4.6.9-.8-.1.1-.8.8.1zm4.5.9-.8-.1.1-.8.8.1zm4.5.9-.8-.1.1-.8.8.1zm4.6.9-.8-.1.1-.8.8.1zm4.5.8-.8-.1.1-.8.8.1zm4.6.9-.8-.1.1-.8.8.1zm4.5.9-.8-.1.1-.8.8.1zm4.6.9-.8-.1.1-.8.8.1zm4.5.9-.8-.1.1-.8.8.1zm4.6.9-.8-.1.1-.8.8.1zm4.5.9-.8-.1.1-.8.8.1zm4.5.9-.8-.1.1-.8.8.1zm4.6.9-.8-.1.1-.8.8.1zm4.5.9-.8-.1.1-.8.8.1zm4.6.8-.8-.1.1-.8.8.1zm4.5.9-.8-.1.1-.8.8.1zm4.6.9-.8-.1.1-.8.8.1zm4.5.9-.8-.1.1-.8.8.1zm4.5.9-.8-.1.1-.8.8.1zm4.6.9-.8-.1.1-.8.8.1zm4.5.9-.8-.1.1-.8.8.1zm4.6.9-.8-.1.1-.8.8.1zm4.5.9-.8-.1.1-.8.8.1zm4.6.9-.8-.1.1-.8.8.1zm4.5.8-.8-.1.1-.8.8.1zm4.6.9-.8-.1.1-.8.8.1zm4.5.9-.8-.1.1-.8.8.1zm4.5.9-.8-.1.1-.8.8.1zm4.6.9-.8-.1.1-.8.8.1zm4.5.9-.8-.1.1-.8.8.1zm4.6.9-.8-.1.1-.8.8.1zm4.5.9-.8-.1.1-.8.8.1zm4.6.9-.8-.1.1-.8.8.1zm4.5.9-.8-.1.1-.8.8.1zm4.5.8-.8-.1.1-.8.8.1zm4.6.9-.8-.1.1-.8.8.1zm4.5.9-.8-.1.1-.8.8.1zm4.6.9-.8-.1.1-.8.8.1zm4.5.9-.8-.1.1-.8.8.1zm4.6.9-.8-.1.1-.8.8.1zm4.5.9-.8-.1.1-.8.8.1zm4.6.9-.8-.1.1-.8.8.1zm4.5.9-.8-.1.1-.8.8.1zm4.5.9-.8-.1.1-.8.8.1zm4.6.8-.8-.1.1-.8.8.1zm4.5.9-.8-.1.1-.8.8.1zm4.6.9-.8-.1.1-.8.8.1zm4.5.9-.8-.1.1-.8.8.1zm4.6.9-.8-.1.1-.8.8.1zm4.5.9-.8-.1.1-.8.8.1zm4.5.9-.8-.1.1-.8.8.1zm4.6.9-.8-.1.1-.8.8.1zm4.5.9-.8-.1.1-.8.8.1zm4.6.9-.8-.1.1-.8.8.1zm4.5.8-.8-.1.1-.8.8.1zm4.6.9-.8-.1.1-.8.8.1zm4.5.9-.8-.1.1-.8.8.1zm4.6.9-.8-.1.1-.8.8.1zm4.5.9-.8-.1.1-.8.8.1zm4.5.9-.8-.1.1-.8.8.1zm4.6.9-.8-.1.1-.8.8.1zm4.5.9-.8-.1.1-.8.8.1zm4.6.9-.8-.1.1-.8.8.1zm4.5.9-.8-.1.1-.8.8.1zm4.6.8-.8-.1.1-.8.8.1zm4.5.9-.8-.1.1-.8.8.1zm4.5.9-.8-.1.1-.8.8.1zm4.6.9-.8-.1.1-.8.8.1zm4.5.9-.8-.1.1-.8.8.1zm4.6.9-.8-.1.1-.8.8.1zm4.5.9-.8-.1.1-.8.8.1zm4.6.9-.8-.1.1-.8.8.1zm4.5.9-.8-.1.1-.8.8.1zm4.6.9-.8-.1.1-.8.8.1zm4.5.8-.8-.1.1-.8.8.1zm4.5.9-.8-.1.1-.8.8.1zm4.6.9-.8-.1.1-.8.8.1zm4.5.9-.8-.1.1-.8.8.1zm4.6.9-.8-.1.1-.8.8.1zm4.5.9-.8-.1.1-.8.8.1zm4.6.9-.8-.1.1-.8.8.1zm4.5.9-.8-.1.1-.8.8.1zm4.5.9-.8-.1.1-.8.8.1zm4.6.9-.8-.1.1-.8.8.1zm4.5.9-.8-.1.1-.8.8.1zm4.6.8-.8-.1.1-.8.8.1zm4.5.9-.8-.1.1-.8.8.1zm4.6.9-.8-.1.1-.8.8.1zm4.5.9-.8-.1.1-.8.8.1zm4.6.9-.8-.1.1-.8.8.1zm4.5.9-.8-.1.1-.8.8.1zm4.5.9-.8-.1.1-.8.8.1zm4.6.9-.8-.1.1-.8.8.1zm4.5.9-.8-.1.1-.8.8.1zm4.6.9-.8-.1.1-.8.8.1zm4.5.8-.8-.1.1-.8.8.1zm4.6.9-.8-.1.1-.8.8.1zm4.5.9-.8-.1.1-.8.8.1zm4.5.9-.8-.1.1-.8.8.1zm4.6.9-.8-.1.1-.8.8.1zm4.5.9-.8-.1.1-.8.8.1zm4.6.9-.8-.1.1-.8.8.1zm4.5.9-.8-.1.1-.8.8.1zm4.6.9-.8-.1.1-.8.8.1zm4.5.9-.8-.1.1-.8.8.1zm4.6.8-.8-.1.1-.8.8.1zm4.5.9-.8-.1.1-.8.8.1zm4.5.9-.8-.1.1-.8.8.1zm4.6.9-.8-.1.1-.8.8.1zm4.5.9-.8-.1.1-.8.8.1zm4.6.9-.8-.1.1-.8.8.1zm4.5.9-.8-.1.1-.8.8.1zm4.6.9-.8-.1.1-.8.8.1zm4.5.9-.8-.1.1-.8.8.1zm4.5.9-.8-.1.1-.8.8.1zm4.6.8-.8-.1.1-.8.8.1zm4.5.9-.8-.1.1-.8.8.1zm4.6.9-.8-.1.1-.8.8.1zm4.5.9-.8-.1.1-.8.8.1zm4.6.9-.8-.1.1-.8.8.1zm4.5.9-.8-.1.1-.8.8.1zm4.6.9-.8-.1.1-.8.8.1zm4.5.9-.8-.1.1-.8.8.1zm4.5.9-.8-.1.1-.8.8.1zm4.6.9-.8-.1.1-.8.8.1zm4.5.8-.8-.1.1-.8.8.1zm4.6.9-.8-.1.1-.8.8.1zm4.5.9-.8-.1.1-.8.8.1zm4.6.9-.8-.1.1-.8.8.1zm4.5.9-.8-.1.1-.8.8.1zm4.5.9-.8-.1.1-.8.8.1zm4.6.9-.8-.1.1-.8.8.1zm4.5.9-.8-.1.1-.8.8.1zm4.6.9-.8-.1.1-.8.8.1zm4.5.9-.8-.1.1-.8.8.1zm4.6.8-.8-.1.1-.8.8.1zm4.5.9-.8-.1.1-.8.8.1zm4.6.9-.8-.1.1-.8.8.1zm4.5.9-.8-.1.1-.8.8.1zm4.5.9-.8-.1.1-.8.8.1zm4.6.9-.8-.1.1-.8.8.1zm4.5.9-.7-.2.1-.8.8.1zm4.6.9-.8-.1.1-.8.8.1zm4.5.9-.8-.1.1-.8.8.1zm4.6.9-.8-.1.1-.8.8.1zm4.5.8-.8-.1.1-.8.8.1zm4.5.9-.8-.1.1-.8.8.1zm4.6.9-.8-.1.1-.8.8.1zm4.5.9-.8-.1.1-.8.8.1zm4.6.9-.8-.1.1-.8.8.1zm4.5.9-.8-.1.1-.8.8.1zm4.6.9-.8-.1.1-.8.8.1zm4.5.9-.8-.1.1-.8.8.1zm4.6.9-.8-.1.1-.8.8.1zm4.5.9-.8-.1.1-.8.8.1zm4.5.8-.8-.1.1-.8.8.1zm4.6.9-.8-.1.1-.8.8.1zm4.5.9-.8-.1.1-.8.8.1zm4.6.9-.8-.1.1-.8.8.1zm4.5.9-.8-.1.1-.8.8.1zm4.6.9-.8-.1.1-.8.8.1zm4.5.9-.8-.1.1-.8.8.1zm4.5.9-.8-.1.1-.8.8.1zm4.6.9-.8-.1.1-.8.8.1zm4.5.9-.8-.1.1-.8.8.1zm4.6.8-.8-.1.1-.8.8.1zm4.5.9-.8-.1.1-.8.8.1zm4.6.9-.8-.1.1-.8.8.1zm4.5.9-.8-.1.1-.8.8.1zm4.6.9-.8-.1.1-.8.8.1zm4.5.9-.8-.1.1-.8.8.1zm4.5.9-.8-.1.1-.8.8.1zm4.6.9-.8-.1.1-.8.8.1zm4.5.9-.8-.1.1-.8.8.1zm4.6.9-.8-.1.1-.8.8.1zm4.5.8-.8-.1.1-.8.8.1zm4.6.9-.8-.1.1-.8.8.1zm4.5.9-.8-.1.1-.8.8.1zm4.5.9-.8-.1.1-.8.8.1zm4.6.9-.8-.1.1-.8.8.1zm4.5.9-.8-.1.1-.8.8.1zm4.6.9-.8-.1.1-.8.8.1zm4.5.9-.8-.1.1-.8.8.1zm4.6.9-.8-.1.1-.8.8.1zm4.5.9-.8-.1.1-.8.8.1zm4.6.8-.8-.1.1-.8.8.1zm4.5.9-.8-.1.1-.8.8.1zm4.5.9-.7-.1.1-.8.8.1zm4.6.9-.8-.1.1-.8.8.1zm4.5.9-.8-.1.1-.8.8.1zm4.6.9-.8-.1.1-.8.8.1zm4.5.9-.8-.1.1-.8.8.1zm4.6.9-.8-.1.1-.8.8.1zm4.5.9-.8-.1.1-.8.8.1zm4.5.9-.8-.1.1-.8.8.1zm4.6.8-.8-.1.1-.8.8.1zm4.5.9-.8-.1.1-.8.8.1zm4.6.9-.8-.1.1-.8.8.1zm4.5.9-.8-.1.1-.8.8.1zm4.6.9-.8-.1.1-.8.8.1zm4.5.9-.8-.1.1-.8.8.1zm4.5.9-.8-.1.1-.8.8.1zm4.6.9-.8-.1.1-.8.8.1zm4.5.9-.8-.1.1-.8.8.1zm4.6.9-.8-.1.1-.8.8.1zm4.5.8-.8-.1.1-.8.8.1zm4.6.9-.8-.1.1-.8.8.1zm4.5.9-.8-.1.2-.8.8.1zm4.6.9-.8-.1.2-.8.8.1zm4.5.9-.8-.1.1-.8.8.1zm4.5.9-.8-.1.2-.8.8.1zm4.6.9-.8-.1.2-.8.8.1zm4.5.9-.8-.1.2-.8.8.1zm4.6.9-.8-.1.2-.8.8.1zm4.5.9-.8-.1.2-.8.8.1zm4.6.8-.8-.1.2-.8.8.1zm4.5.9-.8-.1.2-.8.8.1zm4.5.9-.8-.1.1-.8.8.1zm4.6.9-.8-.1.2-.8.8.1zm4.5.9-.8-.1.2-.8.8.1zm4.6.9-.8-.1.1-.8.8.1zm4.5.9-.8-.1.2-.8.8.1zm4.6.9-.8-.1.2-.8.8.1zm4.5.9-.8-.1.2-.8.8.1zm4.6.9-.8-.1.2-.8.8.1zm4.5.8-.8-.1.2-.8.8.1zm4.5.9-.8-.1.2-.8.8.1zm4.6.9-.8-.1.2-.8.8.1zm4.5.9-.8-.1.1-.8.8.1zm4.6.9-.8-.1.2-.8.8.1zm4.5.9-.8-.1.2-.8.8.1zm4.6.9-.8-.1.2-.8.8.1zm4.5.9-.8-.1.2-.8.8.1zm4.5.9-.8-.1.2-.8.8.1zm4.6.9-.8-.1.2-.8.8.1zm4.5.9-.8-.1.2-.8.8.1zm4.6.8-.8-.1.2-.8.8.1zm4.5.9-.8-.1.2-.8.8.1zm4.6.9-.8-.1.2-.8.8.1zm4.5.9-.8-.1.1-.8.8.1zm4.6.9-.8-.1.2-.8.8.1zm4.5.9-.8-.1.2-.8.8.1zm4.5.9-.8-.1.2-.8.8.1zm4.2.8-.4-.1.2-.8.4.1z" fill="url(#c)"/><path d="m-107.5 142.4-.4-.1.2-.7.4.1zm4.4 1.2-.7-.2.2-.7.7.2zm4.5 1.1-.7-.2.2-.7.7.2zm4.5 1.1-.7-.2.2-.7.7.2zm4.5 1.1-.7-.2.2-.7.7.2zm4.5 1.1-.7-.2.2-.7.7.2zm4.5 1.1-.7-.2.2-.7.7.2zm4.5 1.2-.7-.2.2-.7.7.2zm4.5 1.1-.7-.2.2-.7.7.2zm4.4 1.1-.7-.2.2-.7.7.2zm4.5 1.1-.7-.2.2-.7.7.2zm4.5 1.1-.7-.2.2-.7.7.2zm4.5 1.2-.7-.2.2-.7.7.2zm4.5 1.1-.7-.2.2-.7.7.2zm4.5 1.1-.7-.2.2-.7.7.2zm4.5 1.1-.8-.2.2-.7.7.2zm4.5 1.1-.7-.2.2-.7.7.2zm4.4 1.1-.7-.2.2-.7.7.2s-.2.7-.2.7zm4.5 1.2-.7-.2.2-.7.7.2zm4.5 1.1-.7-.2.2-.8.7.2zm4.5 1.1-.7-.2.2-.7.7.2zm4.5 1.1-.7-.2.2-.7.7.2zm4.5 1.1-.7-.2.2-.7.7.2zm4.5 1.1-.7-.2.2-.7.7.2zm4.5 1.2-.7-.2.2-.7.7.2zm4.5 1.1-.7-.2.2-.7.7.2zm4.4 1.1-.7-.2.2-.8.7.2zm4.5 1.1-.7-.2.2-.7.7.2zm4.5 1.1-.7-.2.2-.7.7.2zm4.5 1.2-.7-.2.2-.7.7.2zm4.5 1.1-.7-.2.2-.7.7.2zm4.5 1.1-.7-.2.2-.7.7.2zm4.5 1.1-.7-.2.2-.7.7.2zm4.5 1.1-.7-.2.2-.7.7.2zm4.4 1.1-.7-.2.2-.7.7.2zm4.5 1.2-.7-.2.2-.7.7.2zm4.5 1.1-.7-.2.2-.7.7.2zm4.5 1.1-.7-.2.2-.7.7.2zm4.5 1.1-.7-.2.2-.7.7.2zm4.5 1.1-.7-.2.2-.7.7.2zm4.5 1.1-.7-.2.2-.7.7.2zm4.5 1.2-.7-.2.2-.7.7.2zm4.4 1.1-.7-.2.2-.7.7.2zm4.5 1.1-.7-.2.2-.7.7.2zm4.5 1.1-.7-.2.2-.7.7.2zm4.5 1.1-.7-.2.2-.8.7.2zm4.5 1.1-.7-.2.2-.7.7.2zm4.5 1.2-.7-.2.2-.7.7.2zm4.5 1.1-.7-.2.2-.7.7.2zm4.5 1.1-.7-.2.2-.7.7.2zm4.4 1.1-.7-.2.2-.7.7.2zm4.5 1.1-.7-.2.2-.7.7.2zm4.5 1.2-.7-.2.2-.7.7.2zm4.5 1.1-.7-.2.2-.7.7.2zm4.5 1.1-.7-.2.2-.7.7.2zm4.5 1.1-.7-.2.2-.7.7.2zm4.5 1.1-.7-.2.2-.7.7.2zm4.5 1.1-.7-.2.2-.7.7.2zm4.4 1.2-.7-.2.2-.7.7.2zm4.5 1.1-.7-.2.2-.7.7.2zm4.5 1.1-.7-.2.2-.7.7.2zm4.5 1.1-.7-.2.2-.7.7.2zm4.5 1.1-.7-.2.2-.7.7.2zm4.5 1.1-.7-.2.2-.7.7.2zm4.5 1.2-.7-.2.2-.8.7.2zm4.5 1.1-.7-.2.2-.7.7.2zm4.5 1.1-.7-.2.2-.7.7.2zm4.4 1.1-.7-.2.2-.7.7.2zm4.5 1.1-.7-.2.2-.7.7.2zm4.5 1.2-.7-.2.2-.7.7.2zm4.5 1.1-.7-.2.2-.7.7.2zm4.5 1.1-.7-.2.2-.7.7.2zm4.5 1.1-.7-.2.2-.7.7.2zm4.5 1.1-.7-.2.2-.7.7.2zm4.5 1.1-.7-.2.2-.7.7.2zm4.4 1.2-.7-.2.2-.7.7.2zm4.5 1.1-.7-.2.2-.7.7.2zm4.5 1.1-.7-.2.2-.7.7.2zm4.5 1.1-.7-.2.2-.7.7.2zm4.5 1.1-.7-.2.2-.7.7.2zm4.5 1.1-.7-.2.2-.7.7.2zm4.5 1.2-.7-.2.2-.7.7.2zm4.5 1.1-.7-.2.2-.7.7.2zm4.4 1.1-.7-.2.2-.8.7.2zm4.5 1.1-.7-.2.2-.7.7.2zm4.5 1.1-.7-.2.2-.7.7.2zm4.5 1.2-.7-.2.2-.7.7.2zm4.5 1.1-.7-.2.2-.7.7.2zm4.5 1.1-.7-.2.2-.7.7.2zm4.5 1.1-.7-.2.2-.7.7.2zm4.5 1.1-.7-.2.2-.8.7.2zm4.4 1.1-.7-.2.2-.7.7.2zm4.5 1.2-.7-.2.2-.7.7.2zm4.5 1.1-.7-.2.2-.7.7.2zm4.5 1.1-.7-.2.2-.7.7.2zm4.5 1.1-.7-.2.2-.7.7.2zm4.5 1.1-.7-.2.2-.7.7.2zm4.5 1.1-.7-.2.2-.8.7.2zm4.5 1.2-.7-.2.2-.7.7.2zm4.4 1.1-.7-.2.2-.7.7.2zm4.5 1.1-.7-.2.2-.7.7.2zm4.5 1.1-.7-.2.2-.7.7.2zm4.5 1.1-.7-.2.2-.7.7.2zm4.5 1.2-.7-.2.2-.7.7.2zm4.5 1.1-.7-.2.2-.7.7.2zm4.5 1.1-.7-.2.2-.7.7.2zm4.5 1.1-.7-.2.2-.7.7.2zm4.4 1.1-.7-.2.2-.7.7.2zm4.5 1.1-.7-.2.2-.7.7.2zm4.5 1.2-.7-.2.2-.7.7.2zm4.5 1.1-.7-.2.2-.7.7.2zm4.5 1.1-.7-.2.2-.7.7.2zm4.5 1.1-.7-.2.2-.7.7.2zm4.5 1.1-.7-.2.2-.7.7.2zm4.5 1.1-.7-.2.2-.7.7.2zm4.4 1.2-.7-.2.2-.7.7.2zm4.5 1.1-.7-.2.2-.7.7.2zm4.5 1.1-.7-.2.2-.7.7.2zm4.5 1.1-.7-.2.2-.7.7.2zm4.5 1.1-.7-.2.2-.7.7.2zm4.5 1.2-.7-.2.2-.7.7.2zm4.5 1.1-.7-.2.2-.7.7.2zm4.5 1.1-.7-.2.2-.7.7.2zm4.4 1.1-.7-.2.2-.7.7.2zm4.5 1.1-.7-.2.2-.7.7.2zm4.5 1.1-.7-.2.2-.7.7.2zm4.5 1.2-.7-.2.2-.7.7.2zm4.5 1.1-.7-.2.2-.7.7.2zm4.5 1.1-.7-.2.2-.7.7.2zm4.5 1.1-.7-.2.2-.7.7.2zm4.5 1.1-.7-.2.2-.7.7.2zm4.4 1.1-.7-.2.2-.7.7.2zm4.5 1.2-.7-.2.2-.7.7.2zm4.5 1.1-.7-.2.2-.7.7.2zm4.5 1.1-.7-.2.2-.7.7.2zm4.5 1.1-.7-.2.2-.7.7.2zm4.5 1.1-.7-.2.2-.7.7.2zm4.5 1.2-.7-.2.2-.7.7.2zm4.5 1.1-.7-.2.2-.7.7.2zm4.4 1.1-.7-.2.2-.7.7.2zm4.5 1.1-.7-.2.2-.7.7.2zm4.5 1.1-.7-.2.2-.7.7.2zm4.5 1.1-.7-.1.2-.7.7.2zm4.5 1.2-.7-.2.2-.7.7.2zm4.5 1.1-.7-.2.2-.7.7.2zm4.5 1.1-.7-.2.2-.7.7.2zm4.5 1.1-.7-.2.2-.7.7.2zm4.4 1.1-.7-.2.2-.7.7.2zm4.5 1.1-.7-.2.2-.7.7.2zm4.5 1.2-.7-.2.2-.7.7.2zm4.5 1.1-.7-.2.2-.7.7.2zm4.5 1.1-.7-.2.2-.7.7.2zm4.5 1.1-.7-.2.2-.7.7.2zm4.5 1.1-.7-.2.2-.7.7.2zm4.5 1.1-.7-.2.2-.7.7.2zm4.4 1.2-.7-.2.2-.7.7.2zm4.5 1.1-.7-.2.2-.7.7.2zm4.5 1.1-.7-.2.2-.7.7.2zm4.5 1.1-.7-.2.2-.7.7.2zm4.5 1.1-.7-.2.2-.7.7.2zm4.5 1.2-.7-.2.2-.7.7.2zm4.5 1.1-.7-.2.2-.7.7.2zm4.5 1.1-.7-.2.2-.7.7.2zm4.4 1.1-.7-.2.2-.7.7.2zm4.5 1.1-.7-.2.2-.7.7.2zm4.5 1.1-.7-.2.2-.7.7.2zm4.5 1.2-.7-.2.2-.7.7.2zm4.5 1.1-.7-.2.2-.7.7.2zm4.5 1.1-.7-.2.2-.7.7.2zm4.5 1.1-.7-.2.2-.7.7.2zm4.5 1.1-.7-.2.2-.7.7.2zm4.4 1.1-.7-.2.2-.7.7.2zm4.5 1.2-.7-.2.2-.8.7.2zm4.5 1.1-.7-.2.2-.7.7.2zm4.5 1.1-.7-.2.2-.7.7.2zm4.5 1.1-.7-.2.2-.7.7.2zm4.5 1.1-.7-.2.2-.7.7.2zm4.5 1.2-.7-.2.2-.7.7.2zm4.5 1.1-.7-.2.2-.7.7.2zm4.4 1.1-.7-.2.2-.7.7.2zm4.5 1.1-.7-.2.2-.7.7.2zm4.5 1.1-.7-.2.2-.7.7.2zm4.5 1.1-.7-.2.2-.7.7.2zm4.5 1.2-.7-.2.2-.7.7.2zm4.5 1.1-.7-.2.2-.7.7.2zm4.5 1.1-.7-.2.2-.7.7.2zm4.5 1.1-.7-.2.2-.7.7.2zm4.4 1.1-.7-.2.2-.7.7.2zm4.5 1.1-.7-.2.2-.7.7.2zm4.5 1.2-.7-.2.2-.7.7.2zm4.5 1.1-.7-.2.2-.7.7.2zm4.5 1.1-.7-.2.2-.7.7.2zm4.5 1.1-.7-.2.2-.7.7.2zm4.5 1.1-.7-.2.2-.7.7.2zm4.5 1.2-.7-.2.2-.7.7.2zm4.4 1.1-.7-.2.2-.7.7.2zm4.5 1.1-.7-.2.2-.7.7.2zm4.5 1.1-.7-.2.2-.7.7.2zm4.5 1.1-.7-.2.2-.7.7.2zm4.5 1.1-.7-.2.2-.7.7.2zm4.5 1.2-.7-.2.2-.7.7.2zm4.5 1.1-.7-.2.2-.7.7.2zm4.5 1.1-.7-.2.2-.7.7.2zm4.5 1.1-.7-.2.2-.7.7.2zm4.4 1.1-.7-.2.2-.7.7.2zm4.5 1.1-.7-.2.2-.7.7.2zm4.5 1.2-.7-.2.2-.7.7.2zm4.5 1.1-.7-.2.2-.7.7.2zm4.5 1.1-.7-.2.2-.7.7.2zm4.5 1.1-.7-.2.2-.8.7.2zm4.5 1.1-.7-.2.2-.7.7.2zm4.5 1.2-.7-.2.2-.7.7.2zm4.4 1.1-.7-.2.2-.7.7.2zm4.5 1.1-.7-.2.2-.7.7.2zm4.5 1.1-.7-.2.2-.8.7.2zm4.5 1.1-.7-.2.2-.7.7.2zm4.5 1.1-.7-.2.2-.7.7.2zm4.5 1.2-.7-.2.2-.7.7.2zm4.5 1.1-.7-.2.2-.7.7.2zm4.5 1.1-.7-.2.2-.7.7.2zm4.4 1.1-.7-.2.2-.7.7.2zm4.5 1.1-.7-.2.2-.7.7.2zm4.5 1.1-.7-.2.2-.7.7.2zm4.5 1.2-.7-.2.2-.7.7.2zm4.5 1.1-.7-.2.2-.7.7.2zm4.5 1.1-.7-.2.2-.7.7.2zm4.5 1.1-.7-.2.2-.7.7.2zm4.5 1.1-.7-.2.2-.7.7.2zm4.4 1.2-.7-.2.2-.7.7.2zm4.5 1.1-.7-.2.2-.7.7.2zm4.5 1.1-.7-.2.2-.7.7.2zm4.5 1.1-.7-.2.2-.7.7.2zm4.5 1.1-.7-.2.2-.7.7.2zm4.5 1.1-.7-.2.2-.7.7.2zm4.5 1.2-.7-.2.2-.7.7.2zm4.5 1.1-.7-.2.2-.7.7.2zm4.4 1.1-.7-.2.2-.7.7.2zm4.5 1.1-.7-.2.2-.7.7.2zm4.5 1.1-.7-.2.2-.7.7.2zm4.5 1.1-.7-.2.2-.7.7.2zm4.5 1.2-.7-.2.2-.7.7.2zm4.5 1.1-.7-.2.2-.7.7.2zm4.5 1.1-.7-.2.2-.7.7.2zm4.5 1.1-.7-.2.2-.7.7.2zm4.4 1.1-.7-.2.2-.7.7.2zm4.5 1.2-.7-.2.2-.7.7.2zm4.5 1.1-.7-.2.2-.7.7.2zm4.5 1.1-.8-.2.2-.7.8.2zm4.5 1.1-.8-.2.2-.7.8.2zm4.5 1.1-.8-.2.2-.7.7.2zm4.5 1.1-.8-.2.2-.7.8.2zm4.5 1.2-.7-.2.2-.8.8.2zm4.4 1.1-.8-.2.2-.7.8.2zm4.5 1.1-.8-.2.2-.7.7.2zm4.5 1.1-.8-.2.2-.7.8.2zm4.5 1.1-.7-.2.2-.7.8.2zm4.5 1.1-.8-.2.2-.8.8.2zm4.5 1.2-.8-.2.2-.7.8.2zm4.5 1.1-.8-.2.2-.7.7.2zm4.5 1.1-.7-.2.2-.7.8.2zm4.4 1.1-.8-.2.2-.7.8.2zm4.5 1.1-.8-.2.2-.7.8.2zm4.5 1.1-.8-.2.2-.7.7.2zm4.5 1.2-.7-.2.2-.7.8.2zm4.5 1.1-.8-.2.2-.7.8.2zm4.5 1.1-.8-.2.2-.7.8.2zm4.5 1.1-.8-.2.2-.7.7.2zm4.5 1.1-.8-.2.2-.7.8.2zm4.1 1.1-.4-.1.2-.7.4.1z" fill="url(#d)"/><path d="m-127.6 184.9-.4-.1.2-.7.4.1zm4.4 1.2-.7-.2.2-.7.7.2zm4.5 1.3-.7-.2.2-.7.7.2c0-.1-.2.7-.2.7zm4.5 1.2-.7-.2.2-.7.7.2zm4.4 1.2-.7-.2.2-.7.7.2zm4.5 1.2-.7-.2.2-.7.7.2zm4.5 1.2-.7-.2.2-.7.7.2zm4.4 1.3-.7-.2.2-.7.7.2zm4.5 1.2-.7-.2.2-.7.7.2zm4.4 1.2-.7-.2.2-.7.7.2zm4.5 1.2-.7-.2.2-.7.7.2zm4.5 1.3-.7-.2.2-.7.7.2zm4.4 1.2-.7-.2.2-.7.7.2zm4.5 1.2-.7-.2.2-.7.7.2zm4.5 1.2-.7-.2.2-.7.7.2zm4.4 1.3-.7-.2.2-.7.7.2zm4.5 1.2-.7-.2.2-.7.7.2zm4.5 1.2-.7-.2.2-.7.7.2zm4.4 1.2-.7-.2.2-.7.7.2zm4.5 1.3-.7-.2.2-.7.7.2zm4.4 1.2-.7-.2.2-.7.7.2zm4.5 1.2-.7-.2.2-.7.7.2zm4.5 1.2-.7-.2.2-.7.7.2zm4.4 1.3-.7-.2.2-.7.7.2zm4.5 1.2-.7-.2.2-.7.7.2zm4.5 1.2-.7-.2.2-.7.7.2s-.2.7-.2.7zm4.4 1.2-.7-.2.2-.7.7.2zm4.5 1.3-.7-.2.2-.7.7.2zm4.5 1.2-.7-.2.2-.7.7.2zm4.4 1.2-.7-.2.2-.7.7.2zm4.5 1.2-.7-.2.2-.7.7.2zm4.5 1.3-.7-.2.2-.7.7.2zm4.4 1.2-.7-.2.2-.7.7.2zm4.5 1.2-.7-.2.2-.7.7.2zm4.4 1.2-.7-.2.2-.7.7.2zm4.5 1.2-.7-.2.2-.7.7.2zm4.5 1.3-.7-.2.2-.7.7.2zm4.4 1.2-.7-.2.2-.7.7.2zm4.5 1.2-.7-.2.2-.7.7.2zm4.5 1.2-.7-.2.2-.7.7.2zm4.4 1.3-.7-.2.2-.7.7.2zm4.5 1.2-.7-.2.2-.7.7.2zm4.5 1.2-.7-.2.2-.7.7.2zm4.4 1.2-.7-.2.2-.7.7.2zm4.5 1.3-.7-.2.2-.7.7.1zm4.4 1.2-.7-.2.2-.7.7.2zm4.5 1.2-.7-.2.2-.7.7.2zm4.5 1.2-.7-.2.2-.7.7.2zm4.4 1.3-.7-.2.2-.7.7.2zm4.5 1.2-.7-.2.2-.7.7.2zm4.5 1.2-.7-.2.2-.7.7.2zm4.4 1.2-.7-.2.2-.7.7.2zm4.5 1.3-.7-.2.2-.7.7.2zm4.5 1.2-.7-.2.2-.7.7.2zm4.4 1.2-.7-.2.2-.7.7.2zm4.5 1.2-.7-.2.2-.7.7.2zm4.5 1.3-.7-.2.2-.7.7.2zm4.4 1.2-.7-.2.2-.7.7.2zm4.5 1.2-.7-.2.2-.7.7.2zm4.4 1.2-.7-.2.2-.7.7.2zm4.5 1.3-.7-.2.2-.7.7.2zm4.5 1.2-.7-.2.2-.7.7.2zm4.4 1.2-.7-.2.2-.7.7.2zm4.5 1.2-.7-.2.2-.7.7.2zm4.5 1.2-.7-.2.2-.7.7.2zm4.4 1.3-.7-.2.2-.7.7.2zm4.5 1.2-.7-.2.2-.7.7.2zm4.5 1.2-.7-.2.2-.7.7.2zm4.4 1.2-.7-.2.2-.7.7.2zm4.5 1.3-.7-.2.2-.7.7.2zm4.4 1.2-.7-.2.2-.7.7.2zm4.5 1.2-.7-.2.2-.7.7.2zm4.5 1.2-.7-.2.2-.7.7.2zm4.4 1.3-.7-.2.2-.7.7.2zm4.5 1.2-.7-.2.2-.7.7.2zm4.5 1.2-.7-.2.2-.7.7.2zm4.4 1.2-.7-.2.2-.7.7.2zm4.5 1.3-.7-.2.2-.7.7.2zm4.5 1.2-.7-.2.2-.7.7.2zm4.4 1.2-.7-.2.2-.7.7.2zm4.5 1.2-.7-.2.2-.7.7.2zm4.4 1.3-.7-.2.2-.7.7.2zm4.5 1.2-.7-.2.2-.7.7.2zm4.5 1.2-.7-.2.2-.7.7.2zm4.4 1.2-.7-.2.2-.7.7.2zm4.5 1.3-.7-.2.2-.7.7.2zm4.5 1.2-.7-.2.2-.7.7.2zm4.4 1.2-.7-.2.2-.7.7.2zm4.5 1.2-.7-.2.2-.7.7.2zm4.5 1.3-.7-.2.2-.7.7.2zm4.4 1.2-.7-.2.2-.7.7.2zm4.5 1.2-.7-.2.2-.7.7.2zm4.4 1.2-.7-.2.2-.7.7.2zm4.5 1.2-.7-.2.2-.7.7.2zm4.5 1.3-.7-.2.2-.7.7.2zm4.4 1.2-.7-.2.2-.7.7.2zm4.5 1.2-.7-.2.2-.7.7.2zm4.5 1.2-.7-.2.2-.7.7.2zm4.4 1.3-.7-.2.2-.7.7.2zm4.5 1.2-.7-.2.2-.7.7.2zm4.5 1.2-.7-.2.2-.7.7.2zm4.4 1.2-.7-.2.2-.7.7.2zm4.5 1.3-.7-.2.2-.7.7.2zm4.4 1.2-.7-.2.2-.7.7.2zm4.5 1.2-.7-.2.2-.7.7.2zm4.5 1.2-.7-.2.2-.7.7.2zm4.4 1.3-.7-.2.2-.7.7.2zm4.5 1.2-.7-.2.2-.7.7.2zm4.5 1.2-.7-.2.2-.7.7.2zm4.4 1.2-.7-.2.2-.7.7.2zm4.5 1.3-.7-.2.2-.7.7.2zm4.5 1.2-.7-.2.2-.7.7.2zm4.4 1.2-.7-.2.2-.7.7.2zm4.5 1.2-.8-.2.2-.7.7.2zm4.4 1.3-.7-.2.2-.7.7.2zm4.5 1.2-.7-.2.2-.7.7.2zm4.5 1.2-.7-.2.2-.7.7.2zm4.4 1.2-.7-.2.2-.7.7.2zm4.5 1.3-.7-.2.2-.7.7.2zm4.5 1.2-.7-.2.2-.7.7.2zm4.4 1.2-.7-.2.2-.7.7.2zm4.5 1.2-.7-.2.2-.7.7.2zm4.5 1.2-.7-.2.2-.7.7.2zm4.4 1.3-.7-.2.2-.7.7.2zm4.5 1.2-.7-.2.2-.7.7.2zm4.4 1.2-.7-.2.2-.7.7.2zm4.5 1.2-.7-.2.2-.7.7.2zm4.5 1.3-.7-.2.2-.7.7.2zm4.4 1.2-.7-.2.2-.7.7.2zm4.5 1.2-.7-.2.2-.7.7.2zm4.5 1.2-.7-.2.2-.7.7.2zm4.4 1.3-.7-.2.2-.7.7.2zm4.5 1.2-.7-.2.2-.7.7.2zm4.5 1.2-.7-.2.2-.7.7.2zm4.4 1.2-.7-.2.2-.7.7.2zm4.5 1.3-.7-.2.2-.7.7.2zm4.4 1.2-.7-.2.2-.7.7.2zm4.5 1.2-.7-.2.2-.7.7.2zm4.5 1.2-.7-.2.2-.7.7.2zm4.4 1.3-.7-.2.2-.7.7.2zm4.5 1.2-.7-.2.2-.7.7.2zm4.5 1.2-.7-.2.2-.7.7.2zm4.4 1.2-.7-.2.2-.7.7.2zm4.5 1.3-.7-.2.2-.7.7.2zm4.5 1.2-.7-.2.2-.7.7.2zm4.4 1.2-.7-.2.2-.7.7.2zm4.5 1.2-.7-.2.2-.7.7.2zm4.4 1.2-.7-.2.2-.7.7.2zm4.5 1.3-.7-.2.2-.7.7.2zm4.5 1.2-.7-.2.2-.7.7.2zm4.4 1.2-.7-.2.2-.7.7.2zm4.5 1.2-.7-.2.2-.7.7.2zm4.5 1.3-.7-.2.2-.7.7.2zm4.4 1.2-.7-.2.2-.7.7.2zm4.5 1.2-.7-.2.2-.7.7.2zm4.5 1.2-.7-.2.2-.7.7.2zm4.4 1.3-.7-.2.2-.7.7.2zm4.5 1.2-.7-.2.2-.7.7.2zm4.4 1.2-.7-.2.2-.7.7.2zm4.5 1.2-.7-.2.2-.7.7.2zm4.5 1.3-.7-.2.2-.7.7.2zm4.4 1.2-.7-.2.2-.7.7.2zm4.5 1.2-.7-.2.2-.7.7.2zm4.5 1.2-.7-.2.2-.7.7.2zm4.4 1.3-.7-.2.2-.7.7.2zm4.5 1.2-.7-.2.2-.7.7.2zm4.5 1.2-.7-.2.2-.7.7.2zm4.4 1.2-.7-.2.2-.7.7.2zm4.5 1.3-.7-.2.2-.7.7.2zm4.4 1.2-.7-.2.2-.7.7.2zm4.5 1.2-.7-.2.2-.7.7.2zm4.5 1.2-.7-.2.2-.7.7.2zm4.4 1.3-.7-.2.2-.7.7.2zm4.5 1.2-.7-.2.2-.7.7.2zm4.5 1.2-.7-.2.2-.7.7.2zm4.4 1.2-.7-.2.2-.7.7.2zm4.5 1.2-.7-.2.2-.7.7.2zm4.5 1.3-.7-.2.2-.7.7.2zm4.4 1.2-.7-.2.2-.7.7.2zm4.5 1.2-.7-.2.2-.7.7.2zm4.4 1.2-.7-.2.2-.7.7.2zm4.5 1.3-.7-.2.2-.7.7.2zm4.5 1.2-.7-.2.2-.7.7.2zm4.4 1.2-.7-.2.2-.7.7.2zm4.5 1.2-.7-.2.2-.7.7.2zm4.5 1.3-.7-.2.2-.7.7.2zm4.4 1.2-.7-.2.2-.7.7.2zm4.5 1.2-.7-.2.2-.7.7.2zm4.5 1.2-.7-.2.2-.7.7.2zm4.4 1.3-.7-.2.2-.7.7.2zm4.5 1.2-.7-.2.2-.7.7.2zm4.4 1.2-.7-.2.2-.7.7.2zm4.5 1.2-.7-.2.2-.7.7.2zm4.5 1.3-.7-.2.2-.7.7.2zm4.4 1.2-.7-.2.2-.7.7.2zm4.5 1.2-.7-.2.2-.7.7.2zm4.5 1.2-.7-.2.2-.7.7.2zm4.4 1.3-.7-.2.2-.7.7.2zm4.5 1.2-.7-.2.2-.7.7.2zm4.5 1.2-.7-.2.2-.7.7.2zm4.4 1.2-.7-.2.2-.7.7.2zm4.5 1.3-.7-.2.2-.7.7.2zm4.4 1.2-.7-.2.2-.7.7.2zm4.5 1.2-.7-.2.2-.7.7.2zm4.5 1.2-.7-.2.2-.7.7.2zm4.4 1.2-.7-.2.2-.7.7.2zm4.5 1.3-.7-.2.2-.7.7.2zm4.5 1.2-.7-.2.2-.7.7.2zm4.4 1.2-.7-.2.2-.7.7.2zm4.5 1.2-.7-.2.2-.7.7.2zm4.5 1.3-.7-.2.2-.7.7.2zm4.4 1.2-.7-.2.2-.7.7.2zm4.5 1.2-.7-.2.2-.7.7.2zm4.4 1.2-.7-.2.2-.7.7.2zm4.5 1.3-.7-.2.2-.7.7.2zm4.5 1.2-.7-.2.2-.7.7.2zm4.4 1.2-.7-.2.2-.7.7.2zm4.5 1.2-.7-.2.2-.7.7.2zm4.5 1.3-.7-.2.2-.7.7.2zm4.4 1.2-.7-.2.2-.7.7.2zm4.5 1.2-.7-.2.2-.7.7.2zm4.5 1.2-.7-.2.2-.7.7.2zm4.4 1.3-.7-.2.2-.7.7.2zm4.5 1.2-.7-.2.2-.7.7.2zm4.4 1.2-.7-.2.2-.7.7.2zm4.5 1.2-.7-.2.2-.7.7.2zm4.5 1.3-.7-.2.2-.7.7.2zm4.4 1.2-.7-.2.2-.7.7.2zm4.5 1.2-.7-.2.2-.7.7.2zm4.5 1.2-.7-.2.2-.7.7.2zm4.4 1.2-.7-.2.2-.7.7.2zm4.5 1.3-.7-.2.2-.7.7.2zm4.5 1.2-.7-.2.2-.7.7.2zm4.4 1.2-.7-.2.2-.7.7.2zm4.5 1.2-.7-.2.2-.7.7.2zm4.4 1.3-.7-.2.2-.7.7.2zm4.5 1.2-.7-.2.2-.7.7.2zm4.5 1.2-.7-.2.2-.7.7.2zm4.4 1.2-.7-.2.2-.7.7.2zm4.1 1.2-.4-.1.2-.7.4.1z" fill="url(#e)"/><path d="m-85.9 35.9-.4-.1.1-.8.4.1zm4.6.7-.8-.1.1-.8.8.1zm4.6.7-.8-.1.1-.8.8.1zm4.6.7-.8-.1.1-.8.8.1zm4.5.7-.8-.1.1-.8.8.1zm4.6.7-.8-.1.1-.8.8.1zm4.6.7-.8-.1.1-.8.8.1zm4.6.7-.8-.1.1-.8.8.1zm4.6.7-.8-.1.1-.8.8.1zm4.5.6-.8-.1.1-.8.8.1zm4.6.7-.8-.1.1-.8.8.1zm4.6.7-.8-.1.1-.8.8.1zm4.6.7-.8-.1.1-.8.8.1zm4.6.7-.8-.1.1-.8.8.1zm4.5.7-.8-.1.1-.8.8.1zm4.6.7-.8-.1.1-.8.8.1zm4.6.7-.8-.1.1-.8.8.1c0 .1-.1.8-.1.8zm4.6.7-.8-.1.1-.8.8.1zm4.6.7-.8-.1.1-.8.8.1s-.1.8-.1.8zm4.5.7-.7-.1.1-.8.8.1zm4.6.7-.7-.1.1-.8.7.1zm4.6.7-.8-.1.1-.8.8.1s-.1.8-.1.8zm4.6.7-.8-.1.1-.8.8.1zm4.6.7-.8-.1.1-.8.8.1zm4.6.7-.8-.1.1-.8.8.1zm4.5.7-.8-.1.1-.8.8.1zm4.6.7-.8-.1.1-.8.8.1zm4.6.7-.8-.1.1-.8.8.1zm4.6.7-.8-.1.1-.8.8.1zm4.6.7-.8-.1.1-.8.8.1zm4.5.7-.8-.1.1-.8.8.1zm4.6.7-.8-.1.1-.8.8.1zm4.6.7-.8-.2.1-.8.8.1zm4.6.7-.8-.1.1-.8.8.1zm4.6.6-.8-.1.1-.8.8.1zm4.5.7-.8-.1.1-.8.8.1zm4.6.7-.8-.1.1-.8.8.1zm4.6.7-.8-.1.1-.8.8.1zm4.6.7-.8-.1.1-.8.8.1zm4.6.7-.8-.1.1-.8.8.1zm4.6.7-.8-.1.1-.8.8.1zm4.5.7-.8-.1.1-.8.8.1zm4.6.7-.8-.1.1-.8.8.1zm4.6.7-.8-.1.1-.8.8.1zm4.6.7-.8-.1.1-.8.8.1zm4.6.7-.8-.1.1-.8.8.1zm4.5.7-.8-.1.1-.8.8.1zm4.6.7-.8-.1.1-.8.8.1zm4.6.7-.8-.1.1-.8.8.1zm4.6.7-.8-.1.1-.8.8.1zm4.6.7-.8-.1.1-.8.8.1zm4.5.7-.8-.1.1-.8.8.1zm4.6.7-.8-.1.1-.8.8.1zm4.6.7-.8-.1.1-.8.8.1zm4.6.7-.8-.1.1-.8.8.1zm4.6.7-.8-.1.1-.8.8.1zm4.5.7-.8-.1.2-.8.8.1zm4.6.7-.8-.1.1-.8.8.1zm4.6.6-.8-.1.1-.8.8.1zm4.6.7-.8-.1.1-.8.8.1zm4.6.7-.8-.1.1-.8.8.1zm4.5.7-.8-.1.1-.8.8.1zm4.6.7-.8-.1.1-.8.8.1zm4.6.7-.8-.1.1-.8.8.1zm4.6.7-.8-.1.1-.8.8.1zm4.6.7-.8-.1.1-.8.8.1zm4.5.7-.8-.1.1-.8.8.1zm4.6.7-.8-.1.1-.8.8.1zm4.6.7-.8-.1.1-.8.8.1zm4.6.7-.8-.1.1-.8.8.1zm4.6.7-.8-.1.1-.8.8.1zm4.6.7-.8-.1.1-.8.8.1zm4.5.7-.8-.1.1-.8.8.1zm4.6.7-.8-.1.1-.8.8.1zm4.6.7-.8-.1.1-.8.8.1zm4.6.7-.8-.1.1-.8.8.1zm4.6.7-.8-.1.1-.8.8.1zm4.5.7-.8-.1.1-.8.8.1zm4.6.7-.8-.1.1-.8.8.1zm4.6.7-.8-.1.1-.8.8.1zm4.6.7-.8-.1.1-.8.8.1zm4.6.7-.8-.1.1-.8.8.1zm4.5.7-.8-.1.1-.8.8.1zm4.6.6-.8-.1.1-.8.8.1zm4.6.7-.8-.1.1-.8.8.1zm4.6.7-.8-.1.1-.8.8.1zm4.6.7-.8-.1.1-.8.8.1zm4.5.7-.8-.1.1-.8.8.1zm4.6.7-.8-.1.1-.8.8.1zm4.6.7-.8-.1.1-.8.8.1zm4.6.7-.8-.1.1-.8.8.1zm4.6.7-.8-.1.1-.8.8.1zm4.5.7-.8-.1.1-.8.8.1zm4.6.7-.8-.1.1-.8.8.1zm4.6.7-.8-.1.1-.8.8.1zm4.6.7-.8-.1.1-.8.8.1zm4.6.7-.8-.1.1-.8.8.1zm4.5.7-.8-.1.1-.8.8.1zm4.6.7-.8-.1.1-.8.8.1zm4.6.7-.8-.1.1-.8.8.1zm4.6.7-.8-.1.1-.8.8.1zm4.6.7-.8-.1.1-.8.8.1zm4.6.7-.8-.1.1-.8.8.1zm4.5.7-.8-.1.1-.8.8.1zm4.6.7-.8-.1.1-.8.8.1zm4.6.7-.8-.1.1-.8.8.1zm4.6.7-.8-.1.1-.8.8.1zm4.6.6-.8-.1.1-.8.8.1zm4.5.7-.8-.1.1-.8.8.1zm4.6.7-.8-.1.1-.8.8.1zm4.6.7-.8-.1.1-.8.8.1zm4.6.7-.8-.1.1-.8.8.1zm4.6.7-.8-.1.1-.8.8.1zm4.5.7-.8-.1.1-.8.8.1zm4.6.7-.8-.1.1-.8.8.1zm4.6.7-.8-.1.1-.8.8.1zm4.6.7-.8-.1.1-.8.8.1zm4.6.7-.8-.1.1-.8.8.1zm4.5.7-.8-.1.1-.8.8.1zm4.6.7-.8-.1.1-.8.8.1zm4.6.7-.8-.1.1-.8.8.1zm4.6.7-.8-.1.1-.8.8.1zm4.6.7-.8-.1.1-.8.8.1zm4.5.7-.8-.1.1-.8.8.1zm4.6.7-.8-.1.1-.8.8.1zm4.6.7-.8-.1.1-.8.8.1zm4.6.7-.8-.1.1-.8.8.1zm4.6.7-.8-.1.1-.8.8.1zm4.6.7-.8-.1.1-.8.8.1zm4.5.6-.8-.1.1-.8.8.1zm4.6.7-.8-.1.1-.8.8.1zm4.6.7-.8-.1.1-.8.8.1zm4.6.7-.8-.1.1-.8.8.1zm4.6.7-.8-.1.1-.8.8.1zm4.5.7-.8-.1.1-.8.8.1zm4.6.7-.8-.1.1-.8.8.1zm4.6.7-.8-.1.1-.8.8.1zm4.6.7-.8-.1.1-.8.8.1zm4.6.7-.8-.1.1-.8.8.1zm4.5.7-.8-.1.1-.8.8.1zm4.6.7-.8-.1.1-.8.8.1zm4.6.7-.8-.1.1-.8.8.1zm4.6.7-.8-.1.1-.8.8.1zm4.6.7-.8-.1.1-.8.8.1zm4.5.7-.7-.1.1-.8.8.1zm4.6.7-.8-.1.1-.8.8.1zm4.6.7-.8-.1.1-.8.8.1zm4.6.7-.8-.1.1-.8.8.1zm4.6.7-.8-.1.1-.8.8.1zm4.5.7-.8-.1.1-.8.8.1zm4.6.7-.8-.1.1-.8.8.1zm4.6.7-.8-.1.1-.8.8.1zm4.6.6-.8-.1.1-.8.8.1zm4.6.7-.8-.1.1-.8.8.1zm4.6.7-.8-.1.1-.8.8.1zm4.5.7-.8-.1.1-.8.8.1zm4.6.7-.8-.1.1-.8.8.1zm4.6.7-.8-.1.1-.8.8.1zm4.6.7-.8-.1.1-.8.8.1zm4.6.7-.8-.1.1-.8.8.1zm4.5.7-.8-.1.1-.8.8.1zm4.6.7-.8-.1.1-.8.8.1zm4.6.7-.8-.1.1-.8.8.1zm4.6.7-.8-.1.1-.8.8.1zm4.6.7-.8-.1.1-.8.8.1zm4.5.7-.8-.1.1-.8.8.1zm4.6.7-.8-.1.1-.8.8.1zm4.6.7-.8-.1.1-.8.8.1zm4.6.7-.8-.1.1-.8.8.1zm4.6.7-.8-.1.1-.8.8.1zm4.5.7-.8-.1.1-.8.8.1zm4.6.7-.8-.1.1-.8.8.1zm4.6.7-.8-.1.1-.8.8.1zm4.6.7-.8-.1.1-.8.8.1zm4.6.7-.8-.1.1-.8.8.1zm4.5.6-.8-.1.1-.8.8.1zm4.6.7-.8-.1.1-.8.8.1zm4.6.7-.8-.1.1-.8.8.1zm4.6.7-.8-.1.1-.8.8.1zm4.6.7-.8-.1.1-.8.8.1zm4.6.7-.8-.1.1-.8.8.1zm4.5.7-.8-.1.1-.8.8.1zm4.6.7-.8-.1.1-.8.8.1zm4.6.7-.8-.1.1-.8.8.1zm4.6.7-.8-.1.1-.8.8.1zm4.6.7-.8-.1.1-.8.8.1zm4.5.7-.8-.1.1-.8.8.1zm4.6.7-.8-.1.1-.8.8.1zm4.6.7-.8-.1.1-.8.8.1zm4.6.7-.8-.1.1-.8.8.1zm4.6.7-.8-.1.1-.8.8.1zm4.5.7-.8-.1.1-.8.8.1zm4.6.7-.8-.1.1-.8.8.1zm4.6.7-.8-.1.1-.8.8.1zm4.6.7-.8-.1.1-.8.8.1zm4.6.7-.8-.1.1-.8.8.1zm4.5.7-.8-.1.1-.8.8.1zm4.6.7-.8-.1.1-.8.8.1zm4.6.6-.8-.1.1-.8.8.1zm4.6.7-.8-.1.1-.8.8.1zm4.6.7-.8-.1.1-.8.8.1zm4.5.7-.8-.1.1-.8.8.1zm4.6.7-.8-.1.1-.8.8.1zm4.6.7-.8-.1.1-.8.8.1zm4.6.7-.8-.1.1-.8.8.1zm4.6.7-.8-.1.1-.8.8.1zm4.5.7-.8-.1.1-.8.8.1zm4.6.7-.8-.1.1-.8.8.1zm4.6.7-.8-.1.1-.8.8.1zm4.6.7-.8-.1.1-.8.8.1zm4.6.7-.8-.1.1-.8.8.1zm4.6.7-.8-.1.1-.8.8.1zm4.5.7-.8-.1.1-.8.8.1zm4.6.7-.8-.1.1-.8.8.1zm4.6.7-.8-.1.1-.8.8.1zm4.6.7-.8-.1.1-.8.8.1zm4.6.7-.8-.1.1-.8.8.1zm4.5.7-.8-.1.1-.8.8.1zm4.6.7-.8-.1.1-.8.8.1zm4.6.7-.8-.1.1-.8.8.1zm4.6.6-.8-.1.1-.8.8.1zm4.6.7-.8-.1.1-.8.8.1zm4.5.7-.8-.1.1-.8.8.1zm4.6.7-.8-.1.1-.8.8.1zm4.6.7-.8-.1.1-.8.8.1zm4.6.7-.8-.1.1-.8.8.1zm4.6.7-.8-.1.1-.8.8.1zm4.5.7-.8-.1.1-.8.8.1zm4.6.7-.8-.1.1-.8.8.1zm4.6.7-.8-.1.1-.8.8.1zm4.6.7-.8-.1.1-.8.8.1zm4.6.7-.8-.1.1-.8.8.1zm4.5.7-.8-.1.1-.8.8.1zm4.6.7-.8-.1.1-.8.8.1zm4.6.7-.8-.1.1-.8.8.1zm4.6.7-.8-.1.1-.8.8.1zm4.6.7-.8-.1.1-.8.8.1zm4.6.7-.8-.1.1-.8.8.1zm4.5.7-.8-.1.1-.8.8.1zm4.6.7-.8-.1.1-.8.8.1zm4.6.7-.8-.1.1-.8.8.1zm4.6.7-.8-.1.1-.8.8.1zm4.6.7-.8-.1.1-.8.8.1zm4.5.6-.8-.1.1-.8.8.1zm4.6.7-.8-.1.1-.8.8.1zm4.6.7-.8-.1.1-.8.8.1zm4.6.7-.8-.1.1-.8.8.1zm4.6.7-.8-.1.1-.8.8.1zm4.5.7-.8-.1.1-.8.8.1zm4.6.7-.8-.1.1-.8.8.1zm4.6.7-.8-.1.1-.8.8.1zm4.6.7-.8-.1.1-.8.8.1zm4.6.7-.8-.1.1-.8.8.1zm4.5.7-.8-.1.1-.8.8.1zm4.6.7-.8-.1.1-.8.8.1zm4.6.7-.8-.1.1-.8.8.1zm4.6.7-.8-.1.1-.8.8.1zm4.6.7-.8-.1.1-.8.8.1zm4.5.7-.8-.1.1-.8.8.1zm4.6.7-.8-.1.1-.8.8.1zm4.6.7-.8-.1.1-.8.8.1zm4.6.7-.8-.1.1-.8.8.1zm4.6.7-.8-.1.1-.8.8.1zm4.5.7-.8-.1.1-.8.8.1zm4.6.7-.8-.1.1-.8.8.1zm4.6.7-.8-.1.1-.8.8.1zm4.6.6-.8-.1.1-.8.8.1zm4.6.7-.8-.1.1-.8.8.1zm4.5.7-.8-.1.1-.8.8.1zm4.6.7-.8-.1.1-.8.8.1zm4.6.7-.8-.1.1-.8.8.1zm4.6.7-.8-.1.1-.8.8.1zm4.6.7-.8-.1.1-.8.8.1zm4.2.7-.4-.1.1-.8.4.1z" fill="url(#g)"/><path d="m-97.5-10.4h-.4l.1-.8h.4zm4.6.5-.8-.1.1-.8.8.1zm4.6.6-.7-.1.1-.8.8.1zm4.6.5-.8-.1.1-.8.8.1zm4.6.6-.8-.1.1-.8.8.1zm4.6.6-.8-.1.1-.8.8.1zm4.6.5-.8-.1.1-.8.8.1zm4.6.6-.8-.1.1-.8.8.1zm4.6.5-.8-.1.1-.8.8.1zm4.6.6-.8-.1.1-.8.8.1zm4.5.6-.8-.1.1-.8.8.1zm4.6.5-.8-.1.1-.8.8.1zm4.6.6-.8-.1.1-.8.8.1s-.1.8-.1.8zm4.6.5-.8-.1.1-.8.8.1c0 .1-.1.8-.1.8zm4.6.6-.8-.1.1-.8.8.1zm4.6.5-.8-.1.1-.8.8.1zm4.6.6-.8-.1.1-.8.8.1zm4.6.6-.8-.1.1-.8.8.1s-.1.8-.1.8zm4.6.5-.8-.1.1-.8.8.1c0 .1-.1.8-.1.8zm4.6.6-.8-.1.1-.8.8.1zm4.5.5-.8-.1.1-.8.8.2zm4.6.6-.8-.1.1-.8.8.1zm4.6.6-.7-.1.1-.8.8.1zm4.6.5-.8-.1.1-.8.8.1zm4.6.6-.8-.1.1-.8.8.1zm4.6.5-.8-.1.1-.8.8.1zm4.6.6-.8-.1.1-.8.8.1zm4.6.6-.8-.1.1-.8.8.1zm4.6.5-.8-.1.1-.8.8.1zm4.6.6-.8-.1.1-.8.7.1zm4.5.5-.8-.1.1-.8.8.1zm4.6.6-.8-.1.2-.8.8.1zm4.6.5-.8-.1.1-.8.8.1zm4.6.6-.8-.1.1-.8.8.1zm4.6.6-.8-.1.1-.8.8.1zm4.6.5-.8-.1.1-.8.8.1zm4.6.6-.8-.1.1-.8.8.1zm4.6.5-.8-.1.1-.8.8.1zm4.6.6-.8-.1.1-.8.8.1zm4.6.6-.8-.1.1-.8.8.1zm4.5.5-.8-.1.1-.8.8.1zm4.6.6-.7-.1.1-.8.8.1zm4.6.5-.8-.1.1-.8.8.1zm4.6.6-.8-.1.1-.8.8.1zm4.6.6-.8-.1.1-.8.8.1zm4.6.5-.8-.1.1-.8.8.1zm4.6.6-.8-.1.1-.8.8.1zm4.6.5-.8-.1.1-.8.8.1zm4.6.6-.8-.1.1-.8.8.1zm4.6.6-.8-.1.1-.8.8.1zm4.5.5-.8-.1.1-.8.8.1zm4.6.6-.8-.1.1-.8.8.1zm4.6.5-.8-.1.1-.8.8.1zm4.6.6-.8-.1.1-.8.8.1zm4.6.5-.8-.1.1-.8.8.1zm4.6.6-.8-.1.1-.8.8.1zm4.6.6-.8-.1.1-.8.8.1zm4.6.5-.8-.1.1-.8.8.1zm4.6.6-.8-.1.1-.8.8.1zm4.5.5-.8-.1.1-.8.8.1zm4.6.6-.8-.1.1-.8.8.1zm4.6.6-.8-.1.1-.8.8.1zm4.6.5-.8-.1.1-.8.8.1zm4.6.6-.8-.1.1-.8.8.1zm4.6.5-.8-.1.1-.8.8.1zm4.6.6-.8-.1.1-.8.8.1zm4.6.6-.8-.1.1-.8.8.1zm4.6.5-.8-.1.1-.8.8.1zm4.6.6-.8-.1.1-.8.8.1zm4.5.5-.8-.1.1-.8.8.1zm4.6.6-.8-.1.1-.8.8.1zm4.6.6-.8-.1.1-.8.8.1zm4.6.5-.8-.1.1-.8.8.1zm4.6.6-.8-.1.1-.8.8.1zm4.6.5-.8-.1.1-.8.8.1zm4.6.6-.8-.1.1-.8.8.1zm4.6.5-.8-.1.1-.8.8.1zm4.6.6-.8-.1.1-.8.8.1zm4.5.6-.8-.1.1-.8.8.1zm4.6.5-.8-.1.1-.8.8.1zm4.6.6-.8-.1.1-.8.8.1zm4.6.5-.8-.1.1-.8.8.1zm4.6.6-.8-.1.1-.8.8.1zm4.6.6-.8-.1.1-.8.8.1zm4.6.5-.8-.1.1-.8.8.1zm4.6.6-.8-.1.1-.8.8.1zm4.6.5-.8-.1.1-.8.8.1zm4.6.6-.8-.1.1-.8.8.1zm4.5.6-.8-.1.1-.8.8.1zm4.6.5-.8-.1.1-.8.8.1zm4.6.6-.8-.1.2-.8.8.1zm4.6.5-.8-.1.1-.8.8.1zm4.6.6-.8-.1.1-.8.8.1zm4.6.5-.8-.1.1-.8.8.1zm4.6.6-.8-.1.1-.8.8.1zm4.6.6-.8-.1.1-.8.8.1zm4.6.5-.8-.1.1-.8.8.1zm4.6.6-.8-.1.1-.8.8.1zm4.5.5-.8-.1.1-.8.8.1zm4.6.6-.8-.1.1-.8.8.1zm4.6.6-.8-.1.1-.8.8.1zm4.6.5-.8-.1.1-.8.8.1zm4.6.6-.8-.1.1-.8.8.1zm4.6.5-.8-.1.1-.8.8.1zm4.6.6-.8-.1.1-.8.8.1zm4.6.6-.8-.1.1-.8.8.1zm4.6.5-.8-.1.1-.8.8.1zm4.6.6-.8-.1.1-.8.8.1zm4.5.5-.8-.1.1-.8.8.1zm4.6.6-.8-.1.1-.8.8.1zm4.6.6-.8-.1.1-.8.8.1zm4.6.5-.8-.1.1-.8.8.1zm4.6.6-.8-.1.1-.8.8.1zm4.6.5-.8-.1.1-.8.8.1zm4.6.6-.8-.1.1-.8.8.1zm4.6.5-.8-.1.1-.8.8.1zm4.6.6-.8-.1.1-.8.8.1zm4.5.6-.8-.1.1-.8.8.1zm4.6.5-.8-.1.1-.8.8.1zm4.6.6-.7-.1.1-.8.8.1zm4.6.5-.8-.1.1-.8.8.1zm4.6.6-.8-.1.1-.8.8.1zm4.6.6-.8-.1.1-.8.8.1zm4.6.5-.8-.1.1-.8.8.1zm4.6.6-.8-.1.1-.8.8.1zm4.6.5-.8-.1.1-.8.8.1zm4.6.6-.8-.1.1-.8.8.1zm4.5.6-.8-.1.1-.8.8.1zm4.6.5-.8-.1.1-.8.8.1zm4.6.6-.8-.1.1-.8.8.1zm4.6.5-.8-.1.1-.8.8.1zm4.6.6-.8-.1.1-.8.8.1zm4.6.5-.8-.1.1-.8.8.1zm4.6.6-.8-.1.1-.8.8.1zm4.6.6-.8-.1.1-.8.8.1zm4.6.5-.8-.1.1-.8.8.1zm4.6.6-.8-.1.1-.8.8.1zm4.5.5-.8-.1.1-.8.8.1zm4.6.6-.8-.1.1-.8.8.1zm4.6.6-.8-.1.1-.8.8.1zm4.6.5-.8-.1.1-.8.8.1zm4.6.6-.8-.1.1-.8.8.1zm4.6.5-.8-.1.1-.8.8.1zm4.6.6-.8-.1.1-.8.8.1zm4.6.6-.8-.1.1-.8.8.1zm4.6.5-.8-.1.1-.8.8.1zm4.5.6-.8-.1.1-.8.8.1zm4.6.5-.8-.1.1-.8.8.1zm4.6.6-.8-.1.1-.8.8.1zm4.6.6-.8-.1.1-.8.8.1zm4.6.5-.8-.1.1-.8.8.1zm4.6.6-.8-.1.1-.8.8.1zm4.6.5-.8-.1.1-.8.8.1zm4.6.6-.8-.1.1-.8.8.1zm4.6.5-.8-.1.1-.8.8.1zm4.6.6-.8-.1.1-.8.8.1zm4.5.6-.8-.1.1-.8.8.1zm4.6.5-.8-.1.1-.8.8.1zm4.6.6-.8-.1.1-.8.8.1zm4.6.5-.8-.1.1-.8.8.1zm4.6.6-.8-.1.1-.8.8.1zm4.6.6-.8-.1.1-.8.8.1zm4.6.5-.8-.1.1-.8.8.1zm4.6.6-.8-.1.1-.8.8.1zm4.6.5-.8-.1.1-.8.8.1zm4.6.6-.8-.1.1-.8.8.1zm4.5.6-.8-.1.1-.8.8.1zm4.6.5-.8-.1.1-.8.8.1zm4.6.6-.8-.1.1-.8.8.1zm4.6.5-.8-.1.1-.8.8.1zm4.6.6-.8-.1.1-.8.8.1zm4.6.5-.8-.1.1-.8.8.1zm4.6.6-.8-.1.1-.8.8.1zm4.6.6-.8-.1.1-.8.8.1zm4.6.5-.8-.1.1-.8.8.1zm4.5.6-.8-.1.1-.8.8.1zm4.6.5-.8-.1.1-.8.8.1zm4.6.6-.8-.1.1-.8.8.1zm4.6.6-.8-.1.1-.8.8.1zm4.6.5-.8-.1.1-.8.8.1zm4.6.6-.8-.1.1-.8.8.1zm4.6.5-.8-.1.1-.8.8.1zm4.6.6-.8-.1.1-.8.8.1zm4.6.6-.8-.1.1-.8.8.1zm4.6.5-.8-.1.1-.8.8.1zm4.5.6-.8-.1.1-.8.8.1zm4.6.5-.8-.1.1-.8.8.1zm4.6.6-.8-.1.1-.8.8.1zm4.6.6-.8-.1.1-.8.8.1zm4.6.5-.8-.1.1-.8.8.1zm4.6.6-.8-.1.1-.8.8.1zm4.6.5-.8-.1.1-.8.8.1zm4.6.6-.8-.1.1-.8.8.1zm4.6.5-.8-.1.1-.8.8.1zm4.6.6-.8-.1.1-.8.8.1zm4.5.6-.8-.1.1-.8.8.1zm4.6.5-.8-.1.1-.8.8.1zm4.6.6-.8-.1.1-.8.8.1zm4.6.5-.8-.1.1-.8.8.1zm4.6.6-.8-.1.1-.8.8.1zm4.6.6-.8-.1.1-.8.8.1zm4.6.5-.8-.1.1-.8.8.1zm4.6.6-.8-.1.1-.8.8.1zm4.6.5-.8-.1.1-.8.8.1zm4.5.6-.8-.1.1-.8.8.1zm4.6.6-.8-.1.1-.8.8.1zm4.6.5-.8-.1.1-.8.8.1zm4.6.6-.8-.1.1-.8.8.1zm4.6.5-.8-.1.1-.8.8.1zm4.6.6-.8-.1.1-.8.8.1zm4.6.6-.8-.1.1-.8.8.1zm4.6.5-.8-.1.1-.8.8.1zm4.6.6-.8-.1.1-.8.8.1zm4.6.5-.8-.1.1-.8.8.1zm4.5.6-.8-.1.1-.8.8.1zm4.6.6-.8-.1.1-.8.8.1zm4.6.5-.8-.1.1-.8.8.1zm4.6.6-.8-.1.1-.8.8.1zm4.6.5-.8-.1.1-.8.8.1zm4.6.6-.8-.1.1-.8.8.1zm4.6.5-.8-.1.1-.8.8.1zm4.6.6-.8-.1.1-.8.8.1zm4.6.6-.8-.1.1-.8.8.1zm4.6.5-.8-.1.1-.8.8.1zm4.5.6-.8-.1.1-.8.8.1zm4.6.5-.8-.1.1-.8.8.1zm4.6.6-.8-.1.1-.8.8.1zm4.6.6-.8-.1.1-.8.8.1zm4.6.5-.8-.1.1-.8.8.1zm4.6.6-.8-.1.1-.8.8.1zm4.6.5-.8-.1.1-.8.8.1zm4.6.6-.8-.1.1-.8.8.1zm4.6.6-.8-.1.1-.8.8.1zm4.5.5-.8-.1.1-.8.8.1zm4.6.6-.8-.1.1-.8.8.1zm4.6.5-.8-.1.1-.8.8.1zm4.6.6-.8-.1.1-.8.8.1zm4.6.6-.8-.1.1-.8.8.1zm4.6.5-.8-.1.1-.8.8.1zm4.6.6-.8-.1.1-.8.8.1zm4.6.5-.8-.1.1-.8.8.1zm4.6.6-.8-.1.1-.8.8.1zm4.6.6-.8-.1.1-.8.8.1zm4.5.5-.8-.1.1-.8.8.1zm4.6.6-.8-.1.1-.8.8.1zm4.6.5-.8-.1.1-.8.8.1zm4.6.6-.8-.1.1-.8.8.1zm4.6.6-.8-.1.1-.8.8.1zm4.6.5-.8-.1.1-.8.8.1zm4.6.6-.8-.1.1-.8.8.1zm4.6.5-.8-.1.1-.8.8.1zm4.6.6-.8-.1.1-.8.8.1zm4.6.5-.8-.1.1-.8.8.1zm4.5.6-.8-.1.1-.8.8.1zm4.6.6-.8-.1.1-.8.8.1zm4.6.5-.8-.1.1-.8.8.1zm4.6.6-.8-.1.1-.8.8.1zm4.6.5-.8-.1.1-.8.8.1zm4.6.6-.8-.1.1-.8.8.1zm4.6.6-.8-.1.1-.8.8.1zm4.6.5-.8-.1.1-.8.8.1zm4.6.6-.8-.1.1-.8.8.1zm4.5.5-.8-.1.1-.8.8.1zm4.6.6-.8-.1.1-.8.8.1zm4.6.6-.8-.1.1-.8.8.1zm4.6.5-.8-.1.1-.8.8.1zm4.6.6-.8-.1.1-.8.8.1zm4.6.5-.8-.1.1-.8.8.1zm4.6.6-.8-.1.1-.8.8.1zm4.6.6-.8-.1.1-.8.8.1zm4.6.5-.8-.1.1-.8.8.1zm4.6.6-.8-.1.1-.8.8.1zm4.5.5-.8-.1.1-.8.8.1zm4.6.6-.8-.1.1-.8.8.1zm4.6.6-.8-.1.1-.8.8.1zm4.6.5-.8-.1.1-.8.8.1zm4.2.5h-.4l.1-.8h.4z" fill="url(#h)"/><path d="m1112 55.9-.3.2-.3-.7.3-.2zm-3.8 1.9-.7.4-.4-.7.7-.4zm-4.1 2.1-.7.4-.4-.7.7-.4zm-4.1 2.1-.7.4-.4-.7.7-.4zm-4.1 2.1-.7.4-.4-.7.7-.4zm-4.1 2.1-.7.4-.4-.7.7-.4zm-4.1 2.2-.7.4-.3-.7.7-.4zm-4.1 2.1-.7.4-.3-.7.7-.4zm-4.1 2.1-.7.4-.3-.7.7-.4zm-4.1 2.1-.7.4-.3-.7.7-.4zm-4.1 2.1-.7.4-.3-.7.7-.4zm-4.1 2.1-.7.4-.3-.7.7-.4zm-4.2 2.1-.7.4-.3-.7.7-.4zm-4.1 2.1-.7.4-.3-.7.7-.4zm-4.1 2.2-.7.4-.3-.7.7-.4zm-4.1 2.1-.7.4-.3-.7.7-.4zm-4.1 2.1-.7.4-.4-.7.7-.4zm-4.1 2.1-.7.4-.4-.7.7-.4zm-4.1 2.1-.7.4-.4-.7.7-.4zm-4.1 2.1-.7.4-.4-.7.7-.4zm-4.1 2.1-.7.4-.3-.7.7-.4zm-4.1 2.1-.7.4-.3-.7.7-.4zm-4.2 2.1-.7.4-.3-.7.7-.4zm-4.1 2.2-.7.4-.3-.7.7-.4zm-4.1 2.1-.7.4-.3-.7.7-.4zm-4.1 2.1-.7.4-.3-.7.7-.4zm-4.1 2.1-.7.4-.3-.7.7-.4zm-4.1 2.1-.7.4-.3-.7.7-.4zm-4.1 2.1-.7.4-.4-.7.7-.4zm-4.1 2.1-.7.4-.4-.7.7-.4zm-4.1 2.1-.7.4-.4-.7.7-.4zm-4.1 2.2-.7.4-.4-.7.7-.4zm-4.1 2.1-.7.4-.4-.7.7-.4zm-4.2 2.1-.7.4-.4-.7.7-.4zm-4.1 2.1-.7.4-.4-.7.7-.4zm-4.1 2.1-.7.4-.4-.7.7-.4zm-4.1 2.1-.7.4-.4-.7.7-.4zm-4.1 2.1-.7.4-.4-.7.7-.4zm-4.1 2.1-.7.4-.4-.7.7-.4zm-4.1 2.2-.7.4-.4-.7.7-.4zm-4.1 2.1-.7.4-.4-.7.7-.4zm-4.1 2.1-.7.4-.4-.7.7-.4zm-4.1 2.1-.7.4-.4-.7.7-.4zm-4.2 2.1-.7.4-.4-.7.7-.4zm-4.1 2.1-.7.4-.4-.7.7-.4zm-4.1 2.1-.7.4-.4-.7.7-.4zm-4.1 2.1-.7.4-.4-.7.7-.4zm-4.1 2.2-.7.4-.4-.7.7-.4zm-4.1 2.1-.7.4-.4-.7.7-.4zm-4.1 2.1-.7.4-.4-.7.7-.4zm-4.1 2.1-.7.4-.4-.7.7-.4zm-4.1 2.1-.7.4-.4-.7.7-.4zm-4.1 2.1-.7.4-.4-.7.7-.4zm-4.1 2.1-.7.4-.4-.7.7-.4zm-4.2 2.1-.7.4-.4-.7.7-.4zm-4.1 2.2-.7.4-.4-.7.7-.4zm-4.1 2.1-.7.4-.4-.7.7-.4zm-4.1 2.1-.7.4-.4-.7.7-.4zm-4.1 2.1-.7.4-.4-.7.7-.4zm-4.1 2.1-.7.4-.4-.7.7-.4zm-4.1 2.1-.7.4-.4-.7.7-.4zm-4.1 2.1-.7.4-.4-.7.7-.4zm-4.1 2.1-.7.4-.4-.7.7-.4zm-4.1 2.2-.7.4-.4-.7.7-.4zm-4.1 2.1-.7.4-.4-.7.7-.4zm-4.2 2.1-.7.4-.4-.7.7-.4zm-4.1 2.1-.7.4-.4-.7.7-.4zm-4.1 2.1-.7.4-.4-.7.7-.4zm-4.1 2.1-.7.4-.4-.7.7-.4zm-4.1 2.1-.7.4-.4-.7.7-.4zm-4.1 2.1-.7.4-.4-.7.7-.4zm-4.1 2.2-.7.4-.4-.7.7-.4zm-4.1 2.1-.7.4-.4-.7.7-.4zm-4.1 2.1-.7.4-.4-.7.7-.4zm-4.1 2.1-.7.4-.4-.7.7-.4zm-4.1 2.1-.7.4-.4-.7.7-.4zm-4.2 2.1-.7.4-.4-.7.7-.4zm-4.1 2.1-.7.4-.4-.7.7-.4zm-4.1 2.1-.7.4-.4-.7.7-.4zm-4.1 2.1-.7.4-.4-.7.7-.4zm-4.1 2.2-.7.4-.4-.7.7-.4zm-4.1 2.1-.7.4-.4-.7.7-.4zm-4.1 2.1-.7.4-.4-.7.7-.4zm-4.1 2.1-.7.4-.4-.7.7-.4zm-4.1 2.1-.7.4-.4-.7.7-.4zm-4.1 2.1-.7.4-.4-.7.7-.4zm-4.2 2.1-.7.4-.4-.7.7-.4zm-4.1 2.1-.7.4-.4-.7.7-.4zm-4.1 2.2-.7.4-.4-.7.7-.4zm-4.1 2.1-.7.4-.4-.7.7-.4zm-4.1 2.1-.7.4-.4-.7.7-.4zm-4.1 2.1-.7.4-.4-.7.7-.4zm-4.1 2.1-.7.4-.4-.7.7-.4zm-4.1 2.1-.7.4-.4-.7.7-.4zm-4.1 2.1-.7.4-.4-.7.7-.4zm-4.1 2.1-.7.4-.4-.7.7-.4zm-4.1 2.2-.7.4-.4-.7.7-.4zm-4.2 2.1-.7.4-.4-.7.7-.4zm-4.1 2.1-.6.3-.4-.7.7-.4zm-4.1 2.1-.7.4-.4-.7.7-.4zm-4.1 2.1-.7.4-.4-.7.7-.4zm-4.1 2.1-.7.4-.4-.7.7-.4zm-4.1 2.1-.7.4-.4-.7.7-.4zm-4.1 2.1-.7.4-.4-.7.7-.4zm-4.1 2.2-.7.4-.4-.7.7-.4zm-4.1 2.1-.7.4-.4-.7.7-.4zm-4.1 2.1-.7.4-.4-.7.7-.4zm-4.1 2.1-.7.3-.4-.7.7-.4zm-4.2 2.1-.7.4-.4-.7.7-.4zm-4.1 2.1-.7.4-.4-.7.7-.4zm-4.1 2.1-.7.4-.4-.7.7-.4zm-4.1 2.1-.7.4-.4-.7.7-.4zm-4.1 2.2-.7.4-.4-.7.7-.4zm-4.1 2.1-.7.4-.3-.8.7-.4zm-4.1 2.1-.7.4-.4-.7.7-.4zm-4.1 2.1-.7.4-.4-.7.7-.4zm-4.1 2.1-.7.4-.4-.7.7-.4zm-4.1 2.1-.7.4-.4-.7.7-.4zm-4.1 2.1-.7.4-.4-.7.7-.4zm-4.2 2.1-.7.4-.4-.7.7-.4zm-4.1 2.2-.7.4-.4-.7.7-.4zm-4.1 2.1-.7.4-.4-.7.7-.4zm-4.1 2.1-.7.4-.3-.8.7-.4zm-4.1 2.1-.7.4-.4-.7.7-.4zm-4.1 2.1-.7.4-.4-.7.7-.4zm-4.1 2.1-.7.4-.4-.7.7-.4zm-4.1 2.1-.7.4-.4-.7.7-.4zm-4.1 2.1-.7.4-.4-.7.7-.4zm-4.1 2.1-.7.4-.4-.7.7-.4zm-4.2 2.2-.7.4-.4-.7.7-.4zm-4.1 2.1-.7.4-.4-.7.7-.4zm-4.1 2.1-.7.4-.4-.7.7-.4zm-4.1 2.1-.7.4-.4-.7.7-.4zm-4.1 2.1-.7.4-.4-.7.7-.4zm-4.1 2.1-.7.4-.4-.7.7-.4zm-4.1 2.1-.7.4-.4-.7.7-.4zm-4.1 2.1-.7.4-.4-.7.7-.4zm-4.1 2.2-.7.4-.4-.7.7-.4zm-4.1 2.1-.7.4-.4-.7.7-.4zm-4.1 2.1-.7.4-.4-.7.7-.4zm-4.2 2.1-.7.4-.4-.7.7-.4zm-4.1 2.1-.7.4-.4-.7.7-.4zm-4.1 2.1-.7.4-.4-.7.7-.4zm-4.1 2.1-.7.4-.4-.7.7-.4zm-4.1 2.1-.7.4-.4-.7.7-.4zm-4.1 2.2-.7.4-.4-.7.7-.4zm-4.1 2.1-.7.4-.4-.7.7-.4zm-4.1 2.1-.7.4-.4-.7.7-.4zm-4.1 2.1-.7.4-.4-.7.7-.4zm-4.1 2.1-.7.4-.4-.7.7-.4zm-4.1 2.1-.7.4-.4-.7.7-.4zm-4.2 2.1-.7.4-.4-.7.7-.4zm-4.1 2.1-.7.4-.4-.7.7-.4zm-4.1 2.2-.7.4-.4-.7.7-.4zm-4.1 2.1-.7.4-.4-.7.7-.4zm-4.1 2.1-.7.4-.4-.7.7-.4zm-4.1 2.1-.7.4-.4-.7.7-.4zm-4.1 2.1-.7.4-.4-.7.7-.4zm-4.1 2.1-.7.4-.4-.7.7-.4zm-4.1 2.1-.7.4-.4-.7.7-.4zm-4.1 2.1-.7.4-.4-.7.7-.4zm-4.1 2.2-.7.4-.4-.7.7-.4zm-4.2 2.1-.7.4-.4-.7.7-.4zm-4.1 2.1-.7.4-.4-.7.7-.4zm-4.1 2.1-.7.4-.4-.7.7-.4zm-4.1 2.1-.7.4-.4-.7.7-.4zm-4.1 2.1-.7.4-.4-.7.7-.4zm-4.1 2.1-.7.4-.4-.7.7-.4zm-4.1 2.1-.7.4-.4-.7.7-.4zm-4.1 2.2-.7.4-.4-.7.7-.4zm-4.1 2.1-.7.4-.4-.7.7-.4zm-4.1 2.1-.7.4-.4-.7.7-.4zm-4.2 2.1-.7.4-.4-.7.7-.4zm-4.1 2.1-.7.4-.4-.7.7-.4zm-4.1 2.1-.7.4-.4-.7.7-.4zm-4.1 2.1-.7.4-.4-.7.7-.4zm-4.1 2.1-.7.4-.4-.7.7-.4zm-4.1 2.2-.7.4-.4-.7.7-.4zm-4.1 2.1-.7.4-.4-.7.7-.4zm-4.1 2.1-.7.4-.4-.7.7-.4zm-4.1 2.1-.7.4-.4-.7.7-.4zm-4.1 2.1-.7.4-.4-.7.7-.4zm-4.1 2.1-.7.4-.4-.7.7-.4zm-4.2 2.1-.7.4-.4-.7.7-.4zm-4.1 2.1-.7.4-.4-.7.7-.4zm-4.1 2.1-.7.4-.4-.7.7-.4zm-4.1 2.2-.7.4-.4-.7.7-.4zm-4.1 2.1-.7.4-.4-.7.7-.4zm-4.1 2.1-.7.4-.4-.7.7-.4zm-4.1 2.1-.7.4-.4-.7.7-.4zm-4.1 2.1-.7.4-.4-.7.7-.4zm-4.1 2.1-.7.4-.4-.7.7-.4zm-4.1 2.1-.7.4-.4-.7.7-.4zm-4.1 2.1-.7.4-.4-.7.7-.4zm-4.2 2.2-.7.4-.4-.7.7-.4zm-4.1 2.1-.7.4-.4-.7.7-.4zm-4.1 2.1-.7.4-.4-.7.7-.4zm-4.1 2.1-.7.4-.4-.7.7-.4zm-4.1 2.1-.7.4-.4-.7.7-.4zm-4.1 2.1-.7.4-.4-.7.7-.4zm-4.1 2.1-.7.4-.4-.7.7-.4zm-4.1 2.1-.3.2-.4-.7.3-.2z" fill="url(#i)"/><path d="m1094.2 19.6-.3.2-.3-.7.3-.2zm-3.9 1.7-.7.3-.3-.7.7-.3zm-4.2 1.8-.7.3-.3-.7.7-.3zm-4.2 1.9-.7.3-.3-.7.7-.3zm-4.3 1.8-.7.3-.3-.7.7-.3zm-4.2 1.8-.7.3-.3-.7.7-.3zm-4.3 1.9-.7.3-.3-.7.7-.3zm-4.2 1.8-.7.3-.3-.7.7-.3zm-4.3 1.9-.7.3-.3-.7.7-.3zm-4.2 1.8-.7.3-.3-.7.7-.3zm-4.2 1.9-.7.3-.3-.7.7-.3zm-4.3 1.8-.7.3-.3-.7.7-.3zm-4.2 1.8-.7.3-.3-.7.7-.3zm-4.3 1.9-.7.3-.3-.7.7-.3zm-4.2 1.8-.7.3-.3-.7.7-.3zm-4.3 1.9-.7.3-.3-.7.7-.3zm-4.2 1.8-.7.3-.3-.7.7-.3zm-4.2 1.8-.7.3-.3-.7.7-.3zm-4.3 1.9-.7.3-.3-.7.7-.3zm-4.2 1.8-.7.3-.3-.7.7-.3zm-4.3 1.9-.7.3-.3-.7.7-.3zm-4.2 1.8-.7.3-.3-.7.7-.3zm-4.2 1.9-.7.3-.3-.7.7-.3zm-4.3 1.8-.7.3-.3-.7.7-.3zm-4.2 1.8-.7.3-.3-.7.7-.3zm-4.3 1.9-.7.3-.3-.7.7-.3zm-4.2 1.8-.7.3-.3-.7.7-.3zm-4.3 1.9-.7.3-.3-.7.7-.3zm-4.2 1.8-.7.3-.3-.7.7-.3zm-4.3 1.9-.7.3-.3-.7.7-.3zm-4.2 1.8-.7.3-.3-.7.7-.3zm-4.2 1.8-.7.3-.3-.7.7-.3zm-4.3 1.9-.7.3-.3-.7.7-.3zm-4.2 1.8-.7.3-.3-.7.7-.3zm-4.3 1.9-.7.3-.3-.7.7-.3zm-4.2 1.8-.7.3-.3-.7.7-.3zm-4.3 1.8-.7.3-.3-.7.7-.3zm-4.2 1.9-.7.3-.3-.7.7-.3zm-4.2 1.8-.7.3-.3-.7.7-.3zm-4.3 1.9-.7.3-.3-.7.7-.3zm-4.2 1.8-.7.3-.3-.7.7-.3zm-4.3 1.9-.7.3-.3-.7.7-.3zm-4.2 1.8-.7.3-.3-.7.7-.3zm-4.3 1.8-.7.3-.3-.7.7-.3zm-4.2 1.9-.7.3-.3-.7.7-.3zm-4.2 1.8-.7.3-.3-.7.7-.3zm-4.3 1.9-.7.3-.3-.7.7-.3zm-4.2 1.8-.7.3-.3-.7.7-.3zm-4.3 1.9-.7.3-.3-.7.7-.3zm-4.2 1.8-.7.3-.3-.7.7-.3zm-4.3 1.8-.7.3-.3-.7.7-.3zm-4.2 1.9-.7.3-.3-.7.7-.3zm-4.2 1.8-.7.3-.3-.7.7-.3zm-4.3 1.9-.7.3-.3-.7.7-.3zm-4.2 1.8-.7.3-.3-.7.7-.3zm-4.3 1.8-.7.3-.3-.7.7-.3zm-4.2 1.9-.7.3-.3-.7.7-.3zm-4.2 1.8-.7.3-.3-.7.7-.3zm-4.3 1.9-.7.3-.3-.7.7-.3zm-4.2 1.8-.7.3-.3-.7.7-.3zm-4.3 1.9-.7.3-.3-.7.7-.3zm-4.2 1.8-.7.3-.3-.7.7-.3zm-4.3 1.8-.7.3-.3-.7.7-.3zm-4.2 1.9-.7.3-.3-.7.7-.3zm-4.2 1.8-.7.3-.3-.7.7-.3zm-4.3 1.9-.7.3-.3-.7.7-.3zm-4.2 1.8-.7.3-.3-.7.7-.3zm-4.3 1.9-.7.3-.3-.7.7-.3zm-4.2 1.8-.7.3-.3-.7.7-.3zm-4.3 1.8-.7.3-.3-.7.7-.3zm-4.2 1.9-.7.3-.3-.7.7-.3zm-4.2 1.8-.7.3-.3-.7.7-.3zm-4.3 1.9-.7.3-.3-.7.7-.3zm-4.2 1.8-.7.3-.3-.7.7-.3zm-4.3 1.8-.7.3-.3-.7.7-.3zm-4.2 1.9-.7.3-.3-.7.7-.3zm-4.3 1.8-.7.3-.3-.7.7-.3zm-4.2 1.9-.7.3-.3-.7.7-.3zm-4.2 1.8-.7.3-.3-.7.7-.3zm-4.3 1.9-.7.3-.3-.7.7-.3zm-4.2 1.8-.7.3-.3-.7.7-.3zm-4.3 1.8-.7.3-.3-.7.7-.3zm-4.2 1.9-.7.3-.3-.7.7-.3zm-4.3 1.8-.7.3-.3-.7.7-.3zm-4.2 1.9-.7.3-.3-.7.7-.3zm-4.2 1.8-.7.3-.3-.7.7-.3zm-4.3 1.9-.7.3-.3-.7.7-.3zm-4.2 1.8-.7.3-.3-.7.7-.3zm-4.3 1.8-.7.3-.3-.7.7-.3zm-4.2 1.9-.7.3-.3-.7.7-.3zm-4.3 1.8-.7.3-.3-.7.7-.3zm-4.2 1.9-.7.3-.3-.7.7-.3zm-4.2 1.8-.7.3-.3-.7.7-.3zm-4.3 1.8-.7.3-.3-.7.7-.3zm-4.2 1.9-.7.3-.3-.7.7-.3zm-4.3 1.8-.7.3-.3-.7.7-.3zm-4.2 1.9-.7.3-.3-.7.7-.3zm-4.3 1.8-.7.3-.3-.7.7-.3zm-4.2 1.9-.7.3-.3-.7.7-.3zm-4.2 1.8-.7.3-.3-.7.7-.3zm-4.3 1.8-.7.3-.3-.7.7-.3zm-4.2 1.9-.7.3-.3-.7.7-.3zm-4.3 1.8-.7.3-.3-.7.7-.3zm-4.2 1.9-.7.3-.3-.7.7-.3zm-4.3 1.8-.7.3-.3-.7.7-.3zm-4.2 1.9-.7.3-.3-.7.7-.3zm-4.2 1.8-.7.3-.3-.7.7-.3zm-4.3 1.8-.7.3-.3-.7.7-.3zm-4.2 1.9-.7.3-.3-.7.7-.3zm-4.3 1.8-.7.3-.3-.7.7-.3zm-4.2 1.9-.7.3-.3-.7.7-.3zm-4.3 1.8-.7.3-.3-.7.7-.3zm-4.2 1.8-.7.3-.3-.7.7-.3zm-4.2 1.9-.7.3-.3-.7.7-.3zm-4.3 1.8-.7.3-.3-.7.7-.3zm-4.2 1.9-.7.3-.3-.7.7-.3zm-4.3 1.8-.7.3-.3-.7.7-.3zm-4.2 1.9-.7.3-.3-.7.7-.3zm-4.3 1.8-.7.3-.3-.7.7-.3zm-4.2 1.8-.7.4-.3-.7.7-.3zm-4.2 1.9-.7.3-.3-.7.7-.3zm-4.3 1.8-.7.3-.3-.7.7-.3zm-4.2 1.9-.7.3-.3-.7.7-.3zm-4.3 1.8-.7.3-.3-.7.7-.3zm-4.2 1.9-.7.3-.3-.7.7-.3zm-4.3 1.8-.7.3-.3-.7.7-.3zm-4.2 1.8-.7.3-.3-.7.7-.3zm-4.2 1.9-.7.3-.3-.7.7-.3zm-4.3 1.8-.7.3-.3-.7.7-.3zm-4.2 1.9-.7.3-.3-.7.7-.3zm-4.3 1.8-.7.3-.3-.7.7-.3zm-4.2 1.8-.7.3-.3-.7.7-.3zm-4.3 1.9-.7.3-.3-.7.7-.3zm-4.2 1.8-.7.3-.3-.7.7-.3zm-4.2 1.9-.7.3-.3-.7.7-.3zm-4.3 1.8-.7.3-.3-.7.7-.3zm-4.2 1.9-.7.3-.3-.7.7-.3zm-4.3 1.8-.7.3-.3-.7.7-.3zm-4.2 1.8-.7.3-.3-.7.7-.3zm-4.3 1.9-.7.3-.3-.7.7-.3zm-4.2 1.8-.7.3-.3-.7.7-.3zm-4.2 1.9-.7.3-.3-.7.7-.3zm-4.3 1.8-.7.3-.3-.7.7-.3zm-4.2 1.9-.7.3-.3-.7.7-.3zm-4.3 1.8-.7.3-.3-.7.7-.3zm-4.2 1.8-.7.3-.3-.7.7-.3zm-4.3 1.9-.7.3-.3-.7.7-.3zm-4.2 1.8-.7.3-.3-.7.7-.3zm-4.2 1.9-.7.3-.3-.7.7-.3zm-4.3 1.8-.7.3-.3-.7.7-.3zm-4.2 1.8-.7.3-.3-.7.7-.3zm-4.3 1.9-.7.3-.3-.7.7-.3zm-4.2 1.8-.7.3-.3-.7.7-.3zm-4.3 1.9-.7.3-.3-.7.7-.3zm-4.2 1.8-.7.3-.3-.7.7-.3zm-4.2 1.9-.7.3-.3-.7.7-.3zm-4.3 1.8-.7.3-.3-.7.7-.3zm-4.2 1.8-.7.3-.3-.7.7-.3zm-4.3 1.9-.7.3-.3-.7.7-.3zm-4.2 1.8-.7.3-.3-.7.7-.3zm-4.3 1.9-.7.3-.3-.7.7-.3zm-4.2 1.8-.7.3-.3-.7.7-.3zm-4.2 1.9-.7.3-.3-.7.7-.3zm-4.3 1.8-.7.3-.3-.7.7-.3zm-4.2 1.8-.7.3-.3-.7.7-.3zm-4.3 1.9-.7.3-.3-.7.7-.3zm-4.2 1.8-.7.3-.3-.7.7-.3zm-4.2 1.9-.7.3-.3-.7.7-.3zm-4.3 1.8-.7.3-.3-.7.7-.3zm-4.2 1.9-.7.3-.3-.7.7-.3zm-4.3 1.8-.7.3-.3-.7.7-.3zm-4.2 1.8-.7.3-.3-.7.7-.3zm-4.3 1.9-.7.3-.3-.7.7-.3zm-4.2 1.8-.7.3-.3-.7.7-.3zm-4.2 1.9-.7.3-.3-.7.7-.3zm-4.3 1.8-.7.3-.3-.7.7-.3zm-4.2 1.8-.7.3-.3-.7.7-.3zm-4.3 1.9-.7.3-.3-.7.7-.3zm-4.2 1.8-.7.3-.3-.7.7-.3zm-4.3 1.9-.7.3-.3-.7.7-.3zm-4.2 1.8-.7.3-.3-.7.7-.3zm-4.2 1.9-.7.3-.3-.7.7-.3zm-4.3 1.8-.7.3-.3-.7.7-.3zm-4.2 1.8-.7.3-.3-.7.7-.3zm-4.3 1.9-.7.3-.3-.7.7-.3zm-4.2 1.8-.7.3-.3-.7.7-.3zm-4.3 1.9-.7.3-.3-.7.7-.3zm-4.2 1.8-.7.3-.3-.7.7-.3zm-4.2 1.9-.7.3-.3-.7.7-.3zm-4.3 1.8-.7.3-.3-.7.7-.3zm-4.2 1.8-.7.3-.3-.7.7-.3zm-4.3 1.9-.7.3-.3-.7.7-.3zm-4.2 1.8-.7.3-.3-.7.7-.3zm-4.3 1.9-.7.3-.3-.7.7-.3zm-4.2 1.8-.7.3-.3-.7.7-.3zm-4.2 1.8-.7.3-.3-.7.7-.3zm-4.3 1.9-.7.3-.3-.7.7-.3zm-4.2 1.8-.7.3-.3-.7.7-.3zm-4.3 1.9-.7.3-.3-.7.7-.3zm-4.2 1.8-.7.3-.3-.7.7-.3zm-4.3 1.9-.7.3-.3-.7.7-.3zm-4.2 1.8-.7.3-.3-.7.7-.3zm-4.2 1.8-.7.3-.3-.7.7-.3zm-4.3 1.9-.7.3-.3-.7.7-.3zm-4.2 1.8-.7.3-.3-.7.7-.3zm-4.3 1.9-.7.3-.3-.7.7-.3zm-4.2 1.8-.7.3-.3-.7.7-.3zm-4.3 1.9-.7.3-.3-.7.7-.3zm-4.2 1.8-.7.3-.3-.7.7-.3zm-4.2 1.8-.7.3-.3-.7.7-.3zm-4.3 1.9-.7.3-.3-.7.7-.3zm-4.2 1.8-.7.3-.3-.7.7-.3zm-4.3 1.9-.7.3-.3-.7.7-.3zm-4.2 1.8-.7.3-.3-.7.7-.3zm-4.3 1.8-.7.3-.3-.7.7-.3zm-4.2 1.9-.7.3-.3-.7.7-.3zm-4.2 1.8-.7.3-.3-.7.7-.3zm-4.3 1.9-.7.3-.3-.7.7-.3zm-4.2 1.8-.7.3-.3-.7.7-.3zm-4.3 1.9-.7.3-.3-.7.7-.3zm-4.2 1.8-.7.3-.3-.7.7-.3zm-4.3 1.8-.7.3-.3-.7.7-.3zm-4.2 1.9-.7.3-.3-.7.7-.3zm-4.2 1.8-.7.3-.3-.7.7-.3zm-4.3 1.9-.7.3-.3-.7.7-.3zm-4.2 1.8-.7.3-.3-.7.7-.3zm-4.3 1.9-.7.3-.3-.7.7-.3zm-4.2 1.8-.7.3-.3-.7.7-.3zm-4.3 1.8-.7.3-.3-.7.7-.3zm-4.2 1.9-.7.3-.3-.7.7-.3zm-4.2 1.8-.7.3-.3-.7.7-.3zm-4.3 1.9-.7.3-.3-.7.7-.3zm-4.2 1.8-.7.3-.3-.7.7-.3zm-4.3 1.9-.7.3-.3-.7.7-.3zm-4.2 1.8-.7.3-.3-.7.7-.3zm-4.3 1.8-.7.3-.3-.7.7-.3zm-4.2 1.9-.7.3-.3-.7.7-.3zm-4.2 1.8-.7.3-.3-.7.7-.3zm-4.3 1.9-.7.3-.3-.7.7-.3zm-4.2 1.8-.7.3-.3-.7.7-.3zm-4.3 1.8-.7.3-.3-.7.7-.3zm-4.2 1.9-.7.3-.3-.7.7-.3zm-4.3 1.8-.7.3-.3-.7.7-.3zm-4.2 1.9-.7.3-.3-.7.7-.3zm-4.2 1.8-.7.3-.3-.7.7-.3zm-4.3 1.9-.7.3-.3-.7.7-.3zm-4.2 1.8-.7.3-.3-.7.7-.3zm-4.3 1.8-.7.3-.3-.7.7-.3zm-4.2 1.9-.7.3-.3-.7.7-.3zm-4.3 1.8-.7.3-.3-.7.7-.3zm-4.2 1.9-.7.3-.3-.7.7-.3zm-4.2 1.8-.7.3-.3-.7.7-.3zm-4.3 1.9-.7.3-.3-.7.7-.3zm-4.2 1.8-.7.3-.3-.7.7-.3zm-4.3 1.8-.7.3-.3-.7.7-.3s.3.7.3.7zm-4.2 1.9-.7.3-.3-.7.7-.3zm-4.3 1.8-.7.3-.3-.7.7-.3zm-4.2 1.9-.7.3-.3-.7.7-.3zm-4.2 1.8-.7.3-.3-.7.7-.3c-.1 0 .3.7.3.7zm-4.3 1.8-.7.3-.3-.7.7-.3zm-4.2 1.9-.7.3-.3-.7.7-.3zm-4.3 1.8-.7.3-.3-.7.7-.3zm-4.2 1.9-.7.3-.3-.7.7-.3zm-4.3 1.8-.7.3-.3-.7.7-.3zm-4.2 1.9-.4.2-.3-.7.4-.2z" fill="url(#j)"/><path d="m1096.5-11.3-.4.1-.3-.7.4-.1zm-3.9 1.6-.7.3-.3-.7.7-.3zm-4.3 1.7-.7.3-.3-.7.7-.3zm-4.3 1.7-.7.3-.3-.7.7-.3zm-4.4 1.6-.7.3-.3-.7.7-.3zm-4.3 1.7-.7.3-.3-.7.7-.3zm-4.3 1.7-.7.3-.3-.7.7-.3zm-4.3 1.7-.7.3-.3-.7.7-.3s.3.7.3.7zm-4.3 1.7-.7.3-.3-.7.7-.3s.3.7.3.7zm-4.3 1.7-.7.3-.3-.7.7-.3zm-4.3 1.7-.7.3-.3-.7.7-.3zm-4.4 1.7-.7.3-.3-.7.7-.3zm-4.3 1.7-.7.3-.3-.7.7-.3zm-4.3 1.7-.7.3-.3-.7.7-.3zm-4.3 1.7-.7.3-.3-.7.7-.3zm-4.3 1.7-.7.3-.3-.7.7-.3zm-4.3 1.7-.7.3-.3-.7.7-.3zm-4.3 1.7-.7.3-.3-.7.7-.3zm-4.3 1.7-.7.3-.3-.7.7-.3zm-4.4 1.6-.7.3-.3-.7.7-.3zm-4.3 1.7-.7.3-.3-.7.7-.3zm-4.3 1.7-.7.3-.3-.7.7-.3zm-4.3 1.7-.7.3-.3-.7.7-.3zm-4.3 1.7-.7.3-.3-.7.7-.3zm-4.3 1.7-.7.3-.3-.7.7-.3zm-4.3 1.7-.7.3-.3-.7.7-.3zm-4.3 1.7-.7.3-.3-.7.7-.3zm-4.4 1.7-.7.3-.3-.7.7-.3zm-4.3 1.7-.7.3-.3-.7.7-.3zm-4.3 1.7-.7.3-.3-.7.7-.3zm-4.3 1.7-.7.3-.3-.7.7-.3zm-4.3 1.7-.7.3-.3-.7.7-.3zm-4.3 1.7-.7.3-.3-.7.7-.3zm-4.3 1.6-.7.3-.3-.7.7-.3zm-4.4 1.7-.7.3-.3-.7.7-.3zm-4.3 1.7-.7.3-.3-.7.7-.3zm-4.3 1.7-.7.3-.3-.7.7-.3zm-4.3 1.7-.7.3-.3-.7.7-.3zm-4.3 1.7-.7.3-.3-.7.7-.3zm-4.3 1.7-.7.3-.3-.7.7-.3zm-4.3 1.7-.7.3-.3-.7.7-.3zm-4.3 1.7-.7.3-.3-.7.7-.3zm-4.4 1.7-.7.3-.3-.7.7-.3zm-4.3 1.7-.7.3-.3-.7.7-.3zm-4.3 1.7-.7.3-.3-.7.7-.3zm-4.3 1.7-.7.3-.3-.7.7-.3zm-4.3 1.7-.7.3-.3-.7.7-.3zm-4.3 1.7-.7.3-.3-.7.7-.3zm-4.3 1.6-.7.3-.3-.7.7-.3zm-4.3 1.7-.7.3-.3-.7.7-.3zm-4.4 1.7-.7.3-.3-.7.7-.3zm-4.3 1.7-.7.3-.3-.7.7-.3zm-4.3 1.7-.7.3-.3-.7.7-.3zm-4.3 1.7-.7.3-.3-.7.7-.3zm-4.3 1.7-.7.3-.3-.7.7-.3zm-4.3 1.7-.7.3-.3-.7.7-.3zm-4.3 1.7-.7.3-.3-.7.7-.3zm-4.4 1.7-.7.3-.3-.7.7-.3zm-4.3 1.7-.7.3-.3-.7.7-.3zm-4.3 1.7-.7.3-.3-.7.7-.3zm-4.3 1.7-.7.3-.3-.7.7-.3zm-4.3 1.7-.7.3-.3-.7.7-.3zm-4.3 1.6-.7.3-.3-.7.7-.3zm-4.3 1.7-.7.3-.3-.7.7-.3zm-4.3 1.7-.7.3-.3-.7.7-.3zm-4.4 1.7-.7.3-.3-.7.7-.3zm-4.3 1.7-.7.3-.3-.7.7-.3zm-4.3 1.7-.7.3-.3-.7.7-.3zm-4.3 1.7-.7.3-.3-.7.7-.3zm-4.3 1.7-.7.3-.3-.7.7-.3zm-4.3 1.7-.7.3-.3-.7.7-.3zm-4.3 1.7-.7.3-.3-.7.7-.3zm-4.3 1.7-.7.3-.3-.7.7-.3zm-4.4 1.7-.7.3-.3-.7.7-.3zm-4.3 1.7-.7.3-.3-.7.7-.3zm-4.3 1.7-.7.3-.3-.7.7-.3zm-4.3 1.6-.7.3-.3-.7.7-.3zm-4.3 1.7-.7.3-.3-.7.7-.3zm-4.3 1.7-.7.3-.3-.7.7-.3zm-4.3 1.7-.7.3-.3-.7.7-.3zm-4.4 1.7-.7.3-.3-.7.7-.3zm-4.3 1.7-.7.3-.3-.7.7-.3zm-4.3 1.7-.7.3-.3-.7.7-.3zm-4.3 1.7-.7.3-.3-.7.7-.3zm-4.3 1.7-.7.3-.3-.7.7-.3zm-4.3 1.7-.7.3-.3-.7.7-.3zm-4.3 1.7-.7.3-.3-.7.7-.3zm-4.3 1.7-.7.3-.3-.7.7-.3zm-4.4 1.7-.7.3-.3-.7.7-.3zm-4.3 1.7-.7.3-.3-.7.7-.3zm-4.3 1.7-.7.3-.3-.7.7-.3zm-4.3 1.6-.7.3-.3-.7.7-.3zm-4.3 1.7-.7.3-.3-.7.7-.3zm-4.3 1.7-.7.3-.3-.7.7-.3zm-4.3 1.7-.7.3-.3-.7.7-.3zm-4.4 1.7-.7.3-.3-.7.7-.3zm-4.3 1.7-.7.3-.3-.7.7-.3zm-4.3 1.7-.7.3-.3-.7.7-.3zm-4.3 1.7-.7.3-.3-.7.7-.3zm-4.3 1.7-.7.3-.3-.7.7-.3zm-4.3 1.7-.7.3-.3-.7.7-.3zm-4.3 1.7-.7.3-.3-.7.7-.3zm-4.3 1.7-.7.3-.3-.7.7-.3zm-4.4 1.7-.7.3-.3-.7.7-.3zm-4.3 1.7-.7.3-.3-.7.7-.3zm-4.3 1.6-.7.3-.3-.7.7-.3zm-4.3 1.7-.7.3-.3-.7.7-.3zm-4.3 1.7-.7.3-.3-.7.7-.3zm-4.3 1.7-.7.3-.3-.7.7-.3zm-4.3 1.7-.7.3-.3-.7.7-.3zm-4.3 1.7-.7.3-.3-.7.7-.3zm-4.4 1.7-.7.3-.3-.7.7-.3zm-4.3 1.7-.7.3-.3-.7.7-.3zm-4.3 1.7-.7.3-.3-.7.7-.3zm-4.3 1.7-.7.3-.3-.7.7-.3zm-4.3 1.7-.7.3-.3-.7.7-.3zm-4.3 1.7-.7.3-.3-.7.7-.3zm-4.3 1.7-.7.3-.3-.7.7-.3zm-4.4 1.7-.7.3-.3-.7.7-.3zm-4.3 1.7-.7.3-.3-.7.7-.3zm-4.3 1.6-.7.3-.3-.7.7-.3zm-4.3 1.7-.7.3-.3-.7.7-.3zm-4.3 1.7-.7.3-.3-.7.7-.3zm-4.3 1.7-.7.3-.3-.7.7-.3zm-4.3 1.7-.7.3-.3-.7.7-.3zm-4.3 1.7-.7.3-.3-.7.7-.3zm-4.4 1.7-.7.3-.3-.7.7-.3zm-4.3 1.7-.7.3-.3-.7.7-.3zm-4.3 1.7-.7.3-.3-.7.7-.3zm-4.3 1.7-.7.3-.3-.7.7-.3zm-4.3 1.7-.7.3-.3-.7.7-.3zm-4.3 1.7-.7.3-.3-.7.7-.3zm-4.3 1.7-.7.3-.3-.7.7-.3zm-4.3 1.7-.7.3-.3-.7.7-.3zm-4.4 1.6-.7.3-.3-.7.7-.3zm-4.3 1.7-.7.3-.3-.7.7-.3zm-4.3 1.7-.7.3-.3-.7.7-.3zm-4.3 1.7-.7.3-.3-.7.7-.3zm-4.3 1.7-.7.3-.3-.7.7-.3zm-4.3 1.7-.7.3-.3-.7.7-.3zm-4.3 1.7-.7.3-.3-.7.7-.3zm-4.4 1.7-.7.3-.3-.7.7-.3zm-4.3 1.7-.7.3-.3-.7.7-.3zm-4.3 1.7-.7.3-.3-.7.7-.3zm-4.3 1.7-.7.3-.3-.7.7-.3zm-4.3 1.7-.7.3-.3-.7.7-.3zm-4.3 1.7-.7.3-.3-.7.7-.3zm-4.3 1.7-.7.3-.3-.7.7-.3zm-4.3 1.7-.7.3-.3-.7.7-.3zm-4.4 1.6-.7.3-.3-.7.7-.3zm-4.3 1.7-.7.3-.3-.7.7-.3zm-4.3 1.7-.7.3-.3-.7.7-.3zm-4.3 1.7-.7.3-.3-.7.7-.3zm-4.3 1.7-.7.3-.3-.7.7-.3zm-4.3 1.7-.7.3-.3-.7.7-.3zm-4.3 1.7-.7.3-.3-.7.7-.3zm-4.3 1.7-.7.3-.3-.7.7-.3zm-4.4 1.7-.7.3-.3-.7.7-.3zm-4.3 1.7-.7.3-.3-.7.7-.3zm-4.3 1.7-.7.3-.3-.7.7-.3zm-4.3 1.7-.7.3-.3-.7.7-.3zm-4.3 1.7-.7.3-.3-.7.7-.3zm-4.3 1.7-.7.3-.3-.7.7-.3zm-4.3 1.6-.7.3-.3-.7.7-.3zm-4.4 1.7-.7.3-.3-.7.7-.3zm-4.3 1.7-.7.3-.3-.7.7-.3zm-4.3 1.7-.7.3-.3-.7.7-.3zm-4.3 1.7-.7.3-.3-.7.7-.3zm-4.3 1.7-.7.3-.3-.7.7-.3zm-4.3 1.7-.7.3-.3-.7.7-.3zm-4.3 1.7-.7.3-.3-.7.7-.3zm-4.3 1.7-.7.3-.3-.7.7-.3zm-4.4 1.7-.7.3-.3-.7.7-.3zm-4.3 1.7-.7.3-.3-.7.7-.3zm-4.3 1.7-.7.3-.3-.7.7-.3zm-4.3 1.7-.7.3-.3-.7.7-.3zm-4.3 1.7-.7.3-.3-.7.7-.3zm-4.3 1.7-.7.3-.3-.7.7-.3zm-4.3 1.6-.7.3-.3-.7.7-.3zm-4.3 1.7-.7.3-.3-.7.7-.3zm-4.4 1.7-.7.3-.3-.7.7-.3zm-4.3 1.7-.7.3-.3-.7.7-.3zm-4.3 1.7-.7.3-.3-.7.7-.3zm-4.3 1.7-.7.3-.3-.7.7-.3zm-4.3 1.7-.7.3-.3-.7.7-.3zm-4.3 1.7-.7.3-.3-.7.7-.3zm-4.3 1.7-.7.3-.3-.7.7-.3zm-4.4 1.7-.7.3-.3-.7.7-.3zm-4.3 1.7-.7.3-.3-.7.7-.3zm-4.3 1.7-.7.3-.3-.7.7-.3zm-4.3 1.7-.7.3-.3-.7.7-.3zm-4.3 1.7-.7.3-.3-.7.7-.3zm-4.3 1.6-.7.3-.3-.7.7-.3zm-4.3 1.7-.7.3-.3-.7.7-.3zm-4.3 1.7-.7.3-.3-.7.7-.3zm-4.4 1.7-.7.3-.3-.7.7-.3zm-4.3 1.7-.7.3-.3-.7.7-.3zm-4.3 1.7-.7.3-.3-.7.7-.3zm-4.3 1.7-.7.3-.3-.7.7-.3zm-4.3 1.7-.7.3-.3-.7.7-.3zm-4.3 1.7-.7.3-.3-.7.7-.3zm-4.3 1.7-.7.3-.3-.7.7-.3zm-4.3 1.7-.7.3-.3-.7.7-.3zm-4.4 1.7-.7.3-.3-.7.7-.3zm-4.3 1.7-.7.3-.3-.7.7-.3zm-4.3 1.7-.7.3-.3-.7.7-.3zm-4.3 1.7-.7.3-.3-.7.7-.3zm-4.3 1.6-.7.3-.3-.7.7-.3zm-4.3 1.7-.7.3-.3-.7.7-.3zm-4.3 1.7-.7.3-.3-.7.7-.3zm-4.4 1.7-.7.3-.3-.7.7-.3zm-4.3 1.7-.7.3-.3-.7.7-.3zm-4.3 1.7-.7.3-.3-.7.7-.3zm-4.3 1.7-.7.3-.3-.7.7-.3zm-4.3 1.7-.7.3-.3-.7.7-.3zm-4.3 1.7-.7.3-.3-.7.7-.3zm-4.3 1.7-.7.3-.3-.7.7-.3zm-4.3 1.7-.7.3-.3-.7.7-.3zm-4.4 1.7-.7.3-.3-.7.7-.3zm-4.3 1.7-.7.3-.3-.7.7-.3zm-4.3 1.7-.7.3-.3-.7.7-.3zm-4.3 1.6-.7.3-.3-.7.7-.3zm-4.3 1.7-.7.3-.3-.7.7-.3zm-4.3 1.7-.7.3-.3-.7.7-.3zm-4.3 1.7-.7.3-.3-.7.7-.3zm-4.3 1.7-.7.3-.3-.7.7-.3zm-4.4 1.7-.7.3-.3-.7.7-.3zm-4.3 1.7-.7.3-.3-.7.7-.3zm-4.3 1.7-.7.3-.3-.7.7-.3zm-4.3 1.7-.7.3-.3-.7.7-.3zm-4.3 1.7-.7.3-.3-.7.7-.3zm-4.3 1.7-.7.3-.3-.7.7-.3zm-4.3 1.7-.7.3-.3-.7.7-.3zm-4.4 1.7-.7.3-.3-.7.7-.3zm-4.3 1.7-.7.3-.3-.7.7-.3zm-4.3 1.7-.7.3-.3-.7.7-.3zm-4.3 1.6-.7.3-.3-.7.7-.3zm-4.3 1.7-.7.3-.3-.7.7-.3zm-4.3 1.7-.7.3-.3-.7.7-.3zm-4.3 1.7-.7.3-.3-.7.7-.3zm-4.3 1.7-.7.3-.3-.7.7-.3zm-4.4 1.7-.7.3-.3-.7.7-.3zm-4.3 1.7-.7.3-.3-.7.7-.3zm-4.3 1.7-.7.3-.3-.7.7-.3zm-4.3 1.7-.7.3-.3-.7.7-.3zm-4.3 1.7-.7.3-.3-.7.7-.3zm-4.3 1.7-.7.3-.3-.7.7-.3zm-4.3 1.7-.7.3-.3-.7.7-.3zm-4.3 1.7-.7.3-.3-.7.7-.3zm-4.4 1.7-.7.3-.3-.7.7-.3zm-4.3 1.6-.7.3-.3-.7.7-.3zm-4.3 1.7-.7.3-.3-.7.7-.3zm-4.3 1.7-.7.3-.3-.7.7-.3zm-4.3 1.7-.7.3-.3-.7.7-.3zm-4.3 1.7-.7.3-.3-.7.7-.3zm-4.3 1.7-.7.3-.3-.7.7-.3zm-4.4 1.7-.7.3-.3-.7.7-.3c.1 0 .3.7.3.7zm-4.3 1.7-.7.3-.3-.7.7-.3zm-4.3 1.7-.7.3-.3-.7.7-.3zm-4.3 1.7-.7.3-.3-.7.7-.3zm-4.3 1.7-.7.3-.3-.7.7-.3zm-4.3 1.7-.7.3-.3-.7.7-.3zm-4.3 1.7-.7.3-.3-.7.7-.3zm-4.3 1.7-.7.3-.3-.7.7-.3zm-4.4 1.6-.7.3-.3-.7.7-.3zm-4.3 1.7-.7.3-.3-.7.7-.3zm-4.3 1.7-.7.3-.3-.7.7-.3zm-4.3 1.7-.7.3-.3-.7.7-.3zm-4.3 1.7-.7.3-.3-.7.7-.3zm-4.3 1.7-.4.1-.3-.7.4-.1z"/></g><path d="m791.2 118.3-16.9 34.6c10 6 24.3 3.9 30.4 0z" fill="#fff"/><path d="m774 148.5c3.6 6.2 22 6.5 31 2.5" fill="none" stroke="#000" stroke-linecap="round" stroke-linejoin="round"/><path d="m774 149c3.3-6.1 15-27.1 19-33" fill="none" stroke="#000" stroke-linecap="round" stroke-linejoin="round"/><path d="m790.6 116c2.3 4.4 11.8 30.5 13.9 35m-17.5-14.5-4.5-2m5 6.5-7-2.5m7.5 8.5-10-5" fill="none" stroke="#000" stroke-linecap="round" stroke-linejoin="round"/><path d="m506.8 109.5-13.9 5v24.8l22.1 4.2 12.4-5v-25z" fill="#fff"/><g fill="none" stroke="#000" stroke-linejoin="round"><g stroke-linecap="round"><path d="m511.8 120.4c4-1.8 13.8-6.2 18.4-7.9m-17.4 32 15.2-6"/><path d="m527.2 111.7v27.5m-11.9-22.3v28.1m-22.4-32.5v27.1"/><path d="m490.3 115.2 18.5-7.2"/><path d="m492.1 114.5c8.2 1.7 18.1 3.2 25.8 5m-26.6 18.7 24.9 5.6m-12.1-34.8c6.2 1 19.4 3.5 25.1 4.7m-19 7.7.2 17.6"/><path d="m497.8 119.5v15.7"/><path d="m497.3 120c4.7.9 9.7 1.7 13.9 2.4m-14.8 12.4c3.8.9 9 2 15 3.4"/><path d="m498 134.7 12.5-4.7"/></g><path d="m522.1 116-6.7 26zm-6.7 9 1.9-7.5z"/><path d="m520.1 141.5 7.3-28.5m0 15-3 11.5zm-29.9-5.9 4-1.5m8.5 5.3-12.5 4.8zm-11.9 0 9.9-3.8z" stroke-linecap="round"/></g><path d="m193.5 329.8-24.3 10.2-21.4-6.8v-27.2l25.7-10.1 20 6.5v1 5.5z" fill="#fff"/><path d="m173 296c7.3 2 15 5 23.5 7.5m-48.7 1.2v29.2" fill="none" stroke="#000" stroke-linecap="round" stroke-linejoin="round"/><path d="m170.4 310.1v30.4m23.1-38.5v28.1" fill="none" stroke="#000" stroke-linecap="round" stroke-linejoin="round"/><path d="m147.2 333.9 24.3 6.4m-23.1-34.2 24.3 6.4" fill="none" stroke="#000" stroke-linecap="round" stroke-linejoin="round"/><path d="m167.6 340.8c5.2-2.2 23.6-9.6 28.8-11.6m-26.9-16.6 25-10.6m-46.9 4.6 26.9-11.1m-14 13.5 23.1-10" fill="none" stroke="#000" stroke-linecap="round" stroke-linejoin="round"/><path d="m171.3 339.2c2.4-9.3 6.1-21.4 8.7-31.1zm3.2-28.7c-1.4 5.5-2.5 8.5-3.9 13.8z" fill="none" stroke="#000" stroke-linejoin="round"/><path d="m176.2 337.2 7.8-30.2m9.9 11.5-3.5 12.6m-4.5 2 8-30.8zm2.6-28-7.7 29.9z" fill="none" stroke="#000" stroke-linecap="round" stroke-linejoin="round"/><path d="m361 298.5 23-10.5h35.5l13 13v13l-25 12.5h-35l-11.5-12.5z" fill="#fff"/><g fill="none" stroke="#000" stroke-linecap="round" stroke-linejoin="round"><path d="m358.9 296c7.1 8.4 10.2 12.2 16 18.4"/><path d="m357 300.3c7.5-3.8 17.5-8.3 31.5-14.3m30 1c6.5 6.5 9.5 9.5 16 15.5"/><path d="m405.5 313.5 27.5-13.5m-25 27c7-4 16-8.5 26-14"/><path d="m358 310c6.5 7.5 10 12 15.3 17m-6.3-14.5h46.6"/><path d="m381 288h43.9m-63.9 7v19.3m71-19.3v19.5m-59-4.5v17.7m35-17.7c0 3.3.3 16.2 0 19.5"/><path d="m370 327h43.9m-52.7-13 3-11.5m3 3.5-3 11.5m3.4 4 3-11.5"/><path d="m374.5 312.5-1.2 4.5-1.9 7.5m6.9-12-3.7 14.5m4.4 0 3.7-14.5m4.5.5-3.6 14m4.5 0 3.7-14.5m.7 14.5 3.7-14.5m4.2 0-3.7 14.5m7.6-14.5-3.7 14.5m8.1-14.5-3.7 14.5m8.5-17-4 15.7m8.5-18-4.1 15.8m5.2-3 4-15.5zm9.1-17.5-3.9 15m7.5-14-3 11.5"/></g><path clip-rule="evenodd" d="m389.2 298.5h-4.9l-5.3-6.5 3.3-3.4v-8.7h-3.3l3.3-11.4h3.6l3.3-2.9v-5.8l8-4.4 4.4 2.9v5.1l2.9-5.1 6.1 2.9 1.6 7.3-3.6 3.3v5.8h3.6l-1.6 10.9-4.7-1.3-4.2 4.7 1.3 6.5-7.1 3-6.6-1.2zm3.8-20.5 4.5-3 3 1.5-2 6-3.5 2.5-2-1z" fill="#fff" fill-rule="evenodd"/><g fill="none" stroke="#000" stroke-linejoin="round"><g stroke-linecap="round"><path d="m379 279.5c.6.2 1.2.3 1.8.4l7.9 1.4m-7.9-13c.6.1 1.2.2 1.8.4l8.6 2.9m-2.5-12.2c3 1 6 1.6 9.1 2.4m-2.5-6.8 7.8 2.7m1 .8c2.3.5 4.5 1.4 6.7 2.1m-1.9 17.1 4.3 1.1m-7.2 8.5 4.8 1.2m-8.2 3.1c.1.4.1.8.1 1.2v6.9m-6.9-4.1.2 6.8m-7.7-2.3c1.8-1.3 3.1-3.2 4.6-4.8m-8.2-2.1c1.5-1.9 3.5-3.4 5.3-5"/><path d="m389.1 289.3c-.3-1.9-.9-5.5-.3-9m2.6-8.4c.8-1.4 1.9-2.9 4.9-4.5"/><path d="m395.8 260.8-.2 8.7m6.2-11.7v7.2"/><path d="m401 264.4c1.4 0 3.3.4 4.3 1.7"/><path d="m404.6 265.7c.4-.3.8-.7 1.2-1l5.9-5.8m-3.2 13.1c.1-.2.2-.5.4-.7l4.5-4.6"/><path d="m409.7 260.1c.4.7.6 1.4.8 2.2l1.3 5.2c.1.2.2.4.4.5m-3.7 3.2c.6 2.9.8 5 0 7.3m3.4-.2c.6 3.6-1.4 8.5-2.3 11.1m-7.9 3c2.4-2 3.3-3.3 4.4-6.2m-11.2 15.7c.5-.1.8-.2 1.3-.4l7.7-3.3"/><path d="m390 300.5c2.4.3 4.8 1.2 7.2 1.4"/><path d="m390.1 300.8-.4-2.8m-4.4-16.7c-.3-3.2 1-9.1 2.9-11.3m-8.4 10.1c-.1-4 1.3-8.2 3.2-11.7m2.7 1.5 3.4-3.2m.1-7-.2 5.4c0 .3 0 .5.1.8m-.9.4 7.3 2m6.3-5.2 3.6-5.6m-17.5 2.3c3-1.7 6.1-3.1 9.1-4.7m-2.3 6.8c1.6-.7 3.2-1.7 4.7-2.5l5.2-3m-21.1 24.6.3 6.5m-.7-.1 7.3 1.7"/><path d="m379 292.3c.6-.4 1.1-1 1.6-1.5l3.5-3.6"/><path d="m378.6 292.2 7.8 1.4m5.8 1.3c1.7.4 3.5.6 5.3.6"/><path d="m384.8 293 3.7 5.6c.4.6.8 1.4 1.4 1.8m-11.1-8.1 5.5 6.7"/><path d="m383 298.5c2.2 0 4.3 1.1 6.5 1.3m2.9-16.3 6.8 4.9"/><path d="m393 285.5 1-9.4"/><path d="m392.7 278c1.3-1 5.8-4.2 7.1-5.2"/><path d="m397.7 272.7c2.1 1.3 4.4 2.2 6.6 3.3.6.3 1.4.5 1.9.9m-9.3 11.2c1.3-.6 6-3.6 7.1-4.2"/><path d="m403 284.5 1.6-8.7m-4.2-.2-.8 3.5-.7 3.2c0 .2-.1.2-.1.4"/><path d="m394.3 285c.8-.3 1.7-.7 2.5-1.1l2.4-1.1m-1.7-8 3.6 1.6"/><path d="m399.8 276.4 6.1-.3m-7.8 6.4 3.7.9 2.9.5m-5.7-8.5 2.7-1m-2.3 4.9 4.5 1m-3.6 5.7-4.3-2m-.4 14.3-4.7-.8m-4.5-1.1-4.9-.6m21.8-34.3 4.7 1.4m-21 27.9-5.1-1.1m6.3-5-4.2-.9m2.2-10.5-4.9-1.1m-1.5 3.4 5.9 1.2m9.8-12.2-6.8-1.4m-1.1 5.1 4.5 1.7"/></g><path d="m392.8 257.6 6.6 2z"/></g><path d="m628.5 316.1 17.5-11.5 39.5 1 20.5 13v13l-18.9 14h-36.6l-22-15.5z" fill="#fff"/><g fill="none" stroke="#000" stroke-linejoin="round"><path d="m627 317 23-14.3" stroke-linecap="round"/><path d="m629 315.1 24.7 17.1m29.8-27.6c7.1 4.6 16.5 10.5 23.5 14.5" stroke-linecap="round"/><path d="m686 332.2c4-3.4 15.2-9.9 21.4-14.5m-21.9 28.9c8-6 13.5-10 22-16" stroke-linecap="round"/><path d="m627 328.6c8 6 15 11 23.5 17m-1.8-15.2h42.7m-48.9-25.8 48 1m-42.4 40.1h40.2" stroke-linecap="round"/><path d="m629 313.2v18m77-14.6v18.2m-56-5.2v16.5m38-18v18.7" stroke-linecap="round"/><path d="m631 331.6 3.2-12.5zm-.5-15-1.5 5.8z"/><path d="m641.3 324.1-3.2 12.5m-3.2-2.5 3.2-12.5m7 5-3.3 13zm3.9 2.5-3.3 13m6.8-11.5-3.5 13.6zm4.4 0-3.8 14.6zm5.2 0-3.9 15.1m12.2-15.1-3.9 15.1m-4.4-.1 3.9-15.1zm12.4-14.5-3.7 14.5m7.5-14.5-3.7 14.5m4.4 0 3.7-14.5zm8.1-15-3.9 15m8.2-17-4.4 17m9.9-21-4.3 16.5m5-4 3.9-15m1.5 11.5 3.2-12.5z" stroke-linecap="round"/></g><path d="m685.5 293.1c-2.8 11-6.8 24.9-16 25.5-15 1-16-10.3-16-22 1.2-11 8.3-24 17.5-24s16.9 3 14.5 20.5z" fill="#fff"/><path d="m658.5 317.1c5.1 1 8.1 1.8 13.3 2.7" fill="none" stroke="#000" stroke-linecap="round" stroke-linejoin="round"/><path d="m674.8 275.6c-3.7 3.1-8.6 10.1-10.3 19.5-1.8 9.6-1.6 22.9 6 24.5 11.5-.5 15.5-27.9 15.5-34.5 0-6.8-5.3-16-13.5-7.5m-12.5 40c-11-7.5-6.7-35.6 4-43 4.5-3.1 7.9-3.1 17.5 0" fill="none" stroke="#000" stroke-linecap="round" stroke-linejoin="round"/><path d="m680.1 288.9c-4.8-7.4-10.8 1.3-5 6.8s2.2 15.1-7.6 7" fill="none" stroke="#000" stroke-linecap="round" stroke-linejoin="round"/><path d="m678.5 284c-2 7.3-4.9 15.9-7.8 23.7m5.3-32.9-8-2.2m4.5 5-9-2.5m4.5 9-9.5-2.5m8 6-10-2.5m14-4.5-10-2.5zm-6.2 15c-3.8-1-5.3-1-9.8-2m9.3 6.5-9.8-2.5m10.5-5.8-9-2.1zm-1 16.4-9-2m8.5-2.3-9-1.7zm3.1 11.9-9.6-1.8m7.7-1.7-9.2-2" fill="none" stroke="#000" stroke-linecap="round" stroke-linejoin="round"/><path d="m787.9 55.2c9.2 0 16.7 7.5 16.7 16.7 0 9-7.1 16.4-15.9 16.7l-5.9-10.3.2.3.4.6s1-1.5 3.5-2.1c4.3-1.1 4.7.4 8.9-.8 2.7-.7 5-2.6 5-2.6l-6.8-10.5s-2.4 1.9-5 2.6c-4.3 1.1-4.7-.4-8.9.8l-.3.1c-1.5.7-2.1 1.3-2.7 1.8l-.6.6s-.3.3-.4.3c-.5.3-.5 1.5-.2 2.2l10.3 19.4c.2.4.5.8 1 1 0 .1.2-.1.2 0-.2.1.3 0 .5 0 11 0 19.9-8.9 19.9-20s-8.9-20-19.9-20-19.9 8.9-19.9 20c0 9.4 7 17.4 15.7 19.6l-2.4-4.2-.1-.2c-5.6-2.7-10-8.5-10-15.2 0-9.3 7.5-16.8 16.7-16.8z" fill="url(#k)" opacity=".9"/><path d="m728.1 169.8v10.2h1.5v-7.4h.1l3 7.4h1.2l3-7.4h.1v7.4h1.5v-10.2h-1.9l-3.2 7.9h-.1l-3.2-7.9zm14.7 10.4c1.3 0 2-.6 2.3-1.2h.1v1h1.5v-5.1c0-2.2-1.8-2.7-3-2.7-1.4 0-2.7.6-3.2 1.9l1.4.3c.2-.5.8-1.1 1.8-1.1s1.5.5 1.5 1.4c0 .5-.6.5-1.9.7-1.4.2-2.9.5-2.9 2.3-.2 1.6.9 2.5 2.4 2.5zm.3-1.2c-.8 0-1.4-.4-1.4-1.1 0-.8.7-1.1 1.6-1.2.5-.1 1.6-.2 1.8-.4v1c0 .9-.8 1.7-2 1.7zm6.9-3.5c0-1.2.7-1.9 1.8-1.9 1 0 1.6.7 1.6 1.8v4.7h1.5v-4.9c0-1.9-1-2.9-2.6-2.9-1.1 0-1.9.5-2.3 1.3h-.1v-1.2h-1.4v7.6h1.5zm9.1 4.7c1.3 0 2-.6 2.3-1.2h.1v1h1.5v-5.1c0-2.2-1.8-2.7-3-2.7-1.4 0-2.7.6-3.2 1.9l1.4.3c.2-.5.8-1.1 1.8-1.1s1.5.5 1.5 1.4c0 .5-.6.5-1.9.7-1.4.2-2.9.5-2.9 2.3-.2 1.6.9 2.5 2.4 2.5zm.3-1.2c-.8 0-1.4-.4-1.4-1.1 0-.8.7-1.1 1.6-1.2.5-.1 1.6-.2 1.8-.4v1c0 .9-.7 1.7-2 1.7zm8.6 4c1.9 0 3.4-.9 3.4-2.9v-7.8h-1.4v1.2h-.1c-.3-.5-.8-1.3-2.2-1.3-1.8 0-3.2 1.5-3.2 3.9s1.4 3.7 3.2 3.7c1.4 0 1.9-.8 2.2-1.3h.1v1.5c0 1.2-.8 1.7-1.9 1.7-1.2 0-1.7-.6-2-1.1l-1.3.5c.4 1.1 1.4 1.9 3.2 1.9zm0-4.3c-1.3 0-2-1-2-2.5s.7-2.6 2-2.6 2 1.1 2 2.6-.7 2.5-2 2.5zm8.8 1.5c1.7 0 2.8-.8 3.2-2.1l-1.4-.3c-.3.7-.9 1.1-1.8 1.1-1.3 0-2.1-.8-2.2-2.3h5.4v-.5c0-2.8-1.7-3.8-3.4-3.8-2.1 0-3.5 1.6-3.5 4 0 2.3 1.4 3.9 3.7 3.9zm-2.2-4.7c.1-1.1.8-2 2.1-2 1.2 0 1.9.9 1.9 2zm10.9 4.5h1.5v-4.4h4.3v-1.3h-4.3v-3.1h4.8v-1.3h-6.3zm10.8.2c1.7 0 2.8-.8 3.2-2.1l-1.4-.3c-.3.7-.9 1.1-1.8 1.1-1.3 0-2.1-.8-2.2-2.3h5.4v-.5c0-2.8-1.7-3.8-3.4-3.8-2.1 0-3.5 1.6-3.5 4 .1 2.3 1.4 3.9 3.7 3.9zm-2.2-4.7c.1-1.1.8-2 2.1-2 1.2 0 1.9.9 1.9 2zm9.3 4.7c1.3 0 2-.6 2.3-1.2h.1v1h1.5v-5.1c0-2.2-1.8-2.7-3-2.7-1.4 0-2.7.6-3.2 1.9l1.4.3c.2-.5.8-1.1 1.8-1.1s1.5.5 1.5 1.4c0 .5-.6.5-1.9.7-1.4.2-2.9.5-2.9 2.3-.2 1.6 1 2.5 2.4 2.5zm.4-1.2c-.8 0-1.4-.4-1.4-1.1 0-.8.7-1.1 1.6-1.2.5-.1 1.6-.2 1.8-.4v1c-.1.9-.8 1.7-2 1.7zm8.9-6.6h-1.6v-1.8h-1.5v1.8h-1.1v1.2h1.1v4.5c0 1.4 1.1 2.1 2.2 2 .5 0 .8-.1 1-.2l-.3-1.2c-.1 0-.3.1-.5.1-.5 0-.9-.2-.9-1v-4.2h1.6zm6.5 4.4c0 1.3-1 1.9-1.8 1.9-.9 0-1.6-.7-1.6-1.7v-4.7h-1.5v4.9c0 1.9 1 2.9 2.5 2.9 1.1 0 1.9-.6 2.3-1.4h.1v1.3h1.5v-7.6h-1.5zm3.5 3.2h1.5v-4.7c0-1 .8-1.7 1.8-1.7.3 0 .7.1.8.1v-1.4c-.1 0-.4 0-.6 0-.9 0-1.7.5-1.9 1.3h-.1v-1.2h-1.4zm8.4.2c1.7 0 2.8-.8 3.2-2.1l-1.4-.3c-.3.7-.9 1.1-1.8 1.1-1.3 0-2.1-.8-2.2-2.3h5.4v-.5c0-2.8-1.7-3.8-3.4-3.8-2.1 0-3.5 1.6-3.5 4 0 2.3 1.4 3.9 3.7 3.9zm-2.2-4.7c.1-1.1.8-2 2.1-2 1.2 0 1.9.9 1.9 2zm10.9 4.5h1.5v-4.4h4.3v-1.3h-4.3v-3.1h4.8v-1.3h-6.3zm9.6-10.2h-1.5v10.2h1.5zm4.2 10.4c1.3 0 2-.6 2.3-1.2h.1v1h1.5v-5.1c0-2.2-1.8-2.7-3-2.7-1.4 0-2.7.6-3.2 1.9l1.4.3c.2-.5.8-1.1 1.8-1.1s1.5.5 1.5 1.4c0 .5-.6.5-1.9.7-1.4.2-2.9.5-2.9 2.3-.2 1.6.9 2.5 2.4 2.5zm.3-1.2c-.8 0-1.4-.4-1.4-1.1 0-.8.7-1.1 1.6-1.2.5-.1 1.6-.2 1.8-.4v1c-.1.9-.8 1.7-2 1.7zm8.6 4c1.9 0 3.4-.9 3.4-2.9v-7.8h-1.5v1.2h-.1c-.3-.5-.8-1.3-2.2-1.3-1.8 0-3.2 1.5-3.2 3.9s1.4 3.7 3.2 3.7c1.4 0 1.9-.8 2.2-1.3h.1v1.5c0 1.2-.8 1.7-1.9 1.7-1.2 0-1.7-.6-2-1.1l-1.3.5c.5 1.1 1.5 1.9 3.3 1.9zm0-4.3c-1.3 0-2-1-2-2.5s.7-2.6 2-2.6 2 1.1 2 2.6-.7 2.5-2 2.5zm11.2-4.5c-.3-1.2-1.2-2-2.9-2s-2.9.9-2.9 2.3c0 1.1.7 1.8 2.1 2.1l1.3.3c.7.2 1.1.5 1.1 1 0 .6-.6 1.1-1.6 1.1-.9 0-1.5-.4-1.6-1.1l-1.4.2c.2 1.4 1.4 2.1 3.1 2.1 1.8 0 3.1-1 3.1-2.4 0-1.1-.7-1.7-2.1-2.1l-1.2-.3c-.8-.2-1.2-.5-1.2-1 0-.6.6-1 1.5-1s1.4.5 1.5 1z"/><path clip-rule="evenodd" d="m665.8 224c6.3 0 11.6 4 13.2 10 5.2.6 9 4.9 9 10 0 5.6-4.4 10-10 10h-25.1c-4.3 0-7.9-3.6-7.9-7.9 0-4.1 3.2-7.6 7.2-7.9v-.7c0-7.4 6.1-13.5 13.6-13.5zm2 15.2.4.1c1.1.3 3.7.9 3.7 3.6 0 2.2-1.7 3.7-4.4 4v1.1c0 .2-.2.4-.4.4h-1c-.2 0-.4-.2-.4-.4v-1.1c-1.4-.2-2.6-.7-3.4-1.4-.7-.7-1.1-1.7-1.1-2.8h2.5c.1 1.5 1.2 2.4 3 2.4.6 0 2.7-.1 2.7-1.8 0-1.3-1.5-1.7-3.2-2.1l-.8-.2c-1.8-.5-3.8-1.2-3.8-3.5s2-3.5 4.1-3.7v-1.2c0-.2.2-.4.4-.4h1c.2 0 .4.2.4.4v1.2c1.6.2 3.9 1 4 3.8h-2.5c-.1-1.3-1-2-2.7-2-1 0-2.1.4-2.1 1.6-.1 1.1.5 1.2 3.6 2z" fill="url(#l)" fill-rule="evenodd"/><path d="m600.1 354.8v10.2h1.5v-7.4h.1l3 7.4h1.2l3-7.4h.1v7.4h1.5v-10.2h-1.9l-3.2 7.9h-.1l-3.2-7.9zm14.7 10.4c1.3 0 2-.6 2.3-1.2h.1v1h1.5v-5.1c0-2.2-1.8-2.7-3-2.7-1.4 0-2.7.6-3.2 1.9l1.4.3c.2-.5.8-1.1 1.8-1.1s1.5.5 1.5 1.4c0 .5-.6.5-1.9.7-1.4.2-2.9.5-2.9 2.3-.2 1.6.9 2.5 2.4 2.5zm.3-1.2c-.8 0-1.4-.4-1.4-1.1 0-.8.7-1.1 1.6-1.2.5-.1 1.6-.2 1.8-.4v1c0 .9-.8 1.7-2 1.7zm6.9-3.5c0-1.2.7-1.9 1.8-1.9 1 0 1.6.7 1.6 1.8v4.7h1.5v-4.9c0-1.9-1-2.9-2.6-2.9-1.1 0-1.9.5-2.3 1.3h-.1v-1.2h-1.4v7.6h1.5zm9.1 4.7c1.3 0 2-.6 2.3-1.2h.1v1h1.5v-5.1c0-2.2-1.8-2.7-3-2.7-1.4 0-2.7.6-3.2 1.9l1.4.3c.2-.5.8-1.1 1.8-1.1s1.5.5 1.5 1.4c0 .5-.6.5-1.9.7-1.4.2-2.9.5-2.9 2.3-.2 1.6.9 2.5 2.4 2.5zm.3-1.2c-.8 0-1.4-.4-1.4-1.1 0-.8.7-1.1 1.6-1.2.5-.1 1.6-.2 1.8-.4v1c0 .9-.7 1.7-2 1.7zm8.6 4c1.9 0 3.4-.9 3.4-2.9v-7.8h-1.4v1.2h-.1c-.3-.5-.8-1.3-2.2-1.3-1.8 0-3.2 1.5-3.2 3.9s1.4 3.7 3.2 3.7c1.4 0 1.9-.8 2.2-1.3h.1v1.5c0 1.2-.8 1.7-1.9 1.7-1.2 0-1.7-.6-2-1.1l-1.3.5c.4 1.1 1.4 1.9 3.2 1.9zm0-4.3c-1.3 0-2-1-2-2.5s.7-2.6 2-2.6 2 1.1 2 2.6-.7 2.5-2 2.5zm8.8 1.5c1.7 0 2.8-.8 3.2-2.1l-1.4-.3c-.3.7-.9 1.1-1.8 1.1-1.3 0-2.1-.8-2.2-2.3h5.4v-.5c0-2.8-1.7-3.8-3.4-3.8-2.1 0-3.5 1.6-3.5 4 0 2.3 1.4 3.9 3.7 3.9zm-2.2-4.7c.1-1.1.8-2 2.1-2 1.2 0 1.9.9 1.9 2zm19.3-2.4c-.3-2.2-2.1-3.5-4.2-3.5-2.6 0-4.6 2-4.6 5.2s1.9 5.2 4.6 5.2c2.2 0 3.9-1.4 4.2-3.4h-1.6c-.3 1.3-1.4 2-2.6 2-1.7 0-3.1-1.3-3.1-3.8s1.3-3.8 3.1-3.8c1.3 0 2.4.7 2.6 2h1.6zm3.2-3.3h-1.5v10.2h1.5zm5.2 10.4c2.2 0 3.6-1.6 3.6-3.9 0-2.4-1.4-4-3.6-4s-3.6 1.6-3.6 4c.1 2.3 1.5 3.9 3.6 3.9zm0-1.3c-1.4 0-2.1-1.2-2.1-2.7s.7-2.7 2.1-2.7 2.1 1.2 2.1 2.7-.7 2.7-2.1 2.7zm10.1-2.1c0 1.3-1 1.9-1.8 1.9-.9 0-1.6-.7-1.6-1.7v-4.7h-1.5v4.9c0 1.9 1 2.9 2.5 2.9 1.1 0 1.9-.6 2.3-1.4h.1v1.3h1.5v-7.6h-1.5zm6.3 3.3c1.4 0 1.9-.9 2.2-1.3h.1v1.2h1.5v-10.2h-1.5v3.8h-.1c-.3-.5-.8-1.3-2.2-1.3-1.8 0-3.2 1.5-3.2 3.9s1.4 3.9 3.2 3.9zm.4-1.2c-1.3 0-2-1.2-2-2.7s.7-2.7 2-2.7 2 1.1 2 2.7c-.1 1.6-.8 2.7-2 2.7zm17.8-5.8c-.3-2.2-2.1-3.5-4.2-3.5-2.6 0-4.6 2-4.6 5.2s1.9 5.2 4.6 5.2c2.2 0 3.9-1.4 4.2-3.4h-1.6c-.3 1.3-1.4 2-2.6 2-1.7 0-3.1-1.3-3.1-3.8s1.3-3.8 3.1-3.8c1.3 0 2.4.7 2.6 2h1.6zm4.9 7.1c2.2 0 3.6-1.6 3.6-3.9 0-2.4-1.4-4-3.6-4s-3.6 1.6-3.6 4c.1 2.3 1.5 3.9 3.6 3.9zm0-1.3c-1.4 0-2.1-1.2-2.1-2.7s.7-2.7 2.1-2.7 2.1 1.2 2.1 2.7-.7 2.7-2.1 2.7zm10.9-4.7c-.3-1.2-1.2-2-2.9-2s-2.9.9-2.9 2.3c0 1.1.7 1.8 2.1 2.1l1.3.3c.7.2 1.1.5 1.1 1 0 .6-.6 1.1-1.6 1.1-.9 0-1.5-.4-1.6-1.1l-1.4.2c.2 1.4 1.4 2.1 3.1 2.1 1.8 0 3.1-1 3.1-2.4 0-1.1-.7-1.7-2.1-2.1l-1.2-.3c-.8-.2-1.2-.5-1.2-1 0-.6.6-1 1.5-1s1.4.5 1.5 1zm5.4-1.8h-1.6v-1.8h-1.5v1.8h-1.1v1.2h1.1v4.5c0 1.4 1.1 2.1 2.2 2 .5 0 .8-.1 1-.2l-.3-1.2c-.1 0-.3.1-.5.1-.5 0-.9-.2-.9-1v-4.2h1.6zm7.2 1.8c-.3-1.2-1.2-2-2.9-2s-2.9.9-2.9 2.3c0 1.1.7 1.8 2.1 2.1l1.3.3c.7.2 1.1.5 1.1 1 0 .6-.6 1.1-1.6 1.1-.9 0-1.5-.4-1.6-1.1l-1.4.2c.2 1.4 1.4 2.1 3.1 2.1 1.8 0 3.1-1 3.1-2.4 0-1.1-.7-1.7-2.1-2.1l-1.2-.3c-.8-.2-1.2-.5-1.2-1 0-.6.6-1 1.5-1s1.4.5 1.5 1z"/><path clip-rule="evenodd" d="m506.5 87.6.6.3c.6.3 1.3.5 2 .5s1.4-.2 2-.5l.6-.3c9.6-5.4 15.5-15.5 15.5-26.4v-.3c0-1.4-.8-2.8-2-3.5l-3.3-1.8-12.7 19.2c-.2.2-.5.4-.9.4-.3 0-.7-.1-.9-.4l-5.9-6c-.3-.3-.5-.6-.3-1.1.3-.8 1-1.1 1.5-1.1s.6.1.9.4l3.9 3.8c.4.4 1 .3 1.3-.1l10.9-16.2-8.6-4.8c-1.2-.7-2.8-.7-4 0l-14.1 7.7c-1.3.7-2 2.1-2 3.5v.3c0 11 5.9 21 15.5 26.4z" fill="url(#m)" fill-rule="evenodd"/><path d="m462 154.8h-1.7l3.7 10.2h1.8l3.7-10.2h-1.7l-2.8 8.3h-.1zm11.3 10.4c1.7 0 2.8-.8 3.2-2.1l-1.4-.3c-.3.7-.9 1.1-1.8 1.1-1.3 0-2.1-.8-2.2-2.3h5.4v-.5c0-2.8-1.7-3.8-3.4-3.8-2.1 0-3.5 1.6-3.5 4 .1 2.3 1.5 3.9 3.7 3.9zm-2.1-4.7c.1-1.1.8-2 2.1-2 1.2 0 1.9.9 1.9 2zm7 4.5h1.5v-4.7c0-1 .8-1.7 1.8-1.7.3 0 .5 0 .8.1v-1.4c-.1 0-.4 0-.6 0-.9 0-1.7.5-1.9 1.3h-.1v-1.2h-1.4zm5.4 0h1.5v-7.6h-1.5zm.7-8.8c.5 0 .9-.4.9-.9s-.4-.9-.9-.9-.9.4-.9.9.4.9.9.9zm6.4 1.2h-1.6v-.7c0-.7.3-1 1-1 .3 0 .5.1.7.1l.3-1.2c-.2-.1-.6-.2-1.2-.2-1.2 0-2.3.7-2.3 2.1v.9h-1.2v1.2h1.2v6.4h1.5v-6.4h1.6zm2.5 10.5c1.2 0 2-.6 2.4-1.8l3.2-8.6h-1.6l-1.9 5.9h-.1l-1.9-5.9h-1.6l2.8 7.7-.2.5c-.4 1-.9 1.1-1.7.9l-.4 1.2c.1 0 .5.1 1 .1zm19.2-9.8c-.3-2.2-2.1-3.4-4.2-3.4-2.6 0-4.6 2-4.6 5.2s1.9 5.2 4.6 5.2c2.2 0 3.9-1.4 4.2-3.4h-1.6c-.3 1.3-1.4 2-2.6 2-1.7 0-3.1-1.3-3.1-3.8s1.3-3.8 3.1-3.8c1.3 0 2.4.7 2.6 2zm3.2 2.4c0-1.2.8-1.9 1.8-1.9s1.6.7 1.6 1.8v4.7h1.5v-4.9c0-1.9-1-2.9-2.6-2.9-1.2 0-1.9.5-2.3 1.3h-.1v-3.8h-1.5v10.2h1.5zm9.2 4.7c1.3 0 2-.6 2.3-1.2h.1v1h1.5v-5.1c0-2.2-1.8-2.7-3-2.7-1.4 0-2.7.6-3.2 1.9l1.4.3c.2-.5.8-1.1 1.8-1.1s1.5.5 1.5 1.4c0 .5-.6.5-1.9.7-1.4.2-2.9.5-2.9 2.3-.2 1.6.9 2.5 2.4 2.5zm.3-1.2c-.8 0-1.4-.4-1.4-1.1 0-.8.7-1.1 1.6-1.2.5-.1 1.6-.2 1.8-.4v1c0 .9-.8 1.7-2 1.7zm6.9-3.5c0-1.2.7-1.9 1.8-1.9 1 0 1.6.7 1.6 1.8v4.7h1.5v-4.9c0-1.9-1-2.9-2.6-2.9-1.1 0-1.9.5-2.3 1.3h-.1v-1.2h-1.4v7.6h1.5zm10.1 7.5c1.9 0 3.4-.9 3.4-2.9v-7.8h-1.5v1.2c-.3-.5-.8-1.3-2.2-1.3-1.8 0-3.2 1.5-3.2 3.9s1.4 3.7 3.2 3.7c1.4 0 1.9-.8 2.2-1.3h.1v1.5c0 1.2-.8 1.7-1.9 1.7-1.2 0-1.7-.6-2-1.1l-1.3.5c.3 1.1 1.4 1.9 3.2 1.9zm0-4.3c-1.3 0-2-1-2-2.5s.7-2.6 2-2.6 2 1.1 2 2.6-.8 2.5-2 2.5zm8.7 1.5c1.7 0 2.8-.8 3.2-2.1l-1.4-.3c-.3.7-.9 1.1-1.8 1.1-1.3 0-2.1-.8-2.2-2.3h5.4v-.5c0-2.8-1.7-3.8-3.4-3.8-2.1 0-3.5 1.6-3.5 4 .1 2.3 1.4 3.9 3.7 3.9zm-2.2-4.7c.1-1.1.8-2 2.1-2 1.2 0 1.9.9 1.9 2zm12.8-1.3c-.3-1.2-1.2-2-2.9-2s-2.9.9-2.9 2.3c0 1.1.7 1.8 2.1 2.1l1.3.3c.7.2 1.1.5 1.1 1 0 .6-.6 1.1-1.6 1.1-.9 0-1.5-.4-1.6-1.1l-1.4.2c.2 1.4 1.4 2.1 3.1 2.1 1.8 0 3.1-1 3.1-2.4 0-1.1-.7-1.7-2.1-2.1l-1.2-.3c-.8-.2-1.2-.5-1.2-1 0-.6.6-1 1.5-1s1.4.5 1.5 1z"/><path clip-rule="evenodd" d="m398.3 208.4c-2.3 1.4-4 3.6-4.7 6.3l-.6 2.5 5 1.4.6-2.5c.7-2.7 3.4-4.3 6-3.6s4.2 3.5 3.5 6.2-3.4 4.3-6 3.6h-.1l-14.4-4c-2.6-.7-5.3-.4-7.6 1s-4 3.6-4.7 6.3-.3 5.5 1 7.9 3.5 4.1 6.1 4.9 5.3.4 7.6-1 4-3.6 4.7-6.3l.6-2.5-5-1.4-.6 2.5c-.7 2.7-3.4 4.3-6 3.6s-4.2-3.5-3.5-6.2c.3-1.3 1.1-2.4 2.3-3.1 1.1-.6 2.4-.9 3.7-.5l14.4 4c2.6.7 5.3.4 7.6-1s4-3.6 4.7-6.3.3-5.5-1-7.9-3.5-4.1-6.1-4.9-5.1-.4-7.5 1z" fill="url(#n)" fill-rule="evenodd"/><path d="m376.7 346c3.1 0 4.9-1.9 4.9-5.1s-1.8-5.1-4.8-5.1h-3.4v10.2zm-1.8-1.3v-7.5h1.8c2.2 0 3.4 1.3 3.4 3.7s-1.1 3.8-3.5 3.8zm11.7 1.5c1.7 0 2.8-.8 3.2-2.1l-1.4-.3c-.3.7-.9 1.1-1.8 1.1-1.3 0-2.1-.8-2.2-2.3h5.4v-.5c0-2.8-1.7-3.8-3.4-3.8-2.1 0-3.5 1.6-3.5 4 .1 2.3 1.5 3.9 3.7 3.9zm-2.1-4.7c.1-1.1.8-2 2.1-2 1.2 0 1.9.9 1.9 2zm7 7.4h1.5v-4.1h.1c.3.5.8 1.3 2.2 1.3 1.8 0 3.2-1.5 3.2-4s-1.4-3.9-3.2-3.9c-1.4 0-1.9.9-2.2 1.3h-.1v-1.2h-1.5zm1.5-6.7c0-1.6.7-2.7 2-2.7s2 1.1 2 2.7c0 1.5-.7 2.7-2 2.7s-2-1.1-2-2.7zm8.7-6.4h-1.5v10.2h1.5zm5.2 10.4c2.2 0 3.6-1.6 3.6-3.9 0-2.4-1.4-4-3.6-4s-3.6 1.6-3.6 4c0 2.3 1.4 3.9 3.6 3.9zm0-1.3c-1.4 0-2.1-1.2-2.1-2.7s.7-2.7 2.1-2.7 2.1 1.2 2.1 2.7-.7 2.7-2.1 2.7zm5.8 4c1.2 0 2-.6 2.4-1.8l3.2-8.6h-1.6l-1.9 5.9h-.1l-1.9-5.9h-1.6l2.8 7.7-.2.5c-.4 1-.9 1.1-1.7.9l-.4 1.2c.2 0 .6.1 1 .1z"/><path clip-rule="evenodd" d="m189.8 259c0 2.8-.6 5.5-1.6 7.9l-7.2-7.1c.9-1.4 1.3-3 1.3-4.8.1-5-4-9-9-9-1.8 0-3.5.5-4.8 1.4l-6.7-6.6c2.5-1.1 5.2-1.7 8.1-1.7 11-.1 19.9 8.9 19.9 19.9zm-30.8-16.7 7.2 7.2c-1.2 1.6-1.9 3.5-1.9 5.6 0 5 4.1 9.1 9.1 9.1 2.1 0 4-.7 5.5-1.9l7.7 7.7c-3.6 5.4-9.7 9-16.7 9-11 0-19.9-9-19.9-20 0-7 3.5-13.1 9-16.7zm14.4 18.4c3.4 0 6.1-2.7 6.1-6.1s-2.7-6.1-6.1-6.1-6.1 2.7-6.1 6.1 2.7 6.1 6.1 6.1z" fill="url(#o)" fill-rule="evenodd"/><path d="m157.5 361h3.9c2.4 0 3.4-1.2 3.4-2.7 0-1.6-1.1-2.5-2.1-2.5v-.1c.9-.2 1.7-.9 1.7-2.1 0-1.5-1-2.7-3.2-2.7h-3.7zm1.6-1.3v-3.3h2.3c1.2 0 2 .8 2 1.8 0 .9-.6 1.5-2.1 1.5zm0-4.5v-3.1h2.1c1.2 0 1.8.6 1.8 1.5 0 1-.8 1.6-1.8 1.6zm12.3 2.6c0 1.3-1 1.9-1.8 1.9-.9 0-1.6-.7-1.6-1.7v-4.7h-1.5v4.9c0 1.9 1 2.9 2.5 2.9 1.1 0 1.9-.6 2.3-1.4h.1v1.3h1.5v-7.6h-1.5zm3.5 3.2h1.5v-7.6h-1.5zm.7-8.8c.5 0 .9-.4.9-.9s-.4-.9-.9-.9-.9.4-.9.9.4.9.9.9zm4.2-1.4h-1.5v10.2h1.5zm4.9 10.3c1.4 0 1.9-.9 2.2-1.3h.1v1.2h1.5v-10.2h-1.5v3.8h-.1c-.3-.5-.8-1.3-2.2-1.3-1.8 0-3.2 1.5-3.2 3.9s1.3 3.9 3.2 3.9zm.3-1.2c-1.3 0-2-1.2-2-2.7s.7-2.7 2-2.7 2 1.1 2 2.7-.7 2.7-2 2.7z"/></svg>