<svg width="320" height="200" fill="none" xmlns="http://www.w3.org/2000/svg"><path fill="#fff" d="M0 0h320v200H0z"/><path fill-rule="evenodd" clip-rule="evenodd" d="M176.69 99.205c.154.229.029.507-.277.621-2.9 1.082-5.827 2.164-8.747 3.236 12.136.672 29.191 1.479 40.686 1.986a793.09 793.09 0 0 1-3.546-3.507c-.206-.204-.15-.494.124-.648.274-.153.663-.112.869.093a785.637 785.637 0 0 0 4.186 4.134c2.571.112 4.807.206 6.571.277.342.014.605.232.586.487-.018.256-.311.452-.653.438-1.517-.061-3.383-.14-5.512-.232 3.807 3.715 7.464 7.19 10.034 9.447a225.46 225.46 0 0 0 4.476-1.716c.303-.12.678-.035.84.191.161.225.047.506-.256.626-.895.356-1.881.738-2.938 1.139 12.425.372 29.09.916 40.849 1.334l-2.041-1.64c-.234-.188-.219-.481.032-.655.251-.174.644-.163.877.025l2.904 2.334c3.083.111 5.761.212 7.845.295.342.014.604.232.586.488-.019.255-.311.451-.653.437-1.791-.072-4.021-.156-6.571-.249 5.271 4.237 10.002 8.035 13.226 10.526 1.218-.469 2.427-.943 3.636-1.424.302-.12.678-.035.84.191.161.226.046.506-.256.626a356.64 356.64 0 0 1-3.317 1.301c.351.268.679.516.982.742.243.181.243.474 0 .655a.78.78 0 0 1-.877 0c-.382-.285-.802-.603-1.258-.953-6.702 2.569-13.702 5.051-22.334 8.112l-1.635.58c2.762.1 5.171.191 7.08.268.343.013.605.232.587.487-.019.255-.311.451-.653.437-2.423-.097-5.651-.217-9.386-.351l-.163.058 1.283 1.032.001.001c5.818 4.678 11.072 8.902 14.512 11.553a529.15 529.15 0 0 0 4.045-1.588c.302-.12.678-.035.839.191.162.225.047.506-.255.626-1.13.45-2.379.941-3.725 1.464.271.206.527.399.768.579.242.18.242.474 0 .654a.778.778 0 0 1-.878 0c-.32-.239-.668-.502-1.041-.787-7.797 3.017-18.405 6.977-27.979 10.444 2.02.074 3.806.143 5.29.202.342.014.605.232.586.488-.018.255-.311.451-.653.437a1964.97 1964.97 0 0 0-7.554-.285c-1.562.562-3.087 1.108-4.556 1.63-.31.11-.68.012-.828-.219-.147-.231-.015-.507.294-.617l2.487-.887a8001.863 8001.863 0 0 0-44.082-1.427l.132.115c.223.194.193.486-.068.653-.26.166-.652.144-.875-.051l-.16-.139-.225-.198c-8.051 3.151-20.23 7.708-30.997 11.603l.24.01c.342.013.604.232.586.487-.019.255-.311.451-.653.437l-2.481-.102c-1.384.498-2.736.982-4.045 1.447-.31.11-.68.011-.827-.219-.148-.231-.016-.508.293-.618l2.018-.719c-11.44-.493-30.948-1.406-44.28-2.147l.223.25c.191.212.113.5-.172.642-.285.141-.67.084-.86-.129l-.764-.852a876.407 876.407 0 0 1-5.023-.297c-.342-.021-.596-.245-.567-.5.028-.255.328-.444.67-.423 1.233.077 2.585.158 4.035.241-3.079-3.393-6.65-7.195-11.315-12.079a1274.72 1274.72 0 0 0-5.48 2.029c-.306.114-.678.021-.832-.207-.153-.229-.029-.507.278-.622 1.376-.513 2.8-1.04 4.263-1.58l-1.912-.081h-.001c-10.766-.454-25.838-1.089-40.423-1.16.343.38.68.756 1.012 1.128.19.212.113.5-.172.642-.285.141-.67.084-.86-.129-.483-.54-.976-1.087-1.482-1.646l-1.104-.001c-.343 0-.62-.207-.62-.463s.277-.463.62-.463h.261c-3.01-3.3-6.51-7.017-11.024-11.738-1.065.34-2.151.69-3.264 1.051-.314.102-.68-.005-.817-.24-.136-.234.008-.507.322-.609a785.51 785.51 0 0 1 3.021-.974l-.176-.184c-.2-.208-.135-.497.144-.646.28-.148.667-.1.866.108l.334.349c3.015-.961 5.86-1.853 8.648-2.726h.001c8.028-2.515 15.574-4.879 25.295-8.327a.355.355 0 0 1 .039-.351c-2.781-3.043-5.983-6.448-10.009-10.667-1.13.362-2.283.733-3.467 1.117-.314.102-.68-.006-.816-.24-.137-.235.007-.508.321-.61 1.1-.356 2.173-.702 3.225-1.038l-1-1.046c-.2-.208-.135-.497.144-.646.279-.149.666-.1.866.108l1.158 1.211c2.938-.936 5.716-1.807 8.44-2.66l.003-.001h.001l.001-.001c6.439-2.017 12.567-3.936 19.756-6.396a.372.372 0 0 1-.074-.219c0-.256.278-.463.62-.463.476 0 .952 0 1.428.002 1.646-.571 3.35-1.171 5.128-1.808.31-.11.68-.013.828.217.149.231.019.507-.29.618-.948.339-1.874.668-2.782.988 14.086.109 28.448.714 38.795 1.151l.803.034c-.712-.747-1.451-1.52-2.217-2.321-.2-.208-.135-.498.144-.646.279-.149.666-.101.866.107l2.465 2.581c4.959-1.842 10.473-3.851 16.236-5.951l1.002-.365c2.516-.917 5.076-1.85 7.654-2.793-.866-.051-1.69-.101-2.467-.149-.342-.022-.596-.245-.567-.5.028-.255.328-.444.67-.423 1.379.086 2.908.176 4.554.27a1999.8 1999.8 0 0 0 10.63-3.927c.306-.114.679-.022.832.207Zm41.547 17.354-.548-.016c-.342-.009-.609-.225-.596-.48.013-.256.301-.455.644-.445l1.801.052c-2.702-2.407-6.405-5.943-10.195-9.651-12.149-.532-31.301-1.437-43.872-2.151a4651.783 4651.783 0 0 1-9.543 3.484l-.999.365a3040.893 3040.893 0 0 0-15.08 5.522l1.569.064c.342.013.604.231.586.487-.019.255-.311.451-.653.437l-1.958-.08c3.766 3.963 6.776 7.191 9.435 10.134l1.28.072c2.82-.952 5.791-1.983 9.002-3.133.309-.11.68-.013.828.217.149.231.018.507-.291.618a519.962 519.962 0 0 1-6.964 2.44c11.791.641 27.443 1.381 38.356 1.864-.045-.166.036-.337.208-.445l-.736-.593-.002-.001-.027-.022-.061-.049-2.95-2.371c-.233-.187-.219-.48.032-.654.252-.174.644-.164.877.024l2.926 2.352.096.077.016.013.008.006 1.002.805c5.095-1.698 16.72-5.628 25.809-8.942Zm-24.918 9.659c5.693-1.9 18.39-6.202 27.521-9.583 13.03.385 31.849.998 44.348 1.447 5.469 4.396 10.438 8.39 13.847 11.033-6.58 2.515-13.473 4.959-21.964 7.97l-3.727 1.322-1.2-.042-.465-.374c-.233-.187-.626-.198-.877-.024-.133.092-.2.218-.198.344a7953.301 7953.301 0 0 0-43.417-1.394.799.799 0 0 0-.31.052c-2.755-2.092-7.061-5.532-12.021-9.516 1.846.079 3.475.147 4.827.202.343.014.635-.182.653-.438.019-.255-.244-.473-.586-.487-1.658-.067-3.734-.154-6.114-.258l-.317-.254Zm45.097 37.258c9.941-3.583 21.346-7.83 29.663-11.044-3.456-2.672-8.603-6.811-14.271-11.368l-.07-.056-.045-.037-2.114-1.699a8041.416 8041.416 0 0 0-43.795-1.411.42.42 0 0 1-.181.309.778.778 0 0 1-.878 0c-2.848-2.125-7.863-6.137-13.66-10.795-11.6-.506-29.995-1.371-42.734-2.081l-.455.154.089.099c.19.213.113.5-.172.642-.285.142-.67.085-.86-.128l-.205-.229c-5.641 1.882-10.734 3.478-16.024 5.135h-.001v.001h-.002l-.002.001c-3.677 1.152-7.451 2.334-11.569 3.663.243.07.41.251.395.456-.019.256-.311.452-.653.438l-.129-.005c5.254 5.204 10.841 10.598 14.284 13.596.223.194.193.486-.067.653-.26.166-.652.144-.875-.051-3.61-3.141-9.529-8.871-14.959-14.262-10.783-.418-25.615-.854-43.17-1.281.478.528.944 1.046 1.401 1.557.19.213.113.501-.172.643-.285.141-.67.084-.86-.129a308.487 308.487 0 0 0-1.579-1.753c-9.961 3.543-17.656 5.953-25.82 8.511h-.001v.001h-.004c-2.701.847-5.454 1.709-8.357 2.634 4.678 4.894 8.268 8.713 11.36 12.114 14.883.049 30.37.702 41.341 1.165l2.377.1-.068-.072c-.2-.208-.135-.497.144-.646.279-.148.666-.1.866.108l.647.676.134.006c3.522-1.294 7.245-2.651 11.079-4.048l.008-.002.003-.002.003-.001h.001l1.001-.365a2886.809 2886.809 0 0 0 20.474-7.522c.307-.114.68-.022.833.207.153.229.029.507-.278.621a2868.796 2868.796 0 0 1-20.484 7.526l-1 .364-.001.001-.011.004-.008.003-.012.004-.004.002-.013.005h-.002l-.01.004c-3.37 1.228-6.653 2.424-9.787 3.573a.352.352 0 0 1 .027.163c-.019.255-.311.451-.653.437l-.378-.015c4.814 5.042 8.46 8.931 11.613 12.423 14.221.801 36.252 1.823 47.47 2.296 11.069-3.983 24.069-8.836 32.618-12.177a.359.359 0 0 1-.067-.216c-3.777-3.407-9.211-8.693-14.15-13.607-.206-.204-.151-.494.124-.648.274-.153.663-.112.868.093 5.016 4.989 10.522 10.342 14.278 13.72l.582.016 1.11-.439c.302-.121.678-.035.84.19a.36.36 0 0 1 .061.308c13.2.39 32.391 1.015 44.916 1.467Zm-101.89-49.449-.516-.022h-.001c-10.989-.463-26.466-1.116-41.331-1.163-7.974 2.759-14.592 4.833-21.552 7.013h-.001c-2.64.827-5.327 1.669-8.157 2.57 4.081 4.277 7.315 7.72 10.128 10.804l.307.007a.827.827 0 0 1 .434.011c17.22.418 31.837.845 42.598 1.256a.475.475 0 0 1 .234-.272.802.802 0 0 1 .683-.03.662.662 0 0 1 .062-.024c4.627-1.501 8.793-2.806 12.836-4.072l.002-.001c5.128-1.606 10.06-3.151 15.487-4.956a956.58 956.58 0 0 1-3.974-.237c-.342-.022-.595-.245-.567-.5.029-.255.329-.444.67-.423 1.046.065 2.177.133 3.38.203-2.652-2.922-5.671-6.15-9.439-10.11l-.204-.009-.289.108c-.281.105-.618.035-.79-.153Z" fill="#B0B1C4"/><path d="m114.512 121.439 32.91-11.074h45.817l16.778 6.865v18.171l-32.265 12.037h-49.043l-14.197-14.444v-11.555Z" fill="#fff"/><path fill-rule="evenodd" clip-rule="evenodd" d="M177.841 148.158c.177.231.571.311.88.179 4.891-2.085 10.518-4.303 16.703-6.741 5.249-2.069 10.9-4.297 16.844-6.736.313-.128.427-.421.255-.654-.172-.233-.564-.318-.877-.19-5.893 2.418-11.537 4.643-16.791 6.715-6.214 2.45-11.882 4.684-16.774 6.77-.309.132-.417.426-.24.657ZM114.783 133.567c.289-.157.692-.109.902.106l1.54 1.581c4.309 4.426 7.373 7.574 11.993 11.882.223.208.178.511-.1.677-.279.166-.685.132-.907-.075-4.64-4.327-7.721-7.492-12.029-11.917l-1.541-1.582c-.21-.215-.146-.516.142-.672Z" fill="#000"/><path fill-rule="evenodd" clip-rule="evenodd" d="M115.165 115.66c.356 0 .645.216.645.482v18.589c0 .266-.289.482-.645.482-.357 0-.645-.216-.645-.482v-18.589c0-.266.288-.482.645-.482ZM209.378 116.623c.356 0 .645.216.645.482v18.813c0 .266-.289.482-.645.482-.357 0-.646-.216-.646-.482v-18.813c0-.266.289-.482.646-.482ZM128.035 127.283c.253 0 .457.263.457.587v20.762c0 .324-.204.587-.457.587-.252 0-.457-.263-.457-.587V127.87c0-.324.205-.587.457-.587ZM178.401 131.068c.357 0 .646.216.646.482 0 .835.023 2.317.051 4.104.079 4.983.195 12.343-.053 14.71-.028.266-.339.464-.694.443-.355-.021-.621-.252-.593-.518.243-2.32.129-9.557.05-14.536-.028-1.819-.052-3.337-.052-4.203 0-.266.289-.482.645-.482Z" fill="#000"/><path fill-rule="evenodd" clip-rule="evenodd" d="M185.958 148.4H129.36c-.356 0-.645-.215-.645-.481s.289-.481.645-.481h56.598c.356 0 .645.215.645.481s-.289.481-.645.481ZM120.455 121.147c.345.067.535.381.424.702l-4.293 12.429c-.111.321-.481.528-.826.462-.345-.067-.535-.381-.424-.702l4.293-12.429c.111-.321.481-.528.826-.462Zm3.728 3.673c.345.066.534.381.424.702l-4.301 12.452c-.111.321-.481.528-.826.461-.345-.066-.535-.38-.424-.702l4.301-12.451c.111-.322.48-.528.826-.462Zm4.26 4.197c.345.066.535.381.424.702l-4.293 12.429c-.111.321-.481.528-.826.461-.345-.066-.535-.38-.424-.702l4.293-12.428c.111-.322.481-.528.826-.462Z" fill="#000"/><path fill-rule="evenodd" clip-rule="evenodd" d="M143.909 128.326c.342.1.538.455.437.793l-5.456 18.3a.645.645 0 0 1-.801.43.637.637 0 0 1-.437-.792l5.456-18.301c.1-.337.459-.53.801-.43Zm-5.251-.895c.342.1.538.454.437.792l-6.231 19.626a.646.646 0 0 1-.801.43.637.637 0 0 1-.437-.792l6.231-19.626c.1-.338.459-.53.801-.43Zm-4.993-.178c.342.1.538.455.437.792l-5.266 16.632a.645.645 0 0 1-.801.43.637.637 0 0 1-.437-.792l5.266-16.632c.1-.338.459-.53.801-.43ZM161.776 128.254c.342.1.538.455.437.792l-5.456 18.301a.645.645 0 0 1-.801.429.637.637 0 0 1-.437-.792l5.456-18.3a.645.645 0 0 1 .801-.43Zm-5.706-.203c.342.1.538.455.437.792l-5.456 18.3a.645.645 0 0 1-.801.43.637.637 0 0 1-.437-.792l5.456-18.3a.645.645 0 0 1 .801-.43Zm-6.005.424c.342.1.537.455.437.792l-5.69 18.669a.647.647 0 0 1-1.239-.363l5.691-18.668c.1-.338.459-.53.801-.43ZM177.861 128.826c.342.1.537.455.437.793l-5.456 18.3a.647.647 0 0 1-.802.43.637.637 0 0 1-.436-.792l5.456-18.301c.1-.337.459-.53.801-.43Zm-5.706-.203c.342.1.537.455.436.792l-5.456 18.301a.645.645 0 0 1-.801.43.639.639 0 0 1-.437-.793l5.456-18.3a.647.647 0 0 1 .802-.43Zm-4.993-.178a.638.638 0 0 1 .436.793l-5.456 18.3a.644.644 0 0 1-.801.43.638.638 0 0 1-.437-.792l5.456-18.301a.647.647 0 0 1 .802-.43ZM198.077 117.339a.672.672 0 0 1 .464.815l-6.069 24.212a.644.644 0 0 1-.786.481.672.672 0 0 1-.464-.815l6.069-24.212a.644.644 0 0 1 .786-.481Zm-6.794 5.332a.673.673 0 0 1 .464.816l-5.253 21.14a.643.643 0 0 1-.785.481.67.67 0 0 1-.464-.815l5.252-21.141a.644.644 0 0 1 .786-.481Zm-5.574 1.361a.673.673 0 0 1 .463.816l-5.71 22.064a.644.644 0 0 1-.786.481.672.672 0 0 1-.464-.815l5.711-22.064a.644.644 0 0 1 .786-.482ZM203.34 119.162a.672.672 0 0 1 .464.815l-4.989 20.08a.644.644 0 0 1-.786.481.672.672 0 0 1-.464-.815l4.989-20.08a.644.644 0 0 1 .786-.481Zm5.913-1.955a.672.672 0 0 1 .464.815l-5.363 19.774a.643.643 0 0 1-.786.481.672.672 0 0 1-.464-.815l5.363-19.774a.644.644 0 0 1 .786-.481Z" fill="#000"/><path d="m114.904 116.085 32.911-11.073h45.817l16.133 12.036-2.581.963-29.039 10.592h-49.044l-12.492-10.592-1.705-1.926Z" fill="#fff"/><path fill-rule="evenodd" clip-rule="evenodd" d="M110.185 112.826c.272-.172.679-.147.91.056 2.126 1.868 3.971 3.503 5.646 4.987 5.548 4.916 9.221 8.17 14.993 12.75.244.193.231.498-.028.68-.26.182-.668.173-.913-.021-5.797-4.6-9.496-7.877-15.052-12.799a1768.115 1768.115 0 0 0-5.63-4.974c-.231-.203-.197-.507.074-.679Z" fill="#000"/><path fill-rule="evenodd" clip-rule="evenodd" d="M154.216 102.897c.14.245-.011.528-.339.633-18.067 5.777-30.957 10.105-40.601 13.768-.317.121-.706.027-.868-.21-.161-.237-.035-.527.283-.648 9.684-3.679 22.607-8.017 40.678-13.795.327-.105.706.008.847.252ZM191.884 103.709a.81.81 0 0 1 .913 0c8.388 6.258 12.252 9.142 20.631 14.912.262.181.278.485.037.681-.242.195-.65.207-.912.027-8.399-5.784-12.278-8.678-20.668-14.938l-.001-.001c-.252-.188-.252-.493 0-.681Z" fill="#000"/><path fill-rule="evenodd" clip-rule="evenodd" d="M174.988 129.783c.16.237.547.334.866.215 5.163-1.926 21.936-8.183 35.481-12.996.322-.114.458-.401.305-.641-.153-.24-.538-.342-.86-.228-13.557 4.817-30.339 11.077-35.502 13.003l-.001.001c-.319.119-.448.408-.289.646Z" fill="#000"/><path fill-rule="evenodd" clip-rule="evenodd" d="M124.834 128.654c0-.252.293-.457.654-.457h60.845c.361 0 .653.205.653.457 0 .253-.292.457-.653.457h-60.845c-.361 0-.654-.204-.654-.457ZM200.544 105.494h-56.598c-.356 0-.645-.215-.645-.481s.289-.482.645-.482h56.598c.356 0 .645.216.645.482s-.289.481-.645.481Z" fill="#000"/><path fill-rule="evenodd" clip-rule="evenodd" d="M97.49 35.485c.336-.213.842-.182 1.128.07 2.638 2.318 4.928 4.348 7.007 6.189 6.886 6.1 11.445 10.14 18.607 15.823.303.24.288.619-.035.845-.322.226-.829.214-1.132-.026-7.194-5.71-11.786-9.777-18.68-15.885-2.076-1.84-4.361-3.864-6.988-6.173-.286-.252-.245-.63.092-.843Z" fill="#4F5162"/><path fill-rule="evenodd" clip-rule="evenodd" d="M152.134 23.163c.174.303-.014.655-.42.785-22.423 7.17-38.42 12.54-50.389 17.088-.395.15-.877.032-1.077-.262-.201-.294-.044-.654.35-.803 12.019-4.566 28.058-9.95 50.485-17.122.406-.13.877.01 1.051.314ZM198.885 24.171c.313-.233.82-.233 1.133 0 10.409 7.767 15.205 11.345 25.605 18.507.325.224.345.602.045.845-.3.242-.807.257-1.132.033-10.423-7.178-15.237-10.77-25.65-18.539h-.001c-.313-.234-.313-.613 0-.846Z" fill="#4F5162"/><path fill-rule="evenodd" clip-rule="evenodd" d="M177.913 56.529c.198.295.679.415 1.074.267 6.408-2.39 27.225-10.156 44.035-16.128.399-.142.569-.499.379-.797-.19-.298-.668-.424-1.068-.282-16.825 5.978-37.653 13.748-44.061 16.138h-.001c-.396.148-.556.507-.358.802Z" fill="#4F5162"/><path fill-rule="evenodd" clip-rule="evenodd" d="M115.67 55.13c0-.314.363-.568.811-.568h75.514c.448 0 .811.255.811.568 0 .313-.363.567-.811.567h-75.514c-.448 0-.811-.254-.811-.567ZM209.629 26.384h-70.242c-.442 0-.801-.267-.801-.597 0-.33.359-.598.801-.598h70.242c.442 0 .801.268.801.598 0 .33-.359.598-.801.598Z" fill="#4F5162"/><path fill-rule="evenodd" clip-rule="evenodd" d="m100.388 41.192-.472-2.427.982-.19.472 2.426-.982.191Zm121.968-2.446-.375 2.427-.988-.152.374-2.428.989.153ZM102.278 50.901l-.945-4.854.982-.191.945 4.854-.982.19Zm118.954-4.874-.75 4.855-.988-.153.749-4.854.989.152Zm-22.422 3.136-.17 2.301-.997-.073.17-2.301.997.073ZM104.168 60.61l-.945-4.855.981-.19.945 4.853-.981.191Zm115.565-4.874-.749 4.854-.989-.152.75-4.855.988.153Zm-21.433.33-.339 4.602-.998-.074.34-4.601.997.073Zm-78.265 2.993-.316-2.606.992-.12.317 2.606-.993.12Zm24.376-.225-.209-2.398.996-.087.21 2.398-.997.087Zm37.291-2.416-.13 2.606-.999-.05.13-2.606.999.05Zm-36.454 12.007-.418-4.795.996-.087.418 4.795-.996.087Zm-23.947 1.06-.633-5.213.993-.12.633 5.212-.993.12Zm60.01-5.248-.26 5.212-.999-.05.261-5.212.998.05Zm16.31 1.033-.34 4.602-.997-.074.34-4.602.997.074Zm-91.564 5.048-.945-4.854.982-.191.945 4.854-.982.191Zm112.177-4.873-.749 4.854-.988-.153.749-4.854.988.153Zm-72.149 12.572-.418-4.796.996-.087.418 4.796-.996.086Zm50.856-3.543-.339 4.602-.998-.074.34-4.602.997.074Zm-74.374 5.436-.633-5.213.993-.12.633 5.212-.993.12Zm58.223-5.248-.261 5.213-.998-.05.26-5.213.999.05Zm-72.843 5.365-.945-4.855.982-.19.944 4.853-.981.192Zm108.789-4.874-.75 4.854-.988-.152.749-4.855.989.153Zm-69.814 12.455-.418-4.796.996-.087.418 4.796-.996.087Zm49.34-3.93-.34 4.601-.997-.073.34-4.602.997.073Zm-86.426 6.057-.944-4.854.981-.191.945 4.854-.982.191Zm105.401-4.873-.749 4.854-.989-.153.75-4.854.988.153Zm-91.404 5.473-.633-5.212.993-.121.633 5.213-.993.12Zm56.436-5.248-.261 5.213-.999-.05.261-5.213.999.05ZM147.759 97.2l-.419-4.796.997-.087.418 4.796-.996.087Zm47.823-4.318-.339 4.602-.998-.074.34-4.601.997.073Zm-83.856 6.563-.945-4.855.982-.19.945 4.854-.982.19Zm102.012-4.874-.749 4.854-.988-.152.749-4.854.988.152Zm-88.639 6.19-.633-5.212.992-.12.633 5.212-.992.12Zm54.648-5.248-.26 5.213-.999-.05.261-5.212.998.05Zm-31.361 8.88-.209-2.397.996-.087.21 2.398-.997.086Zm46.517-2.307-.17 2.301-.997-.074.17-2.301.997.074Zm-81.287 7.067-.945-4.854.981-.191.945 4.854-.981.191Zm98.624-4.873-.749 4.854-.989-.153.75-4.854.988.153Zm-85.875 6.907-.633-5.213.992-.12.633 5.212-.992.121Zm52.861-5.248-.26 5.212-.999-.049.26-5.213.999.05Zm-64.193 10.496-.473-2.428.982-.191.472 2.428-.981.191Zm95.708-2.447-.374 2.427-.989-.152.375-2.427.988.152Zm-83.11 7.624-.633-5.213.992-.12.633 5.212-.992.121Zm51.074-5.248-.261 5.213-.998-.05.26-5.213.999.05ZM128.58 129.43l-.316-2.606.992-.121.317 2.606-.993.121Zm49.604-2.642-.131 2.607-.998-.05.13-2.607.999.05Z" fill="#9293AB"/><path d="M166.916 78.811h-23.447c-15.76 0-4.679-13.234 7.922-29.713 12.602-16.479 13.134-12.233 20.088 4.378 9.918 23.694 18.5 25.335-4.563 25.335Z" fill="#EE5F54"/><path fill-rule="evenodd" clip-rule="evenodd" d="M171.007 50.385c.369.892.756 1.827 1.164 2.802 2.466 5.89 4.848 10.41 6.686 13.894l.023.043c.907 1.719 1.689 3.201 2.275 4.465.588 1.265 1.01 2.374 1.153 3.33.146.98.007 1.886-.633 2.618-.606.691-1.56 1.105-2.753 1.379-2.385.547-6.269.645-12.006.645h-23.447c-3.965 0-6.601-.817-7.81-2.664-1.211-1.851-.747-4.362.45-7.066 1.222-2.76 3.335-6.013 5.904-9.577 2.008-2.785 4.316-5.792 6.728-8.931.678-.884 1.365-1.778 2.055-2.68 3.149-4.119 5.587-7.001 7.584-8.718 1.97-1.693 3.751-2.454 5.463-1.738.811.339 1.508.977 2.142 1.802.636.827 1.245 1.89 1.866 3.145.947 1.914 1.96 4.361 3.156 7.25Zm-11.649-9.322c-1.865 1.603-4.219 4.37-7.371 8.49-.695.91-1.385 1.809-2.066 2.695-2.408 3.136-4.698 6.118-6.691 8.883-2.561 3.553-4.595 6.699-5.749 9.307-1.179 2.663-1.317 4.492-.567 5.637.752 1.149 2.641 1.986 6.555 1.986h23.448c5.795 0 9.486-.106 11.669-.607 1.091-.25 1.668-.572 1.96-.905.257-.295.383-.703.278-1.41-.109-.73-.453-1.677-1.029-2.918-.571-1.23-1.338-2.684-2.258-4.427l-.007-.013c-1.84-3.489-4.249-8.059-6.743-14.015-.417-.997-.81-1.946-1.183-2.847-1.19-2.874-2.175-5.255-3.097-7.12-.604-1.22-1.163-2.182-1.711-2.896-.551-.716-1.055-1.133-1.532-1.333-.866-.362-2.015-.133-3.906 1.493Z" fill="#000"/><path fill-rule="evenodd" clip-rule="evenodd" d="M159.824 51.275c.534.094.89.603.796 1.137-.102.577-.193 1.087-.276 1.546-.281 1.57-.454 2.535-.564 3.513-.139 1.245-.175 2.511-.175 5.072a.981.981 0 1 1-1.962 0c0-2.563.034-3.926.187-5.29.117-1.048.305-2.096.591-3.686l.266-1.496a.982.982 0 0 1 1.137-.796ZM157.588 68.946c.251-.188.55-.28.859-.28.756 0 1.286.482 1.571.853.289.377.511.877.541 1.342.013.189.013.674-.379 1.037-.48.443-1.058.294-1.317.182a2.212 2.212 0 0 1-.47-.288 1.007 1.007 0 0 1-1.07.049 1.068 1.068 0 0 1-.249-.195 1.83 1.83 0 0 1-.294-.45.98.98 0 0 1 .177-1.126c.031-.167.08-.355.163-.535.087-.186.23-.41.468-.589Z" fill="#000"/></svg>