<svg width="250" height="155" fill="none" xmlns="http://www.w3.org/2000/svg"><path fill-rule="evenodd" clip-rule="evenodd" d="M141.427 76.404c.153.23.029.507-.278.622a1896.247 1896.247 0 0 1-8.746 3.236c12.135.672 29.19 1.478 40.686 1.985a788.27 788.27 0 0 1-3.547-3.506c-.206-.205-.15-.495.124-.649.274-.153.663-.112.869.093a766.603 766.603 0 0 0 4.186 4.134c2.572.112 4.808.206 6.571.277.342.014.605.232.586.488-.018.255-.31.45-.653.437-1.516-.06-3.383-.14-5.511-.231 3.807 3.714 7.464 7.189 10.034 9.446 1.646-.614 3.16-1.193 4.476-1.716.302-.12.678-.035.839.19.161.226.047.507-.255.627-.896.356-1.882.738-2.939 1.139 12.425.372 29.09.916 40.849 1.335l-2.041-1.641c-.233-.187-.219-.48.032-.654.252-.174.644-.163.877.024l2.904 2.334c3.083.111 5.761.212 7.845.296.342.013.605.231.586.487-.018.255-.311.451-.653.437-1.79-.072-4.021-.156-6.57-.25 5.271 4.239 10.001 8.036 13.225 10.528a375.82 375.82 0 0 0 3.636-1.424c.303-.121.679-.035.84.19.161.226.047.506-.256.627-1.103.439-2.207.871-3.316 1.3.351.268.679.516.982.742.242.181.242.474 0 .655a.778.778 0 0 1-.878 0c-.382-.285-.802-.603-1.258-.953-6.701 2.569-13.702 5.051-22.333 8.112h-.001l-1.635.58c2.763.1 5.171.191 7.081.268.342.014.605.232.586.487-.018.255-.311.451-.653.437a2251.93 2251.93 0 0 0-9.386-.35l-.163.057 1.284 1.032.001.001c5.818 4.678 11.071 8.902 14.511 11.553a529.15 529.15 0 0 0 4.045-1.588c.303-.12.679-.035.84.191.161.226.047.506-.256.626-1.13.45-2.379.941-3.725 1.464l.768.579c.243.181.243.474 0 .655a.78.78 0 0 1-.877 0c-.321-.239-.668-.502-1.042-.787-7.797 3.016-18.405 6.976-27.978 10.443 2.019.075 3.805.143 5.289.202.342.014.605.232.586.488-.018.255-.31.451-.653.437-2.017-.081-4.592-.178-7.554-.285-1.562.563-3.087 1.108-4.556 1.63-.31.11-.68.012-.827-.219-.148-.231-.016-.507.293-.617.813-.289 1.644-.585 2.488-.887a8098.855 8098.855 0 0 0-44.083-1.427l.132.115c.223.194.193.486-.067.653-.26.166-.652.144-.875-.05l-.16-.14-.226-.198c-8.05 3.151-20.229 7.708-30.997 11.603l.24.01c.342.014.605.232.586.487-.018.255-.311.451-.653.437l-2.48-.102c-1.384.498-2.737.982-4.046 1.447-.309.11-.68.012-.827-.219-.147-.231-.016-.507.293-.617l2.019-.72c-11.441-.493-30.949-1.405-44.28-2.147l.223.25c.19.213.113.5-.172.642-.286.142-.67.084-.861-.129a815.59 815.59 0 0 0-.764-.852 877.556 877.556 0 0 1-5.023-.297c-.342-.021-.596-.245-.567-.5.028-.254.328-.444.67-.423 1.233.077 2.586.158 4.035.241-3.078-3.393-6.65-7.195-11.315-12.079-1.893.697-3.724 1.374-5.479 2.029-.306.114-.68.022-.832-.207-.154-.229-.03-.507.277-.621 1.376-.514 2.8-1.041 4.263-1.581l-1.912-.08v-.001h-.001c-10.766-.454-25.838-1.089-40.423-1.159.343.38.68.755 1.012 1.127.19.213.113.5-.172.642-.285.142-.67.084-.86-.129-.483-.539-.976-1.087-1.482-1.646l-1.104-.001c-.342 0-.62-.207-.62-.463 0-.255.277-.463.62-.463h.261c-3.01-3.3-6.51-7.017-11.023-11.738-1.066.341-2.152.69-3.265 1.051-.314.102-.68-.005-.816-.24-.137-.234.007-.507.321-.609 1.029-.334 2.035-.658 3.022-.974l-.177-.184c-.199-.208-.134-.497.145-.646.279-.148.666-.1.865.108l.335.349c3.014-.961 5.86-1.853 8.648-2.726 8.028-2.515 15.575-4.879 25.295-8.327a.354.354 0 0 1 .039-.351c-2.78-3.043-5.982-6.448-10.009-10.666-1.13.361-2.283.732-3.466 1.116-.315.102-.68-.006-.817-.24-.137-.235.007-.507.322-.609 1.1-.357 2.172-.703 3.224-1.04l-1-1.045c-.2-.208-.135-.497.144-.646.28-.148.667-.1.866.108l1.158 1.21c2.938-.935 5.717-1.806 8.44-2.659h.003l.001-.001h.001c6.439-2.017 12.568-3.937 19.756-6.397a.372.372 0 0 1-.073-.219c0-.256.278-.463.62-.463.475 0 .951 0 1.427.002 1.646-.57 3.35-1.17 5.129-1.808.309-.11.68-.013.828.218.148.23.018.507-.291.617-.947.34-1.874.668-2.782.988 14.086.109 28.449.715 38.796 1.151l.803.034c-.713-.747-1.451-1.52-2.218-2.321-.2-.208-.135-.497.144-.646.279-.149.667-.1.866.108.856.894 1.677 1.753 2.465 2.58a2866.373 2866.373 0 0 1 16.236-5.95l1.002-.365c2.516-.917 5.076-1.85 7.655-2.794-.866-.05-1.691-.1-2.468-.15-.341-.02-.595-.244-.567-.499.029-.255.329-.444.67-.423 1.38.086 2.908.177 4.554.27 3.543-1.298 7.107-2.612 10.63-3.927.307-.114.679-.021.833.207Zm41.546 17.354-.548-.015c-.342-.01-.609-.225-.596-.48.013-.256.302-.456.644-.446l1.802.052c-2.703-2.407-6.406-5.942-10.196-9.65-12.149-.532-31.301-1.437-43.871-2.152a5778.65 5778.65 0 0 1-9.543 3.485l-1 .364c-5.323 1.94-10.428 3.8-15.079 5.522l1.568.064c.342.014.605.232.586.487-.018.255-.311.451-.653.437l-1.957-.08c3.765 3.963 6.776 7.19 9.434 10.135l1.281.072c2.819-.953 5.79-1.983 9.002-3.134.309-.11.679-.013.828.217.148.231.018.508-.291.618a527.66 527.66 0 0 1-6.965 2.44c11.791.641 27.443 1.381 38.356 1.864-.045-.166.037-.337.209-.445l-.737-.592-.002-.002-.027-.022-.061-.048-2.95-2.372c-.233-.187-.218-.48.033-.654.251-.174.644-.163.877.024l2.925 2.352.097.077.015.013.009.007 1.001.805c5.095-1.699 16.72-5.63 25.809-8.943Zm-24.917 9.659c5.692-1.9 18.39-6.201 27.52-9.583 13.031.385 31.85.998 44.349 1.447 5.468 4.397 10.437 8.391 13.846 11.033-6.579 2.515-13.472 4.959-21.963 7.97l-3.728 1.323-1.2-.043-.465-.373c-.233-.188-.625-.199-.877-.025-.133.093-.199.218-.198.344a8051.885 8051.885 0 0 0-43.417-1.394.794.794 0 0 0-.309.052c-2.756-2.092-7.062-5.532-12.022-9.516 1.846.079 3.476.148 4.828.202.342.014.634-.182.653-.437.018-.256-.244-.474-.587-.488-1.658-.066-3.734-.154-6.114-.257l-.316-.255Zm45.097 37.258c9.94-3.582 21.345-7.83 29.663-11.043-3.457-2.673-8.604-6.812-14.271-11.368l-.001-.001-.07-.056-.045-.036-2.114-1.7a8140.398 8140.398 0 0 0-43.795-1.411.416.416 0 0 1-.181.309.778.778 0 0 1-.878 0c-2.848-2.125-7.863-6.137-13.659-10.795-11.6-.506-29.996-1.371-42.734-2.08l-.455.153.089.099c.19.213.113.501-.173.642-.285.142-.67.085-.86-.128l-.205-.229c-5.64 1.883-10.734 3.478-16.024 5.135v.001h-.002l-.002.001a1374.112 1374.112 0 0 0-11.57 3.663c.243.07.41.251.395.457-.018.255-.31.451-.653.437l-.128-.005c5.253 5.205 10.84 10.599 14.283 13.596.224.194.193.486-.067.653-.26.166-.652.144-.875-.05-3.61-3.142-9.529-8.872-14.959-14.263-10.783-.418-25.615-.854-43.17-1.281.479.528.945 1.046 1.402 1.558.19.212.113.5-.172.642-.286.142-.671.084-.861-.129a347.12 347.12 0 0 0-1.579-1.753c-9.961 3.543-17.655 5.954-25.82 8.511l-.001.001h-.001l-.002.001c-2.702.846-5.454 1.708-8.357 2.633 4.677 4.895 8.267 8.713 11.359 12.114 14.884.049 30.37.702 41.342 1.165l2.377.1-.069-.072c-.2-.208-.135-.497.144-.646.28-.148.667-.1.866.108l.647.676.134.006c3.523-1.294 7.246-2.651 11.079-4.047l.008-.003.003-.001.003-.001v-.001l1.003-.365c6.671-2.431 13.65-4.976 20.474-7.522.306-.114.679-.021.832.207.154.229.03.507-.277.621a2826.175 2826.175 0 0 1-20.485 7.526l-1 .365-.012.004-.008.003-.012.004-.004.002-.013.005h-.002l-.01.004c-3.37 1.228-6.652 2.424-9.787 3.573a.353.353 0 0 1 .027.163c-.018.256-.31.451-.653.438l-.378-.016c4.814 5.042 8.46 8.931 11.613 12.423 14.222.801 36.252 1.824 47.47 2.296 11.069-3.983 24.069-8.836 32.618-12.176a.369.369 0 0 1-.067-.217c-3.776-3.407-9.211-8.693-14.15-13.606-.206-.205-.15-.495.124-.649.274-.153.663-.111.869.093 5.015 4.989 10.521 10.342 14.278 13.72l.581.017 1.11-.44c.303-.121.679-.035.84.19.07.099.088.207.061.308 13.201.39 32.391 1.015 44.917 1.467ZM101.262 91.226l-.515-.022h-.002c-10.989-.463-26.465-1.116-41.33-1.163-7.974 2.76-14.593 4.833-21.553 7.013-2.64.827-5.328 1.67-8.158 2.57 4.081 4.277 7.316 7.72 10.128 10.804l.308.008a.817.817 0 0 1 .434.01c17.22.419 31.836.846 42.597 1.256a.469.469 0 0 1 .234-.271.798.798 0 0 1 .683-.031.607.607 0 0 1 .063-.023c4.627-1.501 8.792-2.806 12.836-4.073h.001v-.001c5.128-1.606 10.06-3.151 15.487-4.956a817.438 817.438 0 0 1-3.974-.237c-.341-.021-.595-.245-.566-.5.028-.255.328-.444.67-.423 1.045.065 2.176.133 3.379.203-2.652-2.922-5.671-6.15-9.439-10.11l-.204-.008-.288.107c-.282.105-.618.036-.791-.153Z" fill="#B0B1C4"/><path d="m79.248 98.638 32.911-11.074h45.817l16.778 6.866V112.6l-32.266 12.036H93.445l-14.197-14.444V98.638Z" fill="#fff"/><path fill-rule="evenodd" clip-rule="evenodd" d="M142.577 125.357c.177.231.571.311.881.179 4.89-2.085 10.517-4.303 16.702-6.741 5.249-2.069 10.9-4.297 16.845-6.736.312-.128.426-.421.254-.654-.172-.233-.564-.318-.876-.19-5.893 2.419-11.538 4.644-16.792 6.715-6.213 2.45-11.882 4.685-16.774 6.77-.309.132-.416.426-.24.657ZM79.52 110.766c.288-.156.692-.109.901.106l1.54 1.582c4.31 4.425 7.374 7.573 11.994 11.882.222.207.177.51-.101.676-.278.166-.684.133-.907-.075-4.64-4.327-7.72-7.492-12.029-11.917l-1.54-1.581c-.21-.216-.147-.517.142-.673Z" fill="#0278D5"/><path fill-rule="evenodd" clip-rule="evenodd" d="M79.901 92.86c.357 0 .645.215.645.48v18.591c0 .266-.288.481-.645.481-.356 0-.645-.215-.645-.481v-18.59c0-.266.289-.482.645-.482ZM174.114 93.822c.356 0 .645.216.645.482v18.813c0 .266-.289.482-.645.482-.356 0-.645-.216-.645-.482V94.304c0-.266.289-.482.645-.482ZM92.772 104.482c.252 0 .456.263.456.588v20.761c0 .325-.204.588-.456.588-.253 0-.458-.263-.458-.588V105.07c0-.325.205-.588.458-.588ZM143.138 108.268c.356 0 .645.215.645.481 0 .835.023 2.317.051 4.104.079 4.983.195 12.343-.053 14.711-.028.265-.338.463-.694.442-.355-.021-.621-.252-.593-.517.243-2.321.129-9.558.051-14.537a336.783 336.783 0 0 1-.053-4.203c0-.266.289-.481.646-.481Z" fill="#0278D5"/><path fill-rule="evenodd" clip-rule="evenodd" d="M150.694 125.6H94.097c-.357 0-.646-.216-.646-.482s.29-.481.646-.481h56.597c.357 0 .645.215.645.481s-.288.482-.645.482ZM85.191 98.347c.345.066.535.38.424.702l-4.293 12.428c-.11.322-.48.528-.826.462-.345-.066-.534-.381-.423-.702l4.293-12.429c.11-.321.48-.528.825-.461Zm3.728 3.672c.345.067.535.381.424.702l-4.301 12.452c-.111.321-.48.528-.826.462-.345-.067-.535-.381-.424-.702l4.301-12.452c.111-.322.48-.528.826-.462Zm4.26 4.197c.345.067.535.381.424.702l-4.293 12.429c-.111.321-.48.528-.826.462-.345-.067-.535-.381-.424-.702l4.293-12.429c.111-.321.48-.528.826-.462Z" fill="#0278D5"/><path fill-rule="evenodd" clip-rule="evenodd" d="M108.645 105.526c.342.1.538.454.437.792l-5.456 18.3a.644.644 0 0 1-.801.43.638.638 0 0 1-.437-.792l5.456-18.3a.645.645 0 0 1 .801-.43Zm-5.251-.896c.342.1.538.455.437.792l-6.23 19.626c-.101.338-.46.53-.802.43a.637.637 0 0 1-.437-.792l6.231-19.626a.645.645 0 0 1 .801-.43Zm-4.993-.178c.342.1.538.455.437.792l-5.266 16.632c-.1.338-.46.53-.801.43a.637.637 0 0 1-.437-.792l5.266-16.632c.1-.337.46-.53.801-.43ZM126.513 105.453c.342.1.537.455.437.792l-5.456 18.301a.647.647 0 0 1-.802.43.637.637 0 0 1-.436-.793l5.456-18.3c.1-.338.459-.53.801-.43Zm-5.706-.203c.341.1.537.455.436.792l-5.456 18.301a.645.645 0 0 1-.801.43.639.639 0 0 1-.437-.793l5.456-18.3a.646.646 0 0 1 .802-.43Zm-6.006.424c.342.1.538.455.437.792l-5.69 18.669a.646.646 0 0 1-.801.43.637.637 0 0 1-.437-.792l5.69-18.669a.645.645 0 0 1 .801-.43ZM142.597 106.025a.638.638 0 0 1 .437.793l-5.456 18.3a.645.645 0 0 1-.801.43.637.637 0 0 1-.437-.792l5.456-18.301a.646.646 0 0 1 .801-.43Zm-5.706-.203c.342.1.537.455.437.793l-5.456 18.3a.645.645 0 0 1-.801.43.637.637 0 0 1-.437-.792l5.456-18.301c.1-.337.459-.53.801-.43Zm-4.993-.177c.342.1.537.454.437.792l-5.456 18.3a.645.645 0 0 1-.801.43.637.637 0 0 1-.437-.792l5.456-18.3c.1-.338.459-.53.801-.43ZM162.814 94.538a.673.673 0 0 1 .464.816l-6.07 24.211a.642.642 0 0 1-.785.481.67.67 0 0 1-.464-.815l6.069-24.211a.644.644 0 0 1 .786-.481Zm-6.795 5.333a.671.671 0 0 1 .464.815l-5.252 21.14a.644.644 0 0 1-.786.481.672.672 0 0 1-.464-.815l5.253-21.14a.642.642 0 0 1 .785-.481Zm-5.574 1.361a.672.672 0 0 1 .464.815l-5.711 22.064a.644.644 0 0 1-.786.481.671.671 0 0 1-.463-.815l5.71-22.064a.643.643 0 0 1 .786-.481ZM168.077 96.362a.671.671 0 0 1 .463.815l-4.989 20.079a.643.643 0 0 1-.786.481.671.671 0 0 1-.463-.815l4.989-20.08a.644.644 0 0 1 .786-.48Zm5.912-1.956a.672.672 0 0 1 .464.815l-5.363 19.774a.644.644 0 0 1-.786.482.673.673 0 0 1-.463-.816l5.362-19.774a.644.644 0 0 1 .786-.48Z" fill="#0278D5"/><path d="m79.64 93.285 32.911-11.074h45.817l16.133 12.037-2.581.962-29.039 10.593H93.838L81.345 95.21l-1.704-1.925Z" fill="#fff"/><path fill-rule="evenodd" clip-rule="evenodd" d="M74.922 90.025c.271-.172.679-.147.91.056 2.125 1.868 3.97 3.504 5.645 4.987 5.548 4.916 9.222 8.171 14.993 12.75.244.193.231.498-.028.68-.26.182-.668.173-.912-.021-5.798-4.6-9.497-7.877-15.052-12.8-1.673-1.481-3.514-3.112-5.63-4.973-.231-.203-.198-.507.074-.679Z" fill="#0278D5"/><path fill-rule="evenodd" clip-rule="evenodd" d="M118.952 80.097c.141.244-.011.527-.339.632-18.067 5.777-30.956 10.105-40.6 13.769-.318.12-.707.026-.868-.211-.162-.237-.036-.527.282-.648 9.685-3.679 22.608-8.017 40.678-13.795.327-.105.707.008.847.253ZM156.621 80.909a.808.808 0 0 1 .912 0c8.388 6.258 12.252 9.14 20.632 14.912.261.18.278.485.036.68-.242.195-.65.207-.912.027-8.398-5.784-12.278-8.678-20.667-14.938h-.001c-.252-.189-.252-.493 0-.681Z" fill="#0278D5"/><path fill-rule="evenodd" clip-rule="evenodd" d="M139.725 106.982c.159.238.547.334.865.215 5.164-1.926 21.936-8.183 35.481-12.995.322-.115.459-.402.305-.642-.153-.24-.538-.342-.86-.228-13.557 4.817-30.339 11.077-35.502 13.003l-.001.001c-.319.119-.448.408-.288.646Z" fill="#0278D5"/><path fill-rule="evenodd" clip-rule="evenodd" d="M89.57 105.853c0-.252.293-.457.654-.457l60.845.001c.361 0 .654.204.654.457 0 .252-.293.456-.654.456H90.224c-.361 0-.654-.204-.654-.457ZM165.28 82.693h-56.598c-.356 0-.645-.215-.645-.481s.289-.481.645-.481h56.598c.357 0 .645.215.645.48 0 .267-.288.482-.645.482ZM62.225 12.684c.338-.213.843-.182 1.13.07 2.637 2.319 4.928 4.348 7.006 6.19 6.886 6.1 11.445 10.14 18.608 15.822.303.24.287.619-.035.845-.322.226-.83.214-1.132-.026-7.195-5.709-11.787-9.777-18.681-15.885-2.076-1.84-4.36-3.864-6.988-6.173-.286-.252-.245-.629.092-.842Z" fill="#0278D5"/><path fill-rule="evenodd" clip-rule="evenodd" d="M116.87.362c.175.304-.014.655-.42.785-22.423 7.17-38.42 12.541-50.39 17.088-.393.15-.876.033-1.076-.261-.2-.294-.044-.654.35-.804C77.354 12.604 93.392 7.22 115.82.048c.406-.13.877.011 1.051.314ZM163.621 1.37c.313-.233.82-.233 1.133 0 10.41 7.767 15.206 11.345 25.605 18.507.325.224.345.602.045.845-.3.242-.806.257-1.131.034-10.424-7.179-15.238-10.771-25.65-18.54h-.002c-.312-.234-.312-.612 0-.846Z" fill="#0278D5"/><path fill-rule="evenodd" clip-rule="evenodd" d="M142.649 33.728c.198.295.679.415 1.075.267 6.408-2.39 27.224-10.155 44.034-16.128.4-.142.569-.498.379-.796-.19-.298-.668-.425-1.067-.283-16.826 5.978-37.654 13.748-44.061 16.138h-.002c-.395.148-.556.507-.358.802Z" fill="#0278D5"/><path fill-rule="evenodd" clip-rule="evenodd" d="M80.406 32.329c0-.313.363-.567.811-.567h75.514c.448 0 .811.254.811.567 0 .313-.363.567-.811.567H81.217c-.448 0-.81-.254-.81-.567ZM174.365 3.584h-70.242c-.442 0-.801-.268-.801-.598 0-.33.359-.597.801-.597h70.243c.442 0 .8.267.8.597 0 .33-.358.598-.801.598Z" fill="#0278D5"/><path fill-rule="evenodd" clip-rule="evenodd" d="m65.125 18.392-.473-2.428.982-.19.472 2.427-.981.19Zm121.967-2.447-.375 2.427-.988-.152.375-2.427.988.152ZM67.014 28.1l-.944-4.854.981-.191.945 4.854-.982.191Zm118.954-4.873-.749 4.854-.989-.153.75-4.854.988.153Zm-22.422 3.136-.17 2.3-.997-.073.17-2.301.997.074ZM68.904 37.809l-.945-4.855.982-.19.944 4.854-.981.19Zm115.565-4.874-.749 4.854-.988-.152.749-4.854.988.152Zm-21.432.33-.34 4.602-.997-.073.339-4.602.998.073Zm-78.266 2.993-.316-2.606.993-.12.316 2.606-.993.12Zm24.377-.225-.209-2.398.996-.087.209 2.398-.996.087Zm37.291-2.416-.131 2.606-.999-.05.131-2.606.999.05Zm-36.454 12.008-.419-4.796.996-.087.419 4.796-.996.087Zm-23.948 1.059-.633-5.213.993-.12.633 5.212-.993.12Zm60.011-5.248-.261 5.212-.999-.05.261-5.212.999.05Zm16.309 1.033-.34 4.602-.997-.074.34-4.601.997.073Zm-91.564 5.048-.944-4.854.981-.191.945 4.854-.982.191Zm112.178-4.873-.75 4.854-.988-.153.749-4.854.989.153Zm-72.15 12.572-.418-4.796.996-.087.419 4.796-.997.087Zm50.857-3.543-.34 4.602-.997-.074.339-4.602.998.074Zm-74.375 5.436-.633-5.212.993-.121.633 5.213-.993.12Zm58.223-5.248-.26 5.213-.999-.05.261-5.213.998.05Zm-72.843 5.365-.945-4.855.982-.19.945 4.854-.982.19Zm108.789-4.874-.749 4.855-.989-.153.75-4.854.988.152Zm-69.814 12.455-.418-4.796.996-.087.418 4.796-.996.087Zm49.34-3.93-.339 4.601-.998-.073.34-4.602.997.074Zm-86.425 6.057-.945-4.854.981-.191.945 4.854-.981.191Zm105.4-4.873-.749 4.854-.988-.153.749-4.854.988.153Zm-91.404 5.473-.633-5.212.993-.12.633 5.212-.993.12Zm56.436-5.248-.261 5.213-.998-.05.26-5.212.999.05Zm-32.51 12.112-.418-4.795.996-.087.418 4.795-.996.087Zm47.824-4.318-.34 4.602-.997-.073.339-4.602.998.073Zm-83.857 6.563-.945-4.854.982-.191.945 4.854-.982.19Zm102.013-4.874-.75 4.855-.988-.153.75-4.854.988.152Zm-88.64 6.19-.633-5.212.993-.12.633 5.212-.993.12Zm54.649-5.247-.261 5.212-.999-.05.261-5.212.999.05Zm-31.361 8.88-.21-2.398.997-.087.209 2.398-.996.087Zm46.516-2.308-.17 2.301-.997-.074.17-2.3.997.073Zm-81.287 7.067-.945-4.854.982-.19.945 4.853-.982.191Zm98.624-4.873-.749 4.854-.988-.152.749-4.855.988.153Zm-85.875 6.907-.633-5.213.993-.12.633 5.212-.993.121Zm52.862-5.248-.261 5.213-.999-.05.261-5.213.999.05ZM79.769 93.633l-.472-2.427.981-.191.473 2.427-.982.19Zm95.709-2.447-.375 2.428-.988-.153.374-2.427.989.152ZM92.367 98.81l-.633-5.212.993-.12.633 5.212-.993.12Zm51.074-5.248-.26 5.213-.999-.05.261-5.213.998.05ZM93.316 106.63 93 104.023l.993-.121.316 2.607-.993.12Zm49.604-2.641-.13 2.606-.999-.05.13-2.606.999.05Z" fill="#9293AB"/></svg>