<svg width="94" height="86" viewBox="0 0 94 86" fill="none" xmlns="http://www.w3.org/2000/svg">
<path d="M57.8923 9.26808L66.88 12.429L71.484 15.4984L85.8073 12.429V45.1689L91.2334 47.9437V61.7247L77.0079 76.8393L31.2195 81.4897L4.99114 71.5048V52.3892L21.884 37.7191V15.4984L47.2232 6.15625L57.8923 9.26808Z" fill="white"/>
<path fill-rule="evenodd" clip-rule="evenodd" d="M88.6255 49.6193C88.6279 49.3452 88.4044 49.1229 88.1262 49.1229C86.6411 49.1229 82.9608 48.6077 79.2397 48.0233C76.8345 47.6455 74.4613 47.2472 72.6904 46.95C71.7253 46.788 70.9391 46.656 70.4241 46.5738C70.1499 46.53 69.8897 46.7139 69.8429 46.9844C69.7961 47.255 69.9804 47.5099 70.2546 47.5537C70.7479 47.6324 71.5228 47.7625 72.4798 47.9231C74.2608 48.2219 76.6724 48.6266 79.0728 49.0036C82.7577 49.5823 86.5331 50.1156 88.1175 50.1156C88.3957 50.1156 88.6231 49.8934 88.6255 49.6193Z" fill="black"/>
<path fill-rule="evenodd" clip-rule="evenodd" d="M71.7063 14.7545C71.7916 14.4918 71.647 14.2121 71.3835 14.1297C64.2657 11.9055 55.3699 9.23676 44.2514 6.12357C43.9854 6.0491 43.7071 6.20358 43.6297 6.46862C43.5524 6.73365 43.7053 7.00888 43.9712 7.08335C55.0801 10.1938 63.9662 12.8597 71.0747 15.081C71.3383 15.1634 71.621 15.0172 71.7063 14.7545ZM37.4674 53.8467C37.5643 53.588 37.4324 53.302 37.1729 53.2081C32.3243 51.4532 26.9591 49.3869 19.8482 46.5934C19.5914 46.4925 19.2991 46.6184 19.1953 46.8745C19.0914 47.1307 19.2154 47.4201 19.4722 47.521C26.5847 50.3152 31.9602 52.3856 36.8222 54.1453C37.0817 54.2392 37.3705 54.1055 37.4674 53.8467ZM46.2732 24.982C46.3601 24.7198 46.2173 24.4392 45.9543 24.3552C37.6168 21.6931 30.5164 19.0307 18.0712 14.1415C17.8145 14.0406 17.5221 14.1665 17.4183 14.4227C17.3144 14.6788 17.4384 14.9682 17.6952 15.0691C30.1447 19.96 37.2699 22.6322 45.6396 25.3047C45.9026 25.3887 46.1863 25.2442 46.2732 24.982Z" fill="black"/>
<path fill-rule="evenodd" clip-rule="evenodd" d="M86.7881 10.1094C86.5119 10.1094 86.2881 10.3332 86.2881 10.6094L86.2881 49.4843C86.2881 49.7605 86.5119 49.9843 86.7881 49.9843C87.0642 49.9843 87.2881 49.7605 87.2881 49.4843L87.2881 10.6094C87.2881 10.3332 87.0642 10.1094 86.7881 10.1094ZM70.7841 11.443C70.508 11.443 70.2841 11.6669 70.2841 11.943L70.2841 49.4843C70.2841 49.7605 70.508 49.9843 70.7841 49.9843C71.0603 49.9843 71.2841 49.7605 71.2841 49.4843L71.2841 11.943C71.2841 11.6669 71.0603 11.443 70.7841 11.443ZM21.9954 14.5546C21.7193 14.5546 21.4954 14.7784 21.4954 15.0546L21.4954 47.7875C21.4954 48.0637 21.7193 48.2875 21.9954 48.2875C22.2716 48.2875 22.4954 48.0637 22.4954 47.7875L22.4954 15.0546C22.4954 14.7784 22.2716 14.5546 21.9954 14.5546ZM44.1115 18.1112C43.8354 18.1112 43.6115 18.3351 43.6115 18.6112L43.6115 57.6872C43.6115 57.9634 43.8354 58.1872 44.1115 58.1872C44.3876 58.1872 44.6115 57.9634 44.6115 57.6872L44.6115 18.6112C44.6115 18.3351 44.3876 18.1112 44.1115 18.1112ZM49.8906 21.2228C49.6145 21.2228 49.3906 21.4467 49.3906 21.7228L49.3906 39.9494C49.3906 40.2256 49.6145 40.4494 49.8906 40.4494C50.1668 40.4494 50.3906 40.2256 50.3906 39.9494L50.3906 21.7228C50.3906 21.4467 50.1668 21.2228 49.8906 21.2228ZM37.8878 25.2236C37.6117 25.2236 37.3878 25.4474 37.3878 25.7236L37.3878 61.7324C37.3878 62.0085 37.6117 62.2324 37.8878 62.2324C38.164 62.2324 38.3878 62.0085 38.3878 61.7324L38.3878 25.7236C38.3878 25.4474 38.164 25.2236 37.8878 25.2236Z" fill="black"/>
<path fill-rule="evenodd" clip-rule="evenodd" d="M5.43555 46.1172C5.1594 46.1172 4.93555 46.341 4.93555 46.6172V73.7567C4.93555 74.0328 5.1594 74.2567 5.43555 74.2567C5.71169 74.2567 5.93555 74.0328 5.93555 73.7567V46.6172C5.93555 46.341 5.71169 46.1172 5.43555 46.1172Z" fill="black"/>
<path fill-rule="evenodd" clip-rule="evenodd" d="M31.2188 59.8984C30.9426 59.8984 30.7188 60.1223 30.7188 60.3984V85.2931C30.7188 85.5693 30.9426 85.7931 31.2188 85.7931C31.4949 85.7931 31.7188 85.5693 31.7188 85.2931V60.3984C31.7188 60.1223 31.4949 59.8984 31.2188 59.8984Z" fill="black"/>
<path fill-rule="evenodd" clip-rule="evenodd" d="M75.6738 55.4531C75.3977 55.4531 75.1738 55.677 75.1738 55.9531V79.9587C75.1738 80.2348 75.3977 80.4587 75.6738 80.4587C75.95 80.4587 76.1738 80.2348 76.1738 79.9587V55.9531C76.1738 55.677 75.95 55.4531 75.6738 55.4531Z" fill="black"/>
<path fill-rule="evenodd" clip-rule="evenodd" d="M90.7891 42.5625C91.0652 42.5625 91.2891 42.7864 91.2891 43.0625L91.2891 65.6623C91.2891 65.9384 91.0652 66.1623 90.7891 66.1623C90.5129 66.1623 90.2891 65.9384 90.2891 65.6623L90.2891 43.0625C90.2891 42.7864 90.5129 42.5625 90.7891 42.5625Z" fill="black"/>
<path fill-rule="evenodd" clip-rule="evenodd" d="M92.0662 46.7477C91.8924 46.5332 91.5775 46.5002 91.363 46.674C89.7878 47.9503 88.227 49.2406 86.6507 50.5438C82.5767 53.9119 78.3989 57.3658 73.6001 60.8848C73.3774 61.0481 73.3293 61.361 73.4926 61.5837C73.6559 61.8064 73.9688 61.8545 74.1915 61.6912C79.0153 58.1538 83.227 54.6719 87.3086 51.2976C88.88 49.9984 90.4321 48.7153 91.9925 47.451C92.207 47.2772 92.24 46.9623 92.0662 46.7477Z" fill="black"/>
<path fill-rule="evenodd" clip-rule="evenodd" d="M92.8939 60.0206C92.6852 59.8397 92.3694 59.8623 92.1886 60.071C86.8541 66.2262 81.5203 71.2407 74.7516 77.6043C74.2131 78.1105 73.6655 78.6253 73.1082 79.1499C72.9071 79.3392 72.8975 79.6556 73.0867 79.8567C73.276 80.0578 73.5924 80.0674 73.7935 79.8781C74.3534 79.3512 74.9037 78.8338 75.445 78.3249C82.2048 71.9699 87.5749 66.9213 92.9442 60.7259C93.1251 60.5172 93.1025 60.2015 92.8939 60.0206Z" fill="black"/>
<path fill-rule="evenodd" clip-rule="evenodd" d="M72.1436 13.996C72.0507 13.736 71.7646 13.6005 71.5045 13.6933C65.2869 15.9139 49.2926 21.2453 41.7469 23.4646C41.482 23.5425 41.3304 23.8204 41.4083 24.0853C41.4863 24.3503 41.7642 24.5018 42.0291 24.4239C49.5981 22.1978 65.6112 16.86 71.8409 14.6351C72.1009 14.5422 72.2365 14.2561 72.1436 13.996Z" fill="black"/>
<path fill-rule="evenodd" clip-rule="evenodd" d="M71.6993 46.0038C71.6064 45.7438 71.3203 45.6083 71.0602 45.7011C64.8426 47.9217 48.8483 53.2531 41.3026 55.4724C41.0377 55.5503 40.8861 55.8282 40.964 56.0931C41.0419 56.3581 41.3198 56.5097 41.5848 56.4317C49.1537 54.2056 65.1668 48.8678 71.3965 46.6429C71.6566 46.55 71.7921 46.2639 71.6993 46.0038Z" fill="black"/>
<path fill-rule="evenodd" clip-rule="evenodd" d="M49.4717 6.88666C49.3788 6.6266 49.0927 6.49108 48.8327 6.58395C42.615 8.80453 26.6207 14.1359 19.0751 16.3552C18.8101 16.4331 18.6585 16.711 18.7365 16.976C18.8144 17.2409 19.0923 17.3925 19.3572 17.3146C26.9262 15.0884 42.9393 9.75059 49.169 7.52569C49.4291 7.43282 49.5646 7.14671 49.4717 6.88666Z" fill="black"/>
<path fill-rule="evenodd" clip-rule="evenodd" d="M91.2866 12.3418C91.2621 12.0667 91.0192 11.8636 90.7442 11.8882L70.8178 13.6664C70.5428 13.6909 70.3397 13.9338 70.3643 14.2088C70.3888 14.4839 70.6317 14.687 70.9067 14.6624L90.8331 12.8842C91.1081 12.8597 91.3112 12.6168 91.2866 12.3418Z" fill="black"/>
<path fill-rule="evenodd" clip-rule="evenodd" d="M44.9716 22.7774C44.8185 22.5476 44.508 22.4855 44.2783 22.6387C41.5889 24.4316 37.5715 27.557 34.4502 30.2324C34.2405 30.4121 34.2162 30.7278 34.3959 30.9374C34.5756 31.1471 34.8913 31.1714 35.101 30.9917C38.2033 28.3325 42.1877 25.2343 44.833 23.4708C45.0627 23.3176 45.1248 23.0072 44.9716 22.7774ZM44.9015 53.8125C44.7024 53.6212 44.3858 53.6276 44.1945 53.8267C42.8064 55.272 41.6754 56.8574 40.5701 58.4491C40.4621 58.6047 40.3543 58.7603 40.2465 58.9159C39.2465 60.3598 38.249 61.8001 37.0636 63.1832C36.884 63.3929 36.9083 63.7085 37.1179 63.8882C37.3276 64.0679 37.6433 64.0436 37.823 63.8339C39.0437 62.4095 40.0706 60.9265 41.0668 59.4879C41.1754 59.3312 41.2835 59.175 41.3915 59.0194C42.4965 57.4282 43.588 55.9018 44.9158 54.5194C45.107 54.3203 45.1007 54.0038 44.9015 53.8125Z" fill="black"/>
<path fill-rule="evenodd" clip-rule="evenodd" d="M0.0974503 50.3937C-0.0260429 50.6407 0.0740662 50.941 0.321056 51.0645C10.795 56.3015 20.32 60.1006 27.9742 63.1535C30.7295 64.2525 33.2424 65.2548 35.4699 66.1926C35.7244 66.2998 36.0176 66.1803 36.1248 65.9258C36.2319 65.6713 36.1125 65.3781 35.858 65.271C33.6059 64.3228 31.0766 63.3139 28.3099 62.2104C20.6622 59.1601 11.2009 55.3864 0.768269 50.1701C0.521282 50.0466 0.220943 50.1467 0.0974503 50.3937Z" fill="black"/>
<path fill-rule="evenodd" clip-rule="evenodd" d="M2.31712 69.0718C2.19706 69.3205 2.30134 69.6194 2.55002 69.7395C12.0794 74.3398 18.9581 76.7651 26.7156 79.5003C29.4762 80.4736 32.3481 81.4862 35.4903 82.6499C35.7492 82.7458 36.0369 82.6137 36.1328 82.3547C36.2287 82.0958 36.0965 81.8081 35.8376 81.7122C32.6686 80.5385 29.7823 79.5208 27.0148 78.545C19.2733 75.8155 12.4605 73.4134 2.98477 68.8389C2.73609 68.7188 2.43717 68.8231 2.31712 69.0718Z" fill="black"/>
<path fill-rule="evenodd" clip-rule="evenodd" d="M22.2587 37.3958C22.076 37.1887 21.76 37.1689 21.553 37.3516C19.4666 39.1926 17.6867 40.7948 16.0265 42.2893C11.6611 46.219 8.12268 49.4042 2.01386 54.2269C1.79712 54.3981 1.76013 54.7125 1.93124 54.9292C2.10235 55.1459 2.41677 55.1829 2.63351 55.0118C8.76926 50.1678 12.3371 46.9561 16.7113 43.0185C18.3688 41.5265 20.142 39.9302 22.2146 38.1015C22.4217 37.9188 22.4414 37.6028 22.2587 37.3958Z" fill="black"/>
<path fill-rule="evenodd" clip-rule="evenodd" d="M74.3617 48.1334C74.262 48.3909 73.9725 48.5189 73.715 48.4193C69.338 46.7258 64.4828 45.0402 59.618 43.3512C55.9604 42.0814 52.2973 40.8096 48.8278 39.5312C48.5687 39.4357 48.4361 39.1483 48.5315 38.8892C48.627 38.63 48.9145 38.4974 49.1736 38.5929C52.5981 39.8547 56.2509 41.1232 59.9091 42.3936C64.799 44.0917 69.6986 45.7931 74.0758 47.4867C74.3333 47.5863 74.4613 47.8759 74.3617 48.1334Z" fill="black"/>
<path fill-rule="evenodd" clip-rule="evenodd" d="M52.1447 38.9122C52.0616 38.6489 51.7808 38.5027 51.5175 38.5858C49.2956 39.2865 46.7075 40.0998 43.9618 40.9553C43.6981 41.0375 43.551 41.3178 43.6332 41.5814C43.7153 41.8451 43.9956 41.9922 44.2593 41.91C47.0064 41.0541 49.5957 40.2404 51.8182 39.5395C52.0816 39.4564 52.2277 39.1756 52.1447 38.9122Z" fill="black"/>
<path fill-rule="evenodd" clip-rule="evenodd" d="M80.6178 77.2533C80.598 76.9778 80.3587 76.7706 80.0833 76.7904C72.7765 77.3153 64.9991 77.9295 57.3552 78.5331C46.2522 79.4099 35.431 80.2644 26.7431 80.7909C26.4675 80.8076 26.2576 81.0446 26.2743 81.3203C26.291 81.5959 26.528 81.8058 26.8036 81.7891C35.4967 81.2622 46.3383 80.4062 57.4519 79.5286C65.0944 78.9251 72.8656 78.3115 80.1549 77.7878C80.4304 77.768 80.6376 77.5287 80.6178 77.2533Z" fill="black"/>
<path fill-rule="evenodd" clip-rule="evenodd" d="M81.5062 59.4685C81.4845 59.1932 81.2437 58.9877 80.9684 59.0094C74.8295 59.494 67.4146 60.2313 59.8017 60.9882C46.408 62.3199 32.4011 63.7126 23.6505 63.898C23.3745 63.9038 23.1554 64.1324 23.1612 64.4085C23.1671 64.6845 23.3956 64.9036 23.6717 64.8977C32.4561 64.7117 46.5498 63.3108 59.9766 61.9762C67.5747 61.2209 74.9592 60.4869 81.0471 60.0063C81.3224 59.9846 81.528 59.7438 81.5062 59.4685Z" fill="black"/>
<path fill-rule="evenodd" clip-rule="evenodd" d="M86.4081 44.0652C86.2284 44.2749 86.2527 44.5906 86.4623 44.7703C88.2556 46.3073 90.0966 47.4931 93.232 49.0642C93.4788 49.1879 93.7793 49.088 93.903 48.8411C94.0267 48.5942 93.9268 48.2938 93.6799 48.1701C90.5917 46.6227 88.8259 45.4791 87.1131 44.011C86.9035 43.8313 86.5878 43.8556 86.4081 44.0652Z" fill="black"/>
<path fill-rule="evenodd" clip-rule="evenodd" d="M87.8146 49.6873C87.5472 49.7562 87.3863 50.0288 87.4552 50.2962L90.5484 62.299C90.6173 62.5664 90.8899 62.7273 91.1573 62.6584C91.4247 62.5895 91.5857 62.3169 91.5167 62.0495L88.4236 50.0467C88.3547 49.7793 88.0821 49.6184 87.8146 49.6873ZM83.8839 53.2437C83.6165 53.3126 83.4556 53.5852 83.5245 53.8526L86.6177 65.8554C86.6866 66.1228 86.9592 66.2837 87.2266 66.2148C87.494 66.1459 87.6549 65.8733 87.586 65.6058L84.4929 53.6031C84.424 53.3357 84.1513 53.1748 83.8839 53.2437Z" fill="black"/>
<path fill-rule="evenodd" clip-rule="evenodd" d="M80.385 55.8982C80.1176 55.9671 79.9566 56.2398 80.0256 56.5072L83.4649 69.8535C83.5338 70.1209 83.8065 70.2818 84.0739 70.2129C84.3413 70.144 84.5022 69.8714 84.4333 69.604L80.9939 56.2576C80.925 55.9902 80.6524 55.8293 80.385 55.8982ZM76.8336 58.5754C76.5662 58.6443 76.4053 58.917 76.4742 59.1844L80.0256 72.9654C80.0945 73.2328 80.3671 73.3937 80.6345 73.3248C80.9019 73.2559 81.0628 72.9832 80.9939 72.7158L77.4425 58.9348C77.3736 58.6674 77.101 58.5065 76.8336 58.5754ZM72.33 59.9091C72.0626 59.978 71.9017 60.2506 71.9706 60.518L76.2094 76.9663C76.2783 77.2337 76.5509 77.3946 76.8183 77.3257C77.0857 77.2568 77.2467 76.9842 77.1777 76.7167L72.939 60.2685C72.8701 60.0011 72.5974 59.8402 72.33 59.9091Z" fill="black"/>
<path fill-rule="evenodd" clip-rule="evenodd" d="M58.7335 61.6882C58.4661 61.7572 58.3052 62.0298 58.3741 62.2972L62.6129 78.7455C62.6818 79.0129 62.9544 79.1738 63.2218 79.1049C63.4892 79.036 63.6501 78.7633 63.5812 78.4959L59.3425 62.0476C59.2736 61.7802 59.0009 61.6193 58.7335 61.6882ZM63.3898 60.9472C63.1224 61.0161 62.9614 61.2888 63.0304 61.5562L67.2309 77.8564C67.2999 78.1238 67.5725 78.2847 67.8399 78.2158C68.1073 78.1469 68.2682 77.8742 68.1993 77.6068L63.9987 61.3066C63.9298 61.0392 63.6572 60.8783 63.3898 60.9472ZM67.5904 60.7892C67.3229 60.8581 67.162 61.1308 67.2309 61.3982L71.4723 77.8564C71.5412 78.1238 71.8138 78.2847 72.0812 78.2158C72.3486 78.1469 72.5095 77.8742 72.4406 77.6068L68.1993 61.1486C68.1304 60.8812 67.8578 60.7203 67.5904 60.7892Z" fill="black"/>
<path fill-rule="evenodd" clip-rule="evenodd" d="M45.0724 63.0242C44.805 63.0931 44.6441 63.3657 44.713 63.6331L48.9517 80.0814C49.0206 80.3488 49.2933 80.5097 49.5607 80.4408C49.8281 80.3719 49.989 80.0993 49.9201 79.8318L45.6813 63.3836C45.6124 63.1162 45.3398 62.9553 45.0724 63.0242ZM49.6905 62.1351C49.4231 62.204 49.2622 62.4766 49.3311 62.744L53.5698 79.1923C53.6387 79.4597 53.9114 79.6206 54.1788 79.5517C54.4462 79.4828 54.6071 79.2102 54.5382 78.9428L50.2994 62.4945C50.2305 62.2271 49.9579 62.0662 49.6905 62.1351ZM53.9292 62.1251C53.6618 62.1941 53.5009 62.4667 53.5698 62.7341L57.8111 79.1923C57.88 79.4597 58.1527 79.6206 58.4201 79.5517C58.6875 79.4828 58.8484 79.2101 58.7795 78.9427L54.5382 62.4845C54.4693 62.2171 54.1966 62.0562 53.9292 62.1251Z" fill="black"/>
<path fill-rule="evenodd" clip-rule="evenodd" d="M31.2452 63.9148C30.9778 63.9837 30.8169 64.2564 30.8858 64.5238L35.1246 80.972C35.1935 81.2394 35.4661 81.4003 35.7335 81.3314C36.0009 81.2625 36.1618 80.9899 36.0929 80.7225L31.8542 64.2742C31.7853 64.0068 31.5126 63.8459 31.2452 63.9148ZM35.9844 63.4702C35.717 63.5392 35.5561 63.8118 35.625 64.0792C36.3393 66.8511 37.0764 69.7176 37.8097 72.5695L37.8214 72.6149C38.5507 75.4514 39.2763 78.273 39.9718 80.972C40.0407 81.2394 40.3133 81.4003 40.5807 81.3314C40.8482 81.2625 41.0091 80.9899 40.9402 80.7225C40.2447 78.0237 39.5192 75.2023 38.7898 72.3655L38.7782 72.3205C38.0449 69.4686 37.3078 66.6019 36.5934 63.8297C36.5245 63.5622 36.2518 63.4013 35.9844 63.4702ZM40.1046 63.0257C39.8372 63.0946 39.6763 63.3672 39.7452 63.6347L43.984 80.0829C44.0529 80.3503 44.3255 80.5112 44.5929 80.4423C44.8603 80.3734 45.0213 80.1008 44.9523 79.8334L40.7136 63.3851C40.6447 63.1177 40.372 62.9568 40.1046 63.0257Z" fill="black"/>
<path fill-rule="evenodd" clip-rule="evenodd" d="M14.7374 57.2429C14.47 57.3118 14.3091 57.5845 14.378 57.8519L19.3041 76.9674C19.373 77.2348 19.6457 77.3958 19.9131 77.3268C20.1805 77.2579 20.3414 76.9853 20.2725 76.7179L15.3464 57.6023C15.2775 57.3349 15.0048 57.174 14.7374 57.2429ZM20.1574 59.4657C19.89 59.5346 19.7291 59.8072 19.798 60.0746L24.6121 78.7556C24.6811 79.023 24.9537 79.1839 25.2211 79.115C25.4885 79.0461 25.6494 78.7734 25.5805 78.506L20.7664 59.8251C20.6975 59.5577 20.4248 59.3968 20.1574 59.4657ZM24.9716 61.6884C24.7042 61.7573 24.5432 62.03 24.6121 62.2974L29.3091 80.5238C29.3781 80.7912 29.6507 80.9521 29.9181 80.8832C30.1855 80.8143 30.3464 80.5417 30.2775 80.2743L25.5805 62.0478C25.5116 61.7804 25.239 61.6195 24.9716 61.6884Z" fill="black"/>
<path fill-rule="evenodd" clip-rule="evenodd" d="M5.465 55.886C5.19759 55.9549 5.03668 56.2275 5.10559 56.4949L9.30104 72.7751C9.36995 73.0426 9.64258 73.2035 9.90999 73.1346C10.1774 73.0656 10.3383 72.793 10.2694 72.5256L6.07395 56.2454C6.00504 55.978 5.7324 55.8171 5.465 55.886ZM9.35587 54.9973C9.08847 55.0662 8.92756 55.3389 8.99647 55.6063L13.929 74.7468C13.9979 75.0142 14.2706 75.1751 14.538 75.1062C14.8054 75.0373 14.9663 74.7646 14.8974 74.4972L9.96483 55.3567C9.89592 55.0893 9.62328 54.9284 9.35587 54.9973Z" fill="black"/>
<path fill-rule="evenodd" clip-rule="evenodd" d="M51.2648 39.6023C50.9974 39.6712 50.8364 39.9439 50.9054 40.2113L53.9628 52.0757C54.0317 52.3431 54.3044 52.504 54.5718 52.4351C54.8392 52.3662 55.0001 52.0935 54.9312 51.8261L51.8737 39.9617C51.8048 39.6943 51.5322 39.5334 51.2648 39.6023ZM56.6491 41.6867C56.3817 41.7556 56.2208 42.0282 56.2897 42.2956L58.3518 50.2975C58.4207 50.5649 58.6934 50.7258 58.9608 50.6569C59.2282 50.588 59.3891 50.3153 59.3202 50.0479L57.2581 42.0461C57.1892 41.7787 56.9165 41.6178 56.6491 41.6867ZM61.3239 43.3686C61.0565 43.4375 60.8955 43.7101 60.9645 43.9775L62.2981 49.1526C62.367 49.42 62.6396 49.581 62.9071 49.512C63.1745 49.4431 63.3354 49.1705 63.2665 48.9031L61.9328 43.728C61.8639 43.4606 61.5913 43.2996 61.3239 43.3686Z" fill="black"/>
<path fill-rule="evenodd" clip-rule="evenodd" d="M32.1368 19.8992C31.8694 19.9681 31.7085 20.2407 31.7774 20.5081L37.1618 41.4019C37.2307 41.6693 37.5033 41.8302 37.7707 41.7613C38.0381 41.6924 38.1991 41.4197 38.1301 41.1523L32.7458 20.2586C32.6769 19.9912 32.4042 19.8303 32.1368 19.8992ZM37.5212 21.9835C37.2538 22.0525 37.0929 22.3251 37.1618 22.5925L38.343 27.1763C38.412 27.4437 38.6846 27.6047 38.952 27.5357C39.2194 27.4668 39.3803 27.1942 39.3114 26.9268L38.1301 22.3429C38.0612 22.0755 37.7886 21.9146 37.5212 21.9835ZM41.569 21.2328C41.3016 21.3017 41.1407 21.5744 41.2096 21.8418L41.897 24.5091C41.9659 24.7765 42.2386 24.9374 42.506 24.8685C42.7734 24.7996 42.9343 24.5269 42.8654 24.2595L42.178 21.5922C42.1091 21.3248 41.8364 21.1639 41.569 21.2328ZM46.4952 40.3483C46.2277 40.4173 46.0668 40.6899 46.1357 40.9573L49.4062 53.6483C49.4752 53.9157 49.7478 54.0766 50.0152 54.0077C50.2826 53.9388 50.4435 53.6662 50.3746 53.3988L47.1041 40.7078C47.0352 40.4404 46.7626 40.2794 46.4952 40.3483ZM44.2014 47.9057C43.934 47.9746 43.7731 48.2472 43.842 48.5146L45.4458 54.7383C45.5147 55.0057 45.7874 55.1666 46.0548 55.0977C46.3222 55.0288 46.4831 54.7561 46.4142 54.4887L44.8103 48.2651C44.7414 47.9977 44.4688 47.8368 44.2014 47.9057Z" fill="black"/>
<path fill-rule="evenodd" clip-rule="evenodd" d="M22.6812 15.8997C22.4138 15.9686 22.2529 16.2413 22.3218 16.5087L31.4867 52.0725C31.5556 52.3399 31.8282 52.5008 32.0956 52.4319C32.363 52.363 32.5239 52.0903 32.455 51.8229L23.2902 16.2591C23.2213 15.9917 22.9486 15.8308 22.6812 15.8997ZM27.4953 18.1224C27.2279 18.1913 27.067 18.464 27.1359 18.7314L36.1862 53.8507C36.2551 54.1181 36.5278 54.279 36.7952 54.2101C37.0626 54.1412 37.2235 53.8685 37.1546 53.6011L28.1043 18.4818C28.0354 18.2144 27.7627 18.0535 27.4953 18.1224ZM22.0727 32.348C21.8053 32.4169 21.6444 32.6895 21.7133 32.9569L26.0667 49.8497C26.1356 50.1171 26.4082 50.2781 26.6756 50.2091C26.943 50.1402 27.1039 49.8676 27.035 49.6002L22.6817 32.7074C22.6128 32.44 22.3401 32.2791 22.0727 32.348Z" fill="black"/>
<path fill-rule="evenodd" clip-rule="evenodd" d="M66.3029 44.7966C66.0355 44.8656 65.8746 45.1382 65.9435 45.4056L66.5163 47.6283C66.5852 47.8958 66.8579 48.0567 67.1253 47.9878C67.3927 47.9188 67.5536 47.6462 67.4847 47.3788L66.9119 45.1561C66.843 44.8887 66.5703 44.7277 66.3029 44.7966Z" fill="black"/>
</svg>
