<svg width="113" height="25" fill="none" xmlns="http://www.w3.org/2000/svg"><path d="M1 1.327h111.5" stroke="#B0B1C4" stroke-linecap="round" stroke-linejoin="round"/><path fill="#A3E9FF" d="M1.889 13.572h8.233v11.429H1.889zM11.15 11.123h8.233v13.878H11.15zM20.412 19.286h8.233V25h-8.233zM29.674 17.653h8.233V25h-8.233zM75.982 17.653h8.233V25h-8.233zM38.935 6.225h8.233v18.776h-8.233zM48.197 8.674h8.233V25h-8.233zM57.459 7.858h8.233v17.143h-8.233zM66.721 11.123h8.233v13.878h-8.233zM85.244 2.96h8.233v22.041h-8.233zM94.506 1.327h8.233v23.674h-8.233zM103.767 6.225H112v18.776h-8.233z"/></svg>