<svg width="114" height="25" fill="none" xmlns="http://www.w3.org/2000/svg"><path d="M1.111 1.327h111.5" stroke="#B0B1C4" stroke-linecap="round" stroke-linejoin="round"/><path fill="#A3E9FF" d="M1 13.572h8.233v11.429H1zM10.262 11.123h8.233v13.878h-8.233zM19.523 19.286h8.233V25h-8.233zM28.785 17.653h8.233V25h-8.233zM75.094 17.653h8.233V25h-8.233zM38.047 6.225h8.233v18.776h-8.233zM47.309 8.674h8.233V25h-8.233zM56.57 7.858h8.233v17.143H56.57zM65.832 11.123h8.233v13.878h-8.233zM84.356 2.96h8.233v22.041h-8.233zM93.617 1.327h8.233v23.674h-8.233zM102.878 6.225h8.233v18.776h-8.233z"/></svg>