<svg width="113" height="41" fill="none" xmlns="http://www.w3.org/2000/svg"><path fill="#A3E9FF" d="M1.199 21.69h8.284V41H1.199zM10.519 17.551h8.284v23.448h-8.284zM19.838 31.345h8.284V41h-8.284zM29.158 28.586h8.284V41h-8.284zM75.756 28.586h8.284V41h-8.284zM38.477 9.276h8.284V41h-8.284zM47.798 13.414h8.284V41h-8.284zM57.117 12.035h8.284V41h-8.284zM66.436 17.551h8.284v23.448h-8.284zM85.076 3.758h8.284v37.241h-8.284zM94.395 1h8.284v40h-8.284zM103.715 9.276h8.284V41h-8.284z"/><path d="M1 1h111.5" stroke="#B0B1C4" stroke-linecap="round" stroke-linejoin="round"/></svg>