<svg width="382" height="259" viewBox="0 0 382 259" fill="none"
    xmlns="http://www.w3.org/2000/svg">
    <g opacity="0.1">
        <path d="M234.311 125.977L229.593 124.878L223.422 125.977V130.74L228.867 132.206L234.311 130.74V128.176V125.977Z" fill="#0092E4"/>
        <path d="M231.77 134.405L229.593 132.939H224.874L221.607 134.405V136.603L224.148 138.435H229.593L231.77 136.603V134.405Z" fill="#0092E4"/>
        <path d="M215.8 134.038L213.259 135.137H207.815L206 133.672V131.473L208.541 130.008L213.985 130.374L215.8 131.84V134.038Z" fill="#0092E4"/>
        <path d="M240.481 97.0305L239.03 97.7634V99.5954L241.57 100.328L245.563 99.9618L245.926 98.8626V97.3969L243.385 96.6641L240.481 97.0305Z" fill="#0092E4"/>
        <path d="M247.015 101.061V99.229L249.193 98.4962H253.185L254.637 99.229V101.061L253.185 101.794H248.467L247.015 101.061Z" fill="#0092E4"/>
        <path d="M246.289 96.2977L244.474 95.1985V93.7328L247.015 93H249.919L251.37 94.0992V95.5649L249.556 96.2977H246.289Z" fill="#0092E4"/>
        <path d="M253.185 95.9313V94.0992L253.911 93.3664L257.904 93L260.081 93.7328V94.8321L259.719 95.9313L261.533 95.5649L265.526 96.2977L265.889 97.3969V99.5954L262.259 100.328L257.541 99.5954V96.6641H256.452L253.185 95.9313Z" fill="#0092E4"/>
        <path d="M284.4 138.802V136.603L286.941 134.405H294.2L297.104 136.603V139.534L294.563 141H287.304L284.4 138.802Z" fill="#0092E4"/>
        <path d="M296.741 135.137L295.289 133.305V131.107L298.556 130.374H302.548L304 131.84V134.038L301.459 135.137H296.741Z" fill="#0092E4"/>
        <path d="M296.378 129.275L291.659 128.908L290.207 127.443V125.611L292.022 124.511L297.104 124.878L298.556 126.344V127.809L296.378 129.275Z" fill="#0092E4"/>
        <path d="M288.03 131.107L284.763 132.573L277.141 132.206L275.689 130.374V127.443L280.407 125.977L286.578 126.344L288.03 128.542V131.107Z" fill="#0092E4"/>
    </g>
    <path d="M205.546 134.001C205.546 132.971 205.546 131.94 205.546 130.91" stroke="#22222A" stroke-linecap="round" stroke-linejoin="round"/>
    <path d="M207.318 132.592C207.43 133.512 207.5 134.437 207.5 135.365" stroke="#22222A" stroke-linecap="round" stroke-linejoin="round"/>
    <path d="M212.864 132.592C212.859 133.582 212.733 134.609 212.864 135.592" stroke="#22222A" stroke-linecap="round" stroke-linejoin="round"/>
    <path d="M215.41 131.546C215.305 132.357 215.3 133.145 215.41 133.955" stroke="#22222A" stroke-linecap="round" stroke-linejoin="round"/>
    <path d="M205.546 131.455C206.032 132.026 206.65 132.484 207.319 132.819" stroke="#22222A" stroke-linecap="round" stroke-linejoin="round"/>
    <path d="M205.592 133.637C206.168 134.43 206.96 134.879 207.728 135.455" stroke="#22222A" stroke-linecap="round" stroke-linejoin="round"/>
    <path d="M207.001 135.41C208.208 135.41 209.409 135.385 210.615 135.319C211.623 135.265 212.644 135.166 213.637 135.365" stroke="#22222A" stroke-linecap="round" stroke-linejoin="round"/>
    <path d="M212.683 135.41C213.807 134.911 214.945 134.407 216.001 133.773" stroke="#22222A" stroke-linecap="round" stroke-linejoin="round"/>
    <path d="M212.546 133.091C213.664 132.605 214.783 132.107 215.864 131.546" stroke="#22222A" stroke-linecap="round" stroke-linejoin="round"/>
    <path d="M206.818 132.864C208.849 132.874 210.879 133.03 212.909 133.092" stroke="#22222A" stroke-linecap="round" stroke-linejoin="round"/>
    <path d="M205.364 131.637C206.332 131.087 207.323 130.59 208.319 130.092" stroke="#22222A" stroke-linecap="round" stroke-linejoin="round"/>
    <path d="M207.546 130.228C209.621 130.428 211.69 130.585 213.773 130.455" stroke="#22222A" stroke-linecap="round" stroke-linejoin="round"/>
    <path d="M213.41 130.137C213.675 130.444 214.052 130.666 214.37 130.914C214.673 131.152 214.973 131.337 215.319 131.5" stroke="#22222A" stroke-linecap="round" stroke-linejoin="round"/>
    <path d="M221.455 134.546C221.455 135.334 221.455 136.122 221.455 136.91" stroke="#22222A" stroke-linecap="round" stroke-linejoin="round"/>
    <path d="M223.501 135.773C223.501 136.607 223.501 137.44 223.501 138.273" stroke="#22222A" stroke-linecap="round" stroke-linejoin="round"/>
    <path d="M228.955 135.773C228.955 136.401 228.963 137.03 228.952 137.657C228.946 138.009 228.87 138.388 228.955 138.728" stroke="#22222A" stroke-linecap="round" stroke-linejoin="round"/>
    <path d="M231.592 134.592C231.592 135.44 231.592 136.289 231.592 137.137" stroke="#22222A" stroke-linecap="round" stroke-linejoin="round"/>
    <path d="M221.273 136.91C222.032 137.507 222.761 138.225 223.637 138.637" stroke="#22222A" stroke-linecap="round" stroke-linejoin="round"/>
    <path d="M221.273 134.546C222.147 134.98 222.921 135.572 223.773 136.046" stroke="#22222A" stroke-linecap="round" stroke-linejoin="round"/>
    <path d="M228.546 136.091C229.995 135.634 230.763 135.268 232.091 134.546" stroke="#22222A" stroke-linecap="round" stroke-linejoin="round"/>
    <path d="M228.683 138.773C229.78 138.148 230.855 137.483 231.955 136.864" stroke="#22222A" stroke-linecap="round" stroke-linejoin="round"/>
    <path d="M223.228 138.455C225.219 138.481 227.196 138.633 229.182 138.728" stroke="#22222A" stroke-linecap="round" stroke-linejoin="round"/>
    <path d="M223.228 136.001C223.576 136.097 223.934 136.089 224.293 136.092C224.971 136.096 225.65 136.095 226.329 136.081C227.495 136.058 228.661 136.009 229.818 135.864" stroke="#22222A" stroke-linecap="round" stroke-linejoin="round"/>
    <path d="M221.546 134.773C222.618 134.268 223.619 133.648 224.637 133.046" stroke="#22222A" stroke-linecap="round" stroke-linejoin="round"/>
    <path d="M223.546 133.319C224.89 133.319 226.233 133.325 227.574 133.228C228.308 133.174 229.037 133.137 229.773 133.137" stroke="#22222A" stroke-linecap="round" stroke-linejoin="round"/>
    <path d="M228.955 133.183C229.9 133.655 230.623 134.434 231.591 134.864" stroke="#22222A" stroke-linecap="round" stroke-linejoin="round"/>
    <path d="M228.364 132.228C228.364 131.028 228.314 129.837 228.364 128.637" stroke="#22222A" stroke-linecap="round" stroke-linejoin="round"/>
    <path d="M233.728 131.137C233.749 130.106 233.882 129.078 233.909 128.046" stroke="#22222A" stroke-linecap="round" stroke-linejoin="round"/>
    <path d="M223.046 130.91C223.046 129.71 223.092 128.518 223.137 127.319" stroke="#22222A" stroke-linecap="round" stroke-linejoin="round"/>
    <path d="M222.773 130.592C224.758 131.233 226.725 132.046 228.773 132.455" stroke="#22222A" stroke-linecap="round" stroke-linejoin="round"/>
    <path d="M228.273 132.182C228.978 132.235 229.73 131.948 230.407 131.788C231.639 131.497 232.841 131.11 234.046 130.728" stroke="#22222A" stroke-linecap="round" stroke-linejoin="round"/>
    <path d="M228.41 129.137C230.448 128.897 232.441 128.382 234.456 128.001" stroke="#22222A" stroke-linecap="round" stroke-linejoin="round"/>
    <path d="M222.91 127.864C224.929 128.32 226.939 129.022 229.001 129.228" stroke="#22222A" stroke-linecap="round" stroke-linejoin="round"/>
    <path d="M223.183 127.728C223.105 127.127 223.137 126.515 223.137 125.91" stroke="#22222A" stroke-linecap="round" stroke-linejoin="round"/>
    <path d="M222.773 126.365C224.107 126.06 225.449 125.8 226.778 125.476C227.681 125.256 228.575 125.008 229.501 124.91" stroke="#22222A" stroke-linecap="round" stroke-linejoin="round"/>
    <path d="M228.364 124.773C229.258 125.128 230.245 125.261 231.182 125.455C232.212 125.668 233.257 125.826 234.273 126.092" stroke="#22222A" stroke-linecap="round" stroke-linejoin="round"/>
    <path d="M233.955 128.364C233.842 127.557 233.818 126.769 233.818 125.955" stroke="#22222A" stroke-linecap="round" stroke-linejoin="round"/>
    <path d="M238.637 97.9551C238.637 98.5763 238.637 99.1975 238.637 99.8187" stroke="#22222A" stroke-linecap="round" stroke-linejoin="round"/>
    <path d="M244.91 100.409C244.91 99.5456 244.91 98.682 244.91 97.8184" stroke="#22222A" stroke-linecap="round" stroke-linejoin="round"/>
    <path d="M245.501 99.5457C245.501 98.9397 245.501 98.3336 245.501 97.7275" stroke="#22222A" stroke-linecap="round" stroke-linejoin="round"/>
    <path d="M250.91 94.0459C250.91 94.8186 250.91 95.5914 250.91 96.3641" stroke="#22222A" stroke-linecap="round" stroke-linejoin="round"/>
    <path d="M244.046 93.9551C244.115 94.5755 244.091 95.1556 244.091 95.7733" stroke="#22222A" stroke-linecap="round" stroke-linejoin="round"/>
    <path d="M253.046 94.2275C253.046 95.0154 253.046 95.8033 253.046 96.5912" stroke="#22222A" stroke-linecap="round" stroke-linejoin="round"/>
    <path d="M259.137 94.7734C259.137 95.3244 259.2 95.9118 259.092 96.4553" stroke="#22222A" stroke-linecap="round" stroke-linejoin="round"/>
    <path d="M259.683 93.8184C259.766 94.2955 259.728 94.7902 259.728 95.2729" stroke="#22222A" stroke-linecap="round" stroke-linejoin="round"/>
    <path d="M254.183 99.8184C254.207 100.405 254.175 100.965 254.092 101.546" stroke="#22222A" stroke-linecap="round" stroke-linejoin="round"/>
    <path d="M252.683 100.318C252.695 101.016 252.728 101.711 252.728 102.409" stroke="#22222A" stroke-linecap="round" stroke-linejoin="round"/>
    <path d="M248.137 100.273C248.137 100.932 248.096 101.575 248.046 102.228" stroke="#22222A" stroke-linecap="round" stroke-linejoin="round"/>
    <path d="M246.774 99.6367C246.774 100.304 246.729 100.969 246.729 101.637" stroke="#22222A" stroke-linecap="round" stroke-linejoin="round"/>
    <path d="M257.364 97.6367C257.364 98.3337 257.364 99.5079 257.364 100.205" stroke="#22222A" stroke-linecap="round" stroke-linejoin="round"/>
    <path d="M261.773 98.3184C261.773 99.0456 261.773 99.7729 261.773 100.5" stroke="#22222A" stroke-linecap="round" stroke-linejoin="round"/>
    <path d="M265.683 97.4551C265.683 98.4575 265.592 99.4537 265.592 100.455" stroke="#22222A" stroke-linecap="round" stroke-linejoin="round"/>
    <path d="M238.183 99.9102C239.3 100.271 240.447 100.474 241.592 100.728" stroke="#22222A" stroke-linecap="round" stroke-linejoin="round"/>
    <path d="M240.819 100.728C242.023 100.585 243.982 100.498 245.183 100.364" stroke="#22222A" stroke-linecap="round" stroke-linejoin="round"/>
    <path d="M244.819 100.364C245.46 99.8365 245.292 99.8296 245.91 99.2734" stroke="#22222A" stroke-linecap="round" stroke-linejoin="round"/>
    <path d="M246.501 101.228C247.099 101.548 247.717 101.838 248.274 102.228" stroke="#22222A" stroke-linecap="round" stroke-linejoin="round"/>
    <path d="M247.773 102.183C249.583 102.183 251.377 102.229 253.183 102.319" stroke="#22222A" stroke-linecap="round" stroke-linejoin="round"/>
    <path d="M252.273 102.546C253.197 102.035 253.764 101.687 254.637 101.092" stroke="#22222A" stroke-linecap="round" stroke-linejoin="round"/>
    <path d="M256.864 100.046C258.85 100.239 260.831 100.471 262.819 100.637" stroke="#22222A" stroke-linecap="round" stroke-linejoin="round"/>
    <path d="M261.183 100.728C262.638 100.489 264.455 100.239 265.91 100.001" stroke="#22222A" stroke-linecap="round" stroke-linejoin="round"/>
    <path d="M256.773 97.8184C257.874 97.8184 258.906 97.9822 259.991 98.1618C260.736 98.2851 261.497 98.3508 262.228 98.5456" stroke="#22222A" stroke-linecap="round" stroke-linejoin="round"/>
    <path d="M261.137 98.5004C262.827 98.0921 264.548 97.7684 266.273 97.5459" stroke="#22222A" stroke-linecap="round" stroke-linejoin="round"/>
    <path d="M265.364 96.6367C265.468 96.8802 265.791 97.5817 265.91 97.8185" stroke="#22222A" stroke-linecap="round" stroke-linejoin="round"/>
    <path d="M257.274 96.6367C257.274 97.11 257.198 97.5395 257.092 98.0004" stroke="#22222A" stroke-linecap="round" stroke-linejoin="round"/>
    <path d="M256.864 97.0464C258.57 96.6061 259.831 96.4011 261.546 96.001" stroke="#22222A" stroke-linecap="round" stroke-linejoin="round"/>
    <path d="M260.955 96.0459C262.637 96.3641 264.138 96.5309 265.91 96.7277" stroke="#22222A" stroke-linecap="round" stroke-linejoin="round"/>
    <path d="M246.592 99.773C247.487 99.4648 248.355 99.0915 249.228 98.7275" stroke="#22222A" stroke-linecap="round" stroke-linejoin="round"/>
    <path d="M248.137 98.9556C250.077 98.9556 251.605 98.9102 253.546 98.9102" stroke="#22222A" stroke-linecap="round" stroke-linejoin="round"/>
    <path d="M252.546 98.7275C253.274 99.1855 254.055 99.5695 254.864 99.8639" stroke="#22222A" stroke-linecap="round" stroke-linejoin="round"/>
    <path d="M252.319 100.546C253.145 100.213 254.014 99.9679 254.819 99.5918" stroke="#22222A" stroke-linecap="round" stroke-linejoin="round"/>
    <path d="M246.592 99.7734C247.304 100.033 247.996 100.301 248.728 100.501" stroke="#22222A" stroke-linecap="round" stroke-linejoin="round"/>
    <path d="M247.729 100.41C249.53 100.53 251.333 100.501 253.138 100.501" stroke="#22222A" stroke-linecap="round" stroke-linejoin="round"/>
    <path d="M256.092 95.0459C256.092 95.6368 256.092 96.2277 256.092 96.8186" stroke="#22222A" stroke-linecap="round" stroke-linejoin="round"/>
    <path d="M252.729 96.4102C253.892 96.829 255.247 96.6693 256.365 97.2283" stroke="#22222A" stroke-linecap="round" stroke-linejoin="round"/>
    <path d="M255.91 97.0911C256.464 97.0383 257.004 96.9389 257.547 96.8184" stroke="#22222A" stroke-linecap="round" stroke-linejoin="round"/>
    <path d="M252.637 94.501C253.987 94.9269 255.424 95.0942 256.819 95.3192" stroke="#22222A" stroke-linecap="round" stroke-linejoin="round"/>
    <path d="M255.773 95.3638C257.011 95.187 258.274 95.0484 259.501 94.8184" stroke="#22222A" stroke-linecap="round" stroke-linejoin="round"/>
    <path d="M259.137 96.3645C259.368 95.9409 259.536 95.4808 259.819 95.0918" stroke="#22222A" stroke-linecap="round" stroke-linejoin="round"/>
    <path d="M259.046 94.9551C259.364 94.546 259.728 94.1824 260.046 93.9551" stroke="#22222A" stroke-linecap="round" stroke-linejoin="round"/>
    <path d="M256.91 93.5459C257.781 93.9132 258.703 94.1109 259.637 94.2277" stroke="#22222A" stroke-linecap="round" stroke-linejoin="round"/>
    <path d="M253.229 94.1373C254.576 93.9506 255.923 93.7489 257.274 93.5918" stroke="#22222A" stroke-linecap="round" stroke-linejoin="round"/>
    <path d="M253.046 94.5912C253.527 94.295 254.01 94.0075 254.5 93.7275" stroke="#22222A" stroke-linecap="round" stroke-linejoin="round"/>
    <path d="M244.273 94.2275C244.997 94.5051 245.684 94.8646 246.41 95.1366" stroke="#22222A" stroke-linecap="round" stroke-linejoin="round"/>
    <path d="M245.364 95.0914C246.84 95.1069 248.298 95.1279 249.773 95.0459" stroke="#22222A" stroke-linecap="round" stroke-linejoin="round"/>
    <path d="M249.046 95.1828C249.993 94.8054 250.942 94.4376 251.864 94.001" stroke="#22222A" stroke-linecap="round" stroke-linejoin="round"/>
    <path d="M244.092 94.1824C245.22 93.9341 246.337 93.6519 247.455 93.3643" stroke="#22222A" stroke-linecap="round" stroke-linejoin="round"/>
    <path d="M245.955 93.4551C247.456 93.4691 248.954 93.546 250.455 93.546" stroke="#22222A" stroke-linecap="round" stroke-linejoin="round"/>
    <path d="M249.41 93.4551C250.072 93.7961 250.719 94.1051 251.456 94.2278" stroke="#22222A" stroke-linecap="round" stroke-linejoin="round"/>
    <path d="M246.137 94.7734C246.137 95.5765 246.137 96.3795 246.137 97.1825" stroke="#22222A" stroke-linecap="round" stroke-linejoin="round"/>
    <path d="M249.137 94.7275C249.137 95.4255 249.092 96.121 249.092 96.8184" stroke="#22222A" stroke-linecap="round" stroke-linejoin="round"/>
    <path d="M243.91 95.6367C244.405 96.0034 244.939 96.3146 245.493 96.5837C245.718 96.6928 245.962 96.7537 246.183 96.864" stroke="#22222A" stroke-linecap="round" stroke-linejoin="round"/>
    <path d="M245.683 96.8189C247.138 96.8189 248.591 96.7734 250.046 96.7734" stroke="#22222A" stroke-linecap="round" stroke-linejoin="round"/>
    <path d="M248.592 97.1366C249.494 96.6542 250.416 96.2092 251.319 95.7275" stroke="#22222A" stroke-linecap="round" stroke-linejoin="round"/>
    <path d="M241.183 98.5459C241.183 99.5004 241.183 100.455 241.183 101.41" stroke="#22222A" stroke-linecap="round" stroke-linejoin="round"/>
    <path d="M238.319 98.2275C239.372 98.5851 240.456 98.8277 241.547 99.0548" stroke="#22222A" stroke-linecap="round" stroke-linejoin="round"/>
    <path d="M240.729 98.955C242.373 98.955 243.557 98.7897 245.183 98.5459" stroke="#22222A" stroke-linecap="round" stroke-linejoin="round"/>
    <path d="M244.592 98.7278C244.995 98.5149 245.574 97.7608 245.91 97.4551" stroke="#22222A" stroke-linecap="round" stroke-linejoin="round"/>
    <path d="M238.592 98.3643C239.223 97.9976 239.849 97.5995 240.501 97.2734" stroke="#22222A" stroke-linecap="round" stroke-linejoin="round"/>
    <path d="M239.729 97.4554C240.456 97.4554 241.547 97.4554 243.365 97.0918" stroke="#22222A" stroke-linecap="round" stroke-linejoin="round"/>
    <path d="M242.637 97.001C243.786 97.2766 244.915 97.5708 246.046 97.9101" stroke="#22222A" stroke-linecap="round" stroke-linejoin="round"/>
    <path d="M275.364 127.364C275.41 128.729 275.455 130.09 275.455 131.455" stroke="#22222A" stroke-linecap="round" stroke-linejoin="round"/>
    <path d="M276.864 132.819C276.973 131.37 276.806 129.906 276.773 128.455" stroke="#22222A" stroke-linecap="round" stroke-linejoin="round"/>
    <path d="M284.319 133.5C284.298 132.212 284.273 130.926 284.273 129.637" stroke="#22222A" stroke-linecap="round" stroke-linejoin="round"/>
    <path d="M287.818 132.001C287.818 130.895 287.818 129.789 287.818 128.683" stroke="#22222A" stroke-linecap="round" stroke-linejoin="round"/>
    <path d="M289.728 127.91C289.728 127.167 289.773 126.426 289.773 125.683" stroke="#22222A" stroke-linecap="round" stroke-linejoin="round"/>
    <path d="M291.364 129.592C291.364 128.758 291.41 127.925 291.41 127.092" stroke="#22222A" stroke-linecap="round" stroke-linejoin="round"/>
    <path d="M296.137 129.682C296.137 128.907 296.228 128.138 296.228 127.364" stroke="#22222A" stroke-linecap="round" stroke-linejoin="round"/>
    <path d="M298.183 128.456C298.237 127.773 298.33 127.094 298.364 126.41" stroke="#22222A" stroke-linecap="round" stroke-linejoin="round"/>
    <path d="M295.092 133.637C295.092 132.789 295.092 131.94 295.092 131.092" stroke="#22222A" stroke-linecap="round" stroke-linejoin="round"/>
    <path d="M296.455 135.092C296.455 134.258 296.501 133.426 296.501 132.592" stroke="#22222A" stroke-linecap="round" stroke-linejoin="round"/>
    <path d="M301.364 135.364C301.364 134.561 301.41 133.759 301.41 132.955" stroke="#22222A" stroke-linecap="round" stroke-linejoin="round"/>
    <path d="M303.773 134.637C303.786 133.787 303.864 132.942 303.864 132.092" stroke="#22222A" stroke-linecap="round" stroke-linejoin="round"/>
    <path d="M284.046 139.501C284.046 138.421 284.085 137.351 284.137 136.273" stroke="#22222A" stroke-linecap="round" stroke-linejoin="round"/>
    <path d="M287.364 138.137C287.232 139.121 287.183 140.1 287.183 141.091" stroke="#22222A" stroke-linecap="round" stroke-linejoin="round"/>
    <path d="M294.455 138.137C294.455 139.198 294.409 140.258 294.409 141.319" stroke="#22222A" stroke-linecap="round" stroke-linejoin="round"/>
    <path d="M296.864 136.455C296.983 137.509 296.864 138.579 296.864 139.637" stroke="#22222A" stroke-linecap="round" stroke-linejoin="round"/>
    <path d="M275.273 127.592C276.111 128.295 276.92 129.046 277.773 129.728" stroke="#22222A" stroke-linecap="round" stroke-linejoin="round"/>
    <path d="M276.637 129.364C278.912 129.499 281.173 129.729 283.455 129.773" stroke="#22222A" stroke-linecap="round" stroke-linejoin="round"/>
    <path d="M283.592 129.91C284.461 129.617 285.336 129.367 286.218 129.112C286.801 128.944 287.412 128.773 287.955 128.501" stroke="#22222A" stroke-linecap="round" stroke-linejoin="round"/>
    <path d="M285.909 126.592C286.609 127.217 287.344 127.838 287.909 128.592" stroke="#22222A" stroke-linecap="round" stroke-linejoin="round"/>
    <path d="M274.955 127.5C275.736 127.362 276.495 127.145 277.258 126.932C278.246 126.656 279.243 126.421 280.228 126.137" stroke="#22222A" stroke-linecap="round" stroke-linejoin="round"/>
    <path d="M279.137 126.409C279.773 126.372 280.413 126.32 281.051 126.336C281.889 126.358 282.714 126.506 283.541 126.629C284.565 126.781 285.56 126.822 286.591 126.773" stroke="#22222A" stroke-linecap="round" stroke-linejoin="round"/>
    <path d="M276.501 132.229C279.056 132.815 281.733 132.502 284.319 132.865" stroke="#22222A" stroke-linecap="round" stroke-linejoin="round"/>
    <path d="M284.001 132.91C285.593 132.222 287.229 131.644 288.819 130.955" stroke="#22222A" stroke-linecap="round" stroke-linejoin="round"/>
    <path d="M275.228 130.546C275.776 131.107 276.28 131.703 276.864 132.228" stroke="#22222A" stroke-linecap="round" stroke-linejoin="round"/>
    <path d="M283.637 138.864C284.515 139.349 285.412 139.804 286.273 140.319C286.581 140.503 286.951 140.678 287.182 140.955" stroke="#22222A" stroke-linecap="round" stroke-linejoin="round"/>
    <path d="M283.773 136.229C285.005 137.132 286.302 137.907 287.728 138.456" stroke="#22222A" stroke-linecap="round" stroke-linejoin="round"/>
    <path d="M287.137 138.455C289.879 138.433 292.622 138.364 295.364 138.364" stroke="#22222A" stroke-linecap="round" stroke-linejoin="round"/>
    <path d="M294.228 138.456C295.286 137.694 296.442 137.1 297.546 136.41" stroke="#22222A" stroke-linecap="round" stroke-linejoin="round"/>
    <path d="M294.092 141.592C295.466 140.615 296.842 139.642 298.228 138.683" stroke="#22222A" stroke-linecap="round" stroke-linejoin="round"/>
    <path d="M286.592 141.32C289.465 141.276 292.356 141.192 295.228 141.32" stroke="#22222A" stroke-linecap="round" stroke-linejoin="round"/>
    <path d="M283.773 136.682C284.914 135.892 286.087 135.173 287.273 134.455" stroke="#22222A" stroke-linecap="round" stroke-linejoin="round"/>
    <path d="M286.137 134.728C287.728 134.728 289.32 134.744 290.909 134.672C292.077 134.619 293.24 134.564 294.409 134.546" stroke="#22222A" stroke-linecap="round" stroke-linejoin="round"/>
    <path d="M293.273 134.319C294.453 135.204 295.846 135.762 297.092 136.547" stroke="#22222A" stroke-linecap="round" stroke-linejoin="round"/>
    <path d="M294.955 133.319C295.571 133.946 296.15 134.614 296.728 135.274" stroke="#22222A" stroke-linecap="round" stroke-linejoin="round"/>
    <path d="M294.909 131.229C295.513 131.788 296.067 132.415 296.727 132.91" stroke="#22222A" stroke-linecap="round" stroke-linejoin="round"/>
    <path d="M296.228 132.729C297.024 132.651 297.802 132.744 298.596 132.819C299.684 132.924 300.772 133.014 301.864 133.047" stroke="#22222A" stroke-linecap="round" stroke-linejoin="round"/>
    <path d="M296.773 135.228C298.439 135.22 300.173 134.915 301.819 135.228" stroke="#22222A" stroke-linecap="round" stroke-linejoin="round"/>
    <path d="M301.228 135.319C302.363 134.863 303.413 134.274 304.455 133.637" stroke="#22222A" stroke-linecap="round" stroke-linejoin="round"/>
    <path d="M301.228 133.183C302.402 132.669 303.625 132.256 304.773 131.683" stroke="#22222A" stroke-linecap="round" stroke-linejoin="round"/>
    <path d="M302.455 130.729C302.887 131.184 303.33 131.622 303.864 131.956" stroke="#22222A" stroke-linecap="round" stroke-linejoin="round"/>
    <path d="M294.728 131.364C295.901 131.086 297.063 130.766 298.228 130.455" stroke="#22222A" stroke-linecap="round" stroke-linejoin="round"/>
    <path d="M297.955 130.41C299.579 130.547 301.19 130.592 302.819 130.592" stroke="#22222A" stroke-linecap="round" stroke-linejoin="round"/>
    <path d="M291.046 127.092C292.103 127.098 293.158 127.185 294.215 127.175C295.253 127.166 296.282 127.078 297.319 127.137" stroke="#22222A" stroke-linecap="round" stroke-linejoin="round"/>
    <path d="M290.955 129.183C292.694 129.27 294.451 129.27 296.182 129.455" stroke="#22222A" stroke-linecap="round" stroke-linejoin="round"/>
    <path d="M295.728 129.774C296.841 129.102 297.895 128.343 298.955 127.592" stroke="#22222A" stroke-linecap="round" stroke-linejoin="round"/>
    <path d="M295.773 127.501C296.793 127.006 297.787 126.47 298.819 126.001" stroke="#22222A" stroke-linecap="round" stroke-linejoin="round"/>
    <path d="M289.501 125.683C290.204 126.422 290.95 127.043 291.865 127.501" stroke="#22222A" stroke-linecap="round" stroke-linejoin="round"/>
    <path d="M289.592 127.683C290.287 128.274 290.958 128.874 291.728 129.364" stroke="#22222A" stroke-linecap="round" stroke-linejoin="round"/>
    <path d="M289.546 126.046C290.465 125.548 291.443 125.17 292.41 124.773" stroke="#22222A" stroke-linecap="round" stroke-linejoin="round"/>
    <path d="M291.455 124.91C293.522 124.919 295.57 125.069 297.637 124.956" stroke="#22222A" stroke-linecap="round" stroke-linejoin="round"/>
    <path d="M296.228 124.683C296.886 125.316 297.783 125.751 298.318 126.501" stroke="#22222A" stroke-linecap="round" stroke-linejoin="round"/>
    <path d="M91 193.454C110.273 186.545 119.84 181.807 139.364 173.454M168.091 161.091C182.27 154.866 196.554 149.42 210.636 143.636C214.273 142.545 212.091 142.182 207.727 141.091C201.034 139.417 198.193 138.585 199.727 137.818C201.909 136.727 205.545 135.272 205.545 135.272" stroke="#22222A" stroke-linecap="round" stroke-linejoin="round"/>
    <path d="M189.909 152.363C196.818 154.909 208.455 159.636 208.455 159.636C208.455 159.636 218.273 163.636 224.818 163.636C231.364 163.636 267.322 144.073 281.182 137.454" stroke="#22222A" stroke-linecap="round" stroke-linejoin="round"/>
    <path d="M238.272 101.091C209.851 111.918 184.619 121.853 156.091 132.364C153.13 133.454 149.181 134.909 163 138.909C181.004 144.121 192.09 147.273 195 148C197.909 148.727 192.818 150.909 192.818 150.909" stroke="#22222A" stroke-linecap="round" stroke-linejoin="round"/>
    <path d="M195.909 148.454C194.785 149.349 196.28 149.313 196.075 148.287C195.975 147.788 195.366 148.067 195.222 148.383C195.037 148.788 194.989 149.501 195.5 149.671C195.873 149.796 196.136 149.595 196.303 149.262C196.397 149.073 196.506 148.209 196.02 148.515C195.656 148.743 195.519 149.909 196.09 149.909" stroke="#22222A" stroke-linecap="round" stroke-linejoin="round"/>
    <path d="M212.455 142.182C212.458 142.333 212.547 143.711 212.995 143.122C213.276 142.754 213.222 142.109 212.728 141.95C212.243 141.794 211.992 142.423 212.106 142.804C212.249 143.279 212.885 142.629 213 142.455" stroke="#22222A" stroke-linecap="round" stroke-linejoin="round"/>
    <path d="M153 134.182C152.632 134.329 151.593 134.612 151.899 135.222C152.137 135.699 152.772 135.941 153.257 135.712C153.709 135.5 153.693 134.913 153.505 134.515C153.35 134.189 152.791 134.023 152.697 134.48C152.473 135.569 153.856 135.717 153.464 134.596C153.264 134.022 152.664 133.446 152.015 133.48C151.59 133.502 151.432 134.044 151.272 134.364" stroke="#22222A" stroke-linecap="round" stroke-linejoin="round"/>
    <path d="M224.273 163.454C224.222 163.835 224.206 164.386 224.682 164.49C224.965 164.551 225.151 164.299 225.142 164.03C225.11 163.101 223.878 163.745 224.384 164.252C224.762 164.63 225.69 163.064 224.404 162.858C223.099 162.649 223.544 164.482 223.91 165.091" stroke="#22222A" stroke-linecap="round" stroke-linejoin="round"/>
    <path d="M198.819 138.181C198.787 138.494 198.758 138.909 199.182 138.909C199.419 138.909 199.377 138.622 199.364 138.454C199.321 137.898 198.326 137.778 198.364 138.454C198.397 139.055 199.452 139.538 199.526 138.727C199.602 137.886 198.246 137.49 197.637 137.545" stroke="#22222A" stroke-linecap="round" stroke-linejoin="round"/>
    <path d="M133.91 176.363C133.45 174.32 133.342 176.687 133.728 176.868C134.461 177.213 133.835 174.678 133.182 175.676C132.398 176.876 134.091 177.124 134.091 175.636C134.091 174.569 131.546 175.139 131.546 176.363" stroke="#22222A" stroke-linecap="round" stroke-linejoin="round"/>
    <path d="M292.554 105.887C290.941 105.38 287.827 107.342 286.009 109.887C283.463 112.069 283.269 114.176 283.463 114.615C284.712 117.433 285.645 122.251 290.31 123.755C291.392 124.104 298.304 119.737 299.1 116.796C299.782 114.274 297.545 110.985 296.918 109.887C295.463 107.342 294.571 106.521 292.554 105.887Z" fill="url(#paint0_linear)" fill-opacity="0.2"/>
    <path d="M218.771 112.376C215.463 111.706 213.281 114.615 211.463 117.16C208.918 119.342 209.486 120.665 209.68 121.103C210.929 123.922 212.554 128.909 216.918 129.524C219.499 129.887 224.19 125.887 225.645 122.978C226.813 120.641 223.762 117.474 223.135 116.376C221.68 113.831 220.843 112.796 218.771 112.376Z" fill="url(#paint1_linear)" fill-opacity="0.2"/>
    <path fill-rule="evenodd" clip-rule="evenodd" d="M290.766 109.439C290.19 109.359 288.784 110.36 288.221 110.893L289.675 113.802L292.404 111.825C292.144 111.055 291.342 109.519 290.766 109.439ZM290.854 115.839L293.675 114.028C294.072 114.695 294.595 116.291 294.555 116.579C294.434 117.447 293.648 117.986 292.918 118.487L292.918 118.487C292.739 118.609 292.565 118.728 292.404 118.85L290.854 115.839ZM288.948 117.075L287.13 118.529C287.161 118.623 287.192 118.719 287.222 118.816C287.443 119.514 287.68 120.263 288.584 120.711C289.106 120.969 290.096 120.431 290.402 119.984L288.948 117.075ZM288.221 115.257L286.766 112.348C286.112 112.869 285.311 113.743 285.312 114.893C285.312 115.257 285.729 116.301 286.039 116.711L288.221 115.257ZM215.685 119.705L213.867 117.159C214.351 116.553 215.467 115.341 216.048 115.341C216.63 115.341 217.503 116.795 217.867 117.523L215.685 119.705ZM219.685 119.341L217.139 121.523L219.321 124.068C219.464 123.926 219.62 123.783 219.78 123.637C220.434 123.042 221.139 122.4 221.139 121.523C221.139 121.232 220.17 119.947 219.685 119.341ZM215.685 122.977L217.503 125.523C217.261 126.008 215.873 127.161 215.321 126.977C214.38 126.664 213.98 125.809 213.655 125.113L213.655 125.113C213.603 125.002 213.553 124.895 213.503 124.795L215.685 122.977ZM212.412 118.614L214.23 121.159L212.412 122.977C212.049 122.614 211.713 122.111 211.322 121.523L211.321 121.523C210.626 120.481 211.729 119.328 212.331 118.699L212.331 118.699L212.412 118.614ZM214.735 113.16C215.408 112.487 217.452 112.967 218.372 113.887C219.826 115.341 223.826 120.432 223.826 121.523C223.826 122.614 223.294 123.874 222.008 125.16C220.554 126.614 217.281 128.796 216.554 129.16C215.826 129.523 215.099 129.523 212.917 126.614C210.735 123.705 208.917 120.796 209.281 120.069C209.572 119.487 212.554 115.341 214.735 113.16ZM287.463 122.25C287.172 121.96 285.402 118.978 284.554 117.523C284.433 117.281 284.303 117.055 284.174 116.829L284.174 116.829L284.174 116.829L284.174 116.828C283.915 116.376 283.657 115.923 283.463 115.341C282.978 113.887 282.735 112.432 287.099 108.796C290.739 105.763 291.849 106.778 292.539 107.409L292.539 107.409L292.539 107.409C292.676 107.534 292.797 107.645 292.917 107.705C293.645 108.069 296.917 114.614 297.281 115.705C297.572 116.578 296.796 118.129 296.554 118.614C294.493 120.069 290.59 122.687 290.008 122.978C289.281 123.341 287.826 122.614 287.463 122.25Z" fill="#00ACE4"/>
    <path d="M253.369 79.1787C250.651 78.6557 248.848 80.9693 247.346 82.9935C245.247 84.7312 245.711 85.779 245.87 86.1265C246.889 88.3589 248.212 92.3107 251.799 92.7866C253.92 93.0681 257.789 89.8823 258.993 87.5706C259.96 85.7135 257.46 83.2093 256.947 82.34C255.758 80.3247 255.072 79.5062 253.369 79.1787Z" fill="url(#paint2_linear)" fill-opacity="0.2"/>
    <path fill-rule="evenodd" clip-rule="evenodd" d="M250.185 79.5682C250.73 79.016 252.389 79.41 253.136 80.1655C254.316 81.3601 257.563 85.5413 257.563 86.4373C257.563 87.3332 257.131 88.3679 256.087 89.4238C254.907 90.6184 252.251 92.4104 251.66 92.709C251.07 93.0077 250.48 93.0077 248.709 90.6184C246.938 88.2292 245.462 85.84 245.758 85.2427C245.994 84.7648 248.414 81.3601 250.185 79.5682ZM249.315 82.9054L250.796 85.0202L252.699 82.9054C252.488 82.4119 251.896 81.425 251.219 81.425C250.542 81.425 249.668 82.4119 249.315 82.9054ZM248.258 84.1743L249.738 86.0777L248.258 87.5581C247.835 87.0646 247.031 85.9931 247.201 85.6547C247.37 85.3163 247.976 84.5268 248.258 84.1743ZM252.276 89.6729L250.796 87.5581L249.315 89.25C249.597 89.6729 250.288 90.5612 250.796 90.7304C251.303 90.8996 251.994 90.0959 252.276 89.6729ZM252.065 86.2892L253.968 88.404C254.603 87.9106 255.787 86.7967 255.449 86.2892C255.11 85.7816 254.321 84.9498 253.968 84.5973L252.065 86.2892Z" fill="#00ACE4"/>
    <path d="M299.363 115.637L297.467 116.364M297.467 112.001L296.091 112.728C296.655 112.431 296.905 112.297 297.467 112.001ZM298.636 113.819L296.818 114.546C297.523 114.175 297.938 114.187 298.636 113.819Z" stroke="black" stroke-linecap="round" stroke-linejoin="round"/>
    <path d="M294.999 110.941L296.592 109.976M294.046 106.551C293.322 106.933 293.183 106.92 292.453 107.304L294.046 106.551ZM293.908 109.122C294.748 108.68 294.671 108.764 295.501 108.327L293.908 109.122Z" stroke="black" stroke-linecap="round" stroke-linejoin="round"/>
    <path d="M296.454 120.364L295 120.364M292.454 121.819L293.909 121.819M298.636 118.182C297.798 118.422 297.278 118.686 296.454 118.91L298.636 118.182Z" stroke="black" stroke-linecap="round" stroke-linejoin="round"/>
    <path d="M284.058 112.301C283.044 113.464 283.371 114.779 283.638 115.547C284.263 117.338 286.044 120.77 286.546 121.422C287.174 122.236 287.756 123.412 289.245 123.237C290.734 123.063 294.138 120.763 295.981 119.341C298.017 117.77 297.168 115.827 296.901 115.059C296.662 114.373 294.261 109.952 293.004 108.323C291.709 106.644 289.898 106.822 289.084 107.45C287.796 108.443 284.919 111.312 284.058 112.301Z" stroke="black"/>
    <path d="M285.82 110.546C286.681 109.557 288.455 107.637 289.91 106.909C291.364 106.182 293.891 105.916 295.186 107.595C296.442 109.224 298.843 113.645 299.082 114.332C299.35 115.1 299.946 117.703 297.91 119.273C296.066 120.695 292.126 123.462 290.637 123.637C289.148 123.811 287.629 122.997 287 122.182" stroke="black"/>
    <path d="M289.547 113.818L288.092 110.909C288.656 110.376 290.061 109.375 290.637 109.455C291.214 109.535 292.015 111.071 292.275 111.841L289.547 113.818Z" stroke="black"/>
    <path d="M293.547 114.044L290.725 115.855L292.275 118.866C293.096 118.246 294.276 117.675 294.426 116.595C294.466 116.307 293.943 114.711 293.547 114.044Z" stroke="black"/>
    <path d="M290.274 120L288.819 117.091L287.001 118.546C287.261 119.316 287.425 120.217 288.456 120.727C288.977 120.985 289.967 120.447 290.274 120Z" stroke="black"/>
    <path d="M286.637 112.364L288.092 115.273L285.91 116.727C285.6 116.317 285.183 115.273 285.183 114.909C285.183 113.759 285.984 112.885 286.637 112.364Z" stroke="black"/>
    <path d="M225.467 123.683L222.557 124.992M224.739 119.3L223.049 120.191C223.614 119.893 224.177 119.596 224.739 119.3ZM225.83 121.267L223.726 122.376C224.431 122.004 225.133 121.635 225.83 121.267Z" stroke="black" stroke-linecap="round" stroke-linejoin="round"/>
    <path d="M221.545 118.182L223.138 117.217M220.592 113.793C219.867 114.175 219.729 114.161 218.999 114.545L220.592 113.793ZM220.454 116.364C221.294 115.921 221.217 116.005 222.047 115.568L220.454 116.364Z" stroke="black" stroke-linecap="round" stroke-linejoin="round"/>
    <path d="M217.544 113.455L218.999 112.728" stroke="black" stroke-linecap="round" stroke-linejoin="round"/>
    <path d="M220.617 128.185L218.412 128.5M222.999 126.284C222.161 126.524 221.44 126.631 220.617 126.855L222.999 126.284Z" stroke="black" stroke-linecap="round" stroke-linejoin="round"/>
    <path d="M209.909 119.273C209.053 120.557 209.546 121.818 209.909 122.546C210.758 124.243 212.964 127.418 213.546 128C214.273 128.727 215 129.818 216.455 129.455C217.909 129.091 220.99 126.374 222.636 124.727C224.455 122.909 223.364 121.091 223 120.364C222.675 119.713 219.727 115.636 218.273 114.182C216.774 112.683 215 113.091 214.273 113.818C213.123 114.968 210.636 118.182 209.909 119.273Z" stroke="black"/>
    <path d="M213.182 114.909C214.273 113.819 214.636 113.091 216.454 112.728C217.463 112.526 219.066 112.245 220.565 113.745C222.02 115.199 224.967 119.276 225.293 119.926C225.656 120.654 226.747 122.472 224.929 124.29C223.283 125.936 220.091 129.091 218.636 129.455C217.182 129.819 216.091 129.819 215.363 129.455" stroke="black"/>
    <path d="M215.727 120L213.909 117.455C214.394 116.849 215.509 115.637 216.091 115.637C216.673 115.637 217.546 117.091 217.909 117.819L215.727 120Z" stroke="black"/>
    <path d="M219.727 119.637L217.182 121.819L219.364 124.364C220.091 123.637 221.182 122.909 221.182 121.819C221.182 121.528 220.212 120.243 219.727 119.637Z" stroke="black"/>
    <path d="M217.546 125.819L215.727 123.273L213.546 125.091C213.909 125.819 214.273 126.909 215.364 127.273C215.916 127.457 217.303 126.303 217.546 125.819Z" stroke="black"/>
    <path d="M212.455 118.909L214.273 121.455L212.455 123.273C212.091 122.91 211.756 122.406 211.364 121.819L211.364 121.819C210.636 120.728 211.879 119.516 212.455 118.909Z" stroke="black"/>
    <path d="M256.819 89.8195L253.91 91.1291M259.158 85.2931L257.468 86.1833C258.033 85.8858 258.596 85.589 259.158 85.2931ZM259.158 87.2742L257.054 88.3825C257.759 88.0111 258.46 87.6417 259.158 87.2742Z" stroke="black" stroke-linecap="round" stroke-linejoin="round"/>
    <path d="M256.455 84.7579L258.048 83.7935M255.502 80.3688C254.778 80.7507 254.639 80.7372 253.909 81.1216L255.502 80.3688ZM255.364 82.9397C256.204 82.4973 256.128 82.5812 256.957 82.1442L255.364 82.9397Z" stroke="black" stroke-linecap="round" stroke-linejoin="round"/>
    <path d="M252.455 80.031L253.909 79.3037" stroke="black" stroke-linecap="round" stroke-linejoin="round"/>
    <path d="M246.237 84.2999C245.542 85.3436 245.942 86.3694 246.237 86.9607C246.927 88.3404 248.721 90.9225 249.194 91.3955C249.785 91.9868 250.377 92.8738 251.559 92.5781C252.742 92.2825 255.247 90.0733 256.585 88.7346C258.063 87.2564 257.177 85.7781 256.881 85.1868C256.616 84.6579 254.22 81.3433 253.037 80.1607C251.818 78.9417 250.377 79.2738 249.785 79.8651C248.85 80.8 246.829 83.4129 246.237 84.2999Z" stroke="black"/>
    <path d="M248.898 80.7515C249.785 79.8645 250.081 79.2733 251.559 78.9776C252.379 78.8136 253.683 78.5854 254.902 79.8044C256.084 80.987 258.481 84.3016 258.745 84.8304C259.041 85.4217 259.928 86.9 258.449 88.3783C257.111 89.7169 254.516 92.2819 253.333 92.5776C252.151 92.8732 251.264 92.8732 250.672 92.5776" stroke="black"/>
    <path d="M250.968 84.8906L249.489 82.821C249.884 82.3283 250.79 81.3428 251.263 81.3428C251.736 81.3428 252.446 82.5254 252.742 83.1167L250.968 84.8906Z" stroke="black"/>
    <path d="M254.22 84.5949L252.15 86.3689L253.924 88.4384C254.516 87.8471 255.402 87.2558 255.402 86.3689C255.402 86.1323 254.614 85.0877 254.22 84.5949Z" stroke="black"/>
    <path d="M252.446 89.621L250.968 87.5515L249.194 89.0297C249.489 89.621 249.785 90.508 250.672 90.8036C251.121 90.9532 252.249 90.0152 252.446 89.621Z" stroke="black"/>
    <path d="M248.307 84.0036L249.785 86.0732L248.307 87.5515C248.011 87.2559 247.739 86.8468 247.42 86.3693L247.42 86.3689C246.829 85.4819 247.839 84.4964 248.307 84.0036Z" stroke="black"/>
    <path d="M93.3422 172.215C92.1459 174.01 92.8338 175.774 93.3422 176.79C94.5283 179.163 97.6123 183.602 98.4257 184.416C99.4424 185.432 100.459 186.958 102.493 186.449C104.526 185.941 108.833 182.142 111.135 179.841C113.676 177.299 112.151 174.757 111.643 173.74C111.188 172.831 107.068 167.132 105.034 165.098C102.938 163.002 100.459 163.573 99.4424 164.59C97.8349 166.197 94.3589 170.69 93.3422 172.215Z" stroke="#22222A"/>
    <path d="M97.917 166.115C99.4421 164.59 99.9504 163.573 102.492 163.065C103.902 162.783 106.143 162.39 108.239 164.486C110.273 166.52 114.393 172.219 114.848 173.128C115.356 174.145 116.881 176.687 114.339 179.229C112.038 181.53 107.576 185.941 105.542 186.449C103.509 186.957 101.984 186.957 100.967 186.449" stroke="#22222A"/>
    <path d="M101.476 173.231L98.9345 169.673C99.6123 168.825 101.171 167.131 101.985 167.131C102.798 167.131 104.018 169.164 104.526 170.181L101.476 173.231Z" stroke="#22222A"/>
    <path d="M107.068 172.723L103.51 175.773L106.56 179.331C107.577 178.315 109.102 177.298 109.102 175.773C109.102 175.366 107.746 173.57 107.068 172.723Z" stroke="#22222A"/>
    <path d="M104.018 181.365L101.476 177.806L98.4261 180.348C98.9345 181.365 99.4428 182.89 100.968 183.398C101.74 183.655 103.679 182.043 104.018 181.365Z" stroke="#22222A"/>
    <path d="M96.901 171.706L99.4428 175.265L96.901 177.806C96.3928 177.298 95.9239 176.595 95.3766 175.774L95.376 175.773C94.3593 174.248 96.0962 172.553 96.901 171.706Z" stroke="#22222A"/>
    <path d="M111.725 179.273L115.509 177.57M114.781 173.187C114.056 173.569 113.329 173.952 112.599 174.337L114.781 173.187ZM112.963 176.687C113.94 176.172 114.909 175.661 115.872 175.154L112.963 176.687Z" stroke="#22222A" stroke-linecap="round" stroke-linejoin="round"/>
    <path d="M110.635 172.444L113.18 171.103M110.635 167.679C109.91 168.061 109.183 168.444 108.453 168.828L110.635 167.679ZM109.585 170.773C110.425 170.331 111.26 169.891 112.089 169.454L109.585 170.773Z" stroke="#22222A" stroke-linecap="round" stroke-linejoin="round"/>
    <path d="M107.361 167.13L109.543 165.98M105.953 163.106C105.333 163.432 104.712 163.76 104.088 164.088L105.953 163.106ZM105.953 165.648C106.668 165.271 107.38 164.896 108.088 164.522L105.953 165.648Z" stroke="#22222A" stroke-linecap="round" stroke-linejoin="round"/>
    <path d="M113.543 180.093C111.867 180.94 110.998 181.091 109.18 181.819M110.998 182.622L106.271 184M104.452 185.455L108.089 184.909" stroke="#22222A" stroke-linecap="round" stroke-linejoin="round"/>
    <path d="M116.26 142.718L110.408 144.057L170.283 165.093L169.741 187.996L174.163 185.918L174.705 163.015L116.26 142.718Z" fill="url(#paint3_radial)" fill-opacity="0.2" stroke="black"/>
    <path d="M110.68 163.319L111.127 144.416L115.905 142.346L174.341 163.007L173.791 186.273L170.112 188.005L139.859 175.286L138.846 171.988L134.813 173.348L110.68 163.319Z" fill="url(#paint4_radial)" fill-opacity="0.1"/>
    <path d="M160.434 165.952C160.4 167.352 160.367 168.752 160.339 169.951M167.05 181.75C167.086 180.257 167.115 179.022 167.145 177.751M160.212 175.294C160.175 176.877 160.151 177.875 160.115 179.403M113.924 149.211L113.829 153.21M119.281 151.52L119.195 155.155M124.648 153.466L124.562 157.101M130.915 155.433L130.823 159.316M138.518 158.164L138.423 162.164M145.676 160.637L145.572 165.001M167.257 173.025L167.366 168.428M152.368 163.707L152.285 167.214M152.173 171.95L152.079 175.939M145.372 173.487L145.464 169.599M138.222 170.649L138.312 166.884M130.717 163.794L130.628 167.559M124.467 161.106L124.372 165.099M119.103 159.038L119.012 162.917M113.648 160.85L113.726 157.577" stroke="#22222A" stroke-linecap="round" stroke-linejoin="round"/>
    <path d="M162.331 162.002C162.298 163.401 162.262 164.924 162.234 166.123M161.798 184.535C161.834 183.042 161.871 181.456 161.901 180.185M162.103 171.639C162.066 173.222 162.049 173.918 162.013 175.447M115.805 145.981L115.716 149.74M115.354 165.014L115.435 161.619M121.171 147.927L121.079 151.807M120.706 167.558L120.801 163.559M126.534 149.996L126.451 153.508M126.064 169.867L126.159 165.868M132.799 152.085L132.719 155.475M132.295 172.197L132.381 168.562M140.407 154.569L140.307 158.812M147.559 157.286L147.456 161.65M147.057 178.499L147.158 174.257M154.269 159.623L154.172 163.749M153.762 181.071L153.857 177.072M154.063 168.347L153.968 172.346M147.25 170.369L147.359 165.771M140.106 167.29L140.21 162.927M132.607 160.201L132.506 164.449M126.333 158.481L126.253 161.875M120.982 155.925L120.887 159.924M115.529 157.615L115.61 154.225" stroke="#22222A" stroke-linecap="round" stroke-linejoin="round"/>
    <path d="M170.366 163.023C170.133 172.886 169.923 181.763 169.695 191.379" stroke="#22222A" stroke-linecap="round" stroke-linejoin="round"/>
    <path d="M111.177 143.436C111.037 149.358 110.849 157.292 110.712 163.066" stroke="#22222A" stroke-linecap="round" stroke-linejoin="round"/>
    <path d="M171.262 188.143C165.445 186.55 153.923 181.549 139.883 175.397M109.545 163.272C118.636 166.909 123.727 169.454 135.426 173.872M174.737 162.763C159.936 158.048 116.168 142.644 113.046 141.298M171.796 165.603C159.058 160.693 109.953 143.952 106.832 142.606" stroke="#22222A" stroke-linecap="round" stroke-linejoin="round"/>
    <path d="M174.738 161.562C174.541 169.895 174.277 181.065 174.084 189.19" stroke="#22222A" stroke-linecap="round" stroke-linejoin="round"/>
    <path d="M170.272 165.09C172.09 164.363 173.545 163.636 176.076 162.431" stroke="#22222A" stroke-linecap="round" stroke-linejoin="round"/>
    <path d="M169.013 188.343C171.026 187.523 172.984 186.626 174.899 185.572" stroke="#22222A" stroke-linecap="round" stroke-linejoin="round"/>
    <path d="M111.159 144.163C113.496 143.454 115.865 142.858 118.198 142.147" stroke="#22222A" stroke-linecap="round" stroke-linejoin="round"/>
    <path d="M139.599 170.914C139.574 172.329 139.547 173.809 139.519 175.388" stroke="#22222A" stroke-linecap="round" stroke-linejoin="round"/>
    <path d="M135.307 168.994C135.263 170.83 135.238 171.906 135.192 173.831" stroke="#22222A" stroke-linecap="round" stroke-linejoin="round"/>
    <path d="M134.746 173.841C135.702 173.593 138.484 172.299 139.609 172.062" stroke="#22222A" stroke-linecap="round" stroke-linejoin="round"/>
    <path d="M169.824 169.447C152.512 163.218 127.271 153.891 109.967 147.662" stroke="#22222A" stroke-linecap="round" stroke-linejoin="round"/>
    <path d="M170.075 174.182C157.332 169.287 114.069 153.392 110.946 152.05" stroke="#22222A" stroke-linecap="round" stroke-linejoin="round"/>
    <path d="M170.771 179.109C157.971 174.336 113.494 157.053 110.355 155.74" stroke="#22222A" stroke-linecap="round" stroke-linejoin="round"/>
    <path d="M170.587 183.287C157.834 178.353 113.536 160.664 110.41 159.312" stroke="#22222A" stroke-linecap="round" stroke-linejoin="round"/>
    <path d="M174.273 185.633L169.975 187.897M174.273 180.867C172.831 181.627 171.377 182.393 169.909 183.166L174.273 180.867ZM174.364 183.361C172.896 184.135 171.411 184.917 169.909 185.708L174.364 183.361Z" stroke="black" stroke-linecap="round" stroke-linejoin="round"/>
    <path d="M174.283 177.873L170.062 180.097M174.515 172.985C173.082 173.74 171.635 174.502 170.174 175.272L174.515 172.985ZM174.515 175.526C173.047 176.3 171.563 177.082 170.062 177.873L174.515 175.526Z" stroke="black" stroke-linecap="round" stroke-linejoin="round"/>
    <path d="M174.636 170.317L170.272 172.616M174.636 165.552C173.247 166.283 171.845 167.022 170.43 167.767L174.636 165.552ZM174.636 168.093C173.248 168.824 171.847 169.563 170.43 170.309L174.636 168.093Z" stroke="black" stroke-linecap="round" stroke-linejoin="round"/>
    <path d="M169.896 161.091C168.579 161.784 167.25 162.485 165.909 163.191L169.896 161.091ZM173.182 161.901C171.641 162.713 170.084 163.533 168.509 164.363L173.182 161.901Z" stroke="black" stroke-linecap="round" stroke-linejoin="round"/>
    <path d="M166.955 160.036L162.883 162.181M161.43 158.181C160.265 158.795 159.091 159.413 157.909 160.036L161.43 158.181ZM164.184 159.272C162.952 159.921 161.709 160.576 160.454 161.237L164.184 159.272Z" stroke="black" stroke-linecap="round" stroke-linejoin="round"/>
    <path d="M154.636 159.18L158.273 157.265M155.764 156.362C154.67 156.939 153.567 157.52 152.455 158.106L155.764 156.362ZM153.011 155.271C151.864 155.875 150.709 156.484 149.546 157.097L153.011 155.271Z" stroke="black" stroke-linecap="round" stroke-linejoin="round"/>
    <path d="M145.909 156.409L150.139 154.181M147.364 153.419C146.163 154.052 144.951 154.69 143.728 155.335L147.364 153.419ZM144.545 152.363C143.402 152.964 142.252 153.571 141.093 154.181L144.545 152.363Z" stroke="black" stroke-linecap="round" stroke-linejoin="round"/>
    <path d="M137.545 153.06L141.136 151.168M132.09 151.168C133.311 150.525 134.523 149.886 135.727 149.252L132.09 151.168ZM138.272 150.453C137.19 151.023 136.1 151.598 135 152.177L138.272 150.453Z" stroke="black" stroke-linecap="round" stroke-linejoin="round"/>
    <path d="M129.413 150.181L132.455 148.578M127.364 146.494C126.19 147.113 125.008 147.736 123.818 148.362L127.364 146.494ZM126.273 149.611C127.535 148.946 128.785 148.288 130.023 147.635L126.273 149.611Z" stroke="black" stroke-linecap="round" stroke-linejoin="round"/>
    <path d="M124.41 145.447L120.818 147.339M115.364 145.447C116.584 144.805 117.796 144.166 119 143.532L115.364 145.447ZM117.909 146.648C119.256 145.938 120.589 145.236 121.909 144.541L117.909 146.648Z" stroke="black" stroke-linecap="round" stroke-linejoin="round"/>
    <path d="M116.454 142.269L112.091 144.567" stroke="black" stroke-linecap="round" stroke-linejoin="round"/>
    <path fill-rule="evenodd" clip-rule="evenodd" d="M265.182 232C329.247 232 381.182 180.065 381.182 116C381.182 51.935 329.247 0 265.182 0C201.117 0 149.182 51.935 149.182 116C149.182 180.065 201.117 232 265.182 232ZM254.964 94.7869L254.966 94.786C255.091 94.7096 255.223 94.6294 255.363 94.5453C257.182 93.4544 259.363 92.0588 259.363 90.9089C259.363 89.0907 255.727 83.2321 254.273 82.9089C254.058 82.8611 253.827 82.7957 253.585 82.7271C252.189 82.3316 250.421 81.8306 249.182 83.9998C249.016 84.2892 248.613 84.775 248.142 85.3414L248.142 85.3414C247.072 86.6291 245.656 88.3331 245.909 89.0907C246.636 91.2725 247.727 94.5453 250.636 95.9998C252.968 95.9998 253.586 95.6246 254.964 94.7869ZM290.273 106.909C289.182 106.545 284.454 111.273 283.727 113.454C283.727 114.909 284.091 118.473 285.545 121.091C287.124 123.932 289.524 123.758 290.843 123.663C291.044 123.649 291.219 123.636 291.363 123.636C292.454 123.636 299.363 117.818 299.727 116.363C300.091 114.909 296.454 108 294.273 106.909C292.938 106.242 292.148 106.527 291.486 106.765C291.065 106.917 290.696 107.05 290.273 106.909ZM209.909 120C209.909 118.545 214.636 113.454 216.454 112.727H220.091C220.939 113.697 222.927 116.073 224.091 117.818C225.545 120 225.545 121.818 225.182 123.636C224.891 125.091 220.697 128.121 218.636 129.454C217.909 129.454 216.091 129.309 214.636 128.727C212.818 128 209.909 121.454 209.909 120Z" fill="url(#paint5_radial)" fill-opacity="0.1"/>
    <defs>
        <linearGradient id="paint0_linear" x1="300.615" y1="115.292" x2="268.16" y2="90.2655" gradientUnits="userSpaceOnUse">
            <stop offset="0.0877704" stop-color="#72C8E6"/>
            <stop offset="0.279955" stop-color="#3E7BFA"/>
            <stop offset="0.654262" stop-color="#3E7BFA"/>
        </linearGradient>
        <linearGradient id="paint1_linear" x1="226.832" y1="121.781" x2="194.377" y2="96.7542" gradientUnits="userSpaceOnUse">
            <stop offset="0.0877704" stop-color="#72C8E6"/>
            <stop offset="0.279955" stop-color="#3E7BFA"/>
            <stop offset="0.654262" stop-color="#3E7BFA"/>
        </linearGradient>
        <linearGradient id="paint2_linear" x1="259.973" y1="86.6176" x2="234.107" y2="65.9072" gradientUnits="userSpaceOnUse">
            <stop offset="0.0877704" stop-color="#72C8E6"/>
            <stop offset="0.279955" stop-color="#3E7BFA"/>
            <stop offset="0.654262" stop-color="#3E7BFA"/>
        </linearGradient>
        <radialGradient id="paint3_radial" cx="0" cy="0" r="1" gradientUnits="userSpaceOnUse" gradientTransform="translate(137.202 167.097) rotate(27.4411) scale(59.3397 89.8458)">
            <stop stop-color="#939292"/>
            <stop offset="1" stop-color="#939292" stop-opacity="0"/>
        </radialGradient>
        <radialGradient id="paint4_radial" cx="0" cy="0" r="1" gradientUnits="userSpaceOnUse" gradientTransform="translate(141.139 167.314) rotate(85.3205) scale(38.2427 49.9495)">
            <stop stop-color="#939292"/>
            <stop offset="1" stop-color="#939292" stop-opacity="0"/>
        </radialGradient>
        <radialGradient id="paint5_radial" cx="0" cy="0" r="1" gradientUnits="userSpaceOnUse" gradientTransform="translate(253.909 120.727) rotate(44.1845) scale(144.522 131.022)">
            <stop stop-color="#00ACE4" stop-opacity="0.5"/>
            <stop offset="0.526736" stop-color="#00ACE4" stop-opacity="0.1"/>
            <stop offset="0.862181" stop-color="#00ACE4" stop-opacity="0"/>
        </radialGradient>
    </defs>
</svg>
