<?xml version="1.0" encoding="UTF-8"?>
<svg fill="none" viewBox="0 0 114 104" xmlns="http://www.w3.org/2000/svg">
<path d="m87.28 85.532v-15.513l-15.196-3.4824-10.764 3.4824v15.513l14.879 4.7487 11.08-4.7487z" fill="#fff"/>
<path d="m61.709 67.899c0.1296 0 0.2346 0.105 0.2346 0.2345v20.449c0 0.1295-0.105 0.2345-0.2346 0.2345-0.1295 0-0.2345-0.105-0.2345-0.2345v-20.449c0-0.1295 0.105-0.2345 0.2345-0.2345z" clip-rule="evenodd" fill="#000" fill-rule="evenodd"/>
<path d="m59.856 86.166c0.0337-0.125 0.1629-0.2007 0.2884-0.169l18.683 4.719c0.1256 0.0317 0.2 0.1588 0.1663 0.2838-0.0337 0.1251-0.1628 0.2008-0.2884 0.1691l-18.683-4.719c-0.1256-0.0317-0.2001-0.1588-0.1664-0.2839z" clip-rule="evenodd" fill="#000" fill-rule="evenodd"/>
<path d="m58.228 68.877c0.0254-0.127 0.1492-0.2106 0.2765-0.1867l25.181 4.7189c0.1273 0.0239 0.21 0.1462 0.1846 0.2732s-0.1492 0.2106-0.2765 0.1868l-25.181-4.719c-0.1274-0.0238-0.21-0.1461-0.1846-0.2732z" clip-rule="evenodd" fill="#000" fill-rule="evenodd"/>
<path d="m71.226 65.722c0.0312-0.1258 0.1588-0.2039 0.2849-0.1746l20.307 4.719c0.1262 0.0293 0.2032 0.155 0.172 0.2807-0.0311 0.1257-0.1587 0.2039-0.2848 0.1745l-20.307-4.7189c-0.1262-0.0293-0.2032-0.155-0.1721-0.2807z" clip-rule="evenodd" fill="#000" fill-rule="evenodd"/>
<path d="m74.488 91.257c-0.051-0.119 0.0051-0.2547 0.1253-0.3029l16.246-6.5198c0.1202-0.0483 0.259 0.0092 0.31 0.1282 0.0509 0.1191-0.0052 0.2548-0.1254 0.303l-16.246 6.5198c-0.1202 0.0482-0.2589-0.0092-0.3099-0.1283z" clip-rule="evenodd" fill="#000" fill-rule="evenodd"/>
<path d="m75.292 72.972c-0.036-0.1244 0.0361-0.2528 0.1611-0.2867l14.683-3.9894c0.125-0.0339 0.2556 0.0394 0.2916 0.1638 0.0361 0.1244-0.036 0.2528-0.161 0.2868l-14.683 3.9893c-0.125 0.0339-0.2556-0.0394-0.2917-0.1638z" clip-rule="evenodd" fill="#000" fill-rule="evenodd"/>
<path d="m58.235 70.386c-0.0388-0.1236 0.0306-0.2534 0.1548-0.2899l20.825-6.1181c0.1243-0.0365 0.2564 0.0341 0.2952 0.1577 0.0387 0.1236-0.0306 0.2534-0.1549 0.2899l-20.825 6.1181c-0.1243 0.0365-0.2564-0.0341-0.2951-0.1577z" clip-rule="evenodd" fill="#000" fill-rule="evenodd"/>
<path d="m77.143 71.832c0.1296 0 0.2346 0.105 0.2346 0.2346v18.876c0 0.1296-0.105 0.2346-0.2346 0.2346-0.1295 0-0.2345-0.105-0.2345-0.2346v-18.876c0-0.1296 0.105-0.2346 0.2345-0.2346z" clip-rule="evenodd" fill="#000" fill-rule="evenodd"/>
<path d="m87.701 69.079c0.1296 0 0.2346 0.105 0.2346 0.2345v17.066c0 0.1295-0.105 0.2345-0.2346 0.2345-0.1295 0-0.2345-0.105-0.2345-0.2345v-17.066c0-0.1295 0.105-0.2345 0.2345-0.2345z" clip-rule="evenodd" fill="#000" fill-rule="evenodd"/>
<path d="m85.042 69.707c0.1263 0.0303 0.2028 0.1562 0.1708 0.2813l-4.6267 18.089c-0.032 0.1251-0.1604 0.2019-0.2868 0.1716-0.1263-0.0303-0.2028-0.1562-0.1708-0.2813l4.6268-18.089c0.0319-0.1251 0.1603-0.2019 0.2867-0.1716zm2.4403 0.6505c0.1259 0.0323 0.2004 0.1594 0.1665 0.284l-4.7503 17.44c-0.0339 0.1246-0.1635 0.1995-0.2893 0.1672-0.1258-0.0322-0.2003-0.1593-0.1664-0.2839l4.7502-17.44c0.034-0.1246 0.1635-0.1995 0.2893-0.1673zm-4.9573-0.6506c0.1264 0.0303 0.2029 0.1563 0.1709 0.2814-0.8139 3.1821-1.6493 6.507-2.4721 9.7827l-0.0399 0.1589c-0.809 3.221-1.6053 6.3914-2.3563 9.3274-0.032 0.1251-0.1604 0.2019-0.2867 0.1716-0.1264-0.0303-0.2028-0.1562-0.1709-0.2813 0.7507-2.935 1.5469-6.1046 2.356-9.3259l0.0398-0.1584c0.8227-3.2756 1.6583-6.6015 2.4725-9.7847 0.032-0.1251 0.1604-0.2019 0.2867-0.1717zm-2.8626 1.5731c0.1263 0.0303 0.2028 0.1562 0.1708 0.2813l-2.7157 10.618c-0.032 0.1251-0.1603 0.202-0.2867 0.1717-0.1263-0.0303-0.2028-0.1563-0.1708-0.2814l2.7157-10.618c0.032-0.1251 0.1603-0.2019 0.2867-0.1716z" clip-rule="evenodd" fill="#000" fill-rule="evenodd"/>
<path d="m87.49 79.405c0.1247 0.036 0.1953 0.1653 0.1575 0.2889l-2.3243 7.6084c-0.0378 0.1236-0.1695 0.1946-0.2943 0.1586-0.1247-0.036-0.1952-0.1654-0.1575-0.2889l2.3244-7.6084c0.0377-0.1236 0.1694-0.1946 0.2942-0.1586z" clip-rule="evenodd" fill="#000" fill-rule="evenodd"/>
<path d="m108.39 93.037v-15.512l-15.196-3.4824-10.764 3.4824v15.512l14.879 4.7488 11.081-4.7488z" fill="#fff"/>
<path d="m82.818 75.404c0.1295 0 0.2346 0.105 0.2346 0.2345v20.449c0 0.1295-0.1051 0.2345-0.2346 0.2345s-0.2345-0.105-0.2345-0.2345v-20.449c0-0.1295 0.105-0.2345 0.2345-0.2345z" clip-rule="evenodd" fill="#000" fill-rule="evenodd"/>
<path d="m80.965 93.67c0.0337-0.1251 0.1628-0.2007 0.2884-0.169l18.683 4.7189c0.1257 0.0318 0.1997 0.1589 0.1667 0.2839-0.034 0.1251-0.1631 0.2008-0.2887 0.1691l-18.683-4.719c-0.1256-0.0317-0.2001-0.1588-0.1664-0.2839z" clip-rule="evenodd" fill="#000" fill-rule="evenodd"/>
<path d="m79.337 76.382c0.0254-0.127 0.1492-0.2106 0.2765-0.1868l25.18 4.719c0.128 0.0238 0.21 0.1462 0.185 0.2732s-0.149 0.2106-0.277 0.1868l-25.18-4.719c-0.1273-0.0238-0.2099-0.1462-0.1845-0.2732z" clip-rule="evenodd" fill="#000" fill-rule="evenodd"/>
<path d="m92.336 73.226c0.0312-0.1258 0.1587-0.2039 0.2849-0.1746l20.307 4.7189c0.126 0.0294 0.203 0.155 0.172 0.2808-0.031 0.1257-0.159 0.2038-0.285 0.1745l-20.307-4.7189c-0.1261-0.0293-0.2031-0.155-0.172-0.2807z" clip-rule="evenodd" fill="#000" fill-rule="evenodd"/>
<path d="m95.597 98.762c-0.051-0.119 0.0051-0.2547 0.1253-0.3029l16.246-6.5198c0.12-0.0483 0.259 0.0092 0.31 0.1282 0.051 0.1191-5e-3 0.2547-0.125 0.303l-16.246 6.5198c-0.1202 0.0482-0.259-0.0092-0.3099-0.1283z" clip-rule="evenodd" fill="#000" fill-rule="evenodd"/>
<path d="m96.402 80.476c-0.036-0.1244 0.0361-0.2528 0.1611-0.2868l14.682-3.9893c0.125-0.034 0.256 0.0394 0.292 0.1638s-0.036 0.2528-0.161 0.2867l-14.683 3.9894c-0.125 0.0339-0.2555-0.0394-0.2916-0.1638z" clip-rule="evenodd" fill="#000" fill-rule="evenodd"/>
<path d="m79.344 77.89c-0.0387-0.1236 0.0306-0.2534 0.1549-0.29l20.825-6.118c0.124-0.0365 0.256 0.0341 0.295 0.1577 0.038 0.1236-0.031 0.2534-0.155 0.2899l-20.825 6.118c-0.1243 0.0366-0.2564-0.034-0.2952-0.1576z" clip-rule="evenodd" fill="#000" fill-rule="evenodd"/>
<path d="m98.252 79.336c0.1295 0 0.2345 0.105 0.2345 0.2346v18.876c0 0.1296-0.105 0.2346-0.2345 0.2346s-0.2345-0.105-0.2345-0.2346v-18.876c0-0.1296 0.105-0.2346 0.2345-0.2346z" clip-rule="evenodd" fill="#000" fill-rule="evenodd"/>
<path d="m108.81 76.584c0.129 0 0.234 0.105 0.234 0.2345v17.066c0 0.1295-0.105 0.2345-0.234 0.2345-0.13 0-0.235-0.105-0.235-0.2345v-17.066c0-0.1295 0.105-0.2345 0.235-0.2345z" clip-rule="evenodd" fill="#000" fill-rule="evenodd"/>
<path d="m106.15 77.213c0.126 0.0303 0.203 0.1562 0.171 0.2813l-4.627 18.089c-0.032 0.1251-0.16 0.2019-0.287 0.1716-0.126-0.0303-0.203-0.1563-0.171-0.2813l4.627-18.089c0.032-0.1251 0.161-0.2019 0.287-0.1716zm2.44 0.6505c0.126 0.0322 0.201 0.1594 0.167 0.2839l-4.751 17.44c-0.034 0.1246-0.163 0.1994-0.289 0.1672s-0.2-0.1593-0.166-0.2839l4.75-17.44c0.034-0.1246 0.163-0.1995 0.289-0.1673zm-4.957-0.6506c0.126 0.0303 0.203 0.1563 0.171 0.2814-0.814 3.1821-1.649 6.507-2.472 9.7827l-0.04 0.1589c-0.809 3.2209-1.6055 6.3913-2.3565 9.3274-0.032 0.125-0.1603 0.2019-0.2867 0.1716-0.1263-0.0303-0.2028-0.1563-0.1708-0.2814 0.7507-2.935 1.547-6.1045 2.356-9.3259l0.04-0.1584c0.822-3.2755 1.658-6.6014 2.472-9.7847 0.032-0.125 0.161-0.2019 0.287-0.1716zm-2.863 1.5731c0.127 0.0303 0.203 0.1562 0.171 0.2813l-2.7156 10.618c-0.0319 0.1251-0.1603 0.2019-0.2867 0.1716-0.1263-0.0303-0.2028-0.1562-0.1708-0.2813l2.7161-10.618c0.032-0.1251 0.16-0.2019 0.286-0.1716z" clip-rule="evenodd" fill="#000" fill-rule="evenodd"/>
<path d="m108.6 86.91c0.124 0.036 0.195 0.1653 0.157 0.2889l-2.324 7.6084c-0.038 0.1236-0.17 0.1945-0.294 0.1585-0.125-0.0359-0.196-0.1653-0.158-0.2889l2.324-7.6084c0.038-0.1235 0.17-0.1945 0.295-0.1585z" clip-rule="evenodd" fill="#000" fill-rule="evenodd"/>
<path d="m91.032 97.259v-15.512l-15.196-3.4824-10.764 3.4824v15.512l14.879 4.7484 11.08-4.7484z" fill="#fff"/>
<path d="m65.463 79.626c0.1296 0 0.2346 0.105 0.2346 0.2345v20.449c0 0.129-0.105 0.234-0.2345 0.234-0.1296 0-0.2346-0.105-0.2346-0.234v-20.449c0-0.1295 0.105-0.2345 0.2345-0.2345z" clip-rule="evenodd" fill="#000" fill-rule="evenodd"/>
<path d="m63.61 97.892c0.0337-0.1251 0.1629-0.2007 0.2884-0.169l18.683 4.7193c0.1256 0.031 0.2 0.158 0.1664 0.284-0.0337 0.125-0.1629 0.2-0.2885 0.169l-18.683-4.7194c-0.1256-0.0317-0.2001-0.1588-0.1664-0.2839z" clip-rule="evenodd" fill="#000" fill-rule="evenodd"/>
<path d="m61.982 80.603c0.0254-0.127 0.1492-0.2106 0.2765-0.1868l25.181 4.719c0.1274 0.0238 0.21 0.1461 0.1846 0.2732-0.0254 0.127-0.1492 0.2106-0.2765 0.1867l-25.181-4.7189c-0.1273-0.0239-0.21-0.1462-0.1846-0.2732z" clip-rule="evenodd" fill="#000" fill-rule="evenodd"/>
<path d="m74.98 77.448c0.0311-0.1257 0.1587-0.2038 0.2848-0.1745l20.307 4.7189c0.1262 0.0293 0.2032 0.155 0.172 0.2808-0.0311 0.1257-0.1587 0.2038-0.2848 0.1745l-20.307-4.7189c-0.1262-0.0293-0.2032-0.155-0.172-0.2808z" clip-rule="evenodd" fill="#000" fill-rule="evenodd"/>
<path d="m78.242 102.98c-0.051-0.119 0.0051-0.255 0.1253-0.303l16.246-6.5196c0.1202-0.0483 0.259 0.0091 0.31 0.1282 0.0509 0.1191-0.0052 0.2547-0.1254 0.303l-16.246 6.5194c-0.1202 0.049-0.2589-9e-3 -0.3099-0.128z" clip-rule="evenodd" fill="#000" fill-rule="evenodd"/>
<path d="m79.046 84.698c-0.036-0.1244 0.0361-0.2528 0.1611-0.2868l14.683-3.9893c0.125-0.034 0.2556 0.0394 0.2916 0.1638 0.0361 0.1244-0.036 0.2528-0.161 0.2867l-14.683 3.9894c-0.125 0.0339-0.2556-0.0394-0.2917-0.1638z" clip-rule="evenodd" fill="#000" fill-rule="evenodd"/>
<path d="m61.988 82.112c-0.0388-0.1236 0.0306-0.2534 0.1548-0.2899l20.825-6.118c0.1243-0.0365 0.2564 0.0341 0.2952 0.1577 0.0387 0.1236-0.0306 0.2534-0.1549 0.2899l-20.825 6.118c-0.1243 0.0366-0.2564-0.0341-0.2951-0.1577z" clip-rule="evenodd" fill="#000" fill-rule="evenodd"/>
<path d="m80.897 83.558c0.1296 0 0.2346 0.105 0.2346 0.2346v18.876c0 0.129-0.105 0.234-0.2346 0.234-0.1295 0-0.2345-0.105-0.2345-0.234v-18.876c0-0.1296 0.105-0.2346 0.2345-0.2346z" clip-rule="evenodd" fill="#000" fill-rule="evenodd"/>
<path d="m91.455 80.805c0.1296 0 0.2346 0.105 0.2346 0.2345v17.066c0 0.1296-0.105 0.2346-0.2346 0.2346-0.1295 0-0.2345-0.105-0.2345-0.2346v-17.066c0-0.1295 0.105-0.2345 0.2345-0.2345z" clip-rule="evenodd" fill="#000" fill-rule="evenodd"/>
<path d="m88.793 81.434c0.1264 0.0303 0.2029 0.1562 0.1709 0.2813l-4.6268 18.089c-0.032 0.125-0.1604 0.2016-0.2867 0.1716-0.1264-0.0303-0.2028-0.1563-0.1709-0.2814l4.6268-18.089c0.032-0.1251 0.1604-0.2019 0.2867-0.1716zm2.4404 0.6505c0.1258 0.0322 0.2003 0.1593 0.1664 0.2839l-4.7502 17.44c-0.034 0.1246-0.1635 0.1991-0.2893 0.1672-0.1259-0.0322-0.2004-0.1593-0.1665-0.2839l4.7503-17.44c0.0339-0.1246 0.1635-0.1994 0.2893-0.1672zm-4.9573-0.6506c0.1263 0.0303 0.2028 0.1563 0.1708 0.2813-0.8139 3.1821-1.6492 6.5071-2.472 9.7828l-0.0399 0.1589c-0.8091 3.2209-1.6054 6.3913-2.3563 9.3273-0.032 0.125-0.1604 0.202-0.2868 0.172-0.1263-0.031-0.2028-0.157-0.1708-0.282 0.7507-2.9347 1.5468-6.1042 2.3559-9.3256l0.0398-0.1584c0.8228-3.2755 1.6584-6.6014 2.4726-9.7847 0.032-0.1251 0.1603-0.2019 0.2867-0.1716zm-2.8627 1.573c0.1264 0.0303 0.2029 0.1563 0.1709 0.2814l-2.7157 10.618c-0.032 0.1251-0.1604 0.2019-0.2867 0.1716-0.1264-0.0303-0.2029-0.1562-0.1709-0.2813l2.7157-10.618c0.032-0.1251 0.1604-0.202 0.2867-0.1717z" clip-rule="evenodd" fill="#000" fill-rule="evenodd"/>
<path d="m91.242 91.131c0.1248 0.036 0.1953 0.1653 0.1576 0.2889l-2.3244 7.6084c-0.0377 0.1235-0.1694 0.1945-0.2942 0.1585s-0.1953-0.1653-0.1575-0.2889l2.3243-7.6084c0.0378-0.1235 0.1695-0.1945 0.2942-0.1585z" clip-rule="evenodd" fill="#000" fill-rule="evenodd"/>
<path d="m29.116 92.099v-15.512l-15.196-3.4824-10.764 3.4824v15.512l14.879 4.7488 11.08-4.7488z" fill="#fff"/>
<path d="m3.5451 74.467c0.12953 0 0.23453 0.105 0.23453 0.2345l1e-5 20.449c0 0.1295-0.10501 0.2345-0.23454 0.2345s-0.23453-0.105-0.23453-0.2345v-20.449c0-0.1295 0.105-0.2345 0.23453-0.2345z" clip-rule="evenodd" fill="#000" fill-rule="evenodd"/>
<path d="m1.6919 92.733c0.0337-0.1251 0.16282-0.2007 0.28841-0.169l18.683 4.7189c0.1256 0.0318 0.2001 0.1589 0.1664 0.2839-0.0337 0.1251-0.1628 0.2008-0.2884 0.1691l-18.683-4.719c-0.12558-0.0317-0.20007-0.1588-0.16638-0.2839z" clip-rule="evenodd" fill="#000" fill-rule="evenodd"/>
<path d="m0.063551 75.444c0.02539-0.127 0.14918-0.2106 0.27649-0.1868l25.181 4.719c0.1273 0.0238 0.2099 0.1462 0.1845 0.2732s-0.1492 0.2106-0.2765 0.1868l-25.181-4.719c-0.12731-0.0238-0.20994-0.1462-0.18455-0.2732z" clip-rule="evenodd" fill="#000" fill-rule="evenodd"/>
<path d="m13.062 72.289c0.0311-0.1258 0.1587-0.2039 0.2849-0.1746l20.307 4.7189c0.1261 0.0294 0.2031 0.155 0.172 0.2808-0.0312 0.1257-0.1587 0.2038-0.2849 0.1745l-20.307-4.7189c-0.1262-0.0293-0.2032-0.155-0.172-0.2807z" clip-rule="evenodd" fill="#000" fill-rule="evenodd"/>
<path d="m16.324 97.824c-0.051-0.119 0.0052-0.2547 0.1254-0.3029l16.246-6.5198c0.1203-0.0483 0.259 0.0092 0.31 0.1282 0.051 0.1191-0.0052 0.2547-0.1254 0.303l-16.246 6.5198c-0.1202 0.0482-0.259-0.0092-0.31-0.1283z" clip-rule="evenodd" fill="#000" fill-rule="evenodd"/>
<path d="m17.128 79.539c-0.0361-0.1244 0.036-0.2528 0.161-0.2868l14.683-3.9893c0.125-0.034 0.2555 0.0394 0.2916 0.1638 0.036 0.1244-0.0361 0.2528-0.1611 0.2867l-14.683 3.9894c-0.125 0.0339-0.2556-0.0394-0.2916-0.1638z" clip-rule="evenodd" fill="#000" fill-rule="evenodd"/>
<path d="m0.070491 76.953c-0.038734-0.1236 0.030613-0.2534 0.15489-0.29l20.825-6.118c0.1242-0.0365 0.2564 0.0341 0.2951 0.1577s-0.0306 0.2534-0.1549 0.2899l-20.825 6.118c-0.12428 0.0366-0.25642-0.034-0.29516-0.1576z" clip-rule="evenodd" fill="#000" fill-rule="evenodd"/>
<path d="m18.979 78.399c0.1295 0 0.2345 0.105 0.2345 0.2346v18.876c0 0.1296-0.105 0.2346-0.2345 0.2346-0.1296 0-0.2346-0.105-0.2346-0.2346v-18.876c0-0.1296 0.105-0.2346 0.2346-0.2346z" clip-rule="evenodd" fill="#000" fill-rule="evenodd"/>
<path d="m29.537 75.646c0.1295 0 0.2345 0.105 0.2345 0.2345v17.066c0 0.1295-0.105 0.2345-0.2345 0.2345-0.1296 0-0.2346-0.105-0.2346-0.2345v-17.066c0-0.1295 0.105-0.2345 0.2346-0.2345z" clip-rule="evenodd" fill="#000" fill-rule="evenodd"/>
<path d="m26.877 76.275c0.1263 0.0303 0.2028 0.1562 0.1708 0.2813l-4.6267 18.089c-0.032 0.1251-0.1604 0.2019-0.2867 0.1716-0.1264-0.0303-0.2029-0.1563-0.1709-0.2813l4.6268-18.089c0.032-0.1251 0.1603-0.2019 0.2867-0.1716zm2.4404 0.6505c0.1258 0.0322 0.2003 0.1594 0.1664 0.284l-4.7503 17.44c-0.0339 0.1246-0.1634 0.1995-0.2893 0.1672-0.1258-0.0322-0.2003-0.1593-0.1664-0.2839l4.7503-17.44c0.0339-0.1246 0.1634-0.1995 0.2893-0.1673zm-4.9573-0.6506c0.1263 0.0303 0.2028 0.1563 0.1708 0.2814-0.8139 3.1821-1.6493 6.507-2.472 9.7827l-0.0399 0.1589c-0.8091 3.2209-1.6054 6.3914-2.3564 9.3274-0.032 0.1251-0.1603 0.2019-0.2867 0.1716-0.1263-0.0303-0.2028-0.1563-0.1708-0.2813 0.7507-2.9351 1.5468-6.1046 2.3559-9.3259l0.0398-0.1584c0.8228-3.2756 1.6584-6.6015 2.4726-9.7848 0.0319-0.125 0.1603-0.2019 0.2867-0.1716zm-2.8627 1.5731c0.1264 0.0303 0.2029 0.1562 0.1709 0.2813l-2.7157 10.618c-0.032 0.1251-0.1604 0.2019-0.2867 0.1716-0.1264-0.0303-0.2029-0.1562-0.1709-0.2813l2.7157-10.618c0.032-0.1251 0.1604-0.2019 0.2867-0.1716z" clip-rule="evenodd" fill="#000" fill-rule="evenodd"/>
<path d="m29.326 85.972c0.1248 0.036 0.1953 0.1653 0.1576 0.2889l-2.3244 7.6084c-0.0377 0.1236-0.1695 0.1946-0.2942 0.1586-0.1248-0.036-0.1953-0.1654-0.1576-0.2889l2.3244-7.6085c0.0377-0.1235 0.1695-0.1945 0.2942-0.1585z" clip-rule="evenodd" fill="#000" fill-rule="evenodd"/>
<path d="m95.048 77.804-0.731-16.228-15.196-3.4824-10.764 3.4824v15.512l14.879 4.7487 11.811-4.0332z" fill="#fff"/>
<path d="m68.748 59.456c0.1295 0 0.2345 0.105 0.2345 0.2345v20.449c0 0.1296-0.105 0.2346-0.2345 0.2346s-0.2345-0.105-0.2345-0.2346v-20.449c0-0.1295 0.105-0.2345 0.2345-0.2345z" clip-rule="evenodd" fill="#000" fill-rule="evenodd"/>
<path d="m66.895 77.722c0.0337-0.1251 0.1628-0.2008 0.2884-0.169l18.683 4.7189c0.1256 0.0317 0.2001 0.1588 0.1664 0.2839s-0.1628 0.2007-0.2884 0.169l-18.683-4.7189c-0.1256-0.0317-0.2001-0.1588-0.1664-0.2839z" clip-rule="evenodd" fill="#000" fill-rule="evenodd"/>
<path d="m65.267 60.433c0.0254-0.127 0.1492-0.2106 0.2765-0.1868 4.1419 0.7762 7.279 1.3613 10.304 1.9253l0.2599 0.0485c2.9328 0.5468 5.7839 1.0784 9.3713 1.7507 0.1273 0.0239 0.21 0.1462 0.1846 0.2732s-0.1492 0.2106-0.2765 0.1868c-3.5872-0.6723-6.4382-1.2039-9.371-1.7507l-0.2599-0.0485c-3.025-0.564-6.1623-1.1491-10.304-1.9253-0.1273-0.0239-0.2099-0.1462-0.1845-0.2732z" clip-rule="evenodd" fill="#000" fill-rule="evenodd"/>
<path d="m78.265 57.278c0.0312-0.1257 0.1587-0.2039 0.2849-0.1745l20.307 4.7189c0.1262 0.0293 0.2032 0.155 0.172 0.2807-0.0312 0.1258-0.1587 0.2039-0.2849 0.1746l-20.307-4.7189c-0.1261-0.0294-0.2032-0.155-0.172-0.2808z" clip-rule="evenodd" fill="#000" fill-rule="evenodd"/>
<path d="m82.16 82.33c-0.0411-0.1225 0.026-0.2531 0.1499-0.2916 1.3293-0.4126 2.5357-0.7797 3.6664-1.1237 4.0088-1.2198 7.0653-2.1498 11.265-3.7931 0.1207-0.0472 0.259 0.0114 0.3089 0.1309s-0.0074 0.2546-0.1281 0.3018c-4.2178 1.6505-7.2944 2.5866-11.307 3.8075-1.1291 0.3435-2.3323 0.7096-3.6559 1.1205-0.1239 0.0385-0.2577-0.0297-0.2988-0.1523z" clip-rule="evenodd" fill="#000" fill-rule="evenodd"/>
<path d="m82.331 64.528c-0.0361-0.1244 0.036-0.2528 0.161-0.2868l14.683-3.9893c0.125-0.034 0.2555 0.0393 0.2916 0.1637 0.0361 0.1245-0.036 0.2528-0.161 0.2868l-14.683 3.9893c-0.125 0.034-0.2555-0.0393-0.2916-0.1637z" clip-rule="evenodd" fill="#000" fill-rule="evenodd"/>
<path d="m65.274 61.942c-0.0387-0.1236 0.0306-0.2534 0.1549-0.2899l20.825-6.118c0.1243-0.0365 0.2564 0.0341 0.2951 0.1577 0.0388 0.1236-0.0306 0.2534-0.1549 0.2899l-20.825 6.118c-0.1243 0.0365-0.2565-0.0341-0.2952-0.1577z" clip-rule="evenodd" fill="#000" fill-rule="evenodd"/>
<path d="m84.182 63.388c0.1295 0 0.2345 0.105 0.2345 0.2345v18.876c0 0.1295-0.105 0.2345-0.2345 0.2345s-0.2345-0.105-0.2345-0.2345v-18.876c0-0.1295 0.105-0.2345 0.2345-0.2345z" clip-rule="evenodd" fill="#000" fill-rule="evenodd"/>
<path d="m94.74 60.635c0.1295 0 0.2345 0.105 0.2345 0.2345v17.066c0 0.1296-0.105 0.2346-0.2345 0.2346s-0.2345-0.105-0.2345-0.2346v-17.066c0-0.1295 0.105-0.2345 0.2345-0.2345z" clip-rule="evenodd" fill="#000" fill-rule="evenodd"/>
<path d="m94.878 61.265c0.1255 0.0333 0.1989 0.1611 0.1638 0.2854l-5.1058 18.089c-0.0351 0.1243-0.1653 0.198-0.2908 0.1647-0.1256-0.0334-0.1989-0.1612-0.1638-0.2855l5.1058-18.089c0.0351-0.1243 0.1653-0.198 0.2908-0.1646zm-2.8192 0.3642c0.1259 0.0307 0.202 0.1564 0.1701 0.2812-0.791 3.0926-1.6352 6.323-2.4693 9.5141l-0.032 0.1225c-0.8232 3.1495-1.6358 6.2585-2.3773 9.1577-0.032 0.125-0.1604 0.2019-0.2867 0.1716-0.1264-0.0303-0.2029-0.1563-0.1709-0.2814l2.2876-8.9438 4e-4 -0.0015 2.5906-9.8489 4e-4 -0.0015c0.0328-0.1246 0.1611-0.2006 0.2871-0.17zm-3.0497 1.2073c0.1263 0.0303 0.2028 0.1563 0.1708 0.2814-0.8135 3.1804-1.51 6.1108-2.1943 8.9933l-0.0333 0.1403c-0.6728 2.8338-1.3353 5.6249-2.0867 8.5624-0.032 0.125-0.1603 0.2019-0.2867 0.1716-0.1263-0.0303-0.2028-0.1563-0.1708-0.2814 0.7503-2.9335 1.4121-5.7212 2.0851-8.5561l0.0329-0.1387c0.6842-2.8823 1.3817-5.8163 2.1963-9.0011 0.032-0.1251 0.1603-0.2019 0.2867-0.1717zm-2.8227 0.4325c0.1274 0.0257 0.2085 0.1488 0.1812 0.2749l-2.2101 10.183c-0.0274 0.1261-0.1528 0.2075-0.2803 0.1818-0.1274-0.0258-0.2085-0.1488-0.1812-0.2749l2.2101-10.183c0.0274-0.1261 0.1529-0.2074 0.2803-0.1817z" clip-rule="evenodd" fill="#000" fill-rule="evenodd"/>
<path d="m94.529 70.96c0.1248 0.036 0.1953 0.1653 0.1576 0.2889l-2.3244 7.6084c-0.0377 0.1236-0.1694 0.1945-0.2942 0.1585-0.1247-0.036-0.1953-0.1653-0.1575-0.2889l2.3243-7.6084c0.0378-0.1235 0.1695-0.1945 0.2942-0.1585z" clip-rule="evenodd" fill="#000" fill-rule="evenodd"/>
<path d="m49.394 64.483-17.07-2.9133v-15.638l17.07 2.1108 6.3832-3.7525 7.2705-2.8144-5.3942 4.4561v14.307l-8.2595 4.2448z" fill="#fff"/>
<path d="m52.162 43.498c0.1262 0.0299 0.203 0.1552 0.1718 0.2803l-3e-4 0.0012-1.3157 5.2609c-0.4443 1.7931-0.8843 3.5686-1.2475 4.9888-0.032 0.1248-0.1599 0.2016-0.2861 0.1717s-0.2031-0.1552-0.1718-0.2802l3e-4 -0.0012 1.2468-4.9859c0.0041-0.0164 0.0082-0.0329 0.0123-0.0493l0.012-0.0485c0.4525-1.8264 0.9088-3.6673 1.2921-5.1661 0.0319-0.1248 0.1599-0.2016 0.2861-0.1717zm-3.9039-0.8676c0.1254 0.0341 0.198 0.1623 0.1622 0.2864l-1.3481 4.6782c-0.0358 0.1241-0.1664 0.1971-0.2917 0.1631-0.1254-0.0341-0.198-0.1623-0.1622-0.2864l1.3481-4.6782c0.0358-0.1241 0.1664-0.1971 0.2917-0.1631zm2.2625 0.543c0.1254 0.0338 0.1982 0.1619 0.1626 0.2861l-1.308 4.5686c-0.0356 0.1242-0.166 0.1974-0.2914 0.1636s-0.1983-0.1619-0.1627-0.2861l1.308-4.5686c0.0356-0.1242 0.1661-0.1974 0.2915-0.1636zm2.6531 2.2827c0.1264 0.0303 0.2028 0.1562 0.1709 0.2813-0.3835 1.4993-1.0417 3.96-1.696 6.4055l-0.0172 0.0643c-0.6487 2.4249-1.2912 4.8262-1.6572 6.2571-0.032 0.125-0.1603 0.2019-0.2867 0.1716-0.1263-0.0303-0.2028-0.1563-0.1708-0.2814 0.3666-1.4333 1.0095-3.8363 1.6576-6.2589l0.0181-0.0674c0.6545-2.4466 1.3119-4.9043 1.6946-6.4005 0.032-0.1251 0.1603-0.2019 0.2867-0.1716z" clip-rule="evenodd" fill="#000" fill-rule="evenodd"/>
<path d="m56.931 45.28c0.127 0.0278 0.206 0.1522 0.1766 0.2778l-4.1954 18.123c-0.0294 0.1257-0.1562 0.2051-0.2832 0.1773s-0.206-0.1522-0.1766-0.2778l4.1954-18.123c0.0294-0.1257 0.1562-0.205 0.2832-0.1773zm-2.2912 0.997c0.1268 0.0285 0.2052 0.1533 0.1751 0.2788l-4.5022 18.758c-0.0301 0.1255-0.1574 0.2042-0.2842 0.1757-0.1268-0.0284-0.2052-0.1532-0.175-0.2788l4.5022-18.758c0.0301-0.1255 0.1573-0.2042 0.2841-0.1758zm2.5752 6.6834c0.1268 0.0282 0.2054 0.1529 0.1755 0.2785l-2.0223 8.4845c-0.0299 0.1256-0.157 0.2045-0.2838 0.1762-0.1269-0.0282-0.2055-0.1529-0.1755-0.2785l2.0222-8.4845c0.0299-0.1256 0.157-0.2045 0.2839-0.1762z" clip-rule="evenodd" fill="#000" fill-rule="evenodd"/>
<path d="m36.995 37.675c0.1264 0.0304 0.2028 0.1564 0.1707 0.2814l-1.8283 7.1287c-0.0321 0.125-0.1605 0.2018-0.2868 0.1714s-0.2028-0.1564-0.1707-0.2815l1.8283-7.1286c0.0321-0.1251 0.1605-0.2018 0.2868-0.1714zm1.6853 0.9284c0.1262 0.0304 0.2026 0.1563 0.1706 0.2813-0.2657 1.0388-0.4734 1.8385-0.6793 2.6313l-0.0041 0.0154c-0.0013 0.0051-0.0026 0.0101-0.0039 0.0151l-0.6608 2.5594-1e-4 5e-4c-0.0323 0.1249-0.1607 0.2015-0.2869 0.1711s-0.2025-0.1563-0.1706-0.2813c0.2556-0.9992 0.458-1.7784 0.6612-2.5607l0.687-2.6606 1e-4 -5e-4c0.0322-0.1249 0.1606-0.2014 0.2868-0.171zm1.6849 0.9789c0.1264 0.0303 0.2029 0.1563 0.1709 0.2813l-0.8347 3.2633c-0.032 0.1251-0.1603 0.202-0.2867 0.1717-0.1263-0.0303-0.2028-0.1563-0.1708-0.2814l0.8346-3.2633c0.032-0.1251 0.1604-0.2019 0.2867-0.1716z" clip-rule="evenodd" fill="#000" fill-rule="evenodd"/>
<path d="m38.344 43.165c0.1264 0.0303 0.2029 0.1562 0.1709 0.2813l-0.6693 2.6168c-0.032 0.125-0.1604 0.2019-0.2867 0.1716-0.1264-0.0303-0.2028-0.1563-0.1709-0.2814l0.6693-2.6167c0.032-0.1251 0.1604-0.2019 0.2867-0.1716zm-2.9166 1.3114c0.1263 0.0303 0.2028 0.1563 0.1708 0.2813l-0.3338 1.3054c-0.032 0.125-0.1604 0.2019-0.2867 0.1716-0.1264-0.0303-0.2029-0.1563-0.1709-0.2814l0.3339-1.3053c0.032-0.125 0.1603-0.2019 0.2867-0.1716z" clip-rule="evenodd" fill="#000" fill-rule="evenodd"/>
<path d="m43.454 41.54c0.1264 0.0303 0.2028 0.1563 0.1709 0.2814l-1.252 4.8949c-0.032 0.1251-0.1604 0.2019-0.2867 0.1716-0.1264-0.0303-0.2029-0.1562-0.1709-0.2813l1.252-4.8949c0.032-0.1251 0.1603-0.202 0.2867-0.1717zm2.3308 0.979c0.1264 0.0303 0.2029 0.1563 0.1709 0.2814l-1.1685 4.5686c-0.032 0.125-0.1604 0.2019-0.2867 0.1716-0.1264-0.0303-0.2029-0.1563-0.1709-0.2813l1.1685-4.5687c0.032-0.125 0.1604-0.2019 0.2867-0.1716zm-4.7447-0.3716c0.1263 0.0303 0.2028 0.1563 0.1708 0.2814l-1.0966 4.2875c-0.032 0.1251-0.1604 0.2019-0.2867 0.1716-0.1264-0.0303-0.2029-0.1562-0.1709-0.2813l1.0967-4.2875c0.0319-0.1251 0.1603-0.202 0.2867-0.1717z" clip-rule="evenodd" fill="#000" fill-rule="evenodd"/>
<path d="m33.127 44.72c0.1295 0 0.2345 0.105 0.2345 0.2345v16.969c0 0.1295-0.105 0.2345-0.2345 0.2345s-0.2345-0.105-0.2345-0.2345v-16.969c0-0.1295 0.105-0.2345 0.2345-0.2345z" clip-rule="evenodd" fill="#000" fill-rule="evenodd"/>
<path d="m32.222 61.231c0.0235-0.1274 0.146-0.2128 0.2737-0.1907l18.874 3.2633c0.1277 0.022 0.2121 0.1432 0.1886 0.2706s-0.146 0.2127-0.2736 0.1907l-18.874-3.2633c-0.1276-0.0221-0.2121-0.1432-0.1886-0.2706z" clip-rule="evenodd" fill="#000" fill-rule="evenodd"/>
<path d="m32.222 45.571c0.0213-0.1278 0.1423-0.2151 0.2703-0.1952l20.896 3.2633c0.128 0.02 0.2144 0.1398 0.1932 0.2676-0.0213 0.1277-0.1423 0.2151-0.2703 0.1951l-20.896-3.2633c-0.128-0.02-0.2145-0.1397-0.1932-0.2675z" clip-rule="evenodd" fill="#000" fill-rule="evenodd"/>
<path d="m40.647 41.986c0.0182-0.1282 0.1371-0.2183 0.2655-0.2011 3.3119 0.4423 6.4364 1.0059 9.465 1.5522 1.703 0.3071 3.3757 0.6089 5.0343 0.8805 0.1278 0.0209 0.2135 0.1414 0.1915 0.269-0.0221 0.1277-0.1436 0.2142-0.2714 0.1933-1.6741-0.2741-3.3534-0.5771-5.0591-0.8848-3.0202-0.5449-6.1231-1.1047-9.4264-1.5459-0.1284-0.0171-0.2177-0.135-0.1994-0.2632zm16.852 2.6068c0.0204-0.128 0.1408-0.216 0.2689-0.1968 0.3168 0.0477 0.4558 0.1231 0.5831 0.1929l0.0049 0.0028c0.0926 0.0508 0.1785 0.098 0.4192 0.1301 0.1284 0.0172 0.2176 0.135 0.1994 0.2632-0.0183 0.1283-0.1372 0.2183-0.2656 0.2012-0.3168-0.0423-0.4568-0.1149-0.5869-0.1863l-0.0092-0.0051c-0.0937-0.0515-0.1816-0.0998-0.4188-0.1355-0.1281-0.0193-0.2154-0.1386-0.195-0.2665z" clip-rule="evenodd" fill="#000" fill-rule="evenodd"/>
<path d="m49.096 64.966c-0.0611-0.1142-0.0168-0.2539 0.099-0.312 1.7693-0.8876 3.5023-1.8413 5.1915-2.7732 0.049-0.0271 0.098-0.0541 0.1469-0.0811 1.6363-0.9028 3.2319-1.7832 4.7726-2.5561 0.1157-0.058 0.2591-0.0125 0.3203 0.1017 0.0611 0.1142 0.0168 0.2538-0.099 0.3119-1.5323 0.7687-3.1208 1.6452-4.76 2.5496-0.0477 0.0263-0.0954 0.0526-0.1432 0.079-1.6884 0.9315-3.4291 1.8895-5.2078 2.7818-0.1158 0.0581-0.2592 0.0126-0.3203-0.1016z" clip-rule="evenodd" fill="#000" fill-rule="evenodd"/>
<path d="m49.095 49.021c-0.0599-0.1149-0.0141-0.2541 0.1022-0.311l9.437-4.6158c0.1163-0.0569 0.2592-0.01 0.3191 0.1049 0.06 0.1148 0.0142 0.254-0.1022 0.3109l-9.4369 4.6159c-0.1163 0.0569-0.2592 0.0099-0.3192-0.1049z" clip-rule="evenodd" fill="#000" fill-rule="evenodd"/>
<path d="m30.891 46.859c-0.0528-0.1183 0.0013-0.2547 0.1208-0.3047l12.133-5.077c0.1195-0.05 0.2592 0.0054 0.312 0.1237s-0.0013 0.2547-0.1208 0.3047l-12.133 5.0769c-0.1195 0.05-0.2592-0.0053-0.312-0.1236z" clip-rule="evenodd" fill="#000" fill-rule="evenodd"/>
<path d="m49.979 48.636c0.1295 0 0.2345 0.105 0.2345 0.2346v15.664c0 0.1295-0.105 0.2345-0.2345 0.2345-0.1296 0-0.2346-0.105-0.2346-0.2345v-15.664c0-0.1296 0.105-0.2346 0.2346-0.2346z" clip-rule="evenodd" fill="#000" fill-rule="evenodd"/>
<path d="m57.395 44.72c0.1295 0 0.2345 0.105 0.2345 0.2345v16.316c0 0.1296-0.105 0.2346-0.2345 0.2346s-0.2345-0.105-0.2345-0.2346v-16.316c0-0.1295 0.105-0.2345 0.2345-0.2345z" clip-rule="evenodd" fill="#000" fill-rule="evenodd"/>
<path d="m25.935 40.998c0.0675-0.1106 0.2118-0.1456 0.3224-0.0781 2.0162 1.2297 3.9572 2.5628 5.8928 3.8922 0.6506 0.4468 1.3006 0.8932 1.9527 1.3352 0.1072 0.0726 0.1352 0.2185 0.0625 0.3257-0.0726 0.1072-0.2185 0.1352-0.3257 0.0625-0.6574-0.4455-1.3107-0.8942-1.9633-1.3424-1.9328-1.3275-3.8589-2.6502-5.8633-3.8727-0.1105-0.0675-0.1455-0.2118-0.0781-0.3224z" clip-rule="evenodd" fill="#000" fill-rule="evenodd"/>
<path d="m34.278 36.345c0.0689-0.1096 0.2137-0.1427 0.3233-0.0738 1.6748 1.0523 3.734 2.4928 5.6589 3.8394 1.0486 0.7335 2.0572 1.4391 2.9423 2.039 0.1072 0.0727 0.1352 0.2185 0.0625 0.3257-0.0726 0.1073-0.2185 0.1353-0.3257 0.0626-0.8977-0.6085-1.9132-1.3189-2.965-2.0548-1.9177-1.3415-3.9562-2.7677-5.6225-3.8147-0.1097-0.0689-0.1427-0.2137-0.0738-0.3234z" clip-rule="evenodd" fill="#000" fill-rule="evenodd"/>
<path d="m36.716 36.382c0.0485 0.1201-0.0096 0.2568-0.1297 0.3052-4.0411 1.6304-7.0717 2.9345-11.451 4.8916-0.1183 0.0529-0.257-2e-4 -0.3098-0.1184-0.0529-0.1183 1e-4 -0.257 0.1184-0.3098 4.3833-1.9589 7.4194-3.2654 11.467-4.8984 0.1201-0.0484 0.2568 0.0097 0.3052 0.1298z" clip-rule="evenodd" fill="#000" fill-rule="evenodd"/>
<path d="m54.888 44.817c0.0761 0.1048 0.0528 0.2514-0.052 0.3275-1.1545 0.8385-2.364 1.7989-3.6045 2.784-0.5048 0.4009-1.0148 0.8059-1.5284 1.2084-0.1019 0.0799-0.2493 0.062-0.3292-0.0399-0.0799-0.102-0.0621-0.2494 0.0399-0.3293 0.5078-0.398 1.0144-0.8003 1.5174-1.1998 1.244-0.9878 2.466-1.9582 3.6292-2.8029 0.1048-0.0761 0.2515-0.0529 0.3276 0.052z" clip-rule="evenodd" fill="#000" fill-rule="evenodd"/>
<path d="m62.968 40.888c0.0828 0.0996 0.069 0.2475-0.0306 0.3302-1.8992 1.5761-3.3683 2.5244-4.6959 3.3813-0.3305 0.2134-0.6523 0.421-0.9697 0.6313-0.108 0.0715-0.2535 0.042-0.3251-0.066-0.0715-0.108-0.0419-0.2535 0.066-0.325 0.323-0.214 0.6484-0.424 0.9811-0.6388 1.3255-0.8557 2.7683-1.7871 4.644-3.3437 0.0997-0.0827 0.2475-0.069 0.3302 0.0307z" clip-rule="evenodd" fill="#000" fill-rule="evenodd"/>
<path d="m63.341 41.032c0.0484 0.1201-0.0097 0.2568-0.1298 0.3053-1.5907 0.6417-3.0717 1.3366-4.5525 2.0441-0.1994 0.0953-0.3989 0.1909-0.5986 0.2865-1.2818 0.6139-2.5747 1.2332-3.9431 1.8277-0.1188 0.0516-0.2569-0.0029-0.3086-0.1217-0.0516-0.1188 0.0029-0.2569 0.1217-0.3086 1.3598-0.5908 2.6443-1.2059 3.9265-1.82 0.2-0.0958 0.3998-0.1915 0.5999-0.2871 1.4818-0.708 2.9741-1.4084 4.5792-2.056 0.1201-0.0484 0.2568 0.0097 0.3053 0.1298z" clip-rule="evenodd" fill="#000" fill-rule="evenodd"/>
<path d="m53.667 46.4c-3.2835 3.0489-6.8015 0.9381-9.6159 0.9381-3.0489-0.469-8.6778-0.9381-8.6778-1.6417 0-4.9221 3.054-7.2931 7.5051-7.5051 4.9252-0.2345 10.789 3.2866 10.789 8.2087z" fill="#fff"/>
<path d="m53.61 45.254c0.0185 0.1554 0.0323 0.312 0.0414 0.4698-0.7282 0.1159-1.4364 0.2399-2.1409 0.3636l-0.0432 0.0076c-1.141 0.2002-2.2738 0.399-3.4601 0.5581-0.128 0.0172-0.2508-0.0724-0.2744-0.2002-0.0235-0.1277 0.0612-0.2452 0.1892-0.2624 1.1769-0.1579 2.3018-0.3553 3.4454-0.556l0.0394-0.0069c0.7216-0.1267 1.4507-0.2544 2.2032-0.3736zm-0.4321-1.7947c0.0574 0.156 0.11 0.3139 0.1577 0.4736l-1.5016 0.2601c-1.17 0.2248-2.3406 0.4493-3.4686 0.6007-0.1263 0.0169-0.2479-0.0702-0.2735-0.1959s0.0542-0.2437 0.1795-0.2654l3.4557-0.5987 0.0227-0.0043 0.0178-0.0034c0.4687-0.0901 0.9398-0.1806 1.4103-0.2667zm-0.8775-1.7378c0.0939 0.1436 0.1836 0.2896 0.269 0.438l-3.1141 0.4179c-0.128 0.0171-0.2508-0.0725-0.2743-0.2003-0.0236-0.1277 0.0611-0.2452 0.1891-0.2624l2.9303-0.3932zm-1.2346-1.5124c0.1395 0.1391 0.2746 0.2823 0.405 0.4291-0.5699 0.0939-1.1454 0.1826-1.7341 0.2616-0.1268 0.017-0.2488-0.0709-0.2738-0.1972s0.0563-0.2442 0.1825-0.2646l1.4204-0.2289zm-0.1492 8.7832c0.9433 0.1463 1.6319 0.0954 2.0838-0.3239-0.0352-0.012-0.0733-0.0162-0.1118-0.0107-0.6508 0.0931-1.3107 0.209-1.972 0.3346zm-3.4914-0.8289 5.4588-0.7809c0.1279-0.0183 0.2115-0.1365 0.1868-0.2641-0.0246-0.1275-0.1482-0.2161-0.2761-0.1978l-6.5979 0.9439c0.4292 0.0997 0.8386 0.2004 1.2284 0.2989z" clip-rule="evenodd" fill="#000" fill-rule="evenodd"/>
<path d="m53.374 47.197c-0.1291-0.0111-0.2247-0.1247-0.2137-0.2537 0.0253-0.2948 0.0255-0.5765 2e-4 -0.8414-7e-4 -0.0074-1e-3 -0.0148-1e-3 -0.0222 0-1.1504-0.4002-2.5828-1.1663-3.8887-0.7654-1.3045-1.8842-2.463-3.3039-3.0883-2.0504-0.9032-4.5761-1.2169-6.8979-0.5651-2.3099 0.6485-4.4308 2.2555-5.6941 5.2231-0.2034 0.7168-0.3217 1.5082-0.3486 2.3231-0.0042 0.1294-0.1127 0.2309-0.2421 0.2266-0.1295-0.0042-0.231-0.1127-0.2267-0.2421 0.0282-0.8545 0.1529-1.6894 0.3703-2.4503 0.0027-0.0092 0.0059-0.0183 0.0096-0.0271 1.319-3.1091 3.5561-4.8175 6.0049-5.5049 2.4403-0.6851 5.0778-0.3534 7.2137 0.5874 1.5311 0.6745 2.7173 1.9132 3.5194 3.2802 0.7988 1.3616 1.2282 2.8702 1.2307 4.115 0.0272 0.2927 0.0262 0.5991-8e-4 0.9147-0.0111 0.1291-0.1247 0.2247-0.2537 0.2137z" clip-rule="evenodd" fill="#000" fill-rule="evenodd"/>
<path d="m32.093 45.426c0.0213-0.1278 0.1423-0.2152 0.2703-0.1952l20.896 3.2633c0.1279 0.02 0.2144 0.1398 0.1932 0.2676-0.0213 0.1277-0.1423 0.2151-0.2703 0.1951l-20.896-3.2633c-0.128-0.02-0.2145-0.1398-0.1932-0.2675z" clip-rule="evenodd" fill="#000" fill-rule="evenodd"/>
<path d="m47.554 33.554c-3.2835-0.4691-12.43-2.8145-12.899-3.049-0.9382-4.2215-8.0209-19.154 1.4071-22.046 15.162-4.651 22.668 4.4958 24.157 7.7397 1.8466 4.0215 1e-4 16.417-1.1726 17.356-1.1726 0.9381-8.2086 0.469-11.492 0z" fill="url(#a)"/>
<path d="m55.934 11.144c-3.4759-2.7379-8.4481-3.9878-13.894-3.7925-3.2868 0.11785-5.6555 0.67576-7.3236 1.5614-1.6605 0.8816-2.634 2.0913-3.1326 3.54-0.5015 1.4573-0.5281 3.1732-0.2581 5.0682 0.2698 1.8938 0.8329 3.9474 1.4941 6.0721 0.2901 0.9325 0.5996 1.8794 0.9109 2.8318 1.1013 3.3698 2.2249 6.8078 2.5957 9.9185 0.2385 2.0007 0.1696 3.889-0.4265 5.5553-0.5983 1.6725-1.7223 3.1063-3.5643 4.2-0.1114 0.0661-0.2553 0.0295-0.3214-0.0819s-0.0294-0.2553 0.0819-0.3214c1.7509-1.0396 2.8017-2.388 3.3621-3.9547 0.5627-1.5729 0.6362-3.3809 0.4024-5.3418-0.3647-3.0598-1.4678-6.436-2.5664-9.7985-0.3136-0.9597-0.6268-1.9182-0.9223-2.8679-0.6629-2.1303-1.2353-4.2131-1.5106-6.1453-0.2752-1.9311-0.2566-3.7308 0.279-5.287 0.5385-1.5647 1.5941-2.8662 3.3562-3.8017 1.7545-0.93152 4.2019-1.4966 7.5267-1.6158 5.5183-0.19787 10.612 1.0653 14.202 3.8927 3.6002 2.8359 5.66 7.2246 5.1355 13.204-0.7967 9.0825-4.1475 18.118-10.141 24.968-0.0853 0.0975-0.2335 0.1074-0.331 0.0221-0.0974-0.0853-0.1073-0.2335-0.022-0.331 5.9174-6.7627 9.2372-15.7 10.027-24.7 0.512-5.8365-1.4933-10.066-4.9585-12.795z" clip-rule="evenodd" fill="#000" fill-rule="evenodd"/>
<path d="m39.953 28.88c0.2896 0.0061 0.5435 0.0115 0.7436 0.0115 3.829 0 4.8579 0.1127 8.0798 0.4657 0.3541 0.0388 0.7346 0.0805 1.1483 0.1252 0.292 0.0316 0.6032 0.0634 0.9286 0.0966 1.1532 0.1177 2.4837 0.2536 3.767 0.4641 1.6396 0.2689 3.2418 0.6652 4.3201 1.3253 0.2347 0.1436 0.4093 0.3138 0.5088 0.5088 0.102 0.2 0.1175 0.4127 0.0538 0.6154-0.1225 0.3895-0.5172 0.6949-1.0118 0.8814-0.9705 0.3659-2.1409 0.5228-3.3169 0.5845-1.1008 0.0578-2.2227 0.0327-3.2094 0.0105-0.069-0.0015-0.1373-3e-3 -0.205-0.0045-6.4639-0.1421-9.5045-0.9104-15.013-2.3023-0.0942-0.0238-0.1892-0.0478-0.285-0.072-0.0054 9e-3 -0.0114 0.0178-0.0182 0.0263-0.0808 0.1012-0.2284 0.1177-0.3296 0.0369-0.0838-0.0669-0.2126-0.1472-0.3728-0.245-0.1178-0.0297-0.2368-0.0596-0.357-0.0898-0.1125-0.0282-0.1854-0.1333-0.1768-0.2451-0.0958-0.0645-0.1898-0.1318-0.2768-0.2011-0.199-0.1585-0.4013-0.3577-0.4779-0.5922-0.0411-0.1259-0.0463-0.2632 0.0046-0.401 0.0495-0.1341 0.1447-0.2488 0.2698-0.3477 0.3047-0.2406 0.7609-0.3879 1.26-0.4833 0.5064-0.0967 1.0897-0.1455 1.6748-0.1683 0.8057-0.0314 1.639-0.0137 2.2914 1e-4zm-4.0285 2.0909c0.3199 0.0806 0.6313 0.1593 0.935 0.236 5.5032 1.3904 8.5005 2.1477 14.911 2.2886 0.0668 0.0015 0.1341 3e-3 0.202 0.0045 0.9897 0.0222 2.095 0.0469 3.1775-0.0099 1.1586-0.0608 2.2726-0.2144 3.176-0.555 0.4407-0.1662 0.6711-0.3965 0.7298-0.5832 0.0269-0.0854 0.022-0.171-0.0242-0.2616-0.0487-0.0955-0.15-0.2081-0.3358-0.3219-0.9943-0.6086-2.5168-0.9944-4.1511-1.2624-1.2676-0.208-2.5786-0.3418-3.7302-0.4594-0.3278-0.0335-0.6427-0.0657-0.94-0.0978-0.4149-0.0449-0.7962-0.0867-1.1507-0.1255-3.213-0.352-4.2234-0.4627-8.0269-0.4627-0.2163 0-0.4805-0.0056-0.7772-0.012-0.6468-0.0138-1.4475-0.0308-2.2396 0-0.5743 0.0224-1.1314 0.0699-1.605 0.1604-0.481 0.0918-0.8443 0.2225-1.0572 0.3907-0.0793 0.0626-0.1094 0.1116-0.1206 0.1419-0.0098 0.0267-0.0112 0.0546 0.0013 0.093 0.0308 0.0942 0.135 0.2202 0.3242 0.3709 0.1812 0.1443 0.4043 0.284 0.6219 0.4167 0.0244 0.0149 0.0488 0.0297 0.0733 0.0446 0.0022 0.0014 0.0045 0.0027 0.0068 0.0041z" clip-rule="evenodd" fill="#000" fill-rule="evenodd"/>
<path d="m36.242 28.806c0.0749-0.1057 0.2212-0.1307 0.3269-0.0558 0.5609 0.3972 1.1075 0.8199 1.6492 1.2388 0.2544 0.1966 0.5076 0.3924 0.7607 0.5844 0.797 0.6044 1.6021 1.178 2.4719 1.6524 0.1137 0.062 0.1556 0.2045 0.0936 0.3182s-0.2045 0.1556-0.3182 0.0936c-0.9009-0.4914-1.7281-1.0818-2.5307-1.6905-0.2607-0.1977-0.5179-0.3966-0.7742-0.5947-0.5373-0.4155-1.0705-0.8278-1.6234-1.2194-0.1057-0.0749-0.1307-0.2213-0.0558-0.327z" clip-rule="evenodd" fill="#000" fill-rule="evenodd"/>
<path d="m39.917 29.002c0.0711-0.1082 0.2165-0.1384 0.3248-0.0673 1.9092 1.2535 3.7344 2.7279 5.4908 4.165 0.1002 0.082 0.115 0.2297 0.033 0.33-0.082 0.1002-0.2298 0.115-0.33 0.033-1.7576-1.438-3.5653-2.8976-5.4513-4.1359-0.1082-0.0711-0.1384-0.2165-0.0673-0.3248z" clip-rule="evenodd" fill="#000" fill-rule="evenodd"/>
<path d="m43.428 28.692c0.086-0.0969 0.2342-0.1057 0.3311-0.0197 1.4857 1.3191 3.0328 2.4766 4.7381 3.4901 0.679 0.4036 1.3167 0.8378 1.9442 1.3084 0.1036 0.0777 0.1246 0.2247 0.0469 0.3283-0.0778 0.1037-0.2248 0.1247-0.3284 0.047-0.616-0.4621-1.2397-0.8866-1.9023-1.2804-1.7338-1.0305-3.3047-2.2062-4.8099-3.5426-0.0969-0.086-0.1057-0.2342-0.0197-0.3311z" clip-rule="evenodd" fill="#000" fill-rule="evenodd"/>
<path d="m46.901 29.187c0.0734-0.1067 0.2194-0.1337 0.3262-0.0603 1.4171 0.9748 2.8862 1.837 4.3736 2.71 0.1757 0.1031 0.3517 0.2064 0.5279 0.31 0.7214 0.4244 1.4458 0.8692 2.0984 1.4285 0.0984 0.0843 0.1097 0.2324 0.0254 0.3307-0.0842 0.0984-0.2323 0.1098-0.3307 0.0255-0.6184-0.5301-1.3112-0.957-2.031-1.3804-0.1759-0.1035-0.352-0.2068-0.528-0.3101-1.4855-0.8718-2.9696-1.7427-4.4015-2.7278-0.1067-0.0734-0.1337-0.2194-0.0603-0.3261z" clip-rule="evenodd" fill="#000" fill-rule="evenodd"/>
<path d="m51.792 29.962c0.0615-0.114 0.2038-0.1565 0.3178-0.0949 2.0086 1.0842 3.9515 2.2619 5.8643 3.4995 0.1087 0.0704 0.1398 0.2156 0.0695 0.3244-0.0704 0.1087-0.2156 0.1398-0.3243 0.0695-1.9052-1.2328-3.8373-2.4037-5.8324-3.4807-0.1139-0.0615-0.1565-0.2038-0.0949-0.3178z" clip-rule="evenodd" fill="#000" fill-rule="evenodd"/>
<path d="m53.442 18.832c0 0.979-0.2143 1.9277-0.5815 2.7847l-2.54-2.5095c0.306-0.4889 0.4591-1.0707 0.4591-1.6827 0.0305-1.7442-1.4078-3.183-3.1827-3.183-0.6425 0-1.224 0.1835-1.7136 0.49l-2.3564-2.326c0.8875-0.3971 1.8361-0.612 2.8765-0.612 3.8866 0 7.0386 3.1517 7.0386 7.0385zm-10.894-5.8749 2.5399 2.5397c-0.4284 0.5505-0.6732 1.224-0.6732 1.9579 0 1.7756 1.4382 3.2133 3.2132 3.2133 0.7344 0 1.4077-0.2451 1.9585-0.6736l2.7236 2.7244c-1.2853 1.8964-3.4275 3.1517-5.9063 3.1517-3.8864 0-7.0384-3.1517-7.0384-7.0385 0-2.4782 1.2547-4.6207 3.1827-5.8749zm5.0799 6.4869c1.1934 0 2.1421-0.9488 2.1421-2.1425 0-1.1927-0.9487-2.1415-2.1421-2.1415-1.1935 0-2.1422 0.9488-2.1422 2.1415 0 1.1937 0.9487 2.1425 2.1422 2.1425z" clip-rule="evenodd" fill="#fff" fill-rule="evenodd"/>
<path d="m15.691 20.309c0.1208-0.0467 0.2566 0.0134 0.3033 0.1342 0.2373 0.6139 0.4789 1.2282 0.721 1.8436 1.4234 3.6186 2.8631 7.2786 3.5357 11.146 0.0222 0.1276-0.0632 0.2491-0.1909 0.2713-0.1276 0.0222-0.249-0.0633-0.2712-0.1909-0.6638-3.8168-2.0835-7.4268-3.5073-11.047-0.2427-0.6173-0.4856-1.2348-0.7248-1.8538-0.0467-0.1208 0.0133-0.2566 0.1342-0.3033z" clip-rule="evenodd" fill="#000" fill-rule="evenodd"/>
<path d="m22.088 30.274c0.1259-0.0302 0.2525 0.0475 0.2827 0.1735 0.2432 1.0159 0.4272 2.0285 0.612 3.0457 0.0091 0.0501 0.0182 0.1002 0.0273 0.1502 0.0232 0.1275-0.0613 0.2496-0.1888 0.2727-0.1274 0.0232-0.2495-0.0613-0.2727-0.1887-0.0089-0.0489-0.0177-0.0977-0.0266-0.1465-0.1854-1.0203-0.3672-2.0212-0.6074-3.0242-0.0302-0.126 0.0475-0.2526 0.1735-0.2827z" clip-rule="evenodd" fill="#000" fill-rule="evenodd"/>
<path d="m72.687 1.4859c0.085-0.09774 0.2331-0.10807 0.3308-0.02308 0.0286 0.02486 0.0574 0.04984 0.0862 0.07494 1.698 1.4762 3.8813 3.3743 5.0955 5.4829 0.6202 1.077 0.9983 2.2259 0.9195 3.4147-0.0486 0.7352-0.2713 1.4744-0.7054 2.2109 0.4418 0.3269 0.7932 0.7315 1.0091 1.2195 0.4358 0.9854 0.2873 2.2367-0.6413 3.7319-1.1513 1.8538-2.7954 3.2214-4.4421 4.5328-0.1237 0.0985-0.2473 0.1967-0.3708 0.2947-1.5303 1.2146-3.0328 2.4072-4.1829 3.9379-2.4254 3.2279-3.7901 7.7935-2.848 11.724 0.0302 0.1259-0.0475 0.2525-0.1734 0.2827-0.126 0.0302-0.2526-0.0474-0.2828-0.1734-0.9821-4.0977 0.441-8.8039 2.9292-12.115 1.1881-1.5812 2.737-2.8102 4.258-4.017 0.1264-0.1004 0.2527-0.2005 0.3785-0.3007 1.6492-1.3134 3.2323-2.6365 4.3358-4.4134 0.882-1.4201 0.9611-2.5027 0.6108-3.2946-0.1734-0.392-0.4595-0.7306-0.8341-1.0135-0.2268 0.3263-0.4965 0.6518-0.8125 0.976-0.8456 0.8675-2.1488 1.6794-3.5385 2.1572-1.3861 0.4765-2.8978 0.6336-4.1441 0.1371-0.7851-0.3129-1.0961-0.9673-1.0631-1.6351 0.0323-0.6507 0.3879-1.3177 0.925-1.7284 0.9149-0.6997 2.1774-1.1372 3.486-1.3147 1.3103-0.1777 2.6897-0.0981 3.8494 0.2583 0.4154 0.1276 0.8073 0.2924 1.159 0.4965 0.393-0.6732 0.5873-1.3364 0.6302-1.9846 0.0706-1.0671-0.2668-2.1232-0.858-3.1497-1.1744-2.0395-3.308-3.8947-5.025-5.3875l-0.0579-0.05041c-0.0978-0.08499-0.1081-0.23313-0.0231-0.33088zm5.0806 11.298c-0.3091-0.1774-0.66-0.3255-1.0436-0.4433-1.0847-0.3333-2.3943-0.412-3.6485-0.2419-1.2558 0.1704-2.4331 0.587-3.2642 1.2225-0.4315 0.3299-0.7162 0.871-0.7414 1.379-0.0243 0.4909 0.1902 0.9458 0.7683 1.1761 1.0997 0.4382 2.4852 0.3133 3.8179-0.1449 1.3294-0.457 2.5671-1.2325 3.3551-2.041 0.2959-0.3036 0.5467-0.6059 0.7564-0.9065z" clip-rule="evenodd" fill="#000" fill-rule="evenodd"/>
<path d="m91.955 0.065474c0.0934 0.089778 0.0963 0.23825 0.0065 0.33162l-4.7045 4.8927c-0.0898 0.09337-0.2382 0.09628-0.3316 0.0065s-0.0963-0.23825-0.0065-0.33162l4.7045-4.8927c0.0897-0.093369 0.2382-0.09628 0.3316-0.0065023z" clip-rule="evenodd" fill="#000" fill-rule="evenodd"/>
<path d="m97.08 3.8864c0.0618 0.11383 0.0196 0.25621-0.0942 0.31801l-6.5863 3.5754c-0.1138 0.06179-0.2562 0.01961-0.318-0.09423s-0.0196-0.25622 0.0942-0.31802l6.5863-3.5754c0.1138-0.0618 0.2562-0.01961 0.318 0.09423z" clip-rule="evenodd" fill="#000" fill-rule="evenodd"/>
<path d="m25.551 54.572c0.1295-0.0012 0.2355 0.1029 0.2366 0.2324 0.0428 4.8346 0.0583 9.6605 0 14.495-0.0016 0.1296-0.1078 0.2333-0.2373 0.2317-0.1296-0.0015-0.2333-0.1078-0.2317-0.2373 0.0582-4.8296 0.0427-9.652 0-14.485-0.0012-0.1295 0.1029-0.2355 0.2324-0.2366z" clip-rule="evenodd" fill="#000" fill-rule="evenodd"/>
<path d="m28.016 63.982c0.1292 0.0092 0.2265 0.1214 0.2172 0.2506-0.116 1.6241-0.0141 3.2275 0.0894 4.8556 0.0359 0.564 0.0719 1.131 0.0991 1.7028 0.0062 0.1294-0.0937 0.2393-0.2231 0.2454-0.1294 0.0062-0.2392-0.0937-0.2454-0.2231-0.0264-0.5551-0.0618-1.1117-0.0973-1.6697-0.1041-1.637-0.209-3.286-0.0905-4.9444 0.0092-0.1292 0.1214-0.2265 0.2506-0.2172z" clip-rule="evenodd" fill="#000" fill-rule="evenodd"/>
<defs>
<linearGradient id="a" x1="21.601" x2="54.878" y1="15.864" y2="81.642" gradientUnits="userSpaceOnUse">
<stop stop-color="#73DFE7" stop-opacity=".65" offset="0"/>
<stop stop-color="#0095F7" offset="1"/>
</linearGradient>
</defs>
</svg>