<svg xmlns="http://www.w3.org/2000/svg" width="156" height="96" fill="none" xmlns:v="https://vecta.io/nano"><g fill="#000"><path d="M131.414 81.581c-.18 0-.27-.179-.316-.269-.27-.716-.36-1.477-.405-2.193-.045-.582-.09-1.119-.271-1.656-.045-.134.045-.224.135-.269.136-.045.226.045.271.135s.045.224.09.313c0-.044 0-.089.045-.089.045-.09.181-.179.271-.179.225.045.676.806.766 1.075.407.895.451 1.97.181 2.82-.045.134-.181.179-.271.134-.135-.045-.18-.179-.135-.269.225-.716.181-1.701-.18-2.462v-.045c0-.044-.09-.134-.136-.269 0 .045.046.135.046.179 0 .089.044.179.044.224.136.716.136 1.522.136 2.283 0 .268 0 .537-.226.582 0-.045 0-.045-.045-.045h0zm-.27-2.641v.09a3.9 3.9 0 0 0 .09.716c-.045-.269-.045-.537-.09-.806zm1.127 4.88a.73.73 0 0 1-.406-.135c-.225-.179-.36-.493-.316-.85 0-.135.136-.224.271-.18h.045c.091-.044.181-.134.271-.134.09-.045.18-.135.271-.135a.3.3 0 0 1 .315.09c0 .045.045.045.045.09.135.089.226.269.226.492 0 .313-.135.582-.406.716-.09.045-.226.045-.316.045h0zm-.135-.448c.09.045.18.045.225 0 .09-.044.136-.134.136-.313-.046.089-.181.224-.361.313zm.992 2.283c-.631 0-1.353-.045-1.984-.045l-1.669-.045c-1.263.045-2.029-.179-2.39-.671-.451-.627-.136-1.522.225-2.642l.136-.358.18-.627c.722-2.238 1.804-5.596 3.608-5.596 1.263 0 2.48 2.641 3.653 5.193l1.262 2.507c.361.537.406 1.03.181 1.388-.361.761-1.669.896-3.202.896h0zm-3.473-.537l1.489.045c1.758.089 4.419.179 4.87-.582.135-.224.045-.537-.18-.94l-1.308-2.552c-.992-2.059-2.3-4.924-3.247-4.924-1.488 0-2.526 3.313-3.202 5.283-.09.224-.135.448-.226.627l-.135.358c-.316.94-.631 1.79-.316 2.238.271.358.902.492 1.985.492.135-.045.225-.045.27-.045h0zm-15.107-8.104c-.316 0-.587-.448-2.21-3.447-.045-.089 0-.224.09-.313.09-.045.226 0 .316.089l1.714 3.089c0-.135.045-.313.045-.492.045-1.119.135-3.178 1.623-4.387 1.038-.806 2.526-1.075 4.465-.761.135 0 .225.134.18.269 0 .134-.135.224-.27.179-1.804-.269-3.202-.045-4.104.671-1.308 1.075-1.398 2.91-1.443 4.029-.045.671-.045.985-.316 1.074h-.09 0z"/><path d="M114.772 78.761c-1.804 0-3.382-.896-4.194-2.328-.766-1.388-.631-3.044.361-4.566 1.759-2.283 5.141-2.597 7.712-.716 1.262.94 1.713 2.596 1.172 4.208-.541 1.567-2.164 3.403-5.051 3.403h0zm-3.472-6.625c-.902 1.388-.992 2.865-.316 4.074.722 1.298 2.165 2.104 3.788 2.104 2.616 0 4.104-1.656 4.6-3.089.496-1.477.091-2.91-.992-3.716-2.345-1.746-5.457-1.477-7.08.627h0zm13.304-8.103c-.316 0-.586-.448-2.21-3.447-.045-.09 0-.224.09-.314.09-.045.226 0 .316.09l1.714 3.089c0-.134 0-.313.045-.492.045-1.119.135-3.178 1.623-4.387 1.038-.806 2.526-1.074 4.465-.761.135 0 .225.135.181.269 0 .135-.136.224-.271.179-1.804-.268-3.202-.044-4.104.672-1.308 1.074-1.398 2.91-1.443 4.029-.045.672-.045.985-.316 1.075h-.09 0z"/><path d="M124.829 65.779c-1.804 0-3.383-.895-4.194-2.328-.767-1.388-.632-3.044.361-4.566 1.759-2.283 5.141-2.596 7.711-.716 1.263.94 1.714 2.597 1.173 4.208-.541 1.567-2.165 3.402-5.051 3.402h0zm-3.473-6.626c-.902 1.388-.992 2.865-.315 4.074.721 1.298 2.165 2.104 3.788 2.104 2.616 0 4.104-1.656 4.6-3.089.496-1.477.09-2.91-.992-3.716-2.345-1.746-5.457-1.477-7.081.627h0z"/></g><path d="M87.444 37.575c3.067.806 12.086 2.104 12.582 2.06 2.39-3.358 14.206-13.923 6.9-19.922-11.725-9.669-21.782-4.387-24.307-2.059-3.112 2.865-6.088 14.46-5.367 15.713s7.125 3.402 10.192 4.208v.001z" fill="#a2e29b"/><path d="M96.508 54.319c-.09 0-.135-.045-.18-.089-4.374-5.82.902-11.953 6.043-17.817 4.059-4.656 7.847-9.043 6.991-13.162-.542-2.551-2.932-4.745-7.261-6.715-5.727-2.597-11.184-2.999-15.468-1.164-3.518 1.522-6.043 4.522-7.396 8.864-2.796 8.685-2.886 17.683-.226 25.428.045.135-.045.224-.135.269-.136.045-.226-.045-.271-.134-2.661-7.835-2.616-16.967.225-25.696 1.443-4.477 4.014-7.521 7.667-9.132 4.375-1.926 10.012-1.523 15.829 1.163 4.465 2.06 6.945 4.343 7.531 7.029.948 4.297-2.931 8.774-7.08 13.52-5.006 5.775-10.192 11.729-5.998 17.28.09.089.045.224-.045.313-.135.045-.18.045-.226.045h0z" fill="#000"/><path d="M83.655 36.186c6.088 2.373 9.065 2.731 15.063 3.627.722-.09 1.804-.269 1.399-.94-.632-1.119-3.744-2.149-4.961-2.642-3.743-1.567-4.51-1.745-8.388-2.865-2.481-.717-6.269-2.015-8.614-1.656-.947.134-.902.895-.225 1.566 1.443 1.254 3.878 2.194 5.727 2.91h0z" fill="#4dc952"/><g fill="#000"><path d="M98.267 40.083c-.09 0-.18-.045-.225-.179l-.406-.045c-5.366-.806-8.343-1.253-14.07-3.492-1.849-.717-4.329-1.656-5.772-2.999-.451-.448-.676-.895-.541-1.298.09-.224.271-.537.902-.672 2.075-.314 5.186.627 7.712 1.343.361.089.722.224 1.037.313l.857.224c3.157.895 4.104 1.164 7.576 2.641.18.089.451.179.721.268 1.488.582 3.788 1.477 4.329 2.462.18.269.135.492.045.627-.135.313-.586.448-1.082.537 0 .134-.135.224-.271.179l-.451-.089c-.135 0-.225.044-.271.044-.045.135-.09.135-.09.135h0zm-19.211-8.237c-.316 0-.586 0-.812.045-.18.045-.451.135-.541.358-.045.224.09.537.451.85 1.353 1.254 3.788 2.194 5.592 2.91 5.728 2.238 8.659 2.641 14.025 3.447l.902.134c.045 0 .135 0 .18-.045.406-.045 1.127-.179 1.217-.403 0-.045 0-.09-.045-.179-.496-.851-2.751-1.702-4.104-2.238-.271-.09-.541-.224-.722-.313-3.427-1.433-4.374-1.702-7.486-2.597l-.857-.268c-.316-.09-.677-.179-1.037-.313-2.119-.582-4.825-1.388-6.765-1.388h0z"/><path d="M93.396 39.052c-.135 0-.226-.089-.226-.224s.09-.224.226-.224c1.217-.134 2.435-.448 3.608-.761l2.029-.492c.136-.045.226.044.271.178s-.045.224-.18.269l-1.984.492c-1.217.313-2.435.627-3.743.761h0zm-4.104-.761c-.09 0-.18-.045-.225-.179s.045-.224.135-.269l6.449-1.657c.135-.044.225.045.27.179s-.045.224-.18.268c-2.165.403-4.284 1.03-6.359 1.657h-.09 0zm-4.284-1.388c-.09 0-.18-.09-.226-.179-.045-.134.045-.224.18-.268l2.21-.449a29.88 29.88 0 0 0 5.502-1.343c.135-.044.225 0 .271.135s0 .224-.135.268c-1.817.626-3.689 1.076-5.592 1.343-.722.09-1.443.269-2.119.448-.045.045-.09.045-.09.045v.001zM81.58 35.56c-.046.001-.092-.011-.132-.035s-.072-.058-.093-.1c-.045-.134 0-.224.135-.268.677-.224 1.443-.403 2.39-.492l5.502-.851c.135-.045.225.045.271.179s-.045.224-.18.269l-5.502.851a9.75 9.75 0 0 0-2.3.492c-.045-.045-.045-.045-.09-.045h0zm-3.292-1.522c-.09 0-.18-.09-.225-.179-.045-.134.045-.224.18-.268l6.494-.941c.135 0 .225.09.225.179 0 .135-.09.224-.18.224l-6.494.985z"/><g fill-rule="evenodd"><path d="M81.266 47.872c.09.134.045.268-.09.358a3.15 3.15 0 0 0-.947.94c-.135.179-.226.358-.316.492-.09.179-.09.269-.09.358 0 .134-.09.269-.271.269-.135 0-.271-.09-.271-.269s.045-.358.136-.537.225-.403.361-.582c.315-.403.676-.761 1.082-1.029.18-.135.315-.135.406 0h0z"/><path d="M79.19 44.56c.135-.045.27 0 .315.134l1.263 2.865c0 .045.045.045.045.09.09.179.18.358.18.582.045.134-.045.268-.18.313s-.271-.044-.316-.179c-.048-.154-.108-.303-.18-.448 0-.045-.045-.09-.045-.135l-1.263-2.865c0-.179.09-.313.18-.358h0zm4.735-1.568c.136-.044.271.045.316.179l.676 2.417c.045.134-.045.268-.18.313s-.271-.045-.316-.179l-.677-2.417c-.045-.134.045-.268.18-.314z"/><path d="M84.287 45.947c0-.134.135-.224.271-.224 1.082 0 2.21.358 3.021 1.119.09.09.09.269 0 .358s-.271.089-.361 0c-.676-.627-1.759-.985-2.706-.985-.09 0-.225-.135-.225-.269h0z"/><path d="M89.428 43.574c.135.09.18.224.09.358l-2.165 3.671c-.09.134-.226.134-.361.089-.135-.089-.135-.224-.09-.358l2.165-3.671c.09-.134.225-.179.361-.089zm3.698 4.298c.09.09.135.224.045.358 0 .045-.045.045-.045.089l-1.939 2.642c-.09.089-.226.134-.361.045-.09-.09-.136-.224-.045-.358l1.939-2.641c0-.045.045-.045.045-.09.09-.09.271-.134.361-.045h0zm2.255-.716c.135.089.135.224.045.358-.451.672-.992 1.298-1.488 1.925l-.406.492c-.09.089-.225.134-.361.044-.09-.089-.135-.224-.045-.358l.406-.537 1.443-1.88a.44.44 0 0 1 .406-.045z"/><path d="M93.26 49.797c.025-.023.056-.041.089-.051s.068-.014.102-.01.067.016.097.034.054.043.073.072c.496.537.767 1.209 1.037 1.79.045.09.09.135.09.224.045.134 0 .268-.136.313s-.271 0-.315-.134c-.045-.09-.09-.135-.09-.224-.271-.627-.541-1.209-.992-1.701-.09-.09-.045-.224.045-.314h0zm-2.66.358c.135-.089.271-.044.361.09.045.045.09.135.135.179.587.896 1.353 2.06 1.489 3.223 0 .135-.09.269-.226.269s-.271-.089-.271-.224c-.135-1.075-.812-2.104-1.443-3.044-.045-.044-.045-.089-.09-.134-.09-.134-.09-.313.045-.358h0z"/><path d="M91.908 53.603c0-.135.135-.224.271-.224 1.037.045 2.119.179 3.157.313.135 0 .225.135.225.269s-.135.224-.27.224l-3.112-.313c-.136 0-.271-.09-.271-.269h0z"/><path d="M95.786 52.974c.135 0 .225.134.225.269l-.316 4.074-.18 1.88c0 .134-.135.224-.27.224s-.226-.135-.226-.269l.18-1.925.316-4.029c.045-.135.135-.269.271-.224h0z"/><path d="M92.314 58.57c.045-.134.135-.224.271-.224 1.082.179 2.209.269 3.337.358h.045c.136 0 .226.134.226.269s-.136.224-.271.224h-.045l-3.337-.358c-.18-.045-.271-.134-.225-.269h0z"/><path d="M92.674 57.229c.136.045.226.179.18.313-.18.672-.496 1.209-.857 1.746-.135.179-.226.358-.361.537l-.677 1.03c-.09.134-.225.179-.361.09-.135-.045-.18-.224-.09-.358l.722-1.119c.136-.179.226-.358.361-.492.361-.537.631-1.03.812-1.612 0-.089.136-.179.271-.134h0z"/><path d="M90.285 60.183c.135-.089.271-.045.361.09l.586.985.27.492c.271.492.587.94.947 1.298.09.089.09.268 0 .358s-.271.09-.361 0c-.406-.403-.721-.94-1.037-1.432l-.271-.537-.541-.94c-.09-.09-.045-.224.045-.313h0zm-3.743 1.477c.135-.045.271.044.316.179l.812 2.91c.045.134-.045.269-.18.314s-.271-.045-.315-.179l-.812-2.91c0-.134.045-.313.18-.313h0z"/><path d="M91.818 63.003c.02.062.023.129.007.192s-.05.121-.097.166l-1.984 1.029c-.045 0-.045.045-.09.045l-1.849.985c-.062.02-.129.023-.193.007a.35.35 0 0 1-.168-.096c-.045-.135 0-.269.09-.314l1.894-.985c.045 0 .045-.045.09-.045l1.984-1.03c.09-.134.271-.089.316.045h0zm2.345-.269c-.631 0-1.353.269-1.984.537-.136.044-.271 0-.316-.135s0-.269.136-.313c.631-.269 1.398-.582 2.165-.582.135 0 .271.089.271.269s-.136.224-.271.224z"/><path d="M92.36 59.599c.135-.044.271 0 .315.09.136.313.316.582.451.895l.587 1.164s0 .044.045.044c.09.135.136.313.18.492.045.135-.045.269-.18.313s-.271-.045-.316-.179-.09-.224-.135-.403c0 0 0-.044-.045-.044-.18-.403-.406-.761-.587-1.12-.135-.313-.315-.582-.451-.895-.045-.135.045-.269.135-.358h0z"/><path d="M93.668 58.481c.136.045.18.224.136.313a5.75 5.75 0 0 1-.496.895c-.18.269-.361.537-.496.85-.045.135-.226.179-.316.135-.135-.045-.18-.224-.135-.313.135-.313.315-.582.496-.895.18-.269.361-.537.496-.851.045-.134.18-.179.316-.134h0zm3.924-.672c.045.134.045.269-.09.358-.18.09-.361.224-.541.313-.451.224-.857.492-1.308.761-.136.09-.271.045-.361-.09s-.045-.269.09-.358l1.353-.761c.18-.09.361-.179.541-.314.09-.089.225-.045.315.09h0zm0-5.417c.09.09.09.269 0 .358-.406.403-.857.716-1.308 1.074l-.541.403c-.09.089-.271.045-.361-.045s-.045-.269.045-.358c.18-.134.406-.269.587-.448.451-.313.857-.626 1.218-.985.09-.089.271-.089.361 0zm-2.796-.582c.09.09.045.269-.045.358-.18.134-.406.269-.586.448l-1.669 1.119c-.135.09-.271.045-.361-.089s-.045-.269.09-.358c.541-.314 1.082-.716 1.624-1.074.226-.135.406-.313.631-.448.09-.089.271-.044.316.045z"/><path d="M94.162 52.259c.045-.135.18-.224.315-.179.631.179 1.308.269 1.984.313h.09c.18 0 .361.045.541.09.136.045.18.179.136.313s-.18.179-.316.134-.225-.045-.406-.09h-.136l-2.074-.358c-.09.045-.135-.09-.135-.224h0z"/><path d="M97.365 52.213c.136 0 .226.134.226.268-.045.537-.045 1.12-.045 1.746l-.27 4.477c0 .135-.135.224-.271.224s-.225-.134-.225-.269c.135-1.298.18-2.91.225-4.432l.045-1.746c.045-.179.18-.268.315-.268h0zm-1.578-5.328c.045.135 0 .269-.09.314a29.46 29.46 0 0 1-3.021 1.253c-.136.045-.271-.044-.316-.179s.045-.268.18-.313c.722-.224 1.984-.717 2.976-1.209.045-.044.18 0 .271.135h0z"/><path d="M89.067 44.11c.09-.09.27-.09.361 0l.18.179 3.427 3.671c.023.025.041.055.051.088s.014.067.009.101-.016.067-.034.096-.043.054-.071.073a.24.24 0 0 1-.089.051c-.033.01-.068.014-.102.009a.24.24 0 0 1-.17-.105c-1.038-1.298-2.21-2.462-3.427-3.626l-.18-.179c-.045-.09-.045-.269.045-.358zm2.074-.984c.09-.09.271-.09.361 0l2.12 2.194.135.134 1.759 1.881c.09.089.09.268 0 .358s-.271.09-.361 0l-1.804-1.88-.136-.135-2.075-2.194c-.135-.134-.135-.268 0-.358h0z"/><path d="M91.82 43.215c.09.134.045.268-.09.358-.812.492-1.579.805-2.481 1.074-.135.045-.271-.045-.315-.179s.045-.269.18-.314c.857-.224 1.624-.582 2.39-1.03.09-.044.271 0 .316.09zm-6.133-1.164c.135-.045.27.045.315.179.225.94.361 1.925.496 2.865 0 .134-.09.268-.225.268s-.271-.089-.271-.224l-.496-2.82c-.045-.09.045-.224.18-.269h0z"/><path d="M85.866 45.141c.045-.134.18-.224.316-.179.045 0 .09.045.18.045.27.044.586.134.857.224.361.134.677.313.947.671.09.134.045.268-.045.358s-.271.045-.361-.044c-.18-.224-.406-.358-.676-.492-.226-.09-.496-.135-.767-.179-.045 0-.135-.044-.18-.044-.225-.09-.271-.224-.271-.358zm-1.307-1.745c.045.134-.045.268-.18.313-1.849.492-3.788.985-5.502 1.791-.135.045-.271 0-.316-.134s0-.269.136-.313c1.759-.806 3.743-1.343 5.592-1.791.09-.044.225 0 .271.134h0z"/><path d="M81.987 42.365c.09.09.09.269 0 .358l-.947.985c-.586.627-1.173 1.209-1.804 1.745a.24.24 0 0 1-.191.061c-.034-.004-.067-.016-.097-.034s-.055-.042-.074-.071-.041-.055-.052-.088-.014-.067-.009-.102.016-.067.034-.096.043-.054.072-.072l1.759-1.701.992-1.03c.045-.044.226-.044.316.045h0z"/><path d="M86.317 42.276c0 .134-.09.269-.226.269l-2.525.448c-.135.044-.225.044-.361.089l-2.345.448c-.135.045-.27-.089-.27-.224-.045-.134.09-.268.226-.268l2.345-.448c.135-.045.225-.045.361-.089l2.57-.492a.46.46 0 0 1 .226.268h0z"/><path d="M85.955 42.052c.09.089.045.268-.045.358-.677.492-1.308 1.03-1.894 1.657-.09.089-.271.089-.361 0s-.09-.269 0-.358c.631-.582 1.263-1.209 1.984-1.701.09-.134.225-.09.315.045h0zm-10.372 7.655c0-.134.135-.224.271-.224s.271 0 .406.045l3.608.224c.136 0 .271.09.271.269 0 .134-.09.269-.271.269-1.127 0-2.57-.135-3.653-.224-.136 0-.271-.045-.406-.045-.135-.045-.271-.179-.225-.313h0z"/><path d="M76.306 48.992c-.135 0-.27.09-.27.269v5.462c0 .134.09.269.27.269.136 0 .271-.09.271-.269v-5.462c0-.179-.135-.269-.271-.269z"/><path d="M77.794 54.586h-1.489c-.135 0-.27-.09-.27-.224s.09-.269.226-.269h3.021c.135 0 .271.089.271.224s-.09.269-.225.269h-1.533z"/><path d="M79.192 53.826c.135 0 .271.09.271.224.045.806.18 1.388.361 1.925s.496.985.947 1.522c.09.09.09.269 0 .358s-.271.09-.361 0c-.45-.48-.802-1.042-1.038-1.656-.225-.582-.315-1.254-.406-2.059-.045-.179.045-.313.225-.313h0z"/><path d="M80.949 56.958c.09.09.135.224.045.358l-1.263 1.477c-.045.045-.09.089-.09.134l-1.127 1.343c-.09.089-.226.134-.361.045-.09-.09-.136-.224-.045-.358l1.128-1.388c.045-.045.09-.09.09-.134l1.263-1.477c.135-.045.271-.089.361 0z"/><path d="M78.38 59.153a.24.24 0 0 1 .089-.051c.033-.011.068-.014.102-.009s.067.016.097.034a.24.24 0 0 1 .073.072l1.217 1.388.045.045 1.172 1.343c.248.291.519.56.812.806.09.09.135.224.045.358-.09.089-.225.134-.361.044-.332-.248-.635-.533-.902-.85l-1.173-1.343-.045-.044-1.173-1.388c-.09-.179-.09-.313 0-.403h0z"/><path d="M84.423 60.093c.09.089.09.269 0 .358l-1.173 1.12-1.398 1.343c-.09.09-.27.09-.361 0s-.09-.269 0-.358l1.398-1.343 1.173-1.119c.09-.09.271-.09.361 0z"/><path d="M83.745 60.496c.09-.09.225-.135.361-.045.406.313.857.671 1.353.94s.992.447 1.443.358c.135-.045.271.089.271.224.045.134-.09.269-.226.269-.631.089-1.217-.135-1.759-.403-.541-.313-1.038-.716-1.443-.985-.09-.089-.09-.269 0-.358h0zm.407 2.104c.045.135-.045.269-.136.314-.766.269-1.488.313-2.255.403-.135 0-.271-.089-.271-.224s.09-.269.226-.269c.766-.044 1.443-.134 2.119-.358.135-.045.271 0 .316.134z"/><path d="M85.233 61.482c.045.135-.045.269-.18.314-.09 0-.18.045-.27.134s-.18.224-.271.358l-.361.806s0 .045-.045.045c-.045.134-.18.179-.315.134s-.18-.179-.136-.314c0 0 0-.045.045-.045l.361-.895a1.99 1.99 0 0 1 .361-.492c.135-.134.315-.269.496-.314.18.045.316.135.316.269zm-6.765-13.923c.09.089.135.224.045.358-.631.717-1.263 1.432-2.029 2.015-.09.09-.27.045-.361-.045s-.045-.269.045-.358c.722-.537 1.353-1.209 1.939-1.925.019-.029.044-.053.074-.071a.24.24 0 0 1 .199-.024.24.24 0 0 1 .089.051z"/><path d="M76.576 48.185c.045-.135.18-.224.316-.179.586.134 1.894.313 2.751.448.18.045.361.045.496.045s.225.134.225.268-.135.224-.271.224-.271-.045-.451-.045l-2.796-.447c-.225-.045-.315-.179-.271-.313h0zm6.178 2.284c.136 0 .271.09.271.269l-.09 2.82v.09l-.09 2.552c0 .134-.09.269-.27.269s-.271-.09-.271-.269l.09-2.552v-.09l.09-2.82c0-.134.136-.269.271-.269z"/><path d="M82.077 54.901c.09-.089.271-.089.361 0l2.796 2.821c.09.09.09.269 0 .358s-.271.09-.361 0c-.992-.895-1.939-1.88-2.841-2.865-.026-.05-.035-.108-.027-.164s.033-.108.072-.15h0z"/><path d="M89.292 56.87c.045.135-.045.269-.18.313-1.759.492-3.022.761-4.78.985-.136 0-.271-.089-.271-.224s.09-.269.225-.269c1.759-.269 2.976-.492 4.69-.985.136-.045.271.045.316.179h0z"/><path d="M89.608 52.215c.135 0 .226.134.226.268l-.406 2.283c-.045.134-.045.313-.09.447l-.451 2.731c0 .135-.135.224-.271.224s-.225-.134-.225-.269l.451-2.775c.045-.135.045-.313.09-.448l.406-2.283c0-.09.136-.179.271-.179z"/><path d="M85.505 49.305a.24.24 0 0 1 .089-.051c.033-.011.068-.014.102-.01s.067.016.097.034.054.043.073.072l1.353 1.567 2.57 3.044c.023.025.041.055.052.088s.014.067.01.102-.016.067-.034.096-.043.054-.072.072a.24.24 0 0 1-.191.061.24.24 0 0 1-.17-.105l-2.571-2.999-1.353-1.567c-.045-.179-.045-.313.045-.403h0z"/><path d="M87.264 49.797c.045.134 0 .269-.135.313-1.578.716-3.202 1.254-4.825 1.79l-.631.224c-.136.045-.271-.044-.316-.134-.045-.134.045-.269.136-.314l.631-.224 4.78-1.791c.18-.044.315.045.361.135h0z"/><path d="M84.829 50.469c.135 0 .271.09.271.269v3.984c0 .134-.09.269-.271.269-.136 0-.271-.09-.271-.269v-3.984c0-.135.09-.269.271-.269z"/><path d="M84.421 54.497c.09-.089.27-.089.361 0 .812.806 1.443 1.298 2.255 1.925l.677.537c.09.09.135.224.045.358-.09.089-.225.134-.361.045l-.676-.537c-.812-.627-1.443-1.164-2.3-1.97-.09-.09-.09-.224 0-.358h0z"/><path d="M85.324 54.138c.09.09.135.269.045.358-.361.448-.947.672-1.533.851l-1.082.269c-.18.045-.361.089-.541.089-.135.045-.271-.044-.316-.179s.045-.269.18-.313l.587-.134c.315-.045.676-.134.992-.224.541-.135.992-.358 1.263-.671.18-.134.315-.134.406-.045h0zm.991-9.221c.045.134.045.268-.09.358l-1.488.851c-.136.089-.271.045-.361-.09s-.045-.268.09-.358l1.488-.896c.18-.044.316 0 .361.135zm7.622 4.566c.045.134 0 .268-.136.313L90.78 51.05c-.135.045-.27-.045-.316-.179s.045-.269.18-.313c.992-.314 1.984-.761 2.976-1.209.136 0 .271.045.316.135h0z"/></g><path d="M90.692 45.947c-.047.001-.092-.011-.132-.035a.25.25 0 0 1-.094-.099c-.045-.134 0-.224.136-.268l1.082-.403 1.082-.358c.135-.044.225 0 .271.135s0 .224-.136.268l-1.082.403-1.082.358h-.045zm1.127 1.522c-.046.001-.092-.011-.132-.035s-.072-.058-.093-.1c-.045-.134 0-.224.135-.268l2.525-.985c.135-.045.226 0 .316.134.045.134 0 .224-.135.313l-2.526.985c-.045-.044-.045-.044-.09-.044h0zm-9.02 5.775c-.09 0-.18-.09-.225-.179-.045-.135.045-.224.18-.269l.271-.045 1.488-.358c.136-.045.226.045.271.135.045.134-.045.224-.135.269l-1.533.403-.271.045h-.045 0zm1.173 3.536c-.09 0-.18-.045-.225-.179s.045-.224.135-.269l2.255-.627c.136-.045.226.045.271.179s-.045.224-.18.269c-.857.179-1.668.448-2.255.627h0zm6.63 4.074c-.09 0-.226-.089-.226-.179 0-.134.09-.224.18-.269.722-.089 1.443-.179 2.075-.537a.24.24 0 0 1 .316.09c.028.054.035.117.018.175s-.056.108-.108.139c-.721.403-1.488.492-2.255.582h0zm5.141-4.341c-.09 0-.18-.045-.18-.135-.045-.089 0-.224.09-.313l.271-.134c.451-.224.857-.403 1.217-.716.02-.021.045-.038.072-.05s.056-.017.086-.017.059.006.086.017a.22.22 0 0 1 .072.05c.021.02.038.044.05.071s.018.056.018.085-.006.058-.018.085-.029.051-.05.071c-.406.358-.857.582-1.308.806l-.271.134c-.045.045-.09.045-.135.045h0zM81.717 44.335c-.09 0-.136-.044-.18-.089-.09-.09-.045-.224.045-.313.541-.358.992-.717 1.398-1.03.09-.089.225-.045.315.045s.045.224-.045.313l-1.398 1.03c-.045.044-.09.044-.135.044h0zM25.12 82.208h-2.525a.21.21 0 0 1-.225-.224c0-.134.09-.224.225-.224h1.353c4.51 0 6.81 0 10.372-.895-.451-.224-.857-.537-.992-.94a1.18 1.18 0 0 1 .09-1.03c.722-1.298 3.608-2.015 4.6-2.238l.136-.045c.045 0 5.231-1.254 5.907-.403.09.089.18.269.045.537-.587 1.164-2.3 2.238-5.051 3.179l-2.932.94c.586.089 1.172.089 1.624.134.271 0 .496 0 .677.045 4.239.269 8.388.358 12.357.224 2.3-.09 4.059-.269 5.592-.403 2.57-.269 4.78-.448 8.478-.18.135 0 .225.135.225.224s-.135.224-.225.224c-3.653-.269-5.818-.045-8.388.179-1.533.134-3.292.314-5.592.403-4.014.135-8.163.045-12.447-.224-.18 0-.406 0-.631-.045-.721-.044-1.759-.044-2.616-.269-3.698.941-5.998 1.03-10.057 1.03h0zm17.859-5.864c-1.127 0-3.247.358-4.735.716l-.136.045c-2.435.582-3.878 1.298-4.284 2.015a.71.71 0 0 0-.045.671c.18.448.722.716 1.353.895 1.082-.313 2.345-.671 3.788-1.164 2.616-.85 4.239-1.88 4.78-2.955.045-.045.045-.089.045-.089-.09-.09-.361-.135-.767-.135h0z"/><path d="M61.827 83.328c-.045 0-.136-.045-.18-.09-.09-.089-.045-.224.045-.313l2.39-1.836 4.6-3.536c.09-.09.225-.045.315.044s.045.224-.045.314l-4.6 3.537-2.39 1.835c-.045.045-.09.045-.135.045h0z"/><path d="M89.338 78.403h-23.09c-.135 0-.225-.09-.225-.224a.21.21 0 0 1 .225-.224h23.09c.135 0 .226.089.226.224s-.09.224-.226.224h0zm-21.24 4.88c-2.48 0-4.915 0-7.396-.089-.135 0-.225-.09-.225-.224s.09-.224.225-.224c4.916.135 9.877.09 14.747.045l7.351-.045c.136 0 .226.09.226.224s-.09.224-.226.224l-7.351.044-7.351.045h0z"/><path d="M81.401 83.148c-.09 0-.135-.045-.18-.089-.09-.09-.045-.224.045-.313l1.488-1.075 5.998-4.566a.22.22 0 0 1 .158-.067.22.22 0 0 1 .086.017c.027.012.052.029.072.05s.038.044.05.071.018.056.018.085-.006.058-.018.085-.029.051-.05.071c-1.894 1.656-4.013 3.134-6.043 4.611l-1.488 1.074c-.045.045-.09.045-.136.045h0zm-19.708 3.85c-.09 0-.18-.09-.226-.179-.225-1.119-.135-2.238-.045-3.402l.045-.448c0-.135.136-.224.226-.224.135 0 .225.135.225.224l-.045.448c-.09 1.119-.18 2.194.045 3.268 0 .179-.045.269-.225.314h0z"/><path d="M72.968 87.133c-3.653 0-7.351-.045-11.68-.134-.136 0-.226-.09-.226-.224s.09-.224.226-.224c7.892.135 13.619.224 20.79 0 .135 0 .226.09.226.224s-.09.224-.226.224l-9.11.134z"/><path d="M81.671 87.579c-.135 0-.225-.09-.225-.224v-4.701c0-.134.09-.224.225-.224s.226.09.226.224v4.701c0 .134-.09.224-.226.224zm6.088-4.79c-.135 0-.225-.09-.225-.224v-5.283c0-.134.09-.224.225-.224s.226.09.226.224v5.283c0 .134-.09.224-.226.224z"/><path d="M81.445 87.223c-.09 0-.136-.045-.18-.089-.09-.09-.045-.224.045-.314l1.489-1.075c2.39-1.656 4.825-3.402 6.9-5.462.02-.021.045-.038.072-.049a.22.22 0 0 1 .172 0c.027.011.052.028.072.049s.038.044.05.071.018.056.018.085-.006.058-.018.085-.029.051-.05.071c-2.12 2.104-4.555 3.805-6.945 5.507l-1.489 1.074c-.045.045-.09.045-.135.045h0z"/><path d="M113.509 82.208s-.045 0 0 0l-1.353-.179c-1.172-.134-2.57-.269-3.788-.671-.947.313-2.029.403-2.931.492h-.136c-2.39.179-4.96.224-8.388.045l-2.119-.09c-2.841-.179-6.088-.358-9.47.269-.136 0-.226-.045-.271-.179s.045-.224.18-.269c3.472-.671 6.719-.448 9.561-.313l2.119.09c3.383.179 5.953.134 8.298-.045h.136c.721-.045 1.488-.134 2.255-.314-.722-.313-1.309-.716-1.624-1.298-.05-.096-.08-.201-.088-.309s.007-.216.043-.318c.36-.716 2.074-.895 2.074-.895.902-.09 2.03.224 2.345.895.136.313.136.806-.586 1.432a4.44 4.44 0 0 1-.767.493c1.038.269 2.21.403 3.157.492l1.353.179c.136 0 .226.134.18.269.046.134-.09.224-.18.224h0zm-5.141-3.492h-.271c-.495.045-1.578.314-1.758.671-.046.045-.046.09 0 .224.361.627 1.082 1.03 1.939 1.298.451-.179.811-.358 1.172-.671.271-.224.587-.582.451-.896-.09-.403-.856-.627-1.533-.627h0z"/><path d="M111.39 83.371c-.047.001-.093-.011-.132-.035s-.073-.058-.094-.1c-.045-.089 0-.224.09-.314 3.518-1.656 6.945-3.581 10.283-5.461l1.623-.896a.24.24 0 0 1 .176-.018c.058.017.108.055.14.108s.035.117.018.175-.056.108-.109.138l-1.623.895c-3.337 1.88-6.765 3.805-10.327 5.462 0 .045 0 .045-.045.045h0z"/><path d="M127.401 83.104h-.091c-2.57-.985-3.833-3.313-5.005-5.551l-.136-.268c-.045-.09 0-.224.09-.314.091-.045.226 0 .316.089l.135.269c1.173 2.194 2.345 4.432 4.781 5.328.135.045.18.179.135.269-.045.134-.135.179-.225.179h0zm-7.847 8.954c-.046 0-.136-.045-.181-.09-2.3-2.596-5.998-7.297-7.441-9.177-.09-.089-.045-.224.045-.313s.225-.045.316.044c1.488 1.881 5.141 6.581 7.441 9.177.021.02.038.044.05.071a.21.21 0 0 1 0 .171c-.012.027-.029.051-.05.071-.09.045-.136.045-.18.045h0z"/><path d="M119.417 92.101c-.045 0-.135-.045-.18-.089-.09-.09-.09-.224.045-.313 1.578-1.343 3.202-2.462 4.78-3.537l4.104-2.999c.09-.089.226-.044.316.045s.045.224-.045.313c-1.308 1.075-2.661 2.015-4.149 3.044l-4.735 3.491c-.046.045-.09.045-.136.045h0zM13.304 84.222c-.136 0-.226-.089-.226-.224v-8.282c0-.135.09-.224.226-.224a.21.21 0 0 1 .225.224v8.282a.21.21 0 0 1-.225.224z"/><path d="M12.177 84.223c-.09 0-.135-.045-.18-.09-.09-.089-.045-.224.045-.313l2.525-1.657 3.563-2.373c.18-.134.18-.179.18-.179-.045-.045-.361-.179-.631-.269l-1.127-.537-1.443-.761c-1.128-.582-1.984-1.074-3.112-1.97-.09-.089-.09-.224-.045-.314.09-.089.225-.089.315-.044 1.082.895 1.94 1.343 3.022 1.925l1.443.806c.406.224.766.358 1.082.492.496.224.857.358.902.671.045.224-.18.448-.361.582l-3.563 2.373-2.526 1.656h-.09 0zm2.525 3.491c-1.173 0-2.435-.18-3.653-.627-2.616-.895-3.608-2.328-4.645-5.058-.09-.537-.225-1.433-.18-2.373-.045-.044-.09-.089-.09-.134-.361-1.836 1.218-4.074 1.894-4.969 1.894-2.462 6.449-2.238 8.343-2.015 2.841.358 5.727 2.776 6.494 5.551.857 2.955-.587 5.73-2.165 7.387-1.488 1.477-3.653 2.238-5.998 2.238h0zm-3.608-14.46c0 .09-.09.135-.135.179-1.759.492-2.39 1.119-3.518 2.91-.902 1.388-.902 4.163-.587 5.596.992 2.597 1.894 3.895 4.375 4.745 3.518 1.164 7.08.582 9.155-1.522 1.533-1.522 2.841-4.163 2.075-6.939-.812-2.596-3.518-4.88-6.223-5.193-1.127-.134-3.247-.269-5.141.224h0zm110.534 16.788c-.091 0-.181-.045-.181-.134-.045-.09 0-.224.09-.314.947-.493 1.759-.895 2.345-1.746.496-.671.947-1.388 1.128-2.193.135-.627.09-1.12-.226-1.656-.135-.314-.27-.448-.316-.492h-.09c-.09 0-.225-.135-.225-.224 0-.135.135-.224.271-.224.044 0 .135.045.18.045h.541c.541 0 .992-.045 1.398-.179h.045c.045 0 .316-.134.406-.179.045-.045.09-.045.18-.045.136 0 .226.09.226.224 0 .269-.541.403-.767.448-.406.135-.902.179-1.488.179h-.09a2.58 2.58 0 0 0 .18.314c.316.582.406 1.209.226 1.925-.181.896-.722 1.657-1.218 2.373-.677.94-1.578 1.433-2.525 1.925 0-.045-.046-.045-.09-.045h0zm-56.914-3.179c-.045 0-.09 0-.135-.045l-1.623-1.119-1.623-1.119c-.09-.09-.136-.224-.045-.314s.226-.135.316-.045l1.624 1.119 1.624 1.119c.09.089.135.224.045.314-.045.044-.09.089-.18.089h0zm4.194.135c-.045 0-.09 0-.135-.045L65.3 84.401l-1.308-.941c-.09-.089-.136-.224-.045-.313s.226-.135.316-.045l1.308.94 3.473 2.596c.09.09.09.224.045.314-.045 0-.135.045-.18.045h0zm4.871.046c-.045 0-.09 0-.09-.045-1.398-.761-2.751-1.701-4.059-2.597l-1.488-1.03c-.09-.089-.136-.224-.045-.313s.226-.135.316-.045l1.488 1.03c1.263.895 2.616 1.79 4.014 2.551.09.045.135.179.09.313a.25.25 0 0 1-.094.1c-.04.024-.086.036-.132.035h0zm3.608-.359c-.045 0-.091 0-.136-.045l-5.276-3.402c-.09-.089-.135-.224-.091-.313.09-.09.181-.135.316-.09h.045l5.277 3.357c.09.045.136.179.09.314-.09.134-.135.179-.225.179h0zm4.419-.179c-.045 0-.09 0-.135-.045l-4.961-3.402c-.09-.09-.136-.224-.045-.314s.226-.134.316-.045l4.961 3.403c.09.044.135.224.09.313-.09.045-.135.09-.226.09h0zm3.247-1.433c-.045 0-.09 0-.09-.044l-.135-.045c-.136-.09-.316-.135-.496-.269-.722-.448-1.353-1.03-1.984-1.612l-.541-.493c-.021-.02-.038-.044-.05-.071a.21.21 0 0 1 0-.17c.012-.027.029-.051.05-.071a.22.22 0 0 1 .072-.05.21.21 0 0 1 .086-.017c.03 0 .059.006.086.017a.2.2 0 0 1 .072.05l.541.493c.631.582 1.217 1.119 1.939 1.566.135.09.27.179.406.224l.136.09c.09.045.135.179.09.314 0 .045-.09.089-.18.089h0zm2.21-1.612c-.045 0-.135 0-.18-.045a.62.62 0 0 0-.18-.134l-.09-.045-2.796-1.701c-.09-.09-.135-.224-.045-.313s.225-.134.315-.045l2.796 1.701.09.09c.09.045.18.09.27.179.021.02.038.044.05.071a.21.21 0 0 1 0 .17c-.012.027-.029.051-.05.071h-.18 0zm.812-2.15c-.045 0-.09 0-.136-.044L86.18 79.79a.27.27 0 0 1-.072-.15c-.008-.057.001-.113.027-.164a.28.28 0 0 1 .316-.045l1.759 1.477a.27.27 0 0 1 .072.15c.008.057-.001.113-.027.164a.34.34 0 0 1-.18.089h0z"/><path d="M85.414 82.52c-.406 0-1.128-.134-1.218-.627-.18-.582.541-.851.902-.985.09-.045.136-.045.18-.09.09-.045.226 0 .316.09.045.045.045.09 0 .179h.045s.496-.089.767.09c.045 0 .135-.045.18-.045h.09c.225 0 .406 0 .496.179.045.09 0 .179-.045.269-.09.179-.361.269-.496.314-.09.045-.135.09-.225.09-.18.313-.631.493-.992.537h0 0zm-.496-1.029c-.18.089-.315.179-.27.313 0 .045.045.09.09.135v-.09a.67.67 0 0 1 .18-.358zm.271.358c.136 0 .406-.045.451-.045.09-.045.136-.045.226-.089-.045-.045-.045-.045-.045-.09v-.09h-.045c-.18.045-.451.135-.587.314zm-21.421-.135h-.226c-.315-.044-.541-.268-.631-.626-.09-.403.045-.627.18-.761.451-.448 1.353-.314 1.669-.269.406.09.406.269.406.403s-.135.224-.271.313c.045 0 .09 0 .136.045.09.09.135.224.045.314-.225.314-.766.582-1.308.582h0zm-.316-.537c.045.044.09.089.18.089a1.39 1.39 0 0 0 .947-.269h-.226a3.07 3.07 0 0 1-.902.179h0zm.677-.716c-.271 0-.586.044-.722.179.18-.045.451-.045.857-.09.09-.045.18-.045.226-.089h-.361zm61.197 7.118h-.09c-.902-.403-.947-.448-.947-.493-.021-.02-.038-.044-.05-.071s-.017-.056-.017-.085.006-.058.017-.085.029-.051.05-.071c.09-.089.225-.089.271 0 .045 0 .18.09.856.448.091.045.181.179.091.314 0 0-.091.045-.181.045h0zm1.353-1.119h-.09l-.857-.448c-.316-.179-.541-.313-.902-.447-.135-.045-.18-.179-.135-.269.045-.134.18-.179.27-.134.407.134.677.313.993.492l.811.448c.091.045.181.179.091.313 0 0-.091.045-.181.045zm0-2.015h-.045c-.677-.179-1.398-.448-1.804-.582-.136-.045-.226-.09-.226-.09-.09 0-.18-.089-.18-.224s.09-.224.226-.224c.044 0 .09 0 .36.09l1.759.582c.135.044.18.134.18.268-.09.09-.18.179-.27.179h0zm-13.213-2.552c-1.578 0-1.759-.269-1.804-.403-.09-.134-.09-.269 0-.403.18-.314.677-.403.992-.448h.136c.18 0 .992 0 1.353.448.09.179.044.269.044.313-.044.09-.18.135-.27.135l.045.134v.224-.224l-.045.224h-.451 0zm-1.398-.582c.135.089.541.134 1.488.179-.045-.045-.045-.09-.045-.134s0-.045.045-.09c-.18-.09-.496-.135-.721-.135h-.091c-.18 0-.586.045-.676.18h0zM66.383 69c-.045 0-.09 0-.09-.045-.09-.045-.135-.179-.09-.314l1.263-2.283c.902-1.612 1.804-3.134 2.481-5.238.766-2.552 1.578-5.283 1.668-8.237 0-.134.09-.224.226-.224a.21.21 0 0 1 .225.224c-.09 3-.902 5.775-1.668 8.327-.677 2.149-1.579 3.671-2.481 5.328l-1.263 2.283c-.09.134-.18.179-.271.179h0zm3.067-.357c-.045 0-.09 0-.135-.045-.09-.089-.136-.224-.045-.313l2.165-3.313 2.12-3.268c.09-.089.225-.134.315-.044s.136.224.045.313l-2.12 3.268-2.165 3.313c-.045.044-.09.089-.18.089h0zm43.654 24.442c-1.804 0-3.382-.895-4.194-2.328-.767-1.388-.631-3.044.361-4.566 1.759-2.283 5.141-2.596 7.712-.716 1.262.94 1.713 2.596 1.172 4.208-.541 1.567-2.165 3.402-5.051 3.402zm-3.472-6.626c-.902 1.388-.992 2.865-.316 4.074.722 1.298 2.165 2.104 3.788 2.104 2.616 0 4.104-1.656 4.6-3.089.496-1.477.09-2.91-.992-3.716-2.345-1.745-5.457-1.477-7.08.627h0zm2.344 1.389c-.046 0-.091 0-.091-.045-.09-.045-.135-.179-.09-.313.361-.627 1.308-1.254 2.029-1.746l.226-.179c.09-.09.225-.045.315.045s.046.224-.044.313l-.226.179c-.676.448-1.624 1.074-1.894 1.611-.09.09-.135.135-.225.135h0z"/><path d="M114.548 88.519c-.045 0-.091 0-.091-.044-.676-.358-1.713-.716-2.435-.716-.135 0-.225-.09-.225-.224s.09-.224.225-.224c.812 0 1.894.403 2.616.806.09.045.135.179.09.314 0 .045-.09.089-.18.089h0z"/><path d="M113.42 91.697c-.586 0-1.217-.269-1.804-.761-.039-.041-.064-.093-.072-.15s.001-.113.027-.164c.09-.09.225-.09.316-.045.676.582 1.308.761 1.894.627.767-.179 1.353-.94 1.623-1.567.226-.537.226-1.119 0-1.567-.086-.215-.22-.408-.392-.563s-.377-.269-.6-.332c-.586-.179-1.804.09-2.255.537-.02.021-.045.038-.072.05s-.056.018-.085.018-.059-.006-.086-.018-.052-.028-.072-.05a.2.2 0 0 1-.05-.071.21.21 0 0 1 0-.171c.011-.027.028-.051.05-.071.541-.537 1.939-.895 2.706-.627.586.179.992.582 1.262 1.119.271.582.271 1.298 0 1.925-.316.761-.992 1.612-1.939 1.836-.135.045-.271.045-.451.045h0z"/></g><path fill-rule="evenodd" d="M99.22 19.786c.392.218.719.538.945.925s.344.829.341 1.278l-.039 4.415a2.5 2.5 0 0 1-1.267 2.15l-3.998 2.283a2.56 2.56 0 0 1-2.516.01l-3.885-2.175a2.5 2.5 0 0 1-1.286-2.203l.038-4.416c.005-.438.124-.867.347-1.244s.54-.689.921-.905l3.998-2.282a2.56 2.56 0 0 1 2.516-.011l3.885 2.176h0zm-1.413 3.428a1.49 1.49 0 0 1-1.8 1.058l-3.741-1.001a2.37 2.37 0 0 0-1.809.237 2.36 2.36 0 0 0-1.11 1.445c-.082.303-.104.619-.062.93s.143.611.301.882a2.37 2.37 0 0 0 .614.701c.249.191.534.33.837.41a2.37 2.37 0 0 0 1.809-.237c.272-.155.51-.363.7-.611s.33-.532.41-.834l.131-.517c.008-.032.003-.065-.014-.093s-.044-.048-.075-.056l-.629-.169c-.016-.004-.033-.005-.049-.003s-.032.008-.047.016-.027.019-.037.033-.017.028-.021.044l-.127.506a1.49 1.49 0 0 1-1.824 1.051 1.48 1.48 0 0 1-1.049-1.814 1.49 1.49 0 0 1 1.8-1.059l3.741 1.002a2.37 2.37 0 0 0 1.809-.237 2.36 2.36 0 0 0 1.11-1.446c.082-.303.103-.619.062-.929s-.143-.61-.301-.881-.365-.511-.614-.702-.534-.331-.837-.411a2.37 2.37 0 0 0-1.809.237c-.272.155-.51.363-.7.611a2.36 2.36 0 0 0-.41.834l-.123.409c-.005.016-.006.032-.004.049s.007.032.015.047.019.027.032.037.028.018.044.022l.629.168c.031.008.065.005.093-.011s.05-.042.059-.073l.124-.409a1.49 1.49 0 0 1 1.824-1.052 1.48 1.48 0 0 1 1.049 1.814h0z" fill="#fff"/></svg>