<svg xmlns="http://www.w3.org/2000/svg" width="156" height="96" fill="none" fill-rule="evenodd" xmlns:v="https://vecta.io/nano"><path d="M67.88 37.838c1.55 2.088 4.277 4.08 8.609 5.428 8.649 2.692 11.726 10.455 10.691 17.353-1.024 6.824-6.18 13.334-14.352 13.334-7.335 0-12.135-1.779-15.011-5.27-2.814-3.416-3.437-8.08-3.437-12.966l.007-1.29c.027-3.565.063-8.244-1.478-12.251-.846-2.199-2.142-4.109-4.13-5.482s-4.811-2.309-8.884-2.309H13.864a1.7 1.7 0 1 1 0-3.4h26.031c4.604 0 8.142 1.064 10.816 2.912s4.34 4.378 5.371 7.059c1.793 4.661 1.741 10.036 1.706 13.535l-.008 1.227c0 4.76.651 8.364 2.662 10.805 1.949 2.366 5.523 4.032 12.387 4.032 6.027 0 10.14-4.778 10.989-10.439.838-5.587-1.607-11.506-8.339-13.602-4.838-1.506-8.249-3.846-10.329-6.648-2.091-2.817-2.764-6.011-2.255-9.015 1.013-5.982 6.614-10.89 14.076-10.89 4.694 0 7.662 1.457 9.683 3.868 1.562 1.863 2.485 4.261 3.314 6.411l.477 1.222c1.024 2.555 2.15 4.801 4.283 6.466 2.114 1.65 5.451 2.901 11.233 2.901h38.849a1.7 1.7 0 0 1 0 3.4H105.96c-6.262 0-10.426-1.358-13.325-3.62-2.88-2.248-4.279-5.219-5.347-7.881l-.56-1.425c-.832-2.141-1.515-3.899-2.68-5.289-1.259-1.502-3.193-2.653-7.078-2.653-5.949 0-10.011 3.852-10.723 8.058-.354 2.09.094 4.347 1.633 6.421z" fill="#a2e29b"/><g fill="#000"><path d="M79.403 18.617c6.48.672 12.253 5.258 12.554 12.076.175 3.97-.819 7.661-2.894 10.365-2.079 2.709-5.232 4.412-9.336 4.412l-3.29.025c-2.909.033-5.758.066-8.382-.142-3.611-.286-6.84-1.028-9.262-2.877h0a11.18 11.18 0 0 1-.598-.49l-1.822 4.481-1.452 3.579c-1.577 3.974-2.208 6.092-2.208 8.808 0 4.527 1.21 8.49 5.153 11.334 3.961 2.857 10.712 4.609 21.861 4.609h66.852a.2.2 0 1 1 0 .4H79.729c-11.174 0-18.03-1.753-22.095-4.685-4.083-2.945-5.319-7.053-5.319-11.658 0-2.796.656-4.973 2.236-8.955l1.456-3.588 1.875-4.612c-.756-.716-1.36-1.479-1.907-2.24l-.708-1.015c-.475-.693-.934-1.361-1.461-1.983-.773-.913-1.678-1.708-2.954-2.277s-2.942-.918-5.24-.918c-5.465 0-8.503 1.994-10.233 4.11-1.443 1.765-1.983 3.616-2.257 4.554-.057.195-.102.35-.142.457l-.188-.069.188.069c-1.088 2.949-1.941 4.723-3.144 5.745-1.216 1.034-2.758 1.276-5.129 1.276H8.733a.2.2 0 0 1 0-.4h15.974c2.362 0 3.772-.247 4.87-1.181 1.111-.945 1.935-2.617 3.028-5.579h0c.034-.091.074-.23.126-.409.266-.917.834-2.876 2.339-4.717 1.81-2.215 4.964-4.257 10.542-4.257 2.337 0 4.06.355 5.402.953s2.296 1.437 3.097 2.384c.54.638 1.018 1.334 1.5 2.036l.688.987c.511.711 1.065 1.413 1.743 2.073l4.342-11.256.188.07-.187-.07c3.288-8.85 10.525-12.098 17.021-11.424zM58.354 41.591a10.81 10.81 0 0 0 .682.567c2.329 1.778 5.464 2.512 9.05 2.796 2.605.206 5.426.174 8.329.141l3.313-.025c3.981 0 7.017-1.647 9.018-4.256 2.006-2.614 2.984-6.207 2.811-10.104-.291-6.568-5.857-11.038-12.196-11.695-6.322-.655-13.383 2.495-16.604 11.166l-4.404 11.41z"/><path d="M29.461 29.614a.2.2 0 0 1 .271-.082l4.84 2.582.05-.014.067-.019.017-.005.005-.002.04.143-.04-.143a.2.2 0 0 1 .117.383l-.043.014a.2.2 0 0 1-.242.08l-5.224 1.717a.2.2 0 0 1-.129-.378l4.12-1.39.717-.223-4.483-2.391a.2.2 0 0 1-.082-.271zm107.684 9.368a.2.2 0 0 1 .239-.073l7.452 2.958a.2.2 0 0 1 .122.224c-.007.039-.026.074-.053.102-.019.021-.044.038-.073.049l-7.527 2.86-.246.093a.2.2 0 0 1-.139-.375l.003-.001.244-.093 1.547-.657 1.693-.727 2.969-1.123c-1.389-.075-2.403-.278-3.256-.65-1.116-.486-1.937-1.252-2.956-2.337a.2.2 0 0 1-.019-.249zm6.519 2.85l-5.563-2.208c.725.717 1.373 1.227 2.179 1.578.846.369 1.881.569 3.384.63zm-17.519 22.15a.2.2 0 0 1 .239-.073l7.451 2.958a.2.2 0 0 1 .123.223c-.007.038-.025.073-.051.099a.2.2 0 0 1-.075.051l-7.77 2.952a.2.2 0 1 1-.142-.374l6.801-2.584c-1.569-.059-2.679-.264-3.601-.666-1.116-.487-1.938-1.253-2.956-2.337a.2.2 0 0 1-.019-.249zm6.519 2.85l-5.563-2.208c.725.717 1.373 1.227 2.179 1.578.846.369 1.881.569 3.384.63zm6.706 4.53a.2.2 0 0 1 .266-.094l7.451 3.553c.072.034.117.109.114.189a.2.2 0 0 1-.129.179l-7.77 2.952a.2.2 0 1 1-.142-.374l7.333-2.786-7.029-3.351a.2.2 0 0 1-.094-.267zM75.04 29.493a.2.2 0 0 1 .074.273l-.425.74-1.59 2.77a.2.2 0 1 1-.347-.199l1.591-2.77.425-.74a.2.2 0 0 1 .273-.074z"/><path d="M77.683 25.551a.2.2 0 0 1 .256.12l.558 1.773.106.363h0c.081.277.134.45.268.649a.2.2 0 1 1-.331.224c-.173-.256-.241-.485-.321-.76l-.108-.367-.55-1.746a.2.2 0 0 1 .121-.256zm-4.217 2.473a.2.2 0 0 1 .268.08l1.22 2.2a.2.2 0 0 1-.338.213c-.435-.609-.764-1.272-1.086-1.923l-.151-.304a.2.2 0 0 1 .086-.266z"/><path d="M77.971 25.052a.2.2 0 0 1-.045.27l-4.404 3.351a.2.2 0 0 1-.269-.293c1.256-1.389 2.859-2.461 4.451-3.39a.2.2 0 0 1 .267.062zm4.937.105a.2.2 0 0 1 .056.265l-1.857 3.143a.2.2 0 0 1-.368-.06c-.013.001-.026.001-.039-.001l-2.387-.262a.2.2 0 0 1 .007-.398l1.247-.031c.439.025.896.107 1.257.32.014.008.027.018.038.029l.069-.137c.481-.96 1.002-1.998 1.708-2.835a.2.2 0 0 1 .269-.034zm3.157 2.484a.2.2 0 0 1-.002.283c-.585.578-1.028 1.335-1.464 2.078l-.202.344a.2.2 0 1 1-.344-.204l.198-.336c.433-.74.906-1.548 1.531-2.166a.2.2 0 0 1 .283.002z"/><path d="M84.342 29.387a.2.2 0 0 1 .264.07c.449.719.768 1.447 1.029 2.243l2.511-.033a.2.2 0 0 1 .2.158.2.2 0 0 1 .375.114l-.168 1.494-.255 3.149a.2.2 0 0 1-.4 0c0-1.071.132-2.16.262-3.228l.156-1.374a.2.2 0 0 1-.159.087l-.639.022-2.026.031a.2.2 0 0 1-.195-.201l.001-.02c-.014-.015-.026-.033-.036-.053l-1.009-2.2a.2.2 0 0 1 .087-.259z"/><path d="M85.9 35.144a.2.2 0 0 1 .098.266l-.375.749 2.89-.143a.2.2 0 0 1 .022.399l-3.139.156-1.148 1.855-.331.516a.2.2 0 1 1-.337-.215l.335-.522 1.721-2.964a.2.2 0 0 1 .265-.097z"/><path d="M83.536 38.35a.2.2 0 0 1 .273.062l.671 1.135.024.042.049.086.586.996a.2.2 0 0 1-.207.298.2.2 0 0 1-.068.076l-.131.086-3.609 2.127a.2.2 0 0 1-.225-.324l-.934-1.841c-.993.178-1.91.203-2.946-.021a.2.2 0 0 1 .039-.395l3.236-.053a.2.2 0 0 1 .082.384l.882 1.742c1.131-.557 2.198-1.259 3.263-1.96l.123-.081c.012-.008.024-.014.037-.019l-.475-.817-.738-1.253a.2.2 0 0 1 .067-.272z"/><path d="M74.707 38.69a.2.2 0 0 1 .004.283c-.565.58-1.067 1.198-1.577 1.826l-.642.782a.2.2 0 1 1-.307-.257l.626-.763 1.612-1.868a.2.2 0 0 1 .283-.004zm2.8 1.581a.2.2 0 0 1 .115.25c-.186.55-.439 1.073-.697 1.583l-.14.275-.271.536-.332.717a.2.2 0 0 1-.366-.162l.337-.727 1.098-2.37a.2.2 0 0 1 .256-.102z"/><path d="M73.209 36.856a.2.2 0 0 1 .23.165c.119.724.484 1.524 1.005 2.038a.2.2 0 0 1-.281.285c-.591-.584-.988-1.466-1.118-2.257a.2.2 0 0 1 .165-.23zm-1.199 4.387a.2.2 0 0 1 .272-.067l1.773 1.148 1.63 1.056a.2.2 0 0 1 .081.104c.009.028.028.089.011.158-.01.041-.034.088-.08.123s-.091.043-.123.044c-.057.003-.105-.017-.126-.026-.027-.012-.053-.026-.075-.04-.044-.027-.088-.06-.122-.085l-.04-.031-.005-.004-.015-.012-.006-.004h-.001l-.346-.244-1.006-.706-1.761-1.141a.2.2 0 0 1-.061-.273zm3.596 2.173z"/><path d="M70.291 32.754a.2.2 0 0 1 .247-.137c1.026.294 2.021.233 3.104.099a.2.2 0 0 1 .223.174.2.2 0 0 1-.174.223c-1.093.135-2.155.206-3.263-.111a.2.2 0 0 1-.137-.247zm-.166 4.114a.2.2 0 0 1 .209-.173l3.025.157a.2.2 0 0 1-.01.4l-.518.004c-.836.009-1.719.018-2.55-.166a.2.2 0 0 1-.155-.222z"/><path d="M70.644 32.609a.2.2 0 0 1 .197.203l-.049 1.616-.002.054-.048 1.659h0c-.005.445.002.739.14 1.102a.2.2 0 1 1-.374.143c-.168-.44-.172-.8-.166-1.249m.303-3.527a.2.2 0 0 0-.203.197zm-.203.197l-.049 1.608zm-.049 1.608l-.002.052zm-.002.052l-.049 1.67z"/><path d="M69.058 31.37a.2.2 0 0 1 .282-.021c.587.505 1.088 1.036 1.606 1.586a.2.2 0 0 1-.291.274l-1.576-1.557a.2.2 0 0 1-.021-.282z"/><path d="M71.523 27.173a.2.2 0 0 1 .258-.098c.464.194.891.441 1.304.684l.082.048.166.097 1.011.541a.2.2 0 0 1-.177.358c-.359-.164-.699-.357-1.03-.551l-.838-.449c.285.484.538.98.772 1.494a.2.2 0 0 1 .22-.012c.42.246.854.446 1.308.655l.023.011h.001c.133.061.275.125.405.255a.2.2 0 1 1-.282.284c-.074-.074-.154-.113-.29-.175h-.001l-.031-.014-1.141-.559-1.302 2.176a.2.2 0 0 1-.364-.157l.062-.211-.766.071-.541.053c-.469.041-.949.066-1.444.027a.2.2 0 0 1 .005-.399l2.812-.157c.023-.001.046.001.067.007.21-.57.507-1.131.962-1.56a.2.2 0 0 1-.026-.037l-1.159-2.132a.2.2 0 0 1-.066-.25z"/><path d="M76.126 24.235a.2.2 0 0 1-.088.269c-1.721.868-3.359 1.908-4.492 3.449a.2.2 0 0 1-.322-.237c1.19-1.617 2.897-2.692 4.635-3.569a.2.2 0 0 1 .269.088zm-4.544 7.002a.2.2 0 0 1 .276.033l1.539 1.886a.2.2 0 0 1-.296.269c-.597-.59-1.086-1.245-1.561-1.912a.2.2 0 0 1 .042-.275z"/><path d="M75.026 24.338a.2.2 0 0 1 .264-.09l2.547 1.205a.2.2 0 0 1-.162.366 27.07 27.07 0 0 1-2.566-1.214.2.2 0 0 1-.084-.266zm5.06 2.438c-.731 0-1.434.023-2.139.153a.2.2 0 1 1-.073-.393c.742-.137 1.475-.16 2.212-.16a.2.2 0 0 1 0 .4z"/><path d="M79.835 26.347a.2.2 0 0 1 .27.085l.996 2.009.121.249a.2.2 0 1 1-.36.174l-.121-.249-.991-1.999a.2.2 0 0 1 .085-.27z"/><path d="M82.273 24.515l1.009.601.39.214 1.189.682a.2.2 0 1 0 .213-.339l-1.218-.698-.38-.209c-.528-.293-1.039-.594-1.516-.967a.2.2 0 0 0-.15-.041c-.037-.005-.075 0-.112.017l-.019.01c-.018-.025-.042-.046-.071-.06a.2.2 0 0 0-.269.088l-.512.955-.268.489c-.262.486-.515.985-.714 1.508a.2.2 0 0 0 .365.161l1.425-2.813.924 1.921a.2.2 0 0 0 .373-.136l2.507 1.681a.2.2 0 0 0 .227-.329l-.572-.408-2.259-1.489a.2.2 0 0 0-.166-.013l-.397-.826z"/><path d="M84.734 25.5a.2.2 0 0 1 .256.105l.684 1.538.274.616a.2.2 0 0 1-.368.156l-.269-.605-.144-.3-.075-.154-.474-1.104a.2.2 0 0 1 .115-.252zm.078 3.681a.2.2 0 0 1 .274.07l.743 1.258a.2.2 0 1 1-.345.203l-.742-1.256a.2.2 0 0 1 .07-.274z"/><path d="M85.82 30.001a.2.2 0 0 1 .133.249c-.178.585-.19 1.233-.202 1.881l-.002.107a.2.2 0 1 1-.4-.008l.002-.122c.012-.634.025-1.335.219-1.975a.2.2 0 0 1 .249-.133z"/><path d="M85.461 30.361a.2.2 0 0 1 .236-.156c.4.082.805.118 1.22.147l.194.014 1.067.099a.2.2 0 1 1-.056.396l-1.035-.096-.199-.014c-.417-.03-.844-.067-1.273-.155a.2.2 0 0 1-.155-.236z"/><path d="M87.516 30.231a.2.2 0 0 1 .274.063l1.012 1.683a.2.2 0 0 1-.344.203l-.002-.003-1.006-1.673a.2.2 0 0 1 .066-.273zm-15.443 6.736a.2.2 0 0 1 .248.137l.366 1.137a.2.2 0 0 1-.116.258.2.2 0 0 1-.258-.116c-.147-.387-.264-.778-.376-1.168a.2.2 0 0 1 .137-.247z"/><path d="M68.765 35.537a.2.2 0 0 1 .281.029l.23.293.485.591c.269.291.542.506.818.566a.2.2 0 0 1 .152.238.2.2 0 0 1-.238.152c-.402-.088-.746-.381-1.026-.686-.189-.205-.369-.437-.525-.64l-.206-.262a.2.2 0 0 1 .029-.281zm3.081 2.312a.2.2 0 0 1 .264-.084l2.547 1.257a.2.2 0 0 1-.11.378c-.506-.055-.976-.27-1.408-.519l-.63-.392-.022-.014c-.001.038-.013.075-.036.108L71.183 40.4l1.318.832a.2.2 0 0 1-.145.365c-.282-.055-.551-.204-.787-.369a7.14 7.14 0 0 1-.616-.499l-.147.21a.2.2 0 0 1-.34-.21c.235-.433.516-.835.803-1.223l.304-.406.55-.747a.2.2 0 0 1 .076-.065l-.279-.172a.2.2 0 0 1-.074-.267z"/><path d="M68.885 30.986a.2.2 0 0 1 .206.189l.265 4.924a.2.2 0 0 1-.394.06c-.077-.302-.111-.595-.135-.895h0l-.136-4.077a.2.2 0 0 1 .194-.201zm7.1 1.416a.2.2 0 0 1 .215.183l.13 3.378.03 1.4a.2.2 0 0 1-.194.206.2.2 0 0 1-.206-.194l-.03-1.418-.128-3.339a.2.2 0 0 1 .183-.215z"/><path d="M75.415 35.729a.2.2 0 0 1 .28-.041l1.292.994 2.727 1.983a.2.2 0 1 1-.212.339c-.975-.61-1.883-1.32-2.783-2.023l-1.263-.972a.2.2 0 0 1-.041-.28z"/><path d="M82.839 35.616a.2.2 0 0 1-.027.281l-1.873 1.444-.327.244-2.144 1.712a.2.2 0 1 1-.266-.299c.693-.618 1.431-1.181 2.17-1.733l.329-.246 1.857-1.431a.2.2 0 0 1 .281.027z"/><path d="M79.99 30.295a.2.2 0 0 1-.064.276c-.746.466-1.452.99-2.156 1.529l-.473.363-1.66 1.245a.2.2 0 0 1-.232-.326l1.644-1.233.477-.367 2.187-1.55a.2.2 0 0 1 .276.064zm2.937 1.3a.2.2 0 0 1 .185.214l-.088 1.27-.299 3.697a.2.2 0 0 1-.398-.036l.386-4.96v-.001a.2.2 0 0 1 .214-.184z"/><path d="M79.547 30.608a.2.2 0 0 1 .276-.06l.716.45c.902.561 1.815 1.129 2.603 1.878a.2.2 0 0 1-.276.29c-.756-.718-1.623-1.258-2.52-1.817l-.739-.465a.2.2 0 0 1-.06-.276z"/><path d="M80.626 30.934a.2.2 0 0 1 .192.207v.001l-.16 4.294a.2.2 0 0 1-.365.105c-.482.294-.936.628-1.398.969l-.04.03-1.641 1.107a.2.2 0 1 1-.197-.348c.558-.315 1.074-.693 1.6-1.08l.047-.034 1.588-1.084.166-3.974a.2.2 0 0 1 .208-.191z"/><path d="M80.866 24.66a.2.2 0 0 1 .255.117l.138.409.501 1.484a.2.2 0 0 1-.368.154c-.156-.308-.261-.642-.355-.966l-.055-.191-.104-.358-.134-.397a.2.2 0 0 1 .122-.252zm-6.93.48a.2.2 0 0 1 .267-.036l1.592 1.1a.2.2 0 0 1-.152.361c-.333-.066-.661-.263-.945-.48s-.549-.474-.75-.675a.2.2 0 0 1-.012-.269zm-1.299 1.14a.2.2 0 0 1 .264-.094l.511.236.224.095.115.048.865.416a.2.2 0 0 1-.186.354l-1.181-.546-.525-.243a.2.2 0 0 1-.088-.265zm13.722 4.03a.2.2 0 0 1 .236.152l.186.94.08.428a.2.2 0 0 1-.158.234.2.2 0 0 1-.234-.158h0l-.265-1.361a.2.2 0 0 1 .155-.234zm-14.229.071a.2.2 0 0 1 .277-.035l1.183.981.207.18a.2.2 0 0 1-.259.305l-1.379-1.152a.2.2 0 0 1-.028-.278zm8.342 1.929a.2.2 0 0 1 .215-.171c.321.028.633.095.934.167l.2.048.381.09.311.063a.2.2 0 0 1-.075.393l-.318-.065-1.49-.302a.2.2 0 0 1-.158-.225zm-11.772.197a.2.2 0 0 1 .279.002l1.697 1.676.001.001a.2.2 0 1 1-.281.285l-.558-.538-1.147-1.147a.2.2 0 0 1 .01-.279zm11.616 1.252a.2.2 0 0 1 .235-.151c.297.061.588.145.87.227l.945.247a.2.2 0 0 1-.089.39c-.314-.062-.621-.151-.918-.238l-.011-.003-.032-.009-.854-.223a.2.2 0 0 1-.144-.239zm-11.465.642a.2.2 0 0 1 .28-.011l1.273 1.152a.2.2 0 0 1-.255.308c-.443-.337-.839-.725-1.226-1.103l-.066-.065a.2.2 0 0 1-.006-.28zm11.206.696a.2.2 0 0 1 .253-.12l.911.316.348.11.176.055 1.445.519a.2.2 0 0 1-.146.372l-1.949-.677-.923-.321a.2.2 0 0 1-.115-.255zm-.667.794a.2.2 0 0 1 .261-.062l1.539.839a.2.2 0 0 1-.15.368c-.592-.167-1.156-.489-1.615-.879a.2.2 0 0 1-.035-.265zm-1.236.918a.2.2 0 0 1 .263-.097l1.499.739a.2.2 0 0 1-.183.356l-1.486-.733a.2.2 0 0 1-.093-.265zm-6.68 2.243a.2.2 0 0 1 .271-.081c.514.278.963.662 1.388 1.026l.237.202a.2.2 0 1 1-.258.306l-.247-.211c-.426-.364-.837-.716-1.31-.972a.2.2 0 0 1-.081-.271zm-47.753-.67H12.283v-.4h11.438c2.203 0 4.061.56 5.454 1.762s2.297 3.024 2.633 5.499c.487 3.601 1.946 6.307 4.168 8.115s5.232 2.736 8.847 2.736c3.598 0 6.404-1.207 8.938-2.816 1.269-.806 2.468-1.711 3.667-2.617l.026-.02 3.625-2.59.107.169-.107-.169c.872-.554 2.672-1.378 4.933-2.06s5.006-1.228 7.763-1.215 5.542.585 7.878 2.149 4.212 4.117 5.159 8.047c.222.919.385 1.932.551 2.962l.177 1.079c.238 1.4.52 2.791.999 4.026s1.147 2.297 2.15 3.055 2.353 1.22 4.224 1.22h37.864v.4H94.913c-1.94 0-3.381-.483-4.465-1.301s-1.787-1.953-2.282-3.229-.782-2.7-1.021-4.103l-.18-1.096-.542-2.919c-.926-3.846-2.745-6.305-4.992-7.809s-4.951-2.069-7.658-2.082-5.407.523-7.646 1.198-4.003 1.487-4.834 2.015c-1.234.784-2.412 1.674-3.605 2.576l-.02.015-3.694 2.636c-2.575 1.635-5.454 2.878-9.152 2.878-3.682 0-6.787-.944-9.099-2.825s-3.813-4.689-4.312-8.372l.198-.027-.198.027c-.326-2.406-1.197-4.128-2.497-5.249s-3.057-1.665-5.193-1.665zm46.778 9.854a.2.2 0 0 1 .255.122l.689 2.239.126.439h0c.1.348.166.572.337.83a.2.2 0 1 1-.334.221c-.207-.313-.287-.592-.386-.935l-.001-.005-.127-.443-.681-2.213a.2.2 0 0 1 .122-.255zm-5.176 3.102a.2.2 0 0 1 .267.082l1.169 2.153.177-.315a.2.2 0 0 1 .272-.076.2.2 0 0 1 .076.272l-.3.534.105.194a.2.2 0 0 1-.336.216l-1.947 3.462a.2.2 0 1 1-.349-.196l2.047-3.64c-.414-.654-.749-1.347-1.081-2.031l-.189-.389a.2.2 0 0 1 .088-.266z"/><path d="M70.796 47.589a.2.2 0 0 1-.042.271l-5.412 4.209a.2.2 0 0 1-.272-.29c1.538-1.738 3.503-3.082 5.459-4.248a.2.2 0 0 1 .268.059zm6.078.145a.2.2 0 0 1 .059.264l-2.282 3.946a.2.2 0 0 1-.373-.106.2.2 0 0 1-.083.008l-2.934-.329a.2.2 0 0 1 .007-.398l1.527-.039c.538.032 1.091.133 1.525.397a.2.2 0 0 1 .076.082l.125-.255c.59-1.2 1.225-2.492 2.084-3.533a.2.2 0 0 1 .268-.037zm3.873 3.113a.2.2 0 0 1 .001.283c-.724.73-1.272 1.686-1.807 2.619l-.248.431a.2.2 0 0 1-.346-.201l.244-.423c.532-.929 1.109-1.937 1.873-2.708a.2.2 0 0 1 .283-.001z"/><path d="M78.687 53.047a.2.2 0 0 1 .264.073c.548.9.939 1.809 1.258 2.806.006.018.009.037.01.055l3.122-.063a.2.2 0 1 1 .01.4l-.784.027-2.487.039a.2.2 0 0 1-.194-.201c0-.015.002-.029.005-.043-.022-.019-.041-.043-.054-.072l-1.239-2.763a.2.2 0 0 1 .089-.259zm5.132 2.938a.2.2 0 0 1 .181.218l-.206 1.875-.314 3.96a.2.2 0 0 1-.4 0c0-1.34.161-2.699.32-4.037l.202-1.835a.2.2 0 0 1 .218-.181z"/><path d="M80.558 60.276a.2.2 0 0 1 .1.265l-.503 1.02 3.635-.184a.2.2 0 1 1 .022.399l-3.881.196-1.417 2.343-.412.656a.2.2 0 0 1-.339-.212l.416-.662 2.115-3.722a.2.2 0 0 1 .265-.1z"/><path d="M77.698 64.3a.2.2 0 0 1 .272.065l.825 1.423.03.054.061.11.72 1.248a.2.2 0 0 1-.242.288c-.013.043-.04.082-.08.109l-.134.09c-1.426.959-2.886 1.942-4.456 2.687a.2.2 0 0 1-.198-.346l-1.183-2.381c-1.229.228-2.358.262-3.637-.02a.2.2 0 0 1 .04-.395l3.978-.066a.2.2 0 0 1 .046.395l1.118 2.288c1.417-.71 2.751-1.607 4.08-2.501l.124-.084a.2.2 0 0 1 .096-.033l-.618-1.083-.909-1.577a.2.2 0 0 1 .07-.271z"/><path d="M66.791 64.721a.2.2 0 0 1 .007.283c-.695.729-1.313 1.507-1.94 2.295l-.788.982a.2.2 0 0 1-.309-.254l.773-.962 1.976-2.337a.2.2 0 0 1 .283-.007zm3.455 1.996a.2.2 0 0 1 .117.249c-.227.686-.537 1.34-.854 1.98l-.171.343-.332.672-.411.905a.2.2 0 0 1-.367-.159l.415-.916 1.348-2.97a.2.2 0 0 1 .255-.104z"/><path d="M64.991 62.432a.2.2 0 0 1 .229.166c.148.918.6 1.934 1.249 2.587a.2.2 0 1 1-.284.282c-.719-.724-1.202-1.822-1.36-2.806a.2.2 0 0 1 .166-.229zm-1.443 5.484a.2.2 0 0 1 .273-.064l2.175 1.44 2.004 1.327a.2.2 0 0 1 .079.104c.011.033.03.098.013.167-.01.042-.034.09-.081.126s-.093.044-.128.046c-.06.003-.112-.018-.136-.029a.69.69 0 0 1-.086-.047 1.94 1.94 0 0 1-.147-.105l-.049-.039-.006-.005-.019-.015-.006-.005-.002-.001h-.001 0 0 0l-.429-.31-1.234-.885-2.163-1.432a.2.2 0 0 1-.059-.274zm4.366 2.752z"/><path d="M61.441 57.248a.2.2 0 0 1 .248-.136c1.271.371 2.5.293 3.832.125a.2.2 0 1 1 .05.397c-1.342.169-2.64.257-3.994-.138a.2.2 0 0 1-.136-.248zm-.201 5.157a.2.2 0 0 1 .209-.172l3.716.198a.2.2 0 0 1-.011.4l-.637.005c-1.027.011-2.108.022-3.123-.207a.2.2 0 0 1-.154-.223z"/><path d="M61.833 57.104a.2.2 0 0 1 .197.203l-.061 2.029-.003.066-.06 2.084h0c-.007.559.002.938.176 1.404a.2.2 0 1 1-.375.14c-.202-.541-.208-.984-.201-1.549"/><path d="M59.917 55.527a.2.2 0 0 1 .282-.018c.719.632 1.333 1.297 1.971 1.987a.2.2 0 1 1-.294.271l-1.941-1.958a.2.2 0 0 1-.018-.282z"/><path d="M62.953 50.246a.2.2 0 0 1 .258-.097c.567.242 1.09.55 1.598.855l.101.061.204.122 1.244.679a.2.2 0 0 1-.18.357c-.44-.205-.856-.446-1.263-.689l-1.182-.645a19.55 19.55 0 0 1 1.065 2.085.2.2 0 0 1 .263-.052c.519.312 1.053.563 1.611.825l.03.014c.165.077.33.155.484.31a.2.2 0 1 1-.283.282c-.099-.099-.204-.152-.371-.23l-.038-.018-1.435-.721-1.624 2.772a.2.2 0 0 1-.366-.154l.098-.337-1.011.094-.665.067c-.576.052-1.162.083-1.767.033a.2.2 0 0 1 .005-.399l3.456-.198a.2.2 0 0 1 .105.023c.264-.745.64-1.478 1.229-2.025a.2.2 0 0 1-.066-.073l-1.429-2.686a.2.2 0 0 1-.074-.257z"/><path d="M68.526 46.556a.2.2 0 0 1-.086.27c-2.115 1.091-4.137 2.401-5.537 4.345a.2.2 0 0 1-.325-.234c1.456-2.022 3.545-3.367 5.678-4.467a.2.2 0 0 1 .269.086zm-5.514 8.81a.2.2 0 0 1 .276.035l1.891 2.368a.2.2 0 0 1-.298.266c-.731-.737-1.329-1.558-1.913-2.394a.2.2 0 0 1 .044-.275z"/><path d="M67.258 46.689a.2.2 0 0 1 .265-.089l3.13 1.512a.2.2 0 0 1-.163.365c-1.083-.446-2.123-.964-3.149-1.522a.2.2 0 0 1-.083-.267zm6.176 2.988c-.899 0-1.766.029-2.636.194a.2.2 0 1 1-.074-.393c.908-.172 1.805-.201 2.71-.201a.2.2 0 1 1 0 .4z"/><path d="M73.148 49.233a.2.2 0 0 1 .269.088l1.239 2.553.133.28a.2.2 0 1 1-.362.171l-.133-.28-1.234-2.543a.2.2 0 0 1 .088-.269z"/><path d="M75.008 46.045l-.627 1.194-.326.608c-.322.61-.632 1.233-.875 1.888a.2.2 0 0 0 .367.159l1.793-3.617 1.172 2.498a.2.2 0 0 0 .361-.173l-.051-.11 3.214 2.202a.2.2 0 1 0 .23-.327l-.699-.51-2.776-1.87a.2.2 0 0 0-.204.005l-.584-1.244a17.6 17.6 0 0 0 1.378.85l.48.269 1.463.857a.2.2 0 1 0 .216-.337l-1.492-.874-.47-.264c-.649-.368-1.28-.748-1.868-1.218a.2.2 0 0 0-.158-.041c-.038-.007-.079-.002-.117.015a.2.2 0 0 0-.058.04.2.2 0 0 0-.364-.012h0z"/><path d="M79.165 48.17a.2.2 0 0 1 .255.107l.841 1.934.334.768a.2.2 0 0 1-.369.153l-.329-.757-.178-.38-.092-.194-.579-1.38a.2.2 0 0 1 .117-.251zm.102 4.619a.2.2 0 0 1 .273.072l.803 1.388.11.191a.2.2 0 1 1-.347.2l-.11-.191-.802-1.386a.2.2 0 0 1 .072-.273z"/><path d="M80.467 53.823a.2.2 0 0 1 .135.249c-.222.746-.236 1.571-.251 2.385l-.002.126a.2.2 0 0 1-.204.196.2.2 0 0 1-.196-.204l.002-.142c.014-.8.029-1.676.267-2.476a.2.2 0 0 1 .249-.135z"/><path d="M80.084 54.235a.2.2 0 0 1 .237-.155c.495.104.994.149 1.504.186l.239.017 1.308.124a.2.2 0 1 1-.057.396l-1.275-.121-.243-.017c-.512-.037-1.035-.084-1.558-.193a.2.2 0 0 1-.155-.237z"/><path d="M82.589 54.105a.2.2 0 0 1 .273.065l1.243 2.111a.2.2 0 0 1-.346.2l-.002-.003-1.237-2.102a.2.2 0 0 1 .069-.273zm-18.988 8.464a.2.2 0 0 1 .247.138l.451 1.431a.2.2 0 1 1-.375.14c-.18-.482-.323-.973-.461-1.462a.2.2 0 0 1 .138-.247z"/><path d="M59.554 60.762a.2.2 0 0 1 .281.032l.278.362.601.75c.332.368.675.646 1.029.725a.2.2 0 1 1-.087.39c-.481-.108-.895-.467-1.239-.847a11.83 11.83 0 0 1-.64-.798l-.255-.332a.2.2 0 0 1 .032-.281zm3.796 2.888a.2.2 0 0 1 .265-.082l3.13 1.578a.2.2 0 0 1-.112.377c-.612-.069-1.184-.335-1.713-.646l-.772-.491-.059-.039-.063-.042a.2.2 0 0 1-.009.211h0l-1.592 2.332c.012.005.024.011.036.018l1.63 1.052a.2.2 0 0 1-.148.364c-.337-.068-.662-.251-.949-.456s-.551-.442-.768-.638l-.006-.006-.222.292a.2.2 0 0 1-.342-.206c.385-.725.88-1.395 1.363-2.05l.669-.929a.2.2 0 0 1 .187-.086l-.452-.287a.2.2 0 0 1-.072-.268z"/><path d="M59.673 55.065a.2.2 0 0 1 .206.189l.325 6.182a.2.2 0 0 1-.394.058c-.093-.375-.135-.738-.164-1.114h0l-.167-5.114a.2.2 0 0 1 .194-.201zm8.727 1.776a.2.2 0 0 1 .215.184l.16 4.239.036 1.756a.2.2 0 0 1-.4.011l-.037-1.774-.158-4.201a.2.2 0 0 1 .184-.215z"/><path d="M67.734 60.997a.2.2 0 0 1 .28-.038l1.579 1.241 3.363 2.498a.2.2 0 1 1-.215.337c-1.197-.765-2.312-1.656-3.418-2.539l-1.55-1.219a.2.2 0 0 1-.038-.28z"/><path d="M76.782 60.857a.2.2 0 0 1-.024.282l-2.297 1.808-.406.31-2.637 2.152a.2.2 0 1 1-.269-.296c.85-.775 1.756-1.481 2.664-2.174l.408-.311 2.28-1.795a.2.2 0 0 1 .282.024z"/><path d="M73.275 54.169a.2.2 0 0 1-.061.276c-.919.587-1.788 1.246-2.653 1.922l-.583.457-2.036 1.56a.2.2 0 0 1-.235-.324l2.02-1.547.587-.461 2.684-1.944a.2.2 0 0 1 .276.061zm3.706 2.121a.2.2 0 0 1 .184.213l-.471 5.382-.063.632a.2.2 0 1 1-.398-.037v-.002l.533-6.005a.2.2 0 0 1 .215-.182z"/><path d="M72.81 54.561a.2.2 0 0 1 .277-.057l.886.569c1.107.703 2.222 1.412 3.186 2.349a.2.2 0 0 1-.279.287c-.931-.905-2.002-1.585-3.103-2.286l-.909-.585a.2.2 0 0 1-.057-.277z"/><path d="M74.093 54.998a.2.2 0 0 1 .192.207v.001l-.196 5.392a.2.2 0 0 1-.387.064c-.608.376-1.178.806-1.757 1.242l-.052.039-2.011 1.387a.2.2 0 1 1-.2-.346c.689-.397 1.325-.873 1.971-1.36l.059-.044 1.945-1.357a.2.2 0 0 1 .043-.019l.18-4.874.006-.138v-.001a.2.2 0 0 1 .208-.192z"/><path d="M74.412 47.119a.2.2 0 0 1 .254.119l.169.512.615 1.863a.2.2 0 0 1-.369.151c-.189-.382-.317-.797-.432-1.203l-.067-.238-.129-.452-.165-.5a.2.2 0 0 1 .124-.251zm-8.497.585a.2.2 0 0 1 .268-.034l1.956 1.381a.2.2 0 0 1-.155.36c-.4-.081-.796-.323-1.143-.594s-.67-.591-.916-.843a.2.2 0 0 1-.009-.27zm-1.592 1.422a.2.2 0 0 1 .264-.091l.636.301.272.117.139.059 1.058.519a.2.2 0 0 1-.189.352l-1.444-.683-.65-.308a.2.2 0 0 1-.085-.266zm16.829 5.089a.2.2 0 0 1 .236.153l.226 1.164.101.549m-.562-1.867a.2.2 0 0 0-.156.233zm-17.458.07a.2.2 0 0 1 .277-.032l1.431 1.212.274.243a.2.2 0 0 1-.262.302l-1.695-1.447a.2.2 0 0 1-.026-.278zm17.627 1.873l-.326-1.71m-7.042 2.234a.2.2 0 0 1 .216-.17c.391.035.772.119 1.142.21l.248.061.477.116.372.077a.2.2 0 1 1-.077.393l-.379-.079-1.842-.383a.2.2 0 0 1-.157-.225zm-14.479.278a.2.2 0 0 1 .279.005l2.087 2.105a.2.2 0 1 1-.284.282l-.694-.683-1.4-1.43a.2.2 0 0 1 .013-.279zm14.286 1.549a.2.2 0 0 1 .236-.151l2.072.506.748.19a.2.2 0 0 1-.096.388h-.001l-2.813-.694a.2.2 0 0 1-.147-.239zm-14.098.826a.2.2 0 0 1 .28-.008l1.565 1.447a.2.2 0 0 1-.258.305c-.54-.419-1.023-.902-1.496-1.375l-.088-.088a.2.2 0 0 1-.003-.28zm13.78.856a.2.2 0 0 1 .254-.118l1.113.395.433.14.219.07 1.77.65a.2.2 0 0 1-.149.371l-2.403-.853-1.125-.4a.2.2 0 0 1-.113-.256zm-.825 1.009a.2.2 0 0 1 .261-.06l1.891 1.052a.2.2 0 0 1-.153.367c-.721-.207-1.408-.607-1.967-1.093a.2.2 0 0 1-.032-.266zm-1.515 1.148a.2.2 0 0 1 .263-.095l1.838.927a.2.2 0 0 1-.186.354l-1.825-.92a.2.2 0 0 1-.09-.265zm-8.211 2.816a.2.2 0 0 1 .272-.079c.624.344 1.168.82 1.689 1.274l.301.262a.2.2 0 1 1-.261.303l-.313-.272c-.52-.454-1.027-.896-1.61-1.218a.2.2 0 0 1-.078-.272zM43.264 36.217a.2.2 0 0 1 .255.122l.513 1.666.096.335h0c.074.259.122.42.244.604a.2.2 0 0 1-.334.221c-.16-.241-.221-.457-.295-.714h0l-.097-.339-.505-1.64a.2.2 0 0 1 .122-.255zm-3.867 2.317a.2.2 0 0 1 .267.082l.828 1.524.086-.153a.2.2 0 1 1 .349.196l-.209.372.066.121a.2.2 0 0 1-.282.265L39.08 43.47a.2.2 0 1 1-.349-.196l1.513-2.691c-.306-.487-.555-1.002-.799-1.507l-.135-.277a.2.2 0 0 1 .088-.265z"/><path d="M43.545 35.753a.2.2 0 0 1-.042.271l-4.037 3.14a.2.2 0 0 1-.273-.291c1.153-1.302 2.624-2.309 4.085-3.179a.2.2 0 0 1 .267.059zm4.521.096a.2.2 0 0 1 .059.264l-1.702 2.944a.2.2 0 0 1-.366-.047.19.19 0 0 1-.024-.001l-2.189-.245a.2.2 0 0 1 .007-.398c.327-.025.739-.054 1.147-.029s.827.1 1.161.303c.006.004.012.008.018.012l.051-.105c.441-.899.92-1.875 1.569-2.661a.2.2 0 0 1 .268-.037zm2.896 2.328a.2.2 0 0 1 .001.283c-.535.54-.941 1.248-1.341 1.945l-.184.32a.2.2 0 0 1-.346-.201l.18-.313c.397-.694.832-1.453 1.408-2.033a.2.2 0 0 1 .283-.001z"/><path d="M49.367 39.81a.2.2 0 0 1 .264.073c.412.675.705 1.358.943 2.104l2.287-.042a.2.2 0 0 1 .189.124.2.2 0 0 1 .356.143l-.154 1.395-.234 2.954a.2.2 0 0 1-.4 0c0-1.006.121-2.028.24-3.03l.138-1.233c-.034.029-.077.047-.125.049l-.574.02-1.869.029a.2.2 0 0 1-.194-.201l-.032-.064-.924-2.06a.2.2 0 0 1 .089-.259z"/><path d="M50.807 45.202a.2.2 0 0 1 .099.265l-.334.684 2.622-.133a.2.2 0 1 1 .022.399l-2.867.146-1.061 1.75-.292.464a.2.2 0 1 1-.339-.212l.295-.469 1.59-2.794a.2.2 0 0 1 .265-.099z"/><path d="M48.628 48.207a.2.2 0 0 1 .273.065l.616 1.064.02.036.042.075.543.941a.2.2 0 0 1-.196.299c-.015.026-.035.048-.062.066l-.108.073c-1.061.714-2.151 1.447-3.323 2.003a.2.2 0 0 1-.233-.316l-.85-1.708c-.906.165-1.745.187-2.693-.023a.2.2 0 0 1 .04-.395l2.966-.049a.2.2 0 0 1 .094.378l.798 1.608c1.035-.523 2.01-1.179 2.986-1.836l.099-.067c.008-.005.016-.01.024-.014l-.434-.763-.672-1.165a.2.2 0 0 1 .07-.271z"/><path d="M40.551 48.526a.2.2 0 0 1 .007.283c-.515.54-.971 1.114-1.436 1.699l-.596.742a.2.2 0 1 1-.309-.254l.581-.722 1.472-1.741a.2.2 0 0 1 .283-.007zm2.56 1.478a.2.2 0 0 1 .117.249c-.171.516-.404 1.006-.64 1.484l-.129.258-.249.504-.303.669a.2.2 0 0 1-.367-.16l.308-.679 1.009-2.222a.2.2 0 0 1 .255-.104z"/><path d="M39.166 46.805a.2.2 0 0 1 .229.166c.108.677.443 1.424.917 1.902a.2.2 0 1 1-.284.282c-.544-.549-.909-1.378-1.028-2.121a.2.2 0 0 1 .166-.229zm-1.111 4.113a.2.2 0 0 1 .273-.064l1.62 1.072 1.499.992a.2.2 0 0 1 .079.103.28.28 0 0 1 .011.152c-.009.04-.032.087-.078.122a.22.22 0 0 1-.124.045c-.057.003-.105-.017-.124-.026-.026-.011-.05-.026-.071-.038a1.49 1.49 0 0 1-.114-.081l-.036-.028-.019-.015-.006-.005-.311-.224-.933-.669-1.608-1.065a.2.2 0 0 1-.059-.274z"/><path d="M36.474 42.972a.2.2 0 0 1 .248-.136c.938.273 1.846.217 2.838.092a.2.2 0 0 1 .224.173.2.2 0 0 1-.173.223c-1.002.127-1.979.193-3-.104a.2.2 0 0 1-.136-.248zm-.152 3.855a.2.2 0 0 1 .209-.172l2.773.148a.2.2 0 0 1-.011.4l-.473.003c-.766.008-1.58.017-2.344-.156a.2.2 0 0 1-.154-.223z"/><path d="M36.816 42.828a.2.2 0 0 1 .197.203l-.046 1.507-.002.056-.045 1.554h0c-.005.416.001.69.128 1.029a.2.2 0 1 1-.375.14c-.155-.414-.159-.753-.153-1.174l.045-1.565.002-.055.045-1.5a.2.2 0 0 1 .203-.197zm-.295 3.316l.2.002-.2-.002z"/><path d="M35.349 41.67a.2.2 0 0 1 .282-.018c.532.467.986.958 1.454 1.464l.02.021a.2.2 0 1 1-.294.272l-.013-.015-1.43-1.442a.2.2 0 0 1-.018-.282z"/><path d="M37.605 37.74a.2.2 0 0 1 .258-.097c.427.182.819.414 1.198.641l.075.045.151.091.928.507a.2.2 0 0 1-.18.357c-.33-.154-.643-.335-.947-.517l-.719-.393c.248.435.471.88.677 1.341a.2.2 0 0 1 .205.001c.382.23.777.415 1.191.609l.027.013.005.002c.121.057.25.118.371.24a.2.2 0 1 1-.284.282.84.84 0 0 0-.262-.162l-.035-.016-1.025-.512-1.186 2.024a.2.2 0 0 1-.365-.154l.051-.18-.678.064-.496.05c-.431.039-.871.062-1.326.024a.2.2 0 0 1 .005-.399l2.578-.146c.017-.001.033 0 .049.003.192-.528.462-1.048.875-1.447-.007-.009-.014-.019-.019-.03l-1.06-1.993a.2.2 0 0 1-.063-.249z"/><path d="M41.854 34.989a.2.2 0 0 1-.086.269c-1.576.812-3.075 1.786-4.112 3.226a.2.2 0 0 1-.325-.234c1.093-1.517 2.66-2.526 4.254-3.348a.2.2 0 0 1 .269.086zm-4.189 6.555a.2.2 0 0 1 .276.036l1.41 1.766a.2.2 0 0 1-.298.266c-.548-.552-.997-1.167-1.432-1.793a.2.2 0 0 1 .044-.275z"/><path d="M40.817 35.087a.2.2 0 0 1 .265-.089l2.335 1.129a.2.2 0 0 1-.163.365c-.809-.335-1.587-.721-2.354-1.138a.2.2 0 0 1-.082-.267zm4.654 2.304c-.67 0-1.312.021-1.957.144a.2.2 0 1 1-.075-.393c.683-.129 1.356-.151 2.032-.151a.2.2 0 1 1 0 .4z"/><path d="M45.234 36.963a.2.2 0 0 1 .269.087l.91 1.874.114.241a.2.2 0 1 1-.361.172l-.114-.241-.905-1.863a.2.2 0 0 1 .087-.269z"/><path d="M47.514 35.302l.876.531.358.201 1.088.638a.2.2 0 1 0 .216-.337l-1.117-.655-.348-.195c-.484-.274-.951-.556-1.387-.904a.2.2 0 0 0-.148-.042c-.035-.004-.072.001-.107.017-.025-.017-.046-.034-.071-.046a.2.2 0 0 0-.268.09l-.461.879-.909 1.888a.2.2 0 0 0 .367.159l1.29-2.602.831 1.767a.2.2 0 0 0 .38-.101l2.265 1.553a.2.2 0 0 0 .23-.327l-.516-.377-2.08-1.402a.2.2 0 0 0-.152-.018l-.336-.715z"/><path d="M49.728 36.17a.2.2 0 0 1 .255.107l.629 1.447.248.572a.2.2 0 0 1-.109.258.2.2 0 0 1-.26-.105l-.244-.561-.134-.285-.069-.147-.434-1.035a.2.2 0 0 1 .117-.251zm.068 3.449a.2.2 0 0 1 .274.072l.563.973.119.206a.2.2 0 1 1-.346.2l-.119-.207-.562-.971a.2.2 0 0 1 .072-.273z"/><path d="M50.733 40.383a.2.2 0 0 1 .135.249c-.164.551-.174 1.162-.184 1.774l-.002.086a.2.2 0 0 1-.203.197.2.2 0 0 1-.197-.203l.002-.103c.01-.597.021-1.259.201-1.865a.2.2 0 0 1 .249-.135z"/><path d="M50.383 40.731a.2.2 0 0 1 .237-.155c.365.077.735.11 1.115.138l.181.013.977.092a.2.2 0 1 1-.057.396l-.944-.089-.185-.013c-.383-.028-.775-.062-1.169-.145a.2.2 0 0 1-.155-.237z"/><path d="M52.274 40.601a.2.2 0 0 1 .273.065l.928 1.578a.2.2 0 0 1-.346.2l-.924-1.57a.2.2 0 0 1 .069-.273zM38.12 46.909a.2.2 0 0 1 .247.138l.336 1.065a.2.2 0 0 1-.118.257.2.2 0 0 1-.257-.118 14.39 14.39 0 0 1-.346-1.095.2.2 0 0 1 .138-.247z"/><path d="M35.083 45.571a.2.2 0 0 1 .281.032l.209.273.444.554c.246.273.494.47.742.525a.2.2 0 1 1-.088.39c-.375-.084-.693-.362-.951-.647-.174-.193-.34-.413-.483-.603l-.186-.243a.2.2 0 0 1 .032-.281zm2.819 2.17a.2.2 0 0 1 .265-.082l2.334 1.178a.2.2 0 0 1-.112.377c-.467-.052-.901-.255-1.298-.489l-.574-.365a.2.2 0 0 1-.032.08h0l-1.156 1.693 1.197.772a.2.2 0 0 1-.148.364c-.262-.053-.511-.194-.728-.349-.204-.145-.392-.313-.549-.454l-.123.18a.2.2 0 0 1-.342-.207c.289-.545.663-1.05 1.025-1.541l.495-.686c.016-.023.035-.041.057-.055l-.239-.151a.2.2 0 0 1-.071-.268z"/><path d="M35.202 41.307a.2.2 0 0 1 .206.189l.243 4.612a.2.2 0 0 1-.394.058c-.07-.283-.102-.557-.124-.839h0l-.124-3.819a.2.2 0 0 1 .194-.201zm6.507 1.326a.2.2 0 0 1 .215.184l.12 3.166.027 1.309a.2.2 0 1 1-.4.011l-.028-1.326-.118-3.128a.2.2 0 0 1 .184-.215z"/><path d="M41.178 45.755a.2.2 0 0 1 .28-.038l1.189.934 2.495 1.853a.2.2 0 1 1-.215.337c-.893-.571-1.726-1.236-2.55-1.894l-1.16-.912a.2.2 0 0 1-.038-.28z"/><path d="M48.008 45.648a.2.2 0 0 1-.024.282l-1.714 1.349-.304.232-1.965 1.603a.2.2 0 0 1-.269-.296c.636-.58 1.314-1.108 1.991-1.625l.306-.233 1.697-1.336a.2.2 0 0 1 .282.024z"/><path d="M45.396 40.665a.2.2 0 0 1-.061.276c-.683.437-1.33.927-1.975 1.431l-.43.338-1.525 1.168a.2.2 0 1 1-.235-.324l1.509-1.155.435-.342 2.006-1.453a.2.2 0 0 1 .276.061zm2.616.644a.2.2 0 0 1 .187.21l-.074 1.374-.035.881-.017.443-.166 2.708a.2.2 0 0 1-.399-.03l.217-4.021.075-1.379a.2.2 0 0 1 .212-.186z"/><path d="M44.963 40.955a.2.2 0 0 1 .277-.057l.665.427c.824.524 1.66 1.055 2.38 1.755a.2.2 0 0 1-.279.287c-.688-.668-1.478-1.171-2.297-1.692l-.689-.443a.2.2 0 0 1-.057-.277z"/><path d="M45.965 41.258a.2.2 0 0 1 .192.207v.001l-.147 4.022a.2.2 0 0 1-.356.117c-.434.272-.845.581-1.262.896l-.039.03-1.506 1.038a.2.2 0 1 1-.2-.347c.511-.294.983-.647 1.465-1.011l.046-.034 1.454-1.015.146-3.712h0a.2.2 0 0 1 .208-.191z"/><path d="M46.184 35.383a.2.2 0 0 1 .254.119l.128.387.458 1.387a.2.2 0 0 1-.369.151c-.143-.289-.239-.603-.325-.906l-.05-.178-.095-.333-.124-.375a.2.2 0 0 1 .124-.251zm-6.361.451a.2.2 0 0 1 .268-.034l1.459 1.03a.2.2 0 0 1-.155.359c-.31-.063-.613-.249-.873-.453a7.07 7.07 0 0 1-.689-.634.2.2 0 0 1-.009-.27zm-1.194 1.07a.2.2 0 0 1 .264-.091l.473.224.202.087.104.045a6.42 6.42 0 0 1 .795.391.2.2 0 0 1-.189.352l-1.077-.509-.487-.231a.2.2 0 0 1-.085-.266zm12.59 3.771a.2.2 0 0 1 .236.153l.168.866.077.415a.2.2 0 1 1-.393.075h0l-.244-1.275a.2.2 0 0 1 .156-.233zm-13.052.07a.2.2 0 0 1 .277-.032l1.066.902.209.186a.2.2 0 0 1-.262.302l-1.265-1.079a.2.2 0 0 1-.026-.278zm7.641 1.813a.2.2 0 0 1 .216-.17c.296.027.584.09.86.158l.188.047.356.086.273.057a.2.2 0 0 1-.077.392l-.28-.058-1.379-.287a.2.2 0 0 1-.157-.225zm-10.786.178a.2.2 0 0 1 .279.005l1.543 1.556c.092.093.091.219.013.297a.2.2 0 0 1-.283-.001h0l-.52-.511-1.045-1.067a.2.2 0 0 1 .013-.279zm10.643 1.18a.2.2 0 0 1 .236-.149c.271.057.536.135.793.212l.871.233a.2.2 0 0 1-.091.389 9.65 9.65 0 0 1-.844-.224l-.012-.004-.033-.01-.776-.208a.2.2 0 0 1-.143-.239zm-10.505.593a.2.2 0 0 1 .28-.008l1.168 1.079a.2.2 0 0 1-.258.305c-.403-.313-.763-.673-1.114-1.024l-.072-.072a.2.2 0 0 1-.003-.28zm10.27.659a.2.2 0 0 1 .254-.118l.828.294.324.105.164.053 1.326.487a.2.2 0 0 1-.149.371l-1.794-.637-.84-.298a.2.2 0 0 1-.113-.256zm-.609.739a.2.2 0 0 1 .261-.059l1.41.785a.2.2 0 0 1-.155.366 4.01 4.01 0 0 1-1.484-.826.2.2 0 0 1-.031-.265zm-1.136.862a.2.2 0 0 1 .264-.095l1.375.694a.2.2 0 0 1-.187.354l-1.362-.688a.2.2 0 0 1-.09-.265zm-6.123 2.101a.2.2 0 0 1 .272-.079c.473.261.885.622 1.274.962l.218.19a.2.2 0 0 1-.261.303l-.229-.199c-.39-.341-.764-.668-1.195-.906a.2.2 0 0 1-.079-.272zm29.114-10.138c1.784 2.403 4.813 4.548 9.368 5.966 7.804 2.429 10.602 9.379 9.654 15.698-.947 6.311-5.643 12.057-12.868 12.057-7.127 0-11.386-1.729-13.853-4.724-2.459-2.986-3.095-7.182-3.095-12.013l.008-1.265c.03-3.536.073-8.521-1.579-12.815-.928-2.412-2.387-4.595-4.677-6.178s-5.429-2.575-9.737-2.575H13.864a.2.2 0 0 1 0-.4h26.031c4.37 0 7.593 1.008 9.964 2.646s3.874 3.895 4.823 6.363c1.682 4.372 1.637 9.438 1.606 12.966l-.008 1.257c0 4.816.639 8.887 3.004 11.758 2.358 2.862 6.473 4.578 13.544 4.578 6.973 0 11.546-5.542 12.473-11.716.925-6.165-1.798-12.898-9.377-15.257-4.615-1.436-7.724-3.623-9.57-6.11s-2.421-5.27-1.981-7.87c.88-5.198 5.802-9.641 12.597-9.641 4.337 0 6.849 1.322 8.534 3.332 1.386 1.653 2.203 3.766 3.035 5.918l.513 1.309c1.043 2.602 2.29 5.168 4.752 7.09s6.162 3.218 12.156 3.218h38.849a.2.2 0 0 1 0 .4H105.96c-6.051 0-9.85-1.311-12.403-3.303s-3.829-4.642-4.877-7.256l-.522-1.333c-.833-2.151-1.621-4.189-2.96-5.786-1.595-1.903-3.985-3.189-8.227-3.189-6.616 0-11.357 4.318-12.202 9.307-.422 2.493.125 5.163 1.908 7.565z"/></g></svg>