<svg width="63" height="54" viewBox="0 0 63 54" fill="none" xmlns="http://www.w3.org/2000/svg">
<g clip-path="url(#clip0)">
<path d="M46.8772 24.5578C46.8772 24.5578 48.774 17.5025 44.9805 10.2437" stroke="#E0E0E0" stroke-linecap="round" stroke-linejoin="round"/>
<path d="M20.8709 22.2608C21.5402 19.5228 21.74 13.8148 12.9004 11.3916" stroke="#E0E0E0" stroke-linecap="round" stroke-linejoin="round"/>
<path d="M59.7483 24.1508H4.80957V54H59.7483V24.1508Z" fill="url(#paint0_linear)"/>
<path d="M59.3413 24.5578H5.2832V53.2198H59.3413V24.5578Z" fill="white"/>
<path d="M15.7835 31.7487C17.2426 31.7487 18.4255 30.5642 18.4255 29.103C18.4255 27.6418 17.2426 26.4573 15.7835 26.4573C14.3244 26.4573 13.1416 27.6418 13.1416 29.103C13.1416 30.5642 14.3244 31.7487 15.7835 31.7487Z" fill="url(#paint1_linear)"/>
<path d="M15.7841 31.4774C17.0935 31.4774 18.155 30.4143 18.155 29.103C18.155 27.7917 17.0935 26.7286 15.7841 26.7286C14.4746 26.7286 13.4131 27.7917 13.4131 29.103C13.4131 30.4143 14.4746 31.4774 15.7841 31.4774Z" fill="#0278D5"/>
<path d="M34.5483 28.2211H21.2031V29.5779H34.5483V28.2211Z" fill="#BDBDBD"/>
<path d="M49.079 37.0063H15.75V38.3631H49.079V37.0063Z" fill="#E0E0E0"/>
<path d="M49.079 34.0213H15.75V35.3781H49.079V34.0213Z" fill="#E0E0E0"/>
<path d="M49.079 39.9912H15.75V41.348H49.079V39.9912Z" fill="#E0E0E0"/>
<path d="M49.079 42.9761H15.75V44.3329H49.079V42.9761Z" fill="#E0E0E0"/>
<path d="M49.079 45.9611H15.75V47.3178H49.079V45.9611Z" fill="#E0E0E0"/>
<path d="M49.079 48.946H15.75V50.3028H49.079V48.946Z" fill="#E0E0E0"/>
<path d="M10.5395 22.5735C10.591 21.1068 10.4122 18.9142 9.13184 17.4577" stroke="#BDBDBD" stroke-linecap="round" stroke-linejoin="round"/>
<path d="M41.1596 23.1841C41.2111 21.7174 41.0323 19.5248 39.752 18.0683" stroke="#E0E0E0" stroke-linecap="round" stroke-linejoin="round"/>
<path d="M53.8827 22.5735C53.8312 21.1068 54.01 18.9142 55.2904 17.4577" stroke="#BDBDBD" stroke-linecap="round" stroke-linejoin="round"/>
<path opacity="0.7" d="M7.51936 7.78659H0V11.8861H7.51936V7.78659Z" fill="#0278D5"/>
<path opacity="0.7" d="M48.7059 5.00517H41.1865V9.1047H48.7059V5.00517Z" fill="#0278D5"/>
<path opacity="0.7" d="M42.2713 12.3318H34.752V16.4313H42.2713V12.3318Z" fill="#0278D5"/>
<path d="M17.8694 8.65492H5.62305V15.331H17.8694V8.65492Z" fill="#0278D5"/>
<path d="M63.0003 8.99413H50.7539V15.6702H63.0003V8.99413Z" fill="#0278D5"/>
<path d="M35.2591 0H23.0127V6.67606H35.2591V0Z" fill="#0278D5"/>
<path d="M28.6432 22.5369C29.0584 21.0878 29.3287 18.7725 28.0118 16.3825C26.386 13.4308 27.8479 10.5551 28.6791 9.3028" stroke="#BDBDBD" stroke-linecap="round" stroke-linejoin="round"/>
</g>
<defs>
<linearGradient id="paint0_linear" x1="32.2789" y1="54" x2="32.2789" y2="24.1508" gradientUnits="userSpaceOnUse">
<stop stop-color="#808080" stop-opacity="0.25"/>
<stop offset="0.54" stop-color="#808080" stop-opacity="0.12"/>
<stop offset="1" stop-color="#808080" stop-opacity="0.1"/>
</linearGradient>
<linearGradient id="paint1_linear" x1="15.7835" y1="31.7487" x2="15.7835" y2="26.4573" gradientUnits="userSpaceOnUse">
<stop stop-color="#B3B3B3" stop-opacity="0.25"/>
<stop offset="0.54" stop-color="#B3B3B3" stop-opacity="0.1"/>
<stop offset="1" stop-color="#B3B3B3" stop-opacity="0.05"/>
</linearGradient>
<clipPath id="clip0">
<rect width="63" height="54" fill="white"/>
</clipPath>
</defs>
</svg>
