<svg width="59" height="43" viewBox="0 0 59 43" fill="none" xmlns="http://www.w3.org/2000/svg">
<g clip-path="url(#clip0)">
<path d="M3.45843 0.284608H48.4804C48.4817 0.208718 48.5126 0.136364 48.5666 0.0831303C48.6206 0.0298966 48.6933 4.28481e-05 48.769 0H50.5423C50.618 3.23331e-05 50.6907 0.0298819 50.7447 0.0831178C50.7987 0.136354 50.8296 0.208715 50.8309 0.284608H51.2651C51.2664 0.208718 51.2974 0.136364 51.3514 0.0831303C51.4054 0.0298966 51.478 4.28481e-05 51.5538 0H53.327C53.4027 4.28481e-05 53.4754 0.0298966 53.5294 0.0831303C53.5834 0.136364 53.6144 0.208718 53.6156 0.284608H55.1957C56.1126 0.285639 56.9916 0.6511 57.64 1.30081C58.2884 1.95052 58.6531 2.83143 58.6541 3.75026V3.78438C58.6596 3.78407 58.6648 3.78275 58.6703 3.78275H58.7108C58.7488 3.78275 58.7864 3.79025 58.8215 3.80481C58.8566 3.81937 58.8885 3.84071 58.9153 3.86762C58.9422 3.89452 58.9635 3.92647 58.978 3.96162C58.9925 3.99678 59 4.03446 59 4.07251V7.46179C59 7.49984 58.9925 7.53752 58.978 7.57267C58.9635 7.60783 58.9422 7.63977 58.9153 7.66668C58.8885 7.69359 58.8566 7.71493 58.8215 7.72949C58.7864 7.74405 58.7488 7.75154 58.7108 7.75154H58.6703C58.6648 7.75154 58.6596 7.75022 58.6541 7.74991V39.5343C58.6531 40.4532 58.2884 41.3341 57.64 41.9838C56.9916 42.6335 56.1126 42.999 55.1957 43H3.45843C2.54151 42.999 1.66245 42.6335 1.0141 41.9838C0.365738 41.3341 0.00103378 40.4532 -7.62939e-06 39.5343V3.75027C0.00103378 2.83144 0.365738 1.95054 1.0141 1.30083C1.66245 0.651117 2.54151 0.285651 3.45843 0.284608ZM1.04095 39.5343C1.04168 40.1766 1.29662 40.7924 1.74982 41.2465C2.20303 41.7007 2.8175 41.9561 3.45843 41.9569H55.1957C55.8366 41.9562 56.4511 41.7007 56.9043 41.2465C57.3575 40.7924 57.6125 40.1766 57.6132 39.5343V3.75027C57.6125 3.10799 57.3575 2.49223 56.9043 2.03807C56.4511 1.58392 55.8366 1.32846 55.1957 1.32774H3.45843C2.8175 1.32847 2.20303 1.58394 1.74982 2.03809C1.29662 2.49224 1.04168 3.108 1.04095 3.75026V39.5343Z" fill="#CCCCCC"/>
<path d="M3.4584 42.5364H55.1956C55.9899 42.5355 56.7513 42.219 57.313 41.6562C57.8746 41.0934 58.1905 40.3303 58.1914 39.5344V3.75031C58.1905 2.95439 57.8746 2.19133 57.313 1.62853C56.7513 1.06573 55.9899 0.749156 55.1956 0.74826H3.4584C2.66413 0.749153 1.90266 1.06572 1.34103 1.62852C0.779396 2.19132 0.463478 2.95438 0.462582 3.7503V39.5344C0.463478 40.3303 0.779392 41.0934 1.34102 41.6562C1.90265 42.219 2.66413 42.5355 3.4584 42.5364Z" fill="#E6E6E6"/>
<path d="M3.44285 40.118H55.2117C55.3865 40.1178 55.5541 40.0481 55.6778 39.9242C55.8014 39.8004 55.8709 39.6324 55.8711 39.4572V3.82747C55.8709 3.6523 55.8014 3.48435 55.6778 3.36048C55.5541 3.23661 55.3865 3.16694 55.2117 3.16675H3.44285C3.26804 3.16694 3.10044 3.23661 2.97682 3.36048C2.85321 3.48435 2.78367 3.65229 2.78348 3.82747V39.4572C2.78367 39.6324 2.8532 39.8004 2.97682 39.9242C3.10043 40.0481 3.26803 40.1178 3.44285 40.118Z" fill="white"/>
<path d="M57.0196 21.8284C56.8828 21.8284 56.772 21.7173 56.772 21.5803C56.772 21.4433 56.8828 21.3323 57.0196 21.3323C57.1563 21.3323 57.2671 21.4433 57.2671 21.5803C57.2671 21.7173 57.1563 21.8284 57.0196 21.8284Z" fill="white"/>
<path d="M41.4101 9.31752H42.7861C42.8266 9.31752 42.8655 9.30138 42.8942 9.27265C42.9229 9.24392 42.939 9.20495 42.939 9.16431C42.939 9.12368 42.9229 9.08471 42.8942 9.05598C42.8655 9.02725 42.8266 9.01111 42.7861 9.01111H41.4101C41.3696 9.0112 41.3308 9.02738 41.3022 9.05611C41.2736 9.08483 41.2576 9.12374 41.2576 9.16431C41.2576 9.20489 41.2736 9.2438 41.3022 9.27252C41.3308 9.30125 41.3696 9.31743 41.4101 9.31752Z" fill="white"/>
<path d="M40.4548 9.27924C40.4126 9.27924 40.3784 9.24495 40.3784 9.20264C40.3784 9.16033 40.4126 9.12604 40.4548 9.12604C40.497 9.12604 40.5312 9.16033 40.5312 9.20264C40.5312 9.24495 40.497 9.27924 40.4548 9.27924Z" fill="white"/>
<path d="M40.377 16.5175L40.361 16.8739C38.5428 16.7922 36.4375 16.951 34.1967 17.3257V16.9643C36.4409 16.5925 38.551 16.4355 40.377 16.5175Z" fill="#CCCCCC"/>
<path d="M42.6375 23.4978C42.6517 23.6342 42.6632 23.7714 42.6721 23.9095C42.6908 24.181 42.7002 24.4546 42.7002 24.7303C42.6988 27.2979 41.8704 29.7964 40.3383 31.8543C38.8062 33.9123 36.6522 35.4197 34.1965 36.1525V13.306C36.4517 13.9778 38.4573 15.3047 39.9598 17.1188C41.4623 18.933 42.3942 21.1529 42.6375 23.4978Z" fill="#0278D5"/>
<path d="M48.5718 16.591C48.4423 16.591 48.3374 16.4858 48.3374 16.3561C48.3374 16.2263 48.4423 16.1212 48.5718 16.1212C48.7012 16.1212 48.8062 16.2263 48.8062 16.3561C48.8062 16.4858 48.7012 16.591 48.5718 16.591Z" fill="#CCCCCC"/>
<path d="M49.0711 26.0136C48.8154 26.0136 48.6081 25.8058 48.6081 25.5496C48.6081 25.2933 48.8154 25.0855 49.0711 25.0855C49.3269 25.0855 49.5342 25.2933 49.5342 25.5496C49.5342 25.8058 49.3269 26.0136 49.0711 26.0136Z" fill="#CCCCCC"/>
<path d="M40.3507 13.7331C40.1654 13.7331 40.0153 13.5827 40.0153 13.397C40.0153 13.2114 40.1654 13.061 40.3507 13.061C40.5359 13.061 40.686 13.2114 40.686 13.397C40.686 13.5827 40.5359 13.7331 40.3507 13.7331Z" fill="#CCCCCC"/>
<path d="M47.9815 32.3714C47.8337 32.3714 47.7139 32.2514 47.7139 32.1033C47.7139 31.9552 47.8337 31.8351 47.9815 31.8351C48.1292 31.8351 48.249 31.9552 48.249 32.1033C48.249 32.2514 48.1292 32.3714 47.9815 32.3714Z" fill="#CCCCCC"/>
<path d="M42.5764 36.1257C42.4164 36.1257 42.2867 35.9957 42.2867 35.8353C42.2867 35.6749 42.4164 35.5449 42.5764 35.5449C42.7365 35.5449 42.8662 35.6749 42.8662 35.8353C42.8662 35.9957 42.7365 36.1257 42.5764 36.1257Z" fill="#CCCCCC"/>
<path d="M34.1528 6.59846H34.7246V6.02542H35.0314V6.59846H35.6035V6.90606H35.0314V7.4791H34.7246V6.90606H34.1528V6.59846Z" fill="#CCCCCC"/>
<path opacity="0.1" d="M38.307 23.7291C37.7551 23.7291 37.3078 23.2808 37.3078 22.7278C37.3078 22.1748 37.7551 21.7265 38.307 21.7265C38.8588 21.7265 39.3062 22.1748 39.3062 22.7278C39.3062 23.2808 38.8588 23.7291 38.307 23.7291Z" fill="black"/>
<path opacity="0.1" d="M37.8075 30.7836C37.2556 30.7836 36.8083 30.3353 36.8083 29.7823C36.8083 29.2293 37.2556 28.781 37.8075 28.781C38.3593 28.781 38.8066 29.2293 38.8066 29.7823C38.8066 30.3353 38.3593 30.7836 37.8075 30.7836Z" fill="black"/>
<path d="M42.2158 23.5049C43.4419 22.6799 44.3552 21.866 44.9302 21.0857C45.5038 20.3073 45.7083 19.6042 45.5381 18.9958C45.368 18.3873 44.8285 17.8931 43.9347 17.5269C43.0388 17.1598 41.8365 16.94 40.3612 16.8738L40.3771 16.5174C43.5363 16.6593 45.491 17.5052 45.8809 18.8995C46.2708 20.2937 45.0398 22.0344 42.4143 23.8011C40.2733 25.2417 37.4057 26.5722 34.1968 27.6259V27.2504C37.3299 26.2129 40.1256 24.9114 42.2158 23.5049Z" fill="#CCCCCC"/>
<path opacity="0.1" d="M42.216 23.7903C42.3609 23.6927 42.5015 23.5952 42.6379 23.4978C42.652 23.6342 42.6635 23.7714 42.6724 23.9095C42.5879 23.9686 42.5019 24.0276 42.4143 24.0864C40.2732 25.5271 37.4057 26.8576 34.1969 27.9113V27.5358C37.3298 26.4983 40.1255 25.1968 42.216 23.7903Z" fill="black"/>
<path d="M28.9561 18.0444C30.3563 17.6511 31.7442 17.3308 33.0908 17.0843V17.4468C31.7754 17.6899 30.4201 18.0037 29.0522 18.3879C24.6972 19.6111 20.7565 21.3937 18.2405 23.2786L18.0273 22.9928C20.5771 21.0826 24.5605 19.279 28.9561 18.0444Z" fill="#CCCCCC"/>
<path d="M18.5017 24.7304C18.5028 22.936 18.908 21.1651 19.6872 19.5495C20.4663 17.9339 21.5993 16.5154 23.0017 15.3997C24.4041 14.2839 26.0397 13.4998 27.7866 13.1057C29.5334 12.7115 31.3466 12.7176 33.0908 13.1234V36.3366C30.4683 36.9483 27.7163 36.6505 25.2846 35.4916C22.8529 34.3328 20.8855 32.3816 19.7039 29.957C19.6425 29.8317 19.5836 29.7052 19.5269 29.5775C18.8488 28.052 18.4994 26.4004 18.5017 24.7304L18.5017 24.7304Z" fill="#0278D5"/>
<path d="M30.0781 10.6663C30.0029 10.6663 29.9419 10.6051 29.9419 10.5297C29.9419 10.4543 30.0029 10.3932 30.0781 10.3932C30.1534 10.3932 30.2144 10.4543 30.2144 10.5297C30.2144 10.6051 30.1534 10.6663 30.0781 10.6663Z" fill="#F2F2F2"/>
<path d="M20.8584 11.6582C20.688 11.6582 20.5498 11.5198 20.5498 11.349C20.5498 11.1782 20.688 11.0397 20.8584 11.0397C21.0288 11.0397 21.167 11.1782 21.167 11.349C21.167 11.5198 21.0288 11.6582 20.8584 11.6582Z" fill="#CCCCCC"/>
<path d="M9.913 24.6863C9.63627 24.6863 9.41193 24.4615 9.41193 24.1842C9.41193 23.9068 9.63627 23.682 9.913 23.682C10.1897 23.682 10.4141 23.9068 10.4141 24.1842C10.4141 24.4615 10.1897 24.6863 9.913 24.6863Z" fill="#CCCCCC"/>
<path d="M13.8309 16.38C13.7122 16.38 13.6159 16.2836 13.6159 16.1646C13.6159 16.0456 13.7122 15.9492 13.8309 15.9492C13.9496 15.9492 14.0459 16.0456 14.0459 16.1646C14.0459 16.2836 13.9496 16.38 13.8309 16.38Z" fill="#CCCCCC"/>
<path d="M14.5834 23.3815C14.4646 23.3815 14.3684 23.2851 14.3684 23.1661C14.3684 23.0471 14.4646 22.9507 14.5834 22.9507C14.7021 22.9507 14.7983 23.0471 14.7983 23.1661C14.7983 23.2851 14.7021 23.3815 14.5834 23.3815Z" fill="#CCCCCC"/>
<path d="M20.4705 37.604H20.8298V37.2442H21.0223V37.604H21.3813V37.797H21.0223V38.1568H20.8298V37.797H20.4705V37.604Z" fill="#CCCCCC"/>
<path d="M12.1838 35.7623H12.4522V35.4933H12.5964V35.7623H12.8647V35.9067H12.5964V36.1756H12.4522V35.9067H12.1838V35.7623Z" fill="#CCCCCC"/>
<path opacity="0.1" d="M30.2142 16.4016C29.6624 16.4016 29.215 15.9533 29.215 15.4003C29.215 14.8474 29.6624 14.3991 30.2142 14.3991C30.766 14.3991 31.2134 14.8474 31.2134 15.4003C31.2134 15.9533 30.766 16.4016 30.2142 16.4016Z" fill="black"/>
<path opacity="0.1" d="M30.2142 25.2765C29.6624 25.2765 29.215 24.8282 29.215 24.2752C29.215 23.7222 29.6624 23.2739 30.2142 23.2739C30.766 23.2739 31.2134 23.7222 31.2134 24.2752C31.2134 24.8282 30.766 25.2765 30.2142 25.2765Z" fill="black"/>
<path opacity="0.1" d="M24.8548 19.9061C24.303 19.9061 23.8557 19.4578 23.8557 18.9048C23.8557 18.3518 24.303 17.9035 24.8548 17.9035C25.4067 17.9035 25.854 18.3518 25.854 18.9048C25.854 19.4578 25.4067 19.9061 24.8548 19.9061Z" fill="black"/>
<path opacity="0.1" d="M21.5389 26.6875C20.9871 26.6875 20.5397 26.2392 20.5397 25.6862C20.5397 25.1332 20.9871 24.6849 21.5389 24.6849C22.0907 24.6849 22.5381 25.1332 22.5381 25.6862C22.5381 26.2392 22.0907 26.6875 21.5389 26.6875Z" fill="black"/>
<path d="M15.7829 25.2319C16.252 24.5105 17.0072 23.7571 18.0273 22.9929L18.2405 23.2786C16.2581 24.7637 15.3346 26.1833 15.6402 27.2758C15.8104 27.8843 16.3498 28.3785 17.2436 28.7447C18.1395 29.1118 19.3419 29.3315 20.8172 29.3978C21.1307 29.4118 21.4523 29.4189 21.7821 29.4189C24.6688 29.4188 28.1495 28.8832 31.7081 27.8837C32.1747 27.7526 32.6356 27.6155 33.0908 27.4724V27.846C32.6669 27.978 32.238 28.105 31.8042 28.2272C28.2145 29.2354 24.7002 29.7756 21.7804 29.7755C21.4461 29.7755 21.1192 29.7685 20.8012 29.7542C17.642 29.6123 15.6874 28.7663 15.2974 27.3721C15.1165 26.7254 15.2798 26.0053 15.7829 25.2319Z" fill="#CCCCCC"/>
<path opacity="0.1" d="M20.8171 29.683C21.1305 29.6971 21.4522 29.7041 21.7822 29.7041C24.6686 29.7041 28.1496 29.1686 31.7082 28.169C32.1748 28.038 32.6357 27.9009 33.0908 27.7578V28.1314C32.6669 28.2633 32.2381 28.3904 31.8043 28.5126C28.2144 29.5207 24.7003 30.0608 21.7804 30.0608C21.4461 30.0608 21.119 30.0537 20.8011 30.0394C20.4171 30.0223 20.0513 29.9948 19.7039 29.957C19.6425 29.8317 19.5835 29.7051 19.5269 29.5774C19.9306 29.6271 20.3607 29.6623 20.8171 29.683Z" fill="black"/>
<path d="M24.8588 16.0332C24.1393 16.0332 23.5561 15.4487 23.5561 14.7277C23.5561 14.0067 24.1393 13.4222 24.8588 13.4222C25.5784 13.4222 26.1616 14.0067 26.1616 14.7277C26.1616 15.4487 25.5784 16.0332 24.8588 16.0332Z" fill="white"/>
<path d="M24.8547 12.8063C25.3486 12.8063 25.8222 13.0029 26.1714 13.3528C26.5206 13.7028 26.7168 14.1774 26.7168 14.6723C26.7168 15.7028 24.8547 19.0869 24.8547 19.0869C24.8547 19.0869 22.9926 15.7028 22.9926 14.6723C22.9926 14.1774 23.1888 13.7028 23.538 13.3528C23.8872 13.0029 24.3608 12.8063 24.8547 12.8063ZM24.8547 15.5825C25.0254 15.5825 25.1922 15.5318 25.3341 15.4368C25.476 15.3418 25.5866 15.2067 25.6519 15.0487C25.7172 14.8907 25.7343 14.7168 25.701 14.5491C25.6677 14.3813 25.5856 14.2273 25.4649 14.1063C25.3442 13.9854 25.1904 13.903 25.023 13.8697C24.8556 13.8363 24.6821 13.8534 24.5245 13.9189C24.3668 13.9843 24.232 14.0952 24.1372 14.2374C24.0424 14.3796 23.9918 14.5468 23.9918 14.7178C23.9918 14.9471 24.0827 15.1671 24.2445 15.3292C24.4063 15.4914 24.6258 15.5825 24.8547 15.5825Z" fill="#3F3D56"/>
<path d="M30.2334 20.7657C29.5138 20.7657 28.9306 20.1812 28.9306 19.4602C28.9306 18.7392 29.5138 18.1547 30.2334 18.1547C30.9529 18.1547 31.5361 18.7392 31.5361 19.4602C31.5361 20.1812 30.9529 20.7657 30.2334 20.7657Z" fill="white"/>
<path d="M30.2287 17.5387C30.7226 17.5387 31.1962 17.7353 31.5454 18.0853C31.8946 18.4352 32.0908 18.9098 32.0908 19.4047C32.0908 20.4353 30.2287 23.8194 30.2287 23.8194C30.2287 23.8194 28.3666 20.4353 28.3666 19.4047C28.3666 18.9098 28.5628 18.4352 28.912 18.0853C29.2612 17.7353 29.7349 17.5387 30.2287 17.5387ZM30.2287 20.315C30.3994 20.315 30.5662 20.2643 30.7081 20.1692C30.8501 20.0742 30.9607 19.9392 31.026 19.7812C31.0913 19.6231 31.1084 19.4493 31.0751 19.2815C31.0418 19.1138 30.9596 18.9597 30.8389 18.8388C30.7182 18.7178 30.5645 18.6355 30.3971 18.6021C30.2297 18.5688 30.0562 18.5859 29.8985 18.6513C29.7408 18.7168 29.6061 18.8276 29.5112 18.9698C29.4164 19.112 29.3658 19.2792 29.3658 19.4502C29.3658 19.6796 29.4567 19.8995 29.6185 20.0617C29.7804 20.2239 29.9999 20.315 30.2287 20.315Z" fill="#3F3D56"/>
<path d="M30.2334 12.3615C29.5138 12.3615 28.9306 11.777 28.9306 11.056C28.9306 10.335 29.5138 9.75049 30.2334 9.75049C30.9529 9.75049 31.5361 10.335 31.5361 11.056C31.5361 11.777 30.9529 12.3615 30.2334 12.3615Z" fill="white"/>
<path d="M30.2287 9.13455C30.7226 9.13455 31.1962 9.33115 31.5454 9.68109C31.8946 10.031 32.0908 10.5057 32.0908 11.0005C32.0908 12.0311 30.2287 15.4152 30.2287 15.4152C30.2287 15.4152 28.3666 12.0311 28.3666 11.0005C28.3666 10.5057 28.5628 10.031 28.912 9.68109C29.2612 9.33115 29.7349 9.13455 30.2287 9.13455ZM30.2287 11.9108C30.3994 11.9108 30.5662 11.8601 30.7081 11.7651C30.8501 11.67 30.9607 11.535 31.026 11.377C31.0913 11.219 31.1084 11.0451 31.0751 10.8774C31.0418 10.7096 30.9596 10.5555 30.8389 10.4346C30.7182 10.3137 30.5645 10.2313 30.3971 10.1979C30.2297 10.1646 30.0562 10.1817 29.8985 10.2472C29.7408 10.3126 29.6061 10.4234 29.5112 10.5656C29.4164 10.7078 29.3658 10.875 29.3658 11.0461C29.3658 11.1596 29.3881 11.2721 29.4315 11.377C29.4749 11.4819 29.5384 11.5772 29.6185 11.6575C29.6987 11.7378 29.7938 11.8015 29.8985 11.845C30.0032 11.8884 30.1154 11.9108 30.2287 11.9108Z" fill="#CCCCCC"/>
<path d="M21.5205 22.4791C20.801 22.4791 20.2177 21.8946 20.2177 21.1736C20.2177 20.4526 20.801 19.8681 21.5205 19.8681C22.24 19.8681 22.8232 20.4526 22.8232 21.1736C22.8232 21.8946 22.24 22.4791 21.5205 22.4791Z" fill="white"/>
<path d="M21.5163 19.2522C22.0102 19.2522 22.4838 19.4488 22.833 19.7987C23.1822 20.1487 23.3784 20.6233 23.3784 21.1182C23.3784 22.1488 21.5163 25.5329 21.5163 25.5329C21.5163 25.5329 19.6542 22.1488 19.6542 21.1182C19.6542 20.6233 19.8504 20.1487 20.1996 19.7987C20.5488 19.4488 21.0225 19.2522 21.5163 19.2522ZM21.5163 22.0284C21.687 22.0284 21.8538 21.9777 21.9957 21.8827C22.1376 21.7877 22.2482 21.6526 22.3136 21.4946C22.3789 21.3366 22.396 21.1627 22.3627 20.995C22.3294 20.8273 22.2472 20.6732 22.1265 20.5522C22.0058 20.4313 21.8521 20.349 21.6847 20.3156C21.5173 20.2822 21.3438 20.2993 21.1861 20.3648C21.0284 20.4302 20.8937 20.5411 20.7988 20.6833C20.704 20.8255 20.6534 20.9927 20.6534 21.1637C20.6534 21.393 20.7443 21.613 20.9061 21.7752C21.068 21.9373 21.2875 22.0284 21.5163 22.0284Z" fill="#CCCCCC"/>
<path d="M38.2939 19.5417C37.5744 19.5417 36.9911 18.9572 36.9911 18.2362C36.9911 17.5152 37.5744 16.9307 38.2939 16.9307C39.0134 16.9307 39.5967 17.5152 39.5967 18.2362C39.5967 18.9572 39.0134 19.5417 38.2939 19.5417Z" fill="white"/>
<path d="M38.2898 16.3148C38.7836 16.3148 39.2572 16.5114 39.6065 16.8614C39.9557 17.2113 40.1519 17.6859 40.1519 18.1808C40.1519 19.2114 38.2898 22.5955 38.2898 22.5955C38.2898 22.5955 36.4276 19.2114 36.4276 18.1808C36.4276 17.6859 36.6238 17.2113 36.973 16.8614C37.3223 16.5114 37.7959 16.3148 38.2898 16.3148ZM38.2898 19.0911C38.4604 19.0911 38.6273 19.0403 38.7692 18.9453C38.9111 18.8503 39.0217 18.7153 39.087 18.5572C39.1523 18.3992 39.1694 18.2254 39.1361 18.0576C39.1028 17.8899 39.0206 17.7358 38.8999 17.6149C38.7793 17.4939 38.6255 17.4116 38.4581 17.3782C38.2907 17.3448 38.1172 17.362 37.9595 17.4274C37.8018 17.4929 37.6671 17.6037 37.5723 17.7459C37.4774 17.8881 37.4268 18.0553 37.4268 18.2263C37.4268 18.4557 37.5177 18.6756 37.6796 18.8378C37.8414 19 38.0609 19.0911 38.2898 19.0911Z" fill="#CCCCCC"/>
<path d="M37.8056 26.6404C37.0861 26.6404 36.5028 26.0559 36.5028 25.3349C36.5028 24.6139 37.0861 24.0294 37.8056 24.0294C38.5251 24.0294 39.1084 24.6139 39.1084 25.3349C39.1084 26.0559 38.5251 26.6404 37.8056 26.6404Z" fill="white"/>
<path d="M37.801 23.4135C38.2948 23.4135 38.7685 23.6101 39.1177 23.96C39.4669 24.31 39.6631 24.7846 39.6631 25.2795C39.6631 26.31 37.801 29.6942 37.801 29.6942C37.801 29.6942 35.9389 26.31 35.9389 25.2795C35.9389 24.7846 36.1351 24.31 36.4843 23.96C36.8335 23.6101 37.3071 23.4135 37.801 23.4135ZM37.801 26.1897C37.9717 26.1897 38.1385 26.139 38.2804 26.044C38.4223 25.949 38.5329 25.8139 38.5982 25.6559C38.6635 25.4979 38.6806 25.324 38.6473 25.1563C38.614 24.9885 38.5318 24.8345 38.4112 24.7135C38.2905 24.5926 38.1367 24.5102 37.9693 24.4769C37.8019 24.4435 37.6284 24.4606 37.4708 24.5261C37.3131 24.5915 37.1783 24.7024 37.0835 24.8446C36.9887 24.9868 36.9381 25.154 36.9381 25.325C36.9381 25.5543 37.029 25.7743 37.1908 25.9364C37.3526 26.0986 37.5721 26.1897 37.801 26.1897Z" fill="#3F3D56"/>
<path d="M33.5273 35.6207V13.7972L33.81 13.8679V35.55L33.5273 35.6207Z" stroke="#0278D5"/>
</g>
<defs>
<clipPath id="clip0">
<rect width="59" height="43" fill="white" transform="matrix(-1 0 0 1 59 0)"/>
</clipPath>
</defs>
</svg>
