<svg fill="none" viewBox="0 0 320 200" xmlns="http://www.w3.org/2000/svg" xmlns:xlink="http://www.w3.org/1999/xlink"><radialGradient id="a" cx="0" cy="0" gradientTransform="matrix(-16.3945163 33.27260093 -41.58133247 -20.48850447 156.413 129.481)" gradientUnits="userSpaceOnUse" r="1"><stop offset="0" stop-color="#b2b2b2"/><stop offset="1" stop-color="#b2b2b2" stop-opacity="0"/></radialGradient><linearGradient id="b"><stop offset="0" stop-color="#939292"/><stop offset="1" stop-color="#939292" stop-opacity="0"/></linearGradient><radialGradient id="c" cx="0" cy="0" gradientTransform="matrix(21.75802475 55.46777967 -54.22590674 21.27088244 144.32 110.106)" gradientUnits="userSpaceOnUse" r="1" xlink:href="#b"/><linearGradient id="d" gradientUnits="userSpaceOnUse" x1="180.5" x2="198.5" xlink:href="#b" y1="157.5" y2="172.5"/><clipPath id="e"><path d="m0 0h320v200h-320z"/></clipPath><g clip-path="url(#e)"><path d="m217.39 153.387c-10.734 27.38-46.736 38.873-80.413 25.67-33.676-13.203-52.2751-46.102-41.5409-73.482 10.7339-27.3794 46.7359-38.8719 80.4129-25.6689s52.276 46.1019 41.541 73.4809z" fill="url(#a)" fill-opacity=".2"/><path clip-rule="evenodd" d="m182.626 100.299c0 10.011 0 28.201-1.126 33.201-.079.351-1.688.374-3.728.404-3.627.053-8.614.125-8.772 2.096v4c0 .497.029 1.099.059 1.728.094 2.002.202 4.272-.559 4.272l.5 3.5c-1.328 1.328-5.864 4.735-10.277 4.735-5.516 0-14.71-2.145-19.92-9.5-4.167-5.884-4.392-11.032-3.983-12.871v-27.887zm-29.626 22.201v13.5l12-2v-13z" fill="#fff" fill-rule="evenodd"/><path d="m182.626 100.299-4.903-2.7576-3.677.3064.612 1.5323c-.306 0-1.409.1839-3.371.9189-1.961.736-2.655-.306-2.758-.9189v-.9194l-37.387 2.4513c-.306 9.705-.429 30.891 1.533 38 2.451 8.887 14.709 12.871 11.645 11.033-3.065-1.839-3.678-3.678-6.742-7.355-2.452-2.942-3.065-6.334-3.065-7.662v-31.258z" fill="url(#c)" fill-opacity=".6"/><path d="m161.175 131.251v-9.5l4.29-.613v10.113 2.749l-.919.316-11.952 1.532v-3.678z" fill="url(#c)" fill-opacity=".6"/><g clip-rule="evenodd" fill-rule="evenodd"><path d="m171.046 77.262c3.24 5.7034 3.964 13.9014 2.885 22.3758-.035.274-.285.4682-.559.4332s-.468-.2855-.433-.5594c1.067-8.3804.323-16.3239-2.763-21.7556-1.537-2.7054-3.65-4.781-6.411-5.9951-2.764-1.2152-6.218-1.586-10.465-.8073-7.436 1.3632-10.342 7.2627-11.319 10.6837-.488 1.7087-.933 4.5192-.79 6.8219.072 1.1585.289 2.1234.671 2.7554.187.3089.403.5219.646.6498.24.1262.541.1878.93.1395.021-.0025.041-.0038.062-.0038.187 0 .429-.1311.676-.8176.235-.6522.386-1.5843.527-2.6834.039-.3096.078-.6316.118-.961.097-.8155.201-1.6758.337-2.5022.191-1.1609.455-2.3081.888-3.2453 1.331-2.8844 3.003-4.6072 4.632-5.6595 1.623-1.0494 3.175-1.4126 4.224-1.6215.013-.0026.026-.0047.04-.0062 4.003-.471 6.974.3181 9.142 1.9682 2.158 1.6429 3.454 4.0887 4.219 6.8052 1.432 5.093 1.041 11.3279.776 15.5601-.017.2641-.033.5205-.048.7682-.017.2757-.254.4859-.529.4689-.276-.017-.486-.2541-.469-.5297.015-.2389.03-.4846.046-.7367.266-4.2632.645-10.3387-.739-15.26-.73-2.5952-1.937-4.8151-3.862-6.2803-1.912-1.4554-4.599-2.2165-8.4-1.7731-1.006.2011-2.402.5362-3.858 1.4768-1.46.9435-3.009 2.516-4.266 5.2386-.375.8128-.622 1.8531-.809 2.989-.133.8035-.232 1.6282-.329 2.4351-.04.3348-.08.6665-.121.9924-.14 1.0883-.301 2.1251-.578 2.8947-.261.7263-.72 1.461-1.584 1.479-.555.0637-1.055-.0213-1.49-.2503-.44-.2311-.779-.5907-1.037-1.0175-.507-.8391-.738-1.9977-.813-3.2109-.152-2.4408.314-5.3671.826-7.1585 1.023-3.579 4.117-9.929 12.1-11.3926 4.398-.8063 8.063-.4373 11.048.8755 2.988 1.3137 5.252 3.5542 6.879 6.4165z" fill="#22222a"/><path d="m134.83 101.526c.277.005.497.232.493.508-.037 2.312-.009 5.871.02 9.604.004.571.008 1.147.013 1.723.032 4.329.053 8.673-.034 11.359-.122 3.812-.053 8.102.456 11.868.491 3.635 1.776 6.016 4.038 8.956 3.834 4.983 8.642 6.723 14.128 8.094 5.294 1.324 10.033-1.165 14.02-3.618.235-.145.543-.072.688.164.144.235.071.543-.164.687-3.981 2.45-9.049 5.172-14.787 3.737-5.546-1.386-10.632-3.196-14.678-8.454-2.328-3.026-3.714-5.569-4.236-9.432-.52-3.843-.587-8.195-.464-12.034.085-2.662.065-6.983.033-11.319-.005-.576-.009-1.151-.013-1.723-.029-3.73-.057-7.303-.02-9.628.004-.276.231-.496.507-.492z" fill="#22222a"/><path d="m131.512 99.3812c.276.0043.497.2316.492.5077-.036 2.3121-.008 5.8711.02 9.6031.005.572.009 1.148.013 1.724.032 4.329.053 8.673-.033 11.359-.122 3.811-.053 8.102.456 11.868l-.496.067.496-.067.007.058-.495.067.495-.067c.252 1.863.562 4.141 2.256 6.822 1.7 2.689 4.821 5.824 10.771 9.304.239.139.319.446.18.684-.14.238-.446.319-.684.179-6.04-3.532-9.301-6.767-11.112-9.633-1.814-2.869-2.146-5.327-2.401-7.214l-.001-.008-.007-.058c-.52-3.843-.588-8.195-.464-12.035.085-2.661.064-6.983.032-11.319-.004-.575-.008-1.15-.013-1.722-.028-3.73-.056-7.303-.02-9.6277.005-.2761.232-.4964.508-.4921z" fill="#22222a"/><path d="m130.459 100.169c.18-.21.495-.2343.705-.055 1.53 1.311 2.195 1.837 3.294 2.706.437.345.942.744 1.596 1.267.216.173.251.488.078.703-.172.216-.487.251-.702.078-.646-.516-1.148-.913-1.583-1.257-1.107-.874-1.788-1.413-3.334-2.737-.209-.18-.234-.496-.054-.705z" fill="#22222a"/><path d="m176.352 97.3741c.115-.2509.412-.361.663-.2457 3.095 1.421 6.169 2.9306 9.209 4.4506.247.124.347.424.223.671-.123.247-.424.347-.671.224-3.036-1.519-6.099-3.0228-9.178-4.4369-.251-.1152-.361-.412-.246-.663z" fill="#22222a"/><path d="m185.274 100.469c.013.276-.199.511-.475.524-8.413.421-16.156 1.02-23.804 1.612-.703.054-1.404.109-2.106.163-8.335.643-16.617 1.256-25.58 1.597-.276.01-.508-.205-.518-.481-.011-.276.204-.508.48-.519 8.942-.339 17.207-.951 25.542-1.594.701-.054 1.403-.109 2.106-.163 7.646-.592 15.403-1.192 23.83-1.6133.276-.0138.511.1983.525.4743z" fill="#22222a"/><path d="m180.064 97.7116c.013.2758-.199.5104-.475.5238-1.81.0885-2.373.1103-2.936.1408-.556.0303-1.113.0691-2.877.1898-.275.0189-.514-.1892-.533-.4647s.189-.5141.465-.5329c1.772-.1213 2.332-.1604 2.893-.1908.566-.0307 1.132-.0526 2.939-.141.276-.0135.51.1992.524.475zm-11.033.6689c.02.2754-.186.5152-.462.5356-3.358.2488-6.702.5124-10.038.7754-9.861.7775-19.65 1.5485-29.512 1.9155-.276.01-.508-.205-.519-.481-.01-.276.206-.508.481-.519 9.84-.365 19.6-1.1344 29.454-1.9112 3.341-.2633 6.692-.5274 10.06-.777.276-.0204.515.1863.536.4617z" fill="#22222a"/><path d="m174.853 98.923c.233.1483.302.4573.154.6903-.374.5867-1.121.9167-1.777 1.1047-.686.196-1.422.278-1.942.276-1.18-.004-2.643-.08-3.667-1.242-.183-.2072-.163-.5232.044-.7057.208-.1826.524-.1626.706.0446.699.7939 1.721.8987 2.921.9031.431.0016 1.073-.0693 1.663-.2379.62-.1772 1.045-.424 1.208-.6797.148-.233.457-.3016.69-.1534z" fill="#22222a"/><path d="m152.444 121.139c.276 0 .5.224.5.5v15.323c0 .276-.224.5-.5.5-.277 0-.5-.224-.5-.5v-15.323c0-.276.223-.5.5-.5z" fill="#22222a"/><path d="m165.553 120.22c.276.005.496.232.491.508-.038 2.294-.038 4.787-.038 7.247v.003c0 2.457 0 4.881-.038 7.031-.005.276-.233.496-.509.491s-.496-.233-.491-.509c.038-2.14.038-4.556.038-7.016v-.003c0-2.457 0-4.958.039-7.26.004-.277.232-.497.508-.492z" fill="#22222a"/><path d="m168.569 120.74c.032.274-.165.522-.44.553-2.439.278-4.867.495-7.288.711-3.526.316-7.037.63-10.549 1.126-.274.039-.527-.151-.565-.425-.039-.273.151-.526.425-.565 3.522-.498 7.094-.818 10.651-1.137 2.418-.216 4.829-.432 7.213-.703.275-.031.522.166.553.44z" fill="#22222a"/><path d="m166.996 133.938c.035.274-.16.524-.434.558-2.665.335-6.633.868-9.987 1.319-2.322.311-4.349.584-5.447.723-.274.035-.525-.158-.559-.432-.035-.274.158-.525.432-.56 1.072-.136 3.09-.407 5.407-.718 3.371-.453 7.377-.991 10.03-1.324.274-.035.524.16.558.434z" fill="#22222a"/><path d="m162.593 131.082c.032.275-.165.523-.44.554-.98.112-1.797.205-2.527.287-2.571.291-4.071.461-7.887.938-.274.034-.524-.16-.558-.434s.16-.524.434-.558c3.822-.478 5.327-.648 7.9-.94.73-.082 1.546-.175 2.525-.287.274-.031.522.166.553.44z" fill="#22222a"/><path d="m161.029 120.526c.276.003.498.229.495.505-.025 2.557-.017 4.774-.009 7.102.005 1.207.009 2.443.009 3.772 0 .276-.224.5-.5.5s-.5-.224-.5-.5c0-1.321-.004-2.554-.009-3.76-.008-2.332-.016-4.561.009-7.124.003-.276.229-.497.505-.495z" fill="#22222a"/><path d="m160.068 130.249c.139-.239.445-.32.683-.181.269.156.667.471 1.096.829.361.301.77.654 1.185 1.012.09.078.181.156.272.234.508.438 1.012.869 1.448 1.219.45.361.784.6.966.688.248.12.352.419.232.668-.12.248-.42.352-.668.232-.3-.145-.719-.458-1.156-.808-.451-.362-.967-.804-1.475-1.241-.092-.08-.184-.159-.275-.238-.414-.357-.815-.703-1.169-.998-.443-.369-.775-.626-.958-.733-.239-.139-.32-.445-.181-.683z" fill="#22222a"/><path d="m182.875 98.7682c.276 0 .5.2239.5.5 0 2.2298.016 4.3708.031 6.4578.069 9.143.13 17.26-1.201 27.317-.036.274-.287.467-.561.431-.274-.037-.466-.288-.43-.562 1.321-9.982 1.26-18.021 1.192-27.157-.015-2.092-.031-4.242-.031-6.4868 0-.2761.223-.5.5-.5z" fill="#22222a"/><path d="m131.361 135.037c.18-.209.496-.233.705-.053l3.721 3.198c.209.18.233.496.053.705-.18.21-.496.233-.705.053l-3.721-3.198c-.209-.18-.233-.495-.053-.705zm1.221 5.127c.18-.21.495-.234.705-.054l4.5 3.869c.209.18.233.495.053.705-.18.209-.496.233-.705.053l-4.5-3.868c-.21-.18-.233-.496-.053-.705z" fill="#000"/><path d="m131.082 122.975c.18-.209.495-.233.705-.053l3.5 3.009c.209.18.233.495.053.705-.18.209-.496.233-.705.053l-3.5-3.009c-.21-.18-.234-.495-.053-.705zm.17 3.949c.178-.082.386-.052.535.075l3.5 3.009c.209.18.233.495.053.705-.18.209-.496.233-.705.053l-2.674-2.298v2.248l3.326 2.859c.209.18.233.496.053.706-.18.209-.496.233-.705.053l-3.5-3.009c-.111-.095-.174-.233-.174-.379v-3.568c0-.195.113-.372.291-.454z" fill="#000"/><path d="m131.082 111.193c.18-.21.495-.233.705-.053l3 2.578c.209.18.233.496.053.706-.18.209-.496.233-.705.053l-3-2.579c-.21-.18-.234-.496-.053-.705zm-.002 4.166c.179-.21.495-.235.705-.056.441.375.938.783 1.438 1.193l.068.055c.52.427 1.043.855 1.496 1.245.209.18.233.495.053.705-.18.209-.496.233-.705.053-.443-.38-.956-.801-1.478-1.23-.024-.019-.047-.038-.07-.057-.498-.408-1.002-.821-1.451-1.203-.21-.179-.235-.495-.056-.705zm.002 3.479c.18-.21.495-.233.705-.053l3 2.578c.209.18.233.496.053.705-.18.21-.496.234-.705.054l-3-2.579c-.21-.18-.234-.496-.053-.705zm21.004 14.479c.181-.205.493-.227.701-.049.512.441.781.697 1.044.948l1.005.914c.203.184.22.496.039.701s-.494.227-.701.048c-.5-.43-.765-.682-1.025-.93l-1.025-.931c-.202-.184-.219-.497-.038-.701zm2.535-1.642c.179-.21.495-.234.704-.054l1.759 1.507.003.003c.602.515 1.203 1.03 1.739 1.49.209.18.233.495.053.705-.179.209-.495.233-.704.054-.535-.46-1.136-.975-1.739-1.491-.001-.001-.003-.002-.004-.003l-.004-.003c-.604-.518-1.211-1.037-1.754-1.504-.209-.18-.233-.495-.053-.704z" fill="#000"/><path d="m130.818 103.76c.18-.21.496-.235.705-.055 1.176 1.006 2.414 2.061 3.697 3.15.21.178.236.494.057.704-.178.211-.494.237-.704.058-1.284-1.09-2.523-2.145-3.7-3.152-.21-.18-.234-.496-.055-.705zm2.75-2.225c.18-.209.496-.233.706-.053l3 2.579c.209.18.233.495.053.705-.18.209-.496.233-.705.053l-3-2.579c-.21-.18-.234-.496-.054-.705zm-2.796 5.471c.18-.209.495-.233.705-.053l3.697 3.178c.21.18.234.496.054.705-.18.21-.496.234-.706.054l-3.697-3.179c-.21-.18-.233-.496-.053-.705zm29.736 16.168c.18-.209.496-.233.705-.053l4.34 3.73c.209.18.233.496.053.706-.18.209-.496.233-.705.053l-4.34-3.731c-.209-.18-.233-.496-.053-.705zm.113 4c.18-.209.495-.233.705-.053l4.34 3.73c.209.18.233.496.053.706-.18.209-.496.233-.705.053l-4.34-3.731c-.209-.18-.233-.496-.053-.705zm-2.475 3.972c.196-.195.512-.195.707 0l3 3c.196.196.196.512 0 .707-.195.196-.511.196-.707 0l-3-3c-.195-.195-.195-.511 0-.707z" fill="#000"/><path d="m136.622 100.17c.181-.209.497-.2313.706-.05l3.864 3.352c.209.181.231.497.05.706-.181.208-.497.231-.705.05l-3.865-3.353c-.208-.181-.231-.497-.05-.705zm4.499.001c.18-.209.496-.2329.705-.053.532.458 1.04.968 1.531 1.461l.002.003c.497.499.975.979 1.467 1.402.209.18.233.496.053.705s-.496.233-.705.053c-.522-.449-1.025-.953-1.512-1.443l-.012-.012c-.496-.499-.977-.982-1.476-1.411-.209-.18-.233-.495-.053-.705zm4.512-.5109c.183-.1971.489-.2145.693-.0392.479.4111 1.017.9821 1.529 1.5261l.011.012h.001l1.487 1.487c.19.191.195.497.013.694-.183.197-.489.214-.693.039-.474-.407-1.008-.975-1.519-1.517l-.006-.006-1.503-1.502c-.19-.19-.195-.4968-.013-.6939z" fill="#000"/><path d="m150.121 99.4491c.18-.2094.496-.2332.705-.0532l3.5 3.0081c.209.18.233.496.053.706-.18.209-.496.233-.705.053l-3.5-3.009c-.209-.1798-.233-.4955-.053-.7049zm3.5-.559c.18-.2094.496-.2333.705-.0532l3.5 3.0081c.209.18.233.496.053.706-.18.209-.495.233-.705.053l-3.5-3.0088c-.209-.18-.233-.4957-.053-.7051zm4.743 0c.18-.2094.496-.2333.705-.0532l3.013 2.5901c.209.18.233.495.053.705-.18.209-.496.233-.705.053l-3.013-2.5898c-.209-.18-.233-.4957-.053-.7051z" fill="#000"/><path d="m163.691 98.6741c.18-.2094.496-.2332.705-.0532l2.909 2.5001c.209.18.233.496.053.705s-.496.233-.705.053l-2.908-2.4998c-.21-.18-.234-.4957-.054-.7051zm3.569-.5c.18-.2094.496-.2332.705-.0532l2.908 2.5001c.21.18.234.496.054.705s-.496.233-.705.053l-2.909-2.4998c-.209-.18-.233-.4957-.053-.7051zm5.907 1c.18-.2094.495-.2332.705-.0532l1.745 1.5001c.209.18.233.496.053.705s-.496.233-.705.053l-1.745-1.4998c-.21-.18-.233-.4957-.053-.7051z" fill="#000"/><path d="m176.121 97.5368c.18-.2094.496-.2333.705-.0533l3 2.5785c.209.18.233.496.053.705-.18.21-.495.234-.705.054l-3-2.5791c-.209-.18-.233-.4957-.053-.7051z" fill="#000"/><path d="m168.013 134.462c.171-.216.486-.253.702-.082 1.539 1.215 3.015 2.478 4.467 3.79.029.026.058.053.087.079.72.651 1.424 1.287 2.169 1.875.216.171.253.486.082.703-.171.216-.485.253-.702.082-.772-.609-1.498-1.266-2.212-1.911-.031-.029-.063-.058-.095-.086-1.438-1.3-2.897-2.548-4.415-3.747-.217-.172-.254-.486-.083-.703z" fill="#22222a"/><path d="m180.977 132.618c.211-.178.527-.152.705.059.921 1.09 2.147 1.937 3.394 2.798.268.185.537.371.804.559 1.162.822 2.35 1.601 3.565 2.345.235.145.309.452.165.688-.145.235-.453.309-.688.165-1.232-.755-2.438-1.546-3.619-2.381-.245-.173-.499-.348-.758-.527-1.25-.861-2.611-1.799-3.627-3.001-.178-.211-.152-.527.059-.705z" fill="#22222a"/><path d="m167.635 148.228c.163-.224.476-.272.699-.11 1.376 1.005 2.625 2.122 3.843 3.237l.465.426c1.062.974 2.109 1.935 3.226 2.829.215.172.25.487.078.702-.173.216-.487.251-.703.078-1.145-.916-2.219-1.901-3.279-2.874-.154-.142-.308-.283-.462-.424-1.217-1.112-2.43-2.197-3.758-3.166-.223-.163-.272-.475-.109-.698z" fill="#22222a"/><path d="m174.992 139.102c.276.003.497.23.493.506-.044 3.397-.13 6.98-.212 10.447-.041 1.691-.08 3.354-.114 4.954-.006.276-.234.495-.511.489-.276-.006-.495-.234-.489-.51.034-1.606.074-3.272.114-4.964.083-3.464.168-7.037.212-10.429.004-.276.231-.497.507-.493z" fill="#22222a"/><path d="m168.764 133.722c.276.004.497.231.493.507-.045 3.397-.13 6.98-.212 10.447-.041 1.69-.08 3.353-.114 4.953-.006.276-.234.495-.511.49-.276-.006-.495-.235-.489-.511.034-1.606.074-3.271.114-4.963.083-3.464.168-7.038.212-10.429.004-.277.231-.497.507-.494z" fill="#22222a"/><path d="m188.32 136.656c.276.003.497.23.493.506-.027 2.071-.07 4.21-.117 6.349-.007.276-.235.495-.511.489s-.495-.235-.489-.511c.047-2.138.09-4.273.117-6.34.004-.276.23-.497.507-.493z" fill="#22222a"/><path d="m179.49 153.402c.054.271-.121.534-.392.588-1.111.223-1.915.352-2.635.469-.096.015-.192.031-.286.046-.792.129-1.519.254-2.523.493-.268.063-.538-.103-.602-.371-.063-.269.103-.539.371-.602 1.037-.247 1.791-.377 2.594-.507.095-.016.191-.031.287-.047.719-.116 1.506-.243 2.598-.461.271-.054.534.121.588.392z" fill="#22222a"/><path d="m190.716 137.811c.043.272-.143.528-.415.572-.697.11-1.368.217-2.019.321-5.265.84-9.229 1.472-15.116 2.126-.274.031-.521-.167-.552-.441-.03-.275.167-.522.442-.553 5.862-.651 9.804-1.28 15.069-2.119.651-.104 1.322-.211 2.019-.322.273-.043.529.143.572.416z" fill="#22222a"/><path d="m184.607 133.428c.034.274-.161.523-.435.557-4.142.51-7.179.78-10.686 1.091-1.659.147-3.424.304-5.46.499-.275.027-.52-.174-.546-.449s.175-.52.45-.546c2.052-.197 3.823-.354 5.485-.502 3.497-.31 6.51-.578 10.635-1.085.274-.034.524.161.557.435z" fill="#22222a"/><path d="m191.232 153.636c.165-.222.478-.269.7-.104 1.787 1.324 3.502 2.701 5.189 4.131.034.029.068.058.102.087.836.71 1.656 1.405 2.524 2.048.222.165.269.478.105.7-.165.221-.478.268-.7.104-.895-.664-1.738-1.378-2.568-2.083-.037-.031-.073-.062-.11-.093-1.673-1.419-3.371-2.781-5.138-4.091-.221-.164-.268-.478-.104-.699z" fill="#22222a"/><path d="m205.665 151.628c.206-.184.522-.168.706.037 1.078 1.196 2.513 2.126 3.964 3.066.311.201.622.403.931.608 1.353.898 2.735 1.748 4.149 2.561.239.137.322.443.184.682-.137.24-.443.322-.682.185-1.431-.823-2.832-1.684-4.204-2.595-.286-.19-.582-.381-.884-.576-1.453-.94-3.025-1.957-4.2-3.261-.185-.206-.169-.522.036-.707z" fill="#22222a"/><path d="m190.795 168.651c.156-.228.468-.286.695-.13 1.597 1.093 3.046 2.31 4.462 3.525.181.155.361.31.541.465 1.234 1.063 2.454 2.113 3.755 3.089.22.166.265.479.099.7-.165.221-.479.266-.7.1-1.329-.998-2.576-2.072-3.809-3.133-.179-.154-.358-.308-.537-.462-1.414-1.214-2.828-2.4-4.376-3.459-.227-.156-.286-.467-.13-.695z" fill="#22222a"/><path d="m199.292 158.703c.276 0 .497.223.493.499-.052 3.705-.151 7.614-.247 11.396-.047 1.845-.093 3.659-.132 5.404-.006.276-.236.498-.512.495-.277-.002-.496-.227-.49-.503.04-1.752.086-3.569.133-5.415.096-3.779.195-7.677.247-11.377.004-.276.231-.499.508-.499z" fill="#22222a"/><path d="m192.097 150.769c.277 0 .498.223.494.499-.059 4.161-.17 8.55-.278 12.797-.053 2.071-.104 4.108-.148 6.069-.007.275-.236.497-.512.495-.277-.003-.496-.228-.49-.504.045-1.966.096-4.007.149-6.079.108-4.244.219-8.622.277-12.778.004-.275.231-.499.508-.499z" fill="#22222a"/><path d="m214.787 156.034c.277 0 .498.224.494.499-.023 1.628-.055 3.294-.092 4.971-.006.276-.235.497-.511.495-.277-.002-.496-.227-.49-.503.037-1.675.068-3.338.091-4.963.004-.275.232-.499.508-.499z" fill="#22222a"/><path d="m204.642 174.22c.026.275-.175.519-.45.546-.728.07-1.453.13-2.175.189-1.668.136-3.318.271-4.935.538-.273.045-.53-.139-.575-.411-.045-.273.139-.53.411-.575 1.66-.275 3.377-.415 5.064-.553.712-.058 1.419-.116 2.114-.183.275-.027.519.174.546.449z" fill="#22222a"/><path d="m217.495 157.889c.026.275-.176.518-.451.544-.815.077-1.6.151-2.362.223-6.163.584-10.8 1.023-17.67 1.364-.275.014-.51-.198-.524-.474-.013-.276.199-.511.475-.524 6.846-.341 11.462-.778 17.625-1.361.762-.072 1.547-.147 2.363-.223.275-.026.519.176.544.451z" fill="#22222a"/><path d="m210.391 152.476c.032.274-.165.522-.439.554-4.814.556-8.343.85-12.419 1.189-1.929.161-3.982.332-6.351.546-.275.024-.518-.178-.543-.453s.178-.519.453-.543c2.384-.215 4.443-.387 6.375-.548 4.067-.338 7.572-.63 12.37-1.184.275-.032.523.165.554.439z" fill="#22222a"/><path d="m217.598 172.702c.165-.222.478-.268.7-.104 1.984 1.471 3.889 3 5.762 4.589.038.032.076.064.114.096.929.789 1.842 1.562 2.808 2.278.222.165.268.478.104.7-.164.221-.478.268-.699.104-.994-.736-1.929-1.529-2.851-2.312-.041-.035-.082-.069-.123-.104-1.859-1.577-3.746-3.092-5.711-4.547-.222-.165-.268-.478-.104-.7z" fill="#22222a"/><path d="m215.587 189.718c.156-.228.468-.287.695-.131 1.771 1.213 3.38 2.563 4.953 3.914.201.172.401.344.6.516 1.372 1.181 2.729 2.349 4.176 3.435.22.166.265.479.099.7-.165.221-.479.265-.7.1-1.476-1.108-2.859-2.299-4.229-3.479-.199-.171-.398-.342-.597-.513-1.572-1.349-3.144-2.668-4.867-3.847-.227-.156-.286-.468-.13-.695z" fill="#22222a"/><path d="m225.323 177.503c.277 0 .498.223.494.499-.058 4.117-.168 8.459-.275 12.662-.052 2.049-.103 4.065-.147 6.005-.006.275-.235.497-.512.495-.276-.003-.495-.228-.489-.504.044-1.946.095-3.965.147-6.015.107-4.199.216-8.531.274-12.643.004-.276.232-.499.508-.499z" fill="#22222a"/><path d="m217.277 170.982c.277 0 .498.224.494.499-.058 4.117-.168 8.46-.275 12.662-.052 2.049-.103 4.065-.147 6.005-.006.276-.235.497-.512.495-.276-.002-.495-.228-.489-.503.044-1.946.095-3.965.147-6.016.107-4.199.217-8.531.275-12.642.003-.276.231-.5.507-.5z" fill="#22222a"/><path d="m241.277 175.501c.277 0 .498.223.494.499-.058 4.117-.168 8.459-.275 12.662-.052 2.049-.103 4.065-.147 6.005-.006.275-.235.497-.512.495-.276-.003-.495-.228-.489-.504.044-1.946.095-3.965.147-6.015.107-4.199.217-8.531.274-12.643.004-.276.232-.499.508-.499z" fill="#22222a"/><path d="m242.729 194.152c.049.272-.131.532-.402.582-4.071.746-8.153 1.394-12.262 1.93-.864.113-1.517.182-2.089.243-1.231.13-2.088.221-3.867.618-.27.06-.537-.11-.597-.379-.06-.27.11-.537.379-.597 1.836-.409 2.762-.508 4.021-.642.569-.06 1.205-.128 2.023-.235 4.092-.533 8.157-1.178 12.212-1.922.271-.049.532.13.582.402z" fill="#22222a"/><path d="m246.657 176.391c.035.274-.158.525-.432.56-.903.115-1.772.227-2.615.335-6.822.878-11.954 1.539-19.569 2.175-.275.023-.516-.182-.539-.457s.181-.517.456-.54c7.592-.634 12.703-1.292 19.525-2.169.843-.109 1.712-.221 2.615-.336.274-.035.524.158.559.432z" fill="#22222a"/><path d="m237.602 170.535c.032.275-.165.523-.439.554-5.349.618-9.268.944-13.796 1.321-2.144.179-4.425.369-7.059.606-.275.025-.518-.178-.543-.453s.178-.518.453-.542c2.649-.239 4.936-.43 7.082-.609 4.52-.376 8.415-.7 13.748-1.316.274-.032.522.165.554.439z" fill="#22222a"/><path d="m178.232 143.636c.165-.222.478-.269.7-.104 1.787 1.324 3.502 2.701 5.189 4.131.034.029.068.058.102.087.836.71 1.656 1.405 2.524 2.048.222.165.269.478.105.7-.165.221-.478.268-.7.104-.895-.664-1.738-1.378-2.568-2.083-.037-.031-.073-.062-.11-.093-1.673-1.419-3.371-2.781-5.138-4.091-.221-.164-.268-.478-.104-.699z" fill="#22222a"/><path d="m192.665 141.628c.206-.184.522-.168.706.037 1.078 1.196 2.513 2.126 3.964 3.066.311.201.622.403.931.608 1.353.898 2.735 1.748 4.149 2.561.239.137.322.443.184.682-.137.24-.443.322-.682.185-1.431-.823-2.832-1.684-4.204-2.595-.286-.19-.582-.381-.884-.576-1.453-.94-3.025-1.957-4.2-3.261-.185-.206-.169-.522.036-.707z" fill="#22222a"/><path d="m177.795 158.651c.156-.228.468-.286.695-.13 1.597 1.093 3.046 2.31 4.462 3.525.181.155.361.31.541.465 1.234 1.063 2.454 2.113 3.755 3.089.22.166.265.479.099.7-.165.221-.479.266-.7.1-1.329-.998-2.576-2.072-3.809-3.133-.179-.154-.358-.308-.537-.462-1.414-1.214-2.828-2.4-4.376-3.459-.227-.156-.286-.467-.13-.695z" fill="#22222a"/><path d="m186.292 148.703c.276 0 .497.223.493.499-.052 3.705-.151 7.614-.247 11.396-.047 1.845-.093 3.659-.132 5.404-.006.276-.236.498-.512.495-.277-.002-.496-.227-.49-.503.04-1.752.086-3.569.133-5.415.096-3.779.195-7.677.247-11.377.004-.276.231-.499.508-.499z" fill="#22222a"/><path d="m179.097 140.769c.277 0 .498.223.494.499-.059 4.161-.17 8.55-.278 12.797-.053 2.071-.104 4.108-.148 6.069-.007.275-.236.497-.512.495-.277-.003-.496-.228-.49-.504.045-1.966.096-4.007.149-6.079.108-4.244.219-8.622.277-12.778.004-.275.231-.499.508-.499z" fill="#22222a"/><path d="m201.787 146.034c.277 0 .498.224.494.499-.004.279-.008.583-.013.905-.024 1.742-.055 4.007-.09 5.566-.006.276-.235.497-.512.495-.276-.002-.495-.227-.489-.503.035-1.555.066-3.814.09-5.557.004-.322.008-.626.012-.906.004-.275.232-.499.508-.499z" fill="#22222a"/><path d="m191.998 163.955c.025.275-.178.518-.453.543-2.786.253-3.725.403-5.797.732-.483.077-1.027.164-1.671.264-.273.042-.529-.144-.571-.417-.043-.273.144-.529.417-.571.639-.099 1.181-.186 1.663-.262 2.081-.332 3.048-.485 5.869-.742.275-.025.518.178.543.453z" fill="#22222a"/><path d="m204.495 147.889c.026.275-.176.518-.451.544-.815.077-1.6.151-2.362.223-6.163.584-10.8 1.023-17.67 1.364-.275.014-.51-.198-.524-.474-.013-.276.199-.511.475-.524 6.846-.341 11.462-.778 17.625-1.361.762-.072 1.547-.147 2.363-.223.275-.026.519.176.544.451z" fill="#22222a"/><path d="m197.391 142.476c.032.274-.165.522-.439.554-4.814.556-8.343.85-12.419 1.189-1.929.161-3.982.332-6.351.546-.275.024-.518-.178-.543-.453s.178-.519.453-.543c2.384-.215 4.443-.387 6.375-.548 4.067-.338 7.572-.63 12.37-1.184.275-.032.523.165.554.439z" fill="#22222a"/><path d="m204.598 162.702c.165-.222.478-.268.7-.104 1.984 1.471 3.889 3 5.762 4.589.038.032.076.064.114.096.929.789 1.842 1.562 2.808 2.278.222.165.268.478.104.7-.164.221-.478.268-.699.104-.994-.736-1.929-1.529-2.851-2.312-.041-.035-.082-.069-.123-.104-1.859-1.577-3.746-3.092-5.711-4.547-.222-.165-.268-.478-.104-.7z" fill="#22222a"/><path d="m202.587 179.718c.156-.228.468-.287.695-.131 1.771 1.213 3.38 2.563 4.953 3.914.201.172.401.344.6.516 1.372 1.181 2.729 2.349 4.176 3.435.22.166.265.479.099.7-.165.221-.479.265-.7.1-1.476-1.108-2.859-2.299-4.229-3.479-.199-.171-.398-.342-.597-.513-1.572-1.349-3.144-2.668-4.867-3.847-.227-.156-.286-.468-.13-.695z" fill="#22222a"/><path d="m212.323 167.503c.277 0 .498.223.494.499-.058 4.117-.168 8.459-.275 12.662-.052 2.049-.103 4.065-.147 6.005-.006.275-.235.497-.512.495-.276-.003-.495-.228-.489-.504.044-1.946.095-3.965.147-6.015.107-4.199.216-8.531.274-12.643.004-.276.232-.499.508-.499z" fill="#22222a"/><path d="m204.277 160.982c.277 0 .498.224.494.499-.058 4.117-.168 8.46-.275 12.662-.052 2.049-.103 4.065-.147 6.005-.006.276-.235.497-.512.495-.276-.002-.495-.228-.489-.503.044-1.946.095-3.965.147-6.016.107-4.199.217-8.531.275-12.642.003-.276.231-.5.507-.5z" fill="#22222a"/><path d="m227.731 164.501c.276 0 .497.223.493.499-.01.742-.003 1.702.003 2.692.001.087.002.174.002.261.008 1.077.013 2.168-.005 3.014-.006.275-.235.497-.511.495-.277-.002-.496-.227-.49-.503.018-.828.012-1.905.005-2.985-.001-.088-.002-.176-.002-.264-.007-.986-.014-1.957-.003-2.71.004-.276.231-.499.508-.499z" fill="#22222a"/><path d="m217.485 185.879c.067.268-.096.539-.364.606-1.563.391-2.243.484-4.056.732-.544.075-1.191.163-1.994.278-.274.039-.527-.151-.566-.424-.039-.274.151-.527.424-.566.824-.118 1.48-.207 2.027-.282 1.792-.246 2.415-.331 3.923-.708.268-.067.539.096.606.364z" fill="#22222a"/><path d="m233.657 166.391c.035.274-.158.525-.432.56-.903.115-1.772.227-2.615.335-6.822.878-11.954 1.539-19.569 2.175-.275.023-.516-.182-.539-.457s.181-.517.456-.54c7.592-.634 12.703-1.292 19.525-2.169.843-.109 1.712-.221 2.615-.336.274-.035.524.158.559.432z" fill="#22222a"/><path d="m224.602 160.535c.032.275-.165.523-.439.554-5.349.618-9.268.944-13.796 1.321-2.144.179-4.425.369-7.059.606-.275.025-.518-.178-.543-.453s.178-.518.453-.542c2.649-.239 4.936-.43 7.082-.609 4.52-.376 8.415-.7 13.748-1.316.274-.032.522.165.554.439z" fill="#22222a"/><path d="m218.612 160.497c.174-.214.489-.247.703-.072l8 6.499c.215.175.247.489.073.704-.174.214-.489.247-.703.073l-8-6.5c-.215-.174-.247-.489-.073-.704zm12.995 10.507c.17-.217.484-.255.702-.085l9.864 7.742c.218.17.255.484.085.702-.17.217-.485.255-.702.084l-9.865-7.741c-.217-.171-.255-.485-.084-.702z" fill="#000"/><path d="m186.624 138.016c.267.069.428.341.359.609l-1.26 4.891c-.069.268-.342.429-.609.36-.268-.069-.428-.342-.36-.609l1.261-4.892c.069-.267.342-.428.609-.359zm-3.239.5c.268.069.428.341.36.609l-1.261 4.891c-.069.268-.342.429-.609.36s-.428-.342-.359-.609l1.26-4.892c.069-.267.342-.428.609-.359zm-3.322.5c.268.069.429.341.36.609l-3.608 14c-.069.267-.342.428-.609.359s-.428-.341-.359-.609l3.607-14c.069-.267.342-.428.609-.359zm-2.794 0c.268.069.429.341.36.609l-2.319 9c-.069.267-.342.428-.609.359-.268-.069-.429-.341-.36-.609l2.32-9c.068-.267.341-.428.608-.359z" fill="#000"/><path d="m190.066 148.516c.267.069.428.341.359.609l-3.994 15.5c-.069.267-.341.428-.609.359-.267-.069-.428-.341-.359-.609l3.994-15.5c.069-.267.342-.428.609-.359zm-2.682.5c.267.069.428.341.359.609l-1.03 4c-.069.267-.342.428-.609.359-.268-.069-.429-.341-.36-.609l1.031-4c.069-.267.342-.428.609-.359z" fill="#000"/><path d="m199.317 148.421c.268.069.429.341.36.609l-1.184 4.595c-.069.267-.342.428-.609.359-.268-.069-.429-.341-.36-.609l1.184-4.595c.069-.267.342-.428.609-.359zm-3.193 0c.268.069.429.341.36.609l-1.313 5.095c-.069.267-.342.428-.609.359-.268-.069-.429-.341-.36-.609l1.313-5.095c.069-.267.342-.428.609-.359zm-3 .302c.268.068.429.341.36.609l-3.941 15.293c-.069.267-.342.428-.609.359-.268-.069-.429-.341-.36-.609l3.941-15.293c.069-.267.342-.428.609-.359z" fill="#000"/><path d="m206.625 158.483c.267.069.428.341.359.609l-4.003 15.533c-.069.267-.341.428-.609.359-.267-.069-.428-.341-.359-.609l4.003-15.533c.069-.267.341-.428.609-.359zm-3.496.534c.267.071.425.345.354.612l-4 15c-.071.267-.345.425-.612.354s-.425-.345-.354-.612l4-15c.071-.267.345-.425.612-.354zm-2.631-.001c.268.069.429.341.36.609l-1.031 4c-.069.267-.342.428-.609.359s-.428-.341-.359-.609l1.03-4c.069-.267.342-.428.609-.359z" fill="#000"/><path d="m212.652 158.016c.267.069.428.341.359.609l-.773 3c-.069.267-.341.428-.609.359-.267-.069-.428-.341-.359-.609l.773-3c.069-.267.342-.428.609-.359zm-2.923.5c.268.069.429.341.36.609l-.773 3c-.069.267-.342.428-.609.359-.268-.069-.429-.341-.36-.609l.773-3c.069-.267.342-.428.609-.359z" fill="#000"/><path d="m222.407 167.478c.267.069.428.341.359.609l-1.041 4.038c-.069.267-.341.428-.609.359-.267-.069-.428-.341-.359-.609l1.041-4.038c.068-.267.341-.428.609-.359zm-3.283.346c.268.069.429.341.36.609l-4.688 18.192c-.069.267-.342.428-.609.359-.268-.069-.429-.341-.36-.609l4.688-18.192c.069-.267.342-.428.609-.359zm-3.487.692c.267.069.428.341.359.609l-2.963 11.5c-.069.267-.342.428-.609.359s-.428-.341-.359-.609l2.963-11.5c.069-.267.342-.428.609-.359z" fill="#000"/><path d="m225.364 167.516c.267.069.428.341.359.609l-.902 3.5c-.069.267-.341.428-.609.359-.267-.069-.428-.341-.359-.609l.902-3.5c.069-.267.341-.428.609-.359zm3.761 10.577c.267.068.428.341.359.609l-3.761 14.594c-.069.268-.341.429-.609.36-.267-.069-.428-.342-.359-.609l3.761-14.595c.069-.267.341-.428.609-.359z" fill="#000"/><path d="m238.531 177.516c.267.069.428.341.359.609l-4.509 17.5c-.069.267-.342.428-.609.359-.268-.069-.429-.341-.36-.609l4.51-17.5c.069-.267.342-.428.609-.359zm-3.193 0c.267.069.428.341.359.609l-4.767 18.5c-.069.267-.342.428-.609.359s-.428-.341-.359-.609l4.767-18.5c.069-.267.342-.428.609-.359zm-3.052.5c.268.069.428.341.36.609l-4.639 18c-.069.267-.342.428-.609.359s-.428-.341-.359-.609l4.638-18c.069-.267.342-.428.609-.359z" fill="#000"/><path d="m241.158 178.016c.267.069.428.341.359.609l-4.252 16.5c-.069.267-.342.428-.609.359s-.428-.341-.359-.609l4.252-16.5c.069-.267.341-.428.609-.359zm0 10.841c.267.069.428.342.359.609l-1.329 5.159c-.069.267-.342.428-.609.359-.268-.069-.429-.341-.36-.609l1.33-5.158c.069-.268.341-.429.609-.36z" fill="#000"/><path d="m219.214 180.109c.262-.087.546.054.633.316.952 2.859 1.811 5.733 2.664 8.615.078.265-.073.543-.338.622-.264.078-.543-.073-.621-.338-.853-2.882-1.708-5.742-2.654-8.583-.087-.262.054-.545.316-.632z" fill="#0278d5"/><path d="m223.742 184.069-5.386 1.983c-.26.095-.537-.041-.621-.304s.059-.554.318-.649l5.386-1.983c.259-.095.537.041.621.304.083.263-.059.554-.318.649z" fill="#0278d5"/><path d="m217.223 181.607c.186-.204.502-.218.706-.031 1.885 1.727 4.729 4.173 6.458 5.571.215.173.248.488.074.703-.173.214-.488.248-.703.074-1.745-1.411-4.605-3.87-6.505-5.611-.203-.186-.217-.503-.03-.706z" fill="#0278d5"/><path d="m221.86 179.599c.269.059.44.326.381.595-.154.703-.304 1.429-.455 2.163-.487 2.362-.992 4.813-1.732 6.883-.093.26-.379.395-.639.302-.26-.092-.395-.379-.302-.639.714-1.997 1.198-4.348 1.682-6.694.154-.747.308-1.494.469-2.229.059-.27.326-.44.596-.381z" fill="#0278d5"/><path d="m205.824 170.257c.255-.107.548.012.655.267 1.169 2.777 2.246 5.576 3.318 8.385.098.258-.031.547-.289.645-.258.099-.547-.031-.645-.289-1.072-2.808-2.144-5.593-3.306-8.353-.107-.255.013-.548.267-.655z" fill="#0278d5"/><path d="m210.643 173.858-5.218 2.39c-.251.115-.539.001-.642-.255-.104-.256.016-.557.267-.672l5.218-2.39c.251-.115.538-.001.642.255s-.016.557-.267.672z" fill="#0278d5"/><path d="m203.954 171.903c.17-.217.484-.255.702-.085 2.012 1.578 5.035 3.798 6.866 5.059.228.156.285.468.128.695-.156.227-.467.285-.695.128-1.848-1.273-4.889-3.505-6.916-5.095-.218-.17-.256-.484-.085-.702z" fill="#0278d5"/><path d="m208.424 169.545c.274.038.464.291.426.564-.1.713-.193 1.448-.287 2.192-.304 2.392-.619 4.875-1.198 6.995-.073.267-.348.424-.614.351-.267-.073-.424-.348-.351-.614.559-2.046.861-4.427 1.163-6.803.096-.757.192-1.514.297-2.259.038-.274.291-.464.564-.426z" fill="#0278d5"/><path d="m194.108 160.04c.264-.081.544.067.625.33.776 2.515 1.471 5.041 2.159 7.573.073.267-.084.541-.351.614-.266.072-.541-.085-.614-.351-.688-2.533-1.379-5.044-2.149-7.541-.082-.264.066-.543.33-.625z" fill="#0278d5"/><path d="m198.022 163.706-4.739 1.626c-.261.09-.536-.052-.614-.317-.077-.265.071-.553.333-.642l4.739-1.626c.261-.09.536.052.614.317.077.265-.071.553-.333.642z" fill="#0278d5"/><path d="m192.314 161.326c.191-.2.507-.207.706-.016 1.611 1.544 4.046 3.732 5.526 4.985.211.178.237.494.059.705-.178.21-.494.237-.705.058-1.496-1.266-3.946-3.468-5.571-5.026-.2-.191-.207-.507-.015-.706z" fill="#0278d5"/><path d="m196.462 159.645c.268.065.433.336.368.604-.148.608-.292 1.238-.438 1.875-.471 2.053-.96 4.189-1.648 5.985-.099.258-.388.387-.646.289-.258-.099-.387-.388-.288-.646.66-1.725 1.127-3.761 1.594-5.798.149-.65.298-1.301.454-1.941.065-.268.335-.433.604-.368z" fill="#0278d5"/><path d="m180.672 150.207c.254-.108.548.011.655.266 1.024 2.424 1.968 4.868 2.906 7.319.099.258-.03.547-.288.645-.258.099-.547-.03-.646-.288-.938-2.45-1.876-4.88-2.893-7.287-.107-.255.012-.548.266-.655z" fill="#0278d5"/><path d="m184.931 153.463-4.553 2.092c-.251.115-.539.001-.643-.255-.103-.256.016-.557.267-.672l4.553-2.092c.251-.115.538-.001.642.255.104.255-.015.556-.266.672z" fill="#0278d5"/><path d="m179.015 151.665c.17-.217.485-.256.702-.086 1.757 1.375 4.398 3.309 5.997 4.407.227.156.285.468.129.695-.156.228-.468.286-.695.129-1.616-1.11-4.274-3.056-6.047-4.443-.217-.17-.256-.484-.086-.702z" fill="#0278d5"/><path d="m182.975 149.578c.273.038.464.291.426.564-.086.62-.167 1.261-.248 1.91-.263 2.089-.536 4.263-1.041 6.12-.072.266-.347.424-.614.351-.266-.072-.423-.347-.351-.613.484-1.782.745-3.855 1.006-5.929.084-.662.167-1.324.258-1.976.038-.274.29-.465.564-.427z" fill="#0278d5"/><path d="m170.511 139.916c.272-.051.533.128.584.399.469 2.488.858 4.977 1.24 7.472.042.273-.145.528-.418.57s-.528-.146-.57-.419c-.383-2.494-.77-4.969-1.235-7.438-.051-.271.128-.533.399-.584z" fill="#0278d5"/><path d="m173.858 143.882-4.705 1.039c-.27.059-.527-.113-.574-.385s.133-.541.403-.6l4.705-1.039c.27-.059.527.113.574.385s-.133.541-.403.6z" fill="#0278d5"/><path d="m168.648 140.954c.212-.177.528-.148.704.064 1.371 1.65 3.459 4.006 4.738 5.363.189.201.18.518-.021.707s-.518.18-.707-.021c-1.293-1.373-3.395-3.744-4.779-5.409-.176-.213-.147-.528.065-.704z" fill="#0278d5"/><path d="m172.813 139.795c.26.096.393.383.298.642-.207.565-.413 1.15-.622 1.743-.673 1.911-1.374 3.9-2.227 5.544-.127.245-.429.34-.674.213s-.341-.429-.213-.674c.817-1.575 1.484-3.468 2.152-5.364.213-.605.426-1.211.645-1.806.095-.259.382-.393.641-.298z" fill="#0278d5"/></g><path d="m331.5 233-163 10.5-14.5-108 8-4.5v-8l162 50z" fill="url(#d)" fill-opacity=".1"/><path d="m98.0003 27.9998c.8-6.4 7.6667-9 11.9997-8.5 1.334-4.5 2.9-12.39996 14.5-13.99996 14.5-2 16.5 6.99996 16.5 6.99996 7.5-3.99995 10.5-2.99996 17 5 6.5 8.0001-2.5 23-10 23-2 0-37.5 1.5-42 0s-8.9997-4.5-7.9997-12.5z" fill="#fff"/><path clip-rule="evenodd" d="m127.163 39.9139c.276 0 .5.2239.5.5v33.1162.3982c.001 2.7122.002 5.5748-.482 7.852-.254 1.1986-.652 2.282-1.291 3.1096-.65.8433-1.538 1.4034-2.713 1.5547-9.671 1.2456-18.951 1.2459-27.4271 1.2459-1.2509.1016-2.0212.4316-2.5277 1.2208-.5465.8514-.849 2.3245-.849 4.9025v7.0372c0 .276-.2239.5-.5.5-.2762 0-.5-.224-.5-.5v-7.0372c0-2.5953.2923-4.3285 1.0074-5.4427.7525-1.1724 1.9054-1.568 3.31-1.679.0131-.001.0262-.0016.0394-.0016 8.488 0 17.714-.0006 27.319-1.2377.898-.1156 1.552-.5289 2.05-1.1737.509-.6605.865-1.5798 1.104-2.7067.462-2.1706.461-4.937.46-7.6938 0-.1162 0-.2324 0-.3485v-33.1162c0-.2761.224-.5.5-.5z" fill="#b0b1c4" fill-rule="evenodd"/><path clip-rule="evenodd" d="m113.15 41.087c.276 0 .5.2239.5.5 0 2.3501.036 4.0109.068 5.4526.053 2.3822.092 4.1662-.069 7.4733-.069 1.4071-.962 2.3629-2.148 2.9469-1.174.5781-2.691.8277-4.197.8404-6.757.0566-12.3467.0389-18.2975.02-3.1148-.0098-6.3287-.02-9.8609-.02-1.9667 0-4.2797-.0063-6.5544-.0124-4.4309-.012-8.7169-.0236-10.0161.0122-1.1884.0327-1.875.422-2.2998.972-.4458.5771-.6637 1.4071-.7407 2.4301-.0739.9812-.0147 2.0669.0452 3.1646.0022.0413.0045.0826.0067.1239.0609 1.1188.1183 2.2579 0 3.2194-.0338.2741-.2833.469-.5574.4352-.274-.0337-.4689-.2832-.4352-.5573.1055-.857.0561-1.9028-.0059-3.043-.0027-.0496-.0054-.0993-.0081-.1492-.0589-1.0763-.1214-2.2208-.0425-3.2687.0822-1.0916.322-2.1579.9465-2.9663.6455-.8356 1.6419-1.3212 3.0637-1.3603 1.3144-.0362 5.6369-.0245 10.0836-.0125 2.2665.0061 4.5653.0123 6.5144.0123 3.539 0 6.7557.0102 9.8715.0201 5.947.0188 11.5269.0365 18.2789-.0201 1.422-.0119 2.773-.25 3.763-.7375.978-.4816 1.546-1.1693 1.591-2.0985.16-3.2774.122-5.0103.069-7.3618-.032-1.4406-.069-3.1132-.069-5.5154 0-.2761.224-.5.5-.5z" fill="#b0b1c4" fill-rule="evenodd"/><path clip-rule="evenodd" d="m143.168 39.5001c.276 0 .5.2239.5.5v14.8729c.164 1.3755.472 2.3069.903 2.9479.422.6299.987 1.0167 1.747 1.2571.778.2463 1.752.3363 2.974.3592.711.0133 1.478.004 2.32-.0061.614-.0074 1.268-.0153 1.969-.0153h51.446c1.599 0 3.036-.0458 4.324-.087.414-.0132.812-.0259 1.195-.0364 1.562-.043 2.896-.051 3.96.1058 1.064.1566 1.955.4905 2.535 1.2136.577.718.764 1.7154.678 3.0007 0 3.0828-.037 5.2018-.065 6.8252-.04 2.3181-.063 3.6256.063 5.2854.021.2753-.185.5155-.46.5365-.276.0209-.516-.1853-.537-.4607-.129-1.7007-.106-3.0712-.065-5.4455.028-1.6331.064-3.741.064-6.758 0-.0115 0-.023.001-.0344.082-1.1901-.109-1.8887-.458-2.3231-.348-.4326-.935-.7081-1.902-.8504-.965-.1422-2.214-.1387-3.787-.0955-.376.0104-.769.0229-1.179.036-1.291.0412-2.751.0878-4.367.0878h-51.446c-.671 0-1.316.0077-1.93.015-.86.0102-1.658.0196-2.378.0062-1.241-.0232-2.335-.1137-3.257-.4056-.94-.2977-1.708-.8067-2.276-1.6532-.557-.831-.897-1.9482-1.069-3.4177-.002-.0193-.003-.0387-.003-.0581v-14.9023c0-.2761.224-.5.5-.5z" fill="#b0b1c4" fill-rule="evenodd"/><path clip-rule="evenodd" d="m113.831 44.8281c.432.3076.772.7963.905 1.2783.149.5425.061 1.1167-.215 1.5619-.281.4532-.771.7872-1.393.7723-.433-.0103-.789-.1702-1.031-.4742-.092-.1156-.159-.2423-.208-.3724-.21-.0594-.364-.2523-.364-.4811 0-.0905-.004-.1904-.01-.3105-.003-.0534-.005-.1109-.008-.1733-.008-.1899-.013-.4094.002-.6275.028-.3975.134-.9824.641-1.2927.608-.3729 1.24-.1945 1.681.1192zm-.922.6734c-.001.0093-.002.0185-.003.0278-.013.0881-.028.1785-.042.2704-.062.3866-.127.7977-.098 1.1533.018.2127.067.3316.114.3911.029.0367.087.0924.271.0968.217.0052.397-.1019.52-.2996.127-.2058.177-.4925.101-.7698-.071-.2556-.272-.5519-.521-.7284-.128-.0912-.241-.135-.342-.1416z" fill="#b0b1c4" fill-rule="evenodd"/><path clip-rule="evenodd" d="m127.762 46.2288c.819.3268 1.547 1.3714 1.234 2.5124-.19.6893-.561 1.1807-1.039 1.4403-.477.2584-1.015.26-1.462.0492-.449-.2117-.793-.6315-.895-1.1796-.077-.4159-.011-.8748.209-1.3488.06-.5444.24-.9797.556-1.2649.424-.3816.963-.382 1.397-.2086zm-1.18 2.3226c-.019.1237-.015.2297.001.317.043.229.177.3819.338.4578.163.0768.366.081.559-.0237.191-.1034.418-.3407.551-.8264.16-.582-.225-1.1532-.64-1.3185-.181-.0727-.289-.0382-.357.023-.029.0268-.066.071-.101.1394.069.1513.061.3335-.037.4825-.04.0605-.076.119-.107.1758-.003.0535-.004.1102-.004.1704 0 .1652-.08.3116-.203.4027z" fill="#b0b1c4" fill-rule="evenodd"/><path clip-rule="evenodd" d="m93.2545 98.8515c.1544.3469.2215.7735.1228 1.2165-.1166.522-.3515.935-.7008 1.168-.3653.245-.7993.25-1.1525.045-.6158-.358-.8033-1.17-.4952-2.0154.0376-.4159.1503-.7668.3699-1.0104.1487-.165.3413-.273.5598-.3029.2117-.029.4096.0203.5736.1009.3197.1574.5722.4606.7224.7983zm-1.2382.6366c.0174-.0374.0366-.0761.0579-.1161.0669-.1253.075-.2664.0339-.3915.0026-.0057.0051-.0108.0076-.0155.0626.0412.1552.1356.2252.293.0761.171.1078.3792.0604.5919-.0828.3711-.2168.5121-.2805.5551-.0479.032-.0712.025-.0943.011-.0327-.019-.1718-.161-.1442-.4687.0818-.0891.1318-.2079.1318-.3384 0-.0424.0008-.0826.0022-.1208z" fill="#b0b1c4" fill-rule="evenodd"/><path clip-rule="evenodd" d="m143.465 44.5472c.873.2443 1.413 1.2135 1.133 2.3736-.103.4281-.359.9535-.755 1.271-.207.166-.483.2979-.809.2807-.329-.0174-.621-.1818-.867-.436-.363-.3751-.419-.8552-.381-1.265-.256-.0626-.421-.315-.373-.5771.116-.6194.381-1.0973.765-1.3921.389-.2984.859-.3751 1.287-.2551zm-.291.9575c-.004.0403-.012.0807-.026.1206-.027.0746-.055.1505-.084.2275-.098.2637-.201.5402-.255.8226-.072.3734-.02.5662.077.6657.122.1269.191.1323.201.1328.013.0007.055-.0014.131-.0621.169-.1357.337-.4341.408-.7258.181-.7514-.183-1.1065-.43-1.1758-.007-.002-.015-.0038-.022-.0055z" fill="#b0b1c4" fill-rule="evenodd"/><path clip-rule="evenodd" d="m60.6564 65.6099c.0934.2197.1725.4738.1772.6961.0093.4427-.1113.8827-.3765 1.2236-.2731.3512-.6852.5749-1.184.5749-.3799 0-.7341-.1216-.9529-.4377-.1586-.2291-.1961-.4931-.1923-.7197-.0193-.0532-.0298-.1107-.0298-.1705 0-.0781-.0038-.1681-.0085-.2788-.0022-.0514-.0046-.1073-.0069-.1685-.0067-.1812-.0114-.392.0001-.6027.0114-.208.0397-.4378.1089-.6519.0688-.2129.1913-.4506.4189-.6197.3288-.2444.6959-.2354.9972-.0972.2694.1236.4864.3458.6463.5553.1658.2172.3038.4653.4023.6968zm-1.1728-.0573c-.0015.0405-.008.0816-.0199.1224-.0289.0988-.0639.2061-.098.3104l-.004.0122c-.0336.1029-.0671.2054-.0987.3093-.0669.2202-.1156.417-.1307.5787-.0115.1235.0011.1824.0075.2034.0189.0067.0586.0155.1333.0155.1773 0 .3029-.0709.3947-.1889.0998-.1283.1714-.3322.166-.5884-.0007-.0338-.0227-.1496-.0977-.3259-.0647-.1521-.1532-.3123-.2525-.4487zm-.3583 1.5287c.0004-.0003.0033.001.0074.0048-.0057-.0026-.0078-.0045-.0074-.0048z" fill="#b0b1c4" fill-rule="evenodd"/><path clip-rule="evenodd" d="m218.584 75.6081c-.18.2545-.442.4392-.774.5284-.316.0848-.622.091-.903.0013-.283-.0905-.502-.2659-.662-.478-.306-.4063-.404-.9548-.404-1.4321 0-.5597.047-1.1084.394-1.4833.108-.1167.233-.2042.37-.2697.012-.0133.023-.0263.035-.0389.226-.2389.529-.3366.84-.2638.1.0234.193.0625.278.1113.198.0264.361.1697.415.36.14.1674.263.3657.363.5739.224.4608.376 1.0473.327 1.5854-.025.2734-.104.5588-.279.8055zm-1.313-2.2951c.042-.0066.089-.0126.143-.0178.074.0903.152.2118.222.3578.168.3466.26.7494.231 1.0588-.013.1503-.053.2531-.099.3187-.041.0578-.103.1094-.217.1402-.172.0462-.278.0341-.34.0144-.059-.0189-.114-.0563-.167-.1267-.12-.1587-.203-.4542-.203-.8307 0-.1361.004-.2494.011-.3437.174-.0452.318-.1833.362-.3707.019-.0814.039-.1473.057-.2003z" fill="#b0b1c4" fill-rule="evenodd"/><path d="m187 75h63v18h-63z" fill="#fff"/><path clip-rule="evenodd" d="m249 76h-61v16h61zm-62-1v18h63v-18z" fill="#b0b1c4" fill-rule="evenodd"/><path clip-rule="evenodd" d="m199.715 78.7154c.276-.0073.506.2105.513.4866.079 3.1264-.005 6.2345-.103 9.3436-.009.276-.24.4929-.516.4844-.276-.0084-.492-.239-.484-.515.099-3.1093.182-6.1917.103-9.2866-.007-.2761.211-.5058.487-.513z" fill="#0278d5" fill-rule="evenodd"/><path clip-rule="evenodd" d="m205.178 84.1083-10.028.0801c-.277.0022-.501-.2199-.501-.496-.001-.2762.223-.5018.499-.504l10.029-.08c.276-.0022.5.2198.501.496 0 .2761-.223.5017-.5.5039z" fill="#0278d5" fill-rule="evenodd"/><path clip-rule="evenodd" d="m195.694 79.5689c.2-.1908.517-.1836.707.016 2.233 2.3382 5.688 5.7089 7.836 7.6719.203.1862.217.5025.031.7064s-.503.2182-.706.032c-2.164-1.9781-5.636-5.3646-7.884-7.7193-.191-.1997-.184-.5161.016-.707z" fill="#0278d5" fill-rule="evenodd"/><path clip-rule="evenodd" d="m204.314 79.1969c.196.1943.197.5109.003.7071-.63.635-1.264 1.2935-1.904 1.9594-2.057 2.138-4.187 4.3524-6.507 6.1134-.22.1671-.533.1243-.7-.0956s-.124-.5335.096-.7006c2.252-1.7092 4.305-3.8435 6.35-5.969.651-.676 1.3-1.3511 1.955-2.0114.194-.1962.511-.1977.707-.0033z" fill="#0278d5" fill-rule="evenodd"/><path clip-rule="evenodd" d="m212.064 78.6798c.276-.0073.506.2106.513.4866.079 3.1265-.005 6.2345-.103 9.3437-.009.276-.24.4929-.516.4844s-.492-.2391-.484-.5151c.099-3.1092.182-6.1916.103-9.2866-.007-.276.211-.5057.487-.513z" fill="#0278d5" fill-rule="evenodd"/><path clip-rule="evenodd" d="m217.527 84.0728-10.028.08c-.277.0022-.501-.2198-.501-.496-.001-.2761.223-.5017.499-.5039l10.029-.0801c.276-.0022.5.2199.501.496 0 .2762-.223.5018-.5.504z" fill="#0278d5" fill-rule="evenodd"/><path clip-rule="evenodd" d="m208.043 79.5334c.2-.1908.517-.1837.707.0159 2.233 2.3383 5.688 5.709 7.836 7.672.203.1862.217.5025.031.7063-.186.2039-.503.2183-.706.032-2.164-1.978-5.636-5.3645-7.884-7.7193-.191-.1996-.184-.5161.016-.7069z" fill="#0278d5" fill-rule="evenodd"/><path clip-rule="evenodd" d="m216.663 79.1614c.196.1943.197.5109.003.707-.63.6351-1.264 1.2936-1.904 1.9595-2.057 2.138-4.187 4.3523-6.507 6.1134-.22.167-.533.1242-.7-.0956-.167-.2199-.124-.5336.096-.7006 2.252-1.7093 4.305-3.8435 6.35-5.969.651-.676 1.3-1.3511 1.955-2.0114.194-.1962.511-.1977.707-.0033z" fill="#0278d5" fill-rule="evenodd"/><path clip-rule="evenodd" d="m224.055 78.711c.276-.0073.505.2105.512.4866.08 3.1265-.004 6.2345-.103 9.3436-.008.276-.239.4929-.515.4844-.276-.0084-.493-.239-.484-.515.098-3.1093.181-6.1917.102-9.2866-.007-.2761.212-.5058.488-.513z" fill="#0278d5" fill-rule="evenodd"/><path clip-rule="evenodd" d="m229.518 84.1039-10.029.0801c-.276.0022-.5-.2199-.501-.496 0-.2762.223-.5018.499-.504l10.029-.08c.276-.0022.501.2198.501.496 0 .2761-.223.5017-.499.5039z" fill="#0278d5" fill-rule="evenodd"/><path clip-rule="evenodd" d="m220.034 79.5645c.199-.1908.516-.1836.707.016 2.233 2.3382 5.688 5.7089 7.835 7.6719.204.1862.218.5025.031.7064-.186.2039-.502.2182-.706.032-2.164-1.9781-5.635-5.3646-7.884-7.7193-.191-.1996-.183-.5161.017-.707z" fill="#0278d5" fill-rule="evenodd"/><path clip-rule="evenodd" d="m228.654 79.1925c.196.1943.197.5109.002.7071-.63.6351-1.263 1.2935-1.904 1.9594-2.056 2.1381-4.187 4.3524-6.506 6.1134-.22.1671-.534.1243-.701-.0956-.166-.2199-.123-.5335.097-.7006 2.251-1.7092 4.304-3.8435 6.35-5.969.65-.676 1.3-1.3511 1.954-2.0114.195-.1962.512-.1977.708-.0033z" fill="#0278d5" fill-rule="evenodd"/><path clip-rule="evenodd" d="m235.246 78.7246c.276-.0073.506.2105.513.4866.079 3.1265-.005 6.2345-.103 9.3436-.009.276-.24.4929-.516.4844-.276-.0084-.492-.239-.484-.515.099-3.1093.182-6.1917.103-9.2866-.007-.2761.211-.5057.487-.513z" fill="#0278d5" fill-rule="evenodd"/><path clip-rule="evenodd" d="m240.709 84.1175-10.028.0801c-.277.0022-.501-.2199-.501-.496-.001-.2761.223-.5018.499-.504l10.029-.08c.276-.0022.5.2198.501.496 0 .2761-.223.5017-.5.5039z" fill="#0278d5" fill-rule="evenodd"/><path clip-rule="evenodd" d="m231.225 79.5782c.2-.1908.517-.1837.707.0159 2.233 2.3382 5.688 5.7089 7.836 7.6719.204.1862.218.5025.031.7064-.186.2039-.503.2182-.706.032-2.164-1.9781-5.635-5.3646-7.884-7.7193-.191-.1996-.183-.5161.016-.7069z" fill="#0278d5" fill-rule="evenodd"/><path clip-rule="evenodd" d="m239.845 79.2061c.196.1943.197.5109.003.7071-.63.6351-1.264 1.2936-1.904 1.9595-2.057 2.138-4.187 4.3523-6.507 6.1133-.22.1671-.533.1243-.7-.0956-.167-.2198-.124-.5335.096-.7006 2.252-1.7092 4.305-3.8435 6.35-5.969.651-.676 1.3-1.3511 1.955-2.0114.194-.1962.511-.1976.707-.0033z" fill="#0278d5" fill-rule="evenodd"/><path d="m60.0001 100h62.9999v18h-62.9999z" fill="#fff"/><path clip-rule="evenodd" d="m122 101h-60.9999v16h60.9999zm-61.9999-1v18h62.9999v-18z" fill="#b0b1c4" fill-rule="evenodd"/><path clip-rule="evenodd" d="m73.7979 104.228c.2761-.005.5037.215.5083.491.0528 3.128-.0576 6.235-.1825 9.343-.0111.276-.2438.491-.5197.479-.276-.011-.4906-.243-.4795-.519.125-3.109.2341-6.19.1819-9.286-.0047-.276.2154-.504.4915-.508z" fill="#0278d5" fill-rule="evenodd"/><path clip-rule="evenodd" d="m79.2145 109.673-10.0286-.016c-.2762 0-.4985-.224-.4966-.501.0019-.276.2273-.499.5034-.499l10.0287.016c.2761 0 .4985.224.4966.501-.002.276-.2274.499-.5035.499z" fill="#0278d5" fill-rule="evenodd"/><path clip-rule="evenodd" d="m69.7699 105.043c.2014-.189.5179-.179.7068.023 2.2129 2.359 5.6388 5.763 7.7693 7.746.2021.189.2134.505.0253.707-.1882.202-.5046.213-.7067.025-2.1468-1.998-5.5888-5.418-7.8174-7.794-.1889-.202-.1787-.518.0227-.707z" fill="#0278d5" fill-rule="evenodd"/><path clip-rule="evenodd" d="m78.3922 104.753c.1944.196.1928.513-.0034.707-.6352.629-1.2742 1.282-1.9204 1.942-2.0749 2.118-4.2237 4.312-6.5581 6.051-.2215.165-.5347.119-.6997-.102-.1649-.222-.1191-.535.1023-.7 2.2657-1.688 4.3373-3.802 6.4004-5.908.6561-.67 1.3114-1.339 1.9718-1.993.1963-.195.5128-.193.7071.003z" fill="#0278d5" fill-rule="evenodd"/><path clip-rule="evenodd" d="m86.1461 104.31c.2761-.005.5037.216.5084.492.0528 3.127-.0576 6.234-.1826 9.342-.0111.276-.2437.491-.5197.48-.2759-.011-.4906-.244-.4795-.52.125-3.108.2342-6.19.1819-9.286-.0046-.276.2154-.503.4915-.508z" fill="#0278d5" fill-rule="evenodd"/><path clip-rule="evenodd" d="m91.5629 109.755-10.0287-.015c-.2761-.001-.4984-.225-.4965-.501s.2273-.5.5034-.499l10.0287.015c.2761.001.4984.225.4965.501s-.2273.5-.5034.499z" fill="#0278d5" fill-rule="evenodd"/><path clip-rule="evenodd" d="m82.1183 105.125c.2014-.189.5178-.178.7067.023 2.213 2.36 5.6389 5.763 7.7694 7.747.2021.188.2134.504.0253.706-.1882.202-.5046.214-.7067.026-2.1468-1.999-5.5888-5.419-7.8174-7.795-.1889-.201-.1787-.518.0227-.707z" fill="#0278d5" fill-rule="evenodd"/><path clip-rule="evenodd" d="m90.7406 104.836c.1943.196.1928.512-.0034.707-.6352.629-1.2742 1.281-1.9205 1.941-2.0748 2.118-4.2236 4.312-6.558 6.051-.2215.165-.5347.119-.6997-.102s-.1192-.535.1023-.7c2.2657-1.687 4.3373-3.802 6.4003-5.908.6562-.67 1.3115-1.339 1.9719-1.993.1962-.194.5128-.193.7071.004z" fill="#0278d5" fill-rule="evenodd"/><path clip-rule="evenodd" d="m98.5112 103.979c.2761-.005.5038.215.5084.491.0528 3.127-.0576 6.235-.1826 9.343-.0111.276-.2437.49-.5197.479-.2759-.011-.4906-.243-.4795-.519.125-3.109.2342-6.19.182-9.286-.0047-.276.2153-.504.4914-.508z" fill="#0278d5" fill-rule="evenodd"/><path clip-rule="evenodd" d="m103.928 109.424-10.0288-.016c-.2761 0-.4984-.224-.4965-.501.0019-.276.2273-.499.5034-.499l10.0289.016c.276 0 .498.224.496.501-.002.276-.227.499-.503.499z" fill="#0278d5" fill-rule="evenodd"/><path clip-rule="evenodd" d="m94.4834 104.794c.2014-.189.5179-.179.7068.023 2.2129 2.359 5.6388 5.763 7.7698 7.746.202.188.213.505.025.707s-.505.213-.707.025c-2.147-1.999-5.5887-5.418-7.8172-7.794-.189-.202-.1788-.518.0226-.707z" fill="#0278d5" fill-rule="evenodd"/><path clip-rule="evenodd" d="m103.106 104.504c.194.196.192.513-.004.707-.635.629-1.274 1.282-1.92 1.942-2.0751 2.118-4.2239 4.312-6.5583 6.051-.2215.165-.5347.119-.6997-.102-.165-.222-.1192-.535.1023-.7 2.2657-1.688 4.3373-3.803 6.4007-5.909.656-.669 1.311-1.338 1.972-1.992.196-.195.512-.193.707.003z" fill="#0278d5" fill-rule="evenodd"/><path clip-rule="evenodd" d="m111.647 103.678c.276-.005.504.216.508.492.053 3.127-.057 6.234-.182 9.342-.011.276-.244.491-.52.48s-.49-.244-.479-.52c.125-3.108.234-6.19.182-9.285-.005-.277.215-.504.491-.509z" fill="#0278d5" fill-rule="evenodd"/><path clip-rule="evenodd" d="m117.064 109.123-10.029-.015c-.276-.001-.498-.225-.496-.501.001-.276.227-.5.503-.499l10.029.015c.276.001.498.225.496.501s-.227.5-.503.499z" fill="#0278d5" fill-rule="evenodd"/><path clip-rule="evenodd" d="m107.619 104.493c.202-.188.518-.178.707.023 2.213 2.36 5.639 5.763 7.769 7.747.202.188.214.504.026.706-.189.202-.505.214-.707.026-2.147-1.999-5.589-5.419-7.818-7.795-.188-.201-.178-.518.023-.707z" fill="#0278d5" fill-rule="evenodd"/><path clip-rule="evenodd" d="m116.241 104.204c.195.196.193.512-.003.707-.635.629-1.274 1.281-1.92 1.941-2.075 2.118-4.224 4.312-6.558 6.051-.222.165-.535.119-.7-.102s-.119-.535.102-.7c2.266-1.687 4.337-3.802 6.401-5.908.656-.67 1.311-1.339 1.971-1.993.197-.194.513-.193.707.004z" fill="#0278d5" fill-rule="evenodd"/><path d="m28.0001 68h63v18h-63z" fill="#fff"/><path clip-rule="evenodd" d="m90.0001 69h-61v16h61zm-62-1v18h63v-18z" fill="#b0b1c4" fill-rule="evenodd"/><path clip-rule="evenodd" d="m36.5103 72.2122c.276-.0093.5072.2069.5165.4829.1024 3.0422.0458 6.0675-.0251 9.0936-.0065.2761-.2355.4946-.5116.4882-.276-.0065-.4946-.2355-.4881-.5116.0708-3.0263.1267-6.0259.0254-9.0366-.0093-.276.2069-.5072.4829-.5165z" fill="#0278d5" fill-rule="evenodd"/><path clip-rule="evenodd" d="m41.87 77.4484-9.7576.1485c-.2761.0042-.5022-.2162-.5049-.4924-.0027-.2761.2189-.5034.495-.5076l9.7576-.1485c.2761-.0042.5021.2163.5049.4924.0027.2761-.2189.5034-.495.5076z" fill="#0278d5" fill-rule="evenodd"/><path clip-rule="evenodd" d="m32.5957 73.0749c.1983-.1923.5148-.1874.7071.0108 2.1913 2.2594 5.5799 5.5148 7.6849 7.4096.2053.1848.2219.5009.0371.7061-.1847.2053-.5009.2219-.7061.0371-2.1216-1.9097-5.5265-5.1808-7.7338-7.4566-.1922-.1982-.1874-.5147.0108-.707z" fill="#0278d5" fill-rule="evenodd"/><path clip-rule="evenodd" d="m40.9989 72.6521c.1976.193.2014.5095.0085.7071-.6075.6221-1.2183 1.2671-1.8362 1.9194-1.9842 2.0952-4.0402 4.266-6.2839 5.9966-.2187.1687-.5327.1282-.7013-.0905-.1687-.2186-.1281-.5326.0905-.7013 2.176-1.6784 4.156-3.7686 6.1287-5.851.6276-.6626 1.2545-1.3244 1.8867-1.9718.1929-.1976.5095-.2014.707-.0085z" fill="#0278d5" fill-rule="evenodd"/><path clip-rule="evenodd" d="m47.7755 72.0731c.276-.0093.5073.2069.5166.4829.1024 3.0422.0457 6.0675-.0251 9.0936-.0065.2761-.2356.4946-.5116.4882-.2761-.0065-.4946-.2355-.4882-.5116.0709-3.0262.1268-6.0259.0255-9.0366-.0093-.276.2069-.5072.4828-.5165z" fill="#0278d5" fill-rule="evenodd"/><path clip-rule="evenodd" d="m53.1351 77.3093-9.7576.1485c-.2761.0042-.5022-.2162-.5049-.4924-.0027-.2761.2189-.5034.495-.5076l9.7576-.1485c.2761-.0042.5022.2163.5049.4924s-.2189.5034-.495.5076z" fill="#0278d5" fill-rule="evenodd"/><path clip-rule="evenodd" d="m43.861 72.9358c.1982-.1923.5148-.1874.707.0108 2.1914 2.2594 5.58 5.5148 7.685 7.4096.2052.1848.2218.5009.0371.7061-.1848.2053-.5009.2219-.7062.0371-2.1216-1.9097-5.5265-5.1808-7.7337-7.4566-.1923-.1982-.1874-.5147.0108-.707z" fill="#0278d5" fill-rule="evenodd"/><path clip-rule="evenodd" d="m52.2641 72.513c.1976.193.2013.5095.0084.7071-.6074.6221-1.2183 1.2671-1.8361 1.9194-1.9843 2.0952-4.0402 4.266-6.284 5.9967-.2186.1686-.5326.1281-.7013-.0906-.1686-.2186-.1281-.5326.0906-.7013 2.1759-1.6784 4.1559-3.7686 6.1286-5.851.6276-.6626 1.2545-1.3244 1.8867-1.9718.1929-.1976.5095-.2014.7071-.0085z" fill="#0278d5" fill-rule="evenodd"/><path clip-rule="evenodd" d="m59.7913 71.9516c.276-.0093.5072.2069.5165.4829.1024 3.0422.0458 6.0674-.0251 9.0936-.0065.2761-.2355.4946-.5116.4882-.276-.0065-.4946-.2355-.4881-.5116.0708-3.0263.1267-6.0259.0254-9.0366-.0093-.276.2069-.5072.4829-.5165z" fill="#0278d5" fill-rule="evenodd"/><path clip-rule="evenodd" d="m65.151 77.1878-9.7576.1485c-.2761.0042-.5022-.2163-.5049-.4924s.2189-.5034.495-.5076l9.7576-.1485c.2761-.0042.5021.2162.5049.4924.0027.2761-.2189.5034-.495.5076z" fill="#0278d5" fill-rule="evenodd"/><path clip-rule="evenodd" d="m55.8767 72.8143c.1983-.1923.5148-.1874.7071.0108 2.1913 2.2594 5.5799 5.5147 7.6849 7.4096.2053.1847.2219.5009.0371.7061-.1847.2053-.5009.2219-.7061.0371-2.1216-1.9098-5.5265-5.1808-7.7338-7.4566-.1922-.1982-.1874-.5148.0108-.707z" fill="#0278d5" fill-rule="evenodd"/><path clip-rule="evenodd" d="m64.2799 72.3915c.1976.1929.2014.5095.0085.7071-.6075.6221-1.2183 1.2671-1.8362 1.9194-1.9842 2.0951-4.0402 4.2659-6.2839 5.9966-.2187.1687-.5326.1282-.7013-.0905s-.1281-.5326.0905-.7013c2.176-1.6784 4.156-3.7686 6.1287-5.8511.6276-.6625 1.2545-1.3243 1.8867-1.9718.1929-.1975.5095-.2013.707-.0084z" fill="#0278d5" fill-rule="evenodd"/><path clip-rule="evenodd" d="m71.0529 71.9735c.276-.0093.5072.2069.5165.4829.1024 3.0422.0458 6.0675-.0251 9.0937-.0065.276-.2355.4946-.5116.4881-.276-.0064-.4946-.2355-.4881-.5115.0708-3.0263.1267-6.026.0254-9.0366-.0093-.276.2069-.5073.4829-.5166z" fill="#0278d5" fill-rule="evenodd"/><path clip-rule="evenodd" d="m76.4124 77.2097-9.7576.1485c-.2761.0043-.5021-.2162-.5048-.4923-.0028-.2761.2189-.5034.495-.5076l9.7576-.1485c.2761-.0042.5021.2162.5048.4923.0028.2762-.2189.5034-.495.5076z" fill="#0278d5" fill-rule="evenodd"/><path clip-rule="evenodd" d="m67.1383 72.8362c.1983-.1922.5148-.1874.7071.0109 2.1913 2.2593 5.5799 5.5147 7.6849 7.4096.2053.1847.2219.5009.0371.7061-.1847.2052-.5009.2218-.7061.0371-2.1216-1.9098-5.5265-5.1809-7.7338-7.4566-.1922-.1983-.1874-.5148.0108-.7071z" fill="#0278d5" fill-rule="evenodd"/><path clip-rule="evenodd" d="m75.5414 72.4135c.1976.1929.2014.5095.0085.707-.6075.6221-1.2184 1.2672-1.8362 1.9195-1.9842 2.0951-4.0402 4.2659-6.2839 5.9966-.2187.1687-.5327.1281-.7013-.0905-.1687-.2187-.1282-.5327.0905-.7013 2.176-1.6784 4.156-3.7686 6.1287-5.8511.6276-.6625 1.2545-1.3243 1.8867-1.9718.1929-.1976.5094-.2013.707-.0084z" fill="#0278d5" fill-rule="evenodd"/><path clip-rule="evenodd" d="m82.3219 71.6734c.276-.0093.5073.2069.5166.4829.1024 3.0422.0457 6.0675-.0252 9.0937-.0064.276-.2355.4946-.5115.4881-.2761-.0064-.4947-.2355-.4882-.5115.0709-3.0263.1268-6.026.0254-9.0366-.0093-.276.2069-.5073.4829-.5166z" fill="#0278d5" fill-rule="evenodd"/><path clip-rule="evenodd" d="m87.6816 76.9096-9.7576.1485c-.2761.0042-.5021-.2162-.5049-.4923-.0027-.2762.2189-.5034.495-.5076l9.7576-.1485c.2761-.0042.5022.2162.5049.4923.0027.2762-.2189.5034-.495.5076z" fill="#0278d5" fill-rule="evenodd"/><path clip-rule="evenodd" d="m78.4074 72.5361c.1982-.1922.5147-.1874.707.0108 2.1914 2.2594 5.58 5.5148 7.685 7.4097.2052.1847.2218.5008.0371.7061-.1848.2052-.5009.2218-.7062.0371-2.1216-1.9098-5.5265-5.1809-7.7337-7.4566-.1923-.1983-.1874-.5148.0108-.7071z" fill="#0278d5" fill-rule="evenodd"/><path clip-rule="evenodd" d="m86.8106 72.1134c.1976.1929.2013.5095.0084.707-.6074.6221-1.2183 1.2671-1.8361 1.9195-1.9843 2.0951-4.0402 4.2659-6.284 5.9966-.2186.1686-.5326.1281-.7013-.0905-.1686-.2187-.1281-.5327.0906-.7013 2.1759-1.6784 4.1559-3.7686 6.1286-5.8511.6276-.6625 1.2545-1.3243 1.8867-1.9718.193-.1976.5095-.2013.7071-.0084z" fill="#0278d5" fill-rule="evenodd"/><path clip-rule="evenodd" d="m109.152 20.7206c-1.748-.0719-3.572.2566-4.707.8927-2.587 1.4509-4.6189 3.9063-4.7161 7.0497-.113 3.6531 1.0421 7.2955 3.7871 9.4636.016.0126.031.0262.046.0406.449.4544 1.166.848 2.137 1.1725.965.3223 2.142.5639 3.476.7387 2.667.3496 5.901.4251 9.187.3752 3.193-.0485 6.417-.215 9.195-.3584l.232-.0121c2.813-.1451 5.177-.2643 6.515-.1959.275.0141.488.2491.473.5249-.014.2758-.249.4879-.524.4738-1.273-.065-3.57.0493-6.412.1959l-.239.0123c-2.773.1433-6.013.3106-9.225.3593-3.302.0502-6.593-.0244-9.332-.3835-1.37-.1795-2.616-.4319-3.663-.7818-1.028-.3435-1.903-.7936-2.509-1.3953-3.0577-2.4306-4.2624-6.4213-4.1436-10.2607.1112-3.5977 2.4366-6.3263 5.2266-7.891 1.351-.7577 3.38-1.0961 5.237-1.0197.936.0386 1.854.1832 2.647.4479.785.2623 1.492.6578 1.949 1.2295.172.2158.137.5304-.079.7027s-.53.1371-.703-.0787c-.289-.362-.794-.6744-1.484-.905-.683-.2282-1.505-.3616-2.371-.3972z" fill="#b0b1c4" fill-rule="evenodd"/><path clip-rule="evenodd" d="m126.267 5.79787c-4.831.96321-9.382 4.1795-11.944 8.43383-.511.8485-1.934 3.6337-2.419 7.0165-.039.2733-.292.4631-.566.4239-.273-.0391-.463-.2925-.424-.5658.51-3.554 1.996-6.4669 2.553-7.3905 2.705-4.49265 7.495-7.87977 12.604-8.89863 5.133-1.02337 10.601.34466 14.566 5.37883.88 1.1185 1.798 2.7553 2.313 4.1367.096.2588-.036.5467-.294.6431-.259.0965-.547-.0351-.644-.2939-.479-1.2866-1.346-2.832-2.161-3.8672-3.704-4.70428-8.776-5.97552-13.584-5.01683z" fill="#b0b1c4" fill-rule="evenodd"/><path clip-rule="evenodd" d="m157.699 31.8823c7.095-13.4335-5.496-24.06112-14.544-20.6424-.357.1348-1.034.5118-1.721.9545-.69.4442-1.31.9034-1.574 1.18-.191.1996-.508.2066-.707.0158-.2-.1909-.207-.5074-.016-.7069.354-.3706 1.064-.8848 1.755-1.3296.693-.4465 1.446-.8742 1.91-1.0493 9.94-3.75587 23.291 7.8263 15.781 22.045-1.562 2.958-4.064 6.5736-7.979 7.9743-.027.0098-.055.0171-.084.022-4.887.8392-10.848.6988-15.214.596-1.237-.0291-2.345-.0552-3.265-.0552-.276 0-.5-.2238-.5-.5 0-.2761.224-.5.5-.5.96 0 2.099.0267 3.36.0562 4.35.1018 10.136.2372 14.907-.5751 3.519-1.278 5.858-4.5824 7.391-7.4853z" fill="#b0b1c4" fill-rule="evenodd"/></g></svg>