<svg width="357" height="176" viewBox="0 0 357 176" xmlns="http://www.w3.org/2000/svg">
<path fill-rule="evenodd" clip-rule="evenodd" d="M105.702 16.0036C105.889 15.9763 106.064 16.1062 106.091 16.2937C107.718 27.4726 107.322 38.6869 106.926 49.874C106.851 52 106.776 54.125 106.714 56.2486C106.621 59.493 106.642 62.7397 106.663 65.9917C106.673 67.3946 106.682 68.7985 106.682 70.2036C106.682 70.4239 106.708 70.7033 106.738 71.0311C106.741 71.0687 106.745 71.1069 106.748 71.1457C106.782 71.5135 106.816 71.9253 106.814 72.3233C106.811 72.7185 106.772 73.1258 106.644 73.4788C106.514 73.839 106.283 74.1623 105.892 74.3384C105.719 74.4162 105.516 74.3392 105.439 74.1665C105.361 73.9937 105.438 73.7906 105.61 73.7128C105.787 73.6333 105.913 73.4838 105.999 73.2454C106.088 72.9997 106.125 72.6826 106.128 72.3188C106.13 71.958 106.099 71.5764 106.065 71.208C106.061 71.1688 106.058 71.1297 106.054 71.0906C106.025 70.7715 105.996 70.4578 105.996 70.2036C105.996 68.8083 105.987 67.4099 105.977 66.0099C105.956 62.7523 105.935 59.4858 106.029 56.2288C106.09 54.0957 106.165 51.9644 106.241 49.8348C106.636 38.6473 107.03 27.5047 105.412 16.3925C105.385 16.205 105.514 16.0309 105.702 16.0036Z" fill="#B0B1C4"/>
<path fill-rule="evenodd" clip-rule="evenodd" d="M101.126 46.5067C101.273 46.3871 101.489 46.4092 101.609 46.5562C102.554 47.7169 103.272 48.6274 103.902 49.4262C105.435 51.3695 106.446 52.6519 108.935 55.268C109.066 55.4053 109.06 55.6224 108.923 55.753C108.786 55.8836 108.569 55.8782 108.438 55.741C105.926 53.1007 104.893 51.7905 103.351 49.8362C102.723 49.039 102.01 48.1347 101.077 46.9893C100.957 46.8424 100.98 46.6263 101.126 46.5067Z" fill="#B0B1C4"/>
<path fill-rule="evenodd" clip-rule="evenodd" d="M103.156 44.4141C103.289 44.2795 103.507 44.2785 103.641 44.4119C104.74 45.501 105.67 46.4729 106.569 47.4129C108.093 49.0073 109.53 50.5101 111.56 52.3386C111.701 52.4654 111.713 52.6823 111.586 52.8231C111.459 52.9639 111.242 52.9752 111.101 52.8484C109.056 51.0065 107.587 49.47 106.047 47.8604C105.15 46.923 104.23 45.9609 103.158 44.8992C103.024 44.7659 103.023 44.5487 103.156 44.4141Z" fill="#B0B1C4"/>
<path fill-rule="evenodd" clip-rule="evenodd" d="M105.301 7.00262C105.489 6.97942 105.66 7.11305 105.684 7.30108C105.744 7.79143 105.814 8.28177 105.885 8.77374C106.078 10.1254 106.274 11.4893 106.274 12.8996C106.274 13.0891 106.12 13.2427 105.931 13.2427C105.741 13.2427 105.588 13.0891 105.588 12.8996C105.588 11.542 105.402 10.2497 105.211 8.91418C105.139 8.41248 105.067 7.90469 105.003 7.38508C104.979 7.19704 105.113 7.02581 105.301 7.00262Z" fill="#B0B1C4"/>
<path fill-rule="evenodd" clip-rule="evenodd" d="M72.1062 26.9934C72.295 26.9775 72.4609 27.1176 72.4769 27.3064C72.6274 29.0885 73.0746 31.5566 73.5842 34.3696L73.597 34.4406C74.1104 37.2744 74.6823 40.4404 75.0625 43.5541C75.4426 46.6658 75.6337 49.7426 75.3794 52.3978C75.1261 55.0439 74.4252 57.3306 72.966 58.7996C72.7198 59.0474 72.4152 59.1414 72.1008 59.1087C72.0704 59.1055 72.0401 59.1012 72.01 59.0958C72.0565 59.923 72.0798 60.8194 72.0877 61.7582C72.1039 63.6879 72.0544 65.8126 72.0011 67.9087C71.9967 68.0814 71.9923 68.2539 71.9879 68.4261C71.9387 70.3463 71.8906 72.227 71.8906 73.9046V84.9589C71.8906 85.1842 71.8859 85.394 71.8814 85.5915C71.8598 86.5524 71.8447 87.224 72.4108 87.9888C72.5235 88.1411 72.4914 88.3559 72.3391 88.4687C72.1868 88.5814 71.972 88.5493 71.8593 88.397C71.1427 87.4287 71.1679 86.4979 71.1944 85.5224C71.1994 85.3364 71.2045 85.1487 71.2045 84.9589V73.9046C71.2045 72.2177 71.2529 70.3282 71.302 68.4102C71.3064 68.2374 71.3109 68.0644 71.3153 67.8913C71.3686 65.7939 71.4177 63.6803 71.4016 61.764C71.3927 60.6926 71.3633 59.6877 71.3037 58.7853C71.2872 58.774 71.2708 58.7626 71.2545 58.751C70.7343 58.3805 70.2328 57.765 69.8616 57.1244C69.4935 56.4889 69.22 55.7706 69.2149 55.1805C69.2123 54.882 69.2786 54.5738 69.4845 54.337C69.6976 54.0919 70.0093 53.9813 70.3726 53.9813C70.4264 53.9813 70.4795 53.9939 70.5275 54.0182C70.8986 54.2059 71.1544 54.589 71.3406 55.0371C71.5305 55.4942 71.6716 56.0767 71.7777 56.7451C71.8554 57.2353 71.9157 57.7803 71.9616 58.3689C72.0396 58.4013 72.1101 58.4198 72.1719 58.4263C72.2905 58.4386 72.3867 58.4092 72.4792 58.3161C73.7706 57.016 74.4483 54.924 74.6965 52.3324C74.9437 49.75 74.7593 46.7303 74.3815 43.6373C74.004 40.5463 73.4358 37.3994 72.9219 34.5629L72.903 34.4585C72.3983 31.6727 71.9465 29.1791 71.7932 27.3641C71.7773 27.1753 71.9174 27.0094 72.1062 26.9934ZM71.2232 57.8149C71.1883 57.4732 71.1475 57.1516 71.1001 56.8526C70.9979 56.2088 70.8674 55.6863 70.707 55.3003C70.5664 54.9618 70.4191 54.768 70.2842 54.6711C70.1216 54.6855 70.0437 54.7395 70.0022 54.7873C69.9466 54.8512 69.8992 54.9697 69.901 55.1746C69.9046 55.5913 70.1115 56.1871 70.4553 56.7805C70.6796 57.1677 70.9478 57.529 71.2232 57.8149Z" fill="#B0B1C4"/>
<path fill-rule="evenodd" clip-rule="evenodd" d="M69.6441 85.0351C70.9712 84.8759 72.4599 85.1033 73.4537 85.5509C76.068 86.7283 76.7155 89.7991 75.8539 92.1273C75.5007 93.0818 74.5539 93.6506 73.5556 93.8697C72.5517 94.0901 71.4023 93.9812 70.5311 93.4818C70.057 93.2101 69.7408 92.816 69.5422 92.3581C69.5423 92.4012 69.5424 92.4444 69.5425 92.4878C69.543 92.6396 69.5434 92.7933 69.5434 92.949C69.5434 93.1385 69.3898 93.2921 69.2003 93.2921C69.0109 93.2921 68.8573 93.1385 68.8573 92.949C68.8573 92.7904 68.8568 92.6326 68.8562 92.4756C68.8553 92.1919 68.8543 91.9106 68.8565 91.6306C67.3068 90.939 66.0088 89.2192 66.6518 87.0311C67.0282 85.7503 68.3369 85.1919 69.6441 85.0351ZM70.145 86.6749C69.8513 86.8529 69.6191 87.154 69.4661 87.5674C69.0479 88.6976 68.9138 89.7818 68.8726 90.8748C67.69 90.2289 66.8235 88.8803 67.3101 87.2246C67.5648 86.3577 68.4905 85.8645 69.7258 85.7163C69.9912 85.6845 70.2637 85.6698 70.5365 85.6704C70.4228 85.9458 70.2861 86.2882 70.145 86.6749ZM69.966 91.2501C69.9102 90.7218 69.955 90.1201 70.0648 89.495C70.2053 88.6949 70.4468 87.8851 70.6905 87.1875C70.8764 87.1494 71.1067 87.19 71.3568 87.3224C71.6278 87.4661 71.8892 87.702 72.0815 87.9814C72.2746 88.262 72.3822 88.563 72.3822 88.833C72.3822 89.9932 71.9783 90.6522 71.4639 90.9833C71.0532 91.2475 70.5241 91.3342 69.966 91.2501ZM70.1207 91.9574C70.7257 92.0033 71.3273 91.887 71.8352 91.5602C72.5958 91.0708 73.0683 90.1602 73.0683 88.833C73.0683 88.3888 72.8958 87.9544 72.6467 87.5925C72.3969 87.2294 72.0543 86.9155 71.6779 86.7162C71.4524 86.5967 71.2023 86.5124 70.9467 86.4922C71.0656 86.1846 71.1759 85.9176 71.2646 85.7074C71.9838 85.7783 72.6624 85.947 73.1719 86.1764C75.3608 87.1623 75.9873 89.7898 75.2105 91.8892C74.9701 92.5387 74.2853 93.0071 73.4085 93.1996C72.5374 93.3908 71.5683 93.2856 70.8723 92.8866C70.5104 92.6791 70.2677 92.3639 70.1207 91.9574Z" fill="#B0B1C4"/>
<path fill-rule="evenodd" clip-rule="evenodd" d="M54.9921 71.0938C55.1815 71.096 55.3333 71.2514 55.331 71.4409C55.2971 74.2858 55.2124 77.131 55.1278 79.9727C55.0969 81.0118 55.0659 82.0505 55.0375 83.0885C55.0323 83.2779 54.8746 83.4272 54.6852 83.422C54.4958 83.4169 54.3465 83.2591 54.3517 83.0697C54.3802 82.0281 54.4112 80.9872 54.4422 79.9468C54.5267 77.1071 54.6111 74.271 54.645 71.4327C54.6472 71.2433 54.8026 71.0915 54.9921 71.0938Z" fill="#B0B1C4"/>
<path fill-rule="evenodd" clip-rule="evenodd" d="M58.5544 61.6903C58.5644 63.8145 57.7945 66.3342 57.3371 67.4786C56.9766 68.3807 56.0016 68.5192 55.2111 68.3716C55.1117 68.3531 55.0123 68.3298 54.9137 68.3021C54.9089 68.3031 54.904 68.3041 54.8991 68.3051C54.4337 68.3983 54.0151 68.2892 53.6658 68.0298C53.3274 67.7785 53.0679 67.3975 52.8713 66.9598C52.4785 66.085 52.2933 64.8847 52.2939 63.6745C52.2946 62.461 52.4821 61.1975 52.8665 60.1883C53.2428 59.2005 53.8522 58.3482 54.7645 58.1656C56.1419 57.8899 57.1278 58.1774 57.7526 58.9058C58.3521 59.6045 58.5495 60.6342 58.5544 61.6903ZM56.0565 67.7116C56.3723 67.6495 56.5966 67.4827 56.7 67.224C57.1428 66.116 57.8777 63.6909 57.8683 61.6935C57.8636 60.6889 57.6703 59.8635 57.2319 59.3525C56.8189 58.871 56.1198 58.594 54.8991 58.8383C54.3507 58.9481 53.8633 59.4988 53.5077 60.4325C53.1602 61.3447 52.9806 62.5214 52.98 63.6749C52.98 63.7625 52.981 63.8498 52.983 63.9365C53.0249 63.7443 53.0723 63.5534 53.123 63.3655C53.2963 62.7235 53.5167 62.0875 53.7174 61.5095L53.7202 61.5014C53.9223 60.9196 54.1008 60.4054 54.2047 59.9789C54.2496 59.7949 54.4352 59.682 54.6193 59.7269C54.8033 59.7717 54.9162 59.9573 54.8713 60.1414C54.7596 60.5999 54.572 61.1399 54.3767 61.7024L54.3655 61.7346C54.1637 62.3157 53.9513 62.9293 53.7854 63.5443C53.4475 64.7965 53.3348 65.9467 53.7935 66.7732C53.8998 66.9646 54.1068 67.1649 54.3914 67.337C54.5576 67.4376 54.7424 67.5236 54.934 67.5899C55.6537 67.3713 56.0617 66.734 56.291 65.8952C56.5372 64.9946 56.545 63.9646 56.545 63.2647C56.545 62.4668 56.5018 61.9423 56.4231 61.6268C56.3876 61.4844 56.3511 61.4117 56.3281 61.379C56.3237 61.3804 56.3185 61.3822 56.3126 61.3845C56.2862 61.3948 56.2501 61.413 56.2036 61.4433C56.1091 61.5048 55.9924 61.6023 55.8504 61.7411C55.5663 62.0189 55.2213 62.4217 54.8017 62.9257C54.6804 63.0712 54.4641 63.091 54.3185 62.9698C54.1729 62.8486 54.1532 62.6322 54.2744 62.4866C54.6908 61.9865 55.0576 61.5567 55.3708 61.2505C55.5275 61.0973 55.6809 60.9649 55.8292 60.8684C55.9727 60.7749 56.1442 60.6931 56.3312 60.6883C56.5425 60.6829 56.7212 60.7764 56.85 60.9326C56.9664 61.0738 57.0388 61.2603 57.0888 61.4607C57.1894 61.864 57.231 62.4611 57.231 63.2647C57.231 63.9556 57.2267 65.0742 56.9528 66.0762C56.7878 66.6796 56.5133 67.2785 56.0565 67.7116Z" fill="#B0B1C4"/>
<path fill-rule="evenodd" clip-rule="evenodd" d="M53.2281 36.4569C53.4026 36.3831 53.6038 36.4647 53.6776 36.6392C54.4684 38.509 54.9283 41.4054 55.1826 44.5389C55.4379 47.6838 55.4888 51.1077 55.4437 54.0567C55.3985 57.0044 55.2573 59.4881 55.1261 60.7534C55.0935 61.0682 55.0605 61.3178 55.0279 61.4825C55.0133 61.5563 54.993 61.6452 54.9608 61.7151C54.9516 61.7348 54.9363 61.7648 54.9126 61.796C54.8921 61.8229 54.8425 61.8816 54.7557 61.9157C54.6477 61.9582 54.5322 61.9435 54.4419 61.8882C54.3694 61.8439 54.3314 61.7851 54.3156 61.758C54.2829 61.7018 54.2683 61.644 54.2615 61.6142C54.2528 61.5768 54.2462 61.5358 54.2408 61.4942C54.23 61.4106 54.2214 61.3033 54.2146 61.1741C54.201 60.9146 54.1936 60.5454 54.1936 60.0575C54.1936 59.8711 54.3424 59.7194 54.5276 59.7146C54.6284 58.3571 54.7224 56.3476 54.7577 54.0462C54.8026 51.1105 54.7517 47.7101 54.4988 44.5945C54.2449 41.4674 53.7903 38.6669 53.0457 36.9064C52.9719 36.7319 53.0536 36.5307 53.2281 36.4569Z" fill="#B0B1C4"/>
<path fill-rule="evenodd" clip-rule="evenodd" d="M53.4038 33.0156C53.228 33.0457 52.9401 33.1461 52.5009 33.3735C52.3327 33.4607 52.1256 33.3949 52.0385 33.2267C51.9514 33.0584 52.0171 32.8514 52.1853 32.7643C52.6465 32.5255 53.0085 32.3871 53.2882 32.3394C53.55 32.2946 53.8676 32.3123 54.0477 32.5744C54.2069 32.806 54.1483 33.0847 54.0918 33.252C54.027 33.4442 53.9147 33.6389 53.7938 33.8022C53.6811 33.9545 53.4663 33.9866 53.314 33.8738C53.1617 33.7611 53.1296 33.5463 53.2424 33.394C53.3338 33.2705 53.4058 33.1391 53.4418 33.0326C53.4446 33.0241 53.4471 33.0163 53.4493 33.009C53.436 33.0106 53.4209 33.0127 53.4038 33.0156ZM53.5377 33.0089C53.5375 33.0091 53.5352 33.0087 53.5313 33.0071C53.536 33.0079 53.5379 33.0087 53.5377 33.0089Z" fill="#B0B1C4"/>
<path fill-rule="evenodd" clip-rule="evenodd" d="M71.9728 22.8723C71.9648 22.8672 71.9567 22.862 71.9486 22.8567C71.7896 22.7538 71.7442 22.5414 71.8471 22.3823C71.9417 22.2362 72.1288 22.186 72.2819 22.2587C72.3264 22.2376 72.3762 22.2257 72.4288 22.2257C72.4448 22.2257 72.4606 22.2258 72.476 22.2259C72.7433 22.0757 73.0211 22.0793 73.2484 22.1877C73.4743 22.2955 73.6617 22.5177 73.6876 22.7701C73.7019 22.9092 73.6651 23.0797 73.5227 23.2041C73.3892 23.3208 73.2202 23.3461 73.0754 23.3371C72.9568 23.3298 72.8225 23.2979 72.6714 23.2406C72.6375 23.2464 72.6038 23.251 72.5709 23.2542C72.5194 23.2593 72.4635 23.2617 72.408 23.258C72.38 23.2561 72.3491 23.2525 72.3171 23.2457C72.2855 23.2391 72.248 23.2284 72.2089 23.2103C72.17 23.1922 72.1229 23.1637 72.0799 23.1183C72.035 23.0709 71.9993 23.0098 71.9825 22.9378C71.9772 22.9154 71.9741 22.8935 71.9728 22.8723Z" fill="#B0B1C4"/>
<path fill-rule="evenodd" clip-rule="evenodd" d="M53.1332 20.3016C53.3158 20.251 53.5049 20.3579 53.5555 20.5405C54.2183 22.9286 54.1919 25.3302 54.1657 27.7116C54.1606 28.175 54.1555 28.6377 54.1555 29.0993C54.1555 29.2888 54.0019 29.4424 53.8125 29.4424C53.623 29.4424 53.4694 29.2888 53.4694 29.0993C53.4694 28.6219 53.4744 28.1486 53.4794 27.679C53.5046 25.2985 53.5289 23.0099 52.8944 20.7239C52.8438 20.5414 52.9507 20.3523 53.1332 20.3016Z" fill="#B0B1C4"/>
<path fill-rule="evenodd" clip-rule="evenodd" d="M53.5926 15.0082C53.7776 15.0492 53.8943 15.2324 53.8532 15.4174L53.5599 16.7404C53.5188 16.9253 53.3357 17.042 53.1507 17.001C52.9657 16.96 52.849 16.7768 52.89 16.5918L53.1834 15.2689C53.2244 15.0839 53.4076 14.9672 53.5926 15.0082Z" fill="#B0B1C4"/>
<path fill-rule="evenodd" clip-rule="evenodd" d="M72.9772 12.7055C73.1654 12.6835 73.3357 12.8183 73.3577 13.0064C73.5806 14.9165 73.7572 16.7122 73.3529 18.6721C73.3146 18.8576 73.1332 18.977 72.9476 18.9387C72.7621 18.9005 72.6427 18.719 72.681 18.5335C73.0605 16.6934 72.8993 14.9974 72.6762 13.086C72.6542 12.8978 72.789 12.7274 72.9772 12.7055Z" fill="#B0B1C4"/>
<path fill-rule="evenodd" clip-rule="evenodd" d="M74.1892 0C74.3787 0 74.5322 0.153586 74.5322 0.343045C74.5322 1.86608 74.4813 3.36568 74.2345 4.89584C74.2043 5.08288 74.0283 5.21005 73.8412 5.17989C73.6542 5.14972 73.527 4.97364 73.5572 4.7866C73.7953 3.31002 73.8462 1.85293 73.8462 0.343045C73.8462 0.153586 73.9997 0 74.1892 0Z" fill="#B0B1C4"/>
<path fill-rule="evenodd" clip-rule="evenodd" d="M122.856 8.00685C123.042 7.96936 123.223 8.08953 123.26 8.27524C124.264 13.2475 124.11 18.4964 123.961 23.6053C123.907 25.4214 123.855 27.2198 123.855 28.9818V64.3792C123.855 65.1656 123.851 65.9494 123.848 66.731C123.828 71.1013 123.809 75.4023 124.406 79.7082C124.423 79.8257 124.444 79.9623 124.468 80.1126L124.469 80.118C124.492 80.269 124.518 80.4322 124.541 80.5956C124.587 80.9166 124.627 81.2605 124.621 81.5305C124.618 81.661 124.605 81.8088 124.557 81.9352C124.507 82.0655 124.377 82.2643 124.113 82.2664C123.916 82.268 123.754 82.1475 123.647 82.0512C123.524 81.9404 123.388 81.7815 123.236 81.5764C123.123 81.4241 123.155 81.2093 123.308 81.0966C123.46 80.9838 123.675 81.0159 123.787 81.1682C123.841 81.2404 123.889 81.3021 123.932 81.3545C123.924 81.1665 123.897 80.9368 123.862 80.6921C123.839 80.5345 123.815 80.3762 123.791 80.2245L123.789 80.2149C123.766 80.0679 123.744 79.9261 123.727 79.8025C123.122 75.4439 123.142 71.0873 123.162 66.7183C123.165 65.939 123.169 65.1593 123.169 64.3792V28.9818C123.169 27.1745 123.222 25.3478 123.276 23.5152C123.424 18.4302 123.575 13.2995 122.588 8.41099C122.55 8.22527 122.671 8.04433 122.856 8.00685Z" fill="#B0B1C4"/>
<path fill-rule="evenodd" clip-rule="evenodd" d="M125.078 43.3585C125.998 43.8882 126.751 44.7773 126.792 45.785C126.795 45.8586 126.8 45.9477 126.805 46.0496C126.837 46.6568 126.893 47.7195 126.768 48.6823C126.696 49.243 126.558 49.8097 126.293 50.2451C126.018 50.6971 125.591 51.0225 124.981 51.0225C124.202 51.0225 123.622 50.7692 123.216 50.3313C123.206 50.3482 123.193 50.3645 123.18 50.3799C123.053 50.5206 122.836 50.532 122.695 50.4052C122.064 49.8364 121.027 48.3935 120.543 46.9218C120.301 46.184 120.183 45.3973 120.361 44.692C120.546 43.9641 121.036 43.3633 121.916 43.0111C122.955 42.5951 124.151 42.8247 125.078 43.3585ZM122.672 49.3696C122.152 48.723 121.528 47.7211 121.195 46.7075C120.972 46.0289 120.893 45.3867 121.027 44.8604C121.154 44.3567 121.484 43.9231 122.171 43.648C122.961 43.3316 123.934 43.4916 124.735 43.9531C125.544 44.4186 126.079 45.1305 126.107 45.8132C126.11 45.8953 126.115 45.9912 126.121 46.0986C126.152 46.713 126.203 47.7006 126.088 48.5943C126.02 49.1206 125.898 49.5746 125.707 49.888C125.526 50.1848 125.299 50.3364 124.981 50.3364C124.313 50.3364 123.91 50.1106 123.649 49.7829C123.373 49.4373 123.222 48.937 123.157 48.3372C123.093 47.7421 123.118 47.09 123.162 46.4728C123.175 46.2919 123.189 46.1114 123.204 45.936C123.237 45.5299 123.268 45.1511 123.268 44.8583C123.268 44.6689 123.114 44.5153 122.925 44.5153C122.735 44.5153 122.582 44.6689 122.582 44.8583C122.582 45.1222 122.554 45.4547 122.523 45.8432C122.508 46.0251 122.492 46.2192 122.477 46.4243C122.433 47.0498 122.404 47.7522 122.475 48.4107C122.51 48.7372 122.571 49.0634 122.672 49.3696Z" fill="#B0B1C4"/>
<path fill-rule="evenodd" clip-rule="evenodd" d="M127.33 17.7891C127.52 17.7891 127.673 17.9426 127.673 18.1321C127.673 18.4943 127.524 18.8315 127.326 19.127C127.127 19.4243 126.86 19.7068 126.583 19.9659C126.31 20.2221 126.015 20.4662 125.749 20.6859L125.738 20.6953C125.464 20.922 125.229 21.1172 125.059 21.286C122.953 23.3793 120.502 25.3242 118.155 27.1865C117.955 27.3454 117.755 27.5038 117.557 27.6616C117.408 27.7795 117.192 27.7548 117.075 27.6065C116.957 27.4582 116.981 27.2424 117.13 27.1245C117.327 26.9677 117.525 26.8106 117.723 26.6531C120.077 24.7858 122.498 22.8642 124.575 20.7994C124.772 20.6044 125.033 20.3882 125.298 20.1688L125.305 20.1632C125.575 19.9396 125.856 19.7068 126.114 19.4652C126.374 19.2215 126.598 18.9799 126.756 18.745C126.914 18.5083 126.987 18.3051 126.987 18.1321C126.987 17.9426 127.141 17.7891 127.33 17.7891Z" fill="#B0B1C4"/>
<path fill-rule="evenodd" clip-rule="evenodd" d="M119.14 18.7031C119.264 18.5605 119.481 18.5461 119.624 18.6708L129.905 27.6672C130.047 27.7919 130.062 28.0087 129.937 28.1512C129.812 28.2938 129.596 28.3083 129.453 28.1835L119.172 19.1871C119.029 19.0624 119.015 18.8457 119.14 18.7031Z" fill="#B0B1C4"/>
<path d="M355.813 89.35C356.292 107.845 320.874 123.765 276.706 124.908C232.538 126.051 196.345 111.984 195.867 93.4888C195.388 74.9934 230.805 59.0735 274.973 57.9306C319.141 56.7877 355.334 70.8546 355.813 89.35Z" fill="url(#paint0_radial_1204_187864)" fill-opacity="0.2"/>
<path d="M234.072 80.3208L249.552 68.0156H287.012L304.968 80.3208V94.3308L287.012 106.714H251.719L233.453 94.3308L234.072 80.3208Z" fill="white"/>
<path fill-rule="evenodd" clip-rule="evenodd" d="M251.173 67.3835C251.349 67.5958 251.32 67.911 251.108 68.0876C248.195 70.5098 242.965 74.2854 238.523 77.4918C236.448 78.9895 234.545 80.363 233.131 81.4165C232.909 81.5815 232.596 81.5357 232.431 81.3142C232.266 81.0927 232.312 80.7795 232.533 80.6145C233.975 79.5404 235.899 78.1519 237.988 76.6444C242.414 73.4489 247.581 69.7193 250.469 67.3187C250.681 67.1421 250.996 67.1711 251.173 67.3835Z" fill="black"/>
<path fill-rule="evenodd" clip-rule="evenodd" d="M231.494 78.2529C231.652 78.0265 231.964 77.9711 232.191 78.1291C234.643 79.8409 236.875 81.4605 239.019 83.0168C243.885 86.5482 248.301 89.7532 253.827 92.9672C254.066 93.1061 254.147 93.4121 254.008 93.6508C253.869 93.8895 253.563 93.9705 253.324 93.8316C247.753 90.5913 243.276 87.3419 238.389 83.7957C236.252 82.2449 234.037 80.6374 231.618 78.9491C231.392 78.7911 231.336 78.4794 231.494 78.2529Z" fill="black"/>
<path fill-rule="evenodd" clip-rule="evenodd" d="M284.426 66.5004C284.577 66.2691 284.887 66.2038 285.118 66.3547C292.243 71.0013 299.994 76.2719 306.51 81.2361C306.729 81.4035 306.772 81.7172 306.604 81.9368C306.437 82.1565 306.123 82.1989 305.903 82.0315C299.416 77.0888 291.688 71.8334 284.572 67.1923C284.34 67.0415 284.275 66.7317 284.426 66.5004Z" fill="black"/>
<path fill-rule="evenodd" clip-rule="evenodd" d="M284.152 93.6967C284.33 93.9081 284.645 93.9354 284.857 93.7577C286.839 92.0915 290.599 89.6406 294.675 87.0036C294.879 86.8717 295.083 86.7394 295.288 86.6068C299.166 84.0992 303.24 81.4644 306.197 79.2468C306.418 79.0812 306.463 78.7678 306.297 78.5468C306.131 78.3259 305.818 78.2812 305.597 78.4468C302.669 80.6427 298.622 83.2602 294.732 85.776C294.531 85.9056 294.331 86.035 294.132 86.164C290.081 88.7843 286.256 91.2756 284.213 92.9922C284.002 93.1699 283.975 93.4853 284.152 93.6967Z" fill="black"/>
<path fill-rule="evenodd" clip-rule="evenodd" d="M284.129 109.167C284.29 109.391 284.603 109.442 284.827 109.281C287.21 107.569 289.378 105.949 291.461 104.393C296.188 100.861 300.477 97.6572 305.844 94.4436C306.081 94.3018 306.158 93.9947 306.016 93.7578C305.874 93.5209 305.567 93.4438 305.33 93.5856C299.918 96.8264 295.567 100.077 290.82 103.623C288.744 105.174 286.593 106.781 284.243 108.469C284.019 108.63 283.968 108.942 284.129 109.167Z" fill="black"/>
<path fill-rule="evenodd" clip-rule="evenodd" d="M232.115 93.1099C232.275 92.8844 232.587 92.8308 232.812 92.9902C235.334 94.773 237.629 96.4599 239.835 98.0809C244.84 101.76 249.383 105.099 255.068 108.447C255.306 108.587 255.385 108.894 255.245 109.132C255.105 109.37 254.798 109.449 254.56 109.309C248.831 105.934 244.226 102.55 239.2 98.8559C237.002 97.2404 234.723 95.5658 232.235 93.8068C232.009 93.6474 231.956 93.3354 232.115 93.1099Z" fill="black"/>
<path fill-rule="evenodd" clip-rule="evenodd" d="M248.124 91.5391C248.124 91.2629 248.348 91.0391 248.624 91.0391L291.347 91.0391C291.624 91.0391 291.847 91.2629 291.847 91.5391C291.847 91.8152 291.624 92.0391 291.347 92.0391L248.624 92.0391C248.348 92.0391 248.124 91.8152 248.124 91.5391Z" fill="black"/>
<path fill-rule="evenodd" clip-rule="evenodd" d="M290.108 68.5156C273.701 68.5156 261.669 68.5791 246.795 69.4436C246.519 69.4596 246.283 69.2491 246.266 68.9734C246.25 68.6977 246.461 68.4613 246.737 68.4452C261.643 67.579 273.699 67.5156 290.108 67.5156C290.384 67.5156 290.608 67.7395 290.608 68.0156C290.608 68.2918 290.384 68.5156 290.108 68.5156Z" fill="black"/>
<path fill-rule="evenodd" clip-rule="evenodd" d="M288.251 107.266L248.004 107.266C247.728 107.266 247.504 107.042 247.504 106.766C247.504 106.489 247.728 106.266 248.004 106.266L288.251 106.266C288.527 106.266 288.751 106.489 288.751 106.766C288.751 107.042 288.527 107.266 288.251 107.266Z" fill="black"/>
<path fill-rule="evenodd" clip-rule="evenodd" d="M286.393 69.0391L246.146 69.0391C245.87 69.0391 245.646 68.8152 245.646 68.5391C245.646 68.2629 245.87 68.0391 246.146 68.0391L286.393 68.0391C286.669 68.0391 286.893 68.2629 286.893 68.5391C286.893 68.8152 286.669 69.0391 286.393 69.0391Z" fill="black"/>
<path fill-rule="evenodd" clip-rule="evenodd" d="M234.381 76.7969C234.657 76.7969 234.881 77.0207 234.881 77.2969V95.2531C234.881 95.5293 234.657 95.7531 234.381 95.7531C234.105 95.7531 233.881 95.5293 233.881 95.2531V77.2969C233.881 77.0207 234.105 76.7969 234.381 76.7969Z" fill="black"/>
<path fill-rule="evenodd" clip-rule="evenodd" d="M304.349 78.0391C304.625 78.0391 304.849 78.2629 304.849 78.5391V96.7114C304.849 96.9875 304.625 97.2114 304.349 97.2114C304.072 97.2114 303.849 96.9875 303.849 96.7114V78.5391C303.849 78.2629 304.072 78.0391 304.349 78.0391Z" fill="black"/>
<path fill-rule="evenodd" clip-rule="evenodd" d="M250.479 89.4922C250.755 89.4922 250.979 89.716 250.979 89.9922V106.438C250.979 106.714 250.755 106.938 250.479 106.938C250.202 106.938 249.979 106.714 249.979 106.438V89.9922C249.979 89.716 250.202 89.4922 250.479 89.4922Z" fill="black"/>
<path fill-rule="evenodd" clip-rule="evenodd" d="M287.011 86.9922C287.287 86.9922 287.511 87.216 287.511 87.4922C287.511 88.2655 287.526 89.7607 287.545 91.6132C287.601 97.0816 287.688 105.664 287.509 107.986C287.488 108.261 287.248 108.467 286.972 108.446C286.697 108.425 286.491 108.185 286.512 107.909C286.688 105.636 286.602 97.1882 286.546 91.7175C286.527 89.8286 286.511 88.2946 286.511 87.4922C286.511 87.216 286.735 86.9922 287.011 86.9922Z" fill="black"/>
<path fill-rule="evenodd" clip-rule="evenodd" d="M236.384 80.8407C236.642 80.9169 236.794 81.1842 236.726 81.445C236.573 82.0388 236.176 83.1657 235.791 84.2553L235.783 84.278C235.782 84.2832 235.78 84.2884 235.778 84.2937L234.859 87.051C234.774 87.3066 234.501 87.4487 234.243 87.3724C233.984 87.2962 233.833 87.029 233.9 86.7681C234.051 86.1843 234.444 85.07 234.826 83.9865L234.832 83.9692L235.768 81.1621C235.853 80.9066 236.125 80.7644 236.384 80.8407Z" fill="black"/>
<path fill-rule="evenodd" clip-rule="evenodd" d="M238.231 82.9998C238.499 83.0687 238.66 83.3413 238.591 83.6087L235.559 95.3732C235.49 95.6406 235.217 95.8015 234.95 95.7326C234.683 95.6637 234.522 95.391 234.591 95.1236L237.622 83.3592C237.691 83.0918 237.964 82.9309 238.231 82.9998ZM240.685 84.2381C240.952 84.307 241.113 84.5797 241.044 84.8471L237.853 97.2307C237.784 97.4981 237.512 97.659 237.244 97.5901C236.977 97.5212 236.816 97.2486 236.885 96.9812L240.076 84.5975C240.145 84.3301 240.418 84.1692 240.685 84.2381ZM243.295 86.4053C243.563 86.4742 243.724 86.7468 243.655 87.0142L240.543 99.0882C240.474 99.3556 240.202 99.5166 239.934 99.4477C239.667 99.3787 239.506 99.1061 239.575 98.8387L242.686 86.7647C242.755 86.4973 243.028 86.3364 243.295 86.4053Z" fill="black"/>
<path fill-rule="evenodd" clip-rule="evenodd" d="M246.032 88.2654C246.299 88.3343 246.46 88.6069 246.391 88.8744L243.44 100.329C243.371 100.597 243.098 100.758 242.831 100.689C242.563 100.62 242.402 100.347 242.471 100.08L245.423 88.6248C245.492 88.3574 245.765 88.1965 246.032 88.2654ZM248.441 89.6788C248.708 89.7477 248.869 90.0204 248.8 90.2878L245.574 102.806C245.505 103.073 245.233 103.234 244.965 103.165C244.698 103.096 244.537 102.824 244.606 102.556L247.832 90.0382C247.901 89.7708 248.173 89.6099 248.441 89.6788ZM251.176 91.3613C251.443 91.4302 251.604 91.7029 251.535 91.9703L248.264 104.663C248.195 104.931 247.923 105.092 247.655 105.023C247.388 104.954 247.227 104.681 247.296 104.414L250.567 91.7207C250.636 91.4533 250.909 91.2924 251.176 91.3613Z" fill="black"/>
<path fill-rule="evenodd" clip-rule="evenodd" d="M260.364 91.3653C260.631 91.4342 260.792 91.7069 260.723 91.9743L256.958 106.583C256.901 106.804 256.702 106.958 256.474 106.958L253.305 106.958C253.15 106.958 253.005 106.887 252.91 106.765C252.815 106.642 252.782 106.483 252.821 106.334L256.586 91.7247C256.655 91.4573 256.927 91.2964 257.195 91.3653C257.462 91.4342 257.623 91.7069 257.554 91.9743L253.95 105.958L256.087 105.958L259.755 91.7247C259.824 91.4573 260.096 91.2964 260.364 91.3653ZM254.422 91.3653C254.689 91.4342 254.85 91.7069 254.781 91.9743L251.016 106.583C250.948 106.851 250.675 107.011 250.407 106.943C250.14 106.874 249.979 106.601 250.048 106.334L253.813 91.7247C253.882 91.4573 254.154 91.2964 254.422 91.3653Z" fill="black"/>
<path fill-rule="evenodd" clip-rule="evenodd" d="M269.704 91.0513C269.971 91.1202 270.132 91.3928 270.063 91.6602C269.421 94.1506 268.743 96.8441 268.073 99.5037L268.043 99.621C267.384 102.24 266.734 104.823 266.137 107.14C266.068 107.407 265.795 107.568 265.528 107.499C265.26 107.43 265.099 107.158 265.168 106.89C265.765 104.576 266.414 101.995 267.074 99.3752L267.103 99.2595C267.773 96.6004 268.452 93.9042 269.095 91.4107C269.164 91.1433 269.436 90.9824 269.704 91.0513ZM266.535 91.0513C266.802 91.1202 266.963 91.3928 266.894 91.6602C266.26 94.121 265.604 96.7969 264.953 99.4558L264.936 99.525C264.291 102.159 263.65 104.775 263.041 107.14C262.972 107.407 262.699 107.568 262.432 107.499C262.164 107.43 262.003 107.158 262.072 106.89C262.68 104.531 263.32 101.92 263.966 99.2837L263.982 99.2178C264.633 96.5602 265.29 93.8783 265.926 91.4107C265.995 91.1433 266.267 90.9824 266.535 91.0513ZM263.767 91.0527C264.034 91.1247 264.192 91.3991 264.12 91.6657L259.943 107.145C259.871 107.412 259.597 107.57 259.33 107.498C259.063 107.426 258.906 107.151 258.978 106.885L263.154 91.4052C263.226 91.1386 263.501 90.9808 263.767 91.0527Z" fill="black"/>
<path fill-rule="evenodd" clip-rule="evenodd" d="M278.965 91.3653C279.233 91.4342 279.393 91.7069 279.325 91.9743L275.575 106.525C275.506 106.792 275.233 106.953 274.966 106.884C274.698 106.816 274.538 106.543 274.606 106.275L278.356 91.7247C278.425 91.4573 278.698 91.2964 278.965 91.3653ZM275.796 91.3653C276.064 91.4342 276.224 91.7069 276.156 91.9743L272.406 106.525C272.337 106.792 272.064 106.953 271.797 106.884C271.529 106.816 271.369 106.543 271.437 106.275L275.187 91.7247C275.256 91.4573 275.529 91.2964 275.796 91.3653ZM273.023 91.3653C273.291 91.4342 273.452 91.7069 273.383 91.9743L269.633 106.525C269.564 106.792 269.291 106.953 269.024 106.884C268.757 106.816 268.596 106.543 268.665 106.275L272.414 91.7247C272.483 91.4573 272.756 91.2964 273.023 91.3653Z" fill="black"/>
<path fill-rule="evenodd" clip-rule="evenodd" d="M288.666 90.1231C288.934 90.192 289.095 90.4647 289.026 90.7321L284.957 106.521C284.888 106.789 284.615 106.95 284.348 106.881C284.08 106.812 283.92 106.539 283.988 106.272L288.057 90.4825C288.126 90.2151 288.399 90.0542 288.666 90.1231ZM285.178 91.3615C285.446 91.4304 285.607 91.7031 285.538 91.9705L281.788 106.521C281.719 106.789 281.446 106.95 281.179 106.881C280.912 106.812 280.751 106.539 280.82 106.272L284.569 91.7209C284.638 91.4535 284.911 91.2926 285.178 91.3615ZM282.405 91.3615C282.673 91.4304 282.834 91.703 282.765 91.9705L279.015 106.521C278.946 106.789 278.673 106.95 278.406 106.881C278.139 106.812 277.978 106.539 278.047 106.272L281.796 91.7209C281.865 91.4535 282.138 91.2926 282.405 91.3615Z" fill="black"/>
<path fill-rule="evenodd" clip-rule="evenodd" d="M299.831 82.4513C300.099 82.5202 300.26 82.7928 300.191 83.0602L295.501 101.26C295.432 101.527 295.159 101.688 294.892 101.619C294.624 101.55 294.463 101.277 294.532 101.01L299.222 82.8107C299.291 82.5433 299.564 82.3823 299.831 82.4513ZM295.882 85.4808C296.149 85.5497 296.31 85.8223 296.241 86.0897L291.534 104.356C291.465 104.623 291.192 104.784 290.925 104.715C290.658 104.646 290.497 104.373 290.566 104.106L295.273 85.8402C295.342 85.5728 295.614 85.4118 295.882 85.4808ZM292.55 87.6479C292.818 87.7168 292.979 87.9894 292.91 88.2568L288.282 106.213C288.213 106.48 287.941 106.641 287.673 106.572C287.406 106.504 287.245 106.231 287.314 105.964L291.941 88.0073C292.01 87.7399 292.283 87.579 292.55 87.6479Z" fill="black"/>
<path fill-rule="evenodd" clip-rule="evenodd" d="M302.982 80.8357C303.25 80.9046 303.411 81.1773 303.342 81.4447L298.954 98.4721C298.885 98.7395 298.612 98.9004 298.345 98.8315C298.077 98.7626 297.916 98.49 297.985 98.2226L302.373 81.1951C302.442 80.9277 302.715 80.7668 302.982 80.8357ZM304.239 86.7179C304.507 86.7868 304.668 87.0595 304.599 87.3269L302.205 96.6146C302.136 96.882 301.864 97.0429 301.596 96.974C301.329 96.9051 301.168 96.6324 301.237 96.365L303.63 87.0773C303.699 86.8099 303.972 86.649 304.239 86.7179Z" fill="black"/>
<path d="M270.91 133.831C271.446 154.535 231.599 172.361 181.91 173.647C132.221 174.933 91.5058 159.191 90.97 138.487C90.4343 117.784 130.281 99.9577 179.97 98.6719C229.659 97.3861 270.374 113.128 270.91 133.831Z" fill="url(#paint1_radial_1204_187864)" fill-opacity="0.2"/>
<path d="M133.999 120.337L154.374 104.141H203.681L227.316 120.337V138.778L203.681 155.078H157.226L133.184 138.778L133.999 120.337Z" fill="white"/>
<path fill-rule="evenodd" clip-rule="evenodd" d="M156.386 103.423C156.562 103.635 156.533 103.95 156.321 104.127C152.491 107.312 145.616 112.274 139.772 116.493C137.039 118.465 134.531 120.276 132.665 121.666C132.443 121.831 132.13 121.785 131.965 121.563C131.8 121.342 131.846 121.029 132.068 120.864C133.961 119.453 136.49 117.628 139.237 115.645C145.066 111.437 151.877 106.521 155.682 103.358C155.894 103.181 156.209 103.21 156.386 103.423Z" fill="black"/>
<path fill-rule="evenodd" clip-rule="evenodd" d="M130.735 117.714C130.893 117.487 131.204 117.432 131.431 117.59C134.654 119.839 137.588 121.969 140.41 124.017C146.818 128.668 152.64 132.893 159.921 137.128C160.16 137.267 160.241 137.573 160.102 137.811C159.963 138.05 159.657 138.131 159.418 137.992C152.092 133.731 146.208 129.461 139.78 124.796C136.966 122.754 134.048 120.636 130.858 118.41C130.632 118.252 130.577 117.94 130.735 117.714Z" fill="black"/>
<path fill-rule="evenodd" clip-rule="evenodd" d="M200.409 102.243C200.56 102.011 200.87 101.946 201.101 102.097C210.478 108.212 220.677 115.147 229.249 121.678C229.468 121.845 229.511 122.159 229.343 122.379C229.176 122.598 228.862 122.641 228.643 122.473C220.099 115.964 209.923 109.044 200.555 102.934C200.324 102.784 200.259 102.474 200.409 102.243Z" fill="black"/>
<path fill-rule="evenodd" clip-rule="evenodd" d="M200.037 137.853C200.215 138.064 200.53 138.092 200.742 137.914C203.36 135.713 208.319 132.48 213.681 129.012C213.948 128.839 214.217 128.665 214.486 128.491C219.592 125.189 224.95 121.724 228.837 118.808C229.058 118.643 229.103 118.329 228.937 118.108C228.772 117.888 228.458 117.843 228.237 118.008C224.379 120.902 219.047 124.35 213.929 127.66C213.665 127.832 213.401 128.002 213.137 128.172C207.802 131.624 202.777 134.897 200.098 137.148C199.887 137.326 199.86 137.642 200.037 137.853Z" fill="black"/>
<path fill-rule="evenodd" clip-rule="evenodd" d="M200.014 158.229C200.175 158.453 200.487 158.505 200.712 158.344C203.843 156.094 206.694 153.964 209.435 151.916C215.66 147.266 221.315 143.041 228.387 138.806C228.624 138.665 228.701 138.358 228.559 138.121C228.417 137.884 228.11 137.807 227.873 137.948C220.756 142.21 215.039 146.481 208.794 151.146C206.06 153.188 203.226 155.306 200.128 157.531C199.904 157.693 199.853 158.005 200.014 158.229Z" fill="black"/>
<path fill-rule="evenodd" clip-rule="evenodd" d="M131.551 137.274C131.71 137.048 132.022 136.995 132.248 137.154C135.562 139.497 138.581 141.716 141.482 143.848C148.074 148.693 154.064 153.095 161.553 157.507C161.791 157.647 161.87 157.953 161.73 158.191C161.59 158.429 161.283 158.509 161.045 158.368C153.511 153.93 147.46 149.483 140.847 144.623C137.953 142.496 134.951 140.29 131.67 137.971C131.445 137.811 131.391 137.499 131.551 137.274Z" fill="black"/>
<path fill-rule="evenodd" clip-rule="evenodd" d="M152.65 135.117C152.65 134.841 152.874 134.617 153.15 134.617L209.385 134.617C209.662 134.617 209.885 134.841 209.885 135.117C209.885 135.393 209.662 135.617 209.385 135.617L153.15 135.617C152.874 135.617 152.65 135.393 152.65 135.117Z" fill="black"/>
<path fill-rule="evenodd" clip-rule="evenodd" d="M207.755 104.648C186.158 104.648 170.318 104.732 150.734 105.87C150.458 105.886 150.222 105.676 150.206 105.4C150.19 105.124 150.4 104.888 150.676 104.872C170.291 103.732 186.157 103.648 207.755 103.648C208.031 103.648 208.255 103.872 208.255 104.148C208.255 104.425 208.031 104.648 207.755 104.648Z" fill="black"/>
<path fill-rule="evenodd" clip-rule="evenodd" d="M205.311 155.656L152.336 155.656C152.06 155.656 151.836 155.432 151.836 155.156C151.836 154.88 152.06 154.656 152.336 154.656L205.311 154.656C205.587 154.656 205.811 154.88 205.811 155.156C205.811 155.432 205.587 155.656 205.311 155.656Z" fill="black"/>
<path fill-rule="evenodd" clip-rule="evenodd" d="M202.866 105.336L149.891 105.336C149.614 105.336 149.391 105.112 149.391 104.836C149.391 104.56 149.614 104.336 149.891 104.336L202.866 104.336C203.142 104.336 203.366 104.56 203.366 104.836C203.366 105.112 203.142 105.336 202.866 105.336Z" fill="black"/>
<path fill-rule="evenodd" clip-rule="evenodd" d="M134.404 115.867C134.68 115.867 134.904 116.091 134.904 116.367V140.002C134.904 140.278 134.68 140.502 134.404 140.502C134.128 140.502 133.904 140.278 133.904 140.002V116.367C133.904 116.091 134.128 115.867 134.404 115.867Z" fill="black"/>
<path fill-rule="evenodd" clip-rule="evenodd" d="M226.5 117.5C226.776 117.5 227 117.724 227 118V141.919C227 142.196 226.776 142.419 226.5 142.419C226.224 142.419 226 142.196 226 141.919V118C226 117.724 226.224 117.5 226.5 117.5Z" fill="black"/>
<path fill-rule="evenodd" clip-rule="evenodd" d="M155.593 132.578C155.869 132.578 156.093 132.802 156.093 133.078V154.724C156.093 155.001 155.869 155.224 155.593 155.224C155.317 155.224 155.093 155.001 155.093 154.724V133.078C155.093 132.802 155.317 132.578 155.593 132.578Z" fill="black"/>
<path fill-rule="evenodd" clip-rule="evenodd" d="M203.68 129.289C203.956 129.289 204.18 129.513 204.18 129.789C204.18 130.812 204.2 132.786 204.225 135.23C204.298 142.428 204.413 153.703 204.178 156.752C204.157 157.028 203.917 157.234 203.641 157.212C203.366 157.191 203.16 156.951 203.181 156.675C203.412 153.675 203.299 142.535 203.226 135.334C203.201 132.854 203.18 130.841 203.18 129.789C203.18 129.513 203.404 129.289 203.68 129.289Z" fill="black"/>
<path fill-rule="evenodd" clip-rule="evenodd" d="M136.993 121.185C137.251 121.262 137.403 121.529 137.336 121.79C137.136 122.565 136.614 124.044 136.106 125.485L136.099 125.505C136.096 125.513 136.094 125.52 136.091 125.527L134.881 129.158C134.795 129.414 134.523 129.556 134.265 129.48C134.006 129.403 133.855 129.136 133.922 128.875C134.118 128.114 134.634 126.651 135.14 125.218L135.145 125.203L136.377 121.507C136.462 121.251 136.735 121.109 136.993 121.185Z" fill="black"/>
<path fill-rule="evenodd" clip-rule="evenodd" d="M139.429 124.031C139.697 124.1 139.858 124.373 139.789 124.64L135.798 140.125C135.729 140.392 135.457 140.553 135.189 140.484C134.922 140.415 134.761 140.143 134.83 139.875L138.821 124.39C138.889 124.123 139.162 123.962 139.429 124.031ZM142.659 125.661C142.927 125.73 143.088 126.003 143.019 126.27L138.818 142.57C138.749 142.837 138.477 142.998 138.209 142.929C137.942 142.86 137.781 142.588 137.85 142.32L142.05 126.02C142.119 125.753 142.392 125.592 142.659 125.661ZM146.095 128.514C146.363 128.582 146.524 128.855 146.455 129.122L142.359 145.015C142.29 145.282 142.018 145.443 141.75 145.374C141.483 145.305 141.322 145.033 141.391 144.765L145.486 128.873C145.555 128.606 145.828 128.445 146.095 128.514Z" fill="black"/>
<path fill-rule="evenodd" clip-rule="evenodd" d="M149.697 130.961C149.964 131.03 150.125 131.302 150.056 131.57L146.171 146.647C146.102 146.915 145.829 147.075 145.562 147.007C145.295 146.938 145.134 146.665 145.203 146.398L149.088 131.32C149.157 131.053 149.43 130.892 149.697 130.961ZM152.867 132.821C153.135 132.89 153.296 133.163 153.227 133.43L148.981 149.907C148.912 150.175 148.639 150.335 148.372 150.267C148.104 150.198 147.943 149.925 148.012 149.658L152.258 133.181C152.327 132.913 152.6 132.752 152.867 132.821ZM156.468 135.036C156.735 135.105 156.896 135.377 156.827 135.645L152.522 152.352C152.453 152.62 152.18 152.78 151.913 152.712C151.645 152.643 151.484 152.37 151.553 152.103L155.859 135.395C155.928 135.128 156.2 134.967 156.468 135.036Z" fill="black"/>
<path fill-rule="evenodd" clip-rule="evenodd" d="M168.562 135.038C168.83 135.107 168.991 135.38 168.922 135.647L163.966 154.876C163.909 155.097 163.71 155.251 163.482 155.251L159.311 155.251C159.156 155.251 159.01 155.18 158.916 155.058C158.821 154.935 158.788 154.776 158.827 154.627L163.782 135.398C163.851 135.13 164.124 134.969 164.391 135.038C164.658 135.107 164.819 135.38 164.75 135.647L159.956 154.251L163.095 154.251L167.953 135.398C168.022 135.13 168.295 134.969 168.562 135.038ZM160.741 135.038C161.009 135.107 161.17 135.38 161.101 135.647L156.145 154.876C156.076 155.144 155.804 155.304 155.536 155.236C155.269 155.167 155.108 154.894 155.177 154.627L160.132 135.398C160.201 135.13 160.474 134.969 160.741 135.038Z" fill="black"/>
<path fill-rule="evenodd" clip-rule="evenodd" d="M180.854 134.629C181.122 134.698 181.283 134.971 181.214 135.238C180.369 138.517 179.476 142.062 178.594 145.563L178.555 145.717C177.687 149.164 176.831 152.563 176.046 155.613C175.977 155.88 175.704 156.041 175.437 155.972C175.169 155.904 175.008 155.631 175.077 155.364C175.862 152.317 176.718 148.92 177.586 145.472L177.625 145.319C178.506 141.819 179.4 138.27 180.245 134.989C180.314 134.721 180.587 134.56 180.854 134.629ZM176.683 134.629C176.951 134.698 177.111 134.971 177.043 135.238C176.208 138.478 175.344 142.001 174.487 145.501L174.465 145.591C173.616 149.059 172.772 152.501 171.971 155.613C171.902 155.88 171.629 156.041 171.362 155.972C171.094 155.904 170.933 155.631 171.002 155.364C171.803 152.258 172.644 148.82 173.494 145.35L173.516 145.263C174.373 141.764 175.237 138.235 176.074 134.989C176.143 134.721 176.416 134.56 176.683 134.629ZM173.039 134.631C173.306 134.702 173.463 134.977 173.391 135.244L167.894 155.619C167.822 155.885 167.547 156.043 167.281 155.971C167.014 155.899 166.856 155.625 166.928 155.358L172.426 134.983C172.498 134.716 172.772 134.559 173.039 134.631Z" fill="black"/>
<path fill-rule="evenodd" clip-rule="evenodd" d="M193.045 135.038C193.312 135.107 193.473 135.38 193.404 135.647L188.468 154.8C188.399 155.067 188.127 155.228 187.859 155.159C187.592 155.09 187.431 154.817 187.5 154.55L192.436 135.398C192.505 135.13 192.777 134.969 193.045 135.038ZM188.873 135.038C189.141 135.107 189.302 135.38 189.233 135.647L184.297 154.8C184.228 155.067 183.956 155.228 183.688 155.159C183.421 155.09 183.26 154.817 183.329 154.55L188.265 135.398C188.333 135.13 188.606 134.969 188.873 135.038ZM185.224 135.038C185.491 135.107 185.652 135.38 185.583 135.647L180.647 154.8C180.579 155.067 180.306 155.228 180.039 155.159C179.771 155.09 179.61 154.817 179.679 154.55L184.615 135.398C184.684 135.13 184.956 134.969 185.224 135.038Z" fill="black"/>
<path fill-rule="evenodd" clip-rule="evenodd" d="M205.815 133.405C206.083 133.474 206.243 133.747 206.175 134.014L200.819 154.797C200.75 155.064 200.477 155.225 200.21 155.156C199.942 155.087 199.782 154.815 199.85 154.547L205.206 133.765C205.275 133.497 205.548 133.336 205.815 133.405ZM201.224 135.035C201.491 135.104 201.652 135.377 201.583 135.644L196.648 154.797C196.579 155.064 196.306 155.225 196.039 155.156C195.771 155.087 195.61 154.815 195.679 154.547L200.615 135.395C200.684 135.127 200.957 134.966 201.224 135.035ZM197.574 135.035C197.842 135.104 198.002 135.377 197.934 135.644L192.998 154.797C192.929 155.064 192.656 155.225 192.389 155.156C192.122 155.087 191.961 154.815 192.03 154.547L196.965 135.395C197.034 135.127 197.307 134.966 197.574 135.035Z" fill="black"/>
<path fill-rule="evenodd" clip-rule="evenodd" d="M220.511 123.304C220.779 123.373 220.94 123.645 220.871 123.913L214.698 147.868C214.629 148.135 214.356 148.296 214.089 148.227C213.821 148.158 213.66 147.886 213.729 147.618L219.902 123.663C219.971 123.396 220.244 123.235 220.511 123.304ZM215.313 127.291C215.58 127.36 215.741 127.633 215.672 127.9L209.476 151.943C209.407 152.21 209.135 152.371 208.867 152.302C208.6 152.233 208.439 151.961 208.508 151.693L214.704 127.651C214.773 127.383 215.045 127.222 215.313 127.291ZM210.928 130.144C211.195 130.213 211.356 130.485 211.287 130.753L205.196 154.388C205.127 154.655 204.855 154.816 204.587 154.747C204.32 154.678 204.159 154.406 204.228 154.138L210.319 130.503C210.388 130.236 210.66 130.075 210.928 130.144Z" fill="black"/>
<path fill-rule="evenodd" clip-rule="evenodd" d="M224.658 121.179C224.925 121.248 225.086 121.521 225.017 121.788L219.242 144.201C219.173 144.468 218.9 144.629 218.633 144.56C218.365 144.491 218.204 144.219 218.273 143.951L224.049 121.539C224.118 121.271 224.391 121.111 224.658 121.179ZM226.313 128.922C226.58 128.991 226.741 129.264 226.672 129.531L223.522 141.756C223.453 142.023 223.18 142.184 222.913 142.115C222.645 142.046 222.484 141.774 222.553 141.506L225.704 129.281C225.772 129.014 226.045 128.853 226.313 128.922Z" fill="black"/>
<path d="M180.91 92.8313C181.446 113.535 141.599 131.361 91.91 132.647C42.221 133.933 1.50577 118.191 0.970036 97.4875C0.4343 76.7837 40.2809 58.9577 89.9699 57.6719C139.659 56.3861 180.374 72.1275 180.91 92.8313Z" fill="url(#paint2_radial_1204_187864)" fill-opacity="0.2"/>
<path d="M53.9141 80.3208L69.3936 68.0156H106.854L124.81 80.3208V94.3308L106.854 106.714H71.5607L53.2949 94.3308L53.9141 80.3208Z" fill="white"/>
<path fill-rule="evenodd" clip-rule="evenodd" d="M71.0146 67.3835C71.1911 67.5958 71.1621 67.911 70.9498 68.0876C68.0366 70.5098 62.8063 74.2854 58.3645 77.4918C56.2896 78.9895 54.3868 80.363 52.9725 81.4165C52.7511 81.5815 52.4378 81.5357 52.2729 81.3142C52.1079 81.0927 52.1537 80.7795 52.3752 80.6145C53.8172 79.5404 55.7409 78.1519 57.8293 76.6444C62.2563 73.4489 67.4233 69.7193 70.3104 67.3187C70.5228 67.1421 70.838 67.1711 71.0146 67.3835Z" fill="black"/>
<path fill-rule="evenodd" clip-rule="evenodd" d="M51.3361 78.2529C51.4942 78.0265 51.8059 77.9711 52.0323 78.1291C54.4849 79.8409 56.7166 81.4605 58.8609 83.0168C63.7269 86.5482 68.1429 89.7532 73.6688 92.9672C73.9075 93.1061 73.9885 93.4121 73.8497 93.6508C73.7108 93.8895 73.4048 93.9705 73.1661 93.8316C67.595 90.5913 63.1174 87.3419 58.2309 83.7957C56.094 82.2449 53.8789 80.6374 51.46 78.9491C51.2335 78.7911 51.1781 78.4794 51.3361 78.2529Z" fill="black"/>
<path fill-rule="evenodd" clip-rule="evenodd" d="M104.268 66.5004C104.419 66.2691 104.728 66.2038 104.96 66.3547C112.085 71.0013 119.836 76.2719 126.351 81.2361C126.571 81.4035 126.613 81.7172 126.446 81.9368C126.279 82.1565 125.965 82.1989 125.745 82.0315C119.258 77.0888 111.53 71.8334 104.413 67.1923C104.182 67.0415 104.117 66.7317 104.268 66.5004Z" fill="black"/>
<path fill-rule="evenodd" clip-rule="evenodd" d="M103.994 93.6967C104.172 93.9081 104.487 93.9354 104.699 93.7577C106.681 92.0915 110.441 89.6406 114.517 87.0036C114.721 86.8717 114.925 86.7394 115.13 86.6068C119.008 84.0992 123.082 81.4644 126.039 79.2468C126.26 79.0812 126.304 78.7678 126.139 78.5468C125.973 78.3259 125.66 78.2812 125.439 78.4468C122.511 80.6427 118.464 83.2602 114.573 85.776C114.373 85.9056 114.173 86.035 113.974 86.164C109.923 88.7843 106.098 91.2756 104.055 92.9922C103.844 93.1699 103.817 93.4853 103.994 93.6967Z" fill="black"/>
<path fill-rule="evenodd" clip-rule="evenodd" d="M103.971 109.167C104.132 109.391 104.444 109.442 104.669 109.281C107.052 107.569 109.22 105.949 111.303 104.393C116.03 100.861 120.319 97.6572 125.686 94.4436C125.923 94.3018 126 93.9947 125.858 93.7578C125.716 93.5209 125.409 93.4438 125.172 93.5856C119.76 96.8264 115.409 100.077 110.662 103.623C108.586 105.174 106.435 106.781 104.085 108.469C103.861 108.63 103.81 108.942 103.971 109.167Z" fill="black"/>
<path fill-rule="evenodd" clip-rule="evenodd" d="M51.957 93.1099C52.1164 92.8844 52.4284 92.8308 52.6539 92.9902C55.176 94.773 57.4713 96.4599 59.6768 98.0809C64.6821 101.76 69.2252 105.099 74.9095 108.447C75.1475 108.587 75.2267 108.894 75.0866 109.132C74.9464 109.37 74.6399 109.449 74.402 109.309C68.6724 105.934 64.0677 102.55 59.0418 98.8559C56.8438 97.2404 54.5652 95.5658 52.0767 93.8068C51.8512 93.6474 51.7976 93.3354 51.957 93.1099Z" fill="black"/>
<path fill-rule="evenodd" clip-rule="evenodd" d="M67.9658 91.5391C67.9658 91.2629 68.1897 91.0391 68.4658 91.0391L111.189 91.0391C111.465 91.0391 111.689 91.2629 111.689 91.5391C111.689 91.8152 111.465 92.0391 111.189 92.0391L68.4658 92.0391C68.1897 92.0391 67.9658 91.8152 67.9658 91.5391Z" fill="black"/>
<path fill-rule="evenodd" clip-rule="evenodd" d="M109.95 68.5156C93.5426 68.5156 81.5112 68.5791 66.6364 69.4436C66.3608 69.4596 66.1243 69.2491 66.1083 68.9734C66.0923 68.6977 66.3028 68.4613 66.5784 68.4452C81.4845 67.579 93.5409 67.5156 109.95 67.5156C110.226 67.5156 110.45 67.7395 110.45 68.0156C110.45 68.2918 110.226 68.5156 109.95 68.5156Z" fill="black"/>
<path fill-rule="evenodd" clip-rule="evenodd" d="M108.092 107.266L67.8457 107.266C67.5696 107.266 67.3457 107.042 67.3457 106.766C67.3457 106.489 67.5696 106.266 67.8457 106.266L108.092 106.266C108.369 106.266 108.592 106.489 108.592 106.766C108.592 107.042 108.369 107.266 108.092 107.266Z" fill="black"/>
<path fill-rule="evenodd" clip-rule="evenodd" d="M106.235 69.0391L65.9883 69.0391C65.7121 69.0391 65.4883 68.8152 65.4883 68.5391C65.4883 68.2629 65.7121 68.0391 65.9883 68.0391L106.235 68.0391C106.511 68.0391 106.735 68.2629 106.735 68.5391C106.735 68.8152 106.511 69.0391 106.235 69.0391Z" fill="black"/>
<path fill-rule="evenodd" clip-rule="evenodd" d="M54.2227 76.7969C54.4988 76.7969 54.7227 77.0207 54.7227 77.2969V95.2531C54.7227 95.5293 54.4988 95.7531 54.2227 95.7531C53.9465 95.7531 53.7227 95.5293 53.7227 95.2531V77.2969C53.7227 77.0207 53.9465 76.7969 54.2227 76.7969Z" fill="black"/>
<path fill-rule="evenodd" clip-rule="evenodd" d="M124.19 78.0391C124.467 78.0391 124.69 78.2629 124.69 78.5391V96.7114C124.69 96.9875 124.467 97.2114 124.19 97.2114C123.914 97.2114 123.69 96.9875 123.69 96.7114V78.5391C123.69 78.2629 123.914 78.0391 124.19 78.0391Z" fill="black"/>
<path fill-rule="evenodd" clip-rule="evenodd" d="M70.3203 89.4922C70.5965 89.4922 70.8203 89.716 70.8203 89.9922V106.438C70.8203 106.714 70.5965 106.938 70.3203 106.938C70.0442 106.938 69.8203 106.714 69.8203 106.438V89.9922C69.8203 89.716 70.0442 89.4922 70.3203 89.4922Z" fill="black"/>
<path fill-rule="evenodd" clip-rule="evenodd" d="M106.853 86.9922C107.129 86.9922 107.353 87.216 107.353 87.4922C107.353 88.2655 107.368 89.7607 107.387 91.6132C107.443 97.0816 107.53 105.664 107.351 107.986C107.33 108.261 107.089 108.467 106.814 108.446C106.539 108.425 106.333 108.185 106.354 107.909C106.529 105.636 106.443 97.1882 106.388 91.7175C106.368 89.8286 106.353 88.2946 106.353 87.4922C106.353 87.216 106.577 86.9922 106.853 86.9922Z" fill="black"/>
<path fill-rule="evenodd" clip-rule="evenodd" d="M56.2245 80.8485C56.4829 80.9248 56.6344 81.192 56.5672 81.4528C56.4141 82.0466 56.0166 83.1735 55.6323 84.2632L55.6243 84.2858C55.6225 84.291 55.6206 84.2963 55.6188 84.3015L54.6995 87.0588C54.6143 87.3144 54.342 87.4565 54.0836 87.3802C53.8253 87.304 53.6738 87.0368 53.741 86.7759C53.8914 86.1922 54.2845 85.0778 54.6667 83.9943L54.6728 83.977L55.6086 81.1699C55.6938 80.9144 55.9662 80.7723 56.2245 80.8485Z" fill="black"/>
<path fill-rule="evenodd" clip-rule="evenodd" d="M58.0721 83.0076C58.3395 83.0765 58.5004 83.3491 58.4315 83.6165L55.3998 95.381C55.3308 95.6484 55.0582 95.8093 54.7908 95.7404C54.5234 95.6715 54.3625 95.3988 54.4314 95.1314L57.4631 83.367C57.532 83.0996 57.8047 82.9387 58.0721 83.0076ZM60.5258 84.2459C60.7932 84.3149 60.9541 84.5875 60.8852 84.8549L57.6939 97.2385C57.625 97.5059 57.3524 97.6668 57.0849 97.5979C56.8175 97.529 56.6566 97.2564 56.7255 96.989L59.9168 84.6054C59.9857 84.3379 60.2584 84.177 60.5258 84.2459ZM63.1363 86.4131C63.4037 86.482 63.5646 86.7546 63.4957 87.022L60.3842 99.0961C60.3153 99.3635 60.0426 99.5244 59.7752 99.4555C59.5078 99.3866 59.3469 99.1139 59.4158 98.8465L62.5273 86.7725C62.5962 86.5051 62.8689 86.3442 63.1363 86.4131Z" fill="black"/>
<path fill-rule="evenodd" clip-rule="evenodd" d="M65.8729 88.2732C66.1403 88.3421 66.3012 88.6148 66.2323 88.8822L63.2803 100.337C63.2114 100.604 62.9388 100.765 62.6714 100.696C62.404 100.628 62.243 100.355 62.312 100.087L65.2639 88.6326C65.3328 88.3652 65.6054 88.2043 65.8729 88.2732ZM68.2814 89.6866C68.5489 89.7556 68.7098 90.0282 68.6409 90.2956L65.4149 102.814C65.346 103.081 65.0734 103.242 64.8059 103.173C64.5385 103.104 64.3776 102.832 64.4465 102.564L67.6725 90.0461C67.7414 89.7786 68.014 89.6177 68.2814 89.6866ZM71.0168 91.3691C71.2842 91.438 71.4451 91.7107 71.3762 91.9781L68.1052 104.671C68.0363 104.939 67.7636 105.1 67.4962 105.031C67.2288 104.962 67.0679 104.689 67.1368 104.422L70.4079 91.7285C70.4768 91.4611 70.7494 91.3002 71.0168 91.3691Z" fill="black"/>
<path fill-rule="evenodd" clip-rule="evenodd" d="M80.2054 91.3731C80.4728 91.442 80.6337 91.7147 80.5648 91.9821L76.8 106.591C76.7431 106.812 76.5439 106.966 76.3159 106.966L73.1469 106.966C72.9923 106.966 72.8464 106.895 72.7517 106.772C72.657 106.65 72.6241 106.491 72.6627 106.341L76.4275 91.7325C76.4964 91.4651 76.769 91.3042 77.0364 91.3731C77.3038 91.442 77.4647 91.7147 77.3958 91.9821L73.7921 105.966L75.9284 105.966L79.5964 91.7325C79.6653 91.4651 79.938 91.3042 80.2054 91.3731ZM74.2636 91.3731C74.531 91.442 74.6919 91.7147 74.623 91.9821L70.8582 106.591C70.7893 106.858 70.5167 107.019 70.2493 106.95C69.9819 106.881 69.821 106.609 69.8899 106.341L73.6546 91.7325C73.7235 91.4651 73.9962 91.3042 74.2636 91.3731Z" fill="black"/>
<path fill-rule="evenodd" clip-rule="evenodd" d="M89.5444 91.0591C89.8118 91.128 89.9727 91.4007 89.9038 91.6681C89.262 94.1584 88.5836 96.8519 87.9139 99.5115L87.8843 99.6288C87.2249 102.248 86.5745 104.83 85.9773 107.148C85.9084 107.415 85.6358 107.576 85.3684 107.507C85.101 107.438 84.9401 107.165 85.009 106.898C85.6054 104.584 86.2552 102.003 86.915 99.383L86.9441 99.2673C87.6137 96.6082 88.2929 93.912 88.9354 91.4185C89.0044 91.1511 89.277 90.9902 89.5444 91.0591ZM86.3754 91.0591C86.6429 91.128 86.8038 91.4007 86.7349 91.6681C86.1007 94.1288 85.445 96.8047 84.7937 99.4636L84.7768 99.5328C84.1316 102.167 83.4909 104.783 82.8814 107.148C82.8125 107.415 82.5399 107.576 82.2725 107.507C82.0051 107.438 81.8442 107.165 81.9131 106.898C82.521 104.539 83.1605 101.928 83.8063 99.2915L83.8225 99.2257C84.4734 96.568 85.1306 93.8862 85.7665 91.4185C85.8354 91.1511 86.108 90.9902 86.3754 91.0591ZM83.6081 91.0605C83.8747 91.1325 84.0325 91.4069 83.9606 91.6735L79.7838 107.153C79.7119 107.42 79.4374 107.577 79.1708 107.506C78.9042 107.434 78.7464 107.159 78.8184 106.893L82.9951 91.413C83.067 91.1464 83.3415 90.9886 83.6081 91.0605Z" fill="black"/>
<path fill-rule="evenodd" clip-rule="evenodd" d="M98.806 91.3731C99.0734 91.442 99.2343 91.7147 99.1654 91.9821L95.4156 106.533C95.3467 106.8 95.0741 106.961 94.8066 106.892C94.5392 106.823 94.3783 106.551 94.4472 106.283L98.197 91.7325C98.2659 91.4651 98.5385 91.3042 98.806 91.3731ZM95.637 91.3731C95.9044 91.442 96.0653 91.7147 95.9964 91.9821L92.2466 106.533C92.1777 106.8 91.9051 106.961 91.6377 106.892C91.3703 106.823 91.2094 106.551 91.2783 106.283L95.028 91.7325C95.097 91.4651 95.3696 91.3042 95.637 91.3731ZM92.8642 91.3731C93.1316 91.442 93.2925 91.7147 93.2236 91.9821L89.4738 106.533C89.4049 106.8 89.1323 106.961 88.8649 106.892C88.5974 106.823 88.4365 106.551 88.5054 106.283L92.2552 91.7325C92.3241 91.4651 92.5968 91.3042 92.8642 91.3731Z" fill="black"/>
<path fill-rule="evenodd" clip-rule="evenodd" d="M108.507 90.1309C108.775 90.1999 108.935 90.4725 108.867 90.7399L104.798 106.529C104.729 106.796 104.456 106.957 104.189 106.888C103.921 106.82 103.76 106.547 103.829 106.279L107.898 90.4904C107.967 90.2229 108.24 90.062 108.507 90.1309ZM105.019 91.3693C105.286 91.4382 105.447 91.7109 105.378 91.9783L101.629 106.529C101.56 106.796 101.287 106.957 101.02 106.888C100.752 106.82 100.591 106.547 100.66 106.279L104.41 91.7287C104.479 91.4613 104.752 91.3004 105.019 91.3693ZM102.246 91.3693C102.514 91.4382 102.675 91.7109 102.606 91.9783L98.8558 106.529C98.7869 106.796 98.5143 106.957 98.2469 106.888C97.9795 106.82 97.8186 106.547 97.8875 106.279L101.637 91.7287C101.706 91.4613 101.979 91.3004 102.246 91.3693Z" fill="black"/>
<path fill-rule="evenodd" clip-rule="evenodd" d="M119.672 82.4591C119.94 82.528 120.1 82.8006 120.032 83.068L115.342 101.267C115.273 101.535 115 101.696 114.733 101.627C114.465 101.558 114.304 101.285 114.373 101.018L119.063 82.8185C119.132 82.5511 119.405 82.3902 119.672 82.4591ZM115.723 85.4886C115.99 85.5575 116.151 85.8301 116.082 86.0975L111.375 104.363C111.306 104.631 111.033 104.792 110.766 104.723C110.498 104.654 110.337 104.381 110.406 104.114L115.114 85.848C115.182 85.5806 115.455 85.4197 115.723 85.4886ZM112.391 87.6557C112.659 87.7246 112.82 87.9973 112.751 88.2647L108.123 106.221C108.054 106.488 107.782 106.649 107.514 106.58C107.247 106.511 107.086 106.239 107.155 105.971L111.782 88.0151C111.851 87.7477 112.124 87.5868 112.391 87.6557Z" fill="black"/>
<path fill-rule="evenodd" clip-rule="evenodd" d="M122.824 80.8435C123.091 80.9124 123.252 81.1851 123.183 81.4525L118.795 98.4799C118.727 98.7473 118.454 98.9083 118.186 98.8394C117.919 98.7704 117.758 98.4978 117.827 98.2304L122.215 81.2029C122.284 80.9355 122.557 80.7746 122.824 80.8435ZM124.081 86.7257C124.348 86.7947 124.509 87.0673 124.44 87.3347L122.047 96.6224C121.978 96.8898 121.705 97.0507 121.438 96.9818C121.171 96.9129 121.01 96.6403 121.079 96.3728L123.472 87.0851C123.541 86.8177 123.814 86.6568 124.081 86.7257Z" fill="black"/>
<path fill-rule="evenodd" clip-rule="evenodd" d="M85.1865 77.914C79.8162 77.9635 74.5021 78.0125 69.8646 78.0125C63.5915 78.0125 59.8745 78.6307 57.5964 79.6089C56.4666 80.0941 55.6995 80.6642 55.1482 81.2857C54.5959 81.9083 54.2404 82.6046 53.9624 83.3712C53.7542 83.9452 53.596 84.5367 53.4277 85.1665C53.3671 85.3932 53.3051 85.625 53.239 85.8626C52.9937 86.7449 52.6988 87.6757 52.2165 88.6065C51.2401 90.4911 49.5326 92.3056 46.0711 93.844C45.5924 94.0568 44.8912 94.2127 44.0026 94.3345C43.1033 94.4577 41.9716 94.5508 40.6075 94.6205C37.8788 94.7601 34.187 94.8081 29.5002 94.81C29.2241 94.8101 29.0001 94.5863 29 94.3102C28.9999 94.034 29.2237 93.8101 29.4998 93.81C34.1851 93.8081 37.8551 93.76 40.5564 93.6219C41.9072 93.5527 43.0074 93.4615 43.8669 93.3437C44.7371 93.2245 45.3215 93.0829 45.665 92.9302C48.9507 91.4699 50.4716 89.8007 51.3286 88.1465C51.7631 87.3079 52.0362 86.4556 52.2756 85.5947C52.3353 85.38 52.3934 85.1625 52.4519 84.9438C52.6236 84.3011 52.798 83.6486 53.0223 83.0303C53.328 82.1874 53.7385 81.3679 54.4001 80.6222C55.0625 79.8753 55.9569 79.2246 57.2018 78.6901C59.6731 77.6289 63.5584 77.0125 69.8646 77.0125C74.4727 77.0125 79.7671 76.9637 85.1266 76.9143C96.0528 76.8137 107.249 76.7105 113.452 77.0131C116.018 77.1382 117.669 78.8111 118.771 81.1461C119.867 83.4674 120.475 86.5419 120.937 89.6995C121.121 90.9592 121.281 92.2274 121.439 93.4753C121.682 95.3937 121.919 97.264 122.226 98.9808C122.478 100.388 122.772 101.661 123.146 102.734C123.522 103.812 123.967 104.655 124.5 105.23C126.531 107.417 129.262 109.785 132.254 111.603C135.253 113.426 138.47 114.669 141.485 114.669C154.772 114.669 171.103 114.484 185.264 114.069C199.449 113.653 211.397 113.007 215.961 112.094C215.993 112.088 216.026 112.084 216.059 112.084C220.308 112.084 225.263 109.525 229.175 105.488C233.079 101.46 235.863 96.0408 235.863 90.4337C235.863 88.5707 235.868 86.8796 236.039 85.3856C236.21 83.8877 236.553 82.5485 237.257 81.3962C238.681 79.0623 241.465 77.6727 246.638 77.0165C246.658 77.0138 246.679 77.0125 246.7 77.0125C252.038 77.0125 257.724 77.0415 263.231 77.0696C273.737 77.1233 283.592 77.1736 289.141 77.0127C293.182 76.8956 295.957 78.4889 298.377 80.8472C299.578 82.0173 300.697 83.3803 301.839 84.81C302.013 85.0275 302.187 85.2466 302.363 85.467C303.345 86.7017 304.36 87.9767 305.486 89.2405C308.133 92.2103 311.377 95.0922 316.133 97.0794C320.889 99.0662 327.194 100.174 335.984 99.5351L324.84 97.9431C324.566 97.904 324.376 97.6507 324.415 97.3774C324.454 97.104 324.708 96.9141 324.981 96.9531L343.071 99.5373C343.301 99.5702 343.478 99.7574 343.498 99.9889C343.518 100.221 343.376 100.435 343.155 100.508L325.066 106.414C324.803 106.5 324.521 106.357 324.435 106.094C324.349 105.832 324.493 105.55 324.755 105.464L339.858 100.532H336.059C327.149 101.18 320.68 100.063 315.748 98.0021C310.809 95.9389 307.449 92.9453 304.74 89.9059C303.593 88.6193 302.559 87.3198 301.577 86.0853C301.402 85.8661 301.229 85.6489 301.058 85.4342C299.915 84.0042 298.831 82.6855 297.679 81.5635C295.395 79.3376 292.869 77.9051 289.17 78.0123C283.604 78.1736 273.715 78.1232 263.195 78.0695C257.705 78.0415 252.042 78.0126 246.732 78.0125C241.664 78.6597 239.286 79.9896 238.11 81.9171C237.512 82.8974 237.195 84.0769 237.032 85.4994C236.869 86.926 236.863 88.5571 236.863 90.4337C236.863 96.3662 233.926 102.022 229.893 106.184C225.882 110.323 220.707 113.065 216.108 113.084C211.408 114.012 199.394 114.655 185.293 115.068C171.12 115.484 154.779 115.669 141.485 115.669C138.213 115.669 134.811 114.327 131.735 112.458C128.652 110.584 125.85 108.154 123.767 105.91C123.101 105.192 122.599 104.204 122.202 103.063C121.803 101.919 121.498 100.588 121.242 99.1569C120.932 97.4237 120.688 95.4993 120.441 93.5546C120.283 92.3112 120.125 91.0595 119.947 89.8442C119.486 86.6899 118.894 83.7472 117.867 81.5731C116.847 79.4126 115.452 78.1118 113.403 78.0119C107.229 77.7107 96.0921 77.8134 85.1865 77.914Z" fill="black"/>
<path fill-rule="evenodd" clip-rule="evenodd" d="M165.564 85L173.564 78.5L178.564 80.5L180.564 83H184.564L188.064 76.5L196.064 81.5L198.564 86L196.064 89.5L198.564 92.5H203.064L204.564 95.5L203.064 106H197.564L193.564 112L195.564 116.5L187.064 122L184.564 117.5H178.564L174.564 123L166.564 118.5L163.064 116.5L166.564 110.5V108.5H163.064L159.064 105V95L164.564 94.5L168.064 89.5L165.564 85ZM175.564 99L183.564 92.5L186.064 95L185.564 103L178.564 108.5L175.564 106V99Z" fill="white"/>
<path fill-rule="evenodd" clip-rule="evenodd" d="M165.564 85L173.564 78.5L178.564 80.5L180.564 83H184.564L188.064 76.5L196.064 81.5L198.564 86L196.064 89.5L198.564 92.5H203.064L204.564 95.5L203.064 106H197.564L193.564 112L195.564 116.5L187.064 122L184.564 117.5H178.564L174.564 123L166.564 118.5L163.064 116.5L166.564 110.5V108.5H163.064L159.064 105V95L164.564 94.5L168.064 89.5L165.564 85ZM175.564 99L183.564 92.5L186.064 95L185.564 103L178.564 108.5L175.564 106V99Z" fill="url(#paint3_linear_1204_187864)"/>
<path fill-rule="evenodd" clip-rule="evenodd" d="M172.936 89.9402C173.176 90.0764 173.261 90.3816 173.124 90.6218L168.374 98.9968C168.238 99.237 167.933 99.3212 167.693 99.185C167.453 99.0488 167.368 98.7436 167.505 98.5034L172.255 90.1284C172.391 89.8882 172.696 89.8039 172.936 89.9402Z" fill="black"/>
<path fill-rule="evenodd" clip-rule="evenodd" d="M169.218 86.4267C169.466 86.3045 169.766 86.4063 169.888 86.654C170.008 86.8964 170.126 87.1378 170.243 87.378C171.006 88.9389 171.743 90.4488 172.723 91.8368C172.882 92.0624 172.829 92.3743 172.603 92.5336C172.377 92.6928 172.065 92.6391 171.906 92.4135C170.876 90.9547 170.1 89.3656 169.341 87.8096C169.224 87.5708 169.108 87.3329 168.991 87.0963C168.869 86.8486 168.971 86.5488 169.218 86.4267Z" fill="black"/>
<path fill-rule="evenodd" clip-rule="evenodd" d="M179.147 80.529C179.408 80.4366 179.693 80.5726 179.786 80.8328C180.29 82.2535 180.706 83.6959 181.118 85.1257C181.195 85.3943 181.273 85.6625 181.35 85.9301C181.542 86.5911 181.666 87.0009 181.981 87.4728C182.134 87.7026 182.072 88.013 181.842 88.1662C181.612 88.3193 181.302 88.2573 181.149 88.0275C180.74 87.4153 180.582 86.8687 180.393 86.218L180.39 86.2091C180.311 85.9372 180.233 85.6661 180.155 85.3958C179.743 83.9657 179.337 82.5569 178.843 81.1674C178.751 80.9072 178.887 80.6214 179.147 80.529Z" fill="black"/>
<path fill-rule="evenodd" clip-rule="evenodd" d="M179.87 79.3707C180.01 79.6085 179.932 79.9151 179.694 80.0555C175.968 82.2574 172.296 84.7568 169.437 87.9581C169.254 88.1641 168.937 88.182 168.731 87.998C168.525 87.8141 168.508 87.4981 168.691 87.2921C171.654 83.9743 175.432 81.4123 179.185 79.1946C179.423 79.0541 179.729 79.133 179.87 79.3707Z" fill="black"/>
<path fill-rule="evenodd" clip-rule="evenodd" d="M183.537 86.9276C182.566 86.8708 181.568 86.9381 180.727 87.0014C180.452 87.0222 180.212 86.8157 180.191 86.5404C180.17 86.265 180.377 86.025 180.652 86.0042C181.491 85.941 182.55 85.8682 183.595 85.9293C184.632 85.9899 185.714 86.1847 186.572 86.6991C186.809 86.8411 186.885 87.1483 186.743 87.3851C186.601 87.6219 186.294 87.6986 186.057 87.5566C185.406 87.1657 184.515 86.9848 183.537 86.9276Z" fill="black"/>
<path fill-rule="evenodd" clip-rule="evenodd" d="M191.51 79.6159C191.722 79.7927 191.75 80.108 191.574 80.3201C189.993 82.2171 188.82 84.5821 187.681 86.8809C187.541 87.1632 187.401 87.4444 187.262 87.7236C187.138 87.9706 186.838 88.0707 186.591 87.9472C186.344 87.8237 186.244 87.5234 186.367 87.2764C186.505 87.0001 186.644 86.7195 186.785 86.436C187.916 84.1518 189.144 81.6741 190.805 79.6799C190.982 79.4678 191.298 79.4391 191.51 79.6159Z" fill="black"/>
<path fill-rule="evenodd" clip-rule="evenodd" d="M198.918 85.5214C199.113 85.7167 199.113 86.0333 198.918 86.2286C197.543 87.6032 196.501 89.4046 195.475 91.1785C195.315 91.4546 195.156 91.73 194.996 92.003C194.856 92.2412 194.55 92.321 194.312 92.1813C194.073 92.0416 193.994 91.7352 194.133 91.497C194.287 91.2341 194.443 90.9649 194.601 90.6917C195.62 88.9271 196.735 86.997 198.211 85.5214C198.406 85.3262 198.723 85.3262 198.918 85.5214Z" fill="black"/>
<path fill-rule="evenodd" clip-rule="evenodd" d="M194.802 89.6992C195.038 89.5545 195.346 89.6278 195.49 89.863C196.548 91.582 197.302 93.3205 197.915 95.2216C198 95.4844 197.856 95.7661 197.593 95.8509C197.33 95.9357 197.048 95.7914 196.964 95.5286C196.37 93.6893 195.647 92.0263 194.639 90.3871C194.494 90.1519 194.567 89.844 194.802 89.6992Z" fill="black"/>
<path fill-rule="evenodd" clip-rule="evenodd" d="M204.314 95.6099C204.323 95.8859 204.106 96.1164 203.83 96.1248C203.336 96.1397 202.839 96.158 202.34 96.1764C200.757 96.2348 199.15 96.294 197.551 96.2498C197.275 96.2422 197.057 96.0122 197.065 95.7362C197.072 95.4602 197.302 95.2426 197.578 95.2502C199.142 95.2934 200.704 95.2359 202.28 95.1779C202.785 95.1593 203.291 95.1406 203.799 95.1252C204.075 95.1169 204.306 95.3338 204.314 95.6099Z" fill="black"/>
<path fill-rule="evenodd" clip-rule="evenodd" d="M204.736 95.2522C205.011 95.278 205.213 95.5218 205.187 95.7968C205.075 96.9914 204.933 98.1796 204.791 99.3633C204.489 101.881 204.189 104.378 204.189 106.875C204.189 107.151 203.966 107.375 203.689 107.375C203.413 107.375 203.189 107.151 203.189 106.875C203.189 104.318 203.501 101.719 203.806 99.1694C203.946 98.0006 204.085 96.8423 204.192 95.7033C204.217 95.4284 204.461 95.2264 204.736 95.2522Z" fill="black"/>
<path fill-rule="evenodd" clip-rule="evenodd" d="M205.189 105.971C205.205 106.246 204.994 106.483 204.719 106.499C202.218 106.646 199.715 106.778 197.209 106.875C196.933 106.885 196.7 106.67 196.69 106.394C196.679 106.118 196.894 105.886 197.17 105.875C199.667 105.779 202.163 105.648 204.66 105.501C204.936 105.485 205.172 105.695 205.189 105.971Z" fill="black"/>
<path fill-rule="evenodd" clip-rule="evenodd" d="M198.522 103.42C198.774 103.535 198.884 103.832 198.769 104.083C197.606 106.628 196.117 108.968 194.641 111.289C194.381 111.698 194.12 112.107 193.863 112.517C193.715 112.75 193.407 112.82 193.173 112.673C192.939 112.526 192.869 112.217 193.016 111.984C193.279 111.567 193.542 111.153 193.804 110.741C195.281 108.418 196.727 106.145 197.86 103.667C197.975 103.416 198.271 103.306 198.522 103.42Z" fill="black"/>
<path fill-rule="evenodd" clip-rule="evenodd" d="M192.921 111.078C193.154 110.93 193.463 110.999 193.611 111.232C194.177 112.121 194.691 113.038 195.195 113.942C195.213 113.975 195.231 114.008 195.25 114.04C195.737 114.914 196.217 115.775 196.739 116.61C196.885 116.844 196.814 117.153 196.58 117.299C196.345 117.445 196.037 117.374 195.891 117.14C195.355 116.283 194.864 115.403 194.38 114.535C194.361 114.499 194.341 114.464 194.321 114.428C193.816 113.522 193.316 112.63 192.768 111.769C192.619 111.536 192.688 111.226 192.921 111.078Z" fill="black"/>
<path fill-rule="evenodd" clip-rule="evenodd" d="M185.803 116.895C185.861 117.165 185.689 117.431 185.419 117.489C182.727 118.066 180.334 118.215 177.583 117.614C177.313 117.555 177.142 117.288 177.201 117.018C177.26 116.748 177.527 116.578 177.796 116.637C180.372 117.2 182.615 117.067 185.21 116.511C185.48 116.453 185.746 116.625 185.803 116.895Z" fill="black"/>
<path fill-rule="evenodd" clip-rule="evenodd" d="M184.609 116.669C184.861 116.556 185.157 116.668 185.27 116.92C186.036 118.616 186.882 120.233 187.757 121.892C187.886 122.136 187.792 122.439 187.548 122.567C187.304 122.696 187.001 122.603 186.872 122.358C185.999 120.701 185.138 119.059 184.359 117.331C184.245 117.079 184.357 116.783 184.609 116.669Z" fill="black"/>
<path fill-rule="evenodd" clip-rule="evenodd" d="M196.231 116.848C196.384 117.077 196.322 117.388 196.092 117.541C195.997 117.604 195.903 117.667 195.808 117.73C193.084 119.547 190.286 121.413 187.277 122.828C187.027 122.945 186.73 122.838 186.612 122.588C186.495 122.338 186.602 122.04 186.852 121.923C189.792 120.541 192.535 118.711 195.276 116.883C195.363 116.825 195.45 116.767 195.537 116.709C195.767 116.556 196.077 116.618 196.231 116.848Z" fill="black"/>
<path fill-rule="evenodd" clip-rule="evenodd" d="M178.723 115.651C178.985 115.738 179.126 116.021 179.039 116.283C178.601 117.596 178.003 118.846 177.395 120.062C177.286 120.281 177.176 120.498 177.067 120.714C176.564 121.711 176.071 122.689 175.651 123.693C175.544 123.948 175.251 124.068 174.997 123.961C174.742 123.855 174.622 123.562 174.728 123.307C175.163 122.267 175.676 121.251 176.18 120.253C176.287 120.039 176.395 119.827 176.5 119.615C177.107 118.403 177.677 117.208 178.09 115.967C178.178 115.705 178.461 115.563 178.723 115.651Z" fill="black"/>
<path fill-rule="evenodd" clip-rule="evenodd" d="M172.161 111.89C172.36 112.081 172.366 112.398 172.175 112.597C170.848 113.976 169.669 115.447 168.47 116.942C167.971 117.565 167.468 118.192 166.95 118.819C166.774 119.031 166.459 119.061 166.246 118.885C166.033 118.709 166.003 118.394 166.179 118.181C166.676 117.58 167.167 116.968 167.66 116.353C168.871 114.843 170.095 113.317 171.454 111.903C171.645 111.704 171.962 111.698 172.161 111.89Z" fill="black"/>
<path fill-rule="evenodd" clip-rule="evenodd" d="M165.761 117.993C165.903 117.756 166.21 117.679 166.447 117.821C168.721 119.186 170.87 120.725 173.003 122.253C173.278 122.45 173.553 122.647 173.827 122.843C173.851 122.86 173.896 122.895 173.941 122.93C173.966 122.95 173.991 122.969 174.011 122.985C174.026 122.996 174.041 123.007 174.055 123.018C174.31 122.947 174.579 123.088 174.664 123.342C174.686 123.409 174.732 123.56 174.691 123.727C174.667 123.828 174.609 123.945 174.494 124.033C174.384 124.117 174.267 124.141 174.185 124.145C174.042 124.151 173.923 124.102 173.873 124.081C173.807 124.052 173.745 124.016 173.693 123.984C173.52 123.876 173.24 123.653 173.246 123.657C172.97 123.46 172.695 123.263 172.421 123.066C170.283 121.535 168.169 120.021 165.932 118.679C165.695 118.537 165.619 118.23 165.761 117.993ZM173.715 123.658C173.719 123.67 173.717 123.669 173.715 123.657C173.715 123.657 173.715 123.658 173.715 123.658ZM174.271 123.163C174.279 123.166 174.28 123.167 174.274 123.164C174.273 123.164 174.272 123.164 174.271 123.163Z" fill="black"/>
<path fill-rule="evenodd" clip-rule="evenodd" d="M168.609 107.507C168.882 107.462 169.139 107.647 169.183 107.92C169.463 109.645 170.321 111.55 171.543 112.772C171.738 112.967 171.738 113.283 171.543 113.479C171.348 113.674 171.031 113.674 170.836 113.479C169.439 112.081 168.503 109.971 168.196 108.08C168.152 107.808 168.337 107.551 168.609 107.507Z" fill="black"/>
<path fill-rule="evenodd" clip-rule="evenodd" d="M161.327 107.516C161.387 107.246 161.654 107.077 161.924 107.137C163.76 107.548 165.706 107.528 167.672 107.509C168.094 107.504 168.517 107.5 168.94 107.5C169.216 107.5 169.44 107.724 169.44 108C169.44 108.276 169.216 108.5 168.94 108.5C168.54 108.5 168.133 108.504 167.721 108.509C165.752 108.529 163.665 108.551 161.705 108.113C161.436 108.053 161.266 107.785 161.327 107.516Z" fill="black"/>
<path fill-rule="evenodd" clip-rule="evenodd" d="M161.709 97.7362C161.786 97.4709 162.063 97.3181 162.329 97.3948C164.74 98.0925 167.077 97.9478 169.628 97.629C169.902 97.5947 170.151 97.7891 170.186 98.0631C170.22 98.3371 170.026 98.587 169.752 98.6213C167.176 98.9432 164.668 99.1126 162.051 98.3554C161.785 98.2787 161.633 98.0014 161.709 97.7362Z" fill="black"/>
<path fill-rule="evenodd" clip-rule="evenodd" d="M162.572 97.3751C162.848 97.3791 163.069 97.6061 163.065 97.8822C163.046 99.1721 162.997 100.46 162.948 101.742C162.947 101.783 162.945 101.825 162.944 101.866C162.893 103.191 162.844 104.508 162.829 105.825C162.817 106.886 162.834 107.585 163.158 108.449C163.255 108.708 163.124 108.996 162.866 109.093C162.607 109.19 162.319 109.059 162.222 108.801C161.828 107.749 161.817 106.887 161.829 105.814C161.844 104.482 161.894 103.151 161.944 101.828C161.946 101.788 161.947 101.748 161.949 101.708C161.998 100.423 162.047 99.1456 162.065 97.8678C162.069 97.5916 162.296 97.3711 162.572 97.3751Z" fill="black"/>
<path fill-rule="evenodd" clip-rule="evenodd" d="M158.812 94.4216C158.994 94.2134 159.31 94.1916 159.518 94.373C160.896 95.5735 162.072 96.8354 163.288 98.1403L163.305 98.1591C163.494 98.3612 163.482 98.6776 163.28 98.8658C163.078 99.0541 162.762 99.0429 162.574 98.8409L162.572 98.8395C161.346 97.5229 160.2 96.2932 158.861 95.127C158.653 94.9456 158.631 94.6298 158.812 94.4216Z" fill="black"/>
<path fill-rule="evenodd" clip-rule="evenodd" d="M165.688 94.3418C165.707 94.6173 165.498 94.8555 165.223 94.8739C164.539 94.9195 163.878 94.9884 163.209 95.0582C162.788 95.1021 162.364 95.1463 161.929 95.1853C160.823 95.2844 159.692 95.3437 158.524 95.2484C158.249 95.2259 158.044 94.9846 158.066 94.7093C158.089 94.4341 158.33 94.2292 158.605 94.2517C159.69 94.3402 160.755 94.2864 161.84 94.1893C162.243 94.1532 162.655 94.1103 163.072 94.0669C163.759 93.9954 164.46 93.9225 165.156 93.8761C165.432 93.8578 165.67 94.0662 165.688 94.3418Z" fill="black"/>
<path fill-rule="evenodd" clip-rule="evenodd" d="M168.971 89.7094C169.132 89.9341 169.08 90.2464 168.855 90.4069C167.218 91.5767 166.362 93.5849 165.797 95.6331C165.723 95.8993 165.448 96.0555 165.181 95.982C164.915 95.9085 164.759 95.6331 164.833 95.367C165.409 93.2777 166.34 90.9746 168.274 89.5932C168.499 89.4327 168.811 89.4847 168.971 89.7094Z" fill="black"/>
<path fill-rule="evenodd" clip-rule="evenodd" d="M164.917 84.3306C165.149 84.1803 165.459 84.2462 165.609 84.4779C166.692 86.1468 167.593 87.8638 168.396 89.672C168.509 89.9243 168.395 90.2198 168.143 90.332C167.89 90.4441 167.595 90.3305 167.483 90.0781C166.696 88.3093 165.82 86.6399 164.77 85.0223C164.62 84.7906 164.686 84.481 164.917 84.3306Z" fill="black"/>
<path fill-rule="evenodd" clip-rule="evenodd" d="M164.604 84.43C164.712 84.1758 165.005 84.057 165.26 84.1648C166.354 84.6287 167.362 85.2183 168.337 85.7982C168.401 85.8363 168.465 85.8743 168.529 85.9123C169.443 86.4572 170.331 86.9861 171.274 87.4211C171.525 87.5369 171.634 87.8339 171.519 88.0847C171.403 88.3354 171.106 88.4448 170.855 88.3291C169.863 87.8711 168.932 87.3165 168.026 86.7771C167.959 86.7372 167.892 86.6973 167.826 86.6576C166.849 86.0763 165.894 85.5196 164.869 85.0855C164.615 84.9777 164.496 84.6843 164.604 84.43Z" fill="black"/>
<path fill-rule="evenodd" clip-rule="evenodd" d="M168.135 89.6196C168.276 89.3822 168.583 89.3042 168.82 89.4453C169.818 90.0386 170.848 90.5175 171.929 91.0203L171.96 91.0349C172.273 91.1803 172.607 91.3358 172.918 91.6465C173.113 91.8418 173.113 92.1584 172.918 92.3536C172.723 92.5489 172.406 92.5489 172.211 92.3536C172.039 92.1815 171.856 92.0892 171.534 91.9395L171.487 91.9176C170.42 91.4214 169.351 90.9242 168.309 90.3049C168.072 90.1638 167.994 89.857 168.135 89.6196Z" fill="black"/>
<path fill-rule="evenodd" clip-rule="evenodd" d="M164.777 94.0911C165.003 93.9322 165.314 93.9865 165.473 94.2123C166.589 95.7981 167.7 97.3037 169.043 98.6465C169.238 98.8418 169.238 99.1583 169.043 99.3536C168.848 99.5489 168.531 99.5489 168.336 99.3536C166.928 97.9456 165.775 96.3792 164.656 94.7878C164.497 94.562 164.551 94.2501 164.777 94.0911Z" fill="black"/>
<path fill-rule="evenodd" clip-rule="evenodd" d="M175.51 77.3976C175.635 77.6434 175.538 77.9446 175.292 78.0703C171.241 80.141 167.386 82.6214 164.719 86.2939C164.557 86.5173 164.244 86.5669 164.021 86.4047C163.797 86.2424 163.748 85.9297 163.91 85.7063C166.717 81.8408 170.742 79.2728 174.837 77.1799C175.083 77.0542 175.384 77.1517 175.51 77.3976Z" fill="black"/>
<path fill-rule="evenodd" clip-rule="evenodd" d="M172.874 77.6382C173.005 77.395 173.308 77.3039 173.551 77.4348C175.502 78.4846 177.466 79.4536 179.504 80.2873C179.759 80.3919 179.882 80.6838 179.777 80.9394C179.673 81.195 179.381 81.3174 179.125 81.2129C177.045 80.3618 175.048 79.3758 173.078 78.3154C172.834 78.1845 172.743 77.8813 172.874 77.6382Z" fill="black"/>
<path fill-rule="evenodd" clip-rule="evenodd" d="M184.815 83.5C183.093 83.5 181.44 83.5555 179.782 83.8664C179.51 83.9173 179.249 83.7386 179.198 83.4671C179.147 83.1957 179.326 82.9345 179.597 82.8836C181.349 82.5551 183.077 82.5 184.815 82.5C185.091 82.5 185.315 82.7239 185.315 83C185.315 83.2761 185.091 83.5 184.815 83.5Z" fill="black"/>
<path fill-rule="evenodd" clip-rule="evenodd" d="M184.211 82.4303C184.457 82.3042 184.758 82.4011 184.884 82.6468C185.708 84.2516 186.486 85.8792 187.259 87.4978C187.345 87.6768 187.43 87.8557 187.516 88.0344C187.635 88.2835 187.529 88.582 187.28 88.7012C187.031 88.8203 186.733 88.715 186.613 88.4658C186.528 88.2871 186.443 88.1084 186.357 87.9298C185.583 86.3093 184.811 84.6948 183.995 83.1034C183.869 82.8577 183.966 82.5564 184.211 82.4303Z" fill="black"/>
<path fill-rule="evenodd" clip-rule="evenodd" d="M188.413 76.1779C188.66 76.3014 188.76 76.6017 188.637 76.8487C188.246 77.6313 187.822 78.4095 187.403 79.1794C187.195 79.561 186.989 79.9405 186.788 80.3175C186.176 81.4656 185.604 82.6109 185.158 83.8007C185.061 84.0592 184.773 84.1902 184.514 84.0933C184.255 83.9963 184.124 83.7081 184.221 83.4495C184.691 82.1979 185.287 81.0069 185.905 79.8471C186.115 79.4534 186.326 79.0656 186.536 78.6802C186.95 77.92 187.359 77.1692 187.742 76.4015C187.866 76.1545 188.166 76.0544 188.413 76.1779Z" fill="black"/>
<path fill-rule="evenodd" clip-rule="evenodd" d="M188.61 76.2941C188.862 76.1809 189.157 76.2933 189.271 76.5452C189.987 78.1396 190.742 79.7055 191.514 81.2802C191.635 81.5282 191.533 81.8277 191.285 81.9492C191.037 82.0706 190.737 81.9681 190.616 81.7201C189.843 80.1427 189.082 78.5649 188.359 76.9551C188.245 76.7032 188.358 76.4072 188.61 76.2941Z" fill="black"/>
<path fill-rule="evenodd" clip-rule="evenodd" d="M190.628 80.2561C190.763 80.0151 191.067 79.9289 191.309 80.0637C193.185 81.1125 194.924 82.3773 196.636 83.622C197.086 83.9485 197.533 84.2737 197.98 84.5932C198.205 84.7537 198.257 85.066 198.096 85.2907C197.936 85.5154 197.624 85.5675 197.399 85.407C196.936 85.0764 196.479 84.7438 196.023 84.4127C194.317 83.1728 192.639 81.9534 190.821 80.9365C190.58 80.8018 190.493 80.4971 190.628 80.2561Z" fill="black"/>
<path fill-rule="evenodd" clip-rule="evenodd" d="M188.547 76.4397C188.719 76.2232 189.033 76.1866 189.25 76.3579C190.371 77.2452 191.573 77.9644 192.817 78.6629C193.114 78.8301 193.415 78.9966 193.718 79.1641C194.67 79.6912 195.64 80.2283 196.583 80.8282C196.816 80.9764 196.885 81.2855 196.736 81.5185C196.588 81.7514 196.279 81.8201 196.046 81.6719C195.132 81.09 194.199 80.5736 193.253 80.0499C192.945 79.8798 192.637 79.7089 192.327 79.5347C191.072 78.8299 189.814 78.0798 188.629 77.1421C188.413 76.9707 188.376 76.6563 188.547 76.4397Z" fill="black"/>
<path fill-rule="evenodd" clip-rule="evenodd" d="M195.778 80.4021C196.039 80.3127 196.323 80.452 196.413 80.7132C196.709 81.5783 197.087 82.4045 197.486 83.2441C197.544 83.3657 197.602 83.4877 197.66 83.6102C198.002 84.3264 198.352 85.0588 198.654 85.8144C198.756 86.0708 198.632 86.3618 198.375 86.4644C198.119 86.5669 197.828 86.4422 197.725 86.1858C197.436 85.4628 197.102 84.7633 196.76 84.0458C196.701 83.9221 196.642 83.7979 196.583 83.673C196.182 82.8302 195.782 81.9601 195.467 81.0371C195.377 80.7758 195.516 80.4915 195.778 80.4021Z" fill="black"/>
<path fill-rule="evenodd" clip-rule="evenodd" d="M195.936 89.194C196.174 89.0541 196.481 89.1337 196.621 89.3718C197.208 90.3712 197.79 91.3726 198.372 92.374C198.511 92.6128 198.429 92.9188 198.191 93.0575C197.952 93.1961 197.646 93.115 197.507 92.8761C196.926 91.8752 196.344 90.8755 195.758 89.8783C195.619 89.6402 195.698 89.3338 195.936 89.194Z" fill="black"/>
<path fill-rule="evenodd" clip-rule="evenodd" d="M198.333 91.1462C198.598 91.2256 198.748 91.5043 198.668 91.7688C198.249 93.1666 198.221 94.716 198.194 96.2677C198.192 96.3482 198.191 96.4288 198.189 96.5094C198.184 96.7855 197.956 97.0052 197.68 97C197.404 96.9949 197.184 96.767 197.19 96.4909C197.191 96.3983 197.193 96.305 197.195 96.2111C197.221 94.6949 197.25 93.0162 197.711 91.4815C197.79 91.217 198.069 91.0669 198.333 91.1462Z" fill="black"/>
<path fill-rule="evenodd" clip-rule="evenodd" d="M197.45 92.0231C197.506 91.7528 197.771 91.5793 198.042 91.6356C198.982 91.8315 199.933 91.9162 200.911 91.9866C201.063 91.9975 201.216 92.0081 201.369 92.0187C202.195 92.076 203.042 92.1347 203.885 92.2551C204.159 92.2942 204.349 92.5474 204.31 92.8208C204.27 93.0942 204.017 93.2841 203.744 93.2451C202.94 93.1302 202.135 93.0743 201.308 93.0169C201.153 93.0061 200.997 92.9953 200.84 92.984C199.857 92.9133 198.848 92.8251 197.838 92.6146C197.567 92.5583 197.394 92.2935 197.45 92.0231Z" fill="black"/>
<path fill-rule="evenodd" clip-rule="evenodd" d="M202.298 91.7018C202.532 91.5548 202.841 91.6251 202.988 91.8588C203.823 93.186 204.601 94.5254 205.374 95.877C205.511 96.1168 205.427 96.4222 205.188 96.5592C204.948 96.6962 204.642 96.6129 204.505 96.3731C203.735 95.0247 202.965 93.7001 202.141 92.3913C201.994 92.1575 202.065 91.8489 202.298 91.7018Z" fill="black"/>
<path fill-rule="evenodd" clip-rule="evenodd" d="M165.927 107.769C166.193 107.694 166.469 107.847 166.545 108.113C166.811 109.041 167.077 109.943 167.408 110.825C167.505 111.083 167.374 111.371 167.115 111.468C166.857 111.565 166.568 111.434 166.471 111.176C166.126 110.254 165.85 109.318 165.584 108.387C165.508 108.122 165.662 107.845 165.927 107.769Z" fill="black"/>
<path fill-rule="evenodd" clip-rule="evenodd" d="M165.386 109.868C165.528 109.631 165.835 109.554 166.072 109.696C166.503 109.955 166.94 110.242 167.375 110.528C167.414 110.555 167.454 110.581 167.494 110.607C167.972 110.921 168.449 111.232 168.935 111.515C169.91 112.084 170.879 112.518 171.87 112.628C172.144 112.659 172.342 112.906 172.311 113.18C172.281 113.455 172.034 113.653 171.759 113.622C170.562 113.489 169.45 112.974 168.431 112.379C167.92 112.081 167.422 111.756 166.945 111.443C166.906 111.417 166.867 111.391 166.828 111.366C166.389 111.077 165.969 110.801 165.557 110.554C165.32 110.412 165.244 110.105 165.386 109.868Z" fill="black"/>
<path fill-rule="evenodd" clip-rule="evenodd" d="M166.724 110.964C166.951 111.121 167.008 111.433 166.851 111.66C166.424 112.276 165.97 112.885 165.522 113.487C165.286 113.804 165.052 114.118 164.824 114.43C164.156 115.345 163.527 116.262 163.005 117.236C162.875 117.48 162.572 117.571 162.328 117.441C162.085 117.31 161.993 117.007 162.124 116.764C162.679 115.729 163.34 114.768 164.016 113.84C164.257 113.511 164.497 113.189 164.735 112.869C165.176 112.277 165.611 111.694 166.028 111.09C166.186 110.863 166.497 110.807 166.724 110.964Z" fill="black"/>
<path fill-rule="evenodd" clip-rule="evenodd" d="M163.191 116.042C163.375 115.836 163.691 115.818 163.897 116.002C164.322 116.381 164.798 116.805 165.305 117.164C165.816 117.525 166.319 117.791 166.788 117.885C167.058 117.939 167.234 118.202 167.18 118.473C167.126 118.744 166.862 118.919 166.591 118.865C165.922 118.731 165.284 118.374 164.728 117.98C164.168 117.585 163.652 117.124 163.234 116.751L163.231 116.748C163.025 116.564 163.008 116.248 163.191 116.042Z" fill="black"/>
<path fill-rule="evenodd" clip-rule="evenodd" d="M158.126 104.361C158.341 104.187 158.656 104.221 158.829 104.436C159.008 104.658 159.187 104.894 159.371 105.136C159.723 105.599 160.092 106.085 160.51 106.544C161.144 107.24 161.781 107.744 162.423 107.887C162.693 107.947 162.862 108.214 162.803 108.483C162.743 108.753 162.476 108.923 162.206 108.863C161.247 108.65 160.433 107.944 159.771 107.218C159.326 106.728 158.901 106.171 158.533 105.688C158.358 105.458 158.196 105.244 158.05 105.064C157.877 104.848 157.911 104.534 158.126 104.361Z" fill="black"/>
<path fill-rule="evenodd" clip-rule="evenodd" d="M158.436 93.5C158.712 93.4979 158.937 93.7201 158.939 93.9962C158.964 97.2322 159.003 100.448 159.257 103.655C159.312 104.35 159.389 104.986 159.55 105.629C159.616 105.897 159.454 106.168 159.186 106.235C158.918 106.302 158.646 106.139 158.579 105.871C158.399 105.15 158.317 104.451 158.26 103.734C158.003 100.487 157.964 97.2381 157.939 94.0038C157.937 93.7277 158.16 93.5021 158.436 93.5Z" fill="black"/>
<path fill-rule="evenodd" clip-rule="evenodd" d="M175.15 96.8766C175.425 96.8547 175.666 97.0602 175.688 97.3355C175.901 100.014 175.948 102.718 175.994 105.4C176.014 106.517 176.033 107.63 176.064 108.736C176.072 109.012 175.855 109.242 175.579 109.25C175.303 109.258 175.072 109.04 175.065 108.764C175.033 107.635 175.013 106.508 174.994 105.384C174.947 102.715 174.901 100.061 174.691 97.4146C174.669 97.1393 174.875 96.8984 175.15 96.8766Z" fill="black"/>
<path fill-rule="evenodd" clip-rule="evenodd" d="M173.79 104.824C173.957 104.603 174.27 104.56 174.491 104.726C175.524 105.505 176.528 106.301 177.528 107.093C179.627 108.756 181.701 110.399 183.957 111.828C184.19 111.975 184.26 112.284 184.112 112.518C183.964 112.751 183.655 112.82 183.422 112.672C181.121 111.215 178.976 109.516 176.854 107.836C175.865 107.052 174.881 106.273 173.888 105.524C173.668 105.358 173.624 105.044 173.79 104.824Z" fill="black"/>
<path fill-rule="evenodd" clip-rule="evenodd" d="M191.324 104.555C191.5 104.767 191.472 105.082 191.26 105.259C189.826 106.453 188.334 107.58 186.853 108.698C186.593 108.894 186.333 109.091 186.073 109.287C184.334 110.604 182.624 111.926 181.025 113.371C180.82 113.556 180.504 113.54 180.318 113.335C180.133 113.13 180.149 112.814 180.354 112.629C181.988 111.153 183.729 109.808 185.47 108.49C185.731 108.292 185.993 108.094 186.254 107.897C187.736 106.778 189.206 105.668 190.619 104.491C190.832 104.314 191.147 104.343 191.324 104.555Z" fill="black"/>
<path fill-rule="evenodd" clip-rule="evenodd" d="M191.35 93.5013C191.625 93.5206 191.833 93.7597 191.813 94.0351C191.679 95.9456 191.606 97.8635 191.532 99.7909C191.518 100.161 191.504 100.53 191.489 100.901C191.399 103.198 191.291 105.505 191.062 107.8C191.035 108.075 190.79 108.275 190.515 108.248C190.24 108.22 190.039 107.975 190.067 107.7C190.293 105.438 190.4 103.157 190.49 100.862C190.505 100.494 190.519 100.125 190.533 99.7568C190.606 97.8295 190.68 95.8929 190.816 93.9649C190.835 93.6895 191.074 93.4819 191.35 93.5013Z" fill="black"/>
<path fill-rule="evenodd" clip-rule="evenodd" d="M184.612 91.8575C184.76 92.0908 184.69 92.3997 184.457 92.5475C182.701 93.6598 181.038 94.9092 179.38 96.1941C179.008 96.4826 178.635 96.7733 178.262 97.0645C176.978 98.0661 175.686 99.0749 174.356 100.031C174.132 100.192 173.82 100.141 173.659 99.917C173.497 99.6929 173.548 99.3804 173.773 99.2192C175.084 98.2757 176.356 97.283 177.637 96.2836C178.013 95.9905 178.389 95.6969 178.767 95.4037C180.43 94.115 182.124 92.8415 183.922 91.7027C184.155 91.5549 184.464 91.6242 184.612 91.8575Z" fill="black"/>
<path fill-rule="evenodd" clip-rule="evenodd" d="M183.521 92.6022C183.671 92.3708 183.981 92.3054 184.212 92.4561C184.77 92.8194 185.336 93.176 185.905 93.5339C188.028 94.8713 190.179 96.2266 192.036 98.0149C192.235 98.2064 192.241 98.523 192.05 98.7219C191.858 98.9208 191.542 98.9268 191.343 98.7352C189.567 97.0252 187.528 95.7404 185.418 94.4101C184.838 94.0448 184.253 93.676 183.667 93.2941C183.435 93.1434 183.37 92.8336 183.521 92.6022Z" fill="black"/>
<path fill-rule="evenodd" clip-rule="evenodd" d="M186.085 93.3754C186.361 93.3869 186.576 93.6199 186.564 93.8958L186.561 93.9682C186.42 97.3609 186.278 100.749 186.189 104.138C186.182 104.414 185.952 104.632 185.676 104.625C185.4 104.618 185.182 104.388 185.19 104.112C185.279 100.715 185.42 97.3204 185.562 93.9302L185.565 93.8542C185.576 93.5783 185.809 93.3639 186.085 93.3754Z" fill="black"/>
<path fill-rule="evenodd" clip-rule="evenodd" d="M185.87 103.496C186.01 103.734 185.931 104.04 185.694 104.181C184.419 104.933 183.236 105.816 182.029 106.718C181.997 106.742 181.964 106.767 181.931 106.791C180.698 107.713 179.437 108.649 178.063 109.434C177.823 109.571 177.517 109.488 177.38 109.248C177.243 109.008 177.327 108.703 177.566 108.566C178.88 107.816 180.094 106.915 181.333 105.99C181.371 105.962 181.409 105.933 181.447 105.905C182.642 105.012 183.863 104.1 185.186 103.319C185.423 103.179 185.73 103.258 185.87 103.496Z" fill="black"/>
<path fill-rule="evenodd" clip-rule="evenodd" d="M184.724 103.317C184.826 103.06 185.116 102.934 185.373 103.035C186.327 103.411 187.314 103.725 188.319 104.045C188.458 104.089 188.597 104.134 188.736 104.178C189.878 104.543 191.036 104.926 192.143 105.418C192.395 105.53 192.509 105.826 192.396 106.078C192.284 106.331 191.989 106.444 191.737 106.332C190.684 105.864 189.573 105.495 188.432 105.131C188.294 105.087 188.156 105.043 188.017 104.998C187.015 104.68 185.994 104.355 185.006 103.965C184.749 103.864 184.623 103.574 184.724 103.317Z" fill="black"/>
<path fill-rule="evenodd" clip-rule="evenodd" d="M158.334 101.648C158.529 101.452 158.845 101.45 159.041 101.645C159.098 101.701 159.154 101.757 159.211 101.813C160.124 102.719 161.009 103.596 161.994 104.354C162.213 104.522 162.254 104.836 162.086 105.055C161.917 105.274 161.603 105.315 161.385 105.146C160.347 104.348 159.421 103.43 158.517 102.534C158.457 102.474 158.397 102.415 158.338 102.355C158.141 102.161 158.14 101.844 158.334 101.648Z" fill="black"/>
<path fill-rule="evenodd" clip-rule="evenodd" d="M157.981 97.1272C158.187 96.9432 158.503 96.9609 158.687 97.1668C159.514 98.0913 160.396 98.9408 161.293 99.805C161.749 100.244 162.209 100.688 162.668 101.146C162.863 101.342 162.863 101.658 162.668 101.854C162.473 102.049 162.156 102.049 161.961 101.854C161.531 101.423 161.085 100.994 160.636 100.561C159.722 99.6804 158.792 98.7844 157.942 97.8332C157.758 97.6274 157.775 97.3113 157.981 97.1272Z" fill="black"/>
<path fill-rule="evenodd" clip-rule="evenodd" d="M166.042 92.0713C166.21 91.8519 166.524 91.8101 166.743 91.9778C167.7 92.7098 168.607 93.5073 169.496 94.2893C169.671 94.4432 169.845 94.5966 170.019 94.7487C170.227 94.9306 170.248 95.2465 170.066 95.4543C169.884 95.6621 169.568 95.6832 169.36 95.5013C169.182 95.3454 169.005 95.1894 168.828 95.0339C167.939 94.2521 167.063 93.4813 166.136 92.7722C165.916 92.6045 165.875 92.2907 166.042 92.0713Z" fill="black"/>
<path fill-rule="evenodd" clip-rule="evenodd" d="M167.247 82.2681C167.375 82.0235 167.677 81.9291 167.922 82.0572C168.465 82.3418 169.039 82.5851 169.635 82.8376C169.724 82.8756 169.814 82.9137 169.905 82.9522C170.588 83.2431 171.293 83.5539 171.947 83.9464C172.184 84.0884 172.26 84.3956 172.118 84.6323C171.976 84.8691 171.669 84.9459 171.432 84.8038C170.843 84.4504 170.195 84.1628 169.513 83.8723C169.425 83.8349 169.337 83.7975 169.248 83.7599C168.655 83.5087 168.04 83.2482 167.458 82.943C167.213 82.8149 167.119 82.5127 167.247 82.2681Z" fill="black"/>
<path fill-rule="evenodd" clip-rule="evenodd" d="M170.339 79.5186C170.536 79.3249 170.852 79.3275 171.046 79.5243C171.513 79.9992 172.092 80.5673 172.714 81.0484C173.345 81.536 173.973 81.8969 174.538 82.0097C174.808 82.0639 174.984 82.3273 174.93 82.5981C174.876 82.8688 174.612 83.0444 174.341 82.9903C173.549 82.8319 172.773 82.3579 172.103 81.8396C171.424 81.3148 170.806 80.706 170.333 80.2257C170.139 80.0288 170.142 79.7123 170.339 79.5186Z" fill="black"/>
<path fill-rule="evenodd" clip-rule="evenodd" d="M186.639 78.4072C186.897 78.3099 187.185 78.4406 187.283 78.6991C187.513 79.3106 187.695 79.9589 187.87 80.5836C187.911 80.7294 187.951 80.8739 187.992 81.0163C188.211 81.7833 188.439 82.505 188.762 83.1515C188.885 83.3985 188.785 83.6989 188.538 83.8223C188.291 83.9458 187.991 83.8457 187.867 83.5987C187.499 82.8629 187.251 82.0638 187.03 81.291C186.987 81.1379 186.944 80.9861 186.902 80.8359C186.727 80.2144 186.56 79.6183 186.347 79.0512C186.249 78.7927 186.38 78.5044 186.639 78.4072Z" fill="black"/>
<path fill-rule="evenodd" clip-rule="evenodd" d="M199.581 91.887C199.851 91.8271 200.118 91.9971 200.178 92.2666C200.341 93.0031 200.478 93.7529 200.613 94.4922C200.677 94.8417 200.74 95.1888 200.806 95.5311C200.858 95.8023 200.68 96.0642 200.409 96.1162C200.137 96.1681 199.875 95.9904 199.823 95.7191C199.754 95.3582 199.689 95.0014 199.625 94.6472C199.492 93.9187 199.361 93.2016 199.201 92.4836C199.142 92.214 199.312 91.9469 199.581 91.887Z" fill="black"/>
<path fill-rule="evenodd" clip-rule="evenodd" d="M180.234 107.418C180.349 107.167 180.645 107.056 180.896 107.17C182.1 107.717 183.271 108.305 184.429 108.936C184.671 109.068 184.761 109.372 184.629 109.615C184.496 109.857 184.193 109.946 183.95 109.814C182.812 109.193 181.663 108.617 180.483 108.08C180.231 107.966 180.12 107.67 180.234 107.418Z" fill="black"/>
<path fill-rule="evenodd" clip-rule="evenodd" d="M183.186 105.174C183.366 104.964 183.682 104.941 183.891 105.121C184.879 105.973 186.086 106.665 187.327 107.019C187.592 107.095 187.746 107.372 187.67 107.637C187.594 107.903 187.318 108.057 187.052 107.981C185.654 107.581 184.321 106.812 183.238 105.879C183.029 105.699 183.005 105.383 183.186 105.174Z" fill="black"/>
<path fill-rule="evenodd" clip-rule="evenodd" d="M185.325 100.148C185.381 99.8778 185.646 99.7043 185.917 99.7606C186.639 99.9111 187.345 100.12 188.028 100.322C188.046 100.327 188.064 100.332 188.082 100.338C188.789 100.547 189.472 100.747 190.163 100.885C190.433 100.939 190.609 101.202 190.555 101.473C190.501 101.744 190.237 101.92 189.966 101.865C189.225 101.717 188.5 101.504 187.799 101.297C187.786 101.293 187.773 101.289 187.76 101.285C187.066 101.08 186.394 100.882 185.713 100.74C185.442 100.683 185.269 100.418 185.325 100.148Z" fill="black"/>
<path fill-rule="evenodd" clip-rule="evenodd" d="M185.691 96.7061C185.716 96.431 185.958 96.2277 186.233 96.252C186.993 96.319 187.731 96.4808 188.44 96.6524C188.602 96.6916 188.761 96.7311 188.92 96.7702C189.465 96.9051 189.993 97.0356 190.529 97.1331C190.801 97.1825 190.981 97.4428 190.931 97.7145C190.882 97.9862 190.622 98.1664 190.35 98.117C189.78 98.0133 189.212 97.8727 188.661 97.7365C188.508 97.6985 188.355 97.6608 188.205 97.6243C187.504 97.4548 186.827 97.3082 186.146 97.2481C185.87 97.2238 185.667 96.9812 185.691 96.7061Z" fill="black"/>
<path fill-rule="evenodd" clip-rule="evenodd" d="M164.501 112.76C164.633 112.518 164.937 112.429 165.179 112.561C166.389 113.222 167.444 114.137 168.442 115.002C168.634 115.168 168.825 115.333 169.014 115.494C169.224 115.674 169.249 115.989 169.07 116.199C168.891 116.41 168.576 116.435 168.365 116.256C168.163 116.083 167.963 115.911 167.765 115.739C166.767 114.875 165.806 114.044 164.7 113.439C164.457 113.306 164.368 113.003 164.501 112.76Z" fill="black"/>
<path d="M281 45C281 49.9706 276.971 54 272 54C267.029 54 263 49.9706 263 45C263 40.0294 267.029 36 272 36C276.971 36 281 40.0294 281 45Z" fill="white"/>
<path fill-rule="evenodd" clip-rule="evenodd" d="M280.895 34.7377C281.04 34.9727 280.967 35.2808 280.732 35.4257C274.971 38.9774 272.629 43.2707 271.693 46.4461C271.224 48.0388 271.107 49.3565 271.096 50.166C271.093 50.4101 271.099 50.6052 271.107 50.7454C271.109 50.7485 271.11 50.7515 271.111 50.7545C271.124 50.7923 271.133 50.8317 271.137 50.8717C271.143 50.9293 271.147 50.9792 271.149 51.0202C271.15 51.0404 271.151 51.0626 271.151 51.0846L271.151 51.0859C271.151 51.0985 271.15 51.1473 271.139 51.2021C271.135 51.219 271.128 51.251 271.112 51.289C271.101 51.3163 271.064 51.4057 270.972 51.4838C270.846 51.5901 270.656 51.6412 270.469 51.5698C270.334 51.5182 270.263 51.4247 270.243 51.3976C270.197 51.335 270.177 51.2751 270.172 51.2626L270.172 51.2614C270.164 51.2393 270.159 51.2202 270.156 51.2085C270.146 51.1658 270.139 51.1184 270.134 51.0802C270.129 51.0457 270.125 51.0048 270.121 50.9575C269.269 48.6472 267.979 46.9807 266.41 45.4457C266.213 45.2525 266.209 44.936 266.402 44.7386C266.595 44.5412 266.912 44.5377 267.109 44.7308C268.299 45.8946 269.358 47.1542 270.2 48.7077C270.291 47.9774 270.454 47.1151 270.734 46.1635C271.734 42.77 274.22 38.2655 280.207 34.5745C280.442 34.4295 280.75 34.5026 280.895 34.7377Z" fill="black"/>
<path fill-rule="evenodd" clip-rule="evenodd" d="M274.06 36.17C275.048 36.263 276.004 36.4774 276.85 36.805C278.295 37.3641 280.104 38.8187 281.244 40.8351C282.397 42.8734 282.88 45.5138 281.596 48.3965C280.438 50.9953 278.511 52.9174 276.182 53.8391C273.847 54.7631 271.148 54.6651 268.493 53.2933C265.799 51.9011 264.102 49.4887 263.575 46.4683C263.227 44.4776 263.669 41.9034 265.292 39.8204C266.128 38.7471 267.268 37.817 268.752 37.1639C268.786 37.0071 268.896 36.8698 269.056 36.8063C270.561 36.2118 272.346 36.0126 274.035 36.1677C274.043 36.1683 274.052 36.1691 274.06 36.17ZM273.977 37.1666C269.984 37.1722 267.5 38.6136 266.08 40.4351C264.644 42.2788 264.257 44.5625 264.56 46.2964C265.036 49.0264 266.551 51.1641 268.952 52.4049C271.366 53.6521 273.763 53.7207 275.814 52.9093C277.87 52.0955 279.617 50.3801 280.682 47.9895C281.818 45.4409 281.396 43.1349 280.373 41.3274C279.339 39.4981 277.703 38.2075 276.489 37.7376L276.489 37.7376C275.73 37.4438 274.869 37.2512 273.977 37.1666Z" fill="black"/>
<defs>
<radialGradient id="paint0_radial_1204_187864" cx="0" cy="0" r="1" gradientUnits="userSpaceOnUse" gradientTransform="translate(275.84 91.4194) rotate(73.0087) scale(27.6987 66.9208)">
<stop stop-color="#6FD43F" stop-opacity="0.43"/>
<stop offset="1" stop-color="#6FD43F" stop-opacity="0"/>
</radialGradient>
<radialGradient id="paint1_radial_1204_187864" cx="0" cy="0" r="1" gradientUnits="userSpaceOnUse" gradientTransform="translate(180.94 136.159) rotate(72.935) scale(31.0172 75.2589)">
<stop stop-color="#6FD43F" stop-opacity="0.43"/>
<stop offset="1" stop-color="#6FD43F" stop-opacity="0"/>
</radialGradient>
<radialGradient id="paint2_radial_1204_187864" cx="0" cy="0" r="1" gradientUnits="userSpaceOnUse" gradientTransform="translate(90.9399 95.1594) rotate(72.935) scale(31.0172 75.2589)">
<stop stop-color="#6FD43F" stop-opacity="0.43"/>
<stop offset="1" stop-color="#6FD43F" stop-opacity="0"/>
</radialGradient>
<linearGradient id="paint3_linear_1204_187864" x1="204.075" y1="16" x2="148.509" y2="244.957" gradientUnits="userSpaceOnUse">
<stop offset="0.262754" stop-color="#B2EEC0"/>
<stop offset="0.949452" stop-color="#62F91F" stop-opacity="0.69"/>
</linearGradient>
</defs>
</svg>
