<svg fill="none" viewBox="0 0 20 26" xmlns="http://www.w3.org/2000/svg"><path d="m.267394 13.9447c.038207.7193.849046.3806 1.201406.1598.35235-.2207.42452-.0342.47547-.4567.0313-.2756.04406-.5526.0382-.8296-.53499-.0491-1.072033.0737-1.515549.3463-.220753.1446-.632542.6013-.203772.7612" fill="#f6d2a2"/><path d="m.683974 14.4635c-.07934.001-.15784-.0147-.229244-.0457-.081676-.0422-.149193-.1034-.195494-.177-.046301-.0737-.069687-.1571-.067711-.2416-.052518-.0235-.0975698-.0585-.1309687-.1017-.0333989-.0433-.05406155-.0934-.06006802-.1457.01522072-.1267.06109422-.2488.13441772-.3579.073324-.1091.17233-.2026.290107-.2739.457994-.2826 1.013477-.4095 1.566497-.3577h.06368v.0571c.00887.2171.00178.4345-.02123.6508v.1903c-.02122.2968-.0849.3425-.25471.3805-.09059.0252-.17646.0624-.25472.1104-.24426.1692-.534409.2769-.840556.3121zm1.078296-1.5718c-.44584-.0062-.882529.1137-1.248106.3425-.09499.0588-.175605.1344-.236918.2221-.061314.0876-.102038.1856-.119683.2879.005211.0355.021525.0691.047063.0967s.059259.0482.097275.0593h.042453v.0419c-.006134.0661.007091.1324.038364.1925.031274.0601.079512.1118.139936.15.160799.0224.325113.0128.481356-.0279.15623-.0408.30059-.1118.42288-.2081.08857-.0556.18585-.0992.28868-.1293.11038-.0343.13585-.0419.15283-.2779v-.1903c.01987-.1897.02837-.3803.02547-.5708h-.1316z" fill="#010101"/><path d="m.267944 13.944c.121342-.024.232081-.0796.318391-.1598z" fill="#c7b199"/><path d="m.268276 14.0148c-.019703.0056-.041059.0039-.05937-.0047-.018312-.0086-.032077-.0233-.03827-.041-.006192-.0176-.004304-.0368.005249-.0532.009554-.0164.02599-.0287.045694-.0343h.050943c.089705-.0186.171067-.0611.233487-.1218.006133-.0072.013797-.0133.022556-.0179.00876-.0046.018442-.0076.028494-.0088.010052-.0013.020278-.0007.030093.0016s.019027.0063.027111.0118.01488.0124.020002.0202c.005121.0079.008467.0166.009847.0256s.000766.0182-.001806.027c-.002572.0087-.007052.017-.013185.0243-.080251.0826-.186986.1411-.305657.1674h-.055188z" fill="#010101"/><path d="m2.1186 5.38663c-3.069307-.76115-.78537-4.27388 1.6981-2.8353z" fill="#74cddd"/><path d="m2.15662 5.46333h-.05943c-.87452-.22074-1.413671-.68505-1.515558-1.3054-.036115-.33728.033337-.6769.20056-.98076s.425598-.55993.746138-.73947c.34822-.19749.75463-.29656 1.16647-.28435.41183.01222.81005.13516 1.14295.35286l.05943.03425zm.42453-3.18928c-.34838.00041-.6891.09165-.98066.26261-.29667.16504-.5361.40101-.691341.68138-.155245.28037-.220153.59401-.187423.90564.093396.55184.568864.97048 1.345744 1.1798l1.6132-2.72877c-.32631-.18296-.70197-.28294-1.08678-.28924z" fill="#010101"/><path d="m15.7542 2.28818c2.4283-1.522298 4.6231 1.90287 1.8 2.78961z" fill="#74cddd"/><path d="m17.5207 5.1612-1.8679-2.89239.0552-.03426c.3108-.22337.6889-.3586 1.0859-.38843.3969-.02983.7948.04711 1.1428.22098.3284.17239.597.42298.7761.72395s.2617.64055.2385.98104c-.0424.38058-.2717 1.03137-1.3712 1.37008zm-1.6642-2.85434 1.7321 2.68689c.3144-.07644.5967-.2341.8119-.45337.2151-.21926.3535-.49042.398-.77971.0222-.31534-.0537-.63001-.2194-.9089s-.4145-.51102-.7188-.6705c-.3103-.15946-.6664-.23265-1.0232-.21029-.3567.02236-.6981.13927-.9806.33588z" fill="#010101"/><path d="m16.2769 22.7881c.6155.3425 1.7448 1.3777.8193 1.88-.8873.7307-1.3882-.803-2.1693-1.0123.15-.2173.3466-.4059.5782-.5548.2317-.1489.494-.2553.7718-.3129z" fill="#f6d2a2"/><path d="m16.6249 24.9295h-.0339c-.3524-.019-.6411-.3273-.9213-.6203-.1936-.2526-.4568-.4558-.7641-.5899l-.1019-.0267.0637-.0951c.3158-.4516.8178-.773 1.3967-.8944h.0552c.3948.2208 1.2099.8601 1.2056 1.4386-.0024.1143-.0392.2259-.1065.323-.0672.0971-.1624.1762-.2756.2288-.1315.1364-.3174.2211-.5179.236zm-1.5792-1.3092c.288.1519.538.3552.7344.5975.1856.2733.4751.4774.8151.5747.0805-.0031.1594-.0205.2323-.0512s.1382-.0741.1922-.1277c.0926-.0406.1709-.1032.2263-.1811.0555-.0779.0859-.168.0879-.2604 0-.4643-.6538-1.0465-1.108-1.3091-.484.1115-.9036.3818-1.176.7573z" fill="#010101"/><path d="m17.0959 24.7415c-.0142 0-.028-.0037-.04-.0104s-.0217-.0163-.0279-.0276c-.0449-.0843-.0846-.1706-.1189-.2588-.0517-.1723-.1476-.3313-.2802-.4643-.0072-.0062-.013-.0137-.0171-.022-.004-.0082-.0062-.0171-.0064-.0261s.0016-.018.0053-.0264c.0036-.0084.0091-.016.0161-.0225s.0153-.0117.0245-.0153c.0092-.0037.0191-.0056.0292-.0058.01-.0002.02.0014.0294.0047.0093.0033.0179.0082.0251.0145.1466.1434.2541.3154.3142.5023.0333.083.0715.1643.1146.2436.0089.0161.0103.0348.0039.0519-.0063.0171-.0199.0312-.0378.0394z" fill="#010101"/><path d="m5.25134 23.9565c-.72594.099-1.13348.6851-1.73631.9819-.06325.0524-.13985.09-.2231.1096-.08325.0197-.1706.0207-.25439.0031-.0838-.0177-.1615-.0535-.22627-.1043-.06478-.0508-.11466-.1151-.14529-.1873-.04213.0009-.08393-.0068-.1222-.0227-.03826-.0158-.07198-.0393-.09855-.0686-.52641-.7612.54764-1.2902 1.11226-1.6631.79386-.137 1.28206.4681 1.69385.9514z" fill="#f6d2a2"/><path d="m3.1337 25.12c-.04509.0053-.09077.0053-.13585 0-.07968-.0232-.15339-.0603-.21682-.1093s-.11528-.1089-.15252-.1762c-.041-.0002-.08132-.0094-.11753-.0266-.03622-.0172-.06726-.042-.09049-.0723-.50943-.7193.3566-1.2635.92971-1.6251l.19953-.1294c.80236-.1446 1.31179.4491 1.71933.9286l.11463.137h-.12736c-.40967.0878-.78252.2793-1.07405.5519-.19553.1611-.4089.3039-.63679.4262-.12604.0625-.26775.0953-.41179.0952zm-.50944-.4415c.02937-.0058.05979-.0058.08915 0h.02123l.03396.0609c.02761.0538.06702.1021.11589.142.04886.0399.10619.0705.16855.0901.14937.0202.30161-.0126.42452-.0913.22017-.118.42642-.2557.61557-.411.28655-.2568.63729-.4486 1.0231-.5595-.39056-.4567-.84905-.9514-1.51556-.8373l-.19103.1218c-.58585.3806-1.31179.8297-.89151 1.4348.00942.0143.02234.0266.03777.0358.01544.0092.03301.0152.05138.0175z" fill="#010101"/><path d="m2.67859 24.8315c-.01259.0007-.02516-.0015-.0366-.0062-.01143-.0048-.02138-.012-.02894-.021-.00757-.0091-.01252-.0197-.01442-.0308-.00189-.0112-.00068-.0226.00355-.0333.0313-.1828.11628-.3549.24622-.4986.06146-.0755.11544-.1557.16132-.2397.00845-.0167.02393-.0296.04303-.0361.01911-.0064.04028-.0057.05886.0018.01858.0076.03304.0215.0402.0386.00717.0171.00645.0361-.00199.0528-.0493.0919-.10754.1798-.17406.2626-.11209.1293-.18387.2829-.20802.4452-.00045.0098-.0032.0193-.00807.028-.00488.0087-.01176.0163-.0202.0224-.00843.0062-.01822.0106-.02872.0131-.0105.0024-.02146.0029-.03216.0012zm-.43301-20.41412c-.42453-.19029-.70047-.45288-.45425-.87152.24623-.41863.65377-.34632 1.06132-.15604zm14.66732-.36535c.4246-.19029.7005-.45289.4543-.87152-.2462-.41864-.6538-.34633-1.0613-.15604z" fill="#010101"/><path d="m19.7032 13.8539c-.0383.7193-.8491.3806-1.2014.1598-.3524-.2207-.4246-.0342-.4755-.4567-.0313-.2756-.0441-.5526-.0382-.8296.535-.0491 1.072.0736 1.5155.3463.2208.1446.6326.6013.2038.7612" fill="#f6d2a2"/><path d="m19.2868 14.36c-.2917-.0284-.5707-.1227-.8108-.274-.0783-.048-.1641-.0852-.2547-.1103-.1698-.0533-.2335-.099-.2547-.3806v-.1903c-.023-.2163-.0301-.4337-.0213-.6508v-.0913h.0637c.5531-.0518 1.1085.0751 1.5665.3577.1178.0713.2168.1647.2901.2739.0734.1091.1192.2312.1345.3579-.0061.0523-.0267.1024-.0601.1457-.0334.0432-.0785.0782-.131.1016.002.0846-.0214.168-.0677.2416-.0463.0737-.1138.1348-.1955.1771-.0808.0338-.17.0483-.259.0418zm-1.2353-1.5679c-.0029.1905.0056.3811.0255.5708v.1903c0 .2322.0382.2398.1528.2778.1028.0302.2001.0738.2887.1294.1221.0965.2664.1676.4227.2084s.3207.0502.4815.0276c.0604-.0382.1087-.09.1399-.15.0313-.0601.0445-.1265.0384-.1925v-.0457h.0424c.0381-.0112.0718-.0317.0973-.0594.0256-.0276.0419-.0611.0471-.0966-.0177-.1023-.0584-.2003-.1197-.288-.0613-.0876-.1419-.1632-.2369-.222-.4022-.2538-.8888-.3773-1.3797-.3501z" fill="#010101"/><path d="m19.7021 13.8506c-.1199-.0209-.2305-.0725-.3184-.1485z" fill="#c7b199"/><path d="m19.7023 13.9225h-.0806c-.1189-.0339-.2229-.1005-.2972-.1903-.0061-.0072-.0106-.0155-.0132-.0243s-.0032-.0179-.0018-.027c.0014-.009.0047-.0177.0098-.0255.0052-.0079.012-.0147.02-.0202.0081-.0055.0173-.0095.0272-.0118.0098-.0023.02-.0029.03-.0017.0101.0013.0198.0043.0285.0089.0088.0046.0165.0106.0226.0179.0624.0607.1438.1031.2335.1218h.0509c.0225.0035.0426.0149.0557.0317s.0183.0375.0144.0577c-.004.0202-.0167.0382-.0354.0499-.0187.0118-.0419.0164-.0644.0129z" fill="#010101"/><path d="m9.67972.831055c3.07358 0 5.94338.380575 7.45468 3.044615 1.3457 2.96469.849 6.16533 1.074 9.29753.1783 2.6906.5689 5.7999-.8235 8.2965-1.4562 2.6184-5.1326 3.2692-8.14668 3.1817-2.36886-.0762-5.23016-.7612-6.56741-2.7098-1.57075-2.2834-.82783-5.6629-.7132-8.1938.13584-2.9989-.90849-6.00928.19103-8.94733 1.14198-3.04461 4.21554-3.73346 7.52684-3.969415" fill="#74cddd"/><path d="m9.76061 24.7412h-.52642c-1.26542-.0319-2.51566-.2558-3.69761-.6622-1.20337-.3911-2.23273-1.1216-2.93347-2.0818-1.27358-1.842-1.04434-4.3842-.84906-6.6296.05095-.5633.09765-1.0999.11887-1.6023.0225-1.0649-.02854-2.13-.15283-3.1892-.1783-1.90288-.36509-3.87046.34811-5.77716.23011-.66987.61312-1.28951 1.12471-1.81955.51159-.53005 1.14057-.9589 1.84697-1.25931 1.14622-.50236 2.54716-.791602 4.6061-.936221 3.03112-.019029 6.01982.361551 7.55652 3.059841.9849 2.16929.9977 4.49842 1.0147 6.7514 0 .8449 0 1.7164.0679 2.5689 0 .2588.0339.5214.0552.784.1783 2.47.382 5.2748-.8873 7.543-1.5877 2.8391-5.5783 3.2502-7.69239 3.2502zm-.08066-23.839362c-3.19668.243572-6.3127.860102-7.45892 3.923752-.70471 1.88005-.51792 3.8324-.34386 5.70861.1247 1.0643.17574 2.1345.15283 3.2045-.02123.5062-.07217 1.0428-.11887 1.6098-.19528 2.2226-.42453 4.7458.81933 6.546.52217.7611 2.20329 2.5384 6.50798 2.664 1.86366.0609 6.36786-.1294 8.06596-3.1512 1.2481-2.2378 1.0486-5.0198.8703-7.4745 0-.2664-.0382-.529-.0552-.784-.0467-.8297-.0679-1.705-.0679-2.5499 0-2.23776-.0255-4.56689-1.0019-6.69812-.6281-1.15853-1.7399-2.04864-3.0948-2.47755-1.3813-.39122-2.8272-.56756-4.27495-.521392z" fill="#010101"/><path d="m10.2188 4.52955c.5519 2.87336 5.7905 2.11601 5.0391-.78399-.675-2.59934-5.2217-1.88005-5.0391.78399z" fill="#fff"/><path d="m12.7101 6.40527c-.3264.00123-.6506-.04636-.9595-.14081-.4202-.12463-.7931-.35211-1.0767-.65676-.2836-.30466-.4664-.67433-.528-1.06726-.0285-.30758.0157-.61709.1299-.90828.1141-.29119.2955-.5575.5324-.78149.4543-.41785 1.0526-.68604 1.6981-.76115.5916-.08394 1.1975.00972 1.7235.2664.2807.14694.5236.34522.7131.58194.1894.23672.3211.50656.3865.79195.1142.36083.1136.74313-.002 1.10364-.1155.3605-.3413.68482-.6518.93626-.5478.41817-1.2461.644-1.9655.63556zm-2.4156-1.88386c.0581.36872.23.71555.4963 1.00134.2663.2858.6164.4992 1.0108.61612.4698.14085.9721.17143 1.4589.08882s.9418-.27567 1.3217-.56074c.2862-.23675.4941-.5395.6012-.87512s.1091-.69118.0059-1.02777c-.1303-.51759-.4812-.96896-.9778-1.25769-.4966-.28872-1.0995-.39189-1.6797-.28746-.6333.0486-1.2207.31595-1.6382.74559-.4174.42963-.6323.98791-.5991 1.55691z" fill="#010101"/><path d="m3.95729 4.99571c.7132 2.50039 5.17922 1.85721 5.01365-.65078-.19953-3.00656-5.69714-2.4395-5.01365.65078z" fill="#fff"/><path d="m6.34339 6.64339c-.45409.00305-.90192-.09502-1.30329-.28543-.28732-.13959-.5384-.33216-.73669-.56503-.1983-.23287-.33932-.50075-.41377-.78602-.11071-.38929-.09435-.7989.04714-1.1801.14149-.38119.40215-.71793.75097-.97015.42176-.2885.92098-.47209 1.44724-.53223.52625-.06014 1.06089.0053 1.5499.18971.39779.15592.73727.41095.97809.73478s.37285.70285.38039 1.09199c.08915 1.33201-1.09103 2.10839-2.22026 2.28345-.15912.01744-.3195.0238-.47972.01903zm-2.30092-1.66312c.14694.52903.5199.98509 1.03847 1.26986.51858.28477 1.14122.37544 1.73368.25245 1.0698-.15223 2.1863-.88294 2.10139-2.13503-.00512-.36619-.12801-.72328-.35392-1.02841s-.54523-.54534-.91965-.6918c-.46495-.17495-.97316-.23681-1.47332-.17935-.50015.05747-.97454.23224-1.37524.50665-.32452.23602-.56747.5499-.70052.90502-.13304.35512-.1507.73684-.05089 1.10061z" fill="#010101"/><path d="m10.8343 7.99404c.0408.39623.0408.79499 0 1.19122-.1243.14105-.3003.23812-.4967.27401-.1208-.01663-.2351-.06019-.3322-.12669-.09721-.06649-.1742-.15379-.22395-.25389-.02727-.44927-.01449-.89979.0382-1.34724z" fill="#fff"/><path d="m10.3841 9.51712h-.0213c-.1349-.01879-.2623-.06815-.37-.14341-.10772-.07525-.19223-.17391-.24553-.28663-.03526-.30746-.03526-.61734 0-.9248 0-.14081.02547-.28923.02972-.43385v-.11417l1.14621.31587v.0647c0 .12178 0 .25118.0212.38057.0383.27167.0383.54657 0 .81824v.01903c-.0445.06512-.1031.12158-.1724.16604-.0692.04445-.1478.07599-.2309.09275l-.1316.04566zm-.49249-.47952c.04247.08692.10799.16321.19089.22224.0828.05903.1805.09902.2846.11647l.1188-.04186c.128-.02761.239-.09853.3099-.1979.0337-.25282.0337-.50833 0-.76115 0-.11797 0-.23215-.0212-.34632l-.84903-.23215c0 .11798 0 .23596-.02547.35013-.03761.29444-.04188.59153-.01274.88674z" fill="#010101"/><path d="m5.18797 5.32058c.41734 0 .75565-.32885.75565-.73451s-.33831-.73451-.75565-.73451-.75566.32885-.75566.73451.33832.73451.75566.73451z" fill="#010101"/><path d="m5.53182 4.93839c.09847 0 .1783-.08349.1783-.18648s-.07983-.18648-.1783-.18648c-.09848 0-.1783.08349-.1783.18648s.07982.18648.1783.18648z" fill="#fff"/><path d="m11.5136 5.13797c.4103 0 .7429-.32885.7429-.73451s-.3326-.73451-.7429-.73451c-.4104 0-.743.32885-.743.73451s.3326.73451.743.73451z" fill="#010101"/><path d="m11.849 4.75678c.0962 0 .1741-.0835.1741-.1865 0-.10299-.0779-.18649-.1741-.18649-.0961 0-.174.0835-.174.18649 0 .103.0779.1865.174.1865z" fill="#fff"/><path d="m8.71198 7.93858c-.33113.71549.18255 2.14652 1.07829 1.09227-.02726-.44928-.01449-.8998.03821-1.34726z" fill="#fff"/><path d="m9.17408 9.47535c-.07763.00067-.15398-.01776-.22075-.05328-.36085-.18648-.58585-.95144-.33113-1.52231v-.03044l1.27358-.28924v.09134c0 .14842 0 .29685-.02972.43766-.03457.29858-.03457.59957 0 .89816v.04948c-.06876.1149-.1677.21306-.28826.286-.12056.07293-.25913.11846-.40372.13263zm-.42028-1.48044c-.18254.44527-.0382 1.14173.28019 1.30537.22924.11798.48396-.08753.66226-.29304-.0323-.29869-.0323-.59947 0-.89816 0-.11037 0-.22835.02547-.34252z" fill="#010101"/><path d="m8.80896 6.55942c-.1531.01306-.30055.05849-.43026.13257-.1297.07409-.23795.1747-.31585.29357-.0779.11888-.12324.25263-.13228.39026-.00903.13763.01848.27523.08028.40148.42453.68506 1.36698-.0609 1.95282 0 .67503 0 1.23113.63938 1.77453.11417.6028-.5861-.259-1.14176-.934-1.41198z" fill="#f6d2a2"/><path d="m11.2586 8.18296c-.2158-.01611-.4262-.06907-.6198-.15604-.2099-.09293-.4374-.14973-.67073-.16745-.24313-.00009-.48346.04664-.70471.137-.47547.14843-1.01461.31588-1.32027-.17506-.07584-.12221-.11564-.25975-.11564-.3996s.0398-.27739.11564-.3996c.08245-.14304.20315-.26552.35131-.35651.14817-.09098.31918-.14763.49774-.16488l2.04196-.07992c.5009.19029 1.0741.53661 1.1717.94002.0148.09849.0069.19865-.0232.29429s-.0818.18473-.1518.26177-.1569.14039-.2554.18614c-.0984.04575-.2062.07292-.3168.07984zm-1.27355-.4605c.25105.01826.49585.07895.72165.17887.3821.14462.6835.25499.9892-.04186.0698-.05749.1223-.12981.1527-.21029.0305-.08047.0378-.16652.0213-.25021-.0849-.35012-.624-.66981-1.0655-.83726l-1.97406.07231c-.15193.01669-.29704.0663-.42278.14454-.12575.07825-.22834.18277-.29891.30454-.06281.10196-.09575.21653-.09575.333s.03294.23104.09575.333c.24198.38058.675.25499 1.13773.11417.23235-.09323.48411-.14122.73867-.14081z" fill="#231f20"/><path d="m8.71094 6.53528c-.0467-.95145 1.98256-1.07324 2.22026-.27402s-2.12262.9819-2.22026.27402z" fill="#010101"/></svg>