<svg fill="none" viewBox="0 0 33 36" xmlns="http://www.w3.org/2000/svg"><g fill="#8cc84b"><path d="m15.5084 1.01798c.8768-.49681 2.0188-.499054 2.8948 0 4.4071 2.46524 8.8156 4.92661 13.222 7.39334.8288.46215 1.3832 1.37524 1.3747 2.32058v14.8318c.0062.9846-.603 1.9195-1.4773 2.3712-4.3927 2.4516-8.7831 4.9062-13.1749 7.3579-.8949.5065-2.0598.4675-2.9268-.0806-1.3169-.7557-2.6361-1.5077-3.9531-2.2627-.2691-.1589-.5725-.2853-.7626-.5436.168-.2241.4684-.2521.7125-.3499.5497-.1731 1.0545-.4508 1.5595-.7204.1277-.0865.2837-.0533.4061.0241 1.1261.6392 2.2423 1.2969 3.3722 1.93.241.1378.4851-.0451.6911-.1588 4.3105-2.4118 8.6263-4.8144 12.9361-7.2269.1597-.0761.248-.2439.235-.4171.003-4.8927.0008-9.7862.0015-14.6789.0183-.1965-.0966-.3771-.276-.4576-4.3774-2.44038-8.7526-4.88455-13.1292-7.3256-.0758-.0516-.1657-.07929-.2577-.07943-.092-.00013-.1819.0273-.2579.07869-4.3766 2.44179-8.75103 4.8882-13.12768 7.32854-.17883.0805-.29885.2582-.27757.4554.00076 4.8927 0 9.7862 0 14.6797-.00758.0845.01116.1693.05372.2429.04255.0736.10688.1325.1843.1689 1.16793.6556 2.33737 1.3067 3.50606 1.9601.65839.3508 1.46677.5592 2.19216.2904.64014-.2272 1.08881-.8739 1.07661-1.5468.0061-4.8641-.003-9.729.0046-14.5924-.016-.2159.1909-.3943.4029-.374.5612-.0037 1.1231-.0075 1.6843.0015.2343-.0052.3955.2273.3665.4448-.0023 4.895.006 9.79-.0038 14.685.0015 1.3045-.5399 2.724-1.7588 3.3623-1.50167.7701-3.35771.6068-4.84124-.1316-1.28429-.6346-2.5099-1.3835-3.7714-2.0633-.87664-.4492-1.482769-1.3879-1.476598-2.3716v-14.832c-.009193-.96491.567218-1.89458 1.421818-2.35 4.39189-2.45364 8.78302-4.90915 13.17412-7.36392z"/><path d="m19.1503 10.9031c1.8444-.1252 3.8189-.0742 5.4786.8847 1.285.7348 1.9974 2.2769 2.0201 3.7834-.0359.2032-.2372.3153-.4211.3014-.5351-.0008-1.0703.0077-1.6055-.0039-.227.0093-.3589-.2116-.3874-.4234-.1538-.7208-.5263-1.4348-1.1692-1.7824-.9869-.5215-2.1313-.4953-3.2075-.4844-.7856.044-1.6305.1158-2.2961.6034-.511.3693-.6662 1.1148-.4838 1.7152.1719.4311.6435.5702 1.0294.6985 2.2227.6134 4.5781.5524 6.7584 1.3597.9026.3292 1.7857.969 2.0947 1.9664.4041 1.3367.227 2.9345-.6743 4.0076-.7308.8831-1.7952 1.3637-2.8569 1.6248-1.4123.3323-2.878.3408-4.3123.1932-1.3487-.1622-2.7522-.5362-3.7933-1.5059-.8903-.8158-1.3252-2.0869-1.282-3.3137.0103-.2071.2058-.3516.3939-.3346.5389-.0046 1.0777-.0061 1.6166.0008.2153-.0163.3749.18.3859.3941.0994.6868.344 1.4076.9115 1.8148 1.0952.7457 2.4695.6946 3.7236.7155 1.039-.0486 2.2053-.0634 3.0531-.788.4474-.4134.5799-1.1049.459-1.6998-.131-.5023-.6289-.7363-1.0564-.8894-2.1943-.7325-4.576-.4667-6.749-1.295-.8822-.329-1.7352-.951-2.0742-1.9075-.4729-1.3536-.2562-3.0279.7395-4.0648.9708-1.0314 2.3722-1.4286 3.7047-1.5708z"/></g></svg>