<svg fill="none" viewBox="0 0 157 178" xmlns="http://www.w3.org/2000/svg" xmlns:xlink="http://www.w3.org/1999/xlink"><clipPath id="a"><path d="m12 0h132v120h-132z"/></clipPath><g clip-path="url(#a)"><g clip-rule="evenodd" fill="#000" fill-rule="evenodd"><path d="m81.4285 53.2459c1.3852.9724 2.4685 2.8645 4.2989.8874 1.9686 1.1424 3.3009 2.8628 4.8703 4.3129 2.8948 2.669 5.8119 5.321 8.729 7.9696 1.0863.9843 2.2343 1.9023 3.2833 2.9223.956.9282 1.007 2.2542 1.352 3.451.124.4403.296 1.0217.638 1.2257 3.483 2.0825 6.173 5.1153 9.322 7.5922 3.699 2.9104 7.479 5.7171 11.25 8.534 2.141 1.598 4.333 3.1433 6.51 4.6954 1.452 1.0336 2.98 1.9703 4.364 3.0889 1.469 1.1798 2.864.7123 4.266.0476 2.134-1.0115 3.383-2.8441 4.338-4.9079.265-.5746.445-1.1917.625-1.802.757-2.5959.445-3.349-1.691-4.9623-4.009-3.0294-7.987-6.0962-11.951-9.1834-4.32-3.3592-8.63-6.7286-12.888-10.1592-1.235-.9979-2.395-2.1284-3.38-3.3643-.733-.918-1.581-1.3362-2.627-1.1883-2.028.2822-3.495-.5627-4.964-1.8411-3.021-2.6265-6.143-5.1391-9.2576-7.65-1.2829-1.0336-2.6697-1.9465-4.014-2.9053-1.4585-1.0421-2.6424-2.2661-3.4851-3.9117-.4913-.9571-1.5745-1.6218-2.2808-2.3086.8428-3.0056 1.8458-5.8276 2.378-8.7329.3941-2.159.3207-4.4302.2116-6.647-.2167-4.5254-1.7673-8.653-4.043-12.5562-1.7161-2.9427-3.8689-5.4927-6.4175-7.74011-.0955-.0833-.1621-.204-.2644-.272-3.4391-2.2797-6.6274-4.9249-10.4366-6.6334-2.0948-.936702-4.2425-1.2784003-6.5113-1.1951003-3.0399.1122003-6.0628-.1495997-9.1009.6783003-2.9342.8041-5.5612 2.21-8.2445 3.4867-3.0843 1.4637-5.6619 3.6414-7.5571 6.53311-.6926 1.0608-1.2982 2.1845-1.9788 3.2538-2.1102 3.3099-2.4685 7.1383-3.1969 10.8443-.7352 3.7094-.7898 7.4851-.0597 11.1826.7438 3.7995 1.9533 7.4256 4.582 10.5111 1.9482 2.2865 3.8622 4.539 6.2743 6.3529 2.3609 1.7697 4.9556 3.1161 7.7276 4.0494 4.4643 1.5062 9.1009 1.8513 13.7818 1.5946 1.0747-.0595 2.1512-.2601 3.1986-.5219 1.9737-.4879 3.9474-.9894 5.8767-1.6235 1.3801-.4556 2.6987-1.1067 4.0157-1.7323.8461-.4029 1.6444-.9197 2.4564-1.3753zm22.9785 17.8262c4.527-.6885 6.376-3.7315 7.129-7.7061 1.395-.1071 2.475.3298 3.388 1.2036.641.6205 1.209 1.3175 1.886 1.8955 1.935 1.6507 3.883 3.2912 5.867 4.8807 3.867 3.111 7.739 6.2118 11.653 9.2599 2.813 2.1879 5.709 4.2704 8.543 6.4277 1.603 1.224 1.91 2.0774 1.293 3.961-.372 1.1339-.949 2.2032-1.466 3.2861-.731 1.5215-1.975 2.4939-3.572 2.9376-.558.1615-1.315.1734-1.805-.0833-1.634-.8415-3.254-1.7493-4.762-2.7965-3.19-2.21-6.367-4.4455-9.429-6.8221-4.522-3.5054-8.942-7.1468-13.394-10.7355-.691-.5559-1.326-1.1798-2.013-1.7425-1.273-1.0404-2.641-2.0009-3.318-3.9661zm-70.3696-39.1663c.0939-1.4569.1979-2.9121.2696-4.3724.2507-5.3584 1.7638-10.37 4.5513-14.9243 1.6171-2.64351 3.5687-5.11191 6.525-6.51781 1.7212-.816 3.4202-1.6915 5.0852-2.6163 2.6748-1.4892 5.5799-2.091 8.5857-2.312 1.5251-.1122 3.0638-.205699 4.5888-.1496 1.9567.0629 3.9406.0408 5.7778.9741 2.8472 1.4518 5.5152 3.1484 8.1371 4.981 4.0464 2.8203 7.3745 6.20161 9.5871 10.63691 2.1016 4.2143 3.381 8.6326 3.3486 13.3688-.0324 4.3316-1.1685 8.4065-3.1149 12.2621-.5152 1.02-1.1157 1.9975-1.665 3.0005-2.5793 4.7158-6.4994 7.7418-11.6494 9.2174-2.0761.595-4.1726 1.1458-6.2606 1.7-.6159.1615-1.2556.3944-1.8731.3672-2.5281-.1224-5.0511-.3893-7.5843-.5015-4.3262-.1904-8.277-1.6864-11.8627-3.8913-3.7735-2.3205-6.7656-5.6185-9.0839-9.3908-2.2074-3.5921-3.1183-7.6228-3.3623-11.832zm56.6302 16.2486c.2985.1955.7352.4437 1.1293.7531 3.6608 2.8611 7.3302 5.7035 10.9481 8.6139 1.974 1.5861 3.881 3.264 5.771 4.9487 1.331 1.1849 1.655 2.5636.986 3.9287-.605 1.2308-1.564 2.1607-2.767 2.7999-1.119.595-2.124.5083-3.152-.3876-1.624-1.4246-3.374-2.7047-5.0649-4.0562-.4521-.3553-.8973-.7157-1.3084-1.1118-3.1082-3.0124-6.2094-6.0248-9.2937-9.0627-.4333-.4267-.7523-.9707-1.0355-1.3464 1.3272-1.785 2.5367-3.4051 3.7871-5.0796zm-7.9579 4.3401c1.8867-2.6639 3.6847-5.202 5.4878-7.7486 1.7008 1.4382 1.653 1.4875.9894 3.2453-.8495 2.2474-2.6868 3.621-4.379 5.1119-.8188.7208-1.1071.5712-2.0982-.6086z"/><path d="m36.1528 29.2792c-.087 3.5037.6909 6.8442 1.9055 10.0691 1.914 5.0796 5.4776 8.8247 10.0425 11.6331 3.0604 1.8802 6.3476 3.2334 9.9709 3.6414.6858.0765 1.3528.3417 2.0266.527 2.9972.8109 5.9552.323 8.8859-.3196 2.1153-.4624 4.2443-.9469 6.2623-1.7 1.3886-.5253 2.8693-1.2903 3.8314-2.3681 2.2381-2.5007 4.5001-5.0779 6.1719-7.9594 2.1665-3.7332 3.6438-7.7554 3.0092-12.3284-.4981-3.6074-.9587-7.1961-2.697-10.4346-1.1361-2.1165-2.407-4.1905-3.8741-6.0894-3.0057-3.8794-6.9276-6.77446-11.2656-8.94196-3.4408-1.717-7.2722-2.3477-11.148-1.734-2.5639.4046-5.15.8653-7.6201 1.6388-3.6506 1.139-6.7451 3.1943-9.1112 6.30186-2.291 3.0124-3.8672 6.4005-5.4758 9.7767-.215.4522-.3463.969-.3907 1.4637-.203 2.2746-.3531 4.5492-.5237 6.8238zm1.1634-2.3341c0-.8857-.087-1.785.0222-2.6605.1245-.9928.2525-2.0468.6841-2.9308 1.4039-2.8951 2.5878-5.882 4.5956-8.5034 1.7417-2.2763 3.7273-4.17516 6.0968-5.69326.9485-.6086 2.059-1.0217 3.1525-1.3226 1.711-.4692 3.5005-.6715 5.2046-1.1611 3.7649-1.0778 7.4309-.6868 11.0797.4879 3.0178.9741 5.539 2.771 7.9375 4.7702.8785.73096 1.8833 1.34296 2.6629 2.16746 3.9952 4.2279 7.0965 8.9369 8.0091 14.841.4845 3.1433.7677 6.273-.0716 9.3806-1.3067 4.8365-4.0208 8.8655-7.349 12.546-1.8952 2.0944-4.0958 3.5751-6.9446 4.0188-.8137.1275-1.5916.4437-2.3934.6409-3.6113.8891-7.2193 1.6507-10.8818.2159-.4674-.1802-.9928-.2159-1.4995-.2992-3.8945-.6375-7.4837-2.0536-10.6413-4.4166-3.3981-2.5483-6.31-5.5709-7.9135-9.5761-1.5968-4.0001-2.2962-8.1787-1.7503-12.5052z"/><path d="m47.128 12.5781c-1.6786.7565-1.6155 2.091-1.6684 3.2351-.087 1.8377.0358 3.6839.087 5.5216.0222.8228.2423 1.6694.099 2.4582-.2201 1.2291.5066 2.1896.6994 3.2929.1211.6987.8052.9129 1.8168.6307.133-1.1237.394-2.3579.406-3.5938.0358-3.0464-.0905-6.0962-.0563-9.1443.017-1.1577-.7694-1.6303-1.3835-2.4004zm.3326 13.5048c-.1791-.0051-.3599-.0119-.5407-.017-.2235-1.921-.7592-3.8709-.5852-5.7545.1775-1.8598-.7557-3.8658.6022-5.7817.2474.3043.5681.51.5732.731.1586 3.6125.5902 7.2301-.0495 10.8222z"/><path d="m79.2412 29.6821c-.9502.7922-1.6018 1.4331-1.6411 2.363-.1194 2.5806-.1552 5.168-.2047 7.7503-.0051.3111.0717.6307.1501.9333.1911.7395.6039 1.2954 1.4415 1.2495 1.0321-.0527.9246-.8942.9161-1.5589-.0239-3.0957-.0666-6.1948-.1416-9.2871-.0137-.3944-.2764-.7854-.5203-1.4501zm-.5834 4.0154c.551 2.3307.7284 4.6597.0187 6.9853-1.0764-2.3341-.1791-4.6563-.0187-6.9853z"/></g><path d="m17.9952 45.0275c.1841 1.1616.3487 1.9339.6791 3.9636" stroke="#000" stroke-linecap="round"/><path d="m20.0868 32.7994c.5006-2 .5001-1.4996 1.3454-3.767" stroke="#000" stroke-linecap="round"/></g><path d="m128.509 150.393c9.685-1.268 22.869-14.802 28.25-21.41-4.843-6.343-23.408-11.893-23.408-11.893 5.65-5.552 11.301-24.5827-16.143-15.86-14.289 4.541-.807 20.617 5.65 19.031-1.614 6.079-4.842 19.824-4.842 26.168 0 7.929-1.615 5.55 10.493 3.964z" fill="#fff"/><g stroke="#000" stroke-linecap="round" stroke-linejoin="round"><path d="m126.688 98.0352c4.876-.0939 8.778 2.7178 10.954 6.9918 1.554 3.054.55 5.36-1.321 7.864-2.686 3.595-6.792 6.179-11.304 6.809-4.047.565-7.576.237-10.48-2.817-2.455-2.581-4.325-6.8-3.466-10.376.968-4.028 5.725-6.481 9.407-7.4483 4.923-1.2928 10.048-.4433 14.709 1.3883 3.487 1.37 7.514 3.989 7.622 8.076.109 4.134-3.501 6.54-6.467 8.846"/><path d="m133.002 117.005c4.284.083 25.412 9.604 23.165 12.363-7.865 9.659-16.145 16.648-27.621 21.198-5.796 2.299-12.889 4.182-11.058-4.813 4.941-24.27 4.374-19.263 5.487-27.289"/><path d="m139.872 120.106c2.98-1.269 4.547-3.758 6.498-6.313 1.66-2.175 3.588-4.511 4.373-7.185.495-1.686.474-3.69.454-5.431-.059-5.0463-2.945-9.2863-6.044-13.0922-.3-.3675-1.383-2.2284-1.383-.993 0 .642.426.7978.929 1.0944"/><path d="m125.019 125.578c-9.472 3.538-19.128 6.772-28.7985 9.738-2.6463.811-5.5804 1.55-8.3857 1.55-.5558 0-1.4158-.213-.9387-.932.8056-1.214 2.8674-1.924 4.1465-2.473 1.5347-.658 3.1817-1.38 4.8168-1.753.6267-.143 2.4477-.66 3.0428-.182 1.2568 1.01-2.0339 2.806-2.6199 2.989-.5584.174-2.0835.864-2.0835-.182 0-.473.9441-1.93 1.444-1.095.8895 1.486-2.0439 1.179-2.3723 1.824"/><path d="m147.113 91.2865c-.551-.8354-1.238-2.4184-2.331-2.7157-.79-.215-3.733-.8025-4.311.0203-.685.9748 1.861 2.7607 2.465 3.0501.907.4348 1.981 1.1651 3.053.9019 1.073-.2636.325-2.0034-.031-2.4928-.776-1.0681-1.842-1.9277-3.074-2.4117-.786-.3091-.657.1703-.309.7296.346.5563.743 1.0909 1.104 1.6415.333.5094 1.2.4682 1.763.5472"/><path d="m126.318 108.98c-7.426 5.836-13.395 4.711-14.844 3.455"/></g><path d="m.796053 144.865c3.770437-4.11 12.317847-15.56 20.097547-22.043l17.6172-10.281s-12.2608-7.384.2818-18.2539c5.7684-4.9992 15.5768-6.0831 19.5413.4399 8.1509 13.411-5.6667 19.553-5.6667 19.553-9.083 13.08 2.5723 37.08 1.2899 39.013-1.2824 1.932-37.0514 4.001-53.161047-8.428z" fill="#fff"/><path d="m25.4318 110.504c.5186 1.038 4.5381 5.187 6.4831 7.132l1.9449 1.296 3.2415-2.593c-1.5127-.864-4.9271-3.112-6.4831-5.186-1.9449-2.594-1.9449-5.835-1.9449-8.428 0-2.075 1.7288-8.6444 2.5932-11.6698-.8644-.2161-3.2415.7779-5.8347 6.483-3.2415 7.1318-.6483 11.6698 0 12.9658z" fill="#fff"/><path d="m34.5096 115.043c-3.8898-1.945-6.2334-6.589-6.0599-9.644.1896-3.335 1.6322-6.396 2.7013-9.5083.3365-.9796 1.5646-3.6912.6934-4.7273-.5838-.6941-2.2514 1.0589-2.5573 1.3687-2.8597 2.8973-4.5786 6.9638-5.0153 10.9849-.6041 5.563 2.3399 10.095 6.8342 12.984" stroke="#000" stroke-linecap="round" stroke-linejoin="round"/><path d="m37.8087 112.945c-.0843.382-.18.925-.3725 1.261-28.59871 7.531-32.49146 33.182-33.13634 34.111" stroke="#000" stroke-linecap="round" stroke-linejoin="round"/><path d="m2.35449 147.02c7.13896 5.694 41.50751 12.132 55.10541 7.78" stroke="#000" stroke-linecap="round" stroke-linejoin="round"/><path d="m51.6247 115.902c-7.1311 12.966-3.2416 25.932 5.1866 38.898" stroke="#000" stroke-linecap="round" stroke-linejoin="round"/><path d="m38.4712 94.9825c-1.4397.9373-3.3028 2.1629-4.6141 3.3707-1.5553 1.4324-1.9732 4.3828-1.6021 6.3988.9025 4.903 7.2504 8.084 11.5195 9.397 2.0453.63 4.4254 1.15 6.5781.953 2.1962-.201 4.2156-1.301 5.9527-2.598 2.4487-1.829 3.9011-4.066 4.8207-6.974.8166-2.583 1.1558-4.858-.2304-7.2861-4.2776-7.4922-16.9227-8.4011-23.5393-3.9335-3.8096 2.5722-7.1553 7.3326-5.5734 12.1436 1.6053 4.882 7.2321 8.471 11.7919 9.322" stroke="#000" stroke-linecap="round" stroke-linejoin="round"/><path d="m47.3662 104.104c3.3492 3.807 12.4255 1.862 9.6059-2.356" stroke="#000" stroke-linecap="round" stroke-linejoin="round"/><path d="m53.9577 131.898c5.8348-3.242 13.6145-5.186 14.2628-5.186 1.2966.432 2.5932 1.685-2.5932 3.241-6.4831 1.945-12.3179 8.428-14.2628 11.67-1.9449 3.241-4.5381 5.186-6.4831 5.834-1.5559.519-1.9449-1.512-1.9449-2.593 1.7288-3.241 6.3534-10.373 11.0212-12.966z" fill="#fff"/><path d="m81.1866 128.656-1.2966-3.241c1.9449.648 8.428.648 11.0212 0 2.0746-.519 7.3475-3.674 9.7248-5.186 1.729-.649 5.057-1.427 4.538.648-.648 2.593-7.7797 5.835-11.0212 7.779-2.5933 1.556-9.7246.649-12.9662 0z" fill="#fff"/><path d="m97.8274 171.02c-.9273 2.126-33.906 9.568-51.9292.125 7.4109-15.26 13.8365-31.577 20.932-46.541 0 0-13.3567-5.143-2.8923-18.026 4.8126-5.925 14.2838-8.6953 19.3208-2.96 10.3559 11.792-2.1853 20.24-2.1853 20.24 3.9157 12.778 17.6813 45.036 16.754 47.162z" fill="#fff"/><path d="m66.2092 125.124c-.0167.391-.0167.942-.148 1.306-.8581 2.38-3.781 8.628-4.2548 9.655-4.7807 10.361-9.7772 20.622-14.5519 30.986-.7074 1.535-1.1615 3.081-1.4832 4.73" stroke="#000" stroke-linecap="round" stroke-linejoin="round"/><path d="m44.5352 169.918c8.1761 7.362 40.7846 10.197 53.224-.193" stroke="#000" stroke-linecap="round" stroke-linejoin="round"/><path d="m81.498 125.783c.0788 1.08.2694 1.686.6549 2.86 2.7005 8.226 5.7512 16.341 8.6858 24.485 1.5302 4.246 3.1085 8.497 4.4315 12.815.7333 2.393 1.4357 4.79 2.2151 7.169.3709 1.132.9055 2.211 1.1152 3.386" stroke="#000" stroke-linecap="round" stroke-linejoin="round"/><path d="m63.7419 107.319c-1.2551 1.173-2.877 2.703-3.9587 4.121-1.2829 1.68-1.1822 4.658-.4667 6.579 1.7402 4.672 8.544 6.702 12.9764 7.255 2.1236.264 4.5579.364 6.6436-.204 2.128-.58 3.9255-2.014 5.411-3.593 2.0941-2.226 3.1359-4.681 3.5365-7.705.3557-2.685.2947-4.985-1.492-7.135-5.5137-6.636-18.1245-5.335-23.8648.214-3.305 3.194-5.7734 8.463-3.38 12.926 2.4286 4.529 8.5932 7.087 13.2315 7.133" stroke="#000" stroke-linecap="round" stroke-linejoin="round"/><path d="m66.2748 126.711c-4.5381 1.945-11.0425 4.073-14.9111 7.78-1.1359 1.089-11.0212 10.373-6.4829 12.966 4.5382 0 5.5105-5.835 8.4279-9.076 3.5008-3.89 7.7797-7.131 11.6695-8.428" stroke="#000" stroke-linecap="round" stroke-linejoin="round"/><path d="m82.4831 128.908c7.7797 2.342 18.0909-2.222 20.7459-6.086 3.89-3.89.409-5.756-5.1865-1.297-3.9949 3.184-9.0763 5.835-16.856 3.89" stroke="#000" stroke-linecap="round" stroke-linejoin="round"/></svg>