<svg clip-rule="evenodd" fill-rule="evenodd" stroke-linecap="round" stroke-linejoin="round" viewBox="0 0 98 155" xmlns="http://www.w3.org/2000/svg"><path d="m47.249 12.335.204-11.303 20.895.032.129 11.825z" fill="#ffc101" fill-rule="nonzero"/><path d="m96.488 141.58-50.267-111.835-42.182 111.835c3.802 4.236 5.532 6.638 6.031 4.513 3.74-15.929 15.374-46.54 39.752-37.259 16.76 8.587 17.565 36.601 14.682 43.907-1.097 2.782 24.469-7.467 31.984-11.161z" fill="#f8fafc" fill-rule="nonzero"/><path d="m46.934 33.966c.422-6.59.904-25.861 1.115-33.125m-2.744 33.502c.421-6.59.816-26.687 1.027-33.952m.832 11.89c6.01.204 12.433.365 21.656.649m-22.538-11.698c9.248.003 14.26.033 23.127.076m-1.604-.667c.036 4.314.23 10.143.15 13.355m-23.871 10.573c8.07 19.699 44.79 103.332 53.465 122.166m-96.712-2.079c6.479-17.381 34.586-89.284 45.002-114.911m13.989 123.038c11.69-1.483 23.691-3.821 34.582-12.228m-94.019-1.299c2.484 3.057 5.931 5.831 11.082 8.406m-2.658 2.448c-1.529-9.171 10.682-40.825 28.069-43.543 20.915-1.523 32.879 20.616 26.192 47.556m-53.063-14.036c2.908-1.662 8.726-4.017 17.452-4.987m-2.079.97c3.325-9.419 11.635-25.486 23.27-27.702m-6.337 2.355-3.359-4.294m5.679 3.186-2.32-2.771m-4.402 7.895c-1.783-2.237-3.549-4.453-5.298-6.648zm-2.236-7.895c1.491 1.872 2.999 3.764 4.525 5.679zm-5.676 2.77 5.739 7.203m-3.63 4.986c-2.271-2.851-4.516-5.667-6.732-8.449zm2.069-2.493c-2.207-2.77-4.377-5.493-6.512-8.172zm-3.687 5.263-7.395-9.28m4.869 15.652c-2.801-3.515-5.56-6.977-8.278-10.388zm1.185-3.601c-2.665-3.345-5.276-6.621-7.836-9.835zm-2.802 6.787-8.608-10.804m-1.452 2.632c2.419 3.035 4.883 6.127 7.395 9.28m-3.282.97c-1.933-2.426-3.846-4.827-5.74-7.203m2.793 7.895-3.973-4.986m-1.231 2.908c.804 1.01 1.614 2.025 2.428 3.047m-2.951 1.386c-.369-.463-.737-.925-1.104-1.386" fill="none" stroke="#000" stroke-width=".78"/></svg>