<svg fill="none" height="221" viewBox="0 0 400 221" width="400" xmlns="http://www.w3.org/2000/svg" xmlns:xlink="http://www.w3.org/1999/xlink"><linearGradient id="a"><stop offset="0"/><stop offset="1" stop-color="#3e7bfa" stop-opacity="0"/></linearGradient><radialGradient id="b" cx="0" cy="0" gradientTransform="matrix(-.52114461 30.04568069 -64.46210396 -1.11810009 208.395 103.246)" gradientUnits="userSpaceOnUse" r="1" xlink:href="#a"/><radialGradient id="c" cx="0" cy="0" gradientTransform="matrix(-.52114461 30.04568069 -64.46210396 -1.11810009 127.395 169.246)" gradientUnits="userSpaceOnUse" r="1" xlink:href="#a"/><radialGradient id="d" cx="0" cy="0" gradientTransform="matrix(-.52114461 30.04568069 -64.46210396 -1.11810009 290.395 154.246)" gradientUnits="userSpaceOnUse" r="1" xlink:href="#a"/><path d="m198.999 216.286c17.5-9.793 47.203-27.965 54.5-32.964 11-7.536 3.997-13.818-14-19.536-24-7.625-63.5-18.5-75.5-22-17.5-5.104-10-8.429 13-19.964 23-11.536 96.309-47.077 122-57.5359" stroke="#000" stroke-linecap="round" stroke-linejoin="round"/><path d="m171.968 214.822c17.5-9.793 39-22.536 53.532-30.536 13-7.157 3.465-11.247-14.532-16.964-24-7.626-69-20.5-81-24-15.968-4.658 0-11.536 19-21 19-9.465 113.032-51.0359 142.532-66.0359" stroke="#000" stroke-linecap="round" stroke-linejoin="round"/><path d="m317.5 100c0 30.376-52.83 55-118 55s-118-24.624-118-55c0-30.3757 52.83-55 118-55s118 24.6243 118 55z" fill="url(#b)" fill-opacity=".1" opacity=".7"/><path d="m236.5 166c0 30.376-52.83 55-118 55-65.1696 0-118-24.624-118-55s52.8304-55 118-55c65.17 0 118 24.624 118 55z" fill="url(#c)" fill-opacity=".1" opacity=".7"/><path d="m399.5 151c0 30.376-52.83 55-118 55s-118-24.624-118-55 52.83-55 118-55 118 24.624 118 55z" fill="url(#d)" fill-opacity=".1" opacity=".7"/><path d="m141.276 161.132-25.449 10.708-22.4512-7.07v-28.498l29.1572-10.808 18.743 7.077v1.047 5.716z" fill="#fff"/><path d="m119.031 125.202c7.695 2.106 15.704 5.235 24.603 7.852" stroke="#000" stroke-linecap="round" stroke-linejoin="round"/><path d="m93.3773 134.81v30.567" stroke="#000" stroke-linecap="round" stroke-linejoin="round"/><path d="m117.023 140.519v31.858m24.253-40.359v29.445" stroke="#000" stroke-linecap="round" stroke-linejoin="round"/><path d="m92.7695 165.374c7.6945 2.105 16.3705 4.244 25.4655 6.67" stroke="#000" stroke-linecap="round" stroke-linejoin="round"/><path d="m93.9824 136.262c7.6946 2.105 16.3706 4.244 25.4656 6.669" stroke="#000" stroke-linecap="round" stroke-linejoin="round"/><path d="m114.131 172.627c5.403-2.26 24.683-10.067 30.176-12.103" stroke="#000" stroke-linecap="round" stroke-linejoin="round"/><path d="m116.124 143.075c5.403-2.261 20.657-9.021 26.151-11.057" stroke="#000" stroke-linecap="round" stroke-linejoin="round"/><path d="m93.2078 136.792c5.4029-2.261 22.6352-9.544 28.1282-11.58" stroke="#000" stroke-linecap="round" stroke-linejoin="round"/><path d="m106.679 139.346c5.403-2.261 17.798-7.852 24.197-10.469" stroke="#000" stroke-linecap="round" stroke-linejoin="round"/><path d="m118.036 170.998c2.516-9.716 6.425-22.382 9.057-32.546zm3.299-30.082c-1.482 5.722-2.621 8.897-4.063 14.462z" stroke="#000" stroke-linecap="round" stroke-linejoin="round"/><path d="m123.127 168.866 8.155-31.613m10.314 12.039-3.675 13.157m-4.674 2.155c2.717-10.492 5.501-21.239 8.349-32.24zm2.785-29.322c-2.77 10.695-5.466 21.105-8.098 31.269z" stroke="#000" stroke-linecap="round" stroke-linejoin="round"/><path d="m109.874 79.1626c-1.058 4.0829-4.593 9.2979-8.01 9.5256-7.356.49-7.5769-4.7498-7.5769-9.0927.4537-4.0829 4.153-9.0926 7.5769-9.0926 4.763 0 8.918 2.1573 8.01 8.6597z" fill="#fff"/><path d="m106.195 76.7944c-2.162-3.2863-4.838.5688-2.246 3.0515s.975 6.7534-3.383 3.1219" stroke="#000" stroke-linecap="round" stroke-linejoin="round"/><path d="m105.469 74.6162c-.908 3.2683-2.179 7.0814-3.463 10.5759" stroke="#000" stroke-linecap="round" stroke-linejoin="round"/><path d="m103.347 71.6891c-1.39-.3457-1.515-.4367-2.973-.7993m1.671 1.8574-3.3428-.9286" stroke="#000" stroke-linecap="round" stroke-linejoin="round"/><path d="m99.4833 75.265-3.0308-1.0825m4.3295-.2164-3.2471-1.0825m1.0825 3.6804-3.0309-.866" stroke="#000" stroke-linecap="round" stroke-linejoin="round"/><path d="m97.3179 79.8118-3.0309-.8659m3.6802-.866-3.0308-.8659m2.1649 4.9793-3.0308-.866" stroke="#000" stroke-linecap="round" stroke-linejoin="round"/><path d="m97.7505 86.0894-2.5978-.6494m1.9484-1.2991-2.8144-.6495" stroke="#000" stroke-linecap="round" stroke-linejoin="round"/><path d="m98.8331 88.2551c.9094 1.2989 3.8799.738 4.7629.0001 6.062-2.6663 9.312-16.6665 1.948-16.8863-3.667-.1095-7.7125 5.1957-8.2267 9.309-.433 3.4639.0004 6.0617 1.5158 7.5772z" stroke="#000" stroke-linecap="round" stroke-linejoin="round"/><path d="m100.783 89.121c-1.9488-.433-4.0703-1.299-4.9796-2.5979-1.5154-1.5154-2.165-4.9793-1.5155-7.3607.433-3.8968 4.3431-8.7691 8.0101-8.6596 1.298.0387 2.381.433 4.33 1.0824" stroke="#000" stroke-linecap="round" stroke-linejoin="round"/><path d="m135.874 93.1626c-1.058 4.0829-4.593 9.2984-8.01 9.5254-7.356.49-7.577-4.7496-7.577-9.0925.454-4.0829 4.153-9.0926 7.577-9.0926 4.763 0 8.918 2.1573 8.01 8.6597z" fill="#fff"/><path d="m132.195 90.7944c-2.162-3.2863-4.838.5688-2.246 3.0515s.975 6.7531-3.383 3.1219" stroke="#000" stroke-linecap="round" stroke-linejoin="round"/><path d="m131.469 88.6162c-.908 3.2683-2.179 7.0814-3.463 10.5759" stroke="#000" stroke-linecap="round" stroke-linejoin="round"/><path d="m129.347 85.6891c-1.39-.3457-1.515-.4367-2.973-.7993m1.671 1.8574-3.343-.9286" stroke="#000" stroke-linecap="round" stroke-linejoin="round"/><path d="m125.483 89.265-3.031-1.0825m4.33-.2164-3.247-1.0825m1.082 3.6804-3.03-.866" stroke="#000" stroke-linecap="round" stroke-linejoin="round"/><path d="m123.318 93.8118-3.031-.8659m3.68-.866-3.031-.8659m2.165 4.9793-3.031-.866" stroke="#000" stroke-linecap="round" stroke-linejoin="round"/><path d="m123.751 100.089-2.598-.649m1.948-1.2991-2.814-.6495" stroke="#000" stroke-linecap="round" stroke-linejoin="round"/><path d="m124.833 102.255c.909 1.299 3.88.738 4.763 0 6.062-2.6661 9.312-16.6663 1.948-16.8861-3.667-.1095-7.713 5.1957-8.227 9.309-.433 3.4639.001 6.0621 1.516 7.5771z" stroke="#000" stroke-linecap="round" stroke-linejoin="round"/><path d="m126.783 103.121c-1.949-.433-4.07-1.299-4.98-2.598-1.515-1.5153-2.165-4.9792-1.515-7.3606.433-3.8968 4.343-8.7691 8.01-8.6596 1.298.0387 2.381.433 4.33 1.0824" stroke="#000" stroke-linecap="round" stroke-linejoin="round"/><path d="m133.874 50.1626c-1.058 4.0829-4.593 9.2979-8.01 9.5256-7.356.49-7.577-4.7498-7.577-9.0927.454-4.0829 4.153-9.0926 7.577-9.0926 4.763 0 8.918 2.1573 8.01 8.6597z" fill="#fff"/><path d="m130.195 47.7944c-2.162-3.2863-4.838.5688-2.246 3.0515s.975 6.7534-3.383 3.1219" stroke="#000" stroke-linecap="round" stroke-linejoin="round"/><path d="m129.469 45.6162c-.908 3.2683-2.179 7.0814-3.463 10.5759" stroke="#000" stroke-linecap="round" stroke-linejoin="round"/><path d="m127.347 42.6891c-1.39-.3457-1.515-.4367-2.973-.7993m1.671 1.8574-3.343-.9286" stroke="#000" stroke-linecap="round" stroke-linejoin="round"/><path d="m123.483 46.265-3.031-1.0825m4.33-.2164-3.247-1.0825m1.082 3.6804-3.03-.866" stroke="#000" stroke-linecap="round" stroke-linejoin="round"/><path d="m121.318 50.8118-3.031-.8659m3.68-.866-3.031-.8659m2.165 4.9793-3.031-.866" stroke="#000" stroke-linecap="round" stroke-linejoin="round"/><path d="m121.751 57.0894-2.598-.6494m1.948-1.2991-2.814-.6495" stroke="#000" stroke-linecap="round" stroke-linejoin="round"/><path d="m122.833 59.2551c.909 1.2989 3.88.738 4.763.0001 6.062-2.6663 9.312-16.6665 1.948-16.8863-3.667-.1095-7.713 5.1957-8.227 9.309-.433 3.4639.001 6.0617 1.516 7.5772z" stroke="#000" stroke-linecap="round" stroke-linejoin="round"/><path d="m124.783 60.121c-1.949-.433-4.07-1.299-4.98-2.5979-1.515-1.5154-2.165-4.9793-1.515-7.3607.433-3.8968 4.343-8.7691 8.01-8.6596 1.298.0387 2.381.433 4.33 1.0824" stroke="#000" stroke-linecap="round" stroke-linejoin="round"/><path d="m101 138.286v-4.842-5.842m0-99.3159v28.4803m0 56.0196v-17.3157" stroke="#000" stroke-linecap="round" stroke-linejoin="round"/><path d="m114 120.286v-17.932m0-74.0679v21.8305m0 31.9661v-15.5932" stroke="#000" stroke-linecap="round" stroke-linejoin="round"/><path d="m124.199 126.786v-19.556m.801-88.9439-.189 20.9281m-.377 41.856.165-18.312" stroke="#000" stroke-linecap="round" stroke-linejoin="round"/><path d="m266.666 32.2858v-16.6667l29.333 4v16.6667z" fill="#ffc100"/><path d="m266.15 68.2861c0-13.6178 0-42.4389 0-54.7021" stroke="#000" stroke-linecap="round" stroke-linejoin="round"/><path d="m264 69.2861c0-13.6178 0-44.0229 0-56.2861" stroke="#000" stroke-linecap="round" stroke-linejoin="round"/><path d="m264 13.584c5.263.8512 25.694 2.9198 33.87 4.0877" stroke="#000" stroke-linecap="round" stroke-linejoin="round"/><path d="m266.336 29.9346c9.572 1.172 20.354 2.7382 29.904 4.0554" stroke="#000" stroke-linecap="round" stroke-linejoin="round"/><path d="m295.533 34.2469c0-3.7279 0-10.1515 0-17.743" stroke="#000" stroke-linecap="round" stroke-linejoin="round"/><path d="m244.973 158.08v-8.425l10.406-6.442h35.671l7.939 6.938v9.911l-11.894 6.442h-30.229z" fill="#fff"/><path d="m242 155.546c5.989 4.889 8.983 7.605 13.689 11.407" stroke="#000" stroke-linecap="round" stroke-linejoin="round"/><path d="m255.875 166.008c6.344.098 25.138.388 32.119.495" stroke="#000" stroke-linecap="round" stroke-linejoin="round"/><path d="m245.121 146.284v14.769" stroke="#000" stroke-linecap="round" stroke-linejoin="round"/><path d="m256.867 154.115v11.398" stroke="#000" stroke-linecap="round" stroke-linejoin="round"/><path d="m287.096 153.618v13.876" stroke="#000" stroke-linecap="round" stroke-linejoin="round"/><path d="m298.99 146.682v13.875" stroke="#000" stroke-linecap="round" stroke-linejoin="round"/><path d="m244.281 147.561c6.938 4.46 7.097 4.516 12.548 7.985" stroke="#000" stroke-linecap="round" stroke-linejoin="round"/><path d="m256.83 155.546h30.725" stroke="#000" stroke-linecap="round" stroke-linejoin="round"/><path d="m288.199 141.286s8.556 6.274 12.548 9.126" stroke="#000" stroke-linecap="round" stroke-linejoin="round"/><path d="m243.711 149.272c2.852-1.141 15.4-5.703 20.533-7.415" stroke="#000" stroke-linecap="round" stroke-linejoin="round"/><path d="m258.541 142.997c12.871 0 25.557-.179 38.188-.179" stroke="#000" stroke-linecap="round" stroke-linejoin="round"/><path d="m286.029 166.883c5.031-2.361 8.995-4.343 14.942-7.316m-14.942-3.451c5.031-2.361 10.024-4.441 15.97-7.415" stroke="#000" stroke-linecap="round" stroke-linejoin="round"/><path d="m246.46 159.07 2.478-8.425m.477 11.174c.761-2.952 2.215-6.175 2.992-9.191m.43 12.043 3.039-9.566" stroke="#000" stroke-linecap="round" stroke-linejoin="round"/><path d="m257.362 165.919 2.744-9.822m1.878 9.822c.88-3.412 1.909-6.816 2.812-10.318m1.623 10.37c.881-3.418 1.708-6.875 2.609-10.37" stroke="#000" stroke-linecap="round" stroke-linejoin="round"/><path d="m281.228 156.101c-.861 3.345-1.714 6.653-2.557 9.925m-4.46 0c.841-3.266 1.694-6.573 2.557-9.925m-3.964-.017-2.558 9.924" stroke="#000" stroke-linecap="round" stroke-linejoin="round"/><path d="m285.398 156.097-2.682 10.407m7.354-11.894-3.517 11.894m8.088-14.372c-.99 3.843-1.969 7.642-2.937 11.398z" stroke="#000" stroke-linecap="round" stroke-linejoin="round"/><path d="m298.605 150.151-3.083 11.893" stroke="#000" stroke-linecap="round" stroke-linejoin="round"/><path clip-rule="evenodd" d="m268.407 148.91h-3.91l-4.208-5.192 2.61-2.744v-6.912h-2.61l2.61-9.049h2.899l2.609-2.319v-4.639l6.379-3.48 3.479 2.338v4.041l2.32-4.041 4.818 2.301 1.271 5.799-2.9 2.61v4.639h2.9l-1.271 8.712-3.755-1.031-3.383 3.775 1.023 5.192-5.663 2.359-5.218-.944zm3.028-16.34 3.582-2.388 2.387 1.194-1.591 4.776-2.786 1.99-1.592-.796z" fill="#fff" fill-rule="evenodd"/><g stroke="#000" stroke-linecap="round" stroke-linejoin="round"><path d="m260.322 133.78c.461.151.918.245 1.398.336 2.08.396 4.172.722 6.258 1.08"/><path d="m261.736 124.836c.497.08.948.167 1.434.318 2.305.719 4.58 1.544 6.866 2.32"/><path d="m267.979 117.825c2.356.776 4.808 1.304 7.205 1.93"/><path d="m273.254 114.286c2.047.761 4.115 1.468 6.176 2.188"/><path d="m280.266 117.053c1.808.43 3.574 1.101 5.34 1.673"/><path d="m284.062 132.364c1.137.28 2.274.556 3.41.837"/><path d="m281.811 140.021c1.271.294 2.532.643 3.795.966"/><path d="m279.109 143.432c.051.316.082.602.09.929.041 1.834-.015 3.671-.025 5.504"/><path d="m273.641 146.584c.14 1.795.113 3.606.193 5.404"/><path d="m267.656 150.187c1.416-1.015 2.505-2.525 3.668-3.796"/><path d="m264.826 144.717c1.207-1.485 2.782-2.698 4.182-3.988"/><path d="m268.347 141.626c-.24-1.54-.754-4.371-.24-7.202"/><path d="m270.166 127.732c.643-1.094 1.544-2.316 3.86-3.603"/><path d="m273.64 118.919c-.05 2.316-.106 4.631-.128 6.948"/><path d="m278.465 116.538v5.726"/><path d="m277.822 121.75c1.094 0 2.638.322 3.41 1.351"/><path d="m280.652 122.779c.341-.255.635-.518.944-.818 1.585-1.538 3.147-3.099 4.718-4.65"/><path d="m283.805 127.798c.089-.201.186-.379.336-.543 1.144-1.259 2.392-2.431 3.588-3.639"/><path d="m284.707 118.341c.319.572.453 1.141.615 1.787.343 1.37.596 2.78 1.008 4.132.052.17.139.33.307.386"/><path d="m283.805 127.218c.514 2.316.673 3.939 0 5.79"/><path d="m286.442 132.814c.45 2.896-1.094 6.756-1.866 8.815"/><path d="m278.336 144.075c1.917-1.553 2.658-2.664 3.539-4.954"/><path d="m272.932 151.603c.401-.067.669-.145 1.058-.333 2.087-1.008 2.983-1.308 6.121-2.653"/><path d="m269.008 150.508c1.923.254 3.794.933 5.726 1.094"/><path d="m269.136 150.766c-.12-.748-.214-1.501-.322-2.251"/><path d="m265.276 135.196c-.258-2.574.772-7.206 2.316-9.008"/><path d="m260.9 134.231c-.072-3.18 1.029-6.498 2.573-9.329"/><path d="m265.598 126.123c.933-.822 1.809-1.708 2.702-2.573"/><path d="m268.428 118.019c0 1.43-.079 2.859-.122 4.289-.007.26-.019.434.058.665"/><path d="m267.592 123.294c2.21.674 3.93.948 5.796 1.57"/><path d="m278.4 120.72c.954-1.487 1.931-2.96 2.896-4.44"/><path d="m267.398 118.147c2.349-1.357 4.859-2.498 7.271-3.732"/><path d="m272.803 119.754c1.296-.562 2.522-1.327 3.753-2.009 1.395-.773 2.801-1.53 4.16-2.366"/><path d="m263.861 135.003c0 1.741.258 3.473.258 5.211"/><path d="m263.527 140.102c1.793.448 3.356.777 5.827 1.344"/><path d="m260.258 144.01c.49-.346.876-.798 1.294-1.229.926-.957 1.843-1.923 2.759-2.888"/><path d="m260 143.882c2.065.312 3.528.701 6.217 1.15"/><path d="m270.809 146.069c1.379.35 2.773.443 4.182.515"/><path d="m264.891 144.524c1.05 1.443 1.966 2.977 2.945 4.468.314.479.629 1.092 1.108 1.451"/><path d="m260.129 143.945c1.544 1.802 3.105 3.775 4.375 5.34"/><path d="m263.475 148.899c1.744.034 3.411.885 5.147 1.03"/><path d="m270.938 136.933c2.316 1.608 3.86 2.637 5.404 3.924"/><path d="m271.451 138.541c.258-1.801.515-5.147.772-7.463"/><path d="m271.195 132.623c1.002-.827 4.636-3.32 5.662-4.118"/><path d="m275.184 128.376c1.641 1.031 3.493 1.772 5.232 2.616.458.223 1.081.435 1.523.73"/><path d="m274.539 140.6c1.029-.514 4.789-2.838 5.662-3.345"/><path d="m279.43 137.771c.514-2.316.772-4.633 1.286-6.949"/><path d="m277.306 130.692c-.197.935-.388 1.871-.6 2.803-.193.845-.397 1.688-.579 2.536-.029.134-.043.182-.043.291"/><path d="m272.482 138.187c.675-.256 1.326-.583 1.981-.886.639-.296 1.295-.573 1.912-.915"/><path d="m275.055 130.049c1.029.515 1.544.772 2.831 1.287"/><path d="m276.855 131.303c1.545 0 3.541-.102 4.89-.225"/><path d="m275.506 136.16c.977.233 1.95.476 2.931.694.755.167 1.51.355 2.28.432"/><path d="m276.24 130.563c.542-.201 1.264-.481 2.113-.831m-1.829 3.919c1.179.26 2.36.516 3.549.772"/><path d="m277.248 138.964-3.413-1.551"/><path d="m273.51 148.771-3.709-.601m-3.586-.897-3.86-.494"/><path d="m279.661 119.483c1.222.338 2.229.74 3.753 1.137"/><path d="m266.665 142.789c-1.49-.311-2.625-.596-4.034-.896m4.961-4.007-3.346-.723"/><path d="m266.043 128.848-3.861-.847m-1.281 2.689 4.698.985"/><path d="m273.422 121.952-5.413-1.123m-.896 4.034 3.585 1.344"/><path d="m271.243 116.347c1.752.438 2.192.673 5.281 1.555z"/></g><path d="m156.18 107.341v-59.6311l36.353-15.9443 51.659 10.2044v57.3993l-33.483 18.4957-12.755-2.233-.46-18.1561-27.682 12.9001z" fill="#fff"/><path d="m169.052 111.181c0-15.0679-.002-20.4759-.001-38.3695" stroke="#000" stroke-linecap="round" stroke-linejoin="round"/><path d="m197.663 116.092c0-15.068-.002-17.8937-.001-35.7873" stroke="#000" stroke-linecap="round" stroke-linejoin="round"/><path d="m156.373 107.111c.001-15.0682-.001-42.3795.001-60.2731" stroke="#000" stroke-linecap="round" stroke-linejoin="round"/><path d="m211.286 118.661c0-17.423-.002-49.0018 0-69.6913" stroke="#000" stroke-linecap="round" stroke-linejoin="round"/><path d="m243.983 99.6573c0-17.4227-.001-40.8975 0-61.587" stroke="#000" stroke-linecap="round" stroke-linejoin="round"/><path d="m151.807 48.4945c8.383-3.595 32.545-13.9799 42.64-17.8099" stroke="#000" stroke-linecap="round" stroke-linejoin="round"/><path d="m205.836 59.1999c18.243-8.5095 27.179-12.713 43.598-20.4489" stroke="#000" stroke-linecap="round" stroke-linejoin="round"/><path d="m205.836 119.778c10.899-5.072 21.799-11.884 40.532-21.7614" stroke="#000" stroke-linecap="round" stroke-linejoin="round"/><path d="m167.688 77.2397c13.791 2.2288 21.059 3.7765 34.741 6.1309m14.646-25.5455c-21.124-3.2333-54.279-9.7648-66.075-11.951m96.73-4.0575c-18.401-3.5472-48.268-9.4159-59.641-11.5305" stroke="#000" stroke-linecap="round" stroke-linejoin="round"/><path d="m156.373 107.11c3.995 1.084 7.938 2.032 11.925 2.864" stroke="#000" stroke-linecap="round" stroke-linejoin="round"/><path d="m194.936 114.366c6.387 1.734 15.834 3.588 22.347 4.709" stroke="#000" stroke-linecap="round" stroke-linejoin="round"/><path d="m211.005 74.4953 5.127-19.8942m3.754-1.7901c-2.868 11.1293-5.599 21.7267-8.218 31.8886m0 14.6047c3.936-15.2711 8.096-31.4157 12.475-48.4066" stroke="#000" stroke-linecap="round" stroke-linejoin="round"/><path d="m228.537 48.6662-17.188 66.6968m20.975-68.6101c-6.565 25.473-12.412 48.1623-17.833 69.1981m22.007-70.7926c-6.318 24.5191-12.187 47.2932-17.586 68.2416z" stroke="#000" stroke-linecap="round" stroke-linejoin="round"/><path d="m240.848 43.245-17.258 66.966m20.551-66.966c-6.138 23.8161-11.649 45.2045-16.764 65.053m17.487-53.2542c-4.638 17.9967-9.023 35.0151-13.148 51.0212z" stroke="#000" stroke-linecap="round" stroke-linejoin="round"/><path d="m236.158 103.514 7.77-30.1507m0 13.8879c-1.229 4.7679-2.433 9.4413-3.616 14.0308z" stroke="#000" stroke-linecap="round" stroke-linejoin="round"/><path d="m180.735 79.4942c-4.017 1.877-7.958 3.7191-11.824 5.526zm-11.824 1.503c1.893-.885 3.8-1.7761 5.72-2.6736z" stroke="#000" stroke-linecap="round" stroke-linejoin="round"/><path d="m185.891 80.5545-16.636 7.7751m28.381-5.7207c-9.89 4.6217-19.353 9.0444-28.381 13.2638zm-28.381 9.2408c7.043-3.2917 14.252-6.661 21.684-10.1341z" stroke="#000" stroke-linecap="round" stroke-linejoin="round"/><path d="m169.255 99.4573 28.657-13.3928m-28.657 24.5265 28.062-13.1146m-28.062 9.5236c8.913-4.165 18.27-8.5381 28.062-13.1144zm28.657-17.4154c-9.906 4.6295-19.414 9.0732-28.657 13.3924z" stroke="#000" stroke-linecap="round" stroke-linejoin="round"/></svg>