<svg fill="none" viewBox="0 0 176 165" xmlns="http://www.w3.org/2000/svg"><g opacity=".5"><path d="m39.2028 67.0505c.5253 1.1111 4.6869 5.601 6.7021 7.7071l2.0303 1.4192 3.495-2.6718c-1.5825-.9512-5.1476-3.4121-6.7476-5.6464-2-2.793-1.9243-6.2273-1.8637-8.9748.0485-2.198 2.0336-9.1179 3.0201-12.3031-.9107-.2492-3.4525.7485-6.3333 6.7324-3.6009 7.4799-.9595 12.3485-.3029 13.7374z" fill="#fff"/><g stroke="#000" stroke-linecap="round" stroke-linejoin="round" stroke-width="1.55"><path d="m48.7132 72.0707c-4.0758-2.1514-6.4503-7.1263-6.195-10.3587.2787-3.5296 1.8787-6.7386 3.0841-10.011.3794-1.0301 1.7439-3.8742.845-4.9923-.6022-.7491-2.41 1.0692-2.7413 1.3903-3.0975 3.0029-5.0137 7.2712-5.5703 11.5215-.77 5.8791 2.2432 10.7502 6.9374 13.9162"/><path d="m52.2582 69.9254c-.0982.4029-.2123.9757-.4241 1.3269-30.4759 7.3106-35.1995 34.3977-35.9044 35.3667"/><path d="m13.8994 105.199c6.8281 6.112 40.3878 13.344 53.8921 8.904"/><path d="m66.8278 73.3808c-7.8582 13.5708-2.2884 28.1912 2.1501 37.7022"/><path d="m53.3809 50.9098c-1.5473.9594-3.5498 2.2144-4.9674 3.4634-1.6812 1.4813-2.1929 4.5971-1.8469 6.7417.8417 5.2158 7.4928 8.7342 11.9853 10.2259 2.1522.7146 4.6618 1.3219 6.9471 1.1632 2.3316-.162 4.4967-1.2805 6.3675-2.614 2.6371-1.8798 4.2281-4.2163 5.2704-7.2763.9255-2.7172 1.3381-5.1199-.0738-7.7246-4.3571-8.0378-17.7332-9.2962-24.8478-4.7174-4.0963 2.6362-7.7522 7.6011-6.1886 12.7354 1.5867 5.21 7.4644 9.1438 12.2756 10.1523"/><path d="m62.5914 60.7825c3.4595 4.1114 13.1211 2.2628 10.2324-2.2719"/></g><path d="m133.992 69.1408-8.869-2.9444c1.857-1.1044 5.541-1.9394 9.02-3.9243 2.571-1.4665 11.447-10.0557 16.117-14.0759 2.045.7323-1.391 6.9788-3.662 10.2273s-9.35 8.4984-12.606 10.7173z" fill="#fff"/><g stroke="#000" stroke-linecap="round" stroke-linejoin="round" stroke-width="1.55"><path d="m108.804 68.5854c1.873 9.4029 5.192 26.0122-2.416 39.3276"/><path d="m121.928 65.5659c11.677.2575 33.387 12.979 27.241 42.3931"/><path d="m116.39 67.4129c4.604-1.4542 10.02-2.696 12.195-7.8006 2.174-5.1045-.763-12.3017-5.162-15.2323-4.399-2.9305-9.588-3.1445-15.434-1.1121-5.019 1.7448-8.2438 8.0647-7.829 12.1971.6 5.9778 3.532 8.7051 8.687 11.1869 7.926 2.8568 14.512-2.0598 19.682-4.5035"/><path d="m106.387 110.449c12.682 1.902 31.487 2.506 44.857-3.131"/><path d="m123.581 65.9908c2.061-.2137 3.703-.7796 5.537-1.7868 4.061-2.2297 5.602-3.1134 9.237-5.9716 2.961-2.3275 5.686-4.7584 8.409-7.3643 2.106-2.0152 5.664-4.3294 4.213-.5848-2.741 7.0712-10.001 16.248-17.657 18.1557"/><path d="m101.555 53.7646c.411 2.9874 1.007 7.1238 5.128 7.2147 1.675.0369 6.55-1.0644 5.258-1.9457-2.45-.7412-7.212-2.9078-10.386-5.269z"/></g><path d="m68.926 90.3839c6.2576-3.2981 14.5455-5.1769 15.2323-5.1618 1.3637.4882 2.7081 1.8465-2.8232 3.3738-6.9142 1.9091-13.2475 8.6415-15.3838 12.0301-2.1364 3.389-4.9293 5.389-7.005 6.031-1.6607.513-2.0253-1.648-2.0001-2.793 1.9074-3.394 6.9737-10.8417 11.9798-13.4801z" fill="#fff"/><path d="m97.8503 87.5857-1.298-3.4647c2.0455.7323 8.9137.8838 11.6767.2575 2.21-.501 7.871-3.7206 10.424-5.2678 1.847-.6465 5.391-1.393 4.793.7929-.747 2.7324-8.378 6.0001-11.858 7.985-2.784 1.5879-10.318.4597-13.7377-.3029z" fill="#fff"/><g stroke="#000" stroke-linecap="round" stroke-linejoin="round" stroke-width="1.55"><path d="m82.0642 83.4928c-.0268.4138-.0397.9978-.1873 1.3804-.9648 2.5015-4.2075 9.0524-4.7335 10.1293-5.3071 10.8655-10.8406 21.6215-16.1414 32.4895-.7854 1.61-1.3027 3.237-1.6821 4.977"/><path d="m58.0554 130.445c8.4906 7.991 42.9726 11.757 56.3946 1.04"/><path d="m98.2485 84.5486c.0582 1.1462.246 1.7925.627 3.0454 2.6685 8.778 5.7115 17.447 8.6305 26.144 1.522 4.535 3.095 9.076 4.396 13.681.721 2.552 1.409 5.109 2.179 7.647.367 1.208.908 2.364 1.103 3.614"/><path d="m79.8688 64.5714c-1.3573 1.2135-3.1114 2.7971-4.2905 4.2733-1.3985 1.7508-1.3614 4.9081-.6482 6.96 1.7346 4.9905 8.8956 7.3004 13.5788 7.9893 2.2437.3301 4.8206.4923 7.0436-.0608 2.268-.5644 4.2061-2.0419 5.8165-3.68 2.271-2.3092 3.432-4.8864 3.927-8.0809.44-2.8366.429-5.2745-1.414-7.5944-5.6865-7.1591-19.0779-6.0757-25.2893-.3311-3.5763 3.3076-6.3145 8.8319-3.8831 13.6167 2.4673 4.8553 8.9388 7.7086 13.852 7.8664"/><path d="m82.0976 85.1767c-4.8535 1.9546-11.7945 4.0569-15.9798 7.8941-1.229 1.1267-11.9191 10.7322-7.1714 13.5862 4.8081.106 5.9745-6.053 9.1412-9.4196 3.8-4.0394 8.409-7.3738 12.5606-8.6567"/><path d="m99.2178 87.8832c8.1882 2.6621 19.2192-1.9316 22.1222-5.9643 4.212-4.0304.567-6.0888-5.465-1.495-4.307 3.28-9.752 5.9699-17.9493 3.7275"/></g><path d="m27.9466 101.688c-.4605.419-.916.73-1.3663.934-.441.214-.8489.351-1.2239.411-.3647.052-.6778.046-.9392-.015-.2522-.051-.4248-.128-.5178-.23-.1303-.143-.1945-.337-.1926-.582.0121-.254.0744-.432.187-.535.1637-.149.3061-.156.427-.023.0465.051.0726.121.0782.209.0158.079.0321.148.0488.208.3015.044.6857-.007 1.1528-.151.4764-.134 1.0165-.475 1.6203-1.024.2456-.224.4424-.449.5903-.677.1479-.2282.2558-.4385.3237-.6311.0773-.1823.1191-.3419.1256-.4787.0065-.1367-.0042-.2205-.0321-.2512-.093-.1023-.2884-.1116-.5861-.0279-.2884.094-.5983.2262-.9295.3964-.321.161-.6327.3322-.935.5136-.2829.1824-.4703.3159-.5624.3989-.0521.066-.0991.128-.141.185-.0419.056-.0837.113-.1256.17s-.0884.108-.1396.155c-.1944.176-.4289.268-.7033.275-.2745.006-.4676-.052-.5792-.175-.0558-.061-.0614-.15-.0168-.265.0642-.114.1535-.242.268-.384.1144-.1412.234-.2872.3586-.438.134-.1405.248-.2721.3419-.3949.1098-.2494.3038-.622.582-1.1179s.5726-1.0254.8834-1.5883c.3302-.5619.6498-1.1048.9587-1.6287.3182-.5136.5773-.9174.7773-1.2114.4224-.6457.8057-1.1905 1.1499-1.6343.3452-.4633.6527-.855.9225-1.1751.2707-.3396.514-.6169.7299-.8318.2158-.2149.4005-.3922.554-.5317.0921-.0838.201-.108.3266-.0726.1163.0251.2023.0683.2582.1298.0837.0921.1237.1772.12.2553.0065.0689-.0372.1647-.1312.2875-.1032.1126-.253.2768-.4493.4927-.2057.2056-.469.4917-.7899.8583-.1554.1787-.3633.4331-.6239.7634-.2511.3406-.5242.729-.8191 1.1654-.295.4364-.6057.8965-.9323 1.3803-.307.4847-.5986.9555-.875 1.4124-.267.467-.5079.9011-.7228 1.3021-.2057.4112-.354.7518-.4452 1.0216.4522-.2429.8871-.4327 1.3049-.5694.3479-.1108.6987-.1773 1.0522-.1997.3638-.0316.6527.0703.8667.3057.0838.0921.1545.2521.2122.48.0577.228.0544.502-.0098.8221-.0549.3302-.1944.6912-.4186 1.0812-.2149.401-.5527.811-1.0132 1.23z" fill="#0092e4"/><path d="m119.506 102.302c-.268.419-.555.754-.861 1.006-.295.257-.582.448-.859.573-.271.116-.514.177-.728.184-.206.013-.355-.01-.448-.07-.131-.083-.221-.219-.271-.409-.043-.199-.032-.349.033-.452.096-.149.204-.185.325-.107.047.03.081.078.104.145.029.058.056.108.081.151.242-.029.529-.148.859-.357.34-.203.686-.58 1.038-1.13.143-.223.248-.439.315-.645.066-.207.106-.392.118-.555.022-.157.021-.289-.003-.396-.023-.107-.049-.17-.077-.187-.093-.0601-.246-.026-.459.1-.203.133-.415.3-.635.5-.214.192-.419.389-.615.592-.18.2-.297.342-.351.426-.026.062-.05.119-.07.171-.021.053-.041.106-.062.158-.02.053-.045.102-.075.149-.114.177-.275.297-.486.359s-.372.058-.484-.014c-.056-.036-.078-.103-.068-.201.026-.102.068-.219.127-.352.059-.134.121-.271.185-.414.075-.136.135-.262.182-.376.033-.216.105-.544.216-.985.112-.441.229-.9113.351-1.4109.138-.5029.271-.9889.401-1.4579.138-.463.254-.8289.347-1.0977.192-.5869.374-1.0876.547-1.5021.17-.4299.326-.7966.468-1.1001.138-.3187.268-.5836.39-.7947.122-.211.227-.3864.317-.5262.053-.0839.132-.1253.237-.1242.095-.0049.17.0106.226.0463.084.0537.133.1111.146.1722.02.0518.006.135-.041.2494-.056.1085-.138.2666-.244.4743-.116.2017-.26.4776-.431.8277-.083.1704-.19.4103-.323.7197-.123.3154-.253.6724-.389 1.071-.137.3985-.281.8187-.432 1.2605-.136.4384-.263.8629-.381 1.2734-.109.4164-.205.8019-.287 1.1564-.073.3605-.117.6549-.131.8819.299-.282.595-.5192.889-.712.246-.1582.503-.2827.771-.3737.275-.1004.519-.082.733.0552.084.0536.172.1625.265.3265.092.164.146.3763.163.637.027.266-.006.574-.097.923-.082.354-.258.741-.526 1.161z" fill="#0092e4"/><path d="m107.708 125.935c.011.498-.039.936-.152 1.315-.102.379-.233.697-.393.956-.16.247-.327.433-.501.559-.163.126-.3.19-.411.192-.155.004-.306-.059-.452-.188-.148-.141-.223-.272-.226-.393-.004-.177.066-.267.21-.271.055-.001.111.02.167.063.057.032.107.058.152.079.184-.159.355-.418.513-.776.168-.358.245-.863.23-1.516-.006-.265-.04-.503-.1-.711-.06-.209-.131-.385-.212-.527-.069-.142-.144-.251-.223-.327-.079-.075-.136-.113-.169-.112-.11.003-.218.116-.324.34-.094.223-.177.48-.247.769-.071.279-.131.557-.18.835-.038.266-.056.449-.053.549.012.066.025.127.037.182s.025.11.037.165.019.11.021.165c.005.21-.063.4-.203.57-.14.169-.276.255-.409.258-.066.002-.123-.041-.169-.129-.035-.098-.066-.219-.091-.363-.026-.143-.052-.292-.077-.446-.015-.155-.035-.293-.06-.414-.093-.197-.217-.509-.371-.937-.153-.429-.319-.884-.497-1.367-.166-.494-.327-.972-.481-1.433-.144-.461-.252-.83-.325-1.105-.169-.593-.298-1.111-.385-1.551-.099-.452-.175-.843-.227-1.174-.063-.341-.104-.634-.12-.877-.017-.243-.027-.447-.031-.613-.003-.1.04-.178.127-.236.076-.057.147-.086.214-.088.099-.002.172.018.217.062.045.032.08.108.105.23.014.121.035.298.062.529.017.232.052.541.105.928.027.187.071.446.134.777.075.33.166.699.276 1.106.109.407.224.836.345 1.287.132.439.264.862.395 1.269.143.406.279.779.408 1.119.141.34.269.608.385.804.09-.4.203-.762.339-1.087.116-.268.259-.515.431-.74.172-.237.385-.358.639-.364.1-.002.233.039.401.123.168.085.332.231.492.437.171.206.316.48.434.82.13.34.201.759.213 1.257z" fill="#0092e4"/></g><path d="m172.184 57.9605c-4.93-17.7058-16.45-33.6755-31.834-43.698-16.301-10.61884-37.611-13.809464-56.6754-14.236868-26.6217-.609631-60.3435 9.614938-73.4407 35.000768-1.09 2.1105 2.1205 3.9228 3.2105 1.8123 9.2804-17.9907 31.4457-28.38094 50.5696-31.78693 20.5717-3.65778 43.065-.78191 62.53 6.47733 20.323 7.5773 34.434 24.9717 41.369 45.0961 7.72 22.3907 3.446 44.6888-8.876 64.3558-25.439 40.594-87.8731 53.77-125.8425 23.004-17.3944-14.095-28.7388-32.95-28.95747-55.5032-.12922-13.2926 2.46172-28.1358 9.09807-39.7983 2.0575-3.6114 4.8207-6.706 7.9385-9.499.0463-.7256.0994-1.4446.1491-2.1602-.3612-.4606-.6693-.9576-.8283-1.5738-.0166-.0696-.0133-.1226-.0299-.1955-1.8951 1.5937-3.7306 3.2668-5.4668 5.0659-7.59053 7.8556-10.58236 18.7528-12.69619 29.1596-4.20115 20.6744-1.706305 40.0035 10.14839 57.4705 10.1483 14.956 25.8 28.875 43.5058 33.736 21.2708 5.837 43.4792 5.344 63.6073-3.671 9.108-4.076 18.981-8.078 26.635-14.658 9.386-8.078 16.436-19.485 22.129-30.336 8.677-16.5394 8.67-36.4253 3.757-54.0615z" fill="#000" opacity=".2"/></svg>