<svg fill="none" viewBox="0 0 358 176" xmlns="http://www.w3.org/2000/svg" xmlns:xlink="http://www.w3.org/1999/xlink"><linearGradient id="a"><stop offset="0" stop-color="#6fd43f" stop-opacity=".43"/><stop offset="1" stop-color="#6fd43f" stop-opacity="0"/></linearGradient><radialGradient id="b" cx="0" cy="0" gradientTransform="matrix(8.09429395 26.48962792 -63.99964951 19.55603066 276.5 91.4195)" gradientUnits="userSpaceOnUse" r="1" xlink:href="#a"/><radialGradient id="c" cx="0" cy="0" gradientTransform="matrix(9.10219615 29.65158885 -71.94543543 22.08520659 181.6 136.159)" gradientUnits="userSpaceOnUse" r="1" xlink:href="#a"/><radialGradient id="d" cx="0" cy="0" gradientTransform="matrix(9.10219615 29.65158885 -71.94543543 22.08520659 91.6001 95.1598)" gradientUnits="userSpaceOnUse" r="1" xlink:href="#a"/><linearGradient id="e" gradientUnits="userSpaceOnUse" x1="227.441" x2="235.297" y1="99.544" y2="44.6791"><stop offset="0" stop-color="#8fd7fe"/><stop offset=".640464" stop-color="#4facdf"/></linearGradient><g clip-rule="evenodd"><path d="m106.363 16.0036c.187-.0273.361.1026.389.2901 1.627 11.1789 1.23 22.3932.835 33.5803-.076 2.126-.151 4.251-.212 6.3746-.093 3.2444-.072 6.4911-.051 9.7431.009 1.4029.019 2.8068.019 4.2119 0 .2203.025.4997.055.8275.004.0376.007.0758.011.1146.033.3678.068.7796.065 1.1776-.002.3952-.041.8025-.169 1.1555-.13.3602-.361.6835-.752.8596-.173.0778-.376.0008-.454-.1719-.078-.1728-.001-.3759.172-.4537.177-.0795.303-.229.389-.4674.089-.2457.126-.5628.128-.9266.003-.3608-.029-.7424-.062-1.1108-.004-.0392-.008-.0783-.011-.1174-.03-.3191-.059-.6328-.059-.887 0-1.3953-.009-2.7937-.018-4.1937-.021-3.2576-.043-6.5241.051-9.7811.062-2.1331.137-4.2644.212-6.394.396-11.1875.789-22.3301-.828-33.4423-.028-.1875.102-.3616.29-.3889z" fill="#b0b1c4" fill-rule="evenodd"/><path d="m101.787 46.5062c.147-.1196.363-.0975.482.0495.945 1.1607 1.663 2.0712 2.293 2.8701 1.533 1.9432 2.544 3.2256 5.033 5.8417.131.1373.126.3544-.012.485-.137.1306-.354.1252-.485-.012-2.512-2.6402-3.545-3.9505-5.086-5.9048-.629-.7971-1.342-1.7014-2.275-2.8469-.119-.1469-.097-.363.05-.4826z" fill="#b0b1c4" fill-rule="evenodd"/><path d="m103.817 44.4141c.133-.1346.35-.1356.485-.0022 1.099 1.0891 2.028 2.061 2.927 3.001 1.525 1.5944 2.962 3.0972 4.992 4.9257.141.1268.152.3437.025.4845-.126.1408-.343.1521-.484.0253-2.045-1.8419-3.515-3.3784-5.054-4.988-.897-.9374-1.818-1.8995-2.889-2.9612-.135-.1333-.136-.3505-.002-.4851z" fill="#b0b1c4" fill-rule="evenodd"/><path d="m105.961 7.00262c.188-.0232.36.11043.383.29846.06.49035.13.98069.201 1.47266.193 1.35166.389 2.71556.389 4.12586 0 .1895-.154.3431-.343.3431-.19 0-.343-.1536-.343-.3431 0-1.3576-.185-2.6499-.377-3.98542-.071-.5017-.144-1.00949-.208-1.5291-.023-.18804.11-.35927.298-.38246z" fill="#b0b1c4" fill-rule="evenodd"/><path d="m72.7668 26.9906c.1888-.016.3547.1241.3707.3129.1505 1.7822.5977 4.2503 1.1073 7.0633l.0129.0709c.5134 2.8338 1.0852 5.9998 1.4654 9.1136.3801 3.1116.5712 6.1884.3169 8.8436-.2533 2.6461-.9542 4.9328-2.4134 6.4019-.2462.2478-.5507.3417-.8652.309-.0304-.0032-.0606-.0075-.0908-.0129.0465.8273.0699 1.7236.0777 2.6625.0162 1.9296-.0333 4.0543-.0866 6.1504-.0044.1727-.0088.3452-.0132.5174-.0491 1.9202-.0973 3.8009-.0973 5.4785v11.0544c0 .2253-.0047.435-.0091.6325-.0217.9609-.0368 1.6325.5293 2.3974.1127.1523.0806.3671-.0717.4798s-.3671.0806-.4798-.0717c-.7166-.9683-.6914-1.8991-.6649-2.8746.005-.186.0101-.3736.0101-.5634v-11.0544c0-1.6869.0484-3.5764.0975-5.4944.0044-.1728.0089-.3458.0133-.5189.0533-2.0974.1024-4.2109.0863-6.1273-.0089-1.0714-.0383-2.0762-.0979-2.9787-.0165-.0112-.0329-.0226-.0492-.0342-.5201-.3706-1.0217-.9861-1.3929-1.6267-.3681-.6354-.6416-1.3538-.6467-1.9439-.0025-.2985.0637-.6067.2696-.8434.2132-.2451.5248-.3558.8882-.3558.0538 0 .1068.0126.1548.0369.3711.1877.6269.5708.8131 1.0189.19.4572.331 1.0396.4371 1.7081.0778.4901.138 1.0352.1839 1.6238.0781.0323.1485.0509.2103.0573.1186.0123.2148-.017.3073-.1101 1.2914-1.3001 1.9691-3.3922 2.2173-5.9837.2472-2.5824.0628-5.6021-.315-8.6952-.3775-3.0909-.9456-6.2378-1.4595-9.0744l-.0189-.1043c-.5048-2.7859-.9566-5.2795-1.1099-7.0944-.0159-.1888.1242-.3548.313-.3707zm-.883 30.8214c-.0349-.3417-.0757-.6633-.1231-.9622-.1022-.6439-.2327-1.1664-.3931-1.5523-.1406-.3385-.2879-.5324-.4228-.6293-.1626.0144-.2405.0685-.282.1162-.0556.064-.103.1824-.1012.3873.0036.4168.2105 1.0125.5543 1.6059.2244.3873.4925.7485.7679 1.0344z" fill="#b0b1c4" fill-rule="evenodd"/><path d="m70.3038 85.0388c1.3272-.1592 2.8159.0682 3.8096.5157 2.6144 1.1775 3.2619 4.2482 2.4003 6.5764-.3532.9546-1.3001 1.5234-2.2983 1.7425-1.004.2203-2.1533.1115-3.0245-.3879-.4741-.2718-.7903-.6658-.9889-1.1238.0001.0431.0002.0863.0003.1297.0004.1519.0009.3056.0009.4613 0 .1894-.1536.343-.3431.343-.1894 0-.343-.1536-.343-.343 0-.1587-.0005-.3164-.0011-.4735-.0009-.2836-.0019-.565.0003-.845-1.5497-.6915-2.8477-2.4113-2.2047-4.5994.3764-1.2808 1.6851-1.8393 2.9922-1.996zm.501 1.6398c-.2938.178-.5259.479-.6789.8924-.4182 1.1302-.5523 2.2144-.5935 3.3075-1.1827-.6459-2.0491-1.9945-1.5626-3.6503.2548-.8669 1.1805-1.3601 2.4157-1.5082.2655-.0319.538-.0465.8108-.0459-.1137.2754-.2504.6177-.3915 1.0045zm-.179 4.5752c-.0558-.5284-.011-1.1301.0988-1.7551.1405-.8001.382-1.61.6257-2.3076.1858-.0381.4162.0025.6662.135.2711.1436.5325.3795.7248.6589.1931.2807.3007.5817.3007.8517 0 1.1602-.4039 1.8192-.9183 2.1502-.4107.2643-.9398.351-1.4979.2669zm.1547.7073c.605.0458 1.2066-.0704 1.7144-.3972.7607-.4895 1.2332-1.4001 1.2332-2.7272 0-.4443-.1726-.8786-.4216-1.2406-.2498-.3631-.5924-.6769-.9688-.8763-.2255-.1195-.4756-.2038-.7312-.224.1189-.3075.2292-.5745.3179-.7847.7192.0709 1.3978.2395 1.9073.469 2.1889.9858 2.8154 3.6134 2.0386 5.7127-.2404.6496-.9252 1.118-1.802 1.3104-.8711.1912-1.8402.086-2.5362-.3129-.3619-.2075-.6047-.5228-.7516-.9292z" fill="#b0b1c4" fill-rule="evenodd"/><path d="m55.6525 71.0948c.1895.0022.3412.1576.339.3471-.034 2.8449-.1186 5.6901-.2032 8.5317-.031 1.0392-.0619 2.0779-.0903 3.1159-.0052.1894-.1629.3387-.3523.3335s-.3387-.1629-.3335-.3523c.0285-1.0416.0595-2.0825.0904-3.123.0846-2.8396.169-5.6757.2028-8.514.0023-.1895.1577-.3412.3471-.3389z" fill="#b0b1c4" fill-rule="evenodd"/><path d="m59.2142 61.6903c.01 2.1242-.7599 4.6439-1.2173 5.7883-.3605.9021-1.3355 1.0406-2.126.893-.0994-.0185-.1988-.0418-.2974-.0695-.0048.001-.0097.002-.0146.003-.4654.0932-.884-.0159-1.2333-.2753-.3384-.2513-.598-.6323-.7945-1.07-.3928-.8748-.578-2.0751-.5774-3.2853.0007-1.2135.1882-2.477.5726-3.4862.3763-.9878.9857-1.8401 1.8979-2.0227 1.3775-.2757 2.3634.0118 2.9882.7402.5994.6987.7969 1.7284.8018 2.7845zm-2.4979 6.0213c.3158-.0621.5401-.2289.6435-.4876.4428-1.108 1.1777-3.5331 1.1683-5.5305-.0047-1.0046-.198-1.83-.6364-2.341-.413-.4815-1.1121-.7585-2.3328-.5142-.5484.1098-1.0358.6605-1.3914 1.5942-.3475.9122-.5271 2.0889-.5277 3.2424 0 .0876.001.1749.003.2616.0419-.1922.0893-.3831.14-.571.1732-.642.3937-1.278.5944-1.856l.0028-.0081c.202-.5818.3806-1.096.4845-1.5225.0449-.184.2305-.2969.4145-.252.1841.0448.297.2304.2521.4145-.1117.4585-.2993.9985-.4946 1.561l-.0112.0322c-.2018.5811-.4142 1.1947-.5801 1.8097-.3379 1.2522-.4507 2.4024.0081 3.2289.1063.1914.3133.3917.5979.5638.1662.1006.351.1866.5426.2529.7196-.2186 1.1277-.8559 1.357-1.6947.2462-.9006.2539-1.9306.2539-2.6305 0-.7979-.0431-1.3224-.1218-1.6379-.0355-.1424-.072-.2151-.095-.2478-.0044.0014-.0096.0032-.0155.0055-.0264.0103-.0625.0285-.109.0588-.0945.0615-.2112.159-.3532.2978-.2841.2778-.6292.6806-1.0487 1.1846-.1213.1455-.3376.1653-.4832.0441s-.1653-.3376-.0441-.4832c.4164-.5001.7832-.9299 1.0964-1.2361.1567-.1532.3101-.2856.4584-.3821.1435-.0935.315-.1753.502-.1801.2112-.0054.39.0881.5188.2443.1164.1412.1888.3277.2388.5281.1006.4033.1422 1.0004.1422 1.804 0 .6909-.0043 1.8095-.2782 2.8115-.165.6034-.4395 1.2023-.8963 1.6354z" fill="#b0b1c4" fill-rule="evenodd"/><path d="m53.8882 36.4598c.1745-.0738.3757.0078.4495.1823.7908 1.8698 1.2507 4.7663 1.505 7.8998.2553 3.1449.3062 6.5687.2611 9.5177-.0452 2.9478-.1864 5.4314-.3176 6.6968-.0326.3147-.0656.5643-.0982.729-.0146.0738-.0349.1627-.0671.2326-.0092.0197-.0245.0497-.0482.0809-.0205.027-.0701.0856-.1569.1197-.108.0426-.2235.0278-.3138-.0274-.0725-.0444-.1105-.1031-.1263-.1303-.0327-.0562-.0473-.114-.0541-.1437-.0087-.0375-.0153-.0785-.0207-.12-.0108-.0836-.0194-.191-.0262-.3202-.0136-.2595-.021-.6287-.021-1.1166 0-.1864.1487-.3381.334-.3429.1008-1.3575.1948-3.367.2301-5.6684.0449-2.9357-.006-6.336-.2589-9.4517-.2539-3.1271-.7085-5.9275-1.4531-7.688-.0738-.1745.0079-.3758.1824-.4496z" fill="#b0b1c4" fill-rule="evenodd"/><path d="m54.064 33.0171c-.1757.03-.4637.1304-.9029.3579-.1682.0871-.3752.0214-.4624-.1469-.0871-.1682-.0214-.3752.1469-.4623.4611-.2389.8232-.3772 1.1028-.425.2618-.0447.5795-.027.7596.235.1591.2317.1005.5103.0441.6776-.0649.1922-.1772.3869-.298.5502-.1128.1523-.3276.1844-.4799.0717-.1522-.1127-.1843-.3275-.0716-.4798.0914-.1235.1635-.255.1994-.3615.0028-.0084.0053-.0162.0075-.0235-.0133.0015-.0284.0037-.0455.0066zm.1339-.0067c-.0002.0002-.0025-.0002-.0064-.0018.0047.0008.0066.0016.0064.0018z" fill="#b0b1c4" fill-rule="evenodd"/><path d="m72.6331 22.8729c-.008-.0051-.0161-.0103-.0242-.0156-.159-.1029-.2045-.3153-.1015-.4744.0946-.1461.2817-.1963.4348-.1236.0445-.0211.0943-.033.1469-.033.016 0 .0318.0001.0472.0002.2672-.1502.5451-.1466.7724-.0382.2259.1078.4133.33.4392.5824.0143.1391-.0226.3096-.165.434-.1335.1167-.3024.142-.4472.133-.1186-.0073-.2529-.0392-.404-.0965-.0339.0058-.0676.0104-.1006.0136-.0514.0051-.1073.0075-.1628.0038-.0281-.0019-.059-.0055-.091-.0123-.0315-.0066-.069-.0173-.1081-.0354-.0389-.0181-.086-.0466-.129-.092-.0449-.0474-.0806-.1084-.0975-.1805-.0052-.0224-.0083-.0443-.0096-.0655z" fill="#b0b1c4" fill-rule="evenodd"/><path d="m53.7933 20.3041c.1826-.0507.3716.0562.4223.2388.6628 2.3881.6364 4.7898.6102 7.1711-.0051.4635-.0102.9261-.0102 1.3878 0 .1894-.1536.343-.343.343-.1895 0-.3431-.1536-.3431-.343 0-.4775.005-.9507.01-1.4204.0252-2.3805.0495-4.6691-.585-6.955-.0507-.1826.0563-.3716.2388-.4223z" fill="#b0b1c4" fill-rule="evenodd"/><path d="m54.2527 15.0082c.185.041.3016.2242.2606.4092l-.2933 1.323c-.0411.1849-.2243.3016-.4092.2606-.185-.041-.3017-.2242-.2607-.4092l.2934-1.3229c.041-.185.2242-.3017.4092-.2607z" fill="#b0b1c4" fill-rule="evenodd"/><path d="m73.6373 12.7027c.1882-.0219.3585.1128.3805.301.2229 1.91.3995 3.7058-.0048 5.6656-.0382.1856-.2197.305-.4052.2667-.1856-.0383-.305-.2197-.2667-.4053.3796-1.8401.2183-3.5361-.0048-5.4475-.0219-.1882.1128-.3585.301-.3805z" fill="#b0b1c4" fill-rule="evenodd"/><path d="m74.8495 0c.1895 0 .3431.153586.3431.343045 0 1.523035-.051 3.022635-.2978 4.552795-.0301.18704-.2062.31421-.3933.28405-.187-.03017-.3142-.20625-.284-.39329.2381-1.47658.289-2.93367.289-4.443555 0-.189459.1536-.343045.343-.343045z" fill="#b0b1c4" fill-rule="evenodd"/><path d="m123.517 8.00685c.185-.03749.366.08268.404.26839 1.003 4.97226.85 10.22116.7 15.33006-.053 1.8161-.106 3.6145-.106 5.3765v35.3974c0 .7864-.004 1.5702-.007 2.3518-.02 4.3703-.039 8.6713.559 12.9772.016.1175.037.2541.061.4044l.001.0054c.024.151.049.3142.072.4776.046.321.086.6649.08.9349-.002.1305-.016.2783-.064.4047-.05.1303-.18.3291-.444.3312-.197.0016-.359-.1189-.466-.2152-.123-.1108-.259-.2697-.411-.4748-.113-.1523-.08-.3671.072-.4798.152-.1128.367-.0807.48.0716.053.0722.101.1339.145.1863-.009-.188-.036-.4177-.071-.6624-.022-.1576-.047-.3159-.071-.4676l-.002-.0096c-.023-.147-.045-.2888-.062-.4124-.605-4.3586-.585-8.7152-.565-13.0842.003-.7793.007-1.559.007-2.3391v-35.3974c0-1.8073.053-3.634.107-5.4666.149-5.085.299-10.2157-.688-15.10421-.037-.18572.083-.36666.269-.40414z" fill="#b0b1c4" fill-rule="evenodd"/><path d="m125.737 43.3575c.92.5298 1.674 1.4188 1.715 2.4265.003.0737.008.1627.013.2646.032.6073.088 1.6699-.037 2.6327-.072.5608-.21 1.1274-.475 1.5628-.276.4521-.702.7774-1.312.7774-.78 0-1.359-.2533-1.765-.6912-.011.017-.023.0332-.037.0486-.127.1408-.343.1521-.484.0253-.632-.5688-1.668-2.0116-2.152-3.4834-.242-.7378-.36-1.5245-.182-2.2297.184-.7279.675-1.3288 1.555-1.681 1.039-.4159 2.234-.1864 3.161.3474zm-2.405 6.0111c-.52-.6465-1.144-1.6485-1.477-2.6621-.223-.6785-.302-1.3207-.169-1.8471.128-.5037.457-.9372 1.145-1.2124.79-.3164 1.763-.1564 2.564.3051.808.4656 1.344 1.1775 1.372 1.8601.003.0821.008.1781.013.2854.032.6144.083 1.602-.032 2.4958-.068.5263-.19.9802-.381 1.2936-.181.2968-.408.4485-.726.4485-.668 0-1.071-.2259-1.332-.5536-.276-.3455-.428-.8459-.492-1.4457-.064-.5951-.039-1.2472.005-1.8644.012-.1808.027-.3614.041-.5368.034-.406.064-.7849.064-1.0777 0-.1894-.153-.343-.343-.343-.189 0-.343.1536-.343.343 0 .2639-.027.5964-.059.9849-.014.1819-.03.376-.045.5811-.044.6256-.073 1.3279-.002 1.9864.035.3265.096.6527.197.9589z" fill="#b0b1c4" fill-rule="evenodd"/><path d="m127.991 17.79c.189 0 .343.1536.343.3431 0 .3622-.15.6993-.348.9948-.199.2974-.466.5799-.742.8389-.274.2562-.569.5004-.834.7201l-.012.0094c-.274.2267-.509.4219-.679.5907-2.106 2.0933-4.557 4.0382-6.904 5.9004-.2.159-.4.3174-.598.4752-.149.1179-.364.0932-.482-.0551s-.093-.3641.055-.482c.197-.1568.395-.3139.594-.4714 2.353-1.8673 4.774-3.7889 6.852-5.8537.196-.195.457-.4113.722-.6306l.007-.0056c.27-.2236.552-.4564.809-.698.261-.2438.485-.4853.642-.7202.159-.2367.232-.4399.232-.6129 0-.1895.153-.3431.343-.3431z" fill="#b0b1c4" fill-rule="evenodd"/><path d="m119.799 18.7011c.125-.1425.342-.157.484-.0322l10.281 8.9963c.143.1248.157.3415.033.4841-.125.1426-.342.157-.484.0322l-10.281-8.9963c-.143-.1248-.157-.3415-.033-.4841z" fill="#b0b1c4" fill-rule="evenodd"/></g><path d="m356.473 89.3501c.479 18.4949-34.938 34.4149-79.106 35.5579s-80.362-12.924-80.84-31.4191c-.479-18.4953 34.938-34.4153 79.106-35.5582s80.362 12.924 80.84 31.4194z" fill="url(#b)" fill-opacity=".2"/><path d="m234.733 80.3191 15.479-12.3052h37.46l17.957 12.3052v14.01l-17.957 12.3839h-35.293l-18.266-12.3839z" fill="#fff"/><g clip-rule="evenodd" fill="#000" fill-rule="evenodd"><path d="m251.834 67.3841c.176.2124.147.5276-.065.7042-2.913 2.4222-8.144 6.1977-12.586 9.4041-2.074 1.4978-3.977 2.8713-5.392 3.9248-.221.1649-.534.1191-.699-.1023-.165-.2215-.119-.5347.102-.6997 1.442-1.0741 3.366-2.4627 5.454-3.9701 4.427-3.1955 9.594-6.9251 12.481-9.3258.213-.1765.528-.1475.705.0648z"/><path d="m232.155 78.2535c.158-.2265.47-.2819.696-.1239 2.453 1.7118 4.684 3.3315 6.829 4.8877 4.866 3.5315 9.282 6.7364 14.808 9.9505.238.1388.319.4449.181.6836-.139.2387-.445.3196-.684.1808-5.571-3.2403-10.049-6.4898-14.935-10.0359-2.137-1.5508-4.352-3.1583-6.771-4.8466-.227-.1581-.282-.4698-.124-.6962z"/><path d="m285.087 66.5019c.151-.2313.46-.2965.692-.1457 7.125 4.6466 14.876 9.9173 21.391 14.8814.22.1674.262.4811.095.7008-.167.2196-.481.262-.701.0947-6.487-4.9427-14.215-10.1982-21.331-14.8393-.232-.1508-.297-.4606-.146-.6919z"/><path d="m284.813 93.6988c.178.2114.494.2387.705.061 1.982-1.6662 5.742-4.1171 9.818-6.7541.204-.1319.408-.2642.614-.3969 3.877-2.5075 7.951-5.1423 10.908-7.3599.221-.1657.266-.4791.1-.7s-.479-.2657-.7-.1c-2.928 2.1959-6.975 4.8134-10.865 7.3292-.201.1296-.401.259-.6.3879-4.051 2.6204-7.876 5.1117-9.919 6.8283-.211.1777-.238.4931-.061.7045z"/><path d="m284.79 109.171c.161.224.474.276.698.114 2.383-1.712 4.551-3.332 6.634-4.888 4.727-3.531 9.016-6.7354 14.383-9.949.237-.1418.314-.4489.172-.6858s-.449-.314-.686-.1722c-5.412 3.2408-9.763 6.491-14.51 10.037-2.076 1.551-4.227 3.158-6.577 4.846-.224.161-.275.474-.114.698z"/><path d="m232.776 93.1112c.159-.2255.471-.2791.697-.1197 2.522 1.7828 4.817 3.4698 7.023 5.0908 5.005 3.6787 9.548 7.0177 15.233 10.3667.238.14.317.446.177.684s-.447.317-.685.177c-5.73-3.375-10.334-6.759-15.36-10.4528-2.198-1.6154-4.477-3.2901-6.965-5.0491-.226-.1594-.279-.4714-.12-.6969z"/><path d="m248.784 91.542c0-.2761.224-.5.5-.5h42.724c.276 0 .5.2239.5.5 0 .2762-.224.5-.5.5h-42.724c-.276 0-.5-.2239-.5-.5z"/><path d="m290.769 68.5132c-16.408 0-28.439.0635-43.314.928-.276.016-.512-.1945-.528-.4702s.194-.5121.47-.5281c14.906-.8663 26.963-.9297 43.372-.9297.276 0 .5.2239.5.5 0 .2762-.224.5-.5.5z"/><path d="m288.912 107.268h-40.247c-.276 0-.5-.224-.5-.5s.224-.5.5-.5h40.247c.276 0 .5.224.5.5s-.224.5-.5.5z"/><path d="m287.054 69.0405h-40.247c-.276 0-.5-.2239-.5-.5 0-.2762.224-.5.5-.5h40.247c.276 0 .5.2238.5.5 0 .2761-.224.5-.5.5z"/><path d="m235.042 76.8011c.276 0 .5.2239.5.5v17.9563c0 .2761-.224.5-.5.5s-.5-.2239-.5-.5v-17.9563c0-.2761.224-.5.5-.5z"/><path d="m305.01 78.0396c.276 0 .5.2239.5.5v18.1723c0 .2762-.224.5-.5.5s-.5-.2238-.5-.5v-18.1723c0-.2761.224-.5.5-.5z"/><path d="m251.139 89.4943c.276 0 .5.2239.5.5v16.4457c0 .276-.224.5-.5.5s-.5-.224-.5-.5v-16.4457c0-.2761.224-.5.5-.5z"/><path d="m287.672 86.9946c.276 0 .5.2239.5.5 0 .7734.015 2.2685.034 4.121.056 5.4685.143 14.0504-.036 16.3734-.021.275-.261.481-.537.46-.275-.022-.481-.262-.46-.537.175-2.274.089-10.7214.034-16.1921-.019-1.8889-.035-3.4228-.035-4.2253 0-.2761.224-.5.5-.5z"/><path d="m237.044 80.8463c.258.0763.41.3435.343.6043-.154.5938-.551 1.7207-.935 2.8104l-.008.0226c-.002.0052-.004.0105-.006.0157l-.919 2.7573c-.085.2556-.358.3977-.616.3214-.258-.0762-.41-.3434-.343-.6043.151-.5837.544-1.6981.926-2.7816l.006-.0173.936-2.8071c.085-.2555.358-.3976.616-.3214z"/><path d="m238.891 83.009c.267.0689.428.3415.359.6089l-3.031 11.7645c-.069.2674-.342.4283-.609.3594-.268-.0689-.429-.3416-.36-.609l3.032-11.7644c.069-.2674.342-.4283.609-.3594zm2.454 1.2384c.267.0689.428.3415.359.6089l-3.191 12.3836c-.069.2674-.342.4283-.609.3594s-.428-.3415-.359-.6089l3.191-12.3836c.069-.2674.341-.4284.609-.3594zm2.61 2.1671c.268.0689.429.3415.36.6089l-3.112 12.0741c-.069.2674-.341.4283-.609.3594-.267-.0689-.428-.3416-.359-.609l3.111-12.074c.069-.2674.342-.4283.609-.3594z"/><path d="m246.692 88.2718c.267.0689.428.3416.359.609l-2.952 11.4552c-.069.267-.341.428-.609.359-.267-.069-.428-.342-.359-.609l2.952-11.4548c.069-.2674.342-.4283.609-.3594zm2.409 1.4134c.267.069.428.3416.359.609l-3.226 12.5178c-.069.268-.342.429-.609.36s-.428-.342-.359-.609l3.226-12.5184c.068-.2674.341-.4283.609-.3594zm2.735 1.6825c.267.0689.428.3416.359.609l-3.271 12.6933c-.069.267-.341.428-.609.359-.267-.069-.428-.341-.359-.609l3.271-12.6929c.069-.2674.341-.4283.609-.3594z"/><path d="m261.024 91.3678c.267.0689.428.3415.359.6089l-3.765 14.6093c-.057.22-.256.375-.484.375h-3.169c-.154 0-.3-.072-.395-.194s-.128-.281-.089-.431l3.765-14.6088c.069-.2674.341-.4283.609-.3594.267.0689.428.3415.359.6089l-3.604 13.9843h2.137l3.668-14.2338c.069-.2674.341-.4283.609-.3594zm-5.942 0c.267.0689.428.3415.359.6089l-3.764 14.6093c-.069.267-.342.428-.609.359-.268-.069-.429-.342-.36-.609l3.765-14.6088c.069-.2674.341-.4283.609-.3594z"/><path d="m270.363 91.0579c.268.069.429.3416.36.609-.642 2.4904-1.32 5.1838-1.99 7.8434l-.03.1173c-.659 2.6184-1.31 5.2014-1.907 7.5184-.069.268-.341.429-.609.36-.267-.069-.428-.342-.359-.609.596-2.315 1.246-4.895 1.906-7.5151l.029-.1158c.67-2.6591 1.349-5.3552 1.991-7.8488.069-.2674.342-.4283.609-.3594zm-3.169 0c.268.069.429.3416.36.609-.634 2.4608-1.29 5.1366-1.941 7.7955l-.017.0693c-.645 2.6343-1.286 5.2503-1.896 7.6143-.069.268-.341.429-.609.36-.267-.069-.428-.342-.359-.609.608-2.359 1.247-4.97 1.893-7.6067l.016-.0658c.651-2.6577 1.309-5.3395 1.944-7.8072.069-.2674.342-.4283.609-.3594zm-2.767.0015c.267.0719.424.3464.353.613l-4.177 15.4796c-.072.267-.347.424-.613.352-.267-.072-.425-.346-.353-.613l4.177-15.4791c.072-.2666.346-.4245.613-.3525z"/><path d="m279.625 91.3678c.267.0689.428.3415.359.6089l-3.749 14.5503c-.069.268-.342.429-.609.36-.268-.069-.429-.342-.36-.609l3.75-14.5508c.069-.2674.342-.4283.609-.3594zm-3.169 0c.267.0689.428.3415.359.6089l-3.749 14.5503c-.069.268-.342.429-.609.36-.268-.069-.429-.342-.36-.609l3.75-14.5508c.069-.2674.342-.4283.609-.3594zm-2.773 0c.268.0689.428.3415.36.6089l-3.75 14.5503c-.069.268-.342.429-.609.36-.268-.069-.429-.342-.36-.609l3.75-14.5508c.069-.2674.342-.4283.609-.3594z"/><path d="m289.326 90.1291c.268.0689.429.3415.36.6089l-4.069 15.789c-.069.268-.342.428-.609.36-.267-.069-.428-.342-.359-.609l4.068-15.7895c.069-.2674.342-.4284.609-.3594zm-3.488 1.2383c.268.0689.429.3416.36.609l-3.75 14.5506c-.069.268-.342.428-.609.36-.267-.069-.428-.342-.359-.609l3.749-14.5512c.069-.2674.342-.4283.609-.3594zm-2.773 0c.268.0689.429.3416.36.609l-3.75 14.5506c-.069.268-.341.428-.609.36-.267-.069-.428-.342-.359-.609l3.75-14.5512c.068-.2674.341-.4283.608-.3594z"/><path d="m300.492 82.4563c.267.0689.428.3415.359.6089l-4.69 18.1998c-.069.267-.341.428-.609.359-.267-.069-.428-.342-.359-.609l4.69-18.1993c.069-.2674.342-.4283.609-.3594zm-3.95 3.0295c.268.0689.429.3415.36.6089l-4.707 18.2663c-.069.267-.342.428-.609.359-.268-.069-.429-.342-.36-.609l4.707-18.2658c.069-.2674.342-.4284.609-.3594zm-3.331 2.1671c.267.0689.428.3415.359.609l-4.627 17.9561c-.069.267-.342.428-.609.359-.267-.068-.428-.341-.359-.608l4.627-17.9567c.069-.2674.342-.4283.609-.3594z"/><path d="m303.642 80.8412c.268.0689.429.3416.36.609l-4.388 17.0274c-.069.2674-.342.4283-.609.3594s-.428-.3415-.359-.6089l4.388-17.0275c.068-.2674.341-.4283.608-.3594zm1.257 5.8822c.268.0689.429.3416.36.609l-2.394 9.2877c-.068.2674-.341.4283-.609.3594-.267-.0689-.428-.3416-.359-.609l2.394-9.2877c.068-.2674.341-.4283.608-.3594z"/></g><path d="m271.57 133.831c.536 20.704-39.311 38.53-89 39.816s-90.404-14.456-90.9397-35.16c-.5358-20.703 39.3107-38.5294 88.9997-39.8151 49.689-1.2858 90.404 14.4551 90.94 35.1591z" fill="url(#c)" fill-opacity=".2"/><path d="m134.658 120.341 20.375-16.197h49.308l23.635 16.197v18.441l-23.635 16.3h-46.455l-24.043-16.3z" fill="#fff"/><g clip-rule="evenodd" fill="#000" fill-rule="evenodd"><path d="m157.047 103.417c.176.213.147.528-.065.704-3.83 3.185-10.705 8.148-16.549 12.366-2.733 1.973-5.241 3.784-7.107 5.173-.221.165-.535.12-.7-.102-.165-.221-.119-.535.103-.7 1.893-1.41 4.422-3.235 7.169-5.218 5.829-4.208 12.64-9.124 16.445-12.288.212-.176.527-.147.704.065z"/><path d="m131.395 117.713c.158-.226.47-.282.696-.124 3.223 2.25 6.158 4.38 8.979 6.427 6.409 4.651 12.231 8.876 19.512 13.111.238.139.319.445.18.684-.138.238-.444.319-.683.18-7.326-4.26-13.21-8.531-19.639-13.196-2.813-2.042-5.732-4.16-8.921-6.386-.226-.158-.282-.469-.124-.696z"/><path d="m201.07 102.241c.151-.231.461-.297.692-.146 9.377 6.116 19.576 13.051 28.148 19.581.219.168.262.481.094.701-.167.22-.481.262-.7.095-8.544-6.509-18.72-13.429-28.088-19.539-.231-.151-.297-.461-.146-.692z"/><path d="m200.698 137.851c.177.211.493.239.704.061 2.619-2.201 7.578-5.434 12.939-8.902.268-.173.536-.347.805-.521 5.106-3.302 10.465-6.767 14.352-9.682.221-.166.266-.48.1-.7-.166-.221-.479-.266-.7-.1-3.858 2.893-9.19 6.341-14.309 9.651-.264.172-.528.342-.791.513-5.336 3.451-10.361 6.724-13.039 8.976-.212.177-.239.493-.061.704z"/><path d="m200.674 158.226c.161.224.474.276.698.114 3.131-2.249 5.983-4.38 8.723-6.427 6.225-4.651 11.88-8.875 18.952-13.11.237-.142.314-.449.172-.685-.141-.237-.449-.314-.685-.173-7.118 4.262-12.834 8.532-19.08 13.198-2.733 2.042-5.568 4.16-8.665 6.385-.225.161-.276.474-.115.698z"/><path d="m132.212 137.27c.159-.225.471-.279.697-.119 3.314 2.342 6.333 4.561 9.235 6.694 6.591 4.844 12.581 9.247 20.07 13.658.238.14.317.447.177.685s-.447.317-.685.177c-7.534-4.438-13.585-8.886-20.197-13.745-2.895-2.128-5.897-4.334-9.177-6.653-.226-.159-.28-.471-.12-.697z"/><path d="m153.311 135.114c0-.276.224-.5.5-.5h56.235c.276 0 .5.224.5.5s-.224.5-.5.5h-56.235c-.276 0-.5-.224-.5-.5z"/><path d="m208.416 104.644c-21.597 0-37.437.084-57.021 1.222-.276.016-.512-.195-.528-.47-.016-.276.194-.513.47-.529 19.615-1.139 35.481-1.223 57.079-1.223.276 0 .5.224.5.5s-.224.5-.5.5z"/><path d="m205.971 155.655h-52.975c-.276 0-.5-.224-.5-.5s.224-.5.5-.5h52.975c.277 0 .5.224.5.5s-.223.5-.5.5z"/><path d="m203.526 105.338h-52.975c-.276 0-.5-.224-.5-.5s.224-.5.5-.5h52.975c.276 0 .5.224.5.5s-.224.5-.5.5z"/><path d="m135.065 115.869c.276 0 .5.224.5.5v23.635c0 .277-.224.5-.5.5s-.5-.223-.5-.5v-23.635c0-.276.224-.5.5-.5z"/><path d="m227.161 117.499c.276 0 .5.224.5.5v23.92c0 .276-.224.5-.5.5s-.5-.224-.5-.5v-23.92c0-.276.224-.5.5-.5z"/><path d="m156.253 132.576c.277 0 .5.224.5.5v21.647c0 .276-.223.5-.5.5-.276 0-.5-.224-.5-.5v-21.647c0-.276.224-.5.5-.5z"/><path d="m204.341 129.287c.276 0 .5.223.5.5 0 1.022.02 2.996.045 5.44.073 7.199.188 18.474-.047 21.523-.021.275-.262.481-.537.46s-.481-.262-.46-.537c.231-3 .118-14.141.045-21.341-.026-2.481-.046-4.494-.046-5.545 0-.277.224-.5.5-.5z"/><path d="m137.653 121.187c.259.076.41.343.343.604-.2.775-.722 2.255-1.23 3.696l-.007.02c-.003.007-.005.015-.008.022l-1.21 3.631c-.086.255-.358.397-.616.321-.259-.076-.41-.343-.343-.604.196-.762.712-2.225 1.218-3.658l.005-.014 1.232-3.697c.086-.255.358-.397.616-.321z"/><path d="m140.09 124.035c.267.069.428.342.359.609l-3.991 15.485c-.069.268-.341.429-.609.36-.267-.069-.428-.342-.359-.609l3.991-15.485c.068-.268.341-.429.609-.36zm3.229 1.63c.268.069.429.342.36.609l-4.201 16.3c-.069.268-.341.429-.609.36-.267-.069-.428-.342-.359-.609l4.2-16.3c.069-.268.342-.429.609-.36zm3.436 2.853c.268.069.429.341.36.609l-4.096 15.892c-.069.268-.341.429-.609.36-.267-.069-.428-.342-.359-.609l4.095-15.893c.069-.267.342-.428.609-.359z"/><path d="m150.358 130.962c.267.069.428.342.359.609l-3.886 15.078c-.068.267-.341.428-.609.359-.267-.069-.428-.341-.359-.609l3.886-15.077c.069-.268.341-.429.609-.36zm3.17 1.861c.267.069.428.341.359.609l-4.246 16.477c-.069.267-.341.428-.609.359-.267-.069-.428-.341-.359-.609l4.246-16.477c.069-.267.341-.428.609-.359zm3.6 2.214c.268.069.429.342.36.609l-4.306 16.708c-.069.267-.341.428-.609.359-.267-.069-.428-.341-.359-.609l4.305-16.707c.069-.268.342-.429.609-.36z"/><path d="m169.223 135.037c.267.069.428.342.359.609l-4.955 19.229c-.057.221-.256.376-.485.376h-4.171c-.154 0-.3-.072-.395-.194s-.127-.281-.089-.431l4.956-19.229c.068-.268.341-.428.608-.36.268.069.429.342.36.609l-4.794 18.605h3.138l4.859-18.854c.069-.268.341-.428.609-.36zm-7.821 0c.267.069.428.342.359.609l-4.955 19.229c-.069.268-.342.429-.609.36-.268-.069-.429-.342-.36-.609l4.956-19.229c.069-.268.341-.428.609-.36z"/><path d="m181.515 134.63c.268.069.429.342.36.609-.845 3.278-1.738 6.824-2.62 10.325l-.039.154c-.868 3.447-1.724 6.846-2.51 9.896-.068.267-.341.428-.608.359-.268-.069-.429-.341-.36-.609.785-3.046 1.641-6.443 2.509-9.891l.038-.153c.882-3.501 1.776-7.049 2.621-10.331.069-.267.342-.428.609-.359zm-4.171 0c.268.069.428.342.36.609-.835 3.24-1.699 6.763-2.556 10.263l-.022.09c-.849 3.468-1.693 6.91-2.495 10.022-.068.267-.341.428-.608.359-.268-.069-.429-.341-.36-.609.801-3.106 1.642-6.543 2.492-10.013l.022-.087c.857-3.499 1.721-7.028 2.558-10.275.069-.267.342-.428.609-.359zm-3.644.001c.266.072.424.347.352.613l-5.497 20.375c-.072.267-.347.425-.613.353-.267-.072-.425-.346-.353-.613l5.498-20.375c.072-.267.346-.424.613-.353z"/><path d="m193.705 135.037c.267.069.428.342.359.609l-4.935 19.153c-.069.267-.342.428-.609.359-.268-.069-.428-.341-.36-.609l4.936-19.152c.069-.268.342-.428.609-.36zm-4.171 0c.267.069.428.342.359.609l-4.935 19.153c-.069.267-.342.428-.609.359-.268-.069-.429-.341-.36-.609l4.936-19.152c.069-.268.342-.428.609-.36zm-3.65 0c.268.069.428.342.36.609l-4.936 19.153c-.069.267-.342.428-.609.359s-.428-.341-.359-.609l4.935-19.152c.069-.268.342-.428.609-.36z"/><path d="m206.475 133.407c.268.069.429.342.36.609l-5.356 20.783c-.069.267-.341.428-.609.359-.267-.069-.428-.341-.359-.609l5.356-20.782c.068-.268.341-.429.608-.36zm-4.591 1.63c.268.069.429.342.36.609l-4.936 19.153c-.069.267-.342.428-.609.359s-.428-.341-.359-.609l4.935-19.152c.069-.268.342-.429.609-.36zm-3.65 0c.268.069.429.342.36.609l-4.936 19.153c-.069.267-.341.428-.609.359-.267-.069-.428-.341-.359-.609l4.936-19.152c.068-.268.341-.429.608-.36z"/><path d="m221.172 123.308c.268.068.429.341.36.608l-6.174 23.956c-.068.267-.341.428-.608.359-.268-.069-.429-.342-.36-.609l6.173-23.955c.069-.267.342-.428.609-.359zm-5.198 3.987c.267.069.428.342.359.609l-6.196 24.043c-.069.267-.341.428-.609.359-.267-.069-.428-.342-.359-.609l6.196-24.042c.069-.268.341-.429.609-.36zm-4.385 2.853c.267.069.428.341.359.609l-6.091 23.635c-.069.267-.341.428-.609.359-.267-.069-.428-.342-.359-.609l6.091-23.635c.069-.267.341-.428.609-.359z"/><path d="m225.319 121.182c.267.069.428.342.359.609l-5.775 22.413c-.069.267-.342.428-.609.359-.268-.069-.429-.341-.36-.609l5.776-22.412c.069-.268.341-.429.609-.36zm1.654 7.743c.268.069.429.341.36.609l-3.151 12.225c-.069.267-.341.428-.609.359-.267-.069-.428-.341-.359-.609l3.15-12.225c.069-.267.342-.428.609-.359z"/></g><path d="m181.57 92.8317c.536 20.7033-39.311 38.5293-88.9998 39.8153-49.689 1.286-90.40421-14.455-90.93995-35.1591-.53573-20.7038 39.31085-38.5298 88.99985-39.8156 49.6889-1.2857 90.4039 14.4557 90.9399 35.1594z" fill="url(#d)" fill-opacity=".2"/><path d="m54.5746 80.3185 15.4795-12.3052h37.4609l17.956 12.3052v14.01l-17.956 12.3835h-35.2937l-18.2659-12.3835z" fill="#fff"/><g clip-rule="evenodd" fill-rule="evenodd"><g fill="#000"><path d="m71.6753 67.384c.1766.2123.1476.5275-.0648.7041-2.9131 2.4222-8.1434 6.1977-12.5853 9.4042-2.0748 1.4977-3.9776 2.8712-5.3919 3.9247-.2215.165-.5347.1191-.6997-.1023-.1649-.2215-.1191-.5347.1023-.6997 1.442-1.0741 3.3658-2.4627 5.4542-3.9701 4.427-3.1955 9.5939-6.9251 12.4811-9.3257.2123-.1766.5276-.1476.7041.0648z"/><path d="m51.9968 78.2533c.1581-.2264.4697-.2819.6962-.1238 2.4525 1.7117 4.6842 3.3314 6.8286 4.8876 4.8659 3.5315 9.282 6.7365 14.8079 9.9505.2387.1388.3197.4449.1808.6836-.1388.2387-.4449.3196-.6836.1808-5.571-3.2403-10.0486-6.4897-14.9351-10.0359-2.1369-1.5508-4.352-3.1583-6.771-4.8466-.2264-.1581-.2818-.4698-.1238-.6962z"/><path d="m104.929 66.5017c.15-.2313.46-.2965.692-.1457 7.124 4.6466 14.876 9.9173 21.391 14.8815.22.1673.262.481.095.7007-.167.2196-.481.262-.701.0947-6.487-4.9427-14.215-10.1982-21.332-14.8393-.231-.1508-.296-.4606-.145-.6919z"/><path d="m104.655 93.6986c.178.2114.493.2387.705.061 1.982-1.6662 5.742-4.1171 9.818-6.7541.204-.1319.408-.2642.613-.3968 3.878-2.5076 7.952-5.1424 10.909-7.36.221-.1656.265-.479.1-.7-.166-.2209-.479-.2656-.7-.1-2.928 2.1959-6.975 4.8134-10.866 7.3292-.2.1296-.4.259-.599.388-4.051 2.6203-7.876 5.1116-9.919 6.8282-.211.1777-.238.4931-.061.7045z"/><path d="m104.632 109.171c.161.224.473.275.698.114 2.383-1.712 4.551-3.332 6.634-4.888 4.727-3.531 9.016-6.7356 14.383-9.9492.237-.1418.314-.4489.172-.6858s-.449-.314-.686-.1721c-5.412 3.2407-9.763 6.4911-14.51 10.0371-2.076 1.551-4.227 3.158-6.577 4.846-.224.161-.275.474-.114.698z"/><path d="m52.6179 93.111c.1594-.2255.4714-.2791.6969-.1197 2.5221 1.7828 4.8174 3.4698 7.0229 5.0908 5.0053 3.6789 9.5483 7.0179 15.2327 10.3659.238.14.3172.447.1771.685-.1402.238-.4467.317-.6846.177-5.7296-3.375-10.3343-6.759-15.3602-10.453-2.198-1.6154-4.4766-3.2901-6.9651-5.0491-.2255-.1594-.2791-.4714-.1197-.6969z"/><path d="m68.626 91.5418c0-.2761.2239-.5.5-.5h42.723c.277 0 .5.2239.5.5 0 .2762-.223.5-.5.5h-42.723c-.2761 0-.5-.2238-.5-.5z"/><path d="m110.611 68.5131c-16.4078 0-28.4393.0635-43.314.9279-.2757.016-.5122-.1945-.5282-.4702-.016-.2756.1945-.5121.4702-.5281 14.906-.8663 26.9625-.9296 43.372-.9296.276 0 .5.2238.5.5 0 .2761-.224.5-.5.5z"/><path d="m108.753 107.268h-40.2463c-.2762 0-.5-.224-.5-.5s.2238-.5.5-.5h40.2463c.277 0 .5.223.5.5 0 .276-.223.5-.5.5z"/><path d="m106.895 69.0403h-40.2464c-.2761 0-.5-.2239-.5-.5s.2239-.5.5-.5h40.2464c.277 0 .5.2238.5.5 0 .2761-.224.5-.5.5z"/><path d="m54.8838 76.801c.2761 0 .5.2238.5.5v17.9562c0 .2761-.2239.5-.5.5-.2762 0-.5-.2239-.5-.5v-17.9562c0-.2762.2238-.5.5-.5z"/><path d="m124.852 78.0394c.276 0 .5.2239.5.5v18.1723c0 .2762-.224.5-.5.5-.277 0-.5-.2238-.5-.5v-18.1723c0-.2761.223-.5.5-.5z"/><path d="m70.9807 89.4941c.2761 0 .5.2239.5.5v16.4459c0 .276-.2239.5-.5.5-.2762 0-.5-.224-.5-.5v-16.4459c0-.2761.2238-.5.5-.5z"/><path d="m107.514 86.9944c.276 0 .5.2239.5.5 0 .7734.015 2.2685.034 4.121.056 5.4685.143 14.0506-.036 16.3726-.021.276-.262.482-.537.461-.275-.022-.481-.262-.46-.537.175-2.274.089-10.7216.034-16.1923-.02-1.8888-.035-3.4228-.035-4.2253 0-.2761.224-.5.5-.5z"/><path d="m56.885 80.8459c.2583.0763.4098.3435.3426.6044-.153.5937-.5505 1.7207-.9349 2.8103l-.0079.0226c-.0019.0052-.0037.0105-.0056.0157l-.9192 2.7574c-.0852.2555-.3575.3976-.6159.3214-.2583-.0763-.4099-.3435-.3426-.6043.1504-.5838.5435-1.6982.9257-2.7817l.0061-.0172.9358-2.8071c.0852-.2556.3575-.3977.6159-.3215z"/><path d="m58.7322 83.0086c.2674.0689.4283.3416.3594.609l-3.0317 11.7644c-.069.2674-.3416.4283-.609.3594s-.4283-.3415-.3594-.6089l3.0317-11.7645c.0689-.2674.3416-.4283.609-.3594zm2.4537 1.2384c.2674.0689.4283.3415.3594.6089l-3.1913 12.3837c-.0689.2674-.3416.4283-.609.3594s-.4283-.3416-.3594-.609l3.1913-12.3836c.0689-.2674.3416-.4283.609-.3594zm2.6105 2.1671c.2674.0689.4283.3416.3594.609l-3.1115 12.074c-.0689.2674-.3416.4283-.609.3594s-.4283-.3415-.3594-.609l3.1115-12.074c.0689-.2674.3416-.4283.609-.3594z"/><path d="m66.5335 88.2714c.2674.069.4283.3416.3594.609l-2.9519 11.4546c-.0689.268-.3416.429-.609.36s-.4283-.342-.3594-.609l2.952-11.4552c.0689-.2674.3415-.4283.6089-.3594zm2.4086 1.4135c.2674.0689.4283.3415.3594.6089l-3.2259 12.5182c-.0689.267-.3416.428-.609.359s-.4283-.341-.3594-.609l3.226-12.5177c.0689-.2674.3415-.4283.6089-.3594zm2.7354 1.6824c.2674.069.4283.3416.3594.609l-3.2711 12.6937c-.0689.267-.3415.428-.6089.359s-.4283-.342-.3594-.609l3.271-12.6932c.069-.2675.3416-.4284.609-.3595z"/><path d="m80.8658 91.3676c.2674.069.4283.3416.3594.609l-3.7648 14.6084c-.0569.221-.2561.376-.4841.376h-3.169c-.1546 0-.3005-.072-.3952-.194s-.1276-.281-.089-.431l3.7648-14.609c.0689-.2674.3415-.4283.6089-.3594.2674.069.4283.3416.3594.609l-3.6037 13.9844h2.1363l3.668-14.234c.0689-.2674.3416-.4283.609-.3594zm-5.9418 0c.2674.069.4283.3416.3594.609l-3.7648 14.6084c-.0689.268-.3415.429-.6089.36s-.4283-.342-.3594-.609l3.7647-14.609c.0689-.2674.3416-.4283.609-.3594z"/><path d="m90.205 91.0578c.2674.0689.4283.3416.3594.609-.6418 2.4904-1.3202 5.1838-1.99 7.8434l-.0295.1173c-.6595 2.6185-1.3098 5.2015-1.907 7.5185-.0689.268-.3415.429-.6089.36s-.4284-.342-.3594-.609c.5964-2.315 1.2462-4.895 1.906-7.5152l.0291-.1158c.6696-2.6591 1.3487-5.3552 1.9913-7.8488.0689-.2674.3416-.4283.609-.3594zm-3.169 0c.2674.0689.4283.3416.3594.609-.6341 2.4608-1.2898 5.1366-1.9411 7.7955l-.0169.0693c-.6453 2.6344-1.2859 5.2494-1.8954 7.6144-.0689.268-.3415.429-.6089.36s-.4284-.342-.3594-.609c.6079-2.359 1.2474-4.97 1.8932-7.6068l.0161-.0658c.651-2.6577 1.3082-5.3395 1.9441-7.8072.0689-.2674.3415-.4283.6089-.3594zm-2.7673.0015c.2666.0719.4244.3463.3525.613l-4.1768 15.4797c-.0719.266-.3464.424-.613.352s-.4244-.346-.3525-.613l4.1768-15.4793c.0719-.2666.3464-.4244.613-.3524z"/><path d="m99.4665 91.3676c.2674.069.4284.3416.3594.609l-3.7497 14.5504c-.0689.268-.3416.429-.609.36s-.4283-.342-.3594-.609l3.7498-14.551c.0689-.2674.3415-.4283.6089-.3594zm-3.1689 0c.2674.069.4283.3416.3594.609l-3.7498 14.5504c-.0689.268-.3415.429-.6089.36s-.4283-.342-.3594-.609l3.7497-14.551c.0689-.2674.3416-.4283.609-.3594zm-2.7729 0c.2674.069.4284.3416.3594.609l-3.7497 14.5504c-.0689.268-.3416.429-.609.36s-.4283-.342-.3594-.609l3.7498-14.551c.0689-.2674.3415-.4283.6089-.3594z"/><path d="m109.168 90.1289c.267.0689.428.3416.359.609l-4.068 15.7891c-.069.267-.342.428-.609.359-.268-.069-.429-.341-.36-.609l4.069-15.7887c.069-.2674.342-.4283.609-.3594zm-3.488 1.2384c.267.0689.428.3415.359.609l-3.749 14.5507c-.069.267-.342.428-.609.359-.268-.069-.429-.341-.36-.609l3.75-14.5503c.069-.2674.342-.4283.609-.3594zm-2.773 0c.267.0689.428.3415.359.609l-3.7493 14.5507c-.0689.267-.3415.428-.6089.359s-.4283-.341-.3594-.609l3.7496-14.5503c.069-.2674.342-.4283.609-.3594z"/><path d="m120.333 82.4559c.267.0689.428.3415.359.609l-4.69 18.1991c-.068.268-.341.429-.609.36-.267-.069-.428-.342-.359-.609l4.69-18.1997c.069-.2674.342-.4283.609-.3594zm-3.95 3.0295c.268.0689.429.3415.36.6089l-4.707 18.2657c-.069.268-.342.428-.609.36-.268-.069-.429-.342-.36-.609l4.707-18.2662c.069-.2674.342-.4283.609-.3594zm-3.331 2.1671c.267.0689.428.3416.359.609l-4.627 17.9565c-.069.267-.341.428-.609.359-.267-.069-.428-.341-.359-.609l4.627-17.9561c.069-.2674.342-.4283.609-.3594z"/><path d="m123.484 80.8411c.268.0689.428.3415.36.6089l-4.389 17.0275c-.068.2674-.341.4283-.608.3594-.268-.0689-.429-.3415-.36-.6089l4.388-17.0275c.069-.2674.342-.4283.609-.3594zm1.257 5.8822c.267.0689.428.3415.359.609l-2.393 9.2877c-.069.2674-.342.4283-.609.3594s-.428-.3416-.359-.609l2.393-9.2877c.069-.2674.342-.4283.609-.3594z"/><path d="m85.8467 77.9146c-5.3703.0495-10.6844.0985-15.3219.0985-6.273 0-9.9901.6182-12.2682 1.5964-1.1298.4852-1.8969 1.0554-2.4482 1.6769-.5523.6225-.9077 1.3188-1.1858 2.0854-.2082.574-.3663 1.1655-.5347 1.7953-.0606.2268-.1226.4585-.1886.6961-.2454.8823-.5403 1.8132-1.0226 2.7439-.9764 1.8846-2.6839 3.6991-6.1454 5.2375-.4786.2128-1.1799.3687-2.0684.4905-.8993.1232-2.0311.2163-3.3952.2861-2.7286.1396-6.4205.1875-11.1073.1894-.2761.0001-.5001-.2237-.5002-.4998s.2237-.5001.4998-.5002c4.6853-.0019 8.3553-.0499 11.0566-.1881 1.3508-.0691 2.4511-.1604 3.3105-.2782.8702-.1192 1.4546-.2608 1.7981-.4135 3.2857-1.4603 4.8066-3.1295 5.6636-4.7837.4345-.8386.7076-1.6909.947-2.5518.0597-.2147.1179-.4322.1763-.6509.1718-.6427.3461-1.2952.5704-1.9135.3057-.8429.7162-1.6624 1.3778-2.4081.6624-.7469 1.5568-1.3976 2.8017-1.9321 2.4713-1.0612 6.3566-1.6776 12.6628-1.6776 4.6081 0 9.9025-.0488 15.2621-.0982 10.9261-.1006 22.1231-.2038 28.3251.0988 2.566.1252 4.217 1.798 5.319 4.133 1.097 2.3213 1.704 5.3958 2.166 8.5535.184 1.2596.345 2.5279.503 3.7757.242 1.9184.479 3.7887.786 5.5055.252 1.4066.546 2.6796.921 3.7536.375 1.078.82 1.921 1.353 2.495 2.031 2.187 4.762 4.556 7.754 6.374 2.999 1.822 6.216 3.065 9.231 3.065 13.287 0 29.618-.184 43.779-.6 14.185-.415 26.133-1.062 30.697-1.974.032-.007.065-.01.098-.01 4.249 0 9.204-2.56 13.116-6.596 3.904-4.029 6.689-9.4476 6.689-15.0547 0-1.863.004-3.5541.175-5.0481.172-1.4979.515-2.8371 1.218-3.9894 1.424-2.3339 4.208-3.7234 9.381-4.3797.021-.0027.042-.004.063-.004 5.338 0 11.023.029 16.53.0571 10.506.0537 20.361.104 25.911-.0569 4.041-.1171 6.815 1.4762 9.235 3.8345 1.201 1.1701 2.32 2.5331 3.462 3.9628.174.2175.348.4366.524.657.982 1.2347 1.997 2.5097 3.124 3.7736 2.647 2.9697 5.89 5.8517 10.647 7.8388 4.755 1.9868 11.06 3.094 19.85 2.4558l-11.144-1.5921c-.274-.0391-.463-.2924-.424-.5657.039-.2734.292-.4633.565-.4243l18.09 2.5843c.23.0328.407.22.427.4516.02.2314-.122.4464-.343.5184l-18.089 5.907c-.263.086-.545-.058-.631-.32-.085-.263.058-.545.32-.631l15.103-4.931h-3.798c-8.911.647-15.38-.47-20.312-2.5303-4.938-2.0632-8.299-5.0568-11.008-8.0962-1.147-1.2866-2.181-2.5861-3.163-3.8206-.175-.2192-.347-.4364-.519-.6511-1.142-1.43-2.227-2.7487-3.378-3.8707-2.285-2.2259-4.811-3.6584-8.509-3.5512-5.567.1614-15.455.1109-25.975.0572-5.491-.028-11.154-.0569-16.464-.057-5.068.6473-7.445 1.9771-8.622 3.9046-.598.9803-.915 2.1598-1.078 3.5824-.163 1.4265-.168 3.0576-.168 4.9342 0 5.9325-2.938 11.5887-6.971 15.7507-4.011 4.139-9.186 6.88-13.784 6.9-4.701.928-16.714 1.571-30.816 1.984-14.173.416-30.514.6-43.808.6-3.272 0-6.673-1.341-9.75-3.211-3.083-1.873-5.884-4.304-7.968-6.547-.666-.718-1.167-1.707-1.565-2.847-.399-1.145-.704-2.476-.96-3.9065-.31-1.7332-.554-3.6576-.801-5.6022-.157-1.2435-.316-2.4952-.494-3.7105-.461-3.1543-1.053-6.097-2.08-8.2711-1.02-2.1604-2.415-3.4612-4.464-3.5612-6.173-.3011-17.3107-.1985-28.2163-.0979z"/></g><path d="m166.225 84.9999 8-6.5 5 2 2 2.5h4l3.5-6.5 8 5 2.5 4.5-2.5 3.5 2.5 3h4.5l1.5 3-1.5 10.5001h-5.5l-4 6 2 4.5-8.5 5.5-2.5-4.5h-6l-4 5.5-8-4.5-3.5-2 3.5-6v-2h-3.5l-4-3.5v-10.0001l5.5-.5 3.5-5zm10 14 8-6.5 2.5 2.5-.5 8.0001-7 5.5-3-2.5z" fill="#fff"/><path d="m166.225 84.9999 8-6.5 5 2 2 2.5h4l3.5-6.5 8 5 2.5 4.5-2.5 3.5 2.5 3h4.5l1.5 3-1.5 10.5001h-5.5l-4 6 2 4.5-8.5 5.5-2.5-4.5h-6l-4 5.5-8-4.5-3.5-2 3.5-6v-2h-3.5l-4-3.5v-10.0001l5.5-.5 3.5-5zm10 14 8-6.5 2.5 2.5-.5 8.0001-7 5.5-3-2.5z" fill="url(#e)"/><g fill="#000"><path d="m173.596 89.9399c.241.1363.325.4414.189.6816l-4.75 8.375c-.137.2402-.442.3245-.682.1883-.24-.1363-.325-.4414-.188-.6816l4.75-8.375c.136-.2402.441-.3245.681-.1883z"/><path d="m169.879 86.4264c.247-.1221.547-.0203.669.2273.12.2424.238.4839.355.7241.763 1.5608 1.5 3.0708 2.48 4.4587.159.2256.106.5376-.12.6969-.226.1592-.538.1054-.697-.1202-1.03-1.4588-1.806-3.0479-2.565-4.6038-.117-.2388-.233-.4768-.35-.7134-.122-.2477-.02-.5474.228-.6696z"/><path d="m179.807 80.5287c.261-.0924.546.0437.639.3039.504 1.4206.92 2.863 1.332 4.2928.077.2687.155.5369.232.8044.192.6611.316 1.0709.631 1.5427.153.2298.091.5402-.139.6934s-.54.0911-.693-.1387c-.408-.6122-.567-1.1588-.756-1.8095l-.003-.0089c-.079-.2718-.157-.5429-.235-.8133-.412-1.4301-.818-2.8388-1.311-4.2283-.093-.2602.043-.5461.303-.6385z"/><path d="m180.53 79.3705c.141.2377.062.5443-.176.6848-3.726 2.2019-7.398 4.7013-10.256 7.9025-.184.206-.5.2239-.706.04s-.224-.5-.04-.706c2.962-3.3177 6.74-5.8797 10.493-8.0974.238-.1405.545-.0617.685.1761z"/><path d="m184.197 86.9245c-.971-.0567-1.969.0105-2.81.0739-.275.0207-.515-.1857-.536-.4611-.021-.2753.186-.5154.461-.5361.839-.0632 1.898-.1361 2.943-.075 1.037.0606 2.12.2555 2.977.7698.237.1421.314.4492.171.686-.142.2368-.449.3136-.686.1715-.651-.3909-1.541-.5718-2.52-.629z"/><path d="m192.17 79.6158c.212.1768.241.492.064.7042-1.581 1.8969-2.754 4.262-3.893 6.5608-.14.2822-.28.5635-.419.8427-.124.247-.424.3471-.671.2236s-.347-.4238-.224-.6708c.139-.2763.278-.5569.418-.8404 1.131-2.2842 2.359-4.762 4.021-6.7561.176-.2121.492-.2408.704-.064z"/><path d="m199.578 85.5213c.196.1953.196.5119 0 .7071-1.374 1.3747-2.417 3.1761-3.443 4.95-.16.276-.319.5514-.479.8244-.14.2382-.446.3181-.684.1784s-.318-.4461-.179-.6843c.155-.2629.31-.5321.468-.8053 1.02-1.7647 2.135-3.6948 3.61-5.1703.195-.1952.512-.1952.707 0z"/><path d="m195.463 89.699c.235-.1447.543-.0714.688.1638 1.057 1.719 1.811 3.4574 2.425 5.3585.084.2628-.06.5446-.323.6294s-.544-.0596-.629-.3224c-.593-1.8393-1.316-3.5022-2.325-5.1414-.145-.2352-.071-.5432.164-.6879z"/><path d="m204.974 95.6097c.009.2761-.208.5066-.484.515-.494.0149-.991.0332-1.49.0516-1.583.0584-3.19.1176-4.789.0734-.276-.0076-.494-.2376-.486-.5136.007-.2761.237-.4937.513-.486 1.565.0432 3.126-.0143 4.702-.0723.505-.0186 1.011-.0373 1.52-.0527.276-.0084.506.2086.514.4846z"/><path d="m205.396 95.252c.275.0258.477.2696.451.5446-.112 1.1946-.254 2.3828-.396 3.5665-.302 2.5179-.601 5.0149-.601 7.5119 0 .276-.224.5-.5.5s-.5-.224-.5-.5c0-2.557.311-5.156.616-7.7058.14-1.1688.279-2.3271.386-3.4661.026-.2749.269-.4769.544-.4511z"/><path d="m205.849 105.971c.016.275-.194.512-.47.528-2.501.147-5.004.279-7.51.376-.276.01-.508-.205-.519-.481s.205-.508.48-.519c2.498-.096 4.993-.227 7.49-.374.276-.016.513.194.529.47z"/><path d="m199.183 103.42c.251.115.361.412.246.663-1.163 2.545-2.651 4.885-4.128 7.206-.26.409-.52.818-.778 1.227-.147.234-.456.304-.69.157-.233-.147-.304-.456-.156-.69.262-.416.525-.83.787-1.242 1.478-2.323 2.924-4.597 4.056-7.074.115-.251.411-.362.663-.247z"/><path d="m193.581 111.078c.233-.148.542-.08.691.153.566.89 1.079 1.806 1.583 2.71.018.033.037.066.055.099.487.874.967 1.735 1.489 2.57.146.234.075.542-.159.689-.234.146-.543.075-.689-.159-.536-.857-1.026-1.737-1.51-2.605-.02-.036-.04-.071-.06-.107-.505-.906-1.005-1.798-1.553-2.66-.148-.233-.08-.542.153-.69z"/><path d="m186.464 116.895c.057.27-.115.536-.385.594-2.692.577-5.085.726-7.836.124-.27-.059-.441-.325-.382-.595s.326-.441.596-.382c2.576.564 4.819.431 7.413-.125.27-.058.536.114.594.384z"/><path d="m185.269 116.669c.252-.113.548-.001.661.25.766 1.696 1.612 3.314 2.487 4.973.129.244.035.546-.209.675s-.547.035-.676-.209c-.873-1.657-1.734-3.3-2.513-5.027-.114-.252-.002-.548.25-.662z"/><path d="m196.891 116.848c.153.229.091.54-.139.693-.094.063-.189.126-.284.189-2.724 1.817-5.522 3.683-8.531 5.097-.25.118-.547.01-.665-.239-.117-.25-.01-.548.24-.666 2.94-1.382 5.683-3.211 8.424-5.039.087-.058.174-.116.261-.174.23-.153.541-.091.694.139z"/><path d="m179.383 115.651c.262.087.403.37.316.632-.438 1.313-1.035 2.563-1.644 3.779-.109.219-.219.435-.328.651-.503.998-.996 1.976-1.416 2.98-.107.255-.4.375-.654.268-.255-.106-.375-.399-.269-.654.436-1.04.948-2.056 1.452-3.055.107-.213.215-.425.321-.637.606-1.212 1.176-2.408 1.589-3.648.088-.262.371-.404.633-.316z"/><path d="m172.821 111.889c.199.192.205.508.014.707-1.327 1.38-2.505 2.85-3.705 4.346-.499.623-1.002 1.25-1.52 1.877-.176.212-.491.242-.704.066s-.243-.491-.067-.704c.498-.601.988-1.213 1.481-1.828 1.211-1.51 2.435-3.036 3.794-4.45.192-.199.508-.205.707-.014z"/><path d="m166.421 117.993c.142-.237.449-.314.686-.172 2.274 1.365 4.423 2.904 6.556 4.432.275.197.55.394.825.59.023.017.068.052.113.087.025.019.05.039.07.055.015.011.03.022.045.033.255-.071.523.07.608.324.022.067.068.217.028.385-.025.101-.083.218-.198.305-.11.085-.227.108-.309.112-.143.007-.262-.042-.312-.064-.066-.029-.128-.064-.18-.096-.173-.108-.453-.332-.447-.327-.275-.197-.55-.394-.825-.591-2.138-1.531-4.251-3.045-6.489-4.387-.236-.142-.313-.45-.171-.686zm7.954 5.665c.004.012.003.011 0-.002zm.556-.495c.008.003.009.004.003.001 0 0-.001 0-.003-.001z"/><path d="m169.27 107.506c.272-.044.529.141.573.414.28 1.724 1.138 3.629 2.36 4.851.196.196.196.512 0 .707-.195.196-.512.196-.707 0-1.397-1.397-2.333-3.508-2.64-5.398-.044-.273.141-.53.414-.574z"/><path d="m161.987 107.516c.06-.27.327-.439.597-.379 1.836.411 3.782.391 5.748.371.422-.004.845-.008 1.268-.008.276 0 .5.224.5.5s-.224.5-.5.5c-.4 0-.807.004-1.219.008-1.969.021-4.055.043-6.015-.395-.27-.06-.44-.328-.379-.597z"/><path d="m162.369 97.7359c.077-.2652.354-.4181.62-.3413 2.411.6977 4.748.5529 7.299.2341.274-.0342.524.1602.558.4342s-.16.5239-.434.5581c-2.576.322-5.084.4914-7.701-.2658-.266-.0768-.418-.354-.342-.6193z"/><path d="m163.233 97.3749c.276.004.496.2311.492.5072-.018 1.2899-.068 2.5779-.116 3.8599-.002.041-.004.083-.005.124-.051 1.325-.1 2.642-.115 3.959-.012 1.061.005 1.76.329 2.624.097.259-.034.547-.292.644-.259.097-.547-.034-.644-.293-.394-1.051-.405-1.913-.393-2.986.015-1.333.065-2.663.115-3.986.002-.04.004-.08.005-.12.049-1.285.098-2.5626.116-3.8404.004-.2761.231-.4967.508-.4927z"/><path d="m159.473 94.4215c.181-.2083.497-.23.705-.0486 1.378 1.2005 2.554 2.4624 3.77 3.7673l.017.0188c.189.2021.178.5184-.024.7067-.202.1882-.519.1771-.707-.025l-.001-.0013c-1.227-1.3166-2.373-2.5463-3.712-3.7125-.208-.1814-.23-.4972-.048-.7054z"/><path d="m166.349 94.3416c.018.2756-.191.5138-.466.5322-.683.0455-1.345.1145-2.014.1843-.421.0439-.845.0881-1.279.1271-1.107.0991-2.238.1584-3.406.063-.275-.0224-.48-.2638-.458-.539.023-.2752.264-.4801.539-.4576 1.085.0885 2.151.0347 3.235-.0625.403-.036.815-.0789 1.233-.1223.687-.0715 1.388-.1444 2.083-.1908.276-.0184.514.1901.533.4656z"/><path d="m169.632 89.7092c.16.2247.108.537-.117.6975-1.637 1.1698-2.493 3.178-3.058 5.2262-.074.2662-.349.4224-.615.3489-.267-.0735-.423-.3488-.349-.615.577-2.0893 1.507-4.3924 3.441-5.7738.225-.1605.537-.1085.698.1162z"/><path d="m165.578 84.3305c.231-.1504.541-.0845.691.1472 1.083 1.6689 1.984 3.3859 2.788 5.1941.112.2523-.002.5478-.254.66-.253.1121-.548-.0015-.66-.2539-.786-1.7688-1.663-3.4382-2.713-5.0558-.15-.2317-.084-.5413.148-.6916z"/><path d="m165.264 84.4298c.108-.2543.402-.373.656-.2653 1.094.4639 2.102 1.0536 3.077 1.6334.064.0381.128.0762.192.1142.915.5449 1.803 1.0737 2.745 1.5088.251.1157.36.4128.245.6635-.116.2507-.413.3602-.664.2445-.992-.4581-1.923-1.0126-2.829-1.552-.067-.04-.133-.0798-.2-.1196-.977-.5813-1.932-1.1379-2.956-1.5721-.255-.1077-.373-.4012-.266-.6554z"/><path d="m168.795 89.6194c.141-.2374.448-.3155.685-.1744.998.5933 2.028 1.0723 3.109 1.575l.032.0146c.312.1454.647.301.957.6117.196.1952.196.5118 0 .7071-.195.1952-.512.1952-.707 0-.172-.1722-.355-.2644-.677-.4141l-.047-.0219c-1.067-.4963-2.136-.9935-3.178-1.6128-.237-.141-.315-.4478-.174-.6852z"/><path d="m165.437 94.091c.226-.159.538-.1047.697.1211 1.116 1.5858 2.226 3.0914 3.569 4.4342.196.1953.196.5119 0 .7071-.195.1953-.512.1953-.707 0-1.408-1.408-2.56-2.9744-3.68-4.5658-.159-.2258-.105-.5377.121-.6966z"/><path d="m176.17 77.3973c.126.2459.028.5471-.218.6728-4.051 2.0707-7.906 4.5511-10.573 8.2236-.162.2234-.475.273-.698.1107-.224-.1622-.273-.4749-.111-.6983 2.807-3.8656 6.832-6.4335 10.927-8.5265.246-.1256.547-.0282.673.2177z"/><path d="m173.534 77.6379c.131-.2432.434-.3342.678-.2033 1.95 1.0497 3.914 2.0187 5.952 2.8525.256.1045.378.3965.273.6521-.104.2556-.396.378-.652.2734-2.08-.8511-4.077-1.837-6.047-2.8975-.243-.1308-.335-.434-.204-.6772z"/><path d="m185.475 83.4999c-1.722 0-3.375.0555-5.033.3664-.272.0509-.533-.1279-.584-.3993s.128-.5327.399-.5836c1.752-.3284 3.48-.3835 5.218-.3835.276 0 .5.2238.5.5 0 .2761-.224.5-.5.5z"/><path d="m184.871 82.43c.246-.1261.547-.0291.673.2166.824 1.6048 1.602 3.2323 2.375 4.8509.086.179.171.3579.257.5366.119.2492.013.5477-.236.6668-.249.1192-.547.0138-.666-.2353-.086-.1788-.171-.3575-.257-.5361-.774-1.6205-1.545-3.235-2.362-4.8263-.126-.2457-.029-.5471.216-.6732z"/><path d="m189.073 76.1777c.247.1234.347.4238.224.6708-.391.7826-.815 1.5608-1.234 2.3307-.208.3816-.414.7611-.615 1.1381-.612 1.148-1.184 2.2934-1.63 3.4831-.097.2586-.385.3896-.644.2926-.258-.0969-.389-.3851-.292-.6437.469-1.2517 1.065-2.4426 1.683-3.6024.21-.3937.421-.7815.631-1.1669.414-.7603.823-1.5111 1.206-2.2787.124-.247.424-.3471.671-.2236z"/><path d="m189.27 76.2938c.252-.1132.548-.0007.661.2511.716 1.5944 1.471 3.1604 2.243 4.735.121.248.019.5475-.229.669s-.548.0189-.669-.2291c-.773-1.5773-1.534-3.1552-2.257-4.765-.114-.2519-.001-.5478.251-.661z"/><path d="m191.288 80.2559c.135-.2411.44-.3272.681-.1925 1.876 1.0488 3.615 2.3137 5.327 3.5583.45.3266.897.6518 1.344.9713.225.1605.277.4728.117.6975-.161.2247-.473.2767-.698.1162-.463-.3306-.92-.6631-1.376-.9942-1.706-1.24-3.384-2.4594-5.202-3.4762-.241-.1348-.328-.4394-.193-.6804z"/><path d="m189.208 76.4396c.171-.2165.485-.2531.702-.0818 1.121.8873 2.324 1.6065 3.567 2.305.297.1672.598.3337.901.5012.952.5271 1.922 1.0642 2.865 1.6641.233.1482.302.4573.154.6902-.149.233-.458.3017-.691.1534-.914-.5818-1.847-1.0983-2.793-1.6219-.307-.1701-.616-.341-.926-.5152-1.255-.7048-2.513-1.455-3.698-2.3926-.216-.1714-.253-.4859-.081-.7024z"/><path d="m196.438 80.4018c.261-.0894.545.0499.635.3112.296.8651.674 1.6912 1.073 2.5308.058.1216.116.2436.174.3661.342.7163.692 1.4487.994 2.2043.102.2564-.022.5474-.279.6499-.256.1026-.547-.0221-.65-.2785-.289-.723-.622-1.4226-.965-2.1401-.059-.1236-.118-.2478-.177-.3728-.4-.8427-.8-1.7129-1.116-2.6359-.09-.2613.05-.5455.311-.635z"/><path d="m196.597 89.1937c.238-.1399.544-.0602.684.1779.587.9994 1.17 2.0007 1.751 3.0022.139.2388.058.5448-.181.6834-.239.1387-.545.0575-.684-.1813-.581-1.001-1.163-2.0006-1.748-2.9978-.14-.2381-.061-.5445.178-.6844z"/><path d="m198.993 91.146c.265.0793.415.3581.336.6226-.42 1.3977-.447 2.9472-.475 4.4988-.001.0806-.003.1612-.004.2417-.006.2761-.233.4958-.51.4907-.276-.0051-.495-.2331-.49-.5092.001-.0926.003-.1859.005-.2798.026-1.5162.055-3.1949.516-4.7296.079-.2645.358-.4146.622-.3352z"/><path d="m198.11 92.0229c.056-.2704.321-.4439.592-.3875.94.1958 1.891.2805 2.87.3509.151.0109.304.0215.457.0322.826.0572 1.673.1159 2.516.2364.274.039.464.2923.425.5657-.039.2733-.293.4633-.566.4242-.804-.1148-1.609-.1707-2.436-.2281-.155-.0108-.311-.0217-.468-.033-.983-.0707-1.992-.1588-3.002-.3694-.271-.0563-.444-.3211-.388-.5914z"/><path d="m202.959 91.7016c.233-.147.542-.0767.689.157.835 1.3271 1.614 2.6666 2.386 4.0182.137.2397.054.5451-.186.6821s-.545.0537-.682-.186c-.771-1.3484-1.541-2.6731-2.364-3.9819-.148-.2337-.077-.5424.157-.6894z"/><path d="m166.587 107.769c.266-.076.543.078.618.344.266.928.532 1.83.863 2.711.097.259-.034.547-.293.644-.258.097-.547-.034-.643-.293-.346-.922-.622-1.857-.888-2.788-.076-.265.078-.542.343-.618z"/><path d="m166.046 109.868c.142-.237.449-.314.686-.172.431.259.868.546 1.303.832.04.026.079.052.119.079.478.314.956.625 1.441.908.975.569 1.944 1.003 2.935 1.113.274.03.472.278.442.552-.031.275-.278.472-.552.442-1.198-.133-2.31-.649-3.329-1.243-.511-.299-1.009-.623-1.486-.937-.039-.025-.078-.051-.117-.076-.438-.289-.858-.565-1.271-.812-.236-.142-.313-.45-.171-.686z"/><path d="m167.384 110.964c.227.157.284.468.127.695-.427.617-.881 1.226-1.329 1.828-.236.317-.47.631-.698.943-.668.915-1.297 1.832-1.819 2.806-.13.243-.433.335-.676.205-.244-.131-.335-.434-.205-.677.555-1.036 1.216-1.997 1.893-2.924.24-.329.48-.651.718-.971.441-.592.876-1.175 1.294-1.779.157-.227.468-.283.695-.126z"/><path d="m163.852 116.042c.184-.206.5-.224.706-.04.424.379.9.803 1.407 1.162.511.361 1.014.627 1.483.721.271.054.446.317.392.588s-.318.446-.588.392c-.67-.134-1.308-.491-1.864-.885-.559-.396-1.075-.856-1.493-1.23l-.003-.002c-.206-.184-.224-.5-.04-.706z"/><path d="m158.786 104.36c.215-.173.53-.139.703.076.179.222.358.458.542.7.352.463.721.949 1.14 1.408.633.696 1.271 1.2 1.912 1.343.27.06.44.327.38.596-.06.27-.327.44-.597.38-.958-.213-1.773-.919-2.435-1.646-.445-.489-.87-1.046-1.238-1.529-.175-.231-.337-.444-.483-.625-.173-.215-.139-.529.076-.703z"/><path d="m159.096 93.4999c.276-.0021.502.22.504.4962.024 3.2359.063 6.4519.318 9.6589.055.695.131 1.331.292 1.974.067.268-.096.539-.364.606s-.539-.096-.606-.364c-.181-.721-.262-1.42-.319-2.137-.258-3.247-.297-6.496-.321-9.7303-.002-.2761.22-.5017.496-.5038z"/><path d="m175.81 96.8765c.275-.0219.516.1836.538.4588.213 2.6787.26 5.3827.306 8.0647.02 1.117.039 2.23.07 3.336.008.276-.209.506-.485.514s-.506-.21-.514-.486c-.032-1.129-.052-2.256-.071-3.38-.047-2.669-.093-5.323-.303-7.9695-.022-.2753.184-.5162.459-.538z"/><path d="m174.451 104.824c.166-.221.479-.265.7-.098 1.033.779 2.038 1.575 3.037 2.367 2.099 1.663 4.173 3.305 6.429 4.734.234.148.303.457.155.69-.148.234-.457.303-.69.155-2.3-1.457-4.446-3.156-6.568-4.836-.989-.784-1.973-1.563-2.966-2.312-.22-.166-.264-.48-.097-.7z"/><path d="m191.984 104.555c.177.212.148.527-.064.704-1.433 1.194-2.926 2.321-4.407 3.438-.26.197-.52.393-.78.59-1.739 1.317-3.449 2.639-5.048 4.084-.205.185-.521.169-.706-.036s-.169-.521.035-.706c1.634-1.476 3.375-2.821 5.116-4.139.262-.199.523-.396.785-.593 1.481-1.119 2.952-2.229 4.365-3.406.212-.177.527-.148.704.064z"/><path d="m192.01 93.5011c.275.0194.483.2584.463.5339-.134 1.9105-.207 3.8284-.281 5.7558-.014.3692-.028.7392-.042 1.1102-.091 2.297-.198 4.604-.428 6.899-.027.274-.272.475-.547.447-.275-.027-.475-.272-.448-.547.226-2.262.333-4.543.423-6.839.015-.367.029-.736.043-1.1043.073-1.9273.147-3.8639.283-5.7919.019-.2755.258-.4831.534-.4637z"/><path d="m185.272 91.8573c.148.2333.079.5422-.155.6899-1.756 1.1123-3.419 2.3617-5.077 3.6467-.372.2885-.745.5791-1.118.8703-1.283 1.0016-2.576 2.0105-3.905 2.9668-.225.161-.537.11-.698-.1142s-.11-.5366.114-.6979c1.311-.9435 2.584-1.9361 3.864-2.9356.376-.293.752-.5867 1.13-.8798 1.663-1.2888 3.357-2.5623 5.155-3.7011.233-.1477.542-.0784.69.1549z"/><path d="m184.181 92.602c.15-.2314.46-.2968.692-.1461.557.3633 1.124.7199 1.692 1.0778 2.123 1.3375 4.274 2.6927 6.132 4.481.198.1916.204.5081.013.707-.192.1989-.508.2049-.707.0133-1.776-1.71-3.814-2.9948-5.925-4.325-.579-.3654-1.165-.7342-1.751-1.1161-.232-.1507-.297-.4605-.146-.6919z"/><path d="m186.745 93.3753c.276.0115.491.2445.479.5204l-.003.0724c-.141 3.3927-.282 6.7809-.371 10.1699-.008.276-.237.494-.513.487-.277-.008-.494-.237-.487-.513.089-3.397.231-6.7917.372-10.1819l.003-.076c.012-.2759.245-.4903.52-.4788z"/><path d="m186.53 103.496c.141.238.061.544-.176.685-1.275.751-2.458 1.635-3.665 2.537-.032.024-.065.049-.098.073-1.233.921-2.494 1.858-3.868 2.643-.24.137-.545.054-.682-.186s-.054-.545.186-.682c1.313-.751 2.527-1.651 3.766-2.576.038-.029.076-.057.114-.086 1.195-.892 2.416-1.805 3.739-2.585.238-.14.544-.061.684.177z"/><path d="m185.384 103.317c.102-.257.392-.384.649-.282.954.376 1.941.69 2.946 1.01.139.044.278.088.417.133 1.142.365 2.3.748 3.407 1.24.252.112.366.408.254.66-.113.252-.408.366-.66.254-1.053-.468-2.164-.837-3.305-1.202-.138-.044-.276-.088-.415-.132-1.002-.319-2.023-.644-3.011-1.033-.257-.101-.383-.391-.282-.648z"/><path d="m158.994 101.648c.195-.196.511-.198.708-.003.056.056.113.112.169.167.914.907 1.798 1.784 2.784 2.542.218.168.259.482.091.701s-.482.26-.701.091c-1.037-.798-1.964-1.716-2.867-2.613-.06-.059-.12-.119-.18-.178-.196-.194-.198-.511-.004-.707z"/><path d="m158.641 97.1271c.206-.184.522-.1663.706.0396.827.9245 1.709 1.774 2.606 2.6382.456.4391.916.8831 1.375 1.3411.195.196.195.512 0 .707-.195.196-.512.196-.707 0-.43-.43-.876-.859-1.325-1.292-.914-.8807-1.844-1.7767-2.694-2.7279-.184-.2059-.166-.5219.039-.706z"/><path d="m166.703 92.0712c.167-.2194.481-.2612.7-.0935.958.732 1.864 1.5295 2.753 2.3115.175.1539.349.3073.523.4594.208.1819.229.4977.047.7056-.182.2078-.498.2288-.706.047-.178-.156-.355-.3119-.532-.4674-.888-.7818-1.765-1.5526-2.692-2.2617-.219-.1678-.261-.4816-.093-.7009z"/><path d="m167.907 82.2679c.128-.2447.43-.3391.675-.211.543.2847 1.117.5279 1.713.7805.089.0379.179.0761.27.1146.683.2909 1.388.6017 2.042.9941.237.1421.313.4492.171.686s-.449.3136-.686.1715c-.589-.3534-1.236-.641-1.919-.9316-.088-.0373-.176-.0747-.265-.1124-.593-.2511-1.208-.5117-1.79-.8168-.245-.1282-.339-.4303-.211-.6749z"/><path d="m170.999 79.5185c.197-.1937.513-.1911.707.0057.467.4749 1.046 1.043 1.668 1.5241.631.4876 1.26.8485 1.824.9613.271.0541.446.3176.392.5883-.054.2708-.318.4464-.588.3923-.792-.1584-1.569-.6325-2.239-1.1508-.679-.5247-1.297-1.1335-1.77-1.6139-.193-.1968-.191-.5134.006-.707z"/><path d="m187.299 78.4069c.258-.0972.546.0335.644.2919.23.6116.412 1.2598.587 1.8846.041.1457.081.2902.122.4326.219.767.447 1.4887.77 2.1353.123.247.023.5473-.224.6708s-.547.0234-.671-.2236c-.367-.7359-.616-1.5349-.836-2.3077-.044-.1532-.087-.3049-.129-.4551-.175-.6216-.342-1.2176-.555-1.7847-.098-.2585.033-.5468.292-.6441z"/><path d="m200.241 91.8868c.27-.0599.537.11.597.3796.163.7365.3 1.4863.435 2.2256.064.3495.127.6966.193 1.0388.052.2712-.126.5332-.397.5851-.272.052-.533-.1258-.585-.397-.07-.361-.135-.7178-.199-1.0719-.133-.7285-.264-1.4456-.423-2.1637-.06-.2695.11-.5366.379-.5965z"/><path d="m180.894 107.418c.115-.251.411-.363.663-.248 1.203.547 2.374 1.134 3.532 1.766.243.132.332.436.2.678-.133.243-.436.332-.679.2-1.138-.621-2.287-1.198-3.467-1.734-.252-.114-.363-.411-.249-.662z"/><path d="m183.846 105.174c.18-.21.496-.233.705-.053.988.852 2.195 1.544 3.436 1.898.266.076.419.353.343.618-.075.266-.352.42-.618.344-1.397-.4-2.731-1.169-3.814-2.102-.209-.181-.232-.496-.052-.705z"/><path d="m185.985 100.148c.056-.2705.321-.444.592-.3876.722.1504 1.428.3596 2.111.5606.018.006.036.011.055.017.706.208 1.389.408 2.08.547.27.054.446.317.392.588s-.318.446-.588.392c-.742-.148-1.467-.361-2.168-.568-.013-.004-.026-.008-.038-.012-.695-.205-1.367-.404-2.048-.546-.271-.056-.444-.321-.388-.591z"/><path d="m186.352 96.706c.024-.2751.267-.4784.542-.4542.759.0671 1.497.2288 2.206.4005.162.0391.322.0787.48.1178.545.1349 1.073.2654 1.609.3629.272.0494.452.3097.403.5814-.05.2716-.31.4518-.582.4024-.57-.1036-1.138-.2442-1.688-.3804-.154-.038-.307-.0757-.457-.1122-.701-.1695-1.378-.3161-2.059-.3762-.275-.0243-.479-.267-.454-.542z"/><path d="m165.161 112.76c.132-.242.436-.331.678-.199 1.21.661 2.265 1.576 3.263 2.44.192.167.383.332.572.493.21.179.235.495.056.705s-.494.236-.705.056c-.202-.172-.402-.345-.6-.516-.998-.864-1.959-1.696-3.065-2.3-.242-.133-.332-.437-.199-.679z"/></g></g><path d="m281.66 45c0 4.9706-4.029 9-9 9-4.97 0-9-4.0294-9-9s4.03-9 9-9c4.971 0 9 4.0294 9 9z" fill="#fff"/><path clip-rule="evenodd" d="m281.556 34.7376c.145.2351.071.5431-.164.688-5.76 3.5518-8.103 7.845-9.038 11.0204-.469 1.5927-.586 2.9104-.597 3.72-.004.2441.003.4391.011.5794.001.003.002.006.003.009.014.0379.023.0772.027.1172.006.0577.01.1076.012.1486.001.0202.002.0423.001.0643v.0013c0 .0127 0 .0615-.012.1162-.003.0169-.011.0489-.026.0869-.011.0274-.049.1168-.141.1948-.125.1063-.315.1575-.502.086-.135-.0515-.206-.1451-.226-.1721-.046-.0626-.067-.1226-.071-.1351v-.0012c-.008-.0221-.013-.0412-.016-.0529-.011-.0426-.018-.0901-.023-.1283-.004-.0344-.008-.0754-.013-.1226-.851-2.3104-2.141-3.9768-3.71-5.5119-.198-.1931-.201-.5097-.008-.7071s.51-.2008.707-.0077c1.19 1.1637 2.249 2.4233 3.09 3.9768.092-.7303.254-1.5926.535-2.5442.999-3.3935 3.486-7.898 9.473-11.589.235-.1449.543-.0719.688.1632z" fill="#000" fill-rule="evenodd"/><path clip-rule="evenodd" d="m274.72 36.1694c.989.0929 1.944.3073 2.791.6349 1.444.5591 3.253 2.0137 4.394 4.0302 1.152 2.0382 1.636 4.6786.351 7.5613-1.158 2.5988-3.085 4.5209-5.414 5.4426-2.335.9241-5.034.826-7.688-.5458-2.694-1.3922-4.391-3.8045-4.919-6.825-.347-1.9906.094-4.5649 1.717-6.6479.837-1.0733 1.976-2.0033 3.46-2.6565.035-.1568.144-.2941.305-.3575 1.505-.5946 3.289-.7938 4.978-.6387.009.0006.017.0014.025.0024zm-.083.9965c-3.993.0057-6.477 1.4471-7.896 3.2685-1.437 1.8437-1.823 4.1274-1.521 5.8613.477 2.73 1.992 4.8677 4.393 6.1085 2.413 1.2472 4.811 1.3158 6.861.5044 2.057-.8138 3.804-2.5292 4.869-4.9198 1.135-2.5486.713-4.8545-.309-6.6621-1.034-1.8293-2.67-3.1198-3.884-3.5898-.759-.2937-1.62-.4864-2.513-.571z" fill="#000" fill-rule="evenodd"/></svg>