<?xml version="1.0" encoding="utf-8"?>
<!-- Generator: Adobe Illustrator 25.2.1, SVG Export Plug-In . SVG Version: 6.00 Build 0)  -->
<svg version="1.1" id="Layer_1" xmlns:v="https://vecta.io/nano"
	 xmlns="http://www.w3.org/2000/svg" xmlns:xlink="http://www.w3.org/1999/xlink" x="0px" y="0px" viewBox="0 0 1410 629"
	 style="enable-background:new 0 0 1410 629;" xml:space="preserve">
<style type="text/css">
	.st0{clip-path:url(#SVGID_2_);}
	.st1{fill-rule:evenodd;clip-rule:evenodd;fill:url(#SVGID_3_);}
	.st2{fill:none;stroke:url(#SVGID_4_);stroke-width:15;}
	.st3{fill:none;stroke:url(#SVGID_5_);stroke-width:15;}
	.st4{fill:none;stroke:url(#SVGID_6_);stroke-width:15;}
	.st5{fill:none;stroke:#9293AB;stroke-linecap:round;stroke-linejoin:round;}
	.st6{opacity:0.1;}
	.st7{opacity:0.9;fill:url(#SVGID_7_);enable-background:new    ;}
	.st8{fill:#FFFFFF;}
	.st9{fill:none;stroke:#000000;stroke-linecap:round;stroke-linejoin:round;}
	.st10{opacity:0.5;fill:#FFFFFF;enable-background:new    ;}
	.st11{fill:none;stroke:#0B0B0D;stroke-linecap:round;stroke-linejoin:round;}
	.st12{fill:none;stroke:#1A1A1A;stroke-linecap:round;stroke-linejoin:round;}
	.st13{fill:none;stroke:#B0B1C4;stroke-linecap:round;stroke-linejoin:round;}
	.st14{opacity:0.5;fill:url(#SVGID_8_);fill-opacity:0.2;enable-background:new    ;}
	.st15{opacity:0.5;fill:url(#SVGID_9_);fill-opacity:0.2;enable-background:new    ;}
	.st16{opacity:0.5;fill:url(#SVGID_10_);fill-opacity:0.2;enable-background:new    ;}
	.st17{fill:none;stroke:#000000;stroke-linejoin:round;}
	.st18{fill:#FFC101;}
	.st19{fill:none;stroke:#000000;}
	.st20{fill:#FFFFFF;stroke:#000000;stroke-linejoin:round;}
	.st21{fill-rule:evenodd;clip-rule:evenodd;fill:#FBFCFD;}
	.st22{fill:#FBFCFD;}
</style>
<g>
	<defs>
		<rect id="SVGID_1_" width="1410" height="629"/>
	</defs>
	<clipPath id="SVGID_2_">
		<use xlink:href="#SVGID_1_"  style="overflow:visible;"/>
	</clipPath>
	<g class="st0">
		
			<linearGradient id="SVGID_3_" gradientUnits="userSpaceOnUse" x1="1176.1798" y1="75.8746" x2="-89.9201" y2="371.2747" gradientTransform="matrix(1 0 0 -1 0 630)">
			<stop  offset="0.2" style="stop-color:#F8F8F8;stop-opacity:0"/>
			<stop  offset="0.4" style="stop-color:#F8F8F8"/>
		</linearGradient>
		<path class="st1" d="M428,340.7l9-4.4l33-14.7l102.2-42.7l70-28.6l0,0l160.6-66.4l-6-13.8l-160.3,66.3l0,0l0,0l0,0l-70,28.7
			c-39.3,16-75.3,31-102.4,42.8l-33.4,15L420,328l-6.7,4.2c-2,1.8-4,4.6-4,8.5c0.2,3.5,2,6,3.5,7.5c3.6,3.3,7.7,5.9,12.2,7.7
			c9.5,4.3,23.7,9,39.6,13.3l1,0.2l1,0.3c20.7,5.7,44.8,11.4,66.7,16.4l-0.7,3l10.7,2.6L36,630l6.4,13.6l523.7-246l87,23.4l0,0
			l62,16.8c28.3,7.7,56.7,14.8,85.2,21.3l31.7,6.2c8.8,1.3,16.3,2,21.7,1.6c7.6-1.1,14.9-3.4,21.8-6.7c8.6-3.7,18.7-9,30-15.2
			l79.6-48.7l149.4-100.5l23-15.7l-8.5-12.4l-22.8,15.6l-0.1,0.1l-149,100.3l-78.7,48c-9.3,5.3-18.9,10.2-28.7,14.6
			c-8.2,3.6-13.8,5.3-17,5.5c-6.1,0.1-12.3-0.4-18.3-1.5c-10.3-1.7-20.5-3.7-30.7-6l-84.7-21l-61.6-16.7l0,0L588,388l474.5-202
			l-6-13.8l-486.3,207l-100-23.7c-13.4-3.4-26.4-7.8-39.2-13l-3.3-1.6L428,340.7z M423.7,337.9L423.7,337.9L423.7,337.9L423.7,337.9
			L423.7,337.9z"/>
		<g>
			
				<linearGradient id="SVGID_4_" gradientUnits="userSpaceOnUse" x1="106.1455" y1="494.8765" x2="921.8455" y2="402.6765" gradientTransform="matrix(1 0 0 -1 0 630)">
				<stop  offset="0.6" style="stop-color:#FFC100"/>
				<stop  offset="0.9" style="stop-color:#EA792C;stop-opacity:0"/>
				<stop  offset="0.9" style="stop-color:#E66B35;stop-opacity:0"/>
			</linearGradient>
			<path class="st2" d="M570,364c-55.3-12-167.5-36.5-153-49s495.8-201.3,616-252.5"/>
			
				<linearGradient id="SVGID_5_" gradientUnits="userSpaceOnUse" x1="90.3238" y1="305.4162" x2="975.9238" y2="188.7162" gradientTransform="matrix(1 0 0 -1 0 630)">
				<stop  offset="0" style="stop-color:#FFC100;stop-opacity:0"/>
				<stop  offset="0.4" style="stop-color:#FFC100;stop-opacity:0.6"/>
				<stop  offset="0.6" style="stop-color:#FFC100"/>
				<stop  offset="0.9" style="stop-color:#EA772D;stop-opacity:0.1"/>
				<stop  offset="0.9" style="stop-color:#E66B35;stop-opacity:0"/>
			</linearGradient>
			<path class="st3" d="M38,614l532-250 M1058.5,156L570,364 M570,364l-104.5-25"/>
			
				<linearGradient id="SVGID_6_" gradientUnits="userSpaceOnUse" x1="1185.413" y1="235.9134" x2="494.1129" y2="618.5134" gradientTransform="matrix(1 0 0 -1 0 630)">
				<stop  offset="0" style="stop-color:#E66B35;stop-opacity:0"/>
				<stop  offset="0.1" style="stop-color:#E66B35;stop-opacity:0"/>
				<stop  offset="0.6" style="stop-color:#FFC100"/>
			</linearGradient>
			<path class="st4" d="M533,359c98.5,23.5,283,80.3,319,77.5S1226.5,204,1321.5,139"/>
		</g>
		<g>
			<path class="st5" d="M122.3,596.7c42.3-20.6,72-34.5,116.8-56.7"/>
			<path class="st5" d="M145,573.8l71-33 M319,505.2l32.4-17.4 M320,492l71.3-36.3 M358.5,465l20-10.3"/>
		</g>
		<g class="st6">
			
				<linearGradient id="SVGID_7_" gradientUnits="userSpaceOnUse" x1="1115.514" y1="338.3969" x2="1377.9142" y2="-67.6031" gradientTransform="matrix(1 0 0 -1 0 630)">
				<stop  offset="0" style="stop-color:#FFC100"/>
				<stop  offset="1" style="stop-color:#E66B35"/>
			</linearGradient>
			<path class="st7" d="M1251.5,326.3c97.8-0.1,177.1,79,177.2,176.8c0,0.1,0,0.3,0,0.4c0.1,94.9-74.7,173-169.5,177l-63-108.6
				l1.6,2.8l3.8,6.5c0,0,11-15.5,37-22.4c45.3-12,49.7,4,95-8c28.3-7.5,53.3-28,53.3-28L1316.3,410c0,0-25,20.4-53.3,28
				c-45.3,12-49.7-4-95,8l-3.3,1c-16.5,7.4-22.5,13.4-28.5,19.4l-6,6l-4.7,3.5c-5,3-5.7,16-1.7,23l109.3,206c2.6,4.5,5,8.6,10.3,10
				c0.2,1,2.4-1,2.5,0c-2.5,0.8,3.7,0.1,5.5,0.1c116.8,0,211.5-94.7,211.5-211.5S1368.3,292,1251.5,292S1040,386.7,1040,503.5
				c0,99.4,75,184.5,167.4,207l-25.2-44l-1-2l-0.2-0.4c-59.6-28.5-106.7-90-106.7-160.6c-0.1-97.8,79-177.1,176.8-177.2
				C1251.2,326.3,1251.4,326.3,1251.5,326.3L1251.5,326.3z"/>
		</g>
		<path class="st8" d="M198,494.5l-20.2-7.4c-22.2,7.2-46.6-14-30-22.3c35.5-17.8,48.3,5,47,9.2c-1,3.3-5,9.6-9.6,11l12.7,9.6
			L198,494.5z"/>
		<g>
			<path class="st9" d="M183,483.5c3,1.7,5.7,3.5,8.4,5.5c1.3,1,3.4,2.6,4.7,3.6c0.4,0.4,1.7,1,1.2,1.2c-1,0.5-5.3-2-6-2.5l-11.3-5"
				/>
			<path class="st9" d="M166,458.8c6.6-0.5,11.7,0.2,17.7,3c4.7,2.3,9.5,5,10.4,10.5c1,6.5-4,10.3-9.4,12.7
				c-12.4,5.5-31.4,6-40.2-6.4c-11-15.6,15-20.7,25.4-20.7c7,0,14.7,1,20,6.4c2.5,2.6,3.2,5.7,2.4,9"/>
			<path class="st9" d="M182,471.6c-2,2.7-2.8-1-0.2-0.4c1,0.2,1.6,2.4,0.4,2.4c-0.6,0-3-1-2-2c0.2-0.2,1.3-0.5,1.5-0.1 M171,472.5
				c0.5,0,2-0.3,2.4,0.3c0.1,0.3,1,1.7,0.6,2c-0.5,0.4-2,0-2.5-0.3c-1.6-1-1.3-4,0.1-2.2c1.7,2.2-3.3-0.3-1.4-0.6
				c0.8-0.1,2-0.1,2.5,0.6c1,1.2-1.5,1.2-2.2,1.4 M159.7,472.9c1.3-0.2,2-0.5,2.8,0.8c0.4,0.7,0.6,1-0.2,1.2
				c-1.4,0.3-2.3,0.4-3.7-0.1c-2.5-1-0.1-2.8,1.8-1c2.3,2-2.8,1.8-1.8-0.1c0.7-1.4,4,0,2.7,2 M976,225.2c-1.3-8-1.7-16.2,3.8-22.6
				c5.6-6.4,15.3-7,22.3-11.5c5.4-3.4,12-10.3,11-17.3"/>
			<path class="st9" d="M975.2,228c-0.5-1.2-7.7-19-5-18.4c2.7,0.7,5,4,7,5.8s4,3,6.3,4.6c1.3,1-0.2,1-1,1.6
				C979.8,223.1,977.1,225.6,975.2,228c-0.4,0.6-4.3,6-2.4,2.7 M572,403.2c4,0.8,8,2,10,5.8s0.6,8.5,1.5,12.7
				c0.7,3.2,2.8,7.6,6.3,8.3"/>
			<path class="st9" d="M571,402.3c0.7,0,10.5-0.3,9.6,1c-0.8,1.2-2.8,1.6-4,2.3l-3.3,2.2c-0.7,0.5-0.5-0.3-0.6-0.7
				c-0.2-1.6-1-3.3-1.8-4.6c-0.2-0.3-2-3-0.8-1.6 M288.5,274.5c-4-1-8-2.5-9.8-6.4c-2-4-0.1-8.5-0.8-12.7c-0.5-3.2-2.4-7.7-6-8.6"/>
			<path class="st9" d="M289.7,275.5c-0.7,0-10.5-0.3-9.6-1.5c1-1,3-1.5,4-2s2.3-1.3,3.4-2c0.7-0.4,0.5,0.3,0.5,0.8
				c0.2,1.6,0.8,3.3,1.5,4.7c0.2,0.3,2,3.2,0.8,1.7"/>
		</g>
		<g>
			<path d="M885,145c0,0.7-0.1,1.3-0.4,2s-0.6,1.2-1,1.8s-1,1.2-1.6,1.7l-2,1.6c-0.7,0.6-1.6,1-2.6,1.6l-3,1.4c-1,0.4-2,0.8-2.8,1
				s-1.6,0.4-2,0.4s-0.6-0.1-0.8-0.2c-0.2-0.1-0.3-0.3-0.3-0.6c0-0.2,0.1-0.5,0.2-0.8s0.3-0.5,0.5-0.5s0.3,0.1,0.4,0.2
				c0.1,0.1,0.1,0.2,0.1,0.3l0,0v0.1v0.1c0.8-0.1,1.8-0.3,3-0.7c1.3-0.4,2.8-1,4.5-2c0.8-0.4,1.5-1,2.3-1.5l2-1.8
				c0.6-0.7,1-1.3,1.4-2s0.5-1.4,0.5-2c0-0.5-0.2-1-0.7-1.5s-1-1-2-1.4c-0.8-0.5-1.6-0.9-2.4-1.2c-1-0.3-1.7-0.6-2.5-0.7
				c0,0.1,0.1,0.4,0.1,0.8c0.1,0.5,0.1,0.9,0.2,1.4l0.3,1.7c0.1,0.6,0.3,1,0.4,1.6l0.3,1.3c0.1,0.3,0.1,0.5,0.1,0.7l0.1,0.8l0.1,1
				c0,0.3,0.1,0.6,0.1,1c0,0.3,0.1,0.5,0.1,0.7s0,0.4-0.1,0.6c-0.1,0.2-0.1,0.3-0.2,0.3c-0.2,0-0.4-0.1-0.5-0.2
				c-0.1-0.2-0.2-0.5-0.2-1l-0.2-1.6c-0.1-0.7-0.3-1.5-0.6-2.4c-0.4-1.2-0.6-2.5-0.8-3.8l-0.3-2.8h-0.2c-0.1,0-0.2,0-0.4,0h-0.5
				c-0.2,0-0.3,0-0.5,0c-0.3,0-0.6,0.1-1,0.2c-0.3,0.1-0.5,0.3-0.7,0.4c-0.2,0.2-0.4,0.3-0.5,0.4c-0.1,0.1-0.2,0.2-0.3,0.2
				s-0.3,0-0.6-0.1s-0.4-0.2-0.4-0.4c0-0.3,0.1-0.5,0.4-0.8c0.2-0.3,0.5-0.5,1-0.7c0.4-0.2,0.8-0.4,1.2-0.5s0.8-0.2,1.2-0.2
				c0.6,0,1.3,0.1,2,0.2s1.6,0.4,2.5,0.7c1,0.3,1.7,0.6,2.5,1s1.6,0.8,2.3,1.3s1.2,1,1.6,1.6s0.6,1,0.6,1.7L885,145z M896,150.8
				c0,0,0,0.1,0,0.2c0,0.1-0.1,0.3-0.3,0.5c-0.1,0.1-0.2,0.2-0.4,0.4s-0.5,0.4-0.8,0.5s-0.8,0.3-1.3,0.5c-0.5,0.1-1,0.2-1.7,0.2
				c-0.5,0-1-0.1-1.4-0.3s-0.8-0.5-1.2-1c-0.3-0.4-0.6-1-0.8-1.5c-0.2-0.6-0.3-1.3-0.3-2.2c0-0.8,0.1-1.5,0.3-2.2s0.4-1.3,0.8-1.8
				c0.3-0.5,0.7-1,1-1.2s0.8-0.5,1-0.5c0.3,0,0.6,0.1,1,0.2c0.3,0.1,0.6,0.3,1,0.5c0.3,0.2,0.5,0.4,0.7,0.7c0.2,0.2,0.2,0.5,0.2,0.8
				s-0.1,0.6-0.4,1c-0.3,0.3-0.6,0.6-1,1c-0.4,0.3-0.8,0.5-1,0.7c-0.4,0.2-0.7,0.2-1,0.2c-0.1,0-0.2-0.1-0.3-0.2
				c-0.1-0.1-0.1-0.3-0.1-0.4c0-0.3,0.1-0.5,0.4-0.7c0.3-0.2,0.5-0.3,0.8-0.4c0.3-0.1,0.6-0.3,0.8-0.5c0.3-0.2,0.4-0.4,0.4-0.7
				c0,0,0-0.1-0.1-0.3s-0.4-0.2-0.8-0.2c-0.2,0-0.4,0.1-0.7,0.4c-0.3,0.2-0.5,0.5-0.7,1c-0.2,0.4-0.4,0.8-0.6,1.4
				c-0.2,0.5-0.2,1-0.2,1.7c0,0.5,0.1,1,0.3,1.4s0.4,0.8,0.8,1c0.3,0.3,0.6,0.5,1,0.7s0.8,0.2,1.2,0.2c0.3,0,0.6-0.1,1-0.2l1-0.4
				l0.8-0.4c0.2-0.1,0.4-0.2,0.5-0.2s0.1,0,0.2,0.1c0.1,0.1,0.1,0.1,0.1,0.2L896,150.8z M902,153.1c0,0.2-0.1,0.3-0.2,0.4
				s-0.3,0.1-0.4,0.1c-0.2,0-0.4-0.2-0.6-0.5c-0.2-0.3-0.4-0.8-0.5-1.3l-0.5-1.7l-0.4-1.7l-0.3-1.3l-0.1-0.6c0-0.1,0-0.3-0.1-0.6
				l-0.3-1.6l-0.4-2.8l-0.4-4.3c0-0.2,0-0.4,0.1-0.7s0.2-0.4,0.4-0.4c0.3,0,0.5,0.2,0.6,0.6c0.2,0.4,0.3,0.8,0.4,1.4
				c0.1,0.6,0.2,1.2,0.2,1.8l0.1,1.6c0.1,0.6,0.2,1.2,0.2,1.7l0.2,1.6l0.3,1.6c0.1,0.6,0.3,1.3,0.4,1.9l1.2,5L902,153.1z M906,140.1
				c0,0-0.1,0.1-0.2,0.2s-0.3,0.3-0.5,0.4l-0.6,0.3c-0.2,0.1-0.4,0.2-0.5,0.2h-0.3c-0.1,0-0.2-0.1-0.4-0.1c-0.1-0.1-0.2-0.1-0.3-0.2
				c-0.1-0.1-0.1-0.3-0.1-0.4c0-0.3,0.1-0.5,0.3-0.8s0.5-0.4,0.8-0.4c0.1,0,0.2,0,0.4,0.1c0.2,0,0.4,0.1,0.7,0.2s0.4,0.2,0.6,0.3
				c0.2,0.1,0.3,0.2,0.3,0.3L906,140.1z M907,151.3c0,0.1-0.1,0.3-0.3,0.4c-0.2,0.1-0.4,0.2-0.5,0.2c-0.2,0-0.4-0.1-0.5-0.4
				s-0.3-0.6-0.4-1l-0.3-1l-0.2-0.7l-0.2-0.7l-0.3-0.8l-0.2-0.7c-0.1-0.2-0.1-0.3-0.1-0.3c0-0.3,0-0.5,0.1-0.8
				c0.1-0.2,0.3-0.4,0.4-0.4c0.2,0,0.4,0.1,0.6,0.4s0.4,0.6,0.6,1c0.2,0.4,0.4,1,0.5,1.4l0.4,1.4l0.3,1.2c0.1,0.3,0.1,0.5,0.1,0.6
				L907,151.3z M914.7,143.3c0,0.1,0,0.3-0.1,0.8l-0.3,1.6c-0.1,0.5-0.2,1-0.3,1.5c-0.1,0.7-0.2,1.7-0.2,3c0,0,0,0.2,0,0.3
				c0,0.2,0,0.3-0.1,0.5c0,0.2-0.1,0.3-0.2,0.5c-0.1,0.1-0.2,0.2-0.5,0.2c-0.2,0-0.4-0.1-0.6-0.2c-0.5-0.4-1-0.8-1.4-1.3
				s-0.8-1-1-1.6c-0.3-0.6-0.5-1.2-0.7-1.8s-0.2-1.2-0.2-2c0-0.1,0.1-0.2,0.2-0.2c0.1-0.1,0.2-0.1,0.3-0.1c0.3,0,0.5,0.2,0.7,0.5
				s0.4,0.8,0.5,1.2l0.6,1.5c0.2,0.5,0.6,1,1,1.3c0.1-0.1,0.1-0.2,0.2-0.4l0.1-0.6c0-0.1,0.1-0.4,0.1-0.8l0.1-1.3
				c0.1-0.5,0.1-1,0.1-1.3v-1c0-0.1,0-0.3,0-0.4s0.1-0.3,0.1-0.5c0.1-0.1,0.2-0.3,0.3-0.4s0.3-0.2,0.5-0.2c0.1,0,0.3,0.1,0.5,0.2
				c0.2,0.1,0.4,0.3,0.4,0.5L914.7,143.3z M925.7,150.7c0,0,0,0.1,0,0.2c0,0.1-0.1,0.3-0.3,0.5c-0.1,0.1-0.2,0.2-0.4,0.4
				s-0.5,0.4-0.8,0.5s-0.8,0.3-1.3,0.5c-0.5,0.1-1,0.2-1.7,0.2c-0.5,0-1-0.1-1.4-0.3s-0.8-0.5-1.2-1c-0.3-0.4-0.6-1-0.8-1.5
				c-0.2-0.6-0.3-1.3-0.3-2.2c0-0.8,0.1-1.5,0.3-2.2s0.4-1.3,0.8-1.8c0.3-0.5,0.7-1,1-1.2s0.8-0.5,1-0.5c0.3,0,0.6,0.1,1,0.2
				c0.3,0.1,0.6,0.3,1,0.5c0.3,0.2,0.5,0.4,0.7,0.7c0.2,0.2,0.2,0.5,0.2,0.8s-0.1,0.6-0.4,1c-0.3,0.3-0.6,0.6-1,1
				c-0.4,0.3-0.8,0.5-1,0.7c-0.4,0.2-0.7,0.2-1,0.2c-0.1,0-0.2-0.1-0.3-0.2c-0.1-0.1-0.1-0.3-0.1-0.4c0-0.3,0.1-0.5,0.4-0.7
				c0.3-0.2,0.5-0.3,0.8-0.4c0.3-0.1,0.6-0.3,0.8-0.5c0.3-0.2,0.4-0.4,0.4-0.7c0,0,0-0.1-0.1-0.3s-0.4-0.2-0.8-0.2
				c-0.2,0-0.4,0.1-0.7,0.4c-0.3,0.2-0.5,0.5-0.7,1c-0.2,0.4-0.4,0.8-0.6,1.4c-0.2,0.5-0.2,1-0.2,1.7c0,0.5,0.1,1,0.3,1.4
				s0.5,0.8,0.8,1c0.3,0.3,0.7,0.5,1,0.7s0.8,0.2,1.2,0.2c0.3,0,0.6-0.1,1-0.2l1-0.4l0.8-0.4c0.2-0.1,0.4-0.2,0.4-0.2
				S925.6,150.6,925.7,150.7c0.1,0.1,0.1,0.1,0.1,0.2L925.7,150.7z M934.9,144.7c0,0.1-0.1,0.3-0.2,0.4c-0.1,0.1-0.3,0.2-0.4,0.2
				l-0.5,0.2c-0.2,0-0.3,0-0.4,0c-0.3,0-0.5,0-0.6-0.1s-0.2-0.1-0.2-0.1c-0.5,0-1,0-1.2,0.1s-0.5,0.2-0.7,0.4s-0.3,0.4-0.3,0.7
				s-0.1,0.6-0.1,1c0,0.6,0,1.2,0.1,1.5l0.1,1l0.1,0.6c0.1,0.1,0.1,0.2,0.1,0.4s-0.1,0.3-0.3,0.5s-0.3,0.3-0.5,0.3s-0.5-0.2-0.7-0.6
				c-0.2-0.4-0.3-1-0.5-1.5c-0.1-0.6-0.2-1.2-0.3-1.8l-0.1-1.3c0-0.3,0-0.7,0.1-1s0.1-0.6,0.2-0.8c0.1-0.2,0.2-0.4,0.3-0.6
				s0.2-0.2,0.4-0.2c0.1,0,0.2,0,0.2,0.1c0.1,0.1,0.1,0.1,0.1,0.2l0.1,0.2c0.1,0.1,0.1,0.1,0.2,0.1c0.2,0,0.5-0.1,1-0.3
				s1-0.3,1.5-0.3h1.2c0.3,0,0.5,0.1,0.8,0.2c0.1,0,0.1,0.1,0.2,0.2c0.1,0.1,0.1,0.2,0.1,0.3L934.9,144.7z M945.7,150.7
				c0,0,0,0.1,0,0.2c0,0.1-0.1,0.3-0.3,0.5c-0.1,0.1-0.2,0.2-0.4,0.4s-0.5,0.4-0.8,0.5s-0.8,0.3-1.3,0.5c-0.5,0.1-1,0.2-1.7,0.2
				c-0.5,0-1-0.1-1.4-0.3s-0.8-0.5-1.2-1c-0.3-0.4-0.6-1-0.8-1.5c-0.2-0.6-0.3-1.3-0.3-2.2c0-0.8,0.1-1.5,0.3-2.2s0.4-1.3,0.8-1.8
				c0.3-0.5,0.7-1,1-1.2s0.8-0.5,1-0.5c0.3,0,0.6,0.1,1,0.2c0.3,0.1,0.6,0.3,1,0.5c0.3,0.2,0.5,0.4,0.7,0.7c0.2,0.2,0.2,0.5,0.2,0.8
				s-0.1,0.6-0.4,1c-0.3,0.3-0.6,0.6-1,1c-0.4,0.3-0.8,0.5-1,0.7c-0.4,0.2-0.7,0.2-1,0.2c-0.1,0-0.2-0.1-0.3-0.2
				c-0.1-0.1-0.1-0.3-0.1-0.4c0-0.3,0.1-0.5,0.4-0.7c0.3-0.2,0.5-0.3,0.8-0.4c0.3-0.1,0.6-0.3,0.8-0.5c0.3-0.2,0.4-0.4,0.4-0.7
				c0,0,0-0.1-0.1-0.3s-0.4-0.2-0.8-0.2c-0.2,0-0.4,0.1-0.7,0.4c-0.3,0.2-0.5,0.5-0.7,1c-0.2,0.4-0.4,0.8-0.6,1.4
				c-0.2,0.5-0.2,1-0.2,1.7c0,0.5,0.1,1,0.3,1.4s0.5,0.8,0.8,1c0.3,0.3,0.7,0.5,1,0.7s0.8,0.2,1.2,0.2c0.3,0,0.6-0.1,1-0.2l1-0.4
				l0.8-0.4c0.2-0.1,0.4-0.2,0.4-0.2S945.6,150.6,945.7,150.7c0.1,0.1,0.1,0.1,0.1,0.2L945.7,150.7z M956.3,149
				c0,0.1-0.1,0.2-0.2,0.3c-0.1,0.1-0.1,0.2-0.1,0.3c0,0.2,0,0.4,0.1,0.6c0.1,0.2,0.1,0.4,0.1,0.7s-0.1,0.4-0.2,0.4
				c-0.2,0-0.4,0-0.5,0.1c-0.1,0-0.2,0.1-0.5,0.1c-0.1,0-0.2-0.1-0.4-0.3c-0.1-0.1-0.1-0.2-0.2-0.4c0,0-0.1,0-0.2,0.1
				c-0.1,0.1-0.3,0.2-0.5,0.4c-0.2,0.1-0.6,0.2-1,0.4c-0.4,0.1-1,0.2-1.6,0.2s-1-0.1-1.5-0.4c-0.4-0.3-0.8-0.6-1-1
				c-0.3-0.4-0.5-0.8-0.6-1.3s-0.2-1-0.2-1.6c0-0.5,0.1-1,0.1-1.3c0.1-0.4,0.3-0.8,0.5-1c0.2-0.3,0.5-0.6,0.8-0.8s0.6-0.3,1-0.3
				s0.8,0.1,1,0.4s0.7,0.5,1,0.8l0.7,0.8l0.3,0.3l-0.7-4.2l-0.3-1.6l-0.2-1.4l-0.2-1v-0.5v-0.6v-1v-1c0-0.3,0-0.5-0.1-0.5l-0.2-0.7
				l-0.1-0.5c0-0.1,0-0.2,0.1-0.4s0.2-0.2,0.4-0.2c0.1,0,0.2,0,0.3,0s0.2,0.1,0.3,0.2s0.1,0.3,0.2,0.5c0.1,0.2,0.1,0.5,0.2,1
				c0,0.2,0.1,0.6,0.2,1l0.3,1.8l0.3,2l0.2,1.3l0.4,2.5l0.5,2.6c0.2,0.8,0.4,1.5,0.5,2.2c0.2,0.6,0.3,1,0.5,1.3
				c0,0.1,0.1,0.1,0.2,0.2c0.1,0,0.2,0.1,0.2,0.2L956.3,149z M954.1,149.6c0-0.1-0.1-0.3-0.4-0.7c-0.2-0.5-0.5-1-1-1.5
				c-0.3-0.5-0.7-1-1.2-1.4c-0.4-0.4-0.8-0.6-1.2-0.6c-0.3,0-0.6,0.3-0.8,0.8c-0.2,0.6-0.3,1.2-0.3,1.8c0,0.8,0.2,1.4,0.7,1.8
				c0.5,0.5,1,0.7,1.5,0.7s1-0.1,1.5-0.2s1-0.3,1-0.6L954.1,149.6z M979.1,140.3c-0.3,0.3-0.6,0.6-1,1l-1.4,0.8l-1.3,0.6
				c-0.4,0.2-0.5,0.3-0.5,0.3s0,0.2,0.1,0.5l0.3,1l0.4,1.3l0.3,1.2v0.8l0.2,1l0.1,1l0.1,0.4c0,0.3,0,0.6-0.1,1s-0.3,0.5-0.5,0.5
				c-0.1,0-0.2,0-0.3-0.2s-0.2-0.2-0.3-0.3s-0.1-0.3-0.2-0.4s-0.1-0.2-0.1-0.3v-0.2c0-0.1,0-0.2,0-0.3c0-0.4-0.1-1-0.2-1.6l-0.2-1
				l-0.4-1.4l-0.5-1.8c-0.1-0.3-0.1-0.4-0.2-0.4c-0.1,0-0.4,0.1-0.7,0.3s-0.7,0.4-1,0.6l-1.3,0.8l-1.3,0.8l-1,0.6l-0.5,0.2
				c-0.3,0-0.5-0.1-0.6-0.3s-0.2-0.4-0.2-0.6c0-0.1,0.2-0.3,0.5-0.5l1.2-0.8l1.6-1l1.6-0.8c0.4-0.2,0.8-0.4,1.2-0.6l0.5-0.2
				l-0.5-2.5l-0.3-1.7l-0.1-0.8c0-0.3,0-0.4,0.1-0.6c0.1-0.1,0.3-0.2,0.4-0.2c0.2,0,0.4,0.2,0.4,0.5l0.6,3l0.6,2
				c0.2,0,0.5-0.2,1-0.3l1.4-0.6l1.3-0.6l0.7-0.3C979.1,140.2,979.2,140.2,979.1,140.3l0.2,0.2L979.1,140.3z M986.1,147.3
				c0,0.4-0.1,1-0.2,1.3s-0.3,0.8-0.5,1s-0.4,0.5-0.7,0.7s-0.6,0.2-1,0.2c-0.6,0-1-0.2-1.3-0.5s-0.6-0.7-0.7-1
				c-0.2-0.4-0.3-0.8-0.3-1.3c0-0.3-0.1-0.7-0.1-1c0-0.4,0-0.8,0.1-1.2c0.1-0.5,0.3-1,0.5-1.3c0.2-0.4,0.4-0.7,0.7-1
				s0.5-0.4,0.8-0.4c0.1,0,0.1,0,0.3,0.1c0.1,0,0.3,0.1,0.4,0.2s0.3,0.2,0.4,0.3c0.1,0.1,0.2,0.3,0.2,0.4c0.2,0,0.4,0.1,0.7,0.2
				s0.3,0.3,0.4,0.3c0.2,0.5,0.3,1,0.3,1.6l0.1,1.3L986.1,147.3z M984.7,146.8c0-0.3,0-0.6-0.1-1c-0.1-0.3-0.2-0.7-0.4-1h-0.1
				c-0.1,0-0.1,0-0.2,0h-0.1c-0.2,0-0.4,0.1-0.6,0.2c-0.1,0.1-0.2,0.3-0.3,0.5s-0.1,0.4-0.1,0.7s0,0.5,0,0.7s0,0.5,0,0.8
				s0.1,0.5,0.1,0.8c0.1,0.2,0.2,0.5,0.3,0.6c0.1,0.2,0.3,0.2,0.5,0.2s0.4-0.1,0.5-0.3s0.3-0.5,0.3-0.7s0.1-0.5,0.1-0.8
				S984.7,147,984.7,146.8L984.7,146.8z M1009.7,143.8c0,0.3-0.1,0.5-0.2,0.6c-0.1,0.1-0.3,0.2-0.4,0.2c-0.2,0-0.4,0-0.5-0.1
				l-0.6-0.2l-0.5-0.2c0,0.1-0.1,0.2-0.1,0.4v0.4c0,0.7,0,1.5,0.1,2.3l0.2,2.5l0.3,2.4l0.3,2l0.2,1.6c0.1,0.4,0.1,0.7,0.1,0.8v0.8
				c0,0.2,0,0.4-0.1,0.6c0,0.2-0.1,0.3-0.3,0.3c-0.3,0-0.6-0.2-0.8-0.7s-0.4-1-0.5-1.7c-0.1-0.6-0.2-1.2-0.3-1.8s-0.1-1-0.1-1.2
				c0-0.3-0.1-0.7-0.1-1c0-0.6-0.1-1.2-0.1-1.8l-0.2-2l-0.1-1.8v-0.7v-0.7v-1c0-0.3-0.2-0.6-0.7-1l-1.6-1c-0.6-0.4-1.3-1-2-1.4
				c-0.7-0.5-1.3-1.2-1.7-1.9c-0.1,0-0.1-0.1-0.1-0.3c0-0.3,0.1-0.5,0.2-0.7s0.3-0.3,0.5-0.3c0.1,0,0.2,0.1,0.3,0.2l0.4,0.5l0.6,0.8
				c0.2,0.3,0.5,0.5,0.8,0.8l0.8,0.7l1,0.8l1,0.7l0.4,0.3c0.1,0,0.1-0.1,0.1-0.2s0-0.3,0-0.3l0.1-1.8c0.1-1,0.2-2,0.4-2.8
				s0.2-1.6,0.2-2.2c0-0.1,0-0.2-0.1-0.4s-0.1-0.3-0.1-0.4c0-0.1,0-0.2,0.1-0.3s0.2-0.1,0.3-0.2c0.1-0.1,0.3-0.1,0.4-0.1
				c0.3,0,0.5,0.1,0.6,0.3s0.2,0.4,0.2,0.6l-0.1,2l-0.3,2l-0.3,2c-0.1,0.7-0.1,1.4-0.1,2.2c0,0.1,0.1,0.3,0.2,0.4
				c0.1,0.1,0.3,0.2,0.5,0.4l0.7,0.3c0.3,0.1,0.5,0.2,0.8,0.3L1009.7,143.8z M1016.2,147.4c0,0.4-0.1,1-0.2,1.3s-0.3,0.8-0.5,1
				s-0.4,0.5-0.7,0.7s-0.5,0.2-1,0.2c-0.6,0-1-0.2-1.3-0.5s-0.6-0.7-0.7-1c-0.2-0.4-0.3-0.8-0.3-1.3c0-0.3-0.1-0.7-0.1-1
				c0-0.4,0-0.8,0.1-1.2c0.1-0.5,0.3-1,0.4-1.3c0.2-0.4,0.4-0.7,0.7-1s0.5-0.4,0.8-0.4c0.1,0,0.1,0,0.3,0.1c0.1,0,0.3,0.1,0.4,0.2
				s0.3,0.2,0.4,0.3c0.1,0.1,0.2,0.3,0.2,0.4c0.2,0,0.4,0.1,0.7,0.2s0.3,0.3,0.4,0.3c0.2,0.5,0.3,1,0.3,1.6L1016.2,147.4
				L1016.2,147.4z M1014.9,146.9c0-0.3,0-0.6-0.1-1c-0.1-0.3-0.2-0.7-0.4-1h-0.1c-0.1,0-0.1,0-0.2,0h-0.1c-0.2,0-0.4,0.1-0.6,0.2
				c-0.1,0.1-0.2,0.3-0.3,0.5s-0.1,0.4-0.1,0.7s0,0.5,0,0.7s0,0.5,0,0.8s0.1,0.5,0.1,0.8c0.1,0.2,0.2,0.5,0.3,0.6
				c0.1,0.2,0.3,0.2,0.5,0.2s0.4-0.1,0.5-0.3s0.3-0.5,0.3-0.7s0.1-0.5,0.1-0.8S1014.9,147.1,1014.9,146.9L1014.9,146.9z
				 M1029.1,148.9c0,0.2-0.1,0.4-0.4,0.6s-0.5,0.4-0.8,0.6l-1,0.4c-0.3,0.1-0.6,0.2-0.7,0.2c-0.2,0-0.4,0-0.6-0.1s-0.4-0.2-0.6-0.4
				l-0.5-0.4l-0.3-0.2c-0.1,0.1-0.2,0.2-0.3,0.4l-0.5,0.6c-0.2,0.2-0.3,0.4-0.5,0.5c-0.2,0.2-0.4,0.2-0.6,0.2c-0.5,0-1-0.3-1.4-0.8
				s-0.7-1.2-1-2c-0.2-0.7-0.4-1.4-0.6-2.1l-0.2-1.4c0-0.1,0.1-0.2,0.2-0.3c0.2-0.1,0.3-0.2,0.4-0.2c0.3,0,0.5,0.1,0.6,0.3
				s0.1,0.4,0.1,0.6c0,0.2,0,0.5,0.1,1l0.4,1.4l0.5,1.3c0.2,0.4,0.3,0.5,0.5,0.5c0.3,0,0.5-0.2,0.7-0.5s0.4-0.7,0.5-1
				c0.1-0.4,0.2-0.8,0.3-1.2s0.1-0.7,0.1-0.8l0,0v-0.4c0-0.1,0-0.2,0-0.3v-0.2c0-0.1,0-0.2-0.1-0.3s-0.1-0.2-0.1-0.3
				s0.1-0.2,0.2-0.3c0.1-0.1,0.4-0.2,0.8-0.2c0.2,0,0.3,0.1,0.4,0.2c0.1,0.1,0.2,0.2,0.2,0.3s0.1,0.2,0.1,0.4v0.2v0.4l-0.1,1v1v0.5
				c0,0.1,0,0.2,0.1,0.4l0.2,0.6c0.1,0.2,0.2,0.3,0.3,0.5c0.1,0.1,0.3,0.2,0.4,0.2c0.2,0,0.5,0,0.7-0.1s0.4-0.2,0.6-0.2
				c0.2-0.1,0.4-0.2,0.5-0.2c0.2-0.1,0.3-0.1,0.4-0.1c0.2,0,0.3,0,0.5,0.1s0.2,0.2,0.2,0.3L1029.1,148.9z M1037.4,144.7
				c0,0.1-0.1,0.3-0.2,0.4c-0.1,0.1-0.3,0.2-0.4,0.2l-0.5,0.2c-0.2,0-0.3,0-0.4,0c-0.3,0-0.5,0-0.6-0.1s-0.2-0.1-0.2-0.1
				c-0.5,0-1,0-1.2,0.1s-0.5,0.2-0.7,0.4s-0.3,0.4-0.3,0.7s-0.1,0.6-0.1,1c0,0.6,0,1.2,0.1,1.5l0.2,1l0.1,0.6
				c0.1,0.1,0.1,0.2,0.1,0.4s-0.1,0.3-0.3,0.5c-0.2,0.2-0.3,0.3-0.5,0.3s-0.5-0.2-0.7-0.6c-0.2-0.4-0.3-1-0.5-1.5
				c-0.1-0.6-0.2-1.2-0.3-1.8l-0.1-1.3c0-0.3,0-0.7,0.1-1s0.1-0.6,0.2-0.8s0.2-0.4,0.3-0.6s0.2-0.2,0.4-0.2c0.1,0,0.2,0,0.2,0.1
				c0.1,0.1,0.1,0.1,0.1,0.2l0.1,0.2c0.1,0.1,0.1,0.1,0.2,0.1c0.2,0,0.5-0.1,1-0.3s1-0.3,1.5-0.3h1.2c0.3,0,0.5,0.1,0.8,0.2
				c0.1,0,0.1,0.1,0.2,0.2c0.1,0.1,0.1,0.2,0.1,0.3L1037.4,144.7z M1061.7,155.2c0,0.1,0,0.2,0,0.2v0.2c0,0.2-0.1,0.3-0.2,0.4
				c-0.1,0.1-0.2,0.1-0.5,0.1c-0.2,0-0.4,0-0.5-0.1s-0.3-0.4-0.5-1s-0.4-1-0.6-1.8l-0.7-2.2l-0.5-2.2c-0.2,0.1-0.5,0.2-1,0.3
				l-1.2,0.3l-1.4,0.3l-0.4,2.2l-0.2,1.5c-0.1,0.4-0.2,0.7-0.3,0.8c-0.1,0.2-0.3,0.3-0.5,0.3s-0.3-0.1-0.4-0.3s-0.2-0.4-0.2-0.8
				c0-0.2,0-0.6,0.1-1.3l0.3-2.2l0.4-2.4l0.2-2c0-0.2,0.1-0.6,0.2-1.2l0.4-1.7c0.1-0.6,0.2-1,0.4-1.6v-0.8c0.3-0.7,0.5-1.5,0.6-2.3
				c0.1-0.7,0.2-1.4,0.2-2.1c0.1-0.7,0.1-1.2,0.3-1.6c0.1-0.4,0.4-0.6,0.8-0.6c0.1,0,0.2,0.1,0.3,0.2c0.1,0.2,0.2,0.3,0.3,0.6
				s0.2,0.4,0.2,0.7l0.1,0.5c0,0.1,0,0.4,0.1,0.7v1.2l0.1,1.3l0.1,1c0.1,0.7,0.2,1.4,0.3,2.2l0.4,2.3l0.4,1.8
				c0.1,0.5,0.2,0.7,0.3,0.7c0.1,0,0.2,0,0.3-0.1c0.1,0,0.3-0.1,0.4-0.1c0.2,0,0.2,0.1,0.2,0.2s0,0.3-0.1,0.4s-0.2,0.2-0.3,0.3
				l-0.2,0.2c-0.1,0.1-0.1,0.1-0.1,0.2c0,0.2,0.1,0.6,0.3,1.2l0.5,1.8c0,0.2,0.1,0.4,0.3,0.8l0.4,1.2l0.4,1c0.1,0.4,0.2,0.6,0.2,0.7
				L1061.7,155.2z M1055,148.2c0.1,0,0.3,0,0.7-0.1c0.3-0.1,0.7-0.2,1-0.3l1-0.3c0.3-0.1,0.4-0.2,0.4-0.2s0-0.2-0.1-0.5l-0.2-1
				l-0.3-1.3c-0.1-0.5-0.2-1.1-0.3-1.6l-0.2-1.5V140l-0.2-1.6l-0.1-0.7l-0.1,0.4l-0.2,1c-0.1,0.3-0.1,0.7-0.2,1v0.5v0.8
				c0,0,0,0.2-0.1,0.5v1.2l-0.3,1.5l-0.2,1.6l-0.2,1.4c0,0.3-0.1,0.5-0.1,0.8c0,0.1,0,0.1,0.1,0.1L1055,148.2z M1074.3,148.8
				c0,0.2-0.1,0.4-0.4,0.6s-0.5,0.4-0.8,0.6l-1,0.4c-0.3,0.1-0.6,0.2-0.7,0.2c-0.2,0-0.4,0-0.6-0.1s-0.4-0.2-0.6-0.4l-0.5-0.4
				l-0.3-0.2c-0.1,0.1-0.2,0.2-0.3,0.4l-0.4,0.6c-0.2,0.2-0.3,0.4-0.5,0.5c-0.2,0.2-0.4,0.2-0.6,0.2c-0.5,0-1-0.3-1.3-0.8
				s-0.7-1.2-1-2c-0.2-0.7-0.4-1.4-0.6-2.1l-0.2-1.4c0-0.1,0.1-0.2,0.2-0.3c0.2-0.1,0.3-0.2,0.4-0.2c0.3,0,0.5,0.1,0.6,0.3
				s0.1,0.4,0.1,0.6c0,0.2,0,0.5,0.2,1l0.4,1.4l0.5,1.3c0.2,0.4,0.3,0.5,0.5,0.5c0.3,0,0.5-0.2,0.7-0.5s0.4-0.7,0.5-1
				c0.1-0.4,0.2-0.8,0.3-1.2c0.1-0.4,0.1-0.7,0.1-0.8l0,0l0.1-0.4c0-0.1,0-0.2,0-0.3v-0.2c0-0.1,0-0.2-0.1-0.3s-0.1-0.2-0.1-0.3
				s0.1-0.2,0.2-0.3s0.4-0.2,0.8-0.2c0.2,0,0.3,0.1,0.4,0.2c0.1,0.1,0.2,0.2,0.2,0.3s0.1,0.2,0.1,0.4v0.2v0.4v1v1v0.5
				c0,0.1,0,0.2,0.1,0.4l0.2,0.6c0.1,0.2,0.2,0.3,0.3,0.5c0.1,0.1,0.3,0.2,0.4,0.2c0.2,0,0.5,0,0.7-0.1s0.4-0.2,0.6-0.2
				c0.2-0.1,0.4-0.2,0.5-0.2c0.2-0.1,0.3-0.1,0.5-0.1s0.3,0,0.5,0.1s0.2,0.2,0.2,0.3L1074.3,148.8z M1084,148.9c0,0.1,0,0.2-0.2,0.3
				c-0.1,0.1-0.1,0.2-0.1,0.3c0,0.2,0,0.4,0.1,0.6c0.1,0.2,0.2,0.4,0.2,0.7s-0.1,0.4-0.2,0.4c-0.2,0-0.4,0-0.5,0.1
				c-0.1,0-0.2,0.1-0.5,0.1c-0.1,0-0.2-0.1-0.4-0.3c-0.1-0.1-0.2-0.2-0.2-0.4c0,0-0.1,0-0.2,0.1s-0.3,0.2-0.5,0.4
				c-0.2,0.1-0.6,0.2-1,0.4c-0.4,0.1-1,0.2-1.6,0.2s-1-0.1-1.5-0.4c-0.4-0.3-0.8-0.6-1-1c-0.3-0.4-0.5-0.8-0.6-1.3s-0.2-1-0.2-1.6
				c0-0.5,0-1,0.2-1.3c0.1-0.4,0.3-0.8,0.5-1c0.2-0.3,0.4-0.6,0.8-0.8s0.6-0.3,1-0.3s0.8,0.1,1,0.4s0.7,0.5,1,0.8l0.7,0.8l0.3,0.3
				l-0.7-4.2l-0.3-1.6l-0.2-1.4v-1l-0.1-0.5v-0.6l-0.1-1l-0.1-1c0-0.3,0-0.5-0.1-0.5l-0.2-0.7l-0.1-0.5c0-0.1,0-0.2,0.1-0.4
				s0.2-0.2,0.4-0.2c0.1,0,0.2,0,0.3,0s0.2,0.1,0.3,0.2s0.2,0.3,0.2,0.5c0.1,0.2,0.2,0.5,0.2,1c0,0.2,0.1,0.6,0.2,1l0.3,1.8l0.3,2
				l0.2,1.3l0.4,2.5l0.5,2.6c0.2,0.8,0.4,1.5,0.5,2.2c0.2,0.6,0.3,1,0.5,1.3c0,0.1,0.1,0.1,0.2,0.2c0.1,0,0.2,0.1,0.2,0.2
				L1084,148.9z M1081.8,149.5c0-0.1-0.2-0.3-0.4-0.7c-0.2-0.5-0.5-1-1-1.5c-0.3-0.5-0.7-1-1.2-1.4c-0.4-0.4-0.8-0.6-1.2-0.6
				c-0.3,0-0.6,0.3-0.8,0.8c-0.2,0.6-0.3,1.2-0.3,1.8c0,0.8,0.2,1.4,0.7,1.8c0.5,0.5,1,0.7,1.5,0.7s1-0.1,1.5-0.2s1-0.3,1-0.6
				L1081.8,149.5z M1088.1,139.9c0,0-0.1,0.1-0.2,0.2s-0.3,0.3-0.5,0.4l-0.6,0.3c-0.2,0.1-0.4,0.2-0.5,0.2h-0.3
				c-0.1,0-0.2-0.1-0.4-0.1c-0.1-0.1-0.2-0.1-0.3-0.2c-0.1-0.1-0.2-0.3-0.2-0.4c0-0.3,0.1-0.5,0.3-0.8c0.2-0.3,0.5-0.4,0.8-0.4
				c0.1,0,0.2,0,0.4,0.1c0.2,0,0.4,0.1,0.7,0.2s0.4,0.2,0.6,0.3s0.3,0.2,0.3,0.3L1088.1,139.9z M1089.1,151.1c0,0.1-0.1,0.3-0.3,0.4
				c-0.2,0.1-0.4,0.2-0.5,0.2c-0.2,0-0.4-0.1-0.5-0.4s-0.3-0.6-0.4-1l-0.3-1l-0.2-0.7l-0.2-0.7l-0.3-0.8l-0.2-0.7
				c-0.1-0.2-0.1-0.3-0.1-0.3c0-0.3,0-0.5,0.1-0.8c0.1-0.2,0.3-0.4,0.4-0.4c0.2,0,0.4,0.1,0.6,0.4s0.4,0.6,0.6,1s0.4,1,0.5,1.4
				l0.4,1.4l0.3,1.2c0.1,0.3,0.1,0.5,0.1,0.6V151.1z M1099.3,150.5c0,0,0,0.1,0,0.2c0,0.1-0.1,0.3-0.3,0.5c-0.1,0.1-0.2,0.2-0.4,0.4
				s-0.5,0.4-0.8,0.5s-0.8,0.3-1.3,0.5c-0.5,0.1-1,0.2-1.7,0.2c-0.5,0-1-0.1-1.3-0.3c-0.4-0.2-0.8-0.5-1.2-1c-0.3-0.4-0.6-1-0.8-1.5
				c-0.2-0.6-0.3-1.3-0.3-2.2c0-0.8,0.1-1.5,0.3-2.2s0.5-1.3,0.8-1.8s0.7-1,1-1.2s0.8-0.5,1-0.5c0.3,0,0.6,0.1,1,0.2
				c0.3,0.1,0.6,0.3,1,0.5c0.3,0.2,0.5,0.4,0.7,0.7c0.2,0.2,0.2,0.5,0.2,0.8s-0.1,0.6-0.4,1c-0.3,0.3-0.6,0.6-1,1
				c-0.4,0.3-0.8,0.5-1,0.7c-0.4,0.2-0.7,0.2-1,0.2c-0.1,0-0.2-0.1-0.3-0.2c-0.1-0.1-0.1-0.3-0.1-0.4c0-0.3,0.1-0.5,0.4-0.7
				s0.5-0.3,0.8-0.4c0.3-0.1,0.6-0.3,0.8-0.5c0.3-0.2,0.4-0.4,0.4-0.7c0,0-0.1-0.1-0.2-0.3s-0.4-0.2-0.8-0.2c-0.2,0-0.4,0.1-0.7,0.4
				c-0.3,0.2-0.5,0.5-0.7,1c-0.2,0.4-0.4,0.8-0.6,1.4c-0.2,0.5-0.2,1-0.2,1.7c0,0.5,0.1,1,0.3,1.4c0.2,0.4,0.5,0.8,0.8,1
				c0.3,0.3,0.6,0.5,1,0.7s0.8,0.2,1.2,0.2c0.3,0,0.6-0.1,1-0.2l1-0.4l0.8-0.4c0.2-0.1,0.4-0.2,0.5-0.2s0.1,0,0.2,0.1
				s0.1,0.1,0.2,0.2L1099.3,150.5z M1110.3,150c0,0.1,0,0.2-0.1,0.4s-0.2,0.2-0.3,0.3c-0.1,0.1-0.2,0.2-0.4,0.3
				c-0.1,0.1-0.2,0.1-0.3,0.1c-0.3,0-0.8-0.1-1.3-0.2c-0.5-0.2-1-0.4-1.3-0.7s-0.6-0.7-1-1.2c-0.4-0.7-0.7-1.4-0.9-2.1
				c-0.2,0.9-0.5,1.7-0.8,2.6c-0.3,1-0.7,1.6-1.4,2.4c0,0-0.1,0.1-0.2,0.1s-0.3-0.1-0.4-0.2s-0.2-0.3-0.2-0.4v-1v-1.7v-2v-1.6
				c0-0.3,0-0.5,0-0.8c0-0.3,0.1-0.6,0.2-1c0,0,0.1-0.1,0.2-0.2c0.1-0.1,0.3-0.2,0.5-0.2c0.1,0,0.2,0.1,0.2,0.3v0.6v4.7
				c0,0.1,0,0.2,0,0.4s0.1,0.3,0.2,0.4c0.2-0.5,0.4-1,0.6-1.7l0.6-2c0.2-0.6,0.4-1,0.5-1.5c0.2-0.4,0.4-0.6,0.5-0.6
				c0.2,0,0.4,0,0.5,0.1s0.2,0.2,0.3,0.5l0.2,1.6l0.2,1.2c0.1,0.4,0.2,0.7,0.4,1c0.2,0.3,0.4,0.6,0.7,0.8c0.3,0.3,0.6,0.5,1,0.6
				s0.7,0.2,1,0.2c0.1,0,0.3,0,0.4-0.1s0.2-0.1,0.3-0.1c0.1,0,0.2,0.1,0.2,0.2c0.1,0.1,0.1,0.2,0.1,0.3L1110.3,150z M1120.5,148.2
				c0,0.2,0,0.4-0.1,0.6l-0.2,0.5c0,0.1-0.2,0.3-0.6,0.6c-0.4,0.4-0.8,0.8-1.2,1.1c-0.5,0.4-1,0.7-1.7,1c-0.6,0.3-1.2,0.4-1.7,0.4
				c-0.3,0-0.7-0.1-1-0.2c-0.3-0.1-0.7-0.3-1-0.6s-0.5-0.6-0.7-1s-0.3-1-0.3-1.5c0-1,0.2-1.8,0.5-2.6s0.6-1.4,1-2
				c0.1-0.2,0.3-0.4,0.5-0.7c0.2-0.2,0.5-0.5,0.7-0.6l0.6-0.5c0.2-0.1,0.3-0.2,0.4-0.2c0.2,0,0.3,0.1,0.5,0.2
				c0.2,0.1,0.2,0.2,0.2,0.3c0,0.2,0,0.3-0.2,0.4c-0.1,0.1-0.3,0.3-0.4,0.4c-0.2,0.1-0.3,0.3-0.6,0.5c-0.2,0.2-0.5,0.5-0.7,0.8
				c-0.5,0.7-0.8,1.3-1,2s-0.3,1.3-0.3,1.8s0.2,1,0.6,1.3s0.8,0.5,1.2,0.5c0.8,0,1.4-0.2,2-0.5s1-0.7,1.5-1l1-1
				c0.3-0.3,0.4-0.5,0.6-0.5S1120.4,147.9,1120.5,148.2L1120.5,148.2z M1131.2,150.5c0,0,0,0.1,0,0.2c0,0.1-0.1,0.3-0.3,0.5
				c-0.1,0.1-0.2,0.2-0.4,0.4s-0.5,0.4-0.8,0.5s-0.8,0.3-1.3,0.5c-0.5,0.1-1,0.2-1.7,0.2c-0.5,0-1-0.1-1.4-0.3s-0.8-0.5-1.2-1
				c-0.3-0.4-0.6-1-0.8-1.5c-0.2-0.6-0.3-1.3-0.3-2.2c0-0.8,0.1-1.5,0.3-2.2s0.5-1.3,0.8-1.8s0.7-1,1-1.2s0.8-0.5,1-0.5
				c0.3,0,0.6,0.1,1,0.2c0.3,0.1,0.6,0.3,1,0.5c0.3,0.2,0.5,0.4,0.7,0.7c0.2,0.2,0.2,0.5,0.2,0.8s-0.1,0.6-0.4,1
				c-0.3,0.3-0.6,0.6-1,1c-0.4,0.3-0.8,0.5-1,0.7c-0.4,0.2-0.7,0.2-1,0.2c-0.1,0-0.2-0.1-0.3-0.2c-0.1-0.1-0.1-0.3-0.1-0.4
				c0-0.3,0.1-0.5,0.4-0.7s0.5-0.3,0.8-0.4c0.3-0.1,0.6-0.3,0.8-0.5c0.3-0.2,0.4-0.4,0.4-0.7c0,0,0-0.1-0.2-0.3s-0.4-0.2-0.8-0.2
				c-0.2,0-0.4,0.1-0.7,0.4c-0.3,0.2-0.5,0.5-0.7,1c-0.2,0.4-0.4,0.8-0.6,1.4c-0.2,0.5-0.2,1-0.2,1.7c0,0.5,0.1,1,0.3,1.4
				c0.2,0.4,0.5,0.8,0.8,1c0.3,0.3,0.7,0.5,1,0.7s0.8,0.2,1.2,0.2c0.3,0,0.6-0.1,1-0.2l1-0.4l0.8-0.4c0.2-0.1,0.4-0.2,0.5-0.2
				S1131.1,150.4,1131.2,150.5c0.1,0.1,0.1,0.1,0.1,0.2L1131.2,150.5z"/>
			<path d="M560.2,464.8c0,0.2-0.1,0.4-0.3,0.5s-0.4,0.2-0.6,0.2c0,0-0.1,0-0.2-0.1c-0.1-0.1-0.1-0.1-0.2-0.2l-2.7-2.4l-2.8-2.4
				l-3-2.6c-1-1-1.8-2-2.6-3l1,3.4l1.3,3.4l1,2.8c0.3,0.8,0.5,1.2,0.5,1.4c0,0.2-0.1,0.4-0.3,0.6s-0.4,0.2-0.6,0.2
				c-0.1,0-0.2-0.1-0.4-0.4c-0.1-0.2-0.3-0.6-0.5-1s-0.3-0.8-0.5-1.3l-0.5-1.5l-0.5-1.4l-0.3-1l-0.8-2.4l-0.5-1.6l-0.5-1.6
				c-0.1-0.5-0.3-1-0.4-1.3c-0.1-0.4-0.1-0.6-0.1-0.7c0-0.2,0-0.4,0.1-0.7c0.1-0.2,0.2-0.4,0.3-0.4s0.2,0,0.2,0.1l0.1,0.1l0.4-0.2
				c0.1,0,0.3,0.1,0.5,0.4c0.3,0.2,0.5,0.6,1,1l1,1.4l1,1.5l1,1.4c0.4,0.4,0.7,0.8,1,1l1.3,1l1.3,1l1.4,1.2l1.6,1.4h0.1
				c0,0,0.1-0.1,0.1-0.2V462c0-0.3-0.1-0.8-0.2-1.5l-0.7-2.6c-0.3-1-0.6-2-1-3l-1.2-3.2l-1.3-2.8c-0.5-0.8-1-1.5-1.4-2
				c-0.1-0.1-0.2-0.3-0.3-0.5l-0.1-0.6c0-0.1,0.1-0.3,0.3-0.4c0.2-0.2,0.4-0.3,0.5-0.3c0.2,0,0.5,0.2,0.8,0.7s0.6,1,1,2l1,2.6l1,3
				c0.4,1.1,0.8,2.3,1.1,3.4l1,3.2l0.7,2.6c0.2,0.8,0.3,1.4,0.3,1.8L560.2,464.8z M569.7,462.8c0,0,0,0.1,0,0.2s-0.1,0.3-0.3,0.5
				c-0.1,0.1-0.2,0.2-0.4,0.4s-0.5,0.4-0.8,0.5s-0.8,0.3-1.3,0.5c-0.5,0.1-1,0.2-1.7,0.2c-0.5,0-1-0.1-1.3-0.3
				c-0.4-0.2-0.8-0.5-1.2-1c-0.3-0.4-0.6-1-0.8-1.5c-0.2-0.6-0.3-1.3-0.3-2.2c0-0.8,0.1-1.5,0.3-2.2s0.5-1.3,0.8-1.8s0.7-1,1-1.2
				s0.8-0.4,1-0.4c0.3,0,0.6,0.1,1,0.2c0.3,0.1,0.6,0.3,1,0.5c0.3,0.2,0.5,0.4,0.7,0.7c0.2,0.2,0.2,0.5,0.2,0.8s-0.1,0.6-0.4,1
				c-0.3,0.3-0.6,0.6-1,1c-0.4,0.3-0.8,0.5-1,0.7c-0.4,0.2-0.7,0.2-1,0.2c-0.1,0-0.2,0-0.3-0.1s-0.1-0.3-0.1-0.4
				c0-0.3,0.1-0.5,0.4-0.7c0.3-0.2,0.5-0.3,0.8-0.4s0.6-0.3,0.8-0.5c0.3-0.2,0.4-0.4,0.4-0.7c0,0,0-0.1-0.1-0.3s-0.4-0.2-0.8-0.2
				c-0.2,0-0.4,0.1-0.7,0.4c-0.3,0.2-0.5,0.5-0.7,1c-0.2,0.4-0.4,0.8-0.6,1.4c-0.2,0.5-0.2,1-0.2,1.7c0,0.5,0.1,1,0.3,1.4
				s0.5,0.8,0.8,1c0.3,0.3,0.6,0.5,1,0.7s0.8,0.2,1.2,0.2c0.3,0,0.6-0.1,1-0.2l1-0.4l0.8-0.4c0.2-0.1,0.4-0.2,0.4-0.2s0.1,0,0.2,0.1
				c0.1,0.1,0.1,0.1,0.1,0.2L569.7,462.8z M580.9,452.8c0.1,0,0.1,0.1,0.1,0.2s-0.1,0.3-0.2,0.4c-0.1,0.1-0.2,0.3-0.2,0.5v0.4v1v1
				v0.5v3v0.4c0,0.3-0.1,0.6-0.1,1l-0.1,1l-0.1,1c0,0.1-0.1,0.1-0.2,0.2c-0.1,0-0.2,0.1-0.3,0.1h-0.3h-0.2c-0.2,0-0.5-0.1-0.7-0.4
				s-0.5-0.5-0.7-1s-0.4-0.6-0.6-1v-0.5c-0.1,0.3-0.2,0.6-0.3,0.9c-0.1,0.3-0.2,0.5-0.3,0.8c-0.1,0.2-0.3,0.4-0.4,0.6
				c-0.1,0.2-0.3,0.2-0.5,0.2s-0.5-0.1-0.7-0.4s-0.5-0.6-0.8-1s-0.5-0.8-0.7-1.3L573,459c-0.1-0.4-0.3-0.8-0.4-1.2
				c-0.1-0.4-0.1-0.7-0.1-1c0-0.1,0-0.2,0.1-0.3s0.2-0.2,0.3-0.2c0.3,0,0.5,0.1,0.6,0.3c0,0,0.1,0.2,0.2,0.5l0.5,1.2
				c0.2,0.5,0.5,0.9,0.7,1.4c0.2,0.4,0.6,0.8,0.9,1.2c0.1-0.3,0.3-0.6,0.3-1l0.2-1l0.1-0.8v-0.6l-0.1-0.5l-0.1-0.4v-0.4
				c0-0.5,0.2-0.7,0.6-0.7c0.3,0,0.5,0.1,0.7,0.3c0.2,0.2,0.3,0.4,0.4,0.7c0.1,0.2,0.1,0.5,0.1,0.7s0.1,0.4,0.1,0.5
				c0.2,0.5,0.3,1,0.4,1.3c0.1,0.4,0.4,0.8,0.7,1.2c0.1-0.1,0.1-0.2,0.2-0.3c0.1-0.2,0.1-0.3,0.1-0.5s0-0.3,0-0.4v-0.3v-6
				c0-0.1,0-0.2,0.1-0.3s0.2-0.2,0.4-0.3s0.3-0.1,0.4-0.2c0.1-0.1,0.2-0.1,0.3-0.1s0.2,0,0.3,0.1l0.3,0.2L580.9,452.8z M605.7,444.5
				c0,0,0,0.1,0,0.2v0.3c0,0.1,0,0.2-0.1,0.2h-0.1h-0.2l-1.3-0.6c-0.5-0.3-1-0.4-1.7-0.4s-1.3,0.3-1.7,0.8s-0.8,1.2-1,2
				c-0.2,0.7-0.4,1.4-0.5,2c-0.1,0.5-0.1,1-0.1,1.5c0,0.2,0,0.6,0.1,1l0.3,1.4l0.4,1.4c0.2,0.4,0.3,0.7,0.5,0.8h0.6
				c0.3,0,0.5,0,0.8,0c0.3,0,0.7,0,1,0.1s0.6,0.1,1,0.1h0.4c0.2,0,0.3,0,0.5,0s0.3,0.1,0.5,0.1c0.1,0,0.2,0.1,0.2,0.2
				s-0.1,0.2-0.2,0.3s-0.3,0.1-0.5,0.2c-0.2,0-0.4,0.1-0.5,0.1s-0.3,0-0.4,0h-0.4h-0.5c-0.2,0-0.4,0-0.5,0c-0.2,0-0.3,0-0.4,0
				c-0.3,0-0.5,0-0.6,0.1s-0.1,0.2-0.1,0.4c0,0.3,0.1,0.7,0.4,1.2l1,1.6l1,1.8c0.3,0.6,0.4,1.2,0.4,1.7c0,0.1,0,0.3-0.1,0.6
				c0,0.3-0.1,0.5-0.2,0.8c-0.1,0.3-0.2,0.5-0.4,0.8s-0.3,0.3-0.5,0.3s-0.3,0-0.4-0.1c-0.1-0.1-0.2-0.3-0.2-0.5c0-0.3,0.1-0.6,0.2-1
				c0.2-0.3,0.3-0.6,0.3-1c0-0.2-0.1-0.4-0.2-0.8c-0.1-0.4-0.3-0.8-0.5-1.3l-0.7-1.5c-0.2-0.5-0.5-0.9-0.7-1.4
				c-0.2-0.4-0.4-0.8-0.6-1l-0.3-0.4l-1.2,0.4c-0.4,0.1-0.8,0.3-1,0.6c-0.1,0.1-0.3,0.2-0.4,0.2c-0.2,0-0.4-0.1-0.6-0.2
				c-0.2-0.2-0.2-0.3-0.2-0.5s0.1-0.4,0.2-0.5c0.1-0.1,0.3-0.2,0.4-0.3c0.2-0.1,0.5-0.2,0.8-0.3l1-0.3c0.1,0,0.3-0.1,0.4-0.1
				c0.1,0,0.2-0.1,0.2-0.2l-0.3-0.8c-0.1-0.4-0.2-0.8-0.3-1.2c-0.1-0.5-0.2-1-0.3-1.5c-0.1-0.6-0.1-1.2-0.1-2c0-0.7,0.1-1.5,0.2-2.3
				c0.2-0.8,0.5-1.5,0.8-2.2c0.4-0.7,0.8-1.2,1.4-1.6c0.6-0.4,1.2-0.7,2-0.7c0.4,0,0.8,0,1.2,0.1s0.8,0.2,1.2,0.3
				c0.4,0.1,0.7,0.3,1,0.5s0.4,0.4,0.4,0.6L605.7,444.5z M616,463c0,0,0,0.1,0,0.2s-0.1,0.3-0.3,0.5c-0.1,0.1-0.2,0.2-0.4,0.4
				s-0.5,0.4-0.8,0.5s-0.8,0.3-1.3,0.5c-0.5,0.1-1,0.2-1.7,0.2c-0.5,0-1-0.1-1.4-0.3c-0.4-0.2-0.8-0.5-1.2-1c-0.3-0.4-0.6-1-0.8-1.5
				c-0.2-0.6-0.3-1.3-0.3-2.2c0-0.8,0.1-1.5,0.3-2.2s0.5-1.3,0.8-1.8s0.7-1,1-1.2s0.8-0.4,1-0.4c0.3,0,0.6,0.1,1,0.2
				c0.3,0.1,0.6,0.3,1,0.5c0.3,0.2,0.5,0.4,0.7,0.7c0.2,0.2,0.2,0.5,0.2,0.8s-0.1,0.6-0.4,1c-0.3,0.3-0.6,0.6-1,1
				c-0.4,0.3-0.8,0.5-1,0.7c-0.4,0.2-0.7,0.2-1,0.2c-0.1,0-0.2,0-0.3-0.1s-0.1-0.3-0.1-0.4c0-0.3,0.1-0.5,0.4-0.7
				c0.3-0.2,0.5-0.3,0.8-0.4s0.6-0.3,0.8-0.5c0.3-0.2,0.4-0.4,0.4-0.7c0,0-0.1-0.1-0.1-0.3s-0.4-0.2-0.8-0.2c-0.2,0-0.4,0.1-0.7,0.4
				c-0.3,0.2-0.5,0.5-0.7,1c-0.2,0.4-0.4,0.8-0.6,1.4c-0.2,0.5-0.2,1-0.2,1.7c0,0.5,0.1,1,0.3,1.4s0.5,0.8,0.8,1
				c0.3,0.3,0.6,0.5,1,0.7s0.8,0.2,1.2,0.2c0.3,0,0.6-0.1,1-0.2l1-0.4l0.8-0.4c0.2-0.1,0.4-0.2,0.5-0.2s0.1,0,0.2,0.1
				c0.1,0.1,0.1,0.1,0.2,0.2L616,463z M632.4,460c0,0.4-0.2,0.8-0.5,1.4c-0.4,0.6-0.8,1.1-1.3,1.5c-0.6,0.5-1.2,1-2,1.3
				c-0.7,0.3-1.5,0.5-2.3,0.5c-0.4,0-0.7-0.1-1-0.2s-0.8-0.3-1.2-0.5s-0.7-0.5-1-0.8s-0.5-0.7-0.7-1c-0.1,0.1-0.3,0.3-0.5,0.6
				l-0.5,1c-0.2,0.3-0.4,0.5-0.7,0.8c-0.2,0.2-0.5,0.3-0.7,0.3s-0.5-0.1-0.7-0.4s-0.3-0.6-0.4-1c-0.1-0.3-0.2-0.7-0.2-1l-0.1-0.5
				c0-0.2,0.1-0.7,0.2-1.3c0.1-0.7,0.3-1.4,0.6-2c0.2-0.7,0.6-1.3,1-1.9c0.4-0.6,1-0.8,1.5-0.8c0.2,0,0.4,0.1,0.4,0.3
				c0.1,0.2,0.1,0.4,0.1,0.5v1c0.1,0.1,0.2,0.1,0.3,0.2c0.1,0,0.2,0.1,0.3,0.1s0.2,0.1,0.2,0.2c0.1,0.1,0.1,0.3,0.1,0.5v0.4
				c0,0.1,0,0.2,0,0.3c0,0.5,0,1,0.1,1.5s0.2,1,0.5,1.4c0.2,0.4,0.6,0.7,1,1c0.4,0.2,1,0.4,1.7,0.4c1,0,1.6-0.2,2.2-0.5
				c0.6-0.3,1.1-0.7,1.5-1.2c0.4-0.5,0.8-1,1-1.2c0.2-0.4,0.4-0.6,0.6-0.6c0.3,0,0.4,0.1,0.4,0.4L632.4,460z M621.9,458.7
				c0-0.1,0-0.1-0.1-0.2c0-0.1-0.1-0.2-0.1-0.2c0-0.1,0-0.1,0.1-0.2s0.1-0.1,0.1-0.2s0-0.1-0.1-0.1l-0.1-0.1c-0.2,0-0.4,0.2-0.6,0.5
				c-0.2,0.3-0.4,0.7-0.5,1c-0.2,0.4-0.3,0.8-0.4,1.2c-0.1,0.4-0.1,0.7-0.1,1c0,0.1,0,0.4,0.1,0.7s0.2,0.5,0.3,0.6l1-2
				c0.3-0.7,0.5-1.3,0.5-2L621.9,458.7z M640.7,452.7c-0.3,0.3-0.6,0.6-1,1l-1.4,0.8l-1.3,0.6c-0.4,0.2-0.5,0.3-0.5,0.3
				s0,0.2,0.1,0.5l0.3,1l0.4,1.3l0.3,1.2l0.1,0.8l0.2,1l0.1,1v0.4c0,0.3,0,0.6-0.1,1s-0.3,0.5-0.5,0.5c-0.1,0-0.2-0.1-0.3-0.2
				s-0.2-0.2-0.3-0.3c-0.1-0.1-0.1-0.3-0.2-0.4s-0.1-0.2-0.1-0.3v-0.2c0-0.1,0-0.2,0-0.3c0-0.4-0.1-1-0.2-1.6l-0.2-1l-0.4-1.4
				l-0.5-1.8c-0.1-0.3-0.1-0.4-0.1-0.4c-0.1,0-0.4,0.1-0.7,0.3c-0.3,0.2-0.7,0.4-1,0.6l-1.3,0.8l-1.3,0.8l-1,0.6l-0.5,0.2
				c-0.3,0-0.5-0.1-0.6-0.3s-0.2-0.4-0.2-0.6c0-0.1,0.2-0.3,0.5-0.5l1.2-0.8l1.6-1l1.6-0.8c0.4-0.2,0.8-0.4,1.2-0.6l0.5-0.2
				l-0.5-2.5l-0.3-1.7v-0.8c0-0.3,0-0.4,0.1-0.6c0.1-0.1,0.3-0.2,0.4-0.2c0.2,0,0.4,0.1,0.4,0.4l0.6,3l0.6,2c0.2,0,0.5-0.2,1-0.3
				l1.4-0.6l1.3-0.6l0.7-0.3c0.1,0,0.2,0,0.2,0.1l0.1,0.2L640.7,452.7z M652,461c0,0.2-0.1,0.4-0.4,0.6s-0.5,0.4-0.8,0.6l-1,0.4
				c-0.3,0.1-0.6,0.2-0.7,0.2c-0.2,0-0.4-0.1-0.6-0.1c-0.2-0.1-0.4-0.2-0.6-0.4l-0.5-0.4l-0.3-0.2c-0.1,0.1-0.1,0.2-0.3,0.4
				l-0.5,0.6c-0.2,0.2-0.3,0.4-0.5,0.5c-0.2,0.2-0.4,0.2-0.6,0.2c-0.5,0-1-0.3-1.4-0.8s-0.7-1.2-1-2c-0.2-0.7-0.4-1.4-0.6-2.1
				l-0.2-1.4c0-0.1,0.1-0.2,0.2-0.3c0.2-0.1,0.3-0.1,0.4-0.1c0.3,0,0.5,0.1,0.6,0.3c0.1,0.2,0.1,0.4,0.1,0.6s0,0.5,0.1,1l0.4,1.4
				l0.5,1.3c0.2,0.4,0.3,0.5,0.5,0.5c0.3,0,0.5-0.2,0.7-0.5s0.4-0.7,0.5-1c0.1-0.4,0.2-0.8,0.3-1.2c0.1-0.4,0.1-0.7,0.1-0.8l0,0
				l0.1-0.4c0-0.1,0-0.2,0-0.3v-0.2c0-0.1,0-0.2-0.1-0.3c-0.1-0.1-0.1-0.2-0.1-0.3c0-0.1,0.1-0.2,0.2-0.3c0.1-0.1,0.4-0.2,0.8-0.2
				c0.2,0,0.3,0.1,0.4,0.2c0.1,0.1,0.2,0.2,0.2,0.3s0.1,0.2,0.1,0.4v0.2v0.4v1v1v0.5c0,0.1,0,0.2,0.1,0.4l0.2,0.6
				c0.1,0.2,0.2,0.4,0.3,0.5s0.3,0.2,0.4,0.2c0.2,0,0.5,0,0.7-0.1s0.4-0.2,0.6-0.2c0.2-0.1,0.4-0.2,0.5-0.2c0.2-0.1,0.3-0.1,0.5-0.1
				s0.3,0,0.5,0.1s0.2,0.2,0.2,0.3L652,461z M660.3,456.8c0,0.1-0.1,0.3-0.2,0.4c-0.1,0.1-0.3,0.2-0.4,0.2l-0.5,0.1
				c-0.2,0-0.3,0-0.4,0c-0.3,0-0.5,0-0.6-0.1s-0.2-0.1-0.2-0.1c-0.5,0-1,0-1.2,0.1s-0.5,0.2-0.7,0.4c-0.2,0.2-0.3,0.4-0.3,0.7
				c0,0.3-0.1,0.6-0.1,1c0,0.6,0,1.2,0.1,1.5l0.1,1v0.6c0.1,0.1,0.1,0.2,0.1,0.4c0,0.2-0.1,0.3-0.3,0.5s-0.3,0.3-0.4,0.3
				c-0.2,0-0.5-0.2-0.7-0.6s-0.3-1-0.5-1.5c-0.1-0.6-0.2-1.2-0.3-1.8v-1.3c0-0.3,0-0.7,0.1-1s0.1-0.6,0.2-0.8
				c0.1-0.2,0.2-0.4,0.3-0.6s0.2-0.2,0.4-0.2c0.1,0,0.2,0,0.2,0.1c0.1,0.1,0.1,0.1,0.1,0.2l0.1,0.2c0.1,0.1,0.1,0.1,0.2,0.1
				c0.2,0,0.5-0.1,1-0.3s1-0.3,1.5-0.3h1.2c0.3,0,0.6,0.1,0.8,0.2c0.1,0,0.1,0.1,0.2,0.2c0.1,0.1,0.1,0.2,0.1,0.3L660.3,456.8z
				 M671.1,462.8c0,0,0,0.1,0,0.2s-0.1,0.3-0.3,0.5c-0.1,0.1-0.2,0.2-0.4,0.4s-0.5,0.4-0.8,0.5s-0.8,0.3-1.3,0.5
				c-0.5,0.1-1,0.2-1.7,0.2c-0.5,0-1-0.1-1.4-0.3c-0.4-0.2-0.8-0.5-1.2-1c-0.3-0.4-0.6-1-0.8-1.5c-0.2-0.6-0.3-1.3-0.3-2.2
				c0-0.8,0.1-1.5,0.3-2.2s0.4-1.3,0.8-1.8c0.3-0.5,0.7-1,1-1.2s0.8-0.4,1-0.4c0.3,0,0.6,0.1,1,0.2c0.3,0.1,0.6,0.3,1,0.5
				c0.3,0.2,0.5,0.4,0.7,0.7c0.2,0.2,0.2,0.5,0.2,0.8s-0.1,0.6-0.4,1c-0.3,0.3-0.6,0.6-1,1c-0.4,0.3-0.8,0.5-1,0.7
				c-0.4,0.2-0.7,0.2-1,0.2c-0.1,0-0.2,0-0.3-0.1s-0.1-0.3-0.1-0.4c0-0.3,0.1-0.5,0.4-0.7c0.3-0.2,0.5-0.3,0.8-0.4s0.6-0.3,0.8-0.5
				c0.3-0.2,0.4-0.4,0.4-0.7c0,0,0-0.1-0.1-0.3s-0.4-0.2-0.8-0.2c-0.2,0-0.4,0.1-0.7,0.4c-0.3,0.2-0.5,0.5-0.7,1
				c-0.2,0.4-0.4,0.8-0.6,1.4c-0.2,0.5-0.2,1-0.2,1.7c0,0.5,0.1,1,0.3,1.4s0.4,0.8,0.8,1c0.3,0.3,0.6,0.5,1,0.7s0.8,0.2,1.2,0.2
				c0.3,0,0.6-0.1,1-0.2l1-0.4l0.8-0.4c0.2-0.1,0.4-0.2,0.5-0.2s0.1,0,0.2,0.1c0.1,0.1,0.1,0.1,0.1,0.2L671.1,462.8z"/>
			<path d="M156.2,224.7c0,1-0.2,1.6-0.5,2c-0.3,0.5-0.8,1-1.4,1.4l-0.7,0.4l-1,0.4c-0.3,0.1-0.7,0.2-1,0.3s-0.7,0.1-1,0.1
				c-1,0-1.6-0.1-2-0.3c-0.5-0.2-0.7-0.4-0.7-0.7c0-0.3,0-0.5,0.2-0.7c0.2-0.2,0.3-0.3,0.4-0.3l0.3,0.2c0.1,0.1,0.2,0.2,0.4,0.3
				s0.5,0.2,1,0.2c0.4,0,0.8-0.1,1.4-0.2c0.5-0.1,1-0.3,1.5-0.6s1-0.6,1.3-1c0.3-0.4,0.5-0.9,0.5-1.4c0-0.5-0.3-1-1-1.3
				c-0.7-0.4-1.8-0.7-3.2-0.8c-0.8-0.1-1.5-0.2-2.2-0.3s-1.4-0.3-2-0.5s-1-0.5-1.4-1c-0.4-0.4-0.5-0.8-0.5-1.3s0.1-1,0.4-1.4
				s0.6-1,1-1.3c0.4-0.4,0.8-0.7,1.3-1l1-0.7l1-0.5c0.4-0.2,1-0.5,1.4-0.7l1.5-0.5c0.5-0.2,1-0.2,1.3-0.2c0.4,0,0.7,0.1,0.8,0.3
				s0.2,0.5,0.2,1c0,0.3,0,0.7-0.1,1l-0.3,1c-0.1,0.4-0.2,0.7-0.3,1l-0.2,0.5c-0.1,0.2-0.2,0.3-0.3,0.4s-0.2,0.1-0.2,0.1
				c-0.1,0-0.1-0.1-0.1-0.2c0-0.1,0-0.2,0-0.3v-0.6c0.1-0.2,0.1-0.5,0.1-0.8s0.1-0.6,0.1-0.8l-0.1-1c0-0.2-0.2-0.3-0.5-0.3
				s-0.7,0.1-1,0.2c-0.5,0.1-1,0.3-1.5,0.5c-0.5,0.2-1,0.6-1.6,1c-0.5,0.4-1,0.8-1.3,1.2s-0.7,0.8-1,1.2c-0.2,0.4-0.4,0.6-0.4,1
				c0,0.2,0.2,0.5,0.5,0.7s0.8,0.4,1.3,0.5c0.5,0.2,1,0.3,1.7,0.4s1.2,0.2,1.8,0.3l1.7,0.2c0.6,0.1,1.2,0.3,1.7,0.5s1,0.5,1.3,1
				C156.2,223.7,156.3,224.1,156.2,224.7L156.2,224.7z M167.5,220.4c0,0.5-0.2,1-0.4,1.5c-0.3,0.5-0.6,1-1,1.3c-0.4,0.4-1,0.8-1.4,1
				c-0.5,0.3-1,0.6-1.4,1l-1,0.7c-0.3,0.2-0.4,0.3-0.4,0.4c0,0.3,0,0.6,0.1,1l0.2,1.5l0.3,1.7l0.2,1.6c0,0,0,0.1,0,0.3
				s0.1,0.3,0.1,0.5c0.1,0.2,0.1,0.4,0.1,0.5v0.3v0.5c0,0.2,0,0.3-0.1,0.5c0,0.2-0.1,0.3-0.2,0.4s-0.2,0.1-0.4,0.1s-0.4-0.1-0.5-0.3
				s-0.2-0.4-0.2-0.5v-0.1c0,0,0-0.1,0-0.2c0-0.2-0.1-0.8-0.2-1.8l-0.5-3.4l-0.5-4.3c-0.1-1.5-0.2-2.9-0.2-4.4c0-0.1,0-0.2,0-0.3
				s0-0.3,0-0.4c-0.2,0-0.5,0.1-1,0.3l-1,0.6c-0.4,0.2-0.7,0.5-1,0.7s-0.4,0.5-0.4,0.7h-0.2c-0.1,0-0.1,0-0.2-0.1
				c-0.1-0.1-0.2-0.2-0.2-0.3l-0.2-0.3c-0.1-0.1-0.1-0.2-0.1-0.2c0-0.4,0.3-0.8,0.8-1.2s1-0.7,2-1c0.8-0.3,1.6-0.6,2.5-0.7
				c0.9-0.2,1.7-0.3,2.6-0.3c0.8,0,1.4,0.1,2,0.3c0.5,0.2,1,0.4,1.3,0.7c0.3,0.2,0.6,0.5,0.7,0.8s0.2,0.5,0.2,0.7L167.5,220.4z
				 M166,220.3c0-0.2-0.2-0.4-0.7-0.6c-0.5-0.2-1-0.3-1.8-0.3l-1.3,0.1c-0.3,0-0.5,0.1-0.6,0.1c0,0.3-0.1,0.7-0.1,1v1.3
				c0,0.5,0,1,0,1.4l0.1,1l1-0.7l1.5-1c0.5-0.4,1-0.8,1.2-1.2c0.4-0.4,0.5-1,0.5-1.3L166,220.3z M177.5,225.9c0,0,0,0.1,0,0.2
				c0,0.1-0.1,0.3-0.3,0.5c-0.1,0.1-0.2,0.2-0.4,0.4s-0.5,0.4-0.8,0.5s-0.8,0.3-1.3,0.5c-0.5,0.1-1,0.2-1.7,0.2
				c-0.5,0-1-0.1-1.3-0.3c-0.4-0.2-0.8-0.5-1.2-1c-0.3-0.4-0.6-1-0.8-1.5c-0.2-0.6-0.3-1.3-0.3-2.2c0-0.8,0.1-1.5,0.3-2.2
				s0.5-1.3,0.8-1.8s0.7-1,1-1.2s0.8-0.5,1-0.5c0.3,0,0.6,0.1,1,0.2c0.3,0.1,0.6,0.3,1,0.5c0.3,0.2,0.5,0.4,0.7,0.7
				c0.2,0.2,0.2,0.5,0.2,0.8s-0.1,0.6-0.4,1c-0.3,0.3-0.6,0.6-1,1c-0.4,0.3-0.8,0.5-1,0.7c-0.4,0.2-0.7,0.2-1,0.2
				c-0.1,0-0.2-0.1-0.3-0.2c-0.1-0.1-0.1-0.3-0.1-0.4c0-0.3,0.1-0.5,0.4-0.7c0.3-0.2,0.5-0.3,0.8-0.4c0.3-0.1,0.6-0.3,0.8-0.5
				c0.3-0.2,0.4-0.4,0.4-0.7c0,0-0.1-0.1-0.2-0.3s-0.4-0.2-0.8-0.2c-0.2,0-0.4,0.1-0.7,0.4c-0.3,0.2-0.5,0.5-0.7,1
				c-0.2,0.4-0.4,0.8-0.6,1.4c-0.2,0.5-0.2,1-0.2,1.7c0,0.5,0.1,1,0.3,1.4s0.4,0.8,0.8,1c0.3,0.3,0.7,0.5,1,0.7s0.8,0.2,1.2,0.2
				c0.3,0,0.6-0.1,1-0.2l1-0.4l0.8-0.4c0.2-0.1,0.4-0.2,0.4-0.2S177.4,225.8,177.5,225.9c0.1,0.1,0.1,0.1,0.2,0.2L177.5,225.9z
				 M188.3,223.6c0,0.2,0,0.4-0.1,0.6l-0.2,0.5c0,0.1-0.2,0.3-0.6,0.6c-0.4,0.4-0.8,0.8-1.2,1.1c-0.5,0.4-1,0.7-1.7,1
				c-0.6,0.3-1.2,0.4-1.7,0.4c-0.3,0-0.7-0.1-1-0.2c-0.3-0.1-0.7-0.3-1-0.6s-0.5-0.6-0.7-1s-0.3-1-0.3-1.5c0-1,0.2-1.8,0.5-2.6
				s0.6-1.4,1-2c0.1-0.2,0.3-0.4,0.5-0.7c0.2-0.2,0.5-0.5,0.7-0.6l0.6-0.5c0.2-0.1,0.3-0.2,0.4-0.2c0.2,0,0.3,0.1,0.5,0.2
				c0.2,0.1,0.2,0.2,0.2,0.3c0,0.2-0.1,0.3-0.2,0.4c-0.1,0.1-0.3,0.3-0.4,0.4c-0.2,0.1-0.4,0.3-0.6,0.5c-0.2,0.2-0.4,0.5-0.7,0.8
				c-0.5,0.7-0.8,1.3-1,2s-0.3,1.3-0.3,1.8s0.2,1,0.6,1.3c0.4,0.3,0.8,0.5,1.2,0.5c0.8,0,1.4-0.2,2-0.5s1-0.7,1.5-1l1-1
				c0.3-0.3,0.4-0.5,0.6-0.5C188.1,223.1,188.2,223.3,188.3,223.6L188.3,223.6z M192.5,215.3c0,0-0.1,0.1-0.2,0.2s-0.3,0.3-0.5,0.4
				l-0.6,0.3c-0.2,0.1-0.4,0.2-0.5,0.2h-0.3c-0.1,0-0.2-0.1-0.4-0.1c-0.1-0.1-0.2-0.1-0.3-0.2c-0.1-0.1-0.2-0.3-0.2-0.4
				c0-0.3,0.1-0.5,0.3-0.8s0.5-0.4,0.8-0.4c0.1,0,0.2,0,0.4,0.1c0.2,0,0.4,0.1,0.7,0.2s0.4,0.2,0.6,0.3c0.2,0.1,0.3,0.2,0.3,0.3
				L192.5,215.3z M193.5,226.5c0,0.1-0.1,0.3-0.3,0.4c-0.2,0.1-0.3,0.2-0.4,0.2c-0.2,0-0.4-0.1-0.5-0.4s-0.3-0.6-0.4-1l-0.3-1
				l-0.2-0.7l-0.2-0.7l-0.3-0.8l-0.2-0.7c-0.1-0.2-0.1-0.3-0.1-0.3c0-0.3,0.1-0.6,0.2-0.8c0.1-0.2,0.3-0.4,0.4-0.4
				c0.2,0,0.4,0.1,0.6,0.4s0.4,0.6,0.6,1c0.2,0.4,0.4,1,0.5,1.4l0.4,1.4l0.3,1.2c0.1,0.3,0.1,0.5,0.1,0.6L193.5,226.5z M205.2,207.5
				c0,0,0,0.1,0,0.2v0.3c0,0.1-0.1,0.2-0.2,0.2c0,0-0.1,0-0.2,0h-0.2l-1.3-0.6c-0.5-0.3-1-0.4-1.7-0.4s-1.3,0.3-1.7,0.8
				s-0.8,1.2-1,2c-0.2,0.7-0.4,1.4-0.4,2c-0.1,0.5-0.1,1-0.1,1.5c0,0.2,0,0.6,0.1,1l0.3,1.4l0.4,1.4c0.2,0.4,0.3,0.6,0.5,0.8h0.6
				c0.3,0,0.5,0,0.8,0c0.3,0,0.7,0,1,0.1s0.6,0.1,1,0.1h0.4c0.2,0,0.3,0,0.5,0s0.3,0.1,0.4,0.1c0.1,0,0.2,0.1,0.2,0.2
				c0,0.1-0.1,0.2-0.2,0.3s-0.3,0.1-0.5,0.2c-0.2,0-0.4,0.1-0.5,0.1s-0.3,0-0.4,0h-0.4h-0.5c-0.2,0-0.4,0-0.5,0c-0.2,0-0.3,0-0.4,0
				c-0.3,0-0.5,0-0.6,0.1s-0.1,0.2-0.1,0.4c0,0.3,0.1,0.7,0.4,1.2l1,1.6l1,1.8c0.3,0.6,0.4,1.2,0.4,1.7c0,0.1,0,0.3-0.1,0.6
				c0,0.3-0.1,0.5-0.2,0.8c-0.1,0.3-0.2,0.5-0.4,0.8s-0.3,0.3-0.5,0.3s-0.3,0-0.5-0.1c-0.1-0.1-0.2-0.3-0.2-0.5c0-0.3,0.1-0.6,0.2-1
				c0.2-0.3,0.3-0.6,0.3-1c0-0.2-0.1-0.4-0.2-0.8c-0.1-0.4-0.3-0.8-0.5-1.3l-0.7-1.5c-0.2-0.5-0.5-0.9-0.7-1.4
				c-0.2-0.4-0.4-0.8-0.6-1l-0.3-0.4l-1.2,0.4c-0.4,0.1-0.8,0.3-1,0.6c-0.1,0.1-0.3,0.2-0.4,0.2c-0.2,0-0.4-0.1-0.6-0.2
				c-0.2-0.2-0.2-0.3-0.2-0.5s0.1-0.4,0.2-0.5c0.1-0.1,0.3-0.2,0.4-0.3c0.2-0.1,0.5-0.2,0.8-0.3l1-0.3c0.1,0,0.3-0.1,0.4-0.1
				c0.1,0,0.2-0.1,0.2-0.2l-0.3-0.8c-0.1-0.4-0.2-0.8-0.3-1.2c-0.1-0.5-0.2-1-0.3-1.5c-0.1-0.6-0.1-1.2-0.1-2c0-0.7,0.1-1.5,0.2-2.3
				c0.2-0.8,0.5-1.5,0.8-2.2c0.4-0.7,1-1.2,1.4-1.7c0.6-0.4,1.2-0.7,2-0.7c0.4,0,0.8,0,1.2,0.1s0.8,0.2,1.2,0.3s0.7,0.3,1,0.5
				s0.4,0.4,0.4,0.6L205.2,207.5z M213.4,215c-0.3,1.4-0.5,2.7-0.7,4c-0.1,0.6-0.2,1.1-0.3,1.7l-0.3,1.7l-0.2,1.6l-0.2,1.4l-0.2,2.2
				l-0.1,2.3v2.6c0,0.2,0,0.4-0.1,0.6s-0.1,0.4-0.1,0.7c0,0.2-0.1,0.4-0.2,0.5c-0.1,0.1-0.2,0.2-0.4,0.2s-0.3-0.1-0.4-0.4
				c-0.1-0.2-0.2-0.5-0.2-1c-0.1-0.3-0.1-0.6-0.1-1v-0.7v-0.6c0-0.3,0-0.7,0-1l0.2-1.7l0.3-3c0,0-0.1-0.1-0.4-0.3
				c-0.3-0.2-0.7-0.5-1-0.7l-1.2-1c-0.4-0.3-0.7-0.6-1-1c0,0-0.1-0.1-0.2-0.3s-0.1-0.3-0.1-0.5c0-0.1,0.1-0.2,0.2-0.3
				c0.1-0.1,0.2-0.2,0.3-0.2s0.2,0,0.2,0.1l1.6,1.3c0.6,0.5,1.2,0.9,1.8,1.3c0-0.4,0.1-1,0.2-1.7l0.4-2.4l0.4-2.5l0.3-2
				c0-0.1,0-0.2,0.1-0.4s0.1-0.4,0.2-0.5s0.2-0.3,0.3-0.4c0.1-0.1,0.2-0.2,0.3-0.2s0.2,0.1,0.4,0.2c0.2,0.1,0.3,0.3,0.3,0.7
				L213.4,215z M244.6,230.4c0,0.1-0.1,0.3-0.2,0.5s-0.2,0.2-0.4,0.2c-0.1,0-0.2,0-0.3-0.1c-0.7-0.3-1.6-0.6-2.5-0.8
				c-1-0.2-2-0.4-3-0.5l-3-0.5c-1-0.2-1.8-0.4-2.5-0.7l0.4,0.6c0.1,0.2,0.2,0.3,0.3,0.4l0.2,0.3c0.1,0.1,0.1,0.3,0.1,0.4
				c0,0.2-0.1,0.3-0.2,0.4s-0.2,0.1-0.4,0.1s-0.5-0.2-0.8-0.5s-0.5-0.7-0.8-1l-0.8-1.5L230,226c-0.2-0.5-0.4-1-0.6-1.5l-0.3-1
				l-1.3-5.3c0-0.1,0-0.1,0-0.2c0-0.1,0.1-0.2,0.2-0.3c-0.1-0.2-0.1-0.3-0.1-0.5c0-0.6,0.3-1,1-1.5c0.6-0.5,1.4-1,2.3-1.2
				c0.9-0.4,1.9-0.6,2.9-0.8c1-0.2,1.8-0.3,2.5-0.3c0.2,0,0.5,0,1,0.1c0.4,0,0.8,0.1,1.2,0.2c0.4,0.1,0.7,0.3,1,0.6
				c0.3,0.2,0.4,0.6,0.4,1s-0.2,1-0.7,1.4c-0.4,0.5-1,1-1.6,1.7l-2,2l-2,2c-0.6,0.6-1.2,1.2-1.6,1.8c-0.4,0.6-0.6,1-0.6,1.6
				c0,0.4,0.2,0.7,0.5,1s0.8,0.5,1.3,0.8s1,0.4,1.6,0.6c0.6,0.2,1.2,0.3,1.7,0.4l1.4,0.2l0.7,0.1c0.3,0,0.7,0,1.4,0.1s1.3,0.2,2,0.3
				s1.3,0.3,1.8,0.6s0.8,0.6,0.8,1L244.6,230.4z M238.8,215.1c0-0.1-0.1-0.3-0.2-0.4c-0.1-0.1-0.3-0.2-0.6-0.3
				c-0.2-0.1-0.5-0.1-0.7-0.1c-0.3,0-0.5-0.1-0.8-0.1c-0.4,0-1,0.1-1.4,0.2l-1.7,0.5l-1.6,0.5c-0.5,0.2-0.8,0.3-1,0.4l-1.2,0.8
				c-0.4,0.3-0.6,0.6-0.6,0.8c0,0,0,0.1,0.1,0.1s0.1,0.1,0.1,0.2c0,0.1,0.1,0.4,0.2,1l0.4,1.6l0.5,1.8l0.5,1.4
				c0.8-1.2,1.7-2.2,2.6-3l2.6-2.3l2-1.8c0.5-0.5,0.8-1,0.8-1.5L238.8,215.1z M253.3,224.1c0,0.2-0.1,0.4-0.4,0.6s-0.5,0.4-0.8,0.6
				l-1,0.4c-0.3,0.1-0.6,0.2-0.7,0.2c-0.2,0-0.4,0-0.6-0.1c-0.2-0.1-0.4-0.2-0.6-0.4l-0.5-0.4l-0.3-0.2c-0.1,0.1-0.2,0.2-0.3,0.4
				l-0.4,0.6c-0.2,0.2-0.3,0.4-0.5,0.5c-0.2,0.2-0.4,0.2-0.6,0.2c-0.5,0-1-0.3-1.4-0.8s-0.7-1.2-1-2c-0.2-0.7-0.4-1.4-0.6-2.1
				l-0.2-1.4c0-0.1,0.1-0.2,0.2-0.3c0.2-0.1,0.3-0.2,0.4-0.2c0.3,0,0.5,0.1,0.6,0.3s0.2,0.4,0.2,0.6c0,0.2,0,0.5,0.2,1l0.4,1.4
				l0.5,1.3c0.2,0.4,0.3,0.5,0.5,0.5c0.3,0,0.5-0.2,0.7-0.5s0.4-0.7,0.5-1c0.1-0.4,0.2-0.8,0.3-1.2s0.1-0.7,0.1-0.8l0,0v-0.4
				c0-0.1,0-0.2,0-0.3v-0.2c0-0.1,0-0.2-0.1-0.3s-0.1-0.2-0.1-0.3s0.1-0.2,0.2-0.3c0.1-0.1,0.4-0.2,0.8-0.2c0.2,0,0.3,0.1,0.4,0.2
				c0.1,0.1,0.2,0.2,0.2,0.3s0.1,0.2,0.1,0.4v0.2v0.4v1v1v0.5c0,0.1,0,0.2,0.1,0.4l0.2,0.6c0.1,0.2,0.2,0.3,0.3,0.5
				c0.1,0.1,0.3,0.2,0.4,0.2c0.2,0,0.5,0,0.7-0.1s0.4-0.2,0.6-0.2c0.2-0.1,0.4-0.2,0.5-0.2c0.2-0.1,0.3-0.1,0.5-0.1s0.3,0,0.5,0.1
				s0.2,0.2,0.2,0.3L253.3,224.1z M258.5,228.1c0,0.2-0.1,0.3-0.2,0.4s-0.3,0.1-0.4,0.1c-0.2,0-0.4-0.2-0.6-0.5s-0.4-0.8-0.5-1.3
				l-0.5-1.7l-0.4-1.7l-0.3-1.3l-0.1-0.6c0-0.1,0-0.3-0.1-0.6l-0.3-1.6l-0.4-2.8l-0.4-4.3c0-0.2,0-0.4,0.1-0.7s0.2-0.4,0.4-0.4
				c0.3,0,0.5,0.2,0.6,0.6c0.2,0.4,0.3,0.8,0.4,1.4c0.1,0.6,0.2,1.2,0.2,1.8v1.6c0.1,0.6,0.2,1.2,0.2,1.7l0.2,1.6l0.3,1.6
				c0.1,0.6,0.3,1.3,0.4,1.9l1.2,5L258.5,228.1z M269,226c0,0,0,0.1,0,0.2c0,0.1-0.1,0.3-0.3,0.5c-0.1,0.1-0.2,0.2-0.4,0.4
				s-0.5,0.4-0.8,0.5s-0.8,0.3-1.3,0.5c-0.5,0.1-1,0.2-1.7,0.2c-0.5,0-1-0.1-1.4-0.3s-0.8-0.5-1.2-1c-0.3-0.4-0.6-1-0.8-1.5
				c-0.2-0.6-0.3-1.3-0.3-2.2c0-0.8,0.1-1.5,0.3-2.2s0.4-1.3,0.8-1.8c0.3-0.5,0.7-1,1-1.2s0.8-0.5,1-0.5c0.3,0,0.6,0.1,1,0.2
				c0.3,0.1,0.6,0.3,1,0.5c0.3,0.2,0.5,0.4,0.7,0.7c0.2,0.2,0.2,0.5,0.2,0.8s-0.1,0.6-0.4,1c-0.3,0.3-0.6,0.6-1,1
				c-0.4,0.3-0.8,0.5-1,0.7c-0.4,0.2-0.7,0.2-1,0.2c-0.1,0-0.2-0.1-0.3-0.2c-0.1-0.1-0.1-0.3-0.1-0.4c0-0.3,0.1-0.5,0.4-0.7
				s0.5-0.3,0.8-0.4c0.3-0.1,0.6-0.3,0.8-0.5c0.3-0.2,0.4-0.4,0.4-0.7c0,0-0.1-0.1-0.2-0.3s-0.4-0.2-0.8-0.2c-0.2,0-0.4,0.1-0.7,0.4
				c-0.3,0.2-0.5,0.5-0.7,1c-0.2,0.4-0.4,0.8-0.6,1.4c-0.2,0.5-0.2,1-0.2,1.7c0,0.5,0.1,1,0.3,1.4c0.2,0.4,0.5,0.8,0.8,1
				c0.3,0.3,0.7,0.5,1,0.7s0.8,0.2,1.2,0.2c0.3,0,0.6-0.1,1-0.2l1-0.4l0.8-0.4c0.2-0.1,0.4-0.2,0.4-0.2s0.1,0,0.2,0.1
				s0.1,0.1,0.1,0.2L269,226z M278,225.2c0,0.3-0.1,0.6-0.4,1c-0.2,0.2-0.5,0.4-1,0.6c-0.3,0.2-0.7,0.3-1,0.4l-1.2,0.2
				c-0.3,0-0.7,0.1-1,0.1h-0.5c-0.4,0-0.8-0.1-1-0.2s-0.4-0.4-0.4-0.7c0-0.1,0-0.2,0-0.3s0.1-0.2,0.2-0.2s0.2,0,0.3,0.1h0.3h0.8
				l1.4-0.2l1.3-0.3c0.4-0.2,0.6-0.4,0.6-0.6c0,0-0.2-0.2-0.6-0.4l-1.8-1c-0.6-0.4-1-0.8-1.4-1.2c-0.3-0.4-0.4-1-0.4-1.7
				c0-0.4,0.1-0.8,0.3-1c0.2-0.3,0.5-0.5,0.8-0.7c0.4-0.2,0.7-0.3,1.1-0.3c0.4-0.1,1-0.1,1.4-0.1c0.1,0,0.3,0.1,0.4,0.1
				c0.2,0,0.4,0.1,0.7,0.2c0.2,0.1,0.4,0.2,0.6,0.3s0.3,0.3,0.3,0.4c0,0,0,0.1-0.1,0.2l-0.3,0.4c-0.1,0-0.2-0.1-0.3-0.1l-0.5-0.1
				c-0.2-0.1-0.4-0.1-0.6-0.1s-0.4-0.1-0.5-0.1c-0.5,0-1,0.1-1.3,0.3s-0.5,0.5-0.5,1c0,0.3,0.1,0.5,0.3,0.7c0.2,0.2,0.5,0.4,0.8,0.6
				l1,0.6c0.4,0.2,0.7,0.4,1,0.6s0.6,0.5,0.8,0.7c0.2,0.2,0.3,0.5,0.3,0.8H278z"/>
		</g>
		<path class="st10" d="M274.4,443.2l-18.8-14c-32,6.8-53.8-15-38-21.7c44.6-18.7,62.6,2.8,61.3,7.8c-1,4-6.8,11.7-17.7,13
			l13.2,14.8V443.2z"/>
		<g>
			<g>
				<path class="st11" d="M256.3,430.2c5.7,4.8,23,19,18,13.3l-13.7-16.6"/>
				<path class="st11" d="M213,411.6c-2.7,6.5,1,11.8,6.7,15c9,5,21.6,5,31.4,3.8c8.7-1.2,19.6-4.3,25.8-11c4.2-4.5,1-10.3-6.4-14.5
					c-14.3-8-63.3-6.5-60.3,13"/>
				<path class="st11" d="M231.5,409.6c0.5,2,5.6,2.4,6.2-0.3s-2-3.6-4-3.6c-3,0-4.6,3-3,4.5c1.2,1.2,4,0.8,6.2,0.6"/>
			</g>
			<g>
				<path class="st9" d="M232.4,410.8l-6,11.6 M236,411c0.7,3.8,1.7,7.6,3,11.3 M239.8,422.4c-4.3,0.5-8.7,0.3-13-0.6"/>
			</g>
			<path class="st11" d="M242,409.6c0.5,2,5.6,2.4,6.2-0.3s-2-3.6-4-3.6c-3,0-4.6,3-3,4.5c1.2,1.2,4,0.8,6.2,0.6"/>
			<g>
				<path class="st9" d="M243,410.8l-6,11.6 M246.4,411c0.7,3.8,1.7,7.6,3,11.3 M250.4,422.4c-4.3,0.5-8.7,0.3-13-0.6"/>
			</g>
			<g>
				<path class="st12" d="M255,413.5l2.8,5.7c0.4,0.7,1-0.4,1.2-0.8c2-2.7,4-5,6.5-7.2 M220,420.8l5.8-8.5 M228.8,411.5
					c0.7,2.3,0.4,4.7,1,7"/>
				<path class="st12" d="M224.5,408.3c0.1,1.8,2,6,4.6,4.4c1.6-1,1.3-3.4,0-4.4c-1.2-0.8-3.6-1.3-5-0.7c-2,1-1,3-0.3,4.4
					 M218.3,421.5c1.3,0.1,5.6,0.2,6.3,1.5"/>
			</g>
			<g>
				<path class="st5" d="M636.6,311.2L614,321.5"/>
				<path class="st5" d="M656,307l-54,27 M641.5,322.5l-6,2.2"/>
			</g>
		</g>
		<g>
			<path class="st13" d="M960,393l1,27 M981,389l14,22 M1008,375c10.8,5,21.7,10,32,16 M921,320l19,18"/>
		</g>
		
			<radialGradient id="SVGID_8_" cx="554.3935" cy="430.0959" r="1.0003" gradientTransform="matrix(-13.053 -37.4831 -82.8809 28.8622 43567.1523 8550.3047)" gradientUnits="userSpaceOnUse">
			<stop  offset="0" style="stop-color:#C4C4C4"/>
			<stop  offset="1" style="stop-color:#C4C4C4;stop-opacity:0"/>
		</radialGradient>
		<path class="st14" d="M697,220.9c-45.8,15.9-88.8,12.1-96-8.6s24.1-50.4,69.9-66.4s88.8-12.1,96,8.6S742.7,204.9,697,220.9z"/>
		<path class="st8" d="M647,177.3c3.8-9.2,12-24.8,12.4-27c0,0-12-16.2,4.3-16.2s6,15,6,15l8,1l8,1.6l-0.5,2.2l-14.8,0.5l6.2,20
			L687,152c0,0-4-3.3-4.3-6c-0.6-4.7,2-8.8,6.5-10.2c4.2-1.4,8.4,0,10.8,3.8c4,6.5-2.7,12.4-2.7,12.4l8.6,28
			c0.6,1.6-16.7,7.6-31.3,0c2.3-2.7,0.5,1-11.3,1c-6.8,0-12-1.6-16.2-3.8L647,177.3z"/>
		<g>
			<path class="st9" d="M660.6,134.4c-8.7,4.6-4.4,11-3.8,11.7c2.3,2.8,6.5,3.2,10,3.3c3.2,0.1,5-2,6-5c1-3.3,0.5-7.2-2.3-9.4
				c-2.7-2.2-5.4-2.4-8.6-1.6c-3.4,0.9-6.2,3.4-7.5,6.7c-1.2,3.6,0.7,6.7,3.8,8.5c3.2,1.8,10,1.7,12.8-0.7 M659,148.9
				c-3.4,9.8-7.6,19.3-12.5,28.4"/>
			<path class="st9" d="M669.2,148.7l8,25.3 M646,177c8.9,4.4,19.1,5.3,28.6,2.4 M688.6,137c-8.7,4.6-4.4,11-3.8,11.7
				c2.3,2.8,6.5,3.2,10,3.3c3.2,0.1,5-2,6-5c1-3.3,0.5-7.2-2.3-9.4c-2.7-2.2-5.4-2.5-8.6-1.6c-3.4,0.9-6.2,3.4-7.5,6.7
				c-1.2,3.6,0.7,6.7,3.8,8.5c3.2,1.8,10,1.7,12.8-0.7 M687,151.7c-3.4,9.8-7.6,19.3-12.5,28.4 M696.7,152.1c3.3,10,6,18.6,10,29.5"
				/>
			<path class="st9" d="M674,179.7c6.3,4.6,24.7,6,32.6,0.4 M687.6,149.6c1-1.7,2-3,4-3.4c1-0.2,2-0.1,3,0.1
				c0.2,0.1,1.3,0.3,1.4,0.6c0,0.2-0.7-0.2-0.8-0.2c-0.8-0.3-1.7-0.5-2.5-0.4c-2,0.1-3.5,1-4.6,2.7 M670.1,149.4
				c4.6,0.5,10.4,1,15.8,2.6 M671.5,154.6c4.6-0.6,9.3-0.8,14-0.5"/>
			<path class="st9" d="M697.2,152.5c0.4,0,0.6,0.2,1,0.4c0.8,0.7,1.5,1.5,2.1,2.3c2,2.7,3,6,3,9.3c-0.1,1.5-0.4,3-0.9,4.4
				c-0.1,0.3-0.1,0.2-0.4,0.2 M686.4,152.1l-3,3c-1.2,1.3-2.3,2.7-3.3,4.2c-1.1,1.4-1.9,3-2.5,4.7c-0.5,1.5-0.6,3.4,0.2,4.8
				c0.1,0.2,0.7,1,0.6,1 M659,149.2c-0.4,1-0.1,3.4,0,4.6c0.4,3.4,1.8,6.6,4,9.2c2.3,2.6,5.5,4.4,8.9,4.9c0.5,0.1,1,0.1,1.5-0.2
				c0.5-0.4,0.2-1.2-0.1-1.6c-0.7-1.2-2.2-2.2-3.5-2.5c-1.2-0.3-2.3,0.5-1.8,1.7c0.3,1,1.6,2,2.7,2c0.5,0.1,0.7-0.1,0.8-0.5
				 M662.2,142.8l6.5,3.2"/>
		</g>
		
			<radialGradient id="SVGID_9_" cx="553.3834" cy="429.5483" r="1.0001" gradientTransform="matrix(-14.6258 -41.9996 -92.8676 32.3399 48980.3086 9647.7393)" gradientUnits="userSpaceOnUse">
			<stop  offset="0" style="stop-color:#C4C4C4"/>
			<stop  offset="1" style="stop-color:#C4C4C4;stop-opacity:0"/>
		</radialGradient>
		<path class="st15" d="M1010.1,339.4c-51.3,17.9-99.4,13.5-107.5-9.7c-8.1-23.2,26.9-56.5,78.2-74.4c51.3-17.9,99.4-13.5,107.5,9.7
			C1096.4,288.3,1061.4,321.6,1010.1,339.4z"/>
		<g>
			<path class="st8" d="M950.2,280c0,0-12,16.3-10,20.6s26,5.4,31.6,3.3l-6.3-18.6l14.8-18l2.3,2.8v19.5c-0.6,2.5,1.3,2.3,3.4,2.3
				s4.3-6.6,11.7-6.6l19.5,9c-1-4.3-2.4-8.5-4.2-12.6c-2.5-6-9.8-12.6-13.2-15.3l4.5-16.8l3,0.6v-3l-2.3-1.7l-1,1
				c-2.6-0.1-4.3,9.7-5.2,8c-1-2-12.3-4.6-15.5-1c-3.8,4-1.5,8.2,0.8,11.2l-0.8,3l-11-16l-5.2,0.8l1,2l3.6,1.7l6.7,8.4
				c-2.3,2-6,6.5-6.3,6c-2.3-7-10.8-8.3-16-5.2c-4.2,2.5-2,9-0.7,11.3l-2.6,1.6L940.2,263L950.2,280L950.2,280z M1027.2,277.5
				c-7-1-16.2-10.7-20-15.5c3.4-4.6,16.6-8.6,16.6-8.6c-4-4-8-17.8,11.5-11.5c10,3.3,0.6,15-4,13.7c1,4.4,3.4,14.3,3.4,19
				C1034.7,280.3,1035.7,278.6,1027.2,277.5L1027.2,277.5z"/>
		</g>
		<g>
			<path class="st9" d="M956,265.5c-3,0.5-2.4,4-2,6.3c0.3,2.8,1,4.8,3.2,6.4c2.2,1.5,5.6,2.6,8.2,1.8c4.4-1.4,9.3-8.7,5.4-12.7
				c-4.3-4.4-13.8-5-17.2,1c-4,7,3,10.8,8.8,12.6"/>
			<path class="st9" d="M939.8,303c-0.7-8.7,7.3-23.3,15.5-26.6"/>
			<path class="st9" d="M937.4,299.4c9.5,3.6,19.6,5.4,29.7,5.3c2.3-0.1,5.2-0.4,5.6-3"/>
			<path class="st9" d="M965,280.2c0,9,3.8,14.8,7.4,22.7"/>
			<path class="st9" d="M966,285c0.7-2.3,1.6-4.6,2.5-6.9 M962.5,289.1c1-1,1.5-2.2,2.3-3.2l7.2-9.4c2.2-2.6,4.6-5,6.7-7.7
				c0.7-1,2-2,2-3.4c0.1-2-2-0.4-3,0.3c-2.2,1.4-4,3.3-5.5,5.4 M952.7,282.3c-3-4-6.4-7.4-9.4-11.3c-1.4-1.7-2.5-3.6-3.3-5.7
				c-0.4-1.5-0.7-4.6,1.5-2.4c3.3,3.3,5.2,7.6,7.4,11.6c1,1.7,2.4,3.5,3,5.4 M960.9,272.3c1.8,2.5,2.5,3.8,5.7,3.4
				c1-0.1,2.8,0,1.5-0.7c-1.2-0.7-2.6-1-4-1.6c-1.7-0.7-3.4-1.4-5-2.2 M983.7,253c-2.8,0.5-2.4,4-2,6.3c0.3,2.8,1,4.8,3.2,6.4
				c2.2,1.5,5.6,2.6,8.2,1.8c1.7-0.5,3.5-2,4.8-3.8 M998.4,254.7c-4.3-4.4-13.8-5-17.2,1c-4,7,3,10.8,8.8,12.6"/>
			<path class="st9" d="M982.5,291.3c0-6.3-3.2-18.4,1.6-25.8"/>
			<path class="st9" d="M982,290.8c7,3.7,5.7-5.6,15.8-5.8c7.4,3.7,18.6,11.2,19,8.4"/>
			<path class="st9" d="M998.8,264.4c11,9,18,23.2,18,29.5"/>
			<path class="st9" d="M999,270.2c-1-7.3-1.7-16,2.3-22.4c0.7-1,1.8-3.4,2.6-1.5c0.5,1.2-0.1,2.8-0.4,4c-0.7,3.3-2,6.5-2.7,9.8
				l-2.5,11.6 M983.3,271l-3.2-4 M982.5,268.6c-0.6-2-2-3.7-3-5.4c-2.2-4-4.2-8.4-7.4-11.6c-2.2-2.2-2,1-1.5,2.4
				c0.8,2.1,1.9,4,3.3,5.7l4.5,5.4"/>
			<path class="st9" d="M985.5,260.8l6-0.3c0.3,0,0.7-0.1,1,0c-0.2,0.5-0.4,0.9-0.6,1.3c-0.6,1-1.4,1.7-2.6,2
				c-1.5,0.3-2.5,0.2-3.6-1 M970,252.3c-0.6,1.7-1.2,3,1,3.7c0.7,0.3,1-0.3,1.2-1c0.1-1,0-2-1-2.6c-0.7-0.4-2.6-1-3.3-0.4
				c-0.6,0.5-0.6,2.2-0.1,2.7c1.6,1.7,4.6,1,4.4-1.6c-0.1-1.8-4-2-5.3-1.5 M1003.3,246.6c0.1,1.6,0.3,2.4,1.8,3
				c0.3,0.1,1.5,0.8,2,0.5c0.6-0.6,0.5-1.8,0.5-2.5c0-2-3.8-3.2-4.7-1.3c-1,2.2,1.4,3.7,3.3,3.4c1-0.1,1.2-1.2,1.2-2
				c0-1-0.3-1-1.3-1 M1028.1,239.7c-3.5-0.1-6.2,2-7.8,5c-1,2.2-0.4,4,1,5.7c2,2.6,4.8,4.5,8,5c3,0.4,5.4,0.2,7.4-2
				c1.7-2,3-5,2.5-7.5c-0.7-3-4-4.7-6.7-5.4c-3.5-1-7-0.3-10.4,1c-2.5,1-5.3,3-5.4,5.8c-0.1,3,2.5,4.7,4.6,6.4"/>
			<path class="st9" d="M1023.6,253.3c-3,0.1-18,7-16.4,9c5.6,7,11.5,12,19.6,15.3c4,1.7,9,3,7.8-3.5l-4-19.7"/>
			<path class="st9" d="M1018.7,255.6c-2-1-3.2-2.7-4.6-4.6c-1.2-1.6-2.6-3.3-3-5.2c-0.3-1.3-0.4-2.6-0.3-3.9c0-3.6,2-6.7,4.3-9.5
				c0.2-0.3,1-1.6,1-0.7c0,0.5-0.3,0.6-0.7,0.8 M1029.4,259.5c6.7,2.5,13.5,4.9,20.4,7c1.9,0.6,4,1,6,1c0.4,0,1-0.2,0.7-0.7
				c-0.6-1-2-1.4-3-1.8c-1-0.5-2.3-1-3.4-1.3c-0.4-0.1-1.7-0.5-2.2-0.1c-1,0.7,1.4,2,2,2.2c0.4,0.1,1.5,0.6,1.5-0.1
				c0-0.3-0.7-1.4-1-0.8c-0.6,1,1.5,1,1.7,1.3 M1013.7,234.8c0.4-0.6,1-1.7,1.7-2c0.6-0.2,2.6-0.6,3,0c0.5,0.7-1.3,2-1.7,2.2
				c-0.6,0.3-1.4,0.8-2.2,0.7s-0.2-1.4,0-1.8c0.6-0.8,1.3-1.4,2.2-1.7c0.6-0.2,0.5,0.1,0.2,0.5c-0.2,0.4-0.5,0.8-0.8,1.2
				c-0.2,0.4-1,0.3-1.2,0.4 M1028.4,247.5c5.3,4.2,9.5,3.4,10.5,2.5"/>
		</g>
		
			<radialGradient id="SVGID_10_" cx="552.8699" cy="429.2702" r="1.0001" gradientTransform="matrix(-15.5782 -44.7345 -98.9149 34.4458 51828.457 10186.0195)" gradientUnits="userSpaceOnUse">
			<stop  offset="0" style="stop-color:#C4C4C4"/>
			<stop  offset="1" style="stop-color:#C4C4C4;stop-opacity:0"/>
		</radialGradient>
		<path class="st16" d="M770.1,285c-54.6,19-105.9,14.4-114.5-10.3s28.7-60.2,83.3-79.2c54.6-19,105.9-14.4,114.5,10.3
			S824.7,265.9,770.1,285z"/>
		<g>
			<path class="st8" d="M717.4,240.4c2.5-2.7,8.2-10.4,13.4-14.7l11.8-7c0,0-8.2-5,0.2-12.2c4-3.3,10.4-4,13,0.3
				c5.5,9-3.8,13-3.8,13c-6,8.7,1.7,24.8,1,26s-24.8,2.7-35.5-5.6L717.4,240.4z"/>
			<path class="st8" d="M734,217.5c0.3,0.7,3,3.5,4.3,4.8l1.3,1l2.2-1.7c-1-0.6-3.3-2-4.3-3.5c-1.3-1.7-1.3-4-1.3-5.6
				c0.4-2.6,0.9-5.2,1.7-7.8c-0.6-0.1-2.2,0.5-4,4.3c-2.2,4.8-0.4,7.8,0,8.7L734,217.5z"/>
		</g>
		<g>
			<path class="st9" d="M740,220.5c-2.6-1.3-4.2-4.4-4-6.4c0.1-2.2,1-4.3,1.8-6.4c0.2-0.7,1-2.5,0.5-3.2c-0.4-0.5-1.5,0.7-1.7,1
				c-2,2-3,4.7-3.4,7.3c-0.4,3.7,1.6,6.8,4.6,8.7"/>
			<path class="st9" d="M742,219c-0.1,0.3-0.1,0.6-0.2,0.8c-19,5-21.7,22.2-22.2,22.8"/>
			<path class="st9" d="M718.4,242c11.5,5.3,24.3,7.1,36.8,5.2 M751.4,221c-4.8,8.7-2.2,17.3,3.5,26 M742.6,207
				c-1,0.6-2.2,1.4-3,2.3c-1,1-1.3,3-1,4.3c0.6,3.3,4.8,5.4,7.7,6.3c1.4,0.4,3,0.8,4.4,0.6c1.5-0.1,2.8-1,4-1.7
				c1.6-1.2,2.6-2.7,3.2-4.7c0.5-1.7,0.8-3.2-0.2-5c-3-5-11.3-5.6-15.7-2.6c-2.5,1.7-4.8,5-3.7,8c1,3.3,4.8,5.7,8,6.2 M748.5,213.2
				c2.2,2.5,8.3,1.2,6.4-1.6"/>
		</g>
		<g>
			<path class="st8" d="M778.5,217c0,0-10.4-5.2-4.3-13.4c3-4,8.6-3.7,12.6-1c7.8,5.6-0.7,12.6-0.7,12.6s8.5,1.7,13.4,7
				s5.6,18.6,4.5,19.4c-4,2.8-11,2.6-18.5,2.6c-4.3,0.5-10.3,0.1-8.5-1.2l2.5-5.6C782.8,230.1,778.5,217,778.5,217L778.5,217z"/>
			<path class="st8" d="M793.7,217.5l-5.6-1.7c1.2-0.7,3.5-1.3,5.6-2.6c1.6-1,7-6.5,10-9c1.3,0.4-0.8,4.4-2.2,6.5s-5.8,5.5-7.8,7
				V217.5z"/>
		</g>
		<g>
			<path class="st9" d="M777.8,217.5c1.3,6,6,17.8-3.5,28.6 M786,215.4c7.4,0,21.2,7.7,17.8,26.4"/>
			<path class="st9" d="M782.6,216.6c3-1,6.3-1.8,7.6-5s-0.7-7.7-3.5-9.5s-6-2-9.8-0.5c-3,1.2-5,5.2-4.8,7.8c0.5,3.8,2.3,5.4,5.6,7
				c5,1.7,9-1.5,12.4-3 M774.7,244c12,1.6,22,1.2,30.3-2.6"/>
			<path class="st9" d="M787,215.6c1.3-0.2,2.3-0.5,3.5-1.2c2.5-1.5,3.5-2,5.7-4l5.2-4.8c1.3-1.3,3.5-2.8,2.6-0.4
				c-1.6,4.5-6,10.4-11,11.7"/>
		</g>
		<path class="st17" d="M773,208.2c0.3,2,0.7,4.5,3.3,4.5c1,0,4-0.8,3.3-1.3C778,211,775,209.7,773,208.2z"/>
		<g>
			<path class="st8" d="M753,231.8c3-1.6,6.2-2.8,9.5-3.5c1,0.3,1.7,1-1.7,2.2c-4.3,1.3-8.2,5.6-9.5,7.8s-3,3.5-4.3,4
				c-1,0.3-1.3-1-1.3-1.7c1.2-2.2,4.2-7,7.4-8.7L753,231.8z M771,229.6l-1-2.2c2.4,0.4,5,0.4,7.4,0c2.3-0.9,4.5-2.1,6.5-3.5
				c1.2-0.4,3.4-1,3,0.4c-0.4,1.7-5.2,4-7.4,5.2c-1.7,1-6.5,0.4-8.7,0L771,229.6z"/>
			<path class="st8" d="M782.3,258c-0.6,1.4-22.7,6.4-34.7,0.1c5-10.2,9.3-21,14-31c0,0-9-3.4-2-12c3.2-4,9.6-5.8,13-2
				c7,8-1.5,13.5-1.5,13.5c2.6,8.5,11.8,30,11.2,31.5V258z"/>
		</g>
		<g>
			<g>
				<path class="st9" d="M761,227.2c0,0.3,0,0.6-0.1,1c-0.6,1.6-2.5,5.8-2.8,6.5l-9.7,20.7c-0.5,1-0.8,2-1,3.2"/>
				<path class="st9" d="M746.6,257.2c11.1,5.9,24.5,5.8,35.6-0.1"/>
				<path class="st9" d="M771.3,227.7l0.4,2c1.8,5.5,3.8,11,5.8,16.4l3,8.6l1.5,4.8c0.2,0.8,0.6,1.5,0.7,2.3 M759.5,215.3
					c-0.8,0.8-2,1.8-2.6,2.8c-1,1-0.8,3-0.3,4.4c1.2,3,5.7,4.5,8.7,5c1.5,0.2,2.9,0.2,4.4-0.1c1.4-0.4,2.6-1.3,3.6-2.4
					c1.4-1.5,2-3,2.4-5.2c0.2-1.8,0.2-3.3-1-4.8c-3.7-4.4-12-3.6-16,0.1c-2.2,2-4,5.7-2.3,8.6c1.6,3,5.7,4.7,8.8,4.8 M761.2,228.3
					c-3,1.3-7.4,2.7-10,5.2c-0.8,0.7-7.4,7-4.3,8.7c3,0,3.7-4,5.6-6c2.1-2.5,4.8-4.4,7.8-5.6 M772,229.8c5.2,1.6,12-1.5,14-4
					c2.6-2.6,0.3-3.8-3.5-1c-3.1,2.7-7.3,3.7-11.3,2.6"/>
			</g>
			<g>
				<path class="st13" d="M673,285.5c5-6.8,9.5-12.5,16.4-17.3c3.8-2.6,7.5-4.2,11.6-6.2"/>
				<path class="st13" d="M692,262h11.5 M704,262.5l-10.5,9.5"/>
			</g>
		</g>
		<path class="st18" d="M991.2,321v-20l27.7,5v19l-28-4.2L991.2,321z"/>
		<g>
			<path class="st9" d="M990.4,346l1.5-44 M988.2,346.5l1.4-45"/>
			<path class="st9" d="M991,321l29,4.5 M989.4,301.2l30.6,3.2"/>
			<path class="st9" d="M1018.5,303l0.2,24.4"/>
		</g>
		<path class="st19" d="M998.4,310.8l4.3,5.3l6-8.5"/>
		<path class="st8" d="M944.3,355l16.6-13h40.2l19.3,13v15l-19.3,13h-38l-19.6-13L944.3,355L944.3,355z"/>
		<g>
			<path class="st9" d="M943,355.7l19.3-14"/>
			<path class="st9" d="M942,353l23.3,15.8 M999,340.6l23,15.8"/>
			<path class="st9" d="M998.5,368.8c4.3-3.6,16.3-10.5,23-15.4 M998.5,385.4l22.6-15.8"/>
			<path class="st9" d="M942.7,368.8l24,16.4 M960,367h46"/>
			<path class="st9" d="M958,343c15.5-0.8,31.1-1.1,46.6-1 M959.3,383h43.2"/>
			<path class="st9" d="M957.3,342.4h43.2 M944.7,351.7v19 M1019.7,353v19.3 M961.9,365.3v17.5 M1001.1,362.8v21.7"/>
		</g>
		<path class="st17" d="M944.8,349c-0.4,1.7-2.3,6.5-2.8,8.2L944.8,349z"/>
		<g>
			<path class="st9" d="M946.4,372.3l3.5-13.5 M950.4,375l3.6-13.6 M944.5,364l2-7.5 M954.8,376.8l3.2-12.3 M958,380.5l3.6-14
				 M962,383.1l4.2-16 M971,367l-4.3,16 M975.1,367.2l-4,15.5 M975.7,383l4-15.8 M985,366.6l-4.6,16.6 M989,367l-4,16.3
				 M993.7,367.3l-4.3,16 M998.6,366.6l-4,16.5 M998.6,383.2l2.5-9.4 M1005.1,364.3l-2.2,18 M1007.6,379.3l2.2-18 M1012.1,375.7
				l1.8-16.8 M1016.5,372.4c0.8-6.3,1-10,1.8-16.8"/>
		</g>
		<path class="st8" d="M670.2,300.5l15.6-12.3h37.8l18,12.3v14l-18,12.4H688l-18.4-12.4L670.2,300.5L670.2,300.5z"/>
		<g>
			<path class="st9" d="M669,301.2l18-13.3"/>
			<path class="st9" d="M668,298.7l22,14.8 M721.4,287l21.6,14.8"/>
			<path class="st9" d="M721,313.5c4-3.4,15.3-10,21.6-14.5 M721,329l21.2-14.8"/>
			<path class="st9" d="M668.6,313.6L691,329 M685,311.7h43"/>
			<path class="st9" d="M683,289.2c15-1,27.2-1,43.7-1 M684.3,327H725"/>
			<path class="st9" d="M682.4,288.8H723 M670.5,297.5v18 M741,298.7v18 M686.7,310.2v16.4 M723.7,307.6V328"/>
		</g>
		<path class="st17" d="M670.6,295c-0.4,1.6-2.2,6-2.6,7.7L670.6,295z"/>
		<g>
			<path class="st9" d="M672.2,316.8l3.3-12.7 M676,319.4l3.3-12.8 M670.3,309l1.8-7 M680.1,321l3-11.6 M683.1,324.4l3.4-13
				 M686.9,327l4-15 M695.4,311.8l-4,15 M699.4,312l-3.8,14.5 M700,326.8l4-14.8 M708.4,311.5L704,327 M712,311.7l-3.8,15.3
				 M716.4,312l-4,15 M721.2,311.4l-3.8,15.5 M721.2,327l2.4-8.8 M727.3,309.2l-2,16.8 M729.7,323c0.7-5.6,1.4-11.2,2-16.8 M734,320
				l1.7-15.8 M738.2,316.9L740,301"/>
		</g>
		<path class="st18" d="M714.5,269.5V250l27,5l0.2,18.6l-27-4L714.5,269.5z"/>
		<g>
			<path class="st20" d="M713,250.6l-1.3,43.8l2,0.7l1.5-44.4h-2L713,250.6z"/>
			<g>
				<path class="st9" d="M714.3,269.6l28.3,4.4 M712.6,250.4l29.7,3"/>
				<path class="st9" d="M741,252.2V276"/>
			</g>
		</g>
		<path class="st19" d="M721.5,259.7l4,5.2l5.7-8.3"/>
		<path class="st8" d="M603,209.5l15-11.8h36l17.3,11.8V223L654,235h-34l-17.6-12L603,209.5z"/>
		<g>
			<path class="st9" d="M601.7,210.2l17.3-12.8"/>
			<path class="st9" d="M600.8,207.8l21,14.3 M651.8,196.5l20.6,14.3"/>
			<path class="st9" d="M651.5,222c4-3.3,14.6-9.5,20.6-14 M651.5,237c7.5-5.4,12.8-9.8,20.3-14.3"/>
			<path class="st9" d="M601.4,222l21.5,15 M616.9,220.3h41"/>
			<path class="st9" d="M615,198.6c14.3-0.8,26-1,41.7-1 M616.3,235H655"/>
			<path class="st9" d="M614.5,198.2h38.7 M603.2,206.6V224 M670.5,207.8v17.5 M618.7,218.8v15.8 M653.7,216.4V236"/>
		</g>
		<path class="st17" d="M603.3,204.2c-0.4,1.5-2,6-2.5,7.4L603.3,204.2z"/>
		<g>
			<path class="st9" d="M604.8,225.2L608,213 M608.4,227.7l3.2-12.3 M603.1,217.8l1.8-6.8 M612.2,229.4l3-11 M615.2,232.8l3.3-12.6
				 M618.8,235.2l3.8-14.6 M626.8,220.4l-4,14.5 M630.3,220.6l-3.6,14 M630.9,234.9l3.7-14.3 M639.2,220l-4,15 M643,220.2l-3.6,14.8
				 M647.2,220.5l-4,14.5 M651.5,220l-3.7,15 M651.5,235.1l2.2-8.5 M657.3,218l-2,16.2 M659.5,231.4l2-16.2 M663.5,228.2L665,213
				 M667.4,225.2L669,210"/>
		</g>
		<path class="st18" d="M615,196l-14.6-6.5l10.4-23.2l16.4,6.2L615,196z"/>
		<g>
			<g>
				<path class="st20" d="M599.8,189l41,16H636l-36.7-14L599.8,189z"/>
				<g>
					<path class="st9" d="M616.2,195.4l12.4-23 M599.2,191l11.7-24.6"/>
					<path class="st9" d="M609.4,167.2l20.4,7 M612,176l2.2,12.3"/>
					<path class="st9" d="M607.5,187l12.6-9.8"/>
				</g>
			</g>
			<g>
				<path class="st13" d="M614,163c11.8-6.2,25.8-6.7,38.1-1.4 M613.6,163.6l8.5,0.5 M613.1,164c0.4-2.4,1-4.8,2-7 M508,371
					c0.4-17.3,32-51,48-30.5 M505,365.5c0-16,17-37.5,30-37.5 M363.6,255l1,46.5"/>
				<path class="st13" d="M358.6,258c16.5,2.5,31.5,3.5,55.5,6"/>
				<path class="st13" d="M402.6,261v46.8 M357.6,293l44.5,6"/>
				<path class="st13" d="M376,279l6,7 M382,287l10-21 M262,274v50 M262,279c16,3,32,4,48,6.2"/>
				<path class="st13" d="M305,284v47"/>
				<path class="st13" d="M257.6,322.6l48.8,5.3 M275.4,309.5c5.3-5.5,10.2-11.3,14.6-17.5"/>
				<path class="st13" d="M275,292l16,19 M283,326c0.2,15.5,0.6,18,0,31"/>
				<path class="st13" d="M280.6,356l43,6.5 M329.6,340c17,2.5,29.5,5,50.5,8"/>
				<path class="st13" d="M380,296.5l-0.6,51.5"/>
			</g>
		</g>
		<path class="st18" d="M326.8,308.5v-24l33.4,6l0.2,23L326.8,308.5z"/>
		<g>
			<path class="st9" d="M325.8,338.6l1.8-53 M323.2,339.2L325,285"/>
			<path class="st9" d="M326.6,308.6l35,5.4 M324.6,284.8l36.8,3.8"/>
			<path class="st9" d="M359.6,287l0.2,29.3"/>
		</g>
		<path class="st8" d="M403,487.3L325.6,318L253,485c6,6.8,11,13,11.8,9.5c6-25.4,24.6-74.3,63.5-59.5c26.8,13.7,28,58.4,23.4,70
			c-1.8,4.4,39-12,51-17.8L403,487.3z"/>
		<g>
			<path class="st9" d="M325.6,317.5l79,178"/>
			<path class="st9" d="M250.2,492.2L326,317 M344.4,505.2c18.7-2.4,37.8-6,55.2-19.5"/>
			<path class="st9" d="M249.5,483.6c4,5,9.5,9.3,17.7,13.4"/>
			<path class="st9" d="M263,501c-2.4-14.6,17-65.2,44.8-69.5c33.4-2.4,52.5,33,41.8,76"/>
			<path class="st9" d="M264.8,485c4.6-2.7,14-6.4,28-8"/>
			<path class="st9" d="M289.4,478.5c5.3-15,18.6-40.7,37.2-44.2"/>
			<path class="st9" d="M316.4,438l-2.7-3.4l-2.7-3.4 M320,436.2l-3.7-4.4 M309.3,444.4l-8.5-10.6L309.3,444.4z M305.7,431.8l7.2,9
				L305.7,431.8z M296.7,436.2l9.2,11.5 M300.1,455.7l-10.8-13.5L300.1,455.7z M303.4,451.7l-10.4-13L303.4,451.7z M297.4,460
				l-11.8-14.8 M293.4,470.2l-13.2-16.6L293.4,470.2z M295.4,464.4L283,448.8l12.5,15.7L295.4,464.4z M290.9,475.4L277.2,458
				 M274.9,462.2l11.8,14.8 M281.5,478.5l-9.2-11.5 M276.7,479.8l-6.3-8 M268.4,476.4l4,5 M267.7,483.6l-1.8-2.2"/>
		</g>
		<path class="st21" d="M212,491l-2,9.4l-3,2.5c-0.7,1.7-2.7,8.7-1.5,11.2l5.6,1.7l2.5,2v9.4l4.4,2v1.2l8.7-0.6l-0.6-7l7,0.8l7-5.2
			l-2-4.3v-7.8l1.2-4l5-3l-2-10.6l-4.4,1.4v-7l0.6-6.2l-2-1.2l-3.7-1.8l-9.8-2.6l2.2,4.4l-9.2-1l-7.7,10.4l3,6.2L212,491z
			 M222,497.7l2.4-2.4l2,1.2l0.6,7.5l-2,2.5l-3,1.5V497.7L222,497.7z"/>
		<g>
			<path class="st9" d="M221.3,498.4l6.5-8 M222,497.8l-0.2,10.6 M219.3,508.5l9,4.3"/>
			<path class="st9" d="M228.6,513c2.2-2.2,3.7-4.8,5.4-7.3 M234,506.7c0-3.8,0.4-7.6,0.4-11.4 M227,490.7c2.7,1,5.5,1.6,8.4,2.2
				 M226.4,504.1c0-2.5,0.1-5,0.2-7.3 M222.3,509.1l5.2-4.3"/>
			<path class="st9" d="M226.4,505l6.3,1 M224,495c0.9,0.3,1.9,0.4,2.8,0.4 M226.2,495.6l6.3-1.7 M216.7,499.7c0-2.8,1.2-5.5,2-8.2
				 M216.5,486c0.8,1.2,1.3,2.3,1.7,3.7 M225.4,476.4l0.2,5 M215.2,485.7c2.4-3.7,5.6-6.6,8.6-9.7 M227,482l4-1.7"/>
			<path class="st9" d="M231.4,480.5c0-2,0.2-3.7,0.4-5.6 M236.8,483.5c1.2,1.5,1.4,2.6,1.7,4.5"/>
			<path class="st9" d="M237.4,483.7l1.3-6 M232,472.5c2,1.6,4.4,2.8,6.7,4 M212.2,502.5c0.7,3.7-0.8,7.7,0.2,11.2"/>
			<path class="st9" d="M211,503.2l6-2 M211.8,515c1.3-1,2.6-1.6,4-2.2 M216.3,514c1,0.8,1.8,1.3,3,1.7 M219.3,518l-0.2,7
				 M226.7,530.3c-0.3-1.7-0.1-3.4,0-5.2 M225.4,521.1c2.8-0.8,4.5-2,7-3.7 M232,518.8c0,2,0.3,4,0.6,5.8 M237.6,513.4
				c0.2,1.2,0.5,2.4,1,3.7 M236.6,513.8l3.2-10 M239.8,502.1l5.2-2.4 M237.4,490.5l4.5-2.2 M243.5,488.6c0,3.7,0.2,7.5,0.4,11.2
				 M216.5,525l9.3,3.7 M233.8,524c1.8-2.3,4-4,6-6 M211.3,525c2,0.4,4,0.4,6,0.4"/>
			<path class="st9" d="M213.7,526c0-2,0.2-4.2,0.4-6.3 M211.1,515.5c0.7,1,1.6,1.5,2.6,2.2 M204.1,513.5c2.3,1,4.4,1.2,7,1.5
				 M205.6,513.7c0-3.3,0.5-6.4,1-9.7 M205.4,503.6c2.4,0,4.7-0.2,7.1-0.6 M205.5,503c1.7-0.8,3.3-1.7,5-2.6 M210,500.6
				c0.1-2.8,0.4-5.5,0.9-8.2 M209.9,485.2c0.1,2,1,3.8,1.7,5.6"/>
			<path class="st9" d="M207.5,485.7l8.4,0.4 M208.3,485.1c0.5-1.2,1.3-2,2.2-3.2l5.6-6.5 M214.8,475.1h9.5 M226.3,478.4
				c1.5,0.6,3,0.7,4.7,1 M222,474.8l0.6-2.4 M222.8,471.1c3.3,0.4,6.3,1.8,9.5,2.4 M211.8,526.3l6.5,3.2 M217.6,530.5
				c3.3,0,6.5-0.6,9.7-0.6 M226.7,520.9l-0.2,5.4 M227,523.5c1.6,0.6,3.2,0.8,5,1"/>
		</g>
		<path class="st19" d="M215.2,528.5l8-1.2 M219.5,521.7H214v-3l5.6-1.2 M212.1,511.9l-6.2-0.6v-3.7h6.2 M217.1,501.4l-7-0.6
			 M210.1,495.8l7,0.6 M219.1,491.4h-7 M210.9,481.4l6.2,1.2 M220.1,478.9l-6.2-1.2 M223.9,474.7l7.5,2 M234.4,498.5h-8
			 M226.4,501.5l8,1.2 M231.4,510.2l-6.2-2.5 M226.4,522h5"/>
		<g>
			<path class="st5" d="M468.2,410c-1.5-7.6,4.3-23.8,13.4-13.3c0.4,0.5,2,4.3,1,5.2c-2,1.6-3-8-3-8.6c0-5,2.2-1,5-0.8
				c4.6,0.3-0.2-12.4,3.3-12.3c5.3,0.1,9.8,6.4,13.7,9.6c4,3.2,1-1.3,0.4-4c-0.2-1.2-4.3-10.3-0.8-8.7c4,1.8,6.7,6.2,11.5,4.3
				c4.4-1.8,1.8-7.7-0.3-10.3 M561.4,354.1c7.5-3.6,17.5-10.5,23.5-14.4 M560.9,366.7l37-7 M555.5,376c-1.2,7,5.2-1.4,1-1
				c-1,0.1-3.4,1.3-3,2.7c0.1,0.4,2,0.6,2.5,0.8 M573.5,352.5c5.8,2.3,1-3.3,0.5-2.2c-1,1.8-0.3,2.2,1.5,2.2 M562.5,341.5l-3-10.4
				c-0.3-1.2-0.4-1.3,0.5-1c2.4,1,4.9,1.6,7.4,2c1,0.1-3.3,5.2-4,6c-1,1.5-1.8,3-2.6,4.5"/>
		</g>
		<g>
			<path class="st22" d="M515.8,361.7l5.6-16.7H550l6.4,5.6v23l-26.3,7.2l-14.3-19L515.8,361.7z"/>
			<path class="st22" d="M543.7,365.6l-11-20l16.7-1.6l8,6.4l-13.5,15L543.7,365.6z M543.7,366.4L531,380.8l-14.3-17.5l3.2,0.4l8,2
				l16,0.8L543.7,366.4z"/>
			<path class="st22" d="M518.2,364l25.5,1.6l-11-17.5L516,362.4l2.4,1.6H518.2z M522.2,345l-5.6,16l16.7-14.3l-1.6-1.6H522
				L522.2,345z"/>
		</g>
		<g>
			<path class="st9" d="M515,362.5c9.9,2.6,20.1,3.8,30.3,3.6"/>
			<path class="st9" d="M533.2,343.3l10,21.5c0.7,1,1.7,2,2,3.3"/>
			<path class="st9" d="M515,363.3c7-5.4,13.2-12,19.5-18.3"/>
			<path class="st9" d="M516.2,362.5c0.1-5.5,3-11.6,5.2-16.5l2-3.8 M522.8,342l20.8-2 M542,367.2c5.8-4.7,12-12.6,16-19"/>
			<path class="st9" d="M551.2,345c2.3,1.4,4.2,3.5,6.4,5.2 M516.6,363l16,18.7"/>
			<path class="st9" d="M529.3,382c5.9-4.2,11-9.5,15.1-15.5"/>
			<path class="st9" d="M530.5,380.4c8-1.5,19-5.5,26.7-6.8"/>
			<path class="st9" d="M543.7,365.2l12.7,9.6"/>
			<path class="st9" d="M555.6,374.8c1.2-8.3,1.9-16.7,2-25.1 M531.6,343.3c7.4,3.2,16,3.2,24,3.2"/>
			<path class="st9" d="M540.4,340.7l15,6.5 M521,341.2l16.3,5.2 M546.3,363.4l8.6,4.8 M547.9,361.2c2.7,1.5,5.5,2.7,8.4,4
				 M550.7,358.9c2,1.5,4.6,2,7,3 M552.7,355.9c1.6,0.5,3,1,4.6,1.8 M555,353l3,1.6 M539.7,371.6c3.4-0.5,6.7-2,10-3 M540.3,374.4
				c5-1,9.7-3,14.5-4.6"/>
		</g>
		<g>
			<path class="st22" d="M959.7,345.7l5-15.2h26l5.8,5v21l-24,6.5l-13-17.4L959.7,345.7z"/>
			<path class="st22" d="M985,349.3l-10-18l15.2-1.4l7.2,5.8l-12.3,13.8L985,349.3z M985,350l-11.6,13l-13-16l3,0.3l7.2,1.8
				l14.5,0.7L985,350z"/>
			<path class="st22" d="M962,348l23.2,1.4l-10-16l-15.2,13l2.2,1.4L962,348z M965.5,330.5l-5,14.5l15.2-13l-1.4-1.4h-8.7
				L965.5,330.5z"/>
		</g>
		<g>
			<path class="st9" d="M959,346.4c7.7,2.6,19.4,3.3,27.5,3.3"/>
			<path class="st9" d="M975.6,329l9,19.6c0.6,1,1.5,1.8,1.8,3"/>
			<path class="st9" d="M959,347.2c6.4-5,12-11,17.8-16.7 M960,346.5c0.1-5,2.7-10.6,4.7-15c0.5-1.2,1-2.4,1.8-3.4 M966,327.9
				l19-1.8 M983.6,350.9c5.7-5,10.6-10.9,14.5-17.4"/>
			<path class="st9" d="M992,330.5c2,1.3,4,3.2,5.8,4.7 M960.4,346.8l14.5,17"/>
			<path class="st9" d="M972,364.2c4.7-3,10.8-9.6,13.8-14"/>
			<path class="st9" d="M973,362.7c7.2-1.3,17.2-5,24.3-6.2"/>
			<path class="st9" d="M985,349l11.6,8.7"/>
			<path class="st9" d="M996,357.7c1.1-7.6,1.7-15.2,1.8-22.8 M974.2,328.9c6.9,2.5,14.3,3.5,21.7,3"/>
			<path class="st9" d="M982,326.6l13.6,6 M964.3,327.2L979,332 M987.3,347.4l7.8,4.3 M988.9,345.4c2.5,1.3,5,2.5,7.6,3.6
				 M991.5,343.3c2,1.4,4.2,2,6.3,2.7 M993.3,340.6c1.4,0.4,2.8,1,4.2,1.6 M995.3,338.2l2.7,1.4 M981.4,355c3-0.5,6-1.7,9-2.7
				 M981.9,357.5c4.5-1,8.8-2.8,13.2-4.2"/>
		</g>
	</g>
</g>
</svg>
