<svg width="344" height="150" viewBox="0 0 344 150" fill="none" xmlns="http://www.w3.org/2000/svg">
<path d="M343.299 127.309C343.299 137.083 266.49 145.007 171.741 145.007C76.9925 145.007 0.183594 137.083 0.183594 127.309C0.183594 117.535 76.9925 109.611 171.741 109.611C266.49 109.611 343.299 117.535 343.299 127.309Z" fill="url(#paint0_radial_1533_246866)"/>
<path d="M120.581 30.0918L111.168 32.6359C114.221 40.5226 116.765 42.0491 120.072 43.5756L127.45 41.2859L122.362 35.6888L120.581 30.0918Z" fill="#AE82FC"/>
<path fill-rule="evenodd" clip-rule="evenodd" d="M109.833 31.6309C110.107 31.5966 110.356 31.791 110.391 32.065C110.512 33.0342 111.068 35.6359 112.52 38.1068C113.967 40.5697 116.27 42.8526 119.883 43.3343C120.156 43.3708 120.349 43.6223 120.312 43.896C120.276 44.1697 120.024 44.362 119.751 44.3255C115.731 43.7896 113.2 41.2387 111.658 38.6133C110.12 35.996 109.532 33.2551 109.398 32.189C109.364 31.915 109.559 31.6651 109.833 31.6309Z" fill="black"/>
<path fill-rule="evenodd" clip-rule="evenodd" d="M120.049 29.9706C120.116 30.2385 119.953 30.51 119.686 30.577C116.718 31.3189 114.706 31.9233 112.142 32.6938C111.201 32.9766 110.185 33.2819 109.02 33.6245C108.755 33.7024 108.477 33.5509 108.399 33.2859C108.321 33.021 108.473 32.7431 108.738 32.6652C109.891 32.3261 110.9 32.0227 111.839 31.7407C114.411 30.9677 116.451 30.3549 119.443 29.6068C119.711 29.5399 119.982 29.7027 120.049 29.9706Z" fill="black"/>
<path fill-rule="evenodd" clip-rule="evenodd" d="M119.268 28.8298C119.543 28.8072 119.784 29.012 119.807 29.2872C120.192 33.9772 122.249 37.4064 126.509 41.165C126.716 41.3477 126.735 41.6636 126.553 41.8707C126.37 42.0777 126.054 42.0975 125.847 41.9148C121.457 38.041 119.222 34.3899 118.81 29.3691C118.788 29.0938 118.992 28.8524 119.268 28.8298Z" fill="black"/>
<path fill-rule="evenodd" clip-rule="evenodd" d="M126.904 40.8605C126.999 41.12 126.865 41.4069 126.605 41.5013C125.2 42.0124 123.859 42.4594 122.525 42.9041L122.522 42.905C121.185 43.3505 119.856 43.7936 118.464 44.2998C118.204 44.3942 117.918 44.2603 117.823 44.0008C117.729 43.7413 117.863 43.4544 118.122 43.36C119.528 42.8489 120.869 42.4019 122.203 41.9572L122.206 41.9563C123.542 41.5108 124.871 41.0677 126.263 40.5615C126.523 40.4671 126.81 40.601 126.904 40.8605Z" fill="black"/>
<path d="M235.577 30.8178L240.437 39.2713C247.284 34.3086 248.112 31.4594 248.745 27.8722L244.65 21.3218L240.535 27.6688L235.577 30.8178Z" fill="#FF479F"/>
<path fill-rule="evenodd" clip-rule="evenodd" d="M239.802 40.8176C239.699 40.5614 239.824 40.2702 240.08 40.1672C240.986 39.803 243.36 38.6016 245.379 36.568C247.392 34.541 249.012 31.7323 248.557 28.1159C248.522 27.8419 248.716 27.5919 248.99 27.5574C249.264 27.5229 249.514 27.717 249.549 27.991C250.055 32.0141 248.234 35.1119 246.089 37.2726C243.95 39.4267 241.45 40.6945 240.453 41.0951C240.196 41.1981 239.905 41.0739 239.802 40.8176Z" fill="black"/>
<path fill-rule="evenodd" clip-rule="evenodd" d="M235.594 31.3627C235.836 31.2297 236.14 31.318 236.273 31.5599C237.747 34.2404 238.844 36.0314 240.243 38.3142C240.757 39.1524 241.311 40.0569 241.939 41.096C242.082 41.3323 242.006 41.6397 241.77 41.7826C241.534 41.9255 241.226 41.8497 241.083 41.6134C240.462 40.5852 239.911 39.6862 239.399 38.8505C237.996 36.5601 236.883 34.7443 235.397 32.0418C235.264 31.7998 235.352 31.4958 235.594 31.3627Z" fill="black"/>
<path fill-rule="evenodd" clip-rule="evenodd" d="M234.689 32.4091C234.597 32.1488 234.734 31.8631 234.994 31.7711C239.431 30.2032 242.222 27.34 244.771 22.2628C244.895 22.016 245.195 21.9164 245.442 22.0403C245.689 22.1641 245.788 22.4646 245.665 22.7114C243.038 27.9442 240.077 31.0354 235.327 32.714C235.067 32.806 234.781 32.6695 234.689 32.4091Z" fill="black"/>
<path fill-rule="evenodd" clip-rule="evenodd" d="M244.378 21.9595C244.605 21.802 244.917 21.8584 245.074 22.0852C245.927 23.3141 246.701 24.4969 247.471 25.6734L247.473 25.6758C248.244 26.8545 249.011 28.027 249.856 29.2439C250.013 29.4708 249.957 29.7823 249.73 29.9397C249.503 30.0972 249.192 30.0408 249.034 29.814C248.182 28.5851 247.407 27.4024 246.637 26.2258L246.636 26.2234C245.864 25.0447 245.097 23.8722 244.253 22.6553C244.095 22.4284 244.151 22.1169 244.378 21.9595Z" fill="black"/>
<path d="M220.385 72.3202C221.757 71.5359 225.368 66.9284 227.002 64.7227C230.531 66.2912 237.622 67.5002 240.726 67.9087C233.374 69.706 219.012 73.1044 220.385 72.3202Z" fill="#FFC100"/>
<path fill-rule="evenodd" clip-rule="evenodd" d="M226.1 63.3718C226.358 63.4688 226.489 63.757 226.392 64.0155C225.743 65.7476 224.637 67.2117 223.407 68.541C222.674 69.3329 221.865 70.1082 221.077 70.8636C220.565 71.3544 220.062 71.8369 219.594 72.31C219.4 72.5063 219.083 72.5081 218.887 72.3139C218.69 72.1197 218.689 71.8031 218.883 71.6068C219.394 71.0895 219.913 70.5935 220.428 70.0998C221.192 69.3689 221.95 68.6432 222.673 67.8619C223.863 66.5758 224.871 65.2229 225.456 63.6644C225.553 63.4059 225.841 63.2749 226.1 63.3718Z" fill="black"/>
<path fill-rule="evenodd" clip-rule="evenodd" d="M225.468 63.6294C225.585 63.3789 225.882 63.2702 226.133 63.3865C229.991 65.178 235.955 66.6828 240.249 66.6828C240.525 66.6828 240.749 66.9067 240.749 67.1828C240.749 67.459 240.525 67.6828 240.249 67.6828C235.787 67.6828 229.68 66.1359 225.711 64.2935C225.461 64.1772 225.352 63.8799 225.468 63.6294Z" fill="black"/>
<path fill-rule="evenodd" clip-rule="evenodd" d="M241.223 67.1284C241.254 67.4029 241.056 67.6501 240.782 67.6806C237.062 68.0939 233.322 68.981 229.576 69.9792C228.455 70.2782 227.331 70.5877 226.207 70.8971C223.591 71.6174 220.977 72.3375 218.392 72.9243C218.123 72.9855 217.855 72.8167 217.794 72.5475C217.733 72.2782 217.901 72.0103 218.171 71.9491C220.732 71.3675 223.311 70.6573 225.917 69.9398C227.046 69.6289 228.179 69.3167 229.319 69.013C233.076 68.0116 236.875 67.1085 240.671 66.6867C240.946 66.6562 241.193 66.854 241.223 67.1284Z" fill="black"/>
<path d="M152.345 6.77057C151.857 8.27418 154.044 15.3956 155.696 18.5572C152.03 19.7713 142.835 21.9339 140.264 23.7203C144.494 17.4439 152.833 5.26696 152.345 6.77057Z" fill="#00ADE4"/>
<path fill-rule="evenodd" clip-rule="evenodd" d="M157.249 19.0951C156.993 19.1974 156.702 19.0723 156.6 18.8158C155.292 15.5344 153.451 10.0787 152.55 5.57974C152.496 5.30898 152.671 5.04551 152.942 4.99127C153.213 4.93703 153.476 5.11256 153.531 5.38332C154.416 9.80291 156.234 15.1976 157.529 18.4456C157.631 18.7021 157.506 18.9929 157.249 19.0951Z" fill="black"/>
<path fill-rule="evenodd" clip-rule="evenodd" d="M157.703 18.4931C157.739 18.7668 157.547 19.018 157.273 19.054C154.561 19.4108 151.374 20.0146 148.469 20.8915C145.548 21.7734 142.978 22.9127 141.445 24.3072C141.24 24.493 140.924 24.478 140.738 24.2737C140.553 24.0694 140.568 23.7532 140.772 23.5674C142.477 22.0169 145.226 20.826 148.18 19.9342C151.15 19.0376 154.393 18.4244 157.142 18.0626C157.416 18.0265 157.667 18.2193 157.703 18.4931Z" fill="black"/>
<path fill-rule="evenodd" clip-rule="evenodd" d="M140.424 24.6323C140.217 24.4498 140.197 24.1339 140.38 23.9266C142.853 21.1184 145.024 17.9455 147.123 14.6872C147.751 13.7113 148.375 12.7262 148.998 11.7412C150.448 9.44847 151.899 7.15644 153.416 4.98341C153.574 4.75699 153.885 4.7016 154.112 4.85968C154.338 5.01777 154.394 5.32946 154.236 5.55588C152.732 7.70956 151.302 9.97026 149.857 12.254C149.231 13.2435 148.602 14.2374 147.963 15.2287C145.858 18.4971 143.655 21.7213 141.13 24.5876C140.947 24.7949 140.631 24.8149 140.424 24.6323Z" fill="black"/>
<path d="M87.9251 109.989C84.831 108.873 81.1461 108.859 74.3672 111.683C82.2759 118.462 86.5499 120.579 87.9251 124.111H96.9636C96.9636 124.111 94.1391 117.332 87.9251 109.989Z" fill="#01C9CC"/>
<path fill-rule="evenodd" clip-rule="evenodd" d="M69.3532 110.4C69.4515 110.142 69.7404 110.013 69.9984 110.111C73.1588 111.315 76.6127 113.842 79.5542 116.863C82.4961 119.885 84.9726 123.45 86.1371 126.77C86.2285 127.031 86.0914 127.316 85.8308 127.408C85.5702 127.499 85.2849 127.362 85.1935 127.101C84.0926 123.962 81.7167 120.518 78.8377 117.561C75.9581 114.603 72.6223 112.181 69.6424 111.046C69.3844 110.947 69.2549 110.658 69.3532 110.4Z" fill="black"/>
<path fill-rule="evenodd" clip-rule="evenodd" d="M83.9617 109.378C84.0324 109.645 83.8732 109.919 83.6063 109.989C80.1071 110.916 76.6024 111.821 73.0992 112.726C72.1377 112.974 71.1763 113.222 70.2152 113.471C69.9479 113.54 69.6751 113.38 69.6059 113.112C69.5367 112.845 69.6974 112.572 69.9647 112.503C70.9268 112.254 71.8889 112.005 72.8508 111.757C76.3536 110.852 79.8545 109.948 83.3504 109.023C83.6173 108.952 83.891 109.111 83.9617 109.378Z" fill="black"/>
<path fill-rule="evenodd" clip-rule="evenodd" d="M81.849 107.984C82.0197 107.767 82.334 107.729 82.5511 107.9C89.555 113.403 93.2731 120.087 95.5414 125.38C95.6502 125.634 95.5326 125.928 95.2788 126.037C95.025 126.145 94.7311 126.028 94.6223 125.774C92.3902 120.566 88.7567 114.047 81.9333 108.686C81.7162 108.516 81.6784 108.201 81.849 107.984Z" fill="black"/>
<path fill-rule="evenodd" clip-rule="evenodd" d="M97.668 125.002C92.1356 125.002 86.6323 125.252 81.0921 125.537C80.8163 125.551 80.5813 125.339 80.5671 125.063C80.5529 124.787 80.765 124.552 81.0407 124.538C86.5824 124.253 92.1078 124.002 97.668 124.002C97.9441 124.002 98.168 124.226 98.168 124.502C98.168 124.778 97.9441 125.002 97.668 125.002Z" fill="black"/>
<path d="M62.9656 37.1097C66.0596 35.9943 69.7445 35.98 76.5234 38.8045C68.6147 45.5834 64.3407 47.7004 62.9656 51.2325H53.927C53.927 51.2325 56.7516 44.4536 62.9656 37.1097Z" fill="#EE8625"/>
<path fill-rule="evenodd" clip-rule="evenodd" d="M81.5374 37.5214C81.4391 37.2633 81.1502 37.1338 80.8922 37.2321C77.7318 38.436 74.278 40.9629 71.3365 43.9844C68.3945 47.0063 65.918 50.5712 64.7535 53.8913C64.6621 54.1519 64.7992 54.4372 65.0598 54.5286C65.3204 54.62 65.6057 54.4829 65.6971 54.2223C66.7981 51.0835 69.1739 47.6392 72.053 44.6819C74.9325 41.7242 78.2683 39.3018 81.2482 38.1666C81.5062 38.0683 81.6357 37.7794 81.5374 37.5214Z" fill="black"/>
<path fill-rule="evenodd" clip-rule="evenodd" d="M66.9289 36.4991C66.8583 36.7661 67.0174 37.0398 67.2843 37.1104C70.7835 38.0367 74.2882 38.9419 77.7914 39.8467C78.7529 40.0951 79.7143 40.3434 80.6754 40.5921C80.9427 40.6613 81.2155 40.5007 81.2847 40.2333C81.3539 39.966 81.1933 39.6932 80.9259 39.624C79.9638 39.375 79.0018 39.1266 78.0399 38.8781C74.5371 37.9734 71.0362 37.0691 67.5402 36.1437C67.2733 36.0731 66.9996 36.2322 66.9289 36.4991Z" fill="black"/>
<path fill-rule="evenodd" clip-rule="evenodd" d="M69.0416 35.1052C68.871 34.888 68.5566 34.8503 68.3395 35.0209C61.3356 40.524 57.6176 47.2084 55.3492 52.5013C55.2404 52.7551 55.358 53.049 55.6118 53.1578C55.8656 53.2666 56.1596 53.149 56.2684 52.8952C58.5004 47.687 62.1339 41.1685 68.9573 35.8072C69.1745 35.6366 69.2122 35.3223 69.0416 35.1052Z" fill="black"/>
<path fill-rule="evenodd" clip-rule="evenodd" d="M53.2226 52.123C58.755 52.123 64.2583 52.3729 69.7985 52.6579C70.0743 52.6721 70.3094 52.46 70.3235 52.1843C70.3377 51.9085 70.1257 51.6734 69.8499 51.6592C64.3082 51.3741 58.7828 51.123 53.2226 51.123C52.9465 51.123 52.7226 51.3469 52.7226 51.623C52.7226 51.8992 52.9465 52.123 53.2226 52.123Z" fill="black"/>
<path d="M257.837 120.203L250.258 123.379L262.1 125.977L272.047 120.203H257.837Z" fill="#4DC952"/>
<path fill-rule="evenodd" clip-rule="evenodd" d="M258.862 119.245C258.943 119.509 258.794 119.789 258.53 119.869C255.542 120.778 252.571 121.726 249.603 122.709C249.341 122.796 249.058 122.654 248.971 122.392C248.884 122.13 249.026 121.847 249.288 121.76C252.263 120.774 255.242 119.824 258.238 118.912C258.503 118.832 258.782 118.981 258.862 119.245Z" fill="black"/>
<path fill-rule="evenodd" clip-rule="evenodd" d="M248.96 121.707C249.027 121.439 249.299 121.276 249.567 121.343C250.044 121.462 250.58 121.609 251.167 121.769C252.627 122.168 254.399 122.653 256.342 123.013C259.056 123.515 262.029 123.757 264.78 123.168C265.05 123.11 265.316 123.282 265.374 123.552C265.431 123.822 265.259 124.088 264.989 124.145C262.052 124.775 258.931 124.509 256.16 123.996C254.173 123.628 252.327 123.124 250.857 122.722C250.285 122.565 249.769 122.425 249.324 122.313C249.056 122.246 248.893 121.975 248.96 121.707Z" fill="black"/>
<path fill-rule="evenodd" clip-rule="evenodd" d="M255.044 119.325C255.08 119.051 255.331 118.859 255.605 118.895C257.192 119.107 258.581 119.317 259.874 119.513C263.58 120.075 266.493 120.516 270.978 120.516C271.254 120.516 271.478 120.74 271.478 121.016C271.478 121.292 271.254 121.516 270.978 121.516C266.412 121.516 263.41 121.061 259.679 120.495C258.395 120.301 257.024 120.093 255.473 119.886C255.199 119.85 255.007 119.598 255.044 119.325Z" fill="black"/>
<path fill-rule="evenodd" clip-rule="evenodd" d="M271.242 120.024C271.341 120.282 271.212 120.571 270.954 120.67C269.978 121.045 269.098 121.387 268.274 121.706C265.11 122.933 262.766 123.842 258.951 125.146C258.69 125.235 258.405 125.095 258.316 124.834C258.227 124.573 258.366 124.289 258.628 124.199C262.422 122.903 264.746 122.002 267.906 120.776C268.732 120.456 269.614 120.114 270.595 119.737C270.853 119.637 271.142 119.766 271.242 120.024Z" fill="black"/>
<path d="M279.671 71.4249C276.33 70.2203 267.754 67.6908 266.863 67.209C265.081 71.5453 267.605 80.2581 269.09 84.0725C272.06 87.0838 279.226 93.2269 277.444 88.8906C275.662 84.5543 278.186 75.0385 279.671 71.4249Z" fill="#3E7BFA"/>
<path fill-rule="evenodd" clip-rule="evenodd" d="M264.957 66.2556C265.23 66.2966 265.418 66.5512 265.377 66.8242C264.384 73.4413 265.837 79.5453 268.802 85.6155C268.923 85.8636 268.82 86.163 268.572 86.2842C268.324 86.4054 268.024 86.3024 267.903 86.0543C264.876 79.8566 263.357 73.5459 264.388 66.6759C264.429 66.4028 264.684 66.2146 264.957 66.2556Z" fill="black"/>
<path fill-rule="evenodd" clip-rule="evenodd" d="M278.465 68.585C278.692 68.7422 278.749 69.0537 278.592 69.2807C274.181 75.6519 274.327 82.6185 276.065 89.9904C276.128 90.2592 275.962 90.5284 275.693 90.5918C275.424 90.6551 275.155 90.4886 275.092 90.2198C273.327 82.7323 273.123 75.423 277.77 68.7115C277.927 68.4845 278.238 68.4279 278.465 68.585Z" fill="black"/>
<path fill-rule="evenodd" clip-rule="evenodd" d="M261.813 65.1305C261.909 64.8717 262.197 64.7399 262.456 64.8362C263.845 65.3532 265.248 65.8588 266.654 66.366C270.794 67.859 274.971 69.3653 278.973 71.2125C279.224 71.3282 279.333 71.6252 279.218 71.876C279.102 72.1267 278.805 72.2361 278.554 72.1204C274.595 70.293 270.476 68.8078 266.348 67.3188C264.933 66.8087 263.518 66.2983 262.107 65.7734C261.848 65.6772 261.716 65.3893 261.813 65.1305Z" fill="black"/>
<path fill-rule="evenodd" clip-rule="evenodd" d="M263.56 81.8711C263.673 81.6193 263.969 81.507 264.221 81.6203C268.318 83.4641 272.013 85.7381 275.734 88.0278C276.824 88.6984 277.916 89.3704 279.02 90.0333C279.257 90.1754 279.334 90.4825 279.192 90.7193C279.05 90.9561 278.743 91.0329 278.506 90.8908C277.379 90.215 276.274 89.5346 275.176 88.859C271.465 86.5757 267.843 84.3469 263.811 82.5323C263.559 82.4189 263.446 82.1229 263.56 81.8711Z" fill="black"/>
<path d="M152.55 70.1593C158.511 68.7836 164.014 72.6434 166.021 74.7452L169.516 79.3669L162.612 103.531C160.276 103.914 154.992 104.597 152.55 104.263C149.496 103.844 144.515 102.171 143.992 113.05C143.469 123.928 142.109 127.485 139.285 128.636C136.461 129.786 139.076 123.196 136.774 119.326C134.473 115.455 129.347 116.292 122.025 115.351C114.703 114.409 113.448 111.271 113.343 107.819C113.238 104.367 120.247 98.0911 118.364 94.6391C116.481 91.1872 112.137 92.8021 104.971 87.643C97.806 82.4839 102.965 78.4712 104.971 73.0255C105.398 71.8685 105.475 70.2327 105.304 68.3958C105.193 68.3158 105.082 68.2348 104.971 68.153C101.819 64.1404 96.0863 55.6566 98.3793 53.8222C100.636 52.0165 104.671 61.5874 105.304 68.3958C111.805 73.0828 118.888 74.7452 128.187 74.7452C137.646 74.7452 145.098 71.879 152.55 70.1593Z" fill="#EE5F54"/>
<path d="M154.018 86.628C155.865 83.1198 165.02 79.8579 169.367 78.6654C171.713 77.0883 178.714 74.7418 187.946 77.973C199.486 82.012 204.794 85.9356 204.794 89.513C204.794 93.0904 194.293 98.168 196.255 97.1294C198.217 96.0908 198.678 92.5134 198.563 90.3208C198.471 88.5667 194.216 87.1281 192.1 86.628C196.524 100.63 205.256 128.518 204.794 128.057C204.217 127.48 190.023 110.054 181.484 106.708C172.944 103.361 158.519 126.441 155.288 128.634C152.057 130.826 154.018 125.172 155.288 122.171C156.303 119.771 162.866 104.477 166.02 97.1294V86.628C166.02 85.9741 165.051 85.6356 161.173 89.513C157.296 93.3905 161.635 96.2062 164.289 97.1294C165.097 97.8218 165.351 98.5835 159.904 96.0908C153.095 92.975 151.711 91.0132 154.018 86.628Z" fill="white"/>
<path d="M191.385 69.5002C191.385 75.0781 185.579 79.5999 178.417 79.5999C171.255 79.5999 165.449 75.0781 165.449 69.5002C165.449 63.9222 171.255 59.4004 178.417 59.4004C185.579 59.4004 191.385 63.9222 191.385 69.5002Z" fill="white"/>
<path d="M179.906 91.3581C175.777 88.7953 171.186 81.4513 169.406 78.0996L176.169 81.214L179.906 90.7352L181.953 90.0233C183.234 88.5284 184.741 82.4004 185.334 79.5233L187.648 78.0996L190.94 79.5233C190.513 82.8691 185.304 88.8072 182.754 91.3581H179.906Z" fill="#EE5F54"/>
<path d="M184.337 93.6258C184.337 95.6186 183.216 97.2341 181.834 97.2341C180.452 97.2341 179.332 95.6186 179.332 93.6258C179.332 91.633 180.452 90.0176 181.834 90.0176C183.216 90.0176 184.337 91.633 184.337 93.6258Z" fill="#FDD13B"/>
<path fill-rule="evenodd" clip-rule="evenodd" d="M98.9583 55.3091C99.5764 56.8707 100.649 59.0594 102.325 61.9927C103.009 63.1887 103.973 64.3822 105.17 65.531C105.111 65.0284 105.028 64.5262 104.924 64.0268C104.201 60.5601 102.478 57.2925 100.869 55.1267C100.061 54.0389 99.3061 53.2626 98.7491 52.8751C98.5291 52.722 98.3801 52.6584 98.2964 52.6357C98.2708 52.7617 98.2687 53.0156 98.3606 53.4517C98.4581 53.915 98.649 54.5277 98.9583 55.3091ZM106.255 66.5061C106.21 65.6035 106.087 64.7043 105.903 63.8227C105.145 60.1872 103.349 56.7883 101.672 54.5304C100.837 53.4064 100.006 52.5314 99.3202 52.0542C98.9901 51.8246 98.6208 51.6348 98.2615 51.6254C98.0655 51.6202 97.8576 51.669 97.6784 51.808C97.5028 51.9441 97.4009 52.1309 97.3455 52.3191C97.2406 52.6753 97.2722 53.1363 97.382 53.6578C97.4954 54.1961 97.7074 54.8662 98.0285 55.6772C98.671 57.3004 99.7689 59.5349 101.457 62.4888C102.341 64.0357 103.644 65.5554 105.272 66.9796C105.322 69.4727 104.706 71.9184 103.049 74.0185C101.31 76.2211 101.051 79.173 101.847 81.725C102.642 84.2758 104.52 86.519 107.169 87.2526C113.491 89.0034 116.626 90.7695 117.97 92.4783C118.624 93.3104 118.855 94.1304 118.825 94.9578C118.794 95.8024 118.49 96.6876 118.015 97.6305C117.566 98.5217 116.983 99.4272 116.375 100.371C116.34 100.427 116.304 100.483 116.268 100.539C115.629 101.533 114.971 102.567 114.469 103.622C113.966 104.678 113.604 105.784 113.574 106.927C113.544 108.081 113.855 109.245 114.651 110.403C115.97 112.321 118.127 113.27 120.525 113.821C122.344 114.239 124.374 114.441 126.368 114.64C126.994 114.702 127.615 114.764 128.226 114.832C130.821 115.122 133.225 115.523 135.068 116.486C136.871 117.428 138.144 118.91 138.496 121.444C138.556 121.869 138.571 122.311 138.58 122.777C138.581 122.849 138.582 122.922 138.584 122.995C138.59 123.388 138.597 123.799 138.63 124.2C138.708 125.164 138.941 126.163 139.735 127.019C140.05 127.357 140.461 127.514 140.908 127.397C141.299 127.295 141.632 127.004 141.907 126.673C142.467 125.999 143.004 124.896 143.47 123.614C144.407 121.034 145.13 117.516 145.13 114.659C145.13 109.955 145.688 107.191 146.606 105.584C147.058 104.794 147.594 104.288 148.199 103.96C148.81 103.63 149.521 103.466 150.341 103.408C151.164 103.35 152.072 103.4 153.072 103.48C153.325 103.5 153.583 103.523 153.847 103.545C154.617 103.611 155.431 103.681 156.267 103.717C158.524 103.815 161.016 103.674 163.581 102.559C163.834 102.449 163.95 102.154 163.84 101.901C163.73 101.648 163.436 101.532 163.182 101.642C160.814 102.671 158.494 102.813 156.31 102.718C155.497 102.683 154.714 102.616 153.95 102.55C153.681 102.527 153.416 102.504 153.152 102.483C152.147 102.403 151.174 102.347 150.27 102.41C149.363 102.474 148.5 102.66 147.723 103.081C146.94 103.505 146.274 104.151 145.738 105.088C144.683 106.935 144.13 109.924 144.13 114.659C144.13 117.38 143.434 120.782 142.53 123.273C142.075 124.526 141.585 125.496 141.138 126.033C140.91 126.308 140.744 126.407 140.655 126.43L140.653 126.431C140.621 126.439 140.573 126.452 140.468 126.338C139.892 125.718 139.697 124.98 139.627 124.119C139.597 123.752 139.59 123.379 139.584 122.986C139.582 122.911 139.581 122.835 139.58 122.758C139.571 122.289 139.555 121.795 139.487 121.306C139.086 118.428 137.597 116.679 135.531 115.599C133.504 114.54 130.929 114.127 128.337 113.838C127.697 113.767 127.056 113.703 126.419 113.639C124.44 113.442 122.501 113.249 120.749 112.846C118.44 112.316 116.582 111.447 115.475 109.836C114.796 108.849 114.549 107.893 114.574 106.953C114.598 106.002 114.902 105.039 115.372 104.052C115.843 103.063 116.466 102.079 117.109 101.079C117.147 101.019 117.186 100.959 117.225 100.899C117.824 99.9679 118.434 99.0207 118.908 98.0808C119.413 97.0795 119.786 96.0449 119.824 94.9941C119.863 93.9261 119.554 92.875 118.756 91.86C117.194 89.8745 113.768 88.0425 107.436 86.2889C105.189 85.6667 103.521 83.7355 102.802 81.4274C102.083 79.1205 102.341 76.529 103.834 74.638L103.834 74.638C105.474 72.56 106.173 70.1942 106.264 67.8043C108.712 69.7402 111.758 71.4626 115.141 72.7839C121.429 75.2402 128.961 76.3431 136.154 74.8174C136.16 74.8161 136.166 74.8148 136.172 74.8133C139.994 73.8577 143.278 72.7403 146.164 71.758C146.536 71.6315 146.901 71.5073 147.26 71.3859C150.42 70.3168 153.066 69.4813 155.478 69.2566C157.864 69.0342 160.009 69.4119 162.172 70.778C164.354 72.1559 166.588 74.5604 169.095 78.4601C169.244 78.6924 169.553 78.7597 169.785 78.6103C170.018 78.461 170.085 78.1516 169.936 77.9194C167.393 73.964 165.064 71.4219 162.706 69.9325C160.329 68.4314 157.957 68.0212 155.385 68.2609C152.838 68.4982 150.084 69.3749 146.939 70.4387C146.579 70.5606 146.213 70.6851 145.841 70.8116C142.955 71.7937 139.714 72.8965 135.938 73.841C128.975 75.3158 121.646 74.2514 115.505 71.8524C111.88 70.4365 108.696 68.5671 106.255 66.5061Z" fill="#181818"/>
<path fill-rule="evenodd" clip-rule="evenodd" d="M182.723 61.4056C185.03 62.2034 187.053 63.4947 188.306 65.2725C189.565 67.061 189.917 69.2095 189.738 71.3096C189.56 73.4088 188.848 75.4934 187.937 77.2047C186.79 79.36 185.273 80.7061 183.44 81.3731C181.842 81.9547 180.047 82.004 178.117 81.6831C175.013 81.484 171.363 80.3219 168.624 78.1516C165.859 75.9607 164.009 72.7223 164.645 68.447C165.403 63.3584 170.234 60.8822 175.248 60.4874C177.776 60.2884 180.411 60.6063 182.723 61.4056ZM178.25 80.6915C178.009 80.651 177.765 80.6041 177.517 80.5511C174.338 79.8713 170.379 77.9318 168.068 75.3686C166.918 74.0922 166.211 72.7007 166.16 71.2647C166.11 69.8425 166.7 68.2843 168.33 66.654C168.526 66.4587 168.526 66.1422 168.33 65.9469C168.135 65.7516 167.818 65.7516 167.623 65.9469C166.652 66.9185 165.988 67.901 165.596 68.8803C165.607 68.7856 165.62 68.6902 165.634 68.5943C166.289 64.2012 170.489 61.8652 175.327 61.4843C177.725 61.2955 180.221 61.5988 182.396 62.3507C184.575 63.1041 186.393 64.294 187.488 65.8483C188.575 67.391 188.907 69.2843 188.742 71.2247C188.577 73.166 187.914 75.1204 187.055 76.7347C186.004 78.707 184.665 79.8634 183.098 80.4334C181.706 80.9401 180.089 80.9994 178.265 80.694C178.26 80.6931 178.255 80.6923 178.25 80.6915Z" fill="#181818"/>
<path fill-rule="evenodd" clip-rule="evenodd" d="M169.977 77.9926C170.086 78.2464 169.968 78.5404 169.714 78.6492C169.574 78.7094 169.432 78.7702 169.289 78.8316C166.77 79.91 163.819 81.1739 161.111 82.5676C158.236 84.0476 155.697 85.6432 154.242 87.2747C153.517 88.0871 153.098 88.868 153.002 89.6114C152.909 90.334 153.113 91.0899 153.777 91.8925C154.453 92.7082 155.599 93.5625 157.362 94.4307C159.121 95.2966 161.465 96.1624 164.504 97.0155C164.77 97.0901 164.925 97.3662 164.85 97.632C164.776 97.8979 164.5 98.0529 164.234 97.9783C161.159 97.1152 158.753 96.2298 156.921 95.3279C155.093 94.4282 153.808 93.4979 153.007 92.5303C152.195 91.5495 151.876 90.5234 152.01 89.4836C152.141 88.4643 152.699 87.5022 153.496 86.609C155.083 84.8295 157.767 83.1642 160.654 81.6785C163.394 80.2679 166.375 78.9913 168.887 77.9156C169.033 77.853 169.178 77.7912 169.321 77.73C169.574 77.6212 169.868 77.7388 169.977 77.9926Z" fill="#181818"/>
<path fill-rule="evenodd" clip-rule="evenodd" d="M187.113 77.711C187.208 77.4517 187.495 77.3185 187.754 77.4134C187.857 77.4512 187.985 77.4973 188.134 77.5515C189.703 78.1201 193.708 79.571 197.466 81.3974C199.522 82.3965 201.528 83.5193 203.028 84.6851C203.778 85.2679 204.418 85.8746 204.874 86.4968C205.33 87.1173 205.628 87.788 205.628 88.4873C205.628 88.5281 205.623 88.5689 205.613 88.6085C205.387 89.5126 204.817 90.4219 204.099 91.288C203.377 92.1605 202.474 93.0254 201.534 93.8397C200.594 94.6551 199.606 95.4286 198.712 96.1163C198.488 96.2883 198.271 96.4543 198.062 96.6141C197.429 97.0978 196.872 97.524 196.435 97.8833C196.222 98.0588 195.907 98.0283 195.732 97.8152C195.556 97.602 195.587 97.2869 195.8 97.1114C196.251 96.7395 196.83 96.2971 197.467 95.8098C197.674 95.6521 197.886 95.4897 198.102 95.3234C198.993 94.6386 199.962 93.8796 200.879 93.0841C201.798 92.2875 202.656 91.4632 203.329 90.6502C203.988 89.8551 204.442 89.1041 204.626 88.4278C204.61 88.0317 204.433 87.5855 204.068 87.0884C203.686 86.5679 203.123 86.0259 202.414 85.4746C200.996 84.372 199.062 83.2848 197.029 82.2968C193.322 80.4952 189.366 79.0615 187.793 78.4917C187.643 78.4372 187.515 78.3907 187.41 78.3525C187.151 78.2575 187.018 77.9703 187.113 77.711Z" fill="#181818"/>
<path fill-rule="evenodd" clip-rule="evenodd" d="M195.11 96.1616C195.374 96.0792 195.654 96.2261 195.737 96.4897L205.605 128.071C205.673 128.29 205.584 128.527 205.388 128.647C205.193 128.766 204.941 128.737 204.777 128.577C204.03 127.843 202.844 126.403 201.386 124.636C201.232 124.449 201.075 124.258 200.916 124.065C199.231 122.023 197.206 119.59 195.03 117.217C192.852 114.843 190.532 112.541 188.258 110.755C185.989 108.972 183.819 107.748 181.919 107.436C176.128 107.45 171.414 110.584 167.211 114.823C165.107 116.945 163.145 119.328 161.251 121.71C160.827 122.242 160.407 122.774 159.989 123.304C158.542 125.137 157.124 126.933 155.713 128.549C155.198 129.138 154.767 129.544 154.406 129.74C154.226 129.838 153.991 129.924 153.738 129.878C153.451 129.826 153.272 129.631 153.176 129.435C153.088 129.254 153.054 129.047 153.042 128.857C153.029 128.659 153.036 128.438 153.055 128.205C153.095 127.739 153.188 127.179 153.303 126.583C154.291 121.486 156.383 116.832 158.451 112.231L158.495 112.134C160.585 107.484 162.642 102.885 163.602 97.8456C163.654 97.5743 163.916 97.3963 164.187 97.448C164.458 97.4997 164.636 97.7614 164.585 98.0327C163.599 103.206 161.49 107.91 159.407 112.544L159.385 112.592C157.303 117.226 155.251 121.791 154.285 126.773C154.171 127.36 154.087 127.878 154.052 128.289C154.035 128.494 154.031 128.661 154.04 128.791C154.04 128.791 154.04 128.791 154.04 128.791C154.239 128.651 154.538 128.374 154.959 127.891C156.353 126.296 157.75 124.526 159.194 122.697C159.614 122.165 160.039 121.627 160.468 121.087C162.366 118.701 164.356 116.282 166.501 114.118C170.787 109.796 175.755 106.436 181.959 106.436C181.985 106.436 182.011 106.438 182.037 106.442C184.204 106.784 186.554 108.144 188.876 109.969C191.21 111.802 193.572 114.149 195.766 116.541C197.962 118.935 200.001 121.385 201.687 123.428C201.841 123.615 201.992 123.798 202.14 123.978C202.822 124.804 203.434 125.547 203.965 126.175L194.782 96.7879C194.7 96.5244 194.847 96.2439 195.11 96.1616Z" fill="#181818"/>
<path fill-rule="evenodd" clip-rule="evenodd" d="M184.98 67.6861C185.229 67.5666 185.527 67.6715 185.647 67.9205C186.14 68.9469 186.135 70.3002 185.699 71.4971C185.26 72.7044 184.356 73.8219 182.968 74.3154C180.814 75.0811 178.474 74.5136 176.401 73.6286C174.876 72.9776 173.42 72.1177 172.233 71.4174C171.809 71.1668 171.419 70.9366 171.073 70.7438C170.832 70.6093 170.745 70.3048 170.88 70.0636C171.014 69.8224 171.319 69.7358 171.56 69.8703C171.942 70.0833 172.356 70.3277 172.797 70.5878C173.971 71.2808 175.334 72.0857 176.793 72.7089C178.798 73.5649 180.842 74.0098 182.633 73.3732C183.683 72.9998 184.4 72.1444 184.76 71.155C185.124 70.1553 185.098 69.0883 184.745 68.3532C184.626 68.1043 184.731 67.8056 184.98 67.6861Z" fill="#181818"/>
<path fill-rule="evenodd" clip-rule="evenodd" d="M166.014 85.2989C166.165 85.3891 166.258 85.5523 166.258 85.7285C166.258 88.9344 165.904 94.1156 165.032 97.6049C164.996 97.7497 164.897 97.8708 164.762 97.935C164.627 97.9992 164.471 97.9998 164.335 97.9367C162.694 97.1707 161.387 96.3073 160.494 95.3502C159.596 94.3875 159.099 93.3079 159.143 92.1391C159.187 90.9782 159.761 89.8214 160.815 88.69C161.868 87.5589 163.429 86.4222 165.52 85.2889C165.675 85.205 165.862 85.2087 166.014 85.2989ZM164.203 96.7607C164.877 93.7113 165.197 89.5596 165.25 86.5861C163.598 87.5439 162.379 88.4778 161.547 89.3716C160.594 90.3945 160.174 91.3336 160.143 92.1767C160.111 93.0119 160.457 93.8443 161.226 94.6681C161.905 95.397 162.901 96.1013 164.203 96.7607Z" fill="#181818"/>
<path fill-rule="evenodd" clip-rule="evenodd" d="M191.466 86.5108C191.588 86.3689 191.78 86.3076 191.963 86.3522C195.003 87.0963 196.915 88.1035 198.013 89.2624C199.136 90.4474 199.375 91.7557 199.142 92.9655C198.915 94.1461 198.247 95.2108 197.594 95.9962C197.265 96.3927 196.931 96.7285 196.642 96.9836C196.365 97.228 196.096 97.4274 195.9 97.52C195.634 97.6448 195.381 97.57 195.213 97.4661C195.059 97.3703 194.933 97.2286 194.834 97.0945C194.632 96.8201 194.43 96.4251 194.233 95.9773C193.836 95.0713 193.408 93.8235 193.01 92.5568C192.611 91.2858 192.235 89.9785 191.941 88.9469C191.9 88.8 191.86 88.6589 191.821 88.5244C191.725 88.1852 191.641 87.8877 191.57 87.6442C191.468 87.2899 191.405 87.0859 191.38 87.0255C191.31 86.8515 191.343 86.6528 191.466 86.5108ZM192.584 87.5497C192.643 87.7569 192.71 87.9941 192.784 88.2542C192.822 88.3882 192.862 88.5283 192.903 88.6734C193.196 89.7039 193.569 91 193.964 92.2568C194.361 93.5179 194.774 94.7222 195.149 95.5756C195.338 96.0074 195.505 96.3188 195.639 96.5005C195.64 96.5026 195.642 96.5046 195.643 96.5066C195.73 96.4436 195.844 96.3537 195.98 96.2338C196.231 96.012 196.529 95.7131 196.825 95.3571C197.423 94.6376 197.978 93.7258 198.16 92.7768C198.337 91.8569 198.171 90.8826 197.287 89.9503C196.471 89.0889 195.017 88.2385 192.584 87.5497Z" fill="#181818"/>
<path fill-rule="evenodd" clip-rule="evenodd" d="M168.631 77.3574C168.869 77.2181 169.175 77.2985 169.315 77.5369C171.881 81.9303 174.571 85.9474 178.168 89.5139C179.092 90.4302 179.959 91.1153 181.053 91.7279C181.294 91.8629 181.38 92.1676 181.245 92.4085C181.11 92.6494 180.805 92.7354 180.565 92.6004C179.378 91.9362 178.44 91.1921 177.463 90.224C173.776 86.5681 171.036 82.4653 168.451 78.0414C168.312 77.8029 168.392 77.4967 168.631 77.3574Z" fill="black"/>
<path fill-rule="evenodd" clip-rule="evenodd" d="M175.735 80.4104C175.993 80.3113 176.282 80.4399 176.381 80.6977C176.904 82.058 177.416 83.4545 177.926 84.8466C178.376 86.0758 178.826 87.3017 179.28 88.4961C179.603 89.3437 179.933 90.0956 180.387 90.8386C180.531 91.0742 180.457 91.382 180.221 91.526C179.986 91.67 179.678 91.5957 179.534 91.3601C179.035 90.543 178.679 89.7274 178.346 88.8517C177.873 87.6101 177.426 86.3889 176.98 85.1711C176.479 83.8035 175.979 82.4401 175.447 81.0565C175.348 80.7987 175.477 80.5094 175.735 80.4104Z" fill="black"/>
<path fill-rule="evenodd" clip-rule="evenodd" d="M181.729 89.3696C182.201 89.3595 182.682 89.5117 183.057 89.7849C183.574 90.161 183.867 90.6992 184.031 91.2366C184.195 91.7726 184.241 92.3394 184.245 92.8238C184.252 93.676 184.18 95.1203 183.751 96.2235C183.538 96.7744 183.206 97.3164 182.676 97.6175C182.207 97.8835 181.663 97.9187 181.066 97.7276C181.013 97.7837 180.946 97.8281 180.868 97.8552C180.607 97.9455 180.322 97.8072 180.232 97.5462C180.202 97.4613 180.173 97.3747 180.143 97.2865C179.938 97.1591 179.73 97.0094 179.541 96.8388C179.178 96.5115 178.826 96.0554 178.764 95.4845C178.628 94.2308 178.892 92.8801 179.123 91.6964C179.169 91.4605 179.214 91.2313 179.254 91.0108C179.303 90.7391 179.564 90.5589 179.835 90.6083C179.88 90.6163 179.921 90.6299 179.96 90.6482C180.083 90.4211 180.229 90.2018 180.399 89.9922C180.751 89.5596 181.252 89.3799 181.729 89.3696ZM180.974 96.6067C181.025 96.6326 181.075 96.6567 181.124 96.6789C181.654 96.9195 181.973 96.8668 182.182 96.7479C182.421 96.612 182.641 96.3209 182.819 95.8617C183.175 94.9447 183.251 93.6609 183.245 92.8314C183.242 92.3959 183.199 91.936 183.075 91.5289C182.951 91.1233 182.756 90.8022 182.469 90.5936C182.27 90.4488 182.003 90.364 181.751 90.3694C181.504 90.3747 181.305 90.4631 181.175 90.6228C180.495 91.4605 180.296 92.556 180.377 93.7508C180.443 94.7186 180.69 95.7107 180.974 96.6067Z" fill="black"/>
<path fill-rule="evenodd" clip-rule="evenodd" d="M184.848 78.7267C185.095 78.6032 185.395 78.7033 185.519 78.9503C185.752 79.4168 185.766 79.9508 185.726 80.4077C185.693 80.7806 185.617 81.1602 185.555 81.4686C185.541 81.5399 185.527 81.6073 185.515 81.67C184.932 84.7079 183.926 87.9548 182.07 90.5396C181.909 90.764 181.597 90.8153 181.372 90.6542C181.148 90.4932 181.097 90.1808 181.258 89.9564C182.991 87.5419 183.961 84.4586 184.533 81.4814C184.548 81.4042 184.563 81.3265 184.579 81.2485C184.64 80.9432 184.702 80.6325 184.73 80.32C184.764 79.9256 184.733 79.6156 184.624 79.3975C184.501 79.1506 184.601 78.8502 184.848 78.7267Z" fill="black"/>
<path fill-rule="evenodd" clip-rule="evenodd" d="M191.055 79.1162C191.322 79.1865 191.481 79.4599 191.411 79.727C191.17 80.6422 190.816 81.4173 190.326 82.2253C188.372 85.446 185.924 88.1079 183.293 90.7099C183.097 90.9041 182.78 90.9023 182.586 90.706C182.392 90.5096 182.393 90.193 182.59 89.9989C185.203 87.4147 187.582 84.8213 189.471 81.7067C189.92 80.9651 190.232 80.2785 190.444 79.4725C190.514 79.2054 190.788 79.0459 191.055 79.1162Z" fill="black"/>
<path fill-rule="evenodd" clip-rule="evenodd" d="M198.462 52.6313C198.475 52.3555 198.71 52.1431 198.986 52.1569C200.718 52.2435 202.445 52.2836 204.18 52.2836C204.456 52.2836 204.68 52.5074 204.68 52.7836C204.68 53.0597 204.456 53.2836 204.18 53.2836C202.43 53.2836 200.686 53.2431 198.936 53.1556C198.66 53.1418 198.448 52.9071 198.462 52.6313Z" fill="black"/>
<path fill-rule="evenodd" clip-rule="evenodd" d="M205.796 47.9834C206.056 47.892 206.341 48.0291 206.433 48.2897C206.834 49.4325 207.098 50.5144 207.098 51.765C207.098 52.0412 206.874 52.265 206.598 52.265C206.321 52.265 206.098 52.0412 206.098 51.765C206.098 50.6667 205.869 49.7022 205.489 48.6208C205.398 48.3602 205.535 48.0748 205.796 47.9834Z" fill="black"/>
<path fill-rule="evenodd" clip-rule="evenodd" d="M208.263 52.6197C208.283 52.3443 208.523 52.1374 208.798 52.1576C210.057 52.25 211.313 52.2836 212.581 52.2836C212.857 52.2836 213.081 52.5074 213.081 52.7836C213.081 53.0597 212.857 53.2836 212.581 53.2836C211.296 53.2836 210.014 53.2495 208.725 53.1549C208.45 53.1347 208.243 52.8951 208.263 52.6197Z" fill="black"/>
<path fill-rule="evenodd" clip-rule="evenodd" d="M206.246 53.8204C206.517 53.7662 206.78 53.9418 206.834 54.2126C207.11 55.5903 207.238 56.8864 207.096 58.3067C207.068 58.5815 206.823 58.7819 206.549 58.7545C206.274 58.727 206.073 58.482 206.101 58.2072C206.23 56.9145 206.116 55.7225 205.854 54.4087C205.799 54.1379 205.975 53.8745 206.246 53.8204Z" fill="black"/>
<path fill-rule="evenodd" clip-rule="evenodd" d="M130.483 58.5923C130.508 58.3174 130.752 58.1152 131.027 58.1409C132.209 58.251 133.343 58.266 134.545 58.266C134.821 58.266 135.045 58.4899 135.045 58.766C135.045 59.0421 134.821 59.266 134.545 59.266C133.338 59.266 132.165 59.2512 130.934 59.1365C130.659 59.1109 130.457 58.8673 130.483 58.5923Z" fill="black"/>
<path fill-rule="evenodd" clip-rule="evenodd" d="M138.145 53.5656C138.416 53.5139 138.678 53.6919 138.73 53.9632C138.977 55.2639 139.12 56.5418 139.12 57.8757C139.12 58.1519 138.896 58.3757 138.62 58.3757C138.344 58.3757 138.12 58.1519 138.12 57.8757C138.12 56.6153 137.985 55.4009 137.747 54.1503C137.696 53.879 137.874 53.6172 138.145 53.5656Z" fill="black"/>
<path fill-rule="evenodd" clip-rule="evenodd" d="M141.304 58.8343C141.338 58.5602 141.587 58.3649 141.861 58.3982C143.042 58.5417 144.224 58.6599 145.415 58.779C145.69 58.8064 145.89 59.0515 145.863 59.3262C145.835 59.601 145.59 59.8015 145.315 59.774L145.315 59.774C144.126 59.6551 142.934 59.5358 141.741 59.3909C141.466 59.3576 141.271 59.1084 141.304 58.8343Z" fill="black"/>
<path fill-rule="evenodd" clip-rule="evenodd" d="M138.246 60.4317C138.522 60.4356 138.743 60.6626 138.739 60.9387C138.725 61.9459 138.621 62.8451 138.479 63.8055C138.439 64.0787 138.184 64.2673 137.911 64.2268C137.638 64.1864 137.449 63.9321 137.49 63.659C137.629 62.7195 137.726 61.869 137.739 60.9246C137.743 60.6484 137.97 60.4278 138.246 60.4317Z" fill="black"/>
<path fill-rule="evenodd" clip-rule="evenodd" d="M218.741 100.479C218.85 100.733 218.732 101.027 218.478 101.135L215.131 102.57C214.877 102.679 214.583 102.561 214.474 102.308C214.365 102.054 214.483 101.76 214.737 101.651L218.084 100.216C218.338 100.108 218.632 100.225 218.741 100.479Z" fill="black"/>
<path fill-rule="evenodd" clip-rule="evenodd" d="M217.479 95.5851C217.692 95.4093 218.007 95.4395 218.183 95.6524C218.757 96.3483 219.233 97.0633 219.711 97.781C219.743 97.8291 219.775 97.8771 219.807 97.9251C219.96 98.1549 219.898 98.4653 219.668 98.6185C219.439 98.7717 219.128 98.7096 218.975 98.4798C218.945 98.4348 218.915 98.39 218.885 98.3454C218.401 97.6187 217.952 96.9439 217.411 96.289C217.235 96.076 217.266 95.7609 217.479 95.5851Z" fill="black"/>
<path fill-rule="evenodd" clip-rule="evenodd" d="M223.586 98.6623C223.215 98.8178 222.836 98.9768 222.508 99.0877C222.246 99.176 221.962 99.0354 221.874 98.7737C221.786 98.5121 221.926 98.2284 222.188 98.1401C222.495 98.0366 222.802 97.9071 223.136 97.7661C223.371 97.6669 223.62 97.5619 223.892 97.4563C224.504 97.2184 225.19 96.998 225.855 96.998C226.131 96.998 226.355 97.2219 226.355 97.498C226.355 97.7742 226.131 97.998 225.855 97.998C225.388 97.998 224.849 98.1574 224.254 98.3884C224.044 98.4701 223.816 98.5655 223.586 98.6623Z" fill="black"/>
<path fill-rule="evenodd" clip-rule="evenodd" d="M221.328 101.073C221.549 100.907 221.862 100.951 222.028 101.172C222.597 101.927 223.042 102.669 223.496 103.454C223.635 103.693 223.553 103.999 223.314 104.137C223.075 104.275 222.769 104.194 222.631 103.955C222.18 103.176 221.76 102.477 221.23 101.774C221.063 101.553 221.108 101.239 221.328 101.073Z" fill="black"/>
<defs>
<radialGradient id="paint0_radial_1533_246866" cx="0" cy="0" r="1" gradientUnits="userSpaceOnUse" gradientTransform="translate(171.741 127.309) rotate(90) scale(17.6976 171.558)">
<stop stop-opacity="0.1"/>
<stop offset="1" stop-color="#D9D9D9" stop-opacity="0"/>
</radialGradient>
</defs>
</svg>
