<svg fill="none" height="123" viewBox="0 0 247 123" width="247" xmlns="http://www.w3.org/2000/svg"><path d="m81.7763 59.571h1.7812v4.804h1.2159v-4.804h1.7813v-1.0142h-4.7784zm5.8494 4.804.4318-1.3267h2.0995l.4318 1.3267h1.3182l-2.0057-5.8182h-1.5852l-2.0086 5.8182zm.7443-2.2869.7159-2.2017h.0455l.7159 2.2017zm4.2372 2.2869h1.2302v-2.0625h.8977l1.1023 2.0625h1.3579l-1.2358-2.2614c.6619-.2841 1.0284-.8608 1.0284-1.6562 0-1.1563-.7642-1.9006-2.0852-1.9006h-2.2955zm1.2302-3.0511v-1.7614h.8295c.7102 0 1.054.3153 1.054.8949 0 .5767-.3438.8665-1.0483.8665zm7.8776-.8864h1.25c-.159-1.1506-1.173-1.9602-2.488-1.9602-1.5374 0-2.722 1.1079-2.722 2.9943 0 1.8409 1.1079 2.9829 2.747 2.9829 1.469 0 2.517-.9289 2.517-2.4602v-.7329h-2.434v.9261h1.25c-.018.7216-.509 1.179-1.327 1.179-.9235 0-1.5059-.6904-1.5059-1.9063 0-1.2102.6051-1.8949 1.4939-1.8949.634 0 1.063.3267 1.219.8722zm2.228 3.9375h3.932v-1.0142h-2.702v-1.3892h2.489v-1.0142h-2.489v-1.3864h2.691v-1.0142h-3.921zm4.677-4.804h1.781v4.804h1.216v-4.804h1.781v-1.0142h-4.778zm6.795-1.0142h-1.23v5.8182h1.23zm5.879 0h-1.224v3.6591h-.052l-2.511-3.6591h-1.079v5.8182h1.23v-3.6619h.042l2.532 3.6619h1.062zm4.874 1.8807h1.25c-.159-1.1506-1.173-1.9602-2.488-1.9602-1.537 0-2.722 1.1079-2.722 2.9943 0 1.8409 1.108 2.9829 2.747 2.9829 1.469 0 2.517-.9289 2.517-2.4602v-.7329h-2.434v.9261h1.25c-.017.7216-.509 1.179-1.327 1.179-.923 0-1.506-.6904-1.506-1.9063 0-1.2102.605-1.8949 1.495-1.8949.633 0 1.062.3267 1.218.8722zm4.08 3.9375h1.23v-2.0625h.898l1.102 2.0625h1.358l-1.236-2.2614c.662-.2841 1.029-.8608 1.029-1.6562 0-1.1563-.765-1.9006-2.086-1.9006h-2.295zm1.23-3.0511v-1.7614h.83c.71 0 1.054.3153 1.054.8949 0 .5767-.344.8665-1.049.8665zm7.614-2.7671v3.6733c0 .6648-.466 1.1449-1.182 1.1449-.713 0-1.182-.4801-1.182-1.1449v-3.6733h-1.23v3.7784c0 1.2728.96 2.1222 2.412 2.1222 1.446 0 2.412-.8494 2.412-2.1222v-3.7784zm2.242 5.8182h3.724v-1.0142h-2.494v-4.804h-1.23zm4.539 0h3.932v-1.0142h-2.702v-1.3892h2.489v-1.0142h-2.489v-1.3864h2.69v-1.0142h-3.92zm8.055-4.1449h1.179c-.018-1.0369-.87-1.7528-2.165-1.7528-1.276 0-2.21.7045-2.205 1.7613-.003.858.602 1.3495 1.585 1.5853l.634.1591c.633.1534.986.3352.989.7272-.003.4262-.407.7159-1.032.7159-.639 0-1.099-.2954-1.139-.8778h-1.19c.031 1.2585.932 1.9091 2.344 1.9091 1.42 0 2.255-.679 2.258-1.7443-.003-.9688-.733-1.483-1.744-1.7103l-.523-.125c-.506-.1164-.929-.3039-.92-.7216 0-.375.332-.6505.934-.6505.588 0 .949.267.995.7244z" fill="#000"/><path d="m196.707 64.375h1.23v-2.0625h.898l1.102 2.0625h1.358l-1.236-2.2614c.662-.2841 1.029-.8608 1.029-1.6562 0-1.1563-.765-1.9006-2.086-1.9006h-2.295zm1.23-3.0511v-1.7614h.83c.71 0 1.054.3153 1.054.8949 0 .5767-.344.8665-1.049.8665zm4.02 3.0511h3.932v-1.0142h-2.702v-1.3892h2.489v-1.0142h-2.489v-1.3864h2.69v-1.0142h-3.92zm8.055-4.1449h1.179c-.017-1.0369-.87-1.7528-2.165-1.7528-1.276 0-2.21.7045-2.205 1.7613-.003.858.603 1.3495 1.586 1.5853l.633.1591c.634.1534.986.3352.989.7272-.003.4262-.407.7159-1.032.7159-.639 0-1.099-.2954-1.139-.8778h-1.19c.031 1.2585.932 1.9091 2.344 1.9091 1.42 0 2.255-.679 2.258-1.7443-.003-.9688-.733-1.483-1.744-1.7103l-.523-.125c-.506-.1164-.929-.3039-.92-.7216 0-.375.332-.6505.934-.6505.588 0 .949.267.995.7244zm5.679-1.6733v3.6733c0 .6648-.466 1.1449-1.182 1.1449-.713 0-1.181-.4801-1.181-1.1449v-3.6733h-1.23v3.7784c0 1.2728.96 2.1222 2.411 2.1222 1.447 0 2.412-.8494 2.412-2.1222v-3.7784zm2.243 5.8182h3.724v-1.0142h-2.494v-4.804h-1.23zm3.59-4.804h1.782v4.804h1.216v-4.804h1.781v-1.0142h-4.779zm8.722.6591h1.179c-.017-1.0369-.869-1.7528-2.165-1.7528-1.275 0-2.21.7045-2.204 1.7613-.003.858.602 1.3495 1.585 1.5853l.633.1591c.634.1534.986.3352.989.7272-.003.4262-.406.7159-1.031.7159-.639 0-1.1-.2954-1.139-.8778h-1.191c.032 1.2585.932 1.9091 2.344 1.9091 1.42 0 2.256-.679 2.259-1.7443-.003-.9688-.733-1.483-1.745-1.7103l-.523-.125c-.505-.1164-.928-.3039-.92-.7216 0-.375.332-.6505.935-.6505.588 0 .949.267.994.7244z" fill="#000"/><path d="m9.59588 58.5568h-1.36648l2.0085 5.8182h1.5853l2.0056-5.8182h-1.3636l-1.4091 4.4205h-.054zm5.16262 5.8182.4318-1.3267h2.0995l.4318 1.3267h1.3182l-2.0057-5.8182h-1.5852l-2.0086 5.8182zm.7443-2.2869.716-2.2017h.0454l.7159 2.2017zm4.2373 2.2869h1.2301v-2.0625h.8977l1.1023 2.0625h1.3579l-1.2358-2.2614c.662-.2841 1.0284-.8608 1.0284-1.6562 0-1.1563-.7642-1.9006-2.0852-1.9006h-2.2954zm1.2301-3.0511v-1.7614h.8295c.7102 0 1.054.3153 1.054.8949 0 .5767-.3438.8665-1.0483.8665zm5.25-2.7671h-1.2301v5.8182h1.2301zm2.0149 5.8182.4318-1.3267h2.0994l.4319 1.3267h1.3181l-2.0056-5.8182h-1.5853l-2.0085 5.8182zm.7443-2.2869.7159-2.2017h.0455l.7159 2.2017zm3.2969-2.5171h1.7812v4.804h1.2159v-4.804h1.7813v-1.0142h-4.7784zm6.7954-1.0142h-1.2301v5.8182h1.2301zm6.3587 2.9091c0-1.9034-1.1818-2.9886-2.7244-2.9886-1.5512 0-2.7245 1.0852-2.7245 2.9886 0 1.8949 1.1733 2.9886 2.7245 2.9886 1.5426 0 2.7244-1.0852 2.7244-2.9886zm-1.2472 0c0 1.233-.5852 1.9006-1.4772 1.9006-.8949 0-1.4773-.6676-1.4773-1.9006 0-1.2329.5824-1.9006 1.4773-1.9006.892 0 1.4772.6677 1.4772 1.9006zm7.0249-2.9091h-1.2244v3.6591h-.0512l-2.5113-3.6591h-1.0796v5.8182h1.2301v-3.6619h.0426l2.5313 3.6619h1.0625zm4.1726 1.6733h1.179c-.0171-1.0369-.8694-1.7528-2.1648-1.7528-1.2756 0-2.2102.7045-2.2046 1.7613-.0028.858.6023 1.3495 1.5853 1.5853l.6335.1591c.6335.1534.9858.3352.9886.7272-.0028.4262-.4062.7159-1.0312.7159-.6392 0-1.0995-.2954-1.1392-.8778h-1.1904c.0313 1.2585.9319 1.9091 2.3438 1.9091 1.4204 0 2.2557-.679 2.2585-1.7443-.0028-.9688-.733-1.483-1.7443-1.7103l-.5227-.125c-.5057-.1164-.929-.3039-.9205-.7216 0-.375.3324-.6505.9347-.6505.588 0 .9488.267.9943.7244z" fill="#000"/><path d="m175.055 22.188c.325-.3244.325-.8504 0-1.1749l-5.287-5.2872c-.324-.3244-.85-.3244-1.175 0-.324.3245-.324.8505 0 1.175l4.7 4.6997-4.7 4.6997c-.324.3244-.324.8505 0 1.1749.325.3245.851.3245 1.175 0zm-112.2466.2434h111.6596v-1.6616h-111.6596z" fill="#0092e4"/><path d="m92.3187 34.3646h.3966c-.0182-.5105-.4891-.8921-1.1433-.8921-.6477 0-1.1565.3767-1.1565.945 0 .456.3304.7269.8591.8789l.4163.119c.3569.0991.6741.2247.6741.5617 0 .3701-.3569.6146-.8261.6146-.4031 0-.76-.1784-.793-.5617h-.423c.0397.5551.4891.9318 1.216.9318.7798 0 1.2226-.4295 1.2226-.9781 0-.6344-.6014-.8393-.9516-.9318l-.3437-.0925c-.2511-.0661-.6542-.1983-.6542-.5617 0-.3238.2974-.5618.7468-.5618.4097 0 .7203.195.7599.5287zm1.4535 1.0112c0-.4428.2825-.694.6675-.694.3668 0 .5882.2313.5882.6345v1.586h.3899v-1.6125c0-.6526-.347-.9582-.8658-.9582-.3998 0-.6278.1669-.7467.4295h-.0331v-1.2424h-.3899v3.3836h.3899zm3.3898 1.5794c.6873 0 1.1499-.5221 1.1499-1.3085 0-.793-.4626-1.3151-1.1499-1.3151s-1.1499.5221-1.1499 1.3151c0 .7864.4626 1.3085 1.1499 1.3085zm0-.3502c-.522 0-.76-.4494-.76-.9583s.238-.9649.76-.9649c.5221 0 .76.456.76.9649s-.2379.9583-.76.9583zm2.2338.2973h.3833l.5549-1.9495h.04l.555 1.9495h.383l.773-2.5377h-.409l-.549 1.9364h-.026l-.536-1.9364h-.416l-.5418 1.943h-.0264l-.5485-1.943h-.4098zm7.2892-2.3262c-.125-.6939-.681-1.1036-1.361-1.1036-.866 0-1.494.6674-1.494 1.738s.628 1.7381 1.494 1.7381c.68 0 1.236-.4097 1.361-1.1036h-.41c-.099.4692-.502.7203-.951.7203-.615 0-1.097-.4758-1.097-1.3548 0-.8789.482-1.3547 1.097-1.3547.449 0 .852.2511.951.7203zm.662 2.3262h.41v-1.5133h1.467v-.3635h-1.467v-1.1433h1.619v-.3635h-2.029zm4.039-3.3836v3.3836h.384v-2.5707h.033l1.057 2.5707h.37l1.057-2.5707h.034v2.5707h.383v-3.3836h-.489l-1.15 2.8087h-.04l-1.15-2.8087zm5.117 3.4365c.688 0 1.15-.5221 1.15-1.3085 0-.793-.462-1.3151-1.15-1.3151-.687 0-1.149.5221-1.149 1.3151 0 .7864.462 1.3085 1.149 1.3085zm0-.3502c-.522 0-.76-.4494-.76-.9583s.238-.9649.76-.9649c.523 0 .76.456.76.9649s-.237.9583-.76.9583zm2.704.3502c.489 0 .654-.304.74-.4428h.046v.3899h.377v-3.3836h-.39v1.2491h-.033c-.086-.1322-.238-.4362-.734-.4362-.641 0-1.083.5089-1.083 1.3085 0 .8062.442 1.3151 1.077 1.3151zm.053-.3502c-.489 0-.741-.4296-.741-.9715 0-.5353.245-.9517.741-.9517.475 0 .727.3833.727.9517 0 .5749-.258.9715-.727.9715zm3.477-.7402c0 .4758-.363.6939-.654.6939-.324 0-.555-.2379-.555-.608v-1.5861h-.39v1.6125c0 .6477.344.9583.82.9583.383 0 .634-.2049.753-.4626h.026v.4295h.39v-2.5377h-.39zm1.494-2.3461h-.39v3.3836h.39zm1.779 3.4365c.515 0 .892-.2577 1.011-.641l-.377-.1058c-.099.2644-.329.3966-.634.3966-.458 0-.774-.2958-.792-.8393h1.842v-.1653c0-.945-.561-1.2688-1.09-1.2688-.687 0-1.143.5419-1.143 1.3217s.449 1.3019 1.183 1.3019zm-.792-1.5266c.027-.3948.306-.7468.752-.7468.423 0 .694.3173.694.7468zm4.848-1.064h-.542v-.608h-.39v.608h-.384v.3305h.384v1.586c0 .4428.357.6543.687.6543.145 0 .238-.0264.291-.0463l-.079-.3502c-.034.0066-.086.0198-.172.0198-.172 0-.337-.0529-.337-.3833v-1.4803h.542zm1.59 2.5906c.687 0 1.15-.5221 1.15-1.3085 0-.793-.463-1.3151-1.15-1.3151-.688 0-1.15.5221-1.15 1.3151 0 .7864.462 1.3085 1.15 1.3085zm0-.3502c-.522 0-.76-.4494-.76-.9583s.238-.9649.76-.9649.76.456.76.9649-.238.9583-.76.9583zm4.402-3.0863v2.4188c0 .4213-.202.6476-.556.6476-.322 0-.555-.1883-.555-.4758h-.403c0 .5204.403.8393.958.8393.589 0 .965-.3618.965-1.0111v-2.4188zm1.924 3.4431c.443 0 .674-.2379.754-.4031h.019v.3436h.39v-1.6719c0-.8063-.614-.8988-.938-.8988-.383 0-.819.1322-1.018.5948l.37.1321c.086-.185.289-.3833.661-.3833.359 0 .535.19.535.5155v.0132c0 .1884-.191.1719-.654.2313-.471.0612-.984.1652-.984.7468 0 .4957.383.7798.865.7798zm.06-.3502c-.311 0-.536-.1388-.536-.4098 0-.2974.271-.3899.575-.4295.166-.0199.608-.0661.674-.1454v.3568c0 .3173-.251.6279-.713.6279zm1.815.2907h.39v-1.6059c0-.3436.271-.5947.641-.5947.104 0 .211.0198.238.0264v-.3965c-.045-.0033-.147-.0066-.205-.0066-.304 0-.568.1718-.661.4229h-.026v-.3833h-.377zm2.718.0529c.515 0 .892-.2577 1.011-.641l-.377-.1058c-.099.2644-.328.3966-.634.3966-.458 0-.773-.2958-.792-.8393h1.843v-.1653c0-.945-.562-1.2688-1.091-1.2688-.687 0-1.143.5419-1.143 1.3217s.449 1.3019 1.183 1.3019zm-.792-1.5266c.027-.3948.306-.7468.752-.7468.423 0 .694.3173.694.7468zm3.394 1.5266c.489 0 .654-.304.74-.4428h.046v.3899h.377v-3.3836h-.39v1.2491h-.033c-.086-.1322-.238-.4362-.733-.4362-.641 0-1.084.5089-1.084 1.3085 0 .8062.443 1.3151 1.077 1.3151zm.053-.3502c-.489 0-.74-.4296-.74-.9715 0-.5353.244-.9517.74-.9517.476 0 .727.3833.727.9517 0 .5749-.258.9715-.727.9715z" fill="#000"/><rect fill="#fafbfc" height="34.4724" rx="4.00067" stroke="#0092e4" stroke-width=".421123" width="66.3751" x="85.2844" y="4.53087"/><path d="m115.015 20.3972c.051-1.1838.71-3.5515 2.934-3.5515 2.223 0 2.676 2.3677 2.933 3.5515" stroke="#8c91bc" stroke-width=".842247"/><path clip-rule="evenodd" d="m117.949 28.2721c-3.838 0-6.949-3.111-6.949-6.9486 0-3.8375 3.111-6.9485 6.949-6.9485 3.837 0 6.948 3.111 6.948 6.9485 0 3.8376-3.111 6.9486-6.948 6.9486zm4.673-3.7115c.638-.9187 1.012-2.0344 1.012-3.2374 0-3.1398-2.546-5.6852-5.685-5.6852-3.14 0-5.686 2.5454-5.686 5.6852 0 1.203.374 2.3187 1.012 3.2374.711-.9389 2.381-1.3419 4.674-1.3419 2.292 0 3.962.403 4.673 1.3419zm-.906 1.0201c-.185-.6646-1.513-1.0986-3.767-1.0986-2.255 0-3.583.434-3.768 1.0986 1.003.8884 2.322 1.4277 3.768 1.4277 1.445 0 2.764-.5394 3.767-1.4277zm-3.768-8.0474c-1.529 0-2.526 1.1091-2.526 2.5267 0 2.1651 1.112 3.1585 2.526 3.1585 1.402 0 2.527-.9604 2.527-3.0321 0-1.4393-1.002-2.6531-2.527-2.6531zm-1.263 2.5268c0 1.4334.517 1.895 1.263 1.895.744 0 1.264-.4432 1.264-1.7687 0-.7893-.496-1.3897-1.264-1.3897-.799 0-1.263.5153-1.263 1.2634z" fill="#8c91bc" fill-rule="evenodd"/><circle cx="115.169" cy="20.3975" fill="#8c91bc" r="1.38971"/><ellipse cx="120.882" cy="20.3975" fill="#8c91bc" rx="1.54412" ry="1.38971"/><path d="m175.055 101.564c.325-.324.325-.85 0-1.175l-5.287-5.2871c-.324-.3244-.85-.3244-1.175 0-.324.3245-.324.8505 0 1.175l4.7 4.7001-4.7 4.699c-.324.325-.324.851 0 1.175.325.325.851.325 1.175 0zm-108.2588.243h107.6718v-1.661h-107.6718z" fill="#4f5162"/><rect fill="#0092e4" height="14.8382" rx="3.04374" width="66.9622" y="14.29"/><path d="m11.3911 20.1881h1.179c-.0171-1.0369-.8693-1.7528-2.1648-1.7528-1.27556 0-2.21022.7045-2.20454 1.7613-.00284.858.60227 1.3495 1.58523 1.5853l.63351.1591c.6335.1534.9858.3352.9886.7272-.0028.4262-.4062.7159-1.0312.7159-.63921 0-1.09943-.2954-1.13921-.8778h-1.19034c.03125 1.2585.93182 1.9091 2.34375 1.9091 1.4205 0 2.2557-.679 2.2585-1.7443-.0028-.9688-.7329-1.483-1.7443-1.7103l-.5227-.125c-.5057-.1164-.929-.3039-.92048-.7215 0-.375.33239-.6506.93468-.6506.5881 0 .9488.267.9943.7244zm3.2734 1.6222c.0029-.5625.3466-.8921.8409-.8921.4915 0 .7813.3154.7785.8523v2.5625h1.2102v-2.7784c.0028-1.0227-.5994-1.642-1.5085-1.642-.662 0-1.1052.3125-1.304.8267h-.0512v-2.2245h-1.1761v5.8182h1.2102zm5.7536 2.6079c1.3239 0 2.1477-.9062 2.1477-2.25 0-1.3522-.8238-2.2556-2.1477-2.2556s-2.1477.9034-2.1477 2.2556c0 1.3438.8238 2.25 2.1477 2.25zm.0057-.9375c-.6108 0-.9233-.5596-.9233-1.321s.3125-1.3239.9233-1.3239c.5994 0 .9119.5625.9119 1.3239s-.3125 1.321-.9119 1.321zm3.6804.8523h1.2784l.75-2.7443h.054l.75 2.7443h1.2812l1.1847-4.3636h-1.2216l-.6648 2.9147h-.0369l-.7159-2.9147h-1.2017l-.7046 2.9318h-.0398l-.6761-2.9318h-1.2244zm7.8182 0h1.2301v-2.4034h2.3664v-1.0142h-2.3664v-1.3864h2.6221v-1.0142h-3.8522zm6.3252.0852c1.0796 0 1.8069-.5255 1.9773-1.3352l-1.1193-.0739c-.1222.3324-.4347.5057-.8381.5057-.6051 0-.9886-.4005-.9886-1.0511v-.0029h2.9716v-.3323c0-1.483-.8978-2.2159-2.0512-2.2159-1.2841 0-2.1164.9119-2.1164 2.2585 0 1.3835.821 2.2471 2.1647 2.2471zm-.9687-2.7074c.0256-.4971.4034-.8948.9403-.8948.5256 0 .8892.375.8921.8948zm5.0057 2.7046c.6449 0 1.0625-.2813 1.2755-.6875h.0341v.6051h1.1478v-2.9432c0-1.0397-.8807-1.4772-1.8523-1.4772-1.0455 0-1.733.5-1.9006 1.2954l1.1193.0909c.0824-.2898.3409-.5028.7756-.5028.4119 0 .6477.2074.6477.5653v.0171c0 .2812-.2983.3181-1.0568.392-.8636.0796-1.6392.3693-1.6392 1.3438 0 .8636.6165 1.3011 1.4489 1.3011zm.3466-.8352c-.3722 0-.6392-.1733-.6392-.5057 0-.3409.2812-.5085.7073-.5682.2642-.0369.6961-.0994.841-.196v.463c0 .4574-.3779.8069-.9091.8069zm5.3707-3.6108h-.821v-1.0455h-1.2103v1.0455h-.5965v.9091h.5965v2.2727c-.0056.8551.5768 1.2784 1.4546 1.2415.3125-.0114.5341-.0739.6562-.1137l-.1903-.9005c-.0597.0113-.1875.0397-.3011.0397-.2415 0-.4091-.0909-.4091-.4261v-2.1136h.821zm3.5866 2.5057c.0029.5852-.3977.892-.8323.892-.4574 0-.7529-.321-.7557-.8352v-2.5625h-1.2102v2.7784c.0028 1.0199.5994 1.642 1.4772 1.642.6563 0 1.1279-.338 1.3239-.8494h.0454v.7926h1.162v-4.3636h-1.2103zm2.1783 1.8579h1.2102v-2.4687c0-.537.3921-.9063.9262-.9063.1676 0 .3977.0284.5113.0653v-1.0738c-.1079-.0256-.2585-.0426-.3806-.0426-.4887 0-.8892.2841-1.0483.8238h-.0455v-.7613h-1.1733zm5.059.0852c1.0795 0 1.8068-.5255 1.9772-1.3352l-1.1193-.0739c-.1221.3324-.4346.5057-.8381.5057-.6051 0-.9886-.4005-.9886-1.0511v-.0029h2.9716v-.3323c0-1.483-.8977-2.2159-2.0511-2.2159-1.2841 0-2.1165.9119-2.1165 2.2585 0 1.3835.821 2.2471 2.1648 2.2471zm-.9688-2.7074c.0256-.4971.4034-.8948.9404-.8948.5255 0 .8892.375.892.8948z" fill="#fff"/><rect fill="#4f5162" height="14.8382" rx="3.04374" width="66.9622" y="93.333"/><path d="m9.38403 103.376h1.23007v-2.403h2.4972v2.403h1.2273v-5.8182h-1.2273v2.4006h-2.4972v-2.4006h-1.23007zm5.94607 0h1.2102v-4.3637h-1.2102zm.6079-4.9262c.3608 0 .6563-.2755.6563-.6136 0-.3352-.2955-.6108-.6563-.6108-.3579 0-.6534.2756-.6534.6108 0 .3381.2955.6136.6534.6136zm3.1797 4.9972c.7045 0 1.071-.406 1.2386-.77h.0512v.699h1.1932v-5.8182h-1.2074v2.1875h-.037c-.1619-.3551-.5113-.7898-1.2414-.7898-.9574 0-1.7671.7443-1.7671 2.2445 0 1.46.7756 2.247 1.7699 2.247zm.3835-.963c-.5937 0-.9176-.528-.9176-1.29 0-.756.3182-1.2754.9176-1.2754.5881 0 .9176.4974.9176 1.2754 0 .779-.3352 1.29-.9176 1.29zm5.0831.977c1.0796 0 1.8068-.525 1.9773-1.335l-1.1193-.074c-.1222.332-.4347.506-.8381.506-.6051 0-.9886-.401-.9886-1.051v-.003h2.9716v-.333c0-1.4825-.8978-2.2155-2.0512-2.2155-1.2841 0-2.1165.912-2.1165 2.2585 0 1.384.8211 2.247 2.1648 2.247zm-.9687-2.707c.0255-.497.4034-.8951.9403-.8951.5256 0 .8892.3751.8921.8951zm5.6356 2.622h1.2301v-2.403h2.3665v-1.0146h-2.3665v-1.3864h2.6222v-1.0142h-3.8523zm6.3253.085c1.0796 0 1.8068-.525 1.9773-1.335l-1.1193-.074c-.1222.332-.4347.506-.8381.506-.6051 0-.9886-.401-.9886-1.051v-.003h2.9715v-.333c0-1.4825-.8977-2.2155-2.0511-2.2155-1.2841 0-2.1165.912-2.1165 2.2585 0 1.384.8211 2.247 2.1648 2.247zm-.9687-2.707c.0255-.497.4034-.8951.9403-.8951.5256 0 .8892.3751.892.8951zm5.0056 2.704c.6449 0 1.0625-.281 1.2756-.687h.0341v.605h1.1477v-2.943c0-1.04-.8807-1.4775-1.8522-1.4775-1.0455 0-1.733.5-1.9006 1.2955l1.1193.091c.0824-.29.3409-.503.7756-.503.4119 0 .6477.207.6477.565v.017c0 .282-.2983.319-1.0568.392-.8637.08-1.6392.37-1.6392 1.344 0 .864.6165 1.301 1.4488 1.301zm.3466-.835c-.3721 0-.6392-.173-.6392-.506 0-.34.2813-.508.7074-.568.2642-.037.696-.099.8409-.196v.463c0 .458-.3778.807-.9091.807zm5.3708-3.6107h-.8211v-1.0454h-1.2102v1.0454h-.5966v.9091h.5966v2.2726c-.0057.855.5767 1.279 1.4546 1.242.3125-.012.5341-.074.6562-.114l-.1903-.901c-.0597.012-.1875.04-.3012.04-.2414 0-.4091-.091-.4091-.426v-2.1136h.8211zm3.5866 2.5057c.0029.585-.3977.892-.8324.892-.4574 0-.7528-.321-.7557-.835v-2.5627h-1.2102v2.7787c.0029 1.02.5994 1.642 1.4773 1.642.6562 0 1.1278-.338 1.3239-.85h.0454v.793h1.1619v-4.3637h-1.2102zm2.1783 1.858h1.2102v-2.469c0-.537.3921-.906.9261-.906.1677 0 .3978.028.5114.065v-1.0735c-.1079-.0256-.2585-.0427-.3807-.0427-.4886 0-.8892.2841-1.0483.8239h-.0454v-.7614h-1.1733zm5.0589.085c1.0796 0 1.8068-.525 1.9773-1.335l-1.1193-.074c-.1222.332-.4347.506-.8381.506-.6051 0-.9886-.401-.9886-1.051v-.003h2.9716v-.333c0-1.4825-.8978-2.2155-2.0512-2.2155-1.2841 0-2.1164.912-2.1164 2.2585 0 1.384.821 2.247 2.1647 2.247zm-.9687-2.707c.0255-.497.4034-.8951.9403-.8951.5256 0 .8892.3751.8921.8951z" fill="#fff"/><rect fill="#fafbfc" height="34.4724" rx="4.00067" stroke="#4f5162" stroke-width=".421123" width="66.3751" x="85.2844" y="83.5738"/><g fill="#8085b5" opacity=".9" stroke="#fff" stroke-width=".421123"><path d="m126.485 100.68h-.002c-.766.341-1.245 1.105-1.245 1.937v2.298.211h.21 7.64.21v-.211-2.298c0-.832-.479-1.596-1.245-1.937-.769-.341-1.714-.591-2.785-.591s-2.017.257-2.783.591zm2.783-4.8876c-1.173 0-2.12.9473-2.12 2.1203 0 1.1731.947 2.1203 2.12 2.1203s2.12-.9472 2.12-2.1203c0-1.173-.947-2.1203-2.12-2.1203z"/><path d="m135.397 100.68h-.001c-.766.341-1.246 1.105-1.246 1.937v2.298.211h.211 7.639.211v-.211-2.298c0-.832-.48-1.596-1.246-1.937-.768-.341-1.714-.591-2.785-.591s-2.016.257-2.783.591zm2.783-4.8876c-1.173 0-2.12.9473-2.12 2.1203 0 1.1731.947 2.1203 2.12 2.1203s2.121-.9472 2.121-2.1203c0-1.173-.948-2.1203-2.121-2.1203z"/><path d="m131.323 102.016h-.001c-.766.341-1.245 1.105-1.245 1.937v1.025.211h.21 7.639.211v-.211-1.025c0-.832-.48-1.596-1.246-1.937-.768-.341-1.714-.591-2.784-.591-1.072 0-2.017.257-2.784.591zm2.784-4.8877c-1.173 0-2.121.9473-2.121 2.1204 0 1.1733.948 2.1203 2.121 2.1203s2.12-.947 2.12-2.1203c0-1.1731-.947-2.1204-2.12-2.1204z"/><path d="m110.825 100.68h-.002c-.765.341-1.245 1.105-1.245 1.937v2.298.211h.211 7.639.21v-.211-2.298c0-.832-.479-1.596-1.245-1.937-.768-.341-1.714-.591-2.785-.591s-2.017.257-2.783.591zm2.783-4.8876c-1.173 0-2.12.9473-2.12 2.1203 0 1.1731.947 2.1203 2.12 2.1203s2.121-.9472 2.121-2.1203c0-1.173-.948-2.1203-2.121-2.1203z"/><path d="m119.737 100.68h-.001c-.766.341-1.246 1.105-1.246 1.937v2.298.211h.211 7.639.211v-.211-2.298c0-.832-.48-1.596-1.246-1.937-.768-.341-1.714-.591-2.785-.591s-2.016.257-2.783.591zm2.783-4.8876c-1.173 0-2.12.9473-2.12 2.1203 0 1.1731.947 2.1203 2.12 2.1203s2.121-.9472 2.121-2.1203c0-1.173-.948-2.1203-2.121-2.1203z"/><path d="m115.663 102.016h-.002c-.766.341-1.245 1.105-1.245 1.937v1.025.211h.211 7.639.21v-.211-1.025c0-.832-.479-1.596-1.245-1.937-.769-.341-1.714-.591-2.785-.591s-2.017.257-2.783.591zm2.783-4.8877c-1.173 0-2.12.9473-2.12 2.1204 0 1.1733.947 2.1203 2.12 2.1203s2.12-.947 2.12-2.1203c0-1.1731-.947-2.1204-2.12-2.1204z"/><path d="m96.1195 100.68h-.0013c-.766.341-1.2455 1.105-1.2455 1.937v2.298.211h.2106 7.6387.211v-.211-2.298c0-.832-.48-1.596-1.245-1.937-.769-.341-1.7146-.591-2.7852-.591-1.0714 0-2.0168.257-2.7833.591zm2.7833-4.8876c-1.173 0-2.1203.9473-2.1203 2.1203 0 1.1731.9473 2.1203 2.1203 2.1203 1.1732 0 2.1202-.9472 2.1202-2.1203 0-1.173-.947-2.1203-2.1202-2.1203z"/><path d="m105.032 100.68h-.002c-.766.341-1.245 1.105-1.245 1.937v2.298.211h.21 7.64.21v-.211-2.298c0-.832-.479-1.596-1.245-1.937-.769-.341-1.714-.591-2.785-.591s-2.017.257-2.783.591zm2.783-4.8876c-1.173 0-2.12.9473-2.12 2.1203 0 1.1731.947 2.1203 2.12 2.1203s2.12-.9472 2.12-2.1203c0-1.173-.947-2.1203-2.12-2.1203z"/><path d="m100.958 102.016h-.002c-.766.341-1.2452 1.105-1.2452 1.937v1.025.211h.2105 7.6387.211v-.211-1.025c0-.832-.479-1.596-1.245-1.937-.769-.341-1.714-.591-2.785-.591-1.072 0-2.017.257-2.783.591zm2.783-4.8877c-1.173 0-2.12.9473-2.12 2.1204 0 1.1733.947 2.1203 2.12 2.1203s2.12-.947 2.12-2.1203c0-1.1731-.947-2.1204-2.12-2.1204z"/></g><rect fill="#fff" height="41.8298" rx="1.08649" stroke="#0092e4" stroke-width="1.08649" width="62.4731" x="183.984" y=".543245"/><path d="m184.527 5.47949h61.386" stroke="#0092e4" stroke-width=".543245"/><rect fill="#0092e4" height="5.47928" rx="1.08649" width="62.4638" x="183.988"/><circle cx="187.206" cy="3.21797" fill="#fff" r="1.04902"/><circle cx="190.503" cy="3.21797" fill="#fff" r="1.04902"/><circle cx="193.799" cy="3.21797" fill="#fff" r="1.04902"/><g fill="#c4c4c4"><path d="m188.372 10.4111h53.9709v11.2325h-53.9709z" opacity=".7"/><path d="m189.468 27.1221h8.76685v8.76685h-8.76685z" opacity=".7"/><path d="m200.7 27.1221h8.76685v8.76685h-8.76685z" opacity=".7"/><path d="m211.385 27.1221h8.76685v8.76685h-8.76685z" opacity=".7"/></g><path d="m222.617 27.1221h8.49288v8.76685h-8.49288z" fill="#0092e4"/><path d="m226.806 29.3096c1.257 0 2.276 1.0183 2.276 2.2756 0 1.2244-.966 2.2222-2.178 2.2736l-.809-1.3947.021.0358.049.0838s.14-.199.476-.2883c.582-.1547.638.0519 1.22-.1027.363-.0968.684-.3596.684-.3596l-.907-1.4482s-.321.2624-.685.3591c-.582.1548-.637-.0518-1.219.1028l-.043.0128c-.211.0945-.288.1718-.366.249l-.077.0772s-.045.0366-.06.0453c-.065.0375-.073.2056-.021.2942l1.404 2.6458c.034.058.064.1099.133.1293.002.0116.031-.0115.031 0-.031.0106.047.0009.071.0009 1.5 0 2.716-1.2156 2.716-2.7161 0-1.5004-1.216-2.7161-2.716-2.7161-1.501 0-2.716 1.2157-2.716 2.7161 0 1.2773.962 2.3693 2.15 2.6595l-.324-.5658-.013-.0255-.002-.005c-.766-.3664-1.371-1.1575-1.371-2.0632 0-1.2573 1.019-2.2756 2.276-2.2756z" fill="#fff" opacity=".9"/><rect fill="#fff" height="41.8298" rx="1.08649" stroke="#4f5162" stroke-width="1.08649" width="62.4731" x="183.984" y="79.9339"/><path d="m188.372 90.0596h53.9709v11.2325h-53.9709z" fill="#c4c4c4" opacity=".7"/><path d="m189.468 106.771h8.76685v8.76685h-8.76685z" fill="#c4c4c4" opacity=".7"/><path d="m200.7 106.771h8.76685v8.76685h-8.76685z" fill="#c4c4c4" opacity=".7"/><path d="m211.385 106.771h8.76685v8.76685h-8.76685z" fill="#c4c4c4" opacity=".7"/><path d="m184.527 84.8545h61.386" stroke="#4f5162" stroke-width=".543245"/><rect fill="#4f5162" height="5.47928" rx="1.08649" width="62.4638" x="183.988" y="79.375"/><circle cx="187.206" cy="82.6076" fill="#fff" r="1.04902"/><circle cx="190.503" cy="82.6076" fill="#fff" r="1.04902"/><circle cx="193.799" cy="82.6076" fill="#fff" r="1.04902"/></svg>