<svg viewBox="0 0 204 204" fill="none" xmlns="http://www.w3.org/2000/svg">
<path opacity="0.5" fill-rule="evenodd" clip-rule="evenodd" d="M92.7273 0H111.273V19.0548C149.955 23.3309 180.669 54.045 184.945 92.7273H204V111.273H184.945C180.669 149.955 149.955 180.669 111.273 184.945V204H92.7273V184.945C54.045 180.669 23.3309 149.955 19.0548 111.273H0V92.7273H19.0548C23.3309 54.045 54.045 23.3309 92.7273 19.0548V0ZM37.7483 92.7273H55.6364H66.0776C69.4323 79.6935 79.6935 69.4323 92.7273 66.0776V55.6364V37.7483C64.3 41.8145 41.8145 64.3 37.7483 92.7273ZM55.6364 111.273H37.7483C41.8145 139.7 64.3 162.186 92.7273 166.252V137.922C79.6935 134.568 69.4323 124.307 66.0776 111.273H55.6364ZM111.273 37.7483C139.7 41.8145 162.186 64.3 166.252 92.7273H137.922C134.568 79.6935 124.307 69.4323 111.273 66.0776V55.6364V37.7483ZM166.252 111.273H137.922C134.568 124.307 124.307 134.568 111.273 137.922V166.252C139.7 162.186 162.186 139.7 166.252 111.273Z" fill="#D9DAE6"/>
</svg>
