<svg fill="none" xmlns="http://www.w3.org/2000/svg" viewBox="0 0 320 220"><path d="M152.9 167.5l-16.7 12.3 1.1 7.4 44.1-.5 12.5-7.7 1.2-12.9-42.2 1.4zM247.9 166.1c2.7 1.3 10.2 4.3 14 0 3.8-4.3 6.1-13.7-4.6-15.5-10.7-1.7-16 12.2-9.4 15.5zM248.2 178.4l4.2 3.7s-14.5 2-11.5 9.5 10.5 12.4 15 8.8c4.5-3.6 5.1-6.9 5.1-6.9l4.1 5.6 19.7-14.6s11.2.8 15.7-.7c3.9-1.3-4.8-17-8.9-20.2-3.5-2.8-9.3 13.6-9.3 13.6-.2 5-11.7-9.5-11.2-10.6.5-1.1-22.9 11.8-22.9 11.8zM267.4 129c1.7-2.1 4.4-9.9 11.2-7.8 6.8 2.1 9 3.8 9.4 7.1.3 3.3-2.4 11.5-11.2 12-8.8.5-10.9-9.4-9.4-11.3zM15.6 164c2.1-1.9 8-13.3 26.5-6.3 18.5 7 4.3 26.8 1.8 28-5.6 2.6-19.9 9.1-27.5-4-6.5-11.1-.8-17.7-.8-17.7z" fill="#fff"/><path fill-rule="evenodd" clip-rule="evenodd" d="M176.3 93.3l3-2.6 11.3-3.3.8 6.4 4 3 3.1-5.2 4.9-.8 7.2 8.1-2.6 5.8 1.5 5.1 6.9.9-.7 11.7-3.6 3.4-4.1-1-2 3.2 2.3 4.6-14.2 6.1-1.4-7.3-4.4-1.2-1.7 4.2s-5.2 1.6-5.3.5c-.1-1.1-7.2-6.8-7.2-6.8l5.5-6.6s-4.8-.9-3.4-7.3l-7.1.1-.3-9.4 3.5-2.9 5.3.9 1.5-3.2-2.8-6.4z" fill="#fff"/><path d="M291.4 175.7c-.4 0-.6-.4-.7-.6-.6-1.6-.8-3.3-.9-4.9-.1-1.3-.2-2.5-.6-3.7-.1-.3.1-.5.3-.6.3-.1.5.1.6.3.1.2.1.5.2.7 0-.1 0-.2.1-.2.1-.2.4-.4.6-.4.5.1 1.5 1.8 1.7 2.4.9 2 1 4.4.4 6.3-.1.3-.4.4-.6.3-.3-.1-.4-.4-.3-.6.5-1.6.4-3.8-.4-5.5v-.1c0-.1-.2-.3-.3-.6 0 .1.1.3.1.4 0 .2.1.4.1.5.3 1.6.3 3.4.3 5.1 0 .6 0 1.2-.5 1.3 0-.1 0-.1-.1-.1zm-.6-5.9v.2c0 .5.1 1.1.2 1.6-.1-.6-.1-1.2-.2-1.8zM293.3 180.7c-.3 0-.6-.1-.9-.3-.5-.4-.8-1.1-.7-1.9 0-.3.3-.5.6-.4h.1c.2-.1.4-.3.6-.3.2-.1.4-.3.6-.3.4-.1.6.1.7.2 0 .1.1.1.1.2.3.2.5.6.5 1.1 0 .7-.3 1.3-.9 1.6-.2.1-.5.1-.7.1zm-.3-1c.2.1.4.1.5 0 .2-.1.3-.3.3-.7-.1.2-.4.5-.8.7z" fill="#000"/><path d="M295.2 184.8c-1.4 0-3-.1-4.4-.1-1.4-.1-2.7-.1-3.7-.1-2.8.1-4.5-.4-5.3-1.5-1-1.4-.3-3.4.5-5.9l.3-.8c.1-.4.3-.9.4-1.4 1.6-5 4-12.5 8-12.5 2.8 0 5.5 5.9 8.1 11.6 1 2.2 2 4.3 2.8 5.6.8 1.2.9 2.3.4 3.1-.8 1.7-3.7 2-7.1 2zm-7.7-1.2c.9 0 2.1 0 3.3.1 3.9.2 9.8.4 10.8-1.3.3-.5.1-1.2-.4-2.1-.8-1.4-1.8-3.5-2.9-5.7-2.2-4.6-5.1-11-7.2-11-3.3 0-5.6 7.4-7.1 11.8-.2.5-.3 1-.5 1.4l-.3.8c-.7 2.1-1.4 4-.7 5 .6.8 2 1.1 4.4 1.1.3-.1.5-.1.6-.1zM254 165.5c-.7 0-1.3-1-4.9-7.7-.1-.2 0-.5.2-.7.2-.1.5 0 .7.2 1.4 2.6 3.1 5.8 3.8 6.9 0-.3.1-.7.1-1.1.1-2.5.3-7.1 3.6-9.8 2.3-1.8 5.6-2.4 9.9-1.7.3 0 .5.3.4.6 0 .3-.3.5-.6.4-4-.6-7.1-.1-9.1 1.5-2.9 2.4-3.1 6.5-3.2 9-.1 1.5-.1 2.2-.7 2.4h-.2z" fill="#000"/><path d="M254.5 169.4c-4 0-7.5-2-9.3-5.2-1.7-3.1-1.4-6.8.8-10.2 3.9-5.1 11.4-5.8 17.1-1.6 2.8 2.1 3.8 5.8 2.6 9.4-1.2 3.5-4.8 7.6-11.2 7.6zm-7.7-14.8c-2 3.1-2.2 6.4-.7 9.1 1.6 2.9 4.8 4.7 8.4 4.7 5.8 0 9.1-3.7 10.2-6.9 1.1-3.3.2-6.5-2.2-8.3-5.2-3.9-12.1-3.3-15.7 1.4zM276.3 136.5c-.7 0-1.3-1-4.9-7.7-.1-.2 0-.5.2-.7.2-.1.5 0 .7.2 1.4 2.6 3.1 5.8 3.8 6.9 0-.3 0-.7.1-1.1.1-2.5.3-7.1 3.6-9.8 2.3-1.8 5.6-2.4 9.9-1.7.3 0 .5.3.4.6 0 .3-.3.5-.6.4-4-.6-7.1-.1-9.1 1.5-2.9 2.4-3.1 6.5-3.2 9-.1 1.5-.1 2.2-.7 2.4h-.2z" fill="#000"/><path d="M276.8 140.4c-4 0-7.5-2-9.3-5.2-1.7-3.1-1.4-6.8.8-10.2 3.9-5.1 11.4-5.8 17.1-1.6 2.8 2.1 3.8 5.8 2.6 9.4-1.2 3.5-4.8 7.6-11.2 7.6zm-7.7-14.8c-2 3.1-2.2 6.4-.7 9.1 1.6 2.9 4.8 4.7 8.4 4.7 5.8 0 9.1-3.7 10.2-6.9 1.1-3.3.2-6.5-2.2-8.3-5.2-3.9-12.1-3.3-15.7 1.4z" fill="#000"/><path d="M193.9 77.4c6.8 1.8 26.8 4.7 27.9 4.6 5.3-7.5 31.5-31.1 15.3-44.5-26-21.6-48.3-9.8-53.9-4.6-6.9 6.4-13.5 32.3-11.9 35.1 1.6 2.8 15.8 7.6 22.6 9.4z" fill="url(#paint0_linear)"/><path d="M214 114.8c-.2 0-.3-.1-.4-.2-9.7-13 2-26.7 13.4-39.8 9-10.4 17.4-20.2 15.5-29.4-1.2-5.7-6.5-10.6-16.1-15-12.7-5.8-24.8-6.7-34.3-2.6-7.8 3.4-13.4 10.1-16.4 19.8-6.2 19.4-6.4 39.5-.5 56.8.1.3-.1.5-.3.6-.3.1-.5-.1-.6-.3-5.9-17.5-5.8-37.9.5-57.4 3.2-10 8.9-16.8 17-20.4 9.7-4.3 22.2-3.4 35.1 2.6 9.9 4.6 15.4 9.7 16.7 15.7 2.1 9.6-6.5 19.6-15.7 30.2-11.1 12.9-22.6 26.2-13.3 38.6.2.2.1.5-.1.7-.3.1-.4.1-.5.1z" fill="#000"/><path d="M185.5 74.3c13.5 5.3 20.1 6.1 33.4 8.1 1.6-.2 4-.6 3.1-2.1-1.4-2.5-8.3-4.8-11-5.9-8.3-3.5-10-3.9-18.6-6.4-5.5-1.6-13.9-4.5-19.1-3.7-2.1.3-2 2-.5 3.5 3.2 2.8 8.6 4.9 12.7 6.5z" fill="url(#paint1_linear)"/><path d="M217.9 83c-.2 0-.4-.1-.5-.4l-.9-.1c-11.9-1.8-18.5-2.8-31.2-7.8-4.1-1.6-9.6-3.7-12.8-6.7-1-1-1.5-2-1.2-2.9.2-.5.6-1.2 2-1.5 4.6-.7 11.5 1.4 17.1 3 .8.2 1.6.5 2.3.7l1.9.5c7 2 9.1 2.6 16.8 5.9.4.2 1 .4 1.6.6 3.3 1.3 8.4 3.3 9.6 5.5.4.6.3 1.1.1 1.4-.3.7-1.3 1-2.4 1.2 0 .3-.3.5-.6.4l-1-.2c-.3 0-.5.1-.6.1-.1.3-.2.3-.2.3zm-42.6-18.4c-.7 0-1.3 0-1.8.1-.4.1-1 .3-1.2.8-.1.5.2 1.2 1 1.9 3 2.8 8.4 4.9 12.4 6.5 12.7 5 19.2 5.9 31.1 7.7l2 .3c.1 0 .3 0 .4-.1.9-.1 2.5-.4 2.7-.9 0-.1 0-.2-.1-.4-1.1-1.9-6.1-3.8-9.1-5-.6-.2-1.2-.5-1.6-.7-7.6-3.2-9.7-3.8-16.6-5.8l-1.9-.6c-.7-.2-1.5-.4-2.3-.7-4.7-1.3-10.7-3.1-15-3.1z" fill="#000"/><path d="M207.1 80.7c-.3 0-.5-.2-.5-.5s.2-.5.5-.5c2.7-.3 5.4-1 8-1.7 1.5-.4 3-.8 4.5-1.1.3-.1.5.1.6.4.1.3-.1.5-.4.6-1.5.3-3 .7-4.4 1.1-2.7.7-5.4 1.4-8.3 1.7zM198 79c-.2 0-.4-.1-.5-.4-.1-.3.1-.5.3-.6 4.6-1.4 9.4-2.8 14.3-3.7.3-.1.5.1.6.4.1.3-.1.5-.4.6-4.8.9-9.5 2.3-14.1 3.7h-.2zM188.5 75.9c-.2 0-.4-.2-.5-.4-.1-.3.1-.5.4-.6 1.6-.4 3.2-.8 4.9-1 4.1-.6 8.2-1.6 12.2-3 .3-.1.5 0 .6.3.1.3 0 .5-.3.6-4 1.4-8.2 2.4-12.4 3-1.6.2-3.2.6-4.7 1-.1.1-.2.1-.2.1zM180.9 72.9c-.2 0-.4-.1-.5-.3-.1-.3 0-.5.3-.6 1.5-.5 3.2-.9 5.3-1.1 4.7-.6 8.6-1.2 12.2-1.9.3-.1.5.1.6.4.1.3-.1.5-.4.6-3.6.7-7.5 1.3-12.2 1.9-2.1.2-3.6.6-5.1 1.1-.1-.1-.1-.1-.2-.1zM173.6 69.5c-.2 0-.4-.2-.5-.4-.1-.3.1-.5.4-.6 4.8-.9 9.7-1.6 14.4-2.1.3 0 .5.2.5.4 0 .3-.2.5-.4.5-4.7.6-9.5 1.3-14.4 2.2.1 0 0 0 0 0z" fill="#000"/><path fill-rule="evenodd" clip-rule="evenodd" d="M208.2 35.4c-2.1 1.2-3.5 3.2-4.1 5.6l-.6 2.2 4.4 1.2.6-2.2c.6-2.4 3-3.8 5.3-3.2 2.3.6 3.7 3.1 3.1 5.5-.6 2.4-3 3.8-5.3 3.2l-12.7-3.5a9 9 0 00-6.8.9c-2.1 1.2-3.5 3.2-4.1 5.6-.6 2.4-.3 4.8.9 7 1.2 2.1 3.1 3.6 5.4 4.3a9 9 0 006.8-.9c2.1-1.2 3.5-3.2 4.1-5.6l.6-2.2-4.4-1.2-.6 2.2c-.6 2.4-3 3.8-5.3 3.2-2.3-.6-3.7-3.1-3.1-5.5.3-1.2 1.1-2.1 2-2.7 1-.6 2.1-.8 3.3-.4l12.8 3.5a9 9 0 006.8-.9c2.1-1.2 3.5-3.2 4.1-5.6.6-2.4.3-4.8-.9-7-1.2-2.1-3.1-3.6-5.4-4.3-2.4-.8-4.8-.5-6.9.8z" fill="#F9F9F9"/><path fill-rule="evenodd" clip-rule="evenodd" d="M180.2 100.4c.2.3.1.6-.2.8-.8.5-1.6 1.3-2.1 2.1-.3.4-.5.8-.7 1.1-.2.4-.2.6-.2.8 0 .3-.2.6-.6.6-.3 0-.6-.2-.6-.6 0-.4.1-.8.3-1.2.2-.4.5-.9.8-1.3.7-.9 1.5-1.7 2.4-2.3.4-.3.7-.3.9 0z" fill="#000"/><path fill-rule="evenodd" clip-rule="evenodd" d="M175.6 93c.3-.1.6 0 .7.3 1 2.1 1.9 4.2 2.8 6.4 0 .1.1.1.1.2.2.4.4.8.4 1.3.1.3-.1.6-.4.7-.3.1-.6-.1-.7-.4-.1-.3-.2-.6-.4-1 0-.1-.1-.2-.1-.3-.9-2.1-1.9-4.2-2.8-6.4 0-.4.2-.7.4-.8zM186.1 89.5c.3-.1.6.1.7.4l1.5 5.4c.1.3-.1.6-.4.7-.3.1-.6-.1-.7-.4l-1.5-5.4c-.1-.3.1-.6.4-.7z" fill="#000"/><path fill-rule="evenodd" clip-rule="evenodd" d="M186.9 96.1c0-.3.3-.5.6-.5 2.4 0 4.9.8 6.7 2.5.2.2.2.6 0 .8-.2.2-.6.2-.8 0-1.5-1.4-3.9-2.2-6-2.2-.2 0-.5-.3-.5-.6z" fill="#000"/><path fill-rule="evenodd" clip-rule="evenodd" d="M198.3 90.8c.3.2.4.5.2.8-1.6 2.7-3.2 5.5-4.8 8.2-.2.3-.5.3-.8.2-.3-.2-.3-.5-.2-.8 1.6-2.7 3.3-5.4 4.8-8.2.2-.3.5-.4.8-.2zM206.5 100.4c.2.2.3.5.1.8 0 .1-.1.1-.1.2-1.4 2-2.9 4-4.3 5.9-.2.2-.5.3-.8.1-.2-.2-.3-.5-.1-.8 1.5-2 2.9-3.9 4.3-5.9 0-.1.1-.1.1-.2.2-.2.6-.3.8-.1zM211.5 98.8c.3.2.3.5.1.8-1 1.5-2.2 2.9-3.3 4.3-.3.4-.6.8-.9 1.1-.2.2-.5.3-.8.1-.2-.2-.3-.5-.1-.8l.9-1.2c1.1-1.4 2.2-2.8 3.2-4.2.3-.2.6-.2.9-.1z" fill="#000"/><path fill-rule="evenodd" clip-rule="evenodd" d="M206.8 104.7c.2-.2.6-.2.8.1 1.1 1.2 1.7 2.7 2.3 4 .1.2.2.3.2.5.1.3 0 .6-.3.7-.3.1-.6 0-.7-.3-.1-.2-.2-.3-.2-.5-.6-1.4-1.2-2.7-2.2-3.8-.2-.2-.1-.5.1-.7zM200.9 105.5c.3-.2.6-.1.8.2.1.1.2.3.3.4 1.3 2 3 4.6 3.3 7.2 0 .3-.2.6-.5.6s-.6-.2-.6-.5c-.3-2.4-1.8-4.7-3.2-6.8-.1-.1-.1-.2-.2-.3-.2-.3-.2-.7.1-.8z" fill="#000"/><path fill-rule="evenodd" clip-rule="evenodd" d="M203.8 113.2c0-.3.3-.5.6-.5 2.3.1 4.7.4 7 .7.3 0 .5.3.5.6s-.3.5-.6.5c-2.3-.3-4.6-.6-6.9-.7-.3 0-.6-.2-.6-.6z" fill="#000"/><path fill-rule="evenodd" clip-rule="evenodd" d="M212.4 111.8c.3 0 .5.3.5.6-.1 3-.4 6.1-.7 9.1-.1 1.4-.3 2.8-.4 4.2 0 .3-.3.5-.6.5s-.5-.3-.5-.6c.1-1.4.3-2.8.4-4.3.3-3 .6-6 .7-9 .1-.3.3-.6.6-.5z" fill="#000"/><path fill-rule="evenodd" clip-rule="evenodd" d="M204.7 124.3c.1-.3.3-.5.6-.5 2.4.4 4.9.6 7.4.8h.1c.3 0 .5.3.5.6s-.3.5-.6.5h-.1c-2.5-.2-5-.4-7.4-.8-.4-.1-.6-.3-.5-.6z" fill="#000"/><path fill-rule="evenodd" clip-rule="evenodd" d="M205.5 121.3c.3.1.5.4.4.7-.4 1.5-1.1 2.7-1.9 3.9-.3.4-.5.8-.8 1.2-.5.8-1 1.5-1.5 2.3-.2.3-.5.4-.8.2-.3-.1-.4-.5-.2-.8.5-.8 1-1.7 1.6-2.5.3-.4.5-.8.8-1.1.8-1.2 1.4-2.3 1.8-3.6 0-.2.3-.4.6-.3z" fill="#000"/><path fill-rule="evenodd" clip-rule="evenodd" d="M200.2 127.9c.3-.2.6-.1.8.2.4.7.9 1.5 1.3 2.2.2.4.4.7.6 1.1.6 1.1 1.3 2.1 2.1 2.9.2.2.2.6 0 .8-.2.2-.6.2-.8 0-.9-.9-1.6-2.1-2.3-3.2l-.6-1.2-1.2-2.1c-.2-.2-.1-.5.1-.7zM191.9 131.2c.3-.1.6.1.7.4.6 2.2 1.2 4.3 1.8 6.5.1.3-.1.6-.4.7-.3.1-.6-.1-.7-.4-.6-2.2-1.2-4.3-1.8-6.5 0-.3.1-.7.4-.7z" fill="#000"/><path fill-rule="evenodd" clip-rule="evenodd" d="M203.6 134.2c.1.3 0 .6-.2.8-1.4.8-2.9 1.5-4.4 2.3-.1 0-.1.1-.2.1-1.4.7-2.8 1.4-4.1 2.2-.3.1-.6 0-.8-.2-.1-.3 0-.6.2-.7 1.4-.7 2.8-1.5 4.2-2.2.1 0 .1-.1.2-.1 1.5-.8 2.9-1.5 4.4-2.3.2-.3.6-.2.7.1zM208.8 133.6c-1.4 0-3 .6-4.4 1.2-.3.1-.6 0-.7-.3-.1-.3 0-.6.3-.7 1.4-.6 3.1-1.3 4.8-1.3.3 0 .6.2.6.6 0 .4-.3.5-.6.5z" fill="#000"/><path fill-rule="evenodd" clip-rule="evenodd" d="M204.8 126.6c.3-.1.6 0 .7.2.3.7.7 1.3 1 2 .4.9.9 1.7 1.3 2.6 0 0 0 .1.1.1.2.3.3.7.4 1.1.1.3-.1.6-.4.7-.3.1-.6-.1-.7-.4-.1-.3-.2-.5-.3-.9 0 0 0-.1-.1-.1-.4-.9-.9-1.7-1.3-2.5-.3-.7-.7-1.3-1-2-.1-.3.1-.6.3-.8z" fill="#000"/><path fill-rule="evenodd" clip-rule="evenodd" d="M207.7 124.1c.3.1.4.5.3.7-.3.7-.7 1.4-1.1 2-.4.6-.8 1.2-1.1 1.9-.1.3-.5.4-.7.3-.3-.1-.4-.5-.3-.7.3-.7.7-1.3 1.1-2 .4-.6.8-1.2 1.1-1.9.1-.3.4-.4.7-.3zM216.4 122.6c.1.3.1.6-.2.8-.4.2-.8.5-1.2.7-1 .5-1.9 1.1-2.9 1.7-.3.2-.6.1-.8-.2-.2-.3-.1-.6.2-.8 1-.6 2-1.2 3-1.7.4-.2.8-.4 1.2-.7.2-.2.5-.1.7.2zM216.4 110.5c.2.2.2.6 0 .8-.9.9-1.9 1.6-2.9 2.4l-1.2.9c-.2.2-.6.1-.8-.1-.2-.2-.1-.6.1-.8.4-.3.9-.6 1.3-1 1-.7 1.9-1.4 2.7-2.2.2-.2.6-.2.8 0zM210.2 109.2c.2.2.1.6-.1.8-.4.3-.9.6-1.3 1-1.2.9-2.4 1.8-3.7 2.5-.3.2-.6.1-.8-.2-.2-.3-.1-.6.2-.8 1.2-.7 2.4-1.6 3.6-2.4.5-.3.9-.7 1.4-1 .2-.2.6-.1.7.1z" fill="#000"/><path fill-rule="evenodd" clip-rule="evenodd" d="M208.8 110.2c.1-.3.4-.5.7-.4 1.4.4 2.9.6 4.4.7h.2c.4 0 .8.1 1.2.2.3.1.4.4.3.7-.1.3-.4.4-.7.3-.3-.1-.5-.1-.9-.2h-.3c-1.5-.2-3-.4-4.6-.8-.2.1-.3-.2-.3-.5z" fill="#000"/><path fill-rule="evenodd" clip-rule="evenodd" d="M215.9 110.1c.3 0 .5.3.5.6-.1 1.2-.1 2.5-.1 3.9-.1 3.4-.2 7.1-.6 10 0 .3-.3.5-.6.5s-.5-.3-.5-.6c.3-2.9.4-6.5.5-9.9 0-1.4.1-2.7.1-3.9.1-.4.4-.6.7-.6zM212.4 98.2c.1.3 0 .6-.2.7-2.2 1.1-5 2.2-6.7 2.8-.3.1-.6-.1-.7-.4-.1-.3.1-.6.4-.7 1.6-.5 4.4-1.6 6.6-2.7.1-.1.4 0 .6.3z" fill="#000"/><path fill-rule="evenodd" clip-rule="evenodd" d="M197.5 92c.2-.2.6-.2.8 0l.4.4c2.6 2.6 5.3 5.3 7.6 8.2.2.2.2.6-.1.8-.2.2-.6.2-.8-.1-2.3-2.9-4.9-5.5-7.6-8.1l-.4-.4c-.1-.2-.1-.6.1-.8zM202.1 89.8c.2-.2.6-.2.8 0 1.4 1.4 3.1 3.2 4.7 4.9l.3.3c1.5 1.6 2.9 3.2 3.9 4.2.2.2.2.6 0 .8-.2.2-.6.2-.8 0-1.1-1.1-2.5-2.6-4-4.2l-.3-.3c-1.6-1.7-3.2-3.5-4.6-4.9-.3-.3-.3-.6 0-.8z" fill="#000"/><path fill-rule="evenodd" clip-rule="evenodd" d="M203.6 90c.2.3.1.6-.2.8-1.8 1.1-3.5 1.8-5.5 2.4-.3.1-.6-.1-.7-.4-.1-.3.1-.6.4-.7 1.9-.5 3.6-1.3 5.3-2.3.2-.1.6 0 .7.2zM190 87.4c.3-.1.6.1.7.4.5 2.1.8 4.3 1.1 6.4 0 .3-.2.6-.5.6s-.6-.2-.6-.5c-.3-2.1-.7-4.2-1.1-6.3-.1-.2.1-.5.4-.6z" fill="#000"/><path fill-rule="evenodd" clip-rule="evenodd" d="M190.4 94.3c.1-.3.4-.5.7-.4.1 0 .2.1.4.1.6.1 1.3.3 1.9.5.8.3 1.5.7 2.1 1.5.2.3.1.6-.1.8-.2.2-.6.1-.8-.1-.4-.5-.9-.8-1.5-1.1-.5-.2-1.1-.3-1.7-.4-.1 0-.3-.1-.4-.1-.5-.2-.6-.5-.6-.8zM187.5 90.4c.1.3-.1.6-.4.7-4.1 1.1-8.4 2.2-12.2 4-.3.1-.6 0-.7-.3-.1-.3 0-.6.3-.7 3.9-1.8 8.3-3 12.4-4 .2-.1.5 0 .6.3z" fill="#000"/><path fill-rule="evenodd" clip-rule="evenodd" d="M181.8 88.1c.2.2.2.6 0 .8-.7.7-1.4 1.5-2.1 2.2-1.3 1.4-2.6 2.7-4 3.9-.2.2-.6.2-.8-.1-.2-.2-.2-.6.1-.8 1.3-1.2 2.6-2.4 3.9-3.8.7-.7 1.4-1.5 2.2-2.3.1-.1.5-.1.7.1z" fill="#000"/><path fill-rule="evenodd" clip-rule="evenodd" d="M191.4 87.9c0 .3-.2.6-.5.6-1.4.2-3.5.6-5.6 1-.3.1-.5.1-.8.2-1.9.4-3.7.8-5.2 1-.3.1-.6-.2-.6-.5-.1-.3.2-.6.5-.6 1.4-.2 3.3-.6 5.2-1 .3-.1.5-.1.8-.2 2.1-.4 4.2-.9 5.7-1.1.2.1.4.3.5.6z" fill="#000"/><path fill-rule="evenodd" clip-rule="evenodd" d="M190.6 87.4c.2.2.1.6-.1.8-1.5 1.1-2.9 2.3-4.2 3.7-.2.2-.6.2-.8 0-.2-.2-.2-.6 0-.8 1.4-1.3 2.8-2.7 4.4-3.8.2-.3.5-.2.7.1zM167.6 104.5c0-.3.3-.5.6-.5s.6 0 .9.1c2.4.2 5.5.5 8 .5.3 0 .6.2.6.6 0 .3-.2.6-.6.6-2.5 0-5.7-.3-8.1-.5-.3 0-.6-.1-.9-.1-.3-.1-.6-.4-.5-.7z" fill="#000"/><path fill-rule="evenodd" clip-rule="evenodd" d="M169.2 102.9c-.3 0-.6.2-.6.6v12.2c0 .3.2.6.6.6.3 0 .6-.2.6-.6v-12.2c0-.4-.3-.6-.6-.6z" fill="#000"/><path fill-rule="evenodd" clip-rule="evenodd" d="M172.5 115.4h-3.3c-.3 0-.6-.2-.6-.5s.2-.6.5-.6h6.7c.3 0 .6.2.6.5s-.2.6-.5.6H172.5z" fill="#000"/><path fill-rule="evenodd" clip-rule="evenodd" d="M175.6 113.7c.3 0 .6.2.6.5.1 1.8.4 3.1.8 4.3.4 1.2 1.1 2.2 2.1 3.4.2.2.2.6 0 .8-.2.2-.6.2-.8 0-1.1-1.2-1.8-2.4-2.3-3.7-.5-1.3-.7-2.8-.9-4.6-.1-.4.1-.7.5-.7z" fill="#000"/><path fill-rule="evenodd" clip-rule="evenodd" d="M179.5 120.7c.2.2.3.5.1.8-.9 1.1-1.8 2.2-2.8 3.3-.1.1-.2.2-.2.3-.9 1-1.7 2-2.5 3-.2.2-.5.3-.8.1-.2-.2-.3-.5-.1-.8.8-1 1.7-2 2.5-3.1.1-.1.2-.2.2-.3.9-1.1 1.9-2.2 2.8-3.3.3-.1.6-.2.8 0z" fill="#000"/><path fill-rule="evenodd" clip-rule="evenodd" d="M173.8 125.6c.2-.2.6-.2.8.1.9 1 1.8 2.1 2.7 3.1l.1.1c.9 1 1.7 2 2.6 3 .6.7 1.1 1.2 1.8 1.8.2.2.3.5.1.8-.2.2-.5.3-.8.1-.8-.6-1.4-1.2-2-1.9-.9-1-1.7-2-2.6-3l-.1-.1c-.9-1-1.8-2.1-2.6-3.1-.2-.4-.2-.7 0-.9z" fill="#000"/><path fill-rule="evenodd" clip-rule="evenodd" d="M187.2 127.7c.2.2.2.6 0 .8-.9.8-1.7 1.7-2.6 2.5-1 1-2.1 2-3.1 3-.2.2-.6.2-.8 0-.2-.2-.2-.6 0-.8 1-1 2.1-2 3.1-3 .9-.8 1.7-1.7 2.6-2.5.2-.2.6-.2.8 0z" fill="#000"/><path fill-rule="evenodd" clip-rule="evenodd" d="M185.7 128.6c.2-.2.5-.3.8-.1.9.7 1.9 1.5 3 2.1 1.1.6 2.2 1 3.2.8.3-.1.6.2.6.5.1.3-.2.6-.5.6-1.4.2-2.7-.3-3.9-.9-1.2-.7-2.3-1.6-3.2-2.2-.2-.2-.2-.6 0-.8zM186.6 133.3c.1.3-.1.6-.3.7-1.7.6-3.3.7-5 .9-.3 0-.6-.2-.6-.5s.2-.6.5-.6c1.7-.1 3.2-.3 4.7-.8.3-.1.6 0 .7.3z" fill="#000"/><path fill-rule="evenodd" clip-rule="evenodd" d="M189 130.8c.1.3-.1.6-.4.7-.2 0-.4.1-.6.3-.2.2-.4.5-.6.8-.3.6-.6 1.3-.8 1.8 0 0 0 .1-.1.1-.1.3-.4.4-.7.3-.3-.1-.4-.4-.3-.7 0 0 0-.1.1-.1.2-.5.5-1.3.8-2 .2-.4.5-.8.8-1.1.3-.3.7-.6 1.1-.7.4.1.7.3.7.6zM174 99.7c.2.2.3.5.1.8-1.4 1.6-2.8 3.2-4.5 4.5-.2.2-.6.1-.8-.1-.2-.2-.1-.6.1-.8 1.6-1.2 3-2.7 4.3-4.3.2-.3.6-.3.8-.1z" fill="#000"/><path fill-rule="evenodd" clip-rule="evenodd" d="M169.8 101.1c.1-.3.4-.5.7-.4 1.3.3 4.2.7 6.1 1 .4.1.8.1 1.1.1.3 0 .5.3.5.6s-.3.5-.6.5-.6-.1-1-.1c-1.9-.3-4.9-.7-6.2-1-.5-.1-.7-.4-.6-.7zM183.5 106.2c.3 0 .6.2.6.6 0 2.5-.1 4.5-.2 6.3v.2c-.1 1.8-.2 3.6-.2 5.7 0 .3-.2.6-.6.6-.4 0-.6-.2-.6-.6 0-2.2.1-3.9.2-5.7v-.2c.1-1.9.2-3.8.2-6.3 0-.3.3-.6.6-.6z" fill="#000"/><path fill-rule="evenodd" clip-rule="evenodd" d="M182 116.1c.2-.2.6-.2.8 0 2 2.2 4 4.4 6.2 6.3.2.2.2.6 0 .8-.2.2-.6.2-.8 0-2.2-2-4.3-4.2-6.3-6.4-.1-.2-.1-.5.1-.7z" fill="#000"/><path fill-rule="evenodd" clip-rule="evenodd" d="M198 120.5c.1.3-.1.6-.4.7-3.9 1.1-6.7 1.7-10.6 2.2-.3 0-.6-.2-.6-.5s.2-.6.5-.6c3.9-.6 6.6-1.1 10.4-2.2.3-.1.6.1.7.4z" fill="#000"/><path fill-rule="evenodd" clip-rule="evenodd" d="M198.7 110.1c.3 0 .5.3.5.6l-.9 5.1c-.1.3-.1.7-.2 1-.4 2-.7 4.1-1 6.1 0 .3-.3.5-.6.5s-.5-.3-.5-.6c.3-2.1.6-4.1 1-6.2.1-.3.1-.7.2-1l.9-5.1c0-.2.3-.4.6-.4z" fill="#000"/><path fill-rule="evenodd" clip-rule="evenodd" d="M189.6 103.6c.2-.2.6-.2.8.1 1 1.2 2 2.3 3 3.5 1.9 2.2 3.9 4.5 5.7 6.8.2.2.2.6-.1.8-.2.2-.6.2-.8-.1-1.8-2.3-3.8-4.5-5.7-6.7-1-1.2-2-2.3-3-3.5-.1-.4-.1-.7.1-.9z" fill="#000"/><path fill-rule="evenodd" clip-rule="evenodd" d="M193.5 104.7c.1.3 0 .6-.3.7-3.5 1.6-7.1 2.8-10.7 4-.5.2-.9.3-1.4.5-.3.1-.6-.1-.7-.3-.1-.3.1-.6.3-.7.5-.2.9-.3 1.4-.5 3.6-1.2 7.2-2.4 10.6-4 .4-.1.7.1.8.3z" fill="#000"/><path fill-rule="evenodd" clip-rule="evenodd" d="M188.1 106.2c.3 0 .6.2.6.6v8.9c0 .3-.2.6-.6.6-.3 0-.6-.2-.6-.6v-8.9c0-.3.2-.6.6-.6z" fill="#000"/><path fill-rule="evenodd" clip-rule="evenodd" d="M187.2 115.2c.2-.2.6-.2.8 0 1.8 1.8 3.2 2.9 5 4.3l1.5 1.2c.2.2.3.5.1.8-.2.2-.5.3-.8.1l-1.5-1.2c-1.8-1.4-3.2-2.6-5.1-4.4-.2-.2-.2-.5 0-.8z" fill="#000"/><path fill-rule="evenodd" clip-rule="evenodd" d="M189.2 114.4c.2.2.3.6.1.8-.8 1-2.1 1.5-3.4 1.9-.8.2-1.7.4-2.4.6-.4.1-.8.2-1.2.2-.3.1-.6-.1-.7-.4-.1-.3.1-.6.4-.7.4-.1.8-.2 1.3-.3.7-.1 1.5-.3 2.2-.5 1.2-.3 2.2-.8 2.8-1.5.4-.3.7-.3.9-.1zM191.4 93.8c.1.3.1.6-.2.8-1.1.6-2.2 1.2-3.3 1.9-.3.2-.6.1-.8-.2-.2-.3-.1-.6.2-.8 1.1-.7 2.2-1.3 3.3-2 .4-.1.7 0 .8.3zM208.3 104c.1.3 0 .6-.3.7-2.2 1-4.4 2-6.7 2.8-.3.1-.6-.1-.7-.4-.1-.3.1-.6.4-.7 2.2-.7 4.4-1.7 6.6-2.7.3 0 .6.1.7.3z" fill="#000"/><path d="M201.1 96.1c-.2 0-.4-.1-.5-.3-.1-.3 0-.5.3-.6l2.4-.9c.8-.3 1.6-.5 2.4-.8.3-.1.5 0 .6.3.1.3 0 .5-.3.6l-2.4.9c-.8.3-1.6.5-2.4.8h-.1zM203.6 99.5c-.2 0-.4-.1-.5-.3-.1-.3 0-.5.3-.6 2-.8 3.8-1.4 5.6-2.2.3-.1.5 0 .7.3.1.3 0 .5-.3.7-1.8.7-3.6 1.5-5.6 2.2-.1-.1-.1-.1-.2-.1zM183.6 112.4c-.2 0-.4-.2-.5-.4-.1-.3.1-.5.4-.6l.6-.1c1.1-.3 2.3-.5 3.3-.8.3-.1.5.1.6.3.1.3-.1.5-.3.6-1.1.3-2.3.6-3.4.9l-.6.1h-.1zM186.2 120.3c-.2 0-.4-.1-.5-.4-.1-.3.1-.5.3-.6 1.2-.4 3.1-1 5-1.4.3-.1.5.1.6.4.1.3-.1.5-.4.6-1.9.4-3.7 1-5 1.4.1 0 0 0 0 0zM200.9 129.4c-.2 0-.5-.2-.5-.4 0-.3.2-.5.4-.6 1.6-.2 3.2-.4 4.6-1.2.2-.1.5-.1.7.2.1.2.1.5-.2.7-1.6.9-3.3 1.1-5 1.3zM212.3 119.7c-.2 0-.4-.1-.4-.3-.1-.2 0-.5.2-.7l.6-.3c1-.5 1.9-.9 2.7-1.6.2-.2.5-.2.7 0 .2.2.2.5 0 .7-.9.8-1.9 1.3-2.9 1.8l-.6.3c-.1.1-.2.1-.3.1zM181.2 92.5c-.2 0-.3-.1-.4-.2-.2-.2-.1-.5.1-.7 1.2-.8 2.2-1.6 3.1-2.3.2-.2.5-.1.7.1.2.2.1.5-.1.7-.9.7-1.9 1.5-3.1 2.3-.1.1-.2.1-.3.1zM55.7 177.1h-5.6c-.3 0-.5-.2-.5-.5s.2-.5.5-.5h3c10 0 15.1 0 23-2-1-.5-1.9-1.2-2.2-2.1-.3-.8-.2-1.6.2-2.3 1.6-2.9 8-4.5 10.2-5l.3-.1c.1 0 11.6-2.8 13.1-.9.2.2.4.6.1 1.2-1.3 2.6-5.1 5-11.2 7.1-2.4.8-4.5 1.5-6.5 2.1 1.3.2 2.6.2 3.6.3.6 0 1.1 0 1.5.1 9.4.6 18.6.8 27.4.5 5.1-.2 9-.6 12.4-.9 5.7-.6 10.6-1 18.8-.4.3 0 .5.3.5.5s-.3.5-.5.5c-8.1-.6-12.9-.1-18.6.4-3.4.3-7.3.7-12.4.9-8.9.3-18.1.1-27.6-.5-.4 0-.9 0-1.4-.1-1.6-.1-3.9-.1-5.8-.6-8.2 2.1-13.3 2.3-22.3 2.3zM95.3 164c-2.5 0-7.2.8-10.5 1.6l-.3.1c-5.4 1.3-8.6 2.9-9.5 4.5-.3.5-.3 1-.1 1.5.4 1 1.6 1.6 3 2 2.4-.7 5.2-1.5 8.4-2.6 5.8-1.9 9.4-4.2 10.6-6.6.1-.1.1-.2.1-.2-.2-.2-.8-.3-1.7-.3z" fill="#000"/><path d="M137.1 179.6c-.1 0-.3-.1-.4-.2-.2-.2-.1-.5.1-.7 1.6-1.3 3.4-2.6 5.3-4.1 3.4-2.6 7-5.3 10.2-7.9.2-.2.5-.1.7.1.2.2.1.5-.1.7-3.2 2.6-6.8 5.3-10.2 7.9-1.9 1.4-3.7 2.8-5.3 4.1-.1.1-.2.1-.3.1z" fill="#000"/><path d="M198.1 168.6h-51.2c-.3 0-.5-.2-.5-.5s.2-.5.5-.5h51.2c.3 0 .5.2.5.5s-.2.5-.5.5zM151 179.5c-5.5 0-10.9 0-16.4-.2-.3 0-.5-.2-.5-.5s.2-.5.5-.5c10.9.3 21.9.2 32.7.1 5.4 0 10.9-.1 16.3-.1.3 0 .5.2.5.5s-.2.5-.5.5c-5.4 0-10.9 0-16.3.1-5.4 0-10.9.1-16.3.1z" fill="#000"/><path d="M180.5 179.2c-.2 0-.3-.1-.4-.2-.2-.2-.1-.5.1-.7l3.3-2.4c4.5-3.2 9.2-6.5 13.3-10.2.2-.2.5-.2.7 0 .2.2.2.5 0 .7-4.2 3.7-8.9 7-13.4 10.3l-3.3 2.4c-.1.1-.2.1-.3.1zM136.8 187.8c-.2 0-.4-.2-.5-.4-.5-2.5-.3-5-.1-7.6l.1-1c0-.3.3-.5.5-.5.3 0 .5.3.5.5l-.1 1c-.2 2.5-.4 4.9.1 7.3 0 .4-.1.6-.5.7.1 0 0 0 0 0z" fill="#000"/><path d="M161.8 188.1c-8.1 0-16.3-.1-25.9-.3-.3 0-.5-.2-.5-.5s.2-.5.5-.5c17.5.3 30.2.5 46.1 0 .3 0 .5.2.5.5s-.2.5-.5.5c-7.1.2-13.6.3-20.2.3z" fill="#000"/><path d="M181.1 189.1c-.3 0-.5-.2-.5-.5v-10.5c0-.3.2-.5.5-.5s.5.2.5.5v10.5c0 .3-.2.5-.5.5zM194.6 178.4c-.3 0-.5-.2-.5-.5v-11.8c0-.3.2-.5.5-.5s.5.2.5.5v11.8c0 .3-.2.5-.5.5z" fill="#000"/><path d="M180.6 188.3c-.2 0-.3-.1-.4-.2-.2-.2-.1-.5.1-.7l3.3-2.4c5.3-3.7 10.7-7.6 15.3-12.2.2-.2.5-.2.7 0 .2.2.2.5 0 .7-4.7 4.7-10.1 8.5-15.4 12.3l-3.3 2.4c-.1.1-.2.1-.3.1z" fill="#000"/><path d="M251.7 177.1s-.1 0 0 0c-.9-.1-1.9-.3-3-.4-2.6-.3-5.7-.6-8.4-1.5-2.1.7-4.5.9-6.5 1.1h-.3c-5.3.4-11 .5-18.6.1-1.5-.1-3.1-.2-4.7-.2-6.3-.4-13.5-.8-21 .6-.3 0-.5-.1-.6-.4-.1-.3.1-.5.4-.6 7.7-1.5 14.9-1 21.2-.7 1.6.1 3.2.2 4.7.2 7.5.4 13.2.3 18.4-.1h.3c1.6-.1 3.3-.3 5-.7-1.6-.7-2.9-1.6-3.6-2.9-.3-.6-.2-1.1-.1-1.4.8-1.6 4.6-2 4.6-2 2-.2 4.5.5 5.2 2 .3.7.3 1.8-1.3 3.2-.5.4-1.1.8-1.7 1.1 2.3.6 4.9.9 7 1.1 1.2.1 2.2.2 3 .4.3 0 .5.3.4.6.1.3-.2.5-.4.5zm-11.4-7.8h-.6c-1.1.1-3.5.7-3.9 1.5-.1.1-.1.2 0 .5.8 1.4 2.4 2.3 4.3 2.9 1-.4 1.8-.8 2.6-1.5.6-.5 1.3-1.3 1-2-.2-.9-1.9-1.4-3.4-1.4z" fill="#000"/><path d="M247 179.7c-.2 0-.4-.1-.5-.3-.1-.2 0-.5.2-.7 7.8-3.7 15.4-8 22.8-12.2l3.6-2c.2-.1.5-.1.7.2.1.2.1.5-.2.7l-3.6 2c-7.4 4.2-15 8.5-22.9 12.2 0 .1 0 .1-.1.1z" fill="#000"/><path d="M282.5 179.1h-.2c-5.7-2.2-8.5-7.4-11.1-12.4l-.3-.6c-.1-.2 0-.5.2-.7.2-.1.5 0 .7.2l.3.6c2.6 4.9 5.2 9.9 10.6 11.9.3.1.4.4.3.6-.1.3-.3.4-.5.4zM265.1 199.1c-.1 0-.3-.1-.4-.2-5.1-5.8-13.3-16.3-16.5-20.5-.2-.2-.1-.5.1-.7.2-.2.5-.1.7.1 3.3 4.2 11.4 14.7 16.5 20.5.2.2.2.5 0 .7-.2.1-.3.1-.4.1z" fill="#000"/><path d="M264.8 199.2c-.1 0-.3-.1-.4-.2-.2-.2-.2-.5.1-.7 3.5-3 7.1-5.5 10.6-7.9 3.2-2.2 6.3-4.3 9.1-6.7.2-.2.5-.1.7.1.2.2.1.5-.1.7-2.9 2.4-5.9 4.5-9.2 6.8-3.5 2.4-7.1 4.9-10.5 7.8-.1.1-.2.1-.3.1zM29.5 181.6c-.3 0-.5-.2-.5-.5v-18.5c0-.3.2-.5.5-.5s.5.2.5.5v18.5c0 .3-.2.5-.5.5z" fill="#000"/><path d="M27 181.6c-.2 0-.3-.1-.4-.2-.2-.2-.1-.5.1-.7 1.6-1.1 3.5-2.4 5.6-3.7 2.5-1.6 5.3-3.4 7.9-5.3.4-.3.4-.4.4-.4-.1-.1-.8-.4-1.4-.6-.7-.3-1.6-.7-2.5-1.2-1.2-.7-2.2-1.2-3.2-1.7-2.5-1.3-4.4-2.4-6.9-4.4-.2-.2-.2-.5-.1-.7.2-.2.5-.2.7-.1 2.4 2 4.3 3 6.7 4.3 1 .5 2 1.1 3.2 1.8.9.5 1.7.8 2.4 1.1 1.1.5 1.9.8 2 1.5.1.5-.4 1-.8 1.3-2.6 1.9-5.4 3.7-7.9 5.3-2.1 1.3-4 2.6-5.6 3.7H27z" fill="#000"/><path d="M32.6 189.4c-2.6 0-5.4-.4-8.1-1.4-5.8-2-8-5.2-10.3-11.3-.2-1.2-.5-3.2-.4-5.3-.1-.1-.2-.2-.2-.3-.8-4.1 2.7-9.1 4.2-11.1 4.2-5.5 14.3-5 18.5-4.5 6.3.8 12.7 6.2 14.4 12.4 1.9 6.6-1.3 12.8-4.8 16.5-3.3 3.3-8.1 5-13.3 5zm-8-32.3c0 .2-.2.3-.3.4-3.9 1.1-5.3 2.5-7.8 6.5-2 3.1-2 9.3-1.3 12.5 2.2 5.8 4.2 8.7 9.7 10.6 7.8 2.6 15.7 1.3 20.3-3.4 3.4-3.4 6.3-9.3 4.6-15.5-1.8-5.8-7.8-10.9-13.8-11.6-2.5-.3-7.2-.6-11.4.5zM269.7 194.6c-.2 0-.4-.1-.4-.3-.1-.2 0-.5.2-.7 2.1-1.1 3.9-2 5.2-3.9 1.1-1.5 2.1-3.1 2.5-4.9.3-1.4.2-2.5-.5-3.7-.3-.7-.6-1-.7-1.1h-.2c-.2 0-.5-.3-.5-.5 0-.3.3-.5.6-.5.1 0 .3.1.4.1h1.2c1.2 0 2.2-.1 3.1-.4h.1c.1 0 .7-.3.9-.4.1-.1.2-.1.4-.1.3 0 .5.2.5.5 0 .6-1.2.9-1.7 1-.9.3-2 .4-3.3.4h-.2c.1.2.2.4.4.7.7 1.3.9 2.7.5 4.3-.4 2-1.6 3.7-2.7 5.3-1.5 2.1-3.5 3.2-5.6 4.3 0-.1-.1-.1-.2-.1zM143.5 187.5c-.1 0-.2 0-.3-.1-1.2-.9-2.4-1.7-3.6-2.5-1.2-.8-2.4-1.7-3.6-2.5-.2-.2-.3-.5-.1-.7.2-.2.5-.3.7-.1 1.2.8 2.4 1.7 3.6 2.5 1.2.8 2.4 1.7 3.6 2.5.2.2.3.5.1.7-.1.1-.2.2-.4.2zM152.8 187.8c-.1 0-.2 0-.3-.1-2.5-2-5-3.8-7.7-5.7-1-.7-1.9-1.4-2.9-2.1-.2-.2-.3-.5-.1-.7.2-.2.5-.3.7-.1 1 .7 1.9 1.4 2.9 2.1 2.6 1.8 5.2 3.7 7.7 5.8.2.2.2.5.1.7-.1 0-.3.1-.4.1zM163.6 187.9c-.1 0-.2 0-.2-.1-3.1-1.7-6.1-3.8-9-5.8-1.1-.8-2.2-1.5-3.3-2.3-.2-.2-.3-.5-.1-.7.2-.2.5-.3.7-.1 1.1.7 2.2 1.5 3.3 2.3 2.8 2 5.8 4 8.9 5.7.2.1.3.4.2.7-.1.2-.3.3-.5.3zM171.6 187.1c-.1 0-.2 0-.3-.1-4-2.4-7.9-5-11.7-7.6-.2-.2-.3-.5-.2-.7.2-.2.4-.3.7-.2h.1c3.8 2.5 7.7 5.2 11.7 7.5.2.1.3.4.2.7-.2.3-.3.4-.5.4zM181.4 186.7c-.1 0-.2 0-.3-.1-3.7-2.3-7.3-4.8-11-7.6-.2-.2-.3-.5-.1-.7.2-.2.5-.3.7-.1 3.7 2.8 7.3 5.3 11 7.6.2.1.3.5.2.7-.2.1-.3.2-.5.2zM188.6 183.5c-.1 0-.2 0-.2-.1l-.3-.1c-.3-.2-.7-.3-1.1-.6-1.6-1-3-2.3-4.4-3.6-.4-.4-.8-.7-1.2-1.1-.2-.2-.2-.5 0-.7.2-.2.5-.2.7 0 .4.4.8.7 1.2 1.1 1.4 1.3 2.7 2.5 4.3 3.5.3.2.6.4.9.5l.3.2c.2.1.3.4.2.7 0 .1-.2.2-.4.2zM193.5 179.9c-.1 0-.3 0-.4-.1-.1-.1-.2-.2-.4-.3l-.2-.1c-1.9-1.1-4-2.4-6.2-3.8-.2-.2-.3-.5-.1-.7.2-.2.5-.3.7-.1 2.2 1.4 4.2 2.7 6.2 3.8l.2.2c.2.1.4.2.6.4.2.2.2.5 0 .7h-.4zM195.3 175.1c-.1 0-.2 0-.3-.1l-3.9-3.3c-.2-.2-.2-.5-.1-.7.2-.2.5-.2.7-.1l3.9 3.3c.2.2.2.5.1.7-.1.1-.3.2-.4.2z" fill="#000"/><path d="M189.4 177.8c-.9 0-2.5-.3-2.7-1.4-.4-1.3 1.2-1.9 2-2.2.2-.1.3-.1.4-.2.2-.1.5 0 .7.2.1.1.1.2 0 .4h.1s1.1-.2 1.7.2c.1 0 .3-.1.4-.1h.2c.5 0 .9 0 1.1.4.1.2 0 .4-.1.6-.2.4-.8.6-1.1.7-.2.1-.3.2-.5.2-.4.7-1.4 1.1-2.2 1.2.1 0 .1 0 0 0zm-1.1-2.3c-.4.2-.7.4-.6.7 0 .1.1.2.2.3v-.2c.1-.4.2-.6.4-.8zm.6.8c.3 0 .9-.1 1-.1.2-.1.3-.1.5-.2-.1-.1-.1-.1-.1-.2v-.2h-.1c-.4.1-1 .3-1.3.7zM141.4 176h-.5c-.7-.1-1.2-.6-1.4-1.4-.2-.9.1-1.4.4-1.7 1-1 3-.7 3.7-.6.9.2.9.6.9.9 0 .3-.3.5-.6.7.1 0 .2 0 .3.1.2.2.3.5.1.7-.5.7-1.7 1.3-2.9 1.3zm-.7-1.2c.1.1.2.2.4.2.7.1 1.6-.2 2.1-.6h-.5c-.8.3-1.7.4-2 .4zm1.5-1.6c-.6 0-1.3.1-1.6.4.4-.1 1-.1 1.9-.2.2-.1.4-.1.5-.2h-.8zM277.9 189.1h-.2c-2-.9-2.1-1-2.1-1.1-.2-.2-.2-.5 0-.7.2-.2.5-.2.6 0 .1 0 .4.2 1.9 1 .2.1.4.4.2.7 0 0-.2.1-.4.1zm3-2.5h-.2c-.8-.4-1.4-.7-1.9-1-.7-.4-1.2-.7-2-1-.3-.1-.4-.4-.3-.6.1-.3.4-.4.6-.3.9.3 1.5.7 2.2 1.1.5.3 1.1.6 1.8 1 .2.1.4.4.2.7 0 0-.2.1-.4.1zM280.9 182.1h-.1c-1.5-.4-3.1-1-4-1.3-.3-.1-.5-.2-.5-.2-.2 0-.4-.2-.4-.5s.2-.5.5-.5c.1 0 .2 0 .8.2.9.3 2.5.9 3.9 1.3.3.1.4.3.4.6-.2.2-.4.4-.6.4zM251.6 176.4c-3.5 0-3.9-.6-4-.9-.2-.3-.2-.6 0-.9.4-.7 1.5-.9 2.2-1h.3c.4 0 2.2 0 3 1 .2.4.1.6.1.7-.1.2-.4.3-.6.3l.1.3v.5-.5l-.1.5h-1zm-3.1-1.3c.3.2 1.2.3 3.3.4-.1-.1-.1-.2-.1-.3 0-.1 0-.1.1-.2-.4-.2-1.1-.3-1.6-.3h-.2c-.4 0-1.3.1-1.5.4zM147.2 147.6c-.1 0-.2 0-.2-.1-.2-.1-.3-.4-.2-.7.9-1.8 1.9-3.5 2.8-5.1 2-3.6 4-7 5.5-11.7 1.7-5.7 3.5-11.8 3.7-18.4 0-.3.2-.5.5-.5s.5.2.5.5c-.2 6.7-2 12.9-3.7 18.6-1.5 4.8-3.5 8.2-5.5 11.9-.9 1.6-1.9 3.3-2.8 5.1-.2.3-.4.4-.6.4zM154 146.8c-.1 0-.2 0-.3-.1-.2-.2-.3-.5-.1-.7 1.6-2.5 3.2-4.9 4.8-7.4 1.6-2.4 3.1-4.9 4.7-7.3.2-.2.5-.3.7-.1.2.2.3.5.1.7-1.6 2.4-3.2 4.9-4.7 7.3-1.6 2.5-3.2 4.9-4.8 7.4-.1.1-.2.2-.4.2z" fill="#000"/><path d="M261.9 191.6c0 5.2-4.3 9.5-9.5 9.5s-11.5-4.3-11.5-9.5 6.3-9.5 11.5-9.5 9.5 4.3 9.5 9.5z" fill="#fff"/><path d="M250.8 201.4c-4 0-7.5-2-9.3-5.2-1.7-3.1-1.4-6.8.8-10.2 3.9-5.1 11.4-5.8 17.1-1.6 2.8 2.1 3.8 5.8 2.6 9.4-1.2 3.5-4.8 7.6-11.2 7.6zm-7.7-14.8c-2 3.1-2.2 6.4-.7 9.1 1.6 2.9 4.8 4.7 8.4 4.7 5.8 0 9.1-3.7 10.2-6.9 1.1-3.3.2-6.5-2.2-8.3-5.2-3.9-12.1-3.3-15.7 1.4z" fill="#000"/><path d="M248.3 189.7c-.1 0-.2 0-.2-.1-.2-.1-.3-.4-.2-.7.8-1.4 2.9-2.8 4.5-3.9l.5-.4c.2-.2.5-.1.7.1.2.2.1.5-.1.7l-.5.4c-1.5 1-3.6 2.4-4.2 3.6-.2.2-.3.3-.5.3z" fill="#000"/><path d="M254 191.2c-.1 0-.2 0-.2-.1-1.5-.8-3.8-1.6-5.4-1.6-.3 0-.5-.2-.5-.5s.2-.5.5-.5c1.8 0 4.2.9 5.8 1.8.2.1.3.4.2.7 0 .1-.2.2-.4.2z" fill="#000"/><path d="M251.5 198.3c-1.3 0-2.7-.6-4-1.7-.2-.2-.2-.5-.1-.7.2-.2.5-.2.7-.1 1.5 1.3 2.9 1.7 4.2 1.4 1.7-.4 3-2.1 3.6-3.5.5-1.2.5-2.5 0-3.5-.4-1-1.2-1.7-2.2-2-1.3-.4-4 .2-5 1.2-.2.2-.5.2-.7 0-.2-.2-.2-.5 0-.7 1.2-1.2 4.3-2 6-1.4 1.3.4 2.2 1.3 2.8 2.5.6 1.3.6 2.9 0 4.3-.7 1.7-2.2 3.6-4.3 4.1-.3.1-.6.1-1 .1z" fill="#000"/><defs><linearGradient id="paint0_linear" x1="223.316" y1="19.567" x2="174.316" y2="121.067" gradientUnits="userSpaceOnUse"><stop stop-color="#62F91F" stop-opacity=".38"/><stop offset="1" stop-color="#5EAA53"/></linearGradient><linearGradient id="paint1_linear" x1="198.69" y1="69.067" x2="194.916" y2="78.117" gradientUnits="userSpaceOnUse"><stop stop-color="#62F91F"/><stop offset="1" stop-color="#5EAA53"/></linearGradient></defs></svg>