<svg width="290" height="220" fill="none" xmlns="http://www.w3.org/2000/svg"><g clip-path="url(#a)"><path d="M330.5 0h-320v220h320V0Z" fill="#fff"/><path fill-rule="evenodd" clip-rule="evenodd" d="M267.963 64.098a.5.5 0 0 1-.275.651c-25.67 10.45-98.962 45.983-121.964 57.52l-2.043 1.023c-4.849 2.43-8.924 4.471-12.136 6.236-3.673 2.019-6.142 3.638-7.357 5.018-.603.685-.838 1.245-.83 1.714.008.453.245.946.883 1.497.641.555 1.638 1.125 3.044 1.718 1.4.592 3.177 1.196 5.355 1.831 3.142.917 8.178 2.341 14.33 4.081 17.312 4.897 43.469 12.295 61.181 17.923 4.513 1.434 8.352 2.907 11.399 4.434 3.039 1.523 5.332 3.118 6.711 4.813 1.398 1.717 1.873 3.566 1.195 5.503-.662 1.888-2.393 3.769-5.174 5.674-7.315 5.011-37.031 23.192-54.538 32.989a.5.5 0 0 1-.488-.873c17.493-9.789 47.181-27.953 54.461-32.941 2.719-1.862 4.238-3.592 4.795-5.18.539-1.54.202-3.031-1.026-4.541-1.247-1.532-3.392-3.051-6.383-4.55-2.984-1.494-6.769-2.95-11.255-4.375-17.695-5.622-43.813-13.01-61.126-17.907-6.162-1.742-11.208-3.17-14.362-4.09-2.197-.641-4.014-1.257-5.464-1.869-1.444-.61-2.552-1.228-3.309-1.883-.761-.659-1.215-1.398-1.229-2.238-.013-.825.401-1.62 1.079-2.391 1.347-1.531 3.972-3.225 7.627-5.233 3.23-1.776 7.324-3.827 12.169-6.254l2.043-1.023c22.997-11.534 96.323-47.085 122.035-57.552a.5.5 0 0 1 .652.275Z" fill="#000"/><path fill-rule="evenodd" clip-rule="evenodd" d="M260.446 56.06a.5.5 0 0 1-.219.672c-14.763 7.506-45.658 21.654-75.223 35.103-4.779 2.174-9.524 4.33-14.159 6.436-24.057 10.93-45.197 20.535-53.154 24.498-1.417.706-2.817 1.397-4.186 2.074-3.226 1.593-6.287 3.105-9.035 4.541-3.918 2.048-7.159 3.922-9.303 5.631-1.074.856-1.842 1.647-2.288 2.373-.441.717-.543 1.326-.373 1.87.175.561.673 1.166 1.678 1.787 1 .619 2.449 1.221 4.424 1.797 2.052.598 5.069 1.471 8.782 2.545 17.995 5.205 52.329 15.135 72.23 21.458 4.5 1.43 8.486 2.763 11.726 4.069 3.229 1.303 5.769 2.599 7.341 3.974.789.691 1.366 1.428 1.645 2.229.285.816.245 1.657-.13 2.505-.726 1.645-2.705 3.31-5.961 5.102-7.698 4.238-17.331 9.795-27.294 15.543-8.861 5.111-17.982 10.373-26.235 14.991a.5.5 0 1 1-.488-.873c8.218-4.598 17.338-9.859 26.204-14.974 9.982-5.757 19.642-11.33 27.331-15.563 3.244-1.786 4.948-3.315 5.528-4.63.279-.63.297-1.209.101-1.772-.202-.579-.645-1.18-1.359-1.805-1.437-1.257-3.842-2.502-7.057-3.799-3.202-1.292-7.157-2.615-11.655-4.044-19.887-6.318-54.199-16.243-72.197-21.449a4608.019 4608.019 0 0 1-8.792-2.547c-2.017-.589-3.562-1.221-4.67-1.906-1.104-.684-1.83-1.454-2.107-2.341-.282-.904-.063-1.815.476-2.691.534-.868 1.404-1.744 2.516-2.631 2.227-1.775 5.543-3.686 9.464-5.735 2.758-1.442 5.835-2.962 9.067-4.558 1.367-.675 2.762-1.364 4.171-2.066 7.974-3.972 29.138-13.588 53.192-24.517 4.635-2.106 9.377-4.26 14.153-6.432 29.575-13.453 60.445-27.59 75.183-35.084a.501.501 0 0 1 .673.219Z" fill="#000"/><path opacity=".7" d="M281 111c0 30.376-52.83 55-118 55S45 141.376 45 111s52.83-55 118-55 118 24.624 118 55Z" fill="url(#b)" fill-opacity=".1"/><path opacity=".7" d="M200 160c0 30.376-52.83 55-118 55s-118-24.624-118-55 52.83-55 118-55 118 24.624 118 55Z" fill="url(#c)" fill-opacity=".1"/><path opacity=".7" d="M356 155c0 30.376-52.83 55-118 55s-118-24.624-118-55 52.83-55 118-55 118 24.624 118 55Z" fill="url(#d)" fill-opacity=".1"/><path d="M109.776 161.132 84.328 171.84l-22.452-7.07v-28.498l29.158-10.808 18.742 7.077v28.591Z" fill="#2BB1F2"/><path fill-rule="evenodd" clip-rule="evenodd" d="M87.049 125.07a.5.5 0 0 1 .615-.35c3.863 1.057 7.802 2.37 11.877 3.742l.751.253c3.845 1.296 7.817 2.634 11.984 3.86a.5.5 0 1 1-.282.959c-4.186-1.231-8.175-2.575-12.018-3.87l-.754-.254c-4.078-1.373-7.991-2.677-11.822-3.725a.501.501 0 0 1-.351-.615ZM61.877 134.31a.5.5 0 0 1 .5.5v30.568a.5.5 0 0 1-1 0V134.81a.5.5 0 0 1 .5-.5Z" fill="#000"/><path fill-rule="evenodd" clip-rule="evenodd" d="M109.776 131.518a.5.5 0 0 1 .5.5v29.445a.5.5 0 1 1-1 0v-29.445a.5.5 0 0 1 .5-.5Zm-24.253 8.501a.5.5 0 0 1 .5.5v31.858a.5.5 0 0 1-1 0v-31.858a.5.5 0 0 1 .5-.5Z" fill="#000"/><path fill-rule="evenodd" clip-rule="evenodd" d="M60.788 165.243a.5.5 0 0 1 .614-.351c4.246 1.162 8.78 2.332 13.524 3.555 3.857.994 7.85 2.024 11.939 3.114a.5.5 0 0 1-.258.966c-4.066-1.084-8.058-2.113-11.916-3.108-4.755-1.226-9.308-2.401-13.553-3.562a.5.5 0 0 1-.35-.614ZM62 136.13a.5.5 0 0 1 .614-.35c4.246 1.162 8.78 2.331 13.524 3.554 3.857.995 7.85 2.025 11.939 3.115a.5.5 0 1 1-.258.966 1492.79 1492.79 0 0 0-11.916-3.109c-4.754-1.226-9.308-2.4-13.553-3.561a.5.5 0 0 1-.35-.615Z" fill="#000"/><path fill-rule="evenodd" clip-rule="evenodd" d="M113.277 160.35a.5.5 0 0 1-.295.643c-5.483 2.032-24.755 9.835-30.157 12.096a.501.501 0 0 1-.386-.923c5.404-2.261 24.692-10.071 30.195-12.111a.5.5 0 0 1 .643.295ZM111.243 131.844a.5.5 0 0 1-.295.642c-3.716 1.378-11.907 4.921-18.489 7.768a795.758 795.758 0 0 1-7.642 3.281.5.5 0 1 1-.386-.922c1.723-.721 4.464-1.907 7.576-3.253 6.596-2.853 14.853-6.425 18.594-7.811a.5.5 0 0 1 .642.295ZM90.305 125.038a.5.5 0 0 1-.295.643c-4.679 1.734-17.909 7.29-25.048 10.288l-3.061 1.284a.5.5 0 1 1-.386-.923c.788-.329 1.829-.766 3.049-1.279 7.133-2.995 20.396-8.565 25.098-10.308a.5.5 0 0 1 .643.295ZM99.838 128.688a.5.5 0 0 1-.274.652c-3.636 1.488-9.169 3.918-14.273 6.16-3.904 1.715-7.557 3.319-9.919 4.308a.5.5 0 0 1-.386-.923c2.313-.968 5.953-2.566 9.856-4.28 5.133-2.254 10.721-4.709 14.344-6.191a.5.5 0 0 1 .652.274Z" fill="#000"/><path fill-rule="evenodd" clip-rule="evenodd" d="M95.724 137.97c.252.109.4.411.33.677-1.317 5.089-2.954 10.803-4.574 16.453l-.054.187-.055.193-4.376 15.721a.418.418 0 0 1-.587.28.597.597 0 0 1-.332-.677c1.232-4.756 2.796-10.215 4.379-15.734l4.681-16.821a.42.42 0 0 1 .588-.279Zm-5.758 2.464c.252.11.4.411.331.677-.743 2.869-1.401 5.101-2.051 7.305l-.013.044-.013.045-1.988 7.077a.419.419 0 0 1-.588.278.596.596 0 0 1-.331-.676c.713-2.751 1.352-4.921 1.993-7.094l2.072-7.378a.42.42 0 0 1 .588-.278ZM110.222 131.88a.594.594 0 0 1 .335.678l-8.349 32.24a.42.42 0 0 1-.586.29.596.596 0 0 1-.336-.678l8.35-32.24a.42.42 0 0 1 .586-.29Zm-5.564 2.918a.596.596 0 0 1 .335.678l-8.098 31.269a.418.418 0 0 1-.586.289.596.596 0 0 1-.335-.678l8.098-31.268a.419.419 0 0 1 .586-.29Zm-4.75 1.97a.597.597 0 0 1 .336.678l-8.156 31.614a.42.42 0 0 1-.586.29.597.597 0 0 1-.336-.678l8.156-31.614a.42.42 0 0 1 .586-.29Zm10.323 12.044a.596.596 0 0 1 .324.684l-3.675 13.156a.42.42 0 0 1-.593.277.597.597 0 0 1-.324-.684l3.676-13.156a.418.418 0 0 1 .592-.277ZM84.499 94.916c1.086-.155 2.348.312 3.673 1.49a.499.499 0 1 1-.664.748c-1.207-1.074-2.185-1.346-2.867-1.248-.666.095-1.183.561-1.453 1.284-.543 1.456.002 3.852 2.516 5.232 2.843 1.561 4.207 4.483 3.472 6.607-.379 1.096-1.3 1.898-2.702 2.129-1.375.227-3.194-.093-5.459-1.14a.5.5 0 0 1 .42-.908c2.171 1.004 3.777 1.243 4.876 1.062 1.071-.177 1.671-.749 1.92-1.47.522-1.509-.431-3.989-3.008-5.404-2.908-1.596-3.705-4.493-2.971-6.458.369-.99 1.146-1.767 2.247-1.924Z" fill="#000"/><path fill-rule="evenodd" clip-rule="evenodd" d="M85.664 92.979a.5.5 0 0 1 .495.504c-.037 4.025-.024 9.028-.012 13.51.005 2.023.01 3.94.01 5.613a.5.5 0 0 1-1 0c0-1.668-.005-3.581-.01-5.602-.012-4.485-.025-9.5.012-13.53a.5.5 0 0 1 .505-.495ZM73.726 70.062c1.085-.156 2.348.311 3.673 1.49a.5.5 0 1 1-.665.747c-1.206-1.073-2.184-1.345-2.866-1.248-.666.096-1.183.562-1.453 1.284-.544 1.457.002 3.852 2.515 5.232 2.843 1.561 4.207 4.483 3.473 6.608-.379 1.096-1.301 1.898-2.703 2.129-1.374.227-3.193-.094-5.458-1.14a.5.5 0 1 1 .42-.908c2.171 1.003 3.777 1.242 4.876 1.061 1.071-.176 1.671-.749 1.92-1.47.522-1.508-.431-3.988-3.009-5.403-2.907-1.596-3.705-4.493-2.971-6.459.369-.989 1.146-1.766 2.248-1.923Z" fill="#000"/><path fill-rule="evenodd" clip-rule="evenodd" d="M74.89 68.124a.5.5 0 0 1 .496.505c-.037 4.024-.024 9.027-.012 13.51.005 2.022.01 3.94.01 5.612a.5.5 0 0 1-1 0c0-1.667-.005-3.58-.01-5.602-.012-4.484-.025-9.499.012-13.53a.5.5 0 0 1 .504-.495ZM97.573 74.067c1.085-.155 2.348.311 3.673 1.49a.5.5 0 1 1-.665.748c-1.206-1.074-2.184-1.346-2.866-1.248-.666.095-1.183.561-1.453 1.283-.544 1.457.002 3.853 2.515 5.233 2.844 1.56 4.208 4.483 3.473 6.607-.379 1.096-1.3 1.898-2.703 2.13-1.374.226-3.193-.094-5.458-1.141a.5.5 0 0 1 .42-.908c2.171 1.004 3.777 1.243 4.876 1.062 1.071-.177 1.671-.75 1.92-1.47.522-1.509-.431-3.989-3.009-5.404-2.907-1.596-3.704-4.493-2.971-6.458.37-.99 1.147-1.767 2.248-1.924Z" fill="#000"/><path fill-rule="evenodd" clip-rule="evenodd" d="M98.738 72.13a.5.5 0 0 1 .495.504c-.037 4.025-.024 9.028-.012 13.51.005 2.023.01 3.94.01 5.612a.5.5 0 0 1-1 0c0-1.667-.005-3.58-.01-5.601-.012-4.485-.025-9.5.012-13.53a.5.5 0 0 1 .505-.496ZM85.847 72.54a.5.5 0 0 1 .5.5v4.39a.5.5 0 0 1-1 0v-4.39a.5.5 0 0 1 .5-.5Zm0 6.92a.5.5 0 0 1 .5.5v9.98a.5.5 0 0 1-1 0v-9.98a.5.5 0 0 1 .5-.5Zm0 36.274a.5.5 0 0 1 .5.5v5.056a.5.5 0 1 1-1 0v-5.056a.5.5 0 0 1 .5-.5Zm0 9.304a.5.5 0 0 1 .5.5v9.257a.5.5 0 0 1-1 0v-9.257a.5.5 0 0 1 .5-.5ZM74.853 79.725a.5.5 0 0 1 .5.5l.001 11.233a.5.5 0 0 1-1 0l-.001-11.233a.5.5 0 0 1 .5-.5Zm.002 16.382a.5.5 0 0 1 .5.5l-.002 4.4a.5.5 0 1 1-1-.001l.002-4.4a.5.5 0 0 1 .5-.5Zm0 10.859a.5.5 0 0 1 .5.5l-.001 8.518a.5.5 0 0 1-1 0l.001-8.518a.5.5 0 0 1 .5-.5Zm0 12.45a.5.5 0 0 1 .5.5l-.001 5.149a.5.5 0 1 1-1-.001l.001-5.148a.5.5 0 0 1 .5-.5Zm-.001 8.11a.5.5 0 0 1 .5.5v11.769a.5.5 0 0 1-1 0v-11.769a.5.5 0 0 1 .5-.5Z" fill="#000"/><path fill-rule="evenodd" clip-rule="evenodd" d="M98.854 85.518a.5.5 0 0 1 .5.5v4.444a.5.5 0 0 1-1 0v-4.444a.5.5 0 0 1 .5-.5Zm0 8.889a.5.5 0 0 1 .5.5l.001 10.609a.5.5 0 1 1-1 .001l-.001-10.61a.5.5 0 0 1 .5-.5Zm0 15.484a.5.5 0 0 1 .5.5v5.018a.5.5 0 0 1-1 0v-5.018a.5.5 0 0 1 .5-.5Zm0 9.463a.5.5 0 0 1 .5.5v8.941a.5.5 0 0 1-1 0v-8.941a.5.5 0 0 1 .5-.5Z" fill="#000"/><path d="M235.167 32.286V15.62l29.333 4v16.666l-29.333-4Z" fill="#FCFEFF"/><path fill-rule="evenodd" clip-rule="evenodd" d="M234.65 13.084a.5.5 0 0 1 .5.5v54.702a.5.5 0 0 1-1 0V13.584a.5.5 0 0 1 .5-.5ZM232.5 12.5a.5.5 0 0 1 .5.5v56.286a.5.5 0 0 1-1 0V13a.5.5 0 0 1 .5-.5Z" fill="#000"/><path fill-rule="evenodd" clip-rule="evenodd" d="M232.006 13.504a.5.5 0 0 1 .574-.413c2.616.423 9.023 1.15 15.819 1.921l.284.032c6.699.76 13.718 1.556 17.758 2.133a.5.5 0 0 1-.142.99c-4.025-.575-11.034-1.37-17.745-2.13l-.267-.031c-6.779-.769-13.22-1.5-15.867-1.928a.5.5 0 0 1-.414-.574ZM234.34 29.874a.5.5 0 0 1 .557-.436c7.147.875 14.969 1.97 22.445 3.017 2.542.355 5.044.706 7.466 1.04a.5.5 0 1 1-.136.99c-2.427-.334-4.932-.685-7.476-1.041-7.474-1.046-15.283-2.14-22.421-3.013a.5.5 0 0 1-.435-.557Z" fill="#000"/><path fill-rule="evenodd" clip-rule="evenodd" d="M264.034 16.003a.5.5 0 0 1 .5.5v17.743a.5.5 0 0 1-1 0V16.503a.5.5 0 0 1 .5-.5Z" fill="#000"/><path d="M213.473 158.079v-8.424l10.407-6.443h35.671l7.938 6.938v9.911l-11.893 6.443h-30.229l-11.894-8.425Z" fill="#fff"/><path fill-rule="evenodd" clip-rule="evenodd" d="M210.113 155.229a.499.499 0 0 1 .703-.071c2.998 2.447 5.247 4.351 7.332 6.116l.001.001c2.085 1.765 4.006 3.392 6.354 5.289a.5.5 0 1 1-.629.778c-2.357-1.905-4.285-3.538-6.37-5.303l-.001-.001c-2.086-1.765-4.329-3.664-7.319-6.105a.5.5 0 0 1-.071-.704Z" fill="#000"/><path fill-rule="evenodd" clip-rule="evenodd" d="m256.487 167.004-32.119-.496a.5.5 0 1 1 .016-1l32.119.496a.5.5 0 1 1-.016 1ZM213.62 145.784a.5.5 0 0 1 .5.5v14.769a.5.5 0 0 1-1 0v-14.769a.5.5 0 0 1 .5-.5Z" fill="#000"/><path fill-rule="evenodd" clip-rule="evenodd" d="M225.367 153.615a.5.5 0 0 1 .5.5v11.398a.5.5 0 0 1-1 0v-11.398a.5.5 0 0 1 .5-.5ZM255.596 153.119a.5.5 0 0 1 .5.5v13.875a.5.5 0 0 1-1 0v-13.875a.5.5 0 0 1 .5-.5ZM267.489 146.182a.5.5 0 0 1 .5.5v13.875a.5.5 0 0 1-1 0v-13.875a.5.5 0 0 1 .5-.5Z" fill="#000"/><path fill-rule="evenodd" clip-rule="evenodd" d="M212.361 147.29a.5.5 0 0 1 .691-.15c4.409 2.835 6.078 3.889 8.109 5.172 1.165.736 2.449 1.547 4.437 2.812a.5.5 0 0 1-.537.844 1353.013 1353.013 0 0 0-4.43-2.808c-2.034-1.285-3.708-2.342-8.12-5.179a.5.5 0 0 1-.15-.691Z" fill="#000"/><path fill-rule="evenodd" clip-rule="evenodd" d="M224.83 155.546a.5.5 0 0 1 .5-.5h30.724a.5.5 0 0 1 0 1H225.33a.5.5 0 0 1-.5-.5ZM256.296 140.99a.5.5 0 0 1 .699-.107l-.296.403-.295.403a.5.5 0 0 1-.108-.699Zm.403.296-.295.403.375.276 1.024.75 3.378 2.469c2.638 1.924 5.777 4.207 7.776 5.635a.5.5 0 0 0 .581-.814 1100.74 1100.74 0 0 1-7.767-5.629 4685.458 4685.458 0 0 1-4.401-3.218l-.375-.275-.296.403ZM233.218 141.699a.499.499 0 0 1-.316.632c-5.126 1.709-17.665 6.269-20.505 7.405a.499.499 0 1 1-.372-.928c2.863-1.146 15.421-5.712 20.561-7.425a.499.499 0 0 1 .632.316Z" fill="#000"/><path fill-rule="evenodd" clip-rule="evenodd" d="M246.228 143.408c-6.359.044-12.75.089-19.187.089a.5.5 0 1 1 0-1c6.433 0 12.821-.044 19.18-.089l.091-.001c6.328-.044 12.629-.089 18.916-.089a.5.5 0 1 1 0 1c-6.284 0-12.582.045-18.911.089l-.089.001ZM270.947 148.478a.498.498 0 0 1-.223.67c-3.802 1.901-7.227 3.444-10.509 4.922-1.856.836-3.666 1.651-5.473 2.499a.5.5 0 0 1-.424-.906 386.525 386.525 0 0 1 5.517-2.519c3.267-1.471 6.654-2.996 10.441-4.89a.5.5 0 0 1 .671.224Zm-1.028 10.865a.5.5 0 0 1-.224.671l-.004.002c-5.944 2.972-9.913 4.956-14.949 7.319a.5.5 0 1 1-.424-.905c5.024-2.357 8.983-4.337 14.93-7.311a.5.5 0 0 1 .671.224ZM217.579 150.166a.5.5 0 0 1 .339.621l-2.479 8.425a.5.5 0 0 1-.959-.283l2.478-8.424a.5.5 0 0 1 .621-.339Zm3.453 1.978a.5.5 0 0 1 .359.609c-.395 1.535-.962 3.116-1.516 4.664l-.004.012c-.556 1.553-1.1 3.07-1.472 4.516a.5.5 0 0 1-.969-.25c.385-1.491.941-3.044 1.491-4.578l.013-.037c.557-1.557 1.107-3.094 1.489-4.576a.5.5 0 0 1 .609-.36Zm3.495 2.485a.5.5 0 0 1 .325.628l-3.039 9.566a.5.5 0 1 1-.953-.303l3.039-9.565a.5.5 0 0 1 .628-.326ZM237.653 155.117a.5.5 0 0 1 .359.609c-.45 1.745-.881 3.481-1.311 5.209l-.007.03c-.427 1.718-.852 3.429-1.29 5.131a.5.5 0 0 1-.969-.25c.438-1.697.862-3.405 1.289-5.124l.007-.028c.429-1.728.862-3.468 1.313-5.218a.5.5 0 0 1 .609-.359Zm-4.232 0a.5.5 0 0 1 .359.609 261.251 261.251 0 0 1-1.417 5.202l-.009.031c-.477 1.706-.95 3.394-1.386 5.084a.5.5 0 1 1-.968-.249c.438-1.7.913-3.397 1.39-5.1l.01-.035c.48-1.716.962-3.438 1.412-5.183a.5.5 0 0 1 .609-.359Zm-4.68.498a.5.5 0 0 1 .347.616l-2.744 9.822a.5.5 0 0 1-.963-.269l2.744-9.822a.5.5 0 0 1 .616-.347ZM249.854 155.617a.5.5 0 0 1 .359.609l-2.557 9.924a.5.5 0 1 1-.969-.249l2.558-9.925a.5.5 0 0 1 .609-.359Zm-4.46 0a.5.5 0 0 1 .359.609l-2.558 9.924a.5.5 0 1 1-.968-.249l2.558-9.925a.5.5 0 0 1 .609-.359Zm-3.965-.018a.5.5 0 0 1 .36.609l-2.558 9.924a.5.5 0 1 1-.968-.249l2.557-9.925a.5.5 0 0 1 .609-.359Z" fill="#000"/><path fill-rule="evenodd" clip-rule="evenodd" d="M263.265 151.648a.5.5 0 0 1 .359.609l-2.937 11.398a.5.5 0 1 1-.968-.25l2.937-11.397a.5.5 0 0 1 .609-.36Zm-4.554 2.483a.5.5 0 0 1 .338.621l-3.518 11.893a.5.5 0 1 1-.959-.283l3.518-11.894a.5.5 0 0 1 .621-.337Zm-4.689 1.482a.5.5 0 0 1 .359.609l-2.682 10.406a.5.5 0 1 1-.968-.249l2.682-10.407a.5.5 0 0 1 .609-.359ZM267.229 149.666c.267.07.427.343.358.61l-3.083 11.893a.5.5 0 1 1-.968-.251l3.083-11.893a.5.5 0 0 1 .61-.359Z" fill="#000"/><path fill-rule="evenodd" clip-rule="evenodd" d="M236.908 148.91h-3.91l-4.208-5.191 2.609-2.745v-6.911h-2.609l2.609-9.049h2.899l2.61-2.32v-4.639l6.379-3.479 3.479 2.337v4.041l2.32-4.041 4.818 2.302 1.27 5.799-2.899 2.609v4.639h2.899l-1.27 8.712-3.756-1.031-3.382 3.776 1.023 5.191-5.664 2.36-5.217-.944v-1.416Zm3.027-16.34 3.582-2.388 2.388 1.194-1.592 4.776-2.786 1.99-1.592-.796v-4.776Z" fill="#fff"/><path fill-rule="evenodd" clip-rule="evenodd" d="M228.347 133.625a.5.5 0 0 1 .631-.319c.427.14.857.229 1.335.32 1.418.27 2.838.506 4.264.744.661.11 1.322.22 1.986.334a.5.5 0 1 1-.169.985c-.653-.112-1.309-.221-1.967-.331a186.825 186.825 0 0 1-4.301-.75c-.481-.091-.966-.19-1.46-.352a.5.5 0 0 1-.319-.631ZM229.744 124.757a.5.5 0 0 1 .573-.414c.506.081.984.172 1.503.334 1.589.496 3.169 1.044 4.74 1.588.715.248 1.427.495 2.138.736a.5.5 0 0 1-.322.947c-.724-.246-1.443-.495-2.161-.744a157.477 157.477 0 0 0-4.693-1.572 9.534 9.534 0 0 0-1.364-.302.5.5 0 0 1-.414-.573ZM236.003 117.669a.5.5 0 0 1 .631-.319c1.649.543 3.336.961 5.039 1.383.71.176 1.423.352 2.137.539a.5.5 0 1 1-.253.967c-.687-.179-1.384-.352-2.085-.526-1.718-.425-3.464-.857-5.151-1.413a.5.5 0 0 1-.318-.631ZM241.284 114.112a.5.5 0 0 1 .643-.294c1.668.619 3.348 1.203 5.033 1.789l1.134.395a.5.5 0 1 1-.329.944l-1.129-.393a255.774 255.774 0 0 1-5.057-1.798.5.5 0 0 1-.295-.643Z" fill="#000"/><path fill-rule="evenodd" clip-rule="evenodd" d="M248.28 116.938a.5.5 0 0 1 .602-.371c1.325.315 2.637.761 3.917 1.195.492.167.98.333 1.461.488a.5.5 0 1 1-.308.952c-.511-.166-1.017-.337-1.519-.508-1.263-.428-2.507-.85-3.783-1.154a.5.5 0 0 1-.37-.602ZM252.077 132.245a.5.5 0 0 1 .605-.366c.521.129 1.044.257 1.568.385l1.842.452a.5.5 0 1 1-.239.971c-.615-.152-1.226-.302-1.838-.451l-1.572-.386a.5.5 0 0 1-.366-.605ZM249.824 139.909a.5.5 0 0 1 .6-.375c.875.202 1.75.431 2.617.658.399.105.796.209 1.19.31a.5.5 0 1 1-.248.969c-.407-.104-.811-.21-1.214-.316-.859-.225-1.71-.448-2.57-.647a.5.5 0 0 1-.375-.599ZM247.529 142.938a.5.5 0 0 1 .573.414c.054.333.088.642.096.997a105.39 105.39 0 0 1-.006 3.772c-.008.585-.016 1.168-.019 1.747a.5.5 0 0 1-1-.006c.003-.596.011-1.188.019-1.778.017-1.242.034-2.475.006-3.712a6.105 6.105 0 0 0-.083-.861.499.499 0 0 1 .414-.573ZM242.101 146.086a.499.499 0 0 1 .537.459c.087 1.107.111 2.244.135 3.362.015.697.03 1.387.059 2.059a.5.5 0 1 1-.999.044 87.285 87.285 0 0 1-.061-2.135c-.023-1.089-.045-2.162-.131-3.252a.5.5 0 0 1 .46-.537ZM240.161 146.022a.5.5 0 0 1 .032.706c-.285.311-.566.638-.854.975l-.069.081c-.265.309-.535.625-.813.935-.604.673-1.258 1.335-2.009 1.874a.5.5 0 0 1-.583-.813c.664-.476 1.262-1.075 1.847-1.729.27-.3.533-.608.799-.919l.068-.079c.288-.336.579-.675.876-1a.499.499 0 0 1 .706-.031ZM237.875 140.39a.5.5 0 0 1-.028.707c-.413.38-.83.745-1.244 1.108-1.036.907-2.048 1.793-2.889 2.828a.5.5 0 1 1-.776-.63c.898-1.106 2.009-2.079 3.069-3.007.399-.35.791-.693 1.162-1.035a.5.5 0 0 1 .706.029Z" fill="#000"/><path fill-rule="evenodd" clip-rule="evenodd" d="M236.697 133.932a.5.5 0 0 1 .402.581c-.466 2.562-.059 5.133.193 6.729l.049.307a.5.5 0 0 1-.988.154l-.05-.318c-.252-1.588-.685-4.314-.188-7.051a.501.501 0 0 1 .582-.402ZM242.962 123.887a.499.499 0 0 1-.194.68c-2.227 1.237-3.067 2.39-3.672 3.419a.5.5 0 1 1-.862-.507c.682-1.159 1.643-2.45 4.049-3.787a.499.499 0 0 1 .679.195Z" fill="#000"/><path fill-rule="evenodd" clip-rule="evenodd" d="M242.151 118.419a.5.5 0 0 1 .489.511l-.021.96c-.044 1.996-.088 3.989-.108 5.982a.5.5 0 0 1-1-.009c.02-2.001.064-4 .108-5.996l.021-.959a.5.5 0 0 1 .511-.489ZM246.965 116.038a.5.5 0 0 1 .5.5v5.726a.5.5 0 0 1-1 0v-5.726a.5.5 0 0 1 .5-.5Z" fill="#000"/><path fill-rule="evenodd" clip-rule="evenodd" d="M245.821 121.75a.5.5 0 0 1 .5-.5 6.35 6.35 0 0 1 1.986.316c.677.229 1.357.613 1.824 1.235a.5.5 0 1 1-.8.6c-.305-.407-.783-.698-1.344-.888a5.384 5.384 0 0 0-1.666-.263.5.5 0 0 1-.5-.5Z" fill="#000"/><path fill-rule="evenodd" clip-rule="evenodd" d="M255.17 116.959a.5.5 0 0 1-.005.707l-1.412 1.398c-1.098 1.088-2.198 2.179-3.309 3.256a9.893 9.893 0 0 1-.992.859.5.5 0 1 1-.6-.8c.319-.239.596-.486.896-.777 1.106-1.073 2.2-2.158 3.297-3.244.472-.468.944-.936 1.418-1.403a.5.5 0 0 1 .707.004ZM256.582 123.261a.5.5 0 0 1 .003.707c-.383.387-.767.766-1.149 1.143-.829.818-1.648 1.625-2.425 2.48a1.45 1.45 0 0 0-.248.409.501.501 0 0 1-.915-.404c.1-.226.224-.458.423-.677.796-.876 1.647-1.716 2.486-2.543.377-.373.752-.742 1.118-1.112a.5.5 0 0 1 .707-.003Z" fill="#000"/><path fill-rule="evenodd" clip-rule="evenodd" d="M252.963 117.904a.5.5 0 0 1 .68.193c.338.607.489 1.21.638 1.808l.025.101c.132.528.248 1.045.362 1.555.193.864.382 1.709.639 2.553a.498.498 0 0 0 .023.062l.005.011a.5.5 0 0 1-.357.933c-.41-.137-.565-.509-.627-.715-.267-.872-.473-1.791-.673-2.686-.113-.502-.223-.996-.342-1.47l-.016-.063c-.157-.629-.279-1.114-.551-1.602a.5.5 0 0 1 .194-.68ZM252.197 126.73a.5.5 0 0 1 .596.379c.521 2.342.705 4.082-.018 6.07a.499.499 0 1 1-.94-.342c.623-1.713.491-3.22-.018-5.511a.5.5 0 0 1 .38-.596ZM254.866 132.321a.5.5 0 0 1 .571.417c.241 1.552-.054 3.323-.486 4.928-.387 1.44-.899 2.794-1.276 3.795l-.13.344a.5.5 0 0 1-.936-.351l.13-.347c.379-1.003.872-2.312 1.246-3.701.421-1.564.672-3.171.464-4.514a.5.5 0 0 1 .417-.571ZM250.555 138.654a.5.5 0 0 1 .287.646c-.447 1.162-.87 2.056-1.439 2.862-.571.809-1.272 1.507-2.252 2.301a.5.5 0 1 1-.629-.777c.937-.759 1.564-1.392 2.064-2.1.5-.71.888-1.517 1.322-2.645a.501.501 0 0 1 .647-.287ZM249.07 148.42a.5.5 0 0 1-.262.657c-1.094.469-1.913.81-2.603 1.097-1.302.542-2.142.891-3.498 1.546-.436.211-.75.302-1.193.376a.5.5 0 0 1-.164-.987 2.94 2.94 0 0 0 .922-.289c1.381-.667 2.255-1.031 3.576-1.581.689-.287 1.499-.624 2.566-1.081a.5.5 0 0 1 .656.262Z" fill="#000"/><path fill-rule="evenodd" clip-rule="evenodd" d="M237.012 150.442a.5.5 0 0 1 .561-.43c.893.118 1.773.325 2.625.525l.283.066c.95.221 1.868.423 2.794.5a.5.5 0 0 1-.083.997c-1.007-.084-1.989-.302-2.938-.523a121.46 121.46 0 0 1-.281-.066c-.859-.201-1.691-.396-2.531-.507a.5.5 0 0 1-.43-.562Z" fill="#000"/><path fill-rule="evenodd" clip-rule="evenodd" d="M237.243 148.02a.5.5 0 0 1 .566.424c.037.256.071.509.106.761.068.498.135.989.214 1.483a.499.499 0 1 1-.987.158 67.015 67.015 0 0 1-.22-1.52c-.034-.249-.068-.497-.103-.741a.5.5 0 0 1 .424-.565ZM236.417 125.809a.5.5 0 0 1 .054.705c-.693.809-1.314 2.323-1.727 4.008-.41 1.672-.592 3.413-.471 4.624a.499.499 0 1 1-.995.1c-.136-1.363.068-3.225.495-4.962.423-1.726 1.089-3.429 1.939-4.421a.5.5 0 0 1 .705-.054ZM232.214 124.463a.5.5 0 0 1 .199.678c-1.518 2.784-2.582 6.013-2.512 9.079a.5.5 0 0 1-1 .022c-.075-3.296 1.064-6.701 2.634-9.579a.5.5 0 0 1 .679-.2ZM237.158 123.202a.499.499 0 0 1-.011.707c-.207.201-.415.404-.623.609-.681.666-1.373 1.344-2.096 1.981a.501.501 0 0 1-.661-.751c.701-.618 1.367-1.27 2.044-1.932l.64-.625a.5.5 0 0 1 .707.011Z" fill="#000"/><path fill-rule="evenodd" clip-rule="evenodd" d="M236.929 117.519a.5.5 0 0 1 .5.5c0 .986-.038 1.978-.075 2.959-.017.451-.034.9-.047 1.345l-.001.019c-.007.265-.01.345.033.473a.5.5 0 0 1-.949.316c-.101-.302-.092-.551-.085-.777l.002-.061c.014-.462.031-.921.049-1.376.036-.971.073-1.931.073-2.898a.5.5 0 0 1 .5-.5Z" fill="#000"/><path fill-rule="evenodd" clip-rule="evenodd" d="M235.614 123.148a.5.5 0 0 1 .624-.332c1.03.314 1.952.54 2.845.759l.155.038c.939.23 1.853.458 2.808.777a.499.499 0 1 1-.316.948c-.912-.303-1.79-.523-2.73-.754a51.383 51.383 0 0 1-3.054-.812.5.5 0 0 1-.332-.624ZM250.069 115.861a.501.501 0 0 1 .146.692c-.335.513-.669 1.024-1.004 1.534-.634.966-1.266 1.93-1.89 2.903a.5.5 0 1 1-.841-.54c.626-.977 1.263-1.949 1.899-2.918.334-.509.667-1.017.998-1.525a.501.501 0 0 1 .692-.146ZM243.615 114.187a.5.5 0 0 1-.218.673c-.798.408-1.6.803-2.399 1.197-1.644.81-3.277 1.614-4.848 2.522a.5.5 0 0 1-.501-.866c1.6-.924 3.285-1.754 4.946-2.572.792-.391 1.578-.778 2.347-1.171a.5.5 0 0 1 .673.217ZM249.642 115.117a.499.499 0 0 1-.164.688c-1.129.696-2.293 1.337-3.443 1.971l-.737.407c-.307.17-.618.348-.934.529-.919.526-1.876 1.074-2.862 1.501a.5.5 0 1 1-.398-.917c.932-.404 1.817-.91 2.722-1.429a81.01 81.01 0 0 1 1.733-.97c1.15-.634 2.288-1.262 3.395-1.943a.5.5 0 0 1 .688.163ZM232.361 134.503a.5.5 0 0 1 .5.5c0 .849.063 1.698.127 2.569l.001.01c.064.862.129 1.745.129 2.632a.5.5 0 0 1-1 0c0-.847-.063-1.697-.127-2.568l-.001-.008c-.064-.862-.129-1.746-.129-2.635a.5.5 0 0 1 .5-.5Z" fill="#000"/><path fill-rule="evenodd" clip-rule="evenodd" d="M231.543 139.98a.5.5 0 0 1 .606-.364c1.189.297 2.272.541 3.595.839.665.149 1.392.313 2.222.503a.5.5 0 1 1-.223.975c-.82-.188-1.541-.35-2.205-.5-1.33-.299-2.431-.547-3.631-.847a.5.5 0 0 1-.364-.606Z" fill="#000"/><path fill-rule="evenodd" clip-rule="evenodd" d="M233.154 139.529a.5.5 0 0 1 .019.707c-.916.966-1.835 1.933-2.763 2.892-.074.076-.15.157-.228.24-.33.35-.699.741-1.137 1.05a.5.5 0 1 1-.576-.817c.347-.245.63-.544.953-.886.086-.091.176-.186.27-.283.924-.954 1.839-1.918 2.755-2.884a.5.5 0 0 1 .707-.019Z" fill="#000"/><path fill-rule="evenodd" clip-rule="evenodd" d="M228.006 143.807a.5.5 0 0 1 .569-.42c1.046.158 1.938.336 2.898.528l.079.016c.938.188 1.948.391 3.247.607a.5.5 0 0 1-.164.986 94.053 94.053 0 0 1-3.277-.612l-.082-.016a56.978 56.978 0 0 0-2.851-.52.5.5 0 0 1-.419-.569ZM238.824 145.946a.5.5 0 0 1 .608-.361c1.326.336 2.675.428 4.084.5a.5.5 0 1 1-.051.999c-1.408-.072-2.847-.166-4.279-.53a.5.5 0 0 1-.362-.608Z" fill="#000"/><path fill-rule="evenodd" clip-rule="evenodd" d="M233.095 144.12a.501.501 0 0 1 .699.11c.726.997 1.394 2.046 2.053 3.08.303.475.603.946.906 1.408.081.123.148.232.214.338.085.139.168.272.272.423.166.241.328.433.504.565a.5.5 0 1 1-.6.8c-.303-.228-.538-.522-.728-.798-.106-.154-.223-.342-.327-.508-.064-.103-.123-.198-.171-.271-.319-.487-.628-.971-.934-1.452-.65-1.02-1.29-2.024-1.997-2.996a.5.5 0 0 1 .109-.699ZM228.304 143.566a.5.5 0 0 1 .705.054 182.632 182.632 0 0 1 3.433 4.174c.331.411.649.806.95 1.177a.5.5 0 0 1-.776.63c-.306-.376-.627-.775-.96-1.189-1.058-1.313-2.237-2.776-3.407-4.141a.5.5 0 0 1 .055-.705Z" fill="#000"/><path fill-rule="evenodd" clip-rule="evenodd" d="M231.475 148.89a.5.5 0 0 1 .509-.49c.943.018 1.852.257 2.7.491l.176.049c.801.221 1.547.428 2.303.491a.5.5 0 0 1-.083.997c-.854-.072-1.688-.303-2.469-.52l-.193-.053c-.855-.236-1.652-.44-2.453-.455a.5.5 0 0 1-.49-.51ZM239.027 136.647a.5.5 0 0 1 .696-.125c.343.239.671.465.984.681 1.788 1.237 3.123 2.16 4.455 3.27a.5.5 0 1 1-.64.768c-1.295-1.079-2.588-1.973-4.378-3.211l-.992-.687a.5.5 0 0 1-.125-.696Z" fill="#000"/><path fill-rule="evenodd" clip-rule="evenodd" d="M240.779 130.581a.501.501 0 0 1 .442.552c-.101.906-.203 1.988-.306 3.076-.156 1.65-.313 3.314-.468 4.403a.5.5 0 0 1-.99-.141c.153-1.073.305-2.683.458-4.306.103-1.094.207-2.195.312-3.142a.5.5 0 0 1 .552-.442Z" fill="#000"/><path fill-rule="evenodd" clip-rule="evenodd" d="M245.752 128.197a.5.5 0 0 1-.088.702c-.457.355-1.412 1.034-2.414 1.746l-.443.315c-1.17.832-2.31 1.649-2.793 2.048a.5.5 0 0 1-.637-.772c.519-.428 1.697-1.271 2.851-2.091l.442-.315c1.009-.716 1.942-1.379 2.38-1.72a.5.5 0 0 1 .702.087Z" fill="#000"/><path fill-rule="evenodd" clip-rule="evenodd" d="M243.26 128.11a.5.5 0 0 1 .69-.157c1.142.717 2.374 1.284 3.63 1.861.516.238 1.036.477 1.555.729.143.069.296.134.465.207l.285.122c.272.119.572.261.831.434a.5.5 0 1 1-.554.832 4.57 4.57 0 0 0-.679-.35l-.244-.105c-.184-.079-.377-.161-.541-.241-.478-.232-.973-.459-1.475-.69-1.279-.589-2.605-1.199-3.805-1.953a.5.5 0 0 1-.158-.689ZM249.134 137.004a.5.5 0 0 1-.181.683c-.251.146-.769.46-1.401.842-1.472.891-3.557 2.153-4.289 2.519a.5.5 0 0 1-.447-.895c.696-.348 2.664-1.539 4.123-2.423.666-.403 1.226-.742 1.511-.907a.5.5 0 0 1 .684.181Z" fill="#000"/><path fill-rule="evenodd" clip-rule="evenodd" d="M249.326 130.334a.5.5 0 0 1 .379.597c-.254 1.143-.445 2.288-.638 3.448l-.001.006c-.193 1.154-.387 2.323-.648 3.494a.5.5 0 1 1-.976-.217c.254-1.142.445-2.287.638-3.448l.002-.006c.192-1.154.387-2.323.647-3.494a.5.5 0 0 1 .597-.38ZM245.91 130.203a.5.5 0 0 1 .386.593l-.125.594c-.154.737-.309 1.478-.477 2.216l-.204.88c-.128.551-.255 1.098-.374 1.65l-.019.086-.009.047c-.002.013-.004.024-.004.053a.5.5 0 1 1-1 0 1.44 1.44 0 0 1 .055-.396c.12-.56.251-1.122.38-1.678.068-.29.135-.578.2-.864.166-.729.319-1.459.473-2.194l.126-.601a.5.5 0 0 1 .592-.386Z" fill="#000"/><path fill-rule="evenodd" clip-rule="evenodd" d="M245.311 136.143a.5.5 0 0 1-.194.679c-.487.271-1.004.505-1.496.728-.153.069-.303.136-.449.204l-.457.215c-.5.236-1.023.483-1.556.685a.5.5 0 1 1-.355-.935c.492-.187.966-.41 1.458-.643.161-.076.324-.153.49-.229.163-.076.325-.149.484-.221.483-.219.947-.429 1.395-.678a.5.5 0 0 1 .68.195ZM243.108 129.825a.5.5 0 0 1 .671-.223l.002.001c1.022.511 1.523.761 2.791 1.268a.5.5 0 0 1-.372.929c-1.305-.522-1.833-.786-2.868-1.304a.5.5 0 0 1-.224-.671Z" fill="#000"/><path fill-rule="evenodd" clip-rule="evenodd" d="M250.744 131.033a.5.5 0 0 1-.452.543 60.725 60.725 0 0 1-4.936.227.5.5 0 0 1 0-1c1.528 0 3.51-.101 4.845-.223a.5.5 0 0 1 .543.453ZM243.519 136.044a.5.5 0 0 1 .602-.371l.876.211c.684.165 1.362.329 2.048.481l.359.081c.639.144 1.245.28 1.863.342a.5.5 0 0 1-.1.995c-.684-.068-1.358-.221-1.996-.365l-.343-.077a108.17 108.17 0 0 1-2.077-.488l-.861-.207a.5.5 0 0 1-.371-.602Z" fill="#000"/><path fill-rule="evenodd" clip-rule="evenodd" d="M249.063 134.529a.5.5 0 0 1-.594.383 785.373 785.373 0 0 1-3.552-.772.5.5 0 1 1 .216-.977c1.178.26 2.358.516 3.546.772a.5.5 0 0 1 .384.594Zm-1.747-4.987a.5.5 0 0 1-.271.653 65.32 65.32 0 0 1-2.13.837.5.5 0 0 1-.348-.937 64.749 64.749 0 0 0 2.096-.824.5.5 0 0 1 .653.271ZM246.204 139.172a.5.5 0 0 1-.662.248l-3.413-1.552a.5.5 0 0 1 .414-.91l3.412 1.552a.5.5 0 0 1 .249.662ZM242.504 148.852a.5.5 0 0 1-.573.413l-3.709-.602a.5.5 0 1 1 .16-.987l3.709.602a.499.499 0 0 1 .413.574Zm-7.292-1.515a.5.5 0 0 1-.559.432l-3.86-.494a.5.5 0 0 1 .127-.992l3.86.494a.5.5 0 0 1 .432.56ZM252.398 120.748a.5.5 0 0 1-.61.357 34.734 34.734 0 0 1-2.239-.671 35.619 35.619 0 0 0-1.52-.468.5.5 0 1 1 .266-.964c.546.151 1.051.315 1.564.481l.22.072c.592.191 1.214.387 1.962.583a.499.499 0 0 1 .357.61ZM235.654 142.892a.5.5 0 0 1-.592.388c-.75-.157-1.41-.307-2.056-.455l-.138-.031c-.6-.137-1.191-.272-1.841-.411a.5.5 0 1 1 .208-.978c.658.14 1.256.277 1.855.414l.138.032c.646.147 1.299.295 2.039.45a.5.5 0 0 1 .387.591Zm.926-4.899a.5.5 0 0 1-.594.383l-3.346-.724a.5.5 0 1 1 .212-.977l3.345.724c.27.058.442.324.383.594ZM234.589 131.777a.5.5 0 0 1-.592.387l-4.698-.985a.5.5 0 1 1 .205-.979l4.698.985a.5.5 0 0 1 .387.592Zm.443-2.822a.5.5 0 0 1-.596.381l-3.86-.847a.5.5 0 0 1 .214-.977l3.86.847c.27.06.441.326.382.596ZM242.412 122.054a.5.5 0 0 1-.592.388l-5.412-1.123a.5.5 0 1 1 .203-.979l5.413 1.123a.5.5 0 0 1 .388.591Zm-2.746 4.329a.5.5 0 0 1-.643.293l-3.586-1.345a.5.5 0 1 1 .351-.936l3.586 1.345a.5.5 0 0 1 .292.643ZM245.505 118.041a.5.5 0 0 1-.617.342 102.48 102.48 0 0 1-1.983-.584l-3.302-.972a.5.5 0 0 1 .262-.964 36.1 36.1 0 0 1 2.326.668c.307.096.647.202 1.051.325l1.924.566a.5.5 0 0 1 .339.619Z" fill="#000"/><path d="M124.681 107.342V47.71l36.353-15.944 51.659 10.204v57.4l-33.483 18.495-12.755-2.232-.46-18.157-27.682 12.901-13.632-3.035Z" fill="#fff"/><path fill-rule="evenodd" clip-rule="evenodd" d="M137.551 72.312a.5.5 0 0 1 .5.5V96.3l.001 14.882a.5.5 0 0 1-1 0l-.001-14.881c0-6.523-.001-12.763 0-23.489a.5.5 0 0 1 .5-.5ZM166.162 79.805a.5.5 0 0 1 .5.5v21.638l.001 14.149a.5.5 0 1 1-1 0l-.001-14.149V80.305a.5.5 0 0 1 .5-.5ZM124.875 46.337a.5.5 0 0 1 .5.5l-.001 43.351v16.923a.5.5 0 1 1-1 0V90.187l.001-43.35a.5.5 0 0 1 .5-.5ZM179.786 48.47a.5.5 0 0 1 .5.5v50.123l.001 19.568a.5.5 0 0 1-1 0l-.001-19.567V48.97a.5.5 0 0 1 .5-.5ZM212.483 37.57a.5.5 0 0 1 .5.5v61.587a.5.5 0 1 1-1 0V38.07a.5.5 0 0 1 .5-.5Z" fill="#000"/><path fill-rule="evenodd" clip-rule="evenodd" d="M163.414 30.507a.5.5 0 0 1-.29.645c-9.667 3.667-32.265 13.36-41.506 17.323l-1.115.479a.5.5 0 0 1-.394-.92l1.123-.48c9.237-3.963 31.849-13.662 41.538-17.337a.499.499 0 0 1 .644.29ZM218.386 38.538a.5.5 0 0 1-.239.666 10380.293 10380.293 0 0 1-43.6 20.45.5.5 0 1 1-.422-.907c18.242-8.509 27.177-12.712 43.596-20.448a.5.5 0 0 1 .665.24ZM215.31 97.784a.5.5 0 0 1-.209.675c-7.967 4.201-14.53 7.855-20.283 11.058-7.74 4.309-14.013 7.803-20.271 10.714a.5.5 0 1 1-.422-.907c6.235-2.901 12.454-6.364 20.157-10.653 5.749-3.202 12.326-6.864 20.353-11.097a.5.5 0 0 1 .675.21Z" fill="#000"/><path fill-rule="evenodd" clip-rule="evenodd" d="M156.097 30.195a.5.5 0 0 1 .583-.4c7.194 1.337 21.787 4.177 36.197 6.98 8.374 1.63 16.686 3.247 23.448 4.55a.5.5 0 1 1-.19.983c-6.767-1.305-15.082-2.923-23.458-4.553-14.405-2.803-28.989-5.64-36.18-6.977a.5.5 0 0 1-.4-.583Zm-37.089 15.588a.5.5 0 0 1 .583-.4c2.552.473 6.101 1.148 10.31 1.95 15.262 2.906 39.2 7.465 55.75 9.998a.5.5 0 1 1-.151.988c-16.571-2.536-40.542-7.1-55.802-10.007-4.202-.8-7.744-1.475-10.289-1.946a.5.5 0 0 1-.401-.583Zm16.686 31.377a.5.5 0 0 1 .573-.414c8.034 1.298 13.865 2.367 20.034 3.499 4.419.81 9.013 1.652 14.713 2.633a.5.5 0 0 1-.169.985 1282.39 1282.39 0 0 1-14.743-2.638c-6.155-1.129-11.963-2.194-19.994-3.492a.5.5 0 0 1-.414-.573ZM124.391 106.98a.5.5 0 0 1 .614-.352 205.375 205.375 0 0 0 11.895 2.856.501.501 0 0 1-.204.979 206.36 206.36 0 0 1-11.953-2.87.5.5 0 0 1-.352-.613ZM162.954 114.235a.5.5 0 0 1 .614-.352c6.364 1.727 15.793 3.579 22.301 4.699a.5.5 0 1 1-.17.985c-6.518-1.121-15.983-2.979-22.393-4.719a.5.5 0 0 1-.352-.613Z" fill="#000"/><path fill-rule="evenodd" clip-rule="evenodd" d="M192.767 50.414a.5.5 0 0 1 .359.609L180.652 99.43a.5.5 0 0 1-.969-.25l12.475-48.407a.5.5 0 0 1 .609-.359Zm-4.257 1.913a.5.5 0 0 1 .359.61l-8.217 31.888a.5.5 0 0 1-.969-.25l8.218-31.888a.5.5 0 0 1 .609-.36Zm-3.755 1.79a.5.5 0 0 1 .36.61l-5.127 19.894a.5.5 0 0 1-.968-.25l5.126-19.894a.5.5 0 0 1 .609-.36ZM205.122 44.674a.5.5 0 0 1 .36.61l-17.586 68.241a.5.5 0 0 1-.969-.25l17.586-68.241a.5.5 0 0 1 .609-.36Zm-4.174 1.595a.5.5 0 0 1 .359.609l-17.833 69.198a.5.5 0 1 1-.968-.25l17.833-69.198a.5.5 0 0 1 .609-.36Zm-3.787 1.913a.5.5 0 0 1 .36.609l-17.188 66.697a.5.5 0 0 1-.969-.25l17.188-66.697a.5.5 0 0 1 .609-.359ZM212.764 42.76a.5.5 0 0 1 .359.61l-16.764 65.052a.5.5 0 1 1-.968-.249l16.764-65.053a.5.5 0 0 1 .609-.36Zm-3.293 0a.5.5 0 0 1 .359.61l-17.257 66.966a.5.5 0 0 1-.969-.25l17.258-66.966a.5.5 0 0 1 .609-.36Zm4.016 11.8a.5.5 0 0 1 .359.609l-13.148 51.021a.5.5 0 1 1-.969-.249l13.149-51.022a.5.5 0 0 1 .609-.36ZM212.552 72.879a.5.5 0 0 1 .359.609l-7.77 30.151a.5.5 0 0 1-.968-.25l7.77-30.15a.5.5 0 0 1 .609-.36Zm0 13.888a.5.5 0 0 1 .359.609l-3.616 14.031a.5.5 0 1 1-.968-.25l3.616-14.03a.5.5 0 0 1 .609-.36ZM149.686 79.282a.5.5 0 0 1-.241.665l-11.824 5.526a.499.499 0 1 1-.423-.906l11.824-5.526a.499.499 0 0 1 .664.241Zm-6.103-1.17a.5.5 0 0 1-.241.664l-5.721 2.674a.499.499 0 1 1-.423-.906l5.721-2.674a.5.5 0 0 1 .664.242ZM166.588 82.397a.5.5 0 0 1-.241.665l-28.381 13.264a.5.5 0 0 1-.424-.906l28.381-13.264a.5.5 0 0 1 .665.241Zm-6.697-.893a.5.5 0 0 1-.241.665l-21.684 10.134a.5.5 0 0 1-.424-.906l21.685-10.134a.5.5 0 0 1 .664.241Zm-5.047-1.161a.5.5 0 0 1-.242.665l-16.636 7.775a.5.5 0 0 1-.424-.906l16.637-7.775a.5.5 0 0 1 .665.24ZM166.864 85.852a.5.5 0 0 1-.241.665L137.966 99.91a.5.5 0 1 1-.423-.906l28.656-13.393a.5.5 0 0 1 .665.241Zm0 3.52a.5.5 0 0 1-.241.665l-28.657 13.393a.5.5 0 1 1-.423-.906l28.656-13.393a.5.5 0 0 1 .665.242Zm-.595 4.302a.5.5 0 0 1-.241.664l-28.062 13.115a.5.5 0 1 1-.423-.906l28.062-13.115a.5.5 0 0 1 .664.242Zm0 3.59a.5.5 0 0 1-.241.665l-28.062 13.115a.5.5 0 1 1-.423-.906l28.062-13.115a.5.5 0 0 1 .664.241Z" fill="#000"/><path d="M102.152 67.981s12.175-3.19 12.308-13.382c-2.271-6.322-3.74-5.37-8.365-6.27-1.3-13.244-13.304-18.78-18.983-12.505-2.946 1.059-4.603-1.862-8.553-1.654-4.36.229-8.616 3.107-11.166 6.322-4.86 6.128-3.438 14.966 1.615 19.337 5.054 4.372 33.144 8.152 33.144 8.152Z" fill="#fff"/><path fill-rule="evenodd" clip-rule="evenodd" d="M104.156 51.619c1.343-.021 2.781.311 3.718 1.141h.001c1.88 1.667 3.226 4.189 2.785 7.068-.468 3.054-1.43 5.799-4.124 7.302-.528.295-1.227.459-2.025.538-.803.08-1.736.076-2.752.013-2.031-.126-4.427-.49-6.839-.924-1.627-.293-3.27-.619-4.816-.926-.745-.147-1.467-.29-2.154-.423-2.128-.412-3.908-.722-5.026-.777a.39.39 0 0 1-.367-.405.38.38 0 0 1 .398-.367c1.183.058 3.018.38 5.133.79.694.134 1.42.278 2.167.426 1.542.306 3.173.63 4.794.92 2.404.433 4.766.791 6.751.915.993.061 1.882.063 2.631-.011.754-.075 1.334-.225 1.73-.446 2.374-1.324 3.284-3.756 3.743-6.75.39-2.55-.794-4.823-2.532-6.364-.735-.651-1.953-.967-3.198-.947-1.249.02-2.402.374-3.006.925a.381.381 0 0 1-.541-.03.39.39 0 0 1 .025-.545c.797-.727 2.164-1.102 3.504-1.123Z" fill="#000"/><path fill-rule="evenodd" clip-rule="evenodd" d="M104.151 51.436c1.366-.022 2.858.315 3.843 1.188 1.914 1.696 3.299 4.277 2.846 7.233-.47 3.068-1.444 5.887-4.215 7.433-.558.312-1.286.48-2.094.56-.816.08-1.76.076-2.781.013-2.042-.127-4.447-.493-6.86-.927a276.629 276.629 0 0 1-4.819-.926c-.745-.147-1.467-.29-2.154-.423-2.131-.413-3.897-.72-5-.774a.573.573 0 0 1-.541-.596.56.56 0 0 1 .586-.54c1.198.058 3.047.384 5.159.792.695.135 1.421.279 2.167.427 1.543.305 3.172.629 4.791.92 2.402.432 4.756.789 6.731.911.987.061 1.866.063 2.601-.01.743-.074 1.296-.22 1.661-.424 2.298-1.282 3.195-3.64 3.652-6.619.379-2.474-.767-4.688-2.471-6.198-.688-.61-1.853-.922-3.075-.902-1.227.02-2.329.37-2.887.879a.562.562 0 0 1-.798-.044.572.572 0 0 1 .036-.803c.842-.768 2.261-1.149 3.622-1.17Zm3.604 1.46c-.889-.787-2.275-1.116-3.595-1.095-1.317.02-2.634.392-3.384 1.077a.205.205 0 0 0-.014.288.2.2 0 0 0 .283.015c.649-.592 1.853-.952 3.124-.972 1.269-.02 2.539.3 3.323.994 1.772 1.57 2.994 3.902 2.591 6.53-.46 3.008-1.382 5.513-3.832 6.88-.427.238-1.036.391-1.801.467-.761.076-1.661.073-2.659.012-1.997-.124-4.367-.484-6.773-.917a274.68 274.68 0 0 1-4.796-.921c-.747-.148-1.473-.292-2.166-.426-2.119-.41-3.941-.73-5.108-.787a.2.2 0 0 0-.209.194.205.205 0 0 0 .192.213c1.134.056 2.927.369 5.052.78.687.133 1.41.276 2.154.424 1.547.307 3.188.632 4.814.924 2.409.434 4.798.797 6.818.922 1.01.063 1.933.066 2.723-.012.787-.078 1.458-.239 1.954-.516 2.619-1.46 3.568-4.132 4.034-7.172.43-2.802-.879-5.265-2.725-6.901Z" fill="#000"/><path fill-rule="evenodd" clip-rule="evenodd" d="M93.509 36.75c3.714 1.57 6.831 4.989 8.213 8.98.283.82.977 3.367.841 6.283a.38.38 0 0 1-.4.364.389.389 0 0 1-.364-.407c.129-2.788-.538-5.234-.8-5.991-1.313-3.793-4.28-7.037-7.781-8.516-3.481-1.47-7.494-1.202-10.987 2.028-.768.712-1.651 1.824-2.203 2.787a.38.38 0 0 1-.523.138.39.39 0 0 1-.14-.529c.589-1.028 1.52-2.202 2.347-2.968 3.728-3.448 8.062-3.746 11.797-2.169Z" fill="#000"/><path fill-rule="evenodd" clip-rule="evenodd" d="M81.588 38.785c3.784-3.5 8.195-3.806 11.99-2.203 3.765 1.59 6.918 5.052 8.316 9.089.288.835.988 3.407.851 6.352a.56.56 0 0 1-.59.537.573.573 0 0 1-.538-.6c.128-2.758-.533-5.18-.789-5.923-1.297-3.746-4.228-6.948-7.679-8.406-3.421-1.445-7.357-1.183-10.793 1.995-.755.699-1.627 1.797-2.17 2.745a.56.56 0 0 1-.772.202.575.575 0 0 1-.207-.778c.598-1.044 1.54-2.232 2.38-3.01Zm.248.27c-.813.752-1.733 1.912-2.313 2.925a.207.207 0 0 0 .073.279.199.199 0 0 0 .274-.073c.561-.978 1.455-2.105 2.238-2.83 3.548-3.281 7.637-3.558 11.179-2.061 3.552 1.5 6.555 4.786 7.884 8.625.267.773.941 3.242.809 6.06a.205.205 0 0 0 .191.215.2.2 0 0 0 .21-.193c.135-2.885-.553-5.409-.831-6.214-1.365-3.944-4.447-7.322-8.11-8.87-3.674-1.551-7.932-1.26-11.604 2.136Z" fill="#000"/><path fill-rule="evenodd" clip-rule="evenodd" d="M68.533 40c3.346-2.814 8.044-3.554 11.538-1.308.326.209.832.663 1.29 1.122.456.458.916.974 1.129 1.321a.388.388 0 0 1-.123.531.382.382 0 0 1-.527-.128c-.16-.262-.562-.721-1.017-1.178-.454-.456-.91-.857-1.159-1.017-3.148-2.024-7.484-1.4-10.639 1.252-3.133 2.635-5.072 7.263-3.371 13.194.732 2.556 2.016 5.55 4.483 7.09 3.48 1.35 7.865 2.09 11.165 2.647.957.162 1.823.308 2.549.45a.39.39 0 0 1 .307.452.379.379 0 0 1-.445.306c-.695-.135-1.536-.277-2.474-.435-3.313-.56-7.837-1.322-11.405-2.713a.376.376 0 0 1-.063-.031c-2.751-1.698-4.108-4.961-4.852-7.556-1.784-6.222.246-11.167 3.614-14Z" fill="#000"/><path fill-rule="evenodd" clip-rule="evenodd" d="M80.167 38.538c-3.577-2.299-8.361-1.531-11.753 1.321l11.753-1.321Zm-.194.307c-3.411-2.192-8.022-1.481-11.324 1.295-3.312 2.786-5.321 7.656-3.556 13.81.741 2.588 2.083 5.79 4.772 7.45l.032.016c3.548 1.382 8.052 2.143 11.369 2.702h.003c.936.159 1.779.3 2.475.436a.2.2 0 0 0 .234-.161.204.204 0 0 0-.16-.239c-.724-.14-1.587-.286-2.545-.448l-.01-.002c-3.294-.556-7.693-1.299-11.191-2.656a.187.187 0 0 1-.031-.015c-2.53-1.579-3.828-4.633-4.563-7.195-1.72-6 .24-10.702 3.429-13.384 3.2-2.69 7.622-3.342 10.853-1.265l.213-.344Zm-.213.344c.267.171.735.585 1.19 1.042.456.457.87.93 1.043 1.212a.2.2 0 0 0 .276.067.205.205 0 0 0 .065-.28c-.2-.328-.646-.83-1.102-1.288-.457-.459-.951-.9-1.26-1.097l-.212.344Zm.407-.651c.344.22.862.687 1.32 1.147.457.459.932.988 1.157 1.355a.569.569 0 0 1-.182.782.564.564 0 0 1-.778-.19c-.148-.241-.535-.688-.99-1.144-.453-.455-.897-.844-1.127-.992h-.001c-3.066-1.97-7.314-1.376-10.424 1.24-3.078 2.588-4.996 7.142-3.314 13.004.729 2.544 1.993 5.47 4.388 6.974 3.458 1.338 7.815 2.075 11.114 2.632h.002c.955.161 1.823.308 2.551.45.308.06.51.359.453.666a.559.559 0 0 1-.657.45c-.692-.134-1.531-.275-2.47-.434l-.01-.001c-3.306-.558-7.845-1.324-11.431-2.721a.597.597 0 0 1-.092-.046c-2.814-1.737-4.187-5.061-4.933-7.663-1.804-6.29.248-11.309 3.67-14.188M107.901 48.095c1.343-.02 2.782.312 3.719 1.142 1.88 1.667 3.227 4.188 2.786 7.068-.468 3.053-3.629 8.346-6.323 9.85-1.35.753-1.299.123-.374-.677 2.374-1.325 5.482-6.304 5.94-9.297.391-2.551-.793-4.824-2.531-6.365-.735-.652-1.953-.968-3.199-.948-1.249.02-2.402.375-3.005.926a.38.38 0 0 1-.541-.03.39.39 0 0 1 .025-.545c.796-.727 2.164-1.102 3.503-1.124Z" fill="#000"/><path fill-rule="evenodd" clip-rule="evenodd" d="M107.897 47.913c1.366-.022 2.858.315 3.843 1.187 1.914 1.697 3.299 4.277 2.846 7.234-.24 1.561-1.161 3.672-2.353 5.575-1.19 1.9-2.673 3.631-4.06 4.405-.343.192-.612.304-.811.344a.594.594 0 0 1-.286 0 .3.3 0 0 1-.21-.217.45.45 0 0 1 .029-.267c.032-.081.082-.167.144-.254.124-.175.312-.375.55-.581a.156.156 0 0 1 .03-.021c1.147-.64 2.497-2.184 3.625-3.962 1.125-1.776 2.002-3.744 2.226-5.205.379-2.474-.767-4.688-2.471-6.199-.688-.609-1.853-.921-3.075-.902-1.227.02-2.329.37-2.887.88a.562.562 0 0 1-.798-.045.571.571 0 0 1 .036-.802c.842-.769 2.26-1.15 3.622-1.17Z" fill="#000"/><path fill-rule="evenodd" clip-rule="evenodd" d="M97.254 33.227c3.714 1.57 6.831 4.988 8.213 8.979.283.82.977 3.368.841 6.283a.38.38 0 0 1-.4.365.388.388 0 0 1-.364-.407c.13-2.789-.538-5.234-.799-5.992-1.314-3.792-4.28-7.036-7.782-8.515-3.481-1.471-7.494-1.202-10.986 2.028-.769.711-.443.315-.995 1.278a.38.38 0 0 1-.523.138.391.391 0 0 1-.141-.529c.59-1.028.312-.693 1.139-1.459 3.729-3.448 8.063-3.746 11.797-2.169Z" fill="#000"/><path fill-rule="evenodd" clip-rule="evenodd" d="M85.333 35.26c3.785-3.499 8.195-3.804 11.99-2.201 3.765 1.59 6.918 5.051 8.316 9.088.288.835.988 3.407.851 6.352a.56.56 0 0 1-.59.537.573.573 0 0 1-.538-.6c.129-2.758-.532-5.18-.789-5.923-1.297-3.745-4.228-6.948-7.679-8.405-3.42-1.446-7.357-1.184-10.793 1.994-.142.131-.247.226-.327.297l-.077.07a1.181 1.181 0 0 0-.154.155 1.677 1.677 0 0 0-.139.239c-.058.107-.139.257-.264.475a.56.56 0 0 1-.772.203.575.575 0 0 1-.207-.778c.11-.19.187-.333.25-.446l.06-.107c.07-.125.121-.214.183-.295.064-.083.134-.154.235-.248l.152-.139.031-.028c.073-.066.159-.144.261-.24Zm.248.27-.263.242-.03.029c-.06.053-.109.097-.15.136-.098.09-.15.144-.195.202a5.91 5.91 0 0 0-.213.356c-.062.113-.143.26-.254.452a.206.206 0 0 0 .074.28.199.199 0 0 0 .274-.073c.123-.215.202-.361.259-.468l.019-.034c.058-.107.099-.183.151-.251.053-.07.113-.127.2-.205l.08-.072c.079-.071.181-.163.32-.291 3.548-3.282 7.637-3.558 11.18-2.062 3.552 1.5 6.554 4.786 7.884 8.626.266.772.94 3.242.809 6.06a.203.203 0 0 0 .19.214c.11.006.205-.079.211-.192.134-2.886-.554-5.41-.832-6.215-1.365-3.944-4.447-7.322-8.11-8.869-3.674-1.552-7.93-1.26-11.604 2.136Z" fill="#000"/><path fill-rule="evenodd" clip-rule="evenodd" d="M72.277 36.476c3.347-2.814 8.169-2.795 10.26-1.804 1.136.435 2.341 1.243 2.899 2.155a.382.382 0 1 1-.65.402c-.464-.759-1.855-1.534-2.833-1.881-2.009-.712-6.028-.93-9.183 1.724-4.826 4.058-13.32 10.192-.493-.596Z" fill="#000"/><path fill-rule="evenodd" clip-rule="evenodd" d="M82.607 34.505c-1.086-.513-2.848-.764-4.752-.539-1.912.226-3.99.936-5.695 2.37-3.207 2.697-5.085 4.339-6.021 5.221-.234.221-.411.396-.536.529a2.794 2.794 0 0 0-.153.173.708.708 0 0 0-.092.139.25.25 0 0 0-.024.111.202.202 0 0 0 .116.176c.055.026.108.02.13.016a.408.408 0 0 0 .076-.02c.084-.03.204-.098.344-.184 1.135-.7 4.474-3.255 6.888-5.285 3.093-2.601 7.04-2.389 9.006-1.692a8.362 8.362 0 0 1 1.573.769c.521.328.955.693 1.164 1.035a.565.565 0 0 0 .779.19.57.57 0 0 0 .181-.782c-.586-.958-1.83-1.785-2.984-2.227Zm-4.706-.176c-1.858.22-3.865.908-5.506 2.288-3.089 2.598-4.939 4.212-5.9 5.109 1.46-1.023 4.13-3.09 6.157-4.795 3.217-2.705 7.308-2.483 9.36-1.755a8.715 8.715 0 0 1 1.645.804c.535.336 1.029.738 1.284 1.155a.199.199 0 0 0 .275.067.204.204 0 0 0 .065-.28c-.528-.864-1.691-1.652-2.807-2.079l-.013-.005c-1.006-.477-2.697-.73-4.56-.51Z" fill="#000"/><path fill-rule="evenodd" clip-rule="evenodd" d="M78.583 34.6c.185.204.17.52-.034.706l-2.967 2.698a.5.5 0 1 1-.672-.74l2.966-2.698a.5.5 0 0 1 .707.034Zm4.136.61a.5.5 0 0 1-.038.707l-3.498 3.135a.5.5 0 1 1-.667-.745l3.497-3.135a.5.5 0 0 1 .706.039Zm11.734-2.337a.5.5 0 0 1-.039.706l-3.497 3.135a.5.5 0 0 1-.668-.744l3.498-3.135a.5.5 0 0 1 .706.038Zm4.361 1.316a.5.5 0 0 1-.038.706l-3.498 3.135a.5.5 0 1 1-.667-.745l3.497-3.135a.5.5 0 0 1 .706.039Zm2.943 2.553a.5.5 0 0 1-.039.706l-3.497 3.135a.5.5 0 1 1-.667-.745l3.497-3.135a.5.5 0 0 1 .706.039Zm2.524 3.23a.5.5 0 0 1-.038.705l-3.498 3.136a.5.5 0 1 1-.667-.745l3.497-3.135a.5.5 0 0 1 .706.038Zm1.374 4.4a.5.5 0 0 1-.039.706l-3.497 3.136a.5.5 0 0 1-.668-.745l3.498-3.135a.5.5 0 0 1 .706.038Zm0 4.377a.5.5 0 0 1-.039.707l-3.497 3.135a.5.5 0 0 1-.668-.745l3.498-3.135a.5.5 0 0 1 .706.038Zm4.695 0a.5.5 0 0 1-.039.707l-3.497 3.135a.5.5 0 0 1-.668-.745l3.498-3.135a.5.5 0 0 1 .706.038Zm2.97 2.907a.5.5 0 0 1-.038.706l-3.498 3.135a.5.5 0 1 1-.667-.745l3.497-3.135a.5.5 0 0 1 .706.039Zm.927 4.724a.5.5 0 0 1-.038.706l-3.498 3.135a.5.5 0 1 1-.667-.744l3.497-3.135a.5.5 0 0 1 .706.038Z" fill="#000"/></g><defs><radialGradient id="b" cx="0" cy="0" r="1" gradientUnits="userSpaceOnUse" gradientTransform="rotate(90.994 29.807 141.593) scale(30.0502 64.4718)"><stop/><stop offset="1" stop-color="#3E7BFA" stop-opacity="0"/></radialGradient><radialGradient id="c" cx="0" cy="0" r="1" gradientUnits="userSpaceOnUse" gradientTransform="rotate(90.994 -34.772 126.289) scale(30.0502 64.4718)"><stop/><stop offset="1" stop-color="#3E7BFA" stop-opacity="0"/></radialGradient><radialGradient id="d" cx="0" cy="0" r="1" gradientUnits="userSpaceOnUse" gradientTransform="rotate(90.994 45.685 200.448) scale(30.0502 64.4718)"><stop/><stop offset="1" stop-color="#3E7BFA" stop-opacity="0"/></radialGradient><clipPath id="a"><path fill="#fff" d="M0 0h290v220H0z"/></clipPath></defs></svg>