<svg xmlns="http://www.w3.org/2000/svg" width="321" height="200" fill="none" viewBox="0 0 321 200">
  <path fill="#DE4C36" d="M261.113 85.979l-10.539-10.336a1.576 1.576 0 00-2.198 0l-2.188 2.146 2.776 2.723a1.87 1.87 0 011.899.434c.517.508.662 1.24.439 1.874l2.675 2.625a1.873 1.873 0 011.911.43 1.788 1.788 0 010 2.566 1.875 1.875 0 01-2.616 0 1.79 1.79 0 01-.403-1.973l-2.495-2.448v6.44c.176.086.342.2.489.344a1.79 1.79 0 010 2.566 1.875 1.875 0 01-2.616 0 1.79 1.79 0 010-2.566c.179-.175.386-.308.606-.396v-6.5a1.84 1.84 0 01-.606-.396 1.788 1.788 0 01-.398-1.984l-2.736-2.684-7.227 7.087a1.505 1.505 0 000 2.157l10.539 10.336a1.577 1.577 0 002.199 0l10.489-10.288a1.505 1.505 0 000-2.157z"/>
  <path fill="#000" fill-rule="evenodd" d="M188.906 127.096a.5.5 0 01.5.5c0 .239-.002.477-.004.715-.017 2.094-.033 4.161 1.167 6.025 1.719 2.671 4.848 3.137 7.454 3.524l.252.038c1.532.229 3.061.337 4.615.446.491.035.985.069 1.481.108 2.057.161 4.149.39 6.255.976.983.273 1.723.691 2.253 1.242.532.554.823 1.211.955 1.911.259 1.364-.078 2.949-.402 4.381a.5.5 0 01-.976-.221c.334-1.475.609-2.85.396-3.974-.103-.544-.319-1.014-.694-1.404-.377-.392-.945-.734-1.8-.972-2.01-.559-4.024-.782-6.065-.942-.479-.037-.961-.071-1.445-.105-1.563-.11-3.146-.222-4.721-.457l-.348-.052c-2.521-.371-6.079-.895-8.051-3.958-1.372-2.131-1.348-4.508-1.327-6.571.002-.241.005-.478.005-.71a.5.5 0 01.5-.5z" clip-rule="evenodd"/>
  <path fill="#000" fill-rule="evenodd" d="M188.678 128.812c-.614 1.098-1.031 2.306-1.466 3.567l-.122.356c-.285.823-.586 1.662-.963 2.479l.321-.143.133-.059c.435-.193.923-.41 1.453-.651a3.692 3.692 0 01-.428.112.5.5 0 11-.186-.982c.394-.075 1.052-.353 1.819-.74a38.43 38.43 0 002.246-1.249 9.615 9.615 0 01-1.527-1.053 5.535 5.535 0 01-.921-.98 3.056 3.056 0 01-.359-.657zm-4.502 7.788a5.823 5.823 0 01-.094.125.501.501 0 00.796.606c.059-.077.116-.155.172-.234 1.567.002 2.918-.976 4.069-2.014.09-.08.179-.162.268-.245a67.716 67.716 0 003.964-2.007 28.48 28.48 0 001.449-.5c.343-.131.608-.25.771-.363a.846.846 0 00.146-.127.587.587 0 00.146-.289.542.542 0 00-.119-.444.613.613 0 00-.228-.166 1.125 1.125 0 00-.305-.072 3.496 3.496 0 00-.301-.017c-.252-.005-.591.005-.932.016-.16.005-.321.01-.473.013a.459.459 0 00-.031-.07.863.863 0 00-.296-.198.9.9 0 00-.155-.011.505.505 0 00-.109.022c-.032.01-.056.021-.063.024l-.026.013-.036.019-.08.047-.209.128a2.022 2.022 0 01-.054-.009c-.057-.01-.081-.019-.085-.02h-.001a8.376 8.376 0 01-1.753-1.139 4.596 4.596 0 01-.754-.797c-.192-.272-.292-.515-.311-.722a4.287 4.287 0 01-.013-.231l-.004-.107a1.846 1.846 0 00-.015-.188.762.762 0 00-.079-.264.545.545 0 00-.542-.294.651.651 0 00-.373.184c-.119.111-.245.29-.383.505-.851 1.332-1.366 2.827-1.859 4.261l-.129.373c-.433 1.249-.873 2.444-1.522 3.519a1.853 1.853 0 00-.092.057.958.958 0 00-.235.202.57.57 0 00-.123.303.51.51 0 00.003.111zm7.714-4.118a8.78 8.78 0 01.337-.26c.209-.125.397-.241.558-.342.077.003.157.005.239.006l-.026.008a.492.492 0 00-.088.039c-.343.189-.684.372-1.02.549zM27.977 134.406a.5.5 0 01-.615-.348 432.71 432.71 0 00-.573-2.034c-.815-2.875-1.64-5.785-2.199-8.753-.223-1.186-.485-2.617-.453-4.035.032-1.424.359-2.883 1.353-4.095 1.641-1.999 3.947-2.922 6.253-3.627a83.804 83.804 0 011.646-.479c1.767-.501 3.46-.981 4.926-1.814.932-.529 1.459-1.226 1.733-2.022.28-.81.308-1.752.182-2.766-.126-1.013-.4-2.064-.697-3.08-.081-.279-.165-.558-.248-.834-.213-.708-.418-1.39-.555-1.988a.5.5 0 11.975-.224c.129.564.32 1.196.528 1.89.084.282.172.574.26.876.3 1.027.593 2.141.73 3.237.136 1.094.12 2.205-.23 3.216-.354 1.025-1.04 1.915-2.185 2.565-1.581.898-3.435 1.423-5.225 1.93-.524.149-1.043.295-1.547.45-2.276.695-4.331 1.549-5.773 3.305-.803.978-1.098 2.189-1.126 3.482-.03 1.299.21 2.632.436 3.828.55 2.919 1.359 5.775 2.173 8.647.194.685.388 1.37.58 2.057a.5.5 0 01-.349.616z" clip-rule="evenodd"/>
  <path fill="#000" fill-rule="evenodd" d="M25.063 136.091a.5.5 0 01-.139-.694l.054-.081a11.822 11.822 0 01-.373-.737 29.496 29.496 0 01-.572-1.32 12.983 12.983 0 00-.329-.761c-.745-1.452-1.389-3.014-2.017-4.538-.271-.659-.54-1.311-.813-1.944a.514.514 0 01.132-.593c.145-.127.31-.129.343-.13h.002c.1-.002.198.022.252.035.133.035.312.096.509.169.401.149.948.374 1.512.614 1.13.48 2.359 1.032 2.703 1.192.536.248 1.239.393 1.956.482.542.068 1.06.1 1.494.127.138.008.268.016.387.025.224.016.458.036.616.078a.81.81 0 01.169.065.559.559 0 01.252.272.53.53 0 01-.048.503.633.633 0 01-.179.176c-.088.06-.198.108-.3.148-.11.043-.245.09-.407.141l-.198.061a.515.515 0 01.145.207c.049.127.034.242.03.272v.001a1.15 1.15 0 01-.06.23c-.09.254-.303.698-.554 1.186-.506.987-1.242 2.296-1.686 2.936 0-.001 0-.001 0 0l-.018.03a13.665 13.665 0 00-.193.364l-.307.61-.072.146a46.02 46.02 0 01-.366.72 5.99 5.99 0 01-.137.248c-.018.03-.041.069-.067.103a.53.53 0 01-.19.167.504.504 0 01-.388.031c-.21-.068-.386-.2-.527-.337-.051-.049-.1-.102-.149-.158a.501.501 0 01-.467-.046zm1.109-.752l.044.058.224-.444-.268.386zm2.983-5.699l-.25.068a.5.5 0 01-.416-.893c-.11-.011-.22-.024-.33-.037-.747-.093-1.574-.254-2.252-.568-.335-.155-1.554-.703-2.674-1.179a53.376 53.376 0 00-1.023-.423c.142.338.281.678.421 1.016.62 1.506 1.238 3.004 1.963 4.417.093.182.217.482.352.809l.038.09c.155.375.333.802.526 1.215.036.077.072.153.109.227.887-1.263 1.822-2.49 2.751-3.71l.756-.994.029-.038zM264.301 75.044a.5.5 0 01-.568-.42c-.105-.694-.213-1.39-.322-2.088-.459-2.954-.923-5.942-1.117-8.956-.077-1.204-.162-2.657.042-4.06.205-1.41.707-2.818 1.842-3.9 1.872-1.784 4.273-2.42 6.647-2.838.57-.1 1.135-.189 1.693-.276 1.814-.282 3.552-.553 5.109-1.2.99-.412 1.597-1.04 1.967-1.797.376-.77.519-1.701.517-2.723-.001-1.021-.146-2.097-.317-3.142-.047-.287-.096-.575-.144-.858-.126-.729-.246-1.43-.309-2.041a.499.499 0 11.994-.103c.06.575.172 1.225.294 1.94.05.29.102.59.152.9.173 1.056.328 2.198.33 3.302.002 1.103-.149 2.204-.619 3.164-.476.975-1.266 1.775-2.481 2.28-1.679.7-3.582.995-5.421 1.28-.538.084-1.071.167-1.591.258-2.343.414-4.487 1.01-6.131 2.578-.917.874-1.357 2.04-1.543 3.32-.186 1.285-.111 2.638-.033 3.852.191 2.964.646 5.897 1.105 8.848.109.702.218 1.406.324 2.111a.5.5 0 01-.42.57z" clip-rule="evenodd"/>
  <path fill="#000" fill-rule="evenodd" d="M261.203 76.362a.5.5 0 01-.053-.705l.063-.074c-.102-.25-.195-.516-.281-.777a30.57 30.57 0 01-.406-1.38c-.103-.37-.179-.645-.234-.796-.563-1.531-1.012-3.16-1.45-4.75-.189-.687-.376-1.367-.57-2.028a.51.51 0 01.203-.572.537.537 0 01.356-.088h.002a.97.97 0 01.246.067c.128.05.298.132.485.229.38.197.895.487 1.426.793 1.063.614 2.215 1.312 2.537 1.512.502.312 1.183.541 1.883.717.53.133 1.04.228 1.468.308l.381.072c.221.043.451.09.602.152a.755.755 0 01.159.085.534.534 0 01.109.794.65.65 0 01-.199.154c-.095.048-.21.083-.316.11-.114.03-.255.059-.421.09l-.204.036c.069.076.103.16.119.223.032.132.004.245-.003.274h-.001a1.12 1.12 0 01-.088.222c-.121.241-.386.656-.694 1.11-.623.918-1.512 2.128-2.031 2.709.001 0 .001 0 0 0l-.021.027-.059.081c-.048.068-.108.156-.177.258-.112.166-.244.365-.378.567l-.091.136c-.163.246-.325.49-.45.67-.062.09-.12.17-.166.23-.022.028-.05.063-.079.094a.517.517 0 01-.21.142.505.505 0 01-.388-.016 1.393 1.393 0 01-.482-.398 2.313 2.313 0 01-.129-.175.5.5 0 01-.458-.103zm1.193-.611l.036.063c.085-.125.179-.267.277-.414a54.73 54.73 0 00-.313.35zm3.654-5.294c-.083.013-.168.025-.257.037a.5.5 0 01-.304-.937c-.107-.024-.214-.05-.322-.077-.731-.183-1.532-.443-2.167-.837-.313-.195-1.457-.887-2.511-1.496a48.449 48.449 0 00-.963-.545l.294 1.06c.432 1.57.863 3.132 1.411 4.623.07.192.157.505.251.846l.026.094a28.196 28.196 0 00.455 1.51c1.034-1.147 2.111-2.251 3.182-3.35a381.81 381.81 0 00.905-.928z" clip-rule="evenodd"/>
  <path fill="#fff" d="M34.3 149.828c-6.428-1.237-10.689 4.233-14.24 9.019-4.963 4.108-3.866 6.585-3.491 7.407 2.41 5.278 5.537 14.621 14.017 15.746 5.016.665 14.163-6.867 17.01-12.332 2.287-4.391-3.625-10.311-4.838-12.366-2.812-4.765-4.433-6.7-8.458-7.474z"/>
  <path fill="#000" fill-rule="evenodd" d="M33.161 152.501c-2.681-2.681-5.774-1.907-6.981-.699-2.18 2.18-6.939 8.328-8.326 10.409-1.483 2.225-.654 4.418.031 5.79.8 1.6 2.253 3.92 3.654 5.989 1.41 2.084 2.723 3.847 3.242 4.366.195.194.407.421.617.645.157.168.313.335.459.485.363.374.73.719 1.13.998.775.543 1.677.845 2.912.536.617-.154 1.455-.575 2.443-1.206.977-.624 2.063-1.429 3.168-2.317a79.957 79.957 0 006.04-5.432c1.634-1.635 1.936-3.229 1.778-4.568-.144-1.228-.673-2.262-1.044-2.988l-.13-.255c-.137-.274-.585-.966-1.253-1.929-.66-.949-1.51-2.128-2.43-3.357-1.844-2.465-3.94-5.097-5.31-6.467zm-7.689-1.406c1.589-1.588 5.314-2.383 8.396.699 1.427 1.426 3.561 4.111 5.405 6.575a124.905 124.905 0 012.449 3.385c.657.946 1.151 1.702 1.327 2.053l.122.24c.369.717.983 1.913 1.15 3.333.192 1.631-.205 3.532-2.065 5.392a80.816 80.816 0 01-6.12 5.504c-1.12.901-2.237 1.73-3.256 2.381-1.008.644-1.958 1.138-2.739 1.333-1.561.391-2.757-.007-3.728-.687-.475-.332-.894-.73-1.273-1.12-.182-.187-.343-.36-.498-.526-.19-.204-.37-.397-.568-.594-.599-.599-1.965-2.448-3.363-4.512-1.406-2.078-2.89-4.442-3.72-6.103-.712-1.424-1.775-4.082.031-6.792 1.41-2.113 6.209-8.319 8.45-10.561z" clip-rule="evenodd"/>
  <path fill="#000" fill-rule="evenodd" d="M37.569 151.66c-2.69-2.689-5.535-2.201-7.451-1.818-1.681.337-2.653.831-3.455 1.473-.41.328-.784.701-1.195 1.134-.117.122-.238.251-.362.384-.31.33-.646.689-1.023 1.066l-.707-.707c.365-.365.683-.705.988-1.03a60.5 60.5 0 01.379-.402c.419-.441.83-.854 1.295-1.226.945-.756 2.07-1.31 3.884-1.672 1.961-.393 5.279-.984 8.354 2.091 1.426 1.426 3.56 4.111 5.404 6.575a121.808 121.808 0 012.45 3.385c.656.946 1.15 1.701 1.326 2.053l.122.24c.369.717.984 1.913 1.15 3.333.192 1.631-.205 3.532-2.065 5.392-1.582 1.582-3.917 3.9-6.21 5.911-1.146 1.005-2.289 1.94-3.327 2.671-1.024.721-1.996 1.279-2.79 1.477-2.826.707-5.073.744-6.637-.037l.448-.895c1.232.616 3.179.654 5.946-.038.603-.151 1.446-.613 2.458-1.325.997-.702 2.11-1.611 3.243-2.605 2.265-1.987 4.58-4.284 6.162-5.866 1.635-1.635 1.937-3.229 1.78-4.569-.145-1.227-.674-2.262-1.045-2.987l-.13-.255c-.136-.274-.584-.967-1.253-1.929a122 122 0 00-2.429-3.357c-1.844-2.466-3.94-5.097-5.31-6.467z" clip-rule="evenodd"/>
  <path fill="#000" fill-rule="evenodd" d="M28.057 154.904c.39-.248.835-.46 1.264-.46.47 0 .903.281 1.248.582.364.317.725.743 1.059 1.193a19.635 19.635 0 011.635 2.695l.161.322-4.866 4.867-4.058-5.681.237-.296a21.594 21.594 0 012.079-2.24 9.246 9.246 0 011.24-.982zm-2.3 3.555l2.929 4.102 3.518-3.519a18.31 18.31 0 00-1.38-2.228c-.313-.423-.625-.784-.912-1.035-.306-.266-.502-.335-.591-.335-.13 0-.373.079-.728.304a8.262 8.262 0 00-1.1.875 20.184 20.184 0 00-1.737 1.836zm-3.371 1.992l4.093 5.731-4.148 4.148-.354-.354c-.733-.734-1.401-1.736-2.136-2.838l-.023-.034c-.85-1.276-.513-2.604.09-3.669.543-.96 1.357-1.809 1.904-2.381l.157-.164.417-.439zm-1.608 3.477c-.518.915-.675 1.8-.128 2.621.63.944 1.16 1.736 1.694 2.353l2.829-2.828-2.897-4.056c-.508.538-1.092 1.194-1.498 1.91zm15.6-2.012l.323.404c.47.588 1.176 1.506 1.767 2.35.295.422.566.833.766 1.18.1.172.187.338.25.487.057.131.123.311.123.49 0 1.227-.617 2.216-1.35 3.04-.367.414-.776.8-1.171 1.162l-.26.237a25.62 25.62 0 00-.86.807l-.382.382-4.871-5.683 5.665-4.856zm-4.255 4.965l3.524 4.111c.169-.159.343-.318.515-.475l.248-.225c.391-.359.768-.716 1.1-1.089.661-.744 1.091-1.497 1.097-2.359-.002-.006-.01-.04-.042-.114a3.877 3.877 0 00-.197-.381c-.179-.31-.432-.694-.72-1.106a46.782 46.782 0 00-1.407-1.892l-4.118 3.53zm-3.407 2.013l3.983 5.576-.135.269c-.154.307-.455.667-.796 1.009a10.55 10.55 0 01-1.23 1.051c-.447.327-.928.623-1.382.816-.426.181-.941.321-1.391.171-1.187-.396-1.966-1.187-2.53-2.032-.403-.604-.717-1.276-.984-1.847a25.615 25.615 0 00-.27-.566l-.177-.354 4.912-4.093zm-3.667 4.357l.14.298c.257.551.52 1.113.878 1.65.486.728 1.104 1.335 2.014 1.638.08.027.297.022.684-.142.359-.153.772-.403 1.183-.703a9.628 9.628 0 001.112-.95c.194-.194.346-.368.454-.511l-2.986-4.179-3.48 2.899z" clip-rule="evenodd"/>
  <g>
    <path fill="#000" fill-rule="evenodd" d="M42.26 171.842a.5.5 0 01.25-.661l5.203-2.342a.5.5 0 01.41.912l-5.202 2.342a.5.5 0 01-.661-.251zm1.716-3.528a.5.5 0 01.209-.676l4-2.107a.5.5 0 11.466.885l-4 2.107a.5.5 0 01-.675-.209zm-.5-3.232a.5.5 0 01.209-.675l3-1.58a.5.5 0 11.466.884l-3 1.581a.5.5 0 01-.675-.21zM37.773 157.509a.5.5 0 01.21-.675l3-1.581a.5.5 0 11.466.885l-3 1.58a.5.5 0 01-.675-.209zm1.558 2.674a.5.5 0 01.21-.675l3.442-1.814a.5.5 0 01.466.885l-3.443 1.814a.5.5 0 01-.675-.21zm1.442 2.298a.5.5 0 01.21-.675l3.5-1.844a.5.5 0 11.466.885l-3.5 1.844a.5.5 0 01-.675-.21zM31.773 150.991a.5.5 0 01.21-.675l2.563-1.35a.5.5 0 11.466.884l-2.563 1.351a.5.5 0 01-.676-.21zm2.563 2.145a.5.5 0 01.21-.676l2.937-1.547a.5.5 0 11.466.885l-2.937 1.547a.5.5 0 01-.676-.209zm1.937 2.037a.5.5 0 01.21-.675l3-1.581a.5.5 0 01.466.885l-3 1.581a.5.5 0 01-.676-.21zM32.221 180.211a.5.5 0 01.42-.568l5-.751a.5.5 0 01.15.989l-5 .75a.5.5 0 01-.57-.42zm2.515-1.934a.5.5 0 01.34-.62l6.5-1.895a.5.5 0 01.28.96l-6.5 1.895a.5.5 0 01-.62-.34zm4.016-2.954a.5.5 0 01.278-.65c.938-.375 1.7-.642 2.394-.885.239-.084.47-.165.696-.246a23.594 23.594 0 002.87-1.224.5.5 0 11.451.892 24.406 24.406 0 01-2.983 1.273c-.238.085-.475.168-.718.253-.689.242-1.422.499-2.338.865a.5.5 0 01-.65-.278z" clip-rule="evenodd"/>
  </g>
  <g>
    <path fill="#000" d="M183.881 161.749c0 .635-.112 1.242-.336 1.82a6.914 6.914 0 01-.952 1.68 12.603 12.603 0 01-1.456 1.596c-.542.504-1.139.999-1.792 1.484a17.868 17.868 0 01-2.408 1.512c-.915.486-1.839.915-2.772 1.288-.915.392-1.783.7-2.604.924-.822.224-1.484.336-1.988.336-.336 0-.579-.046-.728-.14-.168-.074-.252-.261-.252-.56 0-.205.074-.448.224-.728.149-.28.298-.42.448-.42.149 0 .261.047.336.14a.59.59 0 01.084.308v.14a.216.216 0 00-.028.084v.056c.709-.074 1.661-.298 2.856-.672 1.176-.354 2.585-.98 4.228-1.876a17.567 17.567 0 002.1-1.372c.69-.541 1.306-1.11 1.848-1.708a8.865 8.865 0 001.344-1.904c.336-.672.504-1.325.504-1.96 0-.448-.234-.905-.7-1.372-.448-.485-1.027-.933-1.736-1.344a12.2 12.2 0 00-2.268-1.092c-.822-.317-1.587-.532-2.296-.644.018.094.046.327.084.7.037.355.093.775.168 1.26.074.486.158 1.008.252 1.568.112.542.233 1.046.364 1.512.149.523.242.915.28 1.176.056.243.093.448.112.616.018.187.046.43.084.728.056.28.093.579.112.896.037.299.065.588.084.868.037.262.056.467.056.616 0 .168-.038.346-.112.532-.056.187-.131.28-.224.28-.224 0-.383-.074-.476-.224-.075-.168-.15-.438-.224-.812-.056-.392-.131-.896-.224-1.512-.094-.616-.271-1.372-.532-2.268a23.214 23.214 0 01-.784-3.528 36.844 36.844 0 01-.28-2.66h-.14a1.538 1.538 0 00-.336-.028h-.476a4.496 4.496 0 00-.476-.028 1.92 1.92 0 00-.868.196 2.36 2.36 0 00-.644.392c-.187.15-.336.29-.448.42-.131.112-.215.168-.252.168a2.33 2.33 0 01-.532-.084c-.243-.074-.364-.205-.364-.392 0-.242.121-.485.364-.728a3.04 3.04 0 01.84-.672c.336-.205.7-.364 1.092-.476.392-.13.756-.196 1.092-.196.56 0 1.213.075 1.96.224.746.15 1.512.355 2.296.616.802.262 1.586.579 2.352.952a13.29 13.29 0 012.1 1.232c.616.448 1.11.934 1.484 1.456.373.523.56 1.064.56 1.624zM194.023 167.209a.389.389 0 01.028.168c0 .112-.084.28-.252.504a3.118 3.118 0 01-.364.364 3.741 3.741 0 01-.756.504 5.92 5.92 0 01-1.176.448c-.448.131-.98.196-1.596.196-.429 0-.849-.093-1.26-.28a3.457 3.457 0 01-1.092-.868 4.99 4.99 0 01-.784-1.428c-.205-.578-.308-1.25-.308-2.016 0-.728.094-1.409.28-2.044.187-.634.42-1.194.7-1.68.299-.485.626-.868.98-1.148.355-.28.7-.42 1.036-.42.299 0 .598.066.896.196.318.112.598.262.84.448.262.187.467.402.616.644.15.224.224.458.224.7 0 .28-.13.57-.392.868a4.802 4.802 0 01-.896.84 7.712 7.712 0 01-1.064.616c-.354.15-.634.224-.84.224a.427.427 0 01-.308-.14.694.694 0 01-.112-.392c0-.261.112-.466.336-.616.243-.149.504-.28.784-.392.28-.13.532-.28.756-.448a.803.803 0 00.364-.7c0-.037-.046-.13-.14-.28-.093-.149-.345-.224-.756-.224-.186 0-.401.112-.644.336-.242.206-.476.495-.7.868-.224.355-.41.784-.56 1.288a5.424 5.424 0 00-.224 1.596c0 .486.084.924.252 1.316.187.392.42.728.7 1.008.28.262.607.467.98.616.374.15.756.224 1.148.224.28 0 .579-.056.896-.168.336-.13.644-.261.924-.392.299-.149.551-.28.756-.392.224-.13.364-.196.42-.196.056 0 .112.028.168.084a.367.367 0 01.14.168zM199.725 169.337c0 .15-.056.262-.168.336a.688.688 0 01-.392.112c-.168 0-.345-.158-.532-.476a8.645 8.645 0 01-.504-1.204 22.382 22.382 0 01-.476-1.568c-.149-.578-.28-1.11-.392-1.596l-.28-1.26a8.027 8.027 0 01-.084-.56c0-.074-.037-.27-.112-.588-.056-.317-.14-.812-.252-1.484-.093-.672-.205-1.54-.336-2.604a199.285 199.285 0 01-.364-4.004c0-.168.028-.382.084-.644.056-.261.187-.392.392-.392.261 0 .457.178.588.532.149.355.261.794.336 1.316.093.523.159 1.074.196 1.652.037.56.084 1.055.14 1.484.075.598.14 1.139.196 1.624.075.486.14.971.196 1.456.075.467.159.962.252 1.484.112.523.243 1.102.392 1.736l1.12 4.648zM209.691 167.209a.389.389 0 01.028.168c0 .112-.084.28-.252.504a3.118 3.118 0 01-.364.364 3.741 3.741 0 01-.756.504 5.92 5.92 0 01-1.176.448c-.448.131-.98.196-1.596.196-.429 0-.849-.093-1.26-.28a3.457 3.457 0 01-1.092-.868 4.99 4.99 0 01-.784-1.428c-.205-.578-.308-1.25-.308-2.016 0-.728.094-1.409.28-2.044.187-.634.42-1.194.7-1.68.299-.485.626-.868.98-1.148.355-.28.7-.42 1.036-.42.299 0 .598.066.896.196.318.112.598.262.84.448.262.187.467.402.616.644.15.224.224.458.224.7 0 .28-.13.57-.392.868a4.802 4.802 0 01-.896.84 7.712 7.712 0 01-1.064.616c-.354.15-.634.224-.84.224a.427.427 0 01-.308-.14.694.694 0 01-.112-.392c0-.261.112-.466.336-.616.243-.149.504-.28.784-.392.28-.13.532-.28.756-.448a.803.803 0 00.364-.7c0-.037-.046-.13-.14-.28-.093-.149-.345-.224-.756-.224-.186 0-.401.112-.644.336-.242.206-.476.495-.7.868-.224.355-.41.784-.56 1.288a5.424 5.424 0 00-.224 1.596c0 .486.084.924.252 1.316.187.392.42.728.7 1.008.28.262.607.467.98.616.374.15.756.224 1.148.224.28 0 .579-.056.896-.168.336-.13.644-.261.924-.392.299-.149.551-.28.756-.392.224-.13.364-.196.42-.196.056 0 .112.028.168.084a.367.367 0 01.14.168zM218.613 167.685c0 .206-.075.346-.224.42-.149.075-.224.178-.224.308-.019-.018.019.084.112.308.093.224.177.458.252.7.131.504.243.943.336 1.316.112.374.196.719.252 1.036a8.37 8.37 0 01.224 2.016c0 .392-.065.794-.196 1.204a3.547 3.547 0 01-.56 1.092 3.005 3.005 0 01-.896.784 2.353 2.353 0 01-1.204.308c-.691 0-1.241-.14-1.652-.42a3.067 3.067 0 01-1.288-2.016 5.154 5.154 0 01-.084-.672c0-.69.177-1.381.532-2.072.355-.69.747-1.316 1.176-1.876a17.6 17.6 0 011.176-1.4c.355-.373.532-.588.532-.644l-.308-.924a4.4 4.4 0 00-.504.756c-.131.262-.28.514-.448.756-.149.224-.336.42-.56.588-.205.15-.467.224-.784.224-.336 0-.672-.102-1.008-.308-.336-.205-.635-.513-.896-.924a5.728 5.728 0 01-.644-1.484c-.149-.578-.224-1.25-.224-2.016 0-.429.065-.961.196-1.596a8.218 8.218 0 01.616-1.876 5.287 5.287 0 011.036-1.512c.429-.429.924-.644 1.484-.644.317 0 .607.056.868.168.28.112.42.252.42.42 0 .15-.028.271-.084.364a1.454 1.454 0 01-.224.28 1.98 1.98 0 00-.196-.112.461.461 0 00-.252-.056c-.411 0-.784.187-1.12.56-.317.355-.588.803-.812 1.344a9.546 9.546 0 00-.532 1.652 8.108 8.108 0 00-.168 1.512c0 .952.159 1.68.476 2.184.317.486.653.728 1.008.728.168 0 .345-.121.532-.364a6.56 6.56 0 00.56-.84c.187-.317.345-.616.476-.896s.205-.448.224-.504c.037-.186.056-.401.056-.644 0-.205-.009-.429-.028-.672v-.784c0-.485.037-.886.112-1.204.075-.336.261-.504.56-.504.299 0 .513.094.644.28a.972.972 0 01.196.616c0 .168-.009.374-.028.616v.672c0 .206-.009.392-.028.56v.28c0 .112.009.28.028.504.037.206.065.42.084.644.037.206.065.402.084.588a3.877 3.877 0 00.168.588c.037.112.075.196.112.252a.328.328 0 01.112-.112l.14-.14c.093.056.177.168.252.336.093.15.14.234.14.252zm-.952 3.556a16.933 16.933 0 00-.252-.896 53.561 53.561 0 01-.28-.924c-.317.392-.625.766-.924 1.12-.28.374-.541.738-.784 1.092a6.711 6.711 0 00-.56 1.092 3.862 3.862 0 00-.196 1.232c0 .579.159 1.055.476 1.428.336.374.7.56 1.092.56.429 0 .831-.158 1.204-.476.392-.317.588-.774.588-1.372 0-.392-.009-.718-.028-.98a6.767 6.767 0 00-.084-.7 3.02 3.02 0 00-.112-.56 69.203 69.203 0 00-.14-.616zM234.239 164.325c0 .336-.159.756-.476 1.26-.299.486-.71.962-1.232 1.428a7.915 7.915 0 01-1.82 1.204 5.1 5.1 0 01-2.156.476c-.336 0-.691-.056-1.064-.168a5.04 5.04 0 01-1.092-.476 4.822 4.822 0 01-.952-.784 3.041 3.041 0 01-.616-1.064 3.573 3.573 0 00-.42.56c-.15.262-.318.532-.504.812a4.44 4.44 0 01-.616.7c-.224.187-.458.28-.7.28-.243 0-.448-.121-.616-.364a4.157 4.157 0 01-.364-.84 5.869 5.869 0 01-.196-.896 6.906 6.906 0 01-.056-.476c0-.224.065-.644.196-1.26.13-.634.326-1.288.588-1.96a7.49 7.49 0 01.98-1.792c.41-.522.886-.784 1.428-.784.205 0 .336.094.392.28.074.168.112.336.112.504v.84c.093.075.186.131.28.168a.638.638 0 01.28.112.344.344 0 01.196.196c.056.094.084.243.084.448 0 .131-.01.252-.028.364a1.407 1.407 0 00-.028.28c0 .486.037.962.112 1.428.074.467.224.887.448 1.26.224.355.532.654.924.896.392.224.914.336 1.568.336.821 0 1.512-.168 2.072-.504a6.513 6.513 0 001.428-1.148c.392-.429.7-.812.924-1.148.224-.354.41-.532.56-.532.242 0 .364.122.364.364zm-9.828-1.232a.35.35 0 00-.056-.196.44.44 0 01-.056-.196c0-.074.018-.14.056-.196a.4.4 0 00.056-.224c0-.056-.019-.093-.056-.112-.038-.037-.056-.074-.056-.112-.168.038-.346.196-.532.476-.168.28-.336.607-.504.98a8.1 8.1 0 00-.364 1.148 3.94 3.94 0 00-.14.924c0 .131.037.346.112.644.074.299.158.495.252.588.317-.653.606-1.288.868-1.904.28-.616.42-1.222.42-1.82z"/>
    <path fill="#000" d="M242.003 157.493c-.243.28-.588.56-1.036.84-.448.262-.896.504-1.344.728l-1.176.588c-.336.15-.504.252-.504.308 0 .056.037.224.112.504.075.28.159.616.252 1.008.112.374.224.766.336 1.176.112.411.205.775.28 1.092.037.187.084.43.14.728.056.299.103.598.14.896.056.299.103.57.14.812.037.224.056.346.056.364 0 .28-.047.57-.14.868-.093.299-.243.448-.448.448a.425.425 0 01-.308-.14 2.038 2.038 0 01-.252-.308 1.985 1.985 0 01-.168-.364.9.9 0 01-.056-.252v-.168c.019-.074.028-.158.028-.252 0-.354-.056-.868-.168-1.54a14.365 14.365 0 00-.224-.952c-.112-.429-.224-.868-.336-1.316a86.887 86.887 0 00-.448-1.708c-.075-.261-.121-.392-.14-.392-.131 0-.355.084-.672.252-.299.15-.644.346-1.036.588-.392.224-.803.476-1.232.756-.429.262-.831.514-1.204.756-.373.224-.691.42-.952.588-.28.15-.448.224-.504.224a.748.748 0 01-.588-.252.823.823 0 01-.224-.56c0-.112.159-.27.476-.476.299-.224.681-.466 1.148-.728a34.05 34.05 0 011.484-.812 59.16 59.16 0 011.456-.756c.467-.224.849-.41 1.148-.56l.476-.224a83.69 83.69 0 01-.42-2.296 54.959 54.959 0 00-.28-1.596 15.466 15.466 0 01-.112-.784c0-.242.047-.42.14-.532.112-.13.233-.196.364-.196.205 0 .336.14.392.42.205 1.008.392 1.904.56 2.688.187.784.364 1.419.532 1.904.168-.037.457-.14.868-.308.411-.186.84-.382 1.288-.588.448-.205.849-.382 1.204-.532.373-.168.588-.252.644-.252.112 0 .177.038.196.112.037.075.075.14.112.196zM251.308 167.209a.389.389 0 01.028.168c0 .112-.084.28-.252.504a3.118 3.118 0 01-.364.364 3.741 3.741 0 01-.756.504 5.92 5.92 0 01-1.176.448c-.448.131-.98.196-1.596.196-.429 0-.849-.093-1.26-.28a3.457 3.457 0 01-1.092-.868 4.99 4.99 0 01-.784-1.428c-.205-.578-.308-1.25-.308-2.016 0-.728.094-1.409.28-2.044.187-.634.42-1.194.7-1.68.299-.485.626-.868.98-1.148.355-.28.7-.42 1.036-.42.299 0 .598.066.896.196.318.112.598.262.84.448.262.187.467.402.616.644.15.224.224.458.224.7 0 .28-.13.57-.392.868a4.802 4.802 0 01-.896.84 7.712 7.712 0 01-1.064.616c-.354.15-.634.224-.84.224a.427.427 0 01-.308-.14.694.694 0 01-.112-.392c0-.261.112-.466.336-.616.243-.149.504-.28.784-.392.28-.13.532-.28.756-.448a.803.803 0 00.364-.7c0-.037-.046-.13-.14-.28-.093-.149-.345-.224-.756-.224-.186 0-.401.112-.644.336-.242.206-.476.495-.7.868-.224.355-.41.784-.56 1.288a5.424 5.424 0 00-.224 1.596c0 .486.084.924.252 1.316.187.392.42.728.7 1.008.28.262.607.467.98.616.374.15.756.224 1.148.224.28 0 .579-.056.896-.168.336-.13.644-.261.924-.392.299-.149.551-.28.756-.392.224-.13.364-.196.42-.196.056 0 .112.028.168.084a.367.367 0 01.14.168zM259.586 166.453a1.2 1.2 0 01-.336.84c-.205.224-.476.42-.812.588-.317.15-.672.271-1.064.364-.392.094-.765.168-1.12.224-.354.038-.672.066-.952.084h-.504c-.41 0-.728-.065-.952-.196-.224-.13-.336-.364-.336-.7 0-.112.01-.205.028-.28.019-.093.094-.14.224-.14.056 0 .15.019.28.056.131.019.234.028.308.028.075 0 .308-.009.7-.028.411-.037.84-.093 1.288-.168a6.495 6.495 0 001.232-.308c.374-.149.56-.336.56-.56 0-.037-.196-.149-.588-.336a49.03 49.03 0 01-1.708-1.008c-.597-.373-1.017-.746-1.26-1.12-.242-.392-.364-.914-.364-1.568 0-.41.084-.746.252-1.008.187-.261.43-.466.728-.616a3.738 3.738 0 011.064-.308c.411-.074.84-.112 1.288-.112.038 0 .15.019.336.056.206.038.42.103.644.196.224.075.42.178.588.308.187.112.28.243.28.392 0 .038-.037.094-.112.168l-.308.42a5.931 5.931 0 00-.308-.084 6.551 6.551 0 00-.476-.112 2.463 2.463 0 00-.532-.112 2.431 2.431 0 00-.448-.056c-.485 0-.877.094-1.176.28-.298.168-.448.504-.448 1.008 0 .243.094.467.28.672.206.206.458.402.756.588.299.168.616.346.952.532.355.168.682.355.98.56.299.206.542.43.728.672.206.224.308.486.308.784z"/>
  </g>
  <g>
    <path fill="#000" d="M220.36 29.807c0 .373-.028.728-.084 1.064-.037.336-.14.681-.308 1.036-.149.336-.364.7-.644 1.092-.28.392-.644.84-1.092 1.344a9.381 9.381 0 01-1.904 1.596c-.728.466-1.54.7-2.436.7-.56 0-1.12-.094-1.68-.28a4.379 4.379 0 01-1.456-.84 4.368 4.368 0 01-1.008-1.4c-.261-.56-.392-1.214-.392-1.96 0-1.195.224-2.446.672-3.752.448-1.326 1.074-2.744 1.876-4.256a55.84 55.84 0 011.456-2.604c.448-.766.887-1.4 1.316-1.904.43-.523.859-.915 1.288-1.176.43-.262.887-.392 1.372-.392.374 0 .691.074.952.224.28.13.42.401.42.812 0 .13-.028.252-.084.364a.275.275 0 01-.252.14c-.149 0-.261-.038-.336-.112-.056-.094-.233-.14-.532-.14-.504 0-.998.233-1.484.7a10.906 10.906 0 00-1.372 1.624c-.41.597-.774 1.194-1.092 1.792a65.653 65.653 0 00-1.4 2.968 48.683 48.683 0 00-.756 1.96 23.683 23.683 0 00-.616 1.96c-.168.616-.252 1.129-.252 1.54 0 .522.084.989.252 1.4.187.392.43.728.728 1.008.299.28.644.494 1.036.644.411.13.84.196 1.288.196.616 0 1.242-.15 1.876-.448a6.186 6.186 0 001.736-1.176 5.825 5.825 0 001.26-1.68c.336-.635.504-1.279.504-1.932 0-.654-.168-1.195-.504-1.624-.336-.43-.709-.644-1.12-.644-.261 0-.448.046-.56.14a1.562 1.562 0 00-.28.308c-.13.205-.252.373-.364.504-.112.13-.308.242-.588.336-.448.149-.802.261-1.064.336-.242.056-.42.102-.532.14l-.224.056c-.112 0-.27-.075-.476-.224-.186-.168-.28-.299-.28-.392 0-.336.196-.654.588-.952a7.708 7.708 0 011.372-.84c.504-.262.99-.467 1.456-.616.467-.15.756-.224.868-.224.56 0 1.018.112 1.372.336.374.224.663.513.868.868.224.354.383.746.476 1.176.094.41.14.812.14 1.204zM223.993 23.479c0 .037-.066.112-.196.224-.131.112-.29.233-.476.364a5.003 5.003 0 01-.532.308c-.187.093-.336.14-.448.14h-.308a1.593 1.593 0 01-.364-.112 1.177 1.177 0 01-.308-.224.63.63 0 01-.14-.42c0-.262.093-.504.28-.728a.875.875 0 01.728-.364c.056 0 .177.028.364.084a3.8 3.8 0 01.616.168c.205.074.382.158.532.252.168.093.252.196.252.308zm.924 10.472c0 .13-.103.242-.308.336-.187.093-.327.14-.42.14-.187 0-.355-.122-.504-.364a4.346 4.346 0 01-.392-.84 11.67 11.67 0 01-.28-.896 10.363 10.363 0 00-.168-.616c-.056-.187-.131-.411-.224-.672a39.221 39.221 0 00-.28-.756 80.35 80.35 0 01-.196-.644 2.864 2.864 0 01-.084-.308c0-.262.046-.504.14-.728.112-.224.242-.336.392-.336.168 0 .345.13.532.392.186.261.364.597.532 1.008.186.392.354.83.504 1.316.149.466.28.914.392 1.344.112.41.196.774.252 1.092.074.298.112.476.112.532z"/>
    <path fill="#000" d="M234.108 23.703c-.242.28-.588.56-1.036.84a23.75 23.75 0 01-1.344.728l-1.176.588c-.336.149-.504.252-.504.308 0 .056.038.224.112.504.075.28.159.616.252 1.008.112.373.224.765.336 1.176.112.41.206.774.28 1.092.038.186.084.429.14.728.056.298.103.597.14.896.056.298.103.569.14.812.038.224.056.345.056.364 0 .28-.046.569-.14.868-.093.298-.242.448-.448.448a.43.43 0 01-.308-.14 2.053 2.053 0 01-.252-.308 2.153 2.153 0 01-.168-.364.9.9 0 01-.056-.252v-.168c.019-.075.028-.159.028-.252 0-.355-.056-.868-.168-1.54a14.218 14.218 0 00-.224-.952c-.112-.43-.224-.868-.336-1.316-.13-.523-.28-1.092-.448-1.708-.074-.262-.121-.392-.14-.392-.13 0-.354.084-.672.252a13.5 13.5 0 00-1.036.588c-.392.224-.802.476-1.232.756-.429.261-.83.513-1.204.756-.373.224-.69.42-.952.588-.28.149-.448.224-.504.224a.751.751 0 01-.588-.252.825.825 0 01-.224-.56c0-.112.159-.271.476-.476.299-.224.682-.467 1.148-.728.448-.262.943-.532 1.484-.812a59.16 59.16 0 011.456-.756c.467-.224.85-.411 1.148-.56l.476-.224a84.178 84.178 0 01-.42-2.296 51.02 51.02 0 00-.28-1.596 17.218 17.218 0 01-.112-.784c0-.243.047-.42.14-.532.112-.131.234-.196.364-.196.206 0 .336.14.392.42.206 1.008.392 1.904.56 2.688.187.784.364 1.418.532 1.904.168-.038.458-.14.868-.308l1.288-.588c.448-.206.85-.383 1.204-.532.374-.168.588-.252.644-.252.112 0 .178.037.196.112.038.074.075.14.112.196zM254.867 23.087c0 1.213-.149 2.277-.448 3.192-.28.914-.606 1.726-.98 2.436-.354.69-.709 1.316-1.064 1.876-.336.541-.56 1.064-.672 1.568-.093.336-.298.504-.616.504h-.084c-.018-.019-.046-.028-.084-.028.131.317.327.681.588 1.092.262.392.523.793.784 1.204.262.41.486.812.672 1.204.206.392.308.728.308 1.008 0 .149-.102.289-.308.42-.186.149-.354.224-.504.224-.074 0-.13-.047-.168-.14-.186-.672-.532-1.391-1.036-2.156a46.835 46.835 0 01-1.568-2.576 20.703 20.703 0 01-1.4-3.22c-.41-1.195-.616-2.548-.616-4.06 0-.635.028-1.167.084-1.596.075-.448.271-.672.588-.672.187 0 .318.056.392.168a.64.64 0 01.112.364c0 1.698.159 3.192.476 4.48.318 1.288.672 2.286 1.064 2.996l.476-.728c.486-.747.906-1.4 1.26-1.96.355-.579.644-1.139.868-1.68a8.01 8.01 0 00.476-1.708c.112-.579.168-1.251.168-2.016 0-.206-.028-.43-.084-.672a1.752 1.752 0 00-.224-.644 1.449 1.449 0 00-.364-.504.819.819 0 00-.56-.196c-.298 0-.756.084-1.372.252-.597.168-1.213.392-1.848.672-.634.28-1.213.597-1.736.952-.522.336-.84.681-.952 1.036a1.164 1.164 0 01-.084.14c-.037.056-.074.084-.112.084-.13 0-.27-.103-.42-.308-.149-.206-.224-.383-.224-.532 0-.336.15-.663.448-.98a4.954 4.954 0 011.12-.868c.467-.262.98-.495 1.54-.7.56-.224 1.102-.402 1.624-.532.523-.15.99-.262 1.4-.336.43-.094.738-.14.924-.14.299 0 .579.084.84.252.28.168.514.392.7.672.187.28.336.606.448.98.112.373.168.765.168 1.176zM263.812 27.819c0 .13-.056.242-.168.336-.112.074-.243.14-.392.196-.15.056-.299.102-.448.14a3.07 3.07 0 01-.364.028c-.28 0-.467-.019-.56-.056a.65.65 0 00-.224-.056c-.467 0-.84.037-1.12.112a1.46 1.46 0 00-.672.364c-.15.168-.252.382-.308.644a5.94 5.94 0 00-.056.896c0 .597.018 1.073.056 1.428.056.354.102.644.14.868.056.224.102.401.14.532a.746.746 0 01.084.336c0 .149-.084.308-.252.476-.15.168-.29.252-.42.252-.224 0-.43-.196-.616-.588a9.89 9.89 0 01-.448-1.428c-.112-.56-.206-1.111-.28-1.652a9.744 9.744 0 01-.112-1.232c0-.318.028-.616.084-.896.056-.299.13-.551.224-.756a1.99 1.99 0 01.308-.532c.112-.131.224-.196.336-.196.093 0 .168.037.224.112.056.056.102.13.14.224l.112.224a.268.268 0 00.196.084c.168 0 .438-.084.812-.252.373-.168.83-.252 1.372-.252.504 0 .877.018 1.12.056.261.018.513.074.756.168a.554.554 0 01.196.14c.093.056.14.149.14.28zM271.075 30.31c0 .411-.056.803-.168 1.177-.112.373-.261.7-.448.98-.186.28-.41.504-.672.672-.242.149-.513.224-.812.224-.522 0-.933-.15-1.232-.448a3.288 3.288 0 01-.7-1.036 5.491 5.491 0 01-.308-1.176c-.037-.411-.056-.719-.056-.924 0-.336.047-.71.14-1.12.112-.43.252-.822.42-1.176.187-.355.392-.654.616-.896.224-.243.458-.364.7-.364a.89.89 0 01.252.056c.131.037.262.093.392.168.131.074.243.168.336.28a.828.828 0 01.224.392c.206.018.411.093.616.224.206.13.318.233.336.308.15.485.243.97.28 1.456.056.485.084.886.084 1.204zm-1.26-.503c0-.28-.028-.57-.084-.868a3.234 3.234 0 00-.336-.952.31.31 0 01-.14.028.622.622 0 01-.196-.028.245.245 0 00-.112-.028c-.224 0-.401.065-.532.196a1.12 1.12 0 00-.308.476 3.038 3.038 0 00-.112.616 8.066 8.066 0 000 1.344c.019.242.056.476.112.7.075.224.168.42.28.588.112.149.262.224.448.224.187 0 .346-.094.476-.28a2.62 2.62 0 00.308-.7c.075-.262.122-.514.14-.756.038-.262.056-.448.056-.56zM279.343 26.503c0 .056-.047.298-.14.728-.093.429-.187.914-.28 1.456-.056.317-.149.793-.28 1.428-.112.616-.168 1.558-.168 2.828 0 .037-.009.14-.028.308 0 .149-.028.308-.084.476a1.51 1.51 0 01-.196.476c-.093.13-.233.196-.42.196-.168 0-.355-.075-.56-.224a7.791 7.791 0 01-2.296-2.632 7.977 7.977 0 01-.644-1.68 7.047 7.047 0 01-.224-1.764c0-.075.047-.14.14-.196.112-.075.196-.112.252-.112.28 0 .495.158.644.476.168.317.327.7.476 1.148.168.448.355.924.56 1.428.224.485.551.905.98 1.26.056-.075.103-.215.14-.42.037-.206.065-.383.084-.532.019-.131.047-.383.084-.756.037-.392.075-.803.112-1.232.056-.43.093-.84.112-1.232.037-.392.056-.663.056-.812 0-.112.009-.243.028-.392.019-.15.056-.29.112-.42.075-.131.168-.243.28-.336a.677.677 0 01.448-.14c.093 0 .252.065.476.196.224.112.336.27.336.476zM283.465 23.479c0 .037-.065.112-.196.224-.13.112-.289.233-.476.364a4.905 4.905 0 01-.532.308c-.186.093-.336.14-.448.14h-.308a1.609 1.609 0 01-.364-.112 1.194 1.194 0 01-.308-.224.636.636 0 01-.14-.42c0-.262.094-.504.28-.728a.878.878 0 01.728-.364c.056 0 .178.028.364.084.206.037.411.093.616.168.206.074.383.158.532.252.168.093.252.196.252.308zm.924 10.472c0 .13-.102.242-.308.336-.186.093-.326.14-.42.14-.186 0-.354-.122-.504-.364a4.406 4.406 0 01-.392-.84 12.13 12.13 0 01-.28-.896 8.977 8.977 0 00-.168-.616c-.056-.187-.13-.411-.224-.672a29.28 29.28 0 00-.28-.756l-.196-.644a2.864 2.864 0 01-.084-.308c0-.262.047-.504.14-.728.112-.224.243-.336.392-.336.168 0 .346.13.532.392.187.261.364.597.532 1.008.187.392.355.83.504 1.316.15.466.28.914.392 1.344.112.41.196.774.252 1.092.075.298.112.476.112.532zM294.085 31.85c0 .094-.047.187-.14.28a.488.488 0 00-.14.253c0 .205.037.401.112.588.093.186.14.41.14.672 0 .242-.075.364-.224.364-.187 0-.327.028-.42.084a1.799 1.799 0 01-.42.112c-.112 0-.233-.103-.364-.308a1.434 1.434 0 01-.196-.336c0-.019-.056.018-.168.112-.093.093-.261.205-.504.336a5.377 5.377 0 01-.952.336c-.392.093-.896.14-1.512.14-.523 0-.98-.112-1.372-.336a3.305 3.305 0 01-.98-.924 4.542 4.542 0 01-.56-1.26 6.456 6.456 0 01-.168-1.456c0-.448.047-.868.14-1.26.112-.411.261-.766.448-1.064.187-.318.42-.57.7-.756.28-.187.607-.28.98-.28.355 0 .709.112 1.064.336a6.378 6.378 0 011.624 1.456l.28.308a854.021 854.021 0 01-.7-3.948c-.093-.504-.187-.999-.28-1.484a33.488 33.488 0 00-.224-1.344c-.075-.392-.14-.719-.196-.98a6.323 6.323 0 01-.056-.504 6.975 6.975 0 01-.056-.588l-.056-.924a69.785 69.785 0 00-.056-.868 3.851 3.851 0 00-.056-.504c-.056-.187-.131-.42-.224-.7a3.89 3.89 0 01-.112-.476c0-.094.047-.206.14-.336.093-.15.215-.224.364-.224.112 0 .215.009.308.028a.436.436 0 01.252.168c.075.093.14.242.196.448.075.186.14.457.196.812.019.186.075.541.168 1.064.093.522.187 1.092.28 1.708.093.616.187 1.204.28 1.764.093.56.159.97.196 1.232.093.709.215 1.484.364 2.324a170 170 0 00.504 2.38c.168.765.336 1.446.504 2.044.168.578.317.97.448 1.176.037.074.112.13.224.168.112.018.187.074.224.168zm-2.072.56c-.019-.055-.14-.289-.364-.7-.205-.429-.476-.886-.812-1.371a6.988 6.988 0 00-1.092-1.344c-.392-.392-.775-.588-1.148-.588-.317 0-.579.242-.784.728-.187.485-.28 1.045-.28 1.68 0 .709.205 1.278.616 1.708.429.429.905.644 1.428.644.448 0 .915-.075 1.4-.224.485-.15.831-.327 1.036-.532zM304.035 33.419a.4.4 0 01.028.168c0 .112-.084.28-.252.504a3.229 3.229 0 01-.364.364 3.8 3.8 0 01-.756.504c-.318.168-.71.317-1.176.448-.448.13-.98.196-1.596.196-.43 0-.85-.094-1.26-.28a3.448 3.448 0 01-1.092-.868 4.942 4.942 0 01-.784-1.428c-.206-.579-.308-1.251-.308-2.016a7.2 7.2 0 01.28-2.044c.186-.635.42-1.195.7-1.68.298-.486.625-.868.98-1.148.354-.28.7-.42 1.036-.42.298 0 .597.065.896.196.317.112.597.261.84.448.261.186.466.401.616.644.149.224.224.457.224.7 0 .28-.131.569-.392.868a4.886 4.886 0 01-.896.84c-.355.242-.71.448-1.064.616-.355.149-.635.224-.84.224a.428.428 0 01-.308-.14.688.688 0 01-.112-.392c0-.262.112-.467.336-.616.242-.15.504-.28.784-.392.28-.131.532-.28.756-.448a.806.806 0 00.364-.7c0-.038-.047-.131-.14-.28-.094-.15-.346-.224-.756-.224-.187 0-.402.112-.644.336-.243.205-.476.494-.7.868a5.132 5.132 0 00-.56 1.288 5.385 5.385 0 00-.224 1.596c0 .485.084.924.252 1.316.186.392.42.728.7 1.008.28.261.606.466.98.616.373.149.756.224 1.148.224a2.7 2.7 0 00.896-.168c.336-.131.644-.262.924-.392.298-.15.55-.28.756-.392.224-.131.364-.196.42-.196.056 0 .112.028.168.084a.38.38 0 01.14.168zM312.62 27.819c0 .13-.056.242-.168.336-.112.074-.242.14-.392.196a4.05 4.05 0 01-.448.14c-.149.018-.27.028-.364.028-.28 0-.466-.019-.56-.056a.644.644 0 00-.224-.056c-.466 0-.84.037-1.12.112a1.46 1.46 0 00-.672.364 1.389 1.389 0 00-.308.644 6.075 6.075 0 00-.056.896c0 .597.019 1.073.056 1.428.056.354.103.644.14.868.056.224.103.401.14.532a.746.746 0 01.084.336c0 .149-.084.308-.252.476-.149.168-.289.252-.42.252-.224 0-.429-.196-.616-.588-.168-.411-.317-.887-.448-1.428a28.06 28.06 0 01-.28-1.652c-.074-.542-.112-.952-.112-1.232 0-.318.028-.616.084-.896.056-.299.131-.551.224-.756.094-.224.196-.402.308-.532.112-.131.224-.196.336-.196.094 0 .168.037.224.112.056.056.103.13.14.224l.112.224a.27.27 0 00.196.084c.168 0 .439-.084.812-.252.374-.168.831-.252 1.372-.252.504 0 .878.018 1.12.056.262.018.514.074.756.168a.546.546 0 01.196.14c.094.056.14.149.14.28z"/>
  </g>
  <g>
    <path fill="#fff" d="M188.163 96.378c-4.549-.922-7.549 3.078-10.049 6.578-3.5 3-2.719 4.819-2.451 5.422 1.717 3.875 3.951 10.732 9.951 11.578 3.549.5 10-5 12-9 1.607-3.214-2.589-7.569-3.452-9.078-1.999-3.5-3.151-4.923-5.999-5.5z"/>
    <path fill="#00ACE4" fill-rule="evenodd" d="M182.614 97.456c.924-.925 3.735-.265 5 1 2 2 7.5 9 7.5 10.5s-.732 3.232-2.5 5c-2 2-6.5 5-7.5 5.5s-2 .5-5-3.5-5.5-8-5-9c.4-.8 4.5-6.5 7.5-9.5zm-1.195 5.5l2.5 3.5 3-3c-.5-1-1.7-3-2.5-3s-2.333 1.666-3 2.5zm4.5 6l3.5-3c.667.833 2 2.6 2 3 0 1.206-.969 2.088-1.869 2.908-.219.2-.434.396-.631.592l-3-3.5zm.5 5.5l-2.5-3.5-3 2.5c.069.137.138.284.209.437.448.956.998 2.132 2.291 2.563.759.253 2.667-1.334 3-2zm-4.5-6l-2.5-3.5a58.22 58.22 0 01-.111.117c-.828.865-2.344 2.45-1.389 3.883l.001.001c.538.807.999 1.499 1.499 1.999l2.5-2.5z" clip-rule="evenodd"/>
    <g>
      <path fill="#000" fill-rule="evenodd" d="M192.914 113.932a.5.5 0 01.25-.661l4-1.801a.501.501 0 01.411.912l-4 1.801a.5.5 0 01-.661-.251zm1.621-3.57a.5.5 0 01.209-.676l2.893-1.524a.5.5 0 01.466.885l-2.893 1.524a.5.5 0 01-.675-.209zm-.931-3.005a.5.5 0 01.209-.675l2.324-1.224a.5.5 0 11.466.884l-2.324 1.225a.5.5 0 01-.675-.21zM188.03 99.585a.5.5 0 01.214-.666c.516-.272.828-.405 1.129-.534l1.081-.51a.5.5 0 01.447.894c-.51.268-.819.401-1.118.529l-1.092.516a.5.5 0 01-.661-.229zm2.002 2.505a.501.501 0 01.212-.671 24.06 24.06 0 011.121-.56l1.079-.539a.5.5 0 01.457.89c-.572.301-.838.427-1.1.55l-1.1.549a.5.5 0 01-.669-.219zm1.517 2.53a.5.5 0 01.169-.686l2.191-1.326a.499.499 0 11.518.855l-2.191 1.326a.5.5 0 01-.687-.169zM186.03 98.085a.5.5 0 01.224-.67l2-1a.499.499 0 11.447.894l-2 1a.5.5 0 01-.671-.224zM187.174 118.619a.501.501 0 01.424-.566l3.032-.433a.5.5 0 01.141.99l-3.031.433a.5.5 0 01-.566-.424zm3.042-2.209a.5.5 0 01.354-.606c.465-.127.907-.226 1.337-.321l1.954-.468a.5.5 0 01.254.967 26.46 26.46 0 01-1.677.409l-.102.022-.206.045-1.313.315a.501.501 0 01-.601-.363z" clip-rule="evenodd"/>
      <g>
        <path fill="#000" fill-rule="evenodd" d="M187.124 99.215c-1.861-1.86-3.983-1.31-4.793-.5-1.55 1.55-4.949 5.941-5.938 7.424-1.015 1.523-.455 3.026.031 3.999l-.444.222.444-.222c.569 1.136 1.603 2.789 2.605 4.269 1.01 1.492 1.942 2.741 2.302 3.101.139.139.296.307.448.47.113.12.223.238.323.34.257.265.513.505.787.697.527.369 1.131.571 1.967.362.418-.105 1.002-.395 1.706-.845a26.653 26.653 0 002.253-1.648 57.037 57.037 0 004.309-3.876c1.137-1.137 1.34-2.233 1.232-3.15-.1-.851-.467-1.568-.733-2.089a10.773 10.773 0 01-.093-.184c-.092-.184-.406-.671-.886-1.362a88.52 88.52 0 00-1.735-2.397c-1.319-1.764-2.814-3.639-3.785-4.61zm-5.5-1.207c1.19-1.19 3.945-1.762 6.207.5 1.028 1.029 2.56 2.956 3.879 4.719a88.603 88.603 0 011.755 2.425c.468.674.828 1.224.959 1.486l.087.169c.263.512.715 1.391.838 2.434.142 1.208-.156 2.612-1.518 3.974a58.092 58.092 0 01-4.389 3.948 27.748 27.748 0 01-2.342 1.712c-.724.462-1.42.827-2.001.972-1.164.291-2.061-.007-2.783-.513a6.539 6.539 0 01-.932-.819c-.135-.139-.25-.263-.361-.381a17.213 17.213 0 00-.399-.419c-.44-.44-1.426-1.774-2.423-3.248-1.007-1.487-2.072-3.184-2.671-4.382l.447-.223-.447.223c-.513-1.026-1.307-2.993.031-5.001 1.011-1.516 4.451-5.964 6.063-7.576z" clip-rule="evenodd"/>
        <path fill="#000" fill-rule="evenodd" d="M190.276 98.614c-1.868-1.87-3.836-1.535-5.201-1.262-1.184.237-1.857.583-2.41 1.025-.285.228-.548.49-.841.798l-.256.273c-.222.236-.465.496-.737.767l-.707-.707c.259-.26.485-.5.702-.732l.273-.29c.301-.316.601-.618.941-.89.697-.557 1.523-.961 2.839-1.225 1.41-.281 3.85-.719 6.104 1.535 1.029 1.029 2.561 2.957 3.88 4.719a90.081 90.081 0 011.755 2.426c.468.674.828 1.223.959 1.485l.086.17c.264.512.716 1.39.838 2.433.143 1.208-.155 2.612-1.518 3.975-1.131 1.131-2.805 2.792-4.449 4.234-.821.721-1.643 1.394-2.392 1.92-.734.518-1.448.93-2.043 1.079-2.03.507-3.679.545-4.845-.038l.447-.894c.834.417 2.184.454 4.155-.038.404-.101.989-.419 1.711-.926.708-.498 1.499-1.145 2.308-1.855 1.616-1.418 3.269-3.057 4.401-4.19 1.138-1.137 1.34-2.233 1.232-3.15-.1-.851-.466-1.568-.732-2.088l-.093-.184c-.093-.185-.407-.672-.887-1.363a88.284 88.284 0 00-1.734-2.397c-1.32-1.764-2.814-3.639-3.786-4.61z" clip-rule="evenodd"/>
        <path fill="#000" fill-rule="evenodd" d="M183.497 100.713c.284-.18.631-.351.98-.351.391 0 .734.231.987.451.271.237.536.55.778.876.484.655.924 1.432 1.183 1.949l.161.323-3.673 3.672-3.062-4.288.236-.296c.344-.43.912-1.075 1.502-1.618.294-.271.606-.527.908-.718zm-1.39 2.671l1.934 2.707 2.324-2.324a12.792 12.792 0 00-.927-1.483 4.558 4.558 0 00-.632-.717 1.197 1.197 0 00-.24-.172.245.245 0 00-.089-.033c-.051 0-.195.037-.444.195-.232.148-.495.36-.767.61a14.3 14.3 0 00-1.159 1.217zm-2.575 1.194l3.098 4.338-3.153 3.153-.353-.354c-.535-.535-1.02-1.261-1.541-2.043l-.022-.033c-.651-.977-.384-1.991.059-2.774.398-.702.993-1.323 1.383-1.731l.112-.117.417-.439zm-1.041 2.78c-.359.634-.446 1.204-.098 1.726.413.62.76 1.139 1.102 1.553l1.829-1.829-1.901-2.662c-.329.356-.681.768-.932 1.212zm11.054-1.712l.323.403c.337.423.844 1.081 1.269 1.689.212.302.409.601.555.854.072.126.138.25.186.363.042.097.099.248.099.407 0 .929-.468 1.669-1.001 2.269-.268.302-.565.582-.848.842l-.188.171c-.218.199-.422.384-.609.571l-.382.382-3.677-4.289 4.273-3.662zm-2.863 3.77l2.332 2.72.263-.241.175-.16c.279-.256.545-.507.777-.768.457-.515.737-1.015.748-1.572a2.566 2.566 0 00-.152-.304 11.037 11.037 0 00-.507-.78c-.291-.416-.625-.86-.911-1.23l-2.725 2.335zm-2.611 1.217l2.988 4.183-.134.269c-.121.241-.35.512-.596.759-.257.258-.57.527-.897.766a5.321 5.321 0 01-1.017.6c-.311.132-.722.251-1.096.126-.888-.296-1.469-.888-1.883-1.509-.294-.442-.527-.939-.719-1.349-.067-.143-.129-.276-.187-.393l-.177-.354 3.718-3.098zm-2.474 3.363l.058.124c.182.39.364.777.613 1.152.336.504.756.912 1.367 1.115h-.001s.028.007.096-.005a1.36 1.36 0 00.294-.092c.243-.104.529-.276.818-.487.286-.209.56-.445.778-.665.101-.101.183-.191.248-.269l-1.984-2.778-2.287 1.905z" clip-rule="evenodd"/>
      </g>
    </g>
  </g>
  <g>
    <path fill="#9293AB" fill-rule="evenodd" d="M230.723 90.494a.5.5 0 01-.295.642c-7.643 2.827-19.38 7.059-27.05 9.806a.5.5 0 01-.338-.941c7.67-2.748 19.403-6.978 27.041-9.803a.5.5 0 01.642.296z" clip-rule="evenodd"/>
    <path fill="#9293AB" fill-rule="evenodd" d="M220.185 92.382a.5.5 0 01.373-.601l.315-.076c.823-.197 2.831-.68 4.782-1.07 1.142-.229 2.281-.429 3.159-.52a6.93 6.93 0 011.136-.046c.151.01.311.033.452.085.128.046.353.158.447.419l.055.153-.046.156a1.757 1.757 0 01-.384.65c-.169.192-.38.379-.613.56-.466.362-1.064.733-1.703 1.097-.588.337-1.226.676-1.845 1.005-.054.03-.109.058-.163.087-.673.358-1.314.702-1.855 1.024a.5.5 0 01-.511-.86 48.79 48.79 0 011.896-1.046c.054-.03.108-.058.161-.086.621-.331 1.246-.664 1.821-.992.627-.358 1.177-.701 1.586-1.019.107-.084.202-.163.285-.239-.174.006-.38.021-.615.046-.83.087-1.932.279-3.067.506-1.928.386-3.908.862-4.739 1.062l-.326.077a.5.5 0 01-.601-.372z" clip-rule="evenodd"/>
    <g>
      <path fill="#9293AB" fill-rule="evenodd" d="M204.916 107.358a.5.5 0 01.296-.642c4.282-1.584 9.747-3.442 15.067-5.251 4.156-1.413 8.224-2.796 11.571-3.995a.5.5 0 11.337.942c-3.389 1.214-7.465 2.6-11.62 4.012-5.296 1.8-10.72 3.644-15.009 5.23a.5.5 0 01-.642-.296z" clip-rule="evenodd"/>
      <path fill="#9293AB" fill-rule="evenodd" d="M215.455 105.47a.5.5 0 01-.373.601l-.315.075c-.823.198-2.831.681-4.782 1.071-1.143.229-2.282.429-3.16.52-.435.046-.829.067-1.136.046a1.736 1.736 0 01-.452-.085c-.128-.047-.353-.158-.446-.419l-.055-.153.045-.156a1.76 1.76 0 01.385-.65c.168-.192.379-.379.612-.56.466-.362 1.065-.733 1.703-1.097.589-.337 1.227-.676 1.845-1.005l.163-.087a49.802 49.802 0 001.856-1.024.5.5 0 11.51.86 47.574 47.574 0 01-2.057 1.132c-.621.331-1.246.663-1.821.992-.627.358-1.176.701-1.585 1.019a4.357 4.357 0 00-.285.238c.174-.005.38-.021.615-.045.829-.087 1.931-.279 3.067-.506a131.03 131.03 0 004.738-1.062l.327-.078a.5.5 0 01.601.373z" clip-rule="evenodd"/>
    </g>
  </g>
  <g>
    <path fill="#9293AB" fill-rule="evenodd" d="M70.738 155.669a.499.499 0 01-.373.6l-.315.076c-.823.198-2.83.681-4.782 1.071-1.143.228-2.282.428-3.16.52-.434.045-.829.067-1.135.045-.151-.01-.31-.033-.453-.085-.127-.046-.352-.158-.446-.418l-.055-.153.046-.156c.071-.245.219-.463.384-.651.169-.191.38-.378.613-.56.466-.361 1.064-.732 1.703-1.097a72.085 72.085 0 012.008-1.092 46.962 46.962 0 001.855-1.024.5.5 0 01.51.86 49.738 49.738 0 01-2.056 1.133 70.46 70.46 0 00-1.821.991c-.627.358-1.177.701-1.586 1.019a4.816 4.816 0 00-.285.239c.174-.006.38-.021.615-.046.83-.086 1.931-.279 3.067-.506 1.927-.385 3.908-.861 4.739-1.061l.326-.078a.5.5 0 01.6.373z" clip-rule="evenodd"/>
  </g>
  <g>
    <path fill="#9293AB" fill-rule="evenodd" d="M60.527 157.38a.5.5 0 01.296-.642c2.388-.884 93.781-33.86 96.196-34.76 5.303-1.978 10.644-3.969 15.917-5.858a.5.5 0 11.337.941c-5.267 1.887-10.597 3.875-15.897 5.851-2.416.901-93.812 33.878-96.206 34.763a.5.5 0 01-.643-.295z" clip-rule="evenodd"/>
  </g>
  <g>
    <path fill="#fff" d="M68.6 131.136l.53-22.358 5.65-2.448 69.117 24.437-.651 27.518-4.351 2.048-35.782-15.043-.854-3.971-5.115 1.678-28.543-11.861z"/>
    <path fill="#000" fill-rule="evenodd" d="M72.45 113.949a.5.5 0 01.487.512l-.112 4.729a.5.5 0 01-1-.023l.112-4.73a.5.5 0 01.512-.488zm6.336 2.731a.5.5 0 01.488.512l-.102 4.299a.5.5 0 11-1-.023l.102-4.3a.5.5 0 01.512-.488zm6.347 2.301a.5.5 0 01.488.512l-.102 4.3a.5.5 0 01-1-.024l.102-4.3a.5.5 0 01.512-.488zm7.413 2.327a.5.5 0 01.488.512l-.109 4.592a.5.5 0 01-1-.024l.11-4.592a.5.5 0 01.51-.488zm-20.331 2.536a.5.5 0 01.488.511l-.092 3.871a.499.499 0 11-1-.023l.092-3.871a.5.5 0 01.512-.488zm29.323.694a.5.5 0 01.488.511l-.112 4.732a.501.501 0 01-1-.024l.112-4.731a.5.5 0 01.512-.488zm-22.963 1.034a.5.5 0 01.488.512l-.108 4.588a.5.5 0 01-1-.024l.109-4.588a.5.5 0 01.511-.488zm31.429 1.892a.5.5 0 01.488.511l-.122 5.162a.501.501 0 01-1-.024l.122-5.161a.5.5 0 01.512-.488zm-25.085.554a.499.499 0 01.488.511l-.112 4.723a.5.5 0 11-1-.024l.112-4.722a.5.5 0 01.512-.488zm33.001 3.076a.5.5 0 01.488.512l-.099 4.148a.499.499 0 11-.999-.023l.098-4.149a.5.5 0 01.512-.488zm-25.608.103a.5.5 0 01.488.512l-.106 4.452a.499.499 0 11-1-.023l.106-4.453a.5.5 0 01.512-.488zm35.147 2.553a.5.5 0 01.488.511l-.112 4.73a.5.5 0 01-1-.023l.112-4.73a.5.5 0 01.512-.488zm-26.165 1.101a.501.501 0 01.488.512l-.106 4.454a.499.499 0 11-.999-.024l.105-4.453a.501.501 0 01.512-.489zm34.364 1.827a.501.501 0 01.488.512l-.129 5.437a.5.5 0 11-1-.024l.129-5.437a.501.501 0 01.512-.488zm-25.905 1.385a.5.5 0 01.488.512l-.109 4.598a.5.5 0 11-1-.024l.109-4.598a.501.501 0 01.512-.488zm7.936 2.78a.501.501 0 01.488.512l-.112 4.719a.5.5 0 11-1-.024l.112-4.719a.501.501 0 01.512-.488zm9.508 3.955a.5.5 0 01.488.512l-.115 4.86a.5.5 0 11-.999-.023l.115-4.861a.5.5 0 01.511-.488zm8.2 2.906a.501.501 0 01.488.512l-.112 4.73a.501.501 0 01-1-.024l.112-4.729a.501.501 0 01.512-.489zM74.674 110.13a.5.5 0 01.487.511l-.105 4.446a.5.5 0 01-1-.024l.106-4.445a.5.5 0 01.511-.488zm6.346 2.301a.5.5 0 01.488.512l-.108 4.589a.5.5 0 11-1-.024l.109-4.589a.5.5 0 01.511-.488zm6.344 2.447a.5.5 0 01.488.511l-.099 4.155a.5.5 0 01-1-.024l.1-4.154a.5.5 0 01.51-.488zm7.41 2.47a.5.5 0 01.487.512l-.094 4.01a.5.5 0 01-1-.023l.095-4.011a.5.5 0 01.511-.488zm8.999 2.939a.5.5 0 01.488.512l-.119 5.018a.501.501 0 01-1-.024l.119-5.018a.5.5 0 01.512-.488zm-29.33-.407a.5.5 0 01.488.511l-.095 4.01a.5.5 0 01-1-.024l.095-4.009a.5.5 0 01.512-.488zm6.353 2.01a.5.5 0 01.488.512l-.111 4.73a.5.5 0 01-1-.024l.112-4.73a.5.5 0 01.511-.488zm31.436 1.61a.5.5 0 01.488.511l-.123 5.162a.5.5 0 11-.999-.024l.122-5.161a.5.5 0 01.512-.488zm-25.106 1.414a.5.5 0 01.488.512l-.095 4.014a.5.5 0 01-1-.023l.096-4.015a.5.5 0 01.511-.488zm33.042 1.35a.5.5 0 01.488.512l-.116 4.88a.499.499 0 11-.999-.023l.115-4.881a.5.5 0 01.512-.488zm-25.622.684a.5.5 0 01.488.512l-.119 5.024a.5.5 0 01-1-.023l.12-5.025a.5.5 0 01.511-.488zm35.157 2.13a.499.499 0 01.488.511l-.115 4.875a.5.5 0 01-1-.024l.116-4.874a.499.499 0 01.511-.488zm-55.467-.452a.5.5 0 01.488.511l-.095 4.015a.5.5 0 01-1-.024l.095-4.014a.5.5 0 01.512-.488zm29.303 1.546a.501.501 0 01.488.512l-.122 5.16a.501.501 0 01-1-.024l.122-5.16a.5.5 0 01.512-.488zm-22.956.748a.5.5 0 01.488.512l-.112 4.729a.5.5 0 01-1-.023l.112-4.73a.5.5 0 01.512-.488zm31.411 2.616a.5.5 0 01.488.512l-.129 5.437a.499.499 0 11-.999-.023l.128-5.438a.5.5 0 01.512-.488zm-25.075.115a.5.5 0 01.489.512l-.112 4.729a.499.499 0 11-1-.023l.112-4.73a.5.5 0 01.511-.488zm33.005 2.932a.501.501 0 01.488.512l-.112 4.73a.501.501 0 01-1-.024l.112-4.73a.5.5 0 01.512-.488zm-25.645.254a.5.5 0 01.488.511l-.102 4.3a.5.5 0 11-1-.024l.102-4.299a.5.5 0 01.512-.488zm35.155 3.639a.501.501 0 01.488.512l-.107 4.503a.5.5 0 01-1-.023l.107-4.504a.5.5 0 01.512-.488zm-17.677 3.096a.501.501 0 01.488.512l-.119 5.018a.5.5 0 01-1-.023l.119-5.019a.5.5 0 01.512-.488zm7.922 3.331a.498.498 0 01.488.511l-.111 4.73a.501.501 0 01-1-.024l.112-4.729a.498.498 0 01.511-.488zm9.515 3.681a.5.5 0 01.488.512l-.121 5.145a.501.501 0 01-1-.024l.122-5.145a.499.499 0 01.511-.488zM139.208 130.286a.501.501 0 01.488.512l-.794 33.538a.5.5 0 01-1-.024l.794-33.537a.5.5 0 01.512-.489zM69.2 107.119a.5.5 0 01.489.512l-.55 23.218a.5.5 0 11-1-.023l.55-23.219a.5.5 0 01.512-.488z" clip-rule="evenodd"/>
    <path fill="#000" fill-rule="evenodd" d="M140.737 160.628a.48.48 0 01-.596.356c-6.926-1.896-20.598-7.833-37.183-15.1a.523.523 0 01-.276-.665.479.479 0 01.643-.261c16.627 7.286 30.209 13.179 37.045 15.051.266.073.43.35.367.619zm4.105-29.998a.479.479 0 01-.611.33c-17.506-5.576-69.294-23.803-73.012-25.406a.522.522 0 01-.28-.663.479.479 0 01.642-.265c3.666 1.581 55.411 19.794 72.919 25.371a.522.522 0 01.342.633zm-3.488 3.388a.48.48 0 01-.63.292c-7.523-2.901-25.799-9.299-42.668-15.176l-7.5-2.611c-13.71-4.773-25.101-8.738-26.687-9.422a.522.522 0 01-.28-.663.479.479 0 01.641-.265c1.55.668 12.9 4.619 26.629 9.398l7.491 2.608c16.86 5.874 35.156 12.28 42.699 15.187.258.1.395.392.305.652zm-43.016 9.776a.478.478 0 01-.627.296c-8.39-3.168-13.929-5.531-19.379-7.856-3.534-1.508-7.03-2.999-11.242-4.684a.522.522 0 01-.297-.655.48.48 0 01.634-.284c4.26 1.704 7.766 3.201 11.3 4.709 5.426 2.315 10.918 4.659 19.302 7.824a.523.523 0 01.31.65z" clip-rule="evenodd"/>
    <path fill="#000" fill-rule="evenodd" d="M144.379 128.557a.501.501 0 01.489.512l-.774 32.678a.5.5 0 11-1-.024l.774-32.678a.5.5 0 01.511-.488z" clip-rule="evenodd"/>
    <path fill="#000" fill-rule="evenodd" d="M146.4 129.871a.499.499 0 01-.237.666l-1.483.709c-2.133 1.021-3.627 1.736-5.41 2.449a.5.5 0 11-.372-.928c1.751-.7 3.211-1.399 5.341-2.419l1.495-.714a.5.5 0 01.666.237zM144.994 157.215a.5.5 0 01-.197.679c-2.286 1.258-4.62 2.327-7.013 3.302a.5.5 0 01-.378-.926c2.368-.965 4.666-2.017 6.909-3.252a.5.5 0 01.679.197zM77.971 105.949a.5.5 0 01-.332.624 171.94 171.94 0 01-4.172 1.197l-.054.015c-1.374.382-2.742.761-4.1 1.173a.5.5 0 11-.29-.956 174.86 174.86 0 014.117-1.179l.059-.016c1.392-.387 2.776-.772 4.148-1.19a.5.5 0 01.624.332zM102.814 139.62a.5.5 0 01.491.508l-.093 5.291a.501.501 0 01-1-.017l.093-5.291a.5.5 0 01.509-.491zM97.74 137.349a.499.499 0 00-.512.488l-.135 5.72a.5.5 0 101 .023l.135-5.72a.499.499 0 00-.488-.511z" clip-rule="evenodd"/>
    <path fill="#9293AB" fill-rule="evenodd" d="M100.785 142.821a.5.5 0 01-.3.641l-4.65 1.685a.5.5 0 11-.341-.94l4.65-1.685a.5.5 0 01.641.299z" clip-rule="evenodd"/>
    <g>
      <path fill="#000" fill-rule="evenodd" d="M139.025 138.554a.477.477 0 01-.623.305c-10.24-3.684-22.823-8.285-35.404-12.884l-.282-.103c-12.487-4.566-24.955-9.124-35.11-12.78a.522.522 0 01-.32-.645.48.48 0 01.624-.305c10.157 3.657 22.627 8.216 35.113 12.781l.283.104c12.582 4.6 25.163 9.199 35.399 12.883a.52.52 0 01.32.644zM139.319 144.164a.478.478 0 01-.63.292c-7.299-2.804-23.112-8.677-37.882-14.162-15.67-5.82-30.165-11.203-32.072-12.023a.521.521 0 01-.28-.662.478.478 0 01.641-.266c1.892.813 16.295 6.162 31.906 11.959 14.791 5.493 30.665 11.388 38.011 14.21.259.1.396.391.306.652zM140.144 149.988a.478.478 0 01-.626.298c-15.14-5.646-67.753-26.09-71.475-27.647a.523.523 0 01-.289-.66.478.478 0 01.638-.272c3.703 1.548 56.301 21.987 71.439 27.632a.524.524 0 01.313.649zM139.924 154.935a.475.475 0 01-.628.291c-15.083-5.836-67.485-26.761-71.193-28.365a.525.525 0 01-.281-.664.477.477 0 01.64-.265c3.687 1.594 56.071 22.513 71.156 28.35.258.1.395.392.306.653z" clip-rule="evenodd"/>
    </g>
    <g>
      <path fill="#000" fill-rule="evenodd" d="M138.289 160.44a.5.5 0 01.209-.675l5.084-2.679a.5.5 0 11.466.885l-5.084 2.678a.5.5 0 01-.675-.209zm-.077-2.59a.5.5 0 01.209-.675l5.269-2.776a.5.5 0 11.466.885l-5.269 2.775a.5.5 0 01-.675-.209zm0-3.006a.5.5 0 01.209-.675l5.161-2.719a.5.5 0 11.466.884l-5.161 2.719a.5.5 0 01-.675-.209zM138.392 151.214a.5.5 0 01.209-.676l4.993-2.63a.5.5 0 11.466.885l-4.993 2.63a.5.5 0 01-.675-.209zm0-2.631a.5.5 0 01.209-.675l5.268-2.775a.5.5 0 11.466.884l-5.268 2.776a.5.5 0 01-.675-.21zm.133-3.076a.5.5 0 01.21-.676l5.134-2.704a.5.5 0 11.466.884l-5.134 2.705a.5.5 0 01-.676-.209zM138.642 142.366a.5.5 0 01.209-.675l5.161-2.719a.5.5 0 11.466.884l-5.161 2.719a.5.5 0 01-.675-.209zm.187-2.729a.5.5 0 01.209-.675l4.974-2.621a.5.5 0 11.466.885l-4.974 2.62a.5.5 0 01-.675-.209zm0-3.006a.5.5 0 01.209-.675l4.974-2.621a.5.5 0 11.466.885l-4.974 2.62a.5.5 0 01-.675-.209zM133.48 131.217a.5.5 0 01.21-.675l4.716-2.484a.5.5 0 11.466.884l-4.716 2.485a.5.5 0 01-.676-.21zm3.075 1.387a.5.5 0 01.21-.676l5.527-2.911a.5.5 0 11.466.884l-5.527 2.912a.5.5 0 01-.676-.209zM124.018 127.486a.5.5 0 01.21-.675l4.164-2.194a.5.5 0 11.466.885l-4.164 2.194a.5.5 0 01-.676-.21zm3.011 1.421a.5.5 0 01.209-.676l4.411-2.324a.5.5 0 01.466.885l-4.411 2.324a.5.5 0 01-.675-.209zm2.873 1.116a.5.5 0 01.209-.675l4.816-2.537a.5.5 0 11.466.885l-4.816 2.537a.5.5 0 01-.675-.21zM114.126 124.011a.5.5 0 01.209-.676l4.099-2.159a.5.5 0 11.466.885l-4.098 2.159a.5.5 0 01-.676-.209zm3.441 1.193a.5.5 0 01.209-.675l3.915-2.063a.5.5 0 01.466.885l-3.915 2.062a.5.5 0 01-.675-.209zm2.58 1.271a.5.5 0 01.21-.675l4.301-2.266a.5.5 0 11.466.884l-4.301 2.266a.5.5 0 01-.676-.209zM104.129 120.561a.5.5 0 01.21-.675l4.082-2.151a.5.5 0 01.466.885l-4.082 2.15a.5.5 0 01-.676-.209zm3.116 1.365a.5.5 0 01.209-.675l4.301-2.266a.5.5 0 11.466.884l-4.301 2.266a.5.5 0 01-.675-.209zm2.581 1.271a.5.5 0 01.209-.676l5.003-2.635a.5.5 0 11.466.884l-5.003 2.636a.5.5 0 01-.675-.209zM93.482 116.998a.5.5 0 01.21-.675l4.3-2.266a.5.5 0 11.466.885l-4.3 2.265a.5.5 0 01-.676-.209zm3.44 1.194a.5.5 0 01.21-.676l3.871-2.039a.5.5 0 11.466.885l-3.871 2.039a.5.5 0 01-.675-.209zm3.011 1.044a.5.5 0 01.21-.675l4.247-2.238a.5.5 0 01.467.884l-4.248 2.238a.5.5 0 01-.676-.209zM83.697 113.68a.5.5 0 01.21-.676l4.193-2.209a.5.5 0 11.466.885l-4.194 2.209a.5.5 0 01-.675-.209zm2.903 1.476a.5.5 0 01.21-.675l4.435-2.337a.5.5 0 11.466.885l-4.435 2.337a.5.5 0 01-.676-.21zm3.714.674a.5.5 0 01.21-.675l3.597-1.896a.5.5 0 01.466.885l-3.598 1.896a.5.5 0 01-.675-.21zM73.698 110.232a.5.5 0 01.209-.676l4.301-2.266a.5.5 0 01.466.885l-4.3 2.266a.5.5 0 01-.676-.209zm3.01 1.42a.5.5 0 01.21-.676l4.73-2.492a.5.5 0 11.467.885l-4.731 2.492a.5.5 0 01-.676-.209zm3.441.817a.5.5 0 01.21-.675l4.247-2.238a.5.5 0 11.466.885l-4.248 2.238a.5.5 0 01-.675-.21zM69.827 109.191a.5.5 0 01.21-.675l5.16-2.719a.5.5 0 11.466.885l-5.16 2.718a.5.5 0 01-.676-.209z" clip-rule="evenodd"/>
    </g>
  </g>
  <g>
    <path fill="#000" d="M13.775 46.44c0 .093-.047.168-.14.224a.983.983 0 01-.28.14 4.098 4.098 0 00-.308.14.638.638 0 00-.252.14l.196 1.316c.112.728.205 1.437.28 2.128.093.69.14 1.344.14 1.96 0 .485-.056.924-.168 1.316-.094.373-.271.56-.532.56-.131 0-.252-.159-.364-.476-.094-.336-.178-.71-.252-1.12-.056-.43-.103-.85-.14-1.26a24.15 24.15 0 01-.028-.924 17.038 17.038 0 00-.112-1.54 42.77 42.77 0 00-.112-.924l-.084-.672a17.42 17.42 0 00-1.288.14c-.542.056-1.204.186-1.988.392v.336c0 .41.018.868.056 1.372.037.485.074.99.112 1.512.056.504.102 1.017.14 1.54.037.504.056.99.056 1.456 0 .186-.019.336-.056.448-.038.13-.122.196-.252.196-.224 0-.402-.112-.532-.336a2.976 2.976 0 01-.252-.784 15.474 15.474 0 01-.14-.98 31.44 31.44 0 00-.056-.84 26.507 26.507 0 01-.196-1.68c-.038-.654-.075-1.316-.112-1.988a.922.922 0 01-.28-.056l-.336-.168a1.841 1.841 0 01-.28-.224.348.348 0 01-.112-.252c0-.224.102-.402.308-.532.205-.15.429-.27.672-.364a4.822 4.822 0 01-.028-.532v-1.036-.896V42.8v-1.708c.018-.616.028-1.242.028-1.876.018-.15.065-.327.14-.532.074-.224.196-.336.364-.336.13 0 .242.056.336.168.093.093.168.214.224.364.056.15.093.308.112.476.037.15.056.28.056.392v6.692c.168 0 .392-.01.672-.028.28-.019.569-.038.868-.056l.868-.112c.298-.038.541-.075.728-.112l-.644-5.88a24.32 24.32 0 01-.056-.42v-.364c0-.374.046-.672.14-.896.112-.243.27-.364.476-.364.261 0 .42.121.476.364.056.242.093.597.112 1.064l.056.896c.018.28.046.56.084.84l.644 4.732c.224 0 .448.018.672.056.242.018.364.112.364.28zM29.562 48.596c0 .336-.159.756-.476 1.26-.299.485-.71.961-1.232 1.428a7.907 7.907 0 01-1.82 1.204c-.69.317-1.41.476-2.156.476-.336 0-.69-.056-1.064-.168a5.105 5.105 0 01-1.092-.476 4.845 4.845 0 01-.952-.784 3.056 3.056 0 01-.616-1.064 3.553 3.553 0 00-.42.56c-.15.261-.317.532-.504.812a4.475 4.475 0 01-.616.7c-.224.186-.457.28-.7.28-.243 0-.448-.122-.616-.364a4.234 4.234 0 01-.364-.84 6.002 6.002 0 01-.196-.896 7.517 7.517 0 01-.056-.476c0-.224.065-.644.196-1.26.13-.635.327-1.288.588-1.96.261-.672.588-1.27.98-1.792.41-.523.887-.784 1.428-.784.205 0 .336.093.392.28.075.168.112.336.112.504v.84c.093.074.187.13.28.168a.632.632 0 01.28.112.338.338 0 01.196.196c.056.093.084.242.084.448 0 .13-.01.252-.028.364a1.421 1.421 0 00-.028.28c0 .485.037.961.112 1.428.075.466.224.886.448 1.26.224.354.532.653.924.896.392.224.915.336 1.568.336.821 0 1.512-.168 2.072-.504.579-.355 1.055-.738 1.428-1.148.392-.43.7-.812.924-1.148.224-.355.41-.532.56-.532.243 0 .364.121.364.364zm-9.828-1.232a.345.345 0 00-.056-.196.452.452 0 01-.056-.196c0-.075.019-.14.056-.196a.398.398 0 00.056-.224c0-.056-.019-.094-.056-.112-.037-.038-.056-.075-.056-.112-.168.037-.345.196-.532.476-.168.28-.336.606-.504.98a8.2 8.2 0 00-.364 1.148c-.093.373-.14.681-.14.924 0 .13.037.345.112.644.075.298.159.494.252.588.317-.654.607-1.288.868-1.904.28-.616.42-1.223.42-1.82zM36.515 45.88c0 .13-.056.242-.168.336-.112.074-.243.14-.392.196-.15.056-.299.102-.448.14-.15.018-.271.028-.364.028-.28 0-.467-.019-.56-.056a.644.644 0 00-.224-.056c-.467 0-.84.037-1.12.112-.28.074-.504.196-.672.364-.15.168-.252.382-.308.644a6.033 6.033 0 00-.056.896c0 .597.018 1.073.056 1.428.056.354.102.644.14.868.056.224.102.401.14.532a.746.746 0 01.084.336c0 .15-.084.308-.252.476-.15.168-.29.252-.42.252-.224 0-.43-.196-.616-.588a9.979 9.979 0 01-.448-1.428c-.112-.56-.206-1.11-.28-1.652a9.822 9.822 0 01-.112-1.232c0-.318.028-.616.084-.896.056-.299.13-.55.224-.756a2 2 0 01.308-.532c.112-.13.224-.196.336-.196.093 0 .168.037.224.112.056.056.102.13.14.224l.112.224a.269.269 0 00.196.084c.168 0 .438-.084.812-.252.373-.168.83-.252 1.372-.252.504 0 .877.018 1.12.056.261.018.513.074.756.168a.55.55 0 01.196.14c.093.056.14.15.14.28zM47.166 50.976a.602.602 0 01-.112.336 1.447 1.447 0 01-.28.308 1.58 1.58 0 01-.336.252.697.697 0 01-.308.084c-.317 0-.728-.066-1.232-.196-.485-.15-.877-.374-1.176-.672a5.173 5.173 0 01-.84-1.12c-.243-.448-.513-1.102-.812-1.96a28.034 28.034 0 01-.728 2.436 6.198 6.198 0 01-1.288 2.212c-.037.037-.093.056-.168.056-.13 0-.27-.066-.42-.196-.15-.13-.224-.262-.224-.392s-.019-.43-.056-.896a62.139 62.139 0 00-.084-1.596l-.112-1.792a51.75 51.75 0 01-.028-1.512c0-.187.01-.43.028-.728.019-.318.075-.588.168-.812.019-.038.084-.112.196-.224a.635.635 0 01.42-.168c.13 0 .205.084.224.252.019.168.028.354.028.56v4.424c0 .093.01.224.028.392.037.168.084.29.14.364.205-.448.392-.97.56-1.568.187-.616.364-1.195.532-1.736.168-.56.336-1.027.504-1.4.168-.392.336-.588.504-.588.187 0 .336.037.448.112.112.074.205.224.28.448.093.541.168 1.026.224 1.456.056.41.121.784.196 1.12.093.336.215.653.364.952.168.28.392.541.672.784.261.242.55.42.868.532.336.112.625.168.868.168.112 0 .233-.019.364-.056a.847.847 0 01.28-.084c.075 0 .14.065.196.196.075.13.112.214.112.252zM56.394 51.48a.39.39 0 01.028.168c0 .112-.084.28-.252.504a3.185 3.185 0 01-.364.364 3.782 3.782 0 01-.756.504c-.318.168-.71.317-1.176.448-.448.13-.98.196-1.596.196-.43 0-.85-.094-1.26-.28a3.457 3.457 0 01-1.092-.868 4.963 4.963 0 01-.784-1.428c-.206-.579-.308-1.25-.308-2.016 0-.728.093-1.41.28-2.044.186-.635.42-1.195.7-1.68.298-.486.625-.868.98-1.148.354-.28.7-.42 1.036-.42.298 0 .597.065.896.196.317.112.597.261.84.448.261.186.466.401.616.644.15.224.224.457.224.7 0 .28-.13.57-.392.868a4.861 4.861 0 01-.896.84c-.355.242-.71.448-1.064.616-.355.15-.635.224-.84.224a.428.428 0 01-.308-.14.69.69 0 01-.112-.392c0-.262.112-.467.336-.616.242-.15.504-.28.784-.392.28-.13.532-.28.756-.448a.805.805 0 00.364-.7c0-.038-.047-.13-.14-.28-.094-.15-.346-.224-.756-.224-.187 0-.402.112-.644.336-.243.205-.476.494-.7.868-.224.354-.41.784-.56 1.288a5.408 5.408 0 00-.224 1.596c0 .485.084.924.252 1.316.186.392.42.728.7 1.008.28.261.606.466.98.616.373.15.756.224 1.148.224.28 0 .578-.056.896-.168.336-.13.644-.262.924-.392.298-.15.55-.28.756-.392.224-.13.364-.196.42-.196.056 0 .112.028.168.084a.373.373 0 01.14.168zM64.671 50.724c0 .317-.112.597-.336.84-.205.224-.475.42-.811.588a5.48 5.48 0 01-1.065.364c-.392.093-.765.168-1.12.224-.354.037-.672.065-.951.084h-.505c-.41 0-.727-.066-.952-.196-.223-.13-.335-.364-.335-.7 0-.112.009-.206.028-.28.018-.094.093-.14.223-.14.056 0 .15.018.28.056.131.018.234.028.308.028.075 0 .308-.01.7-.028.411-.038.84-.094 1.288-.168a6.6 6.6 0 001.233-.308c.373-.15.56-.336.56-.56 0-.038-.197-.15-.589-.336a49.287 49.287 0 01-1.708-1.008c-.597-.374-1.017-.747-1.26-1.12-.242-.392-.364-.915-.364-1.568 0-.41.084-.747.252-1.008.187-.262.43-.467.729-.616.317-.15.671-.252 1.063-.308.411-.075.84-.112 1.288-.112.038 0 .15.018.337.056.205.037.42.102.644.196.224.074.42.177.587.308.187.112.28.242.28.392 0 .037-.037.093-.111.168-.056.074-.16.214-.309.42a4.89 4.89 0 00-.308-.084 6.138 6.138 0 00-.475-.112 2.444 2.444 0 00-.532-.112 2.404 2.404 0 00-.449-.056c-.485 0-.877.093-1.175.28-.3.168-.449.504-.449 1.008a.98.98 0 00.28.672c.206.205.458.401.756.588l.953.532c.354.168.68.354.98.56.298.205.54.43.727.672.206.224.308.485.308.784zM73.367 50.724c0 .317-.112.597-.336.84-.206.224-.476.42-.812.588-.317.15-.672.27-1.064.364-.392.093-.766.168-1.12.224-.355.037-.672.065-.952.084h-.504c-.41 0-.728-.066-.952-.196-.224-.13-.336-.364-.336-.7 0-.112.01-.206.028-.28.018-.094.093-.14.224-.14.056 0 .15.018.28.056.13.018.233.028.308.028.075 0 .308-.01.7-.028.41-.038.84-.094 1.288-.168a6.6 6.6 0 001.232-.308c.373-.15.56-.336.56-.56 0-.038-.196-.15-.588-.336a49.287 49.287 0 01-1.708-1.008c-.598-.374-1.017-.747-1.26-1.12-.243-.392-.364-.915-.364-1.568 0-.41.084-.747.252-1.008.187-.262.43-.467.728-.616.317-.15.672-.252 1.064-.308.41-.075.84-.112 1.288-.112.037 0 .15.018.336.056.205.037.42.102.644.196.224.074.42.177.588.308.186.112.28.242.28.392 0 .037-.038.093-.112.168-.056.074-.159.214-.308.42a4.89 4.89 0 00-.308-.084 6.138 6.138 0 00-.476-.112 2.444 2.444 0 00-.532-.112 2.404 2.404 0 00-.448-.056c-.486 0-.878.093-1.176.28-.299.168-.448.504-.448 1.008a.98.98 0 00.28.672c.205.205.457.401.756.588.298.168.616.345.952.532.354.168.681.354.98.56.298.205.541.43.728.672.205.224.308.485.308.784zM13.215 69.148c0 1.213-.15 2.277-.448 3.192a14.09 14.09 0 01-.98 2.436 24.04 24.04 0 01-1.064 1.876c-.336.541-.56 1.064-.672 1.568-.094.336-.299.504-.616.504H9.35c-.019-.019-.047-.028-.084-.028.13.317.326.681.588 1.092.261.392.522.793.784 1.204.261.41.485.812.672 1.204.205.392.308.728.308 1.008 0 .15-.103.29-.308.42-.187.15-.355.224-.504.224-.075 0-.131-.047-.168-.14-.187-.672-.532-1.39-1.036-2.156a46.462 46.462 0 01-1.568-2.576 20.612 20.612 0 01-1.4-3.22c-.411-1.195-.616-2.548-.616-4.06 0-.635.028-1.167.084-1.596.074-.448.27-.672.588-.672.186 0 .317.056.392.168a.643.643 0 01.112.364c0 1.698.158 3.192.476 4.48.317 1.288.672 2.286 1.064 2.996l.476-.728c.485-.747.905-1.4 1.26-1.96.354-.579.644-1.139.868-1.68a8.03 8.03 0 00.476-1.708c.112-.579.168-1.25.168-2.016 0-.206-.028-.43-.084-.672a1.757 1.757 0 00-.224-.644 1.46 1.46 0 00-.364-.504.82.82 0 00-.56-.196c-.299 0-.756.084-1.372.252a13.94 13.94 0 00-1.848.672c-.635.28-1.214.597-1.736.952-.523.336-.84.681-.952 1.036a1.375 1.375 0 01-.084.14c-.038.056-.075.084-.112.084-.131 0-.271-.103-.42-.308-.15-.206-.224-.383-.224-.532 0-.336.149-.663.448-.98a4.943 4.943 0 011.12-.868c.466-.262.98-.495 1.54-.7.56-.224 1.101-.402 1.624-.532.522-.15.989-.262 1.4-.336.429-.094.737-.14.924-.14.298 0 .578.084.84.252.28.168.513.392.7.672.186.28.336.606.448.98.112.373.168.765.168 1.176zM19.275 81.608c0 .15-.056.261-.168.336a.69.69 0 01-.392.112c-.168 0-.345-.159-.532-.476a8.702 8.702 0 01-.504-1.204 22.61 22.61 0 01-.476-1.568c-.15-.579-.28-1.11-.392-1.596l-.28-1.26a8.095 8.095 0 01-.084-.56c0-.075-.037-.27-.112-.588-.056-.318-.14-.812-.252-1.484-.093-.672-.205-1.54-.336-2.604a197.096 197.096 0 01-.364-4.004 3.2 3.2 0 01.084-.644c.056-.262.187-.392.392-.392.261 0 .458.177.588.532.15.354.262.793.336 1.316.093.522.159 1.073.196 1.652.038.56.084 1.054.14 1.484.075.597.14 1.138.196 1.624.075.485.14.97.196 1.456.075.466.159.961.252 1.484.112.522.243 1.101.392 1.736l1.12 4.648zM34.757 76.596c0 .336-.158.756-.476 1.26-.298.485-.709.961-1.232 1.428a7.907 7.907 0 01-1.82 1.204c-.69.317-1.409.476-2.156.476-.336 0-.69-.056-1.064-.168a5.105 5.105 0 01-1.092-.476 4.845 4.845 0 01-.952-.784 3.056 3.056 0 01-.616-1.064 3.553 3.553 0 00-.42.56c-.149.261-.317.532-.504.812a4.475 4.475 0 01-.616.7c-.224.186-.457.28-.7.28-.242 0-.448-.122-.616-.364a4.234 4.234 0 01-.364-.84 6.002 6.002 0 01-.196-.896 7.517 7.517 0 01-.056-.476c0-.224.066-.644.196-1.26.131-.635.327-1.288.588-1.96.262-.672.588-1.27.98-1.792.411-.523.887-.784 1.428-.784.206 0 .336.093.392.28.075.168.112.336.112.504v.84c.094.074.187.13.28.168a.632.632 0 01.28.112.338.338 0 01.196.196c.056.093.084.242.084.448 0 .13-.009.252-.028.364a1.421 1.421 0 00-.028.28c0 .485.038.961.112 1.428.075.466.224.886.448 1.26.224.354.532.653.924.896.392.224.915.336 1.568.336.822 0 1.512-.168 2.072-.504.58-.355 1.055-.738 1.428-1.148.392-.43.7-.812.924-1.148.224-.355.411-.532.56-.532.243 0 .364.121.364.364zm-9.828-1.232a.345.345 0 00-.056-.196.452.452 0 01-.056-.196c0-.075.02-.14.056-.196a.398.398 0 00.056-.224c0-.056-.018-.094-.056-.112-.037-.038-.056-.075-.056-.112-.168.037-.345.196-.532.476-.168.28-.336.606-.504.98a8.2 8.2 0 00-.364 1.148c-.093.373-.14.681-.14.924 0 .13.038.345.112.644.075.298.16.494.252.588.318-.654.607-1.288.868-1.904.28-.616.42-1.223.42-1.82z"/>
    <path fill="#000" d="M42.522 69.764c-.243.28-.588.56-1.036.84a23.75 23.75 0 01-1.344.728l-1.176.588c-.336.15-.504.252-.504.308 0 .056.037.224.112.504.075.28.159.616.252 1.008.112.373.224.765.336 1.176.112.41.205.774.28 1.092.037.186.084.43.14.728.056.298.103.597.14.896.056.298.103.57.14.812.037.224.056.345.056.364 0 .28-.047.57-.14.868-.093.298-.243.448-.448.448a.428.428 0 01-.308-.14 2.022 2.022 0 01-.252-.308 2.063 2.063 0 01-.168-.364.89.89 0 01-.056-.252v-.168a1.04 1.04 0 00.028-.252c0-.355-.056-.868-.168-1.54a14.397 14.397 0 00-.224-.952c-.112-.43-.224-.868-.336-1.316-.13-.523-.28-1.092-.448-1.708-.075-.262-.121-.392-.14-.392-.13 0-.355.084-.672.252-.299.15-.644.345-1.036.588-.392.224-.803.476-1.232.756-.43.261-.83.513-1.204.756-.373.224-.69.42-.952.588-.28.15-.448.224-.504.224a.75.75 0 01-.588-.252.823.823 0 01-.224-.56c0-.112.159-.27.476-.476.299-.224.681-.467 1.148-.728.448-.262.943-.532 1.484-.812.523-.28 1.008-.532 1.456-.756.467-.224.85-.41 1.148-.56l.476-.224a84.178 84.178 0 01-.42-2.296 53.804 53.804 0 00-.28-1.596 16.263 16.263 0 01-.112-.784c0-.243.047-.42.14-.532.112-.13.233-.196.364-.196.205 0 .336.14.392.42.205 1.008.392 1.904.56 2.688.187.784.364 1.418.532 1.904.168-.038.457-.14.868-.308l1.288-.588c.448-.206.85-.383 1.204-.532.373-.168.588-.252.644-.252.112 0 .177.037.196.112.037.074.075.14.112.196zM53.2 62.344a.48.48 0 01.027.196v.308c0 .13-.046.196-.14.196a.463.463 0 01-.14-.028 1.105 1.105 0 01-.14-.056c-.336-.15-.746-.336-1.232-.56-.466-.243-.998-.364-1.596-.364-.672 0-1.213.252-1.624.756a5.532 5.532 0 00-.952 1.764 10.556 10.556 0 00-.42 1.932 17.71 17.71 0 00-.084 1.372c0 .205.028.532.084.98.075.43.168.877.28 1.344.112.466.243.896.392 1.288.15.373.299.606.448.7.112 0 .308-.01.588-.028.299-.019.542-.028.728-.028.318 0 .616.028.896.084.28.056.57.084.868.084h.336c.15 0 .299.01.448.028.168.018.308.056.42.112.112.037.168.093.168.168 0 .093-.065.177-.196.252-.13.074-.28.14-.448.196a4.747 4.747 0 01-.896.112h-.364c-.149-.019-.317-.038-.504-.056a4.552 4.552 0 00-.504-.028 3.204 3.204 0 00-.392-.028c-.298 0-.485.037-.56.112-.056.056-.084.177-.084.364 0 .28.122.662.364 1.148.262.466.542.97.84 1.512.299.541.57 1.101.812 1.68.262.578.392 1.11.392 1.596 0 .093-.028.27-.084.532a4.106 4.106 0 01-.196.756 2.21 2.21 0 01-.336.7c-.149.205-.317.308-.504.308a.834.834 0 01-.42-.112c-.112-.094-.168-.243-.168-.448 0-.299.075-.579.224-.84.168-.262.252-.542.252-.84 0-.15-.074-.402-.224-.756-.13-.355-.298-.747-.504-1.176-.205-.448-.429-.915-.672-1.4a26.938 26.938 0 00-.7-1.316c-.205-.41-.382-.747-.532-1.008a5.088 5.088 0 00-.252-.42c-.373.13-.756.261-1.148.392a3.3 3.3 0 00-1.064.588c-.13.13-.252.196-.364.196a.792.792 0 01-.532-.224.697.697 0 01-.224-.504c0-.206.056-.364.168-.476.131-.13.252-.224.364-.28.168-.094.43-.196.784-.308.355-.112.71-.206 1.064-.28.131-.038.252-.066.364-.084.112-.038.168-.103.168-.196-.056-.187-.14-.43-.252-.728-.093-.318-.196-.69-.308-1.12-.093-.43-.177-.906-.252-1.428a12.732 12.732 0 01-.112-1.736c0-.672.075-1.382.224-2.128.168-.747.42-1.428.756-2.044a4.844 4.844 0 011.316-1.54c.523-.41 1.148-.616 1.876-.616.336 0 .71.037 1.12.112.411.056.784.15 1.12.28.355.112.644.261.868.448.243.168.364.364.364.588zM59.993 76.372c0 .41-.056.802-.168 1.176-.112.373-.262.7-.448.98-.187.28-.41.504-.672.672-.243.15-.514.224-.812.224-.523 0-.934-.15-1.232-.448a3.278 3.278 0 01-.7-1.036 5.474 5.474 0 01-.308-1.176c-.038-.41-.056-.719-.056-.924 0-.336.047-.71.14-1.12.112-.43.252-.822.42-1.176a4.19 4.19 0 01.616-.896c.224-.243.457-.364.7-.364.056 0 .14.018.252.056.13.037.261.093.392.168.13.074.242.168.336.28a.83.83 0 01.224.392c.205.018.41.093.616.224.205.13.317.233.336.308.15.485.242.97.28 1.456.056.485.084.886.084 1.204zm-1.26-.504c0-.28-.028-.57-.084-.868a3.233 3.233 0 00-.336-.952.312.312 0 01-.14.028.623.623 0 01-.196-.028.248.248 0 00-.112-.028c-.224 0-.401.065-.532.196-.13.112-.233.27-.308.476a3.016 3.016 0 00-.112.616 7.792 7.792 0 000 1.344c.019.242.056.476.112.7.075.224.168.42.28.588.112.15.261.224.448.224s.345-.094.476-.28c.13-.206.233-.439.308-.7.075-.262.121-.514.14-.756.037-.262.056-.448.056-.56zM69.436 73.88c0 .13-.056.242-.168.336-.112.074-.242.14-.392.196a4.14 4.14 0 01-.448.14c-.149.018-.27.028-.364.028-.28 0-.466-.019-.56-.056a.644.644 0 00-.224-.056c-.466 0-.84.037-1.12.112-.28.074-.504.196-.671.364-.15.168-.252.382-.309.644a6.033 6.033 0 00-.056.896c0 .597.02 1.073.056 1.428.056.354.103.644.14.868.056.224.103.401.14.532a.746.746 0 01.085.336c0 .15-.085.308-.252.476-.15.168-.29.252-.42.252-.225 0-.43-.196-.617-.588a9.979 9.979 0 01-.447-1.428c-.112-.56-.206-1.11-.28-1.652a9.803 9.803 0 01-.113-1.232c0-.318.029-.616.085-.896.056-.299.13-.55.224-.756.093-.224.195-.402.307-.532.112-.13.225-.196.337-.196.093 0 .168.037.224.112.055.056.102.13.14.224l.111.224a.269.269 0 00.197.084c.168 0 .438-.084.812-.252.373-.168.83-.252 1.372-.252.504 0 .877.018 1.12.056.26.018.513.074.755.168a.55.55 0 01.197.14c.093.056.14.15.14.28zM84.12 79.788c0 .15-.047.28-.14.392a1.225 1.225 0 01-.336.28 2.78 2.78 0 01-.42.14c-.13.037-.243.056-.336.056-.392 0-.728-.206-1.008-.616a7.007 7.007 0 01-.7-1.4 11.075 11.075 0 01-.42-1.456c-.075-.448-.112-.69-.112-.728-.112.205-.233.55-.364 1.036-.112.485-.252.98-.42 1.484a5.753 5.753 0 01-.644 1.316c-.243.373-.56.56-.952.56-.187 0-.364-.112-.532-.336a4.114 4.114 0 01-.476-.868 16.82 16.82 0 01-.448-1.204 27.18 27.18 0 00-.42-1.316c-.13-.43-.261-.83-.392-1.204a5.07 5.07 0 00-.392-.924c-.112.28-.215.662-.308 1.148-.075.485-.14.998-.196 1.54a44.333 44.333 0 00-.14 1.568c-.037.522-.056.98-.056 1.372 0 .261-.075.448-.224.56a.635.635 0 01-.42.168c-.206 0-.41-.13-.616-.392a6.7 6.7 0 01-.616-1.064c-.206-.43-.401-.915-.588-1.456a53.285 53.285 0 01-.476-1.624 18.671 18.671 0 01-.308-1.54 8.876 8.876 0 01-.112-1.26c0-.243.01-.467.028-.672.019-.168.028-.327.028-.476.019-.15.028-.234.028-.252 0-.056-.019-.094-.056-.112-.019-.019-.028-.066-.028-.14 0-.056.065-.14.196-.252.15-.13.299-.196.448-.196.261 0 .43.056.504.168.093.112.14.242.14.392 0 .056-.01.14-.028.252v.756c0 .261.046.653.14 1.176.093.522.205 1.054.336 1.596.13.541.261 1.045.392 1.512.15.448.27.728.364.84a.556.556 0 00.056-.252 1.77 1.77 0 01.056-.252l.308-2.296a8.904 8.904 0 01.448-1.82c.242-.654.495-1.158.756-1.512.093-.15.196-.224.308-.224.112 0 .215.084.308.252.317.522.55 1.045.7 1.568.168.504.308 1.008.42 1.512a61 61 0 00.42 1.484c.168.485.42.98.756 1.484.15-.243.336-.635.56-1.176l.672-1.68c.242-.56.466-1.046.672-1.456.205-.43.364-.644.476-.644.056 0 .15.01.28.028.13.018.224.028.28.028.168 0 .308.196.42.588.112.373.205.821.28 1.344.093.504.177 1.017.252 1.54.093.504.196.886.308 1.148.075.186.187.364.336.532.15.168.299.326.448.476l.56.504z"/>
  </g>
</svg>
