<svg viewBox="0 0 279 247" fill="none" xmlns="http://www.w3.org/2000/svg">
<g clip-path="url(#clip0_1314_9811)">
<path fill-rule="evenodd" clip-rule="evenodd" d="M133.434 67.2459C134.82 68.2183 135.903 70.1104 137.733 68.1333C139.702 69.2757 141.034 70.9961 142.604 72.4462C145.498 75.1152 148.415 77.7672 151.333 80.4158C152.419 81.4001 153.567 82.3181 154.616 83.3381C155.572 84.2663 155.623 85.5923 155.967 86.7891C156.092 87.2294 156.264 87.8108 156.605 88.0148C160.089 90.0973 162.779 93.1301 165.928 95.607C169.626 98.5174 173.407 101.324 177.178 104.141C179.319 105.739 181.511 107.284 183.688 108.836C185.14 109.87 186.668 110.807 188.052 111.925C189.52 113.105 190.916 112.638 192.318 111.973C194.452 110.961 195.701 109.129 196.656 107.065C196.921 106.49 197.101 105.873 197.28 105.263C198.038 102.667 197.726 101.914 195.59 100.301C191.581 97.2713 187.603 94.2045 183.639 91.1173C179.319 87.7581 175.008 84.3887 170.751 80.9581C169.516 79.9602 168.356 78.8297 167.371 77.5938C166.638 76.6758 165.79 76.2576 164.744 76.4055C162.716 76.6877 161.249 75.8428 159.78 74.5644C156.759 71.9379 153.637 69.4253 150.522 66.9144C149.239 65.8808 147.853 64.9679 146.508 64.0091C145.05 62.967 143.866 61.743 143.023 60.0974C142.532 59.1403 141.449 58.4756 140.742 57.7888C141.585 54.7832 142.588 51.9612 143.12 49.0559C143.514 46.8969 143.441 44.6257 143.332 42.4089C143.115 37.8835 141.565 33.7559 139.289 29.8527C137.573 26.91 135.42 24.36 132.871 22.1126C132.776 22.0293 132.709 21.9086 132.607 21.8406C129.168 19.5609 125.98 16.9157 122.17 15.2072C120.076 14.2705 117.928 13.9288 115.659 14.0121C112.619 14.1243 109.596 13.8625 106.558 14.6904C103.624 15.4945 100.997 16.9004 98.3137 18.1771C95.2295 19.6408 92.6519 21.8185 90.7567 24.7102C90.0641 25.771 89.4585 26.8947 88.7778 27.964C86.6676 31.2739 86.3094 35.1023 85.581 38.8083C84.8458 42.5177 84.7912 46.2934 85.5213 49.9909C86.2651 53.7904 87.4745 57.4165 90.1033 60.502C92.0514 62.7885 93.9654 65.041 96.3775 66.8549C98.7385 68.6246 101.333 69.971 104.105 70.9043C108.569 72.4105 113.206 72.7556 117.887 72.4989C118.962 72.4394 120.038 72.2388 121.086 71.977C123.059 71.4891 125.033 70.9876 126.962 70.3535C128.342 69.8979 129.661 69.2468 130.978 68.6212C131.824 68.2183 132.622 67.7015 133.434 67.2459ZM156.413 85.0721C160.94 84.3836 162.789 81.3406 163.542 77.366C164.937 77.2589 166.017 77.6958 166.929 78.5696C167.571 79.1901 168.139 79.8871 168.816 80.4651C170.751 82.1158 172.699 83.7563 174.683 85.3458C178.55 88.4568 182.422 91.5576 186.336 94.6057C189.149 96.7936 192.045 98.8761 194.879 101.033C196.482 102.257 196.789 103.111 196.172 104.994C195.8 106.128 195.223 107.198 194.706 108.28C193.974 109.802 192.731 110.774 191.134 111.218C190.576 111.38 189.819 111.391 189.329 111.135C187.695 110.293 186.075 109.385 184.567 108.338C181.377 106.128 178.2 103.893 175.138 101.516C170.616 98.0108 166.196 94.3694 161.744 90.7807C161.053 90.2248 160.418 89.6009 159.731 89.0382C158.458 87.9978 157.09 87.0373 156.413 85.0721ZM86.0433 45.9058C86.1371 44.4489 86.2412 42.9937 86.3128 41.5334C86.5636 36.175 88.0767 31.1634 90.8641 26.6091C92.4813 23.9656 94.4328 21.4972 97.3891 20.0913C99.1103 19.2753 100.809 18.3998 102.474 17.475C105.149 15.9858 108.054 15.384 111.06 15.163C112.585 15.0508 114.124 14.9573 115.649 15.0134C117.606 15.0763 119.589 15.0542 121.427 15.9875C124.274 17.4393 126.942 19.1359 129.564 20.9685C133.61 23.7888 136.938 27.1701 139.151 31.6054C141.252 35.8197 142.532 40.238 142.499 44.9742C142.467 49.3058 141.331 53.3807 139.385 57.2363C138.869 58.2563 138.269 59.2338 137.72 60.2368C135.14 64.9526 131.22 67.9786 126.07 69.4542C123.994 70.0492 121.898 70.6 119.81 71.1542C119.194 71.3157 118.554 71.5486 117.936 71.5214C115.408 71.399 112.885 71.1321 110.352 71.0199C106.026 70.8295 102.075 69.3335 98.4894 67.1286C94.716 64.8081 91.7239 61.5101 89.4056 57.7378C87.1982 54.1457 86.2872 50.115 86.0433 45.9058ZM142.673 62.1544C142.972 62.3499 143.409 62.5981 143.803 62.9075C147.464 65.7686 151.133 68.611 154.751 71.5214C156.725 73.1075 158.632 74.7854 160.522 76.4701C161.853 77.655 162.177 79.0337 161.508 80.3988C160.903 81.6296 159.944 82.5595 158.741 83.1987C157.622 83.7937 156.617 83.707 155.589 82.8111C153.965 81.3865 152.214 80.1064 150.524 78.7549C150.072 78.3996 149.627 78.0392 149.216 77.6431C146.107 74.6307 143.006 71.6183 139.922 68.5804C139.489 68.1537 139.17 67.6097 138.886 67.234C140.214 65.449 141.423 63.8289 142.673 62.1544ZM134.716 66.4945C136.602 63.8306 138.4 61.2925 140.203 58.7459C141.904 60.1841 141.856 60.2334 141.193 61.9912C140.343 64.2386 138.506 65.6122 136.814 67.1031C135.995 67.8239 135.707 67.6743 134.716 66.4945Z" fill="black"/>
<path fill-rule="evenodd" clip-rule="evenodd" d="M88.1587 43.2812C88.0717 46.7849 88.8495 50.1254 90.0641 53.3503C91.9781 58.4299 95.5417 62.175 100.107 64.9834C103.167 66.8636 106.454 68.2168 110.078 68.6248C110.763 68.7013 111.43 68.9665 112.104 69.1518C115.101 69.9627 118.059 69.4748 120.99 68.8322C123.105 68.3698 125.234 67.8853 127.252 67.1322C128.641 66.6069 130.122 65.8419 131.084 64.7641C133.322 62.2634 135.584 59.6862 137.256 56.8047C139.422 53.0715 140.899 49.0493 140.265 44.4763C139.767 40.8689 139.306 37.2802 137.568 34.0417C136.432 31.9252 135.161 29.8512 133.694 27.9523C130.688 24.0729 126.766 21.1778 122.428 19.0103C118.987 17.2933 115.156 16.6626 111.28 17.2763C108.716 17.6809 106.13 18.1416 103.66 18.9151C100.009 20.0541 96.915 22.1094 94.5489 25.217C92.2579 28.2294 90.6817 31.6175 89.073 34.9937C88.8581 35.4459 88.7267 35.9627 88.6824 36.4574C88.4794 38.732 88.3293 41.0066 88.1587 43.2812ZM89.3221 40.9471C89.3221 40.0614 89.2351 39.1621 89.3443 38.2866C89.4688 37.2938 89.5967 36.2398 90.0283 35.3558C91.4323 32.4607 92.6161 29.4738 94.624 26.8524C96.3657 24.5761 98.3513 22.6772 100.721 21.1591C101.669 20.5505 102.78 20.1374 103.873 19.8365C105.584 19.3673 107.374 19.165 109.078 18.6754C112.843 17.5976 116.509 17.9886 120.158 19.1633C123.175 20.1374 125.697 21.9343 128.095 23.9335C128.974 24.6645 129.978 25.2765 130.758 26.101C134.753 30.3289 137.854 35.0379 138.767 40.942C139.252 44.0853 139.535 47.215 138.695 50.3226C137.389 55.1591 134.675 59.1881 131.346 62.8686C129.451 64.963 127.251 66.4437 124.402 66.8874C123.588 67.0149 122.81 67.3311 122.008 67.5283C118.397 68.4174 114.789 69.179 111.127 67.7442C110.659 67.564 110.134 67.5283 109.627 67.445C105.733 66.8075 102.143 65.3914 98.9859 63.0284C95.5878 60.4801 92.6758 57.4575 91.0723 53.4523C89.4756 49.4522 88.7762 45.2736 89.3221 40.9471Z" fill="black"/>
<path fill-rule="evenodd" clip-rule="evenodd" d="M99.1338 26.5781C97.4552 27.3346 97.5184 28.6691 97.4655 29.8132C97.3785 31.6509 97.5013 33.4971 97.5525 35.3348C97.5747 36.1576 97.7947 37.0042 97.6514 37.793C97.4314 39.0221 98.1581 39.9826 98.3508 41.0859C98.472 41.7846 99.156 41.9988 100.168 41.7166C100.301 40.5929 100.562 39.3587 100.574 38.1228C100.609 35.0764 100.483 32.0266 100.517 28.9785C100.534 27.8208 99.748 27.3482 99.1338 26.5781ZM99.4665 40.0829C99.2874 40.0778 99.1065 40.071 98.9257 40.0659C98.7022 38.1449 98.1666 36.195 98.3406 34.3114C98.518 32.4516 97.5849 30.4456 98.9428 28.5297C99.1901 28.834 99.5108 29.0397 99.516 29.2607C99.6746 32.8732 100.106 36.4908 99.4665 40.0829Z" fill="black"/>
<path fill-rule="evenodd" clip-rule="evenodd" d="M131.247 43.6797C130.297 44.4719 129.645 45.1128 129.606 46.0427C129.487 48.6233 129.451 51.2107 129.401 53.793C129.396 54.1041 129.473 54.4237 129.551 54.7263C129.742 55.4658 130.155 56.0217 130.993 55.9758C132.025 55.9231 131.917 55.0816 131.909 54.4169C131.885 51.3212 131.842 48.2221 131.767 45.1298C131.754 44.7354 131.491 44.3444 131.247 43.6797ZM130.664 47.6951C131.215 50.0258 131.392 52.3548 130.682 54.6804C129.606 52.3463 130.503 50.0241 130.664 47.6951Z" fill="black"/>
<path d="M70.0011 59.0275C70.1851 60.1891 70.3498 60.9614 70.6801 62.9911" stroke="black" stroke-linecap="round"/>
<path d="M72.0927 46.7984C72.5932 44.7984 72.5928 45.2988 73.438 43.0314" stroke="black" stroke-linecap="round"/>
</g>
<ellipse opacity="0.5" rx="138.325" ry="61.6957" transform="matrix(-1 0 -0.0110309 -0.999939 139.005 184.691)" fill="url(#paint0_radial_1314_9811)" fill-opacity="0.5"/>
<path d="M180.514 164.393C190.2 163.125 203.384 149.591 208.765 142.983C203.922 136.64 185.357 131.09 185.357 131.09C191.007 125.538 196.657 106.507 169.214 115.23C154.924 119.771 168.407 135.847 174.864 134.261C173.25 140.34 170.021 154.085 170.021 160.429C170.021 168.358 168.407 165.979 180.514 164.393Z" fill="white"/>
<path d="M178.693 112.034C183.57 111.94 187.472 114.751 189.647 119.025C191.202 122.079 190.198 124.386 188.327 126.889C185.64 130.484 181.534 133.068 177.022 133.698C172.975 134.264 169.447 133.935 166.543 130.881C164.088 128.301 162.218 124.082 163.077 120.505C164.045 116.477 168.802 114.024 172.484 113.057C177.406 111.764 182.532 112.614 187.193 114.445C190.68 115.816 194.707 118.435 194.815 122.521C194.924 126.655 191.314 129.061 188.348 131.368" stroke="black" stroke-linecap="round" stroke-linejoin="round"/>
<path d="M185.007 131C189.291 131.083 210.419 140.604 208.173 143.363C200.308 153.021 192.028 160.011 180.552 164.561C174.756 166.859 167.663 168.743 169.494 159.748C174.435 135.478 173.868 140.485 174.981 132.459" stroke="black" stroke-linecap="round" stroke-linejoin="round"/>
<path d="M191.877 134.104C194.858 132.835 196.425 130.346 198.376 127.791C200.036 125.616 201.964 123.28 202.749 120.606C203.244 118.92 203.223 116.916 203.203 115.175C203.143 110.129 200.258 105.889 197.158 102.083C196.859 101.715 195.776 99.8545 195.776 101.09C195.776 101.732 196.202 101.888 196.705 102.184" stroke="black" stroke-linecap="round" stroke-linejoin="round"/>
<path d="M177.024 139.578C167.553 143.117 157.897 146.351 148.226 149.316C145.58 150.128 142.646 150.867 139.841 150.867C139.285 150.867 138.425 150.653 138.902 149.934C139.708 148.721 141.769 148.01 143.048 147.462C144.583 146.803 146.23 146.082 147.865 145.709C148.492 145.566 150.313 145.048 150.908 145.526C152.165 146.536 148.874 148.333 148.288 148.516C147.73 148.69 146.205 149.379 146.205 148.333C146.205 147.86 147.149 146.404 147.649 147.239C148.538 148.724 145.605 148.418 145.276 149.063" stroke="black" stroke-linecap="round" stroke-linejoin="round"/>
<path d="M199.119 105.284C198.568 104.449 197.881 102.866 196.788 102.568C195.998 102.353 193.055 101.766 192.477 102.589C191.791 103.563 194.338 105.349 194.942 105.639C195.849 106.074 196.923 106.804 197.995 106.541C199.068 106.277 198.32 104.537 197.964 104.048C197.187 102.98 196.122 102.12 194.89 101.636C194.104 101.327 194.233 101.806 194.581 102.366C194.927 102.922 195.324 103.457 195.684 104.007C196.018 104.517 196.885 104.475 197.448 104.555" stroke="black" stroke-linecap="round" stroke-linejoin="round"/>
<path d="M178.324 122.977C170.898 128.813 164.929 127.688 163.48 126.432" stroke="black" stroke-linecap="round" stroke-linejoin="round"/>
<path d="M52.8019 158.865C56.5723 154.755 65.1197 143.305 72.8994 136.822L90.5166 126.541C90.5166 126.541 78.2559 119.157 90.7985 108.287C96.5668 103.288 106.375 102.204 110.34 108.727C118.491 122.138 104.673 128.28 104.673 128.28C95.5901 141.36 107.245 165.36 105.963 167.293C104.681 169.225 68.9116 171.294 52.8019 158.865Z" fill="white"/>
<path d="M77.4377 124.499C77.9563 125.537 81.9758 129.686 83.9207 131.631L85.8656 132.927L89.1072 130.334C87.5944 129.47 84.18 127.222 82.6241 125.148C80.6792 122.555 80.6792 119.313 80.6792 116.72C80.6792 114.645 82.408 108.076 83.2724 105.05C82.408 104.834 80.0309 105.828 77.4377 111.533C74.1961 118.665 76.7894 123.203 77.4377 124.499Z" fill="white"/>
<path d="M86.5155 129.041C82.6256 127.096 80.282 122.452 80.4556 119.397C80.6451 116.061 82.0878 113.001 83.1569 109.888C83.4934 108.909 84.7215 106.197 83.8502 105.161C83.2665 104.467 81.5988 106.22 81.293 106.53C78.4333 109.427 76.7143 113.494 76.2776 117.515C75.6736 123.077 78.6176 127.61 83.1119 130.499" stroke="black" stroke-linecap="round" stroke-linejoin="round"/>
<path d="M89.8146 126.942C89.7303 127.324 89.6345 127.867 89.4421 128.203C60.8433 135.733 56.9506 161.385 56.3057 162.314" stroke="black" stroke-linecap="round" stroke-linejoin="round"/>
<path d="M54.3604 161.023C61.4993 166.718 95.8679 173.155 109.466 168.803" stroke="black" stroke-linecap="round" stroke-linejoin="round"/>
<path d="M103.631 129.899C96.4995 142.866 100.389 155.832 108.817 168.798" stroke="black" stroke-linecap="round" stroke-linejoin="round"/>
<path d="M90.4771 108.982C89.0373 109.919 87.1743 111.145 85.863 112.352C84.3077 113.785 83.8897 116.735 84.2608 118.751C85.1634 123.654 91.5112 126.835 95.7804 128.149C97.8257 128.778 100.206 129.299 102.358 129.101C104.555 128.9 106.574 127.8 108.311 126.503C110.76 124.675 112.212 122.437 113.132 119.529C113.948 116.946 114.288 114.671 112.902 112.243C108.624 104.751 95.9788 103.842 89.3621 108.31C85.5526 110.882 82.2069 115.642 83.7888 120.453C85.394 125.335 91.0209 128.924 95.5807 129.775" stroke="black" stroke-linecap="round" stroke-linejoin="round"/>
<path d="M99.3721 118.106C102.721 121.913 111.798 119.968 108.978 115.75" stroke="black" stroke-linecap="round" stroke-linejoin="round"/>
<path d="M105.964 145.898C111.798 142.657 119.578 140.712 120.226 140.712C121.523 141.144 122.82 142.397 117.633 143.953C111.15 145.898 105.315 152.381 103.37 155.623C101.425 158.864 98.8322 160.809 96.8873 161.458C95.3314 161.976 94.9424 159.945 94.9424 158.864C96.6712 155.623 101.296 148.492 105.964 145.898Z" fill="white"/>
<path d="M133.192 142.657L131.896 139.415C133.841 140.064 140.324 140.064 142.917 139.415C144.992 138.897 150.265 135.741 152.642 134.229C154.37 133.58 157.698 132.802 157.18 134.877C156.532 137.47 149.4 140.712 146.159 142.657C143.565 144.213 136.434 143.305 133.192 142.657Z" fill="white"/>
<path d="M149.833 185.017C148.906 187.143 115.927 194.584 97.9041 185.141C105.315 169.882 111.741 153.565 118.836 138.601C118.836 138.601 105.479 133.458 115.944 120.575C120.756 114.65 130.228 111.879 135.265 117.615C145.62 129.407 133.079 137.854 133.079 137.854C136.995 150.633 150.761 182.891 149.833 185.017Z" fill="white"/>
<path d="M118.215 139.124C118.198 139.515 118.198 140.066 118.067 140.43C117.209 142.81 114.286 149.058 113.812 150.085C109.032 160.446 104.035 170.708 99.2604 181.071C98.553 182.607 98.0988 184.152 97.7771 185.801" stroke="black" stroke-linecap="round" stroke-linejoin="round"/>
<path d="M96.541 183.922C104.717 191.284 137.326 194.119 149.765 183.729" stroke="black" stroke-linecap="round" stroke-linejoin="round"/>
<path d="M133.504 139.781C133.583 140.861 133.773 141.467 134.159 142.641C136.859 150.867 139.91 158.982 142.845 167.126C144.375 171.373 145.953 175.623 147.276 179.941C148.009 182.334 148.712 184.731 149.491 187.11C149.862 188.242 150.397 189.322 150.606 190.496" stroke="black" stroke-linecap="round" stroke-linejoin="round"/>
<path d="M115.748 121.315C114.493 122.488 112.871 124.019 111.789 125.436C110.506 127.117 110.607 130.094 111.322 132.015C113.063 136.687 119.866 138.717 124.299 139.27C126.422 139.535 128.857 139.634 130.942 139.066C133.07 138.486 134.868 137.052 136.353 135.473C138.447 133.248 139.489 130.792 139.89 127.768C140.246 125.083 140.185 122.783 138.398 120.633C132.884 113.997 120.273 115.298 114.533 120.847C111.228 124.041 108.76 129.31 111.153 133.773C113.582 138.303 119.746 140.86 124.385 140.906" stroke="black" stroke-linecap="round" stroke-linejoin="round"/>
<path d="M118.281 140.711C113.743 142.656 107.238 144.784 103.37 148.491C102.234 149.579 92.3484 158.864 96.8867 161.457C101.425 161.457 102.397 155.622 105.315 152.38C108.815 148.491 113.094 145.249 116.984 143.952" stroke="black" stroke-linecap="round" stroke-linejoin="round"/>
<path d="M134.489 142.905C142.269 145.246 152.58 140.683 155.235 136.818C159.125 132.928 155.644 131.062 150.048 135.521C146.053 138.705 140.972 141.356 133.192 139.411" stroke="black" stroke-linecap="round" stroke-linejoin="round"/>
<defs>
<radialGradient id="paint0_radial_1314_9811" cx="0" cy="0" r="1" gradientUnits="userSpaceOnUse" gradientTransform="translate(138.325 61.6957) rotate(90) scale(61.6957 138.325)">
<stop stop-color="#C4C4C4" stop-opacity="0.5"/>
<stop offset="1" stop-color="#C4C4C4" stop-opacity="0"/>
</radialGradient>
<clipPath id="clip0_1314_9811">
<rect width="132" height="134" fill="white" transform="translate(64.001)"/>
</clipPath>
</defs>
</svg>
