<svg width="24" height="24" viewBox="0 0 24 24" fill="none" xmlns="http://www.w3.org/2000/svg">
<path d="M5 3H16L19 7V21H5V3Z" stroke="#0278D5" stroke-linecap="round" stroke-linejoin="round"/>
<g opacity="0.3">
<mask id="path-2-inside-1_822_11390" fill="white">
<path fill-rule="evenodd" clip-rule="evenodd" d="M9 9C8.72386 9 8.5 9.22386 8.5 9.5C8.5 9.77614 8.72386 10 9 10H15C15.2761 10 15.5 9.77614 15.5 9.5C15.5 9.22386 15.2761 9 15 9H9ZM8.5 12.5C8.5 12.2239 8.72386 12 9 12H15C15.2761 12 15.5 12.2239 15.5 12.5C15.5 12.7761 15.2761 13 15 13H9C8.72386 13 8.5 12.7761 8.5 12.5ZM8.5 15.5C8.5 15.2239 8.72386 15 9 15H15C15.2761 15 15.5 15.2239 15.5 15.5C15.5 15.7761 15.2761 16 15 16H9C8.72386 16 8.5 15.7761 8.5 15.5Z"/>
</mask>
<path d="M9.5 9.5C9.5 9.77614 9.27614 10 9 10V8C8.17157 8 7.5 8.67157 7.5 9.5H9.5ZM9 9C9.27614 9 9.5 9.22386 9.5 9.5H7.5C7.5 10.3284 8.17157 11 9 11V9ZM15 9H9V11H15V9ZM14.5 9.5C14.5 9.22386 14.7239 9 15 9V11C15.8284 11 16.5 10.3284 16.5 9.5H14.5ZM15 10C14.7239 10 14.5 9.77614 14.5 9.5H16.5C16.5 8.67157 15.8284 8 15 8V10ZM9 10H15V8H9V10ZM9 11C8.17157 11 7.5 11.6716 7.5 12.5H9.5C9.5 12.7761 9.27614 13 9 13V11ZM15 11H9V13H15V11ZM16.5 12.5C16.5 11.6716 15.8284 11 15 11V13C14.7239 13 14.5 12.7761 14.5 12.5H16.5ZM15 14C15.8284 14 16.5 13.3284 16.5 12.5H14.5C14.5 12.2239 14.7239 12 15 12V14ZM9 14H15V12H9V14ZM7.5 12.5C7.5 13.3284 8.17157 14 9 14V12C9.27614 12 9.5 12.2239 9.5 12.5H7.5ZM9 14C8.17157 14 7.5 14.6716 7.5 15.5H9.5C9.5 15.7761 9.27614 16 9 16V14ZM15 14H9V16H15V14ZM16.5 15.5C16.5 14.6716 15.8284 14 15 14V16C14.7239 16 14.5 15.7761 14.5 15.5H16.5ZM15 17C15.8284 17 16.5 16.3284 16.5 15.5H14.5C14.5 15.2239 14.7239 15 15 15V17ZM9 17H15V15H9V17ZM7.5 15.5C7.5 16.3284 8.17157 17 9 17V15C9.27614 15 9.5 15.2239 9.5 15.5H7.5Z" fill="#383946" mask="url(#path-2-inside-1_822_11390)"/>
</g>
</svg>
