<svg width="16" height="16" viewBox="0 0 16 16" fill="none" xmlns="http://www.w3.org/2000/svg">
<path d="M3.33325 2H10.6666L12.6666 4.66667V14H3.33325V2Z" stroke="#383946" stroke-linecap="round" stroke-linejoin="round"/>
<path fill-rule="evenodd" clip-rule="evenodd" d="M7.72102 5.71354C7.87633 5.56228 8.12387 5.56228 8.27918 5.71354L10.2792 7.66137C10.4374 7.8155 10.4408 8.06874 10.2867 8.227C10.1325 8.38526 9.87928 8.38861 9.72102 8.23448L8.4001 6.94802V10.5001C8.4001 10.721 8.22101 10.9001 8.0001 10.9001C7.77918 10.9001 7.6001 10.721 7.6001 10.5001V6.94802L6.27918 8.23448C6.12092 8.38861 5.86767 8.38526 5.71354 8.227C5.55941 8.06874 5.56276 7.8155 5.72102 7.66137L7.72102 5.71354Z" fill="#383946"/>
</svg>
