<svg width="16" height="16" viewBox="0 0 16 16" fill="none" xmlns="http://www.w3.org/2000/svg">
<path d="M2.66675 2.6665H6.66675L8.00008 4.6665H13.3334V13.3332H2.66675V2.6665Z" stroke="#383946" stroke-linecap="round" stroke-linejoin="round"/>
<path opacity="0.3" d="M8.66675 2.66683H13.3334" stroke="#383946" stroke-linecap="round" stroke-linejoin="round"/>
<path d="M7.99852 11C7.77875 11 7.60059 10.8218 7.60059 10.6021V7.39793C7.60059 7.17816 7.77875 7 7.99852 7C8.21829 7 8.39645 7.17816 8.39645 7.39793V10.6021C8.39645 10.8218 8.21829 11 7.99852 11ZM6.39793 9.39645C6.17816 9.39645 6 9.21829 6 8.99852C6 8.77875 6.17816 8.60059 6.39793 8.60059H9.60207C9.82184 8.60059 10 8.77875 10 8.99852C10 9.21829 9.82184 9.39645 9.60207 9.39645H6.39793Z" fill="#383946"/>
</svg>
