<svg width="234" height="144" viewBox="0 0 234 144" fill="none" xmlns="http://www.w3.org/2000/svg">
<path opacity="0.7" d="M233.382 89.7174C233.382 119.697 181.276 144 117 144C52.7239 144 0.617676 119.697 0.617676 89.7174C0.617676 59.7378 52.7239 35.4346 117 35.4346C181.276 35.4346 233.382 59.7378 233.382 89.7174Z" fill="url(#paint0_radial_621_1174)" fill-opacity="0.1"/>
<path d="M73.9482 77.4499V9.71154L140.24 2.94482L165.914 19.5164L164.047 77.4499H172.216L176.184 80.6678V110.777L119.234 118.712L115.266 114.978V112.411L100.62 98.6181H92.5764L73.9482 77.4499Z" fill="white"/>
<path fill-rule="evenodd" clip-rule="evenodd" d="M143.232 66.8274C142.965 66.7559 142.807 66.4818 142.879 66.215L145.206 57.5305C145.277 57.2638 145.551 57.1055 145.818 57.177C146.085 57.2485 146.243 57.5226 146.172 57.7894L143.845 66.4739C143.773 66.7406 143.499 66.8989 143.232 66.8274ZM146.772 69.7221C146.506 69.6506 146.347 69.3764 146.419 69.1097L149.521 57.5305C149.593 57.2638 149.867 57.1055 150.134 57.177C150.401 57.2485 150.559 57.5226 150.487 57.7894L147.385 69.3685C147.313 69.6353 147.039 69.7936 146.772 69.7221ZM149.875 72.0343C149.608 71.9628 149.45 71.6887 149.521 71.4219L153.244 57.5305C153.315 57.2638 153.589 57.1055 153.856 57.177C154.123 57.2485 154.281 57.5226 154.21 57.7894L150.487 71.6807C150.416 71.9475 150.142 72.1058 149.875 72.0343ZM153.398 74.5599C153.131 74.4885 152.973 74.2143 153.044 73.9476L154.341 69.1097C154.412 68.843 154.686 68.6847 154.953 68.7562C155.22 68.8276 155.378 69.1018 155.307 69.3685L154.01 74.2064C153.939 74.4731 153.665 74.6314 153.398 74.5599Z" fill="black"/>
<path fill-rule="evenodd" clip-rule="evenodd" d="M75.7989 80.0777C75.5321 80.0062 75.3739 79.732 75.4453 79.4653L90.9191 21.7164C90.9906 21.4496 91.2647 21.2913 91.5315 21.3628C91.7982 21.4343 91.9565 21.7085 91.885 21.9752L76.4113 79.7241C76.3398 79.9908 76.0656 80.1491 75.7989 80.0777Z" fill="black"/>
<path fill-rule="evenodd" clip-rule="evenodd" d="M73.4571 41.5469C73.1904 41.4754 73.0321 41.2013 73.1035 40.9345L80.408 13.674C80.4794 13.4073 80.7536 13.249 81.0203 13.3205C81.2871 13.392 81.4453 13.6661 81.3739 13.9329L74.0695 41.1933C73.998 41.4601 73.7238 41.6184 73.4571 41.5469Z" fill="black"/>
<path fill-rule="evenodd" clip-rule="evenodd" d="M85.0212 92.2715C84.7553 92.1972 84.6 91.9214 84.6743 91.6554L90.4981 70.8194C90.5724 70.5534 90.8483 70.3981 91.1142 70.4724C91.3802 70.5468 91.5355 70.8226 91.4612 71.0886L85.6374 91.9246C85.563 92.1905 85.2872 92.3459 85.0212 92.2715Z" fill="black"/>
<path fill-rule="evenodd" clip-rule="evenodd" d="M78.3688 82.8377C78.1022 82.7657 77.9444 82.4912 78.0164 82.2246L92.4518 28.7614C92.5238 28.4948 92.7983 28.3371 93.0649 28.409C93.3315 28.481 93.4892 28.7555 93.4173 29.0221L78.9818 82.4853C78.9098 82.7519 78.6354 82.9096 78.3688 82.8377Z" fill="black"/>
<path fill-rule="evenodd" clip-rule="evenodd" d="M73.042 55.4541C72.7753 55.3826 72.617 55.1085 72.6885 54.8417L83.158 15.7688C83.2295 15.5021 83.5037 15.3438 83.7704 15.4153C84.0371 15.4868 84.1954 15.7609 84.124 16.0277L73.6544 55.1006C73.5829 55.3673 73.3088 55.5256 73.042 55.4541Z" fill="black"/>
<path fill-rule="evenodd" clip-rule="evenodd" d="M87.775 95.2764C87.5082 95.2049 87.3499 94.9307 87.4214 94.664L90.9916 81.34C91.063 81.0733 91.3372 80.915 91.6039 80.9864C91.8707 81.0579 92.029 81.3321 91.9575 81.5988L88.3873 94.9228C88.3159 95.1896 88.0417 95.3479 87.775 95.2764Z" fill="black"/>
<path fill-rule="evenodd" clip-rule="evenodd" d="M72.3169 22.9829C72.0502 22.9115 71.8919 22.6373 71.9634 22.3706L75.2805 9.99104C75.3519 9.72431 75.6261 9.56602 75.8928 9.63749C76.1596 9.70896 76.3179 9.98313 76.2464 10.2499L72.9293 22.6294C72.8578 22.8961 72.5837 23.0544 72.3169 22.9829Z" fill="black"/>
<path fill-rule="evenodd" clip-rule="evenodd" d="M80.8031 86.0498C80.5364 85.9782 80.3782 85.7039 80.4498 85.4372L90.8903 46.541C90.9619 46.2743 91.2361 46.1162 91.5028 46.1877C91.7695 46.2593 91.9277 46.5336 91.8561 46.8003L81.4156 85.6965C81.344 85.9632 81.0698 86.1214 80.8031 86.0498Z" fill="black"/>
<path fill-rule="evenodd" clip-rule="evenodd" d="M73.3331 66.7266C73.0663 66.6551 72.908 66.3809 72.9795 66.1142L85.7764 18.3556C85.8479 18.0889 86.122 17.9306 86.3888 18.0021C86.6555 18.0735 86.8138 18.3477 86.7423 18.6144L73.9454 66.373C73.874 66.6398 73.5998 66.798 73.3331 66.7266Z" fill="black"/>
<path fill-rule="evenodd" clip-rule="evenodd" d="M90.4332 97.711C90.1664 97.6395 90.0081 97.3653 90.0796 97.0986L91.9034 90.2921C91.9749 90.0254 92.249 89.8671 92.5158 89.9386C92.7825 90.0101 92.9408 90.2842 92.8693 90.551L91.0455 97.3574C90.9741 97.6241 90.6999 97.7824 90.4332 97.711Z" fill="black"/>
<path fill-rule="evenodd" clip-rule="evenodd" d="M73.1055 31.3672C72.8388 31.2957 72.6805 31.0216 72.752 30.7548L77.5387 12.8906C77.6102 12.6238 77.8843 12.4656 78.1511 12.537C78.4178 12.6085 78.5761 12.8827 78.5046 13.1494L73.7179 31.0136C73.6464 31.2804 73.3723 31.4387 73.1055 31.3672Z" fill="black"/>
<path fill-rule="evenodd" clip-rule="evenodd" d="M83.064 89.0088C82.7973 88.9373 82.639 88.6632 82.7105 88.3964L90.8071 58.1796C90.8785 57.9128 91.1527 57.7545 91.4194 57.826C91.6862 57.8975 91.8445 58.1716 91.773 58.4384L83.6764 88.6553C83.6049 88.922 83.3308 89.0803 83.064 89.0088Z" fill="black"/>
<path fill-rule="evenodd" clip-rule="evenodd" d="M73.5918 77.0894C73.3251 77.0179 73.1668 76.7437 73.2383 76.477L88.2973 20.2759C88.3688 20.0092 88.643 19.8509 88.9097 19.9223C89.1764 19.9938 89.3347 20.268 89.2633 20.5347L74.2042 76.7358C74.1328 77.0026 73.8586 77.1608 73.5918 77.0894Z" fill="black"/>
<path fill-rule="evenodd" clip-rule="evenodd" d="M174.188 19.5446C174.207 19.8201 173.998 20.0585 173.723 20.077C171.035 20.2577 168.239 20.4477 165.359 20.6434C140.943 22.3024 110.432 24.3755 87.5863 24.7492C87.3102 24.7537 87.0827 24.5336 87.0782 24.2575C87.0737 23.9814 87.2938 23.7539 87.5699 23.7494C110.388 23.3761 140.87 21.3049 165.292 19.6456C168.172 19.45 170.967 19.26 173.656 19.0793C173.931 19.0607 174.17 19.2691 174.188 19.5446Z" fill="black"/>
<path fill-rule="evenodd" clip-rule="evenodd" d="M70.5021 7.93657C70.6505 7.70364 70.9595 7.63507 71.1925 7.7834C74.4331 9.84708 77.8103 12.28 81.2493 14.7574C82.8619 15.9191 84.4882 17.0907 86.1203 18.2385C91.2503 21.8463 96.4564 25.234 101.584 27.4465C101.838 27.556 101.954 27.8502 101.845 28.1037C101.736 28.3573 101.441 28.4741 101.188 28.3647C95.9598 26.1088 90.6831 22.6699 85.545 19.0565C83.8908 17.8931 82.2528 16.713 80.6344 15.5471C77.209 13.0794 73.8717 10.6751 70.6553 8.62689C70.4224 8.47856 70.3538 8.16949 70.5021 7.93657Z" fill="black"/>
<path fill-rule="evenodd" clip-rule="evenodd" d="M135.711 0.399124C135.872 0.174704 136.184 0.123215 136.409 0.28412C136.857 0.605468 137.305 0.926881 137.753 1.24826C144.653 6.19758 151.543 11.1397 158.672 15.7277C159.641 16.3515 161.057 17.1721 162.568 18.0478C162.939 18.2629 163.315 18.4813 163.693 18.7009C165.592 19.8061 167.507 20.9443 168.703 21.814C168.926 21.9764 168.976 22.2891 168.813 22.5124C168.651 22.7358 168.338 22.7851 168.115 22.6227C166.968 21.7887 165.099 20.6767 163.19 19.5652C162.819 19.3493 162.446 19.1335 162.078 18.92C160.565 18.0432 159.121 17.2063 158.131 16.5686C150.98 11.9665 144.07 7.01042 137.175 2.06438C136.725 1.74178 136.276 1.41923 135.826 1.09682C135.601 0.935911 135.55 0.623544 135.711 0.399124Z" fill="black"/>
<path fill-rule="evenodd" clip-rule="evenodd" d="M146.549 2.45485C146.584 2.72877 146.39 2.97916 146.116 3.0141C126.997 5.45326 89.6167 9.45443 70.3266 9.92316C70.0505 9.92987 69.8213 9.71151 69.8146 9.43545C69.8079 9.15939 70.0262 8.93016 70.3023 8.92345C89.5363 8.45608 126.871 4.46113 145.99 2.02214C146.264 1.9872 146.514 2.18093 146.549 2.45485Z" fill="black"/>
<path fill-rule="evenodd" clip-rule="evenodd" d="M73.1878 3.64437C73.4632 3.66411 73.6705 3.90339 73.6508 4.17883C73.2037 10.4169 73.3566 18.12 73.5459 25.8553C73.5585 26.3691 73.5712 26.883 73.5839 27.3966C73.7625 34.6025 73.9396 41.7506 73.651 47.6296C73.2369 56.0634 73.5073 69.8909 74.6692 78.203C74.7075 78.4765 74.5167 78.7291 74.2433 78.7674C73.9698 78.8056 73.7171 78.6149 73.6789 78.3414C72.5056 69.9479 72.2362 56.054 72.6522 47.5806C72.9389 41.7403 72.7627 34.6281 72.5839 27.4089C72.5713 26.8996 72.5587 26.3897 72.5462 25.8797C72.3572 18.1548 72.2022 10.4021 72.6533 4.10735C72.6731 3.83191 72.9124 3.62463 73.1878 3.64437Z" fill="black"/>
<path fill-rule="evenodd" clip-rule="evenodd" d="M94.5634 17.866C94.8359 17.9104 95.0208 18.1674 94.9763 18.44C92.7055 32.3604 92.0216 46.5776 91.918 60.2542V68.4747C91.953 73.7101 92.0457 78.8498 92.1354 83.8308C92.2408 89.6771 92.3422 95.3049 92.342 100.612C92.342 100.889 92.1181 101.112 91.842 101.112C91.5658 101.112 91.342 100.889 91.342 100.612C91.3422 95.2987 91.2411 89.6966 91.1359 83.8676C91.0461 78.8909 90.9533 73.7488 90.918 68.4797C90.8998 65.7639 90.8971 63.0178 90.918 60.2485C91.0217 46.5468 91.7068 32.2717 93.9894 18.279C94.0338 18.0064 94.2908 17.8215 94.5634 17.866Z" fill="black"/>
<path fill-rule="evenodd" clip-rule="evenodd" d="M165.584 13.1553C165.859 13.18 166.062 13.4229 166.037 13.6979C164.326 32.8175 163.882 64.7687 163.882 77.5178C163.882 77.7939 163.658 78.0178 163.382 78.0178C163.106 78.0178 162.882 77.7939 162.882 77.5178C162.882 64.7669 163.326 32.7767 165.041 13.6088C165.066 13.3337 165.309 13.1307 165.584 13.1553Z" fill="black"/>
<path fill-rule="evenodd" clip-rule="evenodd" d="M72.7257 75.7742C72.9351 75.5942 73.2508 75.6179 73.4309 75.8273C76.0136 78.8305 78.4664 81.8893 80.9077 84.9338C85.5141 90.6783 90.0795 96.3719 95.4003 101.545C95.5983 101.737 95.6028 102.054 95.4103 102.252C95.2178 102.45 94.9012 102.454 94.7032 102.262C89.342 97.0495 84.7042 91.2672 80.0703 85.4898C77.6381 82.4573 75.2069 79.4261 72.6727 76.4793C72.4926 76.27 72.5164 75.9543 72.7257 75.7742Z" fill="black"/>
<path fill-rule="evenodd" clip-rule="evenodd" d="M101.557 97.9206C101.582 98.1956 101.38 98.4388 101.105 98.4638C100.017 98.5626 99.0542 98.6553 98.1661 98.7407C94.5027 99.0931 92.1186 99.3224 87.5818 99.356C87.3057 99.3581 87.0802 99.1359 87.0781 98.8597C87.0761 98.5836 87.2983 98.3581 87.5744 98.356C92.0645 98.3228 94.4049 98.0977 98.0597 97.7463C98.9499 97.6607 99.9181 97.5676 101.014 97.4679C101.289 97.4429 101.532 97.6456 101.557 97.9206Z" fill="black"/>
<path fill-rule="evenodd" clip-rule="evenodd" d="M155.915 30.9242C155.932 31.1998 155.723 31.4373 155.447 31.4546C141.175 32.3528 126.914 33.3133 112.651 34.2739C107.046 34.6514 101.441 35.0288 95.835 35.4026C95.5595 35.421 95.3213 35.2125 95.3029 34.937C95.2845 34.6614 95.493 34.4232 95.7685 34.4048C101.373 34.0312 106.977 33.6537 112.581 33.2763C126.846 32.3156 141.11 31.355 155.385 30.4566C155.66 30.4392 155.898 30.6486 155.915 30.9242Z" fill="black"/>
<path fill-rule="evenodd" clip-rule="evenodd" d="M154.87 27.8628C155.146 27.8628 155.37 28.0867 155.37 28.3628L155.37 75.39C155.37 75.6662 155.146 75.89 154.87 75.89C154.594 75.89 154.37 75.6662 154.37 75.39L154.37 28.3628C154.37 28.0867 154.594 27.8628 154.87 27.8628Z" fill="black"/>
<path fill-rule="evenodd" clip-rule="evenodd" d="M100.338 33.6547C100.614 33.6751 100.82 33.9149 100.8 34.1902C100.308 40.8375 100.467 46.905 100.631 53.1887C100.716 56.4172 100.802 59.7028 100.802 63.1533C100.802 63.4295 100.578 63.6533 100.302 63.6533C100.026 63.6533 99.8019 63.4295 99.8019 63.1533C99.8019 59.759 99.7169 56.4993 99.6329 53.2816C99.468 46.9654 99.3074 40.8108 99.8027 34.1164C99.8231 33.8411 100.063 33.6343 100.338 33.6547Z" fill="black"/>
<path fill-rule="evenodd" clip-rule="evenodd" d="M156.8 56.8594C156.824 57.1345 156.621 57.3771 156.346 57.4014C149.479 58.0073 142.854 58.5552 136.246 59.1017C124.251 60.0937 112.315 61.0809 99.1015 62.4009C98.8267 62.4283 98.5817 62.2278 98.5543 61.9531C98.5268 61.6783 98.7273 61.4333 99.0021 61.4058C112.222 60.0852 124.175 59.0966 136.176 58.1041C142.782 57.5577 149.403 57.0101 156.258 56.4053C156.533 56.381 156.776 56.5843 156.8 56.8594Z" fill="black"/>
<path fill-rule="evenodd" clip-rule="evenodd" d="M100.16 61.484C100.436 61.4903 100.655 61.7192 100.649 61.9953C100.584 64.8097 100.475 67.7245 100.364 70.6761C100.016 79.9722 99.6538 89.6332 100.645 97.6722C100.678 97.9462 100.484 98.1958 100.21 98.2296C99.9355 98.2634 99.686 98.0686 99.6522 97.7945C98.6505 89.6678 99.0175 79.8869 99.367 70.5729C99.4771 67.6376 99.5855 64.7487 99.6488 61.9725C99.6551 61.6964 99.884 61.4777 100.16 61.484Z" fill="black"/>
<path fill-rule="evenodd" clip-rule="evenodd" d="M100.569 97.8795C100.76 97.6802 101.076 97.6736 101.276 97.8647C106.724 103.091 110.796 107.377 114.501 111.277C114.621 111.404 114.741 111.53 114.861 111.656C115.051 111.856 115.043 112.173 114.843 112.363C114.642 112.553 114.326 112.545 114.136 112.345C114.017 112.22 113.898 112.094 113.778 111.968C110.074 108.068 106.015 103.796 100.584 98.5864C100.384 98.3953 100.378 98.0788 100.569 97.8795Z" fill="black"/>
<path fill-rule="evenodd" clip-rule="evenodd" d="M98.9482 78.0498C99.1435 77.8545 99.46 77.8545 99.6553 78.0498C104.826 83.2209 111.023 90.7495 115.069 96.8174C115.222 97.0471 115.16 97.3576 114.93 97.5107C114.7 97.6639 114.39 97.6018 114.236 97.3721C110.229 91.3603 104.074 83.8825 98.9482 78.7569C98.7529 78.5616 98.7529 78.245 98.9482 78.0498Z" fill="black"/>
<path fill-rule="evenodd" clip-rule="evenodd" d="M114.145 113.952C114.339 113.755 114.655 113.754 114.852 113.948C115.046 114.14 115.239 114.332 115.431 114.524C116.838 115.924 118.208 117.288 119.787 118.394C120.013 118.552 120.068 118.864 119.91 119.09C119.751 119.316 119.439 119.371 119.213 119.213C117.558 118.054 116.123 116.625 114.723 115.23C114.531 115.038 114.339 114.848 114.148 114.659C113.952 114.464 113.95 114.148 114.145 113.952Z" fill="black"/>
<path fill-rule="evenodd" clip-rule="evenodd" d="M177.837 110.507C178.109 110.461 178.367 110.644 178.414 110.916C178.46 111.188 178.277 111.447 178.005 111.493L177.921 111L177.837 110.507ZM158.458 114.552C147.075 116.222 132.459 118.175 119.543 119.301C119.268 119.325 119.026 119.122 119.002 118.847C118.978 118.571 119.181 118.329 119.457 118.305C132.343 117.181 146.937 115.232 158.313 113.563C164.001 112.729 168.882 111.965 172.341 111.409C174.071 111.131 175.445 110.906 176.387 110.75C176.858 110.672 177.22 110.611 177.465 110.57L177.837 110.507C177.837 110.507 177.837 110.507 177.921 111C178.005 111.493 178.005 111.493 178.005 111.493L177.631 111.556C177.385 111.597 177.022 111.658 176.55 111.736C175.607 111.893 174.232 112.118 172.5 112.397C169.037 112.952 164.151 113.717 158.458 114.552Z" fill="black"/>
<path fill-rule="evenodd" clip-rule="evenodd" d="M140.646 65.0796C140.817 64.8626 141.131 64.825 141.348 64.9957C143.827 66.9453 147.822 70.0837 151.197 72.7349L157.326 77.5492C157.326 77.5493 157.326 77.5496 157.017 77.9429C156.709 78.3361 156.709 78.336 156.708 78.336L150.579 73.5212C147.204 70.8701 143.209 67.7315 140.73 65.7817C140.513 65.611 140.475 65.2967 140.646 65.0796ZM157.411 78.2517C157.24 78.4689 156.926 78.5065 156.708 78.336L157.017 77.9429L157.326 77.5492C157.543 77.7198 157.581 78.0345 157.411 78.2517Z" fill="black"/>
<path fill-rule="evenodd" clip-rule="evenodd" d="M140.229 72.0917C140.405 71.8793 140.72 71.8501 140.933 72.0265C142.15 73.0372 142.977 73.7435 143.661 74.3269C145.181 75.6247 145.989 76.3139 148.788 78.3934C149.01 78.5581 149.056 78.8713 148.891 79.093C148.727 79.3146 148.413 79.3608 148.192 79.1962C145.365 77.0961 144.531 76.3848 142.998 75.076C142.315 74.493 141.493 73.7915 140.294 72.7958C140.081 72.6194 140.052 72.3042 140.229 72.0917Z" fill="black"/>
<path fill-rule="evenodd" clip-rule="evenodd" d="M140.859 58.2921C141.135 58.2985 141.354 58.5275 141.347 58.8035C141.28 61.7265 141.299 64.1123 141.322 66.9526C141.334 68.565 141.348 70.3239 141.348 72.4107C141.348 72.6868 141.124 72.9107 140.848 72.9107C140.572 72.9107 140.348 72.6868 140.348 72.4107C140.348 70.3435 140.334 68.5917 140.322 66.9809C140.299 64.1281 140.28 61.7175 140.348 58.7805C140.354 58.5044 140.583 58.2858 140.859 58.2921Z" fill="black"/>
<path fill-rule="evenodd" clip-rule="evenodd" d="M140.685 72.7855C140.713 73.0602 140.513 73.3057 140.239 73.3339C132.643 74.1129 126.543 74.6818 120.444 75.2503L120.369 75.2573C114.295 75.8234 108.218 76.3899 100.659 77.164C100.385 77.1921 100.139 76.9923 100.111 76.7176C100.083 76.4428 100.283 76.1973 100.557 76.1692C108.121 75.3947 114.202 74.8278 120.275 74.2618L120.352 74.2546C126.45 73.6861 132.546 73.1176 140.137 72.3391C140.411 72.3109 140.657 72.5107 140.685 72.7855Z" fill="black"/>
<path opacity="0.1" d="M133.191 97.0501C147.668 97.0501 159.404 85.3395 159.404 70.8937C159.404 56.4479 147.668 44.7373 133.191 44.7373C118.714 44.7373 106.978 56.4479 106.978 70.8937C106.978 85.3395 118.714 97.0501 133.191 97.0501Z" fill="#00ADE4"/>
<path opacity="0.2" d="M132.631 87.3546C142.051 87.3546 149.687 79.7349 149.687 70.3355C149.687 60.9361 142.051 53.3164 132.631 53.3164C123.211 53.3164 115.575 60.9361 115.575 70.3355C115.575 79.7349 123.211 87.3546 132.631 87.3546Z" fill="#00ADE4"/>
<path opacity="0.3" d="M132.981 78.6354C137.923 78.6354 141.928 74.6382 141.928 69.7073C141.928 64.7765 137.923 60.7793 132.981 60.7793C128.04 60.7793 124.034 64.7765 124.034 69.7073C124.034 74.6382 128.04 78.6354 132.981 78.6354Z" fill="#00ADE4"/>
<path d="M115.605 83.5185V115.187L118.756 118.024L176.895 111.249V80.0521L171.853 76.5859L115.605 83.5185Z" fill="white"/>
<path fill-rule="evenodd" clip-rule="evenodd" d="M113.946 81.8016C114.141 81.6053 114.457 81.6037 114.653 81.7979C114.848 81.9901 115.041 82.1822 115.233 82.3736C116.64 83.7745 118.01 85.1385 119.588 86.2437C119.815 86.4021 119.87 86.7138 119.711 86.9401C119.553 87.1663 119.241 87.2213 119.015 87.0629C117.36 85.9044 115.925 84.4748 114.525 83.0799C114.333 82.8886 114.141 82.6979 113.95 82.5087C113.754 82.3145 113.752 81.9979 113.946 81.8016Z" fill="black"/>
<path fill-rule="evenodd" clip-rule="evenodd" d="M115.052 82.1533C115.328 82.1533 115.552 82.3772 115.552 82.6533C115.552 85.7096 115.592 89.1868 115.634 92.8179C115.725 100.587 115.823 109.061 115.551 115.622C115.54 115.898 115.307 116.112 115.031 116.101C114.755 116.09 114.541 115.857 114.552 115.581C114.823 109.046 114.725 100.624 114.635 92.8693C114.592 89.229 114.552 85.7357 114.552 82.6533C114.552 82.3772 114.776 82.1533 115.052 82.1533Z" fill="black"/>
<path fill-rule="evenodd" clip-rule="evenodd" d="M180.03 80.1845C180.033 80.4606 179.811 80.6865 179.535 80.6889C165.822 80.8114 151.074 82.6789 136.747 84.4931C130.495 85.2848 124.323 86.0664 118.352 86.6884C118.077 86.717 117.831 86.5175 117.803 86.2429C117.774 85.9682 117.973 85.7224 118.248 85.6938C124.17 85.0769 130.314 84.299 136.551 83.5093C150.905 81.6918 165.752 79.812 179.526 79.689C179.802 79.6865 180.028 79.9084 180.03 80.1845Z" fill="black"/>
<path fill-rule="evenodd" clip-rule="evenodd" d="M176.005 75.9481C176.049 76.2206 175.864 76.4775 175.592 76.5219C165.333 78.1919 154.977 79.247 144.62 80.2167C142.968 80.3714 141.316 80.5239 139.664 80.6764C130.957 81.4801 122.261 82.2829 113.616 83.3994C113.342 83.4347 113.091 83.2414 113.056 82.9675C113.021 82.6937 113.214 82.443 113.488 82.4076C122.152 81.2886 130.87 80.4839 139.576 79.6802C141.227 79.5278 142.877 79.3755 144.527 79.221C154.882 78.2516 165.209 77.199 175.431 75.5349C175.704 75.4905 175.96 75.6755 176.005 75.9481Z" fill="black"/>
<path fill-rule="evenodd" clip-rule="evenodd" d="M170.115 75.6601C170.249 75.4188 170.554 75.3322 170.795 75.4666C173.693 77.0809 176.608 78.6502 179.537 80.2122C179.781 80.3422 179.873 80.6451 179.743 80.8887C179.613 81.1324 179.31 81.2245 179.067 81.0946C176.136 79.5316 173.214 77.9589 170.308 76.3402C170.067 76.2058 169.981 75.9013 170.115 75.6601Z" fill="black"/>
<path fill-rule="evenodd" clip-rule="evenodd" d="M176.775 78.4041C177.05 78.3889 177.286 78.6002 177.301 78.8759C177.611 84.5126 177.428 94.4387 177.284 102.209C177.22 105.704 177.163 108.764 177.163 110.8C177.163 111.076 176.939 111.3 176.663 111.3C176.387 111.3 176.163 111.076 176.163 110.8C176.163 108.726 176.22 105.636 176.285 102.117C176.429 94.3631 176.61 84.531 176.303 78.9307C176.288 78.655 176.499 78.4192 176.775 78.4041Z" fill="black"/>
<path fill-rule="evenodd" clip-rule="evenodd" d="M118.772 83.1543C119.048 83.1372 119.285 83.3468 119.302 83.6224C119.86 92.6239 119.651 102.107 119.466 110.521C119.381 114.352 119.302 117.962 119.302 121.203C119.302 121.48 119.078 121.703 118.802 121.703C118.526 121.703 118.302 121.48 118.302 121.203C118.302 117.921 118.382 114.287 118.467 110.441C118.652 102.047 118.859 92.644 118.304 83.6843C118.287 83.4087 118.497 83.1714 118.772 83.1543Z" fill="black"/>
<path fill-rule="evenodd" clip-rule="evenodd" d="M199.721 96.2963C199.657 96.5649 199.387 96.7307 199.118 96.6665L187.497 93.8924C187.228 93.8283 187.063 93.5585 187.127 93.29C187.191 93.0214 187.46 92.8556 187.729 92.9197L199.35 95.6939C199.619 95.758 199.785 96.0277 199.721 96.2963Z" fill="black"/>
<path fill-rule="evenodd" clip-rule="evenodd" d="M104.642 111.277C104.69 111.549 104.509 111.809 104.237 111.857L92.4744 113.952C92.2025 114.001 91.9429 113.819 91.8945 113.548C91.8461 113.276 92.0272 113.016 92.2991 112.968L104.062 110.873C104.334 110.824 104.593 111.005 104.642 111.277Z" fill="black"/>
<path fill-rule="evenodd" clip-rule="evenodd" d="M175.454 67.6016C175.195 67.5065 175.062 67.2193 175.157 66.96L179.18 55.9899C179.275 55.7306 179.563 55.5975 179.822 55.6926C180.081 55.7877 180.214 56.0749 180.119 56.3342L176.096 67.3043C176.001 67.5636 175.713 67.6967 175.454 67.6016Z" fill="black"/>
<path fill-rule="evenodd" clip-rule="evenodd" d="M186.168 76.4074C186.028 76.1695 186.107 75.863 186.345 75.7227L197.078 69.3948C197.316 69.2545 197.622 69.3336 197.762 69.5715C197.903 69.8094 197.823 70.1159 197.586 70.2562L186.853 76.5842C186.615 76.7244 186.308 76.6453 186.168 76.4074Z" fill="black"/>
<path fill-rule="evenodd" clip-rule="evenodd" d="M108.511 119.491C108.72 119.672 108.743 119.988 108.563 120.197L102.8 126.869C102.62 127.078 102.304 127.101 102.095 126.92C101.886 126.74 101.863 126.424 102.043 126.215L107.806 119.543C107.986 119.334 108.302 119.311 108.511 119.491Z" fill="black"/>
<path fill-rule="evenodd" clip-rule="evenodd" d="M173.035 121.114C173.278 120.984 173.581 121.075 173.712 121.319C174.426 122.649 174.966 124.018 175.472 125.373C175.568 125.629 175.662 125.885 175.757 126.14C176.163 127.24 176.563 128.323 177.04 129.393C177.152 129.645 177.039 129.94 176.786 130.053C176.534 130.165 176.239 130.052 176.126 129.8C175.635 128.697 175.221 127.576 174.814 126.475C174.721 126.223 174.628 125.972 174.535 125.722C174.032 124.374 173.511 123.059 172.831 121.792C172.7 121.548 172.792 121.245 173.035 121.114Z" fill="black"/>
<path fill-rule="evenodd" clip-rule="evenodd" d="M143.804 136.748C143.528 136.737 143.313 136.505 143.324 136.229C143.394 134.447 143.395 132.067 143.377 130.127C143.368 129.159 143.355 128.302 143.344 127.688C143.338 127.38 143.333 127.134 143.33 126.964L143.326 126.769L143.324 126.703L143.824 126.69L144.324 126.678L144.325 126.747L144.33 126.943C144.333 127.114 144.338 127.361 144.344 127.67C144.355 128.286 144.368 129.146 144.377 130.118C144.395 132.06 144.395 134.46 144.324 136.268C144.313 136.544 144.08 136.759 143.804 136.748ZM143.812 126.19C144.088 126.184 144.317 126.402 144.324 126.678L143.824 126.69L143.324 126.702C143.318 126.426 143.536 126.197 143.812 126.19Z" fill="black"/>
<defs>
<radialGradient id="paint0_radial_621_1174" cx="0" cy="0" r="1" gradientUnits="userSpaceOnUse" gradientTransform="translate(125.773 92.9215) rotate(90.993) scale(29.6583 63.588)">
<stop/>
<stop offset="1" stop-color="#3E7BFA" stop-opacity="0"/>
</radialGradient>
</defs>
</svg>
