<svg width="71" height="62" viewBox="0 0 71 62" fill="none" xmlns="http://www.w3.org/2000/svg">
  <path fill-rule="evenodd" clip-rule="evenodd" d="M63.975 38.381L53.9451 23.619H17.0549L11.0976 32.4762H11.1248L7.17149 38.381H26.625C26.625 43.2726 30.5985 47.2381 35.5 47.2381C40.4015 47.2381 44.375 43.2726 44.375 38.381H63.975ZM71 38.381V62H0V38.381L13.9004 17.7143H57.0996L71 38.381ZM21.9391 44.2857H5.91667V56.0952H65.0833V44.2857H49.0609C46.7783 49.4993 41.5655 53.1429 35.5 53.1429C29.4345 53.1429 24.2217 49.4993 21.9391 44.2857ZM38.4583 11.8095H32.5417V0H38.4583V11.8095ZM52.5931 13.6646L47.9902 9.95448L55.1582 1.09733L59.7611 4.80743L52.5931 13.6646ZM23.0098 9.95448L18.4069 13.6646L11.2389 4.80743L15.8418 1.09733L23.0098 9.95448Z" fill="#D9DAE6"/>
</svg>
