<svg width="16" height="16" viewBox="0 0 16 16" fill="none" xmlns="http://www.w3.org/2000/svg">
  <path fill-rule="evenodd" clip-rule="evenodd" d="M8 16C3.58172 16 0 12.4183 0 8C0 3.58172 3.58172 0 8 0C12.4183 0 16 3.58172 16 8C16 12.4183 12.4183 16 8 16ZM8 15C11.866 15 15 11.866 15 8C15 4.13401 11.866 1 8 1C4.13401 1 1 4.13401 1 8C1 11.866 4.13401 15 8 15ZM10.8572 4.20593L7.99744 7.06484L5.14323 4.20636C4.51844 3.58064 3.58127 4.51921 4.20605 5.14493L7.05942 8.00257L4.20647 10.8546C3.58113 11.4798 4.51746 12.4192 5.14281 11.7941L7.9966 8.94115L10.8448 11.7936C11.4696 12.4194 12.4068 11.4808 11.782 10.8551L8.93461 8.00341L11.7935 5.14535C12.4189 4.5202 11.4826 3.58078 10.8572 4.20593Z" fill="#6B6D85"/>
</svg>