<svg width="20" height="20" fill="none" xmlns="http://www.w3.org/2000/svg"><path fill-rule="evenodd" clip-rule="evenodd" d="M8.11 1.146a.9.9 0 01.9-.9h1.8a.9.9 0 01.9.9v2.101c.574.155 1.119.382 1.623.67l1.495-1.488a.9.9 0 011.27 0l1.276 1.27a.9.9 0 010 1.275L15.883 6.46c.287.5.514 1.038.669 1.607h2.11a.9.9 0 01.9.9v1.8a.9.9 0 01-.9.9h-2.11a6.803 6.803 0 01-.67 1.61l1.489 1.483a.9.9 0 010 1.275l-1.275 1.27a.9.9 0 01-1.27 0l-1.496-1.488a6.86 6.86 0 01-1.62.668v2.101a.9.9 0 01-.9.9h-1.8a.9.9 0 01-.9-.9v-2.1a6.853 6.853 0 01-1.622-.67l-1.495 1.488a.9.9 0 01-1.27 0l-1.275-1.27a.9.9 0 010-1.276l1.49-1.483a6.803 6.803 0 01-.67-1.608h-2.11a.9.9 0 01-.9-.9v-1.8a.9.9 0 01.9-.9h2.11a6.804 6.804 0 01.668-1.608l-1.49-1.484a.9.9 0 010-1.275l1.276-1.27a.9.9 0 011.27 0l1.494 1.488a6.859 6.859 0 011.624-.67v-2.1zm1.2.3v2.03a.91.91 0 01-.706.884 5.66 5.66 0 00-1.683.694.91.91 0 01-1.12-.126L4.357 3.49l-.85.847 1.44 1.433a.91.91 0 01.126 1.125 5.605 5.605 0 00-.694 1.667.91.91 0 01-.883.704H1.458v1.2h2.038a.91.91 0 01.883.703c.142.598.379 1.16.695 1.668a.91.91 0 01-.127 1.125l-1.44 1.433.851.847 1.444-1.438a.91.91 0 011.12-.127 5.659 5.659 0 001.682.694.91.91 0 01.706.884v2.03h1.2v-2.03a.91.91 0 01.705-.884 5.657 5.657 0 001.68-.693.91.91 0 011.12.126l1.445 1.44.85-.847-1.438-1.434a.91.91 0 01-.127-1.125c.316-.509.553-1.07.695-1.669a.91.91 0 01.883-.703h2.04v-1.2h-2.04a.91.91 0 01-.883-.704 5.606 5.606 0 00-.694-1.666.91.91 0 01.127-1.125l1.44-1.434-.85-.847-1.445 1.439a.91.91 0 01-1.12.126 5.66 5.66 0 00-1.683-.695.91.91 0 01-.705-.884v-2.03h-1.2zm.712 5.703a2.85 2.85 0 100 5.7 2.85 2.85 0 000-5.7zm-4.05 2.85a4.05 4.05 0 118.1 0 4.05 4.05 0 01-8.1 0z" fill="#4F5162"/></svg>