<?xml version="1.0" encoding="UTF-8"?>
<svg fill="none" viewBox="0 0 417 112" xmlns="http://www.w3.org/2000/svg">
<path d="M384 36H4V38H384V36Z" fill="#0278D5"/>
<g filter="url(#e)">
<path d="m401 50.5c7.732 0 14-6.268 14-14s-6.268-14-14-14-14 6.268-14 14 6.268 14 14 14z" fill="#F2F2F2"/>
<path d="m401 50c7.456 0 13.5-6.0442 13.5-13.5s-6.044-13.5-13.5-13.5-13.5 6.0442-13.5 13.5 6.044 13.5 13.5 13.5z" stroke="#B0B1C4"/>
</g>
<path d="m404 33h-6c-0.552 0-1 0.4477-1 1v6c0 0.5523 0.448 1 1 1h6c0.552 0 1-0.4477 1-1v-6c0-0.5523-0.448-1-1-1z" fill="#8B8B8B"/>
<path d="m387 40.5c1.933 0 3.5-1.567 3.5-3.5s-1.567-3.5-3.5-3.5-3.5 1.567-3.5 3.5 1.567 3.5 3.5 3.5z" fill="#fff" stroke="#0278D5"/>
<g filter="url(#d)">
<path d="m16 51c7.732 0 14-6.268 14-14s-6.268-14-14-14c-7.732 0-14 6.268-14 14s6.268 14 14 14z" fill="#F2F2F2"/>
<path d="m16 50.5c7.4558 0 13.5-6.0442 13.5-13.5s-6.0442-13.5-13.5-13.5c-7.4558 0-13.5 6.0442-13.5 13.5s6.0442 13.5 13.5 13.5z" stroke="#B0B1C4"/>
</g>
<path d="m15.268 31.225c-0.3329-0.2528-0.7811-0.2957-1.1564-0.1108-0.3752 0.185-0.6125 0.5659-0.6121 0.9826v8.8081c0 0.4166 0.2374 0.7971 0.6125 0.9819 0.3752 0.1847 0.8232 0.1417 1.156-0.111l5.7988-4.4047c0.2727-0.2073 0.4327-0.5292 0.4327-0.8707s-0.16-0.6634-0.4327-0.8707l-5.7988-4.4047z" fill="#84D121"/>
<path d="m30 40.5c1.933 0 3.5-1.567 3.5-3.5s-1.567-3.5-3.5-3.5-3.5 1.567-3.5 3.5 1.567 3.5 3.5 3.5z" fill="#fff" stroke="#0278D5"/>
<g filter="url(#c)">
<path d="m159 18h-80c-2.7614 0-5 2.2386-5 5v30c0 2.7614 2.2386 5 5 5h80c2.761 0 5-2.2386 5-5v-30c0-2.7614-2.239-5-5-5z" fill="#fff"/>
</g>
<path d="m76.553 69.405v-1.1335h6.7543v1.1335h-2.723v7.5938h-1.3125v-7.5938h-2.7188zm10.216 7.7259c-0.6449 0-1.2003-0.1378-1.6662-0.4133-0.4631-0.2785-0.821-0.6691-1.0739-1.1719-0.25-0.5057-0.375-1.098-0.375-1.777 0-0.6705 0.125-1.2614 0.375-1.7727 0.2529-0.5114 0.6051-0.9106 1.0568-1.1975 0.4546-0.2869 0.9858-0.4304 1.5938-0.4304 0.3693 0 0.7273 0.0611 1.0738 0.1833 0.3466 0.1221 0.6577 0.3139 0.9333 0.5752 0.2756 0.2614 0.4929 0.6009 0.652 1.0185 0.1591 0.4148 0.2386 0.919 0.2386 1.5128v0.4517h-5.2031v-0.9546h3.9545c0-0.3352-0.0682-0.6321-0.2045-0.8906-0.1364-0.2613-0.3281-0.4673-0.5753-0.6179-0.2443-0.1505-0.5312-0.2258-0.8608-0.2258-0.3579 0-0.6704 0.088-0.9375 0.2642-0.2642 0.1733-0.4687 0.4005-0.6136 0.6818-0.1421 0.2784-0.2131 0.581-0.2131 0.9077v0.7457c0 0.4375 0.0767 0.8097 0.2301 1.1165 0.1563 0.3068 0.3736 0.5412 0.652 0.7031 0.2784 0.1591 0.6037 0.2386 0.9759 0.2386 0.2414 0 0.4616-0.034 0.6605-0.1022 0.1988-0.0711 0.3707-0.1762 0.5156-0.3154s0.2557-0.311 0.3324-0.5156l1.2059 0.2173c-0.0965 0.3551-0.2698 0.6662-0.5198 0.9333-0.2472 0.2642-0.5583 0.4701-0.9333 0.6179-0.3721 0.1449-0.7969 0.2173-1.2741 0.2173zm9.3267-5.0795-1.1548 0.2045c-0.0483-0.1477-0.125-0.2884-0.2301-0.4219-0.1023-0.1335-0.2415-0.2429-0.4176-0.3281s-0.3963-0.1278-0.6605-0.1278c-0.3608 0-0.662 0.0809-0.9034 0.2429-0.2415 0.159-0.3622 0.365-0.3622 0.6179 0 0.2187 0.0809 0.3948 0.2429 0.5284 0.1619 0.1335 0.4232 0.2429 0.784 0.3281l1.0398 0.2386c0.6023 0.1392 1.0512 0.3537 1.3466 0.6435 0.2955 0.2898 0.4432 0.6662 0.4432 1.1293 0 0.392-0.1136 0.7414-0.3409 1.0482-0.2245 0.304-0.5384 0.5427-0.9418 0.716-0.4005 0.1733-0.865 0.2599-1.3934 0.2599-0.733 0-1.331-0.1562-1.7941-0.4687-0.463-0.3154-0.7471-0.7628-0.8523-1.3424l1.2316-0.1875c0.0767 0.321 0.2344 0.5639 0.473 0.7287 0.2386 0.1619 0.5497 0.2429 0.9332 0.2429 0.4176 0 0.7515-0.0866 1.0015-0.2599 0.25-0.1762 0.375-0.3907 0.375-0.6435 0-0.2045-0.0768-0.3764-0.2302-0.5156-0.1505-0.1392-0.3821-0.2443-0.6946-0.3154l-1.1079-0.2429c-0.6108-0.1392-1.0625-0.3608-1.3551-0.6647-0.2898-0.304-0.4347-0.689-0.4347-1.1549 0-0.3863 0.108-0.7244 0.3239-1.0142 0.2159-0.2897 0.5142-0.5156 0.8949-0.6775 0.3806-0.1648 0.8167-0.2472 1.3082-0.2472 0.7074 0 1.2642 0.1534 1.6705 0.4602 0.4062 0.304 0.6747 0.7117 0.8053 1.2231zm4.7852-1.5981v1.0228h-3.5763v-1.0228h3.5763zm-2.6175-1.5681h1.2742v6.1917c0 0.2472 0.0369 0.4333 0.1108 0.5583 0.0738 0.1221 0.169 0.2059 0.2855 0.2514 0.12 0.0426 0.249 0.0639 0.388 0.0639 0.103 0 0.192-0.0071 0.269-0.0213 0.076-0.0142 0.136-0.0256 0.179-0.0341l0.23 1.0526c-0.074 0.0284-0.179 0.0568-0.316 0.0852-0.136 0.0312-0.306 0.0483-0.511 0.0511-0.3356 0.0057-0.6481-0.054-0.9379-0.179s-0.5241-0.3181-0.7031-0.5795-0.2685-0.5895-0.2685-0.9844v-6.4559zm7.7045 8.1136v-8.7273h3.196c0.619 0 1.132 0.1023 1.538 0.3068 0.407 0.2017 0.711 0.4759 0.912 0.8225 0.202 0.3437 0.303 0.7315 0.303 1.1633 0 0.3637-0.067 0.6705-0.2 0.9205-0.134 0.2472-0.313 0.446-0.537 0.5966-0.222 0.1477-0.466 0.2557-0.733 0.3238v0.0853c0.289 0.0142 0.572 0.1079 0.848 0.2812 0.278 0.1705 0.508 0.4134 0.69 0.7287 0.182 0.3154 0.273 0.6989 0.273 1.1506 0 0.446-0.105 0.8466-0.316 1.2017-0.207 0.3523-0.528 0.6321-0.963 0.8395-0.434 0.2045-0.99 0.3068-1.666 0.3068h-3.345zm1.317-1.1293h1.9c0.631 0 1.083-0.1221 1.355-0.3664 0.273-0.2444 0.41-0.5498 0.41-0.9162 0-0.2756-0.07-0.5284-0.209-0.7586-0.139-0.2301-0.338-0.4133-0.597-0.5497-0.256-0.1363-0.56-0.2045-0.912-0.2045h-1.947v2.7954zm0-3.8224h1.764c0.295 0 0.561-0.0568 0.797-0.1705 0.238-0.1136 0.427-0.2727 0.567-0.4772 0.142-0.2074 0.213-0.4517 0.213-0.733 0-0.3608-0.127-0.6633-0.38-0.9077-0.252-0.2443-0.64-0.3664-1.163-0.3664h-1.798v2.6548zm10.779 2.2372v-3.831h1.278v6.5455h-1.253v-1.1335h-0.068c-0.151 0.3494-0.392 0.6406-0.724 0.8736-0.33 0.2301-0.74 0.3451-1.232 0.3451-0.42 0-0.793-0.0923-1.116-0.277-0.321-0.1875-0.574-0.4644-0.759-0.8309-0.182-0.3665-0.273-0.8196-0.273-1.3594v-4.1634h1.274v4.01c0 0.446 0.124 0.8011 0.371 1.0653s0.568 0.3963 0.963 0.3963c0.239 0 0.476-0.0596 0.712-0.1789 0.239-0.1194 0.436-0.2998 0.592-0.5412 0.159-0.2415 0.237-0.5483 0.235-0.9205zm3.19 2.7145v-6.5455h1.274v6.5455h-1.274zm0.643-7.5554c-0.221 0-0.411-0.0739-0.571-0.2216-0.156-0.1506-0.234-0.3295-0.234-0.5369 0-0.2102 0.078-0.3892 0.234-0.537 0.16-0.1505 0.35-0.2258 0.571-0.2258 0.222 0 0.411 0.0753 0.567 0.2258 0.159 0.1478 0.239 0.3268 0.239 0.537 0 0.2074-0.08 0.3863-0.239 0.5369-0.156 0.1477-0.345 0.2216-0.567 0.2216zm3.819-1.1719v8.7273h-1.274v-8.7273h1.274zm4.365 8.8551c-0.529 0-1-0.1349-1.415-0.4048-0.412-0.2727-0.736-0.6605-0.972-1.1633-0.232-0.5057-0.349-1.1123-0.349-1.8196 0-0.7074 0.118-1.3125 0.354-1.8154 0.238-0.5028 0.565-0.8878 0.98-1.1548 0.415-0.2671 0.885-0.4006 1.41-0.4006 0.407 0 0.733 0.0682 0.98 0.2046 0.25 0.1335 0.444 0.2897 0.58 0.4687 0.139 0.179 0.247 0.3367 0.324 0.473h0.077v-3.2429h1.274v8.7273h-1.245v-1.0185h-0.106c-0.077 0.1392-0.188 0.2983-0.332 0.4773-0.143 0.179-0.339 0.3352-0.589 0.4688-0.25 0.1335-0.573 0.2002-0.971 0.2002zm0.281-1.0866c0.367 0 0.676-0.0966 0.929-0.2898 0.256-0.196 0.449-0.4673 0.58-0.8139 0.133-0.3466 0.2-0.75 0.2-1.2102 0-0.4546-0.065-0.8523-0.196-1.1932s-0.323-0.6065-0.575-0.7969c-0.253-0.1903-0.566-0.2855-0.938-0.2855-0.383 0-0.703 0.0994-0.959 0.2983-0.255 0.1989-0.449 0.4702-0.579 0.8139-0.128 0.3438-0.192 0.7316-0.192 1.1634 0 0.4375 0.065 0.8309 0.196 1.1804 0.131 0.3494 0.324 0.6264 0.58 0.8309 0.258 0.2017 0.576 0.3026 0.954 0.3026zm10.261 1.1037c-0.415 0-0.79-0.0767-1.125-0.2301-0.335-0.1563-0.601-0.3821-0.797-0.6776-0.193-0.2954-0.29-0.6577-0.29-1.0866 0-0.3694 0.071-0.6733 0.213-0.912 0.142-0.2386 0.334-0.4275 0.576-0.5667 0.241-0.1392 0.511-0.2443 0.809-0.3154 0.299-0.071 0.603-0.125 0.912-0.1619 0.392-0.0455 0.71-0.0824 0.955-0.1108 0.244-0.0312 0.422-0.081 0.532-0.1491 0.111-0.0682 0.167-0.179 0.167-0.3324v-0.0299c0-0.3721-0.105-0.6605-0.316-0.865-0.207-0.2046-0.517-0.3068-0.929-0.3068-0.429 0-0.767 0.0951-1.014 0.2855-0.244 0.1875-0.413 0.3963-0.507 0.6264l-1.197-0.2727c0.142-0.3978 0.349-0.7188 0.622-0.9631 0.275-0.2472 0.592-0.4261 0.95-0.5369 0.358-0.1137 0.734-0.1705 1.129-0.1705 0.262 0 0.539 0.0313 0.831 0.0938 0.296 0.0596 0.571 0.1704 0.827 0.3324 0.258 0.1619 0.47 0.3934 0.635 0.6946 0.165 0.2983 0.247 0.686 0.247 1.1633v4.3466h-1.244v-0.8949h-0.051c-0.083 0.1648-0.206 0.3267-0.371 0.4858s-0.377 0.2912-0.635 0.3963c-0.259 0.1051-0.568 0.1577-0.929 0.1577zm0.277-1.0227c0.352 0 0.653-0.0696 0.903-0.2088 0.253-0.1393 0.445-0.3211 0.576-0.5455 0.133-0.2273 0.2-0.4702 0.2-0.7287v-0.8437c-0.046 0.0454-0.134 0.088-0.264 0.1278-0.128 0.0369-0.274 0.0696-0.439 0.098-0.165 0.0256-0.326 0.0497-0.482 0.0725-0.156 0.0198-0.287 0.0369-0.392 0.0511-0.247 0.0312-0.473 0.0838-0.677 0.1577-0.202 0.0738-0.364 0.1804-0.486 0.3196-0.119 0.1363-0.179 0.3181-0.179 0.5454 0 0.3154 0.116 0.554 0.349 0.7159 0.233 0.1591 0.53 0.2387 0.891 0.2387zm6.124-3.0086v3.8864h-1.274v-6.5455h1.223v1.0654h0.081c0.151-0.3466 0.386-0.625 0.707-0.8352 0.324-0.2103 0.732-0.3154 1.223-0.3154 0.447 0 0.837 0.0938 1.172 0.2813 0.336 0.1846 0.596 0.4602 0.78 0.8267 0.185 0.3664 0.277 0.8196 0.277 1.3593v4.1634h-1.274v-4.0099c0-0.4745-0.124-0.8452-0.371-1.1123-0.247-0.2698-0.586-0.4048-1.018-0.4048-0.296 0-0.558 0.0639-0.789 0.1918-0.227 0.1278-0.407 0.3153-0.541 0.5625-0.13 0.2443-0.196 0.5397-0.196 0.8863zm8.548 4.0142c-0.528 0-1-0.1349-1.415-0.4048-0.411-0.2727-0.735-0.6605-0.971-1.1633-0.233-0.5057-0.35-1.1123-0.35-1.8196 0-0.7074 0.118-1.3125 0.354-1.8154 0.239-0.5028 0.566-0.8878 0.98-1.1548 0.415-0.2671 0.885-0.4006 1.411-0.4006 0.406 0 0.733 0.0682 0.98 0.2046 0.25 0.1335 0.443 0.2897 0.579 0.4687 0.14 0.179 0.248 0.3367 0.324 0.473h0.077v-3.2429h1.274v8.7273h-1.244v-1.0185h-0.107c-0.076 0.1392-0.187 0.2983-0.332 0.4773-0.142 0.179-0.338 0.3352-0.588 0.4688-0.25 0.1335-0.574 0.2002-0.972 0.2002zm0.282-1.0866c0.366 0 0.676-0.0966 0.928-0.2898 0.256-0.196 0.449-0.4673 0.58-0.8139 0.134-0.3466 0.2-0.75 0.2-1.2102 0-0.4546-0.065-0.8523-0.196-1.1932-0.13-0.3409-0.322-0.6065-0.575-0.7969-0.253-0.1903-0.565-0.2855-0.937-0.2855-0.384 0-0.704 0.0994-0.959 0.2983-0.256 0.1989-0.449 0.4702-0.58 0.8139-0.128 0.3438-0.192 0.7316-0.192 1.1634 0 0.4375 0.066 0.8309 0.196 1.1804 0.131 0.3494 0.324 0.6264 0.58 0.8309 0.258 0.2017 0.577 0.3026 0.955 0.3026zm-58.471 16.959v-8.7273h3.1113c0.679 0 1.242 0.1236 1.688 0.3708 0.446 0.2471 0.779 0.5852 1.001 1.0142 0.222 0.4261 0.332 0.9062 0.332 1.4403 0 0.5369-0.112 1.0199-0.336 1.4489-0.222 0.4261-0.557 0.7642-1.006 1.0142-0.446 0.2471-1.007 0.3707-1.683 0.3707h-2.1399v-1.1165h2.0199c0.429 0 0.777-0.0738 1.044-0.2215 0.268-0.1506 0.464-0.3552 0.589-0.6137s0.187-0.5525 0.187-0.8821c0-0.3295-0.062-0.6221-0.187-0.8778s-0.323-0.456-0.593-0.6009c-0.267-0.1449-0.619-0.2173-1.057-0.2173h-1.6535v7.598h-1.3168zm11.92-2.7145v-3.831h1.278v6.5455h-1.252v-1.1335h-0.069c-0.15 0.3494-0.392 0.6406-0.724 0.8736-0.33 0.2301-0.74 0.3451-1.232 0.3451-0.42 0-0.792-0.0923-1.116-0.277-0.321-0.1875-0.574-0.4644-0.759-0.8309-0.181-0.3665-0.272-0.8196-0.272-1.3594v-4.1634h1.274v4.01c0 0.446 0.123 0.8011 0.371 1.0653 0.247 0.2642 0.568 0.3963 0.963 0.3963 0.238 0 0.476-0.0596 0.711-0.1789 0.239-0.1194 0.436-0.2998 0.593-0.5412 0.159-0.2415 0.237-0.5483 0.234-0.9205zm3.293 2.7145v-8.7273h1.274v3.2429h0.077c0.073-0.1363 0.18-0.294 0.319-0.473s0.333-0.3352 0.58-0.4687c0.247-0.1364 0.574-0.2046 0.98-0.2046 0.528 0 1 0.1335 1.415 0.4006 0.414 0.267 0.74 0.652 0.975 1.1548 0.239 0.5029 0.358 1.108 0.358 1.8154 0 0.7073-0.117 1.3139-0.353 1.8196-0.236 0.5028-0.56 0.8906-0.972 1.1633-0.412 0.2699-0.882 0.4048-1.41 0.4048-0.398 0-0.723-0.0667-0.976-0.2002-0.25-0.1336-0.446-0.2898-0.588-0.4688s-0.252-0.3381-0.328-0.4773h-0.107v1.0185h-1.244zm1.248-3.2727c0 0.4602 0.067 0.8636 0.201 1.2102 0.133 0.3466 0.326 0.6179 0.579 0.8139 0.253 0.1932 0.563 0.2898 0.929 0.2898 0.381 0 0.699-0.1009 0.955-0.3026 0.255-0.2045 0.449-0.4815 0.579-0.8309 0.134-0.3495 0.201-0.7429 0.201-1.1804 0-0.4318-0.066-0.8196-0.197-1.1634-0.127-0.3437-0.321-0.615-0.579-0.8139-0.256-0.1989-0.575-0.2983-0.959-0.2983-0.369 0-0.682 0.0952-0.937 0.2855-0.253 0.1904-0.445 0.456-0.576 0.7969-0.13 0.3409-0.196 0.7386-0.196 1.1932zm7.635-5.4546v8.7273h-1.274v-8.7273h1.274zm1.914 8.7273v-6.5455h1.275v6.5455h-1.275zm0.644-7.5554c-0.222 0-0.412-0.0739-0.571-0.2216-0.156-0.1506-0.234-0.3295-0.234-0.5369 0-0.2102 0.078-0.3892 0.234-0.537 0.159-0.1505 0.349-0.2258 0.571-0.2258s0.41 0.0753 0.567 0.2258c0.159 0.1478 0.238 0.3268 0.238 0.537 0 0.2074-0.079 0.3863-0.238 0.5369-0.157 0.1477-0.345 0.2216-0.567 0.2216zm7.45 2.608-1.155 0.2045c-0.049-0.1477-0.125-0.2884-0.23-0.4219-0.103-0.1335-0.242-0.2429-0.418-0.3281s-0.396-0.1278-0.66-0.1278c-0.361 0-0.662 0.0809-0.904 0.2429-0.241 0.159-0.362 0.365-0.362 0.6179 0 0.2187 0.081 0.3948 0.243 0.5284 0.162 0.1335 0.423 0.2429 0.784 0.3281l1.04 0.2386c0.602 0.1392 1.051 0.3537 1.346 0.6435 0.296 0.2898 0.443 0.6662 0.443 1.1293 0 0.392-0.113 0.7414-0.34 1.0482-0.225 0.304-0.539 0.5427-0.942 0.716-0.401 0.1733-0.865 0.2599-1.394 0.2599-0.733 0-1.331-0.1562-1.794-0.4687-0.463-0.3154-0.747-0.7628-0.852-1.3424l1.232-0.1875c0.076 0.321 0.234 0.5639 0.473 0.7287 0.238 0.1619 0.549 0.2429 0.933 0.2429 0.417 0 0.751-0.0866 1.001-0.2599 0.25-0.1762 0.375-0.3907 0.375-0.6435 0-0.2045-0.077-0.3764-0.23-0.5156-0.15-0.1392-0.382-0.2443-0.695-0.3154l-1.107-0.2429c-0.611-0.1392-1.063-0.3608-1.356-0.6647-0.289-0.304-0.434-0.689-0.434-1.1549 0-0.3863 0.108-0.7244 0.324-1.0142 0.216-0.2897 0.514-0.5156 0.894-0.6775 0.381-0.1648 0.817-0.2472 1.309-0.2472 0.707 0 1.264 0.1534 1.67 0.4602 0.406 0.304 0.675 0.7117 0.806 1.2231zm3.003 1.061v3.8864h-1.275v-8.7273h1.257v3.2472h0.081c0.154-0.3523 0.388-0.6321 0.704-0.8395 0.315-0.2074 0.727-0.3111 1.235-0.3111 0.449 0 0.841 0.0923 1.176 0.277 0.339 0.1847 0.6 0.4602 0.785 0.8267 0.187 0.3636 0.281 0.8182 0.281 1.3636v4.1634h-1.274v-4.0099c0-0.4802-0.124-0.8523-0.371-1.1165-0.247-0.2671-0.591-0.4006-1.031-0.4006-0.301 0-0.571 0.0639-0.81 0.1918-0.236 0.1278-0.422 0.3153-0.558 0.5625-0.134 0.2443-0.2 0.5397-0.2 0.8863z" fill="#22222A"/>
<path d="m74 40.5c1.933 0 3.5-1.567 3.5-3.5s-1.567-3.5-3.5-3.5-3.5 1.567-3.5 3.5 1.567 3.5 3.5 3.5z" fill="#fff" stroke="#0278D5"/>
<path d="m164 40.5c1.933 0 3.5-1.567 3.5-3.5s-1.567-3.5-3.5-3.5-3.5 1.567-3.5 3.5 1.567 3.5 3.5 3.5z" fill="#fff" stroke="#0278D5"/>
<path d="m129.43 28.061c1.604 0.9082 2.589 2.615 2.573 4.4582l-0.077 8.9346c-0.016 1.7969-0.981 3.4516-2.537 4.3499l-8.002 4.6187c-1.556 0.8983-3.472 0.9062-5.035 0.0208l-7.776-4.4024c-1.604-0.9082-2.589-2.6149-2.573-4.4581l0.077-8.9347c0.016-1.7969 0.981-3.4515 2.537-4.3498l8.002-4.6187c1.556-0.8984 3.472-0.9063 5.035-0.0209l7.776 4.4024zm-2.829 6.9372c-0.421 1.5856-2.03 2.5375-3.602 2.1409l-7.489-2.0259c-1.233-0.3339-2.517-0.1628-3.62 0.48s-1.892 1.6795-2.222 2.9246c-0.33 1.2454-0.161 2.5454 0.479 3.6646s1.671 1.9171 2.905 2.2508c1.233 0.334 2.517 0.1629 3.62-0.4798 1.103-0.6429 1.891-1.6796 2.222-2.9247l0.261-1.0464c0.033-0.1321-0.046-0.2662-0.177-0.3018l-1.259-0.3405c-0.135-0.0366-0.274 0.045-0.307 0.1809l-0.256 1.0238c-0.426 1.6026-2.064 2.5569-3.651 2.1278-1.582-0.4285-2.523-2.0732-2.1-3.6705 0.421-1.5857 2.03-2.5383 3.602-2.1417l7.489 2.0266c1.233 0.3339 2.517 0.1629 3.62-0.48 1.103-0.6427 1.892-1.6795 2.222-2.9246 0.33-1.2453 0.161-2.5454-0.479-3.6645-0.64-1.1192-1.671-1.9171-2.905-2.2509-1.233-0.3339-2.517-0.1629-3.62 0.4799-1.103 0.6429-1.891 1.6796-2.222 2.9247l-0.247 0.8272c-0.04 0.1347 0.039 0.2761 0.175 0.3128l1.258 0.3405c0.13 0.0354 0.266-0.0398 0.304-0.1697l0.248-0.8269c0.426-1.6026 2.064-2.5568 3.651-2.1277 1.582 0.4284 2.523 2.0731 2.1 3.6705z" clip-rule="evenodd" fill="url(#a)" fill-rule="evenodd"/>
<g filter="url(#b)">
<path d="m329 18h-80c-2.761 0-5 2.2386-5 5v30c0 2.7614 2.239 5 5 5h80c2.761 0 5-2.2386 5-5v-30c0-2.7614-2.239-5-5-5z" fill="#0278D5"/>
</g>
<path d="m239.44 70.564c-0.045-0.4034-0.233-0.7159-0.562-0.9375-0.33-0.2244-0.745-0.3366-1.245-0.3366-0.358 0-0.667 0.0568-0.929 0.1704-0.261 0.1108-0.464 0.2643-0.609 0.4603-0.142 0.1932-0.213 0.4133-0.213 0.6605 0 0.2074 0.048 0.3863 0.145 0.5369 0.099 0.1506 0.229 0.277 0.388 0.3793 0.162 0.0994 0.335 0.1832 0.52 0.2514 0.184 0.0653 0.362 0.1193 0.532 0.1619l0.852 0.2216c0.279 0.0682 0.564 0.1605 0.857 0.277s0.564 0.2699 0.814 0.4602c0.25 0.1904 0.452 0.4262 0.605 0.7074 0.156 0.2813 0.234 0.6179 0.234 1.01 0 0.4943-0.127 0.9332-0.383 1.3167-0.253 0.3836-0.621 0.6861-1.104 0.9077-0.48 0.2216-1.061 0.3324-1.743 0.3324-0.653 0-1.218-0.1037-1.696-0.3111-0.477-0.2074-0.851-0.5014-1.12-0.8821-0.27-0.3835-0.42-0.8381-0.448-1.3636h1.321c0.026 0.3153 0.128 0.5781 0.307 0.7883 0.182 0.2074 0.413 0.3622 0.695 0.4645 0.284 0.0994 0.595 0.1492 0.933 0.1492 0.372 0 0.703-0.0583 0.993-0.1748 0.292-0.1193 0.522-0.2841 0.69-0.4943 0.168-0.213 0.251-0.4616 0.251-0.7457 0-0.2585-0.073-0.4702-0.221-0.635-0.145-0.1647-0.343-0.3011-0.593-0.4091-0.247-0.1079-0.526-0.2031-0.839-0.2855l-1.031-0.2812c-0.699-0.1904-1.253-0.4702-1.662-0.8395-0.406-0.3693-0.61-0.858-0.61-1.4659 0-0.5029 0.137-0.9418 0.41-1.3168 0.272-0.375 0.642-0.6662 1.107-0.8735 0.466-0.2103 0.992-0.3154 1.577-0.3154 0.591 0 1.112 0.1037 1.564 0.3111 0.455 0.2074 0.813 0.4929 1.074 0.8565 0.261 0.3608 0.398 0.7756 0.409 1.2443h-1.27zm7.207 3.7202v-3.831h1.278v6.5455h-1.252v-1.1335h-0.069c-0.15 0.3494-0.392 0.6406-0.724 0.8736-0.33 0.2301-0.74 0.3451-1.232 0.3451-0.42 0-0.792-0.0923-1.116-0.277-0.321-0.1875-0.574-0.4644-0.759-0.8309-0.181-0.3665-0.272-0.8196-0.272-1.3594v-4.1634h1.274v4.01c0 0.446 0.123 0.8011 0.371 1.0653 0.247 0.2642 0.568 0.3963 0.963 0.3963 0.238 0 0.475-0.0596 0.711-0.1789 0.239-0.1194 0.436-0.2998 0.593-0.5412 0.159-0.2415 0.237-0.5483 0.234-0.9205zm3.293 2.7145v-8.7273h1.274v3.2429h0.076c0.074-0.1363 0.181-0.294 0.32-0.473s0.332-0.3352 0.58-0.4687c0.247-0.1364 0.573-0.2046 0.98-0.2046 0.528 0 1 0.1335 1.415 0.4006 0.414 0.267 0.74 0.652 0.975 1.1548 0.239 0.5029 0.358 1.108 0.358 1.8154 0 0.7073-0.118 1.3139-0.353 1.8196-0.236 0.5028-0.56 0.8906-0.972 1.1633-0.412 0.2699-0.882 0.4048-1.41 0.4048-0.398 0-0.723-0.0667-0.976-0.2002-0.25-0.1336-0.446-0.2898-0.588-0.4688s-0.252-0.3381-0.329-0.4773h-0.106v1.0185h-1.244zm1.248-3.2727c0 0.4602 0.067 0.8636 0.2 1.2102 0.134 0.3466 0.327 0.6179 0.58 0.8139 0.253 0.1932 0.563 0.2898 0.929 0.2898 0.381 0 0.699-0.1009 0.955-0.3026 0.255-0.2045 0.448-0.4815 0.579-0.8309 0.134-0.3495 0.2-0.7429 0.2-1.1804 0-0.4318-0.065-0.8196-0.196-1.1634-0.127-0.3437-0.321-0.615-0.579-0.8139-0.256-0.1989-0.575-0.2983-0.959-0.2983-0.369 0-0.682 0.0952-0.937 0.2855-0.253 0.1904-0.445 0.456-0.576 0.7969-0.13 0.3409-0.196 0.7386-0.196 1.1932zm6.361 3.2727v-6.5455h1.223v1.0654h0.081c0.136-0.3608 0.359-0.6421 0.669-0.8438 0.31-0.2045 0.68-0.3068 1.112-0.3068 0.438 0 0.804 0.1023 1.1 0.3068 0.298 0.2046 0.518 0.4858 0.66 0.8438h0.068c0.157-0.3494 0.405-0.6279 0.746-0.8352 0.341-0.2103 0.747-0.3154 1.219-0.3154 0.594 0 1.078 0.1861 1.453 0.5583 0.378 0.3721 0.567 0.9332 0.567 1.6832v4.3892h-1.274v-4.2699c0-0.4432-0.121-0.7642-0.363-0.9631-0.241-0.1988-0.529-0.2982-0.865-0.2982-0.414 0-0.737 0.1278-0.967 0.3835-0.23 0.2528-0.345 0.5781-0.345 0.9758v4.1719h-1.27v-4.3509c0-0.3551-0.111-0.6406-0.332-0.8565-0.222-0.2159-0.51-0.3238-0.865-0.3238-0.242 0-0.465 0.0639-0.669 0.1917-0.202 0.125-0.366 0.2997-0.491 0.5242-0.122 0.2244-0.183 0.4843-0.183 0.7798v4.0355h-1.274zm10.806 0v-6.5455h1.274v6.5455h-1.274zm0.643-7.5554c-0.222 0-0.412-0.0739-0.571-0.2216-0.156-0.1506-0.234-0.3295-0.234-0.5369 0-0.2102 0.078-0.3892 0.234-0.537 0.159-0.1505 0.349-0.2258 0.571-0.2258s0.411 0.0753 0.567 0.2258c0.159 0.1478 0.238 0.3268 0.238 0.537 0 0.2074-0.079 0.3863-0.238 0.5369-0.156 0.1477-0.345 0.2216-0.567 0.2216zm5.6 1.0099v1.0228h-3.575v-1.0228h3.575zm-2.616-1.5681h1.274v6.1917c0 0.2472 0.037 0.4333 0.111 0.5583 0.074 0.1221 0.169 0.2059 0.285 0.2514 0.12 0.0426 0.249 0.0639 0.388 0.0639 0.102 0 0.192-0.0071 0.268-0.0213 0.077-0.0142 0.137-0.0256 0.179-0.0341l0.231 1.0526c-0.074 0.0284-0.179 0.0568-0.316 0.0852-0.136 0.0312-0.307 0.0483-0.511 0.0511-0.335 0.0057-0.648-0.054-0.938-0.179-0.289-0.125-0.524-0.3181-0.703-0.5795s-0.268-0.5895-0.268-0.9844v-6.4559zm11.096-0.6137h1.312v6.1875c0 0.5597-0.111 1.0384-0.332 1.4361-0.219 0.3977-0.527 0.7017-0.925 0.9119-0.398 0.2074-0.863 0.3111-1.398 0.3111-0.491 0-0.933-0.0895-1.325-0.2684-0.389-0.179-0.697-0.439-0.925-0.7799-0.224-0.3437-0.336-0.7613-0.336-1.2528h1.308c0 0.2415 0.055 0.4503 0.166 0.6264 0.114 0.1761 0.269 0.3139 0.465 0.4134 0.199 0.0965 0.426 0.1448 0.682 0.1448 0.278 0 0.514-0.0582 0.707-0.1747 0.196-0.1193 0.345-0.294 0.447-0.5241 0.103-0.2301 0.154-0.5114 0.154-0.8438v-6.1875zm4.746 0v8.7273h-1.317v-8.7273h1.317zm2.117 8.7273v-8.7273h3.111c0.676 0 1.237 0.1165 1.683 0.3495 0.449 0.2329 0.784 0.5554 1.006 0.9673 0.221 0.4091 0.332 0.8821 0.332 1.419 0 0.5341-0.112 1.0043-0.336 1.4105-0.222 0.4034-0.557 0.7174-1.006 0.9418-0.446 0.2244-1.007 0.3366-1.683 0.3366h-2.357v-1.1335h2.237c0.427 0 0.773-0.0611 1.04-0.1832 0.27-0.1222 0.468-0.2997 0.592-0.5327 0.126-0.2329 0.188-0.5128 0.188-0.8395 0-0.3295-0.064-0.615-0.192-0.8565-0.125-0.2415-0.322-0.4261-0.592-0.554-0.267-0.1307-0.618-0.196-1.053-0.196h-1.653v7.598h-1.317zm4.308-3.9375 2.157 3.9375h-1.5l-2.114-3.9375h1.457zm4.364 3.9375h-1.398l3.141-8.7273h1.521l3.141 8.7273h-1.398l-2.467-7.142h-0.069l-2.471 7.142zm0.234-3.4176h4.534v1.1079h-4.534v-1.1079zm13.96-3.1279v1.0228h-3.575v-1.0228h3.575zm-2.617-1.5681h1.274v6.1917c0 0.2472 0.037 0.4333 0.111 0.5583 0.074 0.1221 0.169 0.2059 0.286 0.2514 0.119 0.0426 0.248 0.0639 0.388 0.0639 0.102 0 0.191-0.0071 0.268-0.0213s0.136-0.0256 0.179-0.0341l0.23 1.0526c-0.074 0.0284-0.179 0.0568-0.315 0.0852-0.137 0.0312-0.307 0.0483-0.512 0.0511-0.335 0.0057-0.647-0.054-0.937-0.179s-0.524-0.3181-0.703-0.5795-0.269-0.5895-0.269-0.9844v-6.4559zm4.226 8.1136v-6.5455h1.274v6.5455h-1.274zm0.644-7.5554c-0.222 0-0.412-0.0739-0.571-0.2216-0.157-0.1506-0.235-0.3295-0.235-0.5369 0-0.2102 0.078-0.3892 0.235-0.537 0.159-0.1505 0.349-0.2258 0.571-0.2258 0.221 0 0.41 0.0753 0.566 0.2258 0.16 0.1478 0.239 0.3268 0.239 0.537 0 0.2074-0.079 0.3863-0.239 0.5369-0.156 0.1477-0.345 0.2216-0.566 0.2216zm5.302 7.6875c-0.634 0-1.179-0.1435-1.637-0.4304-0.454-0.2898-0.804-0.6889-1.048-1.1974-0.244-0.5086-0.367-1.0909-0.367-1.7472 0-0.6648 0.126-1.2514 0.376-1.7599 0.25-0.5114 0.602-0.9106 1.056-1.1975 0.455-0.2869 0.99-0.4304 1.607-0.4304 0.497 0 0.94 0.0923 1.329 0.277 0.39 0.1818 0.704 0.4375 0.942 0.7671 0.242 0.3295 0.385 0.7144 0.431 1.1548h-1.241c-0.068-0.3068-0.224-0.571-0.468-0.7926-0.242-0.2216-0.566-0.3324-0.972-0.3324-0.355 0-0.666 0.0937-0.933 0.2812-0.264 0.1847-0.47 0.4489-0.618 0.7926-0.148 0.341-0.222 0.7444-0.222 1.2103 0 0.4772 0.073 0.8892 0.218 1.2358s0.349 0.615 0.613 0.8054c0.267 0.1903 0.581 0.2855 0.942 0.2855 0.242 0 0.46-0.0441 0.656-0.1321 0.199-0.0909 0.365-0.2202 0.499-0.3878 0.136-0.1676 0.232-0.3693 0.285-0.6051h1.241c-0.046 0.4233-0.184 0.8011-0.414 1.1335s-0.538 0.5937-0.925 0.7841c-0.383 0.1903-0.833 0.2855-1.35 0.2855zm5.423-2.3523-9e-3 -1.5554h0.222l2.608-2.7699h1.526l-2.975 3.1535h-0.2l-1.172 1.1718zm-1.172 2.2202v-8.7273h1.274v8.7273h-1.274zm4.134 0-2.344-3.1108 0.878-0.8906 3.03 4.0014h-1.564zm5.297 0.1321c-0.645 0-1.2-0.1378-1.666-0.4133-0.463-0.2785-0.821-0.6691-1.074-1.1719-0.25-0.5057-0.375-1.098-0.375-1.777 0-0.6705 0.125-1.2614 0.375-1.7727 0.253-0.5114 0.605-0.9106 1.057-1.1975 0.455-0.2869 0.986-0.4304 1.594-0.4304 0.369 0 0.727 0.0611 1.074 0.1833 0.346 0.1221 0.657 0.3139 0.933 0.5752 0.275 0.2614 0.493 0.6009 0.652 1.0185 0.159 0.4148 0.239 0.919 0.239 1.5128v0.4517h-5.204v-0.9546h3.955c0-0.3352-0.068-0.6321-0.205-0.8906-0.136-0.2613-0.328-0.4673-0.575-0.6179-0.244-0.1505-0.531-0.2258-0.861-0.2258-0.358 0-0.67 0.088-0.937 0.2642-0.264 0.1733-0.469 0.4005-0.614 0.6818-0.142 0.2784-0.213 0.581-0.213 0.9077v0.7457c0 0.4375 0.077 0.8097 0.23 1.1165 0.156 0.3068 0.374 0.5412 0.652 0.7031 0.279 0.1591 0.604 0.2386 0.976 0.2386 0.242 0 0.462-0.034 0.661-0.1022 0.198-0.0711 0.37-0.1762 0.515-0.3154s0.256-0.311 0.333-0.5156l1.206 0.2173c-0.097 0.3551-0.27 0.6662-0.52 0.9333-0.247 0.2642-0.559 0.4701-0.934 0.6179-0.372 0.1449-0.796 0.2173-1.274 0.2173zm7.478-6.6776v1.0228h-3.576v-1.0228h3.576zm-2.617-1.5681h1.274v6.1917c0 0.2472 0.037 0.4333 0.111 0.5583 0.074 0.1221 0.169 0.2059 0.286 0.2514 0.119 0.0426 0.248 0.0639 0.387 0.0639 0.103 0 0.192-0.0071 0.269-0.0213s0.136-0.0256 0.179-0.0341l0.23 1.0526c-0.074 0.0284-0.179 0.0568-0.315 0.0852-0.137 0.0312-0.307 0.0483-0.512 0.0511-0.335 0.0057-0.647-0.054-0.937-0.179s-0.524-0.3181-0.703-0.5795-0.269-0.5895-0.269-0.9844v-6.4559zm-89.744 17.568v1.0228h-3.699v-1.0228h3.699zm-2.685 6.5455v-7.304c0-0.4091 0.09-0.7486 0.269-1.0184 0.179-0.2728 0.416-0.4759 0.711-0.6094 0.296-0.1364 0.617-0.2046 0.964-0.2046 0.255 0 0.474 0.0213 0.656 0.064 0.182 0.0397 0.317 0.0767 0.405 0.1108l-0.299 1.0312c-0.059-0.017-0.136-0.0369-0.23-0.0597-0.094-0.0255-0.207-0.0383-0.341-0.0383-0.309 0-0.531 0.0767-0.664 0.2301-0.131 0.1534-0.197 0.375-0.197 0.6648v7.1335h-1.274zm6.699 0.1321c-0.614 0-1.149-0.1406-1.607-0.4219-0.457-0.2812-0.812-0.6747-1.065-1.1804s-0.379-1.0966-0.379-1.7727c0-0.679 0.126-1.2727 0.379-1.7812 0.253-0.5086 0.608-0.9035 1.065-1.1847 0.458-0.2813 0.993-0.4219 1.607-0.4219s1.149 0.1406 1.606 0.4219c0.458 0.2812 0.813 0.6761 1.066 1.1847 0.253 0.5085 0.379 1.1022 0.379 1.7812 0 0.6761-0.126 1.267-0.379 1.7727s-0.608 0.8992-1.066 1.1804c-0.457 0.2813-0.992 0.4219-1.606 0.4219zm4e-3 -1.0696c0.398 0 0.727-0.1051 0.989-0.3153 0.261-0.2103 0.454-0.4901 0.579-0.8395 0.128-0.3495 0.192-0.7344 0.192-1.1549 0-0.4176-0.064-0.8011-0.192-1.1505-0.125-0.3523-0.318-0.635-0.579-0.848-0.262-0.2131-0.591-0.3196-0.989-0.3196-0.4 0-0.733 0.1065-0.997 0.3196-0.261 0.213-0.456 0.4957-0.584 0.848-0.125 0.3494-0.187 0.7329-0.187 1.1505 0 0.4205 0.062 0.8054 0.187 1.1549 0.128 0.3494 0.323 0.6292 0.584 0.8395 0.264 0.2102 0.597 0.3153 0.997 0.3153zm4.669 0.9375v-6.5455h1.232v1.0398h0.068c0.119-0.3523 0.33-0.6292 0.631-0.8309 0.304-0.2046 0.647-0.3069 1.031-0.3069 0.079 0 0.173 0.0029 0.281 0.0086 0.111 0.0056 0.198 0.0127 0.26 0.0213v1.2187c-0.051-0.0142-0.142-0.0298-0.273-0.0469-0.13-0.0198-0.261-0.0298-0.392-0.0298-0.301 0-0.569 0.0639-0.805 0.1918-0.233 0.125-0.418 0.2997-0.554 0.5241-0.136 0.2216-0.205 0.4744-0.205 0.7585v3.9972h-1.274zm11.297-6.5455v1.0228h-3.699v-1.0228h3.699zm-2.685 6.5455v-7.304c0-0.4091 0.089-0.7486 0.268-1.0184 0.179-0.2728 0.417-0.4759 0.712-0.6094 0.295-0.1364 0.617-0.2046 0.963-0.2046 0.256 0 0.475 0.0213 0.656 0.064 0.182 0.0397 0.317 0.0767 0.405 0.1108l-0.298 1.0312c-0.06-0.017-0.136-0.0369-0.23-0.0597-0.094-0.0255-0.208-0.0383-0.341-0.0383-0.31 0-0.531 0.0767-0.665 0.2301-0.131 0.1534-0.196 0.375-0.196 0.6648v7.1335h-1.274zm5.905 0.1449c-0.415 0-0.79-0.0767-1.125-0.2301-0.335-0.1563-0.601-0.3821-0.797-0.6776-0.193-0.2954-0.29-0.6577-0.29-1.0866 0-0.3694 0.071-0.6733 0.213-0.912 0.142-0.2386 0.334-0.4275 0.576-0.5667 0.241-0.1392 0.511-0.2443 0.809-0.3154 0.298-0.071 0.602-0.125 0.912-0.1619 0.392-0.0455 0.71-0.0824 0.955-0.1108 0.244-0.0312 0.422-0.081 0.532-0.1491 0.111-0.0682 0.167-0.179 0.167-0.3324v-0.0299c0-0.3721-0.106-0.6605-0.316-0.865-0.207-0.2046-0.517-0.3068-0.929-0.3068-0.429 0-0.767 0.0951-1.014 0.2855-0.244 0.1875-0.413 0.3963-0.507 0.6264l-1.198-0.2727c0.143-0.3978 0.35-0.7188 0.623-0.9631 0.275-0.2472 0.592-0.4261 0.95-0.5369 0.358-0.1137 0.734-0.1705 1.129-0.1705 0.262 0 0.539 0.0313 0.831 0.0938 0.296 0.0596 0.571 0.1704 0.827 0.3324 0.258 0.1619 0.47 0.3934 0.635 0.6946 0.165 0.2983 0.247 0.686 0.247 1.1633v4.3466h-1.244v-0.8949h-0.052c-0.082 0.1648-0.205 0.3267-0.37 0.4858s-0.377 0.2912-0.635 0.3963c-0.259 0.1051-0.568 0.1577-0.929 0.1577zm0.277-1.0227c0.352 0 0.653-0.0696 0.903-0.2088 0.253-0.1393 0.445-0.3211 0.576-0.5455 0.133-0.2273 0.2-0.4702 0.2-0.7287v-0.8437c-0.046 0.0454-0.134 0.088-0.264 0.1278-0.128 0.0369-0.275 0.0696-0.439 0.098-0.165 0.0256-0.326 0.0497-0.482 0.0725-0.156 0.0198-0.287 0.0369-0.392 0.0511-0.247 0.0312-0.473 0.0838-0.677 0.1577-0.202 0.0738-0.364 0.1804-0.486 0.3196-0.12 0.1363-0.179 0.3181-0.179 0.5454 0 0.3154 0.116 0.554 0.349 0.7159 0.233 0.1591 0.53 0.2387 0.891 0.2387zm4.85 0.8778v-6.5455h1.274v6.5455h-1.274zm0.644-7.5554c-0.222 0-0.412-0.0739-0.572-0.2216-0.156-0.1506-0.234-0.3295-0.234-0.5369 0-0.2102 0.078-0.3892 0.234-0.537 0.16-0.1505 0.35-0.2258 0.572-0.2258 0.221 0 0.41 0.0753 0.566 0.2258 0.159 0.1478 0.239 0.3268 0.239 0.537 0 0.2074-0.08 0.3863-0.239 0.5369-0.156 0.1477-0.345 0.2216-0.566 0.2216zm3.818-1.1719v8.7273h-1.274v-8.7273h1.274zm4.736 8.8594c-0.645 0-1.201-0.1378-1.667-0.4133-0.463-0.2785-0.821-0.6691-1.073-1.1719-0.25-0.5057-0.375-1.098-0.375-1.777 0-0.6705 0.125-1.2614 0.375-1.7727 0.252-0.5114 0.605-0.9106 1.056-1.1975 0.455-0.2869 0.986-0.4304 1.594-0.4304 0.369 0 0.727 0.0611 1.074 0.1833 0.347 0.1221 0.658 0.3139 0.933 0.5752 0.276 0.2614 0.493 0.6009 0.652 1.0185 0.159 0.4148 0.239 0.919 0.239 1.5128v0.4517h-5.203v-0.9546h3.954c0-0.3352-0.068-0.6321-0.204-0.8906-0.137-0.2613-0.328-0.4673-0.576-0.6179-0.244-0.1505-0.531-0.2258-0.86-0.2258-0.358 0-0.671 0.088-0.938 0.2642-0.264 0.1733-0.469 0.4005-0.613 0.6818-0.143 0.2784-0.214 0.581-0.214 0.9077v0.7457c0 0.4375 0.077 0.8097 0.231 1.1165 0.156 0.3068 0.373 0.5412 0.652 0.7031 0.278 0.1591 0.603 0.2386 0.975 0.2386 0.242 0 0.462-0.034 0.661-0.1022 0.199-0.0711 0.371-0.1762 0.516-0.3154 0.144-0.1392 0.255-0.311 0.332-0.5156l1.206 0.2173c-0.097 0.3551-0.27 0.6662-0.52 0.9333-0.247 0.2642-0.558 0.4701-0.933 0.6179-0.372 0.1449-0.797 0.2173-1.274 0.2173zm6.872-0.0043c-0.529 0-1-0.1349-1.415-0.4048-0.412-0.2727-0.736-0.6605-0.972-1.1633-0.232-0.5057-0.349-1.1123-0.349-1.8196 0-0.7074 0.118-1.3125 0.354-1.8154 0.238-0.5028 0.565-0.8878 0.98-1.1548 0.415-0.2671 0.885-0.4006 1.41-0.4006 0.407 0 0.733 0.0682 0.98 0.2046 0.25 0.1335 0.444 0.2897 0.58 0.4687 0.139 0.179 0.247 0.3367 0.324 0.473h0.077v-3.2429h1.274v8.7273h-1.245v-1.0185h-0.106c-0.077 0.1392-0.188 0.2983-0.332 0.4773-0.143 0.179-0.339 0.3352-0.589 0.4688-0.25 0.1335-0.573 0.2002-0.971 0.2002zm0.281-1.0866c0.367 0 0.676-0.0966 0.929-0.2898 0.256-0.196 0.449-0.4673 0.58-0.8139 0.133-0.3466 0.2-0.75 0.2-1.2102 0-0.4546-0.065-0.8523-0.196-1.1932s-0.323-0.6065-0.575-0.7969c-0.253-0.1903-0.566-0.2855-0.938-0.2855-0.383 0-0.703 0.0994-0.959 0.2983-0.255 0.1989-0.449 0.4702-0.579 0.8139-0.128 0.3438-0.192 0.7316-0.192 1.1634 0 0.4375 0.065 0.8309 0.196 1.1804 0.131 0.3494 0.324 0.6264 0.58 0.8309 0.258 0.2017 0.576 0.3026 0.954 0.3026zm11.411-5.5867v1.0228h-3.575v-1.0228h3.575zm-2.616-1.5681h1.274v6.1917c0 0.2472 0.037 0.4333 0.111 0.5583 0.074 0.1221 0.169 0.2059 0.285 0.2514 0.12 0.0426 0.249 0.0639 0.388 0.0639 0.102 0 0.192-0.0071 0.269-0.0213 0.076-0.0142 0.136-0.0256 0.179-0.0341l0.23 1.0526c-0.074 0.0284-0.179 0.0568-0.316 0.0852-0.136 0.0312-0.306 0.0483-0.511 0.0511-0.335 0.0057-0.648-0.054-0.937-0.179-0.29-0.125-0.525-0.3181-0.704-0.5795s-0.268-0.5895-0.268-0.9844v-6.4559zm6.977 8.2457c-0.645 0-1.201-0.1378-1.667-0.4133-0.463-0.2785-0.821-0.6691-1.073-1.1719-0.25-0.5057-0.375-1.098-0.375-1.777 0-0.6705 0.125-1.2614 0.375-1.7727 0.252-0.5114 0.605-0.9106 1.056-1.1975 0.455-0.2869 0.986-0.4304 1.594-0.4304 0.369 0 0.727 0.0611 1.074 0.1833 0.347 0.1221 0.658 0.3139 0.933 0.5752 0.276 0.2614 0.493 0.6009 0.652 1.0185 0.159 0.4148 0.239 0.919 0.239 1.5128v0.4517h-5.203v-0.9546h3.954c0-0.3352-0.068-0.6321-0.204-0.8906-0.137-0.2613-0.328-0.4673-0.576-0.6179-0.244-0.1505-0.531-0.2258-0.86-0.2258-0.358 0-0.671 0.088-0.938 0.2642-0.264 0.1733-0.469 0.4005-0.613 0.6818-0.143 0.2784-0.214 0.581-0.214 0.9077v0.7457c0 0.4375 0.077 0.8097 0.231 1.1165 0.156 0.3068 0.373 0.5412 0.652 0.7031 0.278 0.1591 0.603 0.2386 0.975 0.2386 0.242 0 0.462-0.034 0.661-0.1022 0.199-0.0711 0.371-0.1762 0.516-0.3154 0.144-0.1392 0.255-0.311 0.332-0.5156l1.206 0.2173c-0.097 0.3551-0.27 0.6662-0.52 0.9333-0.247 0.2642-0.558 0.4701-0.933 0.6179-0.372 0.1449-0.797 0.2173-1.274 0.2173zm9.326-5.0795-1.154 0.2045c-0.049-0.1477-0.125-0.2884-0.231-0.4219-0.102-0.1335-0.241-0.2429-0.417-0.3281s-0.396-0.1278-0.661-0.1278c-0.36 0-0.662 0.0809-0.903 0.2429-0.242 0.159-0.362 0.365-0.362 0.6179 0 0.2187 0.081 0.3948 0.243 0.5284 0.162 0.1335 0.423 0.2429 0.784 0.3281l1.039 0.2386c0.603 0.1392 1.052 0.3537 1.347 0.6435 0.296 0.2898 0.443 0.6662 0.443 1.1293 0 0.392-0.113 0.7414-0.341 1.0482-0.224 0.304-0.538 0.5427-0.941 0.716-0.401 0.1733-0.865 0.2599-1.394 0.2599-0.733 0-1.331-0.1562-1.794-0.4687-0.463-0.3154-0.747-0.7628-0.852-1.3424l1.231-0.1875c0.077 0.321 0.235 0.5639 0.473 0.7287 0.239 0.1619 0.55 0.2429 0.934 0.2429 0.417 0 0.751-0.0866 1.001-0.2599 0.25-0.1762 0.375-0.3907 0.375-0.6435 0-0.2045-0.077-0.3764-0.23-0.5156-0.151-0.1392-0.382-0.2443-0.695-0.3154l-1.108-0.2429c-0.61-0.1392-1.062-0.3608-1.355-0.6647-0.29-0.304-0.434-0.689-0.434-1.1549 0-0.3863 0.108-0.7244 0.323-1.0142 0.216-0.2897 0.515-0.5156 0.895-0.6775 0.381-0.1648 0.817-0.2472 1.309-0.2472 0.707 0 1.264 0.1534 1.67 0.4602 0.406 0.304 0.675 0.7117 0.805 1.2231zm4.785-1.5981v1.0228h-3.576v-1.0228h3.576zm-2.617-1.5681h1.274v6.1917c0 0.2472 0.037 0.4333 0.111 0.5583 0.074 0.1221 0.169 0.2059 0.286 0.2514 0.119 0.0426 0.248 0.0639 0.387 0.0639 0.103 0 0.192-0.0071 0.269-0.0213 0.076-0.0142 0.136-0.0256 0.179-0.0341l0.23 1.0526c-0.074 0.0284-0.179 0.0568-0.315 0.0852-0.137 0.0312-0.307 0.0483-0.512 0.0511-0.335 0.0057-0.648-0.054-0.937-0.179-0.29-0.125-0.524-0.3181-0.703-0.5795s-0.269-0.5895-0.269-0.9844v-6.4559zm9.025 3.1662-1.154 0.2045c-0.049-0.1477-0.125-0.2884-0.231-0.4219-0.102-0.1335-0.241-0.2429-0.417-0.3281s-0.396-0.1278-0.661-0.1278c-0.36 0-0.662 0.0809-0.903 0.2429-0.242 0.159-0.362 0.365-0.362 0.6179 0 0.2187 0.081 0.3948 0.243 0.5284 0.162 0.1335 0.423 0.2429 0.784 0.3281l1.039 0.2386c0.603 0.1392 1.052 0.3537 1.347 0.6435s0.443 0.6662 0.443 1.1293c0 0.392-0.113 0.7414-0.341 1.0482-0.224 0.304-0.538 0.5427-0.941 0.716-0.401 0.1733-0.866 0.2599-1.394 0.2599-0.733 0-1.331-0.1562-1.794-0.4687-0.463-0.3154-0.747-0.7628-0.852-1.3424l1.231-0.1875c0.077 0.321 0.235 0.5639 0.473 0.7287 0.239 0.1619 0.55 0.2429 0.934 0.2429 0.417 0 0.751-0.0866 1.001-0.2599 0.25-0.1762 0.375-0.3907 0.375-0.6435 0-0.2045-0.077-0.3764-0.23-0.5156-0.151-0.1392-0.382-0.2443-0.695-0.3154l-1.108-0.2429c-0.61-0.1392-1.062-0.3608-1.355-0.6647-0.29-0.304-0.434-0.689-0.434-1.1549 0-0.3863 0.107-0.7244 0.323-1.0142 0.216-0.2897 0.515-0.5156 0.895-0.6775 0.381-0.1648 0.817-0.2472 1.309-0.2472 0.707 0 1.264 0.1534 1.67 0.4602 0.406 0.304 0.675 0.7117 0.805 1.2231z" fill="#22222A"/>
<path d="m244 40.5c1.933 0 3.5-1.567 3.5-3.5s-1.567-3.5-3.5-3.5-3.5 1.567-3.5 3.5 1.567 3.5 3.5 3.5z" fill="#fff" stroke="#0278D5"/>
<path d="m334 40.5c1.933 0 3.5-1.567 3.5-3.5s-1.567-3.5-3.5-3.5-3.5 1.567-3.5 3.5 1.567 3.5 3.5 3.5z" fill="#fff" stroke="#0278D5"/>
<path d="m299.43 28.061c1.604 0.9082 2.589 2.615 2.573 4.4582l-0.077 8.9346c-0.016 1.7969-0.981 3.4516-2.537 4.3499l-8.002 4.6187c-1.556 0.8983-3.472 0.9062-5.035 0.0208l-7.776-4.4024c-1.604-0.9082-2.589-2.6149-2.573-4.4581l0.077-8.9347c0.016-1.7969 0.981-3.4515 2.537-4.3498l8.002-4.6187c1.556-0.8984 3.472-0.9063 5.035-0.0209l7.776 4.4024zm-2.829 6.9372c-0.421 1.5856-2.03 2.5375-3.602 2.1409l-7.489-2.0259c-1.233-0.3339-2.517-0.1628-3.62 0.48s-1.892 1.6795-2.222 2.9246c-0.33 1.2454-0.161 2.5454 0.479 3.6646s1.671 1.9171 2.905 2.2508c1.233 0.334 2.517 0.1629 3.62-0.4798 1.103-0.6429 1.891-1.6796 2.222-2.9247l0.261-1.0464c0.033-0.1321-0.046-0.2662-0.177-0.3018l-1.259-0.3405c-0.135-0.0366-0.274 0.045-0.307 0.1809l-0.256 1.0238c-0.426 1.6026-2.064 2.5569-3.651 2.1278-1.582-0.4285-2.523-2.0732-2.1-3.6705 0.421-1.5857 2.03-2.5383 3.602-2.1417l7.489 2.0266c1.233 0.3339 2.517 0.1629 3.62-0.48 1.103-0.6427 1.892-1.6795 2.222-2.9246 0.33-1.2453 0.161-2.5454-0.479-3.6645-0.64-1.1192-1.671-1.9171-2.905-2.2509-1.233-0.3339-2.517-0.1629-3.62 0.4799-1.103 0.6429-1.891 1.6796-2.222 2.9247l-0.247 0.8272c-0.04 0.1347 0.039 0.2761 0.175 0.3128l1.258 0.3405c0.13 0.0354 0.266-0.0398 0.304-0.1697l0.248-0.8269c0.426-1.6026 2.064-2.5568 3.651-2.1277 1.582 0.4284 2.523 2.0731 2.1 3.6705z" clip-rule="evenodd" fill="#fff" fill-rule="evenodd"/>
<defs>
<filter id="e" x="385" y="21" width="32" height="32" color-interpolation-filters="sRGB" filterUnits="userSpaceOnUse">
<feFlood flood-opacity="0" result="BackgroundImageFix"/>
<feColorMatrix in="SourceAlpha" result="hardAlpha" values="0 0 0 0 0 0 0 0 0 0 0 0 0 0 0 0 0 0 127 0"/>
<feOffset dy="0.5"/>
<feGaussianBlur stdDeviation="1"/>
<feColorMatrix values="0 0 0 0 0.376471 0 0 0 0 0.380392 0 0 0 0 0.439216 0 0 0 0.16 0"/>
<feBlend in2="BackgroundImageFix" result="effect1_dropShadow_2131_127310"/>
<feColorMatrix in="SourceAlpha" result="hardAlpha" values="0 0 0 0 0 0 0 0 0 0 0 0 0 0 0 0 0 0 127 0"/>
<feOffset/>
<feGaussianBlur stdDeviation="0.5"/>
<feColorMatrix values="0 0 0 0 0.156863 0 0 0 0 0.160784 0 0 0 0 0.239216 0 0 0 0.08 0"/>
<feBlend in2="effect1_dropShadow_2131_127310" result="effect2_dropShadow_2131_127310"/>
<feBlend in="SourceGraphic" in2="effect2_dropShadow_2131_127310" result="shape"/>
</filter>
<filter id="d" x="0" y="21.5" width="32" height="32" color-interpolation-filters="sRGB" filterUnits="userSpaceOnUse">
<feFlood flood-opacity="0" result="BackgroundImageFix"/>
<feColorMatrix in="SourceAlpha" result="hardAlpha" values="0 0 0 0 0 0 0 0 0 0 0 0 0 0 0 0 0 0 127 0"/>
<feOffset dy="0.5"/>
<feGaussianBlur stdDeviation="1"/>
<feColorMatrix values="0 0 0 0 0.376471 0 0 0 0 0.380392 0 0 0 0 0.439216 0 0 0 0.16 0"/>
<feBlend in2="BackgroundImageFix" result="effect1_dropShadow_2131_127310"/>
<feColorMatrix in="SourceAlpha" result="hardAlpha" values="0 0 0 0 0 0 0 0 0 0 0 0 0 0 0 0 0 0 127 0"/>
<feOffset/>
<feGaussianBlur stdDeviation="0.5"/>
<feColorMatrix values="0 0 0 0 0.156863 0 0 0 0 0.160784 0 0 0 0 0.239216 0 0 0 0.08 0"/>
<feBlend in2="effect1_dropShadow_2131_127310" result="effect2_dropShadow_2131_127310"/>
<feBlend in="SourceGraphic" in2="effect2_dropShadow_2131_127310" result="shape"/>
</filter>
<filter id="c" x="66" y="14" width="106" height="56" color-interpolation-filters="sRGB" filterUnits="userSpaceOnUse">
<feFlood flood-opacity="0" result="BackgroundImageFix"/>
<feColorMatrix in="SourceAlpha" result="hardAlpha" values="0 0 0 0 0 0 0 0 0 0 0 0 0 0 0 0 0 0 127 0"/>
<feOffset dy="4"/>
<feGaussianBlur stdDeviation="4"/>
<feColorMatrix values="0 0 0 0 0.376471 0 0 0 0 0.380392 0 0 0 0 0.439216 0 0 0 0.16 0"/>
<feBlend in2="BackgroundImageFix" result="effect1_dropShadow_2131_127310"/>
<feColorMatrix in="SourceAlpha" result="hardAlpha" values="0 0 0 0 0 0 0 0 0 0 0 0 0 0 0 0 0 0 127 0"/>
<feOffset/>
<feGaussianBlur stdDeviation="1"/>
<feColorMatrix values="0 0 0 0 0.156863 0 0 0 0 0.160784 0 0 0 0 0.239216 0 0 0 0.04 0"/>
<feBlend in2="effect1_dropShadow_2131_127310" result="effect2_dropShadow_2131_127310"/>
<feBlend in="SourceGraphic" in2="effect2_dropShadow_2131_127310" result="shape"/>
</filter>
<filter id="b" x="236" y="14" width="106" height="56" color-interpolation-filters="sRGB" filterUnits="userSpaceOnUse">
<feFlood flood-opacity="0" result="BackgroundImageFix"/>
<feColorMatrix in="SourceAlpha" result="hardAlpha" values="0 0 0 0 0 0 0 0 0 0 0 0 0 0 0 0 0 0 127 0"/>
<feOffset dy="4"/>
<feGaussianBlur stdDeviation="4"/>
<feColorMatrix values="0 0 0 0 0.376471 0 0 0 0 0.380392 0 0 0 0 0.439216 0 0 0 0.16 0"/>
<feBlend in2="BackgroundImageFix" result="effect1_dropShadow_2131_127310"/>
<feColorMatrix in="SourceAlpha" result="hardAlpha" values="0 0 0 0 0 0 0 0 0 0 0 0 0 0 0 0 0 0 127 0"/>
<feOffset/>
<feGaussianBlur stdDeviation="1"/>
<feColorMatrix values="0 0 0 0 0.156863 0 0 0 0 0.160784 0 0 0 0 0.239216 0 0 0 0.04 0"/>
<feBlend in2="effect1_dropShadow_2131_127310" result="effect2_dropShadow_2131_127310"/>
<feBlend in="SourceGraphic" in2="effect2_dropShadow_2131_127310" result="shape"/>
</filter>
<linearGradient id="a" x1="109.77" x2="124.5" y1="23" y2="51" gradientUnits="userSpaceOnUse">
<stop stop-color="#62F91F" offset="0"/>
<stop stop-color="#45BD35" offset="1"/>
</linearGradient>
</defs>
</svg>
