<svg width="301" height="20" viewBox="0 0 301 20" fill="none" xmlns="http://www.w3.org/2000/svg">
<path d="M12.47 9.25H11V6.9625C11 5.3275 9.6575 4 8 4C6.3425 4 5 5.3275 5 6.9625V9.25H3.47C3.0575 9.25 2.75 9.5125 2.75 9.925V15.1075C2.75 15.5125 3.0575 16 3.47 16H12.47C12.8825 16 13.25 15.5125 13.25 15.1075V9.925C13.25 9.5125 12.8825 9.25 12.47 9.25ZM6.5 9.25V6.9625C6.5 6.145 7.175 5.485 8 5.485C8.825 5.485 9.5 6.145 9.5 6.9625V9.25H6.5Z" fill="black"/>
<path d="M25.8651 8.02983C25.7827 7.77131 25.6719 7.53977 25.5327 7.33523C25.3963 7.12784 25.233 6.9517 25.0426 6.80682C24.8523 6.65909 24.6349 6.54687 24.3906 6.47017C24.1491 6.39347 23.8835 6.35511 23.5938 6.35511C23.1023 6.35511 22.6591 6.48153 22.2642 6.73438C21.8693 6.98722 21.5568 7.35795 21.3267 7.84659C21.0994 8.33239 20.9858 8.92756 20.9858 9.6321C20.9858 10.3395 21.1009 10.9375 21.331 11.4261C21.5611 11.9148 21.8764 12.2855 22.277 12.5384C22.6776 12.7912 23.1335 12.9176 23.6449 12.9176C24.1193 12.9176 24.5327 12.821 24.8849 12.6278C25.2401 12.4347 25.5142 12.1619 25.7074 11.8097C25.9034 11.4545 26.0014 11.0369 26.0014 10.5568L26.3423 10.6207H23.8452V9.53409H27.2756V10.527C27.2756 11.2599 27.1193 11.8963 26.8068 12.4361C26.4972 12.973 26.0682 13.3878 25.5199 13.6804C24.9744 13.973 24.3494 14.1193 23.6449 14.1193C22.8551 14.1193 22.1619 13.9375 21.5653 13.5739C20.9716 13.2102 20.5085 12.6946 20.1761 12.027C19.8438 11.3565 19.6776 10.5611 19.6776 9.64062C19.6776 8.9446 19.7741 8.3196 19.9673 7.76562C20.1605 7.21165 20.4318 6.74148 20.7812 6.35511C21.1335 5.96591 21.5469 5.66903 22.0213 5.46449C22.4986 5.2571 23.0199 5.15341 23.5852 5.15341C24.0568 5.15341 24.4957 5.22301 24.902 5.36222C25.3111 5.50142 25.6747 5.69886 25.9929 5.95455C26.3139 6.21023 26.5795 6.5142 26.7898 6.86648C27 7.21591 27.142 7.60369 27.2159 8.02983H25.8651ZM32.9911 11.2855V7.45455H34.2695V14H33.0167V12.8665H32.9485C32.7979 13.2159 32.5565 13.5071 32.2241 13.7401C31.8945 13.9702 31.484 14.0852 30.9925 14.0852C30.5721 14.0852 30.1999 13.9929 29.8761 13.8082C29.555 13.6207 29.3022 13.3438 29.1175 12.9773C28.9357 12.6108 28.8448 12.1577 28.8448 11.6179V7.45455H30.119V11.4645C30.119 11.9105 30.2425 12.2656 30.4897 12.5298C30.7369 12.794 31.0579 12.9261 31.4528 12.9261C31.6914 12.9261 31.9286 12.8665 32.1644 12.7472C32.4031 12.6278 32.6005 12.4474 32.7567 12.206C32.9158 11.9645 32.994 11.6577 32.9911 11.2855ZM37.8864 14.1449C37.4716 14.1449 37.0966 14.0682 36.7614 13.9148C36.4261 13.7585 36.1605 13.5327 35.9645 13.2372C35.7713 12.9418 35.6747 12.5795 35.6747 12.1506C35.6747 11.7812 35.7457 11.4773 35.8878 11.2386C36.0298 11 36.2216 10.8111 36.4631 10.6719C36.7045 10.5327 36.9744 10.4276 37.2727 10.3565C37.571 10.2855 37.875 10.2315 38.1847 10.1946C38.5767 10.1491 38.8949 10.1122 39.1392 10.0838C39.3835 10.0526 39.5611 10.0028 39.6719 9.93466C39.7827 9.86648 39.8381 9.75568 39.8381 9.60227V9.57244C39.8381 9.20028 39.733 8.91193 39.5227 8.70739C39.3153 8.50284 39.0057 8.40057 38.5938 8.40057C38.1648 8.40057 37.8267 8.49574 37.5795 8.68608C37.3352 8.87358 37.1662 9.08239 37.0724 9.3125L35.875 9.03977C36.017 8.64205 36.2244 8.32102 36.4972 8.0767C36.7727 7.82955 37.0895 7.65057 37.4474 7.53977C37.8054 7.42614 38.1818 7.36932 38.5767 7.36932C38.8381 7.36932 39.1151 7.40057 39.4077 7.46307C39.7031 7.52273 39.9787 7.63352 40.2344 7.79545C40.4929 7.95739 40.7045 8.18892 40.8693 8.49006C41.0341 8.78835 41.1165 9.17614 41.1165 9.65341V14H39.8722V13.1051H39.821C39.7386 13.2699 39.6151 13.4318 39.4503 13.5909C39.2855 13.75 39.0739 13.8821 38.8153 13.9872C38.5568 14.0923 38.2472 14.1449 37.8864 14.1449ZM38.1634 13.1222C38.5156 13.1222 38.8168 13.0526 39.0668 12.9134C39.3196 12.7741 39.5114 12.5923 39.642 12.3679C39.7756 12.1406 39.8423 11.8977 39.8423 11.6392V10.7955C39.7969 10.8409 39.7088 10.8835 39.5781 10.9233C39.4503 10.9602 39.304 10.9929 39.1392 11.0213C38.9744 11.0469 38.8139 11.071 38.6577 11.0938C38.5014 11.1136 38.3707 11.1307 38.2656 11.1449C38.0185 11.1761 37.7926 11.2287 37.5881 11.3026C37.3864 11.3764 37.2244 11.483 37.1023 11.6222C36.983 11.7585 36.9233 11.9403 36.9233 12.1676C36.9233 12.483 37.0398 12.7216 37.2727 12.8835C37.5057 13.0426 37.8026 13.1222 38.1634 13.1222ZM42.8136 14V7.45455H44.0451V8.49432H44.1133C44.2326 8.14205 44.4428 7.86506 44.744 7.66335C45.0479 7.45881 45.3917 7.35653 45.7752 7.35653C45.8548 7.35653 45.9485 7.35937 46.0565 7.36506C46.1673 7.37074 46.2539 7.37784 46.3164 7.38636V8.60511C46.2653 8.59091 46.1744 8.57528 46.0437 8.55824C45.913 8.53835 45.7823 8.52841 45.6516 8.52841C45.3505 8.52841 45.082 8.59233 44.8462 8.72017C44.6133 8.84517 44.4286 9.01989 44.2923 9.24432C44.1559 9.46591 44.0877 9.71875 44.0877 10.0028V14H42.8136ZM49.2653 14.1449C48.8505 14.1449 48.4755 14.0682 48.1403 13.9148C47.805 13.7585 47.5394 13.5327 47.3434 13.2372C47.1502 12.9418 47.0536 12.5795 47.0536 12.1506C47.0536 11.7812 47.1246 11.4773 47.2667 11.2386C47.4087 11 47.6005 10.8111 47.842 10.6719C48.0835 10.5327 48.3533 10.4276 48.6516 10.3565C48.9499 10.2855 49.2539 10.2315 49.5636 10.1946C49.9556 10.1491 50.2738 10.1122 50.5181 10.0838C50.7624 10.0526 50.94 10.0028 51.0508 9.93466C51.1616 9.86648 51.217 9.75568 51.217 9.60227V9.57244C51.217 9.20028 51.1119 8.91193 50.9016 8.70739C50.6942 8.50284 50.3846 8.40057 49.9727 8.40057C49.5437 8.40057 49.2056 8.49574 48.9585 8.68608C48.7141 8.87358 48.5451 9.08239 48.4513 9.3125L47.2539 9.03977C47.396 8.64205 47.6033 8.32102 47.8761 8.0767C48.1516 7.82955 48.4684 7.65057 48.8263 7.53977C49.1843 7.42614 49.5607 7.36932 49.9556 7.36932C50.217 7.36932 50.494 7.40057 50.7866 7.46307C51.082 7.52273 51.3576 7.63352 51.6133 7.79545C51.8718 7.95739 52.0835 8.18892 52.2482 8.49006C52.413 8.78835 52.4954 9.17614 52.4954 9.65341V14H51.2511V13.1051H51.1999C51.1175 13.2699 50.994 13.4318 50.8292 13.5909C50.6644 13.75 50.4528 13.8821 50.1942 13.9872C49.9357 14.0923 49.6261 14.1449 49.2653 14.1449ZM49.5423 13.1222C49.8945 13.1222 50.1957 13.0526 50.4457 12.9134C50.6985 12.7741 50.8903 12.5923 51.021 12.3679C51.1545 12.1406 51.2212 11.8977 51.2212 11.6392V10.7955C51.1758 10.8409 51.0877 10.8835 50.957 10.9233C50.8292 10.9602 50.6829 10.9929 50.5181 11.0213C50.3533 11.0469 50.1928 11.071 50.0366 11.0938C49.8803 11.1136 49.7496 11.1307 49.6445 11.1449C49.3974 11.1761 49.1715 11.2287 48.967 11.3026C48.7653 11.3764 48.6033 11.483 48.4812 11.6222C48.3619 11.7585 48.3022 11.9403 48.3022 12.1676C48.3022 12.483 48.4187 12.7216 48.6516 12.8835C48.8846 13.0426 49.1815 13.1222 49.5423 13.1222ZM55.4666 10.1136V14H54.1925V7.45455H55.4155V8.51989H55.4964C55.647 8.1733 55.8828 7.89489 56.2038 7.68466C56.5277 7.47443 56.9354 7.36932 57.4268 7.36932C57.8729 7.36932 58.2635 7.46307 58.5987 7.65057C58.9339 7.83523 59.1939 8.1108 59.3786 8.47727C59.5632 8.84375 59.6555 9.29687 59.6555 9.83665V14H58.3814V9.99006C58.3814 9.51562 58.2578 9.14489 58.0107 8.87784C57.7635 8.60795 57.424 8.47301 56.9922 8.47301C56.6967 8.47301 56.4339 8.53693 56.2038 8.66477C55.9766 8.79261 55.7962 8.98011 55.6626 9.22727C55.532 9.47159 55.4666 9.76705 55.4666 10.1136ZM64.4197 7.45455V8.47727H60.8445V7.45455H64.4197ZM61.8033 5.88636H63.0774V12.0781C63.0774 12.3253 63.1143 12.5114 63.1882 12.6364C63.2621 12.7585 63.3572 12.8423 63.4737 12.8878C63.593 12.9304 63.7223 12.9517 63.8615 12.9517C63.9638 12.9517 64.0533 12.9446 64.13 12.9304C64.2067 12.9162 64.2663 12.9048 64.3089 12.8963L64.5391 13.9489C64.4652 13.9773 64.3601 14.0057 64.2237 14.0341C64.0874 14.0653 63.9169 14.0824 63.7124 14.0852C63.3771 14.0909 63.0646 14.0312 62.7749 13.9062C62.4851 13.7812 62.2507 13.5881 62.0717 13.3267C61.8928 13.0653 61.8033 12.7372 61.8033 12.3423V5.88636ZM68.5799 14.1321C67.935 14.1321 67.3796 13.9943 66.9137 13.7188C66.4506 13.4403 66.0927 13.0497 65.8398 12.5469C65.5898 12.0412 65.4648 11.4489 65.4648 10.7699C65.4648 10.0994 65.5898 9.50852 65.8398 8.99716C66.0927 8.4858 66.445 8.08665 66.8967 7.79972C67.3512 7.51278 67.8825 7.36932 68.4904 7.36932C68.8597 7.36932 69.2177 7.4304 69.5643 7.55256C69.9109 7.67472 70.2219 7.86648 70.4975 8.12784C70.7731 8.3892 70.9904 8.72869 71.1495 9.14631C71.3086 9.56108 71.3881 10.0653 71.3881 10.6591V11.1108H66.185V10.1562H70.1396C70.1396 9.82102 70.0714 9.52415 69.935 9.26562C69.7987 9.00426 69.6069 8.7983 69.3597 8.64773C69.1154 8.49716 68.8285 8.42188 68.4989 8.42188C68.141 8.42188 67.8285 8.50994 67.5614 8.68608C67.2972 8.85937 67.0927 9.08665 66.9478 9.3679C66.8058 9.64631 66.7347 9.94886 66.7347 10.2756V11.0213C66.7347 11.4588 66.8114 11.831 66.9648 12.1378C67.1211 12.4446 67.3384 12.679 67.6168 12.8409C67.8952 13 68.2205 13.0795 68.5927 13.0795C68.8342 13.0795 69.0543 13.0455 69.2532 12.9773C69.4521 12.9062 69.6239 12.8011 69.7688 12.6619C69.9137 12.5227 70.0245 12.3509 70.1012 12.1463L71.3072 12.3636C71.2106 12.7187 71.0373 13.0298 70.7873 13.2969C70.5401 13.5611 70.229 13.767 69.854 13.9148C69.4819 14.0597 69.0572 14.1321 68.5799 14.1321ZM75.6229 14.1321C74.978 14.1321 74.4226 13.9943 73.9567 13.7188C73.4936 13.4403 73.1357 13.0497 72.8828 12.5469C72.6328 12.0412 72.5078 11.4489 72.5078 10.7699C72.5078 10.0994 72.6328 9.50852 72.8828 8.99716C73.1357 8.4858 73.4879 8.08665 73.9396 7.79972C74.3942 7.51278 74.9254 7.36932 75.5334 7.36932C75.9027 7.36932 76.2607 7.4304 76.6072 7.55256C76.9538 7.67472 77.2649 7.86648 77.5405 8.12784C77.8161 8.3892 78.0334 8.72869 78.1925 9.14631C78.3516 9.56108 78.4311 10.0653 78.4311 10.6591V11.1108H73.228V10.1562H77.1825C77.1825 9.82102 77.1143 9.52415 76.978 9.26562C76.8416 9.00426 76.6499 8.7983 76.4027 8.64773C76.1584 8.49716 75.8714 8.42188 75.5419 8.42188C75.1839 8.42188 74.8714 8.50994 74.6044 8.68608C74.3402 8.85937 74.1357 9.08665 73.9908 9.3679C73.8487 9.64631 73.7777 9.94886 73.7777 10.2756V11.0213C73.7777 11.4588 73.8544 11.831 74.0078 12.1378C74.1641 12.4446 74.3814 12.679 74.6598 12.8409C74.9382 13 75.2635 13.0795 75.6357 13.0795C75.8771 13.0795 76.0973 13.0455 76.2962 12.9773C76.495 12.9062 76.6669 12.8011 76.8118 12.6619C76.9567 12.5227 77.0675 12.3509 77.1442 12.1463L78.3501 12.3636C78.2536 12.7187 78.0803 13.0298 77.8303 13.2969C77.5831 13.5611 77.272 13.767 76.897 13.9148C76.5249 14.0597 76.1001 14.1321 75.6229 14.1321ZM82.2951 14.1278C81.7667 14.1278 81.2951 13.9929 80.8803 13.723C80.4684 13.4503 80.1445 13.0625 79.9087 12.5597C79.6758 12.054 79.5593 11.4474 79.5593 10.7401C79.5593 10.0327 79.6772 9.42756 79.913 8.92472C80.1516 8.42187 80.4783 8.03693 80.8931 7.76989C81.3079 7.50284 81.7781 7.36932 82.3036 7.36932C82.7099 7.36932 83.0366 7.4375 83.2837 7.57386C83.5337 7.70739 83.7269 7.86364 83.8633 8.04261C84.0025 8.22159 84.1104 8.37926 84.1871 8.51562H84.2638V5.27273H85.538V14H84.2937V12.9815H84.1871C84.1104 13.1207 83.9996 13.2798 83.8548 13.4588C83.7127 13.6378 83.5167 13.794 83.2667 13.9276C83.0167 14.0611 82.6928 14.1278 82.2951 14.1278ZM82.5763 13.0412C82.9428 13.0412 83.2525 12.9446 83.5053 12.7514C83.761 12.5554 83.9542 12.2841 84.0849 11.9375C84.2184 11.5909 84.2852 11.1875 84.2852 10.7273C84.2852 10.2727 84.2198 9.875 84.0891 9.53409C83.9585 9.19318 83.7667 8.92756 83.5138 8.73722C83.261 8.54687 82.9485 8.4517 82.5763 8.4517C82.1928 8.4517 81.8732 8.55114 81.6175 8.75C81.3619 8.94886 81.1687 9.22017 81.038 9.56392C80.9102 9.90767 80.8462 10.2955 80.8462 10.7273C80.8462 11.1648 80.9116 11.5582 81.0423 11.9077C81.1729 12.2571 81.3661 12.5341 81.6218 12.7386C81.8803 12.9403 82.1985 13.0412 82.5763 13.0412ZM95.4425 9.18466L94.0362 9.33807C93.9964 9.19602 93.9268 9.0625 93.8274 8.9375C93.7308 8.8125 93.6001 8.71165 93.4354 8.63494C93.2706 8.55824 93.0689 8.51989 92.8303 8.51989C92.5092 8.51989 92.2393 8.58949 92.0206 8.72869C91.8047 8.8679 91.6982 9.0483 91.701 9.26989C91.6982 9.46023 91.7678 9.61506 91.9098 9.73438C92.0547 9.85369 92.2933 9.9517 92.6257 10.0284L93.7422 10.267C94.3615 10.4006 94.8217 10.6122 95.1229 10.902C95.4268 11.1918 95.5803 11.571 95.5831 12.0398C95.5803 12.4517 95.4595 12.8153 95.2209 13.1307C94.9851 13.4432 94.657 13.6875 94.2365 13.8636C93.8161 14.0398 93.3331 14.1278 92.7876 14.1278C91.9865 14.1278 91.3416 13.9602 90.853 13.625C90.3643 13.2869 90.0732 12.8168 89.9794 12.2145L91.4837 12.0696C91.5518 12.3651 91.6967 12.5881 91.9183 12.7386C92.1399 12.8892 92.4283 12.9645 92.7834 12.9645C93.1499 12.9645 93.4439 12.8892 93.6655 12.7386C93.8899 12.5881 94.0021 12.402 94.0021 12.1804C94.0021 11.9929 93.9297 11.8381 93.7848 11.7159C93.6428 11.5937 93.4212 11.5 93.12 11.4347L92.0036 11.2003C91.3757 11.0696 90.9112 10.8494 90.6101 10.5398C90.3089 10.2273 90.1598 9.83239 90.1626 9.35511C90.1598 8.9517 90.2692 8.60227 90.4908 8.30682C90.7152 8.00852 91.0263 7.77841 91.424 7.61648C91.8246 7.4517 92.2862 7.36932 92.8089 7.36932C93.576 7.36932 94.1797 7.53267 94.62 7.85938C95.0632 8.18608 95.3374 8.62784 95.4425 9.18466ZM98.7386 14.1321C98.3239 14.1321 97.9503 14.0582 97.6179 13.9105C97.2884 13.7599 97.027 13.5384 96.8338 13.2457C96.6435 12.9531 96.5483 12.5923 96.5483 12.1634C96.5483 11.794 96.6165 11.4886 96.7528 11.2472C96.8892 11.0057 97.0753 10.8125 97.3111 10.6676C97.5469 10.5227 97.8125 10.4134 98.108 10.3395C98.4063 10.2628 98.7145 10.2074 99.0327 10.1733C99.4162 10.1335 99.7273 10.098 99.9659 10.0668C100.205 10.0327 100.378 9.98153 100.486 9.91335C100.597 9.84233 100.652 9.73295 100.652 9.58523V9.55966C100.652 9.23864 100.557 8.99006 100.366 8.81392C100.176 8.63778 99.902 8.54972 99.544 8.54972C99.1662 8.54972 98.8665 8.6321 98.6449 8.79688C98.4261 8.96165 98.2784 9.15625 98.2017 9.38068L96.7614 9.17614C96.875 8.77841 97.0625 8.44602 97.3239 8.17898C97.5852 7.90909 97.9048 7.70739 98.2827 7.57386C98.6605 7.4375 99.0781 7.36932 99.5355 7.36932C99.8509 7.36932 100.165 7.40625 100.477 7.48011C100.79 7.55398 101.075 7.67614 101.334 7.84659C101.592 8.0142 101.8 8.2429 101.956 8.53267C102.115 8.82244 102.195 9.18466 102.195 9.61932V14H100.712V13.1009H100.661C100.567 13.2827 100.435 13.4531 100.264 13.6122C100.097 13.7685 99.8849 13.8949 99.6293 13.9915C99.3764 14.0852 99.0795 14.1321 98.7386 14.1321ZM99.1392 12.9986C99.4489 12.9986 99.7173 12.9375 99.9446 12.8153C100.172 12.6903 100.347 12.5256 100.469 12.321C100.594 12.1165 100.656 11.8935 100.656 11.652V10.8807C100.608 10.9205 100.526 10.9574 100.409 10.9915C100.295 11.0256 100.168 11.0554 100.026 11.081C99.8835 11.1065 99.7429 11.1293 99.6037 11.1491C99.4645 11.169 99.3438 11.1861 99.2415 11.2003C99.0114 11.2315 98.8054 11.2827 98.6236 11.3537C98.4418 11.4247 98.2983 11.5241 98.1932 11.652C98.0881 11.777 98.0355 11.9389 98.0355 12.1378C98.0355 12.4219 98.1392 12.6364 98.3466 12.7812C98.554 12.9261 98.8182 12.9986 99.1392 12.9986ZM107.061 7.45455V8.64773H103.192V7.45455H107.061ZM104.159 14V6.83665C104.159 6.39631 104.25 6.02983 104.432 5.73722C104.616 5.4446 104.864 5.22585 105.173 5.08097C105.483 4.93608 105.827 4.86364 106.205 4.86364C106.472 4.86364 106.709 4.88494 106.916 4.92756C107.124 4.97017 107.277 5.00852 107.376 5.04261L107.07 6.2358C107.004 6.21591 106.922 6.19602 106.822 6.17614C106.723 6.15341 106.612 6.14205 106.49 6.14205C106.203 6.14205 106 6.21165 105.881 6.35085C105.764 6.48722 105.706 6.68324 105.706 6.93892V14H104.159ZM110.921 14.1278C110.265 14.1278 109.698 13.9915 109.221 13.7188C108.746 13.4432 108.381 13.054 108.125 12.5511C107.87 12.0455 107.742 11.4503 107.742 10.7656C107.742 10.0923 107.87 9.50142 108.125 8.9929C108.384 8.48153 108.745 8.08381 109.208 7.79972C109.671 7.51278 110.215 7.36932 110.84 7.36932C111.243 7.36932 111.624 7.43466 111.982 7.56534C112.343 7.69318 112.661 7.89205 112.936 8.16193C113.215 8.43182 113.434 8.77557 113.593 9.19318C113.752 9.60795 113.831 10.1023 113.831 10.6761V11.1491H108.466V10.1094H112.353C112.35 9.81392 112.286 9.55114 112.161 9.32102C112.036 9.08807 111.861 8.90483 111.637 8.77131C111.415 8.63778 111.157 8.57102 110.861 8.57102C110.546 8.57102 110.269 8.64773 110.03 8.80114C109.792 8.9517 109.605 9.15057 109.472 9.39773C109.341 9.64205 109.275 9.91051 109.272 10.2031V11.1108C109.272 11.4915 109.341 11.8182 109.48 12.0909C109.62 12.3608 109.814 12.5682 110.064 12.7131C110.314 12.8551 110.607 12.9261 110.942 12.9261C111.167 12.9261 111.37 12.8949 111.551 12.8324C111.733 12.767 111.891 12.6719 112.025 12.5469C112.158 12.4219 112.259 12.267 112.327 12.0824L113.767 12.2443C113.676 12.625 113.503 12.9574 113.248 13.2415C112.995 13.5227 112.671 13.7415 112.276 13.8977C111.881 14.0511 111.429 14.1278 110.921 14.1278ZM120.721 14.1278C120.124 14.1278 119.612 14.0199 119.183 13.804C118.754 13.5881 118.423 13.2969 118.19 12.9304C117.96 12.5611 117.844 12.1449 117.844 11.6818C117.844 11.3324 117.915 11.0227 118.058 10.7528C118.202 10.483 118.401 10.233 118.654 10.0028C118.91 9.77273 119.205 9.54403 119.54 9.31676L121.087 8.2642C121.315 8.11648 121.487 7.96023 121.603 7.79545C121.722 7.63068 121.782 7.4375 121.782 7.21591C121.782 7.02841 121.702 6.85085 121.543 6.68324C121.387 6.51562 121.171 6.43182 120.896 6.43182C120.711 6.43182 120.548 6.47585 120.406 6.56392C120.266 6.64915 120.157 6.76136 120.077 6.90057C120.001 7.03977 119.962 7.1875 119.962 7.34375C119.962 7.53409 120.015 7.72727 120.12 7.9233C120.228 8.11932 120.367 8.32244 120.538 8.53267C120.711 8.7429 120.896 8.96591 121.092 9.2017L125.187 14H123.516L120.116 10.1051C119.863 9.80966 119.619 9.51847 119.383 9.23153C119.15 8.9446 118.958 8.64631 118.808 8.33665C118.66 8.02415 118.586 7.68608 118.586 7.32244C118.586 6.91051 118.681 6.54261 118.871 6.21875C119.062 5.89205 119.327 5.63494 119.668 5.44744C120.012 5.25994 120.414 5.16619 120.874 5.16619C121.335 5.16619 121.729 5.2571 122.059 5.43892C122.388 5.62074 122.643 5.86222 122.822 6.16335C123.001 6.46449 123.09 6.79261 123.09 7.14773C123.09 7.55966 122.988 7.92898 122.783 8.25568C122.579 8.57955 122.295 8.87358 121.931 9.13778L120.167 10.429C119.877 10.6392 119.67 10.8523 119.545 11.0682C119.42 11.2812 119.357 11.4631 119.357 11.6136C119.357 11.8437 119.415 12.0526 119.532 12.2401C119.648 12.4276 119.812 12.5781 120.022 12.6918C120.235 12.8026 120.484 12.858 120.768 12.858C121.08 12.858 121.388 12.7884 121.692 12.6491C121.996 12.5071 122.273 12.3054 122.523 12.044C122.773 11.7827 122.972 11.4702 123.12 11.1065C123.268 10.7401 123.342 10.3338 123.342 9.88778H124.667C124.667 10.4389 124.606 10.919 124.484 11.3281C124.362 11.7344 124.204 12.0781 124.011 12.3594C123.817 12.6378 123.613 12.8608 123.397 13.0284C123.329 13.0767 123.263 13.125 123.201 13.1733C123.138 13.2216 123.073 13.2699 123.005 13.3182C122.698 13.5966 122.339 13.8011 121.927 13.9318C121.518 14.0625 121.116 14.1278 120.721 14.1278ZM134.22 9.18466L132.814 9.33807C132.774 9.19602 132.704 9.0625 132.605 8.9375C132.508 8.8125 132.377 8.71165 132.213 8.63494C132.048 8.55824 131.846 8.51989 131.608 8.51989C131.287 8.51989 131.017 8.58949 130.798 8.72869C130.582 8.8679 130.475 9.0483 130.478 9.26989C130.475 9.46023 130.545 9.61506 130.687 9.73438C130.832 9.85369 131.071 9.9517 131.403 10.0284L132.52 10.267C133.139 10.4006 133.599 10.6122 133.9 10.902C134.204 11.1918 134.358 11.571 134.36 12.0398C134.358 12.4517 134.237 12.8153 133.998 13.1307C133.762 13.4432 133.434 13.6875 133.014 13.8636C132.593 14.0398 132.11 14.1278 131.565 14.1278C130.764 14.1278 130.119 13.9602 129.63 13.625C129.142 13.2869 128.85 12.8168 128.757 12.2145L130.261 12.0696C130.329 12.3651 130.474 12.5881 130.696 12.7386C130.917 12.8892 131.206 12.9645 131.561 12.9645C131.927 12.9645 132.221 12.8892 132.443 12.7386C132.667 12.5881 132.779 12.402 132.779 12.1804C132.779 11.9929 132.707 11.8381 132.562 11.7159C132.42 11.5937 132.199 11.5 131.897 11.4347L130.781 11.2003C130.153 11.0696 129.689 10.8494 129.387 10.5398C129.086 10.2273 128.937 9.83239 128.94 9.35511C128.937 8.9517 129.047 8.60227 129.268 8.30682C129.493 8.00852 129.804 7.77841 130.201 7.61648C130.602 7.4517 131.064 7.36932 131.586 7.36932C132.353 7.36932 132.957 7.53267 133.397 7.85938C133.841 8.18608 134.115 8.62784 134.22 9.18466ZM138.53 14.1278C137.874 14.1278 137.307 13.9915 136.83 13.7188C136.355 13.4432 135.99 13.054 135.735 12.5511C135.479 12.0455 135.351 11.4503 135.351 10.7656C135.351 10.0923 135.479 9.50142 135.735 8.9929C135.993 8.48153 136.354 8.08381 136.817 7.79972C137.28 7.51278 137.824 7.36932 138.449 7.36932C138.853 7.36932 139.233 7.43466 139.591 7.56534C139.952 7.69318 140.27 7.89205 140.546 8.16193C140.824 8.43182 141.043 8.77557 141.202 9.19318C141.361 9.60795 141.441 10.1023 141.441 10.6761V11.1491H136.076V10.1094H139.962C139.959 9.81392 139.895 9.55114 139.77 9.32102C139.645 9.08807 139.471 8.90483 139.246 8.77131C139.025 8.63778 138.766 8.57102 138.471 8.57102C138.155 8.57102 137.878 8.64773 137.64 8.80114C137.401 8.9517 137.215 9.15057 137.081 9.39773C136.951 9.64205 136.884 9.91051 136.881 10.2031V11.1108C136.881 11.4915 136.951 11.8182 137.09 12.0909C137.229 12.3608 137.424 12.5682 137.674 12.7131C137.924 12.8551 138.216 12.9261 138.551 12.9261C138.776 12.9261 138.979 12.8949 139.161 12.8324C139.343 12.767 139.5 12.6719 139.634 12.5469C139.767 12.4219 139.868 12.267 139.936 12.0824L141.377 12.2443C141.286 12.625 141.113 12.9574 140.857 13.2415C140.604 13.5227 140.28 13.7415 139.885 13.8977C139.49 14.0511 139.039 14.1278 138.53 14.1278ZM145.601 14.1278C144.947 14.1278 144.386 13.9844 143.918 13.6974C143.452 13.4105 143.092 13.0142 142.839 12.5085C142.589 12 142.464 11.4148 142.464 10.7528C142.464 10.0881 142.592 9.50142 142.848 8.9929C143.104 8.48153 143.464 8.08381 143.93 7.79972C144.399 7.51278 144.953 7.36932 145.592 7.36932C146.124 7.36932 146.594 7.46733 147.003 7.66335C147.415 7.85653 147.743 8.13068 147.987 8.4858C148.232 8.83807 148.371 9.25 148.405 9.72159H146.93C146.871 9.40625 146.729 9.14347 146.504 8.93324C146.283 8.72017 145.986 8.61364 145.614 8.61364C145.298 8.61364 145.021 8.69886 144.783 8.86932C144.544 9.03693 144.358 9.27841 144.224 9.59375C144.094 9.90909 144.028 10.2869 144.028 10.7273C144.028 11.1733 144.094 11.5568 144.224 11.8778C144.355 12.196 144.538 12.4418 144.774 12.6151C145.013 12.7855 145.293 12.8707 145.614 12.8707C145.841 12.8707 146.044 12.8281 146.223 12.7429C146.405 12.6548 146.557 12.5284 146.679 12.3636C146.801 12.1989 146.885 11.9986 146.93 11.7628H148.405C148.368 12.2259 148.232 12.6364 147.996 12.9943C147.76 13.3494 147.439 13.6278 147.033 13.8295C146.626 14.0284 146.149 14.1278 145.601 14.1278ZM153.843 11.2472V7.45455H155.386V14H153.89V12.8366H153.822C153.674 13.2031 153.431 13.5028 153.093 13.7358C152.758 13.9687 152.345 14.0852 151.853 14.0852C151.424 14.0852 151.045 13.9901 150.716 13.7997C150.389 13.6065 150.133 13.3267 149.949 12.9602C149.764 12.5909 149.672 12.1449 149.672 11.6222V7.45455H151.214V11.3835C151.214 11.7983 151.328 12.1278 151.555 12.3722C151.782 12.6165 152.081 12.7386 152.45 12.7386C152.677 12.7386 152.897 12.6832 153.11 12.5724C153.324 12.4616 153.498 12.2969 153.635 12.0781C153.774 11.8565 153.843 11.5795 153.843 11.2472ZM156.972 14V7.45455H158.468V8.54545H158.536C158.656 8.16761 158.86 7.87642 159.15 7.67188C159.442 7.46449 159.776 7.3608 160.151 7.3608C160.237 7.3608 160.332 7.36506 160.437 7.37358C160.545 7.37926 160.634 7.3892 160.705 7.40341V8.82244C160.64 8.79972 160.536 8.77983 160.394 8.76278C160.255 8.7429 160.12 8.73295 159.989 8.73295C159.708 8.73295 159.455 8.79403 159.231 8.91619C159.009 9.03551 158.835 9.2017 158.707 9.41477C158.579 9.62784 158.515 9.87358 158.515 10.152V14H156.972ZM164.358 14.1278C163.702 14.1278 163.135 13.9915 162.658 13.7188C162.184 13.4432 161.819 13.054 161.563 12.5511C161.307 12.0455 161.179 11.4503 161.179 10.7656C161.179 10.0923 161.307 9.50142 161.563 8.9929C161.821 8.48153 162.182 8.08381 162.645 7.79972C163.108 7.51278 163.652 7.36932 164.277 7.36932C164.681 7.36932 165.061 7.43466 165.419 7.56534C165.78 7.69318 166.098 7.89205 166.374 8.16193C166.652 8.43182 166.871 8.77557 167.03 9.19318C167.189 9.60795 167.269 10.1023 167.269 10.6761V11.1491H161.904V10.1094H165.79C165.787 9.81392 165.723 9.55114 165.598 9.32102C165.473 9.08807 165.299 8.90483 165.074 8.77131C164.853 8.63778 164.594 8.57102 164.299 8.57102C163.983 8.57102 163.706 8.64773 163.468 8.80114C163.229 8.9517 163.043 9.15057 162.909 9.39773C162.779 9.64205 162.712 9.91051 162.709 10.2031V11.1108C162.709 11.4915 162.779 11.8182 162.918 12.0909C163.057 12.3608 163.252 12.5682 163.502 12.7131C163.752 12.8551 164.044 12.9261 164.38 12.9261C164.604 12.9261 164.807 12.8949 164.989 12.8324C165.171 12.767 165.328 12.6719 165.462 12.5469C165.596 12.4219 165.696 12.267 165.765 12.0824L167.205 12.2443C167.114 12.625 166.941 12.9574 166.685 13.2415C166.432 13.5227 166.108 13.7415 165.713 13.8977C165.319 14.0511 164.867 14.1278 164.358 14.1278ZM174.371 14.1321C173.738 14.1321 173.192 13.9886 172.735 13.7017C172.281 13.4119 171.931 13.0128 171.687 12.5043C171.442 11.9957 171.32 11.4134 171.32 10.7571C171.32 10.0923 171.445 9.50568 171.695 8.99716C171.945 8.4858 172.298 8.08665 172.752 7.79972C173.207 7.51278 173.742 7.36932 174.359 7.36932C174.856 7.36932 175.299 7.46165 175.688 7.64631C176.077 7.82812 176.391 8.08381 176.63 8.41335C176.871 8.7429 177.015 9.12784 177.06 9.56818H175.82C175.752 9.26136 175.596 8.99716 175.352 8.77557C175.11 8.55398 174.786 8.44318 174.38 8.44318C174.025 8.44318 173.714 8.53693 173.447 8.72443C173.183 8.90909 172.977 9.1733 172.829 9.51705C172.681 9.85795 172.607 10.2614 172.607 10.7273C172.607 11.2045 172.68 11.6165 172.825 11.9631C172.969 12.3097 173.174 12.5781 173.438 12.7685C173.705 12.9588 174.019 13.054 174.38 13.054C174.621 13.054 174.84 13.0099 175.036 12.9219C175.235 12.831 175.401 12.7017 175.535 12.5341C175.671 12.3665 175.766 12.1648 175.82 11.929H177.06C177.015 12.3523 176.877 12.7301 176.647 13.0625C176.417 13.3949 176.109 13.6562 175.722 13.8466C175.339 14.0369 174.888 14.1321 174.371 14.1321ZM179.697 10.1136V14H178.423V5.27273H179.68V8.51989H179.761C179.914 8.16761 180.149 7.88778 180.464 7.6804C180.779 7.47301 181.191 7.36932 181.7 7.36932C182.149 7.36932 182.541 7.46165 182.876 7.64631C183.214 7.83097 183.475 8.10653 183.66 8.47301C183.848 8.83665 183.941 9.29119 183.941 9.83665V14H182.667V9.99006C182.667 9.50994 182.544 9.13778 182.297 8.87358C182.049 8.60653 181.706 8.47301 181.265 8.47301C180.964 8.47301 180.694 8.53693 180.456 8.66477C180.22 8.79261 180.034 8.98011 179.897 9.22727C179.764 9.47159 179.697 9.76705 179.697 10.1136ZM188.463 14.1321C187.818 14.1321 187.262 13.9943 186.797 13.7188C186.333 13.4403 185.975 13.0497 185.723 12.5469C185.473 12.0412 185.348 11.4489 185.348 10.7699C185.348 10.0994 185.473 9.50852 185.723 8.99716C185.975 8.4858 186.328 8.08665 186.779 7.79972C187.234 7.51278 187.765 7.36932 188.373 7.36932C188.743 7.36932 189.1 7.4304 189.447 7.55256C189.794 7.67472 190.105 7.86648 190.38 8.12784C190.656 8.3892 190.873 8.72869 191.032 9.14631C191.191 9.56108 191.271 10.0653 191.271 10.6591V11.1108H186.068V10.1562H190.022C190.022 9.82102 189.954 9.52415 189.818 9.26562C189.681 9.00426 189.49 8.7983 189.243 8.64773C188.998 8.49716 188.711 8.42188 188.382 8.42188C188.024 8.42188 187.711 8.50994 187.444 8.68608C187.18 8.85937 186.975 9.08665 186.831 9.3679C186.689 9.64631 186.618 9.94886 186.618 10.2756V11.0213C186.618 11.4588 186.694 11.831 186.848 12.1378C187.004 12.4446 187.221 12.679 187.5 12.8409C187.778 13 188.103 13.0795 188.475 13.0795C188.717 13.0795 188.937 13.0455 189.136 12.9773C189.335 12.9062 189.507 12.8011 189.652 12.6619C189.797 12.5227 189.907 12.3509 189.984 12.1463L191.19 12.3636C191.093 12.7187 190.92 13.0298 190.67 13.2969C190.423 13.5611 190.112 13.767 189.737 13.9148C189.365 14.0597 188.94 14.1321 188.463 14.1321ZM195.442 14.1321C194.808 14.1321 194.263 13.9886 193.805 13.7017C193.351 13.4119 193.001 13.0128 192.757 12.5043C192.513 11.9957 192.391 11.4134 192.391 10.7571C192.391 10.0923 192.516 9.50568 192.766 8.99716C193.016 8.4858 193.368 8.08665 193.822 7.79972C194.277 7.51278 194.813 7.36932 195.429 7.36932C195.926 7.36932 196.369 7.46165 196.759 7.64631C197.148 7.82812 197.462 8.08381 197.7 8.41335C197.942 8.7429 198.085 9.12784 198.131 9.56818H196.891C196.822 9.26136 196.666 8.99716 196.422 8.77557C196.18 8.55398 195.857 8.44318 195.45 8.44318C195.095 8.44318 194.784 8.53693 194.517 8.72443C194.253 8.90909 194.047 9.1733 193.899 9.51705C193.751 9.85795 193.678 10.2614 193.678 10.7273C193.678 11.2045 193.75 11.6165 193.895 11.9631C194.04 12.3097 194.244 12.5781 194.509 12.7685C194.776 12.9588 195.089 13.054 195.45 13.054C195.692 13.054 195.911 13.0099 196.107 12.9219C196.305 12.831 196.472 12.7017 196.605 12.5341C196.741 12.3665 196.837 12.1648 196.891 11.929H198.131C198.085 12.3523 197.947 12.7301 197.717 13.0625C197.487 13.3949 197.179 13.6562 196.793 13.8466C196.409 14.0369 195.959 14.1321 195.442 14.1321ZM200.665 11.7798L200.657 10.2244H200.878L203.486 7.45455H205.012L202.037 10.608H201.837L200.665 11.7798ZM199.493 14V5.27273H200.767V14H199.493ZM203.627 14L201.283 10.8892L202.161 9.99858L205.191 14H203.627ZM208.661 14.1321C208.047 14.1321 207.511 13.9915 207.054 13.7102C206.597 13.429 206.241 13.0355 205.989 12.5298C205.736 12.0241 205.609 11.4332 205.609 10.7571C205.609 10.0781 205.736 9.48437 205.989 8.97585C206.241 8.46733 206.597 8.07244 207.054 7.79119C207.511 7.50994 208.047 7.36932 208.661 7.36932C209.274 7.36932 209.81 7.50994 210.267 7.79119C210.724 8.07244 211.08 8.46733 211.332 8.97585C211.585 9.48437 211.712 10.0781 211.712 10.7571C211.712 11.4332 211.585 12.0241 211.332 12.5298C211.08 13.0355 210.724 13.429 210.267 13.7102C209.81 13.9915 209.274 14.1321 208.661 14.1321ZM208.665 13.0625C209.063 13.0625 209.392 12.9574 209.653 12.7472C209.915 12.5369 210.108 12.2571 210.233 11.9077C210.361 11.5582 210.425 11.1733 210.425 10.7528C210.425 10.3352 210.361 9.9517 210.233 9.60227C210.108 9.25 209.915 8.96733 209.653 8.75426C209.392 8.54119 209.063 8.43466 208.665 8.43466C208.264 8.43466 207.932 8.54119 207.668 8.75426C207.406 8.96733 207.212 9.25 207.084 9.60227C206.959 9.9517 206.896 10.3352 206.896 10.7528C206.896 11.1733 206.959 11.5582 207.084 11.9077C207.212 12.2571 207.406 12.5369 207.668 12.7472C207.932 12.9574 208.264 13.0625 208.665 13.0625ZM217.28 11.2855V7.45455H218.559V14H217.306V12.8665H217.238C217.087 13.2159 216.846 13.5071 216.513 13.7401C216.184 13.9702 215.773 14.0852 215.282 14.0852C214.861 14.0852 214.489 13.9929 214.165 13.8082C213.844 13.6207 213.591 13.3438 213.407 12.9773C213.225 12.6108 213.134 12.1577 213.134 11.6179V7.45455H214.408V11.4645C214.408 11.9105 214.532 12.2656 214.779 12.5298C215.026 12.794 215.347 12.9261 215.742 12.9261C215.98 12.9261 216.218 12.8665 216.453 12.7472C216.692 12.6278 216.89 12.4474 217.046 12.206C217.205 11.9645 217.283 11.6577 217.28 11.2855ZM223.326 7.45455V8.47727H219.751V7.45455H223.326ZM220.71 5.88636H221.984V12.0781C221.984 12.3253 222.021 12.5114 222.094 12.6364C222.168 12.7585 222.263 12.8423 222.38 12.8878C222.499 12.9304 222.629 12.9517 222.768 12.9517C222.87 12.9517 222.96 12.9446 223.036 12.9304C223.113 12.9162 223.173 12.9048 223.215 12.8963L223.445 13.9489C223.371 13.9773 223.266 14.0057 223.13 14.0341C222.994 14.0653 222.823 14.0824 222.619 14.0852C222.283 14.0909 221.971 14.0312 221.681 13.9062C221.391 13.7812 221.157 13.5881 220.978 13.3267C220.799 13.0653 220.71 12.7372 220.71 12.3423V5.88636Z" fill="black"/>
<rect x="227" y="1.5" width="74" height="17" rx="4" fill="black"/>
<path d="M235.418 7.12109H233.297V12.5011H234.244V10.4211H235.418C236.602 10.4211 237.342 9.84109 237.342 8.77109C237.342 7.70109 236.602 7.12109 235.418 7.12109ZM235.369 9.62109H234.244V7.97109H235.384C236.064 7.97109 236.425 8.26609 236.425 8.79609C236.425 9.32609 236.05 9.59609 235.384 9.59609L235.369 9.62109Z" fill="white"/>
<path d="M239.382 8.50013C239.123 8.49709 238.866 8.54906 238.627 8.65271C238.389 8.75635 238.175 8.90938 237.998 9.10197C237.821 9.29455 237.687 9.52243 237.602 9.77097C237.518 10.0195 237.485 10.2832 237.507 10.5451C237.484 10.8085 237.515 11.0739 237.599 11.3243C237.683 11.5748 237.817 11.8049 237.993 12C238.169 12.195 238.383 12.3508 238.622 12.4574C238.861 12.564 239.119 12.619 239.38 12.619C239.64 12.619 239.899 12.564 240.137 12.4574C240.376 12.3508 240.59 12.195 240.766 12C240.942 11.8049 241.077 11.5748 241.16 11.3243C241.244 11.0739 241.275 10.8085 241.252 10.5451C241.275 10.2835 241.243 10.0199 241.159 9.77134C241.075 9.5228 240.941 9.29485 240.765 9.10218C240.588 8.9095 240.374 8.75638 240.136 8.65268C239.898 8.54899 239.641 8.49702 239.382 8.50013V8.50013ZM239.382 11.8351C238.78 11.8351 238.395 11.3351 238.395 10.5451C238.395 9.75513 238.77 9.25513 239.382 9.25513C239.994 9.25513 240.369 9.75513 240.369 10.5451C240.369 11.3351 239.979 11.8301 239.382 11.8301V11.8351Z" fill="white"/>
<path d="M245.144 11.1764L244.448 8.56641H243.718L243.027 11.1764L242.327 8.56641H241.414L242.583 12.5064H243.353L244.063 9.92641L244.774 12.5064H245.543L246.712 8.56641H245.834L245.144 11.1764Z" fill="white"/>
<path d="M248.707 8.5C248.451 8.50482 248.199 8.5623 247.966 8.66897C247.732 8.77563 247.523 8.92925 247.35 9.1205C247.177 9.31175 247.044 9.53663 246.959 9.78151C246.875 10.0264 246.84 10.2861 246.857 10.545C246.837 10.8079 246.871 11.0722 246.957 11.3211C247.042 11.57 247.179 11.798 247.357 11.9905C247.534 12.1829 247.75 12.3357 247.989 12.4389C248.229 12.5422 248.487 12.5936 248.747 12.59C249.105 12.6095 249.459 12.5149 249.761 12.3193C250.063 12.1238 250.297 11.8372 250.429 11.5L249.694 11.19C249.636 11.3832 249.516 11.5508 249.352 11.6653C249.188 11.7798 248.99 11.8343 248.791 11.82C248.65 11.8234 248.509 11.7977 248.378 11.7444C248.246 11.6911 248.127 11.6113 248.027 11.5098C247.927 11.4084 247.848 11.2874 247.795 11.1542C247.743 11.021 247.717 10.8784 247.721 10.735H250.444V10.435C250.454 9.355 249.852 8.5 248.707 8.5ZM247.755 10.065C247.79 9.8354 247.905 9.6263 248.08 9.47644C248.256 9.32658 248.478 9.24613 248.707 9.25C248.816 9.24067 248.926 9.25495 249.029 9.29187C249.132 9.3288 249.226 9.38752 249.305 9.46415C249.384 9.54077 249.446 9.63354 249.486 9.73628C249.527 9.83901 249.546 9.94937 249.541 10.06L247.755 10.065Z" fill="white"/>
<path d="M252.005 9.14778V8.56278H251.117V12.4978H252.005V10.4328C251.997 10.2994 252.017 10.1658 252.064 10.0408C252.111 9.91585 252.183 9.80237 252.277 9.70787C252.37 9.61336 252.482 9.53997 252.605 9.49255C252.728 9.44514 252.86 9.42476 252.992 9.43278C253.1 9.42502 253.209 9.42502 253.317 9.43278V8.53278C253.248 8.53278 253.169 8.53278 253.066 8.53278C252.849 8.52142 252.634 8.57336 252.446 8.6824C252.258 8.79144 252.105 8.95299 252.005 9.14778V9.14778Z" fill="white"/>
<path d="M255.356 8.5C255.1 8.50482 254.848 8.5623 254.614 8.66897C254.381 8.77563 254.171 8.92925 253.998 9.1205C253.825 9.31175 253.692 9.53663 253.608 9.78151C253.523 10.0264 253.488 10.2861 253.506 10.545C253.485 10.8079 253.519 11.0722 253.605 11.3211C253.691 11.57 253.827 11.798 254.005 11.9905C254.183 12.1829 254.398 12.3357 254.638 12.4389C254.877 12.5422 255.135 12.5936 255.395 12.59C255.75 12.6053 256.1 12.5086 256.398 12.3133C256.696 12.1181 256.926 11.8339 257.058 11.5L256.298 11.205C256.24 11.3982 256.12 11.5658 255.956 11.6803C255.792 11.7948 255.594 11.8493 255.395 11.835C255.257 11.8337 255.12 11.8045 254.992 11.7491C254.865 11.6937 254.75 11.6131 254.653 11.5122C254.557 11.4112 254.481 11.2919 254.431 11.161C254.38 11.0302 254.356 10.8905 254.359 10.75H257.092V10.45C257.092 9.355 256.481 8.5 255.356 8.5ZM254.404 10.065C254.439 9.83718 254.555 9.62995 254.729 9.48121C254.902 9.33247 255.123 9.25217 255.351 9.255C255.46 9.24567 255.569 9.25995 255.672 9.29687C255.775 9.3338 255.869 9.39252 255.948 9.46915C256.027 9.54577 256.089 9.63854 256.13 9.74128C256.171 9.84401 256.189 9.95437 256.185 10.065H254.404Z" fill="white"/>
<path d="M260.335 9.00109C260.198 8.83828 260.026 8.7088 259.833 8.62224C259.64 8.53568 259.431 8.49428 259.22 8.50109C258.129 8.50109 257.508 9.42609 257.508 10.5461C257.508 11.6661 258.129 12.5911 259.22 12.5911C259.431 12.599 259.641 12.5581 259.834 12.4715C260.027 12.3848 260.198 12.2548 260.335 12.0911V12.5011H261.223V7.12109H260.335V9.00109ZM260.335 10.6761C260.355 10.8187 260.344 10.9639 260.303 11.1019C260.263 11.2399 260.193 11.3673 260.099 11.4756C260.006 11.5838 259.89 11.6703 259.76 11.7291C259.631 11.7878 259.49 11.8175 259.348 11.8161C258.702 11.8161 258.361 11.3161 258.361 10.5561C258.361 9.79609 258.707 9.29609 259.348 9.29609C259.896 9.29609 260.335 9.70109 260.335 10.4411V10.6761Z" fill="white"/>
<path d="M266.121 8.50109C265.906 8.49156 265.692 8.53162 265.495 8.61823C265.297 8.70484 265.122 8.83575 264.982 9.00109V7.12109H264.094V12.5011H264.982V12.0861C265.119 12.2493 265.292 12.379 265.485 12.4655C265.679 12.5521 265.89 12.5933 266.102 12.5861C267.187 12.5861 267.809 11.6561 267.809 10.5411C267.809 9.42609 267.207 8.50109 266.121 8.50109ZM265.968 11.8011C265.826 11.8025 265.686 11.7728 265.556 11.7141C265.426 11.6553 265.311 11.5688 265.217 11.4606C265.123 11.3523 265.054 11.2249 265.013 11.0869C264.973 10.9489 264.962 10.8037 264.982 10.6611V10.4261C264.982 9.68609 265.396 9.28109 265.968 9.28109C266.61 9.28109 266.955 9.78109 266.955 10.5411C266.955 11.3011 266.585 11.8011 265.968 11.8011Z" fill="white"/>
<path d="M269.889 11.3314L268.937 8.56641H268L269.431 12.3614L269.283 12.7314C269.258 12.8582 269.185 12.9701 269.08 13.0438C268.975 13.1174 268.846 13.147 268.72 13.1264C268.622 13.1337 268.523 13.1337 268.424 13.1264V13.8814C268.543 13.8994 268.664 13.9077 268.784 13.9064C269.092 13.9291 269.398 13.8414 269.649 13.6586C269.9 13.4758 270.079 13.2096 270.156 12.9064L271.754 8.59641H270.822L269.889 11.3314Z" fill="white"/>
<path d="M288.666 7.71487C288.471 7.71373 288.278 7.75156 288.098 7.82621C287.918 7.90086 287.754 8.01085 287.615 8.14987L287.546 7.80487H286.367V14.2649L287.709 13.9699V12.4049C287.976 12.6314 288.313 12.7553 288.661 12.7549C289.618 12.7549 290.496 11.9599 290.496 10.1999C290.496 8.58987 289.608 7.71487 288.666 7.71487ZM288.345 11.5299C288.228 11.5367 288.11 11.517 288.001 11.472C287.892 11.427 287.794 11.358 287.714 11.2699V9.21487C287.794 9.12353 287.893 9.05144 288.004 9.00386C288.115 8.95628 288.235 8.93442 288.355 8.93987C288.849 8.93987 289.184 9.50487 289.184 10.2299C289.184 10.9549 288.844 11.5299 288.345 11.5299Z" fill="white"/>
<path d="M292.975 7.71484C291.683 7.71484 290.898 8.84484 290.898 10.2698C290.898 11.9548 291.826 12.8098 293.148 12.8098C293.664 12.8184 294.174 12.6927 294.628 12.4448V11.3198C294.215 11.5309 293.758 11.6373 293.296 11.6298C292.763 11.6298 292.309 11.4348 292.24 10.7798H294.894C294.894 10.7048 294.894 10.4098 294.894 10.2798C294.939 8.84484 294.268 7.71484 292.975 7.71484ZM292.25 9.74984C292.25 9.11984 292.63 8.85484 292.966 8.85484C293.301 8.85484 293.656 9.11984 293.656 9.74984H292.25Z" fill="white"/>
<path d="M282.744 8.17904L282.66 7.76904H281.516V12.624H282.838V9.33404C282.957 9.18711 283.118 9.08062 283.299 9.0288C283.479 8.97697 283.671 8.98229 283.849 9.04404V7.76904C283.647 7.6889 283.423 7.68636 283.22 7.76188C283.016 7.8374 282.847 7.98578 282.744 8.17904V8.17904Z" fill="white"/>
<path d="M276.068 9.23005C276.068 9.01005 276.245 8.92505 276.526 8.92505C276.992 8.93522 277.449 9.05868 277.858 9.28505V7.97005C277.435 7.7967 276.983 7.71003 276.526 7.71505C275.436 7.71505 274.711 8.30505 274.711 9.29505C274.711 10.8451 276.753 10.5951 276.753 11.2601C276.753 11.5201 276.536 11.6051 276.26 11.6051C275.739 11.5742 275.232 11.4201 274.78 11.1551V12.5001C275.246 12.7106 275.75 12.8196 276.26 12.8201C277.375 12.8201 278.145 12.2451 278.145 11.2401C278.12 9.56005 276.068 9.86005 276.068 9.23005Z" fill="white"/>
<path d="M279.925 6.62109L278.618 6.91109V11.3761C278.611 11.5643 278.643 11.7518 278.71 11.9274C278.777 12.1029 278.879 12.2627 279.009 12.397C279.139 12.5313 279.295 12.6373 279.467 12.7085C279.639 12.7797 279.824 12.8146 280.009 12.8111C280.333 12.8258 280.656 12.7624 280.952 12.6261V11.5011C280.779 11.5761 279.935 11.8311 279.935 11.0011V9.00109H280.952V7.83109H279.935L279.925 6.62109Z" fill="white"/>
<path d="M284.352 7.34937L285.698 7.06437V5.98438L284.352 6.26937V7.34937Z" fill="white"/>
<path d="M285.698 7.80469H284.352V12.6247H285.698V7.80469Z" fill="white"/>
</svg>
