<svg width="147" height="101" viewBox="0 0 147 101" fill="none" xmlns="http://www.w3.org/2000/svg">
    <path d="M70.2399 76.8986L62.5684 82.5454L63.0737 85.9427L83.3321 85.7131L89.0743 82.1781L89.6256 76.2559L70.2399 76.8986Z" fill="white"/>
    <path d="M113.88 76.256C115.121 76.8528 118.566 78.2301 120.312 76.256C122.057 74.2819 123.114 69.9665 118.198 69.1401C113.283 68.3596 110.848 74.741 113.88 76.256Z" fill="white"/>
    <path d="M114.018 81.9022L115.947 83.6008C115.947 83.6008 109.286 84.519 110.664 87.9622C112.042 91.4054 115.488 93.6549 117.555 92.0022C119.622 90.3495 119.898 88.8345 119.898 88.8345L121.781 91.4054L130.831 84.7026C130.831 84.7026 135.976 85.0699 138.043 84.3813C139.835 83.7845 135.838 76.5767 133.955 75.1076C132.347 73.8222 129.682 81.3513 129.682 81.3513C129.591 83.6467 124.308 76.9899 124.537 76.4849C124.767 75.9799 114.018 81.9022 114.018 81.9022Z" fill="white"/>
    <path d="M122.839 59.2226C123.62 58.2586 124.86 54.6776 127.984 55.6417C131.107 56.6058 132.118 57.3863 132.302 58.9013C132.44 60.4163 131.199 64.1808 127.157 64.4104C123.114 64.6399 122.15 60.0949 122.839 59.2226Z" fill="white"/>
    <path d="M7.16752 75.2912C8.13221 74.4189 10.8425 69.1852 19.341 72.3989C27.8394 75.6125 21.3163 84.7025 20.1678 85.2534C17.5953 86.4471 11.0263 89.4312 7.53502 83.4171C4.54908 78.3212 7.16752 75.2912 7.16752 75.2912Z" fill="white"/>
    <path fill-rule="evenodd" clip-rule="evenodd" d="M80.9883 42.8336L82.3664 41.64L87.5574 40.125L87.9248 43.0632L89.7624 44.4405L91.1864 42.0532L93.4374 41.6859L96.7449 45.4045L95.5505 48.0673L96.2395 50.4086L99.4092 50.8218L99.0877 56.1932L97.4339 57.7541L95.5505 57.295L94.6317 58.7641L95.6883 60.8759L89.1652 63.6764L88.522 60.325L86.5008 59.7741L85.7199 61.7023C85.7199 61.7023 83.3311 62.4368 83.2852 61.9318C83.2392 61.4268 79.9777 58.81 79.9777 58.81L82.5042 55.78C82.5042 55.78 80.2992 55.3668 80.9423 52.4286L77.6808 52.4745L77.543 48.1591L79.1508 46.8277L81.5855 47.2409L82.2745 45.7718L80.9883 42.8336Z" fill="white"/>
    <path d="M133.861 80.6617C133.677 80.6617 133.585 80.4781 133.539 80.3862C133.264 79.6517 133.172 78.8712 133.126 78.1367C133.08 77.5399 133.034 76.989 132.85 76.4381C132.804 76.3003 132.896 76.2085 132.988 76.1626C133.126 76.1167 133.218 76.2085 133.264 76.3003C133.309 76.3921 133.309 76.5299 133.355 76.6217C133.355 76.5758 133.355 76.5299 133.401 76.5299C133.447 76.4381 133.585 76.3462 133.677 76.3462C133.907 76.3922 134.366 77.1726 134.458 77.4481C134.871 78.3662 134.917 79.4681 134.642 80.3403C134.596 80.4781 134.458 80.524 134.366 80.4781C134.228 80.4321 134.182 80.2944 134.228 80.2026C134.458 79.4681 134.412 78.4581 134.044 77.6776V77.6317C134.044 77.5858 133.953 77.494 133.907 77.3562C133.907 77.4021 133.953 77.494 133.953 77.5399C133.953 77.6317 133.999 77.7235 133.999 77.7694C134.136 78.504 134.136 79.3303 134.136 80.1108C134.136 80.3862 134.136 80.6617 133.907 80.7076C133.907 80.6617 133.907 80.6617 133.861 80.6617ZM133.585 77.9531C133.585 77.999 133.585 78.0449 133.585 78.0449C133.585 78.2744 133.631 78.5499 133.677 78.7794C133.631 78.504 133.631 78.2285 133.585 77.9531Z" fill="black"/>
    <path d="M134.734 82.9582C134.596 82.9582 134.458 82.9122 134.321 82.8204C134.091 82.6368 133.953 82.3154 133.999 81.9482C133.999 81.8104 134.137 81.7186 134.275 81.7645H134.321C134.412 81.7186 134.504 81.6268 134.596 81.6268C134.688 81.5809 134.78 81.4891 134.872 81.4891C135.056 81.4432 135.147 81.535 135.193 81.5809C135.193 81.6268 135.239 81.6268 135.239 81.6727C135.377 81.7645 135.469 81.9482 135.469 82.1777C135.469 82.4991 135.331 82.7745 135.056 82.9122C134.964 82.9582 134.826 82.9582 134.734 82.9582ZM134.596 82.4991C134.688 82.545 134.78 82.545 134.826 82.4991C134.918 82.4532 134.964 82.3613 134.964 82.1777C134.918 82.2695 134.78 82.4072 134.596 82.4991Z" fill="black"/>
    <path d="M135.607 84.8403C134.964 84.8403 134.229 84.7944 133.586 84.7944C132.943 84.7484 132.346 84.7484 131.886 84.7484C130.6 84.7944 129.819 84.5648 129.451 84.0598C128.992 83.4171 129.314 82.4989 129.681 81.3512L129.819 80.9839C129.865 80.8003 129.957 80.5707 130.003 80.3412C130.738 78.0457 131.84 74.6025 133.678 74.6025C134.964 74.6025 136.204 77.3112 137.399 79.928C137.858 80.938 138.317 81.9021 138.685 82.4989C139.052 83.0498 139.098 83.5548 138.869 83.9221C138.501 84.7025 137.169 84.8403 135.607 84.8403ZM132.07 84.2894C132.483 84.2894 133.035 84.2894 133.586 84.3353C135.377 84.4271 138.088 84.5189 138.547 83.7384C138.685 83.5089 138.593 83.1875 138.363 82.7744C137.996 82.1316 137.536 81.1675 137.031 80.1575C136.021 78.0457 134.688 75.1075 133.724 75.1075C132.208 75.1075 131.151 78.5048 130.462 80.5248C130.37 80.7544 130.324 80.9839 130.232 81.1675L130.095 81.5348C129.773 82.4989 129.451 83.3712 129.773 83.8303C130.049 84.1975 130.692 84.3353 131.794 84.3353C131.932 84.2894 132.024 84.2894 132.07 84.2894Z" fill="black"/>
    <path d="M116.681 75.9789C116.36 75.9789 116.084 75.5198 114.43 72.4439C114.384 72.352 114.43 72.2143 114.522 72.1225C114.614 72.0766 114.752 72.1225 114.844 72.2143C115.487 73.4079 116.268 74.877 116.589 75.382C116.589 75.2443 116.635 75.0607 116.635 74.877C116.681 73.7293 116.773 71.6175 118.289 70.3779C119.345 69.5516 120.861 69.2761 122.837 69.5975C122.975 69.5975 123.066 69.7352 123.02 69.8729C123.02 70.0107 122.883 70.1025 122.745 70.0566C120.907 69.7811 119.483 70.0107 118.565 70.7452C117.232 71.847 117.14 73.7293 117.095 74.877C117.049 75.5657 117.049 75.887 116.773 75.9789C116.727 75.9789 116.727 75.9789 116.681 75.9789Z" fill="black"/>
    <path d="M116.91 77.7698C115.073 77.7698 113.465 76.8516 112.638 75.3825C111.857 73.9594 111.995 72.2607 113.006 70.6998C114.797 68.3584 118.243 68.0371 120.861 69.9653C122.147 70.9294 122.607 72.628 122.055 74.2807C121.504 75.8875 119.85 77.7698 116.91 77.7698ZM113.373 70.9753C112.454 72.3985 112.363 73.9134 113.052 75.153C113.787 76.4844 115.257 77.3107 116.91 77.3107C119.575 77.3107 121.091 75.6121 121.596 74.143C122.101 72.628 121.688 71.1589 120.585 70.3325C118.197 68.5421 115.027 68.8175 113.373 70.9753Z" fill="black"/>
    <path d="M126.925 62.6654C126.604 62.6654 126.328 62.2063 124.674 59.1304C124.628 59.0386 124.674 58.9008 124.766 58.809C124.858 58.7631 124.996 58.809 125.088 58.9008C125.731 60.0945 126.512 61.5636 126.833 62.0686C126.833 61.9308 126.833 61.7472 126.879 61.5636C126.925 60.4158 127.017 58.304 128.533 57.0645C129.59 56.2381 131.106 55.9626 133.081 56.284C133.219 56.284 133.311 56.4217 133.265 56.5595C133.265 56.6972 133.127 56.789 132.989 56.7431C131.151 56.4676 129.727 56.6972 128.809 57.4317C127.476 58.5336 127.385 60.4158 127.339 61.5636C127.293 62.2522 127.293 62.5736 127.017 62.6654C126.971 62.6654 126.971 62.6654 126.925 62.6654Z" fill="black"/>
    <path d="M127.154 64.4563C125.317 64.4563 123.709 63.5382 122.882 62.0691C122.101 60.6459 122.239 58.9472 123.25 57.3863C125.041 55.045 128.487 54.7236 131.105 56.6518C132.391 57.6159 132.851 59.3145 132.299 60.9672C131.748 62.5741 130.094 64.4563 127.154 64.4563ZM123.617 57.6618C122.699 59.085 122.607 60.6 123.296 61.8395C124.031 63.1709 125.501 63.9972 127.154 63.9972C129.819 63.9972 131.335 62.2986 131.84 60.8295C132.345 59.3145 131.932 57.8454 130.829 57.0191C128.441 55.2286 125.271 55.5041 123.617 57.6618Z" fill="black"/>
    <path d="M89.0731 35.5337C92.1969 36.36 101.384 37.6914 101.89 37.6455C104.324 34.2023 116.36 23.3678 108.918 17.2159C96.9744 7.29957 86.7303 12.7168 84.1578 15.1041C80.9881 18.0423 77.9563 29.9328 78.6913 31.2182C79.4263 32.5037 85.9494 34.7073 89.0731 35.5337Z" fill="url(#paint0_linear)"/>
    <path d="M98.3053 52.7037C98.2135 52.7037 98.1675 52.6578 98.1216 52.6119C93.6656 46.6437 99.0403 40.3542 104.277 34.3401C108.412 29.5656 112.27 25.0665 111.398 20.8428C110.846 18.226 108.412 15.9765 104.002 13.9565C98.1675 11.2937 92.6091 10.8806 88.245 12.7628C84.6619 14.3237 82.0894 17.3996 80.7113 21.8528C77.8631 30.7592 77.7713 39.9869 80.4816 47.9292C80.5275 48.0669 80.4356 48.1587 80.3438 48.2047C80.206 48.2506 80.1141 48.1587 80.0681 48.0669C77.3578 40.0328 77.4038 30.6674 80.2978 21.7151C81.7678 17.1242 84.3863 14.0024 88.1072 12.3497C92.5631 10.3756 98.3053 10.7887 104.231 13.5433C108.779 15.6551 111.306 17.9965 111.903 20.751C112.868 25.1583 108.917 29.7492 104.691 34.6156C99.5916 40.5378 94.3088 46.6437 98.581 52.3365C98.6728 52.4283 98.6269 52.566 98.535 52.6578C98.3972 52.7037 98.3513 52.7037 98.3053 52.7037Z" fill="black"/>
    <path d="M85.2143 34.1098C91.4159 36.543 94.4478 36.9102 100.557 37.8284C101.292 37.7366 102.395 37.553 101.982 36.8643C101.338 35.7166 98.1687 34.6607 96.9284 34.1557C93.1156 32.5489 92.3347 32.3652 88.384 31.2175C85.8575 30.483 81.9987 29.1516 79.61 29.5189C78.6453 29.6566 78.6912 30.4371 79.3803 31.1257C80.8503 32.4112 83.3309 33.3752 85.2143 34.1098Z" fill="url(#paint1_linear)"/>
    <path d="M100.097 38.1047C100.005 38.1047 99.9132 38.0588 99.8673 37.9211L99.4539 37.8752C93.9873 37.0488 90.9554 36.5897 85.1214 34.2943C83.2379 33.5597 80.7114 32.5956 79.2414 31.2184C78.782 30.7593 78.5523 30.3002 78.6901 29.887C78.782 29.6575 78.9657 29.3361 79.6089 29.1984C81.722 28.877 84.8917 29.8411 87.4642 30.5756C87.8317 30.6675 88.1992 30.8052 88.5207 30.897L89.3936 31.1265C92.6092 32.0447 93.5739 32.3202 97.111 33.8352C97.2948 33.927 97.5704 34.0188 97.8461 34.1106C99.362 34.7075 101.705 35.6256 102.256 36.6356C102.44 36.9111 102.394 37.1406 102.302 37.2784C102.164 37.5997 101.705 37.7375 101.199 37.8293C101.199 37.967 101.062 38.0588 100.924 38.0129L100.464 37.9211C100.327 37.9211 100.235 37.967 100.189 37.967C100.143 38.1047 100.097 38.1047 100.097 38.1047ZM80.5276 29.6575C80.206 29.6575 79.9304 29.6575 79.7007 29.7034C79.517 29.7493 79.2414 29.8411 79.1495 30.0706C79.1035 30.3002 79.2414 30.6215 79.6089 30.9429C80.987 32.2284 83.4676 33.1925 85.3051 33.927C91.1392 36.2225 94.1251 36.6356 99.5917 37.462L100.51 37.5997C100.556 37.5997 100.648 37.5997 100.694 37.5538C101.108 37.5079 101.843 37.3702 101.934 37.1406C101.934 37.0947 101.934 37.0488 101.889 36.957C101.383 36.0847 99.0864 35.2125 97.7082 34.6615C97.4326 34.5697 97.157 34.432 96.9732 34.3402C93.482 32.8711 92.5173 32.5956 89.3476 31.6775L88.4748 31.402C88.1532 31.3102 87.7857 31.2184 87.4182 31.0806C85.2592 30.4838 82.5029 29.6575 80.5276 29.6575Z" fill="black"/>
    <path d="M95.1359 37.0485C94.9981 37.0485 94.9062 36.9567 94.9062 36.8189C94.9062 36.6812 94.9981 36.5894 95.1359 36.5894C96.3763 36.4517 97.6166 36.1303 98.8109 35.8089C99.5 35.6253 100.189 35.4417 100.878 35.3039C101.016 35.258 101.108 35.3498 101.154 35.4876C101.2 35.6253 101.108 35.7171 100.97 35.763C100.281 35.9008 99.5919 36.0844 98.9487 36.268C97.7084 36.5894 96.4681 36.9107 95.1359 37.0485Z" fill="black"/>
    <path d="M90.9568 36.2683C90.8649 36.2683 90.773 36.2224 90.7271 36.0847C90.6811 35.9469 90.773 35.8551 90.8649 35.8092C92.978 35.1665 95.183 34.5238 97.434 34.1106C97.5718 34.0647 97.6636 34.1565 97.7096 34.2942C97.7555 34.4319 97.6636 34.5238 97.5258 34.5697C95.3208 34.9829 93.1618 35.6256 91.0486 36.2683C91.0027 36.2683 90.9568 36.2683 90.9568 36.2683Z" fill="black"/>
    <path d="M86.5912 34.8449C86.4994 34.8449 86.4075 34.7531 86.3616 34.6613C86.3156 34.5235 86.4075 34.4317 86.5453 34.3858C87.2803 34.2022 88.0153 34.0185 88.7962 33.9267C90.6797 33.6513 92.5631 33.1922 94.4006 32.5494C94.5384 32.5035 94.6303 32.5494 94.6762 32.6872C94.7222 32.8249 94.6762 32.9167 94.5384 32.9626C92.7009 33.6054 90.7716 34.0644 88.8422 34.3399C88.1072 34.4317 87.3722 34.6154 86.6831 34.799C86.6372 34.8449 86.5912 34.8449 86.5912 34.8449Z" fill="black"/>
    <path d="M83.1004 33.4684C83.0086 33.4684 82.9167 33.4225 82.8707 33.3307C82.8248 33.193 82.8707 33.1011 83.0086 33.0552C83.6976 32.8257 84.4786 32.642 85.4432 32.5502C87.6023 32.2748 89.3939 31.9993 91.0476 31.678C91.1854 31.632 91.2773 31.7239 91.3232 31.8616C91.3692 31.9993 91.2773 32.0911 91.1395 32.137C89.4857 32.4584 87.6942 32.7339 85.5351 33.0093C84.5704 33.1011 83.8814 33.2848 83.1923 33.5143C83.1464 33.4684 83.1464 33.4684 83.1004 33.4684Z" fill="black"/>
    <path d="M79.7475 31.9076C79.6556 31.9076 79.5637 31.8157 79.5178 31.7239C79.4719 31.5862 79.5637 31.4944 79.7016 31.4485C81.9066 31.0353 84.1575 30.7139 86.3166 30.4844C86.4544 30.4844 86.5462 30.5762 86.5462 30.668C86.5462 30.8057 86.4544 30.8976 86.3625 30.8976C84.2034 31.173 81.9984 31.4944 79.7475 31.9076C79.7934 31.9076 79.7475 31.9076 79.7475 31.9076Z" fill="black"/>
    <path fill-rule="evenodd" clip-rule="evenodd" d="M95.6418 16.2515C94.6771 16.8024 94.034 17.7206 93.7584 18.8224L93.4827 19.8324L95.504 20.3833L95.7796 19.3733C96.0552 18.2715 97.1577 17.6288 98.2143 17.9042C99.2709 18.1797 99.914 19.3274 99.6384 20.4292C99.3627 21.5311 98.2602 22.1738 97.2037 21.8983L91.3696 20.2915C90.313 20.0161 89.2105 20.1538 88.2459 20.7047C87.2812 21.2556 86.638 22.1738 86.3624 23.2756C86.0868 24.3774 86.2246 25.4792 86.7759 26.4892C87.3271 27.4533 88.1999 28.142 89.2565 28.4633C90.313 28.7388 91.4155 28.601 92.3802 28.0501C93.3449 27.4992 93.988 26.581 94.2637 25.4792L94.5393 24.4692L92.518 23.9183L92.2424 24.9283C91.9668 26.0301 90.8643 26.6729 89.8077 26.3974C88.7512 26.122 88.108 24.9742 88.3837 23.8724C88.5215 23.3215 88.889 22.9083 89.3024 22.6329C89.7618 22.3574 90.2671 22.2656 90.8184 22.4492L96.6984 24.0561C97.7549 24.3315 98.8574 24.1938 99.8221 23.6429C100.787 23.092 101.43 22.1738 101.706 21.072C101.981 19.9701 101.843 18.8683 101.292 17.8583C100.741 16.8942 99.868 16.2056 98.8115 15.8842C97.709 15.517 96.6065 15.6547 95.6418 16.2515Z" fill="#F9F9F9"/>
    <path fill-rule="evenodd" clip-rule="evenodd" d="M82.7791 46.0926C82.8709 46.2303 82.825 46.368 82.6872 46.4598C82.3197 46.6894 81.9522 47.0566 81.7225 47.4239C81.5847 47.6076 81.4928 47.7912 81.4009 47.9289C81.3091 48.1126 81.3091 48.2044 81.3091 48.2962C81.3091 48.4339 81.2172 48.5716 81.0334 48.5716C80.8956 48.5716 80.7578 48.4798 80.7578 48.2962C80.7578 48.1126 80.8038 47.9289 80.8956 47.7453C80.9875 47.5616 81.1253 47.3321 81.2631 47.1485C81.5847 46.7353 81.9522 46.368 82.3656 46.0926C82.5494 45.9548 82.6872 45.9548 82.7791 46.0926Z" fill="black"/>
    <path fill-rule="evenodd" clip-rule="evenodd" d="M80.6662 42.6959C80.804 42.65 80.9418 42.6959 80.9877 42.8337C81.4471 43.7977 81.8606 44.7618 82.274 45.7718C82.274 45.8177 82.3199 45.8177 82.3199 45.8636C82.4118 46.0473 82.5037 46.2309 82.5037 46.4605C82.5496 46.5982 82.4577 46.7359 82.3199 46.7818C82.1821 46.8277 82.0443 46.7359 81.9984 46.5982C81.9524 46.4605 81.9065 46.3227 81.8146 46.1391C81.8146 46.0932 81.7687 46.0473 81.7687 46.0014C81.3552 45.0373 80.8959 44.0732 80.4824 43.0632C80.4824 42.8796 80.5743 42.7418 80.6662 42.6959Z" fill="black"/>
    <path fill-rule="evenodd" clip-rule="evenodd" d="M85.4887 41.0891C85.6265 41.0432 85.7643 41.135 85.8102 41.2727C86.0399 42.0991 86.2696 42.9255 86.4993 43.7518C86.5452 43.8895 86.4533 44.0273 86.3155 44.0732C86.1777 44.1191 86.0399 44.0273 85.994 43.8895C85.7643 43.0632 85.5346 42.2368 85.3049 41.4105C85.259 41.2727 85.3509 41.135 85.4887 41.0891Z" fill="black"/>
    <path fill-rule="evenodd" clip-rule="evenodd" d="M85.8574 44.1182C85.8574 43.9805 85.9952 43.8887 86.133 43.8887C87.2355 43.8887 88.384 44.2559 89.2109 45.0364C89.3027 45.1282 89.3027 45.3119 89.2109 45.4037C89.119 45.4955 88.9352 45.4955 88.8434 45.4037C88.1543 44.7609 87.0518 44.3937 86.0871 44.3937C85.9952 44.3937 85.8574 44.2559 85.8574 44.1182Z" fill="black"/>
    <path fill-rule="evenodd" clip-rule="evenodd" d="M91.0941 41.6855C91.2319 41.7773 91.2779 41.915 91.186 42.0527C90.451 43.2923 89.716 44.5777 88.981 45.8173C88.8891 45.955 88.7513 45.955 88.6135 45.9091C88.4757 45.8173 88.4757 45.6796 88.5216 45.5418C89.2566 44.3023 90.0376 43.0627 90.7266 41.7773C90.8185 41.6396 90.9563 41.5936 91.0941 41.6855Z" fill="black"/>
    <path fill-rule="evenodd" clip-rule="evenodd" d="M94.8607 46.093C94.9526 46.1848 94.9985 46.3226 94.9066 46.4603C94.9066 46.5062 94.8607 46.5062 94.8607 46.5521C94.2176 47.4703 93.5285 48.3885 92.8854 49.2607C92.7935 49.3526 92.6557 49.3985 92.5179 49.3067C92.426 49.2148 92.3801 49.0771 92.472 48.9394C93.161 48.0212 93.8041 47.1489 94.4473 46.2307C94.4473 46.1848 94.4932 46.1848 94.4932 46.1389C94.5851 46.0471 94.7688 46.0012 94.8607 46.093Z" fill="black"/>
    <path fill-rule="evenodd" clip-rule="evenodd" d="M97.1575 45.3583C97.2953 45.4501 97.2953 45.5878 97.2034 45.7256C96.7441 46.4142 96.1928 47.0569 95.6875 47.6996C95.5497 47.8833 95.4119 48.0669 95.2741 48.2046C95.1822 48.2965 95.0444 48.3424 94.9066 48.2506C94.8147 48.1587 94.7688 48.021 94.8606 47.8833C94.9984 47.6996 95.1362 47.516 95.2741 47.3324C95.7794 46.6896 96.2847 46.0469 96.7441 45.4042C96.8819 45.3124 97.0197 45.3124 97.1575 45.3583Z" fill="black"/>
    <path fill-rule="evenodd" clip-rule="evenodd" d="M94.9984 48.0669C95.0902 47.9751 95.274 47.9751 95.3659 48.1128C95.8712 48.6637 96.1468 49.3524 96.4224 49.9492C96.4684 50.041 96.5143 50.0869 96.5143 50.1787C96.5602 50.3165 96.5143 50.4542 96.3765 50.5001C96.2387 50.546 96.1009 50.5001 96.0549 50.3624C96.009 50.2706 95.963 50.2247 95.963 50.1328C95.6874 49.4901 95.4118 48.8933 94.9524 48.3883C94.8605 48.2965 94.9065 48.1587 94.9984 48.0669Z" fill="black"/>
    <path fill-rule="evenodd" clip-rule="evenodd" d="M92.2877 48.4345C92.4255 48.3427 92.5633 48.3886 92.6552 48.5263C92.7011 48.5722 92.7471 48.664 92.793 48.7099C93.3902 49.6281 94.1711 50.8218 94.3089 52.0154C94.3089 52.1531 94.2171 52.2909 94.0793 52.2909C93.9414 52.2909 93.8036 52.199 93.8036 52.0613C93.6658 50.9595 92.9768 49.9036 92.3336 48.9395C92.2877 48.8936 92.2877 48.8477 92.2418 48.8018C92.1499 48.664 92.1499 48.4804 92.2877 48.4345Z" fill="black"/>
    <path fill-rule="evenodd" clip-rule="evenodd" d="M93.6211 51.9698C93.6211 51.8321 93.7589 51.7402 93.8967 51.7402C94.9533 51.7861 96.0558 51.9239 97.1123 52.0616C97.2502 52.0616 97.342 52.1993 97.342 52.3371C97.342 52.4748 97.2042 52.5666 97.0664 52.5666C96.0098 52.4289 94.9533 52.2911 93.8967 52.2452C93.7589 52.2452 93.6211 52.1534 93.6211 51.9698Z" fill="black"/>
    <path fill-rule="evenodd" clip-rule="evenodd" d="M97.572 51.3264C97.7098 51.3264 97.8017 51.4641 97.8017 51.6018C97.7557 52.9791 97.6179 54.4023 97.4801 55.7796C97.4342 56.4223 97.3423 57.065 97.2963 57.7077C97.2963 57.8455 97.1585 57.9373 97.0207 57.9373C96.8829 57.9373 96.791 57.7996 96.791 57.6618C96.837 57.0191 96.9288 56.3764 96.9748 55.6877C97.1126 54.3105 97.2504 52.9332 97.2963 51.5559C97.3423 51.4182 97.4342 51.2805 97.572 51.3264Z" fill="black"/>
    <path fill-rule="evenodd" clip-rule="evenodd" d="M94.0351 57.0645C94.0811 56.9268 94.173 56.835 94.3108 56.835C95.4133 57.0186 96.5617 57.1104 97.7102 57.2022H97.7561C97.8939 57.2022 97.9858 57.34 97.9858 57.4777C97.9858 57.6154 97.848 57.7072 97.7102 57.7072H97.6642C96.5158 57.6154 95.3673 57.5236 94.2648 57.34C94.0811 57.2941 93.9892 57.2022 94.0351 57.0645Z" fill="black"/>
    <path fill-rule="evenodd" clip-rule="evenodd" d="M94.4012 55.688C94.5391 55.7339 94.6309 55.8716 94.585 56.0094C94.4012 56.698 94.0797 57.2489 93.7122 57.7998C93.5744 57.9835 93.4825 58.1671 93.3447 58.3507C93.115 58.718 92.8853 59.0394 92.6556 59.4066C92.5637 59.5444 92.4259 59.5903 92.2881 59.4985C92.1503 59.4525 92.1044 59.2689 92.1962 59.1312C92.4259 58.7639 92.6556 58.3507 92.9312 57.9835C93.0691 57.7998 93.1609 57.6162 93.2987 57.4784C93.6662 56.9275 93.9419 56.4225 94.1256 55.8257C94.1256 55.7339 94.2634 55.6421 94.4012 55.688Z" fill="black"/>
    <path fill-rule="evenodd" clip-rule="evenodd" d="M91.9671 58.7177C92.1049 58.6259 92.2427 58.6718 92.3346 58.8095C92.5184 59.1309 92.7481 59.4981 92.9318 59.8195C93.0237 60.0031 93.1155 60.1409 93.2074 60.3245C93.483 60.8295 93.8046 61.2886 94.1721 61.6559C94.264 61.7477 94.264 61.9313 94.1721 62.0231C94.0802 62.115 93.8965 62.115 93.8046 62.0231C93.3912 61.61 93.0696 61.0591 92.748 60.5541C92.6562 60.3704 92.5643 60.1868 92.4724 60.0031C92.2887 59.6818 92.1049 59.3604 91.9212 59.0391C91.8293 58.9472 91.8752 58.8095 91.9671 58.7177Z" fill="black"/>
    <path fill-rule="evenodd" clip-rule="evenodd" d="M88.1545 60.2326C88.2923 60.1867 88.4301 60.2786 88.476 60.4163C88.7517 61.4263 89.0273 62.3904 89.3029 63.4004C89.3488 63.5381 89.257 63.6758 89.1192 63.7217C88.9813 63.7676 88.8435 63.6758 88.7976 63.5381C88.522 62.5281 88.2463 61.564 87.9707 60.554C87.9707 60.4163 88.0166 60.2326 88.1545 60.2326Z" fill="black"/>
    <path fill-rule="evenodd" clip-rule="evenodd" d="M93.5286 61.6105C93.5746 61.7482 93.5286 61.886 93.4368 61.9778C92.7936 62.3451 92.1046 62.6664 91.4155 63.0337C91.3696 63.0337 91.3696 63.0796 91.3236 63.0796C90.6805 63.401 90.0374 63.7223 89.4402 64.0896C89.3024 64.1355 89.1646 64.0896 89.0727 63.9978C89.0268 63.8601 89.0727 63.7223 89.1646 63.6764C89.8077 63.3551 90.4508 62.9878 91.094 62.6664C91.1399 62.6664 91.1399 62.6205 91.1858 62.6205C91.8749 62.2532 92.518 61.9319 93.2071 61.5646C93.299 61.4269 93.4827 61.4728 93.5286 61.6105Z" fill="black"/>
    <path fill-rule="evenodd" clip-rule="evenodd" d="M95.9167 61.3341C95.2736 61.3341 94.5386 61.6096 93.8954 61.885C93.7576 61.9309 93.6198 61.885 93.5739 61.7473C93.5279 61.6096 93.5739 61.4718 93.7117 61.4259C94.3548 61.1505 95.1358 60.8291 95.9167 60.8291C96.0545 60.8291 96.1923 60.9209 96.1923 61.1046C96.1923 61.2882 96.0545 61.3341 95.9167 61.3341Z" fill="black"/>
    <path fill-rule="evenodd" clip-rule="evenodd" d="M94.0797 58.1205C94.2175 58.0746 94.3553 58.1206 94.4013 58.2124C94.5391 58.5337 94.7228 58.8092 94.8607 59.1305C95.0444 59.5437 95.2741 59.911 95.4578 60.3242C95.4578 60.3242 95.4578 60.3701 95.5038 60.3701C95.5956 60.5078 95.6416 60.6915 95.6875 60.8751C95.7335 61.0128 95.6416 61.1505 95.5038 61.1964C95.366 61.2424 95.2281 61.1505 95.1822 61.0128C95.1363 60.8751 95.0903 60.7833 95.0444 60.5996C95.0444 60.5996 95.0444 60.5537 94.9985 60.5537C94.8147 60.1405 94.585 59.7733 94.4013 59.406C94.2635 59.0846 94.0797 58.8092 93.9419 58.4878C93.896 58.3501 93.9878 58.2124 94.0797 58.1205Z" fill="black"/>
    <path fill-rule="evenodd" clip-rule="evenodd" d="M95.4119 56.9733C95.5497 57.0192 95.5957 57.2028 95.5497 57.2946C95.4119 57.616 95.2282 57.9374 95.0444 58.2128C94.8607 58.4883 94.6769 58.7637 94.5391 59.0851C94.4932 59.2228 94.3094 59.2687 94.2175 59.2228C94.0797 59.1769 94.0338 58.9933 94.0797 58.9015C94.2175 58.5801 94.4013 58.3046 94.585 57.9833C94.7688 57.7078 94.9525 57.4324 95.0904 57.111C95.1363 56.9733 95.2741 56.9274 95.4119 56.9733Z" fill="black"/>
    <path fill-rule="evenodd" clip-rule="evenodd" d="M99.4082 56.2841C99.4541 56.4218 99.4541 56.5596 99.3163 56.6514C99.1325 56.7432 98.9488 56.8809 98.7651 56.9728C98.3057 57.2023 97.8922 57.4778 97.4329 57.7532C97.2951 57.845 97.1573 57.7991 97.0654 57.6614C96.9735 57.5237 97.0194 57.3859 97.1573 57.2941C97.6166 57.0187 98.076 56.7432 98.5354 56.5137C98.7191 56.4218 98.9029 56.33 99.0866 56.1923C99.1785 56.1005 99.3163 56.1464 99.4082 56.2841Z" fill="black"/>
    <path fill-rule="evenodd" clip-rule="evenodd" d="M99.4084 50.729C99.5003 50.8208 99.5003 51.0045 99.4084 51.0963C98.995 51.5095 98.5356 51.8308 98.0763 52.1981C97.8925 52.3358 97.7088 52.4736 97.525 52.6113C97.4331 52.7031 97.2494 52.6572 97.1575 52.5654C97.0656 52.4736 97.1116 52.2899 97.2034 52.1981C97.3872 52.0604 97.6169 51.9227 97.8006 51.739C98.26 51.4177 98.6735 51.0963 99.041 50.729C99.1328 50.6372 99.3166 50.6372 99.4084 50.729Z" fill="black"/>
    <path fill-rule="evenodd" clip-rule="evenodd" d="M96.5608 50.1331C96.6527 50.2249 96.6068 50.4085 96.5149 50.5003C96.3312 50.6381 96.1015 50.7758 95.9177 50.9594C95.3665 51.3726 94.8152 51.7858 94.218 52.1072C94.0802 52.199 93.9424 52.1531 93.8505 52.0153C93.7587 51.8776 93.8046 51.7399 93.9424 51.6481C94.4937 51.3267 95.0449 50.9135 95.5962 50.5462C95.8258 50.4085 96.0096 50.2249 96.2393 50.0872C96.3312 49.9953 96.5149 50.0412 96.5608 50.1331Z" fill="black"/>
    <path fill-rule="evenodd" clip-rule="evenodd" d="M95.918 50.5921C95.9639 50.4543 96.1017 50.3625 96.2395 50.4084C96.8827 50.5921 97.5717 50.6839 98.2608 50.7298C98.3067 50.7298 98.3527 50.7298 98.3527 50.7298C98.5364 50.7298 98.7202 50.7757 98.9039 50.8216C99.0417 50.8675 99.0877 51.0052 99.0417 51.143C98.9958 51.2807 98.858 51.3266 98.7202 51.2807C98.5824 51.2348 98.4905 51.2348 98.3067 51.1889C98.2608 51.1889 98.2149 51.1889 98.1689 51.1889C97.4798 51.0971 96.7908 51.0052 96.0558 50.8216C95.9639 50.8675 95.918 50.7298 95.918 50.5921Z" fill="black"/>
    <path fill-rule="evenodd" clip-rule="evenodd" d="M99.1792 50.5459C99.317 50.5459 99.4089 50.6836 99.4089 50.8214C99.363 51.3723 99.363 51.9691 99.363 52.6118C99.317 54.1727 99.2711 55.8714 99.0873 57.2027C99.0873 57.3404 98.9495 57.4323 98.8117 57.4323C98.6739 57.4323 98.582 57.2945 98.582 57.1568C98.7198 55.8254 98.7658 54.1727 98.8117 52.6118C98.8117 51.9691 98.8576 51.3723 98.8576 50.8214C98.9036 50.6377 99.0414 50.5459 99.1792 50.5459Z" fill="black"/>
    <path fill-rule="evenodd" clip-rule="evenodd" d="M97.5716 45.0827C97.6175 45.2204 97.5716 45.3581 97.4797 45.404C96.4691 45.909 95.1828 46.414 94.4019 46.6895C94.2641 46.7354 94.1262 46.6436 94.0803 46.5059C94.0344 46.3681 94.1262 46.2304 94.2641 46.1845C94.9991 45.9549 96.2853 45.45 97.2959 44.945C97.3419 44.899 97.4797 44.9449 97.5716 45.0827Z" fill="black"/>
    <path fill-rule="evenodd" clip-rule="evenodd" d="M90.7265 42.2359C90.8184 42.144 91.0021 42.144 91.094 42.2359C91.1399 42.2818 91.2318 42.3736 91.2778 42.4195C92.4721 43.6131 93.7124 44.8527 94.769 46.184C94.8609 46.2759 94.8609 46.4595 94.7231 46.5513C94.6312 46.6431 94.4474 46.6431 94.3556 46.5054C93.299 45.174 92.1046 43.9804 90.8643 42.7868C90.8184 42.7409 90.7265 42.649 90.6806 42.6031C90.6346 42.5113 90.6346 42.3277 90.7265 42.2359Z" fill="black"/>
    <path fill-rule="evenodd" clip-rule="evenodd" d="M92.8397 41.2271C92.9316 41.1352 93.1153 41.1352 93.2072 41.2271C93.8503 41.8698 94.6313 42.6962 95.3663 43.4766C95.4122 43.5225 95.4581 43.5684 95.5041 43.6143C96.1931 44.3489 96.8363 45.0834 97.2956 45.5425C97.3875 45.6343 97.3875 45.818 97.2956 45.9098C97.2038 46.0016 97.02 46.0016 96.9281 45.9098C96.4228 45.4048 95.7797 44.7162 95.0906 43.9816C95.0447 43.9357 94.9987 43.8898 94.9528 43.8439C94.2178 43.0634 93.4828 42.2371 92.8397 41.5943C92.7019 41.4566 92.7019 41.3189 92.8397 41.2271Z" fill="black"/>
    <path fill-rule="evenodd" clip-rule="evenodd" d="M93.5281 41.3178C93.62 41.4556 93.5741 41.5933 93.4362 41.6851C92.6094 42.1901 91.8284 42.5115 90.9097 42.7869C90.7719 42.8328 90.6341 42.741 90.5881 42.6033C90.5422 42.4656 90.6341 42.3278 90.7719 42.2819C91.6447 42.0524 92.4256 41.6851 93.2066 41.226C93.2984 41.1801 93.4822 41.226 93.5281 41.3178Z" fill="black"/>
    <path fill-rule="evenodd" clip-rule="evenodd" d="M87.2816 40.1242C87.4194 40.0783 87.5573 40.1702 87.6032 40.3079C87.8329 41.272 87.9707 42.282 88.1085 43.2461C88.1085 43.3838 88.0166 43.5215 87.8788 43.5215C87.741 43.5215 87.6032 43.4297 87.6032 43.292C87.4654 42.3279 87.2816 41.3638 87.0979 40.3997C87.0519 40.3079 87.1438 40.1702 87.2816 40.1242Z" fill="black"/>
    <path fill-rule="evenodd" clip-rule="evenodd" d="M87.4648 43.2923C87.5108 43.1545 87.6486 43.0627 87.7864 43.1086C87.8323 43.1086 87.8783 43.1545 87.9702 43.1545C88.2458 43.2004 88.5673 43.2923 88.843 43.3841C89.2105 43.5218 89.532 43.7054 89.8077 44.0727C89.8995 44.2104 89.8536 44.3482 89.7617 44.44C89.6698 44.5318 89.4861 44.4859 89.3942 44.3941C89.2105 44.1645 88.9808 44.0268 88.7052 43.8891C88.4755 43.7973 88.1998 43.7513 87.9242 43.7054C87.8783 43.7054 87.7864 43.6595 87.7405 43.6595C87.5108 43.5677 87.4648 43.43 87.4648 43.2923Z" fill="black"/>
    <path fill-rule="evenodd" clip-rule="evenodd" d="M86.1328 41.5016C86.1787 41.6394 86.0869 41.7771 85.949 41.823C84.0656 42.328 82.0903 42.833 80.3446 43.6593C80.2068 43.7053 80.069 43.6593 80.0231 43.5216C79.9771 43.3839 80.0231 43.2462 80.1609 43.2003C81.9525 42.3739 83.9737 41.823 85.8572 41.3639C85.949 41.318 86.0868 41.3639 86.1328 41.5016Z" fill="black"/>
    <path fill-rule="evenodd" clip-rule="evenodd" d="M83.515 40.4462C83.6068 40.538 83.6068 40.7216 83.515 40.8135C83.1934 41.1348 82.8718 41.5021 82.5503 41.8235C81.9531 42.4662 81.3559 43.063 80.7128 43.6139C80.6209 43.7057 80.4372 43.7057 80.3453 43.568C80.2534 43.4762 80.2534 43.2925 80.3912 43.2007C80.9884 42.6498 81.5856 42.0989 82.1828 41.4562C82.5043 41.1348 82.8259 40.7675 83.1934 40.4003C83.2393 40.3544 83.4231 40.3544 83.515 40.4462Z" fill="black"/>
    <path fill-rule="evenodd" clip-rule="evenodd" d="M87.9251 40.3536C87.9251 40.4913 87.8332 40.629 87.6954 40.629C87.0523 40.7209 86.0876 40.9045 85.1229 41.0881C84.9851 41.134 84.8932 41.134 84.7554 41.1799C83.8826 41.3636 83.0557 41.5472 82.3667 41.639C82.2289 41.6849 82.091 41.5472 82.091 41.4095C82.0451 41.2718 82.1829 41.134 82.3207 41.134C82.9639 41.0422 83.8367 40.8586 84.7095 40.6749C84.8473 40.629 84.9392 40.629 85.077 40.5831C86.0417 40.3995 87.0064 40.1699 87.6954 40.0781C87.7873 40.124 87.8792 40.2159 87.9251 40.3536Z" fill="black"/>
    <path fill-rule="evenodd" clip-rule="evenodd" d="M87.5563 40.1252C87.6481 40.217 87.6022 40.4006 87.5103 40.4924C86.8212 40.9974 86.1781 41.5483 85.5809 42.1911C85.4891 42.2829 85.3053 42.2829 85.2134 42.1911C85.1216 42.0993 85.1216 41.9156 85.2134 41.8238C85.8566 41.227 86.4997 40.5843 87.2347 40.0793C87.3266 39.9415 87.4644 39.9874 87.5563 40.1252Z" fill="black"/>
    <path fill-rule="evenodd" clip-rule="evenodd" d="M76.9914 47.9756C76.9914 47.8379 77.1292 47.7461 77.2671 47.7461C77.4049 47.7461 77.5427 47.7461 77.6805 47.792C78.783 47.8838 80.2071 48.0215 81.3555 48.0215C81.4933 48.0215 81.6311 48.1134 81.6311 48.297C81.6311 48.4347 81.5393 48.5725 81.3555 48.5725C80.2071 48.5725 78.7371 48.4347 77.6346 48.3429C77.4967 48.3429 77.3589 48.297 77.2211 48.297C77.0833 48.2511 76.9455 48.1134 76.9914 47.9756Z" fill="black"/>
    <path fill-rule="evenodd" clip-rule="evenodd" d="M77.7268 47.2412C77.589 47.2412 77.4512 47.333 77.4512 47.5167V53.1176C77.4512 53.2553 77.543 53.393 77.7268 53.393C77.8646 53.393 78.0024 53.3012 78.0024 53.1176V47.5167C78.0024 47.333 77.8646 47.2412 77.7268 47.2412Z" fill="black"/>
    <path fill-rule="evenodd" clip-rule="evenodd" d="M79.2427 52.9786C78.6915 52.9786 78.1402 52.9786 77.7268 52.9786C77.589 52.9786 77.4512 52.8868 77.4512 52.7491C77.4512 52.6114 77.543 52.4736 77.6809 52.4736C78.0943 52.4736 78.6455 52.4736 79.2427 52.4736H79.2887C79.8399 52.4736 80.3912 52.4736 80.7587 52.4736C80.8965 52.4736 81.0343 52.5655 81.0343 52.7032C81.0343 52.8409 80.9424 52.9786 80.8046 52.9786C80.4371 52.9786 79.8859 52.9786 79.3346 52.9786C79.2887 52.9786 79.2887 52.9786 79.2427 52.9786Z" fill="black"/>
    <path fill-rule="evenodd" clip-rule="evenodd" d="M80.6672 52.1982C80.805 52.1982 80.9428 52.2901 80.9428 52.4278C80.9887 53.2542 81.1265 53.851 81.3103 54.4019C81.494 54.9528 81.8156 55.4119 82.275 55.9628C82.3669 56.0546 82.3669 56.2382 82.275 56.3301C82.1831 56.4219 81.9994 56.4219 81.9075 56.3301C81.4022 55.7792 81.0806 55.2282 80.8509 54.6314C80.6212 54.0346 80.5294 53.346 80.4375 52.5196C80.3916 52.336 80.4834 52.1982 80.6672 52.1982Z" fill="black"/>
    <path fill-rule="evenodd" clip-rule="evenodd" d="M82.4578 55.4114C82.5497 55.5032 82.5956 55.641 82.5038 55.7787C82.0903 56.2837 81.6769 56.7887 81.2175 57.2937C81.1716 57.3396 81.1256 57.3855 81.1256 57.4314C80.7122 57.8905 80.3447 58.3496 79.9772 58.8087C79.8853 58.9005 79.7475 58.9464 79.6097 58.8546C79.5178 58.7628 79.4719 58.625 79.5638 58.4873C79.9313 58.0282 80.3447 57.5691 80.7122 57.0641C80.7581 57.0182 80.8041 56.9723 80.8041 56.9264C81.2175 56.4214 81.6769 55.9164 82.0903 55.4114C82.2281 55.3655 82.3659 55.3196 82.4578 55.4114Z" fill="black"/>
    <path fill-rule="evenodd" clip-rule="evenodd" d="M79.8384 57.6616C79.9303 57.5698 80.1141 57.5698 80.2059 57.7076C80.6194 58.1666 81.0328 58.6717 81.4462 59.1307L81.4922 59.1766C81.9056 59.6357 82.2731 60.0948 82.6866 60.5539C82.9622 60.8753 83.1919 61.1048 83.5134 61.3803C83.6053 61.4721 83.6512 61.6098 83.5594 61.7476C83.4675 61.8394 83.3297 61.8853 83.1919 61.7935C82.8244 61.518 82.5487 61.2426 82.2731 60.9212C81.8597 60.4621 81.4922 60.003 81.0787 59.5439L81.0328 59.498C80.6194 59.0389 80.2059 58.5339 79.8384 58.0748C79.7466 57.8912 79.7466 57.7535 79.8384 57.6616Z" fill="black"/>
    <path fill-rule="evenodd" clip-rule="evenodd" d="M85.9943 58.6255C86.0862 58.7173 86.0862 58.901 85.9943 58.9928C85.5809 59.3601 85.2134 59.7732 84.7999 60.1405C84.3406 60.5996 83.8352 61.0587 83.3759 61.5178C83.284 61.6096 83.1002 61.6096 83.0084 61.5178C82.9165 61.426 82.9165 61.2423 83.0084 61.1505C83.4677 60.6914 83.9731 60.2323 84.4324 59.7732C84.8459 59.406 85.2134 58.9928 85.6268 58.6255C85.7187 58.5337 85.9024 58.5337 85.9943 58.6255Z" fill="black"/>
    <path fill-rule="evenodd" clip-rule="evenodd" d="M85.3052 59.0393C85.3971 58.9475 85.5349 58.9016 85.6727 58.9934C86.0862 59.3148 86.5456 59.682 87.0509 59.9575C87.5562 60.233 88.0615 60.4166 88.5209 60.3248C88.6587 60.2789 88.7965 60.4166 88.7965 60.5543C88.8424 60.692 88.7046 60.8298 88.5668 60.8298C87.9237 60.9216 87.3265 60.6921 86.7752 60.4166C86.224 60.0952 85.7187 59.682 85.3052 59.4066C85.2134 59.3148 85.2134 59.1311 85.3052 59.0393Z" fill="black"/>
    <path fill-rule="evenodd" clip-rule="evenodd" d="M85.7201 61.1969C85.766 61.3347 85.6741 61.4724 85.5823 61.5183C84.8013 61.7938 84.0663 61.8397 83.2854 61.9315C83.1476 61.9315 83.0098 61.8397 83.0098 61.7019C83.0098 61.5642 83.1016 61.4265 83.2395 61.4265C84.0204 61.3806 84.7095 61.2888 85.3985 61.0592C85.5363 61.0133 85.6741 61.0592 85.7201 61.1969Z" fill="black"/>
    <path fill-rule="evenodd" clip-rule="evenodd" d="M86.8223 60.0489C86.8682 60.1866 86.7764 60.3243 86.6386 60.3703C86.5467 60.3703 86.4548 60.4162 86.3629 60.508C86.2711 60.5998 86.1792 60.7375 86.0873 60.8753C85.9495 61.1507 85.8117 61.4721 85.7198 61.7016C85.7198 61.7016 85.7198 61.7475 85.6739 61.7475C85.6279 61.8853 85.4901 61.9312 85.3523 61.8853C85.2145 61.8394 85.1686 61.7016 85.2145 61.5639C85.2145 61.5639 85.2145 61.518 85.2604 61.518C85.3523 61.2884 85.4901 60.9212 85.6279 60.5998C85.7198 60.4162 85.8576 60.2325 85.9954 60.0948C86.1332 59.9571 86.317 59.8193 86.5007 59.7734C86.6845 59.8193 86.8223 59.9112 86.8223 60.0489Z" fill="black"/>
    <path fill-rule="evenodd" clip-rule="evenodd" d="M79.931 45.771C80.0229 45.8628 80.0688 46.0006 79.977 46.1383C79.3338 46.8728 78.6907 47.6074 77.9098 48.2042C77.8179 48.296 77.6341 48.2501 77.5423 48.1583C77.4504 48.0665 77.4963 47.8828 77.5882 47.791C78.3232 47.2401 78.9663 46.5515 79.5635 45.8169C79.6554 45.6792 79.8391 45.6792 79.931 45.771Z" fill="black"/>
    <path fill-rule="evenodd" clip-rule="evenodd" d="M78.0017 46.4134C78.0477 46.2756 78.1855 46.1838 78.3233 46.2297C78.9205 46.3674 80.2527 46.5511 81.1255 46.6888C81.3092 46.7347 81.493 46.7347 81.6308 46.7347C81.7686 46.7347 81.8605 46.8724 81.8605 47.0102C81.8605 47.1479 81.7227 47.2397 81.5848 47.2397C81.447 47.2397 81.3092 47.1938 81.1255 47.1938C80.2527 47.0561 78.8745 46.8724 78.2773 46.7347C78.0477 46.6888 77.9558 46.5511 78.0017 46.4134Z" fill="black"/>
    <path fill-rule="evenodd" clip-rule="evenodd" d="M84.2953 48.7559C84.4331 48.7559 84.5709 48.8477 84.5709 49.0313C84.5709 50.179 84.525 51.0972 84.4791 51.9236C84.4791 51.9695 84.4791 51.9695 84.4791 52.0154C84.4331 52.8418 84.3872 53.6681 84.3872 54.6322C84.3872 54.77 84.2953 54.9077 84.1116 54.9077C83.9278 54.9077 83.8359 54.8159 83.8359 54.6322C83.8359 53.6222 83.8819 52.8418 83.9278 52.0154C83.9278 51.9695 83.9278 51.9695 83.9278 51.9236C83.9737 51.0513 84.0197 50.179 84.0197 49.0313C84.0197 48.8936 84.1575 48.7559 84.2953 48.7559Z" fill="black"/>
    <path fill-rule="evenodd" clip-rule="evenodd" d="M83.6074 53.3003C83.6992 53.2085 83.883 53.2085 83.9749 53.3003C84.8936 54.3103 85.8124 55.3203 86.823 56.1926C86.9149 56.2844 86.9149 56.468 86.823 56.5599C86.7311 56.6517 86.5474 56.6517 86.4555 56.5599C85.4449 55.6417 84.4802 54.6317 83.5614 53.6217C83.5155 53.5299 83.5155 53.3921 83.6074 53.3003Z" fill="black"/>
    <path fill-rule="evenodd" clip-rule="evenodd" d="M90.9557 55.3206C91.0016 55.4583 90.9098 55.596 90.772 55.6419C88.9804 56.1469 87.6941 56.4224 85.9026 56.6519C85.7648 56.6519 85.627 56.5601 85.627 56.4224C85.627 56.2847 85.7188 56.1469 85.8566 56.1469C87.6482 55.8715 88.8885 55.6419 90.6341 55.1369C90.772 55.091 90.9098 55.1829 90.9557 55.3206Z" fill="black"/>
    <path fill-rule="evenodd" clip-rule="evenodd" d="M91.2774 50.5459C91.4152 50.5459 91.5071 50.6836 91.5071 50.8214C91.3693 51.6018 91.2315 52.3823 91.0937 53.1627C91.0477 53.3004 91.0477 53.4841 91.0018 53.6218C90.818 54.54 90.6802 55.5041 90.5424 56.4223C90.5424 56.56 90.4046 56.6518 90.2668 56.6518C90.129 56.6518 90.0371 56.5141 90.0371 56.3764C90.1749 55.4123 90.3127 54.4941 90.4965 53.53C90.5424 53.3923 90.5424 53.2086 90.5884 53.0709C90.7262 52.2904 90.864 51.51 91.0018 50.7295C91.0018 50.6377 91.1396 50.5459 91.2774 50.5459Z" fill="black"/>
    <path fill-rule="evenodd" clip-rule="evenodd" d="M87.0976 47.562C87.1895 47.4702 87.3732 47.4702 87.4651 47.6079C87.9245 48.1589 88.3838 48.6639 88.8432 49.2148C89.716 50.2248 90.6348 51.2807 91.4617 52.3366C91.5535 52.4284 91.5535 52.612 91.4157 52.7039C91.3238 52.7957 91.1401 52.7957 91.0482 52.6579C90.2213 51.602 89.3026 50.592 88.4298 49.582C87.9704 49.0311 87.511 48.5261 87.0517 47.9752C87.0057 47.7916 87.0057 47.6539 87.0976 47.562Z" fill="black"/>
    <path fill-rule="evenodd" clip-rule="evenodd" d="M88.8894 48.066C88.9353 48.2037 88.8894 48.3414 88.7516 48.3873C87.1438 49.1219 85.49 49.6728 83.8363 50.2237C83.6066 50.3155 83.4228 50.3614 83.1932 50.4532C83.0553 50.4991 82.9175 50.4073 82.8716 50.3155C82.8257 50.1778 82.9175 50.04 83.0094 49.9941C83.2391 49.9023 83.4228 49.8564 83.6525 49.7646C85.3063 49.2137 86.96 48.6628 88.5219 47.9282C88.7057 47.8823 88.8435 47.9741 88.8894 48.066Z" fill="black"/>
    <path fill-rule="evenodd" clip-rule="evenodd" d="M86.4084 48.7559C86.5463 48.7559 86.6841 48.8477 86.6841 49.0313V53.1172C86.6841 53.255 86.5922 53.3927 86.4084 53.3927C86.2706 53.3927 86.1328 53.3009 86.1328 53.1172V49.0313C86.1328 48.8936 86.2247 48.7559 86.4084 48.7559Z" fill="black"/>
    <path fill-rule="evenodd" clip-rule="evenodd" d="M85.9947 52.8872C86.0866 52.7954 86.2703 52.7954 86.3622 52.8872C87.1891 53.7136 87.8322 54.2186 88.6591 54.8613C88.8888 55.0449 89.1185 55.2286 89.3481 55.4122C89.44 55.504 89.486 55.6418 89.3941 55.7795C89.3022 55.8713 89.1644 55.9172 89.0266 55.8254C88.7969 55.6418 88.5672 55.4581 88.3375 55.2745C87.5106 54.6318 86.8675 54.0809 85.9947 53.2545C85.9028 53.1627 85.9028 53.0249 85.9947 52.8872Z" fill="black"/>
    <path fill-rule="evenodd" clip-rule="evenodd" d="M86.9133 52.5191C87.0052 52.6109 87.0512 52.7945 86.9593 52.8863C86.5918 53.3454 85.9946 53.575 85.3974 53.7586C85.0299 53.8504 84.6165 53.9422 84.2949 54.0341C84.1112 54.08 83.9274 54.1259 83.7437 54.1259C83.6059 54.1718 83.468 54.08 83.4221 53.9422C83.3762 53.8045 83.468 53.6668 83.6059 53.6209C83.7896 53.575 83.9734 53.5291 84.203 53.4832C84.5246 53.4372 84.8921 53.3454 85.2137 53.2536C85.7649 53.1159 86.2243 52.8863 86.4999 52.565C86.6837 52.4273 86.8215 52.4273 86.9133 52.5191Z" fill="black"/>
    <path fill-rule="evenodd" clip-rule="evenodd" d="M87.9235 43.0631C87.9694 43.2009 87.9694 43.3386 87.8316 43.4304C87.3263 43.7059 86.821 43.9813 86.3157 44.3027C86.1779 44.3945 86.0401 44.3486 85.9482 44.2109C85.8563 44.0731 85.9023 43.9354 86.0401 43.8436C86.5454 43.5222 87.0507 43.2468 87.556 42.9254C87.7398 42.8795 87.8776 42.9254 87.9235 43.0631Z" fill="black"/>
    <path fill-rule="evenodd" clip-rule="evenodd" d="M95.6878 47.7461C95.7337 47.8839 95.6878 48.0216 95.55 48.0675C94.5394 48.5266 93.5287 48.9857 92.4722 49.3529C92.3344 49.3989 92.1966 49.307 92.1506 49.1693C92.1047 49.0316 92.1966 48.8939 92.3344 48.8479C93.345 48.5266 94.3556 48.0675 95.3662 47.6084C95.5041 47.6084 95.6419 47.6543 95.6878 47.7461Z" fill="black"/>
    <path d="M92.3797 44.1191C92.2879 44.1191 92.196 44.0731 92.15 43.9813C92.1041 43.8436 92.15 43.7518 92.2878 43.7059C92.6553 43.5681 93.0228 43.4304 93.3903 43.2927C93.7578 43.155 94.1253 43.0631 94.4928 42.9254C94.6307 42.8795 94.7225 42.9254 94.7685 43.0631C94.8144 43.2009 94.7685 43.2927 94.6307 43.3386C94.2632 43.4763 93.8957 43.6141 93.5282 43.7518C93.1607 43.8895 92.7932 43.9813 92.4257 44.1191C92.4257 44.1191 92.4257 44.1191 92.3797 44.1191Z" fill="black"/>
    <path d="M93.5282 45.6797C93.4363 45.6797 93.3444 45.6337 93.2985 45.5419C93.2525 45.4042 93.2985 45.3124 93.4363 45.2665C94.355 44.8992 95.1819 44.6237 96.0088 44.2565C96.1466 44.2106 96.2385 44.2565 96.3303 44.3942C96.3763 44.5319 96.3303 44.6237 96.1925 44.7156C95.3657 45.0369 94.5388 45.4042 93.62 45.7256C93.5741 45.6797 93.5741 45.6797 93.5282 45.6797Z" fill="black"/>
    <path d="M84.3412 51.6023C84.2494 51.6023 84.1575 51.5104 84.1116 51.4186C84.0656 51.2809 84.1575 51.1891 84.2953 51.1432L84.5709 51.0973C85.0762 50.9595 85.6275 50.8677 86.0869 50.73C86.2247 50.6841 86.3165 50.7759 86.3625 50.8677C86.4084 51.0054 86.3165 51.0973 86.2247 51.1432C85.7194 51.2809 85.1681 51.4186 84.6628 51.5563L84.3872 51.6023H84.3412Z" fill="black"/>
    <path d="M85.5349 55.228C85.443 55.228 85.3511 55.1821 85.3052 55.0444C85.2592 54.9067 85.3511 54.8148 85.443 54.7689C85.9943 54.5853 86.8671 54.3098 87.7399 54.1262C87.8777 54.0803 87.9696 54.1721 88.0155 54.3098C88.0614 54.4476 87.9696 54.5394 87.8317 54.5853C86.9589 54.7689 86.1321 55.0444 85.5349 55.228C85.5808 55.228 85.5349 55.228 85.5349 55.228Z" fill="black"/>
    <path d="M92.2883 59.4066C92.1964 59.4066 92.0586 59.3148 92.0586 59.223C92.0586 59.0852 92.1505 58.9934 92.2423 58.9475C92.9773 58.8557 93.7123 58.7639 94.3555 58.3966C94.4473 58.3507 94.5852 58.3507 94.677 58.4884C94.723 58.5802 94.723 58.718 94.5852 58.8098C93.8502 59.223 93.0692 59.3148 92.2883 59.4066Z" fill="black"/>
    <path d="M97.526 54.9539C97.4341 54.9539 97.3422 54.908 97.3422 54.8162C97.2963 54.7244 97.3422 54.5867 97.4341 54.4948L97.7097 54.3571C98.1691 54.1276 98.5825 53.9439 98.95 53.6226C99.0419 53.5308 99.1797 53.5308 99.2716 53.6226C99.3635 53.7144 99.3635 53.8521 99.2716 53.9439C98.8582 54.3112 98.3988 54.5408 97.9394 54.7703L97.6638 54.908C97.6179 54.9539 97.5719 54.9539 97.526 54.9539Z" fill="black"/>
    <path d="M83.2397 42.4654C83.1478 42.4654 83.1019 42.4195 83.0559 42.3736C82.9641 42.2818 83.01 42.1441 83.1019 42.0522C83.6531 41.685 84.1125 41.3177 84.5259 40.9963C84.6178 40.9045 84.7556 40.9504 84.8475 41.0422C84.9394 41.1341 84.8934 41.2718 84.8016 41.3636C84.3881 41.685 83.9288 42.0522 83.3775 42.4195C83.3316 42.4654 83.2856 42.4654 83.2397 42.4654Z" fill="black"/>
    <path d="M25.5873 81.3049C25.2198 81.3049 24.8064 81.3049 24.393 81.3049H23.0148C22.877 81.3049 22.7852 81.2131 22.7852 81.0753C22.7852 80.9376 22.877 80.8458 23.0148 80.8458H24.393C28.9867 80.8458 31.3295 80.8458 34.9586 79.9276C34.4992 79.6981 34.0858 79.3767 33.948 78.9635C33.8102 78.5963 33.8561 78.229 34.0398 77.9076C34.7748 76.5763 37.7148 75.8417 38.7255 75.6122L38.8633 75.5663C38.9092 75.5663 44.192 74.2808 44.8811 75.1531C44.973 75.2449 45.0648 75.4285 44.927 75.704C44.3298 76.8976 42.5842 77.9994 39.782 78.9635C38.6795 79.3308 37.7148 79.6522 36.7961 79.9276C37.3933 80.0194 37.9905 80.0194 38.4498 80.0653C38.7255 80.0653 38.9552 80.0653 39.1389 80.1113C43.457 80.3867 47.6833 80.4785 51.7258 80.3408C54.0686 80.249 55.8602 80.0654 57.422 79.9276C60.0405 79.6522 62.2914 79.4685 66.0583 79.744C66.1961 79.744 66.288 79.8817 66.288 79.9735C66.288 80.0653 66.1502 80.2031 66.0583 80.2031C62.3373 79.9276 60.1323 80.1572 57.5139 80.3867C55.952 80.5244 54.1605 80.7081 51.8177 80.7999C47.7292 80.9376 43.503 80.8458 39.1389 80.5703C38.9552 80.5703 38.7255 80.5703 38.4958 80.5244C37.7608 80.4785 36.7042 80.4785 35.8314 80.249C32.0645 81.2131 29.7217 81.3049 25.5873 81.3049ZM43.7786 75.2908C42.6302 75.2908 40.4711 75.6581 38.9552 76.0254L38.8173 76.0713C36.3367 76.6681 34.8667 77.4026 34.4533 78.1372C34.3155 78.3667 34.3155 78.5963 34.4073 78.8258C34.5911 79.2849 35.1423 79.5603 35.7855 79.744C36.888 79.4226 38.1742 79.0554 39.6442 78.5504C42.3086 77.6781 43.9623 76.6222 44.5136 75.5204C44.5595 75.4744 44.5595 75.4285 44.5595 75.4285C44.4677 75.3367 44.192 75.2908 43.7786 75.2908Z" fill="black"/>
    <path d="M62.9799 82.4528C62.934 82.4528 62.8421 82.4069 62.7962 82.361C62.7043 82.2691 62.7502 82.1314 62.8421 82.0396C63.5771 81.4428 64.404 80.846 65.2768 80.1573C66.8387 78.9637 68.4924 77.7242 69.9624 76.5305C70.0543 76.4387 70.1921 76.4846 70.284 76.5764C70.3759 76.6682 70.3299 76.806 70.238 76.8978C68.768 78.0914 67.1143 79.331 65.5524 80.5246C64.6796 81.1673 63.8527 81.8101 63.1177 82.4069C63.0718 82.4528 63.0259 82.4528 62.9799 82.4528Z" fill="black"/>
    <path d="M91.0016 77.4025H67.4816C67.3438 77.4025 67.252 77.3106 67.252 77.1729C67.252 77.0352 67.3438 76.9434 67.4816 76.9434H91.0016C91.1395 76.9434 91.2313 77.0352 91.2313 77.1729C91.2313 77.3106 91.1395 77.4025 91.0016 77.4025Z" fill="black"/>
    <path d="M69.365 82.4064C66.8384 82.4064 64.3578 82.4064 61.8313 82.3146C61.6934 82.3146 61.6016 82.2227 61.6016 82.085C61.6016 81.9473 61.6934 81.8555 61.8313 81.8555C66.8384 81.9932 71.8916 81.9473 76.8528 81.9014C79.3334 81.9014 81.86 81.8555 84.3406 81.8555C84.4784 81.8555 84.5703 81.9473 84.5703 82.085C84.5703 82.2227 84.4784 82.3146 84.3406 82.3146C81.86 82.3146 79.3334 82.3146 76.8528 82.3605C74.3722 82.3605 71.8456 82.4064 69.365 82.4064Z" fill="black"/>
    <path d="M82.9174 82.2695C82.8255 82.2695 82.7796 82.2236 82.7337 82.1777C82.6418 82.0859 82.6877 81.9481 82.7796 81.8563C83.2849 81.4891 83.7902 81.1218 84.2955 80.7545C86.3627 79.2854 88.5218 77.7704 90.4052 76.0718C90.4971 75.98 90.6349 75.98 90.7268 76.0718C90.8187 76.1636 90.8187 76.3013 90.7268 76.3932C88.7974 78.0918 86.6384 79.6068 84.5712 81.1218C84.0659 81.4891 83.5605 81.8563 83.0552 82.2236C83.0093 82.2695 82.9634 82.2695 82.9174 82.2695Z" fill="black"/>
    <path d="M62.8426 86.2168C62.7507 86.2168 62.6588 86.125 62.6129 86.0332C62.3832 84.8855 62.4751 83.7377 62.567 82.5441L62.6129 82.085C62.6129 81.9473 62.7507 81.8555 62.8426 81.8555C62.9804 81.8555 63.0723 81.9932 63.0723 82.085L63.0263 82.5441C62.9345 83.6918 62.8426 84.7936 63.0723 85.8955C63.0723 86.0791 63.0263 86.1709 62.8426 86.2168C62.8885 86.2168 62.8426 86.2168 62.8426 86.2168Z" fill="black"/>
    <path d="M74.3267 86.3546C70.6058 86.3546 66.8389 86.3087 62.4289 86.2169C62.2911 86.2169 62.1992 86.1251 62.1992 85.9874C62.1992 85.8496 62.2911 85.7578 62.4289 85.7578C70.468 85.8955 76.302 85.9874 83.6061 85.7578C83.7439 85.7578 83.8358 85.8496 83.8358 85.9874C83.8358 86.1251 83.7439 86.2169 83.6061 86.2169C80.3445 86.3087 77.3586 86.3546 74.3267 86.3546Z" fill="black"/>
    <path d="M83.1926 86.8137C83.0548 86.8137 82.9629 86.7219 82.9629 86.5842V81.7637C82.9629 81.626 83.0548 81.5342 83.1926 81.5342C83.3304 81.5342 83.4223 81.626 83.4223 81.7637V86.5842C83.4223 86.7219 83.3304 86.8137 83.1926 86.8137Z" fill="black"/>
    <path d="M89.3937 81.9017C89.2559 81.9017 89.1641 81.8099 89.1641 81.6722V76.2549C89.1641 76.1172 89.2559 76.0254 89.3937 76.0254C89.5316 76.0254 89.6234 76.1172 89.6234 76.2549V81.6722C89.6234 81.8099 89.5316 81.9017 89.3937 81.9017Z" fill="black"/>
    <path d="M82.9623 86.4475C82.8705 86.4475 82.8245 86.4016 82.7786 86.3556C82.6867 86.2638 82.7327 86.1261 82.8245 86.0343C83.3298 85.667 83.8352 85.2997 84.3405 84.9325C86.7752 83.2338 89.2558 81.4434 91.3689 79.3316C91.4608 79.2397 91.5986 79.2397 91.6905 79.3316C91.7823 79.4234 91.7823 79.5611 91.6905 79.6529C89.5314 81.8106 87.0508 83.5552 84.6161 85.2997C84.1108 85.667 83.6055 86.0343 83.1002 86.4016C83.0542 86.4475 83.0083 86.4475 82.9623 86.4475Z" fill="black"/>
    <path d="M115.624 81.3044C115.624 81.3044 115.578 81.3044 115.624 81.3044C115.21 81.2585 114.751 81.1667 114.245 81.1208C113.051 80.983 111.627 80.8453 110.387 80.4321C109.422 80.7535 108.319 80.8453 107.401 80.9371H107.263C104.828 81.1208 102.21 81.1667 98.7185 80.983C98.0294 80.9371 97.2944 80.8912 96.5594 80.8912C93.6654 80.7076 90.3579 80.5239 86.9126 81.1667C86.7748 81.1667 86.6829 81.1208 86.6369 80.983C86.591 80.8453 86.6829 80.7535 86.8207 80.7076C90.3579 80.0189 93.6654 80.2485 96.5594 80.3862C97.2944 80.4321 98.0294 80.478 98.7185 80.478C102.164 80.6617 104.782 80.6158 107.171 80.4321H107.309C108.044 80.3862 108.825 80.2944 109.606 80.1108C108.871 79.7894 108.274 79.3762 107.952 78.7794C107.814 78.504 107.86 78.2744 107.906 78.1367C108.274 77.4021 110.019 77.2185 110.019 77.2185C110.938 77.1267 112.086 77.448 112.408 78.1367C112.546 78.458 112.546 78.963 111.811 79.6058C111.581 79.7894 111.305 79.973 111.03 80.1108C112.086 80.3862 113.281 80.524 114.245 80.6158C114.797 80.6617 115.256 80.7076 115.624 80.7994C115.761 80.7994 115.853 80.9371 115.807 81.0749C115.853 81.2126 115.715 81.3044 115.624 81.3044ZM110.387 77.7235C110.295 77.7235 110.203 77.7235 110.111 77.7235C109.606 77.7694 108.503 78.0449 108.319 78.4121C108.274 78.458 108.274 78.5039 108.319 78.6417C108.687 79.2844 109.422 79.6976 110.295 79.973C110.754 79.7894 111.122 79.6058 111.489 79.2844C111.765 79.0549 112.086 78.6876 111.949 78.3662C111.857 77.953 111.076 77.7235 110.387 77.7235Z" fill="black"/>
    <path d="M113.466 82.4978C113.375 82.4978 113.283 82.4519 113.237 82.3601C113.191 82.2683 113.237 82.1306 113.329 82.0387C116.912 80.3401 120.403 78.366 123.802 76.4378L125.456 75.5196C125.548 75.4737 125.686 75.4737 125.778 75.6115C125.824 75.7033 125.824 75.841 125.686 75.9328L124.032 76.851C120.633 78.7792 117.141 80.7533 113.512 82.4519C113.512 82.4978 113.512 82.4978 113.466 82.4978Z" fill="black"/>
    <path d="M129.775 82.2236C129.729 82.2236 129.729 82.2236 129.683 82.2236C127.064 81.2136 125.778 78.8263 124.584 76.5308L124.446 76.2554C124.4 76.1636 124.446 76.0258 124.538 75.934C124.63 75.8881 124.767 75.934 124.859 76.0258L124.997 76.3013C126.191 78.5508 127.386 80.8463 129.866 81.7645C130.004 81.8104 130.05 81.9481 130.004 82.0399C129.958 82.1777 129.866 82.2236 129.775 82.2236Z" fill="black"/>
    <path d="M121.78 91.4049C121.734 91.4049 121.643 91.359 121.597 91.3131C119.254 88.6503 115.487 83.8299 114.017 81.9017C113.925 81.8099 113.971 81.6721 114.063 81.5803C114.155 81.4885 114.293 81.5344 114.384 81.6262C115.9 83.5544 119.621 88.3749 121.964 91.0376C122.056 91.1294 122.056 91.2671 121.964 91.359C121.872 91.4049 121.826 91.4049 121.78 91.4049Z" fill="black"/>
    <path d="M121.642 91.4511C121.596 91.4511 121.504 91.4052 121.459 91.3593C121.367 91.2675 121.367 91.1297 121.505 91.0379C123.112 89.6607 124.766 88.5129 126.374 87.4111C127.844 86.4011 129.268 85.437 130.554 84.3352C130.646 84.2434 130.784 84.2893 130.876 84.3811C130.968 84.4729 130.922 84.6107 130.83 84.7025C129.498 85.8043 128.119 86.7684 126.604 87.8243C124.996 88.9261 123.342 90.0738 121.78 91.4052C121.734 91.4511 121.688 91.4511 121.642 91.4511Z" fill="black"/>
    <path d="M13.552 83.3702C13.4141 83.3702 13.3223 83.2784 13.3223 83.1407V74.6475C13.3223 74.5098 13.4141 74.418 13.552 74.418C13.6898 74.418 13.7816 74.5098 13.7816 74.6475V83.1407C13.7816 83.2784 13.6898 83.3702 13.552 83.3702Z" fill="black"/>
    <path d="M12.4044 83.371C12.3125 83.371 12.2666 83.3251 12.2206 83.2792C12.1288 83.1874 12.1747 83.0497 12.2666 82.9579C13.0016 82.4529 13.8744 81.856 14.8391 81.2592C15.9875 80.5247 17.2738 79.6983 18.4681 78.826C18.6519 78.6883 18.6519 78.6424 18.6519 78.6424C18.606 78.5965 18.2844 78.4588 18.0088 78.367C17.6872 78.2292 17.2738 78.0456 16.8603 77.816C16.3091 77.4947 15.8497 77.2651 15.3903 77.0356C14.2419 76.4388 13.3691 75.9338 12.2206 75.0156C12.1288 74.9238 12.1288 74.786 12.1747 74.6942C12.2666 74.6024 12.4044 74.6024 12.4963 74.6483C13.5988 75.5665 14.4716 76.0256 15.5741 76.6224C16.0335 76.852 16.4928 77.1274 17.0441 77.4488C17.4575 77.6783 17.825 77.816 18.1466 77.9538C18.6519 78.1833 19.0194 78.321 19.0653 78.6424C19.1113 78.872 18.8816 79.1015 18.6978 79.2392C17.5035 80.1115 16.2172 80.9379 15.0688 81.6724C14.1041 82.2692 13.2313 82.866 12.4963 83.371C12.4963 83.371 12.4503 83.371 12.4044 83.371Z" fill="black"/>
    <path d="M14.9754 86.9516C13.781 86.9516 12.4947 86.7679 11.2544 86.3088C8.59006 85.3907 7.57943 83.9216 6.52287 81.1211C6.43099 80.5702 6.29318 79.652 6.33912 78.6879C6.29318 78.642 6.24724 78.5961 6.24724 78.5502C5.87974 76.6679 7.48756 74.3725 8.17662 73.4543C10.106 70.9293 14.7457 71.1588 16.6751 71.3884C19.5691 71.7557 22.5091 74.2347 23.2901 77.0811C24.1629 80.1111 22.6929 82.9575 21.0851 84.6561C19.5691 86.1711 17.3641 86.9516 14.9754 86.9516ZM11.3004 72.1229C11.3004 72.2148 11.2085 72.2607 11.1626 72.3066C9.37099 72.8116 8.72787 73.4543 7.57943 75.2907C6.66068 76.7138 6.66068 79.5602 6.98224 81.0293C7.99287 83.692 8.91162 85.0234 11.4382 85.8957C15.0213 87.0893 18.6504 86.4925 20.7635 84.3348C22.3254 82.7738 23.6576 80.0652 22.8766 77.2188C22.0497 74.5561 19.2935 72.2148 16.5372 71.8934C15.3888 71.7557 13.2297 71.6179 11.3004 72.1229Z" fill="black"/>
    <path d="M123.893 89.3387C123.801 89.3387 123.709 89.2928 123.709 89.2009C123.663 89.1091 123.709 88.9714 123.801 88.8796C124.766 88.3746 125.593 87.9614 126.19 87.0891C126.695 86.4005 127.155 85.6659 127.339 84.8396C127.476 84.1968 127.43 83.6919 127.109 83.1409C126.971 82.8196 126.833 82.6818 126.787 82.6359C126.741 82.6359 126.741 82.6359 126.695 82.6359C126.603 82.6359 126.466 82.4982 126.466 82.4064C126.466 82.2687 126.603 82.1768 126.741 82.1768C126.787 82.1768 126.879 82.2228 126.925 82.2228C127.017 82.2228 127.155 82.2228 127.247 82.2228C127.339 82.2228 127.384 82.2228 127.476 82.2228C128.028 82.2228 128.487 82.1768 128.9 82.0391H128.946C128.992 82.0391 129.268 81.9014 129.36 81.8555C129.406 81.8096 129.452 81.8096 129.544 81.8096C129.681 81.8096 129.773 81.9014 129.773 82.0391C129.773 82.3146 129.222 82.4523 128.992 82.4982C128.579 82.6359 128.074 82.6818 127.476 82.6818C127.43 82.6818 127.43 82.6818 127.384 82.6818C127.43 82.7737 127.476 82.8655 127.568 83.0032C127.89 83.6 127.982 84.2428 127.798 84.9773C127.614 85.8955 127.063 86.6759 126.558 87.4105C125.868 88.3746 124.95 88.8796 123.985 89.3846C123.985 89.3387 123.939 89.3387 123.893 89.3387Z" fill="black"/>
    <path d="M65.9202 86.079C65.8743 86.079 65.8284 86.079 65.7824 86.0331C65.2312 85.6199 64.6799 85.2526 64.1287 84.8854C63.5774 84.5181 63.0262 84.1049 62.4749 83.7376C62.3831 83.6458 62.3371 83.5081 62.429 83.4163C62.5209 83.3244 62.6587 83.2785 62.7506 83.3704C63.3018 83.7376 63.853 84.1508 64.4043 84.5181C64.9555 84.8854 65.5068 85.2985 66.0581 85.6658C66.1499 85.7576 66.1959 85.8954 66.104 85.9872C66.058 86.0331 66.0121 86.079 65.9202 86.079Z" fill="black"/>
    <path d="M70.193 86.217C70.1471 86.217 70.1012 86.217 70.0552 86.1711C68.9068 85.2529 67.7584 84.4265 66.518 83.5543C66.0587 83.2329 65.6452 82.9115 65.1859 82.5902C65.094 82.4984 65.048 82.3606 65.1399 82.2688C65.2318 82.177 65.3696 82.1311 65.4615 82.2229C65.9209 82.5443 66.3343 82.8656 66.7937 83.187C67.988 84.0134 69.1824 84.8856 70.3309 85.8497C70.4227 85.9415 70.4227 86.0793 70.3768 86.1711C70.3309 86.1711 70.239 86.217 70.193 86.217Z" fill="black"/>
    <path d="M75.1546 86.2639C75.1087 86.2639 75.0627 86.2639 75.0627 86.218C73.6387 85.4375 72.2605 84.4734 70.9284 83.5553C70.423 83.188 69.9177 82.8666 69.4124 82.4994C69.3206 82.4075 69.2746 82.2698 69.3665 82.178C69.4584 82.0862 69.5962 82.0403 69.688 82.1321C70.1934 82.4534 70.6987 82.8207 71.204 83.188C72.4902 84.1062 73.8684 85.0243 75.2924 85.8048C75.3843 85.8507 75.4302 85.9884 75.3843 86.1262C75.3384 86.218 75.2465 86.2639 75.1546 86.2639Z" fill="black"/>
    <path d="M78.8294 85.8959C78.7835 85.8959 78.7376 85.8959 78.6916 85.85C76.8541 84.7482 75.0626 83.5545 73.3169 82.3609C73.2251 82.2691 73.1791 82.1313 73.2251 82.0395C73.3169 81.9477 73.4088 81.9018 73.5466 81.9477H73.5926C75.3382 83.0954 77.1297 84.335 78.9672 85.3909C79.0591 85.4368 79.1051 85.5745 79.0591 85.7122C78.9672 85.85 78.9213 85.8959 78.8294 85.8959Z" fill="black"/>
    <path d="M83.3299 85.7121C83.284 85.7121 83.2381 85.7121 83.1921 85.6662C81.4924 84.6103 79.8387 83.4625 78.139 82.1771C78.0471 82.0853 78.0012 81.9475 78.093 81.8557C78.1849 81.7639 78.3227 81.718 78.4146 81.8098C80.1143 83.0953 81.768 84.243 83.4677 85.2989C83.5596 85.3448 83.6055 85.5284 83.5596 85.6203C83.4677 85.6662 83.4218 85.7121 83.3299 85.7121Z" fill="black"/>
    <path d="M86.6381 84.2434C86.5922 84.2434 86.5462 84.2434 86.5462 84.1974L86.4084 84.1515C86.2706 84.0597 86.0869 84.0138 85.9031 83.8761C85.1681 83.417 84.525 82.8202 83.8819 82.2234C83.6981 82.0397 83.5144 81.902 83.3306 81.7184C83.2388 81.6265 83.2388 81.4888 83.3306 81.397C83.4225 81.3052 83.5603 81.3052 83.6522 81.397C83.8359 81.5806 84.0197 81.7183 84.2034 81.902C84.8466 82.4988 85.4438 83.0497 86.1788 83.5088C86.3166 83.6006 86.4544 83.6924 86.5922 83.7384L86.73 83.8302C86.8219 83.8761 86.8678 84.0138 86.8219 84.1515C86.8219 84.1974 86.73 84.2434 86.6381 84.2434Z" fill="black"/>
    <path d="M88.8898 82.5906C88.8439 82.5906 88.752 82.5906 88.7061 82.5447C88.6602 82.4988 88.6142 82.4529 88.5223 82.407L88.4305 82.3611C87.5577 81.8561 86.593 81.2593 85.5823 80.6165C85.4905 80.5247 85.4445 80.387 85.5364 80.2952C85.6283 80.2034 85.7661 80.1575 85.858 80.2493C86.8686 80.892 87.7873 81.4888 88.7061 81.9938L88.798 82.0856C88.8898 82.1315 88.9817 82.1774 89.0736 82.2693C89.1655 82.3611 89.1655 82.4988 89.0736 82.5906C89.0277 82.5906 88.9358 82.5906 88.8898 82.5906Z" fill="black"/>
    <path d="M89.7164 80.3861C89.6705 80.3861 89.6246 80.3861 89.5786 80.3402L87.7871 78.8252C87.6952 78.7333 87.6952 78.5956 87.7411 78.5038C87.833 78.412 87.9708 78.412 88.0627 78.4579L89.8542 79.9729C89.9461 80.0647 89.9461 80.2024 89.9002 80.2943C89.8542 80.3402 89.7624 80.3861 89.7164 80.3861Z" fill="black"/>
    <path d="M87.0056 81.6258C86.5922 81.6258 85.8572 81.4881 85.7653 80.9831C85.5816 80.3863 86.3166 80.1108 86.6841 79.9731C86.776 79.9272 86.8219 79.9272 86.8678 79.8813C86.9597 79.8354 87.0975 79.8813 87.1894 79.9731C87.2353 80.019 87.2353 80.0649 87.1894 80.1567H87.2353C87.2353 80.1567 87.7407 80.0649 88.0163 80.2486C88.0622 80.2486 88.1541 80.2027 88.2 80.2027H88.2919C88.5216 80.2027 88.7053 80.2027 88.7972 80.3863C88.8431 80.4781 88.7972 80.5699 88.7513 80.6617C88.6594 80.8454 88.3838 80.9372 88.246 80.9831C88.1541 81.029 88.1082 81.0749 88.0163 81.0749C87.8325 81.3963 87.3731 81.5799 87.0056 81.6258C87.0516 81.6258 87.0516 81.6258 87.0056 81.6258ZM86.5003 80.5699C86.3166 80.6617 86.1788 80.7536 86.2247 80.8913C86.2247 80.9372 86.2706 80.9831 86.3166 81.029C86.3166 80.9831 86.3166 80.9372 86.3166 80.9372C86.3625 80.7536 86.4085 80.6617 86.5003 80.5699ZM86.776 80.9372C86.9138 80.9372 87.1894 80.8913 87.2353 80.8913C87.3272 80.8454 87.3731 80.8454 87.465 80.7995C87.4191 80.7536 87.4191 80.7536 87.4191 80.7077C87.4191 80.6617 87.4191 80.6617 87.4191 80.6158H87.3731C87.1894 80.6617 86.9138 80.7536 86.776 80.9372Z" fill="black"/>
    <path d="M64.9553 80.8C64.8634 80.8 64.8175 80.8 64.7256 80.8C64.404 80.754 64.1744 80.5245 64.0825 80.1572C63.9906 79.7441 64.1284 79.5145 64.2662 79.3768C64.7256 78.9177 65.6444 79.0554 65.9659 79.1013C66.3794 79.1931 66.3793 79.3768 66.3793 79.5145C66.3793 79.6522 66.2415 79.744 66.1037 79.8359C66.1497 79.8359 66.1956 79.8359 66.2415 79.8818C66.3334 79.9736 66.3794 80.1113 66.2875 80.2031C66.0578 80.5245 65.5065 80.8 64.9553 80.8ZM64.6337 80.2491C64.6797 80.295 64.7256 80.3409 64.8175 80.3409C65.139 80.3868 65.5525 80.249 65.7822 80.0654C65.7362 80.0654 65.6903 80.0654 65.5525 80.0654C65.185 80.2031 64.7715 80.2491 64.6337 80.2491ZM65.3228 79.5145C65.0472 79.5145 64.7256 79.5604 64.5878 79.6981C64.7715 79.6522 65.0472 79.6522 65.4606 79.6063C65.5525 79.5604 65.6444 79.5604 65.6903 79.5145C65.5984 79.5145 65.4606 79.5145 65.3228 79.5145Z" fill="black"/>
    <path d="M127.661 86.8137C127.615 86.8137 127.615 86.8137 127.569 86.8137C126.65 86.4005 126.604 86.3546 126.604 86.3087C126.512 86.2169 126.512 86.0791 126.604 85.9873C126.696 85.8955 126.834 85.8955 126.88 85.9873C126.926 85.9873 127.063 86.0791 127.753 86.4464C127.844 86.4923 127.936 86.63 127.844 86.7678C127.844 86.7678 127.752 86.8137 127.661 86.8137ZM129.039 85.666C128.993 85.666 128.993 85.666 128.947 85.666C128.579 85.4823 128.304 85.3446 128.074 85.2069C127.752 85.0232 127.523 84.8855 127.155 84.7478C127.017 84.7019 126.972 84.5641 127.017 84.4723C127.063 84.3346 127.201 84.2887 127.293 84.3346C127.707 84.4723 127.982 84.656 128.304 84.8396C128.533 84.9773 128.809 85.1151 129.131 85.2987C129.223 85.3446 129.314 85.4823 129.222 85.62C129.222 85.62 129.131 85.666 129.039 85.666Z" fill="black"/>
    <path d="M129.039 83.5999H128.993C128.304 83.4162 127.569 83.1408 127.156 83.0031C127.018 82.9571 126.926 82.9112 126.926 82.9112C126.834 82.9112 126.742 82.8194 126.742 82.6817C126.742 82.544 126.834 82.4521 126.972 82.4521C127.018 82.4521 127.064 82.4521 127.339 82.544C127.753 82.6817 128.488 82.9571 129.131 83.1408C129.269 83.1867 129.315 83.2785 129.315 83.4162C129.223 83.5081 129.131 83.5999 129.039 83.5999Z" fill="black"/>
    <path d="M115.578 80.9827C113.97 80.9827 113.787 80.7073 113.741 80.5695C113.649 80.4318 113.649 80.2941 113.741 80.1564C113.925 79.835 114.43 79.7432 114.751 79.6973C114.797 79.6973 114.843 79.6973 114.889 79.6973C115.073 79.6973 115.9 79.6973 116.267 80.1564C116.359 80.34 116.313 80.4318 116.313 80.4777C116.267 80.5695 116.13 80.6154 116.038 80.6154L116.084 80.7532V80.9827V80.7532L116.038 80.9827C115.808 80.9827 115.716 80.9827 115.578 80.9827ZM114.154 80.3859C114.292 80.4777 114.705 80.5236 115.67 80.5695C115.624 80.5236 115.624 80.4777 115.624 80.4318C115.624 80.3859 115.624 80.3859 115.67 80.34C115.486 80.2482 115.165 80.2023 114.935 80.2023C114.935 80.2023 114.889 80.2023 114.843 80.2023C114.66 80.2023 114.246 80.2482 114.154 80.3859Z" fill="black"/>
    <path d="M67.6197 67.7617C67.5738 67.7617 67.5279 67.7617 67.5279 67.7158C67.436 67.6699 67.3901 67.5322 67.436 67.3944C67.8494 66.5681 68.3088 65.7876 68.7222 65.0531C69.641 63.4003 70.5597 61.8394 71.2488 59.6817C72.0297 57.0649 72.8566 54.2644 72.9485 51.2344C72.9485 51.0967 73.0404 51.0049 73.1782 51.0049C73.316 51.0049 73.4079 51.0967 73.4079 51.2344C73.316 54.3103 72.4891 57.1567 71.7082 59.7735C71.0191 61.9772 70.1004 63.5381 69.1816 65.2367C68.7682 65.9713 68.3088 66.7517 67.8954 67.5781C67.8035 67.7158 67.7116 67.7617 67.6197 67.7617Z" fill="black"/>
    <path d="M70.7436 67.3955C70.6977 67.3955 70.6517 67.3955 70.6058 67.3496C70.5139 67.2577 70.468 67.12 70.5598 67.0282C71.2948 65.8805 72.0298 64.7786 72.7648 63.6309C73.4998 62.5291 74.1889 61.3814 74.9239 60.2796C75.0158 60.1877 75.1536 60.1418 75.2455 60.2336C75.3373 60.3255 75.3833 60.4632 75.2914 60.555C74.5564 61.6568 73.8214 62.8046 73.1323 63.9064C72.3973 65.0541 71.6623 66.1559 70.9273 67.3037C70.8814 67.3496 70.8355 67.3955 70.7436 67.3955Z" fill="black"/>
    <path d="M120.311 87.962C120.311 90.3492 118.336 92.3233 115.947 92.3233C113.558 92.3233 110.664 90.3492 110.664 87.962C110.664 85.5747 113.558 83.6006 115.947 83.6006C118.336 83.6006 120.311 85.5747 120.311 87.962Z" fill="white"/>
    <path d="M115.211 92.4602C113.374 92.4602 111.766 91.542 110.939 90.073C110.158 88.6498 110.296 86.9511 111.306 85.3902C113.098 83.0489 116.543 82.7275 119.162 84.6557C120.448 85.6198 120.907 87.3184 120.356 88.9711C119.805 90.578 118.151 92.4602 115.211 92.4602ZM111.674 85.6657C110.755 87.0889 110.663 88.6039 111.352 89.8434C112.087 91.1748 113.557 92.0011 115.211 92.0011C117.875 92.0011 119.391 90.3025 119.897 88.8334C120.402 87.3184 119.989 85.8493 118.886 85.023C116.497 83.2325 113.328 83.508 111.674 85.6657Z" fill="black"/>
    <path d="M114.063 87.0896C114.017 87.0896 113.971 87.0896 113.971 87.0437C113.879 86.9978 113.833 86.8601 113.879 86.7224C114.247 86.0796 115.212 85.4369 115.947 84.9319L116.176 84.7483C116.268 84.6565 116.406 84.7024 116.498 84.7942C116.59 84.886 116.544 85.0237 116.452 85.1156L116.222 85.2992C115.533 85.7583 114.568 86.401 114.293 86.9519C114.201 87.0437 114.155 87.0896 114.063 87.0896Z" fill="black"/>
    <path d="M116.681 87.7786C116.635 87.7786 116.589 87.7786 116.589 87.7327C115.9 87.3654 114.844 86.9982 114.109 86.9982C113.971 86.9982 113.879 86.9063 113.879 86.7686C113.879 86.6309 113.971 86.5391 114.109 86.5391C114.935 86.5391 116.038 86.9522 116.773 87.3654C116.865 87.4113 116.911 87.5491 116.865 87.6868C116.865 87.7327 116.773 87.7786 116.681 87.7786Z" fill="black"/>
    <path d="M115.533 91.0372C114.936 91.0372 114.292 90.7618 113.695 90.2568C113.603 90.165 113.603 90.0272 113.649 89.9354C113.741 89.8436 113.879 89.8436 113.971 89.8895C114.66 90.4863 115.303 90.67 115.9 90.5322C116.681 90.3486 117.278 89.5681 117.554 88.9254C117.784 88.3745 117.784 87.7777 117.554 87.3186C117.37 86.8595 117.003 86.5381 116.543 86.4004C115.946 86.2168 114.706 86.4922 114.247 86.9513C114.155 87.0431 114.017 87.0431 113.925 86.9513C113.833 86.8595 113.833 86.7218 113.925 86.63C114.476 86.079 115.9 85.7118 116.681 85.9872C117.278 86.1709 117.692 86.584 117.967 87.135C118.243 87.7318 118.243 88.4663 117.967 89.1091C117.646 89.8895 116.957 90.7618 115.992 90.9913C115.854 91.0372 115.717 91.0372 115.533 91.0372Z" fill="black"/>
    <defs>
    <linearGradient id="paint0_linear" x1="102.586" y1="8.98287" x2="80.0996" y2="55.5914" gradientUnits="userSpaceOnUse">
    <stop stop-color="#62F91F" stop-opacity="0.38"/>
    <stop offset="1" stop-color="#5EAA53"/>
    </linearGradient>
    <linearGradient id="paint1_linear" x1="91.2734" y1="31.7075" x2="89.5415" y2="35.8631" gradientUnits="userSpaceOnUse">
    <stop stop-color="#62F91F"/>
    <stop offset="1" stop-color="#5EAA53"/>
    </linearGradient>
    </defs>
    </svg>
