<svg width="191" height="81" viewBox="0 0 191 81" fill="none" xmlns="http://www.w3.org/2000/svg">
<path d="M1 42.6497C11.7619 42.6497 10.1476 42.6497 22.7928 42.6497C29.2499 42.6497 30.8473 41.3118 33.8237 33.2331C34.4184 31.6188 36.2451 20.5879 51.3117 20.5879C63.9569 20.5879 62.9814 28.2765 69.4625 33.2331C75.9437 38.1897 86.8258 37.2688 97.8567 37.2688C108.888 37.2688 114.743 28.1107 114.269 17.3594C113.461 -0.935748 83.3282 -7.39294 74.4497 16.5522C64.2388 44.0906 60.7283 48.2997 60.7283 55.833C60.7283 68.3139 67.4019 77.8947 97.8567 77.8947C116.421 77.8947 151.935 77.8947 189.063 77.8947" stroke="black" stroke-width="0.6" stroke-linecap="round" stroke-linejoin="round"/>
<path d="M8.80273 20.5872C39.474 20.5872 36.5145 20.5872 44.3169 20.5872C67.9929 20.5872 66.3984 42.4615 66.3984 52.0656C66.3984 65.2489 69.8763 74.6654 89.2476 74.6654C108.619 74.6654 114.538 43.8119 93.5524 37.268C68.531 29.4656 76.6024 5.52052 94.8976 5.52051C118.305 5.52049 101.584 34.0395 134.447 34.0395C153.012 34.0395 172.831 34.0395 187.45 34.0395" stroke="black" stroke-width="0.6" stroke-linecap="round" stroke-linejoin="round"/>
<path d="M182.338 75.4736C184.818 76.4464 187.341 77.1362 189.915 77.7797" stroke="black" stroke-width="0.6" stroke-linecap="round" stroke-linejoin="round"/>
<path d="M163.504 65.25C165.984 66.2227 168.507 66.9125 171.081 67.556" stroke="black" stroke-width="0.6" stroke-linecap="round" stroke-linejoin="round"/>
<path d="M183.188 80.2007C185.071 79.3936 186.685 78.8555 189.645 77.7793" stroke="black" stroke-width="0.6" stroke-linecap="round" stroke-linejoin="round"/>
<path d="M164.355 69.9781C166.239 69.1709 167.853 68.6328 170.813 67.5566" stroke="black" stroke-width="0.6" stroke-linecap="round" stroke-linejoin="round"/>
<path d="M104.045 79.7774C106.735 78.7012 107.812 78.1631 109.964 77.0869" stroke="black" stroke-width="0.6" stroke-linecap="round" stroke-linejoin="round"/>
<path d="M103.775 74.3975C107.004 75.7427 108.08 76.2808 110.233 77.0879" stroke="black" stroke-width="0.6" stroke-linecap="round" stroke-linejoin="round"/>
<path d="M28.4434 21.8741C32.4791 21.3945 34.0933 21.1255 37.0528 20.8564" stroke="black" stroke-width="0.6" stroke-linecap="round" stroke-linejoin="round"/>
<path d="M30.0566 17.3594C33.2852 18.7046 34.6304 19.5117 36.8486 20.9886" stroke="black" stroke-width="0.6" stroke-linecap="round" stroke-linejoin="round"/>
<path d="M178.686 36.7373C180.595 36.0427 183.784 34.9137 187.118 34.2322" stroke="black" stroke-width="0.6" stroke-linecap="round" stroke-linejoin="round"/>
<path d="M187.12 34.231C183.474 32.7016 181.893 31.6158 179.12 28.6584" stroke="black" stroke-width="0.6" stroke-linecap="round" stroke-linejoin="round"/>
<path fill-rule="evenodd" clip-rule="evenodd" d="M86.9671 12.6216L91.5755 8.83801L94.4558 10.0022L95.608 11.4574H97.9122L99.9284 7.67383L104.537 10.5843L105.977 13.2037L104.537 15.241L105.977 16.9873H108.569L109.433 18.7335L108.569 24.8455H105.401L103.097 28.338L104.249 30.9574L99.3524 34.1589L97.9122 31.5395H94.4558L92.1516 34.741L87.5431 32.1216L85.5269 30.9574L87.5431 27.4649V26.3007H85.5269L83.2227 24.2634V18.4425L86.391 18.1514L88.4072 15.241L86.9671 12.6216ZM92.7277 20.7709L97.3362 16.9873L98.7764 18.4425L98.4884 23.0993L94.4559 26.3007L92.7277 24.8455V20.7709Z" fill="white"/>
<path fill-rule="evenodd" clip-rule="evenodd" d="M86.9671 12.6216L91.5755 8.83801L94.4558 10.0022L95.608 11.4574H97.9122L99.9284 7.67383L104.537 10.5843L105.977 13.2037L104.537 15.241L105.977 16.9873H108.569L109.433 18.7335L108.569 24.8455H105.401L103.097 28.338L104.249 30.9574L99.3524 34.1589L97.9122 31.5395H94.4558L92.1516 34.741L87.5431 32.1216L85.5269 30.9574L87.5431 27.4649V26.3007H85.5269L83.2227 24.2634V18.4425L86.391 18.1514L88.4072 15.241L86.9671 12.6216ZM92.7277 20.7709L97.3362 16.9873L98.7764 18.4425L98.4884 23.0993L94.4559 26.3007L92.7277 24.8455V20.7709Z" fill="white"/>
<path d="M88.3359 20.625C89.248 19 90.1601 17.375 91.0722 15.75" stroke="black" stroke-width="0.6" stroke-linecap="round" stroke-linejoin="round"/>
<path d="M89.1992 13.7119C89.71 14.7585 90.1877 15.812 90.8554 16.7679" stroke="black" stroke-width="0.6" stroke-linecap="round" stroke-linejoin="round"/>
<path d="M94.8887 10.293C95.2302 11.265 95.5001 12.2538 95.7848 13.2438C95.8949 13.6268 95.9761 13.9057 96.1848 14.2221" stroke="black" stroke-width="0.6" stroke-linecap="round" stroke-linejoin="round"/>
<path d="M88.9844 14.1489C90.6609 12.2516 92.8067 10.7785 94.961 9.49219" stroke="black" stroke-width="0.6" stroke-linecap="round" stroke-linejoin="round"/>
<path d="M95.6797 13.4937C96.647 13.4201 98.0509 13.3306 98.92 13.8575" stroke="black" stroke-width="0.6" stroke-linecap="round" stroke-linejoin="round"/>
<path d="M99.209 14.0766C99.9371 12.6052 100.68 10.9832 101.729 9.71094" stroke="black" stroke-width="0.6" stroke-linecap="round" stroke-linejoin="round"/>
<path d="M103.674 16.5497C104.348 15.3887 105.03 14.0881 105.978 13.1299" stroke="black" stroke-width="0.6" stroke-linecap="round" stroke-linejoin="round"/>
<path d="M103.961 15.6045C104.556 16.5819 104.982 17.5718 105.329 18.6605" stroke="black" stroke-width="0.6" stroke-linecap="round" stroke-linejoin="round"/>
<path d="M105.402 18.8784C106.603 18.9119 107.806 18.8423 109.003 18.8057" stroke="black" stroke-width="0.6" stroke-linecap="round" stroke-linejoin="round"/>
<path d="M109.506 18.8789C109.307 21.0206 108.93 23.2009 108.93 25.3547" stroke="black" stroke-width="0.6" stroke-linecap="round" stroke-linejoin="round"/>
<path d="M105.186 25.063C106.627 25.007 108.066 24.9303 109.506 24.8447" stroke="black" stroke-width="0.6" stroke-linecap="round" stroke-linejoin="round"/>
<path d="M103.025 28.4834C104.022 26.8844 105.055 25.3289 105.834 23.6084" stroke="black" stroke-width="0.6" stroke-linecap="round" stroke-linejoin="round"/>
<path d="M102.881 28.0469C103.523 29.0662 104.048 30.1522 104.681 31.1756" stroke="black" stroke-width="0.6" stroke-linecap="round" stroke-linejoin="round"/>
<path d="M93.9531 31.3208C95.4876 31.66 96.8228 31.5778 98.3456 31.248" stroke="black" stroke-width="0.6" stroke-linecap="round" stroke-linejoin="round"/>
<path d="M98.0566 31.3203C98.5016 32.3168 98.9932 33.2658 99.4968 34.2308" stroke="black" stroke-width="0.6" stroke-linecap="round" stroke-linejoin="round"/>
<path d="M99.3535 34.3763C101.124 33.5354 102.769 32.415 104.394 31.3203" stroke="black" stroke-width="0.6" stroke-linecap="round" stroke-linejoin="round"/>
<path d="M92.5117 35.0312C93.1104 33.5854 93.9656 32.2246 94.4559 30.7383" stroke="black" stroke-width="0.6" stroke-linecap="round" stroke-linejoin="round"/>
<path d="M87.543 32.1215C88.546 30.8961 89.4752 29.6311 90.5673 28.4834" stroke="black" stroke-width="0.6" stroke-linecap="round" stroke-linejoin="round"/>
<path d="M87.3281 31.9756C88.7948 32.8648 90.17 33.8823 91.5606 34.886C91.6272 34.9341 92.0151 35.2696 91.9366 35.0316" stroke="black" stroke-width="0.6" stroke-linecap="round" stroke-linejoin="round"/>
<path d="M88.7676 26.0088C88.9364 27.061 89.4533 28.2297 90.2077 28.992" stroke="black" stroke-width="0.6" stroke-linecap="round" stroke-linejoin="round"/>
<path d="M84.8066 25.791C86.1317 26.0905 87.5569 26.0093 88.9111 26.0093" stroke="black" stroke-width="0.6" stroke-linecap="round" stroke-linejoin="round"/>
<path d="M85.0234 20.1152C86.4719 20.5387 87.8675 20.4472 89.3439 20.2608" stroke="black" stroke-width="0.6" stroke-linecap="round" stroke-linejoin="round"/>
<path d="M85.2391 20.1152C85.217 21.6574 85.1205 23.1976 85.1031 24.7396C85.0961 25.3608 85.1042 25.8151 85.3111 26.3727" stroke="black" stroke-width="0.6" stroke-linecap="round" stroke-linejoin="round"/>
<path d="M83.2949 18.2959C84.0795 18.9865 84.7496 19.7137 85.4552 20.4787" stroke="black" stroke-width="0.6" stroke-linecap="round" stroke-linejoin="round"/>
<path d="M82.9355 18.2964C84.2332 18.4034 85.4664 18.1647 86.752 18.0781" stroke="black" stroke-width="0.6" stroke-linecap="round" stroke-linejoin="round"/>
<path d="M86.8242 18.7327C87.1533 17.5286 87.6677 16.2738 88.6964 15.5312" stroke="black" stroke-width="0.6" stroke-linecap="round" stroke-linejoin="round"/>
<path d="M86.752 12.4756C87.3663 13.4321 87.8782 14.4177 88.3361 15.4588" stroke="black" stroke-width="0.6" stroke-linecap="round" stroke-linejoin="round"/>
<path d="M86.6797 12.4033C87.9002 12.926 88.9412 13.7378 90.1361 14.2951" stroke="black" stroke-width="0.6" stroke-linecap="round" stroke-linejoin="round"/>
<path d="M88.6953 15.459C89.2898 15.816 89.9015 16.1026 90.5275 16.3968C90.7106 16.4828 90.8601 16.555 90.9996 16.6959" stroke="black" stroke-width="0.6" stroke-linecap="round" stroke-linejoin="round"/>
<path d="M86.6797 18.1514C87.3237 19.0761 87.9756 19.9702 88.7679 20.7708" stroke="black" stroke-width="0.6" stroke-linecap="round" stroke-linejoin="round"/>
<path d="M86.248 13.2031C87.8247 11.0092 90.0944 9.53992 92.4407 8.32812" stroke="black" stroke-width="0.6" stroke-linecap="round" stroke-linejoin="round"/>
<path d="M91.4316 8.47363C92.5611 9.0878 93.7017 9.65677 94.888 10.1471" stroke="black" stroke-width="0.6" stroke-linecap="round" stroke-linejoin="round"/>
<path d="M95.1055 11.6753C96.0878 11.4892 97.0613 11.457 98.0578 11.457" stroke="black" stroke-width="0.6" stroke-linecap="round" stroke-linejoin="round"/>
<path d="M97.8418 11.3848C98.3664 12.4177 98.8587 13.4671 99.354 14.5135" stroke="black" stroke-width="0.6" stroke-linecap="round" stroke-linejoin="round"/>
<path d="M97.9844 11.8207C98.5118 10.3996 99.3302 9.10082 100.001 7.74609" stroke="black" stroke-width="0.6" stroke-linecap="round" stroke-linejoin="round"/>
<path d="M100.361 7.81836C100.776 8.75092 101.213 9.66591 101.657 10.5833" stroke="black" stroke-width="0.6" stroke-linecap="round" stroke-linejoin="round"/>
<path d="M101.658 10.002C103.004 10.7623 104.222 11.7174 105.475 12.6214" stroke="black" stroke-width="0.6" stroke-linecap="round" stroke-linejoin="round"/>
<path d="M100.434 7.81836C101.762 8.88064 103.269 9.52887 104.682 10.4378" stroke="black" stroke-width="0.6" stroke-linecap="round" stroke-linejoin="round"/>
<path d="M104.465 10.2197C104.817 11.2606 105.362 12.1945 105.761 13.2029" stroke="black" stroke-width="0.6" stroke-linecap="round" stroke-linejoin="round"/>
<path d="M104.609 15.3135C104.947 15.8946 105.283 16.477 105.617 17.0597" stroke="black" stroke-width="0.6" stroke-linecap="round" stroke-linejoin="round"/>
<path d="M105.473 19.3152C105.49 18.3782 105.493 17.3798 105.761 16.4775" stroke="black" stroke-width="0.6" stroke-linecap="round" stroke-linejoin="round"/>
<path d="M105.617 16.7686C106.741 17.0051 107.876 16.9698 109.002 17.1324" stroke="black" stroke-width="0.6" stroke-linecap="round" stroke-linejoin="round"/>
<path d="M108.281 16.7686C108.759 17.5357 109.205 18.3111 109.649 19.0969" stroke="black" stroke-width="0.6" stroke-linecap="round" stroke-linejoin="round"/>
<path d="M87.2559 26.1553C87.4089 26.6964 87.5651 27.2312 87.7599 27.756" stroke="black" stroke-width="0.6" stroke-linecap="round" stroke-linejoin="round"/>
<path d="M87.1113 27.2461C88.1697 27.8878 89.3071 28.8508 90.5677 28.9924" stroke="black" stroke-width="0.6" stroke-linecap="round" stroke-linejoin="round"/>
<path d="M85.2402 31.2479C85.8604 30.0782 86.7269 29.0619 87.4725 27.9736" stroke="black" stroke-width="0.6" stroke-linecap="round" stroke-linejoin="round"/>
<path d="M85.8164 30.8838C86.302 31.3219 86.961 31.9155 87.6166 32.048" stroke="black" stroke-width="0.6" stroke-linecap="round" stroke-linejoin="round"/>
<path d="M82.8633 24.1172C83.422 24.8185 84.1737 26.0203 85.0955 26.2273" stroke="black" stroke-width="0.6" stroke-linecap="round" stroke-linejoin="round"/>
<path d="M82.8633 17.8594C82.8775 19.7425 82.8998 21.6241 83.0473 23.5024C83.0796 23.9136 83.1251 24.3019 83.2233 24.6989" stroke="black" stroke-width="0.6" stroke-linecap="round" stroke-linejoin="round"/>
<path d="M92.5117 19.8242C92.6844 22.0233 92.6661 24.242 92.7277 26.4455" stroke="black" stroke-width="0.6" stroke-linecap="round" stroke-linejoin="round"/>
<path d="M91.9355 24.3359C93.7571 25.7251 95.4774 27.2477 97.4081 28.4833" stroke="black" stroke-width="0.6" stroke-linecap="round" stroke-linejoin="round"/>
<path d="M95.6797 28.9199C97.5419 27.2198 99.6559 25.8143 101.584 24.1904" stroke="black" stroke-width="0.6" stroke-linecap="round" stroke-linejoin="round"/>
<path d="M101.893 18.7041C101.708 21.3663 101.632 22.9418 101.369 25.5944" stroke="black" stroke-width="0.6" stroke-linecap="round" stroke-linejoin="round"/>
<path d="M91.8652 21.1342C93.8307 19.7057 95.6503 18.0789 97.6979 16.7686" stroke="black" stroke-width="0.6" stroke-linecap="round" stroke-linejoin="round"/>
<path d="M97.5527 17.2051C99.0981 18.2219 100.687 19.1124 102.017 20.4066" stroke="black" stroke-width="0.6" stroke-linecap="round" stroke-linejoin="round"/>
<path d="M98.7766 17.7871C98.6946 19.7756 98.6124 21.764 98.5605 23.7535" stroke="black" stroke-width="0.6" stroke-linecap="round" stroke-linejoin="round"/>
<path d="M94.0254 26.5911C95.5736 25.6972 96.8772 24.4533 98.4179 23.5352" stroke="black" stroke-width="0.6" stroke-linecap="round" stroke-linejoin="round"/>
<path d="M98.2734 23.3896C99.5469 23.8966 100.918 24.2135 102.162 24.7721" stroke="black" stroke-width="0.6" stroke-linecap="round" stroke-linejoin="round"/>
<path d="M83.0078 22.5176C83.5652 23.0755 84.1161 23.6365 84.736 24.1183" stroke="black" stroke-width="0.6" stroke-linecap="round" stroke-linejoin="round"/>
<path d="M82.791 19.8975C83.5154 20.7163 84.3272 21.4497 85.0953 22.2258" stroke="black" stroke-width="0.6" stroke-linecap="round" stroke-linejoin="round"/>
<path d="M87.4707 16.915C88.1209 17.4175 88.729 17.973 89.3429 18.5158" stroke="black" stroke-width="0.6" stroke-linecap="round" stroke-linejoin="round"/>
<path d="M88.1914 11.167C88.9374 11.5618 89.7795 11.8242 90.4957 12.2584" stroke="black" stroke-width="0.6" stroke-linecap="round" stroke-linejoin="round"/>
<path d="M89.9199 9.63867C90.4613 10.1947 91.299 11.0088 92.0802 11.1667" stroke="black" stroke-width="0.6" stroke-linecap="round" stroke-linejoin="round"/>
<path d="M99.209 9.05664C99.5251 9.90561 99.6749 10.8714 100.073 11.676" stroke="black" stroke-width="0.6" stroke-linecap="round" stroke-linejoin="round"/>
<path d="M106.985 18.8068C106.865 18.1753 106.763 17.5413 106.625 16.915" stroke="black" stroke-width="0.6" stroke-linecap="round" stroke-linejoin="round"/>
<path d="M95.6797 25.792C96.3661 26.1073 97.0346 26.4462 97.6959 26.8106" stroke="black" stroke-width="0.6" stroke-linecap="round" stroke-linejoin="round"/>
<path d="M97.3359 24.5547C97.9326 25.0741 98.6642 25.4995 99.4242 25.7189" stroke="black" stroke-width="0.6" stroke-linecap="round" stroke-linejoin="round"/>
<path d="M98.6328 21.499C99.4599 21.6731 100.256 21.9871 101.081 22.1539" stroke="black" stroke-width="0.6" stroke-linecap="round" stroke-linejoin="round"/>
<path d="M98.8477 19.4619C99.6778 19.5359 100.478 19.8209 101.296 19.9712" stroke="black" stroke-width="0.6" stroke-linecap="round" stroke-linejoin="round"/>
<path d="M86.6074 28.9209C87.4049 29.3614 88.0787 30.0014 88.7677 30.5944" stroke="black" stroke-width="0.6" stroke-linecap="round" stroke-linejoin="round"/>
<path d="M5.84375 27.584C12.5699 27.584 19.2961 27.584 21.4484 27.584C27.3675 27.584 31.3088 30.5988 32.2103 37.2697C33.5555 47.2244 40.2817 52.3362 50.2364 52.3362C60.1911 52.3362 65.7461 45.6387 72.5613 41.3017C77.2081 38.3446 102.145 29.3405 107.257 50.5952C108.875 57.3214 108.178 67.6718 118.574 67.6718C130.143 67.6718 143.596 67.6718 170.231 67.6718" stroke="black" stroke-width="0.6"/>
<path fill-rule="evenodd" clip-rule="evenodd" d="M40.8999 27.2999L45.147 23.8131L47.8014 24.886L48.8631 26.2271H50.9867L52.8447 22.7402L57.0918 25.4224L58.419 27.8364L57.0918 29.7139L58.419 31.3232H60.8079L61.6042 32.9325L60.8079 38.5651H57.8881L55.7646 41.7837L56.8263 44.1977L52.3139 47.1481L50.9867 44.7341H47.8014L45.6779 47.6845L41.4308 45.2705L39.5727 44.1977L41.4308 40.979V39.9062H39.5727L37.4492 38.0287V32.6643L40.3691 32.3961L42.2271 29.7139L40.8999 27.2999ZM46.2104 34.8116L50.4574 31.3248L51.7846 32.6659L51.5192 36.9573L47.803 39.9077L46.2104 38.5666V34.8116Z" fill="white"/>
<path fill-rule="evenodd" clip-rule="evenodd" d="M40.8999 27.2999L45.147 23.8131L47.8014 24.886L48.8631 26.2271H50.9867L52.8447 22.7402L57.0918 25.4224L58.419 27.8364L57.0918 29.7139L58.419 31.3232H60.8079L61.6042 32.9325L60.8079 38.5651H57.8881L55.7646 41.7837L56.8263 44.1977L52.3139 47.1481L50.9867 44.7341H47.8014L45.6779 47.6845L41.4308 45.2705L39.5727 44.1977L41.4308 40.979V39.9062H39.5727L37.4492 38.0287V32.6643L40.3691 32.3961L42.2271 29.7139L40.8999 27.2999ZM46.2104 34.8116L50.4574 31.3248L51.7846 32.6659L51.5192 36.9573L47.803 39.9077L46.2104 38.5666V34.8116Z" fill="white"/>
<path d="M42.1621 34.6753C43.0027 33.1777 43.8432 31.6802 44.6838 30.1826" stroke="black" stroke-width="0.6" stroke-linecap="round" stroke-linejoin="round"/>
<path d="M42.959 28.3047C43.4297 29.2691 43.8699 30.2401 44.4853 31.121" stroke="black" stroke-width="0.6" stroke-linecap="round" stroke-linejoin="round"/>
<path d="M48.2012 25.1533C48.5159 26.0491 48.7647 26.9604 49.027 27.8728C49.1284 28.2256 49.2033 28.4827 49.3957 28.7743" stroke="black" stroke-width="0.6" stroke-linecap="round" stroke-linejoin="round"/>
<path d="M42.7598 28.7075C44.3048 26.959 46.2823 25.6014 48.2676 24.416" stroke="black" stroke-width="0.6" stroke-linecap="round" stroke-linejoin="round"/>
<path d="M48.9316 28.1045C49.8231 28.0367 51.1169 27.9542 51.9178 28.4398" stroke="black" stroke-width="0.6" stroke-linecap="round" stroke-linejoin="round"/>
<path d="M52.1816 28.6405C52.8526 27.2844 53.5373 25.7897 54.5042 24.6172" stroke="black" stroke-width="0.6" stroke-linecap="round" stroke-linejoin="round"/>
<path d="M56.2969 30.9201C56.9179 29.8503 57.5464 28.6517 58.4204 27.7686" stroke="black" stroke-width="0.6" stroke-linecap="round" stroke-linejoin="round"/>
<path d="M56.5625 30.0498C57.1111 30.9505 57.5031 31.8629 57.8233 32.8661" stroke="black" stroke-width="0.6" stroke-linecap="round" stroke-linejoin="round"/>
<path d="M57.8906 33.0661C58.9972 33.097 60.1059 33.0328 61.2086 32.999" stroke="black" stroke-width="0.6" stroke-linecap="round" stroke-linejoin="round"/>
<path d="M61.6735 33.0654C61.4901 35.0392 61.1426 37.0485 61.1426 39.0333" stroke="black" stroke-width="0.6" stroke-linecap="round" stroke-linejoin="round"/>
<path d="M57.6895 38.7646C59.0176 38.713 60.3444 38.6423 61.6711 38.5635" stroke="black" stroke-width="0.6" stroke-linecap="round" stroke-linejoin="round"/>
<path d="M55.7012 41.9165C56.6199 40.4428 57.5719 39.0094 58.2892 37.4238" stroke="black" stroke-width="0.6" stroke-linecap="round" stroke-linejoin="round"/>
<path d="M55.5684 41.5146C56.16 42.4541 56.644 43.4549 57.2274 44.398" stroke="black" stroke-width="0.6" stroke-linecap="round" stroke-linejoin="round"/>
<path d="M47.3398 44.5319C48.754 44.8445 49.9844 44.7687 51.3878 44.4648" stroke="black" stroke-width="0.6" stroke-linecap="round" stroke-linejoin="round"/>
<path d="M51.1211 44.5332C51.5311 45.4516 51.9842 46.3261 52.4483 47.2154" stroke="black" stroke-width="0.6" stroke-linecap="round" stroke-linejoin="round"/>
<path d="M52.3145 47.3495C53.946 46.5745 55.4621 45.542 56.9597 44.5332" stroke="black" stroke-width="0.6" stroke-linecap="round" stroke-linejoin="round"/>
<path d="M46.0098 47.9513C46.5615 46.6189 47.3496 45.3648 47.8015 43.9951" stroke="black" stroke-width="0.6" stroke-linecap="round" stroke-linejoin="round"/>
<path d="M41.4336 45.2707C42.358 44.1415 43.2143 42.9756 44.2207 41.918" stroke="black" stroke-width="0.6" stroke-linecap="round" stroke-linejoin="round"/>
<path d="M41.2324 45.1348C42.584 45.9542 43.8514 46.892 45.1329 47.8169C45.1943 47.8613 45.5518 48.1704 45.4795 47.9511" stroke="black" stroke-width="0.6" stroke-linecap="round" stroke-linejoin="round"/>
<path d="M42.5605 39.6367C42.7162 40.6064 43.1925 41.6835 43.8877 42.386" stroke="black" stroke-width="0.6" stroke-linecap="round" stroke-linejoin="round"/>
<path d="M38.9102 39.4355C40.1313 39.7116 41.4447 39.6367 42.6927 39.6367" stroke="black" stroke-width="0.6" stroke-linecap="round" stroke-linejoin="round"/>
<path d="M39.1113 34.2051C40.4462 34.5953 41.7323 34.511 43.0929 34.3392" stroke="black" stroke-width="0.6" stroke-linecap="round" stroke-linejoin="round"/>
<path d="M39.3084 34.2051C39.288 35.6263 39.1991 37.0457 39.1831 38.4668C39.1766 39.0392 39.1841 39.4579 39.3748 39.9718" stroke="black" stroke-width="0.6" stroke-linecap="round" stroke-linejoin="round"/>
<path d="M37.5176 32.5293C38.2406 33.1658 38.8582 33.8359 39.5084 34.5409" stroke="black" stroke-width="0.6" stroke-linecap="round" stroke-linejoin="round"/>
<path d="M37.1855 32.5312C38.3814 32.6299 39.5179 32.4099 40.7026 32.3301" stroke="black" stroke-width="0.6" stroke-linecap="round" stroke-linejoin="round"/>
<path d="M40.7676 32.9318C41.0708 31.8221 41.5449 30.6657 42.4929 29.9814" stroke="black" stroke-width="0.6" stroke-linecap="round" stroke-linejoin="round"/>
<path d="M40.7031 27.165C41.2693 28.0466 41.741 28.9548 42.163 29.9143" stroke="black" stroke-width="0.6" stroke-linecap="round" stroke-linejoin="round"/>
<path d="M40.6348 27.0977C41.7596 27.5794 42.7189 28.3275 43.82 28.8411" stroke="black" stroke-width="0.6" stroke-linecap="round" stroke-linejoin="round"/>
<path d="M42.4941 29.9141C43.042 30.2431 43.6057 30.5072 44.1826 30.7783C44.3514 30.8576 44.4891 30.9241 44.6177 31.054" stroke="black" stroke-width="0.6" stroke-linecap="round" stroke-linejoin="round"/>
<path d="M40.6348 32.3955C41.2282 33.2477 41.829 34.0716 42.5592 34.8095" stroke="black" stroke-width="0.6" stroke-linecap="round" stroke-linejoin="round"/>
<path d="M40.2383 27.8354C41.6913 25.8136 43.7829 24.4595 45.9452 23.3428" stroke="black" stroke-width="0.6" stroke-linecap="round" stroke-linejoin="round"/>
<path d="M45.0156 23.4775C46.0565 24.0435 47.1077 24.5679 48.2009 25.0198" stroke="black" stroke-width="0.6" stroke-linecap="round" stroke-linejoin="round"/>
<path d="M48.4004 26.4277C49.3056 26.2562 50.2028 26.2266 51.1211 26.2266" stroke="black" stroke-width="0.6" stroke-linecap="round" stroke-linejoin="round"/>
<path d="M50.9219 26.1592C51.4054 27.1111 51.859 28.0782 52.3154 29.0425" stroke="black" stroke-width="0.6" stroke-linecap="round" stroke-linejoin="round"/>
<path d="M51.0547 26.5617C51.5407 25.252 52.295 24.0551 52.9128 22.8066" stroke="black" stroke-width="0.6" stroke-linecap="round" stroke-linejoin="round"/>
<path d="M53.2441 22.874C53.6263 23.7334 54.0288 24.5767 54.4386 25.4221" stroke="black" stroke-width="0.6" stroke-linecap="round" stroke-linejoin="round"/>
<path d="M54.4395 24.8857C55.6798 25.5864 56.8024 26.4667 57.9565 27.2997" stroke="black" stroke-width="0.6" stroke-linecap="round" stroke-linejoin="round"/>
<path d="M53.3105 22.874C54.5347 23.853 55.9232 24.4504 57.2258 25.288" stroke="black" stroke-width="0.6" stroke-linecap="round" stroke-linejoin="round"/>
<path d="M57.0273 25.0859C57.3523 26.0452 57.8539 26.9058 58.2218 27.8352" stroke="black" stroke-width="0.6" stroke-linecap="round" stroke-linejoin="round"/>
<path d="M57.1602 29.7803C57.4715 30.3158 57.7806 30.8525 58.0892 31.3896" stroke="black" stroke-width="0.6" stroke-linecap="round" stroke-linejoin="round"/>
<path d="M57.9551 33.4677C57.9709 32.6041 57.9736 31.6841 58.2205 30.8525" stroke="black" stroke-width="0.6" stroke-linecap="round" stroke-linejoin="round"/>
<path d="M58.0898 31.1211C59.1254 31.3391 60.1711 31.3066 61.2088 31.4564" stroke="black" stroke-width="0.6" stroke-linecap="round" stroke-linejoin="round"/>
<path d="M60.543 31.1211C60.9831 31.8281 61.3943 32.5426 61.8038 33.2668" stroke="black" stroke-width="0.6" stroke-linecap="round" stroke-linejoin="round"/>
<path d="M41.168 39.7705C41.309 40.2692 41.453 40.7621 41.6325 41.2457" stroke="black" stroke-width="0.6" stroke-linecap="round" stroke-linejoin="round"/>
<path d="M41.0352 40.7783C42.0105 41.3697 43.0587 42.2572 44.2204 42.3876" stroke="black" stroke-width="0.6" stroke-linecap="round" stroke-linejoin="round"/>
<path d="M39.3105 44.4657C39.8821 43.3877 40.6806 42.4511 41.3677 41.4482" stroke="black" stroke-width="0.6" stroke-linecap="round" stroke-linejoin="round"/>
<path d="M39.8398 44.1289C40.2873 44.5326 40.8947 45.0797 41.4988 45.2018" stroke="black" stroke-width="0.6" stroke-linecap="round" stroke-linejoin="round"/>
<path d="M37.1191 37.8936C37.6341 38.5398 38.3268 39.6474 39.1763 39.8381" stroke="black" stroke-width="0.6" stroke-linecap="round" stroke-linejoin="round"/>
<path d="M37.1191 32.127C37.1322 33.8624 37.1528 35.5964 37.2887 37.3274C37.3185 37.7063 37.3604 38.0642 37.4509 38.4301" stroke="black" stroke-width="0.6" stroke-linecap="round" stroke-linejoin="round"/>
<path d="M46.0098 33.9375C46.1689 35.9641 46.1521 38.0088 46.2088 40.0395" stroke="black" stroke-width="0.6" stroke-linecap="round" stroke-linejoin="round"/>
<path d="M45.4805 38.0947C47.1592 39.3749 48.7445 40.7782 50.5238 41.9168" stroke="black" stroke-width="0.6" stroke-linecap="round" stroke-linejoin="round"/>
<path d="M48.9316 42.3185C50.6478 40.7517 52.596 39.4565 54.3732 37.96" stroke="black" stroke-width="0.6" stroke-linecap="round" stroke-linejoin="round"/>
<path d="M54.572 32.127C54.4011 34.5804 54.4158 37.0583 54.1738 39.5029" stroke="black" stroke-width="0.6" stroke-linecap="round" stroke-linejoin="round"/>
<path d="M45.4141 35.1444C47.2254 33.8279 48.9023 32.3287 50.7892 31.1211" stroke="black" stroke-width="0.6" stroke-linecap="round" stroke-linejoin="round"/>
<path d="M50.6562 31.5234C52.0804 32.4605 53.5449 33.2812 54.7706 34.4738" stroke="black" stroke-width="0.6" stroke-linecap="round" stroke-linejoin="round"/>
<path d="M51.785 32.0596C51.7095 33.8921 51.6337 35.7245 51.5859 37.558" stroke="black" stroke-width="0.6" stroke-linecap="round" stroke-linejoin="round"/>
<path d="M47.4043 40.1747C48.8311 39.3508 50.0324 38.2045 51.4523 37.3584" stroke="black" stroke-width="0.6" stroke-linecap="round" stroke-linejoin="round"/>
<path d="M51.3203 37.2246C52.4939 37.6918 53.7575 37.9839 54.9037 38.4986" stroke="black" stroke-width="0.6" stroke-linecap="round" stroke-linejoin="round"/>
<path d="M37.25 36.418C37.7637 36.9322 38.2713 37.4491 38.8426 37.8932" stroke="black" stroke-width="0.6" stroke-linecap="round" stroke-linejoin="round"/>
<path d="M37.0527 34.0049C37.7203 34.7595 38.4684 35.4354 39.1763 36.1506" stroke="black" stroke-width="0.6" stroke-linecap="round" stroke-linejoin="round"/>
<path d="M41.3672 31.2568C41.9664 31.7198 42.5268 32.2318 43.0925 32.732" stroke="black" stroke-width="0.6" stroke-linecap="round" stroke-linejoin="round"/>
<path d="M42.0293 25.958C42.7168 26.3219 43.4928 26.5637 44.1528 26.9638" stroke="black" stroke-width="0.6" stroke-linecap="round" stroke-linejoin="round"/>
<path d="M43.623 24.5498C44.122 25.0622 44.894 25.8125 45.6138 25.9579" stroke="black" stroke-width="0.6" stroke-linecap="round" stroke-linejoin="round"/>
<path d="M52.1836 24.0137C52.4749 24.7961 52.613 25.6861 52.9799 26.4276" stroke="black" stroke-width="0.6" stroke-linecap="round" stroke-linejoin="round"/>
<path d="M59.3494 33.0003C59.2391 32.4183 59.1445 31.834 59.0176 31.2568" stroke="black" stroke-width="0.6" stroke-linecap="round" stroke-linejoin="round"/>
<path d="M48.9297 39.4355C49.5622 39.7261 50.1783 40.0384 50.7878 40.3743" stroke="black" stroke-width="0.6" stroke-linecap="round" stroke-linejoin="round"/>
<path d="M50.457 38.2959C51.0069 38.7746 51.6811 39.1666 52.3815 39.3688" stroke="black" stroke-width="0.6" stroke-linecap="round" stroke-linejoin="round"/>
<path d="M51.6523 35.4814C52.4146 35.6419 53.148 35.9312 53.9086 36.0849" stroke="black" stroke-width="0.6" stroke-linecap="round" stroke-linejoin="round"/>
<path d="M51.8516 33.6025C52.6166 33.6707 53.3537 33.9334 54.1078 34.0719" stroke="black" stroke-width="0.6" stroke-linecap="round" stroke-linejoin="round"/>
<path d="M40.5684 42.3203C41.3033 42.7263 41.9243 43.3161 42.5592 43.8626" stroke="black" stroke-width="0.6" stroke-linecap="round" stroke-linejoin="round"/>
<path fill-rule="evenodd" clip-rule="evenodd" d="M75.5727 44.4576L81.2655 39.7838L84.8236 41.2219L86.2468 43.0195H89.0932L91.5838 38.3457L97.2766 41.941L99.0557 45.1767L97.2766 47.6934L99.0557 49.8505H102.258L103.325 52.0077L102.258 59.5577H98.344L95.4976 63.8721L96.9208 67.1078L90.8722 71.0626L89.0932 67.8268H84.8236L81.9771 71.7816L76.2843 68.5459L73.7937 67.1078L76.2843 62.7935V61.3554H73.7937L70.9473 58.8387V51.6482L74.8611 51.2886L77.3517 47.6934L75.5727 44.4576ZM82.6883 54.5237L88.3812 49.8499L90.1602 51.6475L89.8044 57.3999L84.8231 61.3547L82.6883 59.5571V54.5237Z" fill="white"/>
<path fill-rule="evenodd" clip-rule="evenodd" d="M75.5727 44.4576L81.2655 39.7838L84.8236 41.2219L86.2468 43.0195H89.0932L91.5838 38.3457L97.2766 41.941L99.0557 45.1767L97.2766 47.6934L99.0557 49.8505H102.258L103.325 52.0077L102.258 59.5577H98.344L95.4976 63.8721L96.9208 67.1078L90.8722 71.0626L89.0932 67.8268H84.8236L81.9771 71.7816L76.2843 68.5459L73.7937 67.1078L76.2843 62.7935V61.3554H73.7937L70.9473 58.8387V51.6482L74.8611 51.2886L77.3517 47.6934L75.5727 44.4576ZM82.6883 54.5237L88.3812 49.8499L90.1602 51.6475L89.8044 57.3999L84.8231 61.3547L82.6883 59.5571V54.5237Z" fill="white"/>
<path d="M77.2656 54.3424C78.3923 52.335 79.519 50.3277 80.6457 48.3203" stroke="black" stroke-width="0.6" stroke-linecap="round" stroke-linejoin="round"/>
<path d="M78.332 45.8047C78.963 47.0975 79.5531 48.399 80.3779 49.5797" stroke="black" stroke-width="0.6" stroke-linecap="round" stroke-linejoin="round"/>
<path d="M85.3574 41.5801C85.7793 42.7808 86.1128 44.0023 86.4644 45.2253C86.6004 45.6983 86.7007 46.0429 86.9585 46.4337" stroke="black" stroke-width="0.6" stroke-linecap="round" stroke-linejoin="round"/>
<path d="M78.0645 46.3442C80.1354 44.0005 82.7862 42.1808 85.4474 40.5918" stroke="black" stroke-width="0.6" stroke-linecap="round" stroke-linejoin="round"/>
<path d="M86.3379 45.5343C87.5328 45.4433 89.2671 45.3328 90.3407 45.9837" stroke="black" stroke-width="0.6" stroke-linecap="round" stroke-linejoin="round"/>
<path d="M90.6953 46.2532C91.5947 44.4356 92.5124 42.432 93.8086 40.8604" stroke="black" stroke-width="0.6" stroke-linecap="round" stroke-linejoin="round"/>
<path d="M96.209 49.3084C97.0414 47.8743 97.8839 46.2677 99.0554 45.084" stroke="black" stroke-width="0.6" stroke-linecap="round" stroke-linejoin="round"/>
<path d="M96.5645 48.1406C97.2998 49.348 97.8252 50.5709 98.2545 51.9156" stroke="black" stroke-width="0.6" stroke-linecap="round" stroke-linejoin="round"/>
<path d="M98.3457 52.1846C99.829 52.226 101.315 52.14 102.793 52.0947" stroke="black" stroke-width="0.6" stroke-linecap="round" stroke-linejoin="round"/>
<path d="M103.415 52.1855C103.169 54.8312 102.703 57.5245 102.703 60.185" stroke="black" stroke-width="0.6" stroke-linecap="round" stroke-linejoin="round"/>
<path d="M98.0781 59.8263C99.8584 59.7571 101.637 59.6623 103.415 59.5566" stroke="black" stroke-width="0.6" stroke-linecap="round" stroke-linejoin="round"/>
<path d="M95.4102 64.0494C96.6417 62.0741 97.9177 60.1527 98.8792 58.0273" stroke="black" stroke-width="0.6" stroke-linecap="round" stroke-linejoin="round"/>
<path d="M95.2324 63.5107C96.0254 64.7699 96.6743 66.1115 97.4562 67.3756" stroke="black" stroke-width="0.6" stroke-linecap="round" stroke-linejoin="round"/>
<path d="M84.2031 67.5557C86.0987 67.9747 87.748 67.8731 89.6291 67.4658" stroke="black" stroke-width="0.6" stroke-linecap="round" stroke-linejoin="round"/>
<path d="M89.2715 67.5547C89.8211 68.7857 90.4285 69.9579 91.0505 71.15" stroke="black" stroke-width="0.6" stroke-linecap="round" stroke-linejoin="round"/>
<path d="M90.873 71.3297C93.06 70.2909 95.0923 68.9069 97.0996 67.5547" stroke="black" stroke-width="0.6" stroke-linecap="round" stroke-linejoin="round"/>
<path d="M82.4238 72.1389C83.1634 70.353 84.2198 68.672 84.8255 66.8359" stroke="black" stroke-width="0.6" stroke-linecap="round" stroke-linejoin="round"/>
<path d="M76.2852 68.5449C77.5242 67.0312 78.672 65.4685 80.0211 64.0508" stroke="black" stroke-width="0.6" stroke-linecap="round" stroke-linejoin="round"/>
<path d="M76.0176 68.3643C77.8293 69.4627 79.5281 70.7197 81.2459 71.9595C81.3282 72.0189 81.8074 72.4333 81.7104 72.1393" stroke="black" stroke-width="0.6" stroke-linecap="round" stroke-linejoin="round"/>
<path d="M77.7988 60.9932C78.0074 62.2929 78.646 63.7367 79.5778 64.6783" stroke="black" stroke-width="0.6" stroke-linecap="round" stroke-linejoin="round"/>
<path d="M72.9062 60.7227C74.5431 61.0926 76.3036 60.9923 77.9764 60.9923" stroke="black" stroke-width="0.6" stroke-linecap="round" stroke-linejoin="round"/>
<path d="M73.1719 53.7139C74.9611 54.2369 76.6851 54.124 78.5089 53.8936" stroke="black" stroke-width="0.6" stroke-linecap="round" stroke-linejoin="round"/>
<path d="M73.4395 53.7139C73.4122 55.6189 73.2929 57.5215 73.2715 59.4263C73.2628 60.1936 73.2728 60.7549 73.5284 61.4437" stroke="black" stroke-width="0.6" stroke-linecap="round" stroke-linejoin="round"/>
<path d="M71.0371 51.4668C72.0063 52.3199 72.8341 53.2182 73.7056 54.1632" stroke="black" stroke-width="0.6" stroke-linecap="round" stroke-linejoin="round"/>
<path d="M70.5938 51.4669C72.1967 51.5991 73.7201 51.3042 75.3081 51.1973" stroke="black" stroke-width="0.6" stroke-linecap="round" stroke-linejoin="round"/>
<path d="M75.3965 52.0065C75.803 50.519 76.4384 48.969 77.7092 48.0518" stroke="black" stroke-width="0.6" stroke-linecap="round" stroke-linejoin="round"/>
<path d="M75.3066 44.2764C76.0656 45.458 76.6979 46.6755 77.2636 47.9615" stroke="black" stroke-width="0.6" stroke-linecap="round" stroke-linejoin="round"/>
<path d="M75.2188 44.1865C76.7265 44.8322 78.0123 45.8351 79.4884 46.5234" stroke="black" stroke-width="0.6" stroke-linecap="round" stroke-linejoin="round"/>
<path d="M77.709 47.9609C78.4433 48.4019 79.199 48.756 79.9723 49.1194C80.1985 49.2257 80.3831 49.3148 80.5554 49.4889" stroke="black" stroke-width="0.6" stroke-linecap="round" stroke-linejoin="round"/>
<path d="M75.2188 51.2861C76.0143 52.4284 76.8196 53.5329 77.7983 54.5219" stroke="black" stroke-width="0.6" stroke-linecap="round" stroke-linejoin="round"/>
<path d="M74.6836 45.1744C76.6313 42.4643 79.4349 40.6493 82.3333 39.1523" stroke="black" stroke-width="0.6" stroke-linecap="round" stroke-linejoin="round"/>
<path d="M81.0879 39.333C82.4831 40.0917 83.8921 40.7945 85.3575 41.4003" stroke="black" stroke-width="0.6" stroke-linecap="round" stroke-linejoin="round"/>
<path d="M85.625 43.2882C86.8384 43.0583 88.041 43.0186 89.272 43.0186" stroke="black" stroke-width="0.6" stroke-linecap="round" stroke-linejoin="round"/>
<path d="M89.0059 42.9277C89.6539 44.2037 90.262 45.5 90.8738 46.7926" stroke="black" stroke-width="0.6" stroke-linecap="round" stroke-linejoin="round"/>
<path d="M89.1836 43.467C89.8351 41.7115 90.8461 40.1071 91.6742 38.4336" stroke="black" stroke-width="0.6" stroke-linecap="round" stroke-linejoin="round"/>
<path d="M92.1172 38.5225C92.6295 39.6745 93.169 40.8047 93.7183 41.938" stroke="black" stroke-width="0.6" stroke-linecap="round" stroke-linejoin="round"/>
<path d="M93.7188 41.2197C95.3813 42.1589 96.8861 43.3388 98.4331 44.4555" stroke="black" stroke-width="0.6" stroke-linecap="round" stroke-linejoin="round"/>
<path d="M92.209 38.5225C93.8499 39.8347 95.711 40.6355 97.4571 41.7582" stroke="black" stroke-width="0.6" stroke-linecap="round" stroke-linejoin="round"/>
<path d="M97.1895 41.4883C97.625 42.7741 98.2974 43.9277 98.7906 45.1734" stroke="black" stroke-width="0.6" stroke-linecap="round" stroke-linejoin="round"/>
<path d="M97.3672 47.7822C97.7845 48.5 98.1988 49.2195 98.6125 49.9394" stroke="black" stroke-width="0.6" stroke-linecap="round" stroke-linejoin="round"/>
<path d="M98.4336 52.7251C98.4548 51.5676 98.4585 50.3343 98.7894 49.2197" stroke="black" stroke-width="0.6" stroke-linecap="round" stroke-linejoin="round"/>
<path d="M98.6133 49.5781C100.001 49.8703 101.403 49.8267 102.794 50.0275" stroke="black" stroke-width="0.6" stroke-linecap="round" stroke-linejoin="round"/>
<path d="M101.902 49.5781C102.492 50.5258 103.043 51.4836 103.592 52.4543" stroke="black" stroke-width="0.6" stroke-linecap="round" stroke-linejoin="round"/>
<path d="M75.9297 61.1738C76.1187 61.8422 76.3117 62.5029 76.5523 63.1512" stroke="black" stroke-width="0.6" stroke-linecap="round" stroke-linejoin="round"/>
<path d="M75.752 62.5225C77.0594 63.3151 78.4644 64.5048 80.0216 64.6796" stroke="black" stroke-width="0.6" stroke-linecap="round" stroke-linejoin="round"/>
<path d="M73.4395 67.4656C74.2055 66.0206 75.2759 64.7652 76.1969 63.4209" stroke="black" stroke-width="0.6" stroke-linecap="round" stroke-linejoin="round"/>
<path d="M74.1504 67.0166C74.7502 67.5578 75.5643 68.291 76.3742 68.4547" stroke="black" stroke-width="0.6" stroke-linecap="round" stroke-linejoin="round"/>
<path d="M70.5039 58.6572C71.1941 59.5235 72.1227 61.0081 73.2614 61.2638" stroke="black" stroke-width="0.6" stroke-linecap="round" stroke-linejoin="round"/>
<path d="M70.5039 50.9268C70.5214 53.253 70.5491 55.5773 70.7312 57.8976C70.7711 58.4055 70.8273 58.8852 70.9487 59.3756" stroke="black" stroke-width="0.6" stroke-linecap="round" stroke-linejoin="round"/>
<path d="M82.4238 53.3535C82.6372 56.07 82.6146 58.8108 82.6907 61.5327" stroke="black" stroke-width="0.6" stroke-linecap="round" stroke-linejoin="round"/>
<path d="M81.7129 58.9268C83.9631 60.6428 86.0881 62.5237 88.4731 64.05" stroke="black" stroke-width="0.6" stroke-linecap="round" stroke-linejoin="round"/>
<path d="M86.3379 64.5884C88.6382 62.4882 91.2496 60.752 93.6318 58.7461" stroke="black" stroke-width="0.6" stroke-linecap="round" stroke-linejoin="round"/>
<path d="M94.0902 52.6016C93.8611 55.8902 93.6876 57.5357 93.3633 60.8125" stroke="black" stroke-width="0.6" stroke-linecap="round" stroke-linejoin="round"/>
<path d="M81.623 54.971C84.051 53.2063 86.2987 51.1968 88.828 49.5781" stroke="black" stroke-width="0.6" stroke-linecap="round" stroke-linejoin="round"/>
<path d="M88.6504 50.1182C90.5593 51.3742 92.5224 52.4743 94.1653 54.073" stroke="black" stroke-width="0.6" stroke-linecap="round" stroke-linejoin="round"/>
<path d="M90.1614 50.8369C90.0601 53.2933 89.9585 55.7495 89.8945 58.2072" stroke="black" stroke-width="0.6" stroke-linecap="round" stroke-linejoin="round"/>
<path d="M84.291 61.7135C86.2035 60.6092 87.8138 59.0726 89.717 57.9385" stroke="black" stroke-width="0.6" stroke-linecap="round" stroke-linejoin="round"/>
<path d="M89.5391 57.7568C91.1122 58.383 92.8059 58.7746 94.3424 59.4646" stroke="black" stroke-width="0.6" stroke-linecap="round" stroke-linejoin="round"/>
<path d="M70.6816 56.6797C71.3702 57.3689 72.0506 58.0618 72.8165 58.6571" stroke="black" stroke-width="0.6" stroke-linecap="round" stroke-linejoin="round"/>
<path d="M70.4141 53.4443C71.3089 54.4558 72.3117 55.3618 73.2605 56.3205" stroke="black" stroke-width="0.6" stroke-linecap="round" stroke-linejoin="round"/>
<path d="M76.1953 49.7598C76.9985 50.3804 77.7497 51.0667 78.508 51.7372" stroke="black" stroke-width="0.6" stroke-linecap="round" stroke-linejoin="round"/>
<path d="M77.0859 42.6602C78.0074 43.1479 79.0477 43.472 79.9324 44.0084" stroke="black" stroke-width="0.6" stroke-linecap="round" stroke-linejoin="round"/>
<path d="M79.2207 40.7715C79.8895 41.4583 80.9243 42.464 81.8892 42.659" stroke="black" stroke-width="0.6" stroke-linecap="round" stroke-linejoin="round"/>
<path d="M90.6953 40.0527C91.0858 41.1015 91.2709 42.2944 91.7627 43.2885" stroke="black" stroke-width="0.6" stroke-linecap="round" stroke-linejoin="round"/>
<path d="M100.3 52.0967C100.152 51.3166 100.026 50.5333 99.8555 49.7598" stroke="black" stroke-width="0.6" stroke-linecap="round" stroke-linejoin="round"/>
<path d="M86.3359 60.7266C87.1838 61.116 88.0096 61.5346 88.8266 61.9849" stroke="black" stroke-width="0.6" stroke-linecap="round" stroke-linejoin="round"/>
<path d="M88.3809 59.1973C89.1179 59.8389 90.0217 60.3643 90.9604 60.6354" stroke="black" stroke-width="0.6" stroke-linecap="round" stroke-linejoin="round"/>
<path d="M89.9844 55.4219C91.0061 55.637 92.746 56.1015 93.8222 56.3705" stroke="black" stroke-width="0.6" stroke-linecap="round" stroke-linejoin="round"/>
<path d="M90.25 52.9053C91.2755 52.9967 92.2634 53.3487 93.2743 53.5344" stroke="black" stroke-width="0.6" stroke-linecap="round" stroke-linejoin="round"/>
<path d="M75.1289 64.5889C76.114 65.133 76.9464 65.9236 77.7974 66.6561" stroke="black" stroke-width="0.6" stroke-linecap="round" stroke-linejoin="round"/>
</svg>
