<svg xmlns="http://www.w3.org/2000/svg" xmlns:xlink="http://www.w3.org/1999/xlink" viewBox="0 0 720 300"><style>.P{stroke-linejoin:round}.Q{stroke-linecap:round}.R{stroke:#000}.S{fill:#fff}.T{fill:none}.U{enable-background:new}.V{opacity:.7}.W{fill-opacity:.1}.X{fill-rule:evenodd}</style><defs><path id="A" d="M0 0h720v300H0z"/></defs><clipPath id="B"><use xlink:href="#A"/></clipPath><g clip-path="url(#B)"><radialGradient id="C" cx="124.7" cy="2.7" r="1" gradientTransform="matrix(-.3686 20.9846 -45.5872 -.8007 451.728 -2458.12)" gradientUnits="userSpaceOnUse"><stop offset="0"/><stop offset="1" stop-color="#3e7bfa" stop-opacity="0"/></radialGradient><path d="M359.2 153.7c0 21.2-37.4 38.4-83.4 38.4s-83.4-17.2-83.4-38.4 37.4-38.4 83.4-38.4 83.4 17.2 83.4 38.4z" fill="url(#C)" class="U V W"/><linearGradient id="D" gradientUnits="userSpaceOnUse" x1="663.5" y1="98" x2="-5.5" y2="303.9"><stop offset="0" stop-color="#f8f8f8" stop-opacity="0"/><stop offset=".1" stop-color="#f8f8f8"/><stop offset=".8" stop-color="#f8f8f8"/><stop offset=".9" stop-color="#f8f8f8" stop-opacity="0"/></linearGradient><path d="M19.2 313.8l-4-9.2 132-56 .4-.1c15-4 31 3.7 45.3 10.5l16 6.8c6 1.8 13-1.6 22.7-7 4.7-2.5 12.5-6 19.4-9.3l10.5-5c1.4-.7 3.2-1.5 5.2-2.4 2.5-1 7.5-3.4 10.3-5.2a47 47 0 00-3.7-1.1l-22-6.5-13.8-4.2c-6.2-1.7-10.2-5.7-10.6-10.8-.4-5.3 3.3-10.3 10-13.2v-.1l65.2-26.7C317 168 326 169 345 172l26.6 6.3c7.5 2 15.2 4 22 5.4l8 2c8.8 2.2 13.2 3.3 26.4-3.4L643.6 63.6l4.8 8.8-216 118.7c-16.6 8.5-23.7 6.7-33.5 4.2l-7.5-1.7L369 188l-25.6-6c-18-3-25-3.6-37.2 1.7L241 210.4c-3.3 1.5-4 3-4 3.3 0 .2.7 1.2 3.2 2l14.2 4.3 21.4 6.3c5.7 1.5 12.3 4 12.8 9.7.6 7.2-8.7 11.4-17.7 15.4l-4.6 2a194 194 0 01-11 5.2l-18.8 9c-9.8 5.3-20 11-30.3 7.7-5.3-1.6-11.2-4.4-17.4-7.3-12.6-6-27-12.7-38.2-10L19.2 313.8z" opacity=".5" fill="url(#D)" class="U"/><linearGradient id="E" gradientUnits="userSpaceOnUse" x1="634.3" y1="75.8" x2="34.2" y2="290.1"><stop offset="0" stop-color="#b4ff99" stop-opacity="0"/><stop offset=".3" stop-color="#b4ff99"/><stop offset=".7" stop-color="#84e999"/><stop offset="1" stop-color="#84e999" stop-opacity="0"/></linearGradient><path d="M18.4 298.6l-4-9.2 132-56 .4-.1c15-4 31 3.7 45.3 10.5l16 6.8c6 1.8 13-1.6 22.7-7 4.7-2.5 12.5-6 19.4-9.3l10.5-5c1.4-.7 3.2-1.5 5.2-2.4 2.5-1 7.5-3.4 10.3-5.2a47 47 0 00-3.7-1.1l-22-6.5L237 210c-6.2-1.7-10.2-5.7-10.6-10.8-.4-5.3 3.3-10.3 10-13.2h.1l65.2-26.8c14.8-6.3 23.8-5.3 42.7-2.3l26.6 6.3c7.5 2 15.2 4 22 5.4l8 2c8.8 2.2 13.2 3.3 26.4-3.4L643 48.6l4.8 8.8-216 118.4c-16.6 8.5-23.7 6.7-33.5 4.2l-7.5-1.7-22.5-5.5-25.6-6c-18-3-25-3.6-37.2 1.7L240 195c-3.3 1.5-4 3-4 3.3 0 .2.7 1.2 3.2 2l14.2 4.3L275 211c5.7 1.5 12.3 4 12.8 9.7.6 7.2-8.7 11.4-17.7 15.4l-4.6 2a194 194 0 01-11 5.2l-18.8 9c-9.8 5.3-20 11-30.3 7.7-5.3-1.6-11.2-4.4-17.4-7.3-12.6-6-26.8-12.7-38.2-10L18.4 298.6zm260-75.8z" opacity=".5" fill="url(#E)" class="U"/><radialGradient id="F" cx="124.7" cy="2.7" r="1" gradientTransform="matrix(-.3686 20.9846 -45.5872 -.8007 570.28 -2452.16)" gradientUnits="userSpaceOnUse"><stop offset="0"/><stop offset="1" stop-color="#3e7bfa" stop-opacity="0"/></radialGradient><path d="M477.7 159.7c0 21.2-37.4 38.4-83.4 38.4S311 181 311 159.7s37.4-38.4 83.4-38.4 83.4 17.2 83.3 38.4z" fill="url(#F)" class="U V W"/><radialGradient id="G" cx="124.7" cy="2.7" r="1" gradientTransform="matrix(-.3686 20.9846 -45.5872 -.8007 681.013 -2511.03)" gradientUnits="userSpaceOnUse"><stop offset="0"/><stop offset="1" stop-color="#3e7bfa" stop-opacity="0"/></radialGradient><path d="M588.5 100.8c0 21.2-37.4 38.4-83.4 38.4s-83.4-17.2-83.4-38.4S459 62.4 505 62.4s83.4 17.2 83.5 38.4z" fill="url(#G)" class="U V W"/><radialGradient id="H" cx="124.7" cy="2.7" r="1" gradientTransform="matrix(-.3686 20.9846 -45.5872 -.8007 376.888 -2375.995)" gradientUnits="userSpaceOnUse"><stop offset="0"/><stop offset="1" stop-color="#3e7bfa" stop-opacity="0"/></radialGradient><path d="M284.3 235.8c0 21.2-37.4 38.4-83.4 38.4s-83.4-17.2-83.4-38.4 37.4-38.4 83.5-38.4 83.4 17.2 83.4 38.4h-.1z" fill="url(#H)" class="U V W"/><radialGradient id="I" cx="124.7" cy="2.7" r="1" gradientTransform="matrix(-.3686 20.9846 -45.5872 -.8007 293.44 -2381.294)" gradientUnits="userSpaceOnUse"><stop offset="0"/><stop offset="1" stop-color="#3e7bfa" stop-opacity="0"/></radialGradient><path d="M201 230.5c0 21.2-37.4 38.4-83.4 38.4S34 251.7 34 230.5 71.3 192 117.4 192s83.5 17.2 83.5 38.4v.1z" fill="url(#I)" class="U V W"/><path d="M122 213.5l-12.5 5-1 14.5 11.5 3 12.5-5v-14l-10.5-3.5z" class="S"/><path d="M121.6 213.4l12.3 4" class="P Q R T"/><path d="M132.4 231l-12.7 5.3-11.2-3.5v-14.2l11.8 3 12-5v3.3l.1 11z" class="S"/><g class="R T P"><g class="Q"><path d="M108.5 218v15m11.8-12.4v16m12-20v14.7M108.2 233l12.7 3.3m-12-17.8l12.7 3.3M118.8 236.7l15-6m-14-8.7l13-5.5m-24.5 2.4l14-5.8m-7.3 7l12-5.2"/></g><path d="M120.8 236l4.5-16.2-4.5 16.2zm1.6-15c-.7 3-1.3 4.4-2 7.2l2-7.2z"/><path d="M123.3 235l4-15.8m5 6l-1.8 6.6m-2.3 1l4.2-16-4.2 16zm1.4-14.6l-4 15.6 4-15.6z" class="Q"/></g><path d="M208.4 238h-2.6l-2.8-3.4 1.7-1.8v-4.5H203l1.7-6h2l1.7-1.5v-3l4.2-2.3 2.3 1.5v2.7l1.5-2.7 3.2 1.5.8 3.8-2 1.7v3h2l-.8 5.7-2.5-.7-2.2 2.5.7 3.4-3.7 1.5-3.4-.6v-1l-.1.2zm2-10.7l2.3-1.6 1.6.8-1 3-1.8 1.3-1-.5v-3h-.1z" class="S X"/><g class="R T P"><g class="Q"><path d="M203 228c.3.1.6.2 1 .2l4 .7m-4-6.8c.3 0 .6.1 1 .2l4.5 1.5m-1.3-6.3l4.7 1.3m-1.3-3.6l4 1.4m.5.4c1.2.3 2.3.7 3.5 1m-1 9l2.2.5M217 232l2.5.6m-4.3 1.6c0 .2.1.4.1.6v3.6m-3.6-2.2l.1 3.5m-4-1.2c1-.7 1.6-1.7 2.4-2.5m-4.3-1c.8-1 1.8-1.8 2.7-2.6"/><path d="M208.3 233.2c-.2-1-.5-3-.2-4.7m1.3-4.4c.6-1 1.4-2 2.5-2.4M211.8 218.3l-.1 4.6m3.2-6v3.8M214.6 220.2c.7 0 1.7.2 2.2 1"/><path d="M216.4 221c.2-.2.4-.3.6-.5l3-3m-1.6 7c.1-.1.1-.2.2-.4l2.4-2.4"/><path d="M219 218c.2.4.3.7.4 1.2l.7 2.7c0 .1.1.2.2.3m-2 1.7c.3 1.5.4 2.6 0 3.8m1.7-.1c.3 2-.7 4.4-1.2 5.8m-4 1.6c1.3-1 1.7-1.7 2.3-3.2m-6 8.2c.2 0 .5-.1.7-.2l4-1.7M208.8 239l3.8.7M209 239.2l-.2-1.5m-2.3-8.7c-.1-2 .4-4 1.5-6m-4.4 5.3c0-2 .7-4.3 1.7-6m1.4.8l1.8-1.7m.1-3.6l-.1 2.8v.4m-.5.2l3.8 1m3.2-2.8l2-3m-9 1.2l4.8-2.4m-1.2 3.5l2.5-1.3 2.7-1.6m-11 13c0 1 .2 2.3.2 3.4m-.4-.1l3.8 1M203 234.8c.3-.2.6-.5.8-.8l1.8-2M203 234.7l4 .8m3 .7c1 .2 1.8.3 2.7.3M206 235l2 3c.2.3.4.7.7 1m-5.8-4.3l3 3.5"/><path d="M205.2 238c1 0 2.2.6 3.4.7m1.5-8.5l3.5 2.6M210.4 231.2l.5-5M210.2 227.3l3.7-2.7M212.8 224.5c1 .7 2.3 1.2 3.4 1.7.3.1.7.3 1 .5m-5 5.8l3.7-2.2M215.6 230.7l.8-4.6m-2.2-.1l-.8 3.7M211 231l1.3-.6 1.3-.6m-1-4.2l2 .8M214 226.4l3.2-.1m-4 3.3l1.3.6 1 .4M214 228l2.3.5M212 238l-2.4-.4m-2.4-.6l-2.5-.3m11.3-18l2.5.7M208 230.6l-2.2-.5m1.2-5.2l-2.5-.6m-.8 1.7l3 .6m5-6.6l-3.6-.7"/></g><path d="M210.2 216.6l3.5 1-3.5-1z"/></g><path d="M270.8 152.5v-5l6-3.7h20.7l4.6 4v5.8l-7 3.7h-17.6l-7-5 .3.2z" class="S"/><g class="P Q R T"><path d="M269 151l8 6.6m.1-.5l18.6.3M271 145.7v8.6m6.8-4v6.6m17.6-7v8m7-12v8M270.4 146.4l7.3 4.6m0 0h17.8M296 142.8l7.3 5.3m-33-.7c4-1.5 8-3 12-4.3M278.7 143.8l22.2-.1m-6.2 14l8.7-4.2m-8.7-2l9.3-4.3m-32.2 6l1.4-5m.3 6.5c.4-1.7 1.3-3.6 1.7-5.3m.2 7l1.8-5.6m1 6.3l1.6-5.7m1 5.7l1.6-6m1 6l1.5-6M292 151.4l-1.5 5.8m-2.6 0l1.5-5.8m-2.3 0l-1.5 5.8m8.8-5.8l-1.6 6m4.3-7l-2 7m4.7-8.3l-1.7 6.6 1.7-6.6zm2.3-1.2l-1.8 7"/></g><path d="M506 91c2.3 1 4 2.6 4 3.6 1-.3 3-2 5.6-2.6 3.3-.7 5.3 3.6 5.3 5.6s-10.3 16-16.2 10.3c-2.8-2.6-5.5-9.2-5-12.6.7-1 2.6-6 6.3-4.3z" class="S"/><g class="P R T"><path d="M506.8 109c-2.5-.5-4-4-5.4-7-3.4-7.2-.6-15 7.2-6.4 6-5 15-1.6 7 8.5-1.7 2.3-6 5.4-9 4.8h.2z"/><g class="Q"><path d="M501.2 92.7l3.6-2m0 0c2.6 0 4.6 2.2 5.4 4m.3 0L515 92M515 92c4.3-.7 5.7 3 5.7 4.5.1 5-7.7 12.4-12.7 12.5m-3-16l2.3-1.6M507.2 94.2l2-1.4m6.6 1l2.3-1.4m.1 3l2-1M519 98l1.6-.7M518 101l2-.8m-3.4 3.2l2-.8"/><path d="M497.2 99.8c2.8.7 6.6 1.7 7 1s.5-3.3 1-4c.3-.3.8 5.8 1 6 .2 1 .7-.2 1.2-1.5.4-.8 1-2.8 1-2.5.3.7.5 3 1 3.2.3.2.8-.7 1-1 .8-1.4 1 .6 1.4 1 .5 1 2 .1 3 0l6 1.2"/></g></g><path d="M407.5 122h-1v31l-4.6-1-15 2v6l31.5 6.6v-6.3l-.7-5-10.3-2.3v-31h.1z" class="S"/><g class="P Q R T"><path d="M386.7 153l.1 7.2M418 159v7.6M386.3 160l32.8 7m-34-13.2l35.4 7M386.2 154.3l11-1.6c1.8-.4 3.6-.6 5.4-.6m15.4 9l-.7-7M399.7 151.7l18.5 3.6m-10.8-2.3v-31.6m-1.2 31.2V121"/></g><path d="M408 130.8v-9.3l16.6 2.3v9.3l-16.6-2.3z" class="S"/><g class="R T P"><g class="Q"><path d="M406.2 121.6c3 .5 14.6 1.7 19.2 2.3m-18 7l17 2.3M424 133.3v-10"/></g><path d="M387.4 159.7l1.4-5.3-1.4 5.3zm2.6 1.3l1.4-5.6-1.4 5.6z"/><path d="M393 161l1.4-5.3m1 6.3l1.4-5.5m1.5 6l1.4-5.5m1.3 6l1.5-5.7m1 6.3l1.5-5.6m1.3 6.3l1.5-6m4 7l1.6-6M409 165l1.6-6m4.2 7l1.5-6m1 6.5l1.2-4.6m-5-35.3l1.2 2.8c.3.6 1.2-.8 1.4-1 1-1.2 2.5-3 4-3.3" class="Q"/></g><g fill="#1a1a1a" stroke-width=".3" class="X P R"><path d="M201.5 208.8c-.2 0-.3-.2-.2-.4l.2-.5c.6-1.5 1-3 .8-4.7-.5-2.4-2.7-3.6-4.5-4.6l-.2-.1c-1-.6-2-1-3.2-1.5l-1-.5c-1.5-.7-3-1.5-4.3-2.4-.6-.5-1-1-1.3-1.5s-.3-1-.2-1.6c.2-1 .8-2 1.4-3 .1-.2.3-.2.5-.1s.2.3.1.5c-.6 1-1.2 2-1.3 2.8-.1.4 0 .8.1 1.2s.5.8 1 1.2c1.3 1 2.7 1.6 4 2.3l1 .5 3.3 1.6h.2c1.7 1 4 2.2 4.7 5 .4 2-.2 3.6-.8 5l-.2.5c0 .2-.2.3-.4.2l.3.1z"/><path d="M201.6 208zm.5-.4c.8-.6 1.4-1.4 2-2.3l.2-.2 1.5-1.6h-.5l-2 .1-.2.1h1.2c.2 0 .3.2.3.4s-.2.3-.4.3c-.3-.1-1 0-1.5.1l-2 .3h-.1c.3.3.6.8 1 1.2a3 3 0 01.4 1c.1.2.1.5.1.7v-.1zm-2-2.6h.2c.4.4.7.8 1 1.3.2.3.3.5.3.8s.1.5 0 .6h-.1V208s0 .1.1.2.1.1.2.1h.3c.1 0 .2-.1.4-.3 1-.7 1.7-1.7 2.5-2.6v-.2c.6-.8 1.3-1.5 2-2.2h.1c.1 0 .1-.1.2-.1 0 0 .1-.1.1-.2v-.1l.1-.1c.2-.1.2-.2.2-.4 0 0 0-.1-.1-.1-.1-.2-.3-.2-.5-.1h-.2c-1-.4-2.3-.1-3.5.4h-.3l-3.4.4h-1.2l-.6.1h-.1c-.1 0-.2.1-.2.2-.1.1-.1.2 0 .3 0 .1.1.1.1.2.1.1.1.1.2.1s.1.1.2.1l.7.2h.4c0 .1.1.1.1.2H199.9v.8zm.1-.7l.5-.1.8-.3h-2 .6l.1.2zM109 195c0 .2-.2.3-.4.2l-1.5-.7-6.3-3L98 190c-.8-.7-1.5-1.6-1.7-2.8-.4-2 .2-3.7 1-5.5l.5-1.2 1.4-3.8c.1-.8 0-1.5-.4-2-.3-.6-1-1-1.6-1.5s-1.4-.8-2.2-1l-.6-.3-1.4-.6c-.2-.1-.2-.3-.2-.4.1-.2.3-.2.5-.2l1.4.6.6.3c.8.3 1.6.7 2.3 1.2s1.4 1 1.8 1.7.6 1.5.4 2.5c-.2 1.4-.8 2.7-1.4 4l-.5 1c-.7 1.7-1.2 3.3-1 5 .2 1 .8 1.8 1.5 2.4s1.7 1.2 2.5 1.6l6.2 3 1.5.7c.2.1.2.3.3.4z"/><path d="M108.3 197.7c-.2.1-.4 0-.4-.2v-.1l-.7-.1-1-.3h-.1l-.6-.2-3.7-1-1.6-.5s-.1 0-.2-.1-.1-.1-.1-.2 0-.1.1-.2c0-.1.1-.1.1-.1.1-.1.2-.1.3-.2l1-.6 2-1c.4-.2 1-.5 1.3-1l.8-.8h.2l.3-.3v-.1h.2c.1 0 .2.2.2.2 0 .1 0 .2-.1.2l-.1.3-.1.3h.2c.1 0 .1 0 .2.1h.1c.1.2.3.5.4 1l1 2.4.1.2.2.5h.1l.2.6.1.2v.1s0 .1-.1.2-.3.1-.4.1h-.2c0 .1-.1.3-.2.3l.4-.1zm.1-1h.2l-.2-.5v-.1l-.2-.5.3 1-.1.1zm-1.8-4.8l-.2.3c0 .2-.2.3-.4.2-.2-.1-.2-.3-.2-.4l-.3.3c-.4.4-1 .8-1.4 1l-2 1-1 .5 1 .3 3.6 1c.2 0 .4.1.7.2h.1l1 .3.3.1-1-3.5-.2-1v-.2zm282.2-79.2c-.1.2-.2.2-.4.2 0 0-.1 0-.1-.1l-1.4-.8-6-3.7-2.4-2c-.7-.8-1.3-1.8-1.4-3-.2-2 .6-3.7 1.5-5.3l.6-1c.7-1.2 1.4-2.4 1.8-3.7.2-.8.2-1.5-.1-2-.3-.6-.8-1-1.4-1.6s-1.3-1-2-1.3l-.6-.3-1.4-.8c-.2-.1-.2-.3-.1-.5s.2-.2.4-.2c0 0 .1 0 .1.1l1.3.8.6.3c.7.4 1.5 1 2 1.4s1.2 1 1.6 2c.3.7.4 1.6.2 2.6-.4 1.3-1 2.6-1.8 4l-.6 1c-1 1.6-1.6 3.2-1.4 5 .1 1 .6 1.8 1.3 2.6s1.5 1.3 2.3 2l5.8 3.6 1.4.8c.2.1.2.2.2.4 0 0 0 .1-.1.1l.1-.6z"/><path d="M388 115.3c-.2.1-.3 0-.4-.2l-.6-.2-1-.4h-.1l-.6-.2-3.5-1.4-1.5-.6-.1-.1c-.1-.1-.1-.2-.1-.2 0-.1.1-.2.1-.2l.1-.1c.1-.1.2-.1.4-.2l1.2-.5 2-.8 1.4-.8 1-.7.2-.2c.1-.1.3-.2.4-.3H387.2c.1.1.2.2.2.3v.2c0 .1-.1.1-.1.2l-.1.3-.1.2H387.4c.1 0 .1.1.1.1l.1.1c.1.2.2.5.3 1l.6 2.5.1.2.2.5V114.9l-.2.2c-.1.1-.3.1-.4.1h-.2c0 .1-.2.2-.3.2l.3-.2zm.2-1h.2l-.1-.5v-.1l-.2-.5.2 1-.1.1zm-1.3-5l-.2.3c-.1.2-.3.2-.5.1s-.2-.2-.2-.4c0 0 0-.1.1-.1v-.1l-.4.3c-.5.3-1 .7-1.5 1l-2 .8-1 .4 1 .4 3.5 1.4.6.3h.1l1 .4.3.1-.5-3.6v-1.2l-.3-.1zM275.4 89c.8 2.6 3 4 5.5 5 .2.1.2.3.1.4-.1.2-.3.2-.4.2-2.5-1-5-2.5-6-5.4-.4-1.5-.2-3 .1-4.3l.2-1c.3-1 .5-2.2.5-3.3 0-1-.2-2.3-.6-3.4s-1-2-2-2.5c-.2-.1-.2-.3-.1-.4.1-.2.3-.2.4-.2 1.2.6 2 1.6 2.5 3 .5 1.2.7 2.6.7 3.7 0 1.2-.3 2.3-.5 3.5l-.2.8c-.3 1.4-.5 2.7-.1 4h-.1z"/><path d="M281.2 95.5l-3.4-.7-2-.6c-.3-.1-.5-.2-.6-.4-.1-.1-.2-.2-.2-.3 0-.2 0-.3.2-.4.4-.4 1-.6 1.6-.7l.7-.1H278.4c.7-.2 1.4-.5 2-.8l.3-.1c.1 0 .2-.1.2-.1h.3c.2.1.3.3.3.4v.5c-.1 1 .1 2.2.5 3v.2l.4 1 .1.3v.2c0 .1-.1.1-.2.2h-.2s-.1 0-.1-.1c-.1 0-.1-.1-.1-.1-.1-.1-.1-.2-.2-.3s0-.2 0-.3l-.2-.6-.3-.4zm-.2-.7c-.3-1-.4-2-.4-2.8v-.2h-.1l-2.2.8-.8.2h-.2l-.6.1c-.4.1-.8.2-1 .4.1.1.2.1.3.2.5.2 1.2.4 2 .6l3 .7z"/></g><path d="M568.8 119.8s-6.3 8-5.2 10 13.4 2.6 16.3 1.6l-3.3-9 7.7-9.6c-1.8 0-4 2.8-4.2 2.5-1.2-3.3-5.5-4-8.3-2.5-2.2 1.2-1 4.3-.4 5.5l-2 .8-4.7-7.4h-1v1.2l5.2 7-.1-.1z" class="S"/><g class="P Q R T"><path d="M571.8 113c-1.5.2-1.2 2-1 3 .2 1.3.5 2.3 1.6 3 1 .7 3 1.3 4.2 1 2.3-.7 4.8-4.2 2.8-6-2.2-2-7-2.5-8.8.4-2 3.4 1.6 5.2 4.5 6M563.4 131a16 16 0 018-13"/><path d="M562.2 129.3a42 42 0 0015.3 2.5c1.2 0 2.7-.2 3-1.5M576.4 120c0 4.3 2 7.2 3.8 11"/><path d="M576.8 122.3l1.3-3.4m-3 5.4c.5-.5.8-1 1.2-1.6l3.7-4.5 3.4-3.7c.4-.5 1-1 1-1.6 0-1-1-.2-1.6.1-1 .7-2 1.6-2.8 2.6m-10 5.4c-1.5-2-3.3-3.6-5-5.5-.6-.8-1.4-1.8-1.7-2.7-.2-.7-.4-2.2.8-1.2 1.7 1.6 2.7 3.7 3.8 5.6l1.6 2.6m4.6-3.7c1 1.2 1.3 1.8 3 1.7.5-.1 1.4 0 .8-.3s-1.3-.5-2-.8l-2.5-1"/></g><path d="M580 106.2l-2.7.4.6 1 2 .8 4.3 5.3 1.2 1.4v9.4c-.3 1.2.7 1 1.8 1s2.2-3.2 6-3.2l10 4.3c-.5-2-1.3-4-2.2-6-1.3-3-5-6-6.8-7.4l2.3-8 1.5.3V104l-1.2-.8-.6.6c-1.3-.1-2.2 4.7-2.7 4-.5-1-6.3-2.2-8-.6-2 2-.7 4 .4 5.4l-.4 1.5-5.6-7.8v-.1z" class="S"/><g class="P Q R T"><path d="M586 106.8c-1.5.2-1.2 2-1 3 .2 1.3.5 2.3 1.6 3 1 .7 3 1.3 4.2 1 1-.3 1.8-1 2.5-1.8m.3-4.3c-2.2-2-7-2.5-8.8.4-2 3.4 1.6 5.2 4.5 6m-4 11.3c0-3-1.6-9 .8-12.5"/><path d="M585 125c3.5 1.8 3-2.7 8-2.8 3.8 1.8 9.6 5.4 9.8 4m-9-13.8c5.7 4.3 9.2 11.2 9.2 14.3"/><path d="M594 115.2c-.5-3.5-1-7.7 1.2-10.8.4-.5 1-1.7 1.3-.7.3.6 0 1.3-.2 2-.4 1.6-1 3.2-1.4 4.7l-1.3 5.6m-7.8-.4l-1.7-2m1.2.8c-.3-1-1-1.8-1.6-2.6-1-2-2-4-3.8-5.6-1-1-1 .5-.8 1.2.3 1 1 2 1.7 2.7l2.3 2.6"/><path d="M587 110.6l3-.1h.5l-.3.6c-.3.5-.7.8-1.4 1-.8.1-1.3.1-1.8-.5m-8-5c-.3.8-.6 1.4.5 1.8.4.1.6-.2.6-.5.1-.5 0-1-.5-1.3-.4-.2-1.3-.4-1.7-.2-.3.2-.3 1 0 1.3.8.8 2.4.4 2.3-.8-.1-1-2-1-2.7-.7m18.7-2.4c0 .8.1 1.2 1 1.5.2.1.8.4 1 .2.3-.3.3-1 .3-1.2 0-1-2-1.5-2.4-.6-.6 1 .7 1.8 1.7 1.7.5-.1.6-.6.6-1 0-.5-.1-.4-.7-.4"/></g><path d="M608.4 118.7c-3.5-.4-8.4-5.2-10.3-7.5 1.8-2.2 8.5-4.2 8.5-4.2-2-2-4-8.6 6-5.5 5.2 1.6.3 7.2-2 6.7a47 47 0 011.8 9.2c0 2.8.6 2-3.8 1.4l-.2-.1z" class="S"/><g class="P Q R T"><path d="M609 100.4c-1.8 0-3.2 1-4 2.4-.6 1-.2 2 .5 2.8 1 1.3 2.5 2.2 4 2.4 1.5.2 2.8.1 3.8-1 1-1 1.6-2.4 1.3-3.6-.4-1.4-2-2.3-3.4-2.6-1.8-.5-3.7-.2-5.4.5-1.3.5-2.7 1.4-2.8 2.8 0 1.4 1.3 2.3 2.4 3"/><path d="M606.5 107c-1.6 0-9.3 3.4-8.5 4.3a24 24 0 0010.1 7.4c2 .8 4.7 1.5 4-1.7l-2-9.5"/><path d="M604 108c-1-.4-1.7-1.3-2.4-2.2-.6-.8-1.3-1.6-1.6-2.5-.2-.6-.2-1.3-.2-2 0-1.8 1-3.2 2.2-4.6.1-.1.5-.8.5-.3 0 .2-.2.3-.3.4m7.2 13l10.5 3.4c1 .3 2 .5 3 .5.2 0 .5-.1.3-.3-.3-.4-1-.7-1.5-1-.6-.2-1.2-.5-1.8-.6-.2 0-1-.2-1-.1-.5.4.7 1 1 1 .2.1.8.3.8-.1 0-.2-.3-.7-.5-.4-.3.5.7.4 1 .6M601.4 98c.2-.3.5-.8 1-1 .3-.1 1.4-.3 1.6 0 .3.3-.7 1-1 1-.3.2-.7.4-1 .3s-.1-.7 0-1c.3-.4.7-.6 1-.8.3-.1.2.1.1.3l-.4.6c-.1.2-.4.2-.6.2m7 6.4c2.7 2 5 1.6 5.4 1.2"/></g><path d="M244.6 159.2c.7-4.5 2-9 3.5-13.2-3.4.7-3.8 5-3.5 7.2-1.4-1-4-3.8-2.6-6s5.3-3.7 7-4.2c-1.5-2.3-7-6.6 2-5.7 6.2.6 4.6 4.5 3 5.7 1-.1 2-.5 4.3 2s2.5 6 1.2 6.8l-1.2-3.5c-.6-1.6-3-3.3-3-3.3 1.3 4.2 5 13 5 13l-6.6-4c-1.7-1.2-4 .5-4.7 1.5-1.3 1.6-4 4.6-4.5 3.5l.1.2z" class="S"/><g class="T P Q"><g class="R"><path d="M251 137.3c2 .3 3.6.6 4.7 2.3.6 1 .1 3-1.2 3.7-2 1-5.2.1-6.7-1.2-1-.8-2-2.3-1.6-3.5.2-.7 1-1 1.8-1.2 1.6-.4 3.3-.2 5 .3 1.4.4 3.7 1.2 3.6 3-.1 1.6-1.8 3-3.3 3-2.4.4-7.4-2-7-4.5m9.6 6l3.6 8c.3.7 1.7 4 .7 4.8-1.5.4-3.7-3-5.4-3.7-2.4-1-4.6.1-6.6 2.6-1 1.2-2 2.6-4.3 2.2"/><path d="M248 146.3c-.8 2-4 9.8-3.2 13.6m4.3-17l-5.4 3.4c-2.6 2.2-2.8 5.3 1.5 7m9.4-10.5c4.5 1 7.8 6.4 4.5 9.4a9 9 0 00-3.3-7m-.5-5c-.7 2-4.7 1.8-6.4.4M245.2 154c-2.8-4.6.5-7.2 3.8-8"/></g><g stroke="#b0b1c4"><path d="M426.7 119l2.7-5m-.7 9l6-1.7m-144.2-3.8c1 6.3.5 12.7.3 19v6.7c0 .5.3 1.6-.3 1.8m-7.3-25.3c.3 3.5 3 12.3.3 15-.6.7-2.2-2-1-2 1 .5.6 6 .6 9.4v5.3c0 .6-.1 1 .3 1.5"/><path d="M282.7 147.7c-.3.7-1.2 3-.1 3.7.8.4 2 .2 2.3-.6.4-1 .1-2.4-1-3-1-.4-2.7-.4-3 .6-.6 2 2.7 3.2 2.7.8 0-.7-1-1.4-1.4-.5-.3.8-.3 1.6-.3 2.5m18.5-35.7c.6 3.2.3 6.6.3 10v17c0 2.5-.1 5 .3 7.4.1.5.3 1.5-.3.8"/><path d="M300.4 133c0 .8-.5 2.8 1 2.8 1 0 .7-1.8.7-2.3 0-.8-1.2-1.5-2-1.2-1.5.6-.1 2.8.4 3.3m-27.5-1.8c-.2 1-1 2.4-.5 3.3.3.5 1.4.8 1.7.2.4-1 1.4-4.7-1-4.2-1.4.3-1.4 4.8 0 4.5 1-.2 1-1.6 1-2.2 0-1.5-.3-1.2-1-.3"/><path d="M272.3 122.7c1.5 3.5.6 15 .6 11m15.5-1.6l3.5 4.2m-2.5-5.2l3.8 3.8m4.5-10.3l3.6-3c.4-.3 1.2-1 1.2-1.4M298.7 120.6l5 4.3M273 139.3v5.6m-.4-25.8c0-1.4.1-2.7-.3-4m.7-3.7c0-1-.2-1.8-.3-2.7m11 7c.2-1 .1-1.7 0-2.7m.4-4c.1-.7.1-1.4.1-2.2m-1 10.6c1 .6.6-.3.2 0-.5.4.8 0-.1 0M272 121c1-.4.8 0 .6.3m0-8.7l-.1.6"/></g></g><path d="M49 281l-.4-1c.3-.1.6-.2 1-.4l.3 1c-.3.1-.6.2-1 .4zm6.6-2.3l-.3-1 1-.3.3 1-1 .3zm6.7-2l-.3-1 1-.3.3 1-1 .3zm6.6-2.4l-.3-1 1-.3.4 1-1 .3zm6.5-2.6l-.4-1 1-.4.4 1-1 .4zm6.4-3l-.5-1c.3-.2.6-.3 1-.5l.5 1-1 .5zm6-3.6l-.6-.8c.3-.2.5-.4.8-.6l.6.8c-.3.2-.5.4-.8.6zm5.3-4.7l-.8-.7c.2-.2.4-.5.6-.7l.8.6c-.1.3-.3.6-.6.8zm118-3.3c-.3 0-.7-.1-1-.2l.2-1c.3.1.6.1 1 .1l-.2 1zm6-.8l-.4-1c.3-.1.6-.3.8-.4l.5 1c-.3.1-.6.3-1 .4zm-13-1.2c-.3-.1-.6-.3-1-.4l.4-1c.3.1.6.3 1 .4l-.4 1zm-107.6-1l-1-.3c.1-.3.2-.6.2-1l1 .2c-.1.4-.1.7-.2 1zM198 252l-1-.5.5-1 1 .5-.5 1zm24.5-.6l-.8-.5.5-.8 1 .5c-.2.2-.4.5-.6.8zm-92.3-2l-.7-.7c.2-.2.4-.4.5-.7l.8.5c-.1.3-.3.6-.6 1zm61.7-.8l-1-.5.5-1 1 .5-.5 1zM98 247h-1v-1h1v1zm28.5 0h-1c.1-.3.2-.7.4-1l1 .5-.3.7zm59-1.7l-1-.4.4-1 1 .4-.4 1zm39.8-.6l-1-.3.3-1 1 .3c-.2.3-.3.6-.4 1zm-94.3-2v-.2h-.1v-.2l-.2-.4c.1 0 .1-.1.2-.1v-.2l.6-.1c.1 0 .1 0 .2-.1v.1h.2c0 .2 0 .4.1.6v.3h-.1v.1h-.2c-.3 0-.5.1-.7.2zm48-.2c-.3-.1-.6-.3-1-.4l.4-1c.3.1.6.3 1 .4l-.4 1zm-41.6-2.3l-.3-1 1-.3.3 1-1 .3zm-38.6 0l-1-.1v-1l1 .1v1zm73.7-.1l-1-.3.3-1 1 .3-.4 1zm-28.4-1.4l-.2-1c.3-.1.7-.1 1-.2l.2 1c-.3.1-.6.1-1 .2zm21.7-.4c-.3-.1-.6-.1-1-.2l.2-1c.3.1.7.1 1 .2l-.2 1zm61.3-.2h-1c.1-.3.1-.6.2-1h1c-.1.3-.2.6-.2 1zm-76-.4l-.1-1c.3 0 .7-.1 1-.1l.1 1c-.3 0-.6 0-1 .1zm8-.2h-1v-1h1v1zm-29.5-1.8l-.3-1 1-.3c.1.3.2.7.3 1l-1 .2zm-29.7-2.5l-1-.1v-1l1 .1v1zm128.7-2l-1-.2.2-1 1 .2-.2 1zm-101.3-2c-.1-.3-.3-.6-.4-1l1-.4c.1.3.3.6.4 1l-1 .4zm-26.4-2.8l-1-.2v-1l1 .2v1zm128.7-2l-1-.1.1-1 1 .1-.1 1zM124.4 223l-.4-1 1-.4.4 1-1 .4zm-22.3-3.4l-1-.2c.1-.3.1-.7.2-1l1 .2c-.1.3-.2.7-.2 1zm128.3-2.2l-1-.1.1-1 1 .1-.1 1zm-109.2-.6c-.2-.3-.3-.6-.5-1l1-.5c.2.3.3.6.5 1l-1 .5zm-17.4-4l-1-.3c.1-.3.2-.7.3-1l1 .3c0 .4-.1.7-.2 1zm13.7-1.8l-.6-.8.8-.6c.2.3.4.5.6.8l-.8.6zm113.4-.5l-1-.1v-1l1 .1v1zm-124.3-3.8l-.8-.6c.2-.3.5-.6.7-.8l.7.7c-.2.2-.4.4-.6.7zm6.3-.7c-.3-.2-.5-.4-.8-.5l.5-1 1 .6-.6.8zm118.5-2.5l-1-.1.1-1 1 .1-.1 1zm.4-7h-1v-1h1v1zm.2-7h-1v-1h1v1zm227.3-3.6h-.5v-1l-1 .2-.2-1 1-.2.2 1h1v1h-.5zm-227-3.4h-1v-1h1v1zm227.8-3.6h-1v-1h1v1zm-3.7-.6l-.2-1h1l.2 1h-1zm-224-2.8h-1v-1h1v1zm228-3.6h-1v-1h1v1zm-5.5-.4l-.2-1 1-.2.2 1-1 .2zm-222.3-3h-1v-1h1v1zm127.4-1l-.3-1c.3-.1.6-.2.8-.4l.5 1-1 .4zm-6.2-.3l-1-.4.4-1 1 .3-.3 1zm107-2.3h-1v-1h1v1zm-7.4-.2l-.2-1 1-.2.2 1-1 .2zm-105.8-.7l-1-.5.5-.8.8.5-.4.8zm18-1l-.7-.7.7-.7.7.7-.7.7zm44.6-.5c-.3-.1-.7-.2-1-.3l.4-1 1 .3-.3 1zm-177.4-1h-1v-1h1v1zm183.5-.4l-.5-.8c.3-.2.5-.4.8-.6l.6.8c-.4.2-.6.4-1 .6zm-74.7-1c-.3-.2-.6-.3-1-.5l.5-1c.3.2.6.3 1 .5l-.5 1zm-21-1.8l-.1-1c.3 0 .6-.1 1-.1l.1 1c-.3 0-.6.1-1 .1zm-6-.1c-.3 0-.7-.1-1-.1l.1-1c.3 0 .6.1 1 .1l-.1 1zm56-.1l-.7-.7.7-.7.7.7-.7.7zm34-.2l-.6-1 1-.5.5.8-.8.6zm56.3-.2h-1v-1h1v1zm-9.2 0l-.2-1 1-.2.2 1-1 .2zm-124-.4l-.2-1 1-.2.2 1-1 .2zm7.7-.1c-.3-.1-.6-.2-1-.2l.2-1 1 .3-.3 1zm-27.6-.7c-.3-.1-.6-.3-1-.4l.4-1c.3.1.6.3 1 .4l-.4 1zm113.7-.4l-.8-.6c.2-.2.4-.5.6-.8l.8.6-.6.8zM233 154.3h-1v-1h1v1zm68.5-1c-.3-.1-.6-.3-1-.4l.4-1c.3.2.6.3 1 .4l-.4 1zm74.3 0l-.7-.8.8-.7.7.8-.8.7zm25.7-2l-.3-1 1-.3.3 1-1 .3zm48.7-.6v-1l1-.2v1l-1 .2zm10.4-.2l-.5-.1v-1h1v1l-.5.1zm-165.5-.1l-1-.3.3-1c.3.1.6.2 1 .4l-.3.8zm130.6-.1l-.8-.6.6-.8.8.6-.6.8zm-44.5-1.6l-.6-.8.8-.6.6.8-.8.6zm-92.7-.5c-.3-.1-.6-.3-1-.4l.5-1c.3.2.6.3.8.4l-.3 1zm-55.2-1l-1-.1.1-1 1 .1-.1 1zm243.7-.1l-.2-1 1-.2.2 1-1 .2zm-78-2.3c-.2-.3-.3-.6-.5-.8l.8-.6c.2.3.4.6.5 1l-.8.5zm-12-.2l-.5-.8c.3-.2.6-.4 1-.5l.5 1c-.3.1-.6.3-1 .4zm42.8-.2l-.8-.5.5-.8.8.5-.5.8zm19-.5l-.2-1 1-.2.2 1-1 .2zm-165.8-.1c-.2-.2-.4-.5-.7-.8l.8-.7c.2.3.4.5.7.7l-.8.8zm178.5-.3h-1v-1h1v1zm17.6-1l-1-.2.2-1 1 .2-.2 1zm-86-.7l-.2-1c.4-.1.7-.1 1-.2l.1 1c-.3.1-.6.1-1 .2zm-159.2-1.6l-1-.1.1-1 1 .1-.1 1zm242 0l-.2-1 1-.2.2 1-1 .2zm-42.2-1.6l-.8-.6c.2-.3.4-.6.6-.8l.8.6c-.3.2-.4.5-.6.8zm-155-.3l-.6-.8.8-.6.6.8-.8.6zm168.5-1.2l-.3-1 1-.3c.1.3.2.6.3 1l-1 .2zm14.6-.6h-1v-1h1v1zm18.5-1l-1-.2v-1l1 .2v1zm-5.6-2.2l-.2-1 1-.2.2 1-1 .2zm-240-.1l-1-.1.1-1 1 .1-.1 1zm203.4-.2l-.7-.7c.2-.3.5-.5.7-.7l.7.7c-.2.3-.4.5-.7.7zm-163.2-.6l-.5-.8.8-.5.5.8-.8.5zm169.4-1.3c-.2-.2-.5-.4-.7-.5l.4-1 1 .6-.6.8zm17.8-1.7h-1v-1h1v1zm19.3-.8l-1-.2v-1l1 .2v1zm-210.3-2l-.5-.8.8-.5.5.8-.8.5zm202.4-.1l-.2-1 1-.2.2 1-1 .2zm-238-.2l-1-.1v-1l1 .1v1zm226.8-3.8h-1v-1h1v1zm20.2-.7l-1-.2.2-1 1 .2-.2 1zm43.5-.7l-1-.3.3-1 1 .3-.3 1zm-258.6-.5l-.5-.8.8-.5.5.8-.8.5zm204.8-1l-.2-1 1-.2.2 1-1 .2zm-235.7-.2l-1-.2.2-1 1 .2-.2 1zm282.8-.2l-1-.3.3-1 1 .3-.3 1zm-6.7-2l-1-.3.3-1 1 .3-.3 1zm17.6-1l-.8-.6.6-.8.8.6-.6.8zm-67.8-.7h-1v-1h1v1zm43.4-.1l-1-.3.3-1 1 .3-.3 1zM483 115l-1-.2.2-1 1 .2-.2 1zm-220-.1l-.6-.8.8-.6.6.8-.8.6zm235.5-1.3l-1-.3.3-1 1 .3-.3 1zm-28.2-.8l-.2-1 1-.2.2 1-1 .2zm-233-.1l-1-.2c.1-.3.2-.7.2-1l1 .2c0 .4-.1.7-.2 1zm254.6-1l-1-.3.3-1 1 .3-.3 1zm42-1l-.8-.6.6-.8.8.6-.6.8zm-48.7-1l-1-.3.3-1 1 .3-.3 1zm-226-.7l-.6-.8.8-.6c.2.3.4.5.6.8l-.8.6zm203-.5h-1v-1h1v1zM239.3 106l-1-.4c.1-.3.3-.6.4-1l1 .4c-.1.3-.3.6-.4 1zm229.7 0v-1l1-.2v1l-1 .2zm68.8-1l-.8-.6.6-.8.8.6-.6.8zm-283.2-1.2l-.7-.7.7-.7.7.7-.7.7zm207.5-2.2h-1v-1h1v1zm-219.5-1.3l-.7-.7c.3-.3.5-.5.8-.7l.6.8c-.2.1-.5.4-.7.6zm6.7-1c-.3-.1-.6-.3-1-.4l.4-1c.3.1.6.3 1 .4l-.5 1zm292.6 0l-.8-.6.6-.8.8.6-.6.8zm-74.2-.3l-.2-1h1l.2 1h-1zm-5.6-4.5h-1v-1h1v1zm84-1l-.8-.6.6-.8.8.6-.6.8zM466.4 92l-.2-1 1-.2.2 1-1 .2zm83.8-4l-.8-.6.6-.8.8.6-.6.8zm-88-.5h-1v-1h1v1zm3-2.3l-.2-1 1-.2.2 1-1 .2zm89.2-3l-.8-.6.6-.8.8.6-.6.8zm-93.2-1.8v-1h1v1h-1zm2.7-2.2l-.2-1 1-.2.2 1-1 .2zm94.7-1.6l-.8-.6.6-.8.8.6-.6.8zm-97.4-3.2v-1h1v1h-1zm1.4-2l-.2-1 1-.2.2 1-1 .2zm100-.4l-.8-.6.6-.8.8.6-.6.8zM461 66.6v-1h1v1h-1zm105.8-1l-.8-.6.6-.8.8.6-.6.8zm-105.5-.8l-.2-1 1-.2.2 1-1 .2zM571.6 61l-.4-1 1-.4.4 1-1 .4zm6.4-2.7l-.4-1 1-.4.4 1-1 .4zm6.5-2.7l-.4-1 1-.4.4 1-1 .4zm6.4-2.8l-.4-1 1-.4.4 1-1 .4zm6.4-2.7l-.4-1 1-.4.4 1-1 .4zm6.5-2.7l-.4-1 1-.4.4 1-1 .4zm6.4-2.8l-.4-1 1-.4.4 1-1 .4zm6.5-2.7l-.4-1 1-.4.4 1-1 .4zM623 39l-.4-1 1-.4.4 1-1 .4zm6.5-2.7l-.4-1 1-.4.4 1-1 .4zm6.4-2.7l-.4-1 1-.4.4 1-1 .4zm6.4-2.8l-.4-1 1-.4.4 1-1 .4zm6.5-2.7l-.4-1 .3-.1.4 1-.3.1z"/><g fill="#1a1a1a" stroke-width=".3" class="P R X"><path d="M508 76.5c-.1-.1-.2-.3-.1-.4h.1l.4-.4c1-1.2 2.2-2.4 2.4-4 .4-2.4-1.2-4.3-2.5-6l-.1-.2-2.4-2.6-.8-.8-3-3.8c-.4-.7-.6-1.3-.7-1.8s.1-1 .4-1.6c.5-1 1.5-1.6 2.5-2.3.1-.1.3-.1.5.1.1.1.1.3-.1.4-1 .7-1.8 1.3-2.3 2-.2.4-.3.8-.3 1.2s.2 1 .5 1.5c1 1.4 2 2.5 3 3.7l.8.8 2.5 2.7h.2c1.3 1.5 3 3.6 2.6 6.4-.3 2-1.5 3.3-2.6 4.4l-.4.4c-.1.1-.3.1-.5 0v.4z"/><path d="M508.3 76zm.6-.2c1-.3 2-.7 2.8-1.3l.3-.1 2-1-.4-.1h-.1l-1.8-.6h-.2c.4.1.8.3 1 .4s.2.2.2.4c0 0 0 .1-.1.1-.1.2-.3.2-.5.1-.3-.2-.8-.3-1.4-.5l-2-.4h-.1l.4 1.5c0 .3.1.7 0 1 0 .2-.1.5-.2.7l.1-.2zm-1-3.3c.2.5.3 1 .4 1.6 0 .3.1.6 0 1s-.1.5-.2.6v.2h-.1c0 .1-.1.1-.1.2v.2c0 .1.1.2.1.2.1.1.2.1.3.1s.3 0 .5-.1c1.2-.3 2.2-1 3.2-1.5h.3c1-.5 1.8-1 2.7-1.3H515.3s.1 0 .2-.1l.1-.1h.1c.2 0 .3-.2.3-.4s-.2-.3-.4-.3l-.2.1c-1-.8-2.2-1-3.4-1h-.3l-3.3-1-1-.5-.6-.2h-.1s-.1 0-.2.1-.1.2-.1.3v.2c0 .1.1.1.1.2l.2.2.5.5.3.3c0 .1 0 .2.1.2l.1.1h.5l-.3.2zm.3-.6h1.3l-1.3-.3h-.1l-.3-.1.4.4z"/></g></g><defs><path id="J" d="M0 0h720v300H0z"/></defs><clipPath id="K"><use xlink:href="#J"/></clipPath><g clip-path="url(#K)"><path d="M337.5 67c0 .1 0 .1-.1.1l-.1.1c-.1 0-.1.1-.2.1h-.6c-.2 0-.5.1-1 .3-.5.2-1 .4-1.6.7s-1 .6-1.5 1c-.4.3-.7.6-.7 1l.3 1.6v1l.1.5s.1-.1.3-.2.4-.3.7-.4l1-.5 1-.5.8-.4c.3-.1.5-.1.6-.1s.2 0 .3.1c.1 0 .1.1.1.3 0 .1-.1.2-.3.4s-.5.4-.8.6l-1 .7-1 .6c-.3.2-.6.4-.8.6s-.3.3-.3.4 0 .3.1.8l.2 1.4.4 1.5c.1.5.3.8.5 1v.1c0 .1-.1.2-.2.3s-.2.2-.3.2-.3-.1-.4-.4l-.4-1-.3-1.2-.3-1.2-.2-1c0-.2-.1-.4-.1-.4s-.2 0-.3.1c-.2 0-.4.1-.6.1-.1 0-.3-.1-.4-.2s-.1-.3-.1-.4 0-.2.1-.3l.3-.3c.1-.1.2-.2.4-.2.1-.1.2-.1.3-.2l-.7-4.6c0-.1 0-.3.1-.4 0-.1.2-.2.3-.2 0 0 .1 0 .1.1h.1c.2-.2.4-.3.6-.5.4-.3 1-.7 1.3-1 .5-.4 1-.7 1.7-1 .6-.3 1.2-.4 1.7-.4.2 0 .4.1.7.3s.4.4.4.6zm7.2 10.4c0 .2-.1.3-.2.5 0 .1-.2.2-.3.3-.2.2-.4.3-.6.4-.3.1-.6.3-1 .4s-.8.2-1.4.2c-.4 0-.7-.1-1-.2-.4-.2-.7-.4-1-.7-.3-.3-.5-.7-.7-1.2s-.3-1-.3-1.7.1-1.2.2-1.8.4-1 .6-1.4c.3-.4.5-.7.8-1s.6-.4 1-.4.5.1.8.2.5.2.7.4.4.3.5.6c.1.2.2.4.2.6s-.1.5-.3.7c-.2.3-.5.5-.8.7l-1 .5c-.3.1-.5.2-.7.2-.1 0-.2 0-.3-.1s-.1-.2-.1-.3c0-.2.1-.4.3-.5s.4-.2.7-.3c.2-.1.5-.2.6-.4.2-.1.3-.3.3-.6 0 0 0-.1-.1-.2s-.2-.4-.6-.4c-.2 0-.3.1-.6.3-.2.2-.4.4-.6.7s-.4.7-.5 1-.2 1-.2 1.4c0 .4.1.8.2 1l.6 1c.2.2.5.4.8.5s.6.2 1 .2c.2 0 .5 0 .8-.1l.8-.3.6-.3c.2-.1.3-.2.4-.2s.1 0 .1.1c.2 0 .3 0 .3.1zm13-2.5c0 .3-.1.6-.4 1-.3.4-.6.8-1 1.2s-1 .7-1.6 1-1.2.4-1.8.4c-.3 0-.6 0-1-.1s-.6-.2-1-.4-.6-.4-.8-.7-.4-.6-.5-1c-.1.1-.2.3-.4.5l-.4.7c-.2.2-.3.4-.5.6s-.4.2-.6.2-.4-.1-.5-.3l-.3-.7c-.1-.3-.1-.5-.2-.8v-.4c0-.2.1-.6.2-1s.3-1 .5-1.7.5-1 .8-1.5c.4-.4.8-.7 1.2-.7.2 0 .3.1.3.2.1.1.1.3.1.4v.7c.1.1.2.1.2.1.1 0 .2 0 .2.1.1 0 .1.1.2.2 0 .1.1.2.1.4v.5c0 .4 0 .8.1 1.2s.2.8.4 1 .5.6.8.8.8.3 1.3.3c.7 0 1.3-.1 1.8-.4a4 4 0 001.2-1l.8-1c.2-.3.4-.5.5-.5.1.2.2.3.2.5zm-8.5-1V73c-.1 0-.3.2-.5.4-.2.3-.3.6-.4.8l-.3 1c-.1.3-.1.6-.1.8s0 .4.1.6c.1.3.1.4.2.5l.7-1.6a4 4 0 00.3-1.5zm15-4.8c-.2.2-.5.5-1 .7l-1.2.6-1 .5c-.3.1-.4.2-.4.3s0 .2.1.4l.2 1 .3 1 .2 1 .1.6.1.8v1c0 .3 0 .5-.1.7-.1.3-.2.4-.4.4-.1 0-.2 0-.3-.1s-.2-.2-.2-.3c-.1-.1-.1-.2-.1-.3V76.8l-.1-1.3c0-.2-.1-.4-.2-.8l-.3-1-.3-1.6c-.1-.2-.1-.3-.1-.3-.1 0-.3.1-.6.2s-.6.3-1 .5l-1 .6-1 .6-.8.5-.4.2c-.2 0-.4-.1-.5-.2s-.2-.3-.2-.5c0-.1.1-.2.4-.4s.6-.4 1-.6l1.3-.7 1.2-.6 1-.5.4-.2-.4-2-.2-1.4v-.7c0-.2 0-.4.1-.5s.2-.2.3-.2c.2 0 .3.1.3.4l.5 2.3.5 1.6c.1 0 .4-.1.7-.3l1-.5 1-.5.6-.2c.1 0 .2 0 .2.1 0 .3.1.4.1.5zm9.2 6.8c0 .1-.1.3-.3.5s-.4.3-.7.5l-.8.3c-.3.1-.4.1-.6.1-.1 0-.3 0-.5-.1s-.3-.2-.5-.3l-.4-.3-.2-.2s-.1.1-.2.3-.2.3-.4.5c-.1.2-.3.3-.4.4s-.3.2-.5.2c-.4 0-.8-.2-1-.7l-.8-1.5c-.2-.6-.3-1-.5-1.7l-.1-1c0-.1.1-.2.2-.3s.2-.1.3-.1c.2 0 .4.1.5.2s.1.3.1.5c0 .1 0 .4.1.8l.3 1c.1.4.3.7.4 1s.3.4.4.4c.2 0 .4-.1.5-.4.2-.3.3-.6.4-1 .1-.4.2-.7.2-1v-1.5c0-.1 0-.2-.1-.2 0 0-.1-.1-.1-.3 0-.1 0-.2.1-.3s.3-.1.6-.1c.1 0 .2 0 .3.1h.2c.1.1 0 .2 0 .3v2.3s0 .1.1.3l.2.5c.1.1.2.3.3.4s.2.2.3.2c.2 0 .4 0 .5-.1l.5-.2.4-.2c.1-.1.2-.1.4-.1.1 0 .3 0 .4.1.3.2.4.3.4.4zm6.6-3.3c0 .1 0 .2-.1.3s-.2.1-.3.2-.3.1-.4.1h-1c-.4 0-.7 0-1 .1l-.6.3c-.1.1-.2.3-.3.6v2l.1.7.1.5c0 .1.1.2.1.3s-.1.3-.2.4-.2.2-.4.2-.4-.2-.5-.5c-.1-.4-.3-.8-.4-1.2l-.2-1.4v-1c0-.3 0-.5.1-.8 0-.3.1-.5.2-.6.1-.2.2-.3.3-.5s.2-.2.3-.2.1 0 .2.1c0 0 .1.1.1.2l.1.2s.1.1.2.1.4-.1.7-.2.7-.2 1.2-.2h1c.2 0 .4.1.6.1 0 0 .1.1.2.1v.2zm8.6 4.8c0 .2-.1.3-.2.5l-.3.3c-.2.2-.4.3-.6.4-.3.1-.6.3-1 .4s-.8.2-1.4.2c-.4 0-.7-.1-1-.2-.4-.2-.7-.4-1-.7-.3-.3-.5-.7-.7-1.2s-.3-1-.3-1.7.1-1.2.2-1.8.4-1 .6-1.4c.3-.4.5-.7.8-1s.6-.4 1-.4.5.1.8.2.5.2.7.4.4.3.5.6c.1.2.2.4.2.6s-.1.5-.3.7c-.2.3-.5.5-.8.7l-1 .5c-.3.1-.5.2-.7.2-.1 0-.2 0-.3-.1s-.1-.2-.1-.3c0-.2.1-.4.3-.5s.4-.2.7-.3c.2-.1.5-.2.6-.4.2-.1.3-.4.3-.6 0 0 0-.1-.1-.2s-.3-.2-.6-.2c-.2 0-.3.1-.6.3-.2.2-.4.4-.6.7s-.4.7-.5 1-.2 1-.2 1.4c0 .4.1.8.2 1l.6 1c.2.2.5.4.8.5s.6.2 1 .2c.2 0 .5 0 .8-.1l.8-.3.6-.3c.2-.1.3-.2.4-.2s.1 0 .1.1c.2-.2.3-.2.3-.1zM408 67c0 .1 0 .1-.1.1l-.1.1c-.1 0-.1.1-.2.1h-.6c-.2 0-.5.1-1 .3-.5.2-1 .4-1.6.7s-1 .6-1.5 1c-.4.3-.7.6-.7 1l.3 1.6.2 1 .1.5s.1-.1.3-.2.4-.3.7-.4l1-.5 1-.5.8-.4c.3-.1.5-.1.6-.1s.2 0 .3.1c.1 0 .1.1.1.3 0 .1-.1.2-.3.4s-.5.4-.8.6l-1 .7-1 .6c-.3.2-.6.4-.8.6s-.3.3-.3.4 0 .3.1.8l.2 1.4.4 1.5c.1.5.3.8.5 1v.1c0 .1-.1.2-.2.3s-.2.2-.3.2-.3-.1-.4-.4l-.4-1-.3-1.2-.3-1.2-.2-1c0-.2-.1-.4-.1-.4s-.2 0-.3.1c-.2 0-.4.1-.6.1-.1 0-.3-.1-.4-.2s-.1-.3-.1-.4 0-.2.1-.3l.3-.3c.1-.1.2-.2.4-.2.1-.1.2-.1.3-.2l-.7-4.6c0-.1 0-.3.1-.4 0-.1.2-.2.3-.2 0 0 .1 0 .1.1h.1c.2-.2.4-.3.6-.5.4-.3 1-.7 1.3-1 .5-.4 1-.7 1.7-1 .6-.3 1.2-.4 1.7-.4.2 0 .4.1.7.3s.4.4.4.6zm3.7 12.2c0 .1 0 .2-.1.3s-.2.1-.3.1-.3-.1-.5-.4c-.1-.3-.3-.6-.4-1L410 77l-.3-1.4-.2-1-.1-.5c0-.1 0-.2-.1-.5l-.2-1.3-.3-2.2-.3-3.4c0-.1 0-.3.1-.6s.2-.3.3-.3c.2 0 .4.2.5.5s.2.7.3 1 .1 1 .2 1.4V70l.2 1.4.2 1.2.2 1.3.3 1.5.8 4zM425 75c0 .3-.1.6-.4 1-.3.4-.6.8-1 1.2s-1 .7-1.6 1-1.2.4-1.8.4c-.3 0-.6 0-1-.1s-.6-.2-1-.4-.6-.4-.8-.7-.4-.6-.5-1c-.1.1-.2.3-.4.5l-.4.7c-.2.2-.3.4-.5.6s-.4.2-.6.2-.4-.1-.5-.3l-.3-.7c-.1-.3-.1-.5-.2-.8v-.4c0-.2.1-.6.2-1s.3-1 .5-1.7.5-1 .8-1.5c.4-.4.8-.7 1.2-.7.2 0 .3.1.3.2.1.1.1.3.1.4v.7c.1.1.2.1.2.1.1 0 .2 0 .2.1.1 0 .1.1.2.2 0 .1.1.2.1.4v.5c0 .4 0 .8.1 1.2s.2.8.4 1 .5.6.8.8.8.3 1.3.3c.7 0 1.3-.1 1.8-.4a4 4 0 001.2-1l.8-1c.2-.3.4-.5.5-.5.1.2.2.3.2.5zm-8.4-1v-.9c-.1 0-.3.2-.5.4-.2.3-.3.6-.4.8l-.3 1c-.1.3-.1.6-.1.8s0 .4.1.6c.1.3.1.4.2.5l.7-1.6a4 4 0 00.3-1.5zm14.7 4c0 .2-.1.3-.2.4s-.2.2-.2.3c0 0 0 .1.1.3v.6l.3 1c.1.3.2.6.2 1 .1.3.1.5.1.8v1c0 .3-.1.7-.2 1s-.3.7-.5 1c-.2.3-.5.5-.8.7s-.6.3-1 .3c-.6 0-1-.1-1.4-.4-.3-.2-.6-.5-.8-.8s-.3-.6-.3-1l-.1-.6c0-.6.2-1.2.5-1.8s.6-1 1-1.6l1-1.2c.3-.3.5-.5.5-.6l-.3-.8c-.2.2-.3.4-.4.6s-.2.4-.4.6c-.1.2-.3.4-.5.5s-.4.2-.7.2-.6-.1-1-.3-.5-.4-.8-.8-.4-.8-.6-1.3c-.1-.5-.2-1-.2-1.7 0-.4.1-.8.2-1.4s.3-1 .5-1.6.5-1 1-1.3.8-.6 1.3-.6c.3 0 .5 0 .7.1s.4.2.4.4c0 .1 0 .2-.1.3s-.1.2-.2.2-.1-.1-.2-.1h-.2c-.4 0-.7.2-1 .5s-.5.7-.7 1.2c-.2.4-.3 1-.5 1.4-.1.5-.1 1-.1 1.3 0 .8.1 1.4.4 2 .3.4.6.6 1 .6.1 0 .3-.1.5-.3s.3-.5.5-.7l.4-.8.2-.4v-1.9c0-.4 0-.8.1-1 .1-.3.2-.4.5-.4s.4.1.6.2c.1.1.2.3.2.5v2c0 .2.1.4.1.6l.1.5.1.3h.1c0 .1.1.1.1.2 0 0 0-.1.1-.1l.1-.1c.1 0 .2.1.2.3.1.4.2.5.2.5zm-.8 3l-.2-.8-.2-.8-.8 1-.7 1c-.2.3-.3.6-.5 1-.1.3-.2.7-.2 1 0 .5.1 1 .4 1.2s.6.5 1 .5.7-.1 1-.4.5-.7.5-1.2v-.8l-.1-.6c0-.2 0-.3-.1-.5V81zm8.2-4c0 .3-.1.5-.3.7s-.4.4-.7.5l-1 .3-1 .2-.8.1h-.4c-.4 0-.6-.1-.8-.2s-.3-.3-.3-.6v-.2c0-.1.1-.1.2-.1h1.1l1-.1c.4-.1.7-.1 1-.3.3-.1.5-.3.5-.5 0 0-.2-.1-.5-.3l-1.5-1c-.5-.3-1-.6-1-1-.2-.3-.3-.8-.3-1.3 0-.4.1-.6.2-1 .2-.2.4-.4.6-.5l1-.3c.4-.1.7-.1 1-.1h.3c.2 0 .4.1.6.2l.5.3c.2.1.2.2.2.3 0 0 0 .1-.1.1l-.3.4s-.1 0-.3-.1l-.4-.1c-.1 0-.3-.1-.5-.1h-.4c-.4 0-.8.1-1 .2-.3.1-.4.4-.4 1 0 .2.1.4.2.6.2.2.4.4.6.5l.8.5c.3.1.6.3.8.5s.5.4.6.6c.5.3.6.5.6.7zM481.4 14.5c0 .2-.1.5-.2.7-.1.3-.3.5-.4.7-.2.2-.4.5-.6.7l-.6.6-1.3 1c-.4.3-1 .6-1.4 1s-1 .5-1.5.6c-.5.2-1 .2-1.7.2-1.7 0-2.6-1-2.6-2.7 0-.2.1-.5.2-1l.6-1.8.8-2 1-2c.3-.6.6-1 1-1.5s.6-.6 1-.6c.2 0 .3.1.4.2s.1.2.1.4c0 .1-.1.3-.3.6l-.6 1-.2.2-.2.3-.3.4c-.1.1-.2.4-.4 1l-.7 1.6c-.2.6-.5 1.2-.6 2-.2.6-.3 1.2-.3 1.7 0 .3.1.5.2.6.1.2.3.3.4.4.2.1.4.1.5.2h.5c.6 0 1.2-.1 2-.4s1.3-.6 2-1a8 8 0 001.7-1.5c.5-.6 1-1.2 1.2-1.8.1-.1.1-.2.2-.2h.2c.1 0 .2.1.3.3s.1.5.1.6zm9.8 1l.1.1s0 .1-.1.3-.2.3-.3.5-.3.3-.5.5c-.2.1-.3.2-.5.2-.3 0-.6-.1-.8-.2s-.4-.3-.5-.5l-.3-.7-.2-.7c0-.1-.1-.2-.1-.2s-.1.2-.3.5l-.5 1-.5 1c-.1.3-.2.5-.3.5-.3 0-.5-.1-.7-.4s-.4-.5-.5-1c-.1-.3-.2-.7-.3-1l-.1-.8-.3-2.2L484 9V7.4l-.1-1V4.7l.1-.6c0-.2.1-.4.1-.6.1-.2.2-.2.3-.2s.2.1.3.2.2.3.2.5c.1.2.1.3.2.5s0 .3 0 .3v2.3l.2 1 .2 1 .1 1v.3l.1.8.1 1 .1 1 .1 1V15.1c0 .1.1.2.1.3l.1.3c0 .1.1.2.1.2.1-.3.3-.6.4-1l.5-1.2.5-1c.2-.3.3-.5.4-.5s.2 0 .3.1c.1 0 .2.1.3.1.2.1.2.2.2.3V13.9l.3 1 .3.7c.1.2.3.3.4.3s.2-.1.3-.2c.1-.2.3-.3.5-.3 0 0 .1 0 .2.1 0-.1.1 0 .2.1zm13-.6c0 .3-.1.6-.4 1-.3.4-.6.8-1 1.2s-1 .7-1.6 1-1.2.4-1.8.4c-.3 0-.6 0-1-.1s-.6-.2-1-.4-.6-.4-.8-.7-.4-.6-.5-1c-.1.1-.2.3-.4.5l-.4.7c-.2.2-.3.4-.5.6s-.4.2-.6.2-.4-.1-.5-.3l-.3-.7c-.1-.3-.1-.5-.2-.8v-.4c0-.2.1-.6.2-1s.3-1 .5-1.7.5-1 .8-1.5c.4-.4.8-.7 1.2-.7.2 0 .3.1.3.2.1.1.1.3.1.4v.7c.1.1.2.1.2.1.1 0 .2 0 .2.1.1 0 .1.1.2.2 0 .1.1.2.1.4v.5c0 .4 0 .8.1 1.2s.2.8.4 1 .5.6.8.8.8.3 1.3.3c.7 0 1.3-.1 1.8-.4a4 4 0 001.2-1l.8-1c.2-.3.4-.5.5-.5.1.2.2.3.2.5zm-8.4-1V13c-.1 0-.3.2-.5.4-.2.3-.3.6-.4.8l-.3 1c-.1.3-.1.6-.1.8s0 .4.1.6c.1.3.1.4.2.5l.7-1.6c.1-.5.3-1 .3-1.5zm16 3c0 .1 0 .2-.1.3s-.1.2-.2.3-.2.2-.3.2-.2.1-.3.1c-.3 0-.6-.1-1-.2s-.8-.3-1-.6c-.3-.3-.5-.6-.7-1l-.7-1.7-.6 2c-.2.7-.6 1.3-1 2h-.1c-.1 0-.2-.1-.4-.2s-.2-.2-.2-.3V17l-.1-1.4-.1-1.5V12.4c0-.2.1-.5.1-.7 0-.1.1-.1.2-.2s.2-.1.4-.1c.1 0 .2.1.2.2v4.6c0 .1.1.2.1.3.2-.4.4-1 .5-1.3l.5-1.5c.1-.5.3-1 .4-1.2s.3-.5.4-.5c.2 0 .3 0 .4.1s.2.2.2.4l.2 1.2.2 1 .3.8c.2.3.3.5.6.7.2.2.5.4.7.5.3.1.5.1.7.1h.3c.1 0 .2-.1.2-.1.1 0 .1.1.2.2l.2.2zm7.2 1c0 .2-.1.3-.2.4s-.2.2-.2.3c0 0 0 .1.1.3l.2.6.3 1c.1.3.2.6.2 1 .1.3.1.5.1.8v1c0 .3-.1.7-.2 1s-.3.7-.5 1c-.2.3-.5.5-.8.7s-.6.3-1 .3c-.6 0-1-.1-1.4-.4-.3-.2-.6-.5-.8-.8s-.3-.6-.3-1l-.1-.6c0-.6.2-1.2.5-1.8s.6-1 1-1.6l1-1.2c.3-.3.5-.5.5-.6l-.3-.8c-.2.2-.3.4-.4.6s-.2.4-.4.6c-.1.2-.3.4-.5.5s-.4.2-.7.2-.6-.1-1-.3-.5-.4-.8-.8-.4-.8-.6-1.3c-.1-.5-.2-1-.2-1.7 0-.4.1-.8.2-1.4s.3-1 .5-1.6.5-1 1-1.3.8-.6 1.3-.6c.3 0 .5 0 .7.1s.4.2.4.4c0 .1 0 .2-.1.3s-.1.2-.2.2-.1-.1-.2-.1h-.2c-.4 0-.7.2-1 .5s-.5.7-.7 1.2c-.2.4-.3 1-.5 1.4-.1.5-.1 1-.1 1.3 0 .8.1 1.4.4 2 .3.4.6.6 1 .6.1 0 .3-.1.5-.3s.3-.5.5-.7l.4-.8.2-.4v-1.9c0-.4 0-.8.1-1 .1-.3.2-.4.5-.4s.4.1.6.2c.1.1.2.3.2.5v2c0 .2.1.4.1.6l.1.5v.3h.1c0 .1.1.1.1.2 0 0 0-.1.1-.1l.1-.1c.1 0 .2.1.2.3.1.4.2.5.2.5zm-1 3l-.2-.8-.2-.8-.8 1-.7 1c-.2.3-.3.6-.5 1-.1.3-.2.7-.2 1 0 .5.1 1 .4 1.2s.6.5 1 .5.7-.1 1-.4.5-.7.5-1.2V22c0-.2 0-.3-.1-.5V21zm9.5-3.4v.1c0 .1-.1.2-.2.4l-.3.3c-.2.2-.4.3-.6.4-.3.1-.6.3-1 .4s-.8.2-1.4.2c-.4 0-.7-.1-1-.2-.4-.2-.7-.4-1-.7-.3-.3-.5-.7-.7-1.2s-.3-1-.3-1.7.1-1.2.2-1.8.4-1 .6-1.4c.3-.4.5-.7.8-1s.6-.4 1-.4.5.1.8.2.5.2.7.4.4.3.5.6c.1.2.2.4.2.6s-.1.5-.3.7c-.2.3-.5.5-.8.7l-1 .5c-.3.1-.5.2-.7.2-.1 0-.2 0-.3-.1s-.1-.2-.1-.3c0-.2.1-.4.3-.5s.4-.2.7-.3c.2-.1.5-.2.6-.4.2-.1.3-.4.3-.6 0 0 0-.1-.1-.2s-.3-.2-.6-.2c-.2 0-.3.1-.6.3-.2.2-.4.4-.6.7s-.4.7-.5 1-.2 1-.2 1.4c0 .4.1.8.2 1l.6 1c.2.2.5.4.8.5s.6.2 1 .2c.2 0 .5 0 .8-.1l.8-.3.6-.3c.2-.1.3-.2.4-.2s.1 0 .1.1c.2-.2.3-.2.3-.1zm-45 23c0 .3-.2.5-.6.7l-1.3.5-1.4.4-1.2.3-.6.2v.2l.1.6c0 .1 0 .3-.1.3 0 .1-.1.1-.2.1s-.2 0-.3-.1l-.1-.3-.1-.4c0-.1-.1-.2-.1-.3 0 0-.2 0-.4.1h-1l-1.2.3-1.2.3-1 .2c-.4.1-.6.1-.8.1-.4 0-.6-.1-.6-.4 0-.2.1-.4.2-.5s.3-.2.4-.2c0 0 .2-.1.5-.1l1-.2 1.3-.3 1.3-.3 1-.3c.3-.1.4-.1.4-.2s0-.3-.1-.5l-.2-.7v-.5l-.5-3-.3-3h-.1c-.1 0-.3.1-.6.2l-1 .5-1 .5c-.3.2-.5.2-.6.2s-.2 0-.3-.1-.1-.2-.1-.3.1-.3.3-.4c.2-.2.5-.4.8-.5.3-.2.7-.4 1-.5l1-.5 1-.3c.3-.1.4-.1.5-.1s.3 0 .5-.1l.7-.2.7-.2c.3 0 .5-.1.7-.1s.3.1.3.2 0 .1-.1.2l-.7.2-.6.2c-.2 0-.4.1-.6.2s-.3.1-.4.2-.1.2-.1.3c0 .4 0 1 .1 1.6l.3 2 .4 2.3.4 2.2 4.3-1c.1 0 .2 0 .3-.1.1 0 .2-.1.2-.1h.2c-.2.1-.1.2-.1.5zm8.3.4c0 .1 0 .2-.1.3s-.1.2-.2.3-.2.2-.3.2-.2.1-.3.1c-.3 0-.6-.1-1-.2s-.8-.3-1-.6c-.3-.3-.5-.6-.7-1l-.7-1.7-.6 2c-.2.7-.6 1.3-1 2h-.1c-.1 0-.2-.1-.4-.2s-.2-.2-.2-.3V41l-.1-1.4-.1-1.5V36.4c0-.2.1-.5.1-.7 0-.1.1-.1.2-.2s.2-.1.4-.1c.1 0 .2.1.2.2v4.6c0 .1.1.2.1.3.2-.4.4-1 .5-1.3l.5-1.5c.1-.5.3-1 .4-1.2s.3-.5.4-.5c.2 0 .3 0 .4.1s.2.2.2.4l.2 1.2.2 1 .3.8c.2.3.3.5.6.7.2.2.5.4.7.5.3.1.5.1.7.1h.3c.1 0 .2-.1.2-.1.1 0 .1.1.2.2.2.1.2.2.2.2zm7.6-7.8c-.2.2-.5.5-1 .7l-1.2.6-1 .5c-.3.1-.4.2-.4.3s0 .2.1.4l.2 1 .3 1 .2 1 .1.6.1.8.1.7v.3c0 .3 0 .5-.1.7-.1.3-.2.4-.4.4-.1 0-.2 0-.3-.1s-.2-.2-.2-.3c-.1-.1-.1-.2-.1-.3V40.8l-.1-1.3c0-.2-.1-.4-.2-.8l-.3-1-.4-1.5c-.1-.2-.1-.3-.1-.3-.1 0-.3.1-.6.2s-.6.3-1 .5l-1 .6-1 .6-.8.5-.4.2c-.2 0-.4-.1-.5-.2s-.2-.3-.2-.5c0-.1.1-.2.4-.4s.6-.4 1-.6l1.3-.7 1.2-.6 1-.5.4-.2-.4-2-.2-1.4-.1-.7c0-.2 0-.4.1-.5s.2-.2.3-.2c.2 0 .3.1.3.4l.5 2.3.5 1.6c.1 0 .4-.1.7-.3l1-.5 1-.5.6-.2c.1 0 .2 0 .2.1.1.2.1.3.2.4zm8 8.3c0 .2-.1.3-.2.5l-.3.3c-.2.2-.4.3-.6.4-.3.1-.6.3-1 .4s-.8.2-1.4.2c-.4 0-.7-.1-1-.2-.4-.2-.7-.4-1-.7-.3-.3-.5-.7-.7-1.2s-.3-1-.3-1.7a11 11 0 01.2-1.8c.1-.6.4-1 .6-1.4.3-.4.5-.7.8-1s.6-.4 1-.4.5.1.8.2.5.2.7.4.4.3.5.6c.1.2.2.4.2.6s-.1.5-.3.7c-.2.3-.5.5-.8.7l-1 .5c-.3.1-.5.2-.7.2-.1 0-.2 0-.3-.1s-.1-.2-.1-.3c0-.2.1-.4.3-.5s.4-.2.7-.3c.2-.1.5-.2.6-.4.2-.1.3-.4.3-.6 0 0 0-.1-.1-.2s-.3-.2-.6-.2c-.2 0-.3.1-.6.3-.2.2-.4.4-.6.7s-.4.7-.5 1-.2 1-.2 1.4c0 .4.1.8.2 1l.6 1c.2.2.5.4.8.5s.6.2 1 .2c.2 0 .5 0 .8-.1l.8-.3.6-.3c.2-.1.3-.2.4-.2s.1 0 .1.1c.3-.2.3-.2.3-.1zm5 1.8c0 .1 0 .2-.1.3s-.2.1-.3.1-.3-.1-.5-.4c-.1-.3-.3-.6-.4-1l-.4-1.3-.3-1.4-.2-1-.1-.5c0-.1 0-.2-.1-.5l-.2-1.3-.4-2.2-.3-3.4c0-.1 0-.3.1-.6s.2-.3.3-.3c.2 0 .4.2.5.5s.2.7.3 1 .1 1 .2 1.4l.1 1.3.2 1.4.2 1.2.2 1.3.3 1.5 1 4zm5 0c0 .1 0 .2-.1.3s-.2.1-.3.1-.3-.1-.5-.4c-.1-.3-.3-.6-.4-1l-.4-1.3-.3-1.4v-1l-.1-.5c0-.1 0-.2-.1-.5l-.2-1.3-.3-2.2-.3-3.4c0-.1 0-.3.1-.6s.2-.3.3-.3c.2 0 .4.2.5.5s.2.7.3 1 .1 1 .2 1.4l.1 1.3.2 1.4.2 1.2.2 1.3.3 1.5.8 4zm3.3-10.3l-.2.2c-.1.1-.2.2-.4.3-.1.1-.3.2-.5.3s-.3.1-.4.1h-.3c-.1 0-.2 0-.3-.1-.1 0-.2-.1-.3-.2s-.1-.2-.1-.4.1-.4.2-.6.4-.3.6-.3c0 0 .2 0 .3.1.2 0 .4.1.5.1.2.1.3.1.5.2.3.1.4.2.4.3zm.7 9c0 .1-.1.2-.3.3s-.3.1-.4.1c-.2 0-.3-.1-.4-.3l-.3-.7-.2-.8-.1-.5-.2-.6-.2-.6-.2-.6-.1-.3c0-.2 0-.4.1-.6s.2-.3.3-.3.3.1.5.3.3.5.5 1c.2.3.3.7.4 1l.3 1.2.2 1c.1.1.1.5.1.5zm7.5 0c0 .2-.1.3-.2.4s-.2.2-.2.3c0 0 0 .1.1.3l.2.6.3 1c.1.3.2.6.2 1 .1.3.1.5.1.8v1c0 .3-.1.7-.2 1s-.3.7-.5 1c-.2.3-.5.5-.8.7s-.6.3-1 .3c-.6 0-1-.1-1.4-.4-.3-.2-.6-.5-.8-.8s-.3-.6-.3-1v-.6c0-.6.2-1.2.5-1.8s.6-1 1-1.6l1-1.2c.3-.3.5-.5.5-.6l-.3-.8c-.2.2-.3.4-.4.6s-.2.4-.4.6c-.1.2-.3.4-.5.5s-.4.2-.7.2-.6-.1-1-.3-.5-.4-.8-.8-.4-.8-.6-1.3c-.1-.5-.2-1-.2-1.7 0-.4.1-.8.2-1.4s.3-1 .5-1.6.5-1 1-1.3.8-.6 1.3-.6c.3 0 .5 0 .7.1s.4.2.4.4c0 .1 0 .2-.1.3s-.1.2-.2.2-.1-.1-.2-.1h-.2c-.4 0-.7.2-1 .5s-.5.7-.7 1.2c-.2.4-.3 1-.5 1.4-.1.5-.1 1-.1 1.3 0 .8.1 1.4.4 2 .3.4.6.6 1 .6.1 0 .3-.1.5-.3s.3-.5.5-.7l.4-.8V38.1c0-.4 0-.8.1-1 .1-.3.2-.4.5-.4s.4.1.6.2c.1.1.2.3.2.5v2c0 .2.1.4.1.6l.1.5.1.3h.1c0 .1.1.1.1.2 0 0 0-.1.1-.1l.1-.1c.1 0 .2.1.2.3.2.4.2.5.2.5zm-.8 3l-.2-.8-.2-.8-.8 1-.7 1c-.2.3-.3.6-.5 1-.1.3-.2.7-.2 1 0 .5.1 1 .4 1.2s.6.5 1 .5.7-.1 1-.4.5-.7.5-1.2V46c0-.2 0-.3-.1-.5V45zm9.5-3.4c0 .2-.1.3-.2.5l-.3.3c-.2.2-.4.3-.6.4-.3.1-.6.3-1 .4s-.8.2-1.4.2c-.4 0-.7-.1-1-.2-.4-.2-.7-.4-1-.7-.3-.3-.5-.7-.7-1.2s-.3-1-.3-1.7a11 11 0 01.2-1.8c.1-.6.4-1 .6-1.4.3-.4.5-.7.8-1s.6-.4 1-.4.5.1.8.2.5.2.7.4.4.3.5.6c.1.2.2.4.2.6s-.1.5-.3.7c-.2.3-.5.5-.8.7l-1 .5c-.3.1-.5.2-.7.2-.1 0-.2 0-.3-.1s-.1-.2-.1-.3c0-.2.1-.4.3-.5s.4-.2.7-.3c.2-.1.5-.2.6-.4.2-.1.3-.4.3-.6 0 0 0-.1-.1-.2s-.2-.4-.6-.4c-.2 0-.3.1-.6.3-.2.2-.4.4-.6.7s-.4.7-.5 1-.2 1-.2 1.4c0 .4.1.8.2 1l.6 1c.2.2.5.4.8.5s.6.2 1 .2c.2 0 .5 0 .8-.1l.8-.3.6-.3c.2-.1.3-.2.4-.2s.1 0 .1.1c.2 0 .2 0 .3.1zm8.8-.5c0 .1 0 .2-.1.3s-.1.2-.2.3-.2.2-.3.2-.2.1-.3.1c-.3 0-.6-.1-1-.2s-.8-.3-1-.6c-.3-.3-.5-.6-.7-1l-.7-1.7-.6 2c-.2.7-.6 1.3-1 2h-.1c-.1 0-.2-.1-.4-.2s-.2-.2-.2-.3V41l-.1-1.4-.1-1.5V36.4c0-.2.1-.5.1-.7 0-.1.1-.1.2-.2s.2-.1.4-.1c.1 0 .2.1.2.2v4.6c0 .1.1.2.1.3.2-.4.4-1 .5-1.3l.5-1.5c.1-.5.3-1 .4-1.2s.3-.5.4-.5c.2 0 .3 0 .4.1s.2.2.2.4l.2 1.2.2 1 .3.8c.2.3.3.5.6.7.2.2.5.4.7.5.3.1.5.1.7.1h.3c.1 0 .2-.1.2-.1.1 0 .1.1.2.2.2.1.2.2.2.2zm8.2-1.4c0 .2 0 .3-.1.5l-.1.4-.5.5-1 1c-.4.3-1 .6-1.3.8-.5.2-1 .4-1.4.4-.3 0-.6-.1-.8-.1-.3-.1-.5-.3-.8-.5-.2-.2-.5-.5-.6-.8s-.2-.7-.2-1.2c0-.8.1-1.5.4-2l.8-1.5c.1-.2.3-.4.4-.5l.6-.5c.2-.1.3-.3.5-.4s.3-.1.3-.1c.1 0 .3 0 .4.1v.2c0 .1 0 .2-.1.3l-.3.3c-.2.1-.3.3-.5.4l-.6.6c-.4.5-.7 1-1 1.6s-.3 1-.3 1.4.2.8.5 1 .6.4 1 .4c.6 0 1-.1 1.6-.4s1-.6 1.2-1l.8-1c.2-.3.4-.4.5-.4.2.1.3.3.3.5zm8.6 2c0 .2-.1.3-.2.5l-.3.3c-.2.2-.4.3-.6.4-.3.1-.6.3-1 .4s-.8.2-1.4.2c-.4 0-.7-.1-1-.2-.4-.2-.7-.4-1-.7-.3-.3-.5-.7-.7-1.2s-.3-1-.3-1.7a11 11 0 01.2-1.8c.1-.6.4-1 .6-1.4.3-.4.5-.7.8-1s.6-.4 1-.4.5.1.8.2.5.2.7.4.4.3.5.6c.1.2.2.4.2.6s-.1.5-.3.7c-.2.3-.5.5-.8.7l-1 .5c-.3.1-.5.2-.7.2-.1 0-.2 0-.3-.1s-.1-.2-.1-.3c0-.2.1-.4.3-.5s.4-.2.7-.3c.2-.1.5-.2.6-.4.2-.1.3-.4.3-.6 0 0 0-.1-.1-.2s-.3-.2-.6-.2c-.2 0-.3.1-.6.3-.2.2-.4.4-.6.7s-.4.7-.5 1-.2 1-.2 1.4c0 .4.1.8.2 1l.6 1c.2.2.5.4.8.5s.6.2 1 .2c.2 0 .5 0 .8-.1l.8-.3.6-.3c.2-.1.3-.2.4-.2s.1 0 .1.1c.2-.2.2-.2.3-.1zM196.3 60.6c0 .3-.2.5-.6.7l-1.3.5-1.4.4-1.2.3-.6.2v.2l.1.6c0 .1 0 .3-.1.3 0 .1-.1.1-.2.1s-.2 0-.3-.1l-.1-.3-.1-.4c0-.1-.1-.2-.1-.3 0 0-.2 0-.4.1h-1l-1.2.3-1.2.3-1 .2c-.4.1-.6.1-.8.1-.4 0-.6-.1-.6-.4 0-.2.1-.4.2-.5s.3-.2.4-.2c0 0 .2-.1.5-.1l1-.2 1.3-.3 1.3-.3 1-.3c.3-.1.4-.1.4-.2s0-.3-.1-.5l-.2-.7v-.5l-.5-3-.3-3h-.1c-.1 0-.3.1-.6.2l-1 .5-1 .5c-.3.2-.5.2-.6.2s-.2 0-.3-.1-.1-.2-.1-.3.1-.3.3-.4c.2-.2.5-.4.8-.5.3-.2.7-.4 1-.5l1-.5 1-.3c.3-.1.4-.1.5-.1s.3 0 .5-.1l.7-.2.7-.2c.3 0 .5-.1.7-.1s.3.1.3.2 0 .1-.1.2l-.7.2-.6.2c-.2 0-.4.1-.6.2s-.3.1-.4.2-.1.2-.1.3c0 .4 0 1 .1 1.6l.3 2 .4 2.3.4 2.2 4.3-1c.1 0 .2 0 .3-.1.1 0 .2-.1.2-.1h.2c-.2.1-.1.2-.1.5zm8.3.4c0 .1 0 .2-.1.3s-.1.2-.2.3-.2.2-.3.2-.2.1-.3.1c-.3 0-.6-.1-1-.2s-.8-.3-1-.6c-.3-.3-.5-.6-.7-1l-.7-1.7-.6 2c-.2.7-.6 1.3-1 2h-.1c-.1 0-.2-.1-.4-.2s-.2-.2-.2-.3V61l-.1-1.4-.1-1.5V56.4c0-.2.1-.5.1-.7 0-.1.1-.1.2-.2s.2-.1.4-.1c.1 0 .2.1.2.2v4.6c0 .1.1.2.1.3.2-.4.4-1 .5-1.3l.5-1.5c.1-.5.3-1 .4-1.2s.3-.5.4-.5c.2 0 .3 0 .4.1s.2.2.2.4l.2 1.2.2 1 .3.8c.2.3.3.5.6.7.2.2.5.4.7.5.3.1.5.1.7.1h.3c.1 0 .2-.1.2-.1.1 0 .1.1.2.2.2.1.2.2.2.2zm9-14.2v.5c0 .1 0 .2-.1.2h-.2l-1-.5c-.4-.2-1-.3-1.4-.3-.6 0-1 .2-1.4.6-.4.5-.6 1-.8 1.5-.2.6-.3 1-.4 1.7l-.1 1.2c0 .2 0 .5.1.8l.2 1.2.3 1c.1.3.3.5.4.6h1.1c.3 0 .5 0 .8.1s.5.1.7.1h.7c.1 0 .2 0 .4.1.1 0 .1.1.1.1 0 .1-.1.2-.2.2s-.2.1-.4.2c-.1 0-.3.1-.4.1h-1.7c-.3 0-.4 0-.5.1 0 0-.1.2-.1.3 0 .2.1.6.3 1l.7 1.3c.3.5.5 1 .7 1.4s.3 1 .3 1.4c0 .1 0 .2-.1.5 0 .2-.1.4-.2.6l-.3.6c-.1.2-.3.3-.4.3s-.2 0-.4-.1c-.1-.1-.1-.2-.1-.4 0-.3.1-.5.2-.7s.2-.5.2-.7c0-.1-.1-.3-.2-.6s-.3-.6-.4-1l-.6-1.2-.6-1-.5-1-.2-.4-1 .3c-.3.1-.6.3-1 .5-.1.1-.2.2-.3.2-.2 0-.3-.1-.5-.2-.1-.1-.2-.3-.2-.4 0-.2 0-.3.1-.4s.2-.2.3-.2c.2-.1.4-.2.7-.3l1-.2c.1 0 .2-.1.3-.1s.1-.1.1-.2l-.2-.6-.3-1v-1c-.1-.5-.1-1-.1-1.5a11 11 0 01.2-1.8c.1-.6.4-1.2.6-1.8.3-.5.7-1 1-1.3.4-.4 1-.5 1.6-.5.3 0 .6 0 1 .1.4 0 .7.1 1 .2s.5.2.7.4c.6-.3.7-.1.7.1zm7.2 10c0 .1 0 .2-.1.3s-.2.1-.3.2-.3.1-.4.1h-1c-.4 0-.7 0-1 .1l-.6.3c-.1.1-.2.3-.3.6v2l.1.7.1.5c0 .1.1.2.1.3s-.1.3-.2.4-.2.2-.4.2-.4-.2-.5-.5c-.1-.4-.3-.8-.4-1.2l-.2-1.4-.1-1c0-.3 0-.5.1-.8 0-.3.1-.5.2-.6.1-.2.2-.3.3-.5s.2-.2.3-.2.1 0 .2.1c0 0 .1.1.1.2v.2s.1.1.2.1.4-.1.7-.2.7-.2 1.2-.2h1c.2 0 .4.1.6.1 0 0 .1.1.2.1-.1 0 0 .1 0 .2zm13.3 2.3c0 .3-.1.6-.4 1-.3.4-.6.8-1 1.2s-1 .7-1.6 1-1.2.4-1.8.4c-.3 0-.6 0-1-.1s-.6-.2-1-.4-.6-.4-.8-.7-.4-.6-.5-1c-.1.1-.2.3-.4.5l-.4.7c-.2.2-.3.4-.5.6s-.4.2-.6.2-.4-.1-.5-.3l-.3-.7c-.1-.3-.1-.5-.2-.8v-.4c0-.2.1-.6.2-1s.3-1 .5-1.7.5-1 .8-1.5c.4-.4.8-.7 1.2-.7.2 0 .3.1.3.2.1.1.1.3.1.4v.7c.1.1.2.1.2.1.1 0 .2 0 .2.1.1 0 .1.1.2.2 0 .1.1.2.1.4v.5c0 .4 0 .8.1 1.2s.2.8.4 1 .5.6.8.8.8.3 1.3.3c.7 0 1.3-.1 1.8-.4a4 4 0 001.2-1l.8-1c.2-.3.4-.5.5-.5.1.2.2.3.2.5zm-8.5-1v-.9c-.1 0-.3.2-.5.4-.2.3-.3.6-.4.8l-.3 1c-.1.3-.1.6-.1.8s0 .4.1.6c.1.3.1.4.2.5l.7-1.6a4 4 0 00.3-1.5zm14.2 2.8c0 .3-.1.5-.3.7s-.4.4-.7.5l-1 .3-1 .2-.8.1h-.4c-.4 0-.6-.1-.8-.2s-.3-.3-.3-.6v-.2c0-.1.1-.1.2-.1h1.1l1-.1c.4-.1.7-.1 1-.3.3-.1.5-.3.5-.5 0 0-.2-.1-.5-.3l-1.5-1c-.5-.3-1-.6-1-1-.2-.3-.3-.8-.3-1.3 0-.4.1-.6.2-1 .2-.2.4-.4.6-.5l1-.3c.4-.1.7-.1 1-.1h.3c.2 0 .4.1.6.2l.5.3c.2.1.2.2.2.3 0 0 0 .1-.1.1l-.3.4s-.1 0-.3-.1l-.4-.1c-.1 0-.3-.1-.5-.1h-.4c-.4 0-.8.1-1 .2-.3.1-.4.4-.4 1 0 .2.1.4.2.6.2.2.4.4.6.5l.8.5c.3.1.6.3.8.5s.5.4.6.6c.5.3.6.5.6.7zm8.4-7.6c-.2.2-.5.5-1 .7l-1.2.6-1 .5c-.3.1-.4.2-.4.3s0 .2.1.4v1l.3 1 .2 1 .1.6.1.8.1.7v.3c0 .3 0 .5-.1.7-.1.3-.2.4-.4.4-.1 0-.2 0-.3-.1s-.2-.2-.2-.3c-.1-.1-.1-.2-.1-.3v-.8l-.1-1.3c0-.2-.1-.4-.2-.8l-.3-1-.4-1.5c-.1-.2-.1-.3-.1-.3-.1 0-.3.1-.6.2s-.6.3-1 .5l-1 .6-1 .6-.8.5-.4.2c-.2 0-.4-.1-.5-.2s-.2-.3-.2-.5c0-.1.1-.2.4-.4s.6-.4 1-.6l1.3-.7 1.2-.6 1-.5.4-.2-.4-2v-1.4l-.1-.7c0-.2 0-.4.1-.5s.2-.2.3-.2c.2 0 .3.1.3.4l.5 2.3.5 1.6c.1 0 .4-.1.7-.3l1-.5 1-.5.6-.2c.1 0 .2 0 .2.1.1.2.1.3.2.4zm7 3.5c0 .1 0 .2-.1.3s-.2.1-.3.2-.3.1-.4.1h-1c-.4 0-.7 0-1 .1l-.6.3c-.1.1-.2.3-.3.6v2l.1.7.1.5c0 .1.1.2.1.3s-.1.3-.2.4-.2.2-.4.2-.4-.2-.5-.5c-.1-.4-.3-.8-.4-1.2l-.2-1.4v-1c0-.3 0-.5.1-.8 0-.3.1-.5.2-.6.1-.2.2-.3.3-.5s.2-.2.3-.2.1 0 .2.1c0 0 .1.1.1.2l.1.2s.1.1.2.1.4-.1.7-.2.7-.2 1.2-.2h1c.2 0 .4.1.6.1 0 0 .1.1.2.1v.2zM265 60c0 .1-.1.3-.3.5s-.4.3-.7.5l-.8.3c-.3.1-.4.1-.6.1-.1 0-.3 0-.5-.1s-.3-.2-.5-.3l-.4-.3-.2-.2s-.1.1-.2.3-.2.3-.4.5c-.1.2-.3.3-.4.4s-.3.2-.5.2c-.4 0-.8-.2-1-.7l-.8-1.5c-.2-.6-.3-1-.5-1.7v-1c0-.1.1-.2.2-.3s.2-.1.3-.1c.2 0 .4.1.5.2s.1.3.1.5c0 .1 0 .4.1.8l.3 1c.1.4.3.7.4 1s.3.4.4.4c.2 0 .4-.1.5-.4.2-.3.3-.6.4-1 .1-.4.2-.7.2-1l.1-.6V56.6c0-.1 0-.2-.1-.2 0 0-.1-.1-.1-.3 0-.1 0-.2.1-.3s.3-.1.6-.1c.1 0 .2 0 .3.1h.2c.1.1 0 .2 0 .3v2.3s0 .1.1.3l.2.5c.1.1.2.3.3.4s.2.2.3.2c.2 0 .4 0 .5-.1l.5-.2.4-.2c.1-.1.2-.1.4-.1.1 0 .3 0 .4.1.4.2.4.3.4.4zm8-.4c0 .2 0 .3-.1.5l-.1.4-.5.5-1 1c-.4.3-1 .6-1.3.8-.5.2-1 .4-1.4.4-.3 0-.6-.1-.8-.1-.3-.1-.5-.3-.8-.5-.2-.2-.5-.5-.6-.8s-.2-.7-.2-1.2c0-.8.1-1.5.4-2l.8-1.5c.1-.2.3-.4.4-.5l.6-.5c.2-.1.3-.3.5-.4s.3-.1.3-.1c.1 0 .3 0 .4.1l.2.2c0 .1 0 .2-.1.3l-.3.3c-.2.1-.3.3-.5.4l-.6.6c-.4.5-.7 1-1 1.6s-.3 1-.3 1.4.2.8.5 1 .6.4 1 .4c.6 0 1-.1 1.6-.4s1-.6 1.2-1l.8-1c.2-.3.4-.4.5-.4.2.1.3.3.3.5zm8.3-6.4c-.2.2-.5.5-1 .7l-1.2.6-1 .5c-.3.1-.4.2-.4.3s0 .2.1.4l.2 1 .3 1 .2 1 .1.6.1.8.1.7v.3c0 .3 0 .5-.1.7-.1.3-.2.4-.4.4-.1 0-.2 0-.3-.1s-.2-.2-.2-.3c-.1-.1-.1-.2-.1-.3v-.7l-.1-1.3c0-.2-.1-.4-.2-.8l-.3-1-.4-1.5c-.1-.2-.1-.3-.1-.3-.1 0-.3.1-.6.2s-.6.3-1 .5l-1 .6-1 .6-.8.5-.4.2c-.2 0-.4-.1-.5-.2s-.2-.3-.2-.5c0-.1.1-.2.4-.4s.6-.4 1-.6l1.3-.7 1.2-.6 1-.5.4-.2-.4-2-.2-1.4-.1-.7c0-.2 0-.4.1-.5s.2-.2.3-.2c.2 0 .3.1.3.4l.5 2.3.5 1.6c.1 0 .4-.1.7-.3l1-.5 1-.5.6-.2c.1 0 .2 0 .2.1.1.2.1.3.2.4zm9.2 6.8c0 .1-.1.3-.3.5s-.4.3-.7.5l-.8.3c-.3.1-.4.1-.6.1-.1 0-.3 0-.5-.1s-.3-.2-.5-.3l-.4-.3-.2-.2s-.1.1-.2.3-.2.3-.4.5c-.1.2-.3.3-.4.4s-.3.2-.5.2c-.4 0-.8-.2-1-.7l-.8-1.5c-.2-.6-.3-1-.5-1.7l-.1-1c0-.1.1-.2.2-.3s.2-.1.3-.1c.2 0 .4.1.5.2s.1.3.1.5c0 .1 0 .4.1.8l.3 1c.1.4.3.7.4 1s.3.4.4.4c.2 0 .4-.1.5-.4.2-.3.3-.6.4-1 .1-.4.2-.7.2-1l.1-.6V56.6c0-.1 0-.2-.1-.2 0 0-.1-.1-.1-.3 0-.1 0-.2.1-.3s.3-.1.6-.1c.1 0 .2 0 .3.1h.2c.1.1 0 .2 0 .3v2.3s0 .1.1.3l.2.5c.1.1.2.3.3.4s.2.2.3.2c.2 0 .4 0 .5-.1h.7l.4-.2c.1-.1.2-.1.4-.1.1 0 .3 0 .4.1.1 0 .2.1.2.2zm6.6-3.3c0 .1 0 .2-.1.3s-.2.1-.3.2-.3.1-.4.1h-1c-.4 0-.7 0-1 .1l-.6.3c-.1.1-.2.3-.3.6v2l.1.7.1.5c0 .1.1.2.1.3s-.1.3-.2.4-.2.2-.4.2-.4-.2-.5-.5c-.1-.4-.3-.8-.4-1.2v-1.4l-.1-1c0-.3 0-.5.1-.8 0-.3.1-.5.2-.6.1-.2.2-.3.3-.5s.2-.2.3-.2.1 0 .2.1c0 0 .1.1.1.2v.2s.1.1.2.1.4-.1.7-.2.7-.2 1.2-.2h1c.2 0 .4.1.6.1 0 0 .1.1.2.1-.1 0 0 .1 0 .2zm8.6 4.8c0 .2-.1.3-.2.5l-.3.3c-.2.2-.4.3-.6.4-.3.1-.6.3-1 .4s-.8.2-1.4.2c-.4 0-.7-.1-1-.2-.4-.2-.7-.4-1-.7-.3-.3-.5-.7-.7-1.2s-.3-1-.3-1.7.1-1.2.2-1.8.4-1 .6-1.4c.3-.4.5-.7.8-1s.6-.4 1-.4.5.1.8.2.5.2.7.4.4.3.5.6c.1.2.2.4.2.6s-.1.5-.3.7c-.2.3-.5.5-.8.7l-1 .5c-.3.1-.5.2-.7.2-.1 0-.2 0-.3-.1s-.1-.2-.1-.3c0-.2.1-.4.3-.5s.4-.2.7-.3c.2-.1.5-.2.6-.4.2-.1.3-.4.3-.6 0 0 0-.1-.1-.2s-.3-.2-.6-.2c-.2 0-.3.1-.6.3-.2.2-.4.4-.6.7s-.4.7-.5 1-.2 1-.2 1.4c0 .4.1.8.2 1l.6 1c.2.2.5.4.8.5s.6.2 1 .2c.2 0 .5 0 .8-.1l.8-.3.6-.3c.2-.1.3-.2.4-.2s.1 0 .1.1c.2-.2.2-.2.3-.1zM170.2 167.8c0 .5-.1 1-.3 1.6s-.5 1-.8 1.4c-.4.5-.8 1-1.2 1.4-.5.4-1 1-1.5 1.3-.6.4-1.3 1-2 1.3l-2.4 1-2.2.8c-.7.2-1.3.3-1.7.3-.3 0-.5 0-.6-.1s-.2-.2-.2-.5c0-.2.1-.4.2-.6s.3-.4.4-.4.2 0 .3.1c0 .1.1.2.1.3v.1l2.4-.6c1-.3 2.2-.8 3.6-1.6.6-.3 1.2-.7 1.8-1.2s1-1 1.6-1.5 1-1 1.2-1.6c.3-.6.4-1 .4-1.7 0-.4-.2-.8-.6-1.2s-1-.8-1.5-1.2-1.2-.7-2-1c-.7-.3-1.4-.5-2-.6 0 .2.1.4.1.6l.1 1 .2 1.3.3 1.3v1l.1.5.1.6c0 .2.1.5.1.8l.1.7v.5c0 .2 0 .3-.1.5 0 .2-.1.2-.2.2-.2 0-.3-.1-.4-.2s-.1-.4-.2-.7l-.2-1.3c-.1-.5-.2-1.2-.5-2l-.7-3-.2-2.3H160.6c-.3 0-.5.1-.7.2l-.6.3c-.2.1-.3.2-.4.4-.1.1-.2.1-.2.1-.2 0-.3 0-.5-.1s-.3-.2-.3-.3c0-.2.1-.4.3-.6s.4-.4.7-.6.6-.3 1-.4.6-.2 1-.2c.5 0 1 .1 1.7.2s1.3.3 2 .5 1.4.5 2 .8c.7.3 1.3.7 1.8 1l1.3 1.2c.3.4.5 1 .5 1.6zm8.6 4.7v.1c0 .1-.1.2-.2.4l-.3.3c-.2.2-.4.3-.6.4-.3.1-.6.3-1 .4s-.8.2-1.4.2c-.4 0-.7-.1-1-.2-.4-.2-.7-.4-1-.7-.3-.3-.5-.7-.7-1.2s-.3-1-.3-1.7.1-1.2.2-1.8.4-1 .6-1.4c.3-.4.5-.7.8-1s.6-.4 1-.4.5.1.8.2.5.2.7.4.4.3.5.6c.1.2.2.4.2.6s-.1.5-.3.7c-.2.3-.5.5-.8.7l-1 .5c-.3.1-.5.2-.7.2-.1 0-.2 0-.3-.1s-.1-.2-.1-.3c0-.2.1-.4.3-.5s.4-.2.7-.3c.2-.1.5-.2.6-.4.2-.1.3-.4.3-.6 0 0 0-.1-.1-.2s-.3-.2-.6-.2c-.2 0-.3.1-.6.3-.2.2-.4.4-.6.7s-.4.7-.5 1-.2 1-.2 1.4c0 .4.1.8.2 1l.6 1c.2.2.5.4.8.5s.6.2 1 .2c.2 0 .5 0 .8-.1l.8-.3.6-.3c.2-.1.3-.2.4-.2s.1 0 .1.1c.3-.2.3-.2.3-.1zm9.4-4.4c0 .4-.1.8-.4 1.2-.2.4-.5.7-.8 1-.3.3-.7.6-1 1l-1 .7-.8.6c-.2.1-.3.3-.3.3 0 .2 0 .5.1 1l.2 1.2.2 1.3.2 1.3v.2l.1.4c0 .1.1.3.1.4v.7c0 .1 0 .3-.1.4 0 .1-.1.2-.2.3s-.2.1-.3.1c-.2 0-.3-.1-.4-.2s-.1-.3-.1-.4v-.2c0-.2-.1-.6-.2-1.4l-.4-2.8-.4-3.4-.2-3.5v-.6c-.2 0-.4.1-.7.2s-.6.3-1 .5-.6.4-.8.6-.3.4-.3.5h-.2s-.1 0-.2-.1l-.2-.2c-.1-.1-.1-.2-.2-.2s-.1-.1-.1-.2c0-.3.2-.6.6-1s1-.6 1.5-.8c.6-.3 1.3-.4 2-.6l2-.2c.6 0 1 .1 1.6.2.4.1.8.3 1 .5.3.2.4.4.6.6s.2.4.2.6zm-1.2-.1c0-.2-.2-.3-.6-.5s-1-.3-1.4-.3h-1c-.2 0-.4.1-.5.1l-.1 1v2l.1 1 1-.6 1.2-.8c.4-.3.7-.6 1-1 .4-.3.5-.6.5-1zm5.7 6.3c0 .1 0 .2-.1.3s-.2.1-.3.1-.3-.1-.5-.4c-.1-.3-.3-.6-.4-1l-.4-1.3-.3-1.4-.2-1-.1-.5c0-.1 0-.2-.1-.5l-.2-1.3-.3-2.2-.3-3.4c0-.1 0-.3.1-.6s.2-.3.3-.3c.2 0 .4.2.5.5s.2.7.3 1 .1 1 .2 1.4v1.3l.2 1.4.2 1.2.2 1.3.3 1.5.8 4zm6.2-4.5c0 .3 0 .7-.1 1s-.2.6-.4.8l-.6.6c-.2.1-.5.2-.7.2-.4 0-.8-.1-1-.4s-.5-.6-.6-1-.2-.7-.3-1v-.8c0-.3 0-.6.1-1 .1-.3.2-.7.4-1s.3-.6.5-.8.4-.3.6-.3h.2c.1 0 .2.1.3.1.1.1.2.1.3.2s.2.2.2.3c.2 0 .4.1.5.2.2.1.3.2.3.3a5 5 0 01.2 1.2l.2 1.3zm-1-.4c0-.2 0-.5-.1-.7 0-.3-.1-.5-.3-.8h-.4c-.2 0-.3.1-.5.2-.1.1-.2.2-.3.4 0 .2-.1.3-.1.5v1.2c0 .2 0 .4.1.6s.1.4.2.5.2.2.4.2.3-.1.4-.2l.3-.6c.1-.2.1-.4.1-.6l.2-.7zm8.5-5.6l-.6 3.2-.2 1.4-.2 1.4-.2 1.3v2.8l-.1 2v3c0 .2 0 .3-.1.4s-.2.2-.3.2-.2-.1-.3-.3-.1-.4-.2-.7c0-.3-.1-.5-.1-.8V175.8l.1-1.4v-2.3s-.1-.1-.3-.2l-.8-.5-1-.7-.8-.7s-.1-.1-.1-.2c-.1-.1-.1-.3-.1-.4s0-.2.1-.2c.1-.1.2-.1.3-.1s.1 0 .2.1l1.3 1 1.4 1 .2-1.3.3-2 .3-2 .2-1.5v-.3c0-.1.1-.3.1-.4.1-.1.1-.3.2-.4s.2-.2.3-.2c0 0 .2 0 .3.1.1-.3.1-.1.1.2zm-120.3-6c0 .4-.1.8-.3 1.2s-.4.8-.7 1c-.3.4-.6.7-1 1l-1 .7-1 .7-1 .7-1 .6-.5.4-.7.6c-.1.1-.2.1-.3.1h-.2c-.1 0-.2-.1-.3-.2s-.1-.3-.1-.4.1-.3.3-.5.4-.5.6-.6c.2-.2.5-.4 1-.5s.8-.5 1.4-.8l1-.7c.4-.3.8-.7 1.2-1s.7-.7 1-1 .4-.8.4-1.2c0-.1-.2-.3-.5-.4-.3-.2-.8-.2-1.4-.2s-1.3.1-2 .3l-2 .6-1.5.6c-.4.2-.7.3-.8.3l.2 1.4.2 1.5.3 1.8h.1c0 .2.1.4.2.7s.1.5.1.7c0 .3-.1.4-.3.4-.1 0-.2-.1-.3-.3l-.4-.6-.3-.7-.2-.5-.4-1.8-.4-2-.2-2-.1-1.5c0-.1 0-.2.1-.3s.1-.2.1-.2 0-.1-.1-.2V155.2c0-.1.1-.1.2-.1h.3c.1 0 .2 0 .3.1.1 0 .1.1.2.2s.1.2.1.5v.7c0 .2 0 .2.1.2l.5-.3 1-1 1.3-1.2 1.4-1.2.7-.7 1-1 .8-1c.2-.3.3-.5.3-.7s0-.2-.1-.2-.4.1-.8.2l-1.4.5-1.6.6c-.6.2-1 .5-1.5.7l-1.3 1-1.2 1-1 .8-.4.4V155s0 .1-.1.1H74c-.2 0-.3 0-.5-.1s-.3-.2-.3-.5c0-.2.1-.5.4-.8.3-.4.6-.7 1-1s1-.8 1.4-1l1.5-1 1.6-1 1.7-.7c.5-.2 1-.4 1.6-.5l1.2-.2h.4c.1 0 .3.1.5.1s.3.2.4.3.1.2.1.4c0 .4-.1 1-.4 1.3-.3.5-.6 1-1 1.4l-1.4 1.4-1.6 1.4-1.5 1.3-1.2 1 1-.3 1.3-.5 1.4-.4 1.3-.2h.7c.4 0 .8.1 1.2.2s.8.3 1 .6c-.1.4.1.7.1 1.2zm10 3.2c0 .1-.1.3-.3.5s-.4.3-.7.5l-.8.3c-.3.1-.4.1-.6.1-.1 0-.3 0-.5-.1s-.3-.2-.5-.3l-.4-.3-.2-.2s-.1.1-.2.3-.2.3-.4.5c-.1.2-.3.3-.4.4s-.3.2-.5.2c-.4 0-.8-.2-1-.7l-.8-1.5c-.2-.6-.3-1-.5-1.7v-1c0-.1.1-.2.2-.3s.2-.1.3-.1c.2 0 .4.1.5.2s.1.3.1.5c0 .1 0 .4.1.8l.3 1c.1.4.3.7.4 1s.3.4.4.4c.2 0 .4-.1.5-.4.2-.3.3-.6.4-1 .1-.4.2-.7.2-1l.1-.6V157.6c0-.1 0-.2-.1-.2 0 0-.1-.1-.1-.3 0-.1 0-.2.1-.3s.3-.1.6-.1c.1 0 .2 0 .3.1h.2c.1.1 0 .2 0 .3v2.3s0 .1.1.3l.2.5c.1.1.2.3.3.4s.2.2.3.2c.2 0 .4 0 .5-.1l.5-.2.4-.2c.1-.1.2-.1.4-.1.1 0 .3 0 .4.1.3.2.4.3.4.4zm2.4-7l-.2.2c-.1.1-.2.2-.4.3-.1.1-.3.2-.5.3s-.3.1-.4.1h-.3c-.1 0-.2 0-.3-.1-.1 0-.2-.1-.3-.2s-.1-.2-.1-.4.1-.4.2-.6.4-.3.6-.3c0 0 .2 0 .3.1.2 0 .4.1.5.1.2.1.3.1.5.2.3.1.4.2.4.3zm.8 9c0 .1-.1.2-.3.3s-.3.1-.4.1c-.2 0-.3-.1-.4-.3l-.3-.7-.2-.8-.1-.5-.2-.6-.2-.6v-.6l-.1-.3c0-.2 0-.4.1-.6s.2-.3.3-.3.3.1.5.3.3.5.5 1c.2.3.3.7.4 1l.3 1.2v1l.1.5zm4.7 1.4c0 .1 0 .2-.1.3s-.2.1-.3.1-.3-.1-.5-.4c-.1-.3-.3-.6-.4-1l-.4-1.3-.3-1.4-.2-1-.1-.5c0-.1 0-.2-.1-.5l-.2-1.3-.3-2.2-.3-3.4c0-.1 0-.3.1-.6s.2-.3.3-.3c.2 0 .4.2.5.5s.2.7.3 1 .1 1 .2 1.4l.1 1.3.2 1.4.2 1.2.2 1.3.3 1.5a30 30 0 00.8 3.9zm8.6-3.2c0 .1 0 .2-.1.2-.1.1-.1.1-.1.2 0 .2 0 .3.1.5s.1.4.1.6-.1.3-.2.3c-.2 0-.3 0-.4.1-.1 0-.2.1-.4.1-.1 0-.2-.1-.3-.3-.1-.1-.1-.2-.2-.3v.1c-.1.1-.2.2-.4.3s-.5.2-.8.3-.8.1-1.3.1c-.4 0-.8-.1-1.2-.3-.3-.2-.6-.5-.8-.8s-.4-.7-.5-1-.1-.8-.1-1.2 0-.7.1-1 .2-.7.4-1c.2-.3.4-.5.6-.6s.5-.2.8-.2.6.1 1 .3l.8.6.6.6.2.3-.6-3.4-.2-1.3-.2-1.2-.2-.8V149.6l-.2-.6-.1-.4c0-.1 0-.2.1-.3s.2-.2.3-.2h.3c.1 0 .2.1.2.1l.2.4c.1.2.1.4.2.7 0 .2.1.5.1 1l.2 1.5.2 1.5.2 1 .3 2 .4 2 .4 1.8c.1.5.3.8.4 1 0 .1.1.1.3.2-.1-.1 0 0 0 0zm-1.8.5l-.3-.6c-.2-.4-.4-.8-.7-1.2l-1-1.2c-.3-.3-.7-.5-1-.5s-.5.2-.7.6-.2 1-.2 1.4c0 .6.2 1 .5 1.5.4.4.8.6 1.2.6s.8-.1 1.2-.2.8-.2 1-.4z"/></g></svg>