<svg version="1.1" id="Layer_1" xmlns="http://www.w3.org/2000/svg" x="0" y="0" viewBox="0 0 320 220" xml:space="preserve"><style>.st3{fill:#fff}</style><g id="Deployments"><path d="M160.1 217.2c-.2 0-.3-.1-.4-.3-.1-.2 0-.5.2-.7 17.5-9.8 47.2-28 54.5-33 3.6-2.5 5.3-4.9 5-7.1-.6-3.8-6.9-7.7-18.9-11.5-17.7-5.6-43.8-13-61.1-17.9-6.2-1.7-11.2-3.2-14.4-4.1-6.9-2-9.8-3.7-10-5.8-.3-3.4 6.7-7 20.7-14l2.2-1.1c23.5-11.7 96.6-47.2 122-57.5.3-.1.5 0 .7.3.1.3 0 .5-.3.7-25.4 10.3-98.5 45.7-122 57.5l-2.2 1.1c-12.3 6.2-20.4 10.3-20.1 13 .2 2.1 5.4 3.8 9.3 4.9 3.1.9 8.2 2.3 14.3 4.1 17.3 4.9 43.5 12.3 61.2 17.9 12.5 4 18.9 8 19.6 12.3.4 2.7-1.4 5.4-5.4 8.1-7.3 5-37 23.2-54.5 33-.2.1-.3.1-.4.1z"/><path d="M133.1 215.7c-.2 0-.3-.1-.4-.3-.1-.2 0-.5.2-.7 8.3-4.6 17.4-9.9 26.3-15 10.1-5.8 19.6-11.3 27.2-15.5 4-2.2 5.9-4.2 5.8-5.9-.3-3.5-9.3-6.7-20.2-10.2-20-6.3-54.2-16.2-72.6-21.6-3.6-1-6.4-1.9-8.4-2.4-4.5-1.3-6.7-2.9-6.9-4.8-.4-4.1 8.7-8.6 21.3-14.8 1.5-.7 3-1.5 4.6-2.3 8.1-4 29.4-13.7 54.1-24.9 33.5-15.2 71.5-32.4 88.4-41.1.2-.1.5 0 .7.2.1.2 0 .5-.2.7-17 8.6-55 25.9-88.5 41.1-24.7 11.2-46 20.9-54 24.9-1.5.8-3.1 1.5-4.6 2.3-11.3 5.6-21 10.4-20.7 13.8.1 1.5 2.2 2.8 6.2 4 2 .6 4.9 1.4 8.4 2.4 18.4 5.3 52.6 15.2 72.6 21.6 11.6 3.7 20.5 6.9 20.9 11.1.2 2.2-1.8 4.4-6.3 6.9-7.7 4.2-17.2 9.7-27.2 15.5-8.9 5.1-18 10.4-26.3 15h-.4z"/><radialGradient id="SVGID_1_" cx=".037" cy="219.327" r="1" gradientTransform="matrix(-.5211 30.0457 64.4621 1.1181 -13973.768 -131.736)" gradientUnits="userSpaceOnUse"><stop offset="0"/><stop offset="1" stop-color="#3e7bfa" stop-opacity="0"/></radialGradient><path d="M273.6 111.4c0 30.4-52.8 55-118 55s-118-24.6-118-55 52.8-55 118-55 118 24.6 118 55z" opacity=".7" fill="url(#SVGID_1_)" fill-opacity=".1"/><radialGradient id="SVGID_2_" cx=".037" cy="219.327" r="1" gradientTransform="matrix(-.5211 30.0457 64.4621 1.1181 -14054.768 -82.736)" gradientUnits="userSpaceOnUse"><stop offset="0"/><stop offset="1" stop-color="#3e7bfa" stop-opacity="0"/></radialGradient><path d="M192.6 160.4c0 30.4-52.8 55-118 55s-118-24.6-118-55 52.8-55 118-55 118 24.6 118 55z" opacity=".7" fill="url(#SVGID_2_)" fill-opacity=".1"/><radialGradient id="SVGID_3_" cx=".037" cy="219.327" r="1" gradientTransform="matrix(-.5211 30.0457 64.4621 1.1181 -13898.768 -87.736)" gradientUnits="userSpaceOnUse"><stop offset="0"/><stop offset="1" stop-color="#3e7bfa" stop-opacity="0"/></radialGradient><path d="M348.6 155.4c0 30.4-52.8 55-118 55s-118-24.6-118-55 52.8-55 118-55 118 24.6 118 55z" opacity=".7" fill="url(#SVGID_3_)" fill-opacity=".1"/><path class="st3" d="M102.4 161.5L77 172.2l-22.5-7.1v-28.5l29.2-10.8 18.7 7.1V161.5z"/><path d="M104.7 134h-.1c-3.9-1.2-7.7-2.5-11.3-3.7-4.6-1.6-9-3-13.3-4.2-.3-.1-.4-.3-.4-.6s.3-.4.6-.4c4.3 1.2 8.7 2.7 13.4 4.2 3.6 1.2 7.3 2.5 11.3 3.7.3.1.4.4.3.6-.1.3-.3.4-.5.4zM54.5 166.3c-.3 0-.5-.2-.5-.5v-30.6c0-.3.2-.5.5-.5s.5.2.5.5v30.6c0 .3-.2.5-.5.5z"/><path d="M78.1 173.3c-.3 0-.5-.2-.5-.5v-31.9c0-.3.2-.5.5-.5s.5.2.5.5v31.9c0 .3-.2.5-.5.5zm24.3-11c-.3 0-.5-.2-.5-.5v-29.4c0-.3.2-.5.5-.5s.5.2.5.5v29.4c0 .3-.2.5-.5.5z"/><path d="M79.4 172.9h-.1c-4.9-1.3-9.6-2.6-14.2-3.7-4-1-7.7-2-11.3-3-.3-.1-.4-.3-.4-.6.1-.3.3-.4.6-.4 3.6 1 7.3 1.9 11.3 3 4.6 1.2 9.3 2.4 14.2 3.7.3.1.4.3.3.6 0 .3-.2.4-.4.4zM80.6 143.8h-.1c-4.9-1.3-9.6-2.6-14.2-3.7-4-1-7.7-2-11.3-3-.3-.1-.4-.3-.4-.6.1-.3.3-.4.6-.4 3.6 1 7.3 1.9 11.3 3 4.6 1.2 9.3 2.4 14.2 3.7.3.1.4.3.3.6 0 .3-.2.4-.4.4z"/><path d="M75.2 173.5c-.2 0-.4-.1-.5-.3-.1-.3 0-.5.3-.7 5.2-2.2 24.5-10 30.2-12.1.3-.1.5 0 .6.3.1.3 0 .5-.3.6-5.6 2-25.1 9.9-30.2 12.1 0 .1 0 .1-.1.1zM77.2 143.9c-.2 0-.4-.1-.5-.3-.1-.3 0-.5.3-.7 1.4-.6 3.3-1.4 5.6-2.4 6.9-3 16.4-7.1 20.6-8.7.3-.1.5 0 .6.3.1.3 0 .5-.3.6-4.1 1.6-13.6 5.7-20.5 8.7-2.3 1-4.3 1.9-5.6 2.4-.1.1-.1.1-.2.1zM54.3 137.7c-.2 0-.4-.1-.5-.3-.1-.3 0-.5.3-.7 5.7-2.4 22.7-9.5 28.1-11.6.3-.1.5 0 .6.3.1.3 0 .5-.3.6-5.4 2.1-22.3 9.2-28.1 11.6 0 .1 0 .1-.1.1zM67.8 140.2c-.2 0-.4-.1-.5-.3-.1-.3 0-.5.3-.7 2-.9 5.1-2.2 8.4-3.7 5.5-2.4 11.8-5.2 15.8-6.8.3-.1.5 0 .7.3.1.3 0 .5-.3.7-4 1.6-10.3 4.4-15.8 6.8-3.3 1.5-6.4 2.8-8.4 3.7h-.2z"/><path d="M79.1 171.9H79c-.3-.1-.4-.3-.4-.6 1.4-5.3 3.2-11.5 4.9-17.6.3-1 .6-1.9.8-2.9l3.4-12c.1-.3.4-.4.6-.3.3.1.4.3.4.6-1 3.7-2.2 7.9-3.4 12l-5.7 20.5c-.1.2-.3.3-.5.3zm-.8-15.6h-.1c-.3-.1-.4-.3-.4-.6.6-2.4 1.2-4.4 1.8-6.3l2.3-8.3c.1-.3.3-.4.6-.3.3.1.4.3.4.6-.8 3-1.5 5.3-2.1 7.6-.1.2-.1.4-.2.7l-1.8 6.2c-.1.3-.3.4-.5.4zM84.2 169.7h-.1c-.3-.1-.4-.3-.4-.6l8.2-31.6c.1-.3.3-.4.6-.4.3.1.4.3.4.6l-8.2 31.6c-.1.3-.3.4-.5.4zm4.8-2.2h-.1c-.3-.1-.4-.3-.4-.6 2.3-9.2 4.9-19.1 8.1-31.3.1-.3.3-.4.6-.4.3.1.4.3.4.6l-8.1 31.3c-.1.3-.3.4-.5.4zm5.4-2h-.1c-.3-.1-.4-.3-.4-.6.4-1.6.8-3.2 1.3-4.9l7-27.3c.1-.3.3-.4.6-.4.3.1.4.3.4.6-1.7 6.8-3.5 13.5-5.2 20.1-.6 2.4-1.3 4.9-1.9 7.3l-1.3 4.9c0 .2-.2.3-.4.3zm4.6-2.2h-.1c-.3-.1-.4-.4-.3-.6l3.7-13.1c.1-.3.4-.4.6-.3.3.1.4.4.3.6L99.5 163c-.1.2-.3.3-.5.3z"/><path class="st3" d="M71 79.5c-1.1 4.1-4.6 9.3-8 9.5-7.4.5-7.6-4.7-7.6-9.1.5-4.1 4.2-9.1 7.6-9.1 4.7.1 8.9 2.2 8 8.7z"/><path d="M64.7 85.3c-.8 0-1.9-.4-3.3-1.6-.2-.2-.2-.5-.1-.7.2-.2.5-.2.7-.1 1.5 1.3 2.9 1.7 3.5 1 .6-.7.4-2.2-.8-3.3-1.3-1.2-1.4-2.7-1.1-3.7.3-.8.9-1.4 1.6-1.5.5-.1 1.5 0 2.4 1.5.2.2.1.5-.1.7-.2.2-.5.1-.7-.1-.5-.7-1-1.1-1.5-1-.3 0-.7.4-.8.8-.2.7-.1 1.7.8 2.7 1.6 1.6 1.7 3.7.8 4.7 0 .2-.5.6-1.4.6z"/><path d="M63.1 86.1h-.2c-.3-.1-.4-.4-.3-.6 1.5-4.1 2.7-7.6 3.5-10.6.1-.3.3-.4.6-.4.3.1.4.3.4.6-.8 3-2 6.5-3.5 10.6-.1.3-.3.4-.5.4zM63.2 73.6h-.1l-3.3-.9c-.3-.1-.4-.3-.4-.6.1-.3.3-.4.6-.4l3.3.9c.3.1.4.3.4.6-.1.3-.3.4-.5.4zm1.3-1h-.1c-.9-.2-1.3-.3-1.8-.5-.3-.1-.7-.2-1.2-.4-.3-.1-.4-.3-.4-.6.1-.3.4-.4.6-.4.6.2.9.3 1.3.4.5.1.9.3 1.7.4.3.1.4.3.4.6-.1.3-.3.5-.5.5zM59.7 77.4h-.1l-3-.9c-.3-.1-.4-.4-.3-.6.1-.3.4-.4.6-.3l3 .9c.3.1.4.4.3.6-.1.2-.3.3-.5.3zm.9-1.3h-.2l-3-1.1c-.3-.1-.4-.4-.3-.6.1-.3.4-.4.6-.3l3 1.1c.3.1.4.4.3.6 0 .2-.2.3-.4.3zm1.3-1.3h-.2l-3.2-1.1c-.3-.1-.4-.4-.3-.6.1-.3.4-.4.6-.3l3.2 1.1c.3.1.4.4.3.6 0 .2-.2.3-.4.3zM58.2 83.1h-.1l-3-.9c-.3-.1-.4-.4-.3-.6.1-.3.4-.4.6-.3l3 .9c.3.1.4.4.3.6-.1.2-.3.3-.5.3zm.2-2.4h-.1l-3-.9c-.3-.1-.4-.4-.3-.6.1-.3.4-.4.6-.3l3 .9c.3.1.4.4.3.6-.1.2-.3.3-.5.3zm.7-1.7H59l-3-.9c-.3-.1-.4-.4-.3-.6.1-.3.4-.4.6-.3l3 .9c.3.1.4.4.3.6-.1.2-.3.3-.5.3zM58.9 87h-.1l-2.6-.6c-.3-.1-.4-.3-.4-.6.1-.3.3-.4.6-.4l2.6.6c.3.1.4.3.4.6-.1.2-.3.4-.5.4zm-.7-2h-.1l-2.8-.6c-.3-.1-.4-.3-.4-.6s.3-.4.6-.4l2.8.6c.3.1.4.3.4.6-.1.2-.3.4-.5.4z"/><path d="M61.9 89.9c-.2 0-.5 0-.7-.1-.7-.1-1.3-.4-1.7-.9-1.6-1.6-2.1-4.2-1.5-8 .5-4.4 4.7-9.8 8.7-9.7 2.4.1 4.1 1.6 4.5 4.3.9 4.5-1.9 11.6-6.2 13.5-.7.5-1.9.9-3.1.9zm4.7-17.7c-3.4 0-7.1 5-7.6 8.9-.5 3.4-.1 5.9 1.3 7.2l.1.1c.2.3.7.5 1 .5 1.1.2 2.6-.3 3.1-.6 0 0 .1 0 .1-.1 4-1.7 6.5-8.4 5.8-12.5-.4-1.6-1.3-3.4-3.8-3.5z"/><path d="M61.9 90h-.1c-.9-.2-4-1-5.3-2.8-1.6-1.6-2.3-5.2-1.6-7.8.4-4 4.5-9.2 8.5-9.1 1.4 0 2.5.4 4.5 1.1.3.1.4.4.3.6-.1.3-.4.4-.6.3-1.9-.7-3-1.1-4.2-1.1-3.4 0-7 4.6-7.4 8.3-.7 2.3 0 5.6 1.4 7 .9 1.3 3.1 2.1 4.7 2.5.3.1.4.3.4.6-.2.2-.4.4-.6.4z"/><path class="st3" d="M97 93.5c-1.1 4.1-4.6 9.3-8 9.5-7.4.5-7.6-4.7-7.6-9.1.5-4.1 4.2-9.1 7.6-9.1 4.7.1 8.9 2.2 8 8.7z"/><path d="M90.7 99.3c-.8 0-1.9-.4-3.3-1.6-.2-.2-.2-.5-.1-.7.2-.2.5-.2.7-.1 1.5 1.3 2.9 1.7 3.5 1 .6-.7.4-2.2-.8-3.3-1.3-1.2-1.4-2.7-1.1-3.7.3-.8.9-1.4 1.6-1.5.5-.1 1.5 0 2.4 1.5.2.2.1.5-.1.7-.2.2-.5.1-.7-.1-.5-.7-1-1.1-1.5-1-.3 0-.7.4-.8.8-.2.7-.1 1.7.8 2.7 1.6 1.6 1.7 3.7.8 4.7 0 .2-.5.6-1.4.6z"/><path d="M89.1 100.1h-.2c-.3-.1-.4-.4-.3-.6 1.5-4.1 2.7-7.6 3.5-10.6.1-.3.4-.4.6-.4.3.1.4.3.4.6-.8 3-2 6.5-3.5 10.6-.1.3-.3.4-.5.4zM89.2 87.6h-.1l-3.3-.9c-.3-.1-.4-.3-.4-.6.1-.3.4-.4.6-.4l3.3.9c.3.1.4.3.4.6-.1.3-.3.4-.5.4zm1.3-1h-.1c-.9-.2-1.3-.3-1.8-.5-.3-.1-.7-.2-1.2-.4-.3-.1-.4-.3-.4-.6.1-.3.3-.4.6-.4.6.2.9.3 1.3.4.5.1.9.3 1.7.4.3.1.4.3.4.6-.1.3-.3.5-.5.5zM85.7 91.4h-.1l-3-.9c-.3-.1-.4-.4-.3-.6.1-.3.4-.4.6-.3l3 .9c.3.1.4.4.3.6-.1.2-.3.3-.5.3zm.9-1.3h-.2l-3-1.1c-.3-.1-.4-.4-.3-.6.1-.3.4-.4.6-.3l3 1.1c.3.1.4.4.3.6 0 .2-.2.3-.4.3zm1.3-1.3h-.2l-3.2-1.1c-.3-.1-.4-.4-.3-.6.1-.3.4-.4.6-.3l3.2 1.1c.3.1.4.4.3.6 0 .2-.2.3-.4.3zM84.2 97.1h-.1l-3-.9c-.3-.1-.4-.4-.3-.6.1-.3.4-.4.6-.3l3 .9c.3.1.4.4.3.6-.1.2-.3.3-.5.3zm.2-2.4h-.1l-3-.9c-.3-.1-.4-.4-.3-.6.1-.3.4-.4.6-.3l3 .9c.3.1.4.4.3.6-.1.2-.3.3-.5.3zm.7-1.7H85l-3-.9c-.3-.1-.4-.4-.3-.6.1-.3.4-.4.6-.3l3 .9c.3.1.4.4.3.6-.1.2-.3.3-.5.3zM84.9 101h-.1l-2.6-.6c-.3-.1-.4-.3-.4-.6.1-.3.3-.4.6-.4l2.6.6c.3.1.4.3.4.6-.1.2-.3.4-.5.4zm-.7-2h-.1l-2.8-.6c-.3-.1-.4-.3-.4-.6.1-.3.3-.4.6-.4l2.8.6c.3.1.4.3.4.6-.1.2-.3.4-.5.4z"/><path d="M87.9 103.9c-.2 0-.5 0-.7-.1-.7-.1-1.3-.4-1.7-.9-1.5-1.5-2-4.2-1.6-8 .5-4.4 4.8-9.8 8.7-9.7 2.5.1 4.1 1.5 4.6 4.1.9 4.5-1.8 11.7-6.3 13.7-.6.5-1.8.9-3 .9zm4.6-17.7c-3.4 0-7.1 5-7.6 8.9-.4 3.5 0 5.9 1.4 7.2l.1.1c.2.3.7.5 1 .5 1.1.2 2.6-.3 3.1-.6 0 0 .1 0 .1-.1 4-1.8 6.5-8.5 5.7-12.6-.4-1.5-1.2-3.3-3.8-3.4.1 0 0 0 0 0z"/><path d="M87.9 104h-.1c-.9-.2-4-1-5.3-2.8-1.6-1.6-2.3-5.2-1.6-7.8.4-4 4.5-9.1 8.5-9.1 1.4 0 2.5.4 4.5 1.1.3.1.4.4.3.6-.1.3-.4.4-.6.3-1.9-.7-3-1.1-4.2-1.1-3.4 0-7 4.6-7.4 8.3-.7 2.3 0 5.6 1.4 7 .9 1.3 3.1 2.1 4.7 2.5.3.1.4.3.4.6-.2.2-.4.4-.6.4z"/><path class="st3" d="M95 50.5c-1.1 4.1-4.6 9.3-8 9.5-7.4.5-7.6-4.7-7.6-9.1.5-4.1 4.2-9.1 7.6-9.1 4.7.1 8.9 2.2 8 8.7z"/><path d="M88.7 56.3c-.8 0-1.9-.4-3.3-1.6-.2-.2-.2-.5-.1-.7.2-.2.5-.2.7-.1 1.5 1.3 2.9 1.7 3.5 1 .6-.7.4-2.2-.8-3.3-1.3-1.2-1.4-2.7-1.1-3.7.3-.8.9-1.4 1.6-1.5.5-.1 1.5 0 2.4 1.5.2.2.1.5-.1.7-.2.2-.5.1-.7-.1-.5-.7-1-1.1-1.5-1-.3 0-.7.4-.8.8-.2.7-.1 1.7.8 2.7 1.6 1.6 1.7 3.7.8 4.7 0 .2-.5.6-1.4.6z"/><path d="M87.1 57.1h-.2c-.3-.1-.4-.4-.3-.6 1.5-4.1 2.7-7.6 3.5-10.6.1-.3.3-.4.6-.4.3.1.4.3.4.6-.8 3-2 6.5-3.5 10.6-.1.3-.3.4-.5.4zM87.2 44.6h-.1l-3.3-.9c-.3-.1-.4-.3-.4-.6.1-.3.3-.4.6-.4l3.3.9c.3.1.4.3.4.6-.1.3-.3.4-.5.4zm1.3-1h-.1c-.9-.2-1.3-.3-1.8-.5-.3-.1-.7-.2-1.2-.4-.3-.1-.4-.3-.4-.6.1-.3.4-.4.6-.4.6.2.9.3 1.3.4.5.1.9.3 1.7.4.3.1.4.3.4.6-.1.3-.3.5-.5.5zM83.7 48.4h-.1l-3-.9c-.3-.1-.4-.4-.3-.6s.4-.4.6-.3l3 .9c.3.1.4.4.3.6-.1.2-.3.3-.5.3zm.9-1.3h-.2l-3-1.1c-.3-.1-.4-.4-.3-.6.1-.3.4-.4.6-.3l3 1.1c.3.1.4.4.3.6 0 .2-.2.3-.4.3zm1.3-1.3h-.2l-3.2-1.1c-.3-.1-.4-.4-.3-.6.1-.3.4-.4.6-.3l3.2 1.1c.3.1.4.4.3.6 0 .2-.2.3-.4.3zM82.2 54.1h-.1l-3-.9c-.3-.1-.4-.4-.3-.6.1-.3.4-.4.6-.3l3 .9c.3.1.4.4.3.6-.1.2-.3.3-.5.3zm.2-2.4h-.1l-3-.9c-.3-.1-.4-.4-.3-.6.1-.3.4-.4.6-.3l3 .9c.3.1.4.4.3.6-.1.2-.3.3-.5.3zm.7-1.7H83l-3-.9c-.3-.1-.4-.4-.3-.6.1-.3.4-.4.6-.3l3 .9c.3.1.4.4.3.6-.1.2-.3.3-.5.3zM82.9 58h-.1l-2.6-.6c-.3-.1-.4-.3-.4-.6.1-.3.3-.4.6-.4l2.6.6c.3.1.4.3.4.6-.1.2-.3.4-.5.4zm-.7-2h-.1l-2.8-.6c-.3-.1-.4-.3-.4-.6.1-.3.3-.4.6-.4l2.8.6c.3.1.4.3.4.6-.1.2-.3.4-.5.4z"/><path d="M85.9 60.9c-.2 0-.5 0-.7-.1-.7-.1-1.3-.4-1.7-.9-1.6-1.6-2.1-4.2-1.5-8 .5-4.4 4.8-9.8 8.7-9.7 2.4.1 4.1 1.6 4.5 4.3.9 4.5-1.9 11.6-6.2 13.5-.7.5-1.9.9-3.1.9zm4.7-17.7c-3.4 0-7.1 5-7.6 8.9-.5 3.4-.1 5.9 1.3 7.2l.1.1c.2.3.7.5 1 .5 1.1.2 2.6-.3 3.1-.6 0 0 .1 0 .1-.1 4-1.7 6.5-8.4 5.8-12.5-.4-1.6-1.3-3.4-3.8-3.5z"/><path d="M85.9 61h-.1c-.9-.2-4-1-5.3-2.8-1.6-1.6-2.3-5.2-1.6-7.8.4-4 4.5-9.2 8.5-9.1 1.4 0 2.5.4 4.5 1.1.3.1.4.4.3.6-.1.3-.4.4-.6.3-1.9-.7-3-1.1-4.2-1.1-3.4 0-7 4.6-7.4 8.3-.7 2.3 0 5.6 1.4 7 .9 1.3 3.1 2.1 4.7 2.5.3.1.4.3.4.6-.2.2-.4.4-.6.4zM62.1 139.2c-.3 0-.5-.2-.5-.5V128c0-.3.2-.5.5-.5s.5.2.5.5v10.7c0 .3-.2.5-.5.5zm0-25.5c-.3 0-.5-.2-.5-.5V95.8c0-.3.2-.5.5-.5s.5.2.5.5v17.4c0 .3-.2.5-.5.5zm0-56c-.3 0-.5-.2-.5-.5V28.7c0-.3.2-.5.5-.5s.5.2.5.5v28.5c0 .3-.2.5-.5.5zM75.1 121.2c-.3 0-.5-.2-.5-.5v-17.9c0-.3.2-.5.5-.5s.5.2.5.5v17.9c0 .3-.2.5-.5.5zm0-38.2c-.3 0-.5-.2-.5-.5V66.9c0-.3.2-.5.5-.5s.5.2.5.5v15.6c0 .3-.2.5-.5.5zm0-32c-.3 0-.5-.2-.5-.5V28.7c0-.3.2-.5.5-.5s.5.2.5.5v21.8c0 .3-.2.5-.5.5zM85.3 127.7c-.3 0-.5-.2-.5-.5v-19.6c0-.3.2-.5.5-.5s.5.2.5.5v19.6c0 .3-.2.5-.5.5zm.2-45.8c-.3 0-.5-.2-.5-.5l.2-18.3c0-.3.2-.5.5-.5s.5.2.5.5L86 81.4c0 .3-.2.5-.5.5zm.4-41.8c-.3 0-.5-.2-.5-.5l.2-20.9c0-.3.2-.5.5-.5s.5.2.5.5l-.2 20.9c0 .3-.2.5-.5.5z"/><path class="st3" d="M227.8 32.7V16l29.3 4v16.7l-29.3-4z"/><path d="M227.3 69.2c-.3 0-.5-.2-.5-.5V14c0-.3.2-.5.5-.5s.5.2.5.5v54.7c0 .3-.2.5-.5.5zM225.1 70.2c-.3 0-.5-.2-.5-.5V13.4c0-.3.2-.5.5-.5s.5.2.5.5v56.3c0 .3-.2.5-.5.5z"/><path d="M259 18.6c-4.1-.6-11-1.4-17.7-2.1-7-.8-13.6-1.5-16.3-2-.3 0-.5-.3-.4-.6 0-.3.3-.4.6-.4 2.7.5 9.3 1.2 16.3 2 6.7.8 13.6 1.5 17.6 2.1.3 0 .5.3.4.6 0 .2-.3.4-.5.4zM257.3 34.9c-10.5-1.5-21.1-3-30-4.1-.3 0-.5-.3-.4-.6 0-.3.3-.5.6-.4 8.8 1.1 19.5 2.6 29.9 4.1.3 0 .5.3.4.6 0 .2-.3.4-.5.4z"/><path d="M256.6 35.1c-.3 0-.5-.2-.5-.5V16.9c0-.3.2-.5.5-.5s.5.2.5.5v17.7c0 .3-.2.5-.5.5z"/><path class="st3" d="M206.1 158.5V150l10.4-6.4h35.7l7.9 6.9v9.9l-11.9 6.4H218l-11.9-8.3z"/><path d="M216.8 167.8c-.1 0-.2 0-.3-.1-2.4-1.9-4.3-3.6-6.4-5.3-2.1-1.8-4.3-3.7-7.3-6.1-.2-.2-.2-.5-.1-.7.2-.2.5-.2.7-.1 3 2.4 5.2 4.3 7.3 6.1 2.1 1.7 4 3.4 6.4 5.3.2.2.2.5.1.7-.1.1-.3.2-.4.2z"/><path d="M249.1 167.4c-6-.1-20.7-.3-28.8-.4l-3.3-.1c-.3 0-.5-.2-.5-.5s.2-.5.5-.5l3.3.1c8 .1 22.7.4 28.8.4.3 0 .5.2.5.5s-.2.5-.5.5zM206.2 162c-.3 0-.5-.2-.5-.5v-14.8c0-.3.2-.5.5-.5s.5.2.5.5v14.8c0 .3-.2.5-.5.5z"/><path d="M218 166.4c-.3 0-.5-.2-.5-.5v-11.4c0-.3.2-.5.5-.5s.5.2.5.5v11.4c0 .3-.2.5-.5.5zM248.2 168.4c-.3 0-.5-.2-.5-.5V154c0-.3.2-.5.5-.5s.5.2.5.5v13.9c0 .3-.2.5-.5.5zM260.1 161.5c-.3 0-.5-.2-.5-.5v-13.9c0-.3.2-.5.5-.5s.5.2.5.5V161c0 .3-.2.5-.5.5z"/><path d="M217.9 156.4c-.1 0-.2 0-.3-.1-2.4-1.6-3.8-2.4-5.2-3.3-1.7-1.1-3.5-2.2-7.3-4.7-.2-.2-.3-.5-.1-.7.2-.2.5-.3.7-.1 3.8 2.5 5.6 3.6 7.3 4.7 1.4.9 2.8 1.7 5.2 3.3.2.2.3.5.1.7-.1.1-.2.2-.4.2z"/><path d="M248.6 156.4h-30.7c-.3 0-.5-.2-.5-.5s.2-.5.5-.5h30.7c.3 0 .5.2.5.5s-.2.5-.5.5zM261.8 151.3c-.1 0-.2 0-.3-.1-3.9-2.8-12.4-9-12.5-9.1-.2-.2-.3-.5-.1-.7.2-.2.5-.3.7-.1.1.1 8.6 6.3 12.5 9.1.2.2.3.5.1.7-.1.1-.2.2-.4.2zM204.8 150.1c-.2 0-.4-.1-.5-.3-.1-.3 0-.5.3-.6 2.6-1 15.3-5.7 20.5-7.4.3-.1.5.1.6.3.1.3-.1.5-.3.6-5.2 1.7-17.8 6.4-20.5 7.4h-.1z"/><path d="M219.6 143.9c-.3 0-.5-.2-.5-.5s.2-.5.5-.5c6.5 0 13-.1 19.3-.1 6.2 0 12.6-.1 18.9-.1.3 0 .5.2.5.5s-.2.5-.5.5c-6.3 0-12.7.1-18.9.1-6.3 0-12.8.1-19.3.1zM247.1 167.8c-.2 0-.4-.1-.5-.3-.1-.2 0-.5.2-.7l1.4-.7c4.4-2.1 8.2-3.9 13.5-6.6.2-.1.5 0 .7.2.1.2 0 .5-.2.7-5.4 2.7-9.1 4.5-13.5 6.6l-1.4.7c-.1.1-.1.1-.2.1zm0-10.8c-.2 0-.4-.1-.5-.3-.1-.2 0-.5.2-.7 2.1-1 4.2-1.9 6.4-2.9 3-1.3 6.1-2.7 9.6-4.5.2-.1.5 0 .7.2.1.2 0 .5-.2.7-3.5 1.7-6.6 3.1-9.6 4.5-2.2 1-4.3 1.9-6.4 2.9-.1.1-.1.1-.2.1zM213.9 165.5h-.1c-.3-.1-.4-.4-.3-.6l3-9.6c.1-.3.4-.4.6-.3.3.1.4.4.3.6l-3 9.6c-.1.2-.3.3-.5.3zm-3.4-2.8h-.1c-.3-.1-.4-.3-.4-.6.4-1.5 1-3.1 1.5-4.6.5-1.5 1.1-3.1 1.5-4.6.1-.3.3-.4.6-.4.3.1.4.3.4.6-.4 1.5-1 3.1-1.5 4.6-.5 1.5-1.1 3.1-1.5 4.6-.1.3-.3.4-.5.4zm-2.9-2.8h-.1c-.3-.1-.4-.4-.3-.6l2.5-8.4c.1-.3.4-.4.6-.3.3.1.4.4.3.6l-2.5 8.4c-.1.2-.3.3-.5.3zM218.5 166.8h-.1c-.3-.1-.4-.3-.3-.6l2.7-9.8c.1-.3.3-.4.6-.3.3.1.4.3.3.6l-2.7 9.8c-.1.2-.3.3-.5.3zm9 0h-.1c-.3-.1-.4-.3-.4-.6.5-1.9 1-3.8 1.4-5.7.4-1.5.8-3.1 1.2-4.6.1-.3.3-.4.6-.4.3.1.4.3.4.6-.4 1.5-.8 3.1-1.2 4.6-.5 1.9-.9 3.9-1.4 5.8-.1.2-.3.3-.5.3zm-4.4 0h-.1c-.3-.1-.4-.3-.4-.6l1.2-4.5c.5-1.9 1.1-3.8 1.6-5.8.1-.3.3-.4.6-.4.3.1.4.3.4.6-.5 2-1 3.9-1.6 5.8l-1.2 4.5c-.1.3-.3.4-.5.4zM239.7 166.9h-.1c-.3-.1-.4-.4-.3-.6.5-1.7 1-3.5 1.4-5.4l1.2-4.5c.1-.3.3-.4.6-.4.3.1.4.3.4.6l-1.2 4.5c-.5 1.8-.9 3.6-1.4 5.4-.2.3-.4.4-.6.4zm-8.4 0h-.1c-.3-.1-.4-.3-.4-.6l2.6-9.9c.1-.3.3-.4.6-.4.3.1.4.3.4.6l-2.6 9.9c-.1.3-.3.4-.5.4zm4 0h-.1c-.3-.1-.4-.3-.4-.6.8-3.3 1.7-6.7 2.6-9.9.1-.3.3-.4.6-.4.3.1.4.3.4.6-.9 3.2-1.8 6.6-2.6 9.9-.1.2-.3.4-.5.4z"/><path d="M247.7 167.4h-.1c-.3-.1-.4-.4-.3-.6l3.5-11.9c.1-.3.4-.4.6-.3.3.1.4.4.3.6l-3.5 11.9c-.1.2-.3.3-.5.3zm-3.9 0h-.1c-.3-.1-.4-.3-.4-.6l2.7-10.4c.1-.3.3-.4.6-.4.3.1.4.3.4.6l-2.7 10.4c-.1.3-.3.4-.5.4zm9-3h-.1c-.3-.1-.4-.3-.4-.6.9-3.8 1.9-7.7 2.9-11.4.1-.3.3-.4.6-.4.3.1.4.3.4.6l-2.9 11.4c-.1.2-.3.4-.5.4zM256.6 162.9h-.1c-.3-.1-.4-.3-.4-.6l3.1-11.9c.1-.3.3-.4.6-.4.3.1.4.3.4.6l-3.1 11.9c-.1.3-.3.4-.5.4z"/><linearGradient id="SVGID_4_" gradientUnits="userSpaceOnUse" x1="256.18" y1="149.925" x2="199.21" y2="-22.577" gradientTransform="matrix(1 0 0 -1 0 220)"><stop offset=".263" stop-color="#b2eec0"/><stop offset=".95" stop-color="#62f91f" stop-opacity=".69"/></linearGradient><path d="M229.5 149.3h-3.9l-4.2-5.2 2.6-2.7v-6.9h-2.6l2.6-9h2.9l2.6-2.3v-4.6l6.4-3.5 3.5 2.3v4l2.3-4 4.8 2.3 1.3 5.8-2.9 2.6v4.6h2.9l-1.3 8.7-3.8-1-3.4 3.8 1 5.2-5.7 2.4-5.2-.9.1-1.6zm3-16.4l3.6-2.4 2.4 1.2-1.6 4.8-2.8 2-1.6-.8v-4.8z" fill-rule="evenodd" clip-rule="evenodd" fill="url(#SVGID_4_)"/><path d="M229.1 136.1s-.1 0 0 0c-1.1-.2-2.2-.4-3.2-.6-1.1-.2-2.1-.4-3.2-.6-.2 0-.3-.1-.4-.1-.3 0-.7-.1-1.1-.3-.3-.1-.4-.4-.3-.6.1-.3.4-.4.6-.3.3.1.5.2.8.2.2 0 .3 0 .5.1 1 .2 2.1.4 3.1.5 1 .2 2.1.3 3.1.5.3.1.4.3.4.6.1.4-.1.6-.3.6zM231.1 128.3h-.2c-2.3-.8-4.6-1.6-6.9-2.3-.2 0-.4-.1-.7-.1-.2 0-.4-.1-.7-.1-.3-.1-.4-.3-.4-.6.1-.3.3-.4.6-.4.3.1.5.1.7.2.2 0 .4.1.7.1 2.4.7 4.7 1.5 7 2.3.3.1.4.4.3.6 0 .2-.2.3-.4.3zM236.3 120.6h-.1c-.6-.1-1.2-.3-1.8-.4-1.8-.4-3.6-.9-5.4-1.5-.3-.1-.4-.4-.3-.6.1-.3.4-.4.6-.3 1.8.6 3.6 1 5.4 1.5.6.1 1.2.3 1.8.4.3.1.4.3.4.6-.2.1-.4.3-.6.3zM240.6 117.4h-.2c-2.1-.7-4.2-1.4-6.2-2.2-.3-.1-.4-.4-.3-.6s.4-.4.6-.3c2 .8 4.1 1.5 6.2 2.2.3.1.4.4.3.6 0 .2-.2.3-.4.3z"/><path d="M246.7 119.6h-.2l-.9-.3c-1.4-.5-2.9-1-4.3-1.4-.3-.1-.4-.3-.4-.6.1-.3.3-.4.6-.4 1.5.3 3 .9 4.4 1.4l.9.3c.3.1.4.4.3.6 0 .3-.2.4-.4.4zM248.6 134s-.1 0 0 0c-1-.2-2.2-.4-3.5-.8-.3-.1-.4-.3-.4-.6.1-.3.3-.4.6-.4 1.3.4 2.4.6 3.4.8.3 0 .5.3.4.6-.1.2-.3.4-.5.4zM246.7 141.9h-.1c-1.4-.4-2.6-.7-3.8-1-.3-.1-.4-.3-.4-.6.1-.3.3-.4.6-.4 1.2.3 2.4.6 3.8 1 .3.1.4.4.3.6 0 .3-.2.4-.4.4zM240.3 150.7c-.3 0-.5-.2-.5-.5v-5.5c0-.3 0-.5-.1-.7-.1-.3.1-.5.3-.6.3-.1.5.1.6.3.1.4.1.7.1 1.1v5.5c.1.2-.1.4-.4.4zM234.9 152.9c-.3 0-.5-.2-.5-.5-.1-.9-.1-1.8-.1-2.7 0-.9 0-1.8-.1-2.7 0-.3.2-.5.5-.5s.5.2.5.5c0 .9.1 1.8.1 2.7 0 .9 0 1.8.1 2.7 0 .2-.2.5-.5.5zM228.8 151.1c-.2 0-.3-.1-.4-.2-.2-.2-.1-.5.1-.7 1-.7 1.8-1.7 2.6-2.6.3-.4.6-.7 1-1.1.2-.2.5-.2.7 0 .2.2.2.5 0 .7-.3.3-.6.7-1 1.1-.9 1-1.8 2-2.8 2.8h-.2zM225.9 145.6c-.1 0-.2 0-.3-.1-.2-.2-.2-.5-.1-.7.9-1.1 1.9-2 3-2.9.4-.4.9-.8 1.3-1.1.2-.2.5-.2.7 0 .2.2.2.5 0 .7-.4.4-.9.8-1.3 1.2-1 .9-2 1.8-2.8 2.8-.2 0-.4.1-.5.1z"/><path d="M229.5 142.5c-.2 0-.5-.2-.5-.4s-.1-.4-.1-.7c-.3-1.7-.6-4.2-.1-6.7.1-.3.3-.4.6-.4.3.1.4.3.4.6-.5 2.3-.1 4.7.1 6.3 0 .3.1.5.1.7 0 .3-.2.6-.5.6zM231.3 128.6c-.1 0-.2 0-.2-.1-.2-.1-.3-.4-.2-.7.6-1.2 1.6-2.4 4.1-3.8.2-.1.5 0 .7.2.1.2 0 .5-.2.7-2.3 1.2-3.1 2.4-3.7 3.4-.2.2-.3.3-.5.3z"/><path d="M234.6 126.7c-.3 0-.5-.2-.5-.5 0-2.3 0-4.6.1-6.9 0-.3.2-.5.5-.5s.5.2.5.5c-.1 2.3-.1 4.6-.1 6.9 0 .3-.2.5-.5.5zM239.6 123.1c-.3 0-.5-.2-.5-.5v-5.7c0-.3.2-.5.5-.5s.5.2.5.5v5.7c0 .3-.2.5-.5.5z"/><path d="M242.3 124c-.2 0-.3-.1-.4-.2-.8-1.1-2.4-1.2-3-1.2-.3 0-.5-.2-.5-.5s.2-.5.5-.5c.8 0 2.7.2 3.8 1.6.2.2.1.5-.1.7-.1.1-.2.1-.3.1z"/><path d="M241.8 123.7c-.1 0-.3 0-.4-.1-.2-.2-.2-.5 0-.7.2-.2.3-.3.5-.4.1-.1.3-.2.4-.4 1.1-1 2-2 3.1-3.1l1.6-1.6c.2-.2.5-.2.7 0s.2.5 0 .7l-1.6 1.6c-1 1-2 2.1-3.1 3.1-.1.2-.3.3-.5.4-.1.1-.3.2-.4.4 0 .1-.2.1-.3.1zM244.9 128.7c-.1 0-.2 0-.2-.1-.2-.1-.3-.4-.2-.7.1-.2.2-.5.4-.6.7-.9 1.6-1.7 2.4-2.4l1.2-1.2c.2-.2.5-.2.7 0s.2.5 0 .7l-1.2 1.2c-.8.8-1.6 1.5-2.3 2.4-.1.1-.2.3-.2.4-.2.2-.4.3-.6.3z"/><path d="M247.7 125.5h-.2c-.3-.2-.4-.4-.5-.5v-.1c-.4-1.4-.7-2.8-1-4.2-.1-.7-.3-1.1-.6-1.7-.1-.2 0-.5.2-.7.2-.1.5 0 .7.2.3.6.5 1.2.6 2 .3 1.3.6 2.7 1 4v.1c.2.1.4.4.2.7 0 .1-.2.2-.4.2zM244.9 133.9h-.2c-.3-.1-.4-.4-.3-.6.6-1.7.5-3.1 0-5.5-.1-.3.1-.5.4-.6.3-.1.5.1.6.4.5 2.1.8 4 0 6.1-.1.1-.3.2-.5.2zM245.6 142.5h-.2c-.3-.1-.4-.4-.3-.6l.1-.1c.8-2 2.3-5.7 1.8-8.4 0-.3.1-.5.4-.6.3 0 .5.1.6.4.5 3-1 6.9-1.9 8.9l-.1.1c0 .2-.2.3-.4.3zM239.4 144.9c-.1 0-.3-.1-.4-.2-.2-.2-.2-.5.1-.7 1.9-1.6 2.6-2.6 3.3-4.8.1-.3.4-.4.6-.3.3.1.4.4.3.6-.8 2.4-1.6 3.5-3.7 5.2 0 .2-.1.2-.2.2zM234 152.5c-.2 0-.4-.2-.5-.4-.1-.3.1-.5.4-.6.1 0 .3-.1.4-.1.2 0 .4-.1.6-.2 1.2-.5 1.9-.9 2.9-1.3.8-.4 1.8-.8 3.2-1.4.3-.1.5 0 .7.2.1.3 0 .5-.2.7-1.4.6-2.4 1.1-3.2 1.4-1 .4-1.7.7-2.9 1.3-.3.2-.6.2-.9.3-.1 0-.2 0-.3.1h-.2z"/><path d="M235.8 152.5c-1.2-.1-2.3-.4-3.4-.6-.8-.2-1.6-.4-2.4-.5-.3 0-.5-.3-.4-.6s.3-.5.6-.4c.8.1 1.7.3 2.5.5 1.1.2 2.1.5 3.2.6.3 0 .5.3.4.5 0 .3-.2.5-.5.5z"/><path d="M230.2 151.6c-.2 0-.5-.2-.5-.4-.1-.7-.2-1.5-.3-2.3 0-.3.2-.5.4-.6.3 0 .5.1.6.4.1.8.2 1.6.3 2.3 0 .3-.2.6-.5.6zM226.4 136.1c-.2 0-.5-.2-.5-.4-.3-2.6.8-7.4 2.4-9.4.2-.2.5-.2.7-.1.2.2.2.5.1.7-1.4 1.6-2.5 6.1-2.2 8.6 0 .3-.2.6-.5.6zM222 135.1c-.3 0-.5-.2-.5-.5-.1-3 .9-6.4 2.7-9.6.1-.2.4-.3.7-.2.2.1.3.4.2.7-1.7 3-2.6 6.2-2.5 9-.1.4-.3.6-.6.6zM226.7 127c-.1 0-.3-.1-.4-.2-.2-.2-.2-.5 0-.7.9-.8 1.8-1.7 2.7-2.6l.7.7c-.9.9-1.8 1.8-2.7 2.6-.1.2-.2.2-.3.2z"/><path d="M229.5 123.9c-.2 0-.4-.1-.5-.3-.1-.4-.1-.5-.1-.9v-2.2-2.1c0-.3.2-.5.5-.5s.5.2.5.5V122.7c0 .3 0 .3.1.5.1.3-.1.5-.3.6-.1.1-.1.1-.2.1z"/><path d="M234.5 125.8h-.2c-1-.4-2-.6-3-.8-.9-.2-1.8-.4-2.8-.8-.3-.1-.4-.4-.3-.6.1-.3.4-.4.6-.3 1 .3 1.9.5 2.7.7 1 .2 2 .5 3.1.9.3.1.4.4.3.6 0 .2-.2.3-.4.3zM239.5 121.6c-.1 0-.2 0-.3-.1-.2-.2-.3-.5-.1-.7.4-.6.7-1.1 1.1-1.7l1.8-2.7c.2-.2.5-.3.7-.1.2.2.3.5.1.7-.6.9-1.2 1.7-1.8 2.7-.4.6-.7 1.1-1.1 1.7-.1.1-.2.2-.4.2zM228.5 119c-.2 0-.3-.1-.4-.2-.1-.2-.1-.5.2-.7 1.6-1 3.4-1.8 5.1-2.6.8-.4 1.5-.7 2.2-1.1.2-.1.5 0 .7.2.1.2 0 .5-.2.7-.7.4-1.5.7-2.3 1.1-1.7.8-3.4 1.6-5 2.6h-.3zM233.9 120.6c-.2 0-.4-.1-.5-.3-.1-.2 0-.5.2-.7.9-.4 1.8-.9 2.8-1.4l1-.5c.5-.3.9-.5 1.4-.8.9-.5 1.8-1 2.8-1.6.2-.2.5-.1.7.2s.1.5-.2.7c-.9.6-1.9 1.1-2.8 1.6-.5.3-.9.5-1.4.8l-1 .5c-1 .5-1.9 1-2.8 1.5h-.2zM225.3 141.1c-.3 0-.5-.2-.5-.5 0-.8-.1-1.7-.1-2.6-.1-.9-.2-1.8-.2-2.6 0-.3.2-.5.5-.5s.5.2.5.5c0 .8.1 1.7.1 2.6.1.9.2 1.8.2 2.6 0 .3-.2.5-.5.5z"/><path d="M230.4 142.3h-.1c-1.6-.3-2.8-.6-4-.9-.6-.1-1.2-.3-1.9-.4-.3-.1-.4-.3-.4-.6.1-.3.3-.4.6-.4.6.1 1.2.3 1.9.4 1.2.3 2.4.5 3.9.9.3.1.4.3.4.6 0 .2-.2.4-.4.4z"/><path d="M221.4 144.9c-.2 0-.3-.1-.4-.2-.1-.2-.1-.5.2-.7.3-.2.6-.5.9-.8l.3-.3c.9-1 1.8-1.9 2.8-2.9.2-.2.5-.2.7 0s.2.5 0 .7c-1 1-1.9 1.9-2.8 2.9l-.3.3c-.3.3-.7.7-1.1 1h-.3z"/><path d="M227.3 145.9c-1.5-.2-2.5-.4-3.5-.6-.9-.2-1.7-.3-2.7-.5-.3 0-.5-.3-.4-.6 0-.3.3-.5.6-.4 1 .1 1.9.3 2.8.5 1 .2 2 .4 3.4.6.3 0 .5.3.4.6-.1.2-.4.4-.6.4zM236.1 147.4c-.3 0-.6 0-.9-.1-1.1-.1-2.3-.1-3.5-.5-.3-.1-.4-.4-.3-.6.1-.3.3-.4.6-.3 1.1.3 2.1.4 3.2.4.3 0 .6 0 .9.1.3 0 .5.3.5.5 0 .3-.2.5-.5.5z"/><path d="M230 151.4c-.1 0-.2 0-.3-.1-.5-.4-.8-.9-1.1-1.4l-.6-1c-.8-1.3-1.5-2.6-2.4-3.7-.2-.2-.1-.5.1-.7.2-.2.5-.1.7.1.9 1.2 1.7 2.5 2.5 3.8l.6 1c.2.4.5.8.8 1.1.2.2.2.5.1.7-.1.1-.3.2-.4.2zM225.6 150.1c-.1 0-.3-.1-.4-.2-.8-.9-1.8-2.1-2.7-3.3-.6-.7-1.1-1.4-1.7-2-.2-.2-.1-.5.1-.7.2-.2.5-.1.7.1.6.7 1.1 1.4 1.7 2 1 1.2 1.9 2.3 2.7 3.2.2.2.2.5-.1.7-.1.2-.2.2-.3.2z"/><path d="M229.7 150.8c-.9-.1-1.7-.3-2.5-.5-.9-.2-1.7-.5-2.6-.5-.3 0-.5-.2-.5-.5s.2-.5.5-.5c1 0 1.9.3 2.8.5.8.2 1.5.4 2.3.5.3 0 .5.3.5.5 0 .3-.2.5-.5.5zM237.4 141.7c-.1 0-.2 0-.3-.1-1.1-1-2.3-1.8-3.7-2.8-.5-.3-1-.7-1.6-1.1-.2-.2-.3-.5-.1-.7s.5-.3.7-.1c.6.4 1.1.8 1.6 1.1 1.5 1 2.7 1.8 3.8 2.8.2.2.2.5.1.7-.2.1-.4.2-.5.2z"/><path d="M232.6 139.4s-.1 0 0 0c-.4-.1-.5-.3-.5-.6.2-1 .3-2.5.4-4 .1-1.2.2-2.4.4-3.5 0-.3.3-.5.6-.4.3 0 .5.3.4.6-.1 1-.2 2.2-.3 3.4-.1 1.6-.3 3.1-.5 4.1 0 .2-.3.4-.5.4z"/><path d="M232.3 133.5c-.1 0-.3-.1-.4-.2-.2-.2-.1-.5.1-.7.7-.5 2.5-1.8 4-2.9.7-.5 1.4-1 1.7-1.2.2-.2.5-.1.7.1.2.2.1.5-.1.7-.4.3-1 .7-1.7 1.2-1.5 1-3.3 2.3-4 2.9-.1.1-.2.1-.3.1z"/><path d="M243 132.6c-.1 0-.2 0-.3-.1-.3-.2-.7-.4-1.1-.5l-.3-.1c-.4-.2-.8-.4-1.1-.5-1.4-.6-2.9-1.3-4.1-2.1-.2-.1-.3-.5-.2-.7.1-.2.5-.3.7-.2 1.2.8 2.7 1.4 4 2.1.4.2.8.3 1.1.5l.2.1c.5.2 1 .4 1.3.7.2.2.3.5.1.7 0 0-.1.1-.3.1zM235.6 141.5c-.2 0-.4-.1-.4-.3-.1-.2 0-.5.2-.7.6-.3 2.4-1.3 3.8-2.2.8-.5 1.6-.9 1.9-1.1.2-.1.5 0 .7.2.1.2 0 .5-.2.7-.3.2-1.1.6-1.9 1.1-1.5.9-3.2 1.9-3.8 2.2-.1.1-.2.1-.3.1z"/><path d="M240.5 138.6h-.1c-.3-.1-.4-.3-.4-.6.2-1.1.5-2.3.6-3.4.2-1.1.4-2.3.7-3.5.1-.3.3-.4.6-.4.3.1.4.3.4.6-.2 1.1-.5 2.3-.6 3.4-.2 1.1-.4 2.3-.7 3.5-.1.2-.3.4-.5.4zM237.2 137.2c-.3 0-.5-.2-.5-.5v-.3-.1l.3-1.2c.1-.4.2-.9.3-1.3.1-.4.2-.9.3-1.4.1-.5.2-1 .3-1.4.1-.3.3-.4.6-.4.3.1.4.3.4.6-.1.4-.2.9-.3 1.4-.1.5-.2 1-.3 1.4-.1.4-.2.8-.3 1.3l-.3 1.2v.2c0 .3-.2.5-.5.5z"/><path d="M233.6 139.1c-.2 0-.4-.1-.5-.3-.1-.3 0-.5.3-.7.3-.1.7-.3 1-.4.3-.2.7-.3 1-.5.3-.1.6-.3.9-.4.3-.1.6-.3.9-.4.2-.1.5 0 .7.2.1.2 0 .5-.2.7-.3.2-.6.3-1 .5-.3.1-.6.3-.9.4-.4.2-.7.3-1 .5-.3.2-.7.3-1 .5-.1-.1-.1-.1-.2-.1zM239 132.2h-.2c-1.1-.4-1.6-.7-2.3-1l-.6-.3c-.2-.1-.3-.4-.2-.7.1-.2.4-.3.7-.2l.6.3c.7.3 1.2.6 2.2 1 .3.1.4.4.3.6-.1.2-.3.3-.5.3z"/><path d="M238 132.2c-.3 0-.5-.2-.5-.5s.2-.5.5-.5c1.5 0 3.5-.1 4.9-.2.3 0 .5.2.5.5s-.2.5-.5.5c-1.3.1-3.3.2-4.9.2zM241.8 138.1c-.8 0-1.5-.2-2.2-.4l-.2-.1c-.5-.1-1-.2-1.5-.4-.5-.1-.9-.2-1.4-.3-.3-.1-.4-.3-.4-.6s.3-.4.6-.4c.5.1 1 .2 1.5.4.5.1.9.2 1.4.3l.3.1c.7.2 1.3.3 1.9.3.3 0 .5.2.5.5s-.2.6-.5.6z"/><path d="M241.1 135.3h-.1c-.6-.2-1.2-.3-1.9-.4-.5-.1-1.1-.2-1.6-.4-.3-.1-.4-.3-.4-.6.1-.3.3-.4.6-.4.5.1 1.1.2 1.6.4.7.1 1.3.3 1.9.4.3.1.4.3.4.6-.1.3-.3.4-.5.4zm-3.8-3.9c-.2 0-.4-.1-.5-.3-.1-.3 0-.5.3-.6.5-.2 1.2-.5 2-.8h.1c.3-.1.5 0 .6.3.1.3 0 .5-.3.6h-.1c-.8.3-1.5.6-2 .8h-.1zM238.4 139.8h-.2l-3.4-1.6c-.2-.1-.4-.4-.2-.7.1-.2.4-.4.7-.2l3.4 1.6c.2.1.4.4.2.7-.1.1-.3.2-.5.2zM234.6 149.6s-.1 0 0 0l-3.8-.6c-.3 0-.5-.3-.4-.6 0-.3.3-.5.6-.4l3.7.6c.3 0 .5.3.4.6 0 .2-.3.4-.5.4zm-7.3-1.5l-4-.5c-.3 0-.5-.3-.4-.6s.3-.5.6-.4l3.9.5c.3 0 .5.3.4.6 0 .2-.3.4-.5.4zM244.6 121.5h-.1c-.9-.2-1.6-.4-2.2-.6-.5-.2-1-.3-1.6-.5-.3-.1-.4-.3-.4-.6s.3-.4.6-.4c.6.1 1.1.3 1.7.5.6.2 1.3.4 2.1.6.3.1.4.3.4.6-.1.2-.3.4-.5.4zM227.8 143.7s-.1 0 0 0c-1-.2-1.7-.4-2.4-.5-.5-.1-1.1-.3-1.7-.4-.3-.1-.4-.3-.4-.6.1-.3.3-.4.6-.4.6.1 1.2.3 1.7.4.7.2 1.4.3 2.3.5.3.1.4.3.4.6-.1.2-.3.4-.5.4zm.9-4.9h-.1l-3.3-.7c-.3-.1-.4-.3-.4-.6.1-.3.3-.4.6-.4l3.3.7c.3.1.4.3.4.6-.1.2-.3.4-.5.4zM226.7 132.6h-.1l-4.7-1c-.3-.1-.4-.3-.4-.6s.3-.4.6-.4l4.7 1c.3.1.4.3.4.6-.1.2-.3.4-.5.4zm.5-2.9h-.1l-3.9-.8c-.3-.1-.4-.3-.4-.6.1-.3.3-.4.6-.4l3.9.8c.3.1.4.3.4.6-.1.2-.3.4-.5.4zM231.8 127h-.2l-3.6-1.3c-.3-.1-.4-.4-.3-.6.1-.3.4-.4.6-.3l3.6 1.3c.3.1.4.4.3.6 0 .2-.2.3-.4.3zm2.7-4.2h-.1l-5.4-1.1c-.3-.1-.4-.3-.4-.6.1-.3.3-.4.6-.4l5.4 1.1c.3.1.4.3.4.6-.1.2-.3.4-.5.4zM237.7 118.8h-.1c-.6-.2-1.1-.3-1.6-.5l-3.7-1.1c-.3-.1-.4-.3-.3-.6.1-.3.3-.4.6-.4 1 .2 1.6.4 2.4.7.4.1.8.3 1.3.4l1.6.5c.3.1.4.4.3.6-.1.3-.3.4-.5.4z"/><path class="st3" d="M117.3 107.7V48.1l36.4-15.9 51.7 10.2v57.4l-33.5 18.5-12.8-2.2-.5-18.2-27.7 12.9-13.6-3.1z"/><path d="M130.2 112.1c-.3 0-.5-.2-.5-.5V73.2c0-.3.2-.5.5-.5s.5.2.5.5v38.4c0 .3-.2.5-.5.5zM158.8 117c-.3 0-.5-.2-.5-.5V80.7c0-.3.2-.5.5-.5s.5.2.5.5v35.8c0 .3-.2.5-.5.5zM117.5 108c-.3 0-.5-.2-.5-.5V47.2c0-.3.2-.5.5-.5s.5.2.5.5v60.3c0 .3-.2.5-.5.5zM172.4 119.5c-.3 0-.5-.2-.5-.5V49.3c0-.3.2-.5.5-.5s.5.2.5.5V119c0 .3-.2.5-.5.5zM205.1 100.5c-.3 0-.5-.2-.5-.5V38.4c0-.3.2-.5.5-.5s.5.2.5.5V100c0 .3-.2.5-.5.5z"/><path d="M112.9 49.4c-.2 0-.4-.1-.5-.3-.1-.3 0-.5.3-.7l2.7-1.2c10-4.3 30.7-13.2 39.9-16.6.3-.1.5 0 .6.3.1.3 0 .5-.3.6-9.2 3.4-29.9 12.3-39.9 16.6l-2.7 1.2c0 .1 0 .1-.1.1zM166.9 60.1c-.2 0-.4-.1-.5-.3-.1-.2 0-.5.2-.7l3.8-1.8c15.7-7.3 24.5-11.5 39.8-18.6.3-.1.5 0 .7.2.1.2 0 .5-.2.7-15.2 7.1-24 11.3-39.8 18.6l-3.8 1.8c-.1.1-.1.1-.2.1zM166.9 120.7c-.2 0-.4-.1-.5-.3-.1-.2 0-.5.2-.7 6.3-2.9 12.5-6.4 20.3-10.8 5.7-3.2 12.2-6.8 20.2-11 .2-.1.5 0 .7.2.1.2 0 .5-.2.7-7.9 4.2-14.4 7.8-20.2 11-7.9 4.4-14.1 7.8-20.4 10.8 0 .1 0 .1-.1.1z"/><path d="M163.5 84.2s-.1 0 0 0c-6-1-10.7-1.9-15.3-2.7-6-1.1-11.7-2.1-19.5-3.4-.3 0-.5-.3-.4-.6s.3-.5.6-.4c7.8 1.2 13.5 2.3 19.5 3.4 4.6.8 9.3 1.7 15.2 2.7.3 0 .5.3.4.6 0 .2-.3.4-.5.4zm14.7-25.5c-16.6-2.5-40.3-7.1-55.9-10.1-4.2-.8-7.7-1.5-10.2-2-.3-.1-.5-.3-.4-.6s.3-.4.6-.4c2.5.5 6.1 1.1 10.3 2 15.6 3 39.3 7.5 55.8 10 .3 0 .5.3.4.6-.1.3-.4.5-.6.5zm30.6-16s-.1 0 0 0c-8.8-1.7-20-3.8-30.6-5.9-11.9-2.3-23.1-4.5-29.1-5.6-.3-.1-.5-.3-.4-.6.1-.3.3-.5.6-.4 6 1.1 17.2 3.3 29.1 5.6 10.6 2.1 21.9 4.2 30.5 5.9.3.1.4.3.4.6-.1.2-.3.4-.5.4zM129.4 110.9h-.1c-3.8-.9-7.8-1.8-11.9-2.9-.3-.1-.4-.3-.3-.6.1-.3.3-.4.6-.3 4.1 1.1 8.1 2 11.9 2.9.3.1.4.3.4.6-.2.1-.4.3-.6.3zM178.3 119.9s-.1 0 0 0c-6.2-1-15.8-3-22.4-4.7-.3-.1-.4-.3-.4-.6.1-.3.3-.4.6-.4 6.6 1.7 16.1 3.7 22.3 4.7.3 0 .5.3.4.6 0 .2-.3.4-.5.4z"/><path d="M172.8 100.2h-.1c-.3-.1-.4-.3-.4-.6 2.8-11.2 5.8-22.7 9-34.8l3.5-13.6c.1-.3.3-.4.6-.4.3.1.4.3.4.6L182.3 65c-3.2 12.2-6.1 23.7-9 34.8-.1.2-.3.4-.5.4zm0-14.6h-.1c-.3-.1-.4-.3-.4-.6l.3-1.3c2.5-9.8 5.1-20 7.9-30.6.1-.3.3-.4.6-.4.3.1.4.3.4.6-2.8 10.6-5.4 20.8-7.9 30.6l-.3 1.3c-.1.2-.3.4-.5.4zm-.7-10.2h-.1c-.3-.1-.4-.3-.4-.6l5.1-19.9c.1-.3.3-.4.6-.4.3.1.4.3.4.6L172.6 75c-.1.2-.3.4-.5.4zM175.6 116.8h-.1c-.3-.1-.4-.3-.4-.6 1.7-6.5 3.4-13.1 5.1-20 3.9-15.3 8.1-31.6 12.7-49.2.1-.3.3-.4.6-.4.3.1.4.3.4.6-4.6 17.6-8.7 33.9-12.7 49.2-1.8 6.8-3.5 13.5-5.1 20-.1.3-.3.4-.5.4zm-3.2-.6h-.1c-.3-.1-.4-.3-.4-.6l17.2-66.7c.1-.3.3-.4.6-.4.3.1.4.3.4.6l-17.2 66.7c-.1.3-.3.4-.5.4zm7.6-2h-.1c-.3-.1-.4-.3-.4-.6l17.6-68.2c.1-.3.3-.4.6-.4.3.1.4.3.4.6-5.2 20.3-10.2 39.4-14.8 57.2l-2.8 11c-.1.3-.3.4-.5.4zM184.7 111.1h-.1c-.3-.1-.4-.3-.4-.6l17.3-67c.1-.3.3-.4.6-.4.3.1.4.3.4.6l-17.3 67c-.1.3-.3.4-.5.4zm3.7-1.9h-.1c-.3-.1-.4-.3-.4-.6 5-19 10.1-39 16.8-65.1.1-.3.3-.4.6-.4.3.1.4.3.4.6-6.7 26.1-11.8 46.1-16.8 65.1-.1.3-.3.4-.5.4zm4.5-2.3h-.1c-.3-.1-.4-.3-.4-.6 1.2-4.8 2.5-9.6 3.7-14.5l9.4-36.5c.1-.3.3-.4.6-.4.3.1.4.3.4.6-2.6 10.3-5.2 20.3-7.7 29.9-.6 2.2-1.1 4.4-1.7 6.5l-3.7 14.5c-.1.4-.3.5-.5.5zM197.3 104.4h-.1c-.3-.1-.4-.3-.4-.6l7.8-30.2c.1-.3.3-.4.6-.4.3.1.4.3.4.6l-7.8 30.2c-.1.3-.3.4-.5.4zm4.1-2.3h-.1c-.3-.1-.4-.3-.4-.6l3.6-14c.1-.3.3-.4.6-.4.3.1.4.3.4.6-1.2 4.7-2.4 9.3-3.5 13.8l-.1.3c-.1.2-.3.3-.5.3zM130 85.9c-.2 0-.4-.1-.5-.3-.1-.2 0-.5.2-.7 1.7-.8 3.4-1.6 5.2-2.4l6.6-3.1c.2-.1.5 0 .7.2.1.2 0 .5-.2.7-2.1 1-4.2 1.9-6.2 2.9-.1.1-.3.1-.4.2l-5.2 2.4c-.1.1-.1.1-.2.1zm0-4c-.2 0-.4-.1-.5-.3-.1-.2 0-.5.2-.7l5.7-2.7c.2-.1.5 0 .7.2.1.2 0 .5-.2.7l-5.7 2.7c-.1.1-.1.1-.2.1zM130.3 96.8c-.2 0-.4-.1-.5-.3-.1-.2 0-.5.2-.7 8.1-3.9 16.6-7.8 25.5-12l2.9-1.3c.3-.1.5 0 .7.2.1.2 0 .5-.2.7l-28.4 13.3c-.1.1-.1.1-.2.1zm.1-4.1c-.2 0-.4-.1-.5-.3-.1-.2 0-.5.2-.7 7.2-3.4 14.5-6.8 21.7-10.1.3-.1.5 0 .7.2.1.3 0 .5-.2.7l-21.7 10.1c-.1.1-.1.1-.2.1zm0-3.5c-.2 0-.4-.1-.5-.3-.1-.2 0-.5.2-.7l16.6-7.8c.2-.1.5 0 .7.2.1.2 0 .5-.2.7l-16.6 7.8c-.1.1-.1.1-.2.1zM130.4 111.5c-.2 0-.4-.1-.5-.3-.1-.2 0-.5.2-.7l28.1-13.1c.3-.1.5 0 .7.2.1.3 0 .5-.2.7l-28.1 13.1c-.1.1-.1.1-.2.1zm0-3.6c-.2 0-.4-.1-.5-.3-.1-.2 0-.5.2-.7 4.8-2.2 9.7-4.5 14.7-6.9.8-.4 1.5-.7 2.3-1.1l11.1-5.2c.3-.1.5 0 .7.2.1.2 0 .5-.2.7-3.8 1.8-7.5 3.5-11.1 5.2l-17 7.9c-.1.2-.1.2-.2.2zm-.1-4c-.2 0-.4-.1-.5-.3-.1-.2 0-.5.2-.7l18.7-8.7c3.3-1.5 6.6-3.1 10-4.7.3-.1.5 0 .7.2.1.2 0 .5-.2.7l-10 4.7c-1 .5-2.1 1-3.1 1.5-5.3 2.5-10.4 4.9-15.6 7.3h-.2zm.1-3.6c-.2 0-.4-.1-.5-.3-.1-.2 0-.5.2-.7l28.6-13.4c.2-.1.5 0 .7.2s0 .5-.2.7l-28.6 13.4c-.1.1-.1.1-.2.1z"/></g></svg>