<svg xmlns="http://www.w3.org/2000/svg" fill="none" viewBox="0 0 320 200"><path fill="#DE4C36" d="m234 120.355-22.76-22.322a3.403 3.403 0 0 0-4.747 0l-4.726 4.635 5.995 5.881a4.04 4.04 0 0 1 4.101.937 3.862 3.862 0 0 1 .948 4.048l5.777 5.667c1.398-.472 3.011-.167 4.128.93a3.865 3.865 0 0 1 0 5.541 4.052 4.052 0 0 1-5.651 0 3.868 3.868 0 0 1-.869-4.262l-5.388-5.285-.001 13.908c.38.185.74.432 1.056.741a3.865 3.865 0 0 1 0 5.542 4.049 4.049 0 0 1-5.648 0 3.865 3.865 0 0 1 0-5.542 4.011 4.011 0 0 1 1.307-.855v-14.037a3.958 3.958 0 0 1-1.307-.855 3.861 3.861 0 0 1-.861-4.284l-5.91-5.797-15.605 15.306a3.248 3.248 0 0 0 0 4.658l22.76 22.322a3.403 3.403 0 0 0 4.747 0L234 125.013a3.25 3.25 0 0 0 0-4.658z"/><path fill="#fff" d="M86.971 136.472c-10.235-1.969-17.02 6.742-22.674 14.362-7.903 6.542-6.157 10.487-5.56 11.795 3.838 8.404 8.817 23.282 22.32 25.073 7.987 1.06 22.554-10.933 27.087-19.636 3.641-6.992-5.773-16.419-7.704-19.692-4.477-7.587-7.06-10.669-13.469-11.902z"/><path fill="#FCFEFF" fill-rule="evenodd" d="M74.898 137.476c2.075-2.074 8.381-.594 11.22 2.244 4.487 4.488 16.828 20.195 16.828 23.56 0 3.366-1.643 7.253-5.61 11.22-4.487 4.487-14.584 11.219-16.828 12.341-2.244 1.122-4.488 1.122-11.22-7.854-6.73-8.975-12.34-17.95-11.219-20.194.898-1.795 10.098-14.585 16.83-21.317zm-2.68 12.341 5.609 7.854 6.731-6.732c-1.122-2.244-3.814-6.731-5.61-6.731-1.794 0-5.235 3.739-6.73 5.609zm10.097 13.463 7.853-6.731c1.496 1.87 4.488 5.834 4.488 6.731 0 2.706-2.175 4.687-4.194 6.525-.492.449-.976.889-1.416 1.329l-6.731-7.854zm1.121 12.341-5.61-7.853-6.73 5.61c.153.308.308.637.468.979v.001c1.004 2.146 2.238 4.783 5.141 5.751 1.703.568 5.984-2.992 6.731-4.488zM73.34 162.158l-5.61-7.853-.25.262v.001c-1.857 1.941-5.258 5.497-3.115 8.712l.001.002c1.208 1.812 2.243 3.364 3.365 4.486l5.61-5.61z" clip-rule="evenodd" opacity=".5"/><path fill="#000" fill-rule="evenodd" d="M85.368 140.521c-4.388-4.389-9.5-3.15-11.536-1.114-3.489 3.489-11.08 13.297-13.294 16.62-2.458 3.687-1.069 7.317.031 9.516l-.315.158.315-.158c1.283 2.567 3.606 6.274 5.838 9.572 2.242 3.311 4.349 6.144 5.199 6.994.31.311.638.661.966 1.012.25.268.501.535.743.785.583.6 1.184 1.165 1.841 1.625 1.294.906 2.817 1.414 4.88.899 1.03-.258 2.399-.95 3.978-1.958 1.568-1.002 3.306-2.292 5.07-3.709 3.528-2.835 7.132-6.162 9.64-8.671 2.671-2.67 3.18-5.299 2.919-7.519-.237-2.011-1.104-3.706-1.695-4.859a38.228 38.228 0 0 1-.204-.402c-.23-.459-.957-1.58-2.018-3.108a194.89 194.89 0 0 0-3.873-5.354c-2.937-3.925-6.287-8.132-8.485-10.329zM73.125 138.7c2.416-2.416 8.16-3.676 12.95 1.113 2.255 2.255 5.642 6.514 8.578 10.438a195.814 195.814 0 0 1 3.894 5.382c1.05 1.511 1.823 2.696 2.092 3.232l.196.387c.588 1.145 1.542 3.001 1.801 5.204.295 2.511-.309 5.448-3.204 8.343-2.53 2.53-6.161 5.882-9.722 8.743-1.78 1.431-3.549 2.744-5.158 3.773-1.6 1.021-3.08 1.786-4.274 2.085-2.39.597-4.206-.007-5.695-1.049-.734-.514-1.385-1.131-1.985-1.749-.278-.286-.534-.56-.782-.825-.308-.33-.604-.648-.917-.961-.93-.93-3.091-3.848-5.32-7.141-2.238-3.306-4.59-7.057-5.904-9.684-1.127-2.253-2.75-6.348.03-10.519 2.238-3.355 9.87-13.221 13.42-16.772z" clip-rule="evenodd"/><path fill="#000" fill-rule="evenodd" d="M92.386 139.181c-4.396-4.396-9.067-3.589-12.131-2.976-2.717.544-4.31 1.349-5.63 2.405-.668.534-1.275 1.14-1.932 1.832-.188.198-.382.404-.581.617a70.172 70.172 0 0 1-1.62 1.688l-.706-.707c.585-.586 1.098-1.133 1.585-1.652.202-.216.4-.428.597-.635.665-.7 1.31-1.346 2.033-1.924 1.463-1.171 3.209-2.035 6.057-2.604 3.11-.622 8.253-1.533 13.035 3.249 2.255 2.254 5.642 6.513 8.578 10.438a194.503 194.503 0 0 1 3.894 5.382c1.05 1.51 1.823 2.695 2.091 3.232l.197.386c.588 1.145 1.542 3.002 1.801 5.205.295 2.511-.309 5.447-3.204 8.342-2.52 2.52-6.232 6.204-9.875 9.4-1.821 1.597-3.632 3.079-5.273 4.234-1.628 1.145-3.137 2.005-4.346 2.307-4.481 1.12-7.97 1.158-10.362-.038l.447-.894c2.06 1.03 5.25 1.068 9.673-.038 1.017-.254 2.398-1.019 4.012-2.155 1.6-1.126 3.382-2.582 5.19-4.168 3.615-3.171 7.307-6.835 9.827-9.355 2.67-2.67 3.179-5.299 2.918-7.518-.237-2.011-1.105-3.706-1.695-4.86a55.948 55.948 0 0 1-.204-.401c-.229-.459-.957-1.581-2.018-3.109a192.966 192.966 0 0 0-3.874-5.353c-2.937-3.926-6.286-8.132-8.484-10.33z" clip-rule="evenodd"/><path fill="#000" fill-rule="evenodd" d="M77.19 144.806c.61-.388 1.26-.687 1.854-.687.635 0 1.255.385 1.793.854.556.486 1.117 1.144 1.641 1.853 1.052 1.422 2.013 3.118 2.578 4.248l.161.322-7.35 7.351-6.128-8.579.236-.296c.753-.941 1.995-2.353 3.28-3.534.642-.59 1.306-1.133 1.934-1.532zm-4.196 5.398 5 7.001 6.004-6.004c-.559-1.08-1.41-2.545-2.323-3.78-.505-.682-1.016-1.276-1.496-1.694-.498-.435-.88-.608-1.135-.608-.297 0-.742.165-1.319.531-.558.355-1.174.855-1.793 1.424-1.112 1.022-2.199 2.232-2.938 3.13zm-5.026 3.649 6.163 8.629-6.218 6.218-.353-.353c-1.148-1.148-2.198-2.722-3.378-4.492l-.024-.036c-1.265-1.897-.78-3.881.155-5.533.845-1.493 2.115-2.82 2.989-3.733l.249-.261.417-.439zm-2.785 4.926c-.85 1.502-1.154 3.043-.193 4.485 1.077 1.616 1.988 2.978 2.931 4.014l4.904-4.904-4.968-6.955c-.86.902-1.943 2.069-2.674 3.36zm25.058-2.632.323.404a77.695 77.695 0 0 1 2.802 3.726c.468.668.894 1.315 1.206 1.856.156.27.288.523.383.745.088.204.171.443.171.663 0 1.849-.927 3.356-2.074 4.645-.574.647-1.217 1.253-1.844 1.828l-.41.375a38.91 38.91 0 0 0-1.383 1.297l-.382.382-7.355-8.581 8.563-7.34zm-7.153 7.448 6.006 7.007c.336-.32.688-.642 1.04-.962l.398-.363c.624-.572 1.234-1.149 1.773-1.755 1.08-1.215 1.821-2.491 1.821-3.981v.002s-.001-.02-.015-.067a1.768 1.768 0 0 0-.075-.205 6.256 6.256 0 0 0-.33-.638 25.772 25.772 0 0 0-1.16-1.783 76.52 76.52 0 0 0-2.44-3.27l-7.018 6.015zm-5.064 3.669 6.054 8.475-.135.269c-.223.446-.674.991-1.212 1.53-.548.55-1.22 1.13-1.924 1.644-.701.512-1.448.97-2.142 1.266-.667.283-1.399.465-2.006.263-1.808-.603-3.001-1.808-3.875-3.119-.628-.942-1.113-1.978-1.536-2.882a41.652 41.652 0 0 0-.443-.928l-.177-.354 7.396-6.164zm-6.15 6.427c.104.217.207.437.312.661.413.884.847 1.811 1.43 2.686.796 1.193 1.829 2.214 3.36 2.724.237.08.67.032 1.298-.235.6-.255 1.278-.666 1.943-1.152a15.636 15.636 0 0 0 1.806-1.542c.39-.393.69-.746.877-1.023l-5.063-7.088-5.963 4.969zM99.917 171.405a.5.5 0 0 1 .251-.661l8.284-3.729a.5.5 0 0 1 .41.912l-8.284 3.729a.5.5 0 0 1-.661-.251zm2.724-5.634a.5.5 0 0 1 .209-.675l6.37-3.356a.5.5 0 1 1 .466.885l-6.369 3.355a.5.5 0 0 1-.676-.209zm-.796-5.146a.5.5 0 0 1 .209-.675l4.777-2.517a.5.5 0 0 1 .466.885l-4.777 2.517a.5.5 0 0 1-.675-.21zm-9.08-12.059a.5.5 0 0 1 .21-.675l4.777-2.517a.5.5 0 1 1 .466.885l-4.777 2.516a.5.5 0 0 1-.676-.209zm2.48 4.259a.5.5 0 0 1 .21-.676l5.482-2.888a.5.5 0 0 1 .466.885l-5.482 2.888a.5.5 0 0 1-.676-.209zm2.297 3.659a.5.5 0 0 1 .21-.676l5.573-2.936a.501.501 0 0 1 .466.885l-5.573 2.936a.5.5 0 0 1-.675-.209zm-14.331-18.297a.5.5 0 0 1 .21-.675l4.08-2.151a.5.5 0 0 1 .467.885l-4.081 2.15a.5.5 0 0 1-.676-.209zm4.082 3.415a.5.5 0 0 1 .209-.676l4.677-2.463a.5.5 0 1 1 .466.884l-4.677 2.464a.5.5 0 0 1-.675-.209zm3.084 3.244a.5.5 0 0 1 .21-.675l4.776-2.517a.5.5 0 1 1 .466.885l-4.777 2.517a.5.5 0 0 1-.675-.21zm-6.422 39.964a.5.5 0 0 1 .42-.569l7.962-1.194a.5.5 0 1 1 .149.989l-7.962 1.194a.5.5 0 0 1-.569-.42zm3.996-3.119a.5.5 0 0 1 .34-.62l10.35-3.017a.5.5 0 0 1 .28.96l-10.35 3.017a.5.5 0 0 1-.62-.34zm6.385-4.731a.5.5 0 0 1 .278-.65c1.488-.595 2.693-1.017 3.796-1.404.381-.133.75-.263 1.115-.394a37.656 37.656 0 0 0 4.604-1.963.5.5 0 0 1 .451.893 38.928 38.928 0 0 1-4.717 2.012c-.376.134-.752.266-1.137.401a85.557 85.557 0 0 0-3.74 1.383.5.5 0 0 1-.65-.278z" clip-rule="evenodd"/><g fill="#9293AB" fill-rule="evenodd" clip-rule="evenodd"><path d="M167.795 137.605a.5.5 0 0 1-.296.642c-12.626 4.67-32.017 11.662-44.69 16.201a.5.5 0 1 1-.337-.941c12.673-4.54 32.059-11.53 44.68-16.198a.5.5 0 0 1 .643.296z"/><path d="M151.006 140.537a.5.5 0 0 1 .373-.601l.524-.125c1.363-.328 4.671-1.123 7.887-1.767 1.886-.377 3.755-.705 5.19-.854.713-.075 1.342-.108 1.82-.074.236.016.466.051.659.121.178.065.436.202.542.495l.055.153-.046.156c-.099.34-.31.659-.567.951-.26.296-.591.591-.967.883-.751.584-1.725 1.187-2.776 1.788-.968.552-2.017 1.111-3.04 1.655l-.269.144c-1.11.591-2.176 1.163-3.079 1.699a.5.5 0 1 1-.51-.86c.925-.549 2.012-1.132 3.119-1.722l.267-.142a117.125 117.125 0 0 0 3.016-1.643c1.04-.594 1.964-1.169 2.658-1.709.347-.269.626-.521.83-.754.064-.073.119-.142.166-.206a2.009 2.009 0 0 0-.128-.012c-.389-.027-.95-.002-1.647.071-1.386.145-3.218.465-5.097.841-3.192.638-6.473 1.427-7.844 1.757l-.535.128a.5.5 0 0 1-.601-.373zm16.143-2.346-.006-.003.006.003zM117.251 142.446a.5.5 0 0 1 .296-.642c7.078-2.618 16.093-5.683 24.876-8.669 6.866-2.334 13.59-4.62 19.134-6.606a.5.5 0 1 1 .337.942c-5.586 2-12.318 4.289-19.183 6.623-8.759 2.977-17.733 6.028-24.817 8.648a.5.5 0 0 1-.643-.296z"/><path d="M134.04 139.514a.5.5 0 0 1-.373.601l-.524.125c-1.363.328-4.671 1.123-7.887 1.767-1.886.377-3.755.705-5.19.854-.713.075-1.343.108-1.82.074a2.466 2.466 0 0 1-.659-.121c-.179-.065-.437-.202-.542-.495l-.055-.153.046-.156c.099-.34.31-.659.567-.951.26-.296.591-.591.967-.883.751-.583 1.725-1.187 2.776-1.787.968-.553 2.017-1.112 3.04-1.656l.269-.144c1.11-.591 2.176-1.163 3.079-1.699a.5.5 0 1 1 .51.86c-.925.55-2.012 1.132-3.119 1.722l-.267.142a117.125 117.125 0 0 0-3.016 1.643c-1.04.594-1.964 1.169-2.658 1.709a5.998 5.998 0 0 0-.83.754 2.782 2.782 0 0 0-.166.206c.039.005.081.009.128.012.389.027.95.002 1.647-.071 1.386-.145 3.218-.465 5.097-.841 3.192-.638 6.473-1.427 7.843-1.757l.536-.128a.5.5 0 0 1 .601.373zm-16.143 2.346.006.003-.006-.003z"/></g><g fill="#000"><path fill-rule="evenodd" d="M244.294 98.196a.5.5 0 0 1-.384-.594c.146-.686.29-1.376.435-2.067.61-2.926 1.228-5.887 2.109-8.775.352-1.155.784-2.544 1.469-3.786.688-1.247 1.654-2.388 3.097-3 2.381-1.011 4.852-.76 7.222-.316.568.106 1.128.223 1.68.338 1.798.375 3.52.734 5.205.676 1.072-.037 1.862-.41 2.474-.988.623-.588 1.085-1.41 1.443-2.367.358-.956.602-2.014.81-3.052.058-.285.113-.572.167-.854.14-.726.274-1.425.43-2.019a.5.5 0 1 1 .967.254c-.147.56-.271 1.207-.408 1.919-.056.289-.113.589-.175.897-.211 1.049-.467 2.172-.854 3.206-.387 1.032-.916 2.01-1.694 2.743-.789.745-1.81 1.215-3.125 1.26-1.818.063-3.704-.33-5.525-.711a79.164 79.164 0 0 0-1.58-.32c-2.338-.438-4.555-.634-6.646.254-1.166.495-1.988 1.43-2.613 2.563-.627 1.137-1.033 2.43-1.388 3.594-.866 2.841-1.472 5.747-2.082 8.67-.146.696-.291 1.393-.441 2.09a.5.5 0 0 1-.593.385z" clip-rule="evenodd"/><path fill-rule="evenodd" d="M240.93 98.338a.5.5 0 0 1 .199-.679l.085-.046c-.007-.271-.001-.552.011-.827a30.438 30.438 0 0 1 .105-1.434c.035-.384.061-.667.062-.828.013-1.631.166-3.314.316-4.955.065-.71.129-1.413.181-2.1a.512.512 0 0 1 .391-.464.536.536 0 0 1 .364.044h.002a.985.985 0 0 1 .207.149c.102.092.232.23.373.385.286.319.667.771 1.055 1.245a115.34 115.34 0 0 1 1.843 2.309c.36.468.915.923 1.509 1.334.45.311.894.58 1.266.805l.331.201c.191.119.389.245.51.356.033.03.078.076.119.135a.533.533 0 0 1-.179.782.639.639 0 0 1-.24.073 1.566 1.566 0 0 1-.334-.008 6.763 6.763 0 0 1-.426-.064 17.308 17.308 0 0 1-.204-.038.514.514 0 0 1 .033.25c-.016.136-.082.23-.099.255l-.001.001a1.088 1.088 0 0 1-.16.176c-.198.184-.592.478-1.041.795-.906.64-2.164 1.459-2.855 1.82.001 0 .001 0 0 0l-.029.018c-.022.013-.049.032-.084.055a19.02 19.02 0 0 0-.256.178l-.554.398-.133.096c-.239.172-.477.343-.658.468a5.358 5.358 0 0 1-.236.157c-.03.018-.068.041-.107.06a.522.522 0 0 1-.246.059.505.505 0 0 1-.358-.152 1.406 1.406 0 0 1-.311-.543 2.614 2.614 0 0 1-.058-.208.5.5 0 0 1-.393-.258zm1.332-.152a.79.79 0 0 0 .012.072c.123-.087.261-.187.404-.29l-.416.218zm5.284-3.667a83.52 83.52 0 0 1-.253-.056.5.5 0 0 1 .045-.984c-.091-.06-.183-.122-.274-.186-.62-.429-1.278-.954-1.733-1.547a119.493 119.493 0 0 0-1.823-2.284c-.252-.307-.495-.6-.709-.849l-.099 1.096c-.148 1.621-.296 3.235-.308 4.823a13.2 13.2 0 0 1-.072.978 29.69 29.69 0 0 0-.096 1.32l-.009.252c1.371-.709 2.768-1.363 4.158-2.013l1.13-.53.043-.02z" clip-rule="evenodd"/><path d="M221.211 59.665c0 .373-.028.728-.084 1.064-.037.336-.14.681-.308 1.036-.149.336-.364.7-.644 1.092-.28.392-.644.84-1.092 1.344a9.381 9.381 0 0 1-1.904 1.596 4.42 4.42 0 0 1-2.436.7c-.56 0-1.12-.094-1.68-.28a4.37 4.37 0 0 1-1.456-.84 4.339 4.339 0 0 1-1.008-1.4c-.261-.56-.392-1.213-.392-1.96 0-1.195.224-2.446.672-3.752.448-1.325 1.073-2.744 1.876-4.256a55.737 55.737 0 0 1 1.456-2.604c.448-.766.887-1.4 1.316-1.904.429-.523.859-.915 1.288-1.176a2.594 2.594 0 0 1 1.372-.392c.373 0 .691.075.952.224.28.13.42.401.42.812 0 .13-.028.252-.084.364a.275.275 0 0 1-.252.14c-.149 0-.261-.038-.336-.112-.056-.093-.233-.14-.532-.14-.504 0-.999.233-1.484.7a10.842 10.842 0 0 0-1.372 1.624 18.285 18.285 0 0 0-1.092 1.792 60.49 60.49 0 0 0-1.4 2.968 48.625 48.625 0 0 0-.756 1.96 23.309 23.309 0 0 0-.616 1.96c-.168.616-.252 1.13-.252 1.54 0 .523.084.99.252 1.4.187.392.429.728.728 1.008s.644.495 1.036.644c.411.13.84.196 1.288.196.616 0 1.241-.15 1.876-.448a6.2 6.2 0 0 0 1.736-1.176 5.828 5.828 0 0 0 1.26-1.68c.336-.635.504-1.279.504-1.932 0-.654-.168-1.195-.504-1.624-.336-.43-.709-.644-1.12-.644-.261 0-.448.047-.56.14a1.529 1.529 0 0 0-.28.308 4.528 4.528 0 0 1-.364.504c-.112.13-.308.242-.588.336-.448.15-.803.261-1.064.336-.243.056-.42.102-.532.14l-.224.056c-.112 0-.271-.075-.476-.224-.187-.168-.28-.299-.28-.392 0-.336.196-.654.588-.952a7.696 7.696 0 0 1 1.372-.84 9.384 9.384 0 0 1 1.456-.616c.467-.15.756-.224.868-.224.56 0 1.017.112 1.372.336.373.224.663.513.868.868.224.355.383.747.476 1.176.093.41.14.812.14 1.204zm3.632-6.328c0 .037-.065.112-.196.224a6.1 6.1 0 0 1-.476.364 4.922 4.922 0 0 1-.532.308c-.186.093-.336.14-.448.14h-.308a1.609 1.609 0 0 1-.364-.112 1.194 1.194 0 0 1-.308-.224.636.636 0 0 1-.14-.42c0-.261.094-.504.28-.728a.878.878 0 0 1 .728-.364c.056 0 .178.028.364.084.206.037.411.093.616.168.206.075.383.158.532.252.168.093.252.196.252.308zm.924 10.472c0 .13-.102.243-.308.336-.186.093-.326.14-.42.14-.186 0-.354-.121-.504-.364a4.406 4.406 0 0 1-.392-.84 12.146 12.146 0 0 1-.28-.896 8.977 8.977 0 0 0-.168-.616c-.056-.187-.13-.41-.224-.672a29.007 29.007 0 0 0-.28-.756l-.196-.644a2.871 2.871 0 0 1-.084-.308c0-.261.047-.504.14-.728.112-.224.243-.336.392-.336.168 0 .346.13.532.392.187.261.364.597.532 1.008.187.392.355.83.504 1.316.15.466.28.914.392 1.344.112.41.196.774.252 1.092.075.298.112.476.112.532z"/><path d="M234.959 53.56c-.243.28-.588.56-1.036.84a23.75 23.75 0 0 1-1.344.729l-1.176.588c-.336.15-.504.252-.504.308 0 .056.037.224.112.504.075.28.159.616.252 1.008.112.373.224.765.336 1.176.112.41.205.774.28 1.092.037.187.084.43.14.728.056.298.103.597.14.896.056.298.103.57.14.812.037.224.056.345.056.364 0 .28-.047.57-.14.868-.093.299-.243.448-.448.448a.428.428 0 0 1-.308-.14 2.058 2.058 0 0 1-.252-.308 2.006 2.006 0 0 1-.168-.364.9.9 0 0 1-.056-.252v-.168c.019-.075.028-.159.028-.252 0-.355-.056-.868-.168-1.54a14.203 14.203 0 0 0-.224-.952c-.112-.43-.224-.868-.336-1.316a85.616 85.616 0 0 0-.448-1.708c-.075-.261-.121-.392-.14-.392-.131 0-.355.084-.672.252-.299.15-.644.345-1.036.588-.392.224-.803.476-1.232.756a47.99 47.99 0 0 0-1.204.756c-.373.224-.691.42-.952.588-.28.15-.448.224-.504.224a.748.748 0 0 1-.588-.252.825.825 0 0 1-.224-.56c0-.112.159-.27.476-.476.299-.224.681-.467 1.148-.728a34.05 34.05 0 0 1 1.484-.812 59.16 59.16 0 0 1 1.456-.756c.467-.224.849-.41 1.148-.56l.476-.224a84.178 84.178 0 0 1-.42-2.296 54.132 54.132 0 0 0-.28-1.596 15.67 15.67 0 0 1-.112-.784c0-.243.047-.42.14-.532.112-.13.233-.196.364-.196.205 0 .336.14.392.42.205 1.008.392 1.904.56 2.688.187.784.364 1.418.532 1.904.168-.038.457-.14.868-.308l1.288-.588c.448-.206.849-.383 1.204-.532.373-.168.588-.252.644-.252.112 0 .177.037.196.112.037.075.075.14.112.196zm20.759-.615c0 1.213-.149 2.277-.448 3.192a14.04 14.04 0 0 1-.98 2.436 23.72 23.72 0 0 1-1.064 1.876c-.336.541-.56 1.064-.672 1.568-.093.336-.298.504-.616.504h-.084c-.018-.019-.046-.028-.084-.028.131.317.327.681.588 1.092.262.392.523.793.784 1.204.262.41.486.812.672 1.204.206.392.308.728.308 1.008 0 .15-.102.29-.308.42-.186.15-.354.224-.504.224-.074 0-.13-.047-.168-.14-.186-.672-.532-1.39-1.036-2.156a46.873 46.873 0 0 1-1.568-2.576 20.707 20.707 0 0 1-1.4-3.22c-.41-1.195-.616-2.548-.616-4.06 0-.635.028-1.167.084-1.596.075-.448.271-.672.588-.672.187 0 .318.056.392.168a.64.64 0 0 1 .112.364c0 1.699.159 3.192.476 4.48.318 1.288.672 2.286 1.064 2.996l.476-.728c.486-.747.906-1.4 1.26-1.96.355-.579.644-1.139.868-1.68.224-.56.383-1.13.476-1.708.112-.579.168-1.25.168-2.016 0-.206-.028-.43-.084-.672a1.751 1.751 0 0 0-.224-.644 1.447 1.447 0 0 0-.364-.504.819.819 0 0 0-.56-.196c-.298 0-.756.084-1.372.252-.597.168-1.213.392-1.848.672-.634.28-1.213.597-1.736.952-.522.336-.84.681-.952 1.036a1.164 1.164 0 0 1-.084.14c-.037.056-.074.084-.112.084-.13 0-.27-.103-.42-.308-.149-.206-.224-.383-.224-.532 0-.336.15-.663.448-.98a4.951 4.951 0 0 1 1.12-.868c.467-.261.98-.495 1.54-.7a12.72 12.72 0 0 1 1.624-.532c.523-.15.99-.261 1.4-.336.43-.094.738-.14.924-.14.299 0 .579.084.84.252.28.168.514.392.7.672.187.28.336.606.448.98.112.373.168.765.168 1.176zm8.945 4.732c0 .13-.056.242-.168.336-.112.075-.243.14-.392.196a4.21 4.21 0 0 1-.448.14c-.15.019-.271.028-.364.028-.28 0-.467-.019-.56-.056a.647.647 0 0 0-.224-.056c-.467 0-.84.037-1.12.112-.28.075-.504.196-.672.364a1.38 1.38 0 0 0-.308.644 5.94 5.94 0 0 0-.056.896c0 .597.018 1.073.056 1.428.056.354.102.644.14.868.056.224.102.401.14.532a.746.746 0 0 1 .084.336c0 .15-.084.308-.252.476-.15.168-.29.252-.42.252-.224 0-.43-.196-.616-.588a9.89 9.89 0 0 1-.448-1.428c-.112-.56-.206-1.11-.28-1.652a9.745 9.745 0 0 1-.112-1.232c0-.318.028-.616.084-.896.056-.299.13-.55.224-.756a1.98 1.98 0 0 1 .308-.532c.112-.13.224-.196.336-.196.093 0 .168.037.224.112a.66.66 0 0 1 .14.224l.112.224a.268.268 0 0 0 .196.084c.168 0 .438-.084.812-.252.373-.168.83-.252 1.372-.252.504 0 .877.018 1.12.056.261.019.513.075.756.168a.553.553 0 0 1 .196.14c.093.056.14.15.14.28zm7.263 2.492c0 .41-.056.803-.168 1.176-.112.373-.261.7-.448.98s-.411.504-.672.672c-.243.15-.513.224-.812.224-.523 0-.933-.15-1.232-.448a3.271 3.271 0 0 1-.7-1.036 5.491 5.491 0 0 1-.308-1.176c-.037-.41-.056-.719-.056-.924 0-.336.047-.71.14-1.12.112-.43.252-.822.42-1.176a4.2 4.2 0 0 1 .616-.896c.224-.243.457-.364.7-.364.056 0 .14.018.252.056.131.037.261.093.392.168.131.075.243.168.336.28a.828.828 0 0 1 .224.392c.205.019.411.093.616.224.205.13.317.233.336.308.149.485.243.97.28 1.456.056.485.084.886.084 1.204zm-1.26-.504c0-.28-.028-.57-.084-.868a3.233 3.233 0 0 0-.336-.952.312.312 0 0 1-.14.028.62.62 0 0 1-.196-.028.248.248 0 0 0-.112-.028c-.224 0-.401.065-.532.196a1.11 1.11 0 0 0-.308.476 3.036 3.036 0 0 0-.112.616 7.62 7.62 0 0 0-.028.644c0 .205.009.438.028.7.019.242.056.476.112.7.075.224.168.42.28.588.112.15.261.224.448.224s.345-.093.476-.28c.131-.206.233-.439.308-.7.075-.262.121-.514.14-.756.037-.261.056-.448.056-.56zm9.528-3.305c0 .057-.047.3-.14.729-.094.43-.187.915-.28 1.456-.056.317-.15.793-.28 1.428-.112.616-.168 1.559-.168 2.828 0 .037-.01.14-.028.308 0 .15-.028.308-.084.476a1.535 1.535 0 0 1-.196.476c-.094.13-.234.196-.42.196-.168 0-.355-.075-.56-.224a7.794 7.794 0 0 1-2.296-2.632 7.98 7.98 0 0 1-.644-1.68 7.001 7.001 0 0 1-.224-1.764c0-.075.046-.14.14-.196.112-.075.196-.112.252-.112.28 0 .494.158.644.476.168.317.326.7.476 1.148.168.448.354.924.56 1.428.224.485.55.905.98 1.26.056-.075.102-.215.14-.42.037-.205.065-.383.084-.532.018-.13.046-.383.084-.756.037-.392.074-.803.112-1.232.056-.43.093-.84.112-1.232.037-.392.056-.663.056-.812 0-.112.009-.243.028-.392.018-.15.056-.29.112-.42a1.21 1.21 0 0 1 .28-.336.676.676 0 0 1 .448-.14c.093 0 .252.065.476.196.224.112.336.27.336.476zm4.122-3.023c0 .037-.065.112-.196.224a6.22 6.22 0 0 1-.476.364 4.922 4.922 0 0 1-.532.308c-.187.093-.336.14-.448.14h-.308a1.609 1.609 0 0 1-.364-.112 1.177 1.177 0 0 1-.308-.224.636.636 0 0 1-.14-.42c0-.261.093-.504.28-.728a.877.877 0 0 1 .728-.364c.056 0 .177.028.364.084.205.037.411.093.616.168.205.075.383.158.532.252.168.093.252.196.252.308zm.924 10.472c0 .13-.103.243-.308.336-.187.093-.327.14-.42.14-.187 0-.355-.121-.504-.364a4.406 4.406 0 0 1-.392-.84 12.146 12.146 0 0 1-.28-.896 10.363 10.363 0 0 0-.168-.616 14.58 14.58 0 0 0-.224-.672 33.172 33.172 0 0 0-.28-.756l-.196-.644a2.871 2.871 0 0 1-.084-.308c0-.261.047-.504.14-.728.112-.224.243-.336.392-.336.168 0 .345.13.532.392.187.261.364.597.532 1.008.187.392.355.83.504 1.316.149.466.28.914.392 1.344.112.41.196.774.252 1.092.075.298.112.476.112.532zm9.696-2.1c0 .093-.047.186-.14.28a.48.48 0 0 0-.14.252c0 .205.037.401.112.588.093.187.14.41.14.672 0 .242-.075.364-.224.364-.187 0-.327.028-.42.084a1.804 1.804 0 0 1-.42.112c-.112 0-.234-.103-.364-.308a1.439 1.439 0 0 1-.196-.336c0-.019-.056.018-.168.112-.094.093-.262.205-.504.336a5.407 5.407 0 0 1-.952.336c-.392.093-.896.14-1.512.14-.523 0-.98-.112-1.372-.336a3.305 3.305 0 0 1-.98-.924 4.515 4.515 0 0 1-.56-1.26 6.457 6.457 0 0 1-.168-1.456c0-.448.046-.868.14-1.26.112-.41.261-.765.448-1.064.186-.317.42-.57.7-.756.28-.187.606-.28.98-.28.354 0 .709.112 1.064.336a6.423 6.423 0 0 1 1.624 1.456l.28.308a737.898 737.898 0 0 1-.7-3.948c-.094-.504-.187-.999-.28-1.484a35.383 35.383 0 0 0-.42-2.324 5.84 5.84 0 0 1-.056-.504 6.566 6.566 0 0 1-.056-.588 134.49 134.49 0 0 1-.056-.924 96.253 96.253 0 0 0-.056-.868 4.04 4.04 0 0 0-.056-.504c-.056-.187-.131-.42-.224-.7a3.89 3.89 0 0 1-.112-.476c0-.093.046-.205.14-.336.093-.15.214-.224.364-.224.112 0 .214.01.308.028a.435.435 0 0 1 .252.168c.074.093.14.242.196.448.074.187.14.457.196.812.018.187.074.541.168 1.064.093.523.186 1.092.28 1.708.093.616.186 1.204.28 1.764.093.56.158.97.196 1.232.093.71.214 1.484.364 2.324.168.821.336 1.614.504 2.38.168.765.336 1.447.504 2.044.168.578.317.97.448 1.176.037.075.112.13.224.168.112.019.186.075.224.168zm-2.072.56c-.019-.056-.14-.29-.364-.7a10.09 10.09 0 0 0-.812-1.372 7.064 7.064 0 0 0-1.092-1.344c-.392-.392-.775-.588-1.148-.588-.318 0-.579.242-.784.728-.187.485-.28 1.045-.28 1.68 0 .71.205 1.279.616 1.708.429.43.905.644 1.428.644a4.76 4.76 0 0 0 1.4-.224c.485-.15.83-.327 1.036-.532zm12.022 1.008a.4.4 0 0 1 .028.168c0 .112-.084.28-.252.504a3.238 3.238 0 0 1-.364.364 3.8 3.8 0 0 1-.756.504c-.318.168-.71.317-1.176.448-.448.13-.98.196-1.596.196-.43 0-.85-.093-1.26-.28a3.45 3.45 0 0 1-1.092-.868 4.942 4.942 0 0 1-.784-1.428c-.206-.579-.308-1.25-.308-2.016a7.2 7.2 0 0 1 .28-2.044c.186-.635.42-1.195.7-1.68.298-.486.625-.868.98-1.148.354-.28.7-.42 1.036-.42.298 0 .597.065.896.196.317.112.597.261.84.448.261.187.466.401.616.644.149.224.224.457.224.7 0 .28-.131.57-.392.868a4.893 4.893 0 0 1-.896.84c-.355.242-.71.448-1.064.616-.355.15-.635.224-.84.224a.428.428 0 0 1-.308-.14.688.688 0 0 1-.112-.392c0-.262.112-.467.336-.616.242-.15.504-.28.784-.392.28-.13.532-.28.756-.448a.806.806 0 0 0 .364-.7c0-.037-.047-.13-.14-.28-.094-.15-.346-.224-.756-.224-.187 0-.402.112-.644.336-.243.205-.476.495-.7.868a5.13 5.13 0 0 0-.56 1.288 5.385 5.385 0 0 0-.224 1.596c0 .485.084.924.252 1.316.186.392.42.728.7 1.008.28.261.606.467.98.616.373.15.756.224 1.148.224a2.7 2.7 0 0 0 .896-.168 15.4 15.4 0 0 0 .924-.392c.298-.15.55-.28.756-.392.224-.13.364-.196.42-.196.056 0 .112.028.168.084a.38.38 0 0 1 .14.168zm8.585-5.6c0 .13-.056.242-.168.336-.112.075-.242.14-.392.196a4.071 4.071 0 0 1-.448.14 2.98 2.98 0 0 1-.364.028c-.28 0-.466-.019-.56-.056a.642.642 0 0 0-.224-.056c-.466 0-.84.037-1.12.112-.28.075-.504.196-.672.364a1.388 1.388 0 0 0-.308.644 6.074 6.074 0 0 0-.056.896c0 .597.019 1.073.056 1.428.056.354.103.644.14.868.056.224.103.401.14.532a.746.746 0 0 1 .084.336c0 .15-.084.308-.252.476-.149.168-.289.252-.42.252-.224 0-.429-.196-.616-.588-.168-.41-.317-.887-.448-1.428a28.06 28.06 0 0 1-.28-1.652c-.074-.541-.112-.952-.112-1.232 0-.318.028-.616.084-.896.056-.299.131-.55.224-.756.094-.224.196-.402.308-.532.112-.13.224-.196.336-.196.094 0 .168.037.224.112.056.056.103.13.14.224l.112.224a.27.27 0 0 0 .196.084c.168 0 .439-.084.812-.252.374-.168.831-.252 1.372-.252.504 0 .878.018 1.12.056.262.019.514.075.756.168a.545.545 0 0 1 .196.14c.094.056.14.15.14.28z"/></g><g fill="#000"><path fill-rule="evenodd" d="M63.806 130.321a.5.5 0 0 1-.706.031c-.517-.475-1.039-.949-1.562-1.423-2.212-2.01-4.451-4.043-6.495-6.266-.817-.889-1.796-1.965-2.519-3.186-.726-1.225-1.22-2.636-1.017-4.19.336-2.565 1.805-4.568 3.389-6.385.38-.436.764-.86 1.144-1.278 1.234-1.36 2.416-2.662 3.22-4.144.512-.942.59-1.813.402-2.633-.19-.836-.665-1.65-1.309-2.444-.642-.793-1.43-1.54-2.22-2.245-.217-.194-.436-.387-.651-.577-.555-.488-1.09-.959-1.523-1.394a.5.5 0 0 1 .709-.705c.408.41.903.846 1.447 1.325.221.194.45.396.685.605.797.713 1.635 1.503 2.33 2.361.695.857 1.269 1.81 1.507 2.851.242 1.057.13 2.177-.498 3.333-.867 1.599-2.162 3.024-3.414 4.402a77.92 77.92 0 0 0-1.075 1.2c-1.563 1.793-2.856 3.605-3.151 5.857-.164 1.256.226 2.439.885 3.552.663 1.117 1.572 2.122 2.395 3.018 2.01 2.187 4.207 4.182 6.418 6.189.526.479 1.053.957 1.58 1.44a.5.5 0 0 1 .03.706z" clip-rule="evenodd"/><path fill-rule="evenodd" d="M62.224 133.293a.5.5 0 0 1-.484-.515c0-.033.002-.065.003-.098a11.765 11.765 0 0 1-.707-.428 29.1 29.1 0 0 1-1.128-.778l-.055-.04c-.313-.224-.544-.39-.682-.472-1.4-.838-2.773-1.823-4.112-2.785-.58-.415-1.152-.827-1.718-1.22a.515.515 0 0 1-.202-.572c.056-.184.195-.274.222-.292l.002-.001a.986.986 0 0 1 .233-.103 5.35 5.35 0 0 1 .52-.126c.42-.086 1.003-.184 1.609-.279 1.212-.19 2.548-.371 2.924-.418.586-.073 1.26-.321 1.915-.625.496-.23.953-.476 1.336-.683l.34-.183c.2-.106.41-.212.566-.26a.807.807 0 0 1 .177-.034.533.533 0 0 1 .583.55.64.64 0 0 1-.058.244 1.531 1.531 0 0 1-.177.284 6.65 6.65 0 0 1-.27.335l-.137.157a.515.515 0 0 1 .233.098c.108.083.157.188.17.215v.001c.035.079.057.166.07.227.058.264.112.753.157 1.3.093 1.106.16 2.606.122 3.383v.035l.006.1c.005.083.014.189.024.311.017.201.04.438.062.68l.015.163c.028.294.054.585.07.804.008.108.014.207.016.283 0 .035 0 .08-.002.123a.527.527 0 0 1-.074.242.509.509 0 0 1-.312.232 1.389 1.389 0 0 1-.626-.008 2.094 2.094 0 0 1-.21-.055.501.501 0 0 1-.42.208zm.544-1.225.068.026a71.97 71.97 0 0 0-.045-.496l-.023.47zm-.483-6.414-.176.19a.5.5 0 0 1-.825-.538 20.88 20.88 0 0 1-.3.143c-.683.316-1.47.617-2.212.709-.365.046-1.69.225-2.893.414a49.56 49.56 0 0 0-1.091.181l.895.641c1.322.949 2.638 1.894 4.001 2.71.176.105.44.294.727.5l.08.057c.33.236.707.505 1.089.753l.213.135c.084-1.542.228-3.077.372-4.604.04-.415.078-.83.116-1.243l.004-.048z" clip-rule="evenodd"/><path d="M14.625 48.633c0 .093-.047.168-.14.224a.98.98 0 0 1-.28.14 4.139 4.139 0 0 0-.308.14.639.639 0 0 0-.252.14l.196 1.316c.112.728.205 1.438.28 2.128.093.69.14 1.344.14 1.96 0 .486-.056.924-.168 1.316-.094.373-.27.56-.532.56-.13 0-.252-.159-.364-.476-.094-.336-.177-.71-.252-1.12-.056-.43-.103-.85-.14-1.26-.019-.43-.028-.737-.028-.924a17.057 17.057 0 0 0-.112-1.54 43.409 43.409 0 0 0-.112-.924l-.084-.672a17.53 17.53 0 0 0-1.288.14c-.541.056-1.204.187-1.988.392v.336c0 .41.018.868.056 1.372l.112 1.512c.056.504.102 1.017.14 1.54.037.504.056.99.056 1.456 0 .187-.019.336-.056.448-.038.13-.122.196-.252.196-.224 0-.402-.112-.532-.336a2.975 2.975 0 0 1-.252-.784 15.471 15.471 0 0 1-.14-.98 31.355 31.355 0 0 0-.056-.84 26.497 26.497 0 0 1-.196-1.68c-.038-.653-.075-1.316-.112-1.988a.92.92 0 0 1-.28-.056l-.336-.168a1.83 1.83 0 0 1-.28-.224.348.348 0 0 1-.112-.252c0-.224.102-.401.308-.532.205-.15.43-.27.672-.364a4.823 4.823 0 0 1-.028-.532V43.285a61.93 61.93 0 0 0 .028-1.876c.018-.15.065-.326.14-.532.074-.224.196-.336.364-.336.13 0 .242.056.336.168.093.093.168.215.224.364.056.15.093.308.112.476.037.15.056.28.056.392v6.692c.168 0 .392-.01.672-.028l.868-.056c.299-.037.588-.075.868-.112.298-.037.541-.075.728-.112l-.644-5.88a24.06 24.06 0 0 1-.056-.42v-.364c0-.373.046-.672.14-.896.112-.242.27-.364.476-.364.261 0 .42.121.476.364.056.243.093.597.112 1.064l.056.896c.018.28.046.56.084.84l.644 4.732c.224 0 .448.019.672.056.243.019.364.112.364.28zm15.787 2.157c0 .335-.159.755-.476 1.26-.299.485-.71.96-1.232 1.427a7.903 7.903 0 0 1-1.82 1.204c-.69.318-1.41.476-2.156.476-.336 0-.69-.056-1.064-.168a5.1 5.1 0 0 1-1.092-.476 4.841 4.841 0 0 1-.952-.784 3.055 3.055 0 0 1-.616-1.064 3.558 3.558 0 0 0-.42.56c-.15.261-.317.532-.504.812a4.466 4.466 0 0 1-.616.7c-.224.187-.457.28-.7.28-.242 0-.448-.121-.616-.364a4.229 4.229 0 0 1-.364-.84 6 6 0 0 1-.196-.896 7.508 7.508 0 0 1-.056-.476c0-.224.066-.644.196-1.26.13-.634.327-1.288.588-1.96.262-.672.588-1.27.98-1.792.41-.523.887-.784 1.428-.784.206 0 .336.093.392.28.075.168.112.336.112.504v.84c.093.075.187.13.28.168a.633.633 0 0 1 .28.112.339.339 0 0 1 .196.196c.056.094.084.243.084.448 0 .13-.01.252-.028.364a1.423 1.423 0 0 0-.028.28c0 .485.037.961.112 1.428.075.467.224.887.448 1.26.224.355.532.654.924.896.392.224.915.336 1.568.336.822 0 1.512-.168 2.072-.504.579-.355 1.055-.737 1.428-1.148.392-.43.7-.812.924-1.148.224-.355.41-.532.56-.532.243 0 .364.122.364.364zm-9.828-1.233a.345.345 0 0 0-.056-.196.451.451 0 0 1-.056-.196c0-.075.019-.14.056-.196a.398.398 0 0 0 .056-.224c0-.056-.018-.093-.056-.112-.037-.037-.056-.075-.056-.112-.168.038-.345.196-.532.476-.168.28-.336.607-.504.98-.15.373-.27.756-.364 1.148-.093.373-.14.681-.14.924 0 .13.038.346.112.644.075.299.159.495.252.588a40.98 40.98 0 0 0 .868-1.904c.28-.616.42-1.223.42-1.82zm16.781-1.484c0 .13-.056.243-.168.336-.112.075-.243.14-.392.196a4.11 4.11 0 0 1-.448.14c-.15.019-.27.028-.364.028-.28 0-.467-.019-.56-.056a.646.646 0 0 0-.224-.056c-.467 0-.84.038-1.12.112a1.46 1.46 0 0 0-.672.364 1.38 1.38 0 0 0-.308.644 6.035 6.035 0 0 0-.056.896c0 .598.018 1.074.056 1.428.056.355.102.644.14.868.056.224.102.401.14.532a.746.746 0 0 1 .084.336c0 .15-.084.308-.252.476-.15.168-.29.252-.42.252-.224 0-.43-.196-.616-.588a9.971 9.971 0 0 1-.448-1.428 27.8 27.8 0 0 1-.28-1.652 9.82 9.82 0 0 1-.112-1.232c0-.317.028-.616.084-.896.056-.299.13-.55.224-.756.093-.224.196-.401.308-.532.112-.13.224-.196.336-.196.093 0 .168.038.224.112a.66.66 0 0 1 .14.224l.112.224a.269.269 0 0 0 .196.084c.168 0 .438-.084.812-.252.373-.168.83-.252 1.372-.252.504 0 .877.019 1.12.056.261.019.513.075.756.168a.552.552 0 0 1 .196.14c.093.056.14.15.14.28zm10.651 5.097a.602.602 0 0 1-.112.335 1.444 1.444 0 0 1-.28.308 1.574 1.574 0 0 1-.336.252.697.697 0 0 1-.308.084c-.317 0-.728-.065-1.232-.196-.485-.15-.877-.373-1.176-.672a5.168 5.168 0 0 1-.84-1.12c-.243-.448-.513-1.101-.812-1.96a28.014 28.014 0 0 1-.728 2.436 6.198 6.198 0 0 1-1.288 2.212c-.037.038-.093.056-.168.056-.13 0-.27-.065-.42-.196-.15-.13-.224-.261-.224-.392 0-.13-.019-.43-.056-.896a62.186 62.186 0 0 0-.084-1.596l-.112-1.792a51.75 51.75 0 0 1-.028-1.512c0-.187.01-.43.028-.728.019-.317.075-.588.168-.812.019-.037.084-.112.196-.224a.635.635 0 0 1 .42-.168c.13 0 .205.084.224.252.019.168.028.355.028.56v4.424c0 .093.01.224.028.392a.98.98 0 0 0 .14.364c.205-.448.392-.97.56-1.568.187-.616.364-1.194.532-1.736.168-.56.336-1.026.504-1.4.168-.392.336-.588.504-.588a.8.8 0 0 1 .448.112c.112.075.205.224.28.448.093.542.168 1.027.224 1.456.056.41.121.784.196 1.12.093.336.215.654.364.952.168.28.392.541.672.784.261.243.55.42.868.532.336.112.625.168.868.168.112 0 .233-.018.364-.056a.847.847 0 0 1 .28-.084c.075 0 .14.066.196.196.075.13.112.215.112.252zm9.228.503a.39.39 0 0 1 .028.168c0 .112-.084.28-.252.504a3.168 3.168 0 0 1-.364.364 3.776 3.776 0 0 1-.756.504c-.317.168-.71.318-1.176.448-.448.13-.98.196-1.596.196-.43 0-.85-.093-1.26-.28a3.456 3.456 0 0 1-1.092-.868 4.968 4.968 0 0 1-.784-1.428c-.206-.578-.308-1.25-.308-2.016 0-.728.093-1.41.28-2.044.187-.634.42-1.194.7-1.68.298-.485.625-.868.98-1.148.355-.28.7-.42 1.036-.42.298 0 .597.066.896.196.317.112.597.262.84.448.261.187.467.402.616.644.15.224.224.457.224.7 0 .28-.13.57-.392.868a4.85 4.85 0 0 1-.896.84 7.83 7.83 0 0 1-1.064.616c-.355.15-.635.224-.84.224a.428.428 0 0 1-.308-.14.69.69 0 0 1-.112-.392c0-.261.112-.466.336-.616.242-.15.504-.28.784-.392.28-.13.532-.28.756-.448a.804.804 0 0 0 .364-.7c0-.037-.047-.13-.14-.28-.093-.15-.346-.224-.756-.224-.187 0-.401.112-.644.336-.243.206-.476.495-.7.868-.224.355-.41.784-.56 1.288a5.408 5.408 0 0 0-.224 1.596c0 .486.084.924.252 1.316.186.392.42.728.7 1.008.28.261.607.467.98.616.373.15.756.224 1.148.224.28 0 .579-.056.896-.168.336-.13.644-.261.924-.392.299-.15.55-.28.756-.392.224-.13.364-.196.42-.196.056 0 .112.028.168.084a.373.373 0 0 1 .14.168zm8.278-.756c0 .317-.112.597-.336.84a2.77 2.77 0 0 1-.812.588c-.318.15-.672.27-1.064.364-.392.093-.766.168-1.12.224-.355.038-.672.066-.952.084h-.504c-.411 0-.728-.065-.952-.196-.224-.13-.336-.364-.336-.7 0-.112.009-.205.028-.28.018-.093.093-.14.224-.14.056 0 .149.019.28.056.13.019.233.028.308.028.074 0 .308-.01.7-.028.41-.037.84-.093 1.288-.168a6.585 6.585 0 0 0 1.232-.308c.373-.15.56-.336.56-.56 0-.037-.196-.15-.588-.336a48.96 48.96 0 0 1-1.708-1.008c-.598-.373-1.018-.747-1.26-1.12-.243-.392-.364-.914-.364-1.568 0-.41.084-.746.252-1.008a1.95 1.95 0 0 1 .728-.616c.317-.15.672-.252 1.064-.308.41-.075.84-.112 1.288-.112.037 0 .149.019.336.056.205.038.42.103.644.196.224.075.42.178.588.308.186.112.28.243.28.392 0 .038-.038.093-.112.168-.056.075-.16.215-.308.42a5.037 5.037 0 0 0-.308-.084 6.232 6.232 0 0 0-.476-.112 2.45 2.45 0 0 0-.532-.112 2.412 2.412 0 0 0-.448-.056c-.486 0-.878.093-1.176.28-.3.168-.448.504-.448 1.008a.98.98 0 0 0 .28.672c.205.206.457.401.756.588.298.168.616.346.952.532.354.168.68.355.98.56.298.206.54.43.728.672.205.224.308.485.308.784zm8.695 0c0 .317-.112.597-.336.84a2.77 2.77 0 0 1-.812.588c-.318.15-.672.27-1.064.364-.392.093-.765.168-1.12.224-.355.038-.672.066-.952.084h-.504c-.41 0-.728-.065-.952-.196-.224-.13-.336-.364-.336-.7 0-.112.01-.205.028-.28.019-.093.093-.14.224-.14.056 0 .15.019.28.056.13.019.233.028.308.028.075 0 .308-.01.7-.028.41-.037.84-.093 1.288-.168a6.585 6.585 0 0 0 1.232-.308c.373-.15.56-.336.56-.56 0-.037-.196-.15-.588-.336a48.96 48.96 0 0 1-1.708-1.008c-.597-.373-1.017-.747-1.26-1.12-.243-.392-.364-.914-.364-1.568 0-.41.084-.746.252-1.008a1.95 1.95 0 0 1 .728-.616c.317-.15.672-.252 1.064-.308.41-.075.84-.112 1.288-.112.037 0 .15.019.336.056.205.038.42.103.644.196.224.075.42.178.588.308.186.112.28.243.28.392 0 .038-.037.093-.112.168a45.51 45.51 0 0 0-.308.42 5.037 5.037 0 0 0-.308-.084 6.232 6.232 0 0 0-.476-.112 2.45 2.45 0 0 0-.532-.112 2.412 2.412 0 0 0-.448-.056c-.486 0-.877.093-1.176.28-.299.168-.448.504-.448 1.008a.98.98 0 0 0 .28.672c.205.206.457.401.756.588.299.168.616.346.952.532.355.168.681.355.98.56.299.206.541.43.728.672.205.224.308.485.308.784zM14.065 71.341c0 1.214-.15 2.278-.448 3.192-.28.915-.607 1.727-.98 2.436a24.02 24.02 0 0 1-1.064 1.876c-.336.541-.56 1.064-.672 1.568-.094.336-.299.504-.616.504H10.2c-.019-.019-.047-.028-.084-.028.13.318.326.681.588 1.092.261.392.522.794.784 1.204.261.41.485.812.672 1.204.205.392.308.728.308 1.008 0 .15-.103.29-.308.42-.187.15-.355.224-.504.224-.075 0-.13-.046-.168-.14-.187-.672-.532-1.39-1.036-2.156a46.418 46.418 0 0 1-1.568-2.576 20.61 20.61 0 0 1-1.4-3.22c-.41-1.195-.616-2.548-.616-4.06 0-.635.028-1.166.084-1.596.074-.448.27-.672.588-.672.186 0 .317.056.392.168a.644.644 0 0 1 .112.364c0 1.699.158 3.192.476 4.48.317 1.288.672 2.287 1.064 2.996l.476-.728c.485-.746.905-1.4 1.26-1.96.354-.579.644-1.139.868-1.68.224-.56.383-1.13.476-1.708a10.7 10.7 0 0 0 .168-2.016c0-.205-.028-.43-.084-.672a1.76 1.76 0 0 0-.224-.644 1.462 1.462 0 0 0-.364-.504.82.82 0 0 0-.56-.196c-.299 0-.756.084-1.372.252a13.94 13.94 0 0 0-1.848.672c-.635.28-1.214.598-1.736.952-.523.336-.84.681-.952 1.036a1.36 1.36 0 0 1-.084.14c-.038.056-.075.084-.112.084-.13 0-.27-.102-.42-.308-.15-.205-.224-.383-.224-.532 0-.336.15-.662.448-.98a4.95 4.95 0 0 1 1.12-.868c.466-.261.98-.494 1.54-.7a12.64 12.64 0 0 1 1.624-.532c.522-.15.99-.261 1.4-.336.43-.093.737-.14.924-.14.298 0 .578.084.84.252.28.168.513.392.7.672.187.28.336.607.448.98.112.373.168.765.168 1.176zm6.06 12.46c0 .15-.056.261-.168.336a.69.69 0 0 1-.392.112c-.168 0-.345-.158-.532-.476a8.692 8.692 0 0 1-.504-1.204 22.594 22.594 0 0 1-.476-1.568c-.15-.579-.28-1.11-.392-1.596l-.28-1.26a8.085 8.085 0 0 1-.084-.56c0-.075-.037-.27-.112-.588-.056-.317-.14-.812-.252-1.484-.093-.672-.205-1.54-.336-2.604a196.963 196.963 0 0 1-.364-4.004c0-.168.028-.383.084-.644.056-.261.187-.392.392-.392.262 0 .458.177.588.532.15.355.262.794.336 1.316.094.523.159 1.073.196 1.652.038.56.084 1.055.14 1.484.075.598.14 1.139.196 1.624.075.486.14.97.196 1.456.075.467.159.961.252 1.484.112.523.243 1.102.392 1.736l1.12 4.648zm15.483-5.011c0 .335-.16.755-.476 1.26-.3.484-.71.96-1.232 1.427a7.903 7.903 0 0 1-1.82 1.204 5.1 5.1 0 0 1-2.156.476c-.337 0-.691-.056-1.064-.168a5.1 5.1 0 0 1-1.093-.476 4.841 4.841 0 0 1-.951-.784 3.055 3.055 0 0 1-.616-1.064 3.558 3.558 0 0 0-.42.56c-.15.262-.318.532-.505.812a4.466 4.466 0 0 1-.615.7c-.224.187-.458.28-.7.28-.243 0-.448-.121-.617-.364a4.229 4.229 0 0 1-.363-.84 6 6 0 0 1-.197-.896 7.508 7.508 0 0 1-.056-.476c0-.224.066-.644.197-1.26.13-.635.326-1.288.588-1.96.26-.672.587-1.27.98-1.792.41-.523.886-.784 1.427-.784.206 0 .337.094.392.28.075.168.113.336.113.504v.84c.093.075.186.13.28.168a.633.633 0 0 1 .28.112.339.339 0 0 1 .195.196c.056.093.085.243.085.448 0 .13-.01.252-.029.364a1.423 1.423 0 0 0-.027.28c0 .486.037.962.112 1.428.074.467.224.887.447 1.26.224.355.532.653.925.896.392.224.914.336 1.567.336.822 0 1.512-.168 2.072-.504.58-.355 1.055-.737 1.428-1.148.392-.43.7-.812.925-1.148.224-.354.41-.532.56-.532.242 0 .364.121.364.364zm-9.828-1.233a.345.345 0 0 0-.056-.196.451.451 0 0 1-.056-.196.34.34 0 0 1 .056-.196.398.398 0 0 0 .055-.224c0-.056-.018-.093-.055-.112-.038-.037-.056-.075-.056-.112-.168.037-.346.196-.532.476-.168.28-.337.607-.505.98-.149.373-.27.756-.364 1.148-.093.374-.14.681-.14.924 0 .13.038.345.113.644.074.299.158.495.252.588.317-.653.606-1.288.867-1.904.28-.616.42-1.222.42-1.82z"/><path d="M43.372 71.957c-.243.28-.588.56-1.036.84-.448.261-.896.504-1.344.728l-1.176.588c-.336.15-.504.252-.504.308 0 .056.037.224.112.504.075.28.159.616.252 1.008.112.373.224.765.336 1.176.112.41.205.775.28 1.092.037.187.084.43.14.728.056.299.103.597.14.896.056.299.103.57.14.812.037.224.056.346.056.364 0 .28-.047.57-.14.868-.093.299-.243.448-.448.448a.428.428 0 0 1-.308-.14 2.017 2.017 0 0 1-.252-.308 2.06 2.06 0 0 1-.168-.364.89.89 0 0 1-.056-.252v-.168c.019-.075.028-.158.028-.252 0-.355-.056-.868-.168-1.54a14.427 14.427 0 0 0-.224-.952c-.112-.43-.224-.868-.336-1.316-.13-.523-.28-1.092-.448-1.708-.075-.261-.121-.392-.14-.392-.13 0-.355.084-.672.252-.299.15-.644.345-1.036.588-.392.224-.803.476-1.232.756-.43.261-.83.513-1.204.756-.373.224-.69.42-.952.588-.28.15-.448.224-.504.224a.75.75 0 0 1-.588-.252.823.823 0 0 1-.224-.56c0-.112.159-.27.476-.476.299-.224.681-.466 1.148-.728a34.05 34.05 0 0 1 1.484-.812 59.16 59.16 0 0 1 1.456-.756c.467-.224.85-.41 1.148-.56l.476-.224a84.107 84.107 0 0 1-.42-2.296 53.92 53.92 0 0 0-.28-1.596 16.222 16.222 0 0 1-.112-.784c0-.243.047-.42.14-.532.112-.13.233-.196.364-.196.205 0 .336.14.392.42.205 1.008.392 1.904.56 2.688.187.784.364 1.419.532 1.904.168-.037.457-.14.868-.308.41-.186.84-.383 1.288-.588.448-.205.85-.383 1.204-.532.373-.168.588-.252.644-.252.112 0 .177.037.196.112.037.075.075.14.112.196zm10.678-7.42a.48.48 0 0 1 .027.196v.308c0 .13-.046.196-.14.196a.46.46 0 0 1-.14-.028 1.076 1.076 0 0 1-.14-.056c-.336-.15-.746-.336-1.232-.56-.466-.243-.998-.364-1.596-.364-.672 0-1.213.252-1.624.756a5.532 5.532 0 0 0-.952 1.764 10.56 10.56 0 0 0-.42 1.932 17.712 17.712 0 0 0-.084 1.372c0 .206.028.532.084.98.075.43.168.877.28 1.344.112.467.243.896.392 1.288.15.373.3.607.448.7.112 0 .308-.01.588-.028.3-.019.542-.028.728-.028.318 0 .616.028.896.084.28.056.57.084.868.084h.336c.15 0 .3.01.448.028.168.019.308.056.42.112.112.037.168.093.168.168 0 .094-.065.178-.196.252-.13.075-.28.14-.448.196a4.696 4.696 0 0 1-.896.112h-.364a20.363 20.363 0 0 0-.504-.056 4.577 4.577 0 0 0-.504-.028 3.224 3.224 0 0 0-.392-.028c-.298 0-.485.037-.56.112-.056.056-.084.177-.084.364 0 .28.122.663.364 1.148.262.467.542.97.84 1.512a17 17 0 0 1 .812 1.68c.262.579.392 1.11.392 1.596 0 .094-.028.27-.084.532a4.102 4.102 0 0 1-.196.756 2.208 2.208 0 0 1-.336.7c-.149.206-.317.308-.504.308a.833.833 0 0 1-.42-.112c-.112-.093-.168-.242-.168-.448 0-.299.075-.579.224-.84.168-.261.252-.541.252-.84 0-.15-.074-.401-.224-.756a13.85 13.85 0 0 0-.504-1.176 44.033 44.033 0 0 0-.672-1.4 26.985 26.985 0 0 0-.7-1.316c-.205-.41-.382-.746-.532-1.008a5.13 5.13 0 0 0-.252-.42c-.373.13-.756.261-1.148.392-.392.13-.746.327-1.064.588-.13.13-.252.196-.364.196a.792.792 0 0 1-.532-.224.696.696 0 0 1-.224-.504c0-.205.056-.364.168-.476.131-.13.252-.224.364-.28.168-.093.43-.196.784-.308a11.2 11.2 0 0 1 1.064-.28c.131-.037.252-.065.364-.084.112-.037.168-.102.168-.196-.056-.186-.14-.43-.252-.728a38.26 38.26 0 0 1-.308-1.12c-.093-.43-.177-.905-.252-1.428a12.731 12.731 0 0 1-.112-1.736c0-.672.075-1.381.224-2.128.168-.746.42-1.428.756-2.044a4.845 4.845 0 0 1 1.316-1.54c.523-.41 1.148-.616 1.876-.616.336 0 .71.038 1.12.112.411.056.784.15 1.12.28.355.112.644.262.868.448.243.168.364.364.364.588zm6.793 14.028c0 .41-.056.803-.168 1.176a3.64 3.64 0 0 1-.448.98 2.3 2.3 0 0 1-.672.672c-.243.15-.513.224-.812.224-.523 0-.933-.15-1.232-.448a3.277 3.277 0 0 1-.7-1.036 5.474 5.474 0 0 1-.308-1.176 11.19 11.19 0 0 1-.056-.924c0-.336.047-.71.14-1.12.112-.43.252-.821.42-1.176.187-.355.392-.653.616-.896.224-.242.457-.364.7-.364a.89.89 0 0 1 .252.056c.13.037.261.093.392.168.13.075.243.168.336.28a.83.83 0 0 1 .224.392c.205.019.41.093.616.224.205.13.317.234.336.308.15.486.243.97.28 1.456.056.486.084.887.084 1.204zm-1.26-.504c0-.28-.028-.57-.084-.868a3.235 3.235 0 0 0-.336-.952.311.311 0 0 1-.14.028.62.62 0 0 1-.196-.028.25.25 0 0 0-.112-.028c-.224 0-.401.066-.532.196-.13.112-.233.27-.308.476a3.017 3.017 0 0 0-.112.616 7.794 7.794 0 0 0 0 1.344c.019.243.056.476.112.7.075.224.168.42.28.588.112.15.261.224.448.224s.345-.093.476-.28c.13-.205.233-.439.308-.7.075-.261.121-.513.14-.756.037-.261.056-.448.056-.56zm10.704-1.988c0 .13-.056.243-.168.336a1.92 1.92 0 0 1-.392.196c-.15.056-.3.103-.448.14-.15.019-.271.028-.364.028-.28 0-.467-.019-.56-.056a.646.646 0 0 0-.224-.056c-.467 0-.84.037-1.12.112a1.46 1.46 0 0 0-.672.364 1.38 1.38 0 0 0-.308.644 6.035 6.035 0 0 0-.056.896c0 .597.018 1.073.056 1.428.056.355.102.644.14.868.056.224.102.401.14.532a.746.746 0 0 1 .084.336c0 .15-.084.308-.252.476-.15.168-.29.252-.42.252-.224 0-.43-.196-.616-.588a9.971 9.971 0 0 1-.448-1.428 27.8 27.8 0 0 1-.28-1.652 9.801 9.801 0 0 1-.112-1.232c0-.317.028-.616.084-.896.056-.298.13-.55.224-.756.093-.224.196-.401.308-.532.112-.13.224-.196.336-.196.093 0 .168.037.224.112a.66.66 0 0 1 .14.224l.112.224a.269.269 0 0 0 .196.084c.168 0 .438-.084.812-.252.373-.168.83-.252 1.372-.252.504 0 .877.019 1.12.056.26.019.513.075.756.168a.553.553 0 0 1 .196.14c.093.056.14.15.14.28zm14.683 5.908c0 .15-.047.28-.14.392a1.223 1.223 0 0 1-.336.28 2.77 2.77 0 0 1-.42.14c-.13.037-.243.056-.336.056-.392 0-.728-.205-1.008-.616a7.004 7.004 0 0 1-.7-1.4 11.07 11.07 0 0 1-.42-1.456c-.075-.448-.112-.69-.112-.728-.112.206-.233.55-.364 1.036-.112.486-.252.98-.42 1.484a5.751 5.751 0 0 1-.644 1.316c-.243.374-.56.56-.952.56-.187 0-.364-.112-.532-.336a4.111 4.111 0 0 1-.476-.868c-.15-.354-.299-.756-.448-1.204-.13-.448-.27-.886-.42-1.316-.13-.43-.261-.83-.392-1.204a5.07 5.07 0 0 0-.392-.924c-.112.28-.215.663-.308 1.148-.075.486-.14.999-.196 1.54a44.375 44.375 0 0 0-.14 1.568c-.037.523-.056.98-.056 1.372 0 .261-.075.448-.224.56a.635.635 0 0 1-.42.168c-.205 0-.41-.13-.616-.392a6.696 6.696 0 0 1-.616-1.064 14.09 14.09 0 0 1-.588-1.456 53.118 53.118 0 0 1-.476-1.624 18.655 18.655 0 0 1-.308-1.54 8.876 8.876 0 0 1-.112-1.26c0-.242.01-.466.028-.672.019-.168.028-.326.028-.476a4.11 4.11 0 0 0 .028-.252c0-.056-.019-.093-.056-.112-.019-.018-.028-.065-.028-.14 0-.056.065-.14.196-.252.15-.13.299-.196.448-.196.261 0 .43.056.504.168.093.112.14.243.14.392 0 .056-.01.14-.028.252v.756c0 .261.047.654.14 1.176.093.523.205 1.055.336 1.596.13.541.261 1.046.392 1.512.15.448.27.728.364.84a.556.556 0 0 0 .056-.252 1.77 1.77 0 0 1 .056-.252l.308-2.296a8.908 8.908 0 0 1 .448-1.82c.243-.653.495-1.157.756-1.512.093-.15.196-.224.308-.224.112 0 .215.084.308.252.317.523.55 1.046.7 1.568.168.504.308 1.008.42 1.512.13.485.27.98.42 1.484.168.486.42.98.756 1.484.15-.242.336-.634.56-1.176l.672-1.68c.243-.56.467-1.045.672-1.456.205-.43.364-.644.476-.644.056 0 .15.01.28.028.13.019.224.028.28.028.168 0 .308.196.42.588.112.374.205.822.28 1.344.093.504.177 1.017.252 1.54.093.504.196.887.308 1.148.075.187.187.364.336.532.15.168.299.327.448.476l.56.504z"/></g></svg>