<svg fill="none" xmlns="http://www.w3.org/2000/svg" viewBox="0 0 31 40"><g opacity=".75" fill-rule="evenodd" clip-rule="evenodd" fill="#F3F3FA"><path d="M8.785 3.254c.229.09.368.376.31.64-.056.264-.115.527-.174.79-.518 2.314-1.036 4.624-.32 7.169 1.027 3.646 3.959 5.356 6.37 6.763l.242.141c1.424.833 2.875 1.53 4.348 2.236.464.223.93.447 1.398.677 1.943.951 3.899 1.991 5.782 3.429.873.667 1.476 1.399 1.847 2.193.372.797.493 1.619.453 2.432-.077 1.591-.774 3.207-1.432 4.677-.106.237-.362.311-.573.166a.583.583 0 01-.19-.693c.675-1.508 1.277-2.944 1.342-4.29.032-.655-.065-1.274-.34-1.864-.278-.593-.753-1.197-1.528-1.789-1.81-1.38-3.702-2.39-5.63-3.335-.455-.223-.913-.442-1.371-.663-1.48-.71-2.975-1.428-4.433-2.28l-.318-.185c-2.345-1.364-5.62-3.27-6.775-7.371-.804-2.855-.216-5.459.299-7.741.06-.267.12-.529.175-.787.057-.263.289-.404.518-.315z"/><path d="M8.837 4.213zm-.611.6c-.909 1.015-1.63 2.25-2.381 3.534l-.205.35c-.505.861-1.03 1.735-1.636 2.539l.53-.058.14-.015c.69-.075 1.507-.164 2.413-.283.076-.042.152-.086.228-.13-.588.076-1.134.104-1.532.038-.236-.039-.416-.293-.402-.569.013-.275.215-.467.45-.428.41.067 1.12.005 1.95-.136a31.174 31.174 0 002.586-.571 12.281 12.281 0 01-1.3-1.835 7.56 7.56 0 01-.643-1.414 3.963 3.963 0 01-.198-1.023zm3.135 3.973a1.687 1.687 0 01-.144-.09.34.34 0 01-.019-.016l-.006-.005a10.81 10.81 0 01-1.429-1.94 6.384 6.384 0 01-.543-1.187c-.123-.382-.165-.705-.131-.961.011-.091.027-.176.044-.267l.021-.118c.011-.063.023-.136.03-.206a.985.985 0 00-.011-.295.687.687 0 00-.114-.263.512.512 0 00-.28-.2.479.479 0 00-.36.058c-.133.075-.292.22-.477.406C6.81 4.852 5.958 6.31 5.138 7.714l-.213.365c-.72 1.227-1.437 2.398-2.333 3.356-.041.01-.08.02-.116.031a.755.755 0 00-.255.125.506.506 0 00-.168.254.59.59 0 00-.023.14 7.97 7.97 0 01-.144.123c-.184.156-.213.469-.065.7.147.23.416.291.6.136.084-.071.167-.144.248-.218 1.492.604 3.021.037 4.39-.685.108-.058.217-.117.325-.177a55.379 55.379 0 004.314-.735c.652.012 1.15.009 1.52-.008.362-.017.638-.049.814-.11a.653.653 0 00.157-.078.507.507 0 00.185-.235.64.64 0 00-.007-.468.695.695 0 00-.16-.238 1.118 1.118 0 00-.259-.181 3.313 3.313 0 00-.28-.13c-.24-.1-.565-.215-.894-.33a45.573 45.573 0 01-.512-.183.742.742 0 00-.014-.126.97.97 0 00-.204-.285.762.762 0 00-.127-.06.378.378 0 00-.095-.016c-.044 0-.082.007-.083.007a14.29 14.29 0 00-.378.098zm.03 1.072c-.183.052-.4.112-.642.176a8.2 8.2 0 00-.93.428 48.12 48.12 0 001.699-.333.352.352 0 01.081-.008l.472.007-.074-.028c-.21-.077-.418-.158-.606-.242z"/></g></svg>