<svg width="320" height="200"
 fill="none" xmlns="http://www.w3.org/2000/svg">
<path fill-rule="evenodd" clip-rule="evenodd" d="M251.299 149.208C250.6 148.012 249.622 146.191 248.248 143.593C248.119 143.349 248.212 143.046 248.456 142.917C248.7 142.788 249.003 142.881 249.132 143.125C250.508 145.727 251.476 147.529 252.163 148.703C252.505 149.288 252.769 149.705 252.974 149.983C252.979 149.934 252.984 149.88 252.989 149.823C253.01 149.557 253.025 149.242 253.043 148.877C253.046 148.799 253.05 148.719 253.054 148.637C253.077 148.174 253.105 147.65 253.154 147.09C253.35 144.869 253.882 141.981 255.817 139.871C257.783 137.727 261.088 136.499 266.568 137.365C266.841 137.408 267.027 137.664 266.984 137.937C266.941 138.21 266.685 138.396 266.412 138.353C261.142 137.52 258.222 138.729 256.554 140.547C254.854 142.4 254.342 144.999 254.15 147.178C254.103 147.718 254.075 148.226 254.053 148.686C254.049 148.765 254.045 148.842 254.042 148.918C254.024 149.284 254.008 149.62 253.985 149.903C253.959 150.231 253.919 150.555 253.83 150.792C253.786 150.908 253.703 151.08 253.533 151.197C253.327 151.339 253.095 151.335 252.909 151.263C252.75 151.202 252.618 151.092 252.514 150.989C252.405 150.88 252.291 150.741 252.172 150.581C251.935 150.259 251.648 149.804 251.299 149.208ZM252.887 150.456C252.887 150.456 252.888 150.454 252.89 150.451C252.888 150.454 252.887 150.456 252.887 150.456Z" fill="black"/>
<path fill-rule="evenodd" clip-rule="evenodd" d="M245.9 140.446C243.609 144.038 243.826 147.472 245.425 150.004C247.04 152.562 250.099 154.259 253.59 154.259C258.587 154.259 262.011 151.506 263.471 148.23C264.938 144.937 264.408 141.184 261.589 139.058C256.567 135.292 249.602 135.624 245.9 140.446ZM245.093 139.855C249.193 134.493 256.818 134.23 262.19 138.259L262.191 138.26C265.472 140.734 265.991 145.031 264.384 148.637C262.769 152.262 258.993 155.259 253.59 155.259C249.781 155.259 246.39 153.406 244.58 150.538C242.756 147.65 242.572 143.791 245.069 139.889C245.076 139.878 245.084 139.866 245.093 139.855Z" fill="black"/>
<path fill-rule="evenodd" clip-rule="evenodd" d="M273.597 120.208C272.898 119.012 271.92 117.191 270.546 114.593C270.417 114.349 270.51 114.046 270.754 113.917C270.998 113.788 271.301 113.881 271.43 114.125C272.806 116.727 273.774 118.529 274.461 119.703C274.803 120.288 275.067 120.705 275.272 120.983C275.277 120.934 275.282 120.88 275.286 120.823C275.308 120.557 275.323 120.242 275.34 119.877C275.344 119.799 275.348 119.719 275.352 119.637C275.375 119.174 275.403 118.65 275.452 118.09C275.648 115.869 276.18 112.981 278.115 110.871C280.081 108.727 283.386 107.499 288.866 108.365C289.139 108.408 289.325 108.664 289.282 108.937C289.238 109.21 288.982 109.396 288.71 109.353C283.44 108.52 280.519 109.729 278.852 111.547C277.152 113.4 276.64 115.999 276.448 118.178C276.401 118.718 276.373 119.226 276.351 119.686C276.347 119.765 276.343 119.842 276.34 119.918C276.322 120.284 276.306 120.62 276.283 120.903C276.257 121.231 276.217 121.555 276.128 121.792C276.084 121.908 276.001 122.08 275.831 122.197C275.625 122.339 275.392 122.335 275.207 122.263C275.048 122.202 274.916 122.092 274.812 121.989C274.702 121.88 274.589 121.741 274.47 121.581C274.233 121.259 273.946 120.804 273.597 120.208ZM275.185 121.456C275.185 121.456 275.186 121.454 275.187 121.451C275.186 121.454 275.185 121.456 275.185 121.456Z" fill="black"/>
<path fill-rule="evenodd" clip-rule="evenodd" d="M268.198 111.446C265.907 115.038 266.124 118.472 267.723 121.004C269.337 123.562 272.397 125.259 275.888 125.259C280.884 125.259 284.309 122.506 285.769 119.23C287.236 115.937 286.706 112.184 283.887 110.058C278.865 106.292 271.9 106.624 268.198 111.446ZM267.391 110.855C271.491 105.493 279.116 105.23 284.488 109.259L284.489 109.26C287.77 111.734 288.289 116.031 286.682 119.637C285.067 123.262 281.291 126.259 275.888 126.259C272.079 126.259 268.688 124.406 266.878 121.538C265.054 118.65 264.87 114.791 267.367 110.889C267.374 110.878 267.382 110.866 267.391 110.855Z" fill="black"/>
<path d="M193.07 63.2586C199.915 65.0301 219.838 67.9212 220.953 67.8446C226.263 60.3082 252.453 36.738 236.276 23.311C210.258 1.71722 187.985 13.5561 182.392 18.7166C175.459 25.1141 168.92 51.02 170.457 53.8282C171.995 56.6364 186.224 61.4872 193.07 63.2586Z" fill="#A2E29B"/>
<path fill-rule="evenodd" clip-rule="evenodd" d="M194.971 12.2889C204.057 9.75405 214.866 11.375 225.422 16.2286C231.793 19.1575 235.996 22.1991 238.551 25.3105C241.095 28.4078 242.018 31.5869 241.81 34.8466C241.601 38.1255 240.245 41.5237 238.159 45.0307C236.074 48.5355 233.281 52.1143 230.237 55.7523C228.9 57.349 227.514 58.9582 226.12 60.5767C221.188 66.3035 216.156 72.1461 212.874 77.9627C210.763 81.7036 209.349 85.4756 209.154 89.2434C208.959 93.0252 209.994 96.7688 212.721 100.432C212.886 100.654 213.199 100.7 213.421 100.535C213.642 100.37 213.688 100.057 213.523 99.8352C210.931 96.353 209.97 92.8376 210.153 89.295C210.337 85.7384 211.676 82.1205 213.745 78.4541C216.973 72.7327 221.914 66.9948 226.835 61.2802C228.24 59.6493 229.643 58.0203 231.003 56.3941C234.056 52.7465 236.891 49.118 239.019 45.542C241.145 41.9681 242.585 38.4117 242.808 34.9102C243.032 31.3895 242.023 27.9625 239.324 24.6758C236.636 21.4031 232.284 18.2828 225.84 15.32C215.144 10.4023 204.086 8.70794 194.703 11.3257C185.291 13.9513 177.637 20.8964 173.762 33.0928C167.877 51.6177 167.055 72.1466 173.227 90.5426C173.315 90.8044 173.598 90.9455 173.86 90.8576C174.122 90.7698 174.263 90.4863 174.175 90.2245C168.081 72.0622 168.883 51.7536 174.715 33.3956C178.497 21.4915 185.913 14.816 194.971 12.2889Z" fill="black"/>
<path d="M184.639 60.1511C198.152 65.441 204.718 66.2299 218.073 68.2267C219.708 67.9767 222.028 67.6548 221.172 66.1145C219.806 63.6566 212.829 61.2732 210.196 60.175C201.86 56.6985 200.192 56.321 191.604 53.7831C186.115 52.1611 177.655 49.3146 172.535 50.1102C170.459 50.4329 170.489 52.1059 172.04 53.5671C175.147 56.495 180.52 58.5384 184.639 60.1511Z" fill="#4DC952"/>
<path fill-rule="evenodd" clip-rule="evenodd" d="M211.861 60.3011C211.286 60.0755 210.782 59.8778 210.388 59.7136C202.854 56.5715 200.737 55.9489 194.108 53.9995C193.379 53.7853 192.597 53.555 191.746 53.3037C191.145 53.1262 190.507 52.9333 189.839 52.7317C187.474 52.017 184.744 51.1924 182.046 50.5536C178.6 49.7373 175.122 49.2023 172.459 49.6162C171.879 49.7062 171.396 49.8978 171.04 50.2C170.675 50.5098 170.47 50.9154 170.429 51.3666C170.35 52.2336 170.877 53.1583 171.697 53.9311C173.306 55.4474 175.48 56.7166 177.743 57.8031C179.862 58.8201 182.09 59.6913 184.05 60.4574C184.187 60.511 184.322 60.5641 184.457 60.6167C197.292 65.6413 203.904 66.6246 215.886 68.4066C216.092 68.4371 216.298 68.4678 216.507 68.4988C216.51 68.521 216.515 68.5433 216.521 68.5655C216.597 68.831 216.874 68.9846 217.139 68.9087C217.354 68.8473 217.672 68.7942 218.073 68.7324C218.33 68.7708 218.589 68.8096 218.85 68.8488C219.094 68.8856 219.324 68.7387 219.399 68.5116C219.883 68.4145 220.365 68.2884 220.761 68.1106C221.139 67.9412 221.529 67.6863 221.728 67.279C221.945 66.8366 221.875 66.3497 221.609 65.8716C221.207 65.1482 220.43 64.4838 219.527 63.8868C218.61 63.281 217.502 62.7063 216.37 62.1813C214.81 61.4583 213.156 60.8092 211.861 60.3011ZM218.072 67.7211C217.376 67.6171 216.699 67.5164 216.039 67.4182C204.07 65.6382 197.55 64.6685 184.821 59.6855C184.689 59.6336 184.555 59.5813 184.42 59.5286C182.455 58.7601 180.26 57.9017 178.176 56.9016C175.946 55.8313 173.881 54.6149 172.382 53.2033C171.652 52.5148 171.387 51.8724 171.425 51.457C171.442 51.2669 171.522 51.1024 171.687 50.9622C171.862 50.8142 172.153 50.6756 172.612 50.6043C175.068 50.2226 178.38 50.713 181.816 51.5266C184.481 52.1577 187.17 52.9701 189.533 53.6837C190.205 53.8869 190.851 54.082 191.462 54.2627C192.316 54.5148 193.1 54.7455 193.83 54.96C200.44 56.904 202.519 57.5153 210.003 60.6365C210.429 60.814 210.953 61.0198 211.542 61.2508C212.826 61.7543 214.416 62.3778 215.949 63.0885C217.061 63.6039 218.118 64.1545 218.976 64.7212C219.847 65.2966 220.454 65.8519 220.735 66.3574C220.897 66.6494 220.859 66.7804 220.83 66.8394C220.784 66.9335 220.652 67.0635 220.352 67.1984C219.769 67.4603 218.896 67.5951 218.072 67.7211Z" fill="black"/>
<path fill-rule="evenodd" clip-rule="evenodd" d="M219.221 63.1996C219.16 62.9302 218.892 62.7609 218.623 62.8215C217.194 63.1429 215.771 63.526 214.361 63.9056C213.7 64.0839 213.041 64.2613 212.385 64.4313C210.321 64.9665 208.266 65.4345 206.165 65.6542C205.891 65.683 205.691 65.9289 205.72 66.2035C205.749 66.4782 205.995 66.6775 206.269 66.6488C208.445 66.4212 210.557 65.9382 212.636 65.3993C213.311 65.2242 213.981 65.0439 214.647 64.8643C216.046 64.4877 217.433 64.114 218.842 63.7971C219.112 63.7366 219.281 63.469 219.221 63.1996Z" fill="black"/>
<path fill-rule="evenodd" clip-rule="evenodd" d="M211.831 60.5695C211.78 60.2981 211.519 60.1195 211.247 60.1705C206.462 61.0702 201.661 62.4735 197.026 63.8598C196.761 63.9389 196.611 64.2176 196.69 64.4821C196.769 64.7467 197.048 64.897 197.312 64.8179C201.951 63.4307 206.705 62.0421 211.432 61.1533C211.704 61.1022 211.882 60.8409 211.831 60.5695Z" fill="black"/>
<path fill-rule="evenodd" clip-rule="evenodd" d="M205.177 57.0782C205.088 56.8171 204.803 56.6781 204.542 56.7678C200.536 58.1441 196.542 59.152 192.355 59.7469C190.688 59.9838 189.077 60.3149 187.456 60.726C187.188 60.7939 187.027 61.0659 187.094 61.3335C187.162 61.6012 187.434 61.7632 187.702 61.6953C189.293 61.2917 190.869 60.9681 192.496 60.737C196.753 60.1322 200.808 59.108 204.867 57.7136C205.128 57.6238 205.267 57.3394 205.177 57.0782Z" fill="black"/>
<path fill-rule="evenodd" clip-rule="evenodd" d="M197.939 55.2022C197.883 54.932 197.617 54.759 197.347 54.8159C193.759 55.5711 190.161 56.0621 186.518 56.5592C186.087 56.6179 185.656 56.6767 185.225 56.736C183.457 56.979 181.666 57.2597 179.923 57.8249C179.661 57.91 179.517 58.192 179.602 58.4547C179.687 58.7174 179.969 58.8613 180.232 58.7761C181.883 58.2406 183.597 57.9692 185.361 57.7267C185.792 57.6675 186.223 57.6086 186.654 57.5498C190.292 57.0535 193.927 56.5576 197.553 55.7945C197.823 55.7376 197.996 55.4724 197.939 55.2022Z" fill="black"/>
<path fill-rule="evenodd" clip-rule="evenodd" d="M187.677 52.7148C187.65 52.4401 187.405 52.2396 187.13 52.2672C182.288 52.7524 177.499 53.4752 172.719 54.3408C172.448 54.39 172.267 54.6502 172.316 54.9219C172.366 55.1937 172.626 55.374 172.898 55.3248C177.658 54.4626 182.42 53.7441 187.23 53.2622C187.504 53.2346 187.705 52.9896 187.677 52.7148Z" fill="black"/>
<path fill-rule="evenodd" clip-rule="evenodd" d="M179.344 86.2578C179.513 86.5123 179.445 86.856 179.19 87.0256C178.422 87.538 177.635 88.3212 177.042 89.1119C176.747 89.5056 176.508 89.8894 176.346 90.2293C176.179 90.5803 176.115 90.8384 176.115 90.9943C176.115 91.3001 175.867 91.548 175.561 91.548C175.255 91.548 175.007 91.3001 175.007 90.9943C175.007 90.5966 175.151 90.1626 175.347 89.7523C175.548 89.3309 175.829 88.8842 176.156 88.4474C176.809 87.5771 177.683 86.6993 178.576 86.1043C178.83 85.9347 179.174 86.0034 179.344 86.2578Z" fill="black"/>
<path fill-rule="evenodd" clip-rule="evenodd" d="M174.78 78.8627C175.058 78.7368 175.386 78.8608 175.512 79.1395C176.467 81.2542 177.421 83.3759 178.332 85.5179C178.36 85.5858 178.391 85.6564 178.423 85.7294C178.587 86.1053 178.779 86.5445 178.872 87.0101C178.932 87.31 178.738 87.6016 178.438 87.6616C178.138 87.7216 177.847 87.5271 177.787 87.2273C177.719 86.889 177.584 86.5787 177.422 86.2046C177.387 86.1234 177.35 86.0393 177.312 85.9511C176.407 83.8217 175.458 81.7103 174.503 79.5951C174.377 79.3164 174.501 78.9885 174.78 78.8627Z" fill="black"/>
<path fill-rule="evenodd" clip-rule="evenodd" d="M185.231 75.3761C185.524 75.289 185.833 75.456 185.92 75.7491C186.455 77.5498 186.956 79.352 187.446 81.1604C187.526 81.4556 187.351 81.7596 187.056 81.8396C186.761 81.9195 186.457 81.745 186.377 81.4499C185.889 79.646 185.39 77.8533 184.858 76.0646C184.771 75.7715 184.938 75.4632 185.231 75.3761Z" fill="black"/>
<path fill-rule="evenodd" clip-rule="evenodd" d="M186.081 81.9862C186.087 81.6805 186.34 81.4376 186.646 81.4437C188.996 81.4907 191.585 82.2896 193.377 83.9435C193.602 84.151 193.616 84.5012 193.409 84.7259C193.201 84.9506 192.851 84.9646 192.626 84.7572C191.08 83.3298 188.774 82.5939 186.623 82.5508C186.318 82.5447 186.075 82.2919 186.081 81.9862Z" fill="black"/>
<path fill-rule="evenodd" clip-rule="evenodd" d="M197.432 76.6737C197.697 76.8271 197.787 77.1659 197.633 77.4304C196.043 80.1727 194.416 82.8909 192.784 85.6046C192.627 85.8667 192.286 85.9514 192.024 85.7938C191.762 85.6362 191.678 85.2961 191.835 85.034C193.467 82.3209 195.09 79.6091 196.675 76.8749C196.829 76.6103 197.168 76.5203 197.432 76.6737Z" fill="black"/>
<path fill-rule="evenodd" clip-rule="evenodd" d="M205.644 86.2538C205.892 86.4322 205.949 86.7782 205.771 87.0265C205.731 87.0822 205.691 87.1379 205.65 87.1936C204.225 89.1764 202.799 91.1613 201.336 93.1246C201.153 93.3698 200.806 93.4204 200.561 93.2377C200.316 93.055 200.265 92.7081 200.448 92.4629C201.905 90.5074 203.327 88.5293 204.754 86.5442C204.793 86.4896 204.832 86.4349 204.871 86.3802C205.05 86.1319 205.396 86.0753 205.644 86.2538Z" fill="black"/>
<path fill-rule="evenodd" clip-rule="evenodd" d="M210.622 84.7273C210.872 84.9027 210.933 85.2479 210.758 85.4984C209.73 86.9671 208.604 88.3818 207.495 89.7765C207.19 90.1596 206.886 90.5411 206.586 90.9219C206.397 91.1621 206.049 91.2034 205.809 91.0141C205.569 90.8249 205.527 90.4768 205.717 90.2366C206.024 89.8465 206.332 89.4588 206.64 89.072C207.746 87.6811 208.844 86.3015 209.85 84.8634C210.026 84.6129 210.371 84.552 210.622 84.7273Z" fill="black"/>
<path fill-rule="evenodd" clip-rule="evenodd" d="M205.929 90.5745C206.161 90.3752 206.51 90.4015 206.71 90.6334C207.765 91.8615 208.425 93.3087 209.05 94.6797C209.128 94.8517 209.206 95.0226 209.284 95.1917C209.412 95.4694 209.291 95.7983 209.013 95.9264C208.736 96.0546 208.407 95.9334 208.279 95.6558C208.199 95.4828 208.12 95.311 208.042 95.1406C207.409 93.753 206.816 92.456 205.87 91.3553C205.671 91.1234 205.697 90.7738 205.929 90.5745Z" fill="black"/>
<path fill-rule="evenodd" clip-rule="evenodd" d="M200.034 91.362C200.29 91.1943 200.633 91.2656 200.801 91.5213C200.883 91.6466 200.967 91.7739 201.052 91.9029C202.402 93.9529 204.056 96.4623 204.349 99.1C204.382 99.4039 204.163 99.6776 203.86 99.7114C203.556 99.7452 203.282 99.5262 203.248 99.2223C202.986 96.86 201.474 94.5607 200.084 92.4476C200.014 92.3408 199.944 92.2345 199.875 92.1286C199.707 91.873 199.779 91.5297 200.034 91.362Z" fill="black"/>
<path fill-rule="evenodd" clip-rule="evenodd" d="M202.969 99.1295C202.986 98.8242 203.248 98.5909 203.553 98.6083C205.89 98.7419 208.204 98.9741 210.521 99.3051C210.823 99.3483 211.034 99.6288 210.99 99.9315C210.947 100.234 210.667 100.445 210.364 100.401C208.078 100.075 205.796 99.8456 203.49 99.7139C203.185 99.6964 202.951 99.4348 202.969 99.1295Z" fill="black"/>
<path fill-rule="evenodd" clip-rule="evenodd" d="M211.571 97.6388C211.876 97.6503 212.115 97.9074 212.103 98.2129C211.988 101.26 211.688 104.304 211.39 107.329C211.251 108.733 211.113 110.133 210.994 111.527C210.968 111.832 210.7 112.058 210.395 112.032C210.091 112.006 209.865 111.738 209.891 111.433C210.012 110.007 210.152 108.591 210.291 107.179C210.588 104.172 210.883 101.185 210.996 98.1713C211.008 97.8657 211.265 97.6273 211.571 97.6388Z" fill="black"/>
<path fill-rule="evenodd" clip-rule="evenodd" d="M203.807 110.14C203.859 109.839 204.145 109.637 204.446 109.689C206.87 110.108 209.318 110.306 211.798 110.507L211.871 110.513C212.176 110.538 212.403 110.805 212.379 111.11C212.354 111.414 212.087 111.642 211.782 111.617L211.686 111.609C209.221 111.409 206.731 111.207 204.258 110.78C203.957 110.728 203.754 110.441 203.807 110.14Z" fill="black"/>
<path fill-rule="evenodd" clip-rule="evenodd" d="M204.636 107.209C204.931 107.289 205.105 107.594 205.025 107.889C204.628 109.343 203.898 110.62 203.117 111.819C202.851 112.228 202.582 112.623 202.317 113.013C201.789 113.789 201.275 114.545 200.82 115.351C200.67 115.617 200.332 115.712 200.066 115.561C199.8 115.411 199.705 115.074 199.856 114.807C200.332 113.962 200.892 113.138 201.436 112.338C201.695 111.958 201.949 111.584 202.19 111.215C202.952 110.045 203.606 108.883 203.956 107.597C204.037 107.302 204.341 107.128 204.636 107.209Z" fill="black"/>
<path fill-rule="evenodd" clip-rule="evenodd" d="M199.351 113.78C199.609 113.617 199.951 113.695 200.114 113.953C200.56 114.661 200.971 115.432 201.374 116.185C201.574 116.56 201.771 116.93 201.97 117.286C202.582 118.384 203.226 119.399 204.051 120.224C204.268 120.441 204.268 120.791 204.051 121.007C203.835 121.224 203.485 121.224 203.268 121.007C202.333 120.071 201.628 118.948 201.002 117.825C200.782 117.43 200.574 117.04 200.37 116.657C199.98 115.926 199.603 115.219 199.177 114.544C199.014 114.285 199.092 113.943 199.351 113.78Z" fill="black"/>
<path fill-rule="evenodd" clip-rule="evenodd" d="M191.047 117.039C191.34 116.953 191.648 117.122 191.734 117.415C192.368 119.584 192.953 121.759 193.537 123.933C193.616 124.228 193.441 124.532 193.145 124.611C192.85 124.69 192.546 124.515 192.467 124.22C191.883 122.045 191.301 119.881 190.671 117.726C190.585 117.433 190.754 117.125 191.047 117.039Z" fill="black"/>
<path fill-rule="evenodd" clip-rule="evenodd" d="M202.763 120.076C202.908 120.346 202.808 120.681 202.538 120.826C201.09 121.606 199.63 122.363 198.172 123.117C198.102 123.154 198.032 123.19 197.962 123.226C196.574 123.944 195.19 124.661 193.817 125.395C193.547 125.539 193.211 125.437 193.067 125.168C192.923 124.898 193.025 124.563 193.294 124.418C194.675 123.68 196.065 122.961 197.451 122.244C197.522 122.207 197.593 122.171 197.664 122.134C199.121 121.38 200.574 120.626 202.013 119.851C202.283 119.706 202.618 119.807 202.763 120.076Z" fill="black"/>
<path fill-rule="evenodd" clip-rule="evenodd" d="M207.951 119.508C206.571 119.508 204.984 120.125 203.599 120.711C203.317 120.83 202.992 120.698 202.873 120.416C202.754 120.134 202.886 119.81 203.168 119.691C204.523 119.118 206.313 118.401 207.951 118.401C208.257 118.401 208.505 118.649 208.505 118.955C208.505 119.261 208.257 119.508 207.951 119.508Z" fill="black"/>
<path fill-rule="evenodd" clip-rule="evenodd" d="M203.965 112.508C204.238 112.371 204.571 112.481 204.708 112.754C205.041 113.415 205.382 114.081 205.725 114.75C206.165 115.608 206.606 116.468 207.032 117.324C207.05 117.36 207.068 117.397 207.087 117.435C207.25 117.758 207.437 118.13 207.525 118.57C207.585 118.869 207.39 119.161 207.091 119.221C206.791 119.281 206.499 119.087 206.439 118.787C206.382 118.501 206.263 118.264 206.092 117.92C206.075 117.887 206.058 117.853 206.04 117.817C205.613 116.959 205.181 116.116 204.747 115.269C204.405 114.602 204.062 113.932 203.719 113.252C203.582 112.979 203.692 112.646 203.965 112.508Z" fill="black"/>
<path fill-rule="evenodd" clip-rule="evenodd" d="M206.801 110.01C207.078 110.139 207.198 110.468 207.069 110.745C206.735 111.46 206.323 112.119 205.931 112.745L205.929 112.747C205.532 113.382 205.155 113.983 204.853 114.623C204.722 114.9 204.392 115.018 204.116 114.888C203.839 114.757 203.721 114.427 203.851 114.151C204.182 113.45 204.588 112.802 204.974 112.185C204.98 112.176 204.986 112.166 204.992 112.157C205.389 111.522 205.765 110.92 206.065 110.277C206.194 110 206.524 109.88 206.801 110.01Z" fill="black"/>
<path fill-rule="evenodd" clip-rule="evenodd" d="M215.493 108.441C215.643 108.708 215.548 109.046 215.281 109.195C214.865 109.428 214.451 109.654 214.04 109.879C213.057 110.415 212.09 110.944 211.153 111.534C210.894 111.697 210.552 111.619 210.389 111.36C210.226 111.101 210.304 110.759 210.563 110.596C211.531 109.987 212.545 109.433 213.541 108.889C213.945 108.668 214.346 108.449 214.74 108.229C215.007 108.079 215.344 108.175 215.493 108.441Z" fill="black"/>
<path fill-rule="evenodd" clip-rule="evenodd" d="M215.54 96.4163C215.756 96.6325 215.756 96.9831 215.54 97.1993C214.661 98.0783 213.635 98.8302 212.651 99.5501C212.247 99.8463 211.85 100.137 211.474 100.429C211.232 100.616 210.885 100.572 210.697 100.331C210.51 100.089 210.554 99.7414 210.795 99.554C211.225 99.2206 211.653 98.9075 212.073 98.5996C213.026 97.9026 213.941 97.2325 214.757 96.4163C214.973 96.2001 215.324 96.2001 215.54 96.4163Z" fill="black"/>
<path fill-rule="evenodd" clip-rule="evenodd" d="M209.37 95.102C209.548 95.3508 209.491 95.6966 209.242 95.8744C208.806 96.1856 208.369 96.5094 207.927 96.8365C206.739 97.7165 205.519 98.6202 204.211 99.3653C203.945 99.5167 203.607 99.4241 203.456 99.1584C203.304 98.8927 203.397 98.5546 203.663 98.4032C204.909 97.6933 206.048 96.8496 207.217 95.9834C207.67 95.6479 208.128 95.309 208.598 94.9733C208.847 94.7956 209.193 94.8532 209.37 95.102Z" fill="black"/>
<path fill-rule="evenodd" clip-rule="evenodd" d="M207.967 96.12C208.042 95.8233 208.342 95.6429 208.639 95.7171C210.084 96.0783 211.546 96.2788 213.055 96.442C213.133 96.4504 213.213 96.4576 213.296 96.4651C213.671 96.4988 214.092 96.5366 214.524 96.7091C214.808 96.8227 214.946 97.1449 214.832 97.4288C214.719 97.7127 214.396 97.8508 214.113 97.7372C213.844 97.6299 213.614 97.6083 213.26 97.575C213.162 97.5659 213.056 97.5559 212.936 97.5429C211.41 97.378 209.889 97.171 208.37 96.7914C208.074 96.7172 207.893 96.4166 207.967 96.12Z" fill="black"/>
<path fill-rule="evenodd" clip-rule="evenodd" d="M215.035 95.9779C215.34 95.9918 215.577 96.2506 215.563 96.5561C215.509 97.7443 215.465 99.0547 215.42 100.418C215.308 103.784 215.185 107.472 214.869 110.432C214.836 110.736 214.563 110.956 214.259 110.923C213.955 110.891 213.735 110.618 213.768 110.314C214.079 107.397 214.2 103.781 214.311 100.43C214.357 99.055 214.401 97.7247 214.457 96.5058C214.471 96.2004 214.729 95.964 215.035 95.9779Z" fill="black"/>
<path fill-rule="evenodd" clip-rule="evenodd" d="M211.491 84.1028C211.628 84.3763 211.517 84.7089 211.244 84.8456C209.004 85.9654 206.212 87.0826 204.527 87.644C204.237 87.7407 203.924 87.584 203.827 87.2939C203.73 87.0038 203.887 86.6902 204.177 86.5935C205.815 86.0476 208.559 84.9501 210.749 83.8552C211.022 83.7185 211.355 83.8293 211.491 84.1028Z" fill="black"/>
<path fill-rule="evenodd" clip-rule="evenodd" d="M196.624 77.8685C196.841 77.6522 197.191 77.6522 197.407 77.8685C197.553 78.0137 197.698 78.159 197.843 78.3044C200.47 80.9287 203.116 83.573 205.475 86.494C205.667 86.7319 205.63 87.0805 205.392 87.2726C205.154 87.4647 204.805 87.4277 204.613 87.1898C202.292 84.3162 199.685 81.7104 197.049 79.0759C196.907 78.9345 196.766 78.7931 196.624 78.6515C196.408 78.4353 196.408 78.0847 196.624 77.8685Z" fill="black"/>
<path fill-rule="evenodd" clip-rule="evenodd" d="M201.192 75.6536C201.408 75.4374 201.759 75.4374 201.975 75.6536C203.369 77.0475 205.038 78.8558 206.628 80.5841C206.715 80.6789 206.802 80.7735 206.889 80.8677C208.388 82.4976 209.797 84.029 210.834 85.066C211.05 85.2823 211.05 85.6328 210.834 85.8491C210.618 86.0653 210.267 86.0653 210.051 85.8491C208.997 84.7949 207.573 83.2475 206.083 81.6271C205.993 81.5296 205.903 81.4318 205.813 81.3338C204.219 79.6016 202.567 77.8111 201.192 76.4366C200.976 76.2204 200.976 75.8698 201.192 75.6536Z" fill="black"/>
<path fill-rule="evenodd" clip-rule="evenodd" d="M202.751 75.8988C202.908 76.161 202.823 76.5011 202.561 76.6584C200.793 77.7191 199.022 78.4942 197.031 79.0687C196.737 79.1535 196.43 78.9841 196.346 78.6903C196.261 78.3965 196.43 78.0896 196.724 78.0048C198.622 77.4572 200.305 76.7207 201.991 75.7089C202.253 75.5515 202.593 75.6366 202.751 75.8988Z" fill="black"/>
<path fill-rule="evenodd" clip-rule="evenodd" d="M189.148 73.2893C189.447 73.2252 189.742 73.4156 189.806 73.7146C190.261 75.8377 190.594 77.9882 190.919 80.1142C190.965 80.4164 190.758 80.6989 190.456 80.7452C190.153 80.7914 189.871 80.5838 189.825 80.2816C189.499 78.1524 189.17 76.033 188.723 73.9467C188.659 73.6477 188.849 73.3533 189.148 73.2893Z" fill="black"/>
<path fill-rule="evenodd" clip-rule="evenodd" d="M189.553 80.2235C189.615 79.9242 189.908 79.7319 190.208 79.7942C190.33 79.8195 190.456 79.8448 190.585 79.8706C191.196 79.9931 191.876 80.1293 192.501 80.3523C193.272 80.6274 194.029 81.0556 194.563 81.8182C194.738 82.0687 194.677 82.4139 194.427 82.5893C194.176 82.7646 193.831 82.7037 193.656 82.4532C193.301 81.9473 192.779 81.6271 192.129 81.3953C191.587 81.2019 191.004 81.0846 190.395 80.9623C190.259 80.9349 190.121 80.9072 189.982 80.8783C189.683 80.8161 189.491 80.5229 189.553 80.2235Z" fill="black"/>
<path fill-rule="evenodd" clip-rule="evenodd" d="M186.617 76.3222C186.693 76.6183 186.515 76.9202 186.219 76.9967C182.095 78.0609 177.824 79.2406 173.99 80.9789C173.712 81.1052 173.384 80.9818 173.257 80.7033C173.131 80.4248 173.255 80.0967 173.533 79.9704C177.463 78.1882 181.819 76.9886 185.943 75.9244C186.239 75.848 186.541 76.0261 186.617 76.3222Z" fill="black"/>
<path fill-rule="evenodd" clip-rule="evenodd" d="M180.936 73.9927C181.152 74.209 181.152 74.5595 180.936 74.7757C180.196 75.5151 179.495 76.2487 178.808 76.9664C177.475 78.3609 176.199 79.695 174.816 80.893C174.585 81.0933 174.236 81.0683 174.035 80.8372C173.835 80.6062 173.86 80.2565 174.091 80.0562C175.436 78.8903 176.65 77.6211 177.958 76.2527C178.651 75.5271 179.372 74.7736 180.153 73.9927C180.369 73.7765 180.719 73.7765 180.936 73.9927Z" fill="black"/>
<path fill-rule="evenodd" clip-rule="evenodd" d="M190.505 73.7574C190.546 74.0605 190.333 74.339 190.03 74.3794C188.584 74.5722 186.528 74.983 184.398 75.4196C184.137 75.4731 183.875 75.5271 183.613 75.581C181.749 75.9642 179.888 76.3468 178.421 76.5914C178.119 76.6417 177.834 76.4379 177.783 76.1363C177.733 75.8347 177.937 75.5494 178.238 75.4991C179.684 75.2583 181.521 74.8804 183.389 74.4965C183.651 74.4426 183.914 74.3886 184.176 74.3348C186.295 73.9003 188.392 73.4807 189.883 73.2818C190.187 73.2414 190.465 73.4543 190.505 73.7574Z" fill="black"/>
<path fill-rule="evenodd" clip-rule="evenodd" d="M189.717 73.2344C189.893 73.4842 189.834 73.8297 189.584 74.006C188.064 75.0785 186.727 76.3505 185.361 77.6869C185.142 77.9007 184.791 77.8967 184.578 77.6781C184.364 77.4594 184.368 77.1089 184.586 76.8951C185.953 75.5591 187.346 74.2303 188.945 73.1014C189.195 72.925 189.54 72.9846 189.717 73.2344Z" fill="black"/>
<path fill-rule="evenodd" clip-rule="evenodd" d="M166.704 90.3937C166.73 90.089 166.998 89.8631 167.303 89.889C167.574 89.9121 167.859 89.9367 168.156 89.9624C170.546 90.1694 173.678 90.4407 176.115 90.4407C176.421 90.4407 176.668 90.6886 176.668 90.9943C176.668 91.3001 176.421 91.548 176.115 91.548C173.626 91.548 170.441 91.272 168.059 91.0656C167.762 91.0398 167.478 91.0152 167.209 90.9923C166.904 90.9664 166.678 90.6984 166.704 90.3937Z" fill="black"/>
<path fill-rule="evenodd" clip-rule="evenodd" d="M168.363 88.7795C168.058 88.7795 167.81 89.0274 167.81 89.3332V101.514C167.81 101.82 168.058 102.068 168.363 102.068C168.669 102.068 168.917 101.82 168.917 101.514V89.3332C168.917 89.0274 168.669 88.7795 168.363 88.7795Z" fill="black"/>
<path fill-rule="evenodd" clip-rule="evenodd" d="M171.676 101.297C170.438 101.277 169.228 101.259 168.392 101.302C168.086 101.318 167.826 101.083 167.81 100.777C167.795 100.472 168.03 100.212 168.335 100.196C169.217 100.151 170.47 100.17 171.694 100.19C171.735 100.19 171.776 100.191 171.817 100.192C173.013 100.211 174.173 100.23 174.984 100.196C175.29 100.183 175.548 100.42 175.561 100.726C175.573 101.031 175.336 101.289 175.031 101.302C174.186 101.338 172.998 101.318 171.822 101.299C171.773 101.298 171.725 101.298 171.676 101.297Z" fill="black"/>
<path fill-rule="evenodd" clip-rule="evenodd" d="M174.688 99.5778C174.993 99.5544 175.259 99.7825 175.283 100.087C175.42 101.868 175.638 103.219 176.071 104.408C176.5 105.588 177.15 106.635 178.187 107.788C178.392 108.015 178.373 108.365 178.146 108.57C177.919 108.774 177.569 108.756 177.364 108.528C176.25 107.291 175.516 106.124 175.03 104.787C174.547 103.458 174.318 101.991 174.179 100.172C174.155 99.8675 174.383 99.6013 174.688 99.5778Z" fill="black"/>
<path fill-rule="evenodd" clip-rule="evenodd" d="M178.675 106.618C178.914 106.809 178.953 107.158 178.762 107.396C177.86 108.525 176.925 109.634 175.992 110.735C175.914 110.827 175.836 110.919 175.758 111.011C174.902 112.02 174.05 113.025 173.222 114.044C173.03 114.281 172.681 114.317 172.444 114.124C172.206 113.932 172.17 113.583 172.363 113.346C173.198 112.318 174.058 111.304 174.912 110.296C174.99 110.203 175.069 110.111 175.147 110.019C176.08 108.917 177.006 107.82 177.897 106.705C178.088 106.466 178.436 106.427 178.675 106.618Z" fill="black"/>
<path fill-rule="evenodd" clip-rule="evenodd" d="M172.982 111.479C173.212 111.277 173.561 111.301 173.763 111.531C174.662 112.558 175.544 113.599 176.423 114.636L176.475 114.697C177.337 115.715 178.196 116.729 179.069 117.729C179.666 118.412 180.199 118.973 180.876 119.481C181.121 119.664 181.17 120.011 180.987 120.256C180.803 120.501 180.456 120.55 180.212 120.367C179.442 119.789 178.848 119.159 178.235 118.458C177.356 117.451 176.492 116.431 175.632 115.415L175.578 115.352C174.699 114.313 173.822 113.279 172.93 112.26C172.728 112.03 172.751 111.68 172.982 111.479Z" fill="black"/>
<path fill-rule="evenodd" clip-rule="evenodd" d="M186.341 113.588C186.553 113.808 186.547 114.158 186.326 114.37C185.476 115.189 184.62 116.032 183.762 116.877C182.727 117.896 181.688 118.918 180.649 119.909C180.428 120.12 180.078 120.112 179.866 119.89C179.655 119.669 179.664 119.319 179.885 119.108C180.932 118.109 181.949 117.108 182.969 116.103C183.823 115.262 184.68 114.419 185.558 113.573C185.779 113.361 186.129 113.367 186.341 113.588Z" fill="black"/>
<path fill-rule="evenodd" clip-rule="evenodd" d="M184.822 114.452C185.015 114.215 185.364 114.18 185.601 114.373C186.453 115.07 187.491 115.899 188.596 116.508C189.709 117.122 190.81 117.467 191.803 117.301C192.105 117.251 192.39 117.455 192.441 117.756C192.491 118.058 192.287 118.343 191.985 118.394C190.627 118.62 189.256 118.137 188.061 117.478C186.858 116.814 185.749 115.925 184.9 115.231C184.663 115.038 184.628 114.689 184.822 114.452Z" fill="black"/>
<path fill-rule="evenodd" clip-rule="evenodd" d="M185.776 119.195C185.872 119.485 185.715 119.799 185.425 119.895C183.762 120.45 182.143 120.629 180.446 120.753C180.141 120.775 179.876 120.546 179.853 120.241C179.831 119.936 180.06 119.671 180.365 119.649C182.042 119.526 183.548 119.354 185.075 118.845C185.365 118.748 185.679 118.905 185.776 119.195Z" fill="black"/>
<path fill-rule="evenodd" clip-rule="evenodd" d="M188.147 116.632C188.206 116.932 188.012 117.223 187.712 117.283C187.544 117.317 187.358 117.423 187.156 117.629C186.954 117.835 186.762 118.116 186.583 118.444C186.254 119.047 186.008 119.73 185.822 120.247C185.805 120.296 185.788 120.343 185.771 120.389C185.667 120.677 185.35 120.825 185.062 120.721C184.775 120.617 184.626 120.3 184.73 120.012C184.746 119.967 184.763 119.919 184.782 119.869C184.964 119.36 185.238 118.596 185.611 117.913C185.818 117.536 186.066 117.16 186.365 116.855C186.663 116.55 187.038 116.289 187.495 116.197C187.795 116.137 188.087 116.332 188.147 116.632Z" fill="black"/>
<path fill-rule="evenodd" clip-rule="evenodd" d="M173.153 85.5908C173.385 85.7898 173.412 86.1394 173.213 86.3715C171.824 87.9923 170.4 89.5863 168.699 90.8812C168.455 91.0664 168.108 91.0192 167.923 90.7758C167.737 90.5325 167.785 90.1851 168.028 89.9999C169.627 88.7832 170.984 87.2704 172.372 85.6509C172.571 85.4187 172.921 85.3918 173.153 85.5908Z" fill="black"/>
<path fill-rule="evenodd" clip-rule="evenodd" d="M168.93 87.0015C168.994 86.7027 169.289 86.5129 169.588 86.5776C170.852 86.8513 173.786 87.2623 175.684 87.5281C176.097 87.5859 176.46 87.6369 176.747 87.678C177.05 87.7215 177.26 88.0021 177.217 88.3047C177.173 88.6074 176.893 88.8176 176.59 88.7741C176.315 88.7347 175.963 88.6853 175.559 88.6289C173.669 88.3642 170.664 87.9435 169.354 87.6599C169.055 87.5951 168.865 87.3004 168.93 87.0015Z" fill="black"/>
<path fill-rule="evenodd" clip-rule="evenodd" d="M182.619 92.1016C182.925 92.1016 183.173 92.3494 183.173 92.6552C183.173 95.163 183.068 97.1137 182.965 98.9839C182.962 99.0377 182.959 99.0915 182.956 99.1452C182.855 100.957 182.759 102.702 182.759 104.836C182.759 105.142 182.511 105.39 182.205 105.39C181.899 105.39 181.651 105.142 181.651 104.836C181.651 102.671 181.75 100.899 181.85 99.0909C181.853 99.0348 181.856 98.9788 181.859 98.9226C181.963 97.0555 182.065 95.1305 182.065 92.6552C182.065 92.3494 182.313 92.1016 182.619 92.1016Z" fill="black"/>
<path fill-rule="evenodd" clip-rule="evenodd" d="M181.144 101.932C181.372 101.728 181.722 101.748 181.926 101.976C183.901 104.185 185.924 106.331 188.112 108.3C188.34 108.505 188.358 108.855 188.153 109.082C187.949 109.31 187.599 109.328 187.371 109.123C185.14 107.115 183.086 104.935 181.1 102.714C180.896 102.486 180.916 102.136 181.144 101.932Z" fill="black"/>
<path fill-rule="evenodd" clip-rule="evenodd" d="M197.133 106.345C197.217 106.639 197.047 106.946 196.753 107.03C192.85 108.145 190.056 108.703 186.159 109.26C185.856 109.303 185.576 109.093 185.533 108.79C185.489 108.487 185.7 108.207 186.003 108.164C189.857 107.613 192.6 107.064 196.449 105.965C196.743 105.881 197.049 106.051 197.133 106.345Z" fill="black"/>
<path fill-rule="evenodd" clip-rule="evenodd" d="M197.792 95.9838C198.094 96.0303 198.302 96.313 198.255 96.6152C197.991 98.3354 197.674 100.046 197.36 101.748C197.296 102.093 197.232 102.438 197.169 102.783C196.793 104.829 196.435 106.866 196.181 108.918C196.144 109.222 195.867 109.437 195.564 109.4C195.26 109.362 195.045 109.086 195.082 108.782C195.341 106.696 195.704 104.632 196.08 102.583C196.144 102.235 196.208 101.888 196.272 101.542C196.586 99.8406 196.899 98.149 197.161 96.4469C197.207 96.1446 197.49 95.9373 197.792 95.9838Z" fill="black"/>
<path fill-rule="evenodd" clip-rule="evenodd" d="M188.767 89.4651C189 89.267 189.35 89.2954 189.548 89.5284C190.537 90.6924 191.541 91.8514 192.547 93.0126C194.48 95.2437 196.42 97.483 198.277 99.782C198.469 100.02 198.432 100.368 198.194 100.561C197.956 100.753 197.608 100.716 197.416 100.478C195.57 98.1925 193.653 95.9799 191.728 93.7587C190.719 92.5939 189.708 91.4268 188.704 90.2455C188.506 90.0125 188.534 89.6631 188.767 89.4651Z" fill="black"/>
<path fill-rule="evenodd" clip-rule="evenodd" d="M192.676 90.6288C192.802 90.9077 192.677 91.2355 192.399 91.361C188.9 92.9353 185.274 94.148 181.67 95.3531C181.215 95.5053 180.76 95.6575 180.305 95.8102C180.016 95.9077 179.702 95.7517 179.604 95.4619C179.507 95.172 179.663 94.8581 179.953 94.7606C180.408 94.6074 180.864 94.455 181.319 94.3029C184.928 93.0956 188.5 91.9011 191.944 90.3511C192.223 90.2257 192.551 90.35 192.676 90.6288Z" fill="black"/>
<path fill-rule="evenodd" clip-rule="evenodd" d="M187.188 92.1016C187.494 92.1016 187.742 92.3494 187.742 92.6552V101.514C187.742 101.82 187.494 102.068 187.188 102.068C186.882 102.068 186.635 101.82 186.635 101.514V92.6552C186.635 92.3494 186.882 92.1016 187.188 92.1016Z" fill="black"/>
<path fill-rule="evenodd" clip-rule="evenodd" d="M186.376 101.128C186.589 100.909 186.939 100.904 187.159 101.117C189 102.904 190.381 104.012 192.144 105.426C192.607 105.797 193.097 106.19 193.628 106.621C193.865 106.814 193.901 107.163 193.708 107.4C193.515 107.637 193.167 107.673 192.929 107.481C192.409 107.058 191.927 106.671 191.467 106.302C189.696 104.882 188.269 103.738 186.387 101.911C186.168 101.698 186.163 101.348 186.376 101.128Z" fill="black"/>
<path fill-rule="evenodd" clip-rule="evenodd" d="M188.383 100.267C188.614 100.468 188.637 100.818 188.435 101.048C187.598 102.006 186.318 102.543 185.071 102.903C184.278 103.133 183.42 103.309 182.655 103.466C182.234 103.552 181.841 103.633 181.503 103.714C181.205 103.785 180.907 103.601 180.836 103.303C180.765 103.006 180.949 102.707 181.246 102.636C181.655 102.539 182.079 102.453 182.514 102.364C183.242 102.215 184.001 102.06 184.763 101.84C185.962 101.493 186.982 101.028 187.602 100.319C187.803 100.089 188.153 100.066 188.383 100.267Z" fill="black"/>
<path fill-rule="evenodd" clip-rule="evenodd" d="M190.578 79.6509C190.728 79.9178 190.632 80.2551 190.365 80.4043C189.24 81.0331 188.145 81.6478 187.068 82.327C186.81 82.4902 186.468 82.4129 186.305 82.1543C186.142 81.8957 186.219 81.5538 186.477 81.3906C187.582 80.6933 188.702 80.0651 189.825 79.4376C190.092 79.2885 190.429 79.3839 190.578 79.6509Z" fill="black"/>
<path fill-rule="evenodd" clip-rule="evenodd" d="M207.482 89.9269C207.613 90.2032 207.495 90.5334 207.219 90.6643C205.05 91.6915 202.823 92.697 200.511 93.4582C200.221 93.5538 199.908 93.3959 199.812 93.1054C199.716 92.815 199.874 92.502 200.165 92.4064C202.408 91.6678 204.584 90.6874 206.745 89.6635C207.021 89.5326 207.352 89.6505 207.482 89.9269Z" fill="black"/>
<path fill-rule="evenodd" clip-rule="evenodd" d="M205.519 79.6684C205.609 79.9296 205.469 80.2139 205.208 80.3033L200.365 81.9603C200.103 82.0496 199.819 81.9103 199.73 81.649C199.64 81.3877 199.78 81.1035 200.041 81.0141L204.884 79.3571C205.146 79.2677 205.43 79.4071 205.519 79.6684Z" fill="black"/>
<path fill-rule="evenodd" clip-rule="evenodd" d="M208.827 82.5812C208.926 82.8388 208.798 83.1282 208.54 83.2278L202.932 85.3946C202.675 85.4941 202.385 85.366 202.286 85.1084C202.186 84.8508 202.314 84.5613 202.572 84.4618L208.18 82.295C208.438 82.1954 208.727 82.3236 208.827 82.5812Z" fill="black"/>
<path fill-rule="evenodd" clip-rule="evenodd" d="M187.162 96.611C187.256 96.8705 187.122 97.1574 186.863 97.2518C185.81 97.6346 184.704 97.8783 183.641 98.1128C183.375 98.1714 183.112 98.2294 182.853 98.2889C182.584 98.3506 182.315 98.1825 182.254 97.9134C182.192 97.6442 182.36 97.376 182.629 97.3142C182.907 97.2504 183.183 97.1895 183.457 97.1291C184.513 96.8958 185.537 96.67 186.521 96.312C186.781 96.2176 187.068 96.3515 187.162 96.611Z" fill="black"/>
<path fill-rule="evenodd" clip-rule="evenodd" d="M190.744 104.174C190.815 104.441 190.656 104.715 190.389 104.785C188.719 105.226 187.078 105.668 185.44 106.181C185.176 106.264 184.896 106.117 184.813 105.853C184.731 105.59 184.877 105.309 185.141 105.227C186.803 104.706 188.463 104.26 190.133 103.818C190.4 103.748 190.674 103.907 190.744 104.174Z" fill="black"/>
<path fill-rule="evenodd" clip-rule="evenodd" d="M205.356 113.236C205.49 113.478 205.403 113.782 205.162 113.916C203.623 114.771 202.032 114.99 200.416 115.211C200.326 115.224 200.235 115.236 200.144 115.249C199.871 115.287 199.618 115.096 199.58 114.822C199.542 114.549 199.733 114.296 200.007 114.258C200.081 114.248 200.155 114.238 200.229 114.228C201.887 113.999 203.306 113.803 204.676 113.042C204.917 112.908 205.222 112.995 205.356 113.236Z" fill="black"/>
<path fill-rule="evenodd" clip-rule="evenodd" d="M215.234 102.695C215.418 102.902 215.399 103.218 215.193 103.401C214.23 104.256 213.082 104.814 212.006 105.337C211.882 105.397 211.76 105.456 211.639 105.516C211.391 105.637 211.092 105.535 210.97 105.287C210.849 105.039 210.951 104.739 211.199 104.618C211.321 104.558 211.441 104.499 211.562 104.441C212.655 103.908 213.676 103.412 214.528 102.654C214.735 102.47 215.051 102.489 215.234 102.695Z" fill="black"/>
<path fill-rule="evenodd" clip-rule="evenodd" d="M183.771 75.3146C183.942 75.5318 183.904 75.8461 183.687 76.0167C182.677 76.8101 181.663 77.5793 180.608 78.326C180.382 78.4855 180.07 78.432 179.911 78.2066C179.751 77.9811 179.805 77.6691 180.03 77.5096C181.068 76.7754 182.068 76.0171 183.069 75.2304C183.286 75.0598 183.601 75.0975 183.771 75.3146Z" fill="black"/>
<path fill-rule="evenodd" clip-rule="evenodd" d="M96.9249 150.087C96.9682 150.353 96.9005 150.611 96.7847 150.842C95.8666 152.678 93.844 154.154 91.7301 155.294C89.5957 156.445 87.2714 157.304 85.6376 157.867C83.203 158.705 81.0364 159.407 79.0559 159.996C80.4173 160.167 81.7778 160.212 82.8741 160.249C83.3806 160.265 83.8307 160.28 84.1984 160.305C93.2996 160.915 102.496 161.091 111.609 160.778C116.751 160.602 120.579 160.233 124.075 159.896C125.187 159.789 126.265 159.685 127.342 159.591C131.807 159.203 136.207 158.999 142.74 159.502C143.016 159.523 143.222 159.763 143.201 160.039C143.179 160.314 142.939 160.52 142.664 160.499C136.197 160.001 131.853 160.203 127.428 160.588C126.365 160.68 125.295 160.783 124.188 160.89C120.687 161.227 116.82 161.6 111.644 161.778C102.494 162.092 93.2645 161.915 84.1316 161.303C83.8136 161.281 83.3995 161.268 82.9198 161.252C81.6389 161.209 79.8902 161.151 78.2544 160.892C77.7917 160.819 77.3301 160.729 76.8825 160.616C73.3498 161.581 70.3813 162.16 67.4074 162.506C62.9649 163.022 58.5181 163.014 52.1847 163.003C51.235 163.002 50.243 163 49.2021 163C48.926 163 48.7021 162.776 48.7021 162.5C48.7021 162.224 48.926 162 49.2021 162C50.2456 162 51.2386 162.002 52.1877 162.003C58.5309 162.014 62.9121 162.021 67.292 161.512C69.7987 161.221 72.3076 160.76 75.1833 160.03C75.1427 160.011 75.1025 159.992 75.0626 159.972C74.1308 159.512 73.3454 158.849 72.991 157.882C72.5381 156.647 72.9797 155.563 73.8022 154.693C74.6083 153.84 75.8225 153.137 77.0922 152.568C79.4885 151.493 82.2624 150.819 83.3974 150.542C83.4698 150.525 83.5356 150.509 83.5941 150.494C84.0168 150.391 87.5363 149.608 90.7859 149.196C92.4016 148.991 93.9956 148.871 95.1129 148.989C95.652 149.045 96.1844 149.166 96.535 149.445C96.7272 149.598 96.88 149.811 96.9249 150.087ZM76.8767 159.581C76.3766 159.443 75.9133 159.277 75.505 159.075C74.7034 158.68 74.1637 158.176 73.9299 157.538C73.6483 156.77 73.8746 156.072 74.5288 155.38C75.1994 154.671 76.2706 154.032 77.5013 153.48C79.8095 152.445 82.5013 151.79 83.639 151.513C83.7096 151.496 83.7743 151.48 83.8325 151.466C84.2299 151.368 87.7104 150.594 90.9117 150.188C92.5216 149.984 94.0158 149.879 95.0084 149.983C95.5243 150.038 95.8023 150.14 95.9123 150.227C95.9267 150.239 95.9343 150.247 95.938 150.251C95.9377 150.265 95.9332 150.309 95.8903 150.395C95.1184 151.939 93.3368 153.291 91.2554 154.413C89.1945 155.525 86.9324 156.363 85.3121 156.921C82.0826 158.033 79.3359 158.902 76.8767 159.581ZM95.941 150.256C95.9408 150.256 95.9401 150.255 95.9394 150.253C95.9408 150.255 95.9412 150.256 95.941 150.256Z" fill="black"/>
<path fill-rule="evenodd" clip-rule="evenodd" d="M152.093 152.688C152.266 152.903 152.231 153.218 152.015 153.39C148.807 155.956 145.183 158.732 141.812 161.314C139.926 162.758 138.119 164.142 136.509 165.395C136.291 165.564 135.977 165.525 135.807 165.307C135.638 165.089 135.677 164.775 135.895 164.605C137.518 163.343 139.331 161.955 141.22 160.508C144.584 157.932 148.189 155.17 151.39 152.61C151.606 152.437 151.921 152.472 152.093 152.688Z" fill="black"/>
<path fill-rule="evenodd" clip-rule="evenodd" d="M133.202 164.697C133.21 164.421 133.44 164.204 133.716 164.211C144.581 164.506 155.455 164.408 166.335 164.31C171.78 164.26 177.226 164.211 182.674 164.211C182.95 164.211 183.174 164.435 183.174 164.711C183.174 164.987 182.95 165.211 182.674 165.211C177.245 165.211 171.809 165.26 166.369 165.309C155.477 165.408 144.572 165.506 133.689 165.211C133.413 165.203 133.195 164.973 133.202 164.697Z" fill="black"/>
<path fill-rule="evenodd" clip-rule="evenodd" d="M135.969 164.213C136.244 164.236 136.448 164.478 136.425 164.753C136.176 167.67 135.953 170.365 136.42 173.165C136.465 173.438 136.281 173.695 136.009 173.741C135.736 173.786 135.479 173.602 135.433 173.33C134.943 170.386 135.181 167.567 135.428 164.669C135.452 164.393 135.694 164.189 135.969 164.213Z" fill="black"/>
<path fill-rule="evenodd" clip-rule="evenodd" d="M134.556 173.172C134.56 172.896 134.788 172.676 135.064 172.681C135.29 172.685 135.515 172.688 135.739 172.692C152.108 172.969 164.991 173.187 181.187 172.681C181.463 172.672 181.693 172.889 181.702 173.165C181.711 173.441 181.494 173.672 181.218 173.68C164.998 174.187 152.094 173.969 135.731 173.692C135.504 173.688 135.276 173.684 135.047 173.681C134.771 173.676 134.551 173.448 134.556 173.172Z" fill="black"/>
<path fill-rule="evenodd" clip-rule="evenodd" d="M145.495 154C145.495 153.724 145.719 153.5 145.995 153.5H197.202C197.478 153.5 197.702 153.724 197.702 154C197.702 154.276 197.478 154.5 197.202 154.5H145.995C145.719 154.5 145.495 154.276 145.495 154Z" fill="black"/>
<path fill-rule="evenodd" clip-rule="evenodd" d="M196.743 151.668C196.926 151.875 196.907 152.191 196.7 152.374C192.644 155.97 188.26 159.096 183.886 162.214C182.585 163.142 181.286 164.068 179.996 165.006C179.773 165.168 179.46 165.119 179.298 164.896C179.135 164.672 179.185 164.36 179.408 164.197C180.715 163.247 182.026 162.312 183.333 161.38C187.699 158.267 192.025 155.183 196.037 151.626C196.244 151.443 196.56 151.462 196.743 151.668Z" fill="black"/>
<path fill-rule="evenodd" clip-rule="evenodd" d="M180.202 163.5C180.478 163.5 180.702 163.724 180.702 164C180.702 166.002 180.702 167.841 180.702 169.797C180.702 171.26 180.703 172.788 180.703 174.5C180.703 174.776 180.479 175 180.203 175C179.926 175 179.703 174.776 179.703 174.5C179.703 172.788 179.702 171.26 179.702 169.797C179.702 167.841 179.702 166.002 179.702 164C179.702 163.724 179.926 163.5 180.202 163.5Z" fill="black"/>
<path fill-rule="evenodd" clip-rule="evenodd" d="M193.702 151.5C193.978 151.5 194.202 151.724 194.202 152V163.789C194.202 164.065 193.978 164.289 193.702 164.289C193.426 164.289 193.202 164.065 193.202 163.789V152C193.202 151.724 193.426 151.5 193.702 151.5Z" fill="black"/>
<path fill-rule="evenodd" clip-rule="evenodd" d="M198.755 158.646C198.95 158.842 198.95 159.158 198.755 159.354C194.091 164.018 188.724 167.829 183.394 171.613C182.257 172.42 181.121 173.227 179.995 174.04C179.771 174.201 179.458 174.151 179.297 173.927C179.135 173.703 179.186 173.39 179.41 173.229C180.55 172.406 181.695 171.593 182.837 170.781C188.164 166.998 193.449 163.245 198.048 158.646C198.243 158.451 198.56 158.451 198.755 158.646Z" fill="black"/>
<path fill-rule="evenodd" clip-rule="evenodd" d="M244.046 157.117C243.99 157.871 243.501 158.627 242.618 159.378C242.08 159.835 241.485 160.213 240.853 160.527C241.26 160.627 241.677 160.719 242.099 160.803C243.702 161.122 245.36 161.331 246.877 161.506C247.142 161.537 247.403 161.567 247.659 161.596C248.86 161.732 249.95 161.855 250.792 162.008C251.063 162.057 251.243 162.318 251.194 162.589C251.145 162.861 250.884 163.041 250.613 162.992C249.808 162.846 248.76 162.727 247.561 162.591C247.301 162.562 247.035 162.531 246.763 162.5C245.242 162.324 243.549 162.112 241.903 161.783C241.03 161.609 240.164 161.401 239.338 161.147C238.82 161.32 238.29 161.463 237.758 161.583C236.039 161.971 234.25 162.127 232.698 162.263L232.582 162.273C226.404 162.814 220.15 162.63 213.998 162.365C212.573 162.303 211.118 162.218 209.633 162.131C203.094 161.748 195.976 161.331 188.294 162.763C188.022 162.814 187.761 162.635 187.711 162.363C187.66 162.092 187.839 161.831 188.11 161.78C195.924 160.323 203.189 160.75 209.733 161.134C211.206 161.221 212.643 161.305 214.041 161.366C220.191 161.631 226.387 161.811 232.494 161.277L232.587 161.269C234.155 161.132 235.886 160.98 237.538 160.607C237.603 160.593 237.667 160.578 237.731 160.563C237.576 160.496 237.423 160.427 237.273 160.355C235.907 159.703 234.747 158.825 234.086 157.61C233.921 157.306 233.85 156.989 233.892 156.672C233.933 156.359 234.077 156.092 234.263 155.871C234.622 155.445 235.19 155.133 235.745 154.904C236.871 154.439 238.225 154.207 238.703 154.163C239.456 154.095 240.289 154.161 241.063 154.344C241.831 154.526 242.578 154.832 243.133 155.272C243.693 155.715 244.105 156.337 244.046 157.117ZM239.324 160.093C238.75 159.904 238.205 159.693 237.704 159.453C236.439 158.849 235.486 158.091 234.965 157.132C234.884 156.983 234.873 156.877 234.883 156.802C234.894 156.723 234.933 156.628 235.027 156.516C235.229 156.277 235.613 156.04 236.126 155.828C237.138 155.411 238.389 155.196 238.794 155.159C239.431 155.101 240.155 155.157 240.832 155.317C241.514 155.478 242.109 155.737 242.513 156.056C242.912 156.371 243.075 156.702 243.049 157.042C243.022 157.409 242.766 157.94 241.97 158.616C241.216 159.257 240.313 159.733 239.324 160.093Z" fill="black"/>
<path fill-rule="evenodd" clip-rule="evenodd" d="M272.945 150.642C273.082 150.881 272.999 151.187 272.759 151.324C264.052 156.3 255.4 161.223 246.304 165.568C246.055 165.687 245.756 165.582 245.637 165.333C245.518 165.084 245.624 164.785 245.873 164.666C254.93 160.339 263.552 155.433 272.263 150.456C272.503 150.319 272.808 150.402 272.945 150.642Z" fill="black"/>
<path fill-rule="evenodd" clip-rule="evenodd" d="M247.397 163.604C247.616 163.435 247.93 163.476 248.099 163.695C252.438 169.338 259.876 178.841 264.577 184.169C264.76 184.376 264.74 184.692 264.533 184.875C264.326 185.058 264.01 185.038 263.827 184.831C259.1 179.474 251.643 169.945 247.306 164.305C247.137 164.086 247.178 163.772 247.397 163.604Z" fill="black"/>
<path fill-rule="evenodd" clip-rule="evenodd" d="M284.086 169.68C284.263 169.892 284.234 170.207 284.022 170.384C281.161 172.769 278.039 174.935 274.865 177.138C274.688 177.261 274.512 177.383 274.335 177.506C270.972 179.841 267.559 182.235 264.298 185.01C264.088 185.189 263.772 185.164 263.593 184.953C263.414 184.743 263.44 184.427 263.65 184.248C266.953 181.438 270.404 179.018 273.764 176.685C273.938 176.564 274.111 176.444 274.283 176.324C277.467 174.115 280.556 171.971 283.382 169.616C283.594 169.439 283.909 169.468 284.086 169.68Z" fill="black"/>
<path fill-rule="evenodd" clip-rule="evenodd" d="M135.067 167.643C135.224 167.416 135.536 167.36 135.763 167.517C138.158 169.177 140.546 170.845 142.928 172.524C143.154 172.683 143.208 172.995 143.049 173.22C142.89 173.446 142.578 173.5 142.352 173.341C139.972 171.664 137.586 169.997 135.193 168.339C134.966 168.181 134.91 167.87 135.067 167.643Z" fill="black"/>
<path fill-rule="evenodd" clip-rule="evenodd" d="M140.939 165.134C141.101 164.91 141.413 164.859 141.637 165.02C142.629 165.733 143.637 166.438 144.65 167.146C147.236 168.955 149.848 170.782 152.279 172.807C152.491 172.984 152.519 173.3 152.343 173.512C152.166 173.724 151.851 173.752 151.638 173.576C149.242 171.579 146.684 169.79 144.111 167.99C143.091 167.277 142.069 166.562 141.053 165.832C140.829 165.671 140.778 165.358 140.939 165.134Z" fill="black"/>
<path fill-rule="evenodd" clip-rule="evenodd" d="M150.074 164.978C150.226 164.747 150.536 164.684 150.767 164.836C152.143 165.743 153.489 166.68 154.829 167.614C157.475 169.456 160.1 171.284 162.901 172.841C163.142 172.975 163.229 173.279 163.095 173.52C162.961 173.762 162.657 173.849 162.415 173.715C159.572 172.135 156.872 170.255 154.2 168.395C152.87 167.468 151.547 166.547 150.217 165.67C149.986 165.518 149.922 165.208 150.074 164.978Z" fill="black"/>
<path fill-rule="evenodd" clip-rule="evenodd" d="M158.532 164.631C158.684 164.401 158.995 164.339 159.225 164.491C163.129 167.089 167.025 169.653 171.028 172.073C171.264 172.216 171.34 172.523 171.197 172.76C171.054 172.996 170.747 173.072 170.51 172.929C166.488 170.497 162.576 167.922 158.671 165.324C158.441 165.171 158.379 164.861 158.532 164.631Z" fill="black"/>
<path fill-rule="evenodd" clip-rule="evenodd" d="M169.161 164.177C169.327 163.956 169.64 163.911 169.861 164.076C173.419 166.743 177.023 169.295 180.784 171.646C181.019 171.792 181.09 172.101 180.943 172.335C180.797 172.569 180.489 172.64 180.254 172.494C176.461 170.123 172.833 167.553 169.261 164.877C169.04 164.711 168.995 164.398 169.161 164.177Z" fill="black"/>
<path fill-rule="evenodd" clip-rule="evenodd" d="M270.242 151.262C270.485 151.132 270.788 151.223 270.919 151.466C271.044 151.7 271.17 151.934 271.295 152.167C273.934 157.095 276.552 161.984 281.882 164.033C282.139 164.133 282.268 164.422 282.169 164.68C282.07 164.937 281.78 165.066 281.523 164.967C275.835 162.779 273.051 157.572 270.459 152.725C270.318 152.462 270.178 152.2 270.038 151.939C269.907 151.696 269.999 151.393 270.242 151.262Z" fill="black"/>
<path fill-rule="evenodd" clip-rule="evenodd" d="M280.796 164.026C280.991 163.831 281.308 163.831 281.503 164.026C281.589 164.112 281.653 164.239 281.653 164.388C281.653 164.519 281.604 164.615 281.572 164.665C281.514 164.757 281.44 164.811 281.415 164.829C281.351 164.875 281.275 164.914 281.218 164.941C281.094 164.999 280.93 165.064 280.774 165.123C280.459 165.241 280.115 165.355 280.04 165.377C278.938 165.703 277.823 165.826 276.704 165.845C276.625 165.847 276.55 165.85 276.475 165.853C276.601 166.068 276.707 166.276 276.783 166.423C276.803 166.462 276.821 166.497 276.836 166.526C277.563 167.915 277.676 169.366 277.345 170.86C276.9 172.868 275.788 174.59 274.661 176.157C273.179 178.216 271.206 179.351 269.067 180.414C268.819 180.537 268.519 180.436 268.396 180.189C268.274 179.942 268.374 179.642 268.622 179.519C270.738 178.467 272.519 177.422 273.849 175.573C274.968 174.018 275.971 172.438 276.369 170.644C276.657 169.345 276.552 168.14 275.95 166.99C275.93 166.951 275.909 166.91 275.886 166.866C275.781 166.661 275.647 166.401 275.489 166.16C275.413 166.045 275.339 165.945 275.268 165.866C275.201 165.858 275.135 165.849 275.069 165.837C274.899 165.806 274.756 165.702 274.676 165.553C274.602 165.417 274.595 165.272 274.623 165.152C274.652 165.031 274.725 164.899 274.859 164.809C275.003 164.713 275.171 164.695 275.317 164.732C275.444 164.764 275.559 164.819 275.66 164.886C275.738 164.886 275.821 164.885 275.907 164.881C275.996 164.878 276.101 164.872 276.21 164.866C276.373 164.857 276.545 164.848 276.687 164.845C277.745 164.827 278.765 164.711 279.756 164.418C279.801 164.405 280.122 164.299 280.423 164.187C280.57 164.132 280.698 164.08 280.782 164.041C280.787 164.036 280.791 164.031 280.796 164.026Z" fill="black"/>
<path fill-rule="evenodd" clip-rule="evenodd" d="M180.576 163.283C180.759 163.076 181.075 163.056 181.282 163.239C181.697 163.606 182.107 163.976 182.516 164.346C183.884 165.581 185.236 166.802 186.719 167.829C187.116 168.103 187.51 168.305 187.968 168.505C188.221 168.616 188.336 168.911 188.225 169.164C188.115 169.417 187.82 169.532 187.567 169.422C187.073 169.206 186.618 168.974 186.15 168.651C184.608 167.583 183.191 166.303 181.815 165.06C181.414 164.698 181.016 164.338 180.62 163.989C180.413 163.806 180.393 163.49 180.576 163.283Z" fill="black"/>
<path fill-rule="evenodd" clip-rule="evenodd" d="M185.36 160.759C185.507 160.525 185.815 160.455 186.049 160.602C186.088 160.626 186.127 160.651 186.166 160.675C188.163 161.933 190.149 163.183 192.186 164.349C192.222 164.37 192.259 164.391 192.297 164.412C192.516 164.536 192.766 164.677 192.998 164.863C193.214 165.035 193.249 165.35 193.076 165.565C192.904 165.781 192.589 165.816 192.373 165.643C192.209 165.512 192.038 165.415 191.818 165.291C191.777 165.267 191.734 165.243 191.689 165.217C189.634 164.04 187.633 162.78 185.64 161.526C185.599 161.5 185.558 161.474 185.516 161.448C185.283 161.301 185.213 160.992 185.36 160.759Z" fill="black"/>
<path fill-rule="evenodd" clip-rule="evenodd" d="M190.154 156.81C190.338 156.604 190.654 156.585 190.86 156.768C191.776 157.581 192.716 158.361 193.663 159.147C194.019 159.443 194.375 159.739 194.732 160.038C194.944 160.215 194.972 160.53 194.794 160.742C194.617 160.954 194.302 160.982 194.09 160.804C193.741 160.512 193.389 160.22 193.036 159.927C192.085 159.137 191.125 158.341 190.196 157.516C189.99 157.333 189.971 157.017 190.154 156.81Z" fill="black"/>
<path fill-rule="evenodd" clip-rule="evenodd" d="M189.023 160.564C189.054 160.458 189.051 160.341 189.006 160.231C188.901 159.976 188.609 159.854 188.354 159.958C188.292 159.984 188.202 160.017 188.093 160.056C187.764 160.176 187.263 160.357 186.861 160.584C186.583 160.741 186.29 160.949 186.084 161.229C185.866 161.526 185.751 161.902 185.852 162.329C186.01 162.994 186.629 163.332 187.116 163.496C187.632 163.67 188.209 163.723 188.604 163.69C189.38 163.626 190.277 163.236 190.834 162.559C191.055 162.464 191.271 162.364 191.482 162.26C191.506 162.249 191.547 162.23 191.597 162.206C191.708 162.156 191.864 162.084 191.982 162.022C192.163 161.927 192.42 161.776 192.586 161.557C192.637 161.489 192.737 161.326 192.691 161.109C192.644 160.887 192.482 160.779 192.406 160.739C192.268 160.667 192.114 160.66 192.056 160.657C191.894 160.651 191.707 160.67 191.612 160.683C191.393 160.712 191.171 160.758 190.955 160.809C190.811 160.689 190.647 160.619 190.507 160.576C190.069 160.442 189.532 160.472 189.228 160.522C189.162 160.533 189.094 160.547 189.023 160.564ZM189.6 161.485C189.525 161.49 189.454 161.498 189.393 161.509C189.14 161.551 188.82 161.656 188.559 161.817C188.364 161.937 188.24 162.063 188.173 162.184C188.227 162.188 188.29 162.188 188.362 162.185C188.749 162.169 189.204 162.054 189.35 162.017C189.483 161.983 189.616 161.944 189.748 161.901C189.682 161.837 189.633 161.754 189.61 161.658C189.597 161.6 189.594 161.541 189.6 161.485ZM187.126 162.414C187.115 162.31 187.123 162.207 187.144 162.11C187.209 161.804 187.365 161.552 187.557 161.348C187.488 161.382 187.42 161.417 187.352 161.455C187.128 161.582 186.974 161.706 186.89 161.821C186.819 161.918 186.801 161.998 186.825 162.098C186.847 162.191 186.934 162.306 187.126 162.414Z" fill="black"/>
<path fill-rule="evenodd" clip-rule="evenodd" d="M140.02 158.14C140.908 157.916 141.985 158.014 142.625 158.15C142.876 158.203 143.146 158.286 143.328 158.458C143.435 158.559 143.532 158.71 143.542 158.907C143.552 159.093 143.478 159.242 143.409 159.339C143.284 159.516 143.084 159.646 142.921 159.737C142.91 159.742 142.9 159.748 142.889 159.754C143.022 159.737 143.161 159.773 143.272 159.866C143.484 160.043 143.513 160.358 143.336 160.57C143.088 160.869 142.707 161.136 142.299 161.342C141.885 161.551 141.403 161.717 140.923 161.789C140.449 161.859 139.932 161.844 139.483 161.639C139.008 161.423 138.656 161.015 138.52 160.416C138.38 159.8 138.476 159.266 138.803 158.853C139.113 158.461 139.575 158.252 140.02 158.14ZM141.323 159.293C141.539 159.228 141.752 159.157 141.945 159.083C141.966 159.075 141.986 159.067 142.007 159.059C141.47 158.989 140.798 158.975 140.265 159.109C139.948 159.189 139.735 159.308 139.612 159.444C139.623 159.442 139.634 159.441 139.645 159.439C139.8 159.418 139.987 159.398 140.185 159.38C140.545 159.346 140.96 159.316 141.323 159.293ZM139.712 160.608C139.768 160.66 139.83 160.699 139.897 160.729C140.107 160.825 140.409 160.854 140.775 160.8C141.136 160.746 141.516 160.617 141.848 160.449C141.976 160.385 142.091 160.317 142.192 160.25C142.109 160.251 141.84 160.264 141.498 160.284C141.284 160.347 141.072 160.402 140.872 160.449C140.643 160.503 140.425 160.546 140.238 160.575C140.064 160.602 139.878 160.622 139.73 160.609C139.724 160.609 139.718 160.608 139.712 160.608Z" fill="black"/>
<path fill-rule="evenodd" clip-rule="evenodd" d="M28.6099 147.951C28.886 147.951 29.1099 148.175 29.1098 148.451C29.1096 152.466 29.1098 156.431 29.11 160.185C29.1101 162.554 29.1102 164.839 29.1102 167C29.1102 167.276 28.8864 167.5 28.6102 167.5C28.3341 167.5 28.1102 167.276 28.1102 167C28.1102 164.839 28.1101 162.554 28.11 160.185C28.1098 156.431 28.1096 152.466 28.1098 148.451C28.1099 148.175 28.3337 147.951 28.6099 147.951Z" fill="black"/>
<path fill-rule="evenodd" clip-rule="evenodd" d="M25.7866 148.537C25.9634 148.325 26.2786 148.297 26.4908 148.473C28.8117 150.407 30.623 151.379 32.9366 152.619C33.9769 153.177 35.1187 153.789 36.4541 154.568C37.1188 154.956 37.7724 155.255 38.3614 155.507C38.5162 155.574 38.6696 155.638 38.8188 155.701C39.2214 155.87 39.5938 156.026 39.8832 156.175C40.0844 156.279 40.2805 156.396 40.4363 156.534C40.5917 156.672 40.7521 156.873 40.7889 157.146C40.8266 157.427 40.7195 157.671 40.577 157.864C40.4374 158.052 40.236 158.23 39.9963 158.404C37.6191 160.133 35.1084 161.765 32.7575 163.273C32.439 163.477 32.1236 163.679 31.8119 163.879C29.8174 165.156 27.9762 166.334 26.4593 167.408C26.2339 167.568 25.9219 167.514 25.7623 167.289C25.6028 167.064 25.6562 166.751 25.8816 166.592C27.4191 165.504 29.2829 164.31 31.2749 163.035C31.5863 162.836 31.9007 162.634 32.2176 162.431C34.5675 160.924 37.0567 159.306 39.4081 157.596C39.6044 157.453 39.7124 157.348 39.7669 157.277C39.7037 157.222 39.5959 157.152 39.4254 157.064C39.1731 156.934 38.8564 156.801 38.4716 156.64C38.3148 156.574 38.1468 156.503 37.9672 156.426C37.3633 156.167 36.6667 155.85 35.9503 155.432C34.6843 154.694 33.5739 154.098 32.5448 153.546C30.1845 152.28 28.2521 151.243 25.8506 149.242C25.6385 149.065 25.6098 148.749 25.7866 148.537ZM39.8111 157.323C39.8111 157.323 39.8108 157.322 39.8104 157.322L39.8111 157.323ZM39.8004 157.226C39.8008 157.225 39.801 157.224 39.801 157.224L39.8004 157.226Z" fill="black"/>
<path fill-rule="evenodd" clip-rule="evenodd" d="M25.5676 141.567C28.9786 141.018 32.5672 141.177 35.2624 141.504C38.2975 141.872 41.4281 143.354 44.0292 145.532C46.6315 147.711 48.735 150.614 49.6821 153.86C51.4736 159.999 48.886 166.242 44.8705 170.317C39.5445 175.723 30.8332 176.441 23.5419 173.974C20.5687 172.968 18.5418 171.6 16.9767 169.728C15.424 167.871 14.3504 165.546 13.236 162.681C13.2258 162.655 13.2179 162.628 13.2122 162.601C12.9479 161.318 12.7647 159.428 12.7969 157.409C12.691 157.335 12.6138 157.22 12.5908 157.082C12.289 155.271 12.7689 153.251 13.5939 151.333C14.4228 149.405 15.6232 147.527 16.8335 145.975C18.8584 143.379 22.1682 142.115 25.5676 141.567ZM23.6887 142.984C23.6479 143.155 23.5181 143.299 23.3369 143.35C21.3301 143.911 19.9971 144.579 18.8641 145.558C17.719 146.548 16.7492 147.878 15.5035 149.827C14.4851 151.42 13.9922 153.802 13.8435 156.211C13.697 158.584 13.8889 160.903 14.1833 162.358C15.2867 165.19 16.3096 167.371 17.7439 169.086C19.1726 170.795 21.034 172.069 23.8624 173.026C30.9317 175.418 39.1917 174.656 44.1581 169.616C47.9971 165.719 50.3844 159.836 48.7222 154.14C47.84 151.117 45.8662 148.375 43.3872 146.299C40.9069 144.222 37.9522 142.837 35.1419 142.496C32.5008 142.176 29.0131 142.026 25.7265 142.555C25.0315 142.667 24.3494 142.808 23.6887 142.984Z" fill="black"/>
<path fill-rule="evenodd" clip-rule="evenodd" d="M275.526 169.842C275.613 169.58 275.896 169.438 276.158 169.526C276.954 169.791 277.51 170.09 278.095 170.423C278.17 170.466 278.245 170.509 278.322 170.553C278.836 170.849 279.4 171.172 280.21 171.546C280.46 171.662 280.57 171.959 280.454 172.21C280.338 172.46 280.041 172.57 279.79 172.454C278.938 172.061 278.338 171.716 277.822 171.419C277.746 171.376 277.672 171.333 277.599 171.292C277.036 170.97 276.546 170.709 275.842 170.474C275.58 170.387 275.438 170.104 275.526 169.842ZM275.318 173.114C275.142 172.969 274.884 172.959 274.695 173.104C274.476 173.272 274.435 173.586 274.604 173.805L275 173.5C274.604 173.805 274.605 173.806 274.606 173.808L274.608 173.81L274.611 173.815L274.619 173.823C274.623 173.829 274.628 173.834 274.632 173.839C274.641 173.848 274.649 173.856 274.656 173.863C274.67 173.877 274.684 173.888 274.696 173.898C274.719 173.916 274.744 173.934 274.772 173.952C274.827 173.988 274.912 174.038 275.049 174.111C275.323 174.257 275.833 174.512 276.79 174.954C277.041 175.07 277.338 174.96 277.454 174.71C277.57 174.459 277.46 174.162 277.21 174.046C276.259 173.607 275.769 173.362 275.52 173.229C275.399 173.164 275.341 173.129 275.318 173.114Z" fill="black"/>
<path d="M261 177.5C261 182.747 256.747 187 251.5 187C246.253 187 240 182.747 240 177.5C240 172.254 246.253 168 251.5 168C256.747 168 261 172.254 261 177.5Z" fill="white"/>
<path fill-rule="evenodd" clip-rule="evenodd" d="M242.198 172.446C239.907 176.039 240.124 179.472 241.723 182.005C243.337 184.562 246.397 186.259 249.888 186.259C254.884 186.259 258.309 183.506 259.769 180.231C261.236 176.937 260.706 173.185 257.887 171.059C252.865 167.292 245.9 167.625 242.198 172.446ZM241.391 171.855C245.491 166.493 253.116 166.23 258.488 170.259L258.489 170.26C261.77 172.734 262.289 177.031 260.682 180.638C259.067 184.262 255.291 187.259 249.888 187.259C246.079 187.259 242.688 185.407 240.878 182.539C239.054 179.65 238.87 175.791 241.367 171.89C241.374 171.878 241.382 171.866 241.391 171.855Z" fill="black"/>
<path fill-rule="evenodd" clip-rule="evenodd" d="M252.834 170.723C252.987 170.953 252.925 171.263 252.695 171.416C252.562 171.505 252.424 171.596 252.284 171.69C251.536 172.185 250.701 172.739 249.937 173.321C249.019 174.022 248.269 174.716 247.902 175.344C247.763 175.582 247.457 175.663 247.218 175.523C246.98 175.384 246.9 175.078 247.039 174.84C247.512 174.029 248.402 173.234 249.331 172.526C250.123 171.922 250.991 171.347 251.738 170.852C251.877 170.76 252.011 170.67 252.14 170.584C252.37 170.431 252.681 170.493 252.834 170.723Z" fill="black"/>
<path fill-rule="evenodd" clip-rule="evenodd" d="M247.056 174.889C247.056 174.613 247.279 174.389 247.556 174.389C248.468 174.389 249.542 174.645 250.552 174.977C251.57 175.312 252.563 175.737 253.328 176.105C253.576 176.225 253.681 176.523 253.561 176.772C253.442 177.021 253.143 177.126 252.894 177.006C252.159 176.652 251.207 176.245 250.24 175.927C249.264 175.606 248.309 175.389 247.556 175.389C247.279 175.389 247.056 175.165 247.056 174.889Z" fill="black"/>
<path fill-rule="evenodd" clip-rule="evenodd" d="M250.257 174.111C249.251 174.348 248.366 174.776 247.913 175.239C247.72 175.436 247.403 175.439 247.206 175.246C247.008 175.053 247.005 174.737 247.198 174.539C247.84 173.884 248.935 173.395 250.028 173.138C251.123 172.88 252.343 172.824 253.262 173.155C256.179 174.209 257.125 177.403 256.096 180.036C255.622 181.249 254.508 182.9 252.877 183.738C252.049 184.163 251.086 184.379 250.021 184.213C248.959 184.046 247.836 183.506 246.671 182.487C246.463 182.305 246.442 181.989 246.624 181.782C246.806 181.574 247.121 181.553 247.329 181.735C248.387 182.66 249.342 183.094 250.176 183.225C251.006 183.355 251.756 183.19 252.42 182.849C253.77 182.155 254.749 180.734 255.164 179.672C256.035 177.444 255.197 174.918 252.922 174.096C252.263 173.858 251.263 173.874 250.257 174.111Z" fill="black"/>
<path fill-rule="evenodd" clip-rule="evenodd" d="M275.326 166.487C275.343 166.492 275.368 166.501 275.404 166.515C275.465 166.537 275.546 166.567 275.647 166.605C275.672 166.614 275.698 166.623 275.725 166.634C275.999 166.735 276.382 166.877 276.826 167.034C277.712 167.348 278.855 167.729 279.878 167.985C280.146 168.052 280.418 167.889 280.485 167.622C280.552 167.354 280.389 167.082 280.121 167.015C279.144 166.771 278.037 166.402 277.16 166.092C276.723 165.937 276.346 165.797 276.073 165.696C276.047 165.686 276.022 165.677 275.997 165.668C275.896 165.63 275.811 165.599 275.747 165.575C275.708 165.561 275.673 165.549 275.646 165.539C275.633 165.535 275.617 165.53 275.601 165.525C275.594 165.523 275.58 165.519 275.564 165.515C275.557 165.513 275.543 165.51 275.527 165.508C275.516 165.506 275.481 165.501 275.436 165.502C275.16 165.508 274.941 165.737 274.947 166.013C274.953 166.243 275.113 166.434 275.326 166.487Z" fill="black"/>
<path fill-rule="evenodd" clip-rule="evenodd" d="M250.406 160.602C249.994 160.493 249.551 160.457 249.204 160.47C248.952 160.48 248.53 160.522 248.15 160.624C247.96 160.675 247.799 160.736 247.68 160.804C247.617 160.84 247.576 160.871 247.55 160.897C247.577 160.912 247.614 160.93 247.663 160.95C247.966 161.072 248.463 161.154 249.047 161.201C249.648 161.25 250.262 161.256 250.74 161.252C250.697 161.178 250.672 161.091 250.672 160.999C250.672 160.895 250.704 160.798 250.758 160.718C250.65 160.675 250.532 160.636 250.406 160.602ZM251.946 161.382C252 161.353 252.061 161.31 252.116 161.248C252.226 161.123 252.283 160.951 252.251 160.769C252.225 160.617 252.145 160.505 252.087 160.438C251.718 160.012 251.17 159.77 250.662 159.636C250.144 159.498 249.6 159.455 249.166 159.471C248.866 159.483 248.366 159.53 247.891 159.658C247.653 159.722 247.404 159.81 247.184 159.935C246.968 160.059 246.74 160.241 246.608 160.512C246.465 160.806 246.464 161.131 246.654 161.412C246.814 161.648 247.068 161.788 247.289 161.877C247.742 162.06 248.371 162.15 248.967 162.198C249.577 162.247 250.209 162.256 250.7 162.252C250.946 162.251 251.158 162.246 251.316 162.242C251.366 162.241 251.412 162.24 251.451 162.239C251.472 162.238 251.491 162.238 251.508 162.237L251.566 162.236C251.58 162.235 251.585 162.235 251.585 162.235C251.585 162.235 251.585 162.235 251.584 162.235C251.86 162.24 252.088 162.02 252.092 161.744C252.095 161.603 252.039 161.475 251.946 161.382Z" fill="black"/>
<path fill-rule="evenodd" clip-rule="evenodd" d="M158.298 97.1101C158.574 97.1176 158.792 97.3475 158.784 97.6236C158.607 104.111 156.987 110.086 155.022 116.217C153.481 121.026 151.492 124.524 149.409 128.187C148.497 129.789 147.568 131.424 146.65 133.214C146.524 133.459 146.223 133.556 145.977 133.43C145.731 133.304 145.634 133.003 145.76 132.757C146.717 130.891 147.668 129.219 148.59 127.6C150.649 123.98 152.561 120.619 154.07 115.912C156.028 109.8 157.611 103.937 157.785 97.5962C157.792 97.3201 158.022 97.1025 158.298 97.1101Z" fill="black"/>
<path fill-rule="evenodd" clip-rule="evenodd" d="M162.87 117.035C163.102 117.185 163.168 117.494 163.018 117.726L153.527 132.394C153.377 132.626 153.068 132.692 152.836 132.542C152.604 132.392 152.538 132.083 152.688 131.851L162.179 117.183C162.329 116.951 162.638 116.885 162.87 117.035Z" fill="black"/>
<path fill-rule="evenodd" clip-rule="evenodd" d="M289.384 152.028C289.651 151.956 289.926 152.113 289.998 152.379C290.088 152.71 290.164 153.043 290.227 153.376C290.241 153.196 290.274 153.012 290.342 152.841C290.347 152.829 290.353 152.816 290.359 152.804C290.398 152.726 290.467 152.634 290.582 152.572C290.696 152.509 290.812 152.499 290.901 152.51C291.054 152.527 291.163 152.605 291.204 152.636C291.304 152.711 291.398 152.818 291.471 152.908C291.629 153.102 291.815 153.376 291.987 153.646C292.161 153.92 292.331 154.206 292.459 154.435C292.523 154.548 292.578 154.652 292.619 154.734C292.639 154.775 292.659 154.816 292.674 154.855C292.682 154.874 292.692 154.899 292.7 154.927L292.701 154.928C292.701 154.93 292.702 154.933 292.703 154.936C293.5 156.82 293.778 159.256 293.084 161.198C292.992 161.458 292.705 161.593 292.445 161.5C292.185 161.407 292.05 161.121 292.143 160.861C292.735 159.203 292.506 157.013 291.767 155.289C291.757 155.267 291.749 155.244 291.743 155.221C291.739 155.211 291.732 155.197 291.722 155.178C291.692 155.116 291.646 155.029 291.586 154.923C291.513 154.793 291.424 154.64 291.328 154.481C291.369 154.687 291.413 154.878 291.455 155.059C291.491 155.215 291.526 155.365 291.555 155.51C291.556 155.518 291.558 155.525 291.559 155.533C291.823 157.248 291.823 158.958 291.823 160.624V160.642C291.823 160.672 291.825 160.718 291.829 160.784C291.831 160.826 291.834 160.876 291.836 160.936C291.842 161.065 291.848 161.235 291.838 161.374C291.833 161.435 291.822 161.542 291.781 161.645C291.762 161.694 291.712 161.802 291.599 161.889C291.455 161.999 291.272 162.024 291.11 161.97C290.984 161.927 290.903 161.848 290.866 161.808C290.822 161.762 290.788 161.712 290.762 161.669C290.709 161.584 290.657 161.478 290.605 161.356L290.602 161.348L290.602 161.348C289.992 159.856 289.793 158.342 289.648 156.884C289.627 156.675 289.607 156.466 289.587 156.259C289.468 155.011 289.354 153.816 289.033 152.642C288.961 152.376 289.118 152.101 289.384 152.028ZM290.509 155.41C290.535 155.667 290.56 155.923 290.584 156.177C290.603 156.381 290.622 156.584 290.643 156.785C290.684 157.201 290.729 157.612 290.786 158.019C290.753 157.241 290.69 156.468 290.572 155.696C290.557 155.62 290.535 155.522 290.509 155.41ZM290.838 161.322C290.838 161.322 290.838 161.322 290.838 161.32L290.838 161.322Z" fill="black"/>
<path fill-rule="evenodd" clip-rule="evenodd" d="M292.744 165.779C292.824 165.833 292.915 165.864 293.01 165.871C293.309 165.896 293.662 165.696 293.662 165.16C293.662 165.12 293.66 165.086 293.656 165.058C293.587 165.136 293.515 165.21 293.444 165.278C293.325 165.392 293.195 165.503 293.063 165.596C292.97 165.661 292.861 165.729 292.744 165.779ZM294.089 164.045C294.117 164.062 294.143 164.079 294.17 164.098C294.497 164.333 294.662 164.71 294.662 165.16C294.662 166.301 293.79 166.94 292.927 166.868C292.502 166.833 292.083 166.624 291.799 166.236C291.514 165.847 291.395 165.324 291.472 164.71C291.506 164.436 291.756 164.242 292.03 164.276C292.068 164.281 292.105 164.29 292.14 164.303C292.198 164.254 292.258 164.211 292.316 164.175C292.392 164.126 292.475 164.082 292.561 164.043C292.602 164.009 292.644 163.975 292.687 163.942C292.838 163.828 293.036 163.702 293.258 163.644C293.341 163.621 293.447 163.6 293.56 163.609C293.683 163.618 293.868 163.669 293.996 163.844C294.045 163.912 294.074 163.981 294.089 164.045Z" fill="black"/>
<path fill-rule="evenodd" clip-rule="evenodd" d="M292.695 151.215C291.94 150.402 291.222 150.012 290.52 150.038C289.858 150.062 289.088 150.624 288.243 151.795C287.421 152.936 286.622 154.522 285.87 156.307C284.616 159.279 283.523 162.72 282.669 165.409C282.498 165.948 282.336 166.457 282.185 166.925L282.18 166.939L282.175 166.952C281.96 167.508 282 167.909 282.164 168.219C282.338 168.551 282.698 168.864 283.279 169.138C284.449 169.691 286.287 169.983 288.401 170.094C292.601 170.314 297.613 169.808 299.788 169.519C300.852 169.378 301.323 169.109 301.516 168.856C301.685 168.633 301.733 168.29 301.533 167.679C301.334 167.073 300.934 166.338 300.412 165.456C300.259 165.197 300.095 164.927 299.926 164.646C299.529 163.988 299.098 163.274 298.683 162.525C298.082 161.441 297.469 160.084 296.839 158.685L296.796 158.589C296.176 157.21 295.536 155.788 294.858 154.499C294.163 153.174 293.445 152.022 292.695 151.215ZM297.751 158.274C298.386 159.684 298.981 161 299.557 162.04C299.963 162.773 300.378 163.46 300.771 164.11C300.943 164.396 301.111 164.674 301.272 164.946C301.791 165.821 302.246 166.644 302.483 167.368C302.719 168.087 302.782 168.844 302.311 169.462C301.864 170.049 301.041 170.361 299.919 170.51C297.723 170.802 292.64 171.318 288.348 171.093C286.216 170.981 284.21 170.684 282.852 170.042C282.17 169.72 281.595 169.284 281.279 168.686C280.955 168.071 280.946 167.365 281.237 166.605C281.385 166.148 281.543 165.65 281.711 165.12C282.565 162.433 283.675 158.937 284.948 155.918C285.711 154.109 286.544 152.442 287.432 151.211C288.297 150.011 289.316 149.082 290.483 149.038C291.611 148.996 292.591 149.634 293.428 150.534C294.269 151.44 295.036 152.686 295.744 154.034C296.435 155.351 297.086 156.797 297.702 158.166L297.751 158.274Z" fill="black"/>
<path fill-rule="evenodd" clip-rule="evenodd" d="M220.033 22.8262C222.038 23.9614 223.27 26.0949 223.25 28.3988L223.153 39.5671C223.134 41.8133 221.928 43.8816 219.983 45.0045L209.98 50.7779C208.035 51.9008 205.64 51.9107 203.686 50.8039L193.967 45.3009C191.962 44.1657 190.73 42.0322 190.75 39.7282L190.847 28.5599C190.866 26.3138 192.072 24.2455 194.017 23.1226L204.02 17.3492C205.965 16.2263 208.36 16.2164 210.314 17.3231L220.033 22.8262ZM216.497 31.4976C215.971 33.4796 213.96 34.6695 211.995 34.1737L202.634 31.6414C201.092 31.224 199.487 31.4378 198.108 32.2414C196.73 33.0448 195.744 34.3408 195.331 35.8972C194.918 37.4538 195.13 39.0789 195.93 40.4779C196.73 41.8768 198.019 42.8742 199.561 43.2914C201.102 43.7088 202.707 43.495 204.086 42.6916C205.465 41.888 206.451 40.5921 206.863 39.0357L207.19 37.7278C207.231 37.5627 207.132 37.3949 206.968 37.3505L205.396 36.9249C205.227 36.8792 205.053 36.9811 205.011 37.1509L204.692 38.4308C204.159 40.434 202.111 41.6268 200.127 41.0905C198.149 40.5549 196.974 38.4991 197.503 36.5023C198.029 34.5203 200.04 33.3295 202.006 33.8252L211.366 36.3585C212.908 36.7759 214.513 36.5621 215.892 35.7585C217.27 34.9551 218.256 33.6592 218.669 32.1028C219.082 30.5461 218.87 28.921 218.07 27.5221C217.27 26.1231 215.981 25.1257 214.439 24.7085C212.898 24.2911 211.293 24.5049 209.914 25.3084C208.535 26.1119 207.549 27.4078 207.137 28.9642L206.828 29.9982C206.778 30.1666 206.876 30.3434 207.046 30.3893L208.618 30.8149C208.782 30.8592 208.951 30.7651 208.999 30.6028L209.308 29.5692C209.841 27.5659 211.889 26.3731 213.873 26.9095C215.851 27.445 217.026 29.5009 216.497 31.4976Z" fill="white"/>
</svg>
