<svg viewBox="0 0 1149 551" fill="none" xmlns="http://www.w3.org/2000/svg"><g filter="url(#filter0_d)"><rect opacity=".3" width="90" height="90" rx="21.977" transform="matrix(.9382 -.34612 .7071 .7071 130.613 429.41)" fill="#32C5FF"/><g clip-path="url(#clip0)" opacity=".9"><path fill-rule="evenodd" clip-rule="evenodd" d="M229.404 436.39c1.492 2.56 2.21 5.236 2.27 7.813l-12.438-4.227c.292-1.56-.075-3.221-1.008-4.82-2.553-4.588-9.623-7.026-15.644-5.396-2.18.59-3.872 1.604-5.067 2.853l-11.536-3.915c2.405-1.855 5.296-3.286 8.825-4.241 13.183-3.569 28.677 1.775 34.598 11.933zm-45.905-5.353l12.485 4.306c-.614 1.833-.418 3.818.701 5.738 2.704 4.639 9.774 7.077 15.794 5.447 2.491-.674 4.402-1.932 5.618-3.558l13.387 4.618c-1.469 6.139-6.823 11.386-15.231 13.662-13.183 3.569-28.676-1.775-34.598-11.934-3.776-6.478-2.784-13.229 1.844-18.279zm27.115 12.292c4.048-1.096 5.821-4.447 4.002-7.566-1.818-3.119-6.481-4.728-10.529-3.632-4.048 1.096-5.821 4.447-4.003 7.566 1.819 3.119 6.482 4.728 10.53 3.632z" fill="#fff"/></g></g><g filter="url(#filter1_d)"><rect opacity=".25" width="90" height="90" rx="21.977" transform="matrix(.9382 -.34612 .7071 .7071 374.613 167.409)" fill="#F2994A"/><path d="M444.789 163.387c12.687-.371 24.527 6.588 26.457 15.551 1.879 8.729-6.335 16.127-18.483 16.851l-10.302-9.704.265.249.626.583s1.103-1.46 4.356-2.195c5.636-1.275 6.516.181 12.149-1.093 3.523-.797 6.36-2.765 6.36-2.765l-11.376-10.057s-2.838 1.966-6.362 2.763c-5.635 1.274-6.516-.182-12.148 1.092l-.411.104c-1.989.736-2.65 1.31-3.31 1.883l-.661.573s-.396.275-.534.341c-.6.286-.42 1.487.234 2.104l18.231 18.447c.429.404.817.765 1.538.883.039.082.299-.092.321-.009-.305.085.474-.008.712-.015 15.141-.443 25.542-9.468 23.239-20.165-2.303-10.696-16.436-19.004-31.577-18.561-15.141.443-25.543 9.468-23.24 20.165 1.961 9.106 13.35 16.606 25.781 18.325l-4.135-3.939-.17-.178-.037-.035c-8.287-2.385-15.604-7.846-16.994-14.303-1.93-8.963 6.783-16.524 19.471-16.895z" fill="#fff" opacity=".9"/></g><g filter="url(#filter2_d)"><rect opacity=".25" width="90" height="90" rx="21.977" transform="matrix(.9382 -.34612 .7071 .7071 768.613 146.41)" fill="#7D4DD3"/><path fill-rule="evenodd" clip-rule="evenodd" d="M857.026 177.047l1.021.189c1.033.185 2.018.211 2.855.076.833-.12 1.502-.392 1.941-.789l.433-.404c6.895-6.397 5.316-16.25-4.133-25.788l-.242-.244c-1.231-1.259-3.313-2.287-5.449-2.691l-5.491-1.004 1.272 18.996c-.063.25-.327.428-.729.492-.418.061-.919.001-1.397-.165l-12.264-4.191c-.618-.211-1.086-.456-1.312-.938-.34-.727.23-1.145.839-1.235.59-.088.816-.01 1.395.188l.052.018 8.722 2.855c.377.123.715.042.702-.17l-.969-16.526-14.592-2.67c-2.117-.4-3.964-.126-4.845.72l-10.141 9.386c-.889.853-.658 2.156.604 3.41l.243.244c9.457 9.528 25.305 17.26 41.485 20.241z" fill="#fff" opacity=".9"/></g><g filter="url(#filter3_d)"><rect opacity=".25" width="90" height="90" rx="21.977" transform="matrix(.9382 -.34612 .7071 .7071 111 156.15)" fill="#15BB7F"/><path fill-rule="evenodd" clip-rule="evenodd" d="M176.702 155.203c7.668-2.358 16.311-.676 21.521 4.23 6.587-1.405 13.645 1.074 16.467 5.785 3.057 5.104.085 10.821-6.712 12.911l-30.498 9.377c-5.228 1.608-11.545-.324-13.897-4.25-2.273-3.795-.32-8.114 4.402-9.876l-.392-.655c-4.076-6.805.047-14.736 9.109-17.522zm10.787 13.167l.554-.059c1.48-.167 4.948-.559 6.435 1.924 1.226 2.047.006 4.014-3.187 5.278l.614 1.026c.12.2-.001.431-.272.514l-1.225.377c-.27.083-.587-.013-.707-.213l-.62-1.035c-1.785.382-3.533.367-4.925-.059-1.293-.395-2.273-1.118-2.916-2.15l3.04-.934c.906 1.349 2.767 1.742 5.019 1.05.771-.237 3.217-1.127 2.322-2.621-.716-1.196-2.789-.961-4.984-.713a62.15 62.15 0 01-1.139.123c-2.501.249-5.278.335-6.567-1.817-1.281-2.139.51-3.978 2.92-4.947l-.632-1.055c-.12-.201.001-.431.272-.515l1.225-.376c.27-.083.587.012.707.213l.658 1.097c2.05-.392 5.286-.521 6.905 1.993l-3.047.937c-.884-1.156-2.322-1.408-4.392-.772-1.196.368-2.362 1.185-1.708 2.276.592.988 1.464.897 5.65.458z" fill="#fff" opacity=".9"/></g><g opacity=".9" filter="url(#filter4_d)"><rect opacity=".9" width="90" height="90" rx="21.977" transform="matrix(.9382 -.34612 .7071 .7071 487 272.15)" fill="#4DC952"/><path fill-rule="evenodd" clip-rule="evenodd" d="M559.513 271.521c-2.324 1.926-3.197 4.455-2.456 7.124l.68 2.456 7.732-.106-.681-2.455c-.742-2.684 1.947-4.911 5.995-4.967 4.05-.054 7.949 2.084 8.694 4.767.744 2.683-1.943 4.911-5.995 4.966l-.085.002-22.335.304c-4.028.054-7.525 1.145-9.85 3.071-2.324 1.925-3.197 4.455-2.456 7.124.739 2.668 3.003 5.155 6.374 7.004 3.371 1.848 7.445 2.835 11.472 2.78 4.027-.054 7.525-1.145 9.849-3.071 2.325-1.925 3.197-4.455 2.457-7.124l-.681-2.455-7.732.105.681 2.456c.744 2.684-1.945 4.91-5.995 4.966-4.049.055-7.949-2.083-8.693-4.767-.372-1.342.114-2.569 1.2-3.468 1.085-.899 2.769-1.47 4.794-1.498l22.421-.305c4.027-.055 7.525-1.146 9.849-3.071 2.324-1.926 3.197-4.456 2.457-7.124-.74-2.669-3.003-5.156-6.374-7.004-3.371-1.848-7.445-2.836-11.472-2.781-4.028.055-7.525 1.145-9.85 3.071z" fill="#fff" opacity=".9"/></g><g filter="url(#filter5_d)" stroke="#0092E4" stroke-width="4"><path d="M12 540.1l112.687-46.752c12.537-5.201 16.362-21.114 7.558-31.445l-19.493-22.874c-6.722-7.889-3.609-20.056 6.076-23.746l80.831-30.799a30 30 0 0130.313 5.348l47.301 40.933a30 30 0 0032.22 4.546L350 416.586M378.368 306l-28.43-33.503c-6.758-7.964-3.512-20.223 6.301-23.799l35.287-12.857c6.794-2.476 8.795-11.122 3.78-16.332l-41.903-43.525c-7.37-7.655-4.663-20.334 5.19-24.312l76.489-30.88a40 40 0 0142.95 8.503l58.024 56.78a20 20 0 0020.753 4.526l66.421-23.873a30.002 30.002 0 0132.243 7.939L674 194.841"/><path d="M349.294 417l6.046-4.012c7.684-5.099 8.991-15.859 2.751-22.649l-36.902-40.151c-7.234-7.87-4.148-20.565 5.89-24.237l105.086-38.443a40 40 0 0141.969 9.223l52.308 52.094a29.999 29.999 0 0032.895 6.357l88.417-37.543c9.659-4.101 12.23-16.598 4.975-24.178l-46.087-48.155c-7.224-7.548-4.712-19.984 4.875-24.136l110.31-47.776a40 40 0 0142.974 7.262l50.358 46.312a20 20 0 0021.207 3.75l97.727-40.574c9.771-4.057 12.385-16.683 5.027-24.285l-38.463-39.742c-7.4-7.645-4.708-20.35 5.156-24.338L1118 16"/></g><path d="M273.677 234.395l95.827 104.415a20 20 0 0020.305 5.686l28.33-8.215a40 40 0 0137.239 8.106l51.079 43.979a39.998 39.998 0 0042.555 6.146l142.777-64.444c12.575-5.676 15.763-22.079 6.228-32.05L666.18 264.72c-7.099-7.426-4.802-19.629 4.511-23.965l51.411-23.936a29.998 29.998 0 0133.133 5.266l36.362 33.941a39.998 39.998 0 0043.71 7.235l143.915-64.769c9.561-4.304 11.87-16.839 4.469-24.266L873.382 63.515a40.001 40.001 0 00-42.813-9.056l-256.04 99.406a40 40 0 01-41.902-8.17l-53.584-50.469a30.001 30.001 0 00-31.904-5.938L284.414 155.69a30 30 0 01-31.962-5.993l-38.961-36.895a30 30 0 00-29.989-6.72l-88.016 28.906c-14.302 4.697-18.484 22.913-7.663 33.378l75.275 72.798a20 20 0 0020.215 4.601l58.794-19.553a30 30 0 0131.57 8.183z" stroke="#A3E9FF" stroke-width="4" stroke-dasharray="5.5 5.5"/><path d="M9.666 535.626c-3.513 1.386-4.148 4.625-1.419 7.234 2.73 2.61 7.789 3.602 11.301 2.216 3.513-1.386 4.148-4.625 1.419-7.234-2.73-2.61-7.789-3.602-11.301-2.216zM373.666 301.626c-3.513 1.386-4.148 4.625-1.419 7.234 2.729 2.61 7.789 3.602 11.301 2.216 3.513-1.386 4.148-4.625 1.419-7.234-2.729-2.61-7.789-3.602-11.301-2.216zM668.666 191.626c-3.513 1.386-4.148 4.625-1.419 7.234 2.729 2.61 7.789 3.602 11.301 2.216 3.513-1.386 4.148-4.625 1.419-7.234-2.729-2.61-7.789-3.602-11.301-2.216z" fill="#fff" stroke="#0092E4" stroke-width="4"/><path d="M76.666 145.625c-3.513 1.386-4.148 4.625-1.419 7.234 2.73 2.61 7.789 3.602 11.301 2.216 3.513-1.386 4.148-4.625 1.419-7.234-2.73-2.61-7.789-3.602-11.301-2.216z" fill="#fff" stroke="#A3E9FF" stroke-width="4"/><path d="M1129.77 8.761c.54-.089 1.02.303.75.615l-7.86 9.034c-.22.244-.76.255-1.04.02l-7.87-6.45c-.28-.234-.13-.566.29-.636l15.73-2.583z" fill="#fff" stroke="#0092E4" stroke-width="3"/><path d="M821.666 227.626c-3.513 1.386-4.148 4.625-1.419 7.234 2.729 2.61 7.789 3.602 11.301 2.216 3.513-1.386 4.148-4.625 1.419-7.234-2.729-2.61-7.789-3.602-11.301-2.216z" fill="#fff" stroke="#0092E4" stroke-width="4"/><defs><filter id="filter0_d" x="77" y="371" width="253.093" height="179.212" filterUnits="userSpaceOnUse" color-interpolation-filters="sRGB"><feFlood flood-opacity="0" result="BackgroundImageFix"/><feColorMatrix in="SourceAlpha" values="0 0 0 0 0 0 0 0 0 0 0 0 0 0 0 0 0 0 127 0"/><feOffset dy="20"/><feGaussianBlur stdDeviation="5"/><feColorMatrix values="0 0 0 0 0.43125 0 0 0 0 0.671768 0 0 0 0 0.766667 0 0 0 0.1 0"/><feBlend in2="BackgroundImageFix" result="effect1_dropShadow"/><feBlend in="SourceGraphic" in2="effect1_dropShadow" result="shape"/></filter><filter id="filter1_d" x="320" y="106" width="253.093" height="179.212" filterUnits="userSpaceOnUse" color-interpolation-filters="sRGB"><feFlood flood-opacity="0" result="BackgroundImageFix"/><feColorMatrix in="SourceAlpha" values="0 0 0 0 0 0 0 0 0 0 0 0 0 0 0 0 0 0 127 0"/><feOffset dy="20"/><feGaussianBlur stdDeviation="5"/><feColorMatrix values="0 0 0 0 0.675 0 0 0 0 0.577897 0 0 0 0 0.275625 0 0 0 0.1 0"/><feBlend in2="BackgroundImageFix" result="effect1_dropShadow"/><feBlend in="SourceGraphic" in2="effect1_dropShadow" result="shape"/></filter><filter id="filter2_d" x="711" y="82" width="253.093" height="179.212" filterUnits="userSpaceOnUse" color-interpolation-filters="sRGB"><feFlood flood-opacity="0" result="BackgroundImageFix"/><feColorMatrix in="SourceAlpha" values="0 0 0 0 0 0 0 0 0 0 0 0 0 0 0 0 0 0 127 0"/><feOffset dy="20"/><feGaussianBlur stdDeviation="5"/><feColorMatrix values="0 0 0 0 0.591358 0 0 0 0 0.362934 0 0 0 0 0.770833 0 0 0 0.1 0"/><feBlend in2="BackgroundImageFix" result="effect1_dropShadow"/><feBlend in="SourceGraphic" in2="effect1_dropShadow" result="shape"/></filter><filter id="filter3_d" x="58" y="97" width="253.093" height="169.212" filterUnits="userSpaceOnUse" color-interpolation-filters="sRGB"><feFlood flood-opacity="0" result="BackgroundImageFix"/><feColorMatrix in="SourceAlpha" values="0 0 0 0 0 0 0 0 0 0 0 0 0 0 0 0 0 0 127 0"/><feOffset dy="10"/><feGaussianBlur stdDeviation="5"/><feColorMatrix values="0 0 0 0 0.196078 0 0 0 0 0.772549 0 0 0 0 1 0 0 0 0.1 0"/><feBlend in2="BackgroundImageFix" result="effect1_dropShadow"/><feBlend in="SourceGraphic" in2="effect1_dropShadow" result="shape"/></filter><filter id="filter4_d" x="444" y="209.03" width="253.093" height="183.182" filterUnits="userSpaceOnUse" color-interpolation-filters="sRGB"><feFlood flood-opacity="0" result="BackgroundImageFix"/><feColorMatrix in="SourceAlpha" values="0 0 0 0 0 0 0 0 0 0 0 0 0 0 0 0 0 0 127 0"/><feOffset dy="20"/><feGaussianBlur stdDeviation="5"/><feColorMatrix values="0 0 0 0 0.565026 0 0 0 0 0.8125 0 0 0 0 0.52474 0 0 0 0.1 0"/><feBlend in2="BackgroundImageFix" result="effect1_dropShadow"/><feBlend in="SourceGraphic" in2="effect1_dropShadow" result="shape"/></filter><filter id="filter5_d" x="7.234" y="14.146" width="1115.52" height="536.8" filterUnits="userSpaceOnUse" color-interpolation-filters="sRGB"><feFlood flood-opacity="0" result="BackgroundImageFix"/><feColorMatrix in="SourceAlpha" values="0 0 0 0 0 0 0 0 0 0 0 0 0 0 0 0 0 0 127 0"/><feOffset dy="5"/><feGaussianBlur stdDeviation="2"/><feColorMatrix values="0 0 0 0 0.376471 0 0 0 0 0.380392 0 0 0 0 0.439216 0 0 0 0.1 0"/><feBlend in2="BackgroundImageFix" result="effect1_dropShadow"/><feBlend in="SourceGraphic" in2="effect1_dropShadow" result="shape"/></filter><clipPath id="clip0"><path fill="#fff" transform="matrix(.96525 -.26131 .5036 .86394 170.932 430.92)" d="M0 0h49.467v42.587H0z"/></clipPath></defs></svg>