<svg width="311" height="100" viewBox="0 0 311 100" fill="none" xmlns="http://www.w3.org/2000/svg">
<g clip-path="url(#clip0)">
<path d="M275.453 46.7075C275.456 46.7075 275.458 46.715 275.458 46.7294L275.465 47.0357L275.511 46.802C275.499 46.655 275.383 46.7299 275.453 46.7128V46.7075ZM281.777 38.4646C281.775 38.4668 281.77 38.4668 281.768 38.469C281.77 38.4712 281.775 38.4734 281.777 38.4764C281.775 38.4742 281.777 38.469 281.777 38.4642V38.4646Z" fill="#FEFEFE"/>
<path d="M281.18 48.6672L281.238 47.6163C281.334 46.8524 281.242 46.0719 281.443 45.3168C281.542 44.9265 281.226 44.468 281.631 44.1259L281.53 43.7934C281.417 43.6053 281.475 43.4224 281.543 43.2391C281.535 42.5688 281.543 41.899 281.663 41.2362L281.774 38.4712C281.771 38.469 281.766 38.4669 281.764 38.4638C279.795 39.3677 277.939 38.1024 277.623 36.5838C277.416 35.5863 277.527 34.6435 278.305 33.8818C278.435 33.7541 278.546 33.6071 278.667 33.4671C278.985 31.5596 278.754 29.8096 277.134 28.4464C277.377 28.3064 277.597 28.386 277.79 28.3501C275.795 27.847 273.371 29.2142 272.568 31.3019C272.327 31.9284 272.197 32.5707 272.238 33.247C274.22 32.3283 276 33.4255 276.485 35.0959C276.993 36.8337 275.638 38.6729 273.838 38.6992C273.313 38.7066 272.814 38.6195 272.317 38.4725L272.428 41.3504C272.498 41.9795 272.572 42.606 272.541 43.2404L272.556 43.6888L272.541 43.9877C272.688 44.5901 272.72 45.2096 272.765 45.8269C272.761 45.8111 272.758 45.795 272.756 45.7788C272.758 45.7963 272.763 45.8103 272.765 45.8225L272.917 48.9703C272.949 49.4043 272.792 49.6209 272.392 49.7316C271.92 49.8642 271.455 50.0234 270.987 50.1726C271.613 50.2592 272.231 50.2688 272.848 50.2544C273.515 50.24 273.819 49.9482 273.885 49.2805L274 48.0153L274.13 45.7206H274.224V47.902L274.263 48.8951C274.359 50.4351 274.405 50.4255 272.87 50.7326C272.833 50.74 272.802 50.7615 272.769 50.7763L273.044 50.9601C273.073 50.9675 273.096 50.9793 273.111 51.006C273.477 51.0082 273.846 51.0397 274.208 51.006C274.866 50.9435 275.177 50.5913 275.225 49.9385C275.254 49.5185 275.297 49.0998 275.334 48.6803C275.276 48.1233 275.36 47.5765 275.464 47.0292L275.456 46.7229C275.456 46.7085 275.452 46.6988 275.452 46.701C275.382 46.7185 275.498 46.6433 275.509 46.7903L275.548 46.5952V49.1213L275.57 50.0081C275.582 51.0808 275.514 51.1771 274.492 51.4833C274.21 51.5678 273.916 51.6146 273.636 51.7122C273.434 51.7822 273.176 51.7437 272.986 51.9821C273.817 51.9506 274.596 52.0447 275.37 51.9195C276.171 51.7896 276.489 51.4663 276.652 50.6858C276.772 50.117 276.827 49.522 277.042 48.9358C277.074 48.9983 277.098 49.0233 277.105 49.0609L277.433 50.6902C277.583 51.4492 277.891 51.7725 278.658 51.9073C279.456 52.0447 280.264 51.951 281.091 51.9698C280.972 51.7673 280.787 51.801 280.637 51.7577C280.124 51.608 279.6 51.4803 279.097 51.307C278.731 51.1793 278.468 50.9457 278.473 50.4946L278.477 46.7925H278.627L278.784 49.1112C278.878 50.8997 279.09 51.0948 280.886 50.996C280.986 50.8271 281.236 50.9597 281.329 50.779C280.898 50.7768 280.522 50.569 280.126 50.4368C279.905 50.3625 279.779 50.1621 279.784 49.9118C279.803 48.644 279.755 47.3713 279.926 46.1082L280.194 49.2923C280.233 49.7889 280.457 50.177 280.982 50.2111C281.682 50.2548 282.392 50.2233 283.098 50.2233C282.724 50.0352 282.341 49.9245 281.96 49.8033C281.098 49.526 281.103 49.5233 281.182 48.6466L281.18 48.6672ZM275.752 30.5831C275.751 30.7526 275.682 30.9146 275.563 31.0344C275.443 31.1543 275.281 31.2223 275.111 31.224C274.733 31.2315 274.448 31.014 274.441 30.5227C274.482 30.1662 274.682 29.9225 275.106 29.9129C275.557 29.9054 275.759 30.2095 275.752 30.5831H275.752ZM278.649 41.1255C278.652 42.1012 277.905 42.9525 277.051 42.9499C276.246 42.9477 275.424 41.9979 275.453 41.101L275.303 40.1972C275.88 40.59 276.364 40.9925 277.012 41.0065C277.675 41.0188 278.196 40.6784 278.738 40.2812C278.854 40.5992 278.562 40.8477 278.649 41.1247L278.649 41.1255Z" fill="#FE733E"/>
<path d="M272.544 43.2412L272.404 43.1856C271.748 42.9157 271.172 42.5009 270.642 42.0407C268.729 40.3869 267.466 38.3167 267.16 35.8054C266.813 32.9516 267.452 30.317 269.356 28.0538C271.094 25.9906 273.309 24.7879 275.953 24.5101C278.892 24.2038 281.531 25.0263 283.753 27.0554C285.607 28.7472 286.684 30.8442 286.966 33.3099C287.202 35.4099 286.824 37.4386 285.744 39.2827C284.763 40.9583 283.457 42.3172 281.69 43.1777L281.546 43.2477C281.478 43.4315 281.418 43.6139 281.533 43.8021C281.574 43.7657 281.61 43.7202 281.659 43.6936C284.327 42.2813 286.178 40.1817 287.043 37.2606C287.118 37.0125 287.234 36.8896 287.511 36.9184C287.888 36.9569 287.993 36.7062 287.993 36.3934L287.995 32.7876C287.995 32.5251 287.932 32.2451 287.664 32.2162C287.173 32.1584 287.112 31.7992 287.014 31.4497C286.43 29.4162 285.321 27.7196 283.659 26.4202C280.26 23.7514 276.529 23.2702 272.615 25.0727C269.709 26.4106 267.856 28.7319 267.018 31.8386C266.965 32.0311 266.989 32.2604 266.661 32.1886C266.193 32.0924 266.018 32.3671 266.015 32.7814L266.013 36.3873C266.013 36.7876 266.216 36.9998 266.601 36.9053C266.951 36.8187 267.04 36.9946 267.112 37.2641C267.425 38.416 267.949 39.4691 268.656 40.4316C269.693 41.8368 270.956 42.9691 272.561 43.6831L272.544 43.2324L272.544 43.2412Z" fill="#B5D2F3"/>
<path d="M272.546 43.9841C272.19 44.9843 271.24 44.9598 270.432 45.2109C271.04 45.3675 271.657 45.5478 272.264 45.4445C272.625 45.382 272.695 45.5119 272.748 45.7267L272.761 45.7775L272.77 45.8212C272.724 45.2017 272.693 44.5848 272.546 43.9837V43.9841Z" fill="#FE684B"/>
<path d="M281.443 45.3194C282.214 45.6694 282.942 45.3172 283.687 45.2157C282.959 44.9072 282.017 45.066 281.634 44.1285C281.227 44.4706 281.546 44.9291 281.443 45.3194H281.443Z" fill="#FE6446"/>
<path d="M275.55 46.6012L275.511 46.7963L275.465 47.0299C275.362 47.5768 275.277 48.1237 275.335 48.6811C275.516 48.7751 275.379 49.0232 275.554 49.1247V46.6012H275.55Z" fill="#FED6C8"/>
<path d="M274.134 45.7197L274.004 48.0144L274.228 47.9006V45.7192H274.134V45.7197Z" fill="#FEEBE3"/>
<path d="M271.869 51.0078H273.113L273.046 50.9619L272.771 50.7781C272.499 50.7637 272.243 50.824 271.87 51.0069L271.869 51.0078Z" fill="#FE9166"/>
<path d="M280.888 51.0078H282.099C281.853 50.8656 281.612 50.7453 281.332 50.7908C281.238 50.9745 280.987 50.8345 280.888 51.0078Z" fill="#FE8F64"/>
<path d="M281.691 43.1713C283.458 42.3138 284.763 40.954 285.746 39.2762C286.825 37.4322 287.204 35.403 286.968 33.3035C286.691 30.836 285.61 28.739 283.755 27.0538C281.533 25.0225 278.893 24.1982 275.959 24.5067C273.317 24.7814 271.099 25.9867 269.361 28.0504C267.451 30.3132 266.815 32.9469 267.162 35.8012C267.468 38.315 268.731 40.3831 270.644 42.0364C271.177 42.4967 271.748 42.9136 272.406 43.1813C272.452 43.2006 272.494 43.2198 272.546 43.2369C272.578 42.6025 272.503 41.9769 272.433 41.3469L272.288 41.2432C271.799 40.8932 271.379 40.4527 270.958 40.0235C270.83 39.8935 270.671 39.7828 270.671 39.5702C270.387 39.775 270.182 39.6328 270.015 39.4062C269.089 38.1431 268.53 36.7427 268.456 35.1624C268.388 33.7694 268.513 32.4149 269.099 31.1112C269.843 29.4552 270.989 28.19 272.526 27.2498C272.786 27.0905 272.936 27.2323 273.117 27.3504C273.293 27.3329 273.449 27.2734 273.563 27.1286L273.541 27.0778C273.387 26.7523 273.379 26.3835 273.751 26.2969C274.125 26.2077 274.337 26.5157 274.339 26.9042C277.128 25.9924 279.721 26.3638 282.062 28.1497C283.812 29.485 284.815 31.2757 285.124 33.4597C285.52 36.2675 284.57 38.5959 282.613 40.5647C282.381 40.7965 282.121 41.0057 281.827 41.1623C281.777 41.1882 281.727 41.2131 281.676 41.2371C281.555 41.8999 281.548 42.5702 281.555 43.24L281.695 43.17L281.691 43.1713Z" fill="#E2F5FC"/>
<path d="M282.609 40.5726C284.564 38.6038 285.514 36.275 285.12 33.4676C284.814 31.2814 283.811 29.4863 282.058 28.1576C279.721 26.3669 277.121 25.9986 274.34 26.9121C274.336 26.9142 274.33 26.9195 274.326 26.9217C274.107 27.0617 273.935 27.3627 273.619 27.1746C273.6 27.1623 273.583 27.1527 273.564 27.1382C273.45 27.2826 273.296 27.343 273.118 27.3601C273.11 27.3889 273.1 27.4156 273.091 27.4445C272.891 28.0062 272.291 28.1532 271.888 28.4945C270.796 29.408 269.986 30.507 269.509 31.8282C268.743 33.9632 268.899 36.0558 269.926 38.0757C270.092 38.4039 270.297 38.7145 270.517 39.0111C270.638 39.1717 270.693 39.3728 270.671 39.5729C270.671 39.7899 270.83 39.9032 270.958 40.0331C271.383 40.4619 271.799 40.8985 272.288 41.2529L272.433 41.3566L272.322 38.4787C271.483 37.9292 270.871 37.2301 270.764 36.1888C270.632 34.9043 271.171 33.9545 272.223 33.2628C272.227 33.2606 272.232 33.2554 272.237 33.2532C272.196 32.5781 272.326 31.9319 272.567 31.3081C273.366 29.2194 275.791 27.8501 277.789 28.351C279.122 28.568 280.211 29.1735 280.992 30.2839C281.617 31.1733 281.939 32.1542 281.867 33.2484C282.62 33.8197 283.227 34.4896 283.325 35.4805C283.458 36.8136 282.889 37.787 281.768 38.4669V38.4791L281.657 41.2441C281.71 41.2201 281.761 41.2004 281.809 41.1697C282.108 41.0131 282.368 40.8036 282.6 40.5695L282.609 40.5726Z" fill="#CDECF6"/>
<path d="M279.358 33.1403C280.189 32.7334 280.987 32.9521 281.785 33.2146L281.875 33.2435C281.942 32.1467 281.619 31.1654 281 30.279C280.219 29.1678 279.129 28.5627 277.804 28.3483C277.599 28.3868 277.379 28.3046 277.136 28.4446C278.765 29.8087 278.99 31.5587 278.669 33.4653L279.363 33.1398L279.358 33.1403Z" fill="#FE6B3C"/>
<path d="M283.335 35.4782C283.236 34.4877 282.629 33.8175 281.877 33.2461L281.788 33.2172C280.987 32.9547 280.187 32.7351 279.36 33.1429L278.818 33.4054L278.668 33.4754L278.307 33.8901C277.526 34.6514 277.417 35.5942 277.624 36.5921C277.94 38.1129 279.796 39.379 281.767 38.4769C281.77 38.4747 281.775 38.4747 281.777 38.4725C282.898 37.79 283.469 36.81 283.335 35.4844L283.335 35.4782ZM280.387 38.1417C279.107 38.1321 278.109 37.1149 278.121 35.8304C278.133 34.5652 279.171 33.5624 280.442 33.5721C281.724 33.5817 282.705 34.5914 282.695 35.8882C282.685 37.1753 281.683 38.1544 280.386 38.1413L280.387 38.1417Z" fill="#FE6142"/>
<path d="M272.221 33.2531C271.17 33.9443 270.63 34.8946 270.763 36.1791C270.869 37.2203 271.481 37.9195 272.315 38.4663C272.817 38.616 273.313 38.7026 273.841 38.6951C275.635 38.6689 276.996 36.8314 276.488 35.0919C276.006 33.4224 274.219 32.3256 272.244 33.2443C272.234 33.2465 272.229 33.2518 272.225 33.254L272.221 33.2531ZM273.658 38.1413C272.344 38.1456 271.327 37.1385 271.332 35.8321C271.334 34.5503 272.335 33.5571 273.625 33.5497C274.928 33.5423 275.97 34.5691 275.965 35.851C275.961 37.111 274.927 38.136 273.659 38.1408L273.658 38.1413Z" fill="#FE6143"/>
<path d="M275.757 41.3136C275.668 41.2244 275.603 41.1036 275.454 41.1014C275.425 41.9983 276.244 42.9477 277.052 42.9503C277.908 42.9525 278.652 42.1016 278.65 41.1259C278.327 41.2922 278.122 41.6343 277.751 41.7358C277.007 41.9384 276.331 41.8876 275.758 41.3141L275.757 41.3136Z" fill="#070909"/>
<path d="M278.739 40.2819C278.196 40.6757 277.678 41.0196 277.013 41.0073C276.362 40.9951 275.875 40.5904 275.304 40.1979L275.453 41.1018C275.603 41.1062 275.672 41.2243 275.757 41.314C276.328 41.8828 277.011 41.9383 277.75 41.7358C278.121 41.6351 278.327 41.2948 278.649 41.1259C278.563 40.8485 278.854 40.6009 278.739 40.2824V40.2819Z" fill="#FDFCFB"/>
<path d="M275.107 29.915C274.68 29.9224 274.48 30.1656 274.442 30.5248C274.449 31.0166 274.733 31.231 275.112 31.2261C275.281 31.2244 275.443 31.1564 275.563 31.0365C275.683 30.9167 275.751 30.7547 275.753 30.5852C275.76 30.209 275.558 29.9053 275.107 29.915H275.107Z" fill="#FEA777"/>
<path d="M270.667 39.5662C270.689 39.3661 270.634 39.1651 270.512 39.0045C270.295 38.7078 270.088 38.3972 269.922 38.0691C268.895 36.0491 268.74 33.9566 269.505 31.8216C269.986 30.496 270.792 29.4022 271.884 28.4878C272.286 28.151 272.887 28.0057 273.087 27.4378C273.097 27.4116 273.106 27.3823 273.113 27.3534C272.933 27.2353 272.783 27.0931 272.523 27.2528C270.985 28.1934 269.84 29.4578 269.095 31.1141C268.509 32.4179 268.384 33.7728 268.452 35.1654C268.529 36.7395 269.087 38.1421 270.011 39.4091C270.178 39.6358 270.385 39.778 270.668 39.5732L270.667 39.5662Z" fill="#FDFEFE"/>
<path d="M274.318 26.9216C274.323 26.9194 274.328 26.9142 274.333 26.912C274.328 26.5191 274.114 26.2155 273.745 26.3047C273.375 26.394 273.381 26.7628 273.535 27.0857L273.556 27.1364C273.574 27.1496 273.593 27.1617 273.612 27.1727C273.928 27.3631 274.099 27.059 274.318 26.9221V26.9216Z" fill="#FBFDFE"/>
<path d="M282.696 35.8904C282.706 34.5963 281.725 33.5861 280.443 33.5743C279.166 33.5647 278.134 34.5674 278.122 35.8327C278.116 36.134 278.17 36.4335 278.282 36.7137C278.393 36.9938 278.559 37.249 278.77 37.4642C278.981 37.6794 279.232 37.8504 279.51 37.9671C279.788 38.0838 280.087 38.144 280.388 38.144C281.685 38.1536 282.687 37.1749 282.697 35.8908L282.696 35.8904ZM280.5 36.1411C280.066 36.1485 279.813 35.9027 279.775 35.4761C279.738 35.0823 280.095 34.7074 280.49 34.7337C280.915 34.7652 281.153 35.0137 281.203 35.4568C281.146 35.8523 280.943 36.1341 280.503 36.1415L280.5 36.1411ZM273.624 33.5524C272.334 33.5598 271.337 34.5525 271.331 35.8348C271.329 37.1412 272.344 38.1536 273.657 38.144C274.925 38.1396 275.958 37.115 275.964 35.8567C275.966 34.5722 274.925 33.5454 273.623 33.5524H273.624ZM273.626 36.1411C273.197 36.1455 272.939 35.9005 272.905 35.4687C272.874 35.0749 273.234 34.7022 273.631 34.7358C274.051 34.7722 274.296 35.0158 274.331 35.459C274.278 35.8659 274.056 36.1363 273.622 36.1415L273.626 36.1411Z" fill="#FEFEFE"/>
<path d="M280.491 34.7336C280.096 34.7048 279.739 35.0758 279.775 35.4761C279.814 35.9048 280.067 36.1485 280.501 36.1411C280.942 36.1336 281.147 35.8523 281.201 35.4564C281.15 35.0128 280.912 34.7651 280.488 34.7332L280.491 34.7336Z" fill="#090B0B"/>
<path d="M273.631 34.7362C273.238 34.7025 272.874 35.0713 272.906 35.469C272.94 35.9004 273.198 36.1463 273.626 36.1415C274.06 36.1371 274.283 35.8667 274.335 35.459C274.294 35.0127 274.048 34.7695 273.635 34.7358L273.631 34.7362Z" fill="#090C0C"/>
</g>
<path d="M9.83061 65H10.7085V62.4631H13.609V65H14.4897V59.1818H13.609V61.7102H10.7085V59.1818H9.83061V65ZM16.9698 65.0966C17.6914 65.0966 18.0977 64.7301 18.2596 64.4034H18.2937V65H19.1232V62.1023C19.1232 60.8324 18.1232 60.5795 17.43 60.5795C16.6403 60.5795 15.913 60.8977 15.6289 61.6932L16.4272 61.875C16.5522 61.5653 16.8704 61.267 17.4414 61.267C17.9897 61.267 18.271 61.554 18.271 62.0483V62.0682C18.271 62.3778 17.9528 62.3722 17.1687 62.4631C16.342 62.5597 15.4954 62.7756 15.4954 63.767C15.4954 64.625 16.1403 65.0966 16.9698 65.0966ZM17.1545 64.4148C16.6744 64.4148 16.3278 64.1989 16.3278 63.7784C16.3278 63.3239 16.7312 63.1619 17.2227 63.0966C17.4982 63.0597 18.1516 62.9858 18.2738 62.8636V63.4261C18.2738 63.9432 17.8619 64.4148 17.1545 64.4148ZM20.2546 65H21.104V62.3352C21.104 61.7642 21.5444 61.3523 22.1467 61.3523C22.3228 61.3523 22.5217 61.3835 22.5898 61.4034V60.5909C22.5046 60.5795 22.337 60.571 22.229 60.571C21.7177 60.571 21.2802 60.8608 21.1211 61.3295H21.0756V60.6364H20.2546V65ZM24.1744 62.4091C24.1744 61.7131 24.6005 61.3153 25.1914 61.3153C25.7681 61.3153 26.1175 61.6932 26.1175 62.3267V65H26.967V62.2244C26.967 61.1449 26.3732 60.5795 25.4812 60.5795C24.8249 60.5795 24.396 60.8835 24.1942 61.3466H24.1403V60.6364H23.3249V65H24.1744V62.4091ZM29.9869 65.0881C30.9386 65.0881 31.6119 64.6193 31.805 63.9091L31.0011 63.7642C30.8477 64.1761 30.4783 64.3864 29.9954 64.3864C29.2681 64.3864 28.7795 63.9148 28.7567 63.0739H31.859V62.7727C31.859 61.196 30.9158 60.5795 29.9272 60.5795C28.7113 60.5795 27.9102 61.5057 27.9102 62.8466C27.9102 64.2017 28.6999 65.0881 29.9869 65.0881ZM28.7596 62.4375C28.7937 61.8182 29.2425 61.2812 29.9329 61.2812C30.592 61.2812 31.0238 61.7699 31.0266 62.4375H28.7596ZM36.0714 61.7017C35.8952 61.0227 35.364 60.5795 34.4208 60.5795C33.435 60.5795 32.7362 61.0994 32.7362 61.8722C32.7362 62.4915 33.1112 62.9034 33.9293 63.0852L34.668 63.2472C35.0884 63.3409 35.2844 63.5284 35.2844 63.8011C35.2844 64.1392 34.9237 64.4034 34.3668 64.4034C33.8583 64.4034 33.5316 64.1847 33.4293 63.7557L32.6083 63.8807C32.7504 64.6534 33.3924 65.0881 34.3725 65.0881C35.4265 65.0881 36.1566 64.5284 36.1566 63.7386C36.1566 63.1222 35.7646 62.7415 34.9634 62.5568L34.2702 62.3977C33.7901 62.2841 33.5827 62.1222 33.5856 61.8267C33.5827 61.4915 33.9464 61.2528 34.4293 61.2528C34.9577 61.2528 35.2021 61.5455 35.3015 61.8381L36.0714 61.7017ZM40.3604 61.7017C40.1843 61.0227 39.6531 60.5795 38.7099 60.5795C37.7241 60.5795 37.0252 61.0994 37.0252 61.8722C37.0252 62.4915 37.4002 62.9034 38.2184 63.0852L38.957 63.2472C39.3775 63.3409 39.5735 63.5284 39.5735 63.8011C39.5735 64.1392 39.2127 64.4034 38.6559 64.4034C38.1474 64.4034 37.8207 64.1847 37.7184 63.7557L36.8974 63.8807C37.0394 64.6534 37.6815 65.0881 38.6616 65.0881C39.7156 65.0881 40.4457 64.5284 40.4457 63.7386C40.4457 63.1222 40.0536 62.7415 39.2525 62.5568L38.5593 62.3977C38.0792 62.2841 37.8718 62.1222 37.8746 61.8267C37.8718 61.4915 38.2354 61.2528 38.7184 61.2528C39.2468 61.2528 39.4911 61.5455 39.5906 61.8381L40.3604 61.7017ZM9.4478 75H10.3256V72.9545H11.5188C12.8683 72.9545 13.5359 72.1392 13.5359 71.0653C13.5359 69.9943 12.8739 69.1818 11.5217 69.1818H9.4478V75ZM10.3256 72.2102V69.9347H11.4279C12.2972 69.9347 12.6523 70.4062 12.6523 71.0653C12.6523 71.7244 12.2972 72.2102 11.4393 72.2102H10.3256ZM15.3462 69.1818H14.4968V75H15.3462V69.1818ZM17.7589 75.0966C18.4805 75.0966 18.8867 74.7301 19.0487 74.4034H19.0827V75H19.9123V72.1023C19.9123 70.8324 18.9123 70.5795 18.2191 70.5795C17.4293 70.5795 16.7021 70.8977 16.418 71.6932L17.2163 71.875C17.3413 71.5653 17.6594 71.267 18.2305 71.267C18.7788 71.267 19.06 71.554 19.06 72.0483V72.0682C19.06 72.3778 18.7418 72.3722 17.9577 72.4631C17.131 72.5597 16.2844 72.7756 16.2844 73.767C16.2844 74.625 16.9293 75.0966 17.7589 75.0966ZM17.9435 74.4148C17.4634 74.4148 17.1168 74.1989 17.1168 73.7784C17.1168 73.3239 17.5202 73.1619 18.0117 73.0966C18.2873 73.0597 18.9407 72.9858 19.0629 72.8636V73.4261C19.0629 73.9432 18.6509 74.4148 17.9435 74.4148ZM23.0806 70.6364H22.1857V69.5909H21.3363V70.6364H20.6971V71.3182H21.3363V73.8949C21.3335 74.6875 21.9386 75.071 22.609 75.0568C22.8789 75.054 23.0607 75.0028 23.1602 74.9659L23.0067 74.2642C22.9499 74.2756 22.8448 74.3011 22.7085 74.3011C22.4329 74.3011 22.1857 74.2102 22.1857 73.7188V71.3182H23.0806V70.6364ZM26.0969 70.6364H25.1566V70.2443C25.1566 69.858 25.3157 69.6477 25.7305 69.6477C25.9066 69.6477 26.0316 69.6875 26.1112 69.7131L26.31 69.0256C26.1907 68.9801 25.9435 68.9091 25.5998 68.9091C24.9094 68.9091 24.3043 69.3125 24.3043 70.1307V70.6364H23.631V71.3182H24.3043V75H25.1566V71.3182H26.0969V70.6364ZM28.6396 75.0881C29.8697 75.0881 30.6737 74.1875 30.6737 72.8381C30.6737 71.4801 29.8697 70.5795 28.6396 70.5795C27.4094 70.5795 26.6055 71.4801 26.6055 72.8381C26.6055 74.1875 27.4094 75.0881 28.6396 75.0881ZM28.6424 74.375C27.8384 74.375 27.4634 73.6733 27.4634 72.8352C27.4634 72 27.8384 71.2898 28.6424 71.2898C29.4407 71.2898 29.8157 72 29.8157 72.8352C29.8157 73.6733 29.4407 74.375 28.6424 74.375ZM31.6218 75H32.4712V72.3352C32.4712 71.7642 32.9116 71.3523 33.5138 71.3523C33.69 71.3523 33.8888 71.3835 33.957 71.4034V70.5909C33.8718 70.5795 33.7042 70.571 33.5962 70.571C33.0849 70.571 32.6474 70.8608 32.4883 71.3295H32.4428V70.6364H31.6218V75ZM34.6921 75H35.5415V72.3097C35.5415 71.7216 35.9535 71.3125 36.4364 71.3125C36.908 71.3125 37.2347 71.625 37.2347 72.0994V75H38.0813V72.2188C38.0813 71.6932 38.4023 71.3125 38.9563 71.3125C39.4052 71.3125 39.7745 71.5625 39.7745 72.1534V75H40.6239V72.0739C40.6239 71.0767 40.0671 70.5795 39.2773 70.5795C38.6495 70.5795 38.1779 70.8807 37.9677 71.3466H37.9222C37.7319 70.8693 37.3313 70.5795 36.7489 70.5795C36.1722 70.5795 35.7433 70.8665 35.5614 71.3466H35.5075V70.6364H34.6921V75Z" fill="#4F5162"/>
<path d="M102.756 73H103.634V70.4631H106.106V69.7102H103.634V67.9375H106.364V67.1818H102.756V73ZM107.376 73H108.225V68.6364H107.376V73ZM107.805 67.9631C108.097 67.9631 108.342 67.7358 108.342 67.4574C108.342 67.179 108.097 66.9489 107.805 66.9489C107.509 66.9489 107.268 67.179 107.268 67.4574C107.268 67.7358 107.509 67.9631 107.805 67.9631ZM109.368 73H110.217V70.3352C110.217 69.7642 110.658 69.3523 111.26 69.3523C111.436 69.3523 111.635 69.3835 111.703 69.4034V68.5909C111.618 68.5795 111.45 68.571 111.342 68.571C110.831 68.571 110.393 68.8608 110.234 69.3295H110.189V68.6364H109.368V73ZM114.163 73.0881C115.114 73.0881 115.788 72.6193 115.981 71.9091L115.177 71.7642C115.023 72.1761 114.654 72.3864 114.171 72.3864C113.444 72.3864 112.955 71.9148 112.933 71.0739H116.035V70.7727C116.035 69.196 115.092 68.5795 114.103 68.5795C112.887 68.5795 112.086 69.5057 112.086 70.8466C112.086 72.2017 112.876 73.0881 114.163 73.0881ZM112.935 70.4375C112.969 69.8182 113.418 69.2812 114.109 69.2812C114.768 69.2812 115.2 69.7699 115.202 70.4375H112.935ZM117.915 73H118.779L119.665 69.8494H119.731L120.617 73H121.484L122.765 68.6364H121.887L121.038 71.8267H120.995L120.143 68.6364H119.265L118.407 71.8409H118.364L117.509 68.6364H116.631L117.915 73ZM124.841 73.0966C125.562 73.0966 125.969 72.7301 126.131 72.4034H126.165V73H126.994V70.1023C126.994 68.8324 125.994 68.5795 125.301 68.5795C124.511 68.5795 123.784 68.8977 123.5 69.6932L124.298 69.875C124.423 69.5653 124.741 69.267 125.312 69.267C125.861 69.267 126.142 69.554 126.142 70.0483V70.0682C126.142 70.3778 125.824 70.3722 125.04 70.4631C124.213 70.5597 123.366 70.7756 123.366 71.767C123.366 72.625 124.011 73.0966 124.841 73.0966ZM125.026 72.4148C124.545 72.4148 124.199 72.1989 124.199 71.7784C124.199 71.3239 124.602 71.1619 125.094 71.0966C125.369 71.0597 126.023 70.9858 126.145 70.8636V71.4261C126.145 71.9432 125.733 72.4148 125.026 72.4148ZM128.975 67.1818H128.126V73H128.975V67.1818ZM130.967 67.1818H130.118V73H130.967V67.1818Z" fill="#4F5162"/>
<path d="M184.267 72L184.801 70.4602H187.074L187.605 72H188.537L186.444 66.1818H185.429L183.336 72H184.267ZM185.057 69.7216L185.915 67.2386H185.961L186.819 69.7216H185.057ZM190.873 72.0852C191.668 72.0852 191.98 71.5994 192.134 71.321H192.205V72H193.034V66.1818H192.185V68.3438H192.134C191.98 68.0739 191.691 67.5795 190.878 67.5795C189.824 67.5795 189.049 68.4119 189.049 69.8267C189.049 71.2386 189.813 72.0852 190.873 72.0852ZM191.06 71.3608C190.301 71.3608 189.907 70.6932 189.907 69.8182C189.907 68.9517 190.293 68.3011 191.06 68.3011C191.801 68.3011 192.199 68.9062 192.199 69.8182C192.199 70.7358 191.793 71.3608 191.06 71.3608ZM195.517 72.0966C196.238 72.0966 196.645 71.7301 196.806 71.4034H196.841V72H197.67V69.1023C197.67 67.8324 196.67 67.5795 195.977 67.5795C195.187 67.5795 194.46 67.8977 194.176 68.6932L194.974 68.875C195.099 68.5653 195.417 68.267 195.988 68.267C196.537 68.267 196.818 68.554 196.818 69.0483V69.0682C196.818 69.3778 196.5 69.3722 195.716 69.4631C194.889 69.5597 194.042 69.7756 194.042 70.767C194.042 71.625 194.687 72.0966 195.517 72.0966ZM195.701 71.4148C195.221 71.4148 194.875 71.1989 194.875 70.7784C194.875 70.3239 195.278 70.1619 195.77 70.0966C196.045 70.0597 196.699 69.9858 196.821 69.8636V70.4261C196.821 70.9432 196.409 71.4148 195.701 71.4148ZM198.801 73.6364H199.651V71.321H199.702C199.855 71.5994 200.168 72.0852 200.963 72.0852C202.02 72.0852 202.787 71.2386 202.787 69.8267C202.787 68.4119 202.009 67.5795 200.955 67.5795C200.145 67.5795 199.853 68.0739 199.702 68.3438H199.631V67.6364H198.801V73.6364ZM199.634 69.8182C199.634 68.9062 200.032 68.3011 200.773 68.3011C201.543 68.3011 201.929 68.9517 201.929 69.8182C201.929 70.6932 201.532 71.3608 200.773 71.3608C200.043 71.3608 199.634 70.7358 199.634 69.8182ZM205.776 67.6364H204.881V66.5909H204.032V67.6364H203.392V68.3182H204.032V70.8949C204.029 71.6875 204.634 72.071 205.304 72.0568C205.574 72.054 205.756 72.0028 205.855 71.9659L205.702 71.2642C205.645 71.2756 205.54 71.3011 205.404 71.3011C205.128 71.3011 204.881 71.2102 204.881 70.7188V68.3182H205.776V67.6364ZM208.549 72.0881C209.501 72.0881 210.174 71.6193 210.368 70.9091L209.564 70.7642C209.41 71.1761 209.041 71.3864 208.558 71.3864C207.831 71.3864 207.342 70.9148 207.319 70.0739H210.422V69.7727C210.422 68.196 209.478 67.5795 208.49 67.5795C207.274 67.5795 206.473 68.5057 206.473 69.8466C206.473 71.2017 207.262 72.0881 208.549 72.0881ZM207.322 69.4375C207.356 68.8182 207.805 68.2812 208.495 68.2812C209.154 68.2812 209.586 68.7699 209.589 69.4375H207.322ZM211.364 72H212.213V69.3352C212.213 68.7642 212.654 68.3523 213.256 68.3523C213.432 68.3523 213.631 68.3835 213.699 68.4034V67.5909C213.614 67.5795 213.446 67.571 213.338 67.571C212.827 67.571 212.39 67.8608 212.23 68.3295H212.185V67.6364H211.364V72Z" fill="#4F5162"/>
<path d="M264.107 65L264.641 63.4602H266.914L267.445 65H268.377L266.283 59.1818H265.269L263.175 65H264.107ZM264.897 62.7216L265.755 60.2386H265.8L266.658 62.7216H264.897ZM269.149 65H269.999V62.3352C269.999 61.7642 270.439 61.3523 271.041 61.3523C271.217 61.3523 271.416 61.3835 271.484 61.4034V60.5909C271.399 60.5795 271.232 60.571 271.124 60.571C270.612 60.571 270.175 60.8608 270.016 61.3295H269.97V60.6364H269.149V65ZM273.893 66.7273C275.004 66.7273 275.862 66.2188 275.862 65.0966V60.6364H275.029V61.3438H274.967C274.816 61.0739 274.515 60.5795 273.702 60.5795C272.648 60.5795 271.873 61.4119 271.873 62.8011C271.873 64.1932 272.665 64.9347 273.697 64.9347C274.498 64.9347 274.808 64.483 274.961 64.2045H275.015V65.0625C275.015 65.7472 274.546 66.0426 273.901 66.0426C273.194 66.0426 272.918 65.6875 272.768 65.4375L272.038 65.7386C272.268 66.2727 272.85 66.7273 273.893 66.7273ZM273.884 64.2301C273.126 64.2301 272.731 63.6477 272.731 62.7898C272.731 61.9517 273.117 61.3011 273.884 61.3011C274.626 61.3011 275.023 61.9062 275.023 62.7898C275.023 63.6903 274.617 64.2301 273.884 64.2301ZM278.839 65.0881C280.069 65.0881 280.873 64.1875 280.873 62.8381C280.873 61.4801 280.069 60.5795 278.839 60.5795C277.609 60.5795 276.805 61.4801 276.805 62.8381C276.805 64.1875 277.609 65.0881 278.839 65.0881ZM278.842 64.375C278.038 64.375 277.663 63.6733 277.663 62.8352C277.663 62 278.038 61.2898 278.842 61.2898C279.64 61.2898 280.015 62 280.015 62.8352C280.015 63.6733 279.64 64.375 278.842 64.375ZM288.839 61.0739C288.64 59.8295 287.665 59.1023 286.435 59.1023C284.93 59.1023 283.819 60.2301 283.819 62.0909C283.819 63.9517 284.924 65.0795 286.435 65.0795C287.714 65.0795 288.648 64.2784 288.839 63.1278L287.952 63.125C287.802 63.8693 287.177 64.2784 286.441 64.2784C285.444 64.2784 284.691 63.5142 284.691 62.0909C284.691 60.679 285.441 59.9034 286.444 59.9034C287.185 59.9034 287.808 60.321 287.952 61.0739H288.839ZM291.773 65C293.545 65 294.571 63.9006 294.571 62.0824C294.571 60.2727 293.545 59.1818 291.832 59.1818H289.889V65H291.773ZM290.767 64.233V59.9489H291.778C293.051 59.9489 293.707 60.7102 293.707 62.0824C293.707 63.4602 293.051 64.233 291.724 64.233H290.767ZM270.219 70.7102H271.065C271.04 69.7784 270.216 69.1023 269.034 69.1023C267.866 69.1023 266.972 69.7699 266.972 70.7727C266.972 71.5824 267.551 72.0568 268.486 72.3097L269.173 72.4972C269.795 72.6619 270.276 72.8665 270.276 73.3835C270.276 73.9517 269.733 74.3267 268.986 74.3267C268.31 74.3267 267.747 74.0256 267.696 73.392H266.815C266.872 74.446 267.688 75.0966 268.991 75.0966C270.358 75.0966 271.145 74.3778 271.145 73.392C271.145 72.3438 270.21 71.9375 269.472 71.7557L268.903 71.608C268.449 71.4915 267.844 71.2784 267.847 70.7216C267.847 70.2273 268.298 69.8608 269.014 69.8608C269.682 69.8608 270.156 70.1733 270.219 70.7102ZM274.006 75.0881C274.958 75.0881 275.631 74.6193 275.825 73.9091L275.021 73.7642C274.867 74.1761 274.498 74.3864 274.015 74.3864C273.288 74.3864 272.799 73.9148 272.776 73.0739H275.879V72.7727C275.879 71.196 274.935 70.5795 273.947 70.5795C272.731 70.5795 271.93 71.5057 271.93 72.8466C271.93 74.2017 272.719 75.0881 274.006 75.0881ZM272.779 72.4375C272.813 71.8182 273.262 71.2812 273.952 71.2812C274.612 71.2812 275.043 71.7699 275.046 72.4375H272.779ZM276.821 75H277.67V72.3352C277.67 71.7642 278.111 71.3523 278.713 71.3523C278.889 71.3523 279.088 71.3835 279.156 71.4034V70.5909C279.071 70.5795 278.903 70.571 278.795 70.571C278.284 70.571 277.847 70.8608 277.688 71.3295H277.642V70.6364H276.821V75ZM283.757 70.6364H282.845L281.743 73.9943H281.697L280.592 70.6364H279.68L281.266 75H282.175L283.757 70.6364ZM286.28 75.0881C287.232 75.0881 287.905 74.6193 288.098 73.9091L287.294 73.7642C287.141 74.1761 286.771 74.3864 286.288 74.3864C285.561 74.3864 285.072 73.9148 285.05 73.0739H288.152V72.7727C288.152 71.196 287.209 70.5795 286.22 70.5795C285.004 70.5795 284.203 71.5057 284.203 72.8466C284.203 74.2017 284.993 75.0881 286.28 75.0881ZM285.053 72.4375C285.087 71.8182 285.536 71.2812 286.226 71.2812C286.885 71.2812 287.317 71.7699 287.32 72.4375H285.053ZM289.094 75H289.944V72.3352C289.944 71.7642 290.384 71.3523 290.987 71.3523C291.163 71.3523 291.362 71.3835 291.43 71.4034V70.5909C291.344 70.5795 291.177 70.571 291.069 70.571C290.558 70.571 290.12 70.8608 289.961 71.3295H289.915V70.6364H289.094V75Z" fill="#4F5162"/>
<path fill-rule="evenodd" clip-rule="evenodd" d="M36.0698 41.101C35.7982 41.8249 35.3456 42.4583 35.2551 42.4583L33.2635 44.4491L29.2802 40.5581L33.1729 36.6672L35.1645 38.6579C35.7982 39.2008 36.3414 39.9247 36.0698 41.101ZM26.0225 50.0595C25.2983 49.788 24.6646 49.3356 24.6646 49.2451L22.673 47.2543L26.5657 43.3634L30.4584 47.2543L28.4668 49.2451C27.9236 49.788 27.1089 50.3309 26.0225 50.0595ZM17.0592 40.0152C17.3307 39.2913 17.7834 38.6579 17.8739 38.6579L19.8655 36.6672L23.7582 40.5581L19.8655 44.4491L17.7834 42.4583C17.2402 41.9154 16.697 41.101 17.0592 40.0152ZM27.1089 31.0572C27.8331 31.3287 28.4668 31.7811 28.4668 31.8716L30.4584 33.8623L26.5657 37.7533L22.673 33.8623L24.6646 31.8716C25.2078 31.3287 25.932 30.6952 27.1089 31.0572ZM38.062 35.8535L31.2724 29.067C31.1819 28.9765 30.0955 27.8906 28.466 27.3477C26.1123 26.5333 23.8491 27.1667 21.948 29.067L15.0679 35.8535C14.9774 35.944 13.891 37.0299 13.3479 38.6586C12.5331 41.0113 13.1668 43.2735 15.0679 45.1737L21.8575 51.9603C21.948 52.0508 23.0343 53.1366 24.6639 53.6796C25.2975 53.8605 26.0218 54.0415 26.6555 54.0415C28.285 54.0415 29.8239 53.3176 31.1819 52.0508L37.9715 45.2642C38.062 45.1737 39.1483 44.0879 39.6915 42.4591C40.5062 40.1064 39.8725 37.7538 38.062 35.8535Z" fill="#0278D5"/>
<path d="M197.171 29.606L203.724 33.389V40.9551L197.171 44.7381L190.619 40.9551V33.389L197.171 29.606Z" fill="#A3E9FF"/>
<path d="M188.84 32.3615L197.171 27.5513L205.503 32.3615V41.9819L197.171 46.7921L188.84 41.9819V32.3615Z" stroke="#30AAD1"/>
<path d="M188.84 32.3615L197.171 27.5513L205.503 32.3615V41.9819L197.171 46.7921L188.84 41.9819V32.3615Z" stroke="#30AAD1"/>
<path d="M188.84 32.3615L197.171 27.5513L205.503 32.3615V41.9819L197.171 46.7921L188.84 41.9819V32.3615Z" stroke="#30AAD1"/>
<path d="M187.131 31.3744L197.172 25.5774L207.212 31.3744V42.9686L197.172 48.7657L187.131 42.9686V31.3744Z" stroke="#30AAD1"/>
<path d="M187.131 31.3744L197.172 25.5774L207.212 31.3744V42.9686L197.172 48.7657L187.131 42.9686V31.3744Z" stroke="#30AAD1"/>
<path d="M187.131 31.3744L197.172 25.5774L207.212 31.3744V42.9686L197.172 48.7657L187.131 42.9686V31.3744Z" stroke="#E5F2F7"/>
<path d="M188.84 32.3615L197.171 27.5513L205.503 32.3615V41.9819L197.171 46.7921L188.84 41.9819V32.3615Z" stroke="#30AAD1"/>
<path d="M188.84 32.3615L197.171 27.5513L205.503 32.3615V41.9819L197.171 46.7921L188.84 41.9819V32.3615Z" stroke="#30AAD1"/>
<path d="M188.84 32.3615L197.171 27.5513L205.503 32.3615V41.9819L197.171 46.7921L188.84 41.9819V32.3615Z" stroke="#30AAD1"/>
<path d="M258.283 35.2828C258.439 35.1266 258.439 34.8734 258.283 34.7172L255.737 32.1716C255.581 32.0154 255.328 32.0154 255.172 32.1716C255.015 32.3278 255.015 32.581 255.172 32.7373L257.434 35L255.172 37.2627C255.015 37.4189 255.015 37.6722 255.172 37.8284C255.328 37.9846 255.581 37.9846 255.737 37.8284L258.283 35.2828ZM214 35.4L258 35.4L258 34.6L214 34.6L214 35.4Z" fill="#3DC7F6"/>
<path d="M42.7172 44.7172C42.5609 44.8734 42.5609 45.1266 42.7172 45.2828L45.2627 47.8284C45.419 47.9846 45.6722 47.9846 45.8284 47.8284C45.9846 47.6722 45.9846 47.419 45.8284 47.2627L43.5657 45L45.8284 42.7373C45.9846 42.581 45.9846 42.3278 45.8284 42.1716C45.6722 42.0154 45.419 42.0154 45.2627 42.1716L42.7172 44.7172ZM43 45.4L181 45.4L181 44.6L43 44.6L43 45.4Z" fill="#3DC7F6"/>
<path d="M214 45L258 45" stroke="#3DC7F6" stroke-width="0.8"/>
<path d="M177 34L44 34" stroke="#3DC7F6" stroke-width="0.8"/>
<g clip-path="url(#clip1)">
<path d="M90.3166 18.3857L82.1996 13.7135C82.1054 13.6485 81.9951 13.6096 81.8804 13.6007C81.7657 13.5918 81.6507 13.6133 81.5473 13.663L77.4179 15.9197L86.8177 29.277L90.9397 27.0275C91.0646 26.9356 91.1628 26.813 91.2245 26.672C91.2862 26.531 91.3093 26.3765 91.2915 26.224L91.3184 20.2839C91.3209 19.5573 90.8737 18.7056 90.3166 18.3857Z" fill="url(#paint0_linear)"/>
<path d="M86.1188 29.2456L78.0018 24.583C77.4447 24.2654 77 23.4138 77 22.6824L77.0269 16.7399C77.0269 16.0181 77.4838 15.6741 78.0384 15.9941L86.1579 20.6566C86.7125 20.9742 87.1597 21.8283 87.1572 22.5597L87.1303 28.4997C87.1279 29.2311 86.6734 29.5655 86.1188 29.2456Z" fill="url(#paint1_linear)"/>
<g style="mix-blend-mode:overlay">
<g style="mix-blend-mode:overlay">
<path d="M90.3166 18.3398L82.1996 13.6797C82.1058 13.6138 81.9957 13.5742 81.8808 13.5649C81.766 13.5556 81.6508 13.5769 81.5473 13.6267L77.4179 15.8786L86.8177 29.2311L90.9397 26.9841C91.064 26.8932 91.1621 26.7719 91.2243 26.6322C91.2864 26.4926 91.3104 26.3393 91.294 26.1877L91.3209 20.2477C91.3209 19.5115 90.8737 18.6598 90.3166 18.3398Z" fill="url(#paint2_linear)"/>
</g>
<g style="mix-blend-mode:overlay">
<path d="M86.1188 29.1999L78.0018 24.5398C77.4447 24.2198 77 23.3681 77 22.6367L77.0269 16.6966C77.0269 15.9749 77.4838 15.6308 78.0384 15.9484L86.1579 20.611C86.7125 20.931 87.1597 21.7826 87.1572 22.514L87.1303 28.4541C87.1279 29.1855 86.6734 29.5199 86.1188 29.1999Z" fill="url(#paint3_linear)"/>
</g>
</g>
<path d="M101.043 24.4173L92.9235 19.7571C92.8302 19.6913 92.7204 19.6516 92.606 19.6423C92.4915 19.6329 92.3766 19.6543 92.2736 19.7042L88.1442 21.9537L97.5415 35.3086L101.678 33.0615C101.803 32.9707 101.901 32.8494 101.963 32.7097C102.025 32.57 102.049 32.4168 102.033 32.2652L102.057 26.3251C102.047 25.5889 101.598 24.7372 101.043 24.4173Z" fill="url(#paint4_linear)"/>
<path d="M96.8452 35.2771L88.7282 30.6169C88.1736 30.2969 87.724 29.4453 87.7289 28.7139L87.7509 22.7738C87.7509 22.052 88.2053 21.708 88.7624 22.0256L96.8794 26.6881C97.4365 27.0081 97.8836 27.8598 97.8812 28.5912L97.8543 34.5312C97.8543 35.2626 97.3998 35.6067 96.8452 35.2771Z" fill="url(#paint5_linear)"/>
<g style="mix-blend-mode:overlay">
<g style="mix-blend-mode:overlay">
<path d="M101.043 24.3713L92.9235 19.7111C92.8302 19.6453 92.7204 19.6056 92.606 19.5962C92.4915 19.5869 92.3766 19.6083 92.2736 19.6582L88.1442 21.9076L97.5415 35.2626L101.678 33.0155C101.803 32.9246 101.901 32.8034 101.963 32.6637C102.025 32.524 102.049 32.3708 102.033 32.2192L102.057 26.2791C102.047 25.5429 101.598 24.6912 101.043 24.3713Z" fill="url(#paint6_linear)"/>
</g>
<g style="mix-blend-mode:overlay">
<path d="M96.8452 35.2315L88.7282 30.5713C88.1736 30.2513 87.724 29.3997 87.7289 28.6683L87.7509 22.7282C87.7509 22.0064 88.2053 21.6624 88.7624 21.98L96.8794 26.6425C97.4365 26.9625 97.8836 27.8142 97.8812 28.5456L97.8543 34.4857C97.8543 35.217 97.3998 35.5514 96.8452 35.2315Z" fill="url(#paint7_linear)"/>
</g>
</g>
<path d="M111.77 30.4391L103.65 25.7765C103.557 25.7112 103.447 25.6718 103.333 25.6625C103.218 25.6532 103.103 25.6743 103 25.7236L98.8757 27.9779L108.275 41.328L112.4 39.081C112.524 38.9907 112.622 38.8698 112.684 38.7304C112.746 38.5911 112.769 38.4381 112.752 38.287L112.779 32.347C112.771 31.6108 112.324 30.7591 111.77 30.4391Z" fill="url(#paint8_linear)"/>
<path d="M107.569 41.2989L99.4524 36.6364C98.8953 36.3188 98.4482 35.4647 98.4506 34.7333L98.4775 28.7932C98.4775 28.0715 98.9344 27.7274 99.4915 28.0474L107.608 32.7196C108.166 33.0396 108.613 33.8913 108.61 34.6226L108.583 40.5627C108.579 41.2845 108.126 41.6213 107.569 41.2989Z" fill="url(#paint9_linear)"/>
<g style="mix-blend-mode:overlay">
<g style="mix-blend-mode:overlay">
<path d="M111.77 30.3933L103.65 25.7428C103.556 25.6778 103.447 25.6388 103.332 25.6299C103.218 25.6211 103.103 25.6426 103 25.6923L98.8757 27.9441L108.275 41.2847L112.4 39.0352C112.524 38.9442 112.622 38.8228 112.684 38.6831C112.745 38.5434 112.769 38.3903 112.752 38.2388L112.779 32.2988C112.771 31.565 112.324 30.7133 111.77 30.3933Z" fill="url(#paint10_linear)"/>
</g>
<g style="mix-blend-mode:overlay">
<path d="M107.569 41.2533L99.4524 36.5907C98.8953 36.2731 98.4482 35.4214 98.4506 34.6877L98.4775 28.7476C98.4775 28.0258 98.9344 27.6818 99.4915 28.0018L107.608 32.6643C108.166 32.9819 108.613 33.8336 108.61 34.5674L108.583 40.5074C108.579 41.2388 108.126 41.5732 107.569 41.2533Z" fill="url(#paint11_linear)"/>
</g>
</g>
<path d="M122.494 36.5041L114.384 31.8439C114.29 31.7781 114.18 31.7384 114.065 31.7291C113.95 31.7198 113.835 31.7412 113.732 31.791L109.605 34.0453L118.995 47.3954L123.119 45.1483C123.334 45.0256 123.471 44.7513 123.473 44.352L123.5 38.4119C123.498 37.6757 123.051 36.824 122.494 36.5041Z" fill="url(#paint12_linear)"/>
<path d="M118.293 47.3642L110.179 42.704C109.622 42.384 109.175 41.5324 109.177 40.801L109.204 34.8609C109.204 34.1271 109.661 33.7927 110.215 34.1127L118.335 38.7753C118.89 39.0952 119.339 39.9469 119.334 40.6783L119.307 46.6184C119.305 47.3497 118.853 47.6842 118.293 47.3642Z" fill="url(#paint13_linear)"/>
<g style="mix-blend-mode:overlay">
<g style="mix-blend-mode:overlay">
<path d="M122.494 36.4583L114.384 31.7982C114.29 31.7324 114.18 31.6927 114.065 31.6834C113.951 31.6741 113.835 31.6955 113.732 31.7452L109.595 33.9947L118.995 47.3497L123.119 45.1026C123.334 44.9823 123.471 44.7056 123.474 44.3063L123.501 38.3662C123.498 37.63 123.051 36.7783 122.494 36.4583Z" fill="url(#paint14_linear)"/>
</g>
<g style="mix-blend-mode:overlay">
<path d="M118.294 47.3184L110.177 42.6583C109.62 42.3383 109.172 41.4866 109.175 40.7552L109.202 34.8152C109.202 34.0934 109.659 33.7494 110.213 34.067L118.335 38.7343C118.89 39.0543 119.339 39.906 119.334 40.6374L119.308 46.5774C119.305 47.304 118.853 47.636 118.294 47.3184Z" fill="url(#paint15_linear)"/>
</g>
</g>
<path d="M133.22 42.769L125.103 38.1088C125.009 38.043 124.899 38.0034 124.785 37.9941C124.67 37.9848 124.554 38.0061 124.451 38.0559L120.324 40.3102L129.719 53.6507L133.843 51.4036C133.968 51.3128 134.066 51.1915 134.128 51.0518C134.19 50.9121 134.214 50.7589 134.198 50.6073L134.225 44.6672C134.225 43.9407 133.777 43.089 133.22 42.769Z" fill="url(#paint16_linear)"/>
<path d="M129.022 53.6291L120.903 48.9689C120.348 48.649 119.901 47.7973 119.904 47.0659L119.931 41.1258C119.931 40.4041 120.387 40.06 120.942 40.3776L129.059 45.0402C129.616 45.3602 130.063 46.2118 130.061 46.9432L130.034 52.8833C130.022 53.6147 129.577 53.9491 129.022 53.6291Z" fill="url(#paint17_linear)"/>
<g style="mix-blend-mode:overlay">
<g style="mix-blend-mode:overlay">
<path d="M133.22 42.7233L125.103 38.0632C125.009 37.9974 124.899 37.9577 124.785 37.9484C124.67 37.9391 124.554 37.9605 124.451 38.0103L120.324 40.2646L129.721 53.6195L133.846 51.3724C133.97 51.2815 134.068 51.1603 134.13 51.0206C134.193 50.8809 134.217 50.7277 134.2 50.5761L134.227 44.636C134.225 43.895 133.777 43.0433 133.22 42.7233Z" fill="url(#paint18_linear)"/>
</g>
<g style="mix-blend-mode:overlay">
<path d="M129.022 53.5834L120.903 48.9233C120.348 48.6033 119.901 47.7516 119.904 47.0203L119.931 41.0802C119.931 40.3584 120.387 40.0144 120.942 40.332L129.059 44.9897C129.616 45.3097 130.063 46.1614 130.061 46.8928L130.034 52.8328C130.022 53.569 129.577 53.9034 129.022 53.5834Z" fill="url(#paint19_linear)"/>
</g>
</g>
<path d="M143.949 48.8388L135.83 44.1763C135.736 44.1109 135.626 44.0715 135.512 44.0622C135.398 44.0529 135.283 44.074 135.18 44.1233L131.055 46.3776L140.453 59.7326L144.577 57.4855C144.701 57.3952 144.799 57.2743 144.861 57.1349C144.923 56.9956 144.946 56.8427 144.929 56.6916L144.956 50.7515C144.951 50.0081 144.501 49.154 143.949 48.8388Z" fill="url(#paint20_linear)"/>
<path d="M139.746 59.6967L131.63 55.0342C131.075 54.7142 130.625 53.8625 130.63 53.1311L130.655 47.1911C130.655 46.4693 131.112 46.1253 131.669 46.4453L139.795 51.1054C140.352 51.4254 140.8 52.2771 140.797 53.0084L140.773 58.9437C140.758 59.6799 140.304 60.0143 139.746 59.6967Z" fill="url(#paint21_linear)"/>
<g style="mix-blend-mode:overlay">
<g style="mix-blend-mode:overlay">
<path d="M143.949 48.7909L135.83 44.1283C135.736 44.0629 135.626 44.0235 135.512 44.0142C135.398 44.0049 135.283 44.026 135.18 44.0754L131.055 46.3297L140.453 59.6846L144.577 57.4375C144.701 57.3473 144.799 57.2264 144.861 57.087C144.923 56.9476 144.946 56.7947 144.929 56.6436L144.956 50.7035C144.951 49.9625 144.501 49.1108 143.949 48.7909Z" fill="url(#paint22_linear)"/>
</g>
<g style="mix-blend-mode:overlay">
<path d="M139.746 59.6508L131.63 54.9882C131.075 54.6706 130.625 53.8166 130.63 53.0852L130.655 47.1451C130.655 46.4234 131.112 46.0793 131.669 46.3993L139.795 51.0594C140.352 51.3794 140.8 52.2311 140.797 52.9625L140.773 58.9026C140.758 59.6363 140.304 59.9708 139.746 59.6508Z" fill="url(#paint23_linear)"/>
</g>
</g>
<path d="M111.977 21.1113L103.86 16.4488C103.766 16.3835 103.656 16.3441 103.541 16.3348C103.427 16.3255 103.311 16.3466 103.208 16.3959L99.0785 18.6453L108.478 31.9979L112.6 29.7484C112.724 29.6574 112.822 29.5361 112.885 29.3964C112.947 29.2568 112.971 29.1036 112.955 28.9521L112.981 23.012C112.981 22.283 112.534 21.4313 111.977 21.1113Z" fill="url(#paint24_linear)"/>
<path d="M107.787 31.9715L99.6624 27.309C99.1054 26.9914 98.6582 26.1373 98.6607 25.4059L98.6875 19.4659C98.6875 18.7441 99.1444 18.4001 99.6991 18.72L107.819 23.3826C108.373 23.7002 108.82 24.5518 108.818 25.2856L108.791 31.2257C108.789 31.9571 108.334 32.2915 107.787 31.9715Z" fill="url(#paint25_linear)"/>
<g style="mix-blend-mode:overlay">
<g style="mix-blend-mode:overlay">
<path d="M111.977 21.0659L103.86 16.4033C103.766 16.3383 103.656 16.2994 103.541 16.2905C103.426 16.2816 103.311 16.3031 103.208 16.3528L99.0786 18.5998L108.478 31.9572L112.6 29.7077C112.724 29.6167 112.822 29.4954 112.885 29.3557C112.947 29.2161 112.971 29.063 112.955 28.9114L112.981 22.9713C112.981 22.2375 112.534 21.3858 111.977 21.0659Z" fill="url(#paint26_linear)"/>
</g>
<g style="mix-blend-mode:overlay">
<path d="M107.787 31.9259L99.6624 27.2634C99.1054 26.9458 98.6582 26.0941 98.6607 25.3627L98.6875 19.4203C98.6875 18.6985 99.1444 18.3545 99.6991 18.6744L107.819 23.337C108.373 23.6546 108.82 24.5087 108.818 25.24L108.791 31.1801C108.789 31.9115 108.334 32.2387 107.787 31.9259Z" fill="url(#paint27_linear)"/>
</g>
</g>
<path d="M122.704 27.1863L114.587 22.5166C114.493 22.4508 114.383 22.4111 114.268 22.4018C114.153 22.3925 114.038 22.4138 113.935 22.4636L109.808 24.7179L119.205 38.0729L123.329 35.8258C123.454 35.7349 123.552 35.6136 123.614 35.474C123.676 35.3343 123.7 35.1811 123.684 35.0295L123.708 29.0894C123.708 28.3484 123.259 27.4967 122.704 27.1863Z" fill="url(#paint28_linear)"/>
<path d="M118.506 38.0365L110.387 33.3764C109.832 33.0564 109.382 32.2047 109.387 31.4733L109.414 25.5333C109.414 24.8115 109.869 24.4675 110.426 24.785L118.538 29.4476C119.095 29.7676 119.542 30.6193 119.54 31.3506L119.515 37.2907C119.515 38.0125 119.061 38.3565 118.506 38.0365Z" fill="url(#paint29_linear)"/>
<g style="mix-blend-mode:overlay">
<g style="mix-blend-mode:overlay">
<path d="M122.704 27.1332L114.587 22.4706C114.493 22.4048 114.383 22.3651 114.268 22.3558C114.153 22.3465 114.038 22.3679 113.934 22.4177L109.808 24.672L119.202 38.0125L123.327 35.7654C123.451 35.6749 123.549 35.554 123.611 35.4148C123.673 35.2755 123.697 35.1227 123.681 34.9715L123.706 29.029C123.708 28.3024 123.258 27.4507 122.704 27.1332Z" fill="url(#paint30_linear)"/>
</g>
<g style="mix-blend-mode:overlay">
<path d="M118.506 37.9933L110.387 33.3307C109.832 33.0107 109.382 32.1591 109.387 31.4277L109.414 25.4876C109.414 24.7658 109.869 24.4218 110.426 24.7394L118.538 29.4019C119.095 29.7219 119.542 30.5736 119.54 31.305L119.515 37.2451C119.515 37.9764 119.061 38.3109 118.506 37.9933Z" fill="url(#paint31_linear)"/>
</g>
</g>
<g opacity="0.4">
<path opacity="0.4" d="M133.442 33.4415L125.323 28.7813C125.23 28.7155 125.12 28.6758 125.005 28.6665C124.891 28.6572 124.776 28.6786 124.673 28.7284L120.549 30.9827L129.946 44.3377L134.07 42.0906C134.195 41.9998 134.293 41.8784 134.354 41.7387C134.416 41.5989 134.439 41.4457 134.422 41.2942L134.449 35.3542C134.432 34.6132 133.985 33.7615 133.442 33.4415Z" fill="url(#paint32_linear)"/>
<path opacity="0.4" d="M129.23 44.3015L121.113 39.6414C120.556 39.3214 120.109 38.4697 120.111 37.7383L120.138 31.7983C120.138 31.0765 120.595 30.7325 121.152 31.05L129.269 35.7126C129.826 36.0326 130.273 36.8843 130.271 37.6156L130.244 43.5461C130.239 44.2871 129.777 44.6215 129.23 44.3015Z" fill="url(#paint33_linear)"/>
<g style="mix-blend-mode:overlay" opacity="0.4">
<path style="mix-blend-mode:overlay" opacity="0.4" d="M133.442 33.3981L125.323 28.7356C125.23 28.6697 125.12 28.63 125.005 28.6207C124.891 28.6114 124.776 28.6328 124.673 28.6826L120.549 30.9369L129.946 44.2919L134.07 42.0448C134.194 41.9544 134.292 41.8334 134.354 41.6941C134.416 41.5548 134.439 41.4019 134.422 41.2509L134.449 35.3108C134.432 34.5674 133.985 33.7157 133.442 33.3981Z" fill="url(#paint34_linear)"/>
<path style="mix-blend-mode:overlay" opacity="0.4" d="M129.23 44.2677L121.113 39.6052C120.556 39.2852 120.109 38.4335 120.111 37.7021L120.138 31.7621C120.138 31.0403 120.595 30.6963 121.152 31.0139L129.269 35.6764C129.826 35.9964 130.273 36.8481 130.271 37.5794L130.244 43.5195C130.239 44.2413 129.777 44.5757 129.23 44.2677Z" fill="url(#paint35_linear)"/>
</g>
</g>
<g style="mix-blend-mode:overlay" opacity="0.5">
<g style="mix-blend-mode:overlay" opacity="0.5">
<path d="M133.442 33.4415L125.323 28.7789C125.229 28.7139 125.119 28.675 125.005 28.6661C124.891 28.6572 124.776 28.6787 124.673 28.7284L120.549 30.9803L129.946 44.3376L134.053 42.1026C134.177 42.0116 134.275 41.8902 134.337 41.7505C134.399 41.6108 134.422 41.4577 134.405 41.3062L134.42 35.3662C134.432 34.6228 133.985 33.7711 133.442 33.4415Z" fill="url(#paint36_linear)"/>
</g>
<g style="mix-blend-mode:overlay" opacity="0.5">
<path d="M129.23 44.3109L121.113 39.6484C120.556 39.3308 120.109 38.4791 120.111 37.7477L120.138 31.8053C120.138 31.0835 120.595 30.7395 121.152 31.0595L129.269 35.722C129.826 36.0396 130.273 36.8937 130.271 37.625L130.244 43.5651C130.239 44.2965 129.777 44.6309 129.23 44.3109Z" fill="url(#paint37_linear)"/>
</g>
<g style="mix-blend-mode:overlay" opacity="0.5">
<g style="mix-blend-mode:overlay" opacity="0.5">
<path d="M133.442 33.4053L125.323 28.7452C125.23 28.6793 125.12 28.6396 125.005 28.6303C124.891 28.621 124.776 28.6424 124.673 28.6922L120.549 30.9465L129.946 44.3015L134.07 42.0544C134.195 41.9636 134.293 41.8422 134.354 41.7025C134.416 41.5627 134.439 41.4095 134.422 41.2581L134.449 35.318C134.432 34.577 133.985 33.7253 133.442 33.4053Z" fill="url(#paint38_linear)"/>
</g>
<g style="mix-blend-mode:overlay" opacity="0.5">
<path d="M129.23 44.2677L121.113 39.6075C120.556 39.2876 120.109 38.4359 120.111 37.7045L120.138 31.7644C120.138 31.0307 120.595 30.6986 121.152 31.0162L129.269 35.6788C129.826 35.9988 130.273 36.8504 130.271 37.5818L130.244 43.5219C130.239 44.2509 129.777 44.5853 129.23 44.2677Z" fill="url(#paint39_linear)"/>
</g>
</g>
</g>
<path d="M144.154 39.5092L136.037 34.8466C135.943 34.7813 135.833 34.7419 135.719 34.7326C135.604 34.7233 135.489 34.7444 135.385 34.7937L131.256 37.0504L140.655 50.4053L144.78 48.1583C144.995 48.038 145.132 47.7637 145.134 47.3643L145.161 41.4242C145.171 40.6808 144.712 39.8292 144.154 39.5092Z" fill="url(#paint40_linear)"/>
<path d="M139.957 50.3692L131.84 45.7115C131.283 45.3915 130.835 44.5398 130.838 43.8084L130.865 37.8684C130.865 37.1466 131.322 36.8026 131.876 37.1226L139.996 41.7827C140.55 42.1027 141 42.9544 140.995 43.6857L140.968 49.6258C140.966 50.3548 140.514 50.6892 139.957 50.3692Z" fill="url(#paint41_linear)"/>
<g style="mix-blend-mode:overlay">
<g style="mix-blend-mode:overlay">
<path d="M144.154 39.456L136.037 34.7935C135.943 34.7281 135.833 34.6888 135.719 34.6795C135.604 34.6701 135.489 34.6912 135.385 34.7405L131.258 36.9924L140.658 50.3498L144.78 48.1171C144.995 47.9944 145.132 47.7202 145.134 47.3208L145.161 41.3807C145.171 40.6349 144.712 39.7832 144.154 39.456Z" fill="url(#paint42_linear)"/>
</g>
<g style="mix-blend-mode:overlay">
<path d="M139.957 50.3233L131.84 45.6607C131.283 45.3431 130.835 44.4891 130.838 43.7577L130.865 37.8176C130.865 37.0958 131.322 36.7518 131.876 37.0718L139.996 41.7343C140.55 42.0519 141 42.9036 140.995 43.6374L140.968 49.5775C140.966 50.3088 140.514 50.6432 139.957 50.3233Z" fill="url(#paint43_linear)"/>
</g>
</g>
<path d="M122.821 17.6373L114.704 12.9748C114.61 12.9098 114.5 12.8709 114.385 12.862C114.27 12.8531 114.155 12.8746 114.052 12.9242L109.925 15.1761L119.322 28.5335L123.447 26.284C123.571 26.193 123.669 26.0717 123.731 25.932C123.793 25.7924 123.817 25.6393 123.801 25.4877L123.825 19.5476C123.825 18.809 123.376 17.9573 122.821 17.6373Z" fill="url(#paint44_linear)"/>
<path d="M118.623 28.4974L110.504 23.8348C109.949 23.5173 109.5 22.6656 109.504 21.9318L109.531 15.9917C109.531 15.27 109.988 14.9259 110.543 15.2459L118.66 19.9085C119.217 20.226 119.664 21.0777 119.662 21.8115L119.635 27.7516C119.632 28.483 119.178 28.8174 118.623 28.4974Z" fill="url(#paint45_linear)"/>
<g style="mix-blend-mode:overlay">
<g style="mix-blend-mode:overlay">
<path d="M122.821 17.5917L114.704 12.9291C114.61 12.8642 114.5 12.8252 114.385 12.8163C114.27 12.8075 114.155 12.829 114.052 12.8786L109.925 15.1305L119.322 28.4878L123.444 26.2239C123.568 26.1329 123.666 26.0116 123.728 25.8719C123.79 25.7323 123.815 25.5792 123.798 25.4276L123.823 19.4875C123.825 18.7657 123.376 17.9117 122.821 17.5917Z" fill="url(#paint46_linear)"/>
</g>
<g style="mix-blend-mode:overlay">
<path d="M118.623 28.4519L110.504 23.7917C109.949 23.4717 109.497 22.6153 109.497 21.8935L109.524 15.951C109.524 15.2293 109.981 14.8852 110.536 15.2052L118.66 19.863C119.217 20.1805 119.664 21.0346 119.662 21.766L119.635 27.7061C119.632 28.4374 119.178 28.7719 118.623 28.4519Z" fill="url(#paint47_linear)"/>
</g>
</g>
<path d="M133.548 23.9022L125.428 19.2469C125.334 19.1819 125.225 19.1429 125.11 19.134C124.996 19.1251 124.881 19.1467 124.778 19.1963L120.649 21.4362L130.046 34.7935L134.176 32.5441C134.3 32.4531 134.397 32.3317 134.459 32.192C134.521 32.0523 134.544 31.8992 134.527 31.7477L134.554 25.8077C134.552 25.0739 134.102 24.2222 133.548 23.9022Z" fill="url(#paint48_linear)"/>
<path d="M129.347 34.7624L121.225 30.0998C120.671 29.7822 120.221 28.9305 120.224 28.1968L120.248 22.2567C120.248 21.5349 120.705 21.1909 121.262 21.5109L129.379 26.1734C129.936 26.491 130.383 27.3427 130.381 28.0765L130.354 34.0165C130.356 34.7479 129.904 35.0823 129.347 34.7624Z" fill="url(#paint49_linear)"/>
<g style="mix-blend-mode:overlay">
<g style="mix-blend-mode:overlay">
<path d="M133.548 23.8566L125.428 19.1964C125.335 19.1306 125.225 19.0909 125.111 19.0816C124.996 19.0723 124.881 19.0937 124.778 19.1435L120.654 21.3978L130.051 34.7527L134.176 32.5009C134.3 32.4099 134.398 32.2885 134.459 32.1488C134.521 32.0091 134.544 31.8559 134.528 31.7045L134.554 25.7644C134.552 25.021 134.102 24.1766 133.548 23.8566Z" fill="url(#paint50_linear)"/>
</g>
<g style="mix-blend-mode:overlay">
<path d="M129.347 34.7167L121.225 30.0566C120.671 29.7366 120.221 28.8849 120.224 28.1535L120.248 22.2135C120.248 21.4917 120.705 21.1453 121.262 21.4653L129.386 26.1278C129.944 26.4478 130.391 27.2995 130.388 28.0308L130.361 33.9709C130.356 34.7023 129.904 35.0367 129.347 34.7167Z" fill="url(#paint51_linear)"/>
</g>
</g>
<g opacity="0.4">
<path opacity="0.4" d="M144.272 29.9675L136.155 25.3073C136.061 25.2415 135.951 25.2018 135.837 25.1925C135.723 25.1832 135.608 25.2046 135.505 25.2544L131.378 27.5087L140.773 40.8588L144.897 38.6118C145.112 38.4915 145.249 38.2148 145.251 37.8154L145.278 31.8754C145.276 31.1392 144.829 30.2875 144.272 29.9675Z" fill="url(#paint52_linear)"/>
<path opacity="0.4" d="M140.074 40.8275L131.957 36.1674C131.4 35.8474 130.953 34.9957 130.955 34.2643L130.982 28.3243C130.982 27.6025 131.439 27.2585 131.994 27.576L140.113 32.2386C140.668 32.5586 141.117 33.4103 141.112 34.1416L141.088 40.0817C141.083 40.8131 140.631 41.1403 140.074 40.8275Z" fill="url(#paint53_linear)"/>
<g style="mix-blend-mode:overlay" opacity="0.4">
<path style="mix-blend-mode:overlay" opacity="0.4" d="M144.272 29.9241L136.155 25.2615C136.061 25.1962 135.951 25.1568 135.837 25.1475C135.723 25.1382 135.608 25.1593 135.505 25.2086L131.378 27.4629L140.773 40.813L144.897 38.566C145.112 38.4457 145.249 38.1714 145.251 37.772L145.278 31.8319C145.276 31.0933 144.829 30.2417 144.272 29.9241Z" fill="url(#paint54_linear)"/>
<path style="mix-blend-mode:overlay" opacity="0.4" d="M140.074 40.784L131.957 36.1215C131.4 35.8015 130.953 34.9498 130.955 34.2184L130.982 28.2784C130.982 27.5566 131.439 27.2126 131.994 27.5325L140.113 32.1927C140.668 32.5127 141.117 33.3643 141.112 34.0957L141.088 40.0358C141.083 40.7672 140.631 41.1016 140.074 40.784Z" fill="url(#paint55_linear)"/>
</g>
</g>
<g style="mix-blend-mode:overlay">
<g style="mix-blend-mode:overlay" opacity="0.5">
<path d="M144.272 29.9772L136.155 25.3171C136.061 25.2512 135.951 25.2115 135.837 25.2022C135.723 25.1929 135.608 25.2143 135.505 25.2641L131.378 27.516L140.773 40.8685L144.897 38.6191C145.112 38.4964 145.249 38.2221 145.251 37.8227L145.278 31.8827C145.276 31.1489 144.829 30.2972 144.272 29.9772Z" fill="url(#paint56_linear)"/>
</g>
<g style="mix-blend-mode:overlay" opacity="0.5">
<path d="M140.074 40.8372L131.957 36.1771C131.4 35.8571 130.953 35.0054 130.955 34.274L130.982 28.334C130.982 27.6122 131.439 27.2658 131.994 27.5857L140.113 32.2387C140.668 32.5562 141.117 33.4103 141.112 34.1417L141.088 40.0818C141.083 40.8228 140.631 41.1572 140.074 40.8372Z" fill="url(#paint57_linear)"/>
</g>
<g style="mix-blend-mode:overlay" opacity="0.5">
<g style="mix-blend-mode:overlay" opacity="0.5">
<path d="M144.272 29.9314L136.155 25.2616C136.061 25.1958 135.951 25.1561 135.837 25.1468C135.723 25.1375 135.608 25.1589 135.505 25.2087L131.378 27.463L140.773 40.8228L144.897 38.5757C145.112 38.4554 145.249 38.1787 145.251 37.7793L145.278 31.8393C145.276 31.1031 144.829 30.2514 144.272 29.9314Z" fill="url(#paint58_linear)"/>
</g>
<g style="mix-blend-mode:overlay" opacity="0.5">
<path d="M140.074 40.7914L131.957 36.1312C131.4 35.8113 130.953 34.9596 130.955 34.2282L130.982 28.2881C130.982 27.5664 131.439 27.2223 131.994 27.5399L140.113 32.2025C140.668 32.5225 141.117 33.3741 141.112 34.1055L141.088 40.0456C141.083 40.777 140.631 41.1114 140.074 40.7914Z" fill="url(#paint59_linear)"/>
</g>
</g>
</g>
<path d="M133.665 14.3654L125.546 9.70282C125.452 9.63746 125.342 9.59807 125.228 9.58875C125.114 9.57944 124.999 9.60056 124.896 9.64989L120.769 11.9042L130.164 25.2615L134.288 23.0145C134.412 22.9242 134.51 22.8033 134.572 22.6639C134.634 22.5245 134.657 22.3716 134.64 22.2205L134.664 16.2684C134.664 15.5346 134.22 14.6757 133.665 14.3654Z" fill="url(#paint60_linear)"/>
<path d="M129.465 25.2254L121.348 20.5629C120.793 20.2429 120.343 19.3912 120.348 18.6598L120.373 12.7198C120.373 11.998 120.83 11.654 121.387 11.9739L129.504 16.6341C130.061 16.9541 130.508 17.8058 130.506 18.5371L130.479 24.4772C130.476 25.2086 130.022 25.543 129.465 25.2254Z" fill="url(#paint61_linear)"/>
<g style="mix-blend-mode:overlay">
<g style="mix-blend-mode:overlay">
<path d="M133.665 14.3197L125.546 9.6571C125.452 9.59175 125.342 9.55235 125.228 9.54304C125.114 9.53373 124.999 9.55484 124.896 9.60418L120.769 11.8585L130.166 25.2134L134.29 22.9663C134.415 22.8761 134.513 22.7552 134.574 22.6158C134.636 22.4764 134.66 22.3235 134.642 22.1724L134.664 16.2227C134.664 15.4913 134.22 14.6372 133.665 14.3197Z" fill="url(#paint62_linear)"/>
</g>
<g style="mix-blend-mode:overlay">
<path d="M129.465 25.1796L121.348 20.517C120.793 20.197 120.343 19.3454 120.348 18.614L120.373 12.6739C120.373 11.9522 120.83 11.6081 121.387 11.9281L129.504 16.6003C130.061 16.9203 130.508 17.7719 130.506 18.5033L130.479 24.4434C130.476 25.1652 130.022 25.502 129.465 25.1796Z" fill="url(#paint63_linear)"/>
</g>
</g>
<path d="M144.389 20.4305L136.272 15.7679C136.178 15.7029 136.068 15.664 135.954 15.6551C135.84 15.6462 135.725 15.6677 135.622 15.7174L131.488 17.9645L140.888 31.3218L145.012 29.0723C145.136 28.981 145.233 28.8596 145.295 28.72C145.357 28.5804 145.38 28.4274 145.364 28.276L145.391 22.3359C145.393 21.6021 144.946 20.7505 144.389 20.4305Z" fill="url(#paint64_linear)"/>
<path d="M140.191 31.2906L132.074 26.6281C131.517 26.3105 131.07 25.4588 131.073 24.725L131.099 18.7849C131.099 18.0632 131.556 17.7191 132.113 18.0391L140.23 22.7017C140.785 23.0193 141.235 23.8709 141.23 24.6047L141.205 30.5448C141.2 31.2762 140.748 31.6106 140.191 31.2906Z" fill="url(#paint65_linear)"/>
<g style="mix-blend-mode:overlay">
<g style="mix-blend-mode:overlay">
<path d="M144.389 20.3847L136.272 15.7221C136.178 15.6572 136.068 15.6182 135.954 15.6093C135.84 15.6004 135.725 15.6219 135.622 15.6716L131.488 17.9187L140.89 31.276L145.015 29.0266C145.138 28.9352 145.236 28.8138 145.297 28.6742C145.359 28.5346 145.383 28.3816 145.366 28.2302L145.393 22.2901C145.393 21.5564 144.946 20.7047 144.389 20.3847Z" fill="url(#paint66_linear)"/>
</g>
<g style="mix-blend-mode:overlay">
<path d="M140.191 31.2447L132.074 26.5846C131.517 26.2646 131.07 25.4129 131.073 24.6815L131.099 18.739C131.099 18.0173 131.556 17.6732 132.113 17.9932L140.23 22.6558C140.785 22.9734 141.235 23.8274 141.23 24.5588L141.205 30.4989C141.2 31.2303 140.748 31.5647 140.191 31.2447Z" fill="url(#paint67_linear)"/>
</g>
</g>
<path d="M133.782 4.82376L125.663 0.16361C125.57 0.0977705 125.46 0.0580797 125.345 0.0487596C125.231 0.0394395 125.116 0.0608389 125.013 0.110681L120.884 2.36016L130.281 15.7151L134.405 13.4728C134.53 13.3818 134.628 13.2605 134.69 13.1209C134.752 12.9812 134.776 12.8281 134.76 12.6765L134.784 6.73642C134.787 5.99542 134.337 5.14374 133.782 4.82376Z" fill="url(#paint68_linear)"/>
<path d="M129.584 15.6846L121.47 11.0244C120.915 10.7044 120.466 9.85275 120.47 9.12137L120.492 3.1813C120.492 2.44751 120.947 2.11309 121.504 2.43307L129.621 7.09563C130.178 7.41561 130.625 8.26729 130.623 8.99867L130.596 14.9387C130.593 15.6701 130.139 16.0045 129.584 15.6846Z" fill="url(#paint69_linear)"/>
<g style="mix-blend-mode:overlay">
<g style="mix-blend-mode:overlay">
<path d="M133.782 4.77799L125.663 0.117834C125.569 0.0519942 125.46 0.0123033 125.345 0.00298324C125.231 -0.00633682 125.116 0.0150625 125.013 0.0649049L120.883 2.31439L130.281 15.6693L134.405 13.4222C134.529 13.3314 134.628 13.2101 134.69 13.0704C134.752 12.9308 134.776 12.7775 134.759 12.6259L134.784 6.68584C134.786 5.94964 134.337 5.09797 133.782 4.77799Z" fill="url(#paint70_linear)"/>
</g>
<path style="mix-blend-mode:overlay" d="M129.584 15.638L121.47 10.9778C120.915 10.6578 120.466 9.80616 120.47 9.07478L120.492 3.12749C120.492 2.40574 120.947 2.0617 121.504 2.37927L129.621 7.04905C130.178 7.36903 130.625 8.2207 130.623 8.95208L130.596 14.8922C130.593 15.6235 130.139 15.9579 129.584 15.638Z" fill="#56CCF2"/>
</g>
<path d="M154.671 55.0171L146.554 50.357C146.46 50.2911 146.351 50.2514 146.236 50.2421C146.122 50.2328 146.007 50.2542 145.904 50.304L141.777 52.5583L151.172 65.9205L155.296 63.6734C155.511 63.5507 155.648 63.2765 155.65 62.8771L155.677 56.937C155.677 56.1888 155.228 55.3347 154.671 55.0171Z" fill="url(#paint71_linear)"/>
<path d="M150.473 65.8773L142.356 61.2172C141.799 60.8972 141.352 60.0455 141.354 59.3141L141.381 53.3741C141.381 52.6523 141.838 52.3059 142.395 52.6258L150.512 57.2884C151.067 57.6084 151.524 58.4625 151.524 59.1842L151.499 65.1243C151.482 65.8629 151.035 66.1973 150.473 65.8773Z" fill="url(#paint72_linear)"/>
<g style="mix-blend-mode:overlay">
<g style="mix-blend-mode:overlay">
<path d="M154.671 54.9714L146.554 50.3113C146.46 50.2454 146.351 50.2057 146.236 50.1964C146.122 50.1871 146.007 50.2085 145.904 50.2583L141.777 52.5126L151.177 65.8676L155.301 63.6205C155.516 63.5002 155.653 63.2235 155.655 62.8241L155.677 56.8744C155.677 56.1431 155.228 55.2914 154.671 54.9714Z" fill="url(#paint73_linear)"/>
</g>
<g style="mix-blend-mode:overlay">
<path d="M150.473 65.8316L142.356 61.1715C141.799 60.8515 141.352 59.9998 141.354 59.2684L141.381 53.3284C141.381 52.6066 141.838 52.2626 142.395 52.5801L150.512 57.2427C151.067 57.5627 151.516 58.4143 151.512 59.1457L151.487 65.0858C151.482 65.8172 151.035 66.1612 150.473 65.8316Z" fill="url(#paint74_linear)"/>
</g>
</g>
<path d="M154.881 45.6898L146.764 41.0296C146.67 40.9638 146.56 40.9242 146.445 40.9148C146.33 40.9055 146.215 40.9269 146.112 40.9767L141.995 43.2262L151.392 56.5811L155.516 54.334C155.641 54.2432 155.739 54.1219 155.801 53.9822C155.863 53.8425 155.887 53.6893 155.871 53.5377L155.897 47.5976C155.885 46.8614 155.433 46.0098 154.881 45.6898Z" fill="url(#paint75_linear)"/>
<path d="M150.683 56.5498L142.564 51.8897C142.009 51.5697 141.562 50.718 141.564 49.9866L141.591 44.0466C141.591 43.3248 142.048 42.9808 142.603 43.2983L150.72 47.9609C151.277 48.2809 151.724 49.1325 151.722 49.8639L151.695 55.816C151.692 56.5378 151.238 56.8698 150.683 56.5498Z" fill="url(#paint76_linear)"/>
<g style="mix-blend-mode:overlay">
<g style="mix-blend-mode:overlay">
<path d="M154.881 45.6464L146.764 40.9839C146.67 40.918 146.56 40.8784 146.445 40.8691C146.33 40.8598 146.215 40.8811 146.112 40.9309L141.995 43.1804L151.38 56.5377L155.504 54.2907C155.628 54.2002 155.726 54.0793 155.788 53.9401C155.85 53.8008 155.875 53.648 155.858 53.4967L155.885 47.5543C155.885 46.8157 155.433 45.964 154.881 45.6464Z" fill="url(#paint77_linear)"/>
</g>
<g style="mix-blend-mode:overlay">
<path d="M150.683 56.5064L142.564 51.8439C142.009 51.5239 141.562 50.6722 141.564 49.9409L141.591 44.0008C141.591 43.279 142.048 42.935 142.603 43.2526L150.72 47.9151C151.277 48.2351 151.724 49.0868 151.722 49.8182L151.695 55.7582C151.692 56.4896 151.238 56.824 150.683 56.5064Z" fill="url(#paint78_linear)"/>
</g>
</g>
<g opacity="0.4">
<path opacity="0.4" d="M154.998 36.1505L146.881 31.4879C146.787 31.4229 146.677 31.384 146.562 31.3751C146.447 31.3662 146.332 31.3877 146.229 31.4374L142.1 33.682L151.497 47.0394L155.621 44.7899C155.746 44.6989 155.844 44.5776 155.906 44.4379C155.968 44.2983 155.992 44.1452 155.976 43.9936L156.003 38.0535C156.003 37.3221 155.555 36.4704 154.998 36.1505Z" fill="url(#paint79_linear)"/>
<path opacity="0.4" d="M150.791 47.0105L142.681 42.3431C142.126 42.0255 141.679 41.1738 141.682 40.44L141.709 34.5C141.709 33.7782 142.166 33.4342 142.72 33.7542L150.84 38.4215C151.394 38.7391 151.841 39.5908 151.839 40.3246L151.812 46.2646C151.81 46.996 151.355 47.3304 150.791 47.0105Z" fill="url(#paint80_linear)"/>
<g style="mix-blend-mode:overlay" opacity="0.4">
<g style="mix-blend-mode:overlay" opacity="0.4">
<path d="M154.998 36.1047L146.881 31.4421C146.787 31.3772 146.677 31.3382 146.562 31.3293C146.447 31.3205 146.332 31.342 146.229 31.3916L142.102 33.6435L151.499 47.0008L155.621 44.7489C155.746 44.6579 155.844 44.5366 155.906 44.397C155.968 44.2573 155.992 44.1042 155.976 43.9526L156.003 38.0125C156.003 37.2763 155.555 36.4247 154.998 36.1047Z" fill="url(#paint81_linear)"/>
</g>
<g style="mix-blend-mode:overlay" opacity="0.4">
<path d="M150.791 46.9648L142.671 42.3046C142.117 41.9846 141.67 41.1329 141.672 40.4016L141.699 34.4591C141.699 33.7373 142.156 33.3933 142.71 33.7133L150.83 38.3758C151.385 38.6934 151.832 39.5475 151.829 40.2789L151.802 46.2189C151.81 46.9503 151.355 47.2847 150.791 46.9648Z" fill="url(#paint82_linear)"/>
</g>
</g>
</g>
<g style="mix-blend-mode:overlay" opacity="0.5">
<g style="mix-blend-mode:overlay" opacity="0.5">
<path d="M154.998 36.1604L146.881 31.4978C146.787 31.4325 146.677 31.3931 146.563 31.3838C146.448 31.3745 146.333 31.3956 146.229 31.4449L142.102 33.6992L151.499 47.0541L155.624 44.807C155.748 44.7167 155.846 44.5959 155.909 44.4566C155.971 44.3173 155.995 44.1644 155.978 44.0131L156.005 38.073C156.003 37.332 155.555 36.4779 154.998 36.1604Z" fill="url(#paint83_linear)"/>
</g>
<g style="mix-blend-mode:overlay" opacity="0.5">
<path d="M150.791 47.0205L142.671 42.358C142.117 42.038 141.67 41.1863 141.672 40.4549L141.699 34.5149C141.699 33.7931 142.156 33.4491 142.71 33.769L150.83 38.4292C151.385 38.7492 151.832 39.6009 151.829 40.3322L151.802 46.2723C151.81 47.0037 151.355 47.3381 150.791 47.0205Z" fill="url(#paint84_linear)"/>
</g>
<g style="mix-blend-mode:overlay" opacity="0.5">
<g style="mix-blend-mode:overlay" opacity="0.5">
<path d="M154.998 36.1146L146.881 31.452C146.787 31.3867 146.677 31.3473 146.563 31.338C146.448 31.3287 146.333 31.3498 146.229 31.3991L142.102 33.6534L151.499 47.0107L155.621 44.7492C155.746 44.6589 155.844 44.5381 155.906 44.3988C155.968 44.2595 155.992 44.1066 155.976 43.9553L156.003 38.0152C156.003 37.2911 155.555 36.4346 154.998 36.1146Z" fill="url(#paint85_linear)"/>
</g>
<g style="mix-blend-mode:overlay" opacity="0.5">
<path d="M150.791 46.9748L142.671 42.3122C142.117 41.9946 141.67 41.1405 141.672 40.4092L141.699 34.4691C141.699 33.7473 142.156 33.4033 142.71 33.7233L150.83 38.3834C151.385 38.7034 151.832 39.5551 151.829 40.2865L151.802 46.2265C151.81 46.9603 151.355 47.2947 150.791 46.9748Z" fill="url(#paint86_linear)"/>
</g>
</g>
</g>
</g>
<path d="M173.268 94.0739C173.07 92.8295 172.095 92.1023 170.865 92.1023C169.359 92.1023 168.249 93.2301 168.249 95.0909C168.249 96.9517 169.354 98.0795 170.865 98.0795C172.143 98.0795 173.078 97.2784 173.268 96.1278L172.382 96.125C172.232 96.8693 171.607 97.2784 170.871 97.2784C169.874 97.2784 169.121 96.5142 169.121 95.0909C169.121 93.679 169.871 92.9034 170.874 92.9034C171.615 92.9034 172.237 93.321 172.382 94.0739H173.268ZM177.015 96.1903C177.018 96.9318 176.467 97.2841 175.989 97.2841C175.464 97.2841 175.1 96.9034 175.1 96.3097V93.6364H174.251V96.4119C174.251 97.4943 174.844 98.0568 175.683 98.0568C176.339 98.0568 176.785 97.7102 176.987 97.2443H177.032V98H177.867V93.6364H177.015V96.1903ZM182.278 94.7017C182.102 94.0227 181.571 93.5795 180.628 93.5795C179.642 93.5795 178.943 94.0994 178.943 94.8722C178.943 95.4915 179.318 95.9034 180.136 96.0852L180.875 96.2472C181.295 96.3409 181.491 96.5284 181.491 96.8011C181.491 97.1392 181.131 97.4034 180.574 97.4034C180.065 97.4034 179.739 97.1847 179.636 96.7557L178.815 96.8807C178.957 97.6534 179.599 98.0881 180.58 98.0881C181.634 98.0881 182.364 97.5284 182.364 96.7386C182.364 96.1222 181.972 95.7415 181.17 95.5568L180.477 95.3977C179.997 95.2841 179.79 95.1222 179.793 94.8267C179.79 94.4915 180.153 94.2528 180.636 94.2528C181.165 94.2528 181.409 94.5455 181.509 94.8381L182.278 94.7017ZM185.335 93.6364H184.44V92.5909H183.59V93.6364H182.951V94.3182H183.59V96.8949C183.587 97.6875 184.192 98.071 184.863 98.0568C185.133 98.054 185.315 98.0028 185.414 97.9659L185.261 97.2642C185.204 97.2756 185.099 97.3011 184.962 97.3011C184.687 97.3011 184.44 97.2102 184.44 96.7188V94.3182H185.335V93.6364ZM188.065 98.0881C189.295 98.0881 190.099 97.1875 190.099 95.8381C190.099 94.4801 189.295 93.5795 188.065 93.5795C186.835 93.5795 186.031 94.4801 186.031 95.8381C186.031 97.1875 186.835 98.0881 188.065 98.0881ZM188.068 97.375C187.264 97.375 186.889 96.6733 186.889 95.8352C186.889 95 187.264 94.2898 188.068 94.2898C188.866 94.2898 189.241 95 189.241 95.8352C189.241 96.6733 188.866 97.375 188.068 97.375ZM191.048 98H191.897V95.3097C191.897 94.7216 192.309 94.3125 192.792 94.3125C193.263 94.3125 193.59 94.625 193.59 95.0994V98H194.437V95.2188C194.437 94.6932 194.758 94.3125 195.312 94.3125C195.761 94.3125 196.13 94.5625 196.13 95.1534V98H196.979V95.0739C196.979 94.0767 196.423 93.5795 195.633 93.5795C195.005 93.5795 194.533 93.8807 194.323 94.3466H194.278C194.087 93.8693 193.687 93.5795 193.104 93.5795C192.528 93.5795 192.099 93.8665 191.917 94.3466H191.863V93.6364H191.048V98ZM199.999 98.0881C200.95 98.0881 201.624 97.6193 201.817 96.9091L201.013 96.7642C200.859 97.1761 200.49 97.3864 200.007 97.3864C199.28 97.3864 198.791 96.9148 198.768 96.0739H201.871V95.7727C201.871 94.196 200.928 93.5795 199.939 93.5795C198.723 93.5795 197.922 94.5057 197.922 95.8466C197.922 97.2017 198.712 98.0881 199.999 98.0881ZM198.771 95.4375C198.805 94.8182 199.254 94.2812 199.945 94.2812C200.604 94.2812 201.036 94.7699 201.038 95.4375H198.771ZM202.813 98H203.663V95.3352C203.663 94.7642 204.103 94.3523 204.705 94.3523C204.881 94.3523 205.08 94.3835 205.148 94.4034V93.5909C205.063 93.5795 204.896 93.571 204.788 93.571C204.276 93.571 203.839 93.8608 203.68 94.3295H203.634V93.6364H202.813V98ZM208.069 98H208.947V95.9545H210.14C211.489 95.9545 212.157 95.1392 212.157 94.0653C212.157 92.9943 211.495 92.1818 210.143 92.1818H208.069V98ZM208.947 95.2102V92.9347H210.049C210.918 92.9347 211.273 93.4062 211.273 94.0653C211.273 94.7244 210.918 95.2102 210.06 95.2102H208.947ZM213.118 98H213.967V95.3352C213.967 94.7642 214.408 94.3523 215.01 94.3523C215.186 94.3523 215.385 94.3835 215.453 94.4034V93.5909C215.368 93.5795 215.2 93.571 215.092 93.571C214.581 93.571 214.143 93.8608 213.984 94.3295H213.939V93.6364H213.118V98ZM217.913 98.0881C218.864 98.0881 219.538 97.6193 219.731 96.9091L218.927 96.7642C218.773 97.1761 218.404 97.3864 217.921 97.3864C217.194 97.3864 216.705 96.9148 216.683 96.0739H219.785V95.7727C219.785 94.196 218.842 93.5795 217.853 93.5795C216.637 93.5795 215.836 94.5057 215.836 95.8466C215.836 97.2017 216.626 98.0881 217.913 98.0881ZM216.685 95.4375C216.719 94.8182 217.168 94.2812 217.859 94.2812C218.518 94.2812 218.95 94.7699 218.952 95.4375H216.685ZM220.727 98H221.577V95.3097C221.577 94.7216 221.989 94.3125 222.472 94.3125C222.943 94.3125 223.27 94.625 223.27 95.0994V98H224.116V95.2188C224.116 94.6932 224.438 94.3125 224.991 94.3125C225.44 94.3125 225.81 94.5625 225.81 95.1534V98H226.659V95.0739C226.659 94.0767 226.102 93.5795 225.312 93.5795C224.685 93.5795 224.213 93.8807 224.003 94.3466H223.957C223.767 93.8693 223.366 93.5795 222.784 93.5795C222.207 93.5795 221.778 93.8665 221.597 94.3466H221.543V93.6364H220.727V98ZM227.798 98H228.647V93.6364H227.798V98ZM228.227 92.9631C228.519 92.9631 228.763 92.7358 228.763 92.4574C228.763 92.179 228.519 91.9489 228.227 91.9489C227.931 91.9489 227.69 92.179 227.69 92.4574C227.69 92.7358 227.931 92.9631 228.227 92.9631ZM233.06 94.7017C232.884 94.0227 232.352 93.5795 231.409 93.5795C230.423 93.5795 229.724 94.0994 229.724 94.8722C229.724 95.4915 230.099 95.9034 230.918 96.0852L231.656 96.2472C232.077 96.3409 232.273 96.5284 232.273 96.8011C232.273 97.1392 231.912 97.4034 231.355 97.4034C230.847 97.4034 230.52 97.1847 230.418 96.7557L229.597 96.8807C229.739 97.6534 230.381 98.0881 231.361 98.0881C232.415 98.0881 233.145 97.5284 233.145 96.7386C233.145 96.1222 232.753 95.7415 231.952 95.5568L231.259 95.3977C230.778 95.2841 230.571 95.1222 230.574 94.8267C230.571 94.4915 230.935 94.2528 231.418 94.2528C231.946 94.2528 232.19 94.5455 232.29 94.8381L233.06 94.7017ZM235.96 98.0881C236.911 98.0881 237.585 97.6193 237.778 96.9091L236.974 96.7642C236.82 97.1761 236.451 97.3864 235.968 97.3864C235.241 97.3864 234.752 96.9148 234.729 96.0739H237.832V95.7727C237.832 94.196 236.888 93.5795 235.9 93.5795C234.684 93.5795 233.883 94.5057 233.883 95.8466C233.883 97.2017 234.673 98.0881 235.96 98.0881ZM234.732 95.4375C234.766 94.8182 235.215 94.2812 235.906 94.2812C236.565 94.2812 236.996 94.7699 236.999 95.4375H234.732Z" fill="#4F5162"/>
<line x1="103" y1="84.75" x2="299" y2="84.75" stroke="#B0B1C4" stroke-width="0.5"/>
<circle cx="44.5" cy="33.5" r="3.5" fill="#4DC952"/>
<path d="M46.2 33.3268C46.3333 33.4038 46.3333 33.5962 46.2 33.6732L43.8 35.0588C43.6667 35.1358 43.5 35.0396 43.5 34.8856L43.5 32.1144C43.5 31.9604 43.6667 31.8642 43.8 31.9412L46.2 33.3268Z" fill="#FFF9F9"/>
<defs>
<linearGradient id="paint0_linear" x1="72.9279" y1="18.663" x2="83.5042" y2="33.1781" gradientUnits="userSpaceOnUse">
<stop stop-color="#73DFE7"/>
<stop offset="1" stop-color="#0063F7"/>
</linearGradient>
<linearGradient id="paint1_linear" x1="73.7191" y1="20.2324" x2="83.1704" y2="31.2456" gradientUnits="userSpaceOnUse">
<stop stop-color="#73DFE7"/>
<stop offset="1" stop-color="#0063F7"/>
</linearGradient>
<linearGradient id="paint2_linear" x1="72.9271" y1="18.6238" x2="83.4941" y2="33.1379" gradientUnits="userSpaceOnUse">
<stop stop-color="#73DFE7"/>
<stop offset="1" stop-color="#0063F7"/>
</linearGradient>
<linearGradient id="paint3_linear" x1="73.7191" y1="20.1877" x2="83.1692" y2="31.2007" gradientUnits="userSpaceOnUse">
<stop stop-color="#73DFE7"/>
<stop offset="1" stop-color="#0063F7"/>
</linearGradient>
<linearGradient id="paint4_linear" x1="83.6503" y1="24.7012" x2="94.2151" y2="39.2224" gradientUnits="userSpaceOnUse">
<stop stop-color="#73DFE7"/>
<stop offset="1" stop-color="#0063F7"/>
</linearGradient>
<linearGradient id="paint5_linear" x1="84.4495" y1="26.2662" x2="93.9036" y2="37.2753" gradientUnits="userSpaceOnUse">
<stop stop-color="#73DFE7"/>
<stop offset="1" stop-color="#0063F7"/>
</linearGradient>
<linearGradient id="paint6_linear" x1="83.6503" y1="24.6552" x2="94.2151" y2="39.1764" gradientUnits="userSpaceOnUse">
<stop stop-color="#73DFE7"/>
<stop offset="1" stop-color="#0063F7"/>
</linearGradient>
<linearGradient id="paint7_linear" x1="84.4495" y1="26.2193" x2="93.9003" y2="37.2278" gradientUnits="userSpaceOnUse">
<stop stop-color="#73DFE7"/>
<stop offset="1" stop-color="#0063F7"/>
</linearGradient>
<linearGradient id="paint8_linear" x1="94.385" y1="30.7211" x2="104.951" y2="45.235" gradientUnits="userSpaceOnUse">
<stop stop-color="#73DFE7"/>
<stop offset="1" stop-color="#0063F7"/>
</linearGradient>
<linearGradient id="paint9_linear" x1="95.169" y1="32.2861" x2="104.621" y2="43.3017" gradientUnits="userSpaceOnUse">
<stop stop-color="#73DFE7"/>
<stop offset="1" stop-color="#0063F7"/>
</linearGradient>
<linearGradient id="paint10_linear" x1="94.385" y1="30.6852" x2="104.942" y2="45.196" gradientUnits="userSpaceOnUse">
<stop stop-color="#73DFE7"/>
<stop offset="1" stop-color="#0063F7"/>
</linearGradient>
<linearGradient id="paint11_linear" x1="95.169" y1="32.2401" x2="104.62" y2="43.2556" gradientUnits="userSpaceOnUse">
<stop stop-color="#73DFE7"/>
<stop offset="1" stop-color="#0063F7"/>
</linearGradient>
<linearGradient id="paint12_linear" x1="105.116" y1="36.788" x2="115.685" y2="51.2968" gradientUnits="userSpaceOnUse">
<stop stop-color="#73DFE7"/>
<stop offset="1" stop-color="#0063F7"/>
</linearGradient>
<linearGradient id="paint13_linear" x1="105.896" y1="38.3501" x2="115.348" y2="49.3635" gradientUnits="userSpaceOnUse">
<stop stop-color="#73DFE7"/>
<stop offset="1" stop-color="#0063F7"/>
</linearGradient>
<linearGradient id="paint14_linear" x1="105.104" y1="36.7423" x2="115.67" y2="51.2582" gradientUnits="userSpaceOnUse">
<stop stop-color="#73DFE7"/>
<stop offset="1" stop-color="#0063F7"/>
</linearGradient>
<linearGradient id="paint15_linear" x1="105.893" y1="38.3059" x2="115.342" y2="49.3211" gradientUnits="userSpaceOnUse">
<stop stop-color="#73DFE7"/>
<stop offset="1" stop-color="#0063F7"/>
</linearGradient>
<linearGradient id="paint16_linear" x1="115.834" y1="43.0499" x2="126.393" y2="57.5595" gradientUnits="userSpaceOnUse">
<stop stop-color="#73DFE7"/>
<stop offset="1" stop-color="#0063F7"/>
</linearGradient>
<linearGradient id="paint17_linear" x1="116.623" y1="44.6169" x2="126.073" y2="55.6299" gradientUnits="userSpaceOnUse">
<stop stop-color="#73DFE7"/>
<stop offset="1" stop-color="#0063F7"/>
</linearGradient>
<linearGradient id="paint18_linear" x1="115.833" y1="43.0089" x2="126.405" y2="57.5243" gradientUnits="userSpaceOnUse">
<stop stop-color="#73DFE7"/>
<stop offset="1" stop-color="#0063F7"/>
</linearGradient>
<linearGradient id="paint19_linear" x1="116.623" y1="44.5712" x2="126.073" y2="55.5842" gradientUnits="userSpaceOnUse">
<stop stop-color="#73DFE7"/>
<stop offset="1" stop-color="#0063F7"/>
</linearGradient>
<linearGradient id="paint20_linear" x1="126.565" y1="49.1224" x2="137.136" y2="63.6359" gradientUnits="userSpaceOnUse">
<stop stop-color="#73DFE7"/>
<stop offset="1" stop-color="#0063F7"/>
</linearGradient>
<linearGradient id="paint21_linear" x1="127.346" y1="50.6831" x2="136.795" y2="61.7052" gradientUnits="userSpaceOnUse">
<stop stop-color="#73DFE7"/>
<stop offset="1" stop-color="#0063F7"/>
</linearGradient>
<linearGradient id="paint22_linear" x1="126.565" y1="49.0744" x2="137.136" y2="63.5879" gradientUnits="userSpaceOnUse">
<stop stop-color="#73DFE7"/>
<stop offset="1" stop-color="#0063F7"/>
</linearGradient>
<linearGradient id="paint23_linear" x1="127.346" y1="50.6376" x2="136.796" y2="61.6598" gradientUnits="userSpaceOnUse">
<stop stop-color="#73DFE7"/>
<stop offset="1" stop-color="#0063F7"/>
</linearGradient>
<linearGradient id="paint24_linear" x1="94.5877" y1="21.3927" x2="105.152" y2="35.9058" gradientUnits="userSpaceOnUse">
<stop stop-color="#73DFE7"/>
<stop offset="1" stop-color="#0063F7"/>
</linearGradient>
<linearGradient id="paint25_linear" x1="95.3798" y1="22.9584" x2="104.831" y2="33.9716" gradientUnits="userSpaceOnUse">
<stop stop-color="#73DFE7"/>
<stop offset="1" stop-color="#0063F7"/>
</linearGradient>
<linearGradient id="paint26_linear" x1="94.5878" y1="21.3497" x2="105.155" y2="35.8638" gradientUnits="userSpaceOnUse">
<stop stop-color="#73DFE7"/>
<stop offset="1" stop-color="#0063F7"/>
</linearGradient>
<linearGradient id="paint27_linear" x1="95.3798" y1="22.9118" x2="104.829" y2="33.9246" gradientUnits="userSpaceOnUse">
<stop stop-color="#73DFE7"/>
<stop offset="1" stop-color="#0063F7"/>
</linearGradient>
<linearGradient id="paint28_linear" x1="105.318" y1="27.4622" x2="115.89" y2="41.9759" gradientUnits="userSpaceOnUse">
<stop stop-color="#73DFE7"/>
<stop offset="1" stop-color="#0063F7"/>
</linearGradient>
<linearGradient id="paint29_linear" x1="106.108" y1="29.0239" x2="115.557" y2="40.0323" gradientUnits="userSpaceOnUse">
<stop stop-color="#73DFE7"/>
<stop offset="1" stop-color="#0063F7"/>
</linearGradient>
<linearGradient id="paint30_linear" x1="105.318" y1="27.4116" x2="115.878" y2="41.9195" gradientUnits="userSpaceOnUse">
<stop stop-color="#73DFE7"/>
<stop offset="1" stop-color="#0063F7"/>
</linearGradient>
<linearGradient id="paint31_linear" x1="106.108" y1="28.979" x2="115.559" y2="39.9877" gradientUnits="userSpaceOnUse">
<stop stop-color="#73DFE7"/>
<stop offset="1" stop-color="#0063F7"/>
</linearGradient>
<linearGradient id="paint32_linear" x1="3135.98" y1="2486.08" x2="3059.39" y2="2353.92" gradientUnits="userSpaceOnUse">
<stop stop-color="#3161FF"/>
<stop offset="1" stop-color="#00C9E2"/>
</linearGradient>
<linearGradient id="paint33_linear" x1="2324.36" y1="2513.74" x2="1383.45" y2="1528.68" gradientUnits="userSpaceOnUse">
<stop stop-color="#3124FF"/>
<stop offset="1" stop-color="#00FFE2"/>
</linearGradient>
<linearGradient id="paint34_linear" x1="3135.98" y1="2483.05" x2="3059.39" y2="2350.9" gradientUnits="userSpaceOnUse">
<stop stop-color="#3161FF"/>
<stop offset="1" stop-color="#00C9E2"/>
</linearGradient>
<linearGradient id="paint35_linear" x1="2324.36" y1="2510.34" x2="1383.79" y2="1525.43" gradientUnits="userSpaceOnUse">
<stop stop-color="#3124FF"/>
<stop offset="1" stop-color="#00FFE2"/>
</linearGradient>
<linearGradient id="paint36_linear" x1="116.068" y1="33.7268" x2="126.647" y2="48.2195" gradientUnits="userSpaceOnUse">
<stop stop-color="#73DFE7"/>
<stop offset="1" stop-color="#0063F7"/>
</linearGradient>
<linearGradient id="paint37_linear" x1="116.83" y1="35.2978" x2="126.28" y2="46.3132" gradientUnits="userSpaceOnUse">
<stop stop-color="#73DFE7"/>
<stop offset="1" stop-color="#0063F7"/>
</linearGradient>
<linearGradient id="paint38_linear" x1="116.059" y1="33.6908" x2="126.631" y2="48.2045" gradientUnits="userSpaceOnUse">
<stop stop-color="#73DFE7"/>
<stop offset="1" stop-color="#0063F7"/>
</linearGradient>
<linearGradient id="paint39_linear" x1="116.83" y1="35.2539" x2="126.28" y2="46.2692" gradientUnits="userSpaceOnUse">
<stop stop-color="#73DFE7"/>
<stop offset="1" stop-color="#0063F7"/>
</linearGradient>
<linearGradient id="paint40_linear" x1="126.764" y1="39.7936" x2="137.336" y2="54.3114" gradientUnits="userSpaceOnUse">
<stop stop-color="#73DFE7"/>
<stop offset="1" stop-color="#0063F7"/>
</linearGradient>
<linearGradient id="paint41_linear" x1="127.557" y1="41.3593" x2="137.004" y2="52.372" gradientUnits="userSpaceOnUse">
<stop stop-color="#73DFE7"/>
<stop offset="1" stop-color="#0063F7"/>
</linearGradient>
<linearGradient id="paint42_linear" x1="126.767" y1="39.7396" x2="137.338" y2="54.255" gradientUnits="userSpaceOnUse">
<stop stop-color="#73DFE7"/>
<stop offset="1" stop-color="#0063F7"/>
</linearGradient>
<linearGradient id="paint43_linear" x1="127.557" y1="41.3101" x2="137.008" y2="52.3233" gradientUnits="userSpaceOnUse">
<stop stop-color="#73DFE7"/>
<stop offset="1" stop-color="#0063F7"/>
</linearGradient>
<linearGradient id="paint44_linear" x1="105.435" y1="17.9227" x2="116.007" y2="32.4365" gradientUnits="userSpaceOnUse">
<stop stop-color="#73DFE7"/>
<stop offset="1" stop-color="#0063F7"/>
</linearGradient>
<linearGradient id="paint45_linear" x1="106.224" y1="19.4842" x2="115.675" y2="30.4975" gradientUnits="userSpaceOnUse">
<stop stop-color="#73DFE7"/>
<stop offset="1" stop-color="#0063F7"/>
</linearGradient>
<linearGradient id="paint46_linear" x1="105.436" y1="17.877" x2="116.008" y2="32.3891" gradientUnits="userSpaceOnUse">
<stop stop-color="#73DFE7"/>
<stop offset="1" stop-color="#0063F7"/>
</linearGradient>
<linearGradient id="paint47_linear" x1="106.214" y1="19.442" x2="115.66" y2="30.4613" gradientUnits="userSpaceOnUse">
<stop stop-color="#73DFE7"/>
<stop offset="1" stop-color="#0063F7"/>
</linearGradient>
<linearGradient id="paint48_linear" x1="116.157" y1="24.1909" x2="126.718" y2="38.7048" gradientUnits="userSpaceOnUse">
<stop stop-color="#73DFE7"/>
<stop offset="1" stop-color="#0063F7"/>
</linearGradient>
<linearGradient id="paint49_linear" x1="116.943" y1="25.7492" x2="126.394" y2="36.7624" gradientUnits="userSpaceOnUse">
<stop stop-color="#73DFE7"/>
<stop offset="1" stop-color="#0063F7"/>
</linearGradient>
<linearGradient id="paint50_linear" x1="116.164" y1="24.1421" x2="126.736" y2="38.6558" gradientUnits="userSpaceOnUse">
<stop stop-color="#73DFE7"/>
<stop offset="1" stop-color="#0063F7"/>
</linearGradient>
<linearGradient id="paint51_linear" x1="116.94" y1="25.7038" x2="126.39" y2="36.7238" gradientUnits="userSpaceOnUse">
<stop stop-color="#73DFE7"/>
<stop offset="1" stop-color="#0063F7"/>
</linearGradient>
<linearGradient id="paint52_linear" x1="3763.72" y1="2255.6" x2="3687.16" y2="2123.46" gradientUnits="userSpaceOnUse">
<stop stop-color="#3161FF"/>
<stop offset="1" stop-color="#00C9E2"/>
</linearGradient>
<linearGradient id="paint53_linear" x1="2785.46" y1="2314.96" x2="1844.75" y2="1330.13" gradientUnits="userSpaceOnUse">
<stop stop-color="#3124FF"/>
<stop offset="1" stop-color="#00FFE2"/>
</linearGradient>
<linearGradient id="paint54_linear" x1="3763.72" y1="2252.47" x2="3687.17" y2="2120.5" gradientUnits="userSpaceOnUse">
<stop stop-color="#3161FF"/>
<stop offset="1" stop-color="#00C9E2"/>
</linearGradient>
<linearGradient id="paint55_linear" x1="2785.46" y1="2312.87" x2="1844.55" y2="1328.17" gradientUnits="userSpaceOnUse">
<stop stop-color="#3124FF"/>
<stop offset="1" stop-color="#00FFE2"/>
</linearGradient>
<linearGradient id="paint56_linear" x1="126.888" y1="30.2611" x2="137.455" y2="44.7735" gradientUnits="userSpaceOnUse">
<stop stop-color="#73DFE7"/>
<stop offset="1" stop-color="#0063F7"/>
</linearGradient>
<linearGradient id="paint57_linear" x1="127.674" y1="31.8243" x2="137.125" y2="42.8375" gradientUnits="userSpaceOnUse">
<stop stop-color="#73DFE7"/>
<stop offset="1" stop-color="#0063F7"/>
</linearGradient>
<linearGradient id="paint58_linear" x1="126.888" y1="30.2088" x2="137.464" y2="44.7239" gradientUnits="userSpaceOnUse">
<stop stop-color="#73DFE7"/>
<stop offset="1" stop-color="#0063F7"/>
</linearGradient>
<linearGradient id="paint59_linear" x1="127.674" y1="31.7792" x2="137.124" y2="42.7923" gradientUnits="userSpaceOnUse">
<stop stop-color="#73DFE7"/>
<stop offset="1" stop-color="#0063F7"/>
</linearGradient>
<linearGradient id="paint60_linear" x1="116.28" y1="14.6497" x2="126.855" y2="29.1604" gradientUnits="userSpaceOnUse">
<stop stop-color="#73DFE7"/>
<stop offset="1" stop-color="#0063F7"/>
</linearGradient>
<linearGradient id="paint61_linear" x1="117.067" y1="16.2118" x2="126.517" y2="27.2249" gradientUnits="userSpaceOnUse">
<stop stop-color="#73DFE7"/>
<stop offset="1" stop-color="#0063F7"/>
</linearGradient>
<linearGradient id="paint62_linear" x1="116.28" y1="14.6033" x2="126.853" y2="29.1132" gradientUnits="userSpaceOnUse">
<stop stop-color="#73DFE7"/>
<stop offset="1" stop-color="#0063F7"/>
</linearGradient>
<linearGradient id="paint63_linear" x1="117.067" y1="16.1668" x2="126.52" y2="27.1802" gradientUnits="userSpaceOnUse">
<stop stop-color="#73DFE7"/>
<stop offset="1" stop-color="#0063F7"/>
</linearGradient>
<linearGradient id="paint64_linear" x1="126.997" y1="20.7143" x2="137.564" y2="35.2284" gradientUnits="userSpaceOnUse">
<stop stop-color="#73DFE7"/>
<stop offset="1" stop-color="#0063F7"/>
</linearGradient>
<linearGradient id="paint65_linear" x1="127.792" y1="22.2775" x2="137.243" y2="33.2907" gradientUnits="userSpaceOnUse">
<stop stop-color="#73DFE7"/>
<stop offset="1" stop-color="#0063F7"/>
</linearGradient>
<linearGradient id="paint66_linear" x1="126.996" y1="20.6685" x2="137.563" y2="35.1844" gradientUnits="userSpaceOnUse">
<stop stop-color="#73DFE7"/>
<stop offset="1" stop-color="#0063F7"/>
</linearGradient>
<linearGradient id="paint67_linear" x1="127.792" y1="22.2316" x2="137.243" y2="33.2448" gradientUnits="userSpaceOnUse">
<stop stop-color="#73DFE7"/>
<stop offset="1" stop-color="#0063F7"/>
</linearGradient>
<linearGradient id="paint68_linear" x1="3156.34" y1="592.942" x2="3079.78" y2="460.807" gradientUnits="userSpaceOnUse">
<stop stop-color="#3161FF"/>
<stop offset="1" stop-color="#00C9E2"/>
</linearGradient>
<linearGradient id="paint69_linear" x1="117.191" y1="6.67047" x2="126.644" y2="17.6794" gradientUnits="userSpaceOnUse">
<stop stop-color="#73DFE7"/>
<stop offset="1" stop-color="#0063F7"/>
</linearGradient>
<linearGradient id="paint70_linear" x1="116.393" y1="5.06191" x2="126.961" y2="19.5743" gradientUnits="userSpaceOnUse">
<stop stop-color="#73DFE7"/>
<stop offset="1" stop-color="#0063F7"/>
</linearGradient>
<linearGradient id="paint71_linear" x1="137.287" y1="55.3049" x2="147.865" y2="69.8207" gradientUnits="userSpaceOnUse">
<stop stop-color="#73DFE7"/>
<stop offset="1" stop-color="#0063F7"/>
</linearGradient>
<linearGradient id="paint72_linear" x1="138.069" y1="56.8644" x2="147.519" y2="67.8887" gradientUnits="userSpaceOnUse">
<stop stop-color="#73DFE7"/>
<stop offset="1" stop-color="#0063F7"/>
</linearGradient>
<linearGradient id="paint73_linear" x1="137.287" y1="55.2569" x2="147.859" y2="69.7706" gradientUnits="userSpaceOnUse">
<stop stop-color="#73DFE7"/>
<stop offset="1" stop-color="#0063F7"/>
</linearGradient>
<linearGradient id="paint74_linear" x1="138.073" y1="56.8207" x2="147.527" y2="67.8343" gradientUnits="userSpaceOnUse">
<stop stop-color="#73DFE7"/>
<stop offset="1" stop-color="#0063F7"/>
</linearGradient>
<linearGradient id="paint75_linear" x1="137.504" y1="45.9737" x2="148.071" y2="60.4878" gradientUnits="userSpaceOnUse">
<stop stop-color="#73DFE7"/>
<stop offset="1" stop-color="#0063F7"/>
</linearGradient>
<linearGradient id="paint76_linear" x1="138.283" y1="47.5378" x2="147.734" y2="58.5509" gradientUnits="userSpaceOnUse">
<stop stop-color="#73DFE7"/>
<stop offset="1" stop-color="#0063F7"/>
</linearGradient>
<linearGradient id="paint77_linear" x1="137.508" y1="45.9288" x2="148.08" y2="60.4347" gradientUnits="userSpaceOnUse">
<stop stop-color="#73DFE7"/>
<stop offset="1" stop-color="#0063F7"/>
</linearGradient>
<linearGradient id="paint78_linear" x1="138.283" y1="47.4922" x2="147.734" y2="58.5053" gradientUnits="userSpaceOnUse">
<stop stop-color="#73DFE7"/>
<stop offset="1" stop-color="#0063F7"/>
</linearGradient>
<linearGradient id="paint79_linear" x1="137.609" y1="36.4335" x2="148.174" y2="50.947" gradientUnits="userSpaceOnUse">
<stop stop-color="#73DFE7"/>
<stop offset="1" stop-color="#0063F7"/>
</linearGradient>
<linearGradient id="paint80_linear" x1="138.401" y1="37.994" x2="147.856" y2="49.0078" gradientUnits="userSpaceOnUse">
<stop stop-color="#73DFE7"/>
<stop offset="1" stop-color="#0063F7"/>
</linearGradient>
<linearGradient id="paint81_linear" x1="137.612" y1="36.3901" x2="148.184" y2="50.9038" gradientUnits="userSpaceOnUse">
<stop stop-color="#73DFE7"/>
<stop offset="1" stop-color="#0063F7"/>
</linearGradient>
<linearGradient id="paint82_linear" x1="138.391" y1="37.9516" x2="147.842" y2="48.9648" gradientUnits="userSpaceOnUse">
<stop stop-color="#73DFE7"/>
<stop offset="1" stop-color="#0063F7"/>
</linearGradient>
<linearGradient id="paint83_linear" x1="137.611" y1="36.444" x2="148.182" y2="50.9592" gradientUnits="userSpaceOnUse">
<stop stop-color="#73DFE7"/>
<stop offset="1" stop-color="#0063F7"/>
</linearGradient>
<linearGradient id="paint84_linear" x1="138.391" y1="38.0069" x2="147.841" y2="49.02" gradientUnits="userSpaceOnUse">
<stop stop-color="#73DFE7"/>
<stop offset="1" stop-color="#0063F7"/>
</linearGradient>
<linearGradient id="paint85_linear" x1="137.612" y1="36.399" x2="148.185" y2="50.9132" gradientUnits="userSpaceOnUse">
<stop stop-color="#73DFE7"/>
<stop offset="1" stop-color="#0063F7"/>
</linearGradient>
<linearGradient id="paint86_linear" x1="138.391" y1="37.9616" x2="147.842" y2="48.9748" gradientUnits="userSpaceOnUse">
<stop stop-color="#73DFE7"/>
<stop offset="1" stop-color="#0063F7"/>
</linearGradient>
<clipPath id="clip0">
<rect width="28" height="28" fill="white" transform="translate(263 24)"/>
</clipPath>
<clipPath id="clip1">
<rect width="79" height="66" fill="white" transform="translate(77)"/>
</clipPath>
</defs>
</svg>
