<svg width="323" height="107" viewBox="0 0 323 107" fill="none" xmlns="http://www.w3.org/2000/svg">
<path d="M9.83061 65H10.7085V62.4631H13.609V65H14.4897V59.1818H13.609V61.7102H10.7085V59.1818H9.83061V65ZM16.9698 65.0966C17.6914 65.0966 18.0977 64.7301 18.2596 64.4034H18.2937V65H19.1232V62.1023C19.1232 60.8324 18.1232 60.5795 17.43 60.5795C16.6403 60.5795 15.913 60.8977 15.6289 61.6932L16.4272 61.875C16.5522 61.5653 16.8704 61.267 17.4414 61.267C17.9897 61.267 18.271 61.554 18.271 62.0483V62.0682C18.271 62.3778 17.9528 62.3722 17.1687 62.4631C16.342 62.5597 15.4954 62.7756 15.4954 63.767C15.4954 64.625 16.1403 65.0966 16.9698 65.0966ZM17.1545 64.4148C16.6744 64.4148 16.3278 64.1989 16.3278 63.7784C16.3278 63.3239 16.7312 63.1619 17.2227 63.0966C17.4982 63.0597 18.1516 62.9858 18.2738 62.8636V63.4261C18.2738 63.9432 17.8619 64.4148 17.1545 64.4148ZM20.2546 65H21.104V62.3352C21.104 61.7642 21.5444 61.3523 22.1467 61.3523C22.3228 61.3523 22.5217 61.3835 22.5898 61.4034V60.5909C22.5046 60.5795 22.337 60.571 22.229 60.571C21.7177 60.571 21.2802 60.8608 21.1211 61.3295H21.0756V60.6364H20.2546V65ZM24.1744 62.4091C24.1744 61.7131 24.6005 61.3153 25.1914 61.3153C25.7681 61.3153 26.1175 61.6932 26.1175 62.3267V65H26.967V62.2244C26.967 61.1449 26.3732 60.5795 25.4812 60.5795C24.8249 60.5795 24.396 60.8835 24.1942 61.3466H24.1403V60.6364H23.3249V65H24.1744V62.4091ZM29.9869 65.0881C30.9386 65.0881 31.6119 64.6193 31.805 63.9091L31.0011 63.7642C30.8477 64.1761 30.4783 64.3864 29.9954 64.3864C29.2681 64.3864 28.7795 63.9148 28.7567 63.0739H31.859V62.7727C31.859 61.196 30.9158 60.5795 29.9272 60.5795C28.7113 60.5795 27.9102 61.5057 27.9102 62.8466C27.9102 64.2017 28.6999 65.0881 29.9869 65.0881ZM28.7596 62.4375C28.7937 61.8182 29.2425 61.2812 29.9329 61.2812C30.592 61.2812 31.0238 61.7699 31.0266 62.4375H28.7596ZM36.0714 61.7017C35.8952 61.0227 35.364 60.5795 34.4208 60.5795C33.435 60.5795 32.7362 61.0994 32.7362 61.8722C32.7362 62.4915 33.1112 62.9034 33.9293 63.0852L34.668 63.2472C35.0884 63.3409 35.2844 63.5284 35.2844 63.8011C35.2844 64.1392 34.9237 64.4034 34.3668 64.4034C33.8583 64.4034 33.5316 64.1847 33.4293 63.7557L32.6083 63.8807C32.7504 64.6534 33.3924 65.0881 34.3725 65.0881C35.4265 65.0881 36.1566 64.5284 36.1566 63.7386C36.1566 63.1222 35.7646 62.7415 34.9634 62.5568L34.2702 62.3977C33.7901 62.2841 33.5827 62.1222 33.5856 61.8267C33.5827 61.4915 33.9464 61.2528 34.4293 61.2528C34.9577 61.2528 35.2021 61.5455 35.3015 61.8381L36.0714 61.7017ZM40.3604 61.7017C40.1843 61.0227 39.6531 60.5795 38.7099 60.5795C37.7241 60.5795 37.0252 61.0994 37.0252 61.8722C37.0252 62.4915 37.4002 62.9034 38.2184 63.0852L38.957 63.2472C39.3775 63.3409 39.5735 63.5284 39.5735 63.8011C39.5735 64.1392 39.2127 64.4034 38.6559 64.4034C38.1474 64.4034 37.8207 64.1847 37.7184 63.7557L36.8974 63.8807C37.0394 64.6534 37.6815 65.0881 38.6616 65.0881C39.7156 65.0881 40.4457 64.5284 40.4457 63.7386C40.4457 63.1222 40.0536 62.7415 39.2525 62.5568L38.5593 62.3977C38.0792 62.2841 37.8718 62.1222 37.8746 61.8267C37.8718 61.4915 38.2354 61.2528 38.7184 61.2528C39.2468 61.2528 39.4911 61.5455 39.5906 61.8381L40.3604 61.7017ZM9.4478 75H10.3256V72.9545H11.5188C12.8683 72.9545 13.5359 72.1392 13.5359 71.0653C13.5359 69.9943 12.8739 69.1818 11.5217 69.1818H9.4478V75ZM10.3256 72.2102V69.9347H11.4279C12.2972 69.9347 12.6523 70.4062 12.6523 71.0653C12.6523 71.7244 12.2972 72.2102 11.4393 72.2102H10.3256ZM15.3462 69.1818H14.4968V75H15.3462V69.1818ZM17.7589 75.0966C18.4805 75.0966 18.8867 74.7301 19.0487 74.4034H19.0827V75H19.9123V72.1023C19.9123 70.8324 18.9123 70.5795 18.2191 70.5795C17.4293 70.5795 16.7021 70.8977 16.418 71.6932L17.2163 71.875C17.3413 71.5653 17.6594 71.267 18.2305 71.267C18.7788 71.267 19.06 71.554 19.06 72.0483V72.0682C19.06 72.3778 18.7418 72.3722 17.9577 72.4631C17.131 72.5597 16.2844 72.7756 16.2844 73.767C16.2844 74.625 16.9293 75.0966 17.7589 75.0966ZM17.9435 74.4148C17.4634 74.4148 17.1168 74.1989 17.1168 73.7784C17.1168 73.3239 17.5202 73.1619 18.0117 73.0966C18.2873 73.0597 18.9407 72.9858 19.0629 72.8636V73.4261C19.0629 73.9432 18.6509 74.4148 17.9435 74.4148ZM23.0806 70.6364H22.1857V69.5909H21.3363V70.6364H20.6971V71.3182H21.3363V73.8949C21.3335 74.6875 21.9386 75.071 22.609 75.0568C22.8789 75.054 23.0607 75.0028 23.1602 74.9659L23.0067 74.2642C22.9499 74.2756 22.8448 74.3011 22.7085 74.3011C22.4329 74.3011 22.1857 74.2102 22.1857 73.7188V71.3182H23.0806V70.6364ZM26.0969 70.6364H25.1566V70.2443C25.1566 69.858 25.3157 69.6477 25.7305 69.6477C25.9066 69.6477 26.0316 69.6875 26.1112 69.7131L26.31 69.0256C26.1907 68.9801 25.9435 68.9091 25.5998 68.9091C24.9094 68.9091 24.3043 69.3125 24.3043 70.1307V70.6364H23.631V71.3182H24.3043V75H25.1566V71.3182H26.0969V70.6364ZM28.6396 75.0881C29.8697 75.0881 30.6737 74.1875 30.6737 72.8381C30.6737 71.4801 29.8697 70.5795 28.6396 70.5795C27.4094 70.5795 26.6055 71.4801 26.6055 72.8381C26.6055 74.1875 27.4094 75.0881 28.6396 75.0881ZM28.6424 74.375C27.8384 74.375 27.4634 73.6733 27.4634 72.8352C27.4634 72 27.8384 71.2898 28.6424 71.2898C29.4407 71.2898 29.8157 72 29.8157 72.8352C29.8157 73.6733 29.4407 74.375 28.6424 74.375ZM31.6218 75H32.4712V72.3352C32.4712 71.7642 32.9116 71.3523 33.5138 71.3523C33.69 71.3523 33.8888 71.3835 33.957 71.4034V70.5909C33.8718 70.5795 33.7042 70.571 33.5962 70.571C33.0849 70.571 32.6474 70.8608 32.4883 71.3295H32.4428V70.6364H31.6218V75ZM34.6921 75H35.5415V72.3097C35.5415 71.7216 35.9535 71.3125 36.4364 71.3125C36.908 71.3125 37.2347 71.625 37.2347 72.0994V75H38.0813V72.2188C38.0813 71.6932 38.4023 71.3125 38.9563 71.3125C39.4052 71.3125 39.7745 71.5625 39.7745 72.1534V75H40.6239V72.0739C40.6239 71.0767 40.0671 70.5795 39.2773 70.5795C38.6495 70.5795 38.1779 70.8807 37.9677 71.3466H37.9222C37.7319 70.8693 37.3313 70.5795 36.7489 70.5795C36.1722 70.5795 35.7433 70.8665 35.5614 71.3466H35.5075V70.6364H34.6921V75Z" fill="#4F5162"/>
<path d="M134.756 73H135.634V70.4631H138.106V69.7102H135.634V67.9375H138.364V67.1818H134.756V73ZM139.376 73H140.225V68.6364H139.376V73ZM139.805 67.9631C140.097 67.9631 140.342 67.7358 140.342 67.4574C140.342 67.179 140.097 66.9489 139.805 66.9489C139.509 66.9489 139.268 67.179 139.268 67.4574C139.268 67.7358 139.509 67.9631 139.805 67.9631ZM141.368 73H142.217V70.3352C142.217 69.7642 142.658 69.3523 143.26 69.3523C143.436 69.3523 143.635 69.3835 143.703 69.4034V68.5909C143.618 68.5795 143.45 68.571 143.342 68.571C142.831 68.571 142.393 68.8608 142.234 69.3295H142.189V68.6364H141.368V73ZM146.163 73.0881C147.114 73.0881 147.788 72.6193 147.981 71.9091L147.177 71.7642C147.023 72.1761 146.654 72.3864 146.171 72.3864C145.444 72.3864 144.955 71.9148 144.933 71.0739H148.035V70.7727C148.035 69.196 147.092 68.5795 146.103 68.5795C144.887 68.5795 144.086 69.5057 144.086 70.8466C144.086 72.2017 144.876 73.0881 146.163 73.0881ZM144.935 70.4375C144.969 69.8182 145.418 69.2812 146.109 69.2812C146.768 69.2812 147.2 69.7699 147.202 70.4375H144.935ZM149.915 73H150.779L151.665 69.8494H151.731L152.617 73H153.484L154.765 68.6364H153.887L153.038 71.8267H152.995L152.143 68.6364H151.265L150.407 71.8409H150.364L149.509 68.6364H148.631L149.915 73ZM156.841 73.0966C157.562 73.0966 157.969 72.7301 158.131 72.4034H158.165V73H158.994V70.1023C158.994 68.8324 157.994 68.5795 157.301 68.5795C156.511 68.5795 155.784 68.8977 155.5 69.6932L156.298 69.875C156.423 69.5653 156.741 69.267 157.312 69.267C157.861 69.267 158.142 69.554 158.142 70.0483V70.0682C158.142 70.3778 157.824 70.3722 157.04 70.4631C156.213 70.5597 155.366 70.7756 155.366 71.767C155.366 72.625 156.011 73.0966 156.841 73.0966ZM157.026 72.4148C156.545 72.4148 156.199 72.1989 156.199 71.7784C156.199 71.3239 156.602 71.1619 157.094 71.0966C157.369 71.0597 158.023 70.9858 158.145 70.8636V71.4261C158.145 71.9432 157.733 72.4148 157.026 72.4148ZM160.975 67.1818H160.126V73H160.975V67.1818ZM162.967 67.1818H162.118V73H162.967V67.1818Z" fill="#4F5162"/>
<path d="M266.62 10.0199H267.52C267.324 8.88636 266.355 8.10227 265.1 8.10227C263.594 8.10227 262.495 9.2358 262.495 11.0938C262.495 12.9347 263.563 14.0795 265.14 14.0795C266.551 14.0795 267.56 13.1534 267.56 11.6847V11.0227H265.273V11.7472H266.711C266.691 12.6847 266.071 13.2784 265.14 13.2784C264.114 13.2784 263.367 12.5028 263.367 11.0881C263.367 9.67898 264.12 8.90341 265.105 8.90341C265.878 8.90341 266.401 9.32955 266.62 10.0199ZM268.88 14H269.729V9.63636H268.88V14ZM269.309 8.96307C269.601 8.96307 269.846 8.7358 269.846 8.45739C269.846 8.17898 269.601 7.94886 269.309 7.94886C269.013 7.94886 268.772 8.17898 268.772 8.45739C268.772 8.7358 269.013 8.96307 269.309 8.96307ZM272.909 9.63636H272.014V8.59091H271.164V9.63636H270.525V10.3182H271.164V12.8949C271.162 13.6875 271.767 14.071 272.437 14.0568C272.707 14.054 272.889 14.0028 272.988 13.9659L272.835 13.2642C272.778 13.2756 272.673 13.3011 272.537 13.3011C272.261 13.3011 272.014 13.2102 272.014 12.7188V10.3182H272.909V9.63636ZM278.971 11.0909C278.971 9.23011 277.857 8.10227 276.351 8.10227C274.84 8.10227 273.729 9.23011 273.729 11.0909C273.729 12.9489 274.84 14.0795 276.351 14.0795C277.857 14.0795 278.971 12.9517 278.971 11.0909ZM278.101 11.0909C278.101 12.5085 277.351 13.2784 276.351 13.2784C275.348 13.2784 274.601 12.5085 274.601 11.0909C274.601 9.6733 275.348 8.90341 276.351 8.90341C277.351 8.90341 278.101 9.6733 278.101 11.0909ZM279.997 15.6364H280.846V13.321H280.897C281.051 13.5994 281.363 14.0852 282.159 14.0852C283.216 14.0852 283.983 13.2386 283.983 11.8267C283.983 10.4119 283.204 9.57955 282.15 9.57955C281.341 9.57955 281.048 10.0739 280.897 10.3438H280.826V9.63636H279.997V15.6364ZM280.829 11.8182C280.829 10.9062 281.227 10.3011 281.968 10.3011C282.738 10.3011 283.125 10.9517 283.125 11.8182C283.125 12.6932 282.727 13.3608 281.968 13.3608C281.238 13.3608 280.829 12.7358 280.829 11.8182ZM288.204 10.7017C288.028 10.0227 287.497 9.57955 286.554 9.57955C285.568 9.57955 284.869 10.0994 284.869 10.8722C284.869 11.4915 285.244 11.9034 286.062 12.0852L286.801 12.2472C287.221 12.3409 287.417 12.5284 287.417 12.8011C287.417 13.1392 287.056 13.4034 286.5 13.4034C285.991 13.4034 285.664 13.1847 285.562 12.7557L284.741 12.8807C284.883 13.6534 285.525 14.0881 286.505 14.0881C287.559 14.0881 288.289 13.5284 288.289 12.7386C288.289 12.1222 287.897 11.7415 287.096 11.5568L286.403 11.3977C285.923 11.2841 285.716 11.1222 285.718 10.8267C285.716 10.4915 286.079 10.2528 286.562 10.2528C287.091 10.2528 287.335 10.5455 287.434 10.8381L288.204 10.7017ZM294.582 9.71023H295.429C295.403 8.77841 294.579 8.10227 293.397 8.10227C292.23 8.10227 291.335 8.76989 291.335 9.77273C291.335 10.5824 291.914 11.0568 292.849 11.3097L293.537 11.4972C294.159 11.6619 294.639 11.8665 294.639 12.3835C294.639 12.9517 294.096 13.3267 293.349 13.3267C292.673 13.3267 292.11 13.0256 292.059 12.392H291.179C291.235 13.446 292.051 14.0966 293.355 14.0966C294.721 14.0966 295.508 13.3778 295.508 12.392C295.508 11.3438 294.574 10.9375 293.835 10.7557L293.267 10.608C292.812 10.4915 292.207 10.2784 292.21 9.72159C292.21 9.22727 292.662 8.8608 293.377 8.8608C294.045 8.8608 294.52 9.1733 294.582 9.71023ZM298.37 14.0881C299.321 14.0881 299.995 13.6193 300.188 12.9091L299.384 12.7642C299.23 13.1761 298.861 13.3864 298.378 13.3864C297.651 13.3864 297.162 12.9148 297.14 12.0739H300.242V11.7727C300.242 10.196 299.299 9.57955 298.31 9.57955C297.094 9.57955 296.293 10.5057 296.293 11.8466C296.293 13.2017 297.083 14.0881 298.37 14.0881ZM297.142 11.4375C297.176 10.8182 297.625 10.2812 298.316 10.2812C298.975 10.2812 299.407 10.7699 299.409 11.4375H297.142ZM301.184 14H302.034V11.3352C302.034 10.7642 302.474 10.3523 303.076 10.3523C303.252 10.3523 303.451 10.3835 303.52 10.4034V9.59091C303.434 9.57955 303.267 9.57102 303.159 9.57102C302.647 9.57102 302.21 9.8608 302.051 10.3295H302.005V9.63636H301.184V14ZM308.12 9.63636H307.208L306.106 12.9943H306.061L304.956 9.63636H304.044L305.629 14H306.538L308.12 9.63636ZM310.643 14.0881C311.595 14.0881 312.268 13.6193 312.461 12.9091L311.657 12.7642C311.504 13.1761 311.135 13.3864 310.652 13.3864C309.924 13.3864 309.436 12.9148 309.413 12.0739H312.515V11.7727C312.515 10.196 311.572 9.57955 310.583 9.57955C309.368 9.57955 308.566 10.5057 308.566 11.8466C308.566 13.2017 309.356 14.0881 310.643 14.0881ZM309.416 11.4375C309.45 10.8182 309.899 10.2812 310.589 10.2812C311.248 10.2812 311.68 10.7699 311.683 11.4375H309.416ZM313.458 14H314.307V11.3352C314.307 10.7642 314.748 10.3523 315.35 10.3523C315.526 10.3523 315.725 10.3835 315.793 10.4034V9.59091C315.708 9.57955 315.54 9.57102 315.432 9.57102C314.921 9.57102 314.483 9.8608 314.324 10.3295H314.279V9.63636H313.458V14Z" fill="#4F5162"/>
<path d="M268.979 68.0739C268.781 66.8295 267.806 66.1023 266.576 66.1023C265.07 66.1023 263.96 67.2301 263.96 69.0909C263.96 70.9517 265.065 72.0795 266.576 72.0795C267.854 72.0795 268.789 71.2784 268.979 70.1278L268.093 70.125C267.942 70.8693 267.317 71.2784 266.582 71.2784C265.585 71.2784 264.832 70.5142 264.832 69.0909C264.832 67.679 265.582 66.9034 266.585 66.9034C267.326 66.9034 267.948 67.321 268.093 68.0739H268.979ZM271.8 72.0881C273.03 72.0881 273.834 71.1875 273.834 69.8381C273.834 68.4801 273.03 67.5795 271.8 67.5795C270.57 67.5795 269.766 68.4801 269.766 69.8381C269.766 71.1875 270.57 72.0881 271.8 72.0881ZM271.803 71.375C270.999 71.375 270.624 70.6733 270.624 69.8352C270.624 69 270.999 68.2898 271.803 68.2898C272.601 68.2898 272.976 69 272.976 69.8352C272.976 70.6733 272.601 71.375 271.803 71.375ZM274.782 72H275.631V69.3097C275.631 68.7216 276.043 68.3125 276.526 68.3125C276.998 68.3125 277.325 68.625 277.325 69.0994V72H278.171V69.2188C278.171 68.6932 278.492 68.3125 279.046 68.3125C279.495 68.3125 279.864 68.5625 279.864 69.1534V72H280.714V69.0739C280.714 68.0767 280.157 67.5795 279.367 67.5795C278.739 67.5795 278.268 67.8807 278.058 68.3466H278.012C277.822 67.8693 277.421 67.5795 276.839 67.5795C276.262 67.5795 275.833 67.8665 275.651 68.3466H275.597V67.6364H274.782V72ZM281.852 73.6364H282.702V71.321H282.753C282.906 71.5994 283.219 72.0852 284.014 72.0852C285.071 72.0852 285.838 71.2386 285.838 69.8267C285.838 68.4119 285.06 67.5795 284.006 67.5795C283.196 67.5795 282.903 68.0739 282.753 68.3438H282.682V67.6364H281.852V73.6364ZM282.685 69.8182C282.685 68.9062 283.082 68.3011 283.824 68.3011C284.594 68.3011 284.98 68.9517 284.98 69.8182C284.98 70.6932 284.582 71.3608 283.824 71.3608C283.094 71.3608 282.685 70.7358 282.685 69.8182ZM288.628 72.0881C289.858 72.0881 290.662 71.1875 290.662 69.8381C290.662 68.4801 289.858 67.5795 288.628 67.5795C287.398 67.5795 286.594 68.4801 286.594 69.8381C286.594 71.1875 287.398 72.0881 288.628 72.0881ZM288.631 71.375C287.827 71.375 287.452 70.6733 287.452 69.8352C287.452 69 287.827 68.2898 288.631 68.2898C289.429 68.2898 289.804 69 289.804 69.8352C289.804 70.6733 289.429 71.375 288.631 71.375ZM292.46 69.4091C292.46 68.7131 292.886 68.3153 293.477 68.3153C294.053 68.3153 294.403 68.6932 294.403 69.3267V72H295.252V69.2244C295.252 68.1449 294.658 67.5795 293.766 67.5795C293.11 67.5795 292.681 67.8835 292.479 68.3466H292.425V67.6364H291.61V72H292.46V69.4091ZM298.272 72.0881C299.224 72.0881 299.897 71.6193 300.09 70.9091L299.286 70.7642C299.133 71.1761 298.763 71.3864 298.281 71.3864C297.553 71.3864 297.065 70.9148 297.042 70.0739H300.144V69.7727C300.144 68.196 299.201 67.5795 298.212 67.5795C296.996 67.5795 296.195 68.5057 296.195 69.8466C296.195 71.2017 296.985 72.0881 298.272 72.0881ZM297.045 69.4375C297.079 68.8182 297.528 68.2812 298.218 68.2812C298.877 68.2812 299.309 68.7699 299.312 69.4375H297.045ZM301.936 69.4091C301.936 68.7131 302.362 68.3153 302.953 68.3153C303.53 68.3153 303.879 68.6932 303.879 69.3267V72H304.729V69.2244C304.729 68.1449 304.135 67.5795 303.243 67.5795C302.587 67.5795 302.158 67.8835 301.956 68.3466H301.902V67.6364H301.087V72H301.936V69.4091ZM307.905 67.6364H307.01V66.5909H306.161V67.6364H305.521V68.3182H306.161V70.8949C306.158 71.6875 306.763 72.071 307.433 72.0568C307.703 72.054 307.885 72.0028 307.984 71.9659L307.831 71.2642C307.774 71.2756 307.669 71.3011 307.533 71.3011C307.257 71.3011 307.01 71.2102 307.01 70.7188V68.3182H307.905V67.6364ZM312.044 68.7017C311.868 68.0227 311.337 67.5795 310.393 67.5795C309.408 67.5795 308.709 68.0994 308.709 68.8722C308.709 69.4915 309.084 69.9034 309.902 70.0852L310.641 70.2472C311.061 70.3409 311.257 70.5284 311.257 70.8011C311.257 71.1392 310.896 71.4034 310.339 71.4034C309.831 71.4034 309.504 71.1847 309.402 70.7557L308.581 70.8807C308.723 71.6534 309.365 72.0881 310.345 72.0881C311.399 72.0881 312.129 71.5284 312.129 70.7386C312.129 70.1222 311.737 69.7415 310.936 69.5568L310.243 69.3977C309.763 69.2841 309.555 69.1222 309.558 68.8267C309.555 68.4915 309.919 68.2528 310.402 68.2528C310.93 68.2528 311.175 68.5455 311.274 68.8381L312.044 68.7017Z" fill="#4F5162"/>
<path fill-rule="evenodd" clip-rule="evenodd" d="M36.0698 41.101C35.7982 41.8249 35.3456 42.4583 35.2551 42.4583L33.2635 44.4491L29.2802 40.5581L33.1729 36.6672L35.1645 38.6579C35.7982 39.2008 36.3414 39.9247 36.0698 41.101ZM26.0225 50.0595C25.2983 49.788 24.6646 49.3356 24.6646 49.2451L22.673 47.2543L26.5657 43.3634L30.4584 47.2543L28.4668 49.2451C27.9236 49.788 27.1089 50.3309 26.0225 50.0595ZM17.0592 40.0152C17.3307 39.2913 17.7834 38.6579 17.8739 38.6579L19.8655 36.6672L23.7582 40.5581L19.8655 44.4491L17.7834 42.4583C17.2402 41.9154 16.697 41.101 17.0592 40.0152ZM27.1089 31.0572C27.8331 31.3287 28.4668 31.7811 28.4668 31.8716L30.4584 33.8623L26.5657 37.7533L22.673 33.8623L24.6646 31.8716C25.2078 31.3287 25.932 30.6952 27.1089 31.0572ZM38.062 35.8535L31.2724 29.067C31.1819 28.9765 30.0955 27.8906 28.466 27.3477C26.1123 26.5333 23.8491 27.1667 21.948 29.067L15.0679 35.8535C14.9774 35.944 13.891 37.0299 13.3479 38.6586C12.5331 41.0113 13.1668 43.2735 15.0679 45.1737L21.8575 51.9603C21.948 52.0508 23.0343 53.1366 24.6639 53.6796C25.2975 53.8605 26.0218 54.0415 26.6555 54.0415C28.285 54.0415 29.8239 53.3176 31.1819 52.0508L37.9715 45.2642C38.062 45.1737 39.1483 44.0879 39.6915 42.4591C40.5062 40.1064 39.8725 37.7538 38.062 35.8535Z" fill="#0278D5"/>
<path d="M258.283 35.2828C258.439 35.1266 258.439 34.8734 258.283 34.7172L255.737 32.1716C255.581 32.0154 255.328 32.0154 255.172 32.1716C255.015 32.3278 255.015 32.581 255.172 32.7373L257.434 35L255.172 37.2627C255.015 37.4189 255.015 37.6722 255.172 37.8284C255.328 37.9846 255.581 37.9846 255.737 37.8284L258.283 35.2828ZM214 35.4L258 35.4L258 34.6L214 34.6L214 35.4Z" fill="#3DC7F6"/>
<path d="M42.7172 44.7172C42.5609 44.8734 42.5609 45.1266 42.7172 45.2828L45.2627 47.8284C45.419 47.9846 45.6722 47.9846 45.8284 47.8284C45.9846 47.6722 45.9846 47.419 45.8284 47.2627L43.5657 45L45.8284 42.7373C45.9846 42.581 45.9846 42.3278 45.8284 42.1716C45.6722 42.0154 45.419 42.0154 45.2627 42.1716L42.7172 44.7172ZM43 45.4H253V44.6H43V45.4Z" fill="#3DC7F6"/>
<path d="M214 35L44 34" stroke="#3DC7F6" stroke-width="0.8"/>
<g clip-path="url(#clip0)">
<path d="M122.317 18.3858L114.2 13.7136C114.105 13.6487 113.995 13.6097 113.88 13.6008C113.766 13.5919 113.651 13.6134 113.547 13.6631L109.418 15.9198L118.818 29.2771L122.94 27.0276C123.065 26.9357 123.163 26.8131 123.225 26.6721C123.286 26.5311 123.309 26.3766 123.292 26.2241L123.318 20.284C123.321 19.5574 122.874 18.7058 122.317 18.3858Z" fill="url(#paint0_linear)"/>
<path d="M118.119 29.2455L110.002 24.5829C109.445 24.2654 109 23.4137 109 22.6823L109.027 16.7398C109.027 16.0181 109.484 15.674 110.038 15.994L118.158 20.6566C118.713 20.9742 119.16 21.8282 119.157 22.5596L119.13 28.4997C119.128 29.2311 118.673 29.5655 118.119 29.2455Z" fill="url(#paint1_linear)"/>
<g style="mix-blend-mode:overlay">
<g style="mix-blend-mode:overlay">
<path d="M122.317 18.3398L114.2 13.6797C114.106 13.6138 113.996 13.5742 113.881 13.5649C113.766 13.5556 113.651 13.5769 113.547 13.6267L109.418 15.8786L118.818 29.2311L122.94 26.9841C123.064 26.8932 123.162 26.7719 123.224 26.6322C123.286 26.4926 123.311 26.3393 123.294 26.1877L123.321 20.2477C123.321 19.5115 122.874 18.6598 122.317 18.3398Z" fill="url(#paint2_linear)"/>
</g>
<g style="mix-blend-mode:overlay">
<path d="M118.119 29.1999L110.002 24.5398C109.445 24.2198 109 23.3681 109 22.6367L109.027 16.6966C109.027 15.9749 109.484 15.6308 110.038 15.9484L118.158 20.611C118.713 20.931 119.16 21.7826 119.157 22.514L119.13 28.4541C119.128 29.1855 118.673 29.5199 118.119 29.1999Z" fill="url(#paint3_linear)"/>
</g>
</g>
<path d="M133.043 24.4173L124.924 19.7571C124.83 19.6913 124.72 19.6516 124.606 19.6423C124.492 19.6329 124.377 19.6543 124.274 19.7042L120.144 21.9537L129.542 35.3086L133.678 33.0615C133.803 32.9707 133.901 32.8494 133.963 32.7097C134.025 32.57 134.049 32.4168 134.033 32.2652L134.057 26.3251C134.047 25.5889 133.598 24.7372 133.043 24.4173Z" fill="url(#paint4_linear)"/>
<path d="M128.845 35.2771L120.728 30.6169C120.173 30.2969 119.724 29.4453 119.729 28.7139L119.751 22.7738C119.751 22.052 120.205 21.708 120.762 22.0256L128.879 26.6881C129.436 27.0081 129.884 27.8598 129.881 28.5912L129.854 34.5312C129.854 35.2626 129.4 35.6067 128.845 35.2771Z" fill="url(#paint5_linear)"/>
<g style="mix-blend-mode:overlay">
<g style="mix-blend-mode:overlay">
<path d="M133.043 24.3714L124.923 19.7112C124.83 19.6454 124.72 19.6057 124.606 19.5964C124.491 19.587 124.376 19.6084 124.273 19.6583L120.144 21.9078L129.541 35.2627L133.678 33.0156C133.802 32.9248 133.9 32.8035 133.963 32.6638C134.025 32.5241 134.049 32.3709 134.032 32.2193L134.057 26.2792C134.047 25.543 133.597 24.6914 133.043 24.3714Z" fill="url(#paint6_linear)"/>
</g>
<g style="mix-blend-mode:overlay">
<path d="M128.845 35.2317L120.728 30.5715C120.173 30.2515 119.724 29.3998 119.729 28.6685L119.751 22.7284C119.751 22.0066 120.205 21.6626 120.762 21.9802L128.879 26.6427C129.436 26.9627 129.884 27.8144 129.881 28.5458L129.854 34.4858C129.854 35.2172 129.4 35.5516 128.845 35.2317Z" fill="url(#paint7_linear)"/>
</g>
</g>
<path d="M143.77 30.4392L135.65 25.7766C135.557 25.7113 135.447 25.6719 135.333 25.6625C135.218 25.6532 135.103 25.6743 135 25.7237L130.876 27.978L140.275 41.3281L144.4 39.081C144.524 38.9908 144.622 38.8699 144.684 38.7305C144.746 38.5911 144.769 38.4382 144.752 38.2871L144.779 32.347C144.771 31.6108 144.324 30.7592 143.77 30.4392Z" fill="url(#paint8_linear)"/>
<path d="M139.569 41.299L131.452 36.6364C130.895 36.3188 130.448 35.4648 130.451 34.7334L130.478 28.7933C130.478 28.0715 130.934 27.7275 131.492 28.0475L139.609 32.7197C140.166 33.0397 140.613 33.8913 140.61 34.6227L140.583 40.5628C140.579 41.2845 140.127 41.6214 139.569 41.299Z" fill="url(#paint9_linear)"/>
<g style="mix-blend-mode:overlay">
<g style="mix-blend-mode:overlay">
<path d="M143.77 30.3932L135.65 25.7427C135.556 25.6777 135.447 25.6388 135.332 25.6299C135.218 25.621 135.103 25.6425 135 25.6922L130.876 27.9441L140.275 41.2846L144.4 39.0351C144.524 38.9441 144.622 38.8228 144.684 38.6831C144.745 38.5434 144.769 38.3902 144.752 38.2388L144.779 32.2987C144.771 31.5649 144.324 30.7132 143.77 30.3932Z" fill="url(#paint10_linear)"/>
</g>
<g style="mix-blend-mode:overlay">
<path d="M139.569 41.2533L131.452 36.5908C130.895 36.2732 130.448 35.4215 130.451 34.6877L130.478 28.7477C130.478 28.0259 130.934 27.6819 131.492 28.0018L139.609 32.6644C140.166 32.982 140.613 33.8336 140.61 34.5674L140.583 40.5075C140.579 41.2389 140.127 41.5733 139.569 41.2533Z" fill="url(#paint11_linear)"/>
</g>
</g>
<path d="M154.493 36.5041L146.384 31.844C146.29 31.7782 146.18 31.7385 146.065 31.7292C145.95 31.7199 145.835 31.7412 145.731 31.791L141.604 34.0453L150.994 47.3954L155.119 45.1484C155.334 45.0257 155.471 44.7514 155.473 44.352L155.5 38.412C155.498 37.6758 155.051 36.8241 154.493 36.5041Z" fill="url(#paint12_linear)"/>
<path d="M150.293 47.3643L142.179 42.7042C141.622 42.3842 141.175 41.5325 141.177 40.8011L141.204 34.861C141.204 34.1273 141.661 33.7928 142.215 34.1128L150.335 38.7754C150.89 39.0954 151.339 39.947 151.334 40.6784L151.307 46.6185C151.305 47.3499 150.853 47.6843 150.293 47.3643Z" fill="url(#paint13_linear)"/>
<g style="mix-blend-mode:overlay">
<g style="mix-blend-mode:overlay">
<path d="M154.494 36.4585L146.384 31.7983C146.29 31.7325 146.18 31.6928 146.065 31.6835C145.951 31.6742 145.835 31.6956 145.732 31.7454L141.595 33.9949L150.995 47.3498L155.119 45.1027C155.334 44.9824 155.471 44.7058 155.474 44.3064L155.501 38.3663C155.498 37.6301 155.051 36.7784 154.494 36.4585Z" fill="url(#paint14_linear)"/>
</g>
<g style="mix-blend-mode:overlay">
<path d="M150.294 47.3186L142.177 42.6584C141.62 42.3384 141.172 41.4868 141.175 40.7554L141.202 34.8153C141.202 34.0935 141.659 33.7495 142.213 34.0671L150.335 38.7344C150.89 39.0544 151.339 39.9061 151.334 40.6375L151.308 46.5776C151.305 47.3041 150.853 47.6361 150.294 47.3186Z" fill="url(#paint15_linear)"/>
</g>
</g>
<path d="M165.22 42.769L157.103 38.1088C157.009 38.043 156.899 38.0034 156.784 37.9941C156.67 37.9848 156.554 38.0061 156.451 38.0559L152.324 40.3102L161.719 53.6507L165.843 51.4036C165.968 51.3128 166.066 51.1915 166.128 51.0518C166.19 50.9121 166.214 50.7589 166.198 50.6073L166.224 44.6672C166.224 43.9407 165.777 43.089 165.22 42.769Z" fill="url(#paint16_linear)"/>
<path d="M161.022 53.6291L152.903 48.9689C152.348 48.649 151.901 47.7973 151.904 47.0659L151.93 41.1258C151.93 40.4041 152.387 40.06 152.942 40.3776L161.059 45.0402C161.616 45.3602 162.063 46.2118 162.061 46.9432L162.034 52.8833C162.022 53.6147 161.577 53.9491 161.022 53.6291Z" fill="url(#paint17_linear)"/>
<g style="mix-blend-mode:overlay">
<g style="mix-blend-mode:overlay">
<path d="M165.22 42.7233L157.103 38.0632C157.009 37.9974 156.899 37.9577 156.784 37.9484C156.67 37.9391 156.554 37.9605 156.451 38.0103L152.324 40.2646L161.721 53.6195L165.846 51.3724C165.97 51.2815 166.068 51.1603 166.13 51.0206C166.192 50.8809 166.217 50.7277 166.2 50.5761L166.227 44.636C166.224 43.895 165.777 43.0433 165.22 42.7233Z" fill="url(#paint18_linear)"/>
</g>
<g style="mix-blend-mode:overlay">
<path d="M161.022 53.5834L152.903 48.9233C152.348 48.6033 151.901 47.7516 151.904 47.0203L151.93 41.0802C151.93 40.3584 152.387 40.0144 152.942 40.332L161.059 44.9897C161.616 45.3097 162.063 46.1614 162.061 46.8928L162.034 52.8328C162.022 53.569 161.577 53.9034 161.022 53.5834Z" fill="url(#paint19_linear)"/>
</g>
</g>
<path d="M175.949 48.8388L167.83 44.1763C167.736 44.1109 167.626 44.0715 167.512 44.0622C167.398 44.0529 167.283 44.074 167.18 44.1233L163.055 46.3776L172.452 59.7326L176.577 57.4855C176.701 57.3952 176.799 57.2743 176.861 57.1349C176.923 56.9956 176.946 56.8427 176.929 56.6916L176.956 50.7515C176.951 50.0081 176.501 49.154 175.949 48.8388Z" fill="url(#paint20_linear)"/>
<path d="M171.746 59.6969L163.63 55.0344C163.075 54.7144 162.625 53.8627 162.63 53.1313L162.655 47.1913C162.655 46.4695 163.112 46.1255 163.669 46.4454L171.795 51.1056C172.352 51.4256 172.8 52.2772 172.797 53.0086L172.773 58.9439C172.758 59.6801 172.304 60.0145 171.746 59.6969Z" fill="url(#paint21_linear)"/>
<g style="mix-blend-mode:overlay">
<g style="mix-blend-mode:overlay">
<path d="M175.949 48.791L167.83 44.1284C167.736 44.0631 167.626 44.0237 167.512 44.0144C167.398 44.005 167.283 44.0262 167.18 44.0755L163.055 46.3298L172.452 59.6847L176.577 57.4377C176.701 57.3474 176.799 57.2265 176.861 57.0871C176.923 56.9477 176.946 56.7948 176.929 56.6437L176.956 50.7036C176.951 49.9626 176.501 49.111 175.949 48.791Z" fill="url(#paint22_linear)"/>
</g>
<g style="mix-blend-mode:overlay">
<path d="M171.746 59.6508L163.63 54.9882C163.075 54.6706 162.625 53.8166 162.63 53.0852L162.655 47.1451C162.655 46.4234 163.112 46.0793 163.669 46.3993L171.795 51.0594C172.352 51.3794 172.8 52.2311 172.797 52.9625L172.773 58.9026C172.758 59.6363 172.304 59.9708 171.746 59.6508Z" fill="url(#paint23_linear)"/>
</g>
</g>
<path d="M143.977 21.1115L135.86 16.4489C135.766 16.3836 135.656 16.3442 135.541 16.3349C135.427 16.3256 135.311 16.3467 135.208 16.396L131.078 18.6455L140.478 31.998L144.6 29.7485C144.724 29.6575 144.822 29.5362 144.884 29.3965C144.947 29.2569 144.971 29.1038 144.954 28.9522L144.981 23.0121C144.981 22.2831 144.534 21.4314 143.977 21.1115Z" fill="url(#paint24_linear)"/>
<path d="M139.787 31.9716L131.662 27.309C131.105 26.9914 130.658 26.1374 130.661 25.406L130.688 19.4659C130.688 18.7442 131.144 18.4001 131.699 18.7201L139.819 23.3827C140.373 23.7002 140.82 24.5519 140.818 25.2857L140.791 31.2258C140.789 31.9571 140.334 32.2916 139.787 31.9716Z" fill="url(#paint25_linear)"/>
<g style="mix-blend-mode:overlay">
<g style="mix-blend-mode:overlay">
<path d="M143.977 21.0659L135.86 16.4033C135.766 16.3383 135.656 16.2994 135.541 16.2905C135.426 16.2816 135.311 16.3031 135.208 16.3528L131.079 18.5998L140.478 31.9572L144.6 29.7077C144.725 29.6167 144.823 29.4954 144.885 29.3557C144.947 29.2161 144.971 29.063 144.955 28.9114L144.982 22.9713C144.982 22.2375 144.534 21.3858 143.977 21.0659Z" fill="url(#paint26_linear)"/>
</g>
<g style="mix-blend-mode:overlay">
<path d="M139.787 31.9259L131.662 27.2634C131.105 26.9458 130.658 26.0941 130.661 25.3627L130.688 19.4203C130.688 18.6985 131.144 18.3545 131.699 18.6744L139.819 23.337C140.373 23.6546 140.82 24.5087 140.818 25.24L140.791 31.1801C140.789 31.9115 140.334 32.2387 139.787 31.9259Z" fill="url(#paint27_linear)"/>
</g>
</g>
<path d="M154.704 27.1863L146.587 22.5166C146.493 22.4508 146.383 22.4111 146.268 22.4018C146.153 22.3925 146.038 22.4138 145.935 22.4636L141.808 24.7179L151.205 38.0729L155.329 35.8258C155.454 35.7349 155.552 35.6136 155.614 35.474C155.676 35.3343 155.7 35.1811 155.684 35.0295L155.708 29.0894C155.708 28.3484 155.259 27.4967 154.704 27.1863Z" fill="url(#paint28_linear)"/>
<path d="M150.506 38.0366L142.387 33.3764C141.832 33.0564 141.382 32.2048 141.387 31.4734L141.414 25.5333C141.414 24.8116 141.869 24.4675 142.426 24.7851L150.538 29.4477C151.095 29.7676 151.542 30.6193 151.54 31.3507L151.515 37.2908C151.515 38.0125 151.061 38.3566 150.506 38.0366Z" fill="url(#paint29_linear)"/>
<g style="mix-blend-mode:overlay">
<g style="mix-blend-mode:overlay">
<path d="M154.704 27.1332L146.587 22.4707C146.493 22.4049 146.383 22.3652 146.268 22.3559C146.153 22.3466 146.038 22.3679 145.935 22.4177L141.808 24.672L151.202 38.0125L155.327 35.7655C155.451 35.675 155.549 35.5541 155.611 35.4149C155.673 35.2756 155.698 35.1228 155.681 34.9715L155.706 29.029C155.708 28.3025 155.259 27.4508 154.704 27.1332Z" fill="url(#paint30_linear)"/>
</g>
<g style="mix-blend-mode:overlay">
<path d="M150.506 37.9933L142.387 33.3308C141.832 33.0108 141.382 32.1591 141.387 31.4277L141.414 25.4877C141.414 24.7659 141.869 24.4219 142.426 24.7394L150.538 29.402C151.095 29.722 151.542 30.5737 151.54 31.305L151.515 37.2451C151.515 37.9765 151.061 38.3109 150.506 37.9933Z" fill="url(#paint31_linear)"/>
</g>
</g>
<g opacity="0.4">
<path opacity="0.4" d="M165.442 33.4417L157.323 28.7815C157.23 28.7157 157.12 28.676 157.005 28.6667C156.891 28.6574 156.776 28.6788 156.673 28.7286L152.549 30.9829L161.946 44.3378L166.07 42.0908C166.195 41.9999 166.293 41.8786 166.354 41.7389C166.416 41.5991 166.439 41.4459 166.422 41.2944L166.449 35.3543C166.432 34.6133 165.985 33.7617 165.442 33.4417Z" fill="url(#paint32_linear)"/>
<path opacity="0.4" d="M161.23 44.3017L153.113 39.6416C152.556 39.3216 152.109 38.4699 152.111 37.7385L152.138 31.7985C152.138 31.0767 152.595 30.7327 153.152 31.0502L161.269 35.7128C161.826 36.0328 162.273 36.8844 162.271 37.6158L162.244 43.5463C162.239 44.2873 161.777 44.6217 161.23 44.3017Z" fill="url(#paint33_linear)"/>
<g style="mix-blend-mode:overlay" opacity="0.4">
<path style="mix-blend-mode:overlay" opacity="0.4" d="M165.442 33.3982L157.323 28.7356C157.23 28.6698 157.12 28.6301 157.005 28.6208C156.891 28.6115 156.776 28.6329 156.673 28.6827L152.549 30.937L161.946 44.2919L166.07 42.0449C166.194 41.9544 166.292 41.8335 166.354 41.6942C166.416 41.5548 166.439 41.402 166.422 41.2509L166.449 35.3109C166.432 34.5674 165.985 33.7158 165.442 33.3982Z" fill="url(#paint34_linear)"/>
<path style="mix-blend-mode:overlay" opacity="0.4" d="M161.23 44.2677L153.113 39.6052C152.556 39.2852 152.109 38.4335 152.111 37.7021L152.138 31.7621C152.138 31.0403 152.595 30.6963 153.152 31.0139L161.269 35.6764C161.826 35.9964 162.273 36.8481 162.271 37.5794L162.244 43.5195C162.239 44.2413 161.777 44.5757 161.23 44.2677Z" fill="url(#paint35_linear)"/>
</g>
</g>
<g style="mix-blend-mode:overlay" opacity="0.5">
<g style="mix-blend-mode:overlay" opacity="0.5">
<path d="M165.442 33.4414L157.323 28.7789C157.229 28.7139 157.119 28.6749 157.005 28.666C156.891 28.6571 156.776 28.6787 156.673 28.7283L152.549 30.9802L161.946 44.3376L166.053 42.1025C166.177 42.0115 166.275 41.8902 166.337 41.7505C166.399 41.6108 166.422 41.4576 166.405 41.3062L166.42 35.3661C166.432 34.6227 165.985 33.771 165.442 33.4414Z" fill="url(#paint36_linear)"/>
</g>
<g style="mix-blend-mode:overlay" opacity="0.5">
<path d="M161.23 44.3109L153.113 39.6484C152.556 39.3308 152.109 38.4791 152.111 37.7477L152.138 31.8053C152.138 31.0835 152.595 30.7395 153.152 31.0595L161.269 35.722C161.826 36.0396 162.273 36.8937 162.271 37.625L162.244 43.5651C162.239 44.2965 161.777 44.6309 161.23 44.3109Z" fill="url(#paint37_linear)"/>
</g>
<g style="mix-blend-mode:overlay" opacity="0.5">
<g style="mix-blend-mode:overlay" opacity="0.5">
<path d="M165.442 33.4053L157.323 28.7452C157.23 28.6793 157.12 28.6396 157.005 28.6303C156.891 28.621 156.776 28.6424 156.673 28.6922L152.549 30.9465L161.946 44.3015L166.07 42.0544C166.195 41.9636 166.293 41.8422 166.354 41.7025C166.416 41.5627 166.439 41.4095 166.422 41.2581L166.449 35.318C166.432 34.577 165.985 33.7253 165.442 33.4053Z" fill="url(#paint38_linear)"/>
</g>
<g style="mix-blend-mode:overlay" opacity="0.5">
<path d="M161.23 44.2678L153.113 39.6077C152.556 39.2877 152.109 38.436 152.111 37.7046L152.138 31.7646C152.138 31.0308 152.595 30.6988 153.152 31.0163L161.269 35.6789C161.826 35.9989 162.273 36.8506 162.271 37.5819L162.244 43.522C162.239 44.251 161.777 44.5854 161.23 44.2678Z" fill="url(#paint39_linear)"/>
</g>
</g>
</g>
<path d="M176.154 39.5092L168.037 34.8466C167.943 34.7813 167.833 34.7419 167.718 34.7326C167.604 34.7233 167.489 34.7444 167.385 34.7937L163.256 37.0504L172.655 50.4053L176.78 48.1583C176.995 48.038 177.132 47.7637 177.134 47.3643L177.161 41.4242C177.171 40.6808 176.711 39.8292 176.154 39.5092Z" fill="url(#paint40_linear)"/>
<path d="M171.957 50.3693L163.84 45.7116C163.283 45.3916 162.835 44.5399 162.838 43.8086L162.865 37.8685C162.865 37.1467 163.322 36.8027 163.876 37.1227L171.996 41.7828C172.55 42.1028 173 42.9545 172.995 43.6859L172.968 49.6259C172.966 50.3549 172.514 50.6893 171.957 50.3693Z" fill="url(#paint41_linear)"/>
<g style="mix-blend-mode:overlay">
<g style="mix-blend-mode:overlay">
<path d="M176.155 39.456L168.038 34.7934C167.944 34.7281 167.833 34.6887 167.719 34.6794C167.604 34.6701 167.489 34.6912 167.385 34.7405L163.258 36.9924L172.658 50.3497L176.78 48.1171C176.995 47.9944 177.132 47.7201 177.134 47.3207L177.161 41.3806C177.171 40.6348 176.712 39.7832 176.155 39.456Z" fill="url(#paint42_linear)"/>
</g>
<g style="mix-blend-mode:overlay">
<path d="M171.957 50.3231L163.84 45.6606C163.283 45.343 162.835 44.4889 162.838 43.7575L162.865 37.8175C162.865 37.0957 163.322 36.7517 163.876 37.0717L171.996 41.7342C172.55 42.0518 173 42.9035 172.995 43.6373L172.968 49.5773C172.966 50.3087 172.514 50.6431 171.957 50.3231Z" fill="url(#paint43_linear)"/>
</g>
</g>
<path d="M154.821 17.6374L146.704 12.9748C146.61 12.9099 146.5 12.8709 146.385 12.8621C146.27 12.8532 146.155 12.8747 146.052 12.9243L141.925 15.1762L151.322 28.5335L155.447 26.2841C155.571 26.193 155.669 26.0717 155.731 25.9321C155.793 25.7925 155.817 25.6393 155.801 25.4877L155.825 19.5476C155.825 18.809 155.376 17.9574 154.821 17.6374Z" fill="url(#paint44_linear)"/>
<path d="M150.623 28.4975L142.504 23.8349C141.949 23.5173 141.5 22.6657 141.504 21.9319L141.531 15.9918C141.531 15.27 141.988 14.926 142.543 15.246L150.66 19.9085C151.217 20.2261 151.664 21.0778 151.662 21.8116L151.635 27.7516C151.632 28.483 151.178 28.8174 150.623 28.4975Z" fill="url(#paint45_linear)"/>
<g style="mix-blend-mode:overlay">
<g style="mix-blend-mode:overlay">
<path d="M154.821 17.5917L146.704 12.9292C146.61 12.8642 146.5 12.8253 146.385 12.8164C146.27 12.8075 146.155 12.829 146.052 12.8787L141.925 15.1305L151.322 28.4879L155.444 26.224C155.568 26.1329 155.666 26.0116 155.728 25.872C155.791 25.7324 155.815 25.5792 155.798 25.4276L155.823 19.4876C155.825 18.7658 155.376 17.9117 154.821 17.5917Z" fill="url(#paint46_linear)"/>
</g>
<g style="mix-blend-mode:overlay">
<path d="M150.623 28.4519L142.504 23.7917C141.949 23.4717 141.497 22.6153 141.497 21.8935L141.524 15.951C141.524 15.2293 141.981 14.8852 142.536 15.2052L150.66 19.863C151.217 20.1805 151.664 21.0346 151.662 21.766L151.635 27.7061C151.633 28.4374 151.178 28.7719 150.623 28.4519Z" fill="url(#paint47_linear)"/>
</g>
</g>
<path d="M165.548 23.9022L157.428 19.2469C157.334 19.1819 157.225 19.1429 157.11 19.134C156.996 19.1251 156.881 19.1467 156.778 19.1963L152.649 21.4362L162.046 34.7935L166.176 32.5441C166.3 32.4531 166.397 32.3317 166.459 32.192C166.521 32.0523 166.544 31.8992 166.527 31.7477L166.554 25.8077C166.552 25.0739 166.102 24.2222 165.548 23.9022Z" fill="url(#paint48_linear)"/>
<path d="M161.347 34.7624L153.225 30.0998C152.671 29.7822 152.221 28.9305 152.224 28.1968L152.248 22.2567C152.248 21.5349 152.705 21.1909 153.262 21.5109L161.379 26.1734C161.936 26.491 162.383 27.3427 162.381 28.0765L162.354 34.0165C162.356 34.7479 161.904 35.0823 161.347 34.7624Z" fill="url(#paint49_linear)"/>
<g style="mix-blend-mode:overlay">
<g style="mix-blend-mode:overlay">
<path d="M165.548 23.8567L157.428 19.1966C157.335 19.1307 157.225 19.091 157.111 19.0817C156.996 19.0724 156.881 19.0938 156.778 19.1436L152.654 21.3979L162.051 34.7529L166.176 32.501C166.3 32.41 166.397 32.2886 166.459 32.1489C166.521 32.0092 166.544 31.8561 166.527 31.7046L166.554 25.7646C166.552 25.0212 166.102 24.1767 165.548 23.8567Z" fill="url(#paint50_linear)"/>
</g>
<g style="mix-blend-mode:overlay">
<path d="M161.347 34.7168L153.225 30.0566C152.671 29.7367 152.221 28.885 152.224 28.1536L152.248 22.2135C152.248 21.4918 152.705 21.1453 153.262 21.4653L161.386 26.1279C161.943 26.4479 162.391 27.2995 162.388 28.0309L162.361 33.971C162.356 34.7024 161.904 35.0368 161.347 34.7168Z" fill="url(#paint51_linear)"/>
</g>
</g>
<g opacity="0.4">
<path opacity="0.4" d="M176.272 29.9676L168.155 25.3074C168.061 25.2416 167.951 25.2019 167.837 25.1926C167.723 25.1832 167.608 25.2046 167.505 25.2545L163.378 27.5088L172.773 40.8589L176.897 38.6118C177.112 38.4915 177.249 38.2149 177.251 37.8155L177.278 31.8754C177.276 31.1392 176.829 30.2875 176.272 29.9676Z" fill="url(#paint52_linear)"/>
<path opacity="0.4" d="M172.074 40.8278L163.957 36.1677C163.4 35.8477 162.953 34.996 162.955 34.2646L162.982 28.3246C162.982 27.6028 163.439 27.2588 163.994 27.5764L172.113 32.2389C172.668 32.5589 173.117 33.4106 173.112 34.142L173.088 40.082C173.083 40.8134 172.631 41.1406 172.074 40.8278Z" fill="url(#paint53_linear)"/>
<g style="mix-blend-mode:overlay" opacity="0.4">
<path style="mix-blend-mode:overlay" opacity="0.4" d="M176.272 29.9243L168.155 25.2617C168.061 25.1964 167.951 25.157 167.837 25.1477C167.723 25.1383 167.608 25.1595 167.505 25.2088L163.378 27.4631L172.773 40.8132L176.897 38.5661C177.112 38.4458 177.249 38.1716 177.251 37.7722L177.278 31.8321C177.276 31.0935 176.829 30.2419 176.272 29.9243Z" fill="url(#paint54_linear)"/>
<path style="mix-blend-mode:overlay" opacity="0.4" d="M172.074 40.7843L163.957 36.1218C163.4 35.8018 162.953 34.9501 162.955 34.2187L162.982 28.2787C162.982 27.5569 163.439 27.2129 163.994 27.5328L172.113 32.193C172.668 32.513 173.117 33.3647 173.112 34.096L173.088 40.0361C173.083 40.7675 172.631 41.1019 172.074 40.7843Z" fill="url(#paint55_linear)"/>
</g>
</g>
<g style="mix-blend-mode:overlay">
<g style="mix-blend-mode:overlay" opacity="0.5">
<path d="M176.272 29.9773L168.155 25.3172C168.061 25.2513 167.951 25.2116 167.837 25.2023C167.723 25.193 167.608 25.2144 167.505 25.2642L163.378 27.5161L172.773 40.8687L176.897 38.6192C177.112 38.4965 177.249 38.2222 177.251 37.8228L177.278 31.8828C177.276 31.149 176.829 30.2973 176.272 29.9773Z" fill="url(#paint56_linear)"/>
</g>
<g style="mix-blend-mode:overlay" opacity="0.5">
<path d="M172.074 40.8374L163.957 36.1772C163.4 35.8573 162.953 35.0056 162.955 34.2742L162.982 28.3341C162.982 27.6124 163.439 27.2659 163.994 27.5859L172.113 32.2389C172.668 32.5564 173.117 33.4105 173.112 34.1419L173.088 40.082C173.083 40.823 172.631 41.1574 172.074 40.8374Z" fill="url(#paint57_linear)"/>
</g>
<g style="mix-blend-mode:overlay" opacity="0.5">
<g style="mix-blend-mode:overlay" opacity="0.5">
<path d="M176.272 29.9315L168.155 25.2618C168.061 25.1959 167.951 25.1562 167.837 25.1469C167.723 25.1376 167.608 25.159 167.505 25.2088L163.378 27.4631L172.773 40.8229L176.897 38.5758C177.112 38.4555 177.249 38.1788 177.251 37.7795L177.278 31.8394C177.276 31.1032 176.829 30.2515 176.272 29.9315Z" fill="url(#paint58_linear)"/>
</g>
<g style="mix-blend-mode:overlay" opacity="0.5">
<path d="M172.074 40.7915L163.957 36.1313C163.4 35.8113 162.953 34.9597 162.955 34.2283L162.982 28.2882C162.982 27.5664 163.439 27.2224 163.994 27.54L172.113 32.2025C172.668 32.5225 173.117 33.3742 173.112 34.1056L173.088 40.0456C173.083 40.777 172.631 41.1114 172.074 40.7915Z" fill="url(#paint59_linear)"/>
</g>
</g>
</g>
<path d="M165.665 14.3654L157.545 9.70288C157.452 9.63752 157.342 9.59813 157.228 9.58882C157.113 9.5795 156.999 9.60062 156.895 9.64995L152.769 11.9042L162.163 25.2616L166.288 23.0145C166.412 22.9242 166.51 22.8033 166.572 22.664C166.634 22.5246 166.657 22.3717 166.64 22.2206L166.664 16.2685C166.664 15.5347 166.219 14.6758 165.665 14.3654Z" fill="url(#paint60_linear)"/>
<path d="M161.465 25.2255L153.348 20.5629C152.793 20.2429 152.344 19.3913 152.348 18.6599L152.373 12.7198C152.373 11.9981 152.83 11.654 153.387 11.974L161.504 16.6342C162.061 16.9541 162.508 17.8058 162.506 18.5372L162.479 24.4773C162.476 25.2086 162.022 25.5431 161.465 25.2255Z" fill="url(#paint61_linear)"/>
<g style="mix-blend-mode:overlay">
<g style="mix-blend-mode:overlay">
<path d="M165.665 14.3198L157.546 9.65723C157.452 9.59187 157.342 9.55247 157.228 9.54316C157.114 9.53385 156.999 9.55496 156.896 9.6043L152.769 11.8586L162.166 25.2135L166.291 22.9665C166.415 22.8762 166.513 22.7553 166.575 22.6159C166.636 22.4765 166.66 22.3236 166.642 22.1725L166.664 16.2228C166.664 15.4914 166.22 14.6374 165.665 14.3198Z" fill="url(#paint62_linear)"/>
</g>
<g style="mix-blend-mode:overlay">
<path d="M161.465 25.1798L153.348 20.5173C152.793 20.1973 152.344 19.3456 152.348 18.6142L152.373 12.6742C152.373 11.9524 152.83 11.6084 153.387 11.9283L161.504 16.6005C162.061 16.9205 162.508 17.7722 162.506 18.5036L162.479 24.4436C162.476 25.1654 162.022 25.5022 161.465 25.1798Z" fill="url(#paint63_linear)"/>
</g>
</g>
<path d="M176.389 20.4307L168.272 15.7681C168.178 15.7031 168.068 15.6642 167.954 15.6553C167.84 15.6464 167.725 15.6679 167.622 15.7176L163.488 17.9647L172.888 31.322L177.012 29.0725C177.136 28.9812 177.233 28.8598 177.295 28.7202C177.357 28.5806 177.38 28.4276 177.364 28.2762L177.391 22.3361C177.393 21.6023 176.946 20.7506 176.389 20.4307Z" fill="url(#paint64_linear)"/>
<path d="M172.191 31.2907L164.074 26.6281C163.517 26.3105 163.07 25.4589 163.073 24.7251L163.099 18.785C163.099 18.0632 163.556 17.7192 164.113 18.0392L172.23 22.7017C172.785 23.0193 173.235 23.871 173.23 24.6048L173.205 30.5449C173.2 31.2762 172.748 31.6107 172.191 31.2907Z" fill="url(#paint65_linear)"/>
<g style="mix-blend-mode:overlay">
<g style="mix-blend-mode:overlay">
<path d="M176.389 20.3848L168.272 15.7222C168.178 15.6572 168.068 15.6183 167.954 15.6094C167.84 15.6005 167.725 15.622 167.622 15.6717L163.488 17.9188L172.89 31.2761L177.014 29.0266C177.138 28.9353 177.236 28.8139 177.297 28.6743C177.359 28.5347 177.383 28.3817 177.366 28.2303L177.393 22.2902C177.393 21.5564 176.946 20.7047 176.389 20.3848Z" fill="url(#paint66_linear)"/>
</g>
<g style="mix-blend-mode:overlay">
<path d="M172.191 31.2448L164.074 26.5846C163.517 26.2646 163.07 25.413 163.073 24.6816L163.099 18.7391C163.099 18.0173 163.556 17.6733 164.113 17.9933L172.23 22.6559C172.785 22.9734 173.235 23.8275 173.23 24.5589L173.205 30.499C173.2 31.2303 172.748 31.5648 172.191 31.2448Z" fill="url(#paint67_linear)"/>
</g>
</g>
<path d="M165.782 4.82376L157.663 0.16361C157.569 0.0977705 157.46 0.0580797 157.345 0.0487596C157.231 0.0394395 157.116 0.0608389 157.013 0.110681L152.884 2.36016L162.281 15.7151L166.405 13.4728C166.529 13.3818 166.627 13.2605 166.69 13.1209C166.752 12.9812 166.776 12.8281 166.76 12.6765L166.784 6.73642C166.786 5.99542 166.337 5.14374 165.782 4.82376Z" fill="url(#paint68_linear)"/>
<path d="M161.584 15.6846L153.47 11.0245C152.915 10.7045 152.466 9.85281 152.47 9.12143L152.492 3.18136C152.492 2.44757 152.947 2.11316 153.504 2.43313L161.621 7.0957C162.178 7.41568 162.625 8.26735 162.623 8.99873L162.596 14.9388C162.593 15.6702 162.139 16.0046 161.584 15.6846Z" fill="url(#paint69_linear)"/>
<g style="mix-blend-mode:overlay">
<g style="mix-blend-mode:overlay">
<path d="M165.782 4.77811L157.663 0.117956C157.569 0.0521162 157.459 0.0124254 157.345 0.00310531C157.231 -0.00621475 157.116 0.0151846 157.013 0.065027L152.883 2.31451L162.281 15.6694L166.405 13.4224C166.529 13.3315 166.628 13.2102 166.69 13.0705C166.752 12.9309 166.776 12.7776 166.759 12.626L166.784 6.68596C166.786 5.94976 166.337 5.09809 165.782 4.77811Z" fill="url(#paint70_linear)"/>
</g>
<path style="mix-blend-mode:overlay" d="M161.584 15.638L153.47 10.9779C152.915 10.6579 152.466 9.80622 152.47 9.07484L152.492 3.12755C152.492 2.4058 152.947 2.06176 153.504 2.37933L161.621 7.04911C162.178 7.36909 162.625 8.22076 162.623 8.95214L162.596 14.8922C162.593 15.6236 162.139 15.958 161.584 15.638Z" fill="#56CCF2"/>
</g>
<path d="M186.671 55.0171L178.554 50.357C178.46 50.2911 178.351 50.2514 178.236 50.2421C178.122 50.2328 178.007 50.2542 177.904 50.304L173.777 52.5583L183.172 65.9205L187.296 63.6734C187.511 63.5507 187.648 63.2765 187.65 62.8771L187.677 56.937C187.677 56.1888 187.228 55.3347 186.671 55.0171Z" fill="url(#paint71_linear)"/>
<path d="M182.473 65.8775L174.356 61.2173C173.799 60.8973 173.352 60.0456 173.354 59.3143L173.381 53.3742C173.381 52.6524 173.838 52.306 174.395 52.626L182.512 57.2885C183.067 57.6085 183.524 58.4626 183.524 59.1843L183.499 65.1244C183.482 65.863 183.035 66.1974 182.473 65.8775Z" fill="url(#paint72_linear)"/>
<g style="mix-blend-mode:overlay">
<g style="mix-blend-mode:overlay">
<path d="M186.671 54.9715L178.554 50.3113C178.46 50.2455 178.351 50.2058 178.236 50.1965C178.122 50.1871 178.007 50.2085 177.904 50.2584L173.777 52.5127L183.177 65.8676L187.301 63.6205C187.516 63.5003 187.653 63.2236 187.655 62.8242L187.677 56.8745C187.677 56.1431 187.228 55.2915 186.671 54.9715Z" fill="url(#paint73_linear)"/>
</g>
<g style="mix-blend-mode:overlay">
<path d="M182.473 65.8317L174.356 61.1716C173.799 60.8516 173.352 59.9999 173.354 59.2686L173.381 53.3285C173.381 52.6067 173.838 52.2627 174.395 52.5803L182.512 57.2428C183.067 57.5628 183.516 58.4145 183.511 59.1459L183.487 65.0859C183.482 65.8173 183.035 66.1613 182.473 65.8317Z" fill="url(#paint74_linear)"/>
</g>
</g>
<path d="M186.881 45.6899L178.764 41.0297C178.67 40.9639 178.56 40.9243 178.445 40.915C178.33 40.9057 178.215 40.927 178.112 40.9768L173.994 43.2263L183.392 56.5812L187.516 54.3342C187.64 54.2433 187.739 54.122 187.801 53.9823C187.863 53.8427 187.887 53.6894 187.87 53.5378L187.897 47.5977C187.885 46.8616 187.433 46.0099 186.881 45.6899Z" fill="url(#paint75_linear)"/>
<path d="M182.683 56.5498L174.564 51.8896C174.009 51.5696 173.562 50.7179 173.564 49.9866L173.591 44.0465C173.591 43.3247 174.048 42.9807 174.603 43.2983L182.72 47.9608C183.277 48.2808 183.724 49.1325 183.722 49.8639L183.695 55.816C183.692 56.5377 183.238 56.8697 182.683 56.5498Z" fill="url(#paint76_linear)"/>
<g style="mix-blend-mode:overlay">
<g style="mix-blend-mode:overlay">
<path d="M186.881 45.6464L178.764 40.9839C178.67 40.918 178.56 40.8784 178.445 40.8691C178.331 40.8598 178.215 40.8811 178.112 40.9309L173.995 43.1804L183.38 56.5377L187.504 54.2907C187.628 54.2002 187.726 54.0793 187.788 53.9401C187.851 53.8008 187.875 53.648 187.858 53.4967L187.885 47.5543C187.885 46.8157 187.433 45.964 186.881 45.6464Z" fill="url(#paint77_linear)"/>
</g>
<g style="mix-blend-mode:overlay">
<path d="M182.683 56.5065L174.564 51.844C174.009 51.524 173.562 50.6723 173.564 49.9409L173.591 44.0008C173.591 43.2791 174.048 42.935 174.603 43.2526L182.72 47.9152C183.277 48.2352 183.724 49.0868 183.722 49.8182L183.695 55.7583C183.692 56.4897 183.238 56.8241 182.683 56.5065Z" fill="url(#paint78_linear)"/>
</g>
</g>
<g opacity="0.4">
<path opacity="0.4" d="M186.998 36.1506L178.881 31.488C178.787 31.4231 178.677 31.3841 178.562 31.3752C178.447 31.3664 178.332 31.3879 178.229 31.4375L174.1 33.6822L183.497 47.0395L187.621 44.79C187.746 44.699 187.844 44.5777 187.906 44.4381C187.968 44.2984 187.992 44.1453 187.976 43.9937L188.003 38.0536C188.003 37.3222 187.555 36.4706 186.998 36.1506Z" fill="url(#paint79_linear)"/>
<path opacity="0.4" d="M182.791 47.0106L174.681 42.3432C174.126 42.0256 173.679 41.174 173.682 40.4402L173.709 34.5001C173.709 33.7783 174.165 33.4343 174.72 33.7543L182.84 38.4216C183.394 38.7392 183.841 39.5909 183.839 40.3247L183.812 46.2648C183.81 46.9961 183.355 47.3306 182.791 47.0106Z" fill="url(#paint80_linear)"/>
<g style="mix-blend-mode:overlay" opacity="0.4">
<g style="mix-blend-mode:overlay" opacity="0.4">
<path d="M186.998 36.1047L178.881 31.4421C178.787 31.3772 178.677 31.3382 178.562 31.3293C178.447 31.3205 178.332 31.342 178.229 31.3916L174.102 33.6435L183.499 47.0008L187.621 44.7489C187.746 44.6579 187.844 44.5366 187.906 44.397C187.968 44.2573 187.992 44.1042 187.976 43.9526L188.003 38.0125C188.003 37.2763 187.555 36.4247 186.998 36.1047Z" fill="url(#paint81_linear)"/>
</g>
<g style="mix-blend-mode:overlay" opacity="0.4">
<path d="M182.791 46.9648L174.671 42.3046C174.117 41.9846 173.669 41.1329 173.672 40.4016L173.699 34.4591C173.699 33.7373 174.156 33.3933 174.71 33.7133L182.83 38.3758C183.384 38.6934 183.832 39.5475 183.829 40.2789L183.802 46.2189C183.81 46.9503 183.355 47.2847 182.791 46.9648Z" fill="url(#paint82_linear)"/>
</g>
</g>
</g>
<g style="mix-blend-mode:overlay" opacity="0.5">
<g style="mix-blend-mode:overlay" opacity="0.5">
<path d="M186.998 36.1605L178.881 31.498C178.787 31.4327 178.677 31.3933 178.562 31.384C178.448 31.3747 178.333 31.3958 178.229 31.4451L174.102 33.6993L183.499 47.0543L187.624 44.8072C187.748 44.7169 187.846 44.596 187.908 44.4568C187.971 44.3175 187.995 44.1646 187.978 44.0133L188.005 38.0732C188.003 37.3322 187.555 36.4781 186.998 36.1605Z" fill="url(#paint83_linear)"/>
</g>
<g style="mix-blend-mode:overlay" opacity="0.5">
<path d="M182.791 47.0207L174.671 42.3581C174.117 42.0381 173.669 41.1864 173.672 40.4551L173.699 34.515C173.699 33.7932 174.156 33.4492 174.71 33.7692L182.83 38.4293C183.384 38.7493 183.832 39.601 183.829 40.3324L183.802 46.2724C183.81 47.0038 183.355 47.3382 182.791 47.0207Z" fill="url(#paint84_linear)"/>
</g>
<g style="mix-blend-mode:overlay" opacity="0.5">
<g style="mix-blend-mode:overlay" opacity="0.5">
<path d="M186.998 36.1146L178.881 31.4521C178.787 31.3868 178.677 31.3474 178.562 31.3381C178.448 31.3288 178.333 31.3499 178.229 31.3992L174.102 33.6535L183.499 47.0108L187.621 44.7493C187.746 44.659 187.844 44.5381 187.906 44.3988C187.968 44.2595 187.992 44.1066 187.976 43.9554L188.003 38.0153C188.003 37.2911 187.555 36.4346 186.998 36.1146Z" fill="url(#paint85_linear)"/>
</g>
<g style="mix-blend-mode:overlay" opacity="0.5">
<path d="M182.791 46.9748L174.671 42.3122C174.117 41.9946 173.669 41.1405 173.672 40.4092L173.699 34.4691C173.699 33.7473 174.156 33.4033 174.71 33.7233L182.83 38.3834C183.384 38.7034 183.832 39.5551 183.829 40.2865L183.802 46.2265C183.81 46.9603 183.355 47.2947 182.791 46.9748Z" fill="url(#paint86_linear)"/>
</g>
</g>
</g>
</g>
<path d="M174.077 99.1818L176.188 102.716V105H177.063V102.716L179.174 99.1818H178.176L176.657 101.827H176.594L175.074 99.1818H174.077ZM181.061 105.088C182.292 105.088 183.096 104.188 183.096 102.838C183.096 101.48 182.292 100.58 181.061 100.58C179.831 100.58 179.027 101.48 179.027 102.838C179.027 104.188 179.831 105.088 181.061 105.088ZM181.064 104.375C180.26 104.375 179.885 103.673 179.885 102.835C179.885 102 180.26 101.29 181.064 101.29C181.863 101.29 182.238 102 182.238 102.835C182.238 103.673 181.863 104.375 181.064 104.375ZM186.808 103.19C186.811 103.932 186.26 104.284 185.782 104.284C185.257 104.284 184.893 103.903 184.893 103.31V100.636H184.044V103.412C184.044 104.494 184.637 105.057 185.475 105.057C186.132 105.057 186.578 104.71 186.779 104.244H186.825V105H187.66V100.636H186.808V103.19ZM188.801 105H189.651V102.335C189.651 101.764 190.091 101.352 190.694 101.352C190.87 101.352 191.069 101.384 191.137 101.403V100.591C191.051 100.58 190.884 100.571 190.776 100.571C190.265 100.571 189.827 100.861 189.668 101.33H189.623V100.636H188.801V105ZM198.89 101.074C198.691 99.8295 197.716 99.1023 196.486 99.1023C194.98 99.1023 193.87 100.23 193.87 102.091C193.87 103.952 194.975 105.08 196.486 105.08C197.765 105.08 198.699 104.278 198.89 103.128L198.003 103.125C197.853 103.869 197.228 104.278 196.492 104.278C195.495 104.278 194.742 103.514 194.742 102.091C194.742 100.679 195.492 99.9034 196.495 99.9034C197.236 99.9034 197.858 100.321 198.003 101.074H198.89ZM202.636 103.19C202.639 103.932 202.088 104.284 201.61 104.284C201.085 104.284 200.721 103.903 200.721 103.31V100.636H199.872V103.412C199.872 104.494 200.466 105.057 201.304 105.057C201.96 105.057 202.406 104.71 202.608 104.244H202.653V105H203.488V100.636H202.636V103.19ZM207.9 101.702C207.723 101.023 207.192 100.58 206.249 100.58C205.263 100.58 204.564 101.099 204.564 101.872C204.564 102.491 204.939 102.903 205.757 103.085L206.496 103.247C206.917 103.341 207.113 103.528 207.113 103.801C207.113 104.139 206.752 104.403 206.195 104.403C205.686 104.403 205.36 104.185 205.257 103.756L204.436 103.881C204.578 104.653 205.221 105.088 206.201 105.088C207.255 105.088 207.985 104.528 207.985 103.739C207.985 103.122 207.593 102.741 206.792 102.557L206.098 102.398C205.618 102.284 205.411 102.122 205.414 101.827C205.411 101.491 205.775 101.253 206.257 101.253C206.786 101.253 207.03 101.545 207.13 101.838L207.9 101.702ZM210.956 100.636H210.061V99.5909H209.211V100.636H208.572V101.318H209.211V103.895C209.208 104.688 209.814 105.071 210.484 105.057C210.754 105.054 210.936 105.003 211.035 104.966L210.882 104.264C210.825 104.276 210.72 104.301 210.583 104.301C210.308 104.301 210.061 104.21 210.061 103.719V101.318H210.956V100.636ZM213.686 105.088C214.917 105.088 215.721 104.188 215.721 102.838C215.721 101.48 214.917 100.58 213.686 100.58C212.456 100.58 211.652 101.48 211.652 102.838C211.652 104.188 212.456 105.088 213.686 105.088ZM213.689 104.375C212.885 104.375 212.51 103.673 212.51 102.835C212.51 102 212.885 101.29 213.689 101.29C214.488 101.29 214.863 102 214.863 102.835C214.863 103.673 214.488 104.375 213.689 104.375ZM216.669 105H217.518V102.31C217.518 101.722 217.93 101.312 218.413 101.312C218.885 101.312 219.211 101.625 219.211 102.099V105H220.058V102.219C220.058 101.693 220.379 101.312 220.933 101.312C221.382 101.312 221.751 101.562 221.751 102.153V105H222.6V102.074C222.6 101.077 222.044 100.58 221.254 100.58C220.626 100.58 220.154 100.881 219.944 101.347H219.899C219.708 100.869 219.308 100.58 218.725 100.58C218.149 100.58 217.72 100.866 217.538 101.347H217.484V100.636H216.669V105ZM225.62 105.088C226.571 105.088 227.245 104.619 227.438 103.909L226.634 103.764C226.48 104.176 226.111 104.386 225.628 104.386C224.901 104.386 224.412 103.915 224.39 103.074H227.492V102.773C227.492 101.196 226.549 100.58 225.56 100.58C224.344 100.58 223.543 101.506 223.543 102.847C223.543 104.202 224.333 105.088 225.62 105.088ZM224.392 102.438C224.426 101.818 224.875 101.281 225.566 101.281C226.225 101.281 226.657 101.77 226.659 102.438H224.392ZM228.434 105H229.284V102.335C229.284 101.764 229.724 101.352 230.326 101.352C230.502 101.352 230.701 101.384 230.77 101.403V100.591C230.684 100.58 230.517 100.571 230.409 100.571C229.897 100.571 229.46 100.861 229.301 101.33H229.255V100.636H228.434V105ZM233.69 105H234.568V102.955H235.761C237.11 102.955 237.778 102.139 237.778 101.065C237.778 99.9943 237.116 99.1818 235.764 99.1818H233.69V105ZM234.568 102.21V99.9347H235.67C236.539 99.9347 236.895 100.406 236.895 101.065C236.895 101.724 236.539 102.21 235.681 102.21H234.568ZM238.739 105H239.588V102.335C239.588 101.764 240.029 101.352 240.631 101.352C240.807 101.352 241.006 101.384 241.074 101.403V100.591C240.989 100.58 240.821 100.571 240.713 100.571C240.202 100.571 239.765 100.861 239.605 101.33H239.56V100.636H238.739V105ZM243.534 105.088C244.485 105.088 245.159 104.619 245.352 103.909L244.548 103.764C244.395 104.176 244.025 104.386 243.542 104.386C242.815 104.386 242.326 103.915 242.304 103.074H245.406V102.773C245.406 101.196 244.463 100.58 243.474 100.58C242.258 100.58 241.457 101.506 241.457 102.847C241.457 104.202 242.247 105.088 243.534 105.088ZM242.306 102.438C242.341 101.818 242.789 101.281 243.48 101.281C244.139 101.281 244.571 101.77 244.574 102.438H242.306ZM246.348 105H247.198V102.31C247.198 101.722 247.61 101.312 248.093 101.312C248.564 101.312 248.891 101.625 248.891 102.099V105H249.738V102.219C249.738 101.693 250.059 101.312 250.613 101.312C251.061 101.312 251.431 101.562 251.431 102.153V105H252.28V102.074C252.28 101.077 251.723 100.58 250.934 100.58C250.306 100.58 249.834 100.881 249.624 101.347H249.578C249.388 100.869 248.988 100.58 248.405 100.58C247.828 100.58 247.4 100.866 247.218 101.347H247.164V100.636H246.348V105ZM253.419 105H254.268V100.636H253.419V105ZM253.848 99.9631C254.14 99.9631 254.385 99.7358 254.385 99.4574C254.385 99.179 254.14 98.9489 253.848 98.9489C253.552 98.9489 253.311 99.179 253.311 99.4574C253.311 99.7358 253.552 99.9631 253.848 99.9631ZM258.681 101.702C258.505 101.023 257.973 100.58 257.03 100.58C256.044 100.58 255.346 101.099 255.346 101.872C255.346 102.491 255.721 102.903 256.539 103.085L257.277 103.247C257.698 103.341 257.894 103.528 257.894 103.801C257.894 104.139 257.533 104.403 256.976 104.403C256.468 104.403 256.141 104.185 256.039 103.756L255.218 103.881C255.36 104.653 256.002 105.088 256.982 105.088C258.036 105.088 258.766 104.528 258.766 103.739C258.766 103.122 258.374 102.741 257.573 102.557L256.88 102.398C256.4 102.284 256.192 102.122 256.195 101.827C256.192 101.491 256.556 101.253 257.039 101.253C257.567 101.253 257.811 101.545 257.911 101.838L258.681 101.702ZM261.581 105.088C262.532 105.088 263.206 104.619 263.399 103.909L262.595 103.764C262.441 104.176 262.072 104.386 261.589 104.386C260.862 104.386 260.373 103.915 260.35 103.074H263.453V102.773C263.453 101.196 262.51 100.58 261.521 100.58C260.305 100.58 259.504 101.506 259.504 102.847C259.504 104.202 260.294 105.088 261.581 105.088ZM260.353 102.438C260.387 101.818 260.836 101.281 261.527 101.281C262.186 101.281 262.618 101.77 262.62 102.438H260.353ZM267.665 101.702C267.489 101.023 266.958 100.58 266.015 100.58C265.029 100.58 264.33 101.099 264.33 101.872C264.33 102.491 264.705 102.903 265.523 103.085L266.262 103.247C266.682 103.341 266.878 103.528 266.878 103.801C266.878 104.139 266.517 104.403 265.961 104.403C265.452 104.403 265.125 104.185 265.023 103.756L264.202 103.881C264.344 104.653 264.986 105.088 265.966 105.088C267.02 105.088 267.75 104.528 267.75 103.739C267.75 103.122 267.358 102.741 266.557 102.557L265.864 102.398C265.384 102.284 265.176 102.122 265.179 101.827C265.176 101.491 265.54 101.253 266.023 101.253C266.551 101.253 266.796 101.545 266.895 101.838L267.665 101.702Z" fill="#4F5162"/>
<line x1="121" y1="91.75" x2="317" y2="91.75" stroke="#B0B1C4" stroke-width="0.5"/>
<circle cx="44.5" cy="33.5" r="3.5" fill="#4DC952"/>
<path d="M46.2 33.3268C46.3333 33.4038 46.3333 33.5962 46.2 33.6732L43.8 35.0588C43.6667 35.1358 43.5 35.0396 43.5 34.8856L43.5 32.1144C43.5 31.9604 43.6667 31.8642 43.8 31.9412L46.2 33.3268Z" fill="#FFF9F9"/>
<rect width="11" height="11" transform="translate(282 26)" fill="white"/>
<path fill-rule="evenodd" clip-rule="evenodd" d="M291.384 31.736C291.274 32.0305 291.09 32.2882 291.053 32.2882L290.243 33.098L288.622 31.5152L290.206 29.9324L291.016 30.7422C291.274 30.9631 291.495 31.2575 291.384 31.736ZM287.297 35.3801C287.003 35.2697 286.745 35.0856 286.745 35.0488L285.935 34.239L287.518 32.6562L289.102 34.239L288.292 35.0488C288.071 35.2697 287.739 35.4905 287.297 35.3801ZM283.651 31.2943C283.762 30.9999 283.946 30.7422 283.983 30.7422L284.793 29.9324L286.376 31.5152L284.793 33.098L283.946 32.2882C283.725 32.0673 283.504 31.736 283.651 31.2943ZM287.739 27.6504C288.034 27.7608 288.292 27.9448 288.292 27.9817L289.102 28.7914L287.518 30.3742L285.935 28.7914L286.745 27.9817C286.966 27.7608 287.26 27.5031 287.739 27.6504ZM292.195 29.6015L289.433 26.8408C289.396 26.804 288.954 26.3623 288.291 26.1414C287.334 25.8102 286.413 26.0678 285.64 26.8408L282.841 29.6015C282.804 29.6383 282.362 30.08 282.142 30.7425C281.81 31.6996 282.068 32.6198 282.841 33.3927L285.603 36.1534C285.64 36.1902 286.082 36.6319 286.745 36.8528C287.002 36.9264 287.297 37 287.555 37C288.218 37 288.844 36.7055 289.396 36.1902L292.158 33.4296C292.195 33.3928 292.637 32.951 292.858 32.2885C293.189 31.3315 292.931 30.3744 292.195 29.6015Z" fill="#0278D5"/>
<path fill-rule="evenodd" clip-rule="evenodd" d="M264.341 46.7814C263.988 46.9451 263.761 47.2993 263.761 47.6889V51.5653C263.761 51.9549 263.988 52.309 264.341 52.4727L267.317 53.8506C267.584 53.974 267.891 53.974 268.158 53.8506L271.134 52.4727C271.487 52.309 271.714 51.9549 271.714 51.5653V47.6889C271.714 47.2993 271.487 46.9451 271.134 46.7814L268.158 45.4036C267.891 45.2802 267.584 45.2802 267.317 45.4036L264.341 46.7814ZM264.484 47.7892L267.376 49.1267V53.0702L264.484 51.7297V47.7892ZM270.991 51.7297V47.7892L268.099 49.1267V53.0702L270.991 51.7297ZM267.737 46.0172L270.403 47.2513L267.737 48.4854L265.072 47.2513L267.737 46.0172Z" fill="#0278D5"/>
<path fill-rule="evenodd" clip-rule="evenodd" d="M277.595 46.7817C277.242 46.9454 277.015 47.2995 277.015 47.6892V51.5655C277.015 51.9551 277.242 52.3093 277.595 52.473L280.571 53.8509C280.838 53.9742 281.145 53.9742 281.412 53.8508L284.388 52.473C284.742 52.3093 284.968 51.9551 284.968 51.5655V47.6892C284.968 47.2995 284.742 46.9454 284.388 46.7817L281.412 45.4038C281.145 45.2804 280.838 45.2804 280.571 45.4038L277.595 46.7817ZM277.738 47.7894L280.63 49.127V53.0704L277.738 51.7299V47.7894ZM284.245 51.7299V47.7894L281.353 49.127V53.0704L284.245 51.7299ZM280.992 46.0174L283.657 47.2515L280.992 48.4856L278.326 47.2515L280.992 46.0174Z" fill="#0278D5"/>
<path fill-rule="evenodd" clip-rule="evenodd" d="M290.849 46.7817C290.496 46.9454 290.27 47.2995 290.27 47.6892V51.5655C290.27 51.9551 290.496 52.3093 290.849 52.473L293.826 53.8509C294.092 53.9742 294.399 53.9742 294.666 53.8508L297.642 52.473C297.996 52.3093 298.222 51.9551 298.222 51.5655V47.6892C298.222 47.2995 297.996 46.9454 297.642 46.7817L294.666 45.4038C294.399 45.2804 294.092 45.2804 293.826 45.4038L290.849 46.7817ZM290.992 47.7894L293.884 49.127V53.0704L290.992 51.7299V47.7894ZM297.499 51.7299V47.7894L294.607 49.127V53.0704L297.499 51.7299ZM294.246 46.0174L296.912 47.2515L294.246 48.4856L291.58 47.2515L294.246 46.0174Z" fill="#0278D5"/>
<path fill-rule="evenodd" clip-rule="evenodd" d="M304.104 46.7814C303.75 46.9451 303.524 47.2993 303.524 47.6889V51.5653C303.524 51.9549 303.75 52.309 304.104 52.4727L307.08 53.8506C307.346 53.974 307.654 53.974 307.92 53.8506L310.896 52.4727C311.25 52.309 311.476 51.9549 311.476 51.5653V47.6889C311.476 47.2993 311.25 46.9451 310.896 46.7814L307.92 45.4036C307.654 45.2802 307.346 45.2802 307.08 45.4036L304.104 46.7814ZM304.247 47.7892L307.138 49.1267V53.0702L304.247 51.7297V47.7892ZM310.753 51.7297V47.7892L307.861 49.1267V53.0702L310.753 51.7297ZM307.5 46.0172L310.166 47.2513L307.5 48.4854L304.834 47.2513L307.5 46.0172Z" fill="#0278D5"/>
<path d="M267.5 43.5V32.5H307.5V43.5" stroke="#0278D5" stroke-width="0.5" stroke-dasharray="1 1"/>
<path d="M282 31V42.5" stroke="#0278D5" stroke-width="0.5" stroke-dasharray="1 1"/>
<path d="M295 31V42.5" stroke="#0278D5" stroke-width="0.5" stroke-dasharray="1 1"/>
<defs>
<linearGradient id="paint0_linear" x1="104.928" y1="18.6631" x2="115.504" y2="33.1782" gradientUnits="userSpaceOnUse">
<stop stop-color="#73DFE7"/>
<stop offset="1" stop-color="#0063F7"/>
</linearGradient>
<linearGradient id="paint1_linear" x1="105.719" y1="20.2323" x2="115.17" y2="31.2456" gradientUnits="userSpaceOnUse">
<stop stop-color="#73DFE7"/>
<stop offset="1" stop-color="#0063F7"/>
</linearGradient>
<linearGradient id="paint2_linear" x1="104.927" y1="18.6238" x2="115.494" y2="33.1379" gradientUnits="userSpaceOnUse">
<stop stop-color="#73DFE7"/>
<stop offset="1" stop-color="#0063F7"/>
</linearGradient>
<linearGradient id="paint3_linear" x1="105.719" y1="20.1877" x2="115.169" y2="31.2007" gradientUnits="userSpaceOnUse">
<stop stop-color="#73DFE7"/>
<stop offset="1" stop-color="#0063F7"/>
</linearGradient>
<linearGradient id="paint4_linear" x1="115.65" y1="24.7012" x2="126.215" y2="39.2224" gradientUnits="userSpaceOnUse">
<stop stop-color="#73DFE7"/>
<stop offset="1" stop-color="#0063F7"/>
</linearGradient>
<linearGradient id="paint5_linear" x1="116.449" y1="26.2662" x2="125.904" y2="37.2753" gradientUnits="userSpaceOnUse">
<stop stop-color="#73DFE7"/>
<stop offset="1" stop-color="#0063F7"/>
</linearGradient>
<linearGradient id="paint6_linear" x1="115.65" y1="24.6553" x2="126.215" y2="39.1765" gradientUnits="userSpaceOnUse">
<stop stop-color="#73DFE7"/>
<stop offset="1" stop-color="#0063F7"/>
</linearGradient>
<linearGradient id="paint7_linear" x1="116.449" y1="26.2194" x2="125.9" y2="37.228" gradientUnits="userSpaceOnUse">
<stop stop-color="#73DFE7"/>
<stop offset="1" stop-color="#0063F7"/>
</linearGradient>
<linearGradient id="paint8_linear" x1="126.385" y1="30.7212" x2="136.951" y2="45.2351" gradientUnits="userSpaceOnUse">
<stop stop-color="#73DFE7"/>
<stop offset="1" stop-color="#0063F7"/>
</linearGradient>
<linearGradient id="paint9_linear" x1="127.169" y1="32.2862" x2="136.621" y2="43.3018" gradientUnits="userSpaceOnUse">
<stop stop-color="#73DFE7"/>
<stop offset="1" stop-color="#0063F7"/>
</linearGradient>
<linearGradient id="paint10_linear" x1="126.385" y1="30.6852" x2="136.942" y2="45.1959" gradientUnits="userSpaceOnUse">
<stop stop-color="#73DFE7"/>
<stop offset="1" stop-color="#0063F7"/>
</linearGradient>
<linearGradient id="paint11_linear" x1="127.169" y1="32.2402" x2="136.62" y2="43.2556" gradientUnits="userSpaceOnUse">
<stop stop-color="#73DFE7"/>
<stop offset="1" stop-color="#0063F7"/>
</linearGradient>
<linearGradient id="paint12_linear" x1="137.116" y1="36.7881" x2="147.685" y2="51.2969" gradientUnits="userSpaceOnUse">
<stop stop-color="#73DFE7"/>
<stop offset="1" stop-color="#0063F7"/>
</linearGradient>
<linearGradient id="paint13_linear" x1="137.896" y1="38.3502" x2="147.348" y2="49.3636" gradientUnits="userSpaceOnUse">
<stop stop-color="#73DFE7"/>
<stop offset="1" stop-color="#0063F7"/>
</linearGradient>
<linearGradient id="paint14_linear" x1="137.104" y1="36.7424" x2="147.67" y2="51.2583" gradientUnits="userSpaceOnUse">
<stop stop-color="#73DFE7"/>
<stop offset="1" stop-color="#0063F7"/>
</linearGradient>
<linearGradient id="paint15_linear" x1="137.893" y1="38.306" x2="147.342" y2="49.3213" gradientUnits="userSpaceOnUse">
<stop stop-color="#73DFE7"/>
<stop offset="1" stop-color="#0063F7"/>
</linearGradient>
<linearGradient id="paint16_linear" x1="147.834" y1="43.0499" x2="158.393" y2="57.5595" gradientUnits="userSpaceOnUse">
<stop stop-color="#73DFE7"/>
<stop offset="1" stop-color="#0063F7"/>
</linearGradient>
<linearGradient id="paint17_linear" x1="148.623" y1="44.6169" x2="158.073" y2="55.6299" gradientUnits="userSpaceOnUse">
<stop stop-color="#73DFE7"/>
<stop offset="1" stop-color="#0063F7"/>
</linearGradient>
<linearGradient id="paint18_linear" x1="147.833" y1="43.0089" x2="158.404" y2="57.5243" gradientUnits="userSpaceOnUse">
<stop stop-color="#73DFE7"/>
<stop offset="1" stop-color="#0063F7"/>
</linearGradient>
<linearGradient id="paint19_linear" x1="148.623" y1="44.5712" x2="158.073" y2="55.5842" gradientUnits="userSpaceOnUse">
<stop stop-color="#73DFE7"/>
<stop offset="1" stop-color="#0063F7"/>
</linearGradient>
<linearGradient id="paint20_linear" x1="158.565" y1="49.1224" x2="169.136" y2="63.6359" gradientUnits="userSpaceOnUse">
<stop stop-color="#73DFE7"/>
<stop offset="1" stop-color="#0063F7"/>
</linearGradient>
<linearGradient id="paint21_linear" x1="159.346" y1="50.6833" x2="168.795" y2="61.7053" gradientUnits="userSpaceOnUse">
<stop stop-color="#73DFE7"/>
<stop offset="1" stop-color="#0063F7"/>
</linearGradient>
<linearGradient id="paint22_linear" x1="158.565" y1="49.0746" x2="169.136" y2="63.5881" gradientUnits="userSpaceOnUse">
<stop stop-color="#73DFE7"/>
<stop offset="1" stop-color="#0063F7"/>
</linearGradient>
<linearGradient id="paint23_linear" x1="159.346" y1="50.6376" x2="168.796" y2="61.6598" gradientUnits="userSpaceOnUse">
<stop stop-color="#73DFE7"/>
<stop offset="1" stop-color="#0063F7"/>
</linearGradient>
<linearGradient id="paint24_linear" x1="126.588" y1="21.3928" x2="137.152" y2="35.906" gradientUnits="userSpaceOnUse">
<stop stop-color="#73DFE7"/>
<stop offset="1" stop-color="#0063F7"/>
</linearGradient>
<linearGradient id="paint25_linear" x1="127.38" y1="22.9584" x2="136.831" y2="33.9716" gradientUnits="userSpaceOnUse">
<stop stop-color="#73DFE7"/>
<stop offset="1" stop-color="#0063F7"/>
</linearGradient>
<linearGradient id="paint26_linear" x1="126.588" y1="21.3497" x2="137.155" y2="35.8638" gradientUnits="userSpaceOnUse">
<stop stop-color="#73DFE7"/>
<stop offset="1" stop-color="#0063F7"/>
</linearGradient>
<linearGradient id="paint27_linear" x1="127.38" y1="22.9118" x2="136.829" y2="33.9246" gradientUnits="userSpaceOnUse">
<stop stop-color="#73DFE7"/>
<stop offset="1" stop-color="#0063F7"/>
</linearGradient>
<linearGradient id="paint28_linear" x1="137.318" y1="27.4622" x2="147.889" y2="41.9759" gradientUnits="userSpaceOnUse">
<stop stop-color="#73DFE7"/>
<stop offset="1" stop-color="#0063F7"/>
</linearGradient>
<linearGradient id="paint29_linear" x1="138.108" y1="29.0239" x2="147.558" y2="40.0323" gradientUnits="userSpaceOnUse">
<stop stop-color="#73DFE7"/>
<stop offset="1" stop-color="#0063F7"/>
</linearGradient>
<linearGradient id="paint30_linear" x1="137.318" y1="27.4117" x2="147.878" y2="41.9195" gradientUnits="userSpaceOnUse">
<stop stop-color="#73DFE7"/>
<stop offset="1" stop-color="#0063F7"/>
</linearGradient>
<linearGradient id="paint31_linear" x1="138.108" y1="28.979" x2="147.559" y2="39.9877" gradientUnits="userSpaceOnUse">
<stop stop-color="#73DFE7"/>
<stop offset="1" stop-color="#0063F7"/>
</linearGradient>
<linearGradient id="paint32_linear" x1="3167.98" y1="2486.08" x2="3091.39" y2="2353.92" gradientUnits="userSpaceOnUse">
<stop stop-color="#3161FF"/>
<stop offset="1" stop-color="#00C9E2"/>
</linearGradient>
<linearGradient id="paint33_linear" x1="2356.36" y1="2513.74" x2="1415.45" y2="1528.68" gradientUnits="userSpaceOnUse">
<stop stop-color="#3124FF"/>
<stop offset="1" stop-color="#00FFE2"/>
</linearGradient>
<linearGradient id="paint34_linear" x1="3167.98" y1="2483.05" x2="3091.39" y2="2350.9" gradientUnits="userSpaceOnUse">
<stop stop-color="#3161FF"/>
<stop offset="1" stop-color="#00C9E2"/>
</linearGradient>
<linearGradient id="paint35_linear" x1="2356.36" y1="2510.34" x2="1415.79" y2="1525.43" gradientUnits="userSpaceOnUse">
<stop stop-color="#3124FF"/>
<stop offset="1" stop-color="#00FFE2"/>
</linearGradient>
<linearGradient id="paint36_linear" x1="148.068" y1="33.7267" x2="158.647" y2="48.2194" gradientUnits="userSpaceOnUse">
<stop stop-color="#73DFE7"/>
<stop offset="1" stop-color="#0063F7"/>
</linearGradient>
<linearGradient id="paint37_linear" x1="148.83" y1="35.2978" x2="158.281" y2="46.3132" gradientUnits="userSpaceOnUse">
<stop stop-color="#73DFE7"/>
<stop offset="1" stop-color="#0063F7"/>
</linearGradient>
<linearGradient id="paint38_linear" x1="148.059" y1="33.6908" x2="158.631" y2="48.2045" gradientUnits="userSpaceOnUse">
<stop stop-color="#73DFE7"/>
<stop offset="1" stop-color="#0063F7"/>
</linearGradient>
<linearGradient id="paint39_linear" x1="148.83" y1="35.254" x2="158.28" y2="46.2693" gradientUnits="userSpaceOnUse">
<stop stop-color="#73DFE7"/>
<stop offset="1" stop-color="#0063F7"/>
</linearGradient>
<linearGradient id="paint40_linear" x1="158.764" y1="39.7936" x2="169.336" y2="54.3114" gradientUnits="userSpaceOnUse">
<stop stop-color="#73DFE7"/>
<stop offset="1" stop-color="#0063F7"/>
</linearGradient>
<linearGradient id="paint41_linear" x1="159.557" y1="41.3595" x2="169.004" y2="52.3721" gradientUnits="userSpaceOnUse">
<stop stop-color="#73DFE7"/>
<stop offset="1" stop-color="#0063F7"/>
</linearGradient>
<linearGradient id="paint42_linear" x1="158.767" y1="39.7396" x2="169.338" y2="54.2549" gradientUnits="userSpaceOnUse">
<stop stop-color="#73DFE7"/>
<stop offset="1" stop-color="#0063F7"/>
</linearGradient>
<linearGradient id="paint43_linear" x1="159.557" y1="41.31" x2="169.008" y2="52.3232" gradientUnits="userSpaceOnUse">
<stop stop-color="#73DFE7"/>
<stop offset="1" stop-color="#0063F7"/>
</linearGradient>
<linearGradient id="paint44_linear" x1="137.435" y1="17.9228" x2="148.007" y2="32.4365" gradientUnits="userSpaceOnUse">
<stop stop-color="#73DFE7"/>
<stop offset="1" stop-color="#0063F7"/>
</linearGradient>
<linearGradient id="paint45_linear" x1="138.224" y1="19.4843" x2="147.675" y2="30.4976" gradientUnits="userSpaceOnUse">
<stop stop-color="#73DFE7"/>
<stop offset="1" stop-color="#0063F7"/>
</linearGradient>
<linearGradient id="paint46_linear" x1="137.436" y1="17.8771" x2="148.008" y2="32.3891" gradientUnits="userSpaceOnUse">
<stop stop-color="#73DFE7"/>
<stop offset="1" stop-color="#0063F7"/>
</linearGradient>
<linearGradient id="paint47_linear" x1="138.214" y1="19.442" x2="147.66" y2="30.4613" gradientUnits="userSpaceOnUse">
<stop stop-color="#73DFE7"/>
<stop offset="1" stop-color="#0063F7"/>
</linearGradient>
<linearGradient id="paint48_linear" x1="148.157" y1="24.1909" x2="158.718" y2="38.7048" gradientUnits="userSpaceOnUse">
<stop stop-color="#73DFE7"/>
<stop offset="1" stop-color="#0063F7"/>
</linearGradient>
<linearGradient id="paint49_linear" x1="148.943" y1="25.7492" x2="158.394" y2="36.7624" gradientUnits="userSpaceOnUse">
<stop stop-color="#73DFE7"/>
<stop offset="1" stop-color="#0063F7"/>
</linearGradient>
<linearGradient id="paint50_linear" x1="148.164" y1="24.1422" x2="158.736" y2="38.6559" gradientUnits="userSpaceOnUse">
<stop stop-color="#73DFE7"/>
<stop offset="1" stop-color="#0063F7"/>
</linearGradient>
<linearGradient id="paint51_linear" x1="148.94" y1="25.7039" x2="158.39" y2="36.7238" gradientUnits="userSpaceOnUse">
<stop stop-color="#73DFE7"/>
<stop offset="1" stop-color="#0063F7"/>
</linearGradient>
<linearGradient id="paint52_linear" x1="3795.72" y1="2255.6" x2="3719.16" y2="2123.46" gradientUnits="userSpaceOnUse">
<stop stop-color="#3161FF"/>
<stop offset="1" stop-color="#00C9E2"/>
</linearGradient>
<linearGradient id="paint53_linear" x1="2817.46" y1="2314.96" x2="1876.75" y2="1330.13" gradientUnits="userSpaceOnUse">
<stop stop-color="#3124FF"/>
<stop offset="1" stop-color="#00FFE2"/>
</linearGradient>
<linearGradient id="paint54_linear" x1="3795.72" y1="2252.47" x2="3719.17" y2="2120.5" gradientUnits="userSpaceOnUse">
<stop stop-color="#3161FF"/>
<stop offset="1" stop-color="#00C9E2"/>
</linearGradient>
<linearGradient id="paint55_linear" x1="2817.46" y1="2312.87" x2="1876.55" y2="1328.17" gradientUnits="userSpaceOnUse">
<stop stop-color="#3124FF"/>
<stop offset="1" stop-color="#00FFE2"/>
</linearGradient>
<linearGradient id="paint56_linear" x1="158.888" y1="30.2612" x2="169.455" y2="44.7736" gradientUnits="userSpaceOnUse">
<stop stop-color="#73DFE7"/>
<stop offset="1" stop-color="#0063F7"/>
</linearGradient>
<linearGradient id="paint57_linear" x1="159.674" y1="31.8245" x2="169.125" y2="42.8376" gradientUnits="userSpaceOnUse">
<stop stop-color="#73DFE7"/>
<stop offset="1" stop-color="#0063F7"/>
</linearGradient>
<linearGradient id="paint58_linear" x1="158.888" y1="30.2089" x2="169.464" y2="44.724" gradientUnits="userSpaceOnUse">
<stop stop-color="#73DFE7"/>
<stop offset="1" stop-color="#0063F7"/>
</linearGradient>
<linearGradient id="paint59_linear" x1="159.674" y1="31.7793" x2="169.124" y2="42.7923" gradientUnits="userSpaceOnUse">
<stop stop-color="#73DFE7"/>
<stop offset="1" stop-color="#0063F7"/>
</linearGradient>
<linearGradient id="paint60_linear" x1="148.28" y1="14.6498" x2="158.855" y2="29.1604" gradientUnits="userSpaceOnUse">
<stop stop-color="#73DFE7"/>
<stop offset="1" stop-color="#0063F7"/>
</linearGradient>
<linearGradient id="paint61_linear" x1="149.068" y1="16.2119" x2="158.518" y2="27.2249" gradientUnits="userSpaceOnUse">
<stop stop-color="#73DFE7"/>
<stop offset="1" stop-color="#0063F7"/>
</linearGradient>
<linearGradient id="paint62_linear" x1="148.28" y1="14.6034" x2="158.853" y2="29.1133" gradientUnits="userSpaceOnUse">
<stop stop-color="#73DFE7"/>
<stop offset="1" stop-color="#0063F7"/>
</linearGradient>
<linearGradient id="paint63_linear" x1="149.068" y1="16.1671" x2="158.52" y2="27.1804" gradientUnits="userSpaceOnUse">
<stop stop-color="#73DFE7"/>
<stop offset="1" stop-color="#0063F7"/>
</linearGradient>
<linearGradient id="paint64_linear" x1="158.997" y1="20.7144" x2="169.564" y2="35.2286" gradientUnits="userSpaceOnUse">
<stop stop-color="#73DFE7"/>
<stop offset="1" stop-color="#0063F7"/>
</linearGradient>
<linearGradient id="paint65_linear" x1="159.792" y1="22.2775" x2="169.243" y2="33.2908" gradientUnits="userSpaceOnUse">
<stop stop-color="#73DFE7"/>
<stop offset="1" stop-color="#0063F7"/>
</linearGradient>
<linearGradient id="paint66_linear" x1="158.996" y1="20.6685" x2="169.563" y2="35.1845" gradientUnits="userSpaceOnUse">
<stop stop-color="#73DFE7"/>
<stop offset="1" stop-color="#0063F7"/>
</linearGradient>
<linearGradient id="paint67_linear" x1="159.792" y1="22.2316" x2="169.243" y2="33.2449" gradientUnits="userSpaceOnUse">
<stop stop-color="#73DFE7"/>
<stop offset="1" stop-color="#0063F7"/>
</linearGradient>
<linearGradient id="paint68_linear" x1="3188.34" y1="592.942" x2="3111.78" y2="460.807" gradientUnits="userSpaceOnUse">
<stop stop-color="#3161FF"/>
<stop offset="1" stop-color="#00C9E2"/>
</linearGradient>
<linearGradient id="paint69_linear" x1="149.191" y1="6.67053" x2="158.644" y2="17.6794" gradientUnits="userSpaceOnUse">
<stop stop-color="#73DFE7"/>
<stop offset="1" stop-color="#0063F7"/>
</linearGradient>
<linearGradient id="paint70_linear" x1="148.393" y1="5.06203" x2="158.961" y2="19.5744" gradientUnits="userSpaceOnUse">
<stop stop-color="#73DFE7"/>
<stop offset="1" stop-color="#0063F7"/>
</linearGradient>
<linearGradient id="paint71_linear" x1="169.287" y1="55.3049" x2="179.865" y2="69.8207" gradientUnits="userSpaceOnUse">
<stop stop-color="#73DFE7"/>
<stop offset="1" stop-color="#0063F7"/>
</linearGradient>
<linearGradient id="paint72_linear" x1="170.069" y1="56.8645" x2="179.519" y2="67.8889" gradientUnits="userSpaceOnUse">
<stop stop-color="#73DFE7"/>
<stop offset="1" stop-color="#0063F7"/>
</linearGradient>
<linearGradient id="paint73_linear" x1="169.287" y1="55.2569" x2="179.859" y2="69.7707" gradientUnits="userSpaceOnUse">
<stop stop-color="#73DFE7"/>
<stop offset="1" stop-color="#0063F7"/>
</linearGradient>
<linearGradient id="paint74_linear" x1="170.073" y1="56.8209" x2="179.527" y2="67.8344" gradientUnits="userSpaceOnUse">
<stop stop-color="#73DFE7"/>
<stop offset="1" stop-color="#0063F7"/>
</linearGradient>
<linearGradient id="paint75_linear" x1="169.504" y1="45.9739" x2="180.071" y2="60.488" gradientUnits="userSpaceOnUse">
<stop stop-color="#73DFE7"/>
<stop offset="1" stop-color="#0063F7"/>
</linearGradient>
<linearGradient id="paint76_linear" x1="170.284" y1="47.5377" x2="179.734" y2="58.5508" gradientUnits="userSpaceOnUse">
<stop stop-color="#73DFE7"/>
<stop offset="1" stop-color="#0063F7"/>
</linearGradient>
<linearGradient id="paint77_linear" x1="169.508" y1="45.9288" x2="180.08" y2="60.4347" gradientUnits="userSpaceOnUse">
<stop stop-color="#73DFE7"/>
<stop offset="1" stop-color="#0063F7"/>
</linearGradient>
<linearGradient id="paint78_linear" x1="170.284" y1="47.4922" x2="179.734" y2="58.5054" gradientUnits="userSpaceOnUse">
<stop stop-color="#73DFE7"/>
<stop offset="1" stop-color="#0063F7"/>
</linearGradient>
<linearGradient id="paint79_linear" x1="169.609" y1="36.4336" x2="180.174" y2="50.9471" gradientUnits="userSpaceOnUse">
<stop stop-color="#73DFE7"/>
<stop offset="1" stop-color="#0063F7"/>
</linearGradient>
<linearGradient id="paint80_linear" x1="170.401" y1="37.9942" x2="179.856" y2="49.008" gradientUnits="userSpaceOnUse">
<stop stop-color="#73DFE7"/>
<stop offset="1" stop-color="#0063F7"/>
</linearGradient>
<linearGradient id="paint81_linear" x1="169.612" y1="36.3901" x2="180.184" y2="50.9038" gradientUnits="userSpaceOnUse">
<stop stop-color="#73DFE7"/>
<stop offset="1" stop-color="#0063F7"/>
</linearGradient>
<linearGradient id="paint82_linear" x1="170.391" y1="37.9516" x2="179.842" y2="48.9648" gradientUnits="userSpaceOnUse">
<stop stop-color="#73DFE7"/>
<stop offset="1" stop-color="#0063F7"/>
</linearGradient>
<linearGradient id="paint83_linear" x1="169.611" y1="36.4442" x2="180.182" y2="50.9594" gradientUnits="userSpaceOnUse">
<stop stop-color="#73DFE7"/>
<stop offset="1" stop-color="#0063F7"/>
</linearGradient>
<linearGradient id="paint84_linear" x1="170.391" y1="38.007" x2="179.841" y2="49.0201" gradientUnits="userSpaceOnUse">
<stop stop-color="#73DFE7"/>
<stop offset="1" stop-color="#0063F7"/>
</linearGradient>
<linearGradient id="paint85_linear" x1="169.612" y1="36.3991" x2="180.185" y2="50.9132" gradientUnits="userSpaceOnUse">
<stop stop-color="#73DFE7"/>
<stop offset="1" stop-color="#0063F7"/>
</linearGradient>
<linearGradient id="paint86_linear" x1="170.391" y1="37.9616" x2="179.842" y2="48.9748" gradientUnits="userSpaceOnUse">
<stop stop-color="#73DFE7"/>
<stop offset="1" stop-color="#0063F7"/>
</linearGradient>
<clipPath id="clip0">
<rect width="79" height="66" fill="white" transform="translate(109)"/>
</clipPath>
</defs>
</svg>
