<svg xmlns="http://www.w3.org/2000/svg" fill="none" viewBox="0 0 1149 551"><defs/><g filter="url(#filter0_d)"><rect width="90" height="90" fill="#32C5FF" opacity=".3" rx="21.9772" transform="matrix(.9382 -.34612 .7071 .7071 130.613 429.41)"/><g clip-path="url(#clip0)" opacity=".9"><path fill="#fff" fill-rule="evenodd" d="M229.404 436.39c1.492 2.559 2.21 5.235 2.27 7.812l-12.438-4.226c.292-1.561-.075-3.221-1.008-4.821-2.553-4.587-9.623-7.026-15.644-5.396-2.18.59-3.872 1.604-5.067 2.854l-11.536-3.916c2.404-1.854 5.296-3.285 8.825-4.241 13.183-3.569 28.676 1.776 34.598 11.934zm-45.905-5.354l12.485 4.307c-.614 1.833-.419 3.817.7 5.737 2.705 4.639 9.775 7.078 15.795 5.448 2.491-.675 4.402-1.933 5.617-3.558l13.388 4.617c-1.469 6.14-6.823 11.386-15.231 13.662-13.183 3.569-28.676-1.775-34.598-11.933-3.776-6.479-2.784-13.23 1.844-18.28zm27.115 12.292c4.048-1.095 5.821-4.446 4.002-7.566-1.818-3.119-6.481-4.727-10.529-3.631-4.048 1.096-5.821 4.446-4.003 7.566 1.819 3.119 6.482 4.727 10.53 3.631z" clip-rule="evenodd"/></g></g><g filter="url(#filter1_d)"><rect width="90" height="90" fill="#F2994A" opacity=".25" rx="21.9772" transform="matrix(.9382 -.34612 .7071 .7071 374.613 167.41)"/><path fill="#fff" d="M444.789 163.387c12.687-.372 24.527 6.588 26.457 15.551 1.879 8.729-6.335 16.127-18.483 16.851l-10.302-9.704.265.249.626.583s1.103-1.46 4.356-2.196c5.636-1.274 6.516.182 12.149-1.092 3.523-.797 6.36-2.765 6.36-2.765l-11.376-10.057s-2.838 1.965-6.362 2.762c-5.635 1.275-6.516-.181-12.148 1.093l-.411.104c-1.989.736-2.649 1.31-3.31 1.883l-.661.573s-.396.274-.534.341c-.6.286-.42 1.487.234 2.104l18.231 18.447c.429.404.817.764 1.538.883.039.081.299-.092.321-.01-.305.085.474-.007.712-.014 15.141-.443 25.542-9.469 23.239-20.165-2.303-10.697-16.436-19.004-31.577-18.561-15.141.443-25.543 9.468-23.24 20.165 1.961 9.105 13.35 16.606 25.781 18.325l-4.135-3.939-.17-.178-.037-.035c-8.287-2.386-15.604-7.847-16.994-14.303-1.93-8.964 6.783-16.524 19.471-16.895z" opacity=".9"/></g><g filter="url(#filter2_d)"><rect width="90" height="90" fill="#7D4DD3" rx="21.9772" transform="matrix(.9382 -.34612 .7071 .7071 768.613 146.41)"/><path fill="#fff" fill-rule="evenodd" d="M857.026 177.047l1.021.189c1.033.185 2.018.211 2.855.076.833-.12 1.502-.391 1.941-.788l.433-.405c6.895-6.397 5.316-16.25-4.133-25.787l-.242-.244c-1.231-1.259-3.313-2.288-5.449-2.691l-5.491-1.005 1.272 18.996c-.063.25-.327.429-.729.492-.418.061-.919.001-1.397-.164l-12.264-4.192c-.618-.211-1.086-.456-1.312-.938-.34-.727.23-1.144.839-1.235.59-.087.816-.01 1.395.188.017.006.034.012.052.018l8.722 2.855c.377.123.715.042.702-.169l-.969-16.526-14.592-2.671c-2.117-.4-3.964-.126-4.845.72l-10.141 9.386c-.889.853-.658 2.156.604 3.411l.243.244c9.457 9.527 25.305 17.26 41.485 20.24z" clip-rule="evenodd" opacity=".9"/></g><g filter="url(#filter3_d)"><rect width="90" height="90" fill="#15BB7F" opacity=".25" rx="21.9772" transform="matrix(.9382 -.34612 .7071 .7071 111 156.15)"/><path fill="#fff" fill-rule="evenodd" d="M176.702 155.203c7.668-2.357 16.311-.676 21.521 4.231 6.587-1.406 13.645 1.073 16.467 5.784 3.057 5.104.085 10.822-6.712 12.911l-30.498 9.378c-5.228 1.607-11.545-.325-13.897-4.251-2.273-3.794-.321-8.114 4.402-9.876l-.392-.654c-4.076-6.805.047-14.736 9.109-17.523zm10.787 13.167l.554-.059c1.48-.167 4.948-.558 6.435 1.925 1.226 2.046.006 4.014-3.188 5.277l.615 1.026c.12.201-.001.431-.272.514l-1.225.377c-.27.083-.587-.012-.707-.213l-.62-1.034c-1.785.381-3.533.367-4.925-.059-1.293-.396-2.273-1.119-2.916-2.15l3.039-.935c.907 1.349 2.768 1.743 5.02 1.051.771-.238 3.217-1.127 2.322-2.622-.716-1.195-2.789-.961-4.984-.713-.374.043-.755.086-1.139.124-2.502.249-5.278.334-6.567-1.817-1.282-2.14.51-3.979 2.92-4.947l-.632-1.056c-.121-.201.001-.431.272-.514l1.225-.377c.27-.083.587.012.707.213l.657 1.097c2.051-.392 5.287-.521 6.906 1.993l-3.047.937c-.884-1.156-2.322-1.408-4.392-.771-1.196.367-2.362 1.184-1.708 2.275.592.989 1.463.897 5.65.458z" clip-rule="evenodd" opacity=".9"/></g><g filter="url(#filter4_d)" opacity=".9"><rect width="90" height="90" fill="#4DC952" opacity=".25" rx="21.9772" transform="matrix(.9382 -.34612 .7071 .7071 487 272.151)"/><path fill="#fff" fill-rule="evenodd" d="M559.513 271.521c-2.324 1.926-3.197 4.455-2.456 7.124l.68 2.456 7.732-.106-.681-2.455c-.742-2.684 1.947-4.911 5.995-4.967 4.05-.054 7.949 2.084 8.694 4.767.744 2.683-1.943 4.911-5.995 4.966l-.085.002-22.335.304c-4.028.054-7.525 1.145-9.85 3.071-2.324 1.925-3.197 4.455-2.456 7.124.739 2.668 3.003 5.155 6.374 7.004 3.371 1.848 7.445 2.835 11.472 2.78 4.027-.054 7.525-1.145 9.849-3.071 2.325-1.925 3.197-4.455 2.457-7.124l-.681-2.455-7.732.105.681 2.456c.744 2.684-1.945 4.91-5.995 4.966-4.049.055-7.949-2.083-8.694-4.767-.371-1.342.115-2.569 1.201-3.468 1.085-.899 2.769-1.47 4.794-1.498l22.421-.305c4.027-.055 7.525-1.146 9.849-3.071 2.324-1.926 3.197-4.456 2.457-7.124-.74-2.669-3.003-5.156-6.374-7.004-3.371-1.848-7.445-2.836-11.472-2.781-4.028.055-7.525 1.145-9.85 3.071z" clip-rule="evenodd" opacity=".9"/></g><g stroke="#0092E4" stroke-width="4" filter="url(#filter5_d)"><path d="M12.0001 540.1l112.6869-46.751c12.537-5.202 16.362-21.115 7.558-31.446l-19.493-22.874c-6.722-7.888-3.609-20.055 6.076-23.746l80.831-30.799c10.319-3.932 21.963-1.877 30.313 5.349l47.301 40.933c8.914 7.714 21.519 9.492 32.22 4.546L350 416.586M378.368 306l-28.43-33.503c-6.758-7.964-3.512-20.224 6.301-23.799l35.287-12.857c6.794-2.476 8.795-11.122 3.78-16.332l-41.903-43.525c-7.37-7.655-4.663-20.334 5.19-24.312l76.489-30.88c14.735-5.948 31.593-2.611 42.95 8.503l58.024 56.779c5.479 5.362 13.539 7.12 20.753 4.527l66.421-23.873c11.366-4.085 24.073-.956 32.243 7.939L674 194.841"/><path d="M349.294 417l6.046-4.012c7.684-5.099 8.991-15.859 2.751-22.649l-36.902-40.151c-7.234-7.87-4.148-20.565 5.89-24.238l105.086-38.442c14.594-5.339 30.958-1.742 41.969 9.223l52.308 52.094c8.65 8.615 21.658 11.129 32.895 6.357l88.417-37.543c9.659-4.101 12.23-16.598 4.975-24.178l-46.087-48.155c-7.224-7.548-4.712-19.984 4.875-24.136l110.31-47.776c14.502-6.281 31.342-3.435 42.974 7.262l50.358 46.312c5.735 5.274 14.011 6.738 21.207 3.75l97.727-40.574c9.771-4.057 12.385-16.683 5.027-24.285l-38.463-39.742c-7.4-7.645-4.708-20.35 5.156-24.338L1118 15.9999"/></g><path stroke="#A3E9FF" stroke-dasharray="5.5 5.5" stroke-width="4" d="M273.677 234.395l95.827 104.415c5.138 5.599 13.006 7.802 20.305 5.686l28.33-8.215c12.985-3.765 26.993-.716 37.239 8.106l51.079 43.979c11.784 10.147 28.381 12.544 42.555 6.146l142.777-64.444c12.575-5.676 15.763-22.079 6.228-32.05l-31.837-33.299c-7.099-7.425-4.802-19.628 4.511-23.964l51.411-23.936c11.085-5.162 24.194-3.078 33.133 5.266l36.362 33.941c11.782 10.998 29.013 13.85 43.71 7.235l143.915-64.769c9.561-4.304 11.87-16.839 4.469-24.266L873.382 63.5148c-11.209-11.249-28.01-14.8027-42.813-9.0554l-256.04 99.4056c-14.375 5.581-30.677 2.402-41.902-8.17l-53.584-50.4689c-8.554-8.0565-21.024-10.3774-31.904-5.9379L284.414 155.69c-10.907 4.451-23.409 2.106-31.962-5.993l-38.961-36.895c-8.003-7.579-19.517-10.159-29.989-6.72l-88.0163 28.906c-14.3017 4.696-18.484 22.913-7.6632 33.378l75.2755 72.798c5.356 5.179 13.146 6.952 20.215 4.601l58.794-19.553c11.216-3.73 23.577-.526 31.57 8.183z"/><path fill="#fff" stroke="#0092E4" stroke-width="4" d="M9.66564 535.626c-3.51236 1.385-4.14737 4.624-1.41833 7.234 2.72899 2.609 7.78869 3.601 11.30109 2.216 3.5123-1.386 4.1473-4.625 1.4183-7.235-2.729-2.609-7.7887-3.601-11.30106-2.215zM373.666 301.626c-3.513 1.385-4.148 4.624-1.419 7.234 2.729 2.609 7.789 3.601 11.301 2.216 3.513-1.386 4.148-4.625 1.419-7.235-2.729-2.609-7.789-3.601-11.301-2.215zM668.666 191.626c-3.513 1.385-4.148 4.624-1.419 7.234 2.729 2.609 7.789 3.601 11.301 2.215 3.513-1.385 4.148-4.624 1.419-7.234-2.729-2.609-7.789-3.601-11.301-2.215z"/><path fill="#fff" stroke="#A3E9FF" stroke-width="4" d="M76.6656 145.626c-3.5123 1.385-4.1473 4.624-1.4183 7.234 2.729 2.609 7.7887 3.601 11.3011 2.215 3.5123-1.385 4.1473-4.624 1.4183-7.234-2.729-2.609-7.7887-3.601-11.3011-2.215z"/><path fill="#fff" stroke="#0092E4" stroke-width="3" d="M1130.52 9.37584l-7.86 9.03356c-.22.2446-.76.2556-1.04.0211l-7.87-6.4502c-.28-.2345-.13-.5659.29-.6359l15.73-2.58335c.54-.08907 1.02.3033.75.61479z"/><path fill="#fff" stroke="#0092E4" stroke-width="4" d="M821.666 227.626c-3.513 1.385-4.148 4.624-1.419 7.234 2.729 2.609 7.789 3.601 11.301 2.215 3.513-1.385 4.148-4.624 1.419-7.234-2.729-2.609-7.789-3.601-11.301-2.215z"/><defs><filter id="filter0_d" width="253.093" height="179.212" x="77.0001" y="371" color-interpolation-filters="sRGB" filterUnits="userSpaceOnUse"><feFlood flood-opacity="0" result="BackgroundImageFix"/><feColorMatrix in="SourceAlpha" values="0 0 0 0 0 0 0 0 0 0 0 0 0 0 0 0 0 0 127 0"/><feOffset dy="20"/><feGaussianBlur stdDeviation="5"/><feColorMatrix values="0 0 0 0 0.43125 0 0 0 0 0.671768 0 0 0 0 0.766667 0 0 0 0.1 0"/><feBlend in2="BackgroundImageFix" result="effect1_dropShadow"/><feBlend in="SourceGraphic" in2="effect1_dropShadow" result="shape"/></filter><filter id="filter1_d" width="253.093" height="179.212" x="320" y="106" color-interpolation-filters="sRGB" filterUnits="userSpaceOnUse"><feFlood flood-opacity="0" result="BackgroundImageFix"/><feColorMatrix in="SourceAlpha" values="0 0 0 0 0 0 0 0 0 0 0 0 0 0 0 0 0 0 127 0"/><feOffset dy="20"/><feGaussianBlur stdDeviation="5"/><feColorMatrix values="0 0 0 0 0.675 0 0 0 0 0.577897 0 0 0 0 0.275625 0 0 0 0.1 0"/><feBlend in2="BackgroundImageFix" result="effect1_dropShadow"/><feBlend in="SourceGraphic" in2="effect1_dropShadow" result="shape"/></filter><filter id="filter2_d" width="253.093" height="179.212" x="711" y="81.9999" color-interpolation-filters="sRGB" filterUnits="userSpaceOnUse"><feFlood flood-opacity="0" result="BackgroundImageFix"/><feColorMatrix in="SourceAlpha" values="0 0 0 0 0 0 0 0 0 0 0 0 0 0 0 0 0 0 127 0"/><feOffset dy="20"/><feGaussianBlur stdDeviation="5"/><feColorMatrix values="0 0 0 0 0.591358 0 0 0 0 0.362934 0 0 0 0 0.770833 0 0 0 0.1 0"/><feBlend in2="BackgroundImageFix" result="effect1_dropShadow"/><feBlend in="SourceGraphic" in2="effect1_dropShadow" result="shape"/></filter><filter id="filter3_d" width="253.093" height="169.212" x="58.0001" y="96.9999" color-interpolation-filters="sRGB" filterUnits="userSpaceOnUse"><feFlood flood-opacity="0" result="BackgroundImageFix"/><feColorMatrix in="SourceAlpha" values="0 0 0 0 0 0 0 0 0 0 0 0 0 0 0 0 0 0 127 0"/><feOffset dy="10"/><feGaussianBlur stdDeviation="5"/><feColorMatrix values="0 0 0 0 0.196078 0 0 0 0 0.772549 0 0 0 0 1 0 0 0 0.1 0"/><feBlend in2="BackgroundImageFix" result="effect1_dropShadow"/><feBlend in="SourceGraphic" in2="effect1_dropShadow" result="shape"/></filter><filter id="filter4_d" width="253.093" height="183.182" x="444" y="209.031" color-interpolation-filters="sRGB" filterUnits="userSpaceOnUse"><feFlood flood-opacity="0" result="BackgroundImageFix"/><feColorMatrix in="SourceAlpha" values="0 0 0 0 0 0 0 0 0 0 0 0 0 0 0 0 0 0 127 0"/><feOffset dy="20"/><feGaussianBlur stdDeviation="5"/><feColorMatrix values="0 0 0 0 0.565026 0 0 0 0 0.8125 0 0 0 0 0.52474 0 0 0 0.1 0"/><feBlend in2="BackgroundImageFix" result="effect1_dropShadow"/><feBlend in="SourceGraphic" in2="effect1_dropShadow" result="shape"/></filter><filter id="filter5_d" width="1115.52" height="536.802" x="7.23376" y="14.1457" color-interpolation-filters="sRGB" filterUnits="userSpaceOnUse"><feFlood flood-opacity="0" result="BackgroundImageFix"/><feColorMatrix in="SourceAlpha" values="0 0 0 0 0 0 0 0 0 0 0 0 0 0 0 0 0 0 127 0"/><feOffset dy="5"/><feGaussianBlur stdDeviation="2"/><feColorMatrix values="0 0 0 0 0.376471 0 0 0 0 0.380392 0 0 0 0 0.439216 0 0 0 0.1 0"/><feBlend in2="BackgroundImageFix" result="effect1_dropShadow"/><feBlend in="SourceGraphic" in2="effect1_dropShadow" result="shape"/></filter><clipPath id="clip0"><path fill="#fff" d="M0 0h49.467v42.5875H0z" transform="matrix(.96525 -.26131 .5036 .86394 170.932 430.919)"/></clipPath></defs></svg>
