<svg width="372" height="153" viewBox="0 0 372 153" fill="none" xmlns="http://www.w3.org/2000/svg">
<path d="M5.58 25.85C5.58 26.3767 5.39 26.82 5.01 27.18C4.63667 27.54 4.14 27.76 3.52 27.84V28.55C3.52 28.6834 3.48 28.79 3.4 28.87C3.32667 28.95 3.22667 28.99 3.1 28.99C2.97333 28.99 2.87 28.95 2.79 28.87C2.71667 28.79 2.68 28.6834 2.68 28.55V27.86C2.28 27.8267 1.89333 27.7467 1.52 27.62C1.15333 27.4867 0.84 27.3067 0.58 27.08C0.453333 26.9867 0.39 26.8534 0.39 26.68C0.39 26.56 0.42 26.46 0.48 26.38C0.546667 26.2934 0.626667 26.25 0.72 26.25C0.813333 26.25 0.926667 26.2934 1.06 26.38C1.7 26.8134 2.34667 27.03 3 27.03C3.49333 27.03 3.87333 26.93 4.14 26.73C4.41333 26.53 4.55 26.2467 4.55 25.88C4.55 25.66 4.47667 25.4834 4.33 25.35C4.19 25.21 4.01 25.1 3.79 25.02C3.57667 24.94 3.28 24.8534 2.9 24.76C2.4 24.6334 1.99333 24.5067 1.68 24.38C1.36667 24.2534 1.09667 24.0567 0.87 23.79C0.65 23.5234 0.54 23.17 0.54 22.73C0.54 22.19 0.733333 21.7334 1.12 21.36C1.51333 20.98 2.03 20.7534 2.67 20.68V19.98C2.67 19.8467 2.70667 19.74 2.78 19.66C2.86 19.58 2.96333 19.54 3.09 19.54C3.21667 19.54 3.31667 19.58 3.39 19.66C3.47 19.74 3.51 19.8467 3.51 19.98V20.68C3.85 20.7134 4.17333 20.7967 4.48 20.93C4.79333 21.0567 5.07 21.23 5.31 21.45C5.44333 21.5567 5.51 21.69 5.51 21.85C5.51 21.9634 5.47667 22.0634 5.41 22.15C5.34333 22.2367 5.26333 22.28 5.17 22.28C5.07667 22.28 4.96333 22.2367 4.83 22.15C4.54333 21.93 4.27 21.7667 4.01 21.66C3.75 21.5534 3.44333 21.5 3.09 21.5C2.63 21.5 2.26333 21.6067 1.99 21.82C1.71667 22.0334 1.58 22.3234 1.58 22.69C1.58 22.9367 1.65667 23.1367 1.81 23.29C1.96333 23.4434 2.15333 23.5634 2.38 23.65C2.60667 23.73 2.91667 23.8167 3.31 23.91C3.79667 24.03 4.19 24.1534 4.49 24.28C4.79 24.4 5.04667 24.5867 5.26 24.84C5.47333 25.0867 5.58 25.4234 5.58 25.85ZM11.9928 23.32C12.4128 23.32 12.7895 23.4167 13.1228 23.61C13.4561 23.7967 13.7128 24.06 13.8928 24.4C14.0795 24.74 14.1728 25.13 14.1728 25.57C14.1728 26.01 14.0728 26.4067 13.8728 26.76C13.6728 27.1067 13.3961 27.38 13.0428 27.58C12.6961 27.7734 12.2995 27.87 11.8528 27.87C10.9795 27.87 10.3061 27.5734 9.83281 26.98C9.36615 26.38 9.13281 25.5267 9.13281 24.42C9.13281 23.64 9.24281 22.97 9.46281 22.41C9.68281 21.8434 9.99948 21.41 10.4128 21.11C10.8261 20.81 11.3161 20.66 11.8828 20.66C12.2628 20.66 12.6428 20.73 13.0228 20.87C13.4028 21.01 13.7261 21.2034 13.9928 21.45C14.1261 21.5634 14.1928 21.6967 14.1928 21.85C14.1928 21.97 14.1595 22.0734 14.0928 22.16C14.0261 22.24 13.9461 22.28 13.8528 22.28C13.7928 22.28 13.7361 22.27 13.6828 22.25C13.6361 22.23 13.5795 22.1967 13.5128 22.15C12.9528 21.7167 12.4195 21.5 11.9128 21.5C11.3595 21.5 10.9295 21.7567 10.6228 22.27C10.3161 22.7767 10.1628 23.4867 10.1628 24.4V24.42C10.3095 24.08 10.5461 23.8134 10.8728 23.62C11.2061 23.42 11.5795 23.32 11.9928 23.32ZM11.8028 27.03C12.2161 27.03 12.5461 26.9 12.7928 26.64C13.0461 26.3734 13.1728 26.0234 13.1728 25.59C13.1728 25.1634 13.0461 24.82 12.7928 24.56C12.5461 24.2934 12.2161 24.16 11.8028 24.16C11.3828 24.16 11.0395 24.2934 10.7728 24.56C10.5128 24.82 10.3828 25.1634 10.3828 25.59C10.3828 26.0234 10.5128 26.3734 10.7728 26.64C11.0328 26.9 11.3761 27.03 11.8028 27.03ZM17.6191 27.87C16.7991 27.87 16.1725 27.5634 15.7391 26.95C15.3125 26.3367 15.0991 25.4434 15.0991 24.27C15.0991 23.09 15.3125 22.1934 15.7391 21.58C16.1725 20.9667 16.7991 20.66 17.6191 20.66C18.4391 20.66 19.0625 20.9667 19.4891 21.58C19.9225 22.1867 20.1391 23.08 20.1391 24.26C20.1391 25.44 19.9225 26.3367 19.4891 26.95C19.0625 27.5634 18.4391 27.87 17.6191 27.87ZM17.6191 27.04C18.1325 27.04 18.5091 26.8167 18.7491 26.37C18.9891 25.9234 19.1091 25.22 19.1091 24.26C19.1091 23.3 18.9891 22.6 18.7491 22.16C18.5091 21.7134 18.1325 21.49 17.6191 21.49C17.1058 21.49 16.7291 21.7134 16.4891 22.16C16.2491 22.6 16.1291 23.3 16.1291 24.26C16.1291 25.2134 16.2491 25.9167 16.4891 26.37C16.7291 26.8167 17.1058 27.04 17.6191 27.04ZM23.6152 27.87C22.7952 27.87 22.1686 27.5634 21.7352 26.95C21.3086 26.3367 21.0952 25.4434 21.0952 24.27C21.0952 23.09 21.3086 22.1934 21.7352 21.58C22.1686 20.9667 22.7952 20.66 23.6152 20.66C24.4352 20.66 25.0586 20.9667 25.4852 21.58C25.9186 22.1867 26.1352 23.08 26.1352 24.26C26.1352 25.44 25.9186 26.3367 25.4852 26.95C25.0586 27.5634 24.4352 27.87 23.6152 27.87ZM23.6152 27.04C24.1286 27.04 24.5052 26.8167 24.7452 26.37C24.9852 25.9234 25.1052 25.22 25.1052 24.26C25.1052 23.3 24.9852 22.6 24.7452 22.16C24.5052 21.7134 24.1286 21.49 23.6152 21.49C23.1019 21.49 22.7252 21.7134 22.4852 22.16C22.2452 22.6 22.1252 23.3 22.1252 24.26C22.1252 25.2134 22.2452 25.9167 22.4852 26.37C22.7252 26.8167 23.1019 27.04 23.6152 27.04ZM29.6113 27.87C28.7913 27.87 28.1647 27.5634 27.7313 26.95C27.3047 26.3367 27.0913 25.4434 27.0913 24.27C27.0913 23.09 27.3047 22.1934 27.7313 21.58C28.1647 20.9667 28.7913 20.66 29.6113 20.66C30.4313 20.66 31.0547 20.9667 31.4813 21.58C31.9147 22.1867 32.1313 23.08 32.1313 24.26C32.1313 25.44 31.9147 26.3367 31.4813 26.95C31.0547 27.5634 30.4313 27.87 29.6113 27.87ZM29.6113 27.04C30.1247 27.04 30.5013 26.8167 30.7413 26.37C30.9813 25.9234 31.1013 25.22 31.1013 24.26C31.1013 23.3 30.9813 22.6 30.7413 22.16C30.5013 21.7134 30.1247 21.49 29.6113 21.49C29.098 21.49 28.7213 21.7134 28.4813 22.16C28.2413 22.6 28.1213 23.3 28.1213 24.26C28.1213 25.2134 28.2413 25.9167 28.4813 26.37C28.7213 26.8167 29.098 27.04 29.6113 27.04ZM5.58 81.85C5.58 82.3767 5.39 82.82 5.01 83.18C4.63667 83.54 4.14 83.76 3.52 83.84V84.55C3.52 84.6834 3.48 84.79 3.4 84.87C3.32667 84.95 3.22667 84.99 3.1 84.99C2.97333 84.99 2.87 84.95 2.79 84.87C2.71667 84.79 2.68 84.6834 2.68 84.55V83.86C2.28 83.8267 1.89333 83.7467 1.52 83.62C1.15333 83.4867 0.84 83.3067 0.58 83.08C0.453333 82.9867 0.39 82.8534 0.39 82.68C0.39 82.56 0.42 82.46 0.48 82.38C0.546667 82.2934 0.626667 82.25 0.72 82.25C0.813333 82.25 0.926667 82.2934 1.06 82.38C1.7 82.8134 2.34667 83.03 3 83.03C3.49333 83.03 3.87333 82.93 4.14 82.73C4.41333 82.53 4.55 82.2467 4.55 81.88C4.55 81.66 4.47667 81.4834 4.33 81.35C4.19 81.21 4.01 81.1 3.79 81.02C3.57667 80.94 3.28 80.8534 2.9 80.76C2.4 80.6334 1.99333 80.5067 1.68 80.38C1.36667 80.2534 1.09667 80.0567 0.87 79.79C0.65 79.5234 0.54 79.17 0.54 78.73C0.54 78.19 0.733333 77.7334 1.12 77.36C1.51333 76.98 2.03 76.7534 2.67 76.68V75.98C2.67 75.8467 2.70667 75.74 2.78 75.66C2.86 75.58 2.96333 75.54 3.09 75.54C3.21667 75.54 3.31667 75.58 3.39 75.66C3.47 75.74 3.51 75.8467 3.51 75.98V76.68C3.85 76.7134 4.17333 76.7967 4.48 76.93C4.79333 77.0567 5.07 77.23 5.31 77.45C5.44333 77.5567 5.51 77.69 5.51 77.85C5.51 77.9634 5.47667 78.0634 5.41 78.15C5.34333 78.2367 5.26333 78.28 5.17 78.28C5.07667 78.28 4.96333 78.2367 4.83 78.15C4.54333 77.93 4.27 77.7667 4.01 77.66C3.75 77.5534 3.44333 77.5 3.09 77.5C2.63 77.5 2.26333 77.6067 1.99 77.82C1.71667 78.0334 1.58 78.3234 1.58 78.69C1.58 78.9367 1.65667 79.1367 1.81 79.29C1.96333 79.4434 2.15333 79.5634 2.38 79.65C2.60667 79.73 2.91667 79.8167 3.31 79.91C3.79667 80.03 4.19 80.1534 4.49 80.28C4.79 80.4 5.04667 80.5867 5.26 80.84C5.47333 81.0867 5.58 81.4234 5.58 81.85ZM12.6428 80.17C13.0695 80.29 13.3928 80.4967 13.6128 80.79C13.8328 81.0767 13.9428 81.44 13.9428 81.88C13.9428 82.4934 13.7261 82.9767 13.2928 83.33C12.8661 83.6834 12.2861 83.86 11.5528 83.86C11.1195 83.86 10.7028 83.79 10.3028 83.65C9.90948 83.51 9.57615 83.3167 9.30281 83.07C9.16948 82.9634 9.10281 82.83 9.10281 82.67C9.10281 82.55 9.13615 82.45 9.20281 82.37C9.26948 82.2834 9.34948 82.24 9.44281 82.24C9.54281 82.24 9.65615 82.2834 9.78281 82.37C10.0695 82.5834 10.3495 82.7467 10.6228 82.86C10.9028 82.9667 11.2028 83.02 11.5228 83.02C12.4695 83.02 12.9428 82.6167 12.9428 81.81C12.9428 81.4167 12.8161 81.1234 12.5628 80.93C12.3161 80.73 11.9395 80.63 11.4328 80.63H10.8828C10.7561 80.63 10.6561 80.59 10.5828 80.51C10.5095 80.4234 10.4728 80.3234 10.4728 80.21C10.4728 80.1034 10.5095 80.01 10.5828 79.93C10.6561 79.8434 10.7561 79.8 10.8828 79.8H11.2728C11.7595 79.8 12.1295 79.7 12.3828 79.5C12.6428 79.2934 12.7728 78.9934 12.7728 78.6C12.7728 78.2534 12.6661 77.9834 12.4528 77.79C12.2461 77.5967 11.9528 77.5 11.5728 77.5C11.0128 77.5 10.4528 77.7167 9.89281 78.15C9.76615 78.2367 9.65281 78.28 9.55281 78.28C9.45948 78.28 9.37948 78.24 9.31281 78.16C9.24615 78.0734 9.21281 77.97 9.21281 77.85C9.21281 77.69 9.27948 77.5567 9.41281 77.45C9.68615 77.2034 10.0161 77.01 10.4028 76.87C10.7961 76.73 11.1995 76.66 11.6128 76.66C12.2728 76.66 12.7995 76.8267 13.1928 77.16C13.5861 77.4934 13.7795 77.94 13.7728 78.5C13.7728 78.8867 13.6728 79.23 13.4728 79.53C13.2728 79.8234 12.9961 80.0367 12.6428 80.17ZM17.6289 83.87C16.8089 83.87 16.1822 83.5634 15.7489 82.95C15.3222 82.3367 15.1089 81.4434 15.1089 80.27C15.1089 79.09 15.3222 78.1934 15.7489 77.58C16.1822 76.9667 16.8089 76.66 17.6289 76.66C18.4489 76.66 19.0722 76.9667 19.4989 77.58C19.9322 78.1867 20.1489 79.08 20.1489 80.26C20.1489 81.44 19.9322 82.3367 19.4989 82.95C19.0722 83.5634 18.4489 83.87 17.6289 83.87ZM17.6289 83.04C18.1422 83.04 18.5189 82.8167 18.7589 82.37C18.9989 81.9234 19.1189 81.22 19.1189 80.26C19.1189 79.3 18.9989 78.6 18.7589 78.16C18.5189 77.7134 18.1422 77.49 17.6289 77.49C17.1156 77.49 16.7389 77.7134 16.4989 78.16C16.2589 78.6 16.1389 79.3 16.1389 80.26C16.1389 81.2134 16.2589 81.9167 16.4989 82.37C16.7389 82.8167 17.1156 83.04 17.6289 83.04ZM23.625 83.87C22.805 83.87 22.1783 83.5634 21.745 82.95C21.3183 82.3367 21.105 81.4434 21.105 80.27C21.105 79.09 21.3183 78.1934 21.745 77.58C22.1783 76.9667 22.805 76.66 23.625 76.66C24.445 76.66 25.0683 76.9667 25.495 77.58C25.9283 78.1867 26.145 79.08 26.145 80.26C26.145 81.44 25.9283 82.3367 25.495 82.95C25.0683 83.5634 24.445 83.87 23.625 83.87ZM23.625 83.04C24.1383 83.04 24.515 82.8167 24.755 82.37C24.995 81.9234 25.115 81.22 25.115 80.26C25.115 79.3 24.995 78.6 24.755 78.16C24.515 77.7134 24.1383 77.49 23.625 77.49C23.1117 77.49 22.735 77.7134 22.495 78.16C22.255 78.6 22.135 79.3 22.135 80.26C22.135 81.2134 22.255 81.9167 22.495 82.37C22.735 82.8167 23.1117 83.04 23.625 83.04ZM29.6211 83.87C28.8011 83.87 28.1744 83.5634 27.7411 82.95C27.3144 82.3367 27.1011 81.4434 27.1011 80.27C27.1011 79.09 27.3144 78.1934 27.7411 77.58C28.1744 76.9667 28.8011 76.66 29.6211 76.66C30.4411 76.66 31.0644 76.9667 31.4911 77.58C31.9244 78.1867 32.1411 79.08 32.1411 80.26C32.1411 81.44 31.9244 82.3367 31.4911 82.95C31.0644 83.5634 30.4411 83.87 29.6211 83.87ZM29.6211 83.04C30.1344 83.04 30.5111 82.8167 30.7511 82.37C30.9911 81.9234 31.1111 81.22 31.1111 80.26C31.1111 79.3 30.9911 78.6 30.7511 78.16C30.5111 77.7134 30.1344 77.49 29.6211 77.49C29.1078 77.49 28.7311 77.7134 28.4911 78.16C28.2511 78.6 28.1311 79.3 28.1311 80.26C28.1311 81.2134 28.2511 81.9167 28.4911 82.37C28.7311 82.8167 29.1078 83.04 29.6211 83.04ZM5.58 137.85C5.58 138.377 5.39 138.82 5.01 139.18C4.63667 139.54 4.14 139.76 3.52 139.84V140.55C3.52 140.683 3.48 140.79 3.4 140.87C3.32667 140.95 3.22667 140.99 3.1 140.99C2.97333 140.99 2.87 140.95 2.79 140.87C2.71667 140.79 2.68 140.683 2.68 140.55V139.86C2.28 139.827 1.89333 139.747 1.52 139.62C1.15333 139.487 0.84 139.307 0.58 139.08C0.453333 138.987 0.39 138.853 0.39 138.68C0.39 138.56 0.42 138.46 0.48 138.38C0.546667 138.293 0.626667 138.25 0.72 138.25C0.813333 138.25 0.926667 138.293 1.06 138.38C1.7 138.813 2.34667 139.03 3 139.03C3.49333 139.03 3.87333 138.93 4.14 138.73C4.41333 138.53 4.55 138.247 4.55 137.88C4.55 137.66 4.47667 137.483 4.33 137.35C4.19 137.21 4.01 137.1 3.79 137.02C3.57667 136.94 3.28 136.853 2.9 136.76C2.4 136.633 1.99333 136.507 1.68 136.38C1.36667 136.253 1.09667 136.057 0.87 135.79C0.65 135.523 0.54 135.17 0.54 134.73C0.54 134.19 0.733333 133.733 1.12 133.36C1.51333 132.98 2.03 132.753 2.67 132.68V131.98C2.67 131.847 2.70667 131.74 2.78 131.66C2.86 131.58 2.96333 131.54 3.09 131.54C3.21667 131.54 3.31667 131.58 3.39 131.66C3.47 131.74 3.51 131.847 3.51 131.98V132.68C3.85 132.713 4.17333 132.797 4.48 132.93C4.79333 133.057 5.07 133.23 5.31 133.45C5.44333 133.557 5.51 133.69 5.51 133.85C5.51 133.963 5.47667 134.063 5.41 134.15C5.34333 134.237 5.26333 134.28 5.17 134.28C5.07667 134.28 4.96333 134.237 4.83 134.15C4.54333 133.93 4.27 133.767 4.01 133.66C3.75 133.553 3.44333 133.5 3.09 133.5C2.63 133.5 2.26333 133.607 1.99 133.82C1.71667 134.033 1.58 134.323 1.58 134.69C1.58 134.937 1.65667 135.137 1.81 135.29C1.96333 135.443 2.15333 135.563 2.38 135.65C2.60667 135.73 2.91667 135.817 3.31 135.91C3.79667 136.03 4.19 136.153 4.49 136.28C4.79 136.4 5.04667 136.587 5.26 136.84C5.47333 137.087 5.58 137.423 5.58 137.85ZM11.6328 139.87C10.8128 139.87 10.1861 139.563 9.75281 138.95C9.32615 138.337 9.11281 137.443 9.11281 136.27C9.11281 135.09 9.32615 134.193 9.75281 133.58C10.1861 132.967 10.8128 132.66 11.6328 132.66C12.4528 132.66 13.0761 132.967 13.5028 133.58C13.9361 134.187 14.1528 135.08 14.1528 136.26C14.1528 137.44 13.9361 138.337 13.5028 138.95C13.0761 139.563 12.4528 139.87 11.6328 139.87ZM11.6328 139.04C12.1461 139.04 12.5228 138.817 12.7628 138.37C13.0028 137.923 13.1228 137.22 13.1228 136.26C13.1228 135.3 13.0028 134.6 12.7628 134.16C12.5228 133.713 12.1461 133.49 11.6328 133.49C11.1195 133.49 10.7428 133.713 10.5028 134.16C10.2628 134.6 10.1428 135.3 10.1428 136.26C10.1428 137.213 10.2628 137.917 10.5028 138.37C10.7428 138.817 11.1195 139.04 11.6328 139.04Z" fill="#9AA5B5"/>
<g opacity="0.8">
<path opacity="0.499674" d="M223.519 44.8853L255.653 36.3636L274.5 29.7104L307.706 25.02L341.094 15.3719L370.458 5.50524" stroke="#00ADE4" stroke-width="2" stroke-linecap="square" stroke-dasharray="1 4"/>
<path d="M293.379 150.805C294.949 150.816 296.003 149.737 296 148.298C296.003 146.924 295.023 145.93 293.748 145.93C292.967 145.93 292.278 146.31 291.93 146.935H291.88C291.884 145.404 292.445 144.474 293.454 144.474C294.079 144.474 294.501 144.836 294.636 145.394H295.932C295.776 144.218 294.828 143.334 293.454 143.334C291.706 143.334 290.602 144.79 290.602 147.276C290.598 149.943 291.983 150.798 293.379 150.805ZM293.372 149.74C292.594 149.74 292.026 149.097 292.022 148.337C292.03 147.574 292.619 146.935 293.39 146.935C294.16 146.935 294.725 147.546 294.721 148.327C294.725 149.122 294.142 149.74 293.372 149.74ZM300.183 143.092H299.057L296.713 151.8H297.839L300.183 143.092ZM303.947 143.433H302.694L300.886 144.595V145.802L302.587 144.715H302.63V150.706H303.947V143.433ZM308.319 143.334C306.742 143.323 305.694 144.406 305.694 145.827C305.698 147.198 306.674 148.188 307.949 148.188C308.734 148.188 309.416 147.808 309.767 147.183H309.817C309.814 148.739 309.249 149.666 308.244 149.666C307.615 149.666 307.193 149.303 307.062 148.725H305.765C305.914 149.928 306.866 150.805 308.244 150.805C309.988 150.805 311.099 149.35 311.096 146.846C311.092 144.197 309.714 143.341 308.319 143.334ZM308.322 144.399C309.1 144.399 309.672 145.046 309.672 145.788C309.675 146.541 309.075 147.187 308.308 147.187C307.534 147.187 306.976 146.576 306.973 145.798C306.973 145.017 307.552 144.399 308.322 144.399Z" fill="#B0B1C4"/>
<path d="M238.902 150.805C240.472 150.816 241.526 149.737 241.523 148.298C241.526 146.924 240.546 145.93 239.271 145.93C238.49 145.93 237.801 146.31 237.453 146.935H237.403C237.407 145.404 237.968 144.474 238.977 144.474C239.602 144.474 240.024 144.836 240.159 145.394H241.455C241.299 144.218 240.351 143.334 238.977 143.334C237.229 143.334 236.125 144.79 236.125 147.276C236.121 149.943 237.506 150.798 238.902 150.805ZM238.895 149.74C238.117 149.74 237.549 149.097 237.545 148.337C237.552 147.574 238.142 146.935 238.913 146.935C239.683 146.935 240.248 147.546 240.244 148.327C240.248 149.122 239.665 149.74 238.895 149.74ZM245.706 143.092H244.58L242.236 151.8H243.362L245.706 143.092ZM249.47 143.433H248.217L246.409 144.595V145.802L248.11 144.715H248.153V150.706H249.47V143.433ZM251.583 150.706H252.95L256.04 144.559V143.433H251.086V144.534H254.676V144.584L251.583 150.706Z" fill="#B0B1C4"/>
<path d="M319.975 150.805C321.545 150.816 322.599 149.737 322.596 148.298C322.599 146.924 321.619 145.93 320.344 145.93C319.563 145.93 318.874 146.31 318.526 146.935H318.477C318.48 145.404 319.041 144.474 320.05 144.474C320.675 144.474 321.097 144.836 321.232 145.394H322.528C322.372 144.218 321.424 143.334 320.05 143.334C318.303 143.334 317.198 144.79 317.198 147.276C317.195 149.943 318.58 150.798 319.975 150.805ZM319.968 149.74C319.19 149.74 318.622 149.097 318.619 148.337C318.626 147.574 319.215 146.935 319.986 146.935C320.756 146.935 321.321 147.546 321.318 148.327C321.321 149.122 320.739 149.74 319.968 149.74ZM326.779 143.092H325.653L323.31 151.8H324.435L326.779 143.092ZM327.585 150.706H332.571V149.605H329.403V149.555L330.657 148.281C332.07 146.924 332.461 146.264 332.461 145.443C332.461 144.225 331.47 143.334 330.007 143.334C328.565 143.334 327.543 144.229 327.543 145.61H328.796C328.796 144.868 329.265 144.403 329.989 144.403C330.682 144.403 331.197 144.825 331.197 145.511C331.197 146.118 330.827 146.551 330.11 147.279L327.585 149.754V150.706ZM336.484 150.845C338.239 150.848 339.286 149.463 339.286 147.077C339.286 144.705 338.232 143.334 336.484 143.334C334.737 143.334 333.686 144.701 333.683 147.077C333.683 149.46 334.73 150.845 336.484 150.845ZM336.484 149.733C335.579 149.733 335.011 148.824 335.014 147.077C335.018 145.344 335.582 144.431 336.484 144.431C337.39 144.431 337.955 145.344 337.958 147.077C337.958 148.824 337.393 149.733 336.484 149.733Z" fill="#B0B1C4"/>
<path d="M266.001 150.805C267.571 150.816 268.625 149.737 268.622 148.298C268.625 146.924 267.645 145.93 266.37 145.93C265.589 145.93 264.9 146.31 264.552 146.935H264.502C264.506 145.404 265.067 144.474 266.076 144.474C266.701 144.474 267.123 144.836 267.258 145.394H268.554C268.398 144.218 267.45 143.334 266.076 143.334C264.328 143.334 263.224 144.79 263.224 147.276C263.221 149.943 264.605 150.798 266.001 150.805ZM265.994 149.74C265.216 149.74 264.648 149.097 264.645 148.337C264.652 147.574 265.241 146.935 266.012 146.935C266.782 146.935 267.347 147.546 267.343 148.327C267.347 149.122 266.765 149.74 265.994 149.74ZM272.805 143.092H271.679L269.336 151.8H270.461L272.805 143.092ZM276.569 143.433H275.316L273.508 144.595V145.802L275.209 144.715H275.252V150.706H276.569V143.433ZM281.001 150.805C282.574 150.805 283.7 149.939 283.703 148.756C283.7 147.847 283.029 147.087 282.184 146.945V146.896C282.919 146.732 283.43 146.072 283.434 145.283C283.43 144.165 282.4 143.334 281.001 143.334C279.591 143.334 278.561 144.161 278.565 145.283C278.561 146.072 279.066 146.732 279.815 146.896V146.945C278.956 147.087 278.292 147.847 278.295 148.756C278.292 149.939 279.414 150.805 281.001 150.805ZM281.001 149.79C280.177 149.79 279.645 149.335 279.652 148.664C279.645 147.968 280.216 147.475 281.001 147.475C281.775 147.475 282.343 147.972 282.35 148.664C282.343 149.335 281.814 149.79 281.001 149.79ZM281.001 146.477C280.326 146.477 279.843 146.04 279.85 145.408C279.843 144.783 280.312 144.364 281.001 144.364C281.679 144.364 282.145 144.783 282.152 145.408C282.145 146.043 281.665 146.477 281.001 146.477Z" fill="#B0B1C4"/>
<path d="M348.3 150.805C349.869 150.816 350.924 149.737 350.921 148.298C350.924 146.924 349.944 145.93 348.669 145.93C347.888 145.93 347.199 146.31 346.851 146.935H346.801C346.805 145.404 347.366 144.474 348.374 144.474C348.999 144.474 349.422 144.836 349.557 145.394H350.853C350.697 144.218 349.749 143.334 348.374 143.334C346.627 143.334 345.523 144.79 345.523 147.276C345.519 149.943 346.904 150.798 348.3 150.805ZM348.293 149.74C347.515 149.74 346.947 149.097 346.943 148.337C346.95 147.574 347.54 146.935 348.311 146.935C349.081 146.935 349.646 147.546 349.642 148.327C349.646 149.122 349.063 149.74 348.293 149.74ZM355.104 143.092H353.978L351.634 151.8H352.76L355.104 143.092ZM355.91 150.706H360.896V149.605H357.728V149.555L358.982 148.281C360.395 146.924 360.786 146.264 360.786 145.443C360.786 144.225 359.795 143.334 358.332 143.334C356.89 143.334 355.867 144.229 355.867 145.61H357.121C357.121 144.868 357.59 144.403 358.314 144.403C359.007 144.403 359.521 144.825 359.521 145.511C359.521 146.118 359.152 146.551 358.435 147.279L355.91 149.754V150.706ZM365.079 143.433H363.825L362.018 144.595V145.802L363.719 144.715H363.762V150.706H365.079V143.433Z" fill="#B0B1C4"/>
<path d="M184.196 150.806C185.765 150.817 186.82 149.738 186.817 148.299C186.82 146.925 185.84 145.931 184.565 145.931C183.784 145.931 183.095 146.311 182.747 146.936H182.697C182.701 145.405 183.262 144.475 184.27 144.475C184.895 144.475 185.318 144.837 185.453 145.395H186.749C186.593 144.219 185.645 143.335 184.27 143.335C182.523 143.335 181.419 144.791 181.419 147.277C181.415 149.944 182.8 150.799 184.196 150.806ZM184.189 149.741C183.411 149.741 182.843 149.098 182.839 148.338C182.846 147.575 183.436 146.936 184.206 146.936C184.977 146.936 185.542 147.547 185.538 148.328C185.542 149.123 184.959 149.741 184.189 149.741ZM191 143.093H189.874L187.53 151.801H188.656L191 143.093ZM194.764 143.434H193.51L191.703 144.596V145.803L193.404 144.716H193.447V150.707H194.764V143.434ZM199.569 143.434H198.315L196.508 144.596V145.803L198.209 144.716H198.251V150.707H199.569V143.434Z" fill="#B0B1C4"/>
<rect width="7.95257" height="28.5215" transform="matrix(-1 0 0 1 194.804 107.65)" fill="#27A430"/>
<rect width="7.95257" height="16.9915" transform="matrix(-1 0 0 1 194.804 119.18)" fill="#FD8D42"/>
<rect width="7.95257" height="5.46157" transform="matrix(-1 0 0 1 194.804 130.71)" fill="#00A390"/>
<rect width="7.95257" height="3.0342" transform="matrix(-1 0 0 1 194.804 133.138)" fill="#DB0196"/>
<rect width="7.95257" height="1.21369" transform="matrix(-1 0 0 1 194.804 134.958)" fill="#954E02"/>
<rect width="7.95257" height="13.9574" transform="matrix(-1 0 0 1 194.804 93.6934)" fill="#503DDD"/>
<rect width="8.61428" height="80.7103" transform="matrix(-1 0 0 1 195.257 55.2441)" fill="#2188DD"/>
<path d="M48.7973 150.806C50.3669 150.817 51.4215 149.738 51.418 148.299C51.4215 146.925 50.4414 145.931 49.1666 145.931C48.3853 145.931 47.6964 146.311 47.3484 146.936H47.2987C47.3022 145.405 47.8633 144.475 48.8718 144.475C49.4968 144.475 49.9194 144.837 50.0544 145.395H51.3505C51.1943 144.219 50.2461 143.335 48.8718 143.335C47.1247 143.335 46.0203 144.791 46.0203 147.277C46.0167 149.944 47.4017 150.799 48.7973 150.806ZM48.7902 149.741C48.0125 149.741 47.4443 149.098 47.4407 148.338C47.4478 147.575 48.0373 146.936 48.8079 146.936C49.5785 146.936 50.1431 147.547 50.1396 148.328C50.1431 149.123 49.5607 149.741 48.7902 149.741ZM55.6012 143.093H54.4755L52.1318 151.801H53.2575L55.6012 143.093ZM59.0707 150.806C60.6403 150.817 61.695 149.738 61.6914 148.299C61.695 146.925 60.7149 145.931 59.44 145.931C58.6588 145.931 57.9698 146.311 57.6218 146.936H57.5721C57.5757 145.405 58.1367 144.475 59.1453 144.475C59.7703 144.475 60.1929 144.837 60.3278 145.395H61.624C61.4677 144.219 60.5196 143.335 59.1453 143.335C57.3981 143.335 56.2937 144.791 56.2937 147.277C56.2902 149.944 57.6751 150.799 59.0707 150.806ZM59.0636 149.741C58.2859 149.741 57.7177 149.098 57.7142 148.338C57.7213 147.575 58.3107 146.936 59.0813 146.936C59.8519 146.936 60.4166 147.547 60.413 148.328C60.4166 149.123 59.8342 149.741 59.0636 149.741Z" fill="#B0B1C4"/>
<rect width="7.95257" height="25.6112" transform="matrix(-1 0 0 1 57.8428 110.56)" fill="#27A430"/>
<rect width="7.95257" height="15.2577" transform="matrix(-1 0 0 1 57.8428 120.913)" fill="#FD8D42"/>
<rect width="7.95257" height="4.90428" transform="matrix(-1 0 0 1 57.8428 131.268)" fill="#00A390"/>
<rect width="7.95257" height="2.7246" transform="matrix(-1 0 0 1 57.8428 133.447)" fill="#DB0196"/>
<rect width="7.95257" height="1.08984" transform="matrix(-1 0 0 1 57.8428 135.081)" fill="#954E02"/>
<rect width="7.95257" height="12.5331" transform="matrix(-1 0 0 1 57.8428 98.0273)" fill="#503DDD"/>
<rect width="8.61428" height="72.4745" transform="matrix(-1 0 0 1 58.1465 63.4795)" fill="#2188DD"/>
<rect x="204.59" y="141.992" width="28.7143" height="10.981" rx="4" fill="#CDF4FE"/>
<path d="M211.203 150.805C212.772 150.815 213.827 149.736 213.824 148.297C213.827 146.923 212.847 145.929 211.572 145.929C210.791 145.929 210.102 146.309 209.754 146.934H209.704C209.708 145.403 210.269 144.473 211.277 144.473C211.902 144.473 212.325 144.835 212.46 145.393H213.756C213.6 144.217 212.652 143.333 211.277 143.333C209.53 143.333 208.426 144.789 208.426 147.275C208.422 149.942 209.807 150.797 211.203 150.805ZM211.196 149.739C210.418 149.739 209.85 149.096 209.846 148.336C209.853 147.573 210.443 146.934 211.214 146.934C211.984 146.934 212.549 147.545 212.545 148.326C212.549 149.121 211.966 149.739 211.196 149.739ZM218.007 143.091H216.881L214.537 151.799H215.663L218.007 143.091ZM221.771 143.432H220.518L218.71 144.594V145.801L220.411 144.714H220.454V150.705H221.771V143.432ZM226.281 150.805C227.851 150.815 228.905 149.736 228.902 148.297C228.905 146.923 227.925 145.929 226.65 145.929C225.869 145.929 225.18 146.309 224.832 146.934H224.782C224.786 145.403 225.347 144.473 226.356 144.473C226.981 144.473 227.403 144.835 227.538 145.393H228.834C228.678 144.217 227.73 143.333 226.356 143.333C224.608 143.333 223.504 144.789 223.504 147.275C223.5 149.942 224.885 150.797 226.281 150.805ZM226.274 149.739C225.496 149.739 224.928 149.096 224.924 148.336C224.932 147.573 225.521 146.934 226.292 146.934C227.062 146.934 227.627 147.545 227.623 148.326C227.627 149.121 227.045 149.739 226.274 149.739Z" fill="#9293AB"/>
<rect width="7.95257" height="32.208" transform="matrix(-1 0 0 1 222.651 103.962)" fill="#27A430"/>
<rect width="7.95257" height="19.1877" transform="matrix(-1 0 0 1 222.651 116.982)" fill="#FD8D42"/>
<rect width="7.95257" height="6.1675" transform="matrix(-1 0 0 1 222.651 130.003)" fill="#00A390"/>
<rect width="7.95257" height="3.42638" transform="matrix(-1 0 0 1 222.651 132.744)" fill="#DB0196"/>
<rect width="7.95257" height="1.37057" transform="matrix(-1 0 0 1 222.651 134.8)" fill="#954E02"/>
<rect width="7.95257" height="15.7614" transform="matrix(-1 0 0 1 222.651 88.2012)" fill="#503DDD"/>
<rect width="8.61428" height="91.1422" transform="matrix(-1 0 0 1 223.254 44.8105)" fill="#2188DD"/>
<path d="M76.4975 150.805C78.0671 150.815 79.1217 149.736 79.1182 148.297C79.1217 146.923 78.1416 145.929 76.8668 145.929C76.0855 145.929 75.3966 146.309 75.0486 146.934H74.9989C75.0024 145.403 75.5635 144.473 76.572 144.473C77.197 144.473 77.6196 144.835 77.7546 145.393H79.0507C78.8945 144.217 77.9463 143.333 76.572 143.333C74.8249 143.333 73.7205 144.789 73.7205 147.275C73.7169 149.942 75.1019 150.797 76.4975 150.805ZM76.4903 149.739C75.7126 149.739 75.1445 149.096 75.1409 148.336C75.148 147.573 75.7375 146.934 76.5081 146.934C77.2787 146.934 77.8433 147.545 77.8398 148.326C77.8433 149.121 77.2609 149.739 76.4903 149.739ZM83.3014 143.091H82.1757L79.832 151.799H80.9577L83.3014 143.091ZM84.3739 150.705H85.7411L88.8305 144.558V143.432H83.8767V144.533H87.4669V144.583L84.3739 150.705Z" fill="#B0B1C4"/>
<rect width="7.95257" height="26.3873" transform="matrix(-1 0 0 1 85.2354 109.783)" fill="#27A430"/>
<rect width="7.95257" height="15.7201" transform="matrix(-1 0 0 1 85.2354 120.45)" fill="#FD8D42"/>
<rect width="7.95257" height="5.05288" transform="matrix(-1 0 0 1 85.2354 131.117)" fill="#00A390"/>
<rect width="7.95257" height="2.80714" transform="matrix(-1 0 0 1 85.2354 133.363)" fill="#DB0196"/>
<rect width="7.95257" height="1.12286" transform="matrix(-1 0 0 1 85.2354 135.047)" fill="#954E02"/>
<rect width="7.95257" height="12.9129" transform="matrix(-1 0 0 1 85.2354 96.8701)" fill="#503DDD"/>
<rect width="8.61428" height="74.6707" transform="matrix(-1 0 0 1 85.4255 61.2822)" fill="#2188DD"/>
<path d="M103.597 150.806C105.166 150.817 106.221 149.738 106.217 148.299C106.221 146.925 105.241 145.931 103.966 145.931C103.185 145.931 102.496 146.311 102.148 146.936H102.098C102.102 145.405 102.663 144.475 103.671 144.475C104.296 144.475 104.719 144.837 104.854 145.395H106.15C105.994 144.219 105.045 143.335 103.671 143.335C101.924 143.335 100.82 144.791 100.82 147.277C100.816 149.944 102.201 150.799 103.597 150.806ZM103.589 149.741C102.812 149.741 102.244 149.098 102.24 148.338C102.247 147.575 102.837 146.936 103.607 146.936C104.378 146.936 104.942 147.547 104.939 148.328C104.942 149.123 104.36 149.741 103.589 149.741ZM110.401 143.093H109.275L106.931 151.801H108.057L110.401 143.093ZM113.792 150.806C115.365 150.806 116.491 149.94 116.494 148.757C116.491 147.848 115.82 147.088 114.974 146.946V146.897C115.709 146.733 116.221 146.073 116.224 145.284C116.221 144.166 115.191 143.335 113.792 143.335C112.382 143.335 111.352 144.162 111.356 145.284C111.352 146.073 111.857 146.733 112.606 146.897V146.946C111.746 147.088 111.082 147.848 111.086 148.757C111.082 149.94 112.205 150.806 113.792 150.806ZM113.792 149.791C112.968 149.791 112.435 149.336 112.442 148.665C112.435 147.969 113.007 147.475 113.792 147.475C114.566 147.475 115.134 147.973 115.141 148.665C115.134 149.336 114.605 149.791 113.792 149.791ZM113.792 146.478C113.117 146.478 112.634 146.041 112.641 145.409C112.634 144.784 113.103 144.365 113.792 144.365C114.47 144.365 114.935 144.784 114.942 145.409C114.935 146.044 114.456 146.478 113.792 146.478Z" fill="#B0B1C4"/>
<rect width="7.95257" height="27.5514" transform="matrix(-1 0 0 1 112.627 108.62)" fill="#27A430"/>
<rect width="7.95257" height="16.4136" transform="matrix(-1 0 0 1 112.627 119.758)" fill="#FD8D42"/>
<rect width="7.95257" height="5.27581" transform="matrix(-1 0 0 1 112.627 130.896)" fill="#00A390"/>
<rect width="7.95257" height="2.931" transform="matrix(-1 0 0 1 112.627 133.241)" fill="#DB0196"/>
<rect width="7.95257" height="1.17241" transform="matrix(-1 0 0 1 112.627 134.999)" fill="#954E02"/>
<rect width="7.95257" height="13.4826" transform="matrix(-1 0 0 1 112.627 95.1377)" fill="#503DDD"/>
<rect width="8.61428" height="77.965" transform="matrix(-1 0 0 1 112.704 57.9893)" fill="#2188DD"/>
<path d="M130.974 150.805C132.544 150.816 133.598 149.737 133.595 148.298C133.598 146.924 132.618 145.93 131.343 145.93C130.562 145.93 129.873 146.31 129.525 146.935H129.476C129.479 145.404 130.04 144.474 131.049 144.474C131.674 144.474 132.096 144.836 132.231 145.394H133.527C133.371 144.218 132.423 143.334 131.049 143.334C129.302 143.334 128.197 144.79 128.197 147.276C128.194 149.943 129.579 150.798 130.974 150.805ZM130.967 149.74C130.189 149.74 129.621 149.097 129.618 148.337C129.625 147.574 130.214 146.935 130.985 146.935C131.755 146.935 132.32 147.546 132.316 148.327C132.32 149.122 131.738 149.74 130.967 149.74ZM137.778 143.092H136.652L134.309 151.8H135.434L137.778 143.092ZM141.109 143.334C139.532 143.323 138.485 144.406 138.485 145.827C138.488 147.198 139.465 148.188 140.74 148.188C141.525 148.188 142.206 147.808 142.558 147.183H142.608C142.604 148.739 142.039 149.666 141.035 149.666C140.406 149.666 139.983 149.303 139.852 148.725H138.556C138.705 149.928 139.657 150.805 141.035 150.805C142.778 150.805 143.89 149.35 143.886 146.846C143.883 144.197 142.505 143.341 141.109 143.334ZM141.113 144.399C141.89 144.399 142.462 145.046 142.462 145.788C142.466 146.541 141.865 147.187 141.098 147.187C140.324 147.187 139.767 146.576 139.763 145.798C139.763 145.017 140.342 144.399 141.113 144.399Z" fill="#B0B1C4"/>
<rect width="7.95257" height="39.1929" transform="matrix(-1 0 0 1 140.02 96.9775)" fill="#27A430"/>
<rect width="7.95257" height="23.3489" transform="matrix(-1 0 0 1 140.02 112.822)" fill="#FD8D42"/>
<rect width="7.95257" height="7.50503" transform="matrix(-1 0 0 1 140.02 128.666)" fill="#00A390"/>
<rect width="7.95257" height="4.16946" transform="matrix(-1 0 0 1 140.02 132.002)" fill="#DB0196"/>
<rect width="7.95257" height="1.6678" transform="matrix(-1 0 0 1 140.02 134.503)" fill="#954E02"/>
<rect width="7.95257" height="19.1795" transform="matrix(-1 0 0 1 140.02 77.7988)" fill="#503DDD"/>
<rect width="7.89642" height="110.908" transform="matrix(-1 0 0 1 139.982 25.0459)" fill="#2188DD"/>
<path d="M155.871 150.806C157.441 150.817 158.495 149.738 158.492 148.299C158.495 146.925 157.515 145.931 156.24 145.931C155.459 145.931 154.77 146.311 154.422 146.936H154.373C154.376 145.405 154.937 144.475 155.946 144.475C156.571 144.475 156.993 144.837 157.128 145.395H158.424C158.268 144.219 157.32 143.335 155.946 143.335C154.199 143.335 153.094 144.791 153.094 147.277C153.091 149.944 154.476 150.799 155.871 150.806ZM155.864 149.741C155.086 149.741 154.518 149.098 154.515 148.338C154.522 147.575 155.111 146.936 155.882 146.936C156.652 146.936 157.217 147.547 157.213 148.328C157.217 149.123 156.635 149.741 155.864 149.741ZM162.675 143.093H161.549L159.206 151.801H160.331L162.675 143.093ZM166.439 143.434H165.186L163.378 144.596V145.803L165.079 144.716H165.122V150.707H166.439V143.434ZM170.974 150.846C172.728 150.849 173.776 149.464 173.776 147.078C173.776 144.706 172.721 143.335 170.974 143.335C169.227 143.335 168.176 144.702 168.172 147.078C168.172 149.461 169.22 150.846 170.974 150.846ZM170.974 149.734C170.069 149.734 169.5 148.825 169.504 147.078C169.507 145.345 170.072 144.432 170.974 144.432C171.88 144.432 172.444 145.345 172.448 147.078C172.448 148.825 171.883 149.734 170.974 149.734Z" fill="#B0B1C4"/>
<rect width="7.95257" height="28.5215" transform="matrix(-1 0 0 1 167.412 107.65)" fill="#27A430"/>
<rect width="7.95257" height="16.9915" transform="matrix(-1 0 0 1 167.412 119.18)" fill="#FD8D42"/>
<rect width="7.95257" height="5.46157" transform="matrix(-1 0 0 1 167.412 130.71)" fill="#00A390"/>
<rect width="7.95257" height="3.0342" transform="matrix(-1 0 0 1 167.412 133.138)" fill="#DB0196"/>
<rect width="7.95257" height="1.21369" transform="matrix(-1 0 0 1 167.412 134.958)" fill="#954E02"/>
<rect width="7.95257" height="13.9574" transform="matrix(-1 0 0 1 167.412 93.6934)" fill="#503DDD"/>
<rect width="8.61428" height="80.7103" transform="matrix(-1 0 0 1 167.979 55.2441)" fill="#2188DD"/>
<rect x="76.811" y="61.2832" width="8.61428" height="61.4935" fill="#3DC7F6"/>
<rect x="49.5" y="63" width="8.8" height="58" fill="#3DC7F6"/>
<rect x="104.09" y="57.9893" width="8.61428" height="58.7483" fill="#3DC7F6"/>
<rect x="132.086" y="25.0459" width="8.61428" height="61.4935" fill="#3DC7F6"/>
<rect x="76.811" y="61.2832" width="8.61428" height="38.4335" fill="#A3E9FF"/>
<rect x="49.5" y="63" width="8.8" height="37" fill="#A3E9FF"/>
<rect x="104.09" y="57.9893" width="8.61428" height="36.2373" fill="#A3E9FF"/>
<rect x="132.086" y="25.0459" width="8.61428" height="37.8844" fill="#A3E9FF"/>
<rect x="159.365" y="55.2432" width="8.61428" height="58.7483" fill="#3DC7F6"/>
<rect x="159.365" y="55.2432" width="8.61428" height="36.2373" fill="#A3E9FF"/>
<rect x="186.643" y="55.2432" width="8.61428" height="54.905" fill="#3DC7F6"/>
<rect x="214.639" y="44.8115" width="8.61428" height="63.1407" fill="#3DC7F6"/>
<rect x="186.643" y="55.2432" width="8.61428" height="34.0411" fill="#A3E9FF"/>
<rect x="214.639" y="44.8115" width="8.61428" height="39.5316" fill="#A3E9FF"/>
</g>
<g filter="url(#filter0_d)">
<path d="M135.956 4.46046C136.355 3.89951 137.188 3.89951 137.586 4.46046L148.441 19.7343C148.911 20.3964 148.438 21.3136 147.626 21.3136H125.916C125.104 21.3136 124.631 20.3964 125.101 19.7343L135.956 4.46046Z" fill="#CF2318"/>
</g>
<path d="M132.5 15.0304C132.5 13.0974 134.067 11.5304 136 11.5304V11.5304V11V11.5304V11.5304C137.933 11.5304 139.5 13.0974 139.5 15.0304V18H135.259H136.726V19H135.259V18H132.5V15.0304Z" stroke="#F3F3FA" stroke-linecap="round" stroke-linejoin="round"/>
<path opacity="0.5" d="M136 12.5V12.5C134.619 12.5 133.5 13.6193 133.5 15V15.5" stroke="#F3F3FA" stroke-linecap="round" stroke-linejoin="round"/>
<path d="M193.881 49H196.509C198.227 49 198.938 48.1619 198.938 47.0682C198.938 45.9176 198.142 45.2926 197.474 45.25V45.179C198.099 45.0085 198.653 44.5966 198.653 43.6591C198.653 42.5938 197.943 41.7273 196.423 41.7273H193.881V49ZM194.761 48.2188V45.6903H196.551C197.503 45.6903 198.099 46.3295 198.099 47.0682C198.099 47.7074 197.659 48.2188 196.509 48.2188H194.761ZM194.761 44.9233V42.5085H196.423C197.389 42.5085 197.815 43.0199 197.815 43.6591C197.815 44.4261 197.19 44.9233 196.395 44.9233H194.761ZM203.708 46.7699C203.708 47.7926 202.927 48.2614 202.302 48.2614C201.606 48.2614 201.109 47.75 201.109 46.9545V43.5455H200.271V47.0114C200.271 48.4034 201.01 49.071 202.032 49.071C202.856 49.071 203.396 48.6307 203.652 48.0767H203.708V49H204.547V43.5455H203.708V46.7699ZM208.141 49.1136C209.192 49.1136 209.547 48.4602 209.732 48.1619H209.831V49H210.641V41.7273H209.803V44.4119H209.732C209.547 44.1278 209.221 43.4744 208.155 43.4744C206.778 43.4744 205.826 44.5682 205.826 46.2869C205.826 48.0199 206.778 49.1136 208.141 49.1136ZM208.255 48.3608C207.204 48.3608 206.664 47.4375 206.664 46.2727C206.664 45.1222 207.189 44.2273 208.255 44.2273C209.278 44.2273 209.817 45.0511 209.817 46.2727C209.817 47.5085 209.263 48.3608 208.255 48.3608ZM214.494 51.1591C215.801 51.1591 216.852 50.5625 216.852 49.1562V43.5455H216.042V44.4119H215.957C215.773 44.1278 215.432 43.4744 214.366 43.4744C212.988 43.4744 212.037 44.5682 212.037 46.2443C212.037 47.9489 213.031 48.9148 214.352 48.9148C215.417 48.9148 215.758 48.2898 215.943 47.9915H216.014V49.0994C216.014 50.0085 215.375 50.4205 214.494 50.4205C213.503 50.4205 213.155 49.8984 212.932 49.5966L212.264 50.0653C212.605 50.6371 213.276 51.1591 214.494 51.1591ZM214.466 48.1619C213.415 48.1619 212.875 47.3665 212.875 46.2301C212.875 45.1222 213.4 44.2273 214.466 44.2273C215.488 44.2273 216.028 45.0511 216.028 46.2301C216.028 47.4375 215.474 48.1619 214.466 48.1619ZM220.673 49.1136C221.781 49.1136 222.591 48.5597 222.846 47.7358L222.037 47.5085C221.824 48.0767 221.33 48.3608 220.673 48.3608C219.689 48.3608 219.011 47.7251 218.972 46.5568H222.932V46.2017C222.932 44.1705 221.724 43.4744 220.588 43.4744C219.111 43.4744 218.131 44.6392 218.131 46.3153C218.131 47.9915 219.096 49.1136 220.673 49.1136ZM218.972 45.8324C219.029 44.9837 219.629 44.2273 220.588 44.2273C221.497 44.2273 222.079 44.9091 222.079 45.8324H218.972ZM226.579 43.5455H225.414V42.2386H224.576V43.5455H223.752V44.2557H224.576V47.6648C224.576 48.6165 225.343 49.071 226.053 49.071C226.366 49.071 226.564 49.0142 226.678 48.9716L226.508 48.2188C226.437 48.233 226.323 48.2614 226.138 48.2614C225.769 48.2614 225.414 48.1477 225.414 47.4375V44.2557H226.579V43.5455Z" fill="#383946"/>
<path d="M193 53H371" stroke="#CF2318" stroke-linecap="round" stroke-linejoin="round"/>
<defs>
<filter id="filter0_d" x="120.915" y="0.0400391" width="31.7128" height="25.2738" filterUnits="userSpaceOnUse" color-interpolation-filters="sRGB">
<feFlood flood-opacity="0" result="BackgroundImageFix"/>
<feColorMatrix in="SourceAlpha" type="matrix" values="0 0 0 0 0 0 0 0 0 0 0 0 0 0 0 0 0 0 127 0"/>
<feOffset/>
<feGaussianBlur stdDeviation="2"/>
<feColorMatrix type="matrix" values="0 0 0 0 0.811765 0 0 0 0 0.137255 0 0 0 0 0.0941176 0 0 0 0.5 0"/>
<feBlend mode="normal" in2="BackgroundImageFix" result="effect1_dropShadow"/>
<feBlend mode="normal" in="SourceGraphic" in2="effect1_dropShadow" result="shape"/>
</filter>
</defs>
</svg>
