<svg width="372" height="187" viewBox="0 0 372 187" fill="none" xmlns="http://www.w3.org/2000/svg">
<path d="M5.58 59.85C5.58 60.3767 5.39 60.82 5.01 61.18C4.63667 61.54 4.14 61.76 3.52 61.84V62.55C3.52 62.6834 3.48 62.79 3.4 62.87C3.32667 62.95 3.22667 62.99 3.1 62.99C2.97333 62.99 2.87 62.95 2.79 62.87C2.71667 62.79 2.68 62.6834 2.68 62.55V61.86C2.28 61.8267 1.89333 61.7467 1.52 61.62C1.15333 61.4867 0.84 61.3067 0.58 61.08C0.453333 60.9867 0.39 60.8534 0.39 60.68C0.39 60.56 0.42 60.46 0.48 60.38C0.546667 60.2934 0.626667 60.25 0.72 60.25C0.813333 60.25 0.926667 60.2934 1.06 60.38C1.7 60.8134 2.34667 61.03 3 61.03C3.49333 61.03 3.87333 60.93 4.14 60.73C4.41333 60.53 4.55 60.2467 4.55 59.88C4.55 59.66 4.47667 59.4834 4.33 59.35C4.19 59.21 4.01 59.1 3.79 59.02C3.57667 58.94 3.28 58.8534 2.9 58.76C2.4 58.6334 1.99333 58.5067 1.68 58.38C1.36667 58.2534 1.09667 58.0567 0.87 57.79C0.65 57.5234 0.54 57.17 0.54 56.73C0.54 56.19 0.733333 55.7334 1.12 55.36C1.51333 54.98 2.03 54.7534 2.67 54.68V53.98C2.67 53.8467 2.70667 53.74 2.78 53.66C2.86 53.58 2.96333 53.54 3.09 53.54C3.21667 53.54 3.31667 53.58 3.39 53.66C3.47 53.74 3.51 53.8467 3.51 53.98V54.68C3.85 54.7134 4.17333 54.7967 4.48 54.93C4.79333 55.0567 5.07 55.23 5.31 55.45C5.44333 55.5567 5.51 55.69 5.51 55.85C5.51 55.9634 5.47667 56.0634 5.41 56.15C5.34333 56.2367 5.26333 56.28 5.17 56.28C5.07667 56.28 4.96333 56.2367 4.83 56.15C4.54333 55.93 4.27 55.7667 4.01 55.66C3.75 55.5534 3.44333 55.5 3.09 55.5C2.63 55.5 2.26333 55.6067 1.99 55.82C1.71667 56.0334 1.58 56.3234 1.58 56.69C1.58 56.9367 1.65667 57.1367 1.81 57.29C1.96333 57.4434 2.15333 57.5634 2.38 57.65C2.60667 57.73 2.91667 57.8167 3.31 57.91C3.79667 58.03 4.19 58.1534 4.49 58.28C4.79 58.4 5.04667 58.5867 5.26 58.84C5.47333 59.0867 5.58 59.4234 5.58 59.85ZM11.9928 57.32C12.4128 57.32 12.7895 57.4167 13.1228 57.61C13.4561 57.7967 13.7128 58.06 13.8928 58.4C14.0795 58.74 14.1728 59.13 14.1728 59.57C14.1728 60.01 14.0728 60.4067 13.8728 60.76C13.6728 61.1067 13.3961 61.38 13.0428 61.58C12.6961 61.7734 12.2995 61.87 11.8528 61.87C10.9795 61.87 10.3061 61.5734 9.83281 60.98C9.36615 60.38 9.13281 59.5267 9.13281 58.42C9.13281 57.64 9.24281 56.97 9.46281 56.41C9.68281 55.8434 9.99948 55.41 10.4128 55.11C10.8261 54.81 11.3161 54.66 11.8828 54.66C12.2628 54.66 12.6428 54.73 13.0228 54.87C13.4028 55.01 13.7261 55.2034 13.9928 55.45C14.1261 55.5634 14.1928 55.6967 14.1928 55.85C14.1928 55.97 14.1595 56.0734 14.0928 56.16C14.0261 56.24 13.9461 56.28 13.8528 56.28C13.7928 56.28 13.7361 56.27 13.6828 56.25C13.6361 56.23 13.5795 56.1967 13.5128 56.15C12.9528 55.7167 12.4195 55.5 11.9128 55.5C11.3595 55.5 10.9295 55.7567 10.6228 56.27C10.3161 56.7767 10.1628 57.4867 10.1628 58.4V58.42C10.3095 58.08 10.5461 57.8134 10.8728 57.62C11.2061 57.42 11.5795 57.32 11.9928 57.32ZM11.8028 61.03C12.2161 61.03 12.5461 60.9 12.7928 60.64C13.0461 60.3734 13.1728 60.0234 13.1728 59.59C13.1728 59.1634 13.0461 58.82 12.7928 58.56C12.5461 58.2934 12.2161 58.16 11.8028 58.16C11.3828 58.16 11.0395 58.2934 10.7728 58.56C10.5128 58.82 10.3828 59.1634 10.3828 59.59C10.3828 60.0234 10.5128 60.3734 10.7728 60.64C11.0328 60.9 11.3761 61.03 11.8028 61.03ZM17.6191 61.87C16.7991 61.87 16.1725 61.5634 15.7391 60.95C15.3125 60.3367 15.0991 59.4434 15.0991 58.27C15.0991 57.09 15.3125 56.1934 15.7391 55.58C16.1725 54.9667 16.7991 54.66 17.6191 54.66C18.4391 54.66 19.0625 54.9667 19.4891 55.58C19.9225 56.1867 20.1391 57.08 20.1391 58.26C20.1391 59.44 19.9225 60.3367 19.4891 60.95C19.0625 61.5634 18.4391 61.87 17.6191 61.87ZM17.6191 61.04C18.1325 61.04 18.5091 60.8167 18.7491 60.37C18.9891 59.9234 19.1091 59.22 19.1091 58.26C19.1091 57.3 18.9891 56.6 18.7491 56.16C18.5091 55.7134 18.1325 55.49 17.6191 55.49C17.1058 55.49 16.7291 55.7134 16.4891 56.16C16.2491 56.6 16.1291 57.3 16.1291 58.26C16.1291 59.2134 16.2491 59.9167 16.4891 60.37C16.7291 60.8167 17.1058 61.04 17.6191 61.04ZM23.6152 61.87C22.7952 61.87 22.1686 61.5634 21.7352 60.95C21.3086 60.3367 21.0952 59.4434 21.0952 58.27C21.0952 57.09 21.3086 56.1934 21.7352 55.58C22.1686 54.9667 22.7952 54.66 23.6152 54.66C24.4352 54.66 25.0586 54.9667 25.4852 55.58C25.9186 56.1867 26.1352 57.08 26.1352 58.26C26.1352 59.44 25.9186 60.3367 25.4852 60.95C25.0586 61.5634 24.4352 61.87 23.6152 61.87ZM23.6152 61.04C24.1286 61.04 24.5052 60.8167 24.7452 60.37C24.9852 59.9234 25.1052 59.22 25.1052 58.26C25.1052 57.3 24.9852 56.6 24.7452 56.16C24.5052 55.7134 24.1286 55.49 23.6152 55.49C23.1019 55.49 22.7252 55.7134 22.4852 56.16C22.2452 56.6 22.1252 57.3 22.1252 58.26C22.1252 59.2134 22.2452 59.9167 22.4852 60.37C22.7252 60.8167 23.1019 61.04 23.6152 61.04ZM29.6113 61.87C28.7913 61.87 28.1647 61.5634 27.7313 60.95C27.3047 60.3367 27.0913 59.4434 27.0913 58.27C27.0913 57.09 27.3047 56.1934 27.7313 55.58C28.1647 54.9667 28.7913 54.66 29.6113 54.66C30.4313 54.66 31.0547 54.9667 31.4813 55.58C31.9147 56.1867 32.1313 57.08 32.1313 58.26C32.1313 59.44 31.9147 60.3367 31.4813 60.95C31.0547 61.5634 30.4313 61.87 29.6113 61.87ZM29.6113 61.04C30.1247 61.04 30.5013 60.8167 30.7413 60.37C30.9813 59.9234 31.1013 59.22 31.1013 58.26C31.1013 57.3 30.9813 56.6 30.7413 56.16C30.5013 55.7134 30.1247 55.49 29.6113 55.49C29.098 55.49 28.7213 55.7134 28.4813 56.16C28.2413 56.6 28.1213 57.3 28.1213 58.26C28.1213 59.2134 28.2413 59.9167 28.4813 60.37C28.7213 60.8167 29.098 61.04 29.6113 61.04ZM5.58 115.85C5.58 116.377 5.39 116.82 5.01 117.18C4.63667 117.54 4.14 117.76 3.52 117.84V118.55C3.52 118.683 3.48 118.79 3.4 118.87C3.32667 118.95 3.22667 118.99 3.1 118.99C2.97333 118.99 2.87 118.95 2.79 118.87C2.71667 118.79 2.68 118.683 2.68 118.55V117.86C2.28 117.827 1.89333 117.747 1.52 117.62C1.15333 117.487 0.84 117.307 0.58 117.08C0.453333 116.987 0.39 116.853 0.39 116.68C0.39 116.56 0.42 116.46 0.48 116.38C0.546667 116.293 0.626667 116.25 0.72 116.25C0.813333 116.25 0.926667 116.293 1.06 116.38C1.7 116.813 2.34667 117.03 3 117.03C3.49333 117.03 3.87333 116.93 4.14 116.73C4.41333 116.53 4.55 116.247 4.55 115.88C4.55 115.66 4.47667 115.483 4.33 115.35C4.19 115.21 4.01 115.1 3.79 115.02C3.57667 114.94 3.28 114.853 2.9 114.76C2.4 114.633 1.99333 114.507 1.68 114.38C1.36667 114.253 1.09667 114.057 0.87 113.79C0.65 113.523 0.54 113.17 0.54 112.73C0.54 112.19 0.733333 111.733 1.12 111.36C1.51333 110.98 2.03 110.753 2.67 110.68V109.98C2.67 109.847 2.70667 109.74 2.78 109.66C2.86 109.58 2.96333 109.54 3.09 109.54C3.21667 109.54 3.31667 109.58 3.39 109.66C3.47 109.74 3.51 109.847 3.51 109.98V110.68C3.85 110.713 4.17333 110.797 4.48 110.93C4.79333 111.057 5.07 111.23 5.31 111.45C5.44333 111.557 5.51 111.69 5.51 111.85C5.51 111.963 5.47667 112.063 5.41 112.15C5.34333 112.237 5.26333 112.28 5.17 112.28C5.07667 112.28 4.96333 112.237 4.83 112.15C4.54333 111.93 4.27 111.767 4.01 111.66C3.75 111.553 3.44333 111.5 3.09 111.5C2.63 111.5 2.26333 111.607 1.99 111.82C1.71667 112.033 1.58 112.323 1.58 112.69C1.58 112.937 1.65667 113.137 1.81 113.29C1.96333 113.443 2.15333 113.563 2.38 113.65C2.60667 113.73 2.91667 113.817 3.31 113.91C3.79667 114.03 4.19 114.153 4.49 114.28C4.79 114.4 5.04667 114.587 5.26 114.84C5.47333 115.087 5.58 115.423 5.58 115.85ZM12.6428 114.17C13.0695 114.29 13.3928 114.497 13.6128 114.79C13.8328 115.077 13.9428 115.44 13.9428 115.88C13.9428 116.493 13.7261 116.977 13.2928 117.33C12.8661 117.683 12.2861 117.86 11.5528 117.86C11.1195 117.86 10.7028 117.79 10.3028 117.65C9.90948 117.51 9.57615 117.317 9.30281 117.07C9.16948 116.963 9.10281 116.83 9.10281 116.67C9.10281 116.55 9.13615 116.45 9.20281 116.37C9.26948 116.283 9.34948 116.24 9.44281 116.24C9.54281 116.24 9.65615 116.283 9.78281 116.37C10.0695 116.583 10.3495 116.747 10.6228 116.86C10.9028 116.967 11.2028 117.02 11.5228 117.02C12.4695 117.02 12.9428 116.617 12.9428 115.81C12.9428 115.417 12.8161 115.123 12.5628 114.93C12.3161 114.73 11.9395 114.63 11.4328 114.63H10.8828C10.7561 114.63 10.6561 114.59 10.5828 114.51C10.5095 114.423 10.4728 114.323 10.4728 114.21C10.4728 114.103 10.5095 114.01 10.5828 113.93C10.6561 113.843 10.7561 113.8 10.8828 113.8H11.2728C11.7595 113.8 12.1295 113.7 12.3828 113.5C12.6428 113.293 12.7728 112.993 12.7728 112.6C12.7728 112.253 12.6661 111.983 12.4528 111.79C12.2461 111.597 11.9528 111.5 11.5728 111.5C11.0128 111.5 10.4528 111.717 9.89281 112.15C9.76615 112.237 9.65281 112.28 9.55281 112.28C9.45948 112.28 9.37948 112.24 9.31281 112.16C9.24615 112.073 9.21281 111.97 9.21281 111.85C9.21281 111.69 9.27948 111.557 9.41281 111.45C9.68615 111.203 10.0161 111.01 10.4028 110.87C10.7961 110.73 11.1995 110.66 11.6128 110.66C12.2728 110.66 12.7995 110.827 13.1928 111.16C13.5861 111.493 13.7795 111.94 13.7728 112.5C13.7728 112.887 13.6728 113.23 13.4728 113.53C13.2728 113.823 12.9961 114.037 12.6428 114.17ZM17.6289 117.87C16.8089 117.87 16.1822 117.563 15.7489 116.95C15.3222 116.337 15.1089 115.443 15.1089 114.27C15.1089 113.09 15.3222 112.193 15.7489 111.58C16.1822 110.967 16.8089 110.66 17.6289 110.66C18.4489 110.66 19.0722 110.967 19.4989 111.58C19.9322 112.187 20.1489 113.08 20.1489 114.26C20.1489 115.44 19.9322 116.337 19.4989 116.95C19.0722 117.563 18.4489 117.87 17.6289 117.87ZM17.6289 117.04C18.1422 117.04 18.5189 116.817 18.7589 116.37C18.9989 115.923 19.1189 115.22 19.1189 114.26C19.1189 113.3 18.9989 112.6 18.7589 112.16C18.5189 111.713 18.1422 111.49 17.6289 111.49C17.1156 111.49 16.7389 111.713 16.4989 112.16C16.2589 112.6 16.1389 113.3 16.1389 114.26C16.1389 115.213 16.2589 115.917 16.4989 116.37C16.7389 116.817 17.1156 117.04 17.6289 117.04ZM23.625 117.87C22.805 117.87 22.1783 117.563 21.745 116.95C21.3183 116.337 21.105 115.443 21.105 114.27C21.105 113.09 21.3183 112.193 21.745 111.58C22.1783 110.967 22.805 110.66 23.625 110.66C24.445 110.66 25.0683 110.967 25.495 111.58C25.9283 112.187 26.145 113.08 26.145 114.26C26.145 115.44 25.9283 116.337 25.495 116.95C25.0683 117.563 24.445 117.87 23.625 117.87ZM23.625 117.04C24.1383 117.04 24.515 116.817 24.755 116.37C24.995 115.923 25.115 115.22 25.115 114.26C25.115 113.3 24.995 112.6 24.755 112.16C24.515 111.713 24.1383 111.49 23.625 111.49C23.1117 111.49 22.735 111.713 22.495 112.16C22.255 112.6 22.135 113.3 22.135 114.26C22.135 115.213 22.255 115.917 22.495 116.37C22.735 116.817 23.1117 117.04 23.625 117.04ZM29.6211 117.87C28.8011 117.87 28.1744 117.563 27.7411 116.95C27.3144 116.337 27.1011 115.443 27.1011 114.27C27.1011 113.09 27.3144 112.193 27.7411 111.58C28.1744 110.967 28.8011 110.66 29.6211 110.66C30.4411 110.66 31.0644 110.967 31.4911 111.58C31.9244 112.187 32.1411 113.08 32.1411 114.26C32.1411 115.44 31.9244 116.337 31.4911 116.95C31.0644 117.563 30.4411 117.87 29.6211 117.87ZM29.6211 117.04C30.1344 117.04 30.5111 116.817 30.7511 116.37C30.9911 115.923 31.1111 115.22 31.1111 114.26C31.1111 113.3 30.9911 112.6 30.7511 112.16C30.5111 111.713 30.1344 111.49 29.6211 111.49C29.1078 111.49 28.7311 111.713 28.4911 112.16C28.2511 112.6 28.1311 113.3 28.1311 114.26C28.1311 115.213 28.2511 115.917 28.4911 116.37C28.7311 116.817 29.1078 117.04 29.6211 117.04ZM5.58 171.85C5.58 172.377 5.39 172.82 5.01 173.18C4.63667 173.54 4.14 173.76 3.52 173.84V174.55C3.52 174.683 3.48 174.79 3.4 174.87C3.32667 174.95 3.22667 174.99 3.1 174.99C2.97333 174.99 2.87 174.95 2.79 174.87C2.71667 174.79 2.68 174.683 2.68 174.55V173.86C2.28 173.827 1.89333 173.747 1.52 173.62C1.15333 173.487 0.84 173.307 0.58 173.08C0.453333 172.987 0.39 172.853 0.39 172.68C0.39 172.56 0.42 172.46 0.48 172.38C0.546667 172.293 0.626667 172.25 0.72 172.25C0.813333 172.25 0.926667 172.293 1.06 172.38C1.7 172.813 2.34667 173.03 3 173.03C3.49333 173.03 3.87333 172.93 4.14 172.73C4.41333 172.53 4.55 172.247 4.55 171.88C4.55 171.66 4.47667 171.483 4.33 171.35C4.19 171.21 4.01 171.1 3.79 171.02C3.57667 170.94 3.28 170.853 2.9 170.76C2.4 170.633 1.99333 170.507 1.68 170.38C1.36667 170.253 1.09667 170.057 0.87 169.79C0.65 169.523 0.54 169.17 0.54 168.73C0.54 168.19 0.733333 167.733 1.12 167.36C1.51333 166.98 2.03 166.753 2.67 166.68V165.98C2.67 165.847 2.70667 165.74 2.78 165.66C2.86 165.58 2.96333 165.54 3.09 165.54C3.21667 165.54 3.31667 165.58 3.39 165.66C3.47 165.74 3.51 165.847 3.51 165.98V166.68C3.85 166.713 4.17333 166.797 4.48 166.93C4.79333 167.057 5.07 167.23 5.31 167.45C5.44333 167.557 5.51 167.69 5.51 167.85C5.51 167.963 5.47667 168.063 5.41 168.15C5.34333 168.237 5.26333 168.28 5.17 168.28C5.07667 168.28 4.96333 168.237 4.83 168.15C4.54333 167.93 4.27 167.767 4.01 167.66C3.75 167.553 3.44333 167.5 3.09 167.5C2.63 167.5 2.26333 167.607 1.99 167.82C1.71667 168.033 1.58 168.323 1.58 168.69C1.58 168.937 1.65667 169.137 1.81 169.29C1.96333 169.443 2.15333 169.563 2.38 169.65C2.60667 169.73 2.91667 169.817 3.31 169.91C3.79667 170.03 4.19 170.153 4.49 170.28C4.79 170.4 5.04667 170.587 5.26 170.84C5.47333 171.087 5.58 171.423 5.58 171.85ZM11.6328 173.87C10.8128 173.87 10.1861 173.563 9.75281 172.95C9.32615 172.337 9.11281 171.443 9.11281 170.27C9.11281 169.09 9.32615 168.193 9.75281 167.58C10.1861 166.967 10.8128 166.66 11.6328 166.66C12.4528 166.66 13.0761 166.967 13.5028 167.58C13.9361 168.187 14.1528 169.08 14.1528 170.26C14.1528 171.44 13.9361 172.337 13.5028 172.95C13.0761 173.563 12.4528 173.87 11.6328 173.87ZM11.6328 173.04C12.1461 173.04 12.5228 172.817 12.7628 172.37C13.0028 171.923 13.1228 171.22 13.1228 170.26C13.1228 169.3 13.0028 168.6 12.7628 168.16C12.5228 167.713 12.1461 167.49 11.6328 167.49C11.1195 167.49 10.7428 167.713 10.5028 168.16C10.2628 168.6 10.1428 169.3 10.1428 170.26C10.1428 171.213 10.2628 171.917 10.5028 172.37C10.7428 172.817 11.1195 173.04 11.6328 173.04Z" fill="#9AA5B5"/>
<g opacity="0.8">
<path opacity="0.499674" d="M223.519 78.8853L255.653 70.3636L274.5 63.7104L307.706 59.02L341.095 49.3719L370.458 39.5052" stroke="#00ADE4" stroke-width="2" stroke-linecap="square" stroke-dasharray="1 4"/>
<path d="M293.379 184.805C294.949 184.816 296.003 183.737 296 182.298C296.003 180.924 295.023 179.93 293.748 179.93C292.967 179.93 292.278 180.31 291.93 180.935H291.88C291.884 179.404 292.445 178.474 293.454 178.474C294.079 178.474 294.501 178.836 294.636 179.394H295.932C295.776 178.218 294.828 177.334 293.454 177.334C291.706 177.334 290.602 178.79 290.602 181.276C290.599 183.943 291.983 184.798 293.379 184.805ZM293.372 183.74C292.594 183.74 292.026 183.097 292.023 182.337C292.03 181.574 292.619 180.935 293.39 180.935C294.16 180.935 294.725 181.546 294.721 182.327C294.725 183.122 294.143 183.74 293.372 183.74ZM300.183 177.092H299.057L296.714 185.8H297.839L300.183 177.092ZM303.947 177.433H302.694L300.886 178.595V179.802L302.587 178.715H302.63V184.706H303.947V177.433ZM308.319 177.334C306.742 177.323 305.694 178.406 305.694 179.827C305.698 181.198 306.674 182.188 307.949 182.188C308.734 182.188 309.416 181.808 309.768 181.183H309.817C309.814 182.739 309.249 183.666 308.244 183.666C307.616 183.666 307.193 183.303 307.062 182.725H305.765C305.915 183.928 306.866 184.805 308.244 184.805C309.988 184.805 311.099 183.35 311.096 180.846C311.092 178.197 309.714 177.341 308.319 177.334ZM308.322 178.399C309.1 178.399 309.672 179.046 309.672 179.788C309.675 180.541 309.075 181.187 308.308 181.187C307.534 181.187 306.976 180.576 306.973 179.798C306.973 179.017 307.552 178.399 308.322 178.399Z" fill="#B0B1C4"/>
<path d="M238.902 184.805C240.472 184.816 241.526 183.737 241.523 182.298C241.526 180.924 240.546 179.93 239.271 179.93C238.49 179.93 237.801 180.31 237.453 180.935H237.403C237.407 179.404 237.968 178.474 238.977 178.474C239.602 178.474 240.024 178.836 240.159 179.394H241.455C241.299 178.218 240.351 177.334 238.977 177.334C237.229 177.334 236.125 178.79 236.125 181.276C236.121 183.943 237.506 184.798 238.902 184.805ZM238.895 183.74C238.117 183.74 237.549 183.097 237.545 182.337C237.553 181.574 238.142 180.935 238.913 180.935C239.683 180.935 240.248 181.546 240.244 182.327C240.248 183.122 239.665 183.74 238.895 183.74ZM245.706 177.092H244.58L242.237 185.8H243.362L245.706 177.092ZM249.47 177.433H248.217L246.409 178.595V179.802L248.11 178.715H248.153V184.706H249.47V177.433ZM251.583 184.706H252.95L256.04 178.559V177.433H251.086V178.534H254.676V178.584L251.583 184.706Z" fill="#B0B1C4"/>
<path d="M319.975 184.805C321.545 184.816 322.6 183.737 322.596 182.298C322.6 180.924 321.619 179.93 320.345 179.93C319.563 179.93 318.874 180.31 318.526 180.935H318.477C318.48 179.404 319.041 178.474 320.05 178.474C320.675 178.474 321.097 178.836 321.232 179.394H322.529C322.372 178.218 321.424 177.334 320.05 177.334C318.303 177.334 317.198 178.79 317.198 181.276C317.195 183.943 318.58 184.798 319.975 184.805ZM319.968 183.74C319.19 183.74 318.622 183.097 318.619 182.337C318.626 181.574 319.215 180.935 319.986 180.935C320.756 180.935 321.321 181.546 321.318 182.327C321.321 183.122 320.739 183.74 319.968 183.74ZM326.779 177.092H325.654L323.31 185.8H324.435L326.779 177.092ZM327.585 184.706H332.571V183.605H329.404V183.555L330.657 182.281C332.07 180.924 332.461 180.264 332.461 179.443C332.461 178.225 331.47 177.334 330.007 177.334C328.565 177.334 327.543 178.229 327.543 179.61H328.796C328.796 178.868 329.265 178.403 329.989 178.403C330.682 178.403 331.197 178.825 331.197 179.511C331.197 180.118 330.828 180.551 330.11 181.279L327.585 183.754V184.706ZM336.484 184.845C338.239 184.848 339.286 183.463 339.286 181.077C339.286 178.705 338.232 177.334 336.484 177.334C334.737 177.334 333.686 178.701 333.683 181.077C333.683 183.46 334.73 184.845 336.484 184.845ZM336.484 183.733C335.579 183.733 335.011 182.824 335.014 181.077C335.018 179.344 335.582 178.431 336.484 178.431C337.39 178.431 337.955 179.344 337.958 181.077C337.958 182.824 337.394 183.733 336.484 183.733Z" fill="#B0B1C4"/>
<path d="M266.001 184.805C267.571 184.816 268.625 183.737 268.622 182.298C268.625 180.924 267.645 179.93 266.37 179.93C265.589 179.93 264.9 180.31 264.552 180.935H264.503C264.506 179.404 265.067 178.474 266.076 178.474C266.701 178.474 267.123 178.836 267.258 179.394H268.554C268.398 178.218 267.45 177.334 266.076 177.334C264.329 177.334 263.224 178.79 263.224 181.276C263.221 183.943 264.606 184.798 266.001 184.805ZM265.994 183.74C265.216 183.74 264.648 183.097 264.645 182.337C264.652 181.574 265.241 180.935 266.012 180.935C266.782 180.935 267.347 181.546 267.343 182.327C267.347 183.122 266.765 183.74 265.994 183.74ZM272.805 177.092H271.679L269.336 185.8H270.461L272.805 177.092ZM276.569 177.433H275.316L273.508 178.595V179.802L275.209 178.715H275.252V184.706H276.569V177.433ZM281.001 184.805C282.574 184.805 283.7 183.939 283.704 182.756C283.7 181.847 283.029 181.087 282.184 180.945V180.896C282.919 180.732 283.43 180.072 283.434 179.283C283.43 178.165 282.4 177.334 281.001 177.334C279.591 177.334 278.561 178.161 278.565 179.283C278.561 180.072 279.066 180.732 279.815 180.896V180.945C278.956 181.087 278.292 181.847 278.295 182.756C278.292 183.939 279.414 184.805 281.001 184.805ZM281.001 183.79C280.177 183.79 279.645 183.335 279.652 182.664C279.645 181.968 280.216 181.475 281.001 181.475C281.775 181.475 282.343 181.972 282.351 182.664C282.343 183.335 281.814 183.79 281.001 183.79ZM281.001 180.477C280.326 180.477 279.843 180.04 279.851 179.408C279.843 178.783 280.312 178.364 281.001 178.364C281.679 178.364 282.145 178.783 282.152 179.408C282.145 180.043 281.665 180.477 281.001 180.477Z" fill="#B0B1C4"/>
<path d="M348.3 184.805C349.87 184.816 350.924 183.737 350.921 182.298C350.924 180.924 349.944 179.93 348.669 179.93C347.888 179.93 347.199 180.31 346.851 180.935H346.801C346.805 179.404 347.366 178.474 348.375 178.474C349 178.474 349.422 178.836 349.557 179.394H350.853C350.697 178.218 349.749 177.334 348.375 177.334C346.627 177.334 345.523 178.79 345.523 181.276C345.519 183.943 346.904 184.798 348.3 184.805ZM348.293 183.74C347.515 183.74 346.947 183.097 346.943 182.337C346.951 181.574 347.54 180.935 348.311 180.935C349.081 180.935 349.646 181.546 349.642 182.327C349.646 183.122 349.063 183.74 348.293 183.74ZM355.104 177.092H353.978L351.634 185.8H352.76L355.104 177.092ZM355.91 184.706H360.896V183.605H357.728V183.555L358.982 182.281C360.395 180.924 360.786 180.264 360.786 179.443C360.786 178.225 359.795 177.334 358.332 177.334C356.89 177.334 355.867 178.229 355.867 179.61H357.121C357.121 178.868 357.59 178.403 358.314 178.403C359.007 178.403 359.522 178.825 359.522 179.511C359.522 180.118 359.152 180.551 358.435 181.279L355.91 183.754V184.706ZM365.079 177.433H363.826L362.018 178.595V179.802L363.719 178.715H363.762V184.706H365.079V177.433Z" fill="#B0B1C4"/>
<path d="M184.196 184.806C185.765 184.817 186.82 183.738 186.816 182.299C186.82 180.925 185.84 179.931 184.565 179.931C183.784 179.931 183.095 180.311 182.747 180.936H182.697C182.701 179.405 183.262 178.475 184.27 178.475C184.895 178.475 185.318 178.837 185.453 179.395H186.749C186.593 178.219 185.645 177.335 184.27 177.335C182.523 177.335 181.419 178.791 181.419 181.277C181.415 183.944 182.8 184.799 184.196 184.806ZM184.189 183.741C183.411 183.741 182.843 183.098 182.839 182.338C182.846 181.575 183.436 180.936 184.206 180.936C184.977 180.936 185.542 181.547 185.538 182.328C185.542 183.123 184.959 183.741 184.189 183.741ZM191 177.093H189.874L187.53 185.801H188.656L191 177.093ZM194.764 177.434H193.51L191.703 178.596V179.803L193.404 178.716H193.446V184.707H194.764V177.434ZM199.569 177.434H198.315L196.507 178.596V179.803L198.208 178.716H198.251V184.707H199.569V177.434Z" fill="#B0B1C4"/>
<rect width="7.95257" height="28.5215" transform="matrix(-1 0 0 1 194.804 141.65)" fill="#27A430"/>
<rect width="7.95257" height="16.9915" transform="matrix(-1 0 0 1 194.804 153.18)" fill="#FD8D42"/>
<rect width="7.95257" height="5.46157" transform="matrix(-1 0 0 1 194.804 164.71)" fill="#00A390"/>
<rect width="7.95257" height="3.0342" transform="matrix(-1 0 0 1 194.804 167.138)" fill="#DB0196"/>
<rect width="7.95257" height="1.21369" transform="matrix(-1 0 0 1 194.804 168.958)" fill="#954E02"/>
<rect width="7.95257" height="13.9574" transform="matrix(-1 0 0 1 194.804 127.693)" fill="#503DDD"/>
<rect width="8.61428" height="80.7103" transform="matrix(-1 0 0 1 195.257 89.2441)" fill="#2188DD"/>
<path d="M48.7973 184.806C50.3669 184.817 51.4215 183.738 51.418 182.299C51.4215 180.925 50.4414 179.931 49.1666 179.931C48.3853 179.931 47.6964 180.311 47.3484 180.936H47.2987C47.3022 179.405 47.8633 178.475 48.8718 178.475C49.4968 178.475 49.9194 178.837 50.0544 179.395H51.3505C51.1943 178.219 50.2461 177.335 48.8718 177.335C47.1247 177.335 46.0203 178.791 46.0203 181.277C46.0167 183.944 47.4017 184.799 48.7973 184.806ZM48.7902 183.741C48.0125 183.741 47.4443 183.098 47.4407 182.338C47.4478 181.575 48.0373 180.936 48.8079 180.936C49.5785 180.936 50.1431 181.547 50.1396 182.328C50.1431 183.123 49.5607 183.741 48.7902 183.741ZM55.6012 177.093H54.4755L52.1318 185.801H53.2575L55.6012 177.093ZM59.0707 184.806C60.6403 184.817 61.695 183.738 61.6914 182.299C61.695 180.925 60.7149 179.931 59.44 179.931C58.6588 179.931 57.9698 180.311 57.6218 180.936H57.5721C57.5757 179.405 58.1367 178.475 59.1453 178.475C59.7703 178.475 60.1929 178.837 60.3278 179.395H61.624C61.4677 178.219 60.5196 177.335 59.1453 177.335C57.3981 177.335 56.2937 178.791 56.2937 181.277C56.2902 183.944 57.6751 184.799 59.0707 184.806ZM59.0636 183.741C58.2859 183.741 57.7177 183.098 57.7142 182.338C57.7213 181.575 58.3107 180.936 59.0813 180.936C59.8519 180.936 60.4166 181.547 60.413 182.328C60.4166 183.123 59.8342 183.741 59.0636 183.741Z" fill="#B0B1C4"/>
<rect width="7.95257" height="25.6112" transform="matrix(-1 0 0 1 57.8428 144.56)" fill="#27A430"/>
<rect width="7.95257" height="15.2577" transform="matrix(-1 0 0 1 57.8428 154.913)" fill="#FD8D42"/>
<rect width="7.95257" height="4.90428" transform="matrix(-1 0 0 1 57.8428 165.268)" fill="#00A390"/>
<rect width="7.95257" height="2.7246" transform="matrix(-1 0 0 1 57.8428 167.447)" fill="#DB0196"/>
<rect width="7.95257" height="1.08984" transform="matrix(-1 0 0 1 57.8428 169.081)" fill="#954E02"/>
<rect width="7.95257" height="12.5331" transform="matrix(-1 0 0 1 57.8428 132.027)" fill="#503DDD"/>
<rect width="8.61428" height="72.4745" transform="matrix(-1 0 0 1 58.1465 97.4795)" fill="#2188DD"/>
<rect x="204.59" y="175.992" width="28.7143" height="10.981" rx="4" fill="#CDF4FE"/>
<path d="M211.203 184.805C212.773 184.815 213.827 183.736 213.824 182.297C213.827 180.923 212.847 179.929 211.572 179.929C210.791 179.929 210.102 180.309 209.754 180.934H209.704C209.708 179.403 210.269 178.473 211.278 178.473C211.903 178.473 212.325 178.835 212.46 179.393H213.756C213.6 178.217 212.652 177.333 211.278 177.333C209.53 177.333 208.426 178.789 208.426 181.275C208.422 183.942 209.807 184.797 211.203 184.805ZM211.196 183.739C210.418 183.739 209.85 183.096 209.846 182.336C209.854 181.573 210.443 180.934 211.214 180.934C211.984 180.934 212.549 181.545 212.545 182.326C212.549 183.121 211.967 183.739 211.196 183.739ZM218.007 177.091H216.881L214.538 185.799H215.663L218.007 177.091ZM221.771 177.432H220.518L218.71 178.594V179.801L220.411 178.714H220.454V184.705H221.771V177.432ZM226.281 184.805C227.851 184.815 228.905 183.736 228.902 182.297C228.905 180.923 227.925 179.929 226.65 179.929C225.869 179.929 225.18 180.309 224.832 180.934H224.783C224.786 179.403 225.347 178.473 226.356 178.473C226.981 178.473 227.403 178.835 227.538 179.393H228.834C228.678 178.217 227.73 177.333 226.356 177.333C224.609 177.333 223.504 178.789 223.504 181.275C223.501 183.942 224.886 184.797 226.281 184.805ZM226.274 183.739C225.496 183.739 224.928 183.096 224.925 182.336C224.932 181.573 225.521 180.934 226.292 180.934C227.062 180.934 227.627 181.545 227.623 182.326C227.627 183.121 227.045 183.739 226.274 183.739Z" fill="#9293AB"/>
<rect width="7.95257" height="32.208" transform="matrix(-1 0 0 1 222.651 137.962)" fill="#27A430"/>
<rect width="7.95257" height="19.1877" transform="matrix(-1 0 0 1 222.651 150.982)" fill="#FD8D42"/>
<rect width="7.95257" height="6.1675" transform="matrix(-1 0 0 1 222.651 164.003)" fill="#00A390"/>
<rect width="7.95257" height="3.42638" transform="matrix(-1 0 0 1 222.651 166.744)" fill="#DB0196"/>
<rect width="7.95257" height="1.37057" transform="matrix(-1 0 0 1 222.651 168.8)" fill="#954E02"/>
<rect width="7.95257" height="15.7614" transform="matrix(-1 0 0 1 222.651 122.201)" fill="#503DDD"/>
<rect width="8.61428" height="91.1422" transform="matrix(-1 0 0 1 223.254 78.8105)" fill="#2188DD"/>
<path d="M76.4975 184.805C78.0671 184.815 79.1217 183.736 79.1182 182.297C79.1217 180.923 78.1416 179.929 76.8668 179.929C76.0855 179.929 75.3966 180.309 75.0486 180.934H74.9989C75.0024 179.403 75.5635 178.473 76.572 178.473C77.197 178.473 77.6196 178.835 77.7546 179.393H79.0507C78.8945 178.217 77.9463 177.333 76.572 177.333C74.8249 177.333 73.7205 178.789 73.7205 181.275C73.7169 183.942 75.1019 184.797 76.4975 184.805ZM76.4903 183.739C75.7126 183.739 75.1445 183.096 75.1409 182.336C75.148 181.573 75.7375 180.934 76.5081 180.934C77.2787 180.934 77.8433 181.545 77.8398 182.326C77.8433 183.121 77.2609 183.739 76.4903 183.739ZM83.3014 177.091H82.1757L79.832 185.799H80.9577L83.3014 177.091ZM84.3739 184.705H85.7411L88.8305 178.558V177.432H83.8767V178.533H87.4669V178.583L84.3739 184.705Z" fill="#B0B1C4"/>
<rect width="7.95257" height="26.3873" transform="matrix(-1 0 0 1 85.2354 143.783)" fill="#27A430"/>
<rect width="7.95257" height="15.7201" transform="matrix(-1 0 0 1 85.2354 154.45)" fill="#FD8D42"/>
<rect width="7.95257" height="5.05288" transform="matrix(-1 0 0 1 85.2354 165.117)" fill="#00A390"/>
<rect width="7.95257" height="2.80714" transform="matrix(-1 0 0 1 85.2354 167.363)" fill="#DB0196"/>
<rect width="7.95257" height="1.12286" transform="matrix(-1 0 0 1 85.2354 169.047)" fill="#954E02"/>
<rect width="7.95257" height="12.9129" transform="matrix(-1 0 0 1 85.2354 130.87)" fill="#503DDD"/>
<rect width="8.61428" height="74.6707" transform="matrix(-1 0 0 1 85.4255 95.2822)" fill="#2188DD"/>
<path d="M103.597 184.806C105.166 184.817 106.221 183.738 106.217 182.299C106.221 180.925 105.241 179.931 103.966 179.931C103.185 179.931 102.496 180.311 102.148 180.936H102.098C102.102 179.405 102.663 178.475 103.671 178.475C104.296 178.475 104.719 178.837 104.854 179.395H106.15C105.994 178.219 105.045 177.335 103.671 177.335C101.924 177.335 100.82 178.791 100.82 181.277C100.816 183.944 102.201 184.799 103.597 184.806ZM103.589 183.741C102.812 183.741 102.244 183.098 102.24 182.338C102.247 181.575 102.837 180.936 103.607 180.936C104.378 180.936 104.942 181.547 104.939 182.328C104.942 183.123 104.36 183.741 103.589 183.741ZM110.401 177.093H109.275L106.931 185.801H108.057L110.401 177.093ZM113.792 184.806C115.365 184.806 116.491 183.94 116.494 182.757C116.491 181.848 115.82 181.088 114.974 180.946V180.897C115.709 180.733 116.221 180.073 116.224 179.284C116.221 178.166 115.191 177.335 113.792 177.335C112.382 177.335 111.352 178.162 111.356 179.284C111.352 180.073 111.857 180.733 112.606 180.897V180.946C111.746 181.088 111.082 181.848 111.086 182.757C111.082 183.94 112.205 184.806 113.792 184.806ZM113.792 183.791C112.968 183.791 112.435 183.336 112.442 182.665C112.435 181.969 113.007 181.475 113.792 181.475C114.566 181.475 115.134 181.973 115.141 182.665C115.134 183.336 114.605 183.791 113.792 183.791ZM113.792 180.478C113.117 180.478 112.634 180.041 112.641 179.409C112.634 178.784 113.103 178.365 113.792 178.365C114.47 178.365 114.935 178.784 114.942 179.409C114.935 180.044 114.456 180.478 113.792 180.478Z" fill="#B0B1C4"/>
<rect width="7.95257" height="27.5514" transform="matrix(-1 0 0 1 112.627 142.62)" fill="#27A430"/>
<rect width="7.95257" height="16.4136" transform="matrix(-1 0 0 1 112.627 153.758)" fill="#FD8D42"/>
<rect width="7.95257" height="5.27581" transform="matrix(-1 0 0 1 112.627 164.896)" fill="#00A390"/>
<rect width="7.95257" height="2.931" transform="matrix(-1 0 0 1 112.627 167.241)" fill="#DB0196"/>
<rect width="7.95257" height="1.17241" transform="matrix(-1 0 0 1 112.627 168.999)" fill="#954E02"/>
<rect width="7.95257" height="13.4826" transform="matrix(-1 0 0 1 112.627 129.138)" fill="#503DDD"/>
<rect width="8.61428" height="77.965" transform="matrix(-1 0 0 1 112.704 91.9893)" fill="#2188DD"/>
<path d="M130.974 184.805C132.544 184.816 133.598 183.737 133.595 182.298C133.598 180.924 132.618 179.93 131.343 179.93C130.562 179.93 129.873 180.31 129.525 180.935H129.475C129.479 179.404 130.04 178.474 131.049 178.474C131.674 178.474 132.096 178.836 132.231 179.394H133.527C133.371 178.218 132.423 177.334 131.049 177.334C129.301 177.334 128.197 178.79 128.197 181.276C128.193 183.943 129.578 184.798 130.974 184.805ZM130.967 183.74C130.189 183.74 129.621 183.097 129.617 182.337C129.625 181.574 130.214 180.935 130.985 180.935C131.755 180.935 132.32 181.546 132.316 182.327C132.32 183.122 131.738 183.74 130.967 183.74ZM137.778 177.092H136.652L134.309 185.8H135.434L137.778 177.092ZM141.109 177.334C139.532 177.323 138.485 178.406 138.485 179.827C138.488 181.198 139.465 182.188 140.74 182.188C141.524 182.188 142.206 181.808 142.558 181.183H142.608C142.604 182.739 142.039 183.666 141.034 183.666C140.406 183.666 139.983 183.303 139.852 182.725H138.556C138.705 183.928 139.657 184.805 141.034 184.805C142.778 184.805 143.889 183.35 143.886 180.846C143.882 178.197 142.505 177.341 141.109 177.334ZM141.113 178.399C141.89 178.399 142.462 179.046 142.462 179.788C142.465 180.541 141.865 181.187 141.098 181.187C140.324 181.187 139.767 180.576 139.763 179.798C139.763 179.017 140.342 178.399 141.113 178.399Z" fill="#B0B1C4"/>
<rect width="7.95257" height="39.1929" transform="matrix(-1 0 0 1 140.02 130.978)" fill="#27A430"/>
<rect width="7.95257" height="23.3489" transform="matrix(-1 0 0 1 140.02 146.822)" fill="#FD8D42"/>
<rect width="7.95257" height="7.50503" transform="matrix(-1 0 0 1 140.02 162.666)" fill="#00A390"/>
<rect width="7.95257" height="4.16946" transform="matrix(-1 0 0 1 140.02 166.002)" fill="#DB0196"/>
<rect width="7.95257" height="1.6678" transform="matrix(-1 0 0 1 140.02 168.503)" fill="#954E02"/>
<rect width="7.95257" height="19.1795" transform="matrix(-1 0 0 1 140.02 111.799)" fill="#503DDD"/>
<rect width="7.89642" height="110.908" transform="matrix(-1 0 0 1 139.982 59.0459)" fill="#2188DD"/>
<path d="M155.871 184.806C157.441 184.817 158.495 183.738 158.492 182.299C158.495 180.925 157.515 179.931 156.24 179.931C155.459 179.931 154.77 180.311 154.422 180.936H154.372C154.376 179.405 154.937 178.475 155.946 178.475C156.571 178.475 156.993 178.837 157.128 179.395H158.424C158.268 178.219 157.32 177.335 155.946 177.335C154.198 177.335 153.094 178.791 153.094 181.277C153.09 183.944 154.475 184.799 155.871 184.806ZM155.864 183.741C155.086 183.741 154.518 183.098 154.514 182.338C154.522 181.575 155.111 180.936 155.882 180.936C156.652 180.936 157.217 181.547 157.213 182.328C157.217 183.123 156.634 183.741 155.864 183.741ZM162.675 177.093H161.549L159.206 185.801H160.331L162.675 177.093ZM166.439 177.434H165.186L163.378 178.596V179.803L165.079 178.716H165.122V184.707H166.439V177.434ZM170.974 184.846C172.728 184.849 173.776 183.464 173.776 181.078C173.776 178.706 172.721 177.335 170.974 177.335C169.227 177.335 168.176 178.702 168.172 181.078C168.172 183.461 169.22 184.846 170.974 184.846ZM170.974 183.734C170.068 183.734 169.5 182.825 169.504 181.078C169.507 179.345 170.072 178.432 170.974 178.432C171.88 178.432 172.444 179.345 172.448 181.078C172.448 182.825 171.883 183.734 170.974 183.734Z" fill="#B0B1C4"/>
<rect width="7.95257" height="28.5215" transform="matrix(-1 0 0 1 167.412 141.65)" fill="#27A430"/>
<rect width="7.95257" height="16.9915" transform="matrix(-1 0 0 1 167.412 153.18)" fill="#FD8D42"/>
<rect width="7.95257" height="5.46157" transform="matrix(-1 0 0 1 167.412 164.71)" fill="#00A390"/>
<rect width="7.95257" height="3.0342" transform="matrix(-1 0 0 1 167.412 167.138)" fill="#DB0196"/>
<rect width="7.95257" height="1.21369" transform="matrix(-1 0 0 1 167.412 168.958)" fill="#954E02"/>
<rect width="7.95257" height="13.9574" transform="matrix(-1 0 0 1 167.412 127.693)" fill="#503DDD"/>
<rect width="8.61428" height="80.7103" transform="matrix(-1 0 0 1 167.979 89.2441)" fill="#2188DD"/>
<rect x="76.811" y="95.2832" width="8.61428" height="61.4935" fill="#3DC7F6"/>
<rect x="49.5" y="97" width="8.8" height="58" fill="#3DC7F6"/>
<rect x="104.09" y="91.9893" width="8.61428" height="58.7483" fill="#3DC7F6"/>
<rect x="132.086" y="59.0459" width="8.61428" height="61.4935" fill="#3DC7F6"/>
<rect x="76.811" y="95.2832" width="8.61428" height="38.4335" fill="#A3E9FF"/>
<rect x="49.5" y="97" width="8.8" height="37" fill="#A3E9FF"/>
<rect x="104.09" y="91.9893" width="8.61428" height="36.2373" fill="#A3E9FF"/>
<rect x="132.086" y="59.0459" width="8.61428" height="37.8844" fill="#A3E9FF"/>
<rect x="159.365" y="89.2432" width="8.61428" height="58.7483" fill="#3DC7F6"/>
<rect x="159.365" y="89.2432" width="8.61428" height="36.2373" fill="#A3E9FF"/>
<rect x="186.643" y="89.2432" width="8.61428" height="54.905" fill="#3DC7F6"/>
<rect x="214.639" y="78.8115" width="8.61428" height="63.1407" fill="#3DC7F6"/>
<rect x="186.643" y="89.2432" width="8.61428" height="34.0411" fill="#A3E9FF"/>
<rect x="214.639" y="78.8115" width="8.61428" height="39.5316" fill="#A3E9FF"/>
</g>
<g opacity="0.5" filter="url(#filter0_d)">
<g filter="url(#filter1_dd)">
<rect x="202" y="2" width="134" height="55" rx="4" fill="white"/>
</g>
</g>
<path d="M212.398 14.8317H214.646V21H215.952V14.8317H218.2V13.7273H212.398V14.8317ZM220.85 21.1065C222.448 21.1065 223.464 19.9808 223.464 18.294C223.464 16.6037 222.448 15.4744 220.85 15.4744C219.252 15.4744 218.237 16.6037 218.237 18.294C218.237 19.9808 219.252 21.1065 220.85 21.1065ZM220.857 20.0767C219.973 20.0767 219.54 19.2884 219.54 18.2905C219.54 17.2926 219.973 16.4936 220.857 16.4936C221.727 16.4936 222.161 17.2926 222.161 18.2905C222.161 19.2884 221.727 20.0767 220.857 20.0767ZM227.279 15.5455H226.203V14.2386H224.917V15.5455H224.143V16.5398H224.917V19.5724C224.91 20.5987 225.656 21.103 226.622 21.0746C226.988 21.0639 227.24 20.9929 227.378 20.9467L227.162 19.9418C227.091 19.9595 226.945 19.9915 226.785 19.9915C226.462 19.9915 226.203 19.8778 226.203 19.3594V16.5398H227.279V15.5455ZM229.923 21.1101C230.779 21.1101 231.291 20.7088 231.525 20.2507H231.568V21H232.803V17.3494C232.803 15.9077 231.628 15.4744 230.588 15.4744C229.441 15.4744 228.56 15.9858 228.276 16.9801L229.476 17.1506C229.604 16.7777 229.966 16.4581 230.595 16.4581C231.191 16.4581 231.518 16.7635 231.518 17.2997V17.321C231.518 17.6903 231.131 17.7081 230.169 17.8111C229.11 17.9247 228.098 18.2408 228.098 19.4695C228.098 20.5419 228.883 21.1101 229.923 21.1101ZM230.257 20.1655C229.721 20.1655 229.338 19.9205 229.338 19.4482C229.338 18.9545 229.767 18.7486 230.343 18.6669C230.68 18.6207 231.355 18.5355 231.521 18.4006V19.0433C231.521 19.6506 231.031 20.1655 230.257 20.1655ZM235.382 13.7273H234.096V21H235.382V13.7273ZM245.466 16.1811C245.242 14.5653 243.999 13.6278 242.387 13.6278C240.487 13.6278 239.056 15.0128 239.056 17.3636C239.056 19.7109 240.469 21.0994 242.387 21.0994C244.116 21.0994 245.263 19.9808 245.466 18.5923L244.138 18.5852C243.971 19.4375 243.275 19.9169 242.405 19.9169C241.226 19.9169 240.381 19.0327 240.381 17.3636C240.381 15.723 241.219 14.8104 242.408 14.8104C243.293 14.8104 243.985 15.3111 244.138 16.1811H245.466ZM248.995 21.1065C250.593 21.1065 251.608 19.9808 251.608 18.294C251.608 16.6037 250.593 15.4744 248.995 15.4744C247.397 15.4744 246.381 16.6037 246.381 18.294C246.381 19.9808 247.397 21.1065 248.995 21.1065ZM249.002 20.0767C248.118 20.0767 247.684 19.2884 247.684 18.2905C247.684 17.2926 248.118 16.4936 249.002 16.4936C249.872 16.4936 250.305 17.2926 250.305 18.2905C250.305 19.2884 249.872 20.0767 249.002 20.0767ZM257.011 16.9872C256.833 16.0639 256.094 15.4744 254.816 15.4744C253.502 15.4744 252.607 16.1207 252.611 17.1293C252.607 17.9247 253.097 18.4503 254.145 18.6669L255.075 18.8622C255.576 18.9723 255.81 19.1747 255.81 19.4837C255.81 19.8565 255.406 20.1371 254.795 20.1371C254.205 20.1371 253.822 19.8814 253.712 19.3913L252.458 19.5121C252.618 20.5135 253.46 21.1065 254.798 21.1065C256.162 21.1065 257.124 20.3999 257.128 19.3665C257.124 18.5888 256.624 18.1129 255.594 17.8892L254.663 17.6903C254.109 17.5661 253.889 17.3743 253.893 17.0582C253.889 16.6889 254.298 16.4332 254.834 16.4332C255.427 16.4332 255.739 16.7564 255.839 17.1151L257.011 16.9872ZM260.912 15.5455H259.836V14.2386H258.55V15.5455H257.776V16.5398H258.55V19.5724C258.543 20.5987 259.289 21.103 260.255 21.0746C260.62 21.0639 260.873 20.9929 261.011 20.9467L260.794 19.9418C260.723 19.9595 260.578 19.9915 260.418 19.9915C260.095 19.9915 259.836 19.8778 259.836 19.3594V16.5398H260.912V15.5455Z" fill="#6B6D85"/>
<path d="M215.469 43.0909H216.27L216.274 42.1321C218.077 42 219.108 40.9688 219.108 39.5881C219.108 38.0156 217.706 37.4062 216.598 37.1335L216.287 37.0526L216.295 34.3168C217.092 34.4233 217.638 34.8665 217.719 35.5653H218.989C218.955 34.2656 217.881 33.294 216.3 33.1662L216.304 32.1818H215.503L215.499 33.1747C213.969 33.3281 212.848 34.2827 212.848 35.6591C212.848 36.8736 213.717 37.5852 215.119 37.9645L215.486 38.0625L215.477 40.9645C214.646 40.8622 214.003 40.4105 213.935 39.5881H212.614C212.695 41.0582 213.756 42.0043 215.473 42.1321L215.469 43.0909ZM216.278 40.9645L216.287 38.2841C217.152 38.5227 217.804 38.8381 217.804 39.5753C217.804 40.321 217.182 40.8452 216.278 40.9645ZM215.49 36.8395C214.855 36.652 214.156 36.3153 214.161 35.5824C214.161 34.9432 214.668 34.4446 215.494 34.321L215.49 36.8395ZM223.6 42.1193C225.382 42.1193 226.69 41.054 226.686 39.6051C226.69 38.5014 226.021 37.7088 224.862 37.5298V37.4616C225.774 37.2273 226.366 36.5114 226.362 35.5312C226.366 34.2486 225.314 33.1534 223.635 33.1534C222.032 33.1534 220.745 34.1207 220.703 35.5398H221.977C222.007 34.7386 222.761 34.2528 223.618 34.2528C224.508 34.2528 225.092 34.794 225.088 35.5994C225.092 36.4432 224.414 36.9972 223.447 36.9972H222.71V38.071H223.447C224.657 38.071 225.356 38.6847 225.356 39.5625C225.356 40.4105 224.619 40.9858 223.592 40.9858C222.646 40.9858 221.909 40.5 221.858 39.7244H220.52C220.575 41.1477 221.836 42.1193 223.6 42.1193ZM229.702 40.8068H228.474L228.432 41.2841C228.334 42.4389 228.061 43.6023 227.946 44.1307H228.849C229.054 43.5724 229.506 42.294 229.638 41.2713L229.702 40.8068ZM234.218 42.1193C235.999 42.1193 237.307 41.054 237.303 39.6051C237.307 38.5014 236.638 37.7088 235.479 37.5298V37.4616C236.391 37.2273 236.983 36.5114 236.979 35.5312C236.983 34.2486 235.931 33.1534 234.252 33.1534C232.65 33.1534 231.363 34.1207 231.32 35.5398H232.594C232.624 34.7386 233.378 34.2528 234.235 34.2528C235.125 34.2528 235.709 34.794 235.705 35.5994C235.709 36.4432 235.032 36.9972 234.064 36.9972H233.327V38.071H234.064C235.275 38.071 235.973 38.6847 235.973 39.5625C235.973 40.4105 235.236 40.9858 234.209 40.9858C233.263 40.9858 232.526 40.5 232.475 39.7244H231.137C231.192 41.1477 232.453 42.1193 234.218 42.1193ZM238.73 40.2955H242.868V42H244.125V40.2955H245.28V39.179H244.125V33.2727H242.502L238.73 39.2301V40.2955ZM242.877 39.179H240.111V39.1108L242.809 34.8409H242.877V39.179ZM246.582 40.2955H250.72V42H251.977V40.2955H253.132V39.179H251.977V33.2727H250.353L246.582 39.2301V40.2955ZM250.728 39.179H247.963V39.1108L250.66 34.8409H250.728V39.179ZM255.145 42.081C255.61 42.081 255.998 41.7017 255.998 41.2287C255.998 40.7642 255.61 40.3807 255.145 40.3807C254.676 40.3807 254.293 40.7642 254.293 41.2287C254.293 41.7017 254.676 42.081 255.145 42.081ZM260.397 42.1449C262.413 42.1449 263.593 40.5 263.593 37.6406C263.593 34.8026 262.396 33.1534 260.397 33.1534C258.395 33.1534 257.201 34.7983 257.197 37.6406C257.197 40.4957 258.377 42.1406 260.397 42.1449ZM260.397 41.0071C259.217 41.0071 258.505 39.8224 258.505 37.6406C258.51 35.4673 259.221 34.2699 260.397 34.2699C261.569 34.2699 262.285 35.4673 262.285 37.6406C262.285 39.8224 261.574 41.0071 260.397 41.0071ZM268.143 42.1193C269.925 42.1193 271.233 41.054 271.229 39.6051C271.233 38.5014 270.564 37.7088 269.405 37.5298V37.4616C270.317 37.2273 270.909 36.5114 270.905 35.5312C270.909 34.2486 269.857 33.1534 268.178 33.1534C266.575 33.1534 265.288 34.1207 265.246 35.5398H266.52C266.55 34.7386 267.304 34.2528 268.161 34.2528C269.051 34.2528 269.635 34.794 269.631 35.5994C269.635 36.4432 268.957 36.9972 267.99 36.9972H267.253V38.071H267.99C269.2 38.071 269.899 38.6847 269.899 39.5625C269.899 40.4105 269.162 40.9858 268.135 40.9858C267.189 40.9858 266.452 40.5 266.401 39.7244H265.062C265.118 41.1477 266.379 42.1193 268.143 42.1193Z" fill="black"/>
<path d="M295.582 39.5085H299.006V41H299.844V39.5085H300.838V38.7273H299.844V33.7273H298.778L295.582 38.7841V39.5085ZM299.006 38.7273H296.534V38.6705L298.949 34.8494H299.006V38.7273ZM304.541 41.0994C306.146 41.0994 307.069 39.7393 307.069 37.3636C307.069 35.0057 306.132 33.6278 304.541 33.6278C302.95 33.6278 302.013 35.0057 302.013 37.3636C302.013 39.7393 302.936 41.0994 304.541 41.0994ZM304.541 40.3182C303.483 40.3182 302.865 39.2564 302.865 37.3636C302.865 35.4744 303.49 34.3949 304.541 34.3949C305.592 34.3949 306.217 35.4744 306.217 37.3636C306.217 39.2564 305.599 40.3182 304.541 40.3182ZM312.126 39.6364C312.126 40.4318 312.623 41.0994 313.547 41.0994C314.456 41.0994 314.953 40.4318 314.953 39.6364V39.2528C314.953 38.4574 314.47 37.7898 313.547 37.7898C312.638 37.7898 312.126 38.4574 312.126 39.2528V39.6364ZM308.504 35.4744C308.504 36.2699 309.001 36.9375 309.925 36.9375C310.834 36.9375 311.331 36.2699 311.331 35.4744V35.0909C311.331 34.2955 310.848 33.6278 309.925 33.6278C309.015 33.6278 308.504 34.2955 308.504 35.0909V35.4744ZM308.774 41H309.584L314.584 33.7273H313.774L308.774 41ZM312.851 39.2528C312.851 38.8125 313.05 38.4006 313.547 38.4006C314.058 38.4006 314.229 38.8125 314.229 39.2528V39.6364C314.229 40.0767 314.044 40.4886 313.547 40.4886C313.035 40.4886 312.851 40.0767 312.851 39.6364V39.2528ZM309.229 35.0909C309.229 34.6506 309.427 34.2386 309.925 34.2386C310.436 34.2386 310.606 34.6506 310.606 35.0909V35.4744C310.606 35.9148 310.422 36.3267 309.925 36.3267C309.413 36.3267 309.229 35.9148 309.229 35.4744V35.0909Z" fill="#DA291D"/>
<path d="M284 40L288 34L292 40H284Z" fill="#DA291D"/>
<g opacity="0.5" filter="url(#filter2_d)">
<g filter="url(#filter3_dd)">
<rect x="224" y="57" width="134" height="55" rx="4" fill="white"/>
</g>
</g>
<path d="M234.717 76H236.035V72.9105H239.057V71.8061H236.035V69.8317H239.376V68.7273H234.717V76ZM242.499 76.1065C244.097 76.1065 245.112 74.9808 245.112 73.294C245.112 71.6037 244.097 70.4744 242.499 70.4744C240.901 70.4744 239.885 71.6037 239.885 73.294C239.885 74.9808 240.901 76.1065 242.499 76.1065ZM242.506 75.0767C241.622 75.0767 241.188 74.2884 241.188 73.2905C241.188 72.2926 241.622 71.4936 242.506 71.4936C243.376 71.4936 243.809 72.2926 243.809 73.2905C243.809 74.2884 243.376 75.0767 242.506 75.0767ZM246.203 76H247.489V72.7933C247.489 72.1009 248.011 71.6108 248.718 71.6108C248.934 71.6108 249.204 71.6499 249.314 71.6854V70.5028C249.197 70.4815 248.995 70.4673 248.853 70.4673C248.228 70.4673 247.706 70.8224 247.507 71.4545H247.45V70.5455H246.203V76ZM252.358 76.1065C253.63 76.1065 254.503 75.4851 254.731 74.5369L253.53 74.402C253.356 74.8636 252.93 75.1051 252.376 75.1051C251.545 75.1051 250.995 74.5582 250.984 73.6243H254.784V73.2301C254.784 71.3161 253.633 70.4744 252.291 70.4744C250.729 70.4744 249.709 71.6214 249.709 73.3047C249.709 75.0163 250.714 76.1065 252.358 76.1065ZM250.988 72.7578C251.027 72.0618 251.542 71.4759 252.309 71.4759C253.047 71.4759 253.545 72.0156 253.552 72.7578H250.988ZM258.251 76.1065C259.621 76.1065 260.495 75.2933 260.587 74.1357H259.359C259.249 74.7216 258.826 75.0589 258.261 75.0589C257.459 75.0589 256.94 74.3878 256.94 73.2727C256.94 72.1719 257.469 71.5114 258.261 71.5114C258.879 71.5114 259.259 71.9091 259.359 72.4347H260.587C260.499 71.2521 259.575 70.4744 258.244 70.4744C256.646 70.4744 255.637 71.6286 255.637 73.294C255.637 74.9453 256.621 76.1065 258.251 76.1065ZM263.213 76.1101C264.068 76.1101 264.58 75.7088 264.814 75.2507H264.857V76H266.093V72.3494C266.093 70.9077 264.917 70.4744 263.877 70.4744C262.73 70.4744 261.849 70.9858 261.565 71.9801L262.765 72.1506C262.893 71.7777 263.255 71.4581 263.884 71.4581C264.48 71.4581 264.807 71.7635 264.807 72.2997V72.321C264.807 72.6903 264.42 72.7081 263.458 72.8111C262.399 72.9247 261.387 73.2408 261.387 74.4695C261.387 75.5419 262.172 76.1101 263.213 76.1101ZM263.546 75.1655C263.01 75.1655 262.627 74.9205 262.627 74.4482C262.627 73.9545 263.056 73.7486 263.632 73.6669C263.969 73.6207 264.644 73.5355 264.811 73.4006V74.0433C264.811 74.6506 264.32 75.1655 263.546 75.1655ZM271.696 71.9872C271.519 71.0639 270.78 70.4744 269.502 70.4744C268.188 70.4744 267.293 71.1207 267.296 72.1293C267.293 72.9247 267.783 73.4503 268.83 73.6669L269.761 73.8622C270.262 73.9723 270.496 74.1747 270.496 74.4837C270.496 74.8565 270.091 75.1371 269.48 75.1371C268.891 75.1371 268.507 74.8814 268.397 74.3913L267.144 74.5121C267.303 75.5135 268.145 76.1065 269.484 76.1065C270.847 76.1065 271.81 75.3999 271.813 74.3665C271.81 73.5888 271.309 73.1129 270.279 72.8892L269.349 72.6903C268.795 72.5661 268.575 72.3743 268.578 72.0582C268.575 71.6889 268.983 71.4332 269.519 71.4332C270.112 71.4332 270.425 71.7564 270.524 72.1151L271.696 71.9872ZM275.597 70.5455H274.521V69.2386H273.236V70.5455H272.461V71.5398H273.236V74.5724C273.229 75.5987 273.974 76.103 274.94 76.0746C275.306 76.0639 275.558 75.9929 275.697 75.9467L275.48 74.9418C275.409 74.9595 275.263 74.9915 275.104 74.9915C274.78 74.9915 274.521 74.8778 274.521 74.3594V71.5398H275.597V70.5455ZM279.028 76.1065C280.3 76.1065 281.173 75.4851 281.401 74.5369L280.2 74.402C280.026 74.8636 279.6 75.1051 279.046 75.1051C278.215 75.1051 277.665 74.5582 277.654 73.6243H281.454V73.2301C281.454 71.3161 280.303 70.4744 278.961 70.4744C277.398 70.4744 276.379 71.6214 276.379 73.3047C276.379 75.0163 277.384 76.1065 279.028 76.1065ZM277.658 72.7578C277.697 72.0618 278.212 71.4759 278.979 71.4759C279.717 71.4759 280.214 72.0156 280.222 72.7578H277.658ZM284.566 76.0959C285.503 76.0959 285.926 75.5384 286.128 75.1406H286.206V76H287.47V68.7273H286.181V71.4474H286.128C285.933 71.0533 285.531 70.4744 284.569 70.4744C283.308 70.4744 282.318 71.4616 282.318 73.2798C282.318 75.0767 283.28 76.0959 284.566 76.0959ZM284.924 75.0412C284.075 75.0412 283.628 74.2955 283.628 73.2727C283.628 72.2571 284.068 71.5291 284.924 71.5291C285.752 71.5291 286.206 72.2145 286.206 73.2727C286.206 74.331 285.744 75.0412 284.924 75.0412ZM297.603 71.1811C297.379 69.5653 296.136 68.6278 294.524 68.6278C292.624 68.6278 291.193 70.0128 291.193 72.3636C291.193 74.7109 292.606 76.0994 294.524 76.0994C296.253 76.0994 297.4 74.9808 297.603 73.5923L296.275 73.5852C296.108 74.4375 295.412 74.9169 294.542 74.9169C293.363 74.9169 292.517 74.0327 292.517 72.3636C292.517 70.723 293.355 69.8104 294.545 69.8104C295.429 69.8104 296.122 70.3111 296.275 71.1811H297.603ZM301.132 76.1065C302.73 76.1065 303.745 74.9808 303.745 73.294C303.745 71.6037 302.73 70.4744 301.132 70.4744C299.534 70.4744 298.518 71.6037 298.518 73.294C298.518 74.9808 299.534 76.1065 301.132 76.1065ZM301.139 75.0767C300.254 75.0767 299.821 74.2884 299.821 73.2905C299.821 72.2926 300.254 71.4936 301.139 71.4936C302.009 71.4936 302.442 72.2926 302.442 73.2905C302.442 74.2884 302.009 75.0767 301.139 75.0767ZM309.147 71.9872C308.97 71.0639 308.231 70.4744 306.953 70.4744C305.639 70.4744 304.744 71.1207 304.748 72.1293C304.744 72.9247 305.234 73.4503 306.282 73.6669L307.212 73.8622C307.713 73.9723 307.947 74.1747 307.947 74.4837C307.947 74.8565 307.542 75.1371 306.931 75.1371C306.342 75.1371 305.958 74.8814 305.848 74.3913L304.595 74.5121C304.755 75.5135 305.596 76.1065 306.935 76.1065C308.299 76.1065 309.261 75.3999 309.265 74.3665C309.261 73.5888 308.76 73.1129 307.73 72.8892L306.8 72.6903C306.246 72.5661 306.026 72.3743 306.029 72.0582C306.026 71.6889 306.434 71.4332 306.971 71.4332C307.564 71.4332 307.876 71.7564 307.975 72.1151L309.147 71.9872ZM313.048 70.5455H311.972V69.2386H310.687V70.5455H309.913V71.5398H310.687V74.5724C310.68 75.5987 311.425 76.103 312.391 76.0746C312.757 76.0639 313.009 75.9929 313.148 75.9467L312.931 74.9418C312.86 74.9595 312.714 74.9915 312.555 74.9915C312.232 74.9915 311.972 74.8778 311.972 74.3594V71.5398H313.048V70.5455Z" fill="#6B6D85"/>
<path d="M237.469 98.0909H238.27L238.274 97.1321C240.077 97 241.108 95.9688 241.108 94.5881C241.108 93.0156 239.706 92.4062 238.598 92.1335L238.287 92.0526L238.295 89.3168C239.092 89.4233 239.638 89.8665 239.719 90.5653H240.989C240.955 89.2656 239.881 88.294 238.3 88.1662L238.304 87.1818H237.503L237.499 88.1747C235.969 88.3281 234.848 89.2827 234.848 90.6591C234.848 91.8736 235.717 92.5852 237.119 92.9645L237.486 93.0625L237.477 95.9645C236.646 95.8622 236.003 95.4105 235.935 94.5881H234.614C234.695 96.0582 235.756 97.0043 237.473 97.1321L237.469 98.0909ZM238.278 95.9645L238.287 93.2841C239.152 93.5227 239.804 93.8381 239.804 94.5753C239.804 95.321 239.182 95.8452 238.278 95.9645ZM237.49 91.8395C236.855 91.652 236.156 91.3153 236.161 90.5824C236.161 89.9432 236.668 89.4446 237.494 89.321L237.49 91.8395ZM245.464 88.1534C243.632 88.1364 242.434 89.4531 242.434 91.1065C242.439 92.7727 243.645 93.9744 245.157 93.9744C246.082 93.9744 246.875 93.5227 247.322 92.7898H247.39C247.386 94.7969 246.632 95.9688 245.353 95.9688C244.518 95.9688 243.981 95.4574 243.811 94.7116H242.511C242.703 96.1222 243.794 97.1193 245.353 97.1193C247.382 97.1193 248.652 95.3764 248.652 92.321C248.647 89.1335 247.02 88.1662 245.464 88.1534ZM245.468 89.2614C246.478 89.2614 247.224 90.1179 247.224 91.0767C247.228 92.0483 246.44 92.9006 245.443 92.9006C244.441 92.9006 243.717 92.0994 243.713 91.0895C243.713 90.0753 244.467 89.2614 245.468 89.2614ZM250.008 95.2955H254.146V97H255.403V95.2955H256.558V94.179H255.403V88.2727H253.779L250.008 94.2301V95.2955ZM254.154 94.179H251.388V94.1108L254.086 89.8409H254.154V94.179ZM261.081 97.1193C262.862 97.1193 264.17 96.054 264.166 94.6051C264.17 93.5014 263.501 92.7088 262.342 92.5298V92.4616C263.254 92.2273 263.847 91.5114 263.842 90.5312C263.847 89.2486 262.794 88.1534 261.115 88.1534C259.513 88.1534 258.226 89.1207 258.183 90.5398H259.457C259.487 89.7386 260.241 89.2528 261.098 89.2528C261.989 89.2528 262.572 89.794 262.568 90.5994C262.572 91.4432 261.895 91.9972 260.928 91.9972H260.19V93.071H260.928C262.138 93.071 262.837 93.6847 262.837 94.5625C262.837 95.4105 262.099 95.9858 261.072 95.9858C260.126 95.9858 259.389 95.5 259.338 94.7244H258C258.055 96.1477 259.317 97.1193 261.081 97.1193ZM268.824 97.1193C270.648 97.1364 271.858 95.8239 271.854 94.1491C271.858 92.4787 270.643 91.2812 269.131 91.2812C268.21 91.2812 267.413 91.7244 266.966 92.4616H266.902C266.906 90.4801 267.656 89.304 268.935 89.304C269.774 89.304 270.303 89.8153 270.482 90.5398H271.781C271.581 89.1591 270.494 88.1534 268.935 88.1534C266.906 88.1534 265.641 89.8963 265.641 92.9304C265.636 96.1435 267.273 97.1065 268.824 97.1193ZM268.82 96.0114C267.805 96.0114 267.064 95.1591 267.064 94.179C267.068 93.2031 267.844 92.3509 268.849 92.3509C269.847 92.3509 270.58 93.1562 270.575 94.1662C270.58 95.1974 269.817 96.0114 268.82 96.0114ZM273.876 97.081C274.34 97.081 274.728 96.7017 274.728 96.2287C274.728 95.7642 274.34 95.3807 273.876 95.3807C273.407 95.3807 273.023 95.7642 273.023 96.2287C273.023 96.7017 273.407 97.081 273.876 97.081ZM276.418 97H282.162V95.8707H278.233V95.8068L279.967 93.9915C281.565 92.3764 282.021 91.6051 282.021 90.6293C282.021 89.2273 280.879 88.1534 279.234 88.1534C277.602 88.1534 276.409 89.2102 276.409 90.804H277.666C277.662 89.8665 278.267 89.2528 279.209 89.2528C280.095 89.2528 280.768 89.7983 280.768 90.6676C280.768 91.4389 280.308 91.9929 279.371 92.9858L276.418 96.0455V97ZM286.815 97.1193C288.597 97.1193 289.905 96.054 289.901 94.6051C289.905 93.5014 289.236 92.7088 288.077 92.5298V92.4616C288.989 92.2273 289.581 91.5114 289.577 90.5312C289.581 89.2486 288.528 88.1534 286.849 88.1534C285.247 88.1534 283.96 89.1207 283.918 90.5398H285.192C285.222 89.7386 285.976 89.2528 286.832 89.2528C287.723 89.2528 288.307 89.794 288.303 90.5994C288.307 91.4432 287.629 91.9972 286.662 91.9972H285.925V93.071H286.662C287.872 93.071 288.571 93.6847 288.571 94.5625C288.571 95.4105 287.834 95.9858 286.807 95.9858C285.861 95.9858 285.124 95.5 285.072 94.7244H283.734C283.79 96.1477 285.051 97.1193 286.815 97.1193Z" fill="black"/>
<path d="M320.026 96.0994C321.411 96.0994 322.426 95.0767 322.426 93.6847C322.426 92.2749 321.446 91.2415 320.111 91.2415C319.621 91.2415 319.145 91.4155 318.847 91.6534H318.804L319.06 89.5085H322.099V88.7273H318.321L317.881 92.3068L318.705 92.4062C319.006 92.1896 319.521 92.0334 319.969 92.0369C320.896 92.044 321.574 92.7472 321.574 93.6989C321.574 94.6328 320.92 95.3182 320.026 95.3182C319.28 95.3182 318.687 94.8388 318.619 94.1818H317.767C317.82 95.2898 318.776 96.0994 320.026 96.0994ZM326.252 96.0994C327.722 96.1172 328.681 95.0092 328.681 93.6562C328.681 92.25 327.64 91.2415 326.394 91.2415C325.644 91.2415 325.002 91.6072 324.604 92.2074H324.547C324.551 90.4354 325.24 89.4091 326.365 89.4091C327.132 89.4091 327.594 89.892 327.757 90.5455H328.624C328.446 89.4162 327.587 88.6278 326.365 88.6278C324.728 88.6278 323.723 90.0767 323.723 92.6477C323.723 95.3359 325.058 96.0852 326.252 96.0994ZM326.252 95.3182C325.339 95.3182 324.671 94.5405 324.675 93.6705C324.678 92.8004 325.378 92.0227 326.28 92.0227C327.171 92.0227 327.828 92.7543 327.828 93.6562C327.828 94.5795 327.143 95.3182 326.252 95.3182ZM333.784 94.6364C333.784 95.4318 334.282 96.0994 335.205 96.0994C336.114 96.0994 336.611 95.4318 336.611 94.6364V94.2528C336.611 93.4574 336.128 92.7898 335.205 92.7898C334.296 92.7898 333.784 93.4574 333.784 94.2528V94.6364ZM330.162 90.4744C330.162 91.2699 330.659 91.9375 331.583 91.9375C332.492 91.9375 332.989 91.2699 332.989 90.4744V90.0909C332.989 89.2955 332.506 88.6278 331.583 88.6278C330.674 88.6278 330.162 89.2955 330.162 90.0909V90.4744ZM330.432 96H331.242L336.242 88.7273H335.432L330.432 96ZM334.509 94.2528C334.509 93.8125 334.708 93.4006 335.205 93.4006C335.716 93.4006 335.887 93.8125 335.887 94.2528V94.6364C335.887 95.0767 335.702 95.4886 335.205 95.4886C334.694 95.4886 334.509 95.0767 334.509 94.6364V94.2528ZM330.887 90.0909C330.887 89.6506 331.086 89.2386 331.583 89.2386C332.094 89.2386 332.265 89.6506 332.265 90.0909V90.4744C332.265 90.9148 332.08 91.3267 331.583 91.3267C331.071 91.3267 330.887 90.9148 330.887 90.4744V90.0909Z" fill="#DA291D"/>
<path d="M306 95L310 89L314 95H306Z" fill="#DA291D"/>
<g filter="url(#filter4_d)">
<path d="M135.956 45.773C136.355 45.212 137.188 45.212 137.586 45.773L140.645 50.077C141.115 50.7391 140.642 51.6562 139.83 51.6562H133.712C132.9 51.6562 132.427 50.7391 132.897 50.077L135.956 45.773Z" fill="#CF2318"/>
</g>
<defs>
<filter id="filter0_d" x="198" y="2" width="142" height="63" filterUnits="userSpaceOnUse" color-interpolation-filters="sRGB">
<feFlood flood-opacity="0" result="BackgroundImageFix"/>
<feColorMatrix in="SourceAlpha" type="matrix" values="0 0 0 0 0 0 0 0 0 0 0 0 0 0 0 0 0 0 127 0"/>
<feOffset dy="4"/>
<feGaussianBlur stdDeviation="2"/>
<feColorMatrix type="matrix" values="0 0 0 0 0 0 0 0 0 0 0 0 0 0 0 0 0 0 0.1 0"/>
<feBlend mode="normal" in2="BackgroundImageFix" result="effect1_dropShadow"/>
<feBlend mode="normal" in="SourceGraphic" in2="effect1_dropShadow" result="shape"/>
</filter>
<filter id="filter1_dd" x="200" y="0.5" width="138" height="59" filterUnits="userSpaceOnUse" color-interpolation-filters="sRGB">
<feFlood flood-opacity="0" result="BackgroundImageFix"/>
<feColorMatrix in="SourceAlpha" type="matrix" values="0 0 0 0 0 0 0 0 0 0 0 0 0 0 0 0 0 0 127 0"/>
<feOffset dy="0.5"/>
<feGaussianBlur stdDeviation="1"/>
<feColorMatrix type="matrix" values="0 0 0 0 0.376471 0 0 0 0 0.380392 0 0 0 0 0.439216 0 0 0 0.16 0"/>
<feBlend mode="normal" in2="BackgroundImageFix" result="effect1_dropShadow"/>
<feColorMatrix in="SourceAlpha" type="matrix" values="0 0 0 0 0 0 0 0 0 0 0 0 0 0 0 0 0 0 127 0"/>
<feOffset/>
<feGaussianBlur stdDeviation="0.5"/>
<feColorMatrix type="matrix" values="0 0 0 0 0.156863 0 0 0 0 0.160784 0 0 0 0 0.239216 0 0 0 0.08 0"/>
<feBlend mode="normal" in2="effect1_dropShadow" result="effect2_dropShadow"/>
<feBlend mode="normal" in="SourceGraphic" in2="effect2_dropShadow" result="shape"/>
</filter>
<filter id="filter2_d" x="220" y="57" width="142" height="63" filterUnits="userSpaceOnUse" color-interpolation-filters="sRGB">
<feFlood flood-opacity="0" result="BackgroundImageFix"/>
<feColorMatrix in="SourceAlpha" type="matrix" values="0 0 0 0 0 0 0 0 0 0 0 0 0 0 0 0 0 0 127 0"/>
<feOffset dy="4"/>
<feGaussianBlur stdDeviation="2"/>
<feColorMatrix type="matrix" values="0 0 0 0 0 0 0 0 0 0 0 0 0 0 0 0 0 0 0.1 0"/>
<feBlend mode="normal" in2="BackgroundImageFix" result="effect1_dropShadow"/>
<feBlend mode="normal" in="SourceGraphic" in2="effect1_dropShadow" result="shape"/>
</filter>
<filter id="filter3_dd" x="222" y="55.5" width="138" height="59" filterUnits="userSpaceOnUse" color-interpolation-filters="sRGB">
<feFlood flood-opacity="0" result="BackgroundImageFix"/>
<feColorMatrix in="SourceAlpha" type="matrix" values="0 0 0 0 0 0 0 0 0 0 0 0 0 0 0 0 0 0 127 0"/>
<feOffset dy="0.5"/>
<feGaussianBlur stdDeviation="1"/>
<feColorMatrix type="matrix" values="0 0 0 0 0.376471 0 0 0 0 0.380392 0 0 0 0 0.439216 0 0 0 0.16 0"/>
<feBlend mode="normal" in2="BackgroundImageFix" result="effect1_dropShadow"/>
<feColorMatrix in="SourceAlpha" type="matrix" values="0 0 0 0 0 0 0 0 0 0 0 0 0 0 0 0 0 0 127 0"/>
<feOffset/>
<feGaussianBlur stdDeviation="0.5"/>
<feColorMatrix type="matrix" values="0 0 0 0 0.156863 0 0 0 0 0.160784 0 0 0 0 0.239216 0 0 0 0.08 0"/>
<feBlend mode="normal" in2="effect1_dropShadow" result="effect2_dropShadow"/>
<feBlend mode="normal" in="SourceGraphic" in2="effect2_dropShadow" result="shape"/>
</filter>
<filter id="filter4_d" x="128.711" y="41.3525" width="16.1209" height="14.304" filterUnits="userSpaceOnUse" color-interpolation-filters="sRGB">
<feFlood flood-opacity="0" result="BackgroundImageFix"/>
<feColorMatrix in="SourceAlpha" type="matrix" values="0 0 0 0 0 0 0 0 0 0 0 0 0 0 0 0 0 0 127 0"/>
<feOffset/>
<feGaussianBlur stdDeviation="2"/>
<feColorMatrix type="matrix" values="0 0 0 0 0.811765 0 0 0 0 0.137255 0 0 0 0 0.0941176 0 0 0 0.5 0"/>
<feBlend mode="normal" in2="BackgroundImageFix" result="effect1_dropShadow"/>
<feBlend mode="normal" in="SourceGraphic" in2="effect1_dropShadow" result="shape"/>
</filter>
</defs>
</svg>
