<svg width="603" height="679" fill="none" xmlns="http://www.w3.org/2000/svg"><mask id="a" maskUnits="userSpaceOnUse" x="0" y="0" width="603" height="679"><path fill="#C4C4C4" d="M0 0h603v679H0z"/></mask><g mask="url(#a)"><g opacity=".3" stroke="#000" stroke-linejoin="round" stroke-dasharray="1 5"><path d="M-393.976 102.613L1412.12 512.385M-389.61 221.496L1311.66 712.21M-418 291.058L1091.09 770.39M-359.033 46.9645l144.138 25.3507M1409.94 358.087L-94.2332 93.5369M1335.69 79.8473L167.291 775.447M1310.57 20.4059L-273.861 817.184M1313.85-30.184L-327.366 716.005M1207.19 524.288c15.2-383.608-204.86 375.181-511.488 349.149-306.626-26.033-672.028-758.02-797.624-272.583C-227.518 1086.29 291.737-454.553 436.459 32.4173 581.181 519.387 944.174 316.785 1017.53 140.681c73.35-176.1049 174.46 767.214 189.66 383.607z"/></g><path d="M1207.19 524.288c15.2-383.608-204.86 375.181-511.488 349.149-306.626-26.033-672.028-758.02-797.624-272.583C-227.518 1086.29 291.737-454.553 436.459 32.4173 581.181 519.387 944.174 316.785 1017.53 140.681c73.35-176.1049 174.46 767.214 189.66 383.607z" stroke="#000" stroke-linejoin="round" stroke-dasharray="1 5"/><path d="M-18 684.678l13.56126-36.841c12.41645.866 31.12654 6.066 51.98264 13.118 15.548 5.257 31.5897 11.288 46.2427 16.797l.0066.002.0048.002c6.641 2.497 12.996 4.886 18.891 7.047 1.695.622 3.402 1.253 5.122 1.889 35.966 13.293 77.583 28.676 132.848 3.324 54.484-24.994 144.494-67.432 176.853-89.004 2.133-1.422 4.593-3.597 5.751-6.854 1.319-3.714.405-7.212-1.256-9.806-1.495-2.334-3.656-4.105-5.667-5.451-2.101-1.406-4.589-2.707-7.289-3.926-10.614-4.795-27.577-9.664-47.09-14.661-12.243-3.136-25.622-6.356-39.441-9.681-30.966-7.452-64.144-15.436-91.71-24.198-9.71-3.086-17.494-10.861-19.477-18.701-.938-3.71-.636-7.536 1.426-11.358 2.118-3.925 6.393-8.381 14.315-12.551 13.064-6.876 33.471-16.141 57.337-26.551l47.688 13.477c-14.977 6.614-28.639 12.697-39.419 17.516-7.357 3.288-13.372 5.988-17.549 7.866-2.088.939-3.717 1.673-4.825 2.172l-1.695.764c-2.95 1.333-4.736 4.383-4.455 7.608.282 3.225 2.569 5.92 5.705 6.721l.004.001.96.246c.638.164 1.587.408 2.826.727 2.477.638 6.116 1.578 10.757 2.783 9.283 2.412 22.576 5.886 38.609 10.138 32.069 8.505 75.083 20.115 118.89 32.542 9.009 2.556 16.776 6.189 22.633 10.434 5.901 4.277 9.441 8.856 10.866 13.2 1.335 4.071 1.087 8.711-2.147 14.149-3.371 5.671-10.064 12.268-21.737 19.213-24.454 14.548-69.448 39.972-113.674 63.306-44.536 23.496-87.35 44.358-107.914 50.318-21.232 6.155-38.265 10.625-64.28 7.909-26.405-2.757-62.444-12.979-121.0427-37.461-25.0682-10.474-42.8731-15.883-58.78536-16.696-4.79672-.246-9.35824-.07-13.82594.471z" fill="url(#paint0_linear)"/><path d="M775.288 462.374c-35.575-6.583-75.545-15.603-119.237-25.463l-.043-.01-.273-.062c-6.596-1.488-13.277-2.996-20.041-4.517-9.311-2.094-18.836-4.426-28.423-6.772l-.004-.001-.004-.001c-18.756-4.591-37.749-9.24-55.839-12.284-27.498-4.628-54.651-5.921-78.585 2.506-22.418 7.894-71.121 28.794-113.907 47.57-21.462 9.419-41.539 18.35-56.251 24.926-7.356 3.288-13.371 5.988-17.548 7.866-2.089.939-3.718 1.673-4.825 2.172l-1.695.764c-2.95 1.333-4.736 4.383-4.455 7.608.281 3.225 2.569 5.92 5.705 6.722l.003.001.961.246c.638.163 1.587.407 2.825.726 2.478.638 6.117 1.578 10.758 2.784 9.283 2.411 22.576 5.886 38.609 10.137 20.394 5.409 45.215 12.074 71.852 19.406l-5.103 21.304c-8.226-2.534-17.672-5.094-27.805-7.689-12.243-3.136-25.622-6.356-39.442-9.681-30.965-7.452-64.143-15.437-91.71-24.198-9.709-3.086-17.494-10.861-19.476-18.701-.938-3.71-.637-7.536 1.426-11.358 2.117-3.925 6.392-8.381 14.314-12.551 23.596-12.419 71.144-32.633 119.764-53.304 23.807-10.121 47.871-20.351 69.505-29.829 2.313-1.014 4.547-1.996 6.711-2.947 28.776-12.652 45.085-19.823 67.954-21.316 24.944-1.628 57.951 3.53 122.198 17.876 47.136 10.526 74.276 16.047 101.264 21.537 11.977 2.437 23.925 4.867 37.577 7.726 4.331.907 8.495 1.794 12.529 2.653 2.979.634 5.886 1.253 8.735 1.853l-8.024 34.301z" fill="url(#paint1_linear)"/><path d="M180.219 237.48c0 .28-.08.57-.24.87-.14.3-.32.6-.54.9-.22.3-.46.59-.72.87-.26.26-.5.49-.72.69-.54.48-1.1.94-1.68 1.38-.56.42-1.15.8-1.77 1.14-.6.34-1.23.61-1.89.81-.66.2-1.35.3-2.07.3-2.18 0-3.27-1.12-3.27-3.36 0-.22.09-.65.27-1.29.18-.64.41-1.37.69-2.19.28-.82.61-1.68.99-2.58.38-.9.77-1.72 1.17-2.46.4-.76.79-1.38 1.17-1.86.4-.48.77-.72 1.11-.72.22 0 .38.07.48.21.12.14.18.29.18.45-.02.12-.16.38-.42.78-.26.38-.53.77-.81 1.17-.04.06-.11.16-.21.3l-.3.42c-.12.16-.24.33-.36.51-.08.14-.26.5-.54 1.08-.26.56-.54 1.22-.84 1.98-.3.74-.57 1.52-.81 2.34-.24.8-.36 1.5-.36 2.1 0 .34.07.61.21.81.16.2.34.35.54.45.22.1.44.17.66.21.24.02.45.03.63.03.74 0 1.52-.16 2.34-.48.84-.34 1.64-.78 2.4-1.32s1.46-1.16 2.1-1.86c.64-.72 1.14-1.46 1.5-2.22.08-.14.16-.23.24-.27.1-.04.19-.06.27-.06.16 0 .3.11.42.33.12.22.18.4.18.54zm6.254 6c0 .16-.06.28-.18.36-.12.08-.26.12-.42.12-.18 0-.37-.17-.57-.51-.18-.34-.36-.77-.54-1.29-.18-.52-.35-1.08-.51-1.68-.16-.62-.3-1.19-.42-1.71l-.3-1.35c-.06-.36-.09-.56-.09-.6 0-.08-.04-.29-.12-.63-.06-.34-.15-.87-.27-1.59-.1-.72-.22-1.65-.36-2.79-.12-1.16-.25-2.59-.39-4.29 0-.18.03-.41.09-.69.06-.28.2-.42.42-.42.28 0 .49.19.63.57.16.38.28.85.36 1.41.1.56.17 1.15.21 1.77.04.6.09 1.13.15 1.59.08.64.15 1.22.21 1.74.08.52.15 1.04.21 1.56.08.5.17 1.03.27 1.59.12.56.26 1.18.42 1.86l1.2 4.98zm7.408-5.61c0 .44-.06.86-.18 1.26s-.28.75-.48 1.05c-.2.3-.44.54-.72.72-.26.16-.55.24-.87.24-.56 0-1-.16-1.32-.48-.32-.32-.57-.69-.75-1.11-.16-.42-.27-.84-.33-1.26-.04-.44-.06-.77-.06-.99 0-.36.05-.76.15-1.2.12-.46.27-.88.45-1.26.2-.38.42-.7.66-.96.24-.26.49-.39.75-.39.06 0 .15.02.27.06.14.04.28.1.42.18.14.08.26.18.36.3.12.12.2.26.24.42.22.02.44.1.66.24.22.14.34.25.36.33.16.52.26 1.04.3 1.56.06.52.09.95.09 1.29zm-1.35-.54c0-.3-.03-.61-.09-.93-.06-.34-.18-.68-.36-1.02-.04.02-.09.03-.15.03-.08 0-.15-.01-.21-.03-.04-.02-.08-.03-.12-.03-.24 0-.43.07-.57.21-.14.12-.25.29-.33.51-.06.2-.1.42-.12.66-.02.24-.03.47-.03.69 0 .22.01.47.03.75.02.26.06.51.12.75.08.24.18.45.3.63.12.16.28.24.48.24.2 0 .37-.1.51-.3.14-.22.25-.47.33-.75.08-.28.13-.55.15-.81.04-.28.06-.48.06-.6zm13.958 2.04c0 .18-.12.37-.36.57-.24.2-.52.39-.84.57-.32.16-.65.3-.99.42-.32.12-.56.18-.72.18-.18 0-.38-.05-.6-.15-.2-.1-.4-.22-.6-.36-.18-.14-.34-.27-.48-.39-.14-.12-.23-.2-.27-.24-.06.06-.15.18-.27.36-.12.18-.27.38-.45.6-.16.2-.34.38-.54.54-.18.16-.37.24-.57.24-.52 0-.97-.28-1.35-.84-.38-.56-.7-1.2-.96-1.92-.24-.72-.43-1.41-.57-2.07-.12-.68-.18-1.14-.18-1.38 0-.14.07-.25.21-.33.16-.1.28-.15.36-.15.28 0 .47.1.57.3.1.18.15.38.15.6 0 .18.05.5.15.96.12.46.26.93.42 1.41.16.48.33.91.51 1.29.18.36.34.54.48.54.26 0 .48-.16.66-.48.2-.34.36-.72.48-1.14.12-.44.21-.85.27-1.23.06-.4.09-.66.09-.78v-.18l.06-.36c.02-.12.03-.23.03-.33.02-.1.03-.17.03-.21 0-.14-.03-.23-.09-.27-.06-.06-.09-.17-.09-.33 0-.12.06-.23.18-.33.12-.12.38-.18.78-.18.16 0 .28.05.36.15.1.08.17.18.21.3.04.12.06.24.06.36.02.1.03.17.03.21 0 .02-.01.16-.03.42-.02.26-.04.55-.06.87 0 .3-.01.59-.03.87-.02.28-.03.45-.03.51s.03.18.09.36.13.37.21.57c.1.18.21.35.33.51.12.14.25.21.39.21.24 0 .46-.03.66-.09.22-.08.42-.16.6-.24.2-.1.38-.18.54-.24.16-.08.31-.12.45-.12.18 0 .34.04.48.12.16.08.24.18.24.3zm9.395.15c0 .1-.05.2-.15.3-.08.08-.13.17-.15.27 0 .22.04.43.12.63.1.2.15.44.15.72 0 .26-.08.39-.24.39-.2 0-.35.03-.45.09-.08.04-.23.08-.45.12-.12 0-.25-.11-.39-.33-.08-.1-.15-.22-.21-.36 0-.02-.06.02-.18.12-.1.1-.28.22-.54.36-.24.12-.58.24-1.02.36-.42.1-.96.15-1.62.15-.56 0-1.05-.12-1.47-.36-.42-.26-.77-.59-1.05-.99-.26-.4-.46-.85-.6-1.35-.12-.52-.18-1.04-.18-1.56 0-.48.05-.93.15-1.35.12-.44.28-.82.48-1.14.2-.34.45-.61.75-.81.3-.2.65-.3 1.05-.3.38 0 .76.12 1.14.36.38.24.72.5 1.02.78.3.28.54.54.72.78l.3.33c-.28-1.56-.53-2.97-.75-4.23-.1-.54-.2-1.07-.3-1.59-.08-.54-.16-1.02-.24-1.44-.08-.42-.15-.77-.21-1.05-.04-.3-.06-.48-.06-.54-.02-.12-.04-.33-.06-.63-.02-.32-.04-.65-.06-.99-.02-.34-.04-.65-.06-.93-.02-.28-.04-.46-.06-.54-.06-.2-.14-.45-.24-.75-.08-.3-.12-.47-.12-.51 0-.1.05-.22.15-.36.1-.16.23-.24.39-.24.12 0 .23.01.33.03.1.02.19.08.27.18.08.1.15.26.21.48.08.2.15.49.21.87.02.2.08.58.18 1.14.1.56.2 1.17.3 1.83.1.66.2 1.29.3 1.89.1.6.17 1.04.21 1.32.1.76.23 1.59.39 2.49.18.88.36 1.73.54 2.55.18.82.36 1.55.54 2.19.18.62.34 1.04.48 1.26.04.08.12.14.24.18.12.02.2.08.24.18zm-2.22.6c-.02-.06-.15-.31-.39-.75-.22-.46-.51-.95-.87-1.47-.34-.54-.73-1.02-1.17-1.44-.42-.42-.83-.63-1.23-.63-.34 0-.62.26-.84.78-.2.52-.3 1.12-.3 1.8 0 .76.22 1.37.66 1.83.46.46.97.69 1.53.69.48 0 .98-.08 1.5-.24.52-.16.89-.35 1.11-.57zm29.472-2.64c0 .28-.08.57-.24.87-.14.3-.32.6-.54.9-.22.3-.46.59-.72.87-.26.26-.5.49-.72.69-.54.48-1.1.94-1.68 1.38-.56.42-1.15.8-1.77 1.14-.6.34-1.23.61-1.89.81-.66.2-1.35.3-2.07.3-2.18 0-3.27-1.12-3.27-3.36 0-.22.09-.65.27-1.29.18-.64.41-1.37.69-2.19.28-.82.61-1.68.99-2.58.38-.9.77-1.72 1.17-2.46.4-.76.79-1.38 1.17-1.86.4-.48.77-.72 1.11-.72.22 0 .38.07.48.21.12.14.18.29.18.45-.02.12-.16.38-.42.78-.26.38-.53.77-.81 1.17-.04.06-.11.16-.21.3l-.3.42c-.12.16-.24.33-.36.51-.08.14-.26.5-.54 1.08-.26.56-.54 1.22-.84 1.98-.3.74-.57 1.52-.81 2.34-.24.8-.36 1.5-.36 2.1 0 .34.07.61.21.81.16.2.34.35.54.45.22.1.44.17.66.21.24.02.45.03.63.03.74 0 1.52-.16 2.34-.48.84-.34 1.64-.78 2.4-1.32s1.46-1.16 2.1-1.86c.64-.72 1.14-1.46 1.5-2.22.08-.14.16-.23.24-.27.1-.04.19-.06.27-.06.16 0 .3.11.42.33.12.22.18.4.18.54zm7.634.39c0 .44-.06.86-.18 1.26s-.28.75-.48 1.05c-.2.3-.44.54-.72.72-.26.16-.55.24-.87.24-.56 0-1-.16-1.32-.48-.32-.32-.57-.69-.75-1.11-.16-.42-.27-.84-.33-1.26-.04-.44-.06-.77-.06-.99 0-.36.05-.76.15-1.2.12-.46.27-.88.45-1.26.2-.38.42-.7.66-.96.24-.26.49-.39.75-.39.06 0 .15.02.27.06.14.04.28.1.42.18.14.08.26.18.36.3.12.12.2.26.24.42.22.02.44.1.66.24.22.14.34.25.36.33.16.52.26 1.04.3 1.56.06.52.09.95.09 1.29zm-1.35-.54c0-.3-.03-.61-.09-.93-.06-.34-.18-.68-.36-1.02-.04.02-.09.03-.15.03-.08 0-.15-.01-.21-.03-.04-.02-.08-.03-.12-.03-.24 0-.43.07-.57.21-.14.12-.25.29-.33.51-.06.2-.1.42-.12.66-.02.24-.03.47-.03.69 0 .22.01.47.03.75.02.26.06.51.12.75.08.24.18.45.3.63.12.16.28.24.48.24.2 0 .37-.1.51-.3.14-.22.25-.47.33-.75.08-.28.13-.55.15-.81.04-.28.06-.48.06-.6zm10.838 3.06c0 .34-.12.64-.36.9-.22.24-.51.45-.87.63-.34.16-.72.29-1.14.39-.42.1-.82.18-1.2.24-.38.04-.72.07-1.02.09h-.54c-.44 0-.78-.07-1.02-.21-.24-.14-.36-.39-.36-.75 0-.12.01-.22.03-.3.02-.1.1-.15.24-.15.06 0 .16.02.3.06.14.02.25.03.33.03.08 0 .33-.01.75-.03.44-.04.9-.1 1.38-.18.5-.08.94-.19 1.32-.33.4-.16.6-.36.6-.6 0-.04-.21-.16-.63-.36-.4-.22-1.01-.58-1.83-1.08-.64-.4-1.09-.8-1.35-1.2-.26-.42-.39-.98-.39-1.68 0-.44.09-.8.27-1.08.2-.28.46-.5.78-.66.34-.16.72-.27 1.14-.33.44-.08.9-.12 1.38-.12.04 0 .16.02.36.06.22.04.45.11.69.21.24.08.45.19.63.33.2.12.3.26.3.42 0 .04-.04.1-.12.18-.06.08-.17.23-.33.45-.06-.02-.17-.05-.33-.09-.14-.04-.31-.08-.51-.12-.18-.06-.37-.1-.57-.12-.2-.04-.36-.06-.48-.06-.52 0-.94.1-1.26.3-.32.18-.48.54-.48 1.08 0 .26.1.5.3.72.22.22.49.43.81.63.32.18.66.37 1.02.57.38.18.73.38 1.05.6.32.22.58.46.78.72.22.24.33.52.33.84zm10.216-9.6c-.26.3-.63.6-1.11.9-.48.28-.96.54-1.44.78l-1.26.63c-.36.16-.54.27-.54.33s.04.24.12.54c.08.3.17.66.27 1.08.12.4.24.82.36 1.26.12.44.22.83.3 1.17.04.2.09.46.15.78s.11.64.15.96c.06.32.11.61.15.87.04.24.06.37.06.39 0 .3-.05.61-.15.93-.1.32-.26.48-.48.48-.12 0-.23-.05-.33-.15-.1-.1-.19-.21-.27-.33-.08-.14-.14-.27-.18-.39-.04-.12-.06-.21-.06-.27v-.18c.02-.08.03-.17.03-.27 0-.38-.06-.93-.18-1.65-.04-.22-.12-.56-.24-1.02-.12-.46-.24-.93-.36-1.41-.14-.56-.3-1.17-.48-1.83-.08-.28-.13-.42-.15-.42-.14 0-.38.09-.72.27-.32.16-.69.37-1.11.63-.42.24-.86.51-1.32.81-.46.28-.89.55-1.29.81-.4.24-.74.45-1.02.63-.3.16-.48.24-.54.24-.26 0-.47-.09-.63-.27-.16-.18-.24-.38-.24-.6 0-.12.17-.29.51-.51.32-.24.73-.5 1.23-.78.48-.28 1.01-.57 1.59-.87.56-.3 1.08-.57 1.56-.81.5-.24.91-.44 1.23-.6l.51-.24c-.18-.92-.33-1.74-.45-2.46-.1-.62-.2-1.19-.3-1.71-.08-.52-.12-.8-.12-.84 0-.26.05-.45.15-.57.12-.14.25-.21.39-.21.22 0 .36.15.42.45.22 1.08.42 2.04.6 2.88.2.84.39 1.52.57 2.04.18-.04.49-.15.93-.33.44-.2.9-.41 1.38-.63.48-.22.91-.41 1.29-.57.4-.18.63-.27.69-.27.12 0 .19.04.21.12.04.08.08.15.12.21zm-88.995 45.18c.04.12.08.23.12.33.04.1.07.21.09.33.04.12.06.23.06.33 0 .14-.05.25-.15.33-.1.1-.22.18-.36.24-.12.06-.24.1-.36.12-.12.02-.19.03-.21.03-.12 0-.34-.37-.66-1.11-.32-.72-.67-1.74-1.05-3.06-.36-1.32-.73-2.89-1.11-4.71-.38-1.82-.69-3.82-.93-6-.04.46-.12 1-.24 1.62-.1.6-.26 1.17-.48 1.71-.22.54-.51 1-.87 1.38-.34.36-.78.54-1.32.54-.38 0-.81-.2-1.29-.6-.48-.4-.95-.87-1.41-1.41-.44-.56-.85-1.12-1.23-1.68-.36-.58-.63-1.05-.81-1.41.08.88.21 1.94.39 3.18.2 1.24.5 2.55.9 3.93.04.14.08.25.12.33.06.06.11.13.15.21.06.08.1.17.12.27.04.08.06.21.06.39 0 .26-.1.45-.3.57-.2.12-.39.18-.57.18-.1 0-.23-.15-.39-.45-.16-.32-.33-.73-.51-1.23s-.36-1.05-.54-1.65c-.18-.62-.35-1.23-.51-1.83-.14-.6-.26-1.16-.36-1.68-.1-.54-.15-.97-.15-1.29 0-.52.02-.88.06-1.08.06-.2.14-.35.24-.45v-1.83c0-.28.07-.49.21-.63.16-.16.36-.24.6-.24.2 0 .43.17.69.51.26.34.54.77.84 1.29.32.52.65 1.08.99 1.68.34.6.67 1.16.99 1.68.34.52.66.95.96 1.29.32.34.62.51.9.51.26 0 .51-.24.75-.72.24-.5.46-1.15.66-1.95.22-.8.41-1.71.57-2.73.16-1.02.29-2.06.39-3.12 0-.12-.01-.25-.03-.39-.02-.16-.03-.33-.03-.51 0-.24.05-.5.15-.78.12-.28.34-.42.66-.42.18 0 .32.05.42.15.12.1.2.23.24.39.04.14.06.29.06.45.02.14.03.26.03.36 0 .16-.02.43-.06.81-.02.36-.03.92-.03 1.68 0 .66.05 1.43.15 2.31.1.86.23 1.78.39 2.76.18.96.38 1.96.6 3 .24 1.02.49 2.02.75 3 .28.98.55 1.91.81 2.79.28.86.56 1.62.84 2.28zm14.961-7.86c0 .36-.17.81-.51 1.35-.32.52-.76 1.03-1.32 1.53s-1.21.93-1.95 1.29c-.74.34-1.51.51-2.31.51-.36 0-.74-.06-1.14-.18-.4-.12-.79-.29-1.17-.51-.38-.24-.72-.52-1.02-.84-.3-.34-.52-.72-.66-1.14-.12.12-.27.32-.45.6-.16.28-.34.57-.54.87-.2.28-.42.53-.66.75-.24.2-.49.3-.75.3s-.48-.13-.66-.39c-.16-.28-.29-.58-.39-.9-.1-.34-.17-.66-.21-.96-.04-.3-.06-.47-.06-.51 0-.24.07-.69.21-1.35.14-.68.35-1.38.63-2.1.28-.72.63-1.36 1.05-1.92.44-.56.95-.84 1.53-.84.22 0 .36.1.42.3.08.18.12.36.12.54v.9c.1.08.2.14.3.18.12.02.22.06.3.12.1.04.17.11.21.21.06.1.09.26.09.48 0 .14-.01.27-.03.39-.02.1-.03.2-.03.3 0 .52.04 1.03.12 1.53.08.5.24.95.48 1.35.24.38.57.7.99.96.42.24.98.36 1.68.36.88 0 1.62-.18 2.22-.54.62-.38 1.13-.79 1.53-1.23.42-.46.75-.87.99-1.23.24-.38.44-.57.6-.57.26 0 .39.13.39.39zm-10.53-1.32c0-.08-.02-.15-.06-.21-.04-.08-.06-.15-.06-.21 0-.08.02-.15.06-.21.04-.06.06-.14.06-.24 0-.06-.02-.1-.06-.12-.04-.04-.06-.08-.06-.12-.18.04-.37.21-.57.51-.18.3-.36.65-.54 1.05-.16.4-.29.81-.39 1.23-.1.4-.15.73-.15.99 0 .14.04.37.12.69.08.32.17.53.27.63.34-.7.65-1.38.93-2.04.3-.66.45-1.31.45-1.95zm19.599 3.87c0 .12-.04.24-.12.36-.08.12-.18.23-.3.33-.1.1-.22.19-.36.27-.12.06-.23.09-.33.09-.34 0-.78-.07-1.32-.21-.52-.16-.94-.4-1.26-.72-.34-.34-.64-.74-.9-1.2-.26-.48-.55-1.18-.87-2.1-.22.88-.48 1.75-.78 2.61-.28.86-.74 1.65-1.38 2.37-.04.04-.1.06-.18.06-.14 0-.29-.07-.45-.21-.16-.14-.24-.28-.24-.42 0-.14-.02-.46-.06-.96-.02-.52-.05-1.09-.09-1.71l-.12-1.92c-.02-.66-.03-1.2-.03-1.62 0-.2.01-.46.03-.78.02-.34.08-.63.18-.87.02-.04.09-.12.21-.24.14-.12.29-.18.45-.18.14 0 .22.09.24.27.02.18.03.38.03.6v4.74c0 .1.01.24.03.42.04.18.09.31.15.39.22-.48.42-1.04.6-1.68.2-.66.39-1.28.57-1.86.18-.6.36-1.1.54-1.5.18-.42.36-.63.54-.63.2 0 .36.04.48.12.12.08.22.24.3.48.1.58.18 1.1.24 1.56.06.44.13.84.21 1.2.1.36.23.7.39 1.02.18.3.42.58.72.84.28.26.59.45.93.57.36.12.67.18.93.18.12 0 .25-.02.39-.06.14-.06.24-.09.3-.09.08 0 .15.07.21.21.08.14.12.23.12.27zm15.497-2.55c0 .36-.17.81-.51 1.35-.32.52-.76 1.03-1.32 1.53s-1.21.93-1.95 1.29c-.74.34-1.51.51-2.31.51-.36 0-.74-.06-1.14-.18-.4-.12-.79-.29-1.17-.51-.38-.24-.72-.52-1.02-.84-.3-.34-.52-.72-.66-1.14-.12.12-.27.32-.45.6-.16.28-.34.57-.54.87-.2.28-.42.53-.66.75-.24.2-.49.3-.75.3s-.48-.13-.66-.39c-.16-.28-.29-.58-.39-.9-.1-.34-.17-.66-.21-.96-.04-.3-.06-.47-.06-.51 0-.24.07-.69.21-1.35.14-.68.35-1.38.63-2.1.28-.72.63-1.36 1.05-1.92.44-.56.95-.84 1.53-.84.22 0 .36.1.42.3.08.18.12.36.12.54v.9c.1.08.2.14.3.18.12.02.22.06.3.12.1.04.17.11.21.21.06.1.09.26.09.48 0 .14-.01.27-.03.39-.02.1-.03.2-.03.3 0 .52.04 1.03.12 1.53.08.5.24.95.48 1.35.24.38.57.7.99.96.42.24.98.36 1.68.36.88 0 1.62-.18 2.22-.54.62-.38 1.13-.79 1.53-1.23.42-.46.75-.87.99-1.23.24-.38.44-.57.6-.57.26 0 .39.13.39.39zm-10.53-1.32c0-.08-.02-.15-.06-.21-.04-.08-.06-.15-.06-.21 0-.08.02-.15.06-.21.04-.06.06-.14.06-.24 0-.06-.02-.1-.06-.12-.04-.04-.06-.08-.06-.12-.18.04-.37.21-.57.51-.18.3-.36.65-.54 1.05-.16.4-.29.81-.39 1.23-.1.4-.15.73-.15.99 0 .14.04.37.12.69.08.32.17.53.27.63.34-.7.65-1.38.93-2.04.3-.66.45-1.31.45-1.95zm18.039 4.92c0 .22-.08.37-.24.45-.16.08-.24.19-.24.33-.02-.02.02.09.12.33.1.24.19.49.27.75.14.54.26 1.01.36 1.41.12.4.21.77.27 1.11.08.34.14.68.18 1.02.04.34.06.72.06 1.14 0 .42-.07.85-.21 1.29-.14.44-.34.83-.6 1.17-.26.34-.58.62-.96.84-.38.22-.81.33-1.29.33-.74 0-1.33-.15-1.77-.45-.42-.3-.74-.64-.96-1.02-.22-.38-.36-.76-.42-1.14-.06-.36-.09-.6-.09-.72 0-.74.19-1.48.57-2.22.38-.74.8-1.41 1.26-2.01.46-.6.88-1.1 1.26-1.5.38-.4.57-.63.57-.69l-.33-.99c-.2.24-.38.51-.54.81-.14.28-.3.55-.48.81-.16.24-.36.45-.6.63-.22.16-.5.24-.84.24-.36 0-.72-.11-1.08-.33-.36-.22-.68-.55-.96-.99-.28-.44-.51-.97-.69-1.59-.16-.62-.24-1.34-.24-2.16 0-.46.07-1.03.21-1.71.14-.7.36-1.37.66-2.01.3-.64.67-1.18 1.11-1.62.46-.46.99-.69 1.59-.69.34 0 .65.06.93.18.3.12.45.27.45.45 0 .16-.03.29-.09.39-.06.1-.14.2-.24.3-.06-.04-.13-.08-.21-.12-.06-.04-.15-.06-.27-.06-.44 0-.84.2-1.2.6-.34.38-.63.86-.87 1.44-.24.56-.43 1.15-.57 1.77-.12.62-.18 1.16-.18 1.62 0 1.02.17 1.8.51 2.34.34.52.7.78 1.08.78.18 0 .37-.13.57-.39.22-.28.42-.58.6-.9.2-.34.37-.66.51-.96.14-.3.22-.48.24-.54.04-.2.06-.43.06-.69 0-.22-.01-.46-.03-.72v-.84c0-.52.04-.95.12-1.29.08-.36.28-.54.6-.54.32 0 .55.1.69.3.14.18.21.4.21.66 0 .18-.01.4-.03.66v.72c0 .22-.01.42-.03.6v.3c0 .12.01.3.03.54.04.22.07.45.09.69.04.22.07.43.09.63.04.18.07.3.09.36l.09.27c.04.12.08.21.12.27.02-.04.06-.08.12-.12l.15-.15c.1.06.19.18.27.36.1.16.15.25.15.27zm-1.02 3.81c-.08-.32-.17-.64-.27-.96-.1-.32-.2-.65-.3-.99-.34.42-.67.82-.99 1.2-.3.4-.58.79-.84 1.17-.24.38-.44.77-.6 1.17-.14.42-.21.86-.21 1.32 0 .62.17 1.13.51 1.53.36.4.75.6 1.17.6.46 0 .89-.17 1.29-.51.42-.34.63-.83.63-1.47 0-.42-.01-.77-.03-1.05-.02-.28-.05-.53-.09-.75-.02-.2-.06-.4-.12-.6-.04-.18-.09-.4-.15-.66zm11.552-4.32c.02.04.03.1.03.18 0 .12-.09.3-.27.54-.06.08-.19.21-.39.39-.2.18-.47.36-.81.54-.34.18-.76.34-1.26.48-.48.14-1.05.21-1.71.21-.46 0-.91-.1-1.35-.3-.44-.22-.83-.53-1.17-.93-.34-.42-.62-.93-.84-1.53-.22-.62-.33-1.34-.33-2.16 0-.78.1-1.51.3-2.19.2-.68.45-1.28.75-1.8.32-.52.67-.93 1.05-1.23.38-.3.75-.45 1.11-.45.32 0 .64.07.96.21.34.12.64.28.9.48.28.2.5.43.66.69.16.24.24.49.24.75 0 .3-.14.61-.42.93-.26.32-.58.62-.96.9-.38.26-.76.48-1.14.66-.38.16-.68.24-.9.24-.12 0-.23-.05-.33-.15-.08-.12-.12-.26-.12-.42 0-.28.12-.5.36-.66.26-.16.54-.3.84-.42.3-.14.57-.3.81-.48.26-.18.39-.43.39-.75 0-.04-.05-.14-.15-.3-.1-.16-.37-.24-.81-.24-.2 0-.43.12-.69.36-.26.22-.51.53-.75.93-.24.38-.44.84-.6 1.38-.16.52-.24 1.09-.24 1.71 0 .52.09.99.27 1.41.2.42.45.78.75 1.08.3.28.65.5 1.05.66.4.16.81.24 1.23.24.3 0 .62-.06.96-.18.36-.14.69-.28.99-.42.32-.16.59-.3.81-.42.24-.14.39-.21.45-.21s.12.03.18.09c.08.06.13.12.15.18zm15.139.33c0 .16-.05.3-.15.42-.1.12-.22.22-.36.3-.14.06-.29.11-.45.15-.14.04-.26.06-.36.06-.42 0-.78-.22-1.08-.66-.3-.46-.55-.96-.75-1.5-.2-.56-.35-1.08-.45-1.56-.08-.48-.12-.74-.12-.78-.12.22-.25.59-.39 1.11-.12.52-.27 1.05-.45 1.59-.18.52-.41.99-.69 1.41-.26.4-.6.6-1.02.6-.2 0-.39-.12-.57-.36-.18-.24-.35-.55-.51-.93-.16-.38-.32-.81-.48-1.29-.14-.48-.29-.95-.45-1.41-.14-.46-.28-.89-.42-1.29-.14-.42-.28-.75-.42-.99-.12.3-.23.71-.33 1.23-.08.52-.15 1.07-.21 1.65-.06.56-.11 1.12-.15 1.68-.04.56-.06 1.05-.06 1.47 0 .28-.08.48-.24.6-.14.12-.29.18-.45.18-.22 0-.44-.14-.66-.42-.22-.3-.44-.68-.66-1.14-.22-.46-.43-.98-.63-1.56-.18-.58-.35-1.16-.51-1.74-.14-.58-.25-1.13-.33-1.65-.08-.54-.12-.99-.12-1.35 0-.26.01-.5.03-.72.02-.18.03-.35.03-.51.02-.16.03-.25.03-.27 0-.06-.02-.1-.06-.12-.02-.02-.03-.07-.03-.15 0-.06.07-.15.21-.27.16-.14.32-.21.48-.21.28 0 .46.06.54.18.1.12.15.26.15.42 0 .06-.01.15-.03.27v.81c0 .28.05.7.15 1.26.1.56.22 1.13.36 1.71.14.58.28 1.12.42 1.62.16.48.29.78.39.9.04-.08.06-.17.06-.27.02-.12.04-.21.06-.27l.33-2.46c.08-.62.24-1.27.48-1.95.26-.7.53-1.24.81-1.62.1-.16.21-.24.33-.24.12 0 .23.09.33.27.34.56.59 1.12.75 1.68.18.54.33 1.08.45 1.62.14.52.29 1.05.45 1.59.18.52.45 1.05.81 1.59.16-.26.36-.68.6-1.26l.72-1.8c.26-.6.5-1.12.72-1.56.22-.46.39-.69.51-.69.06 0 .16.01.3.03.14.02.24.03.3.03.18 0 .33.21.45.63.12.4.22.88.3 1.44.1.54.19 1.09.27 1.65.1.54.21.95.33 1.23.08.2.2.39.36.57.16.18.32.35.48.51l.6.54zm10.452-.33c.02.04.03.1.03.18 0 .12-.09.3-.27.54-.06.08-.19.21-.39.39-.2.18-.47.36-.81.54-.34.18-.76.34-1.26.48-.48.14-1.05.21-1.71.21-.46 0-.91-.1-1.35-.3-.44-.22-.83-.53-1.17-.93-.34-.42-.62-.93-.84-1.53-.22-.62-.33-1.34-.33-2.16 0-.78.1-1.51.3-2.19.2-.68.45-1.28.75-1.8.32-.52.67-.93 1.05-1.23.38-.3.75-.45 1.11-.45.32 0 .64.07.96.21.34.12.64.28.9.48.28.2.5.43.66.69.16.24.24.49.24.75 0 .3-.14.61-.42.93-.26.32-.58.62-.96.9-.38.26-.76.48-1.14.66-.38.16-.68.24-.9.24-.12 0-.23-.05-.33-.15-.08-.12-.12-.26-.12-.42 0-.28.12-.5.36-.66.26-.16.54-.3.84-.42.3-.14.57-.3.81-.48.26-.18.39-.43.39-.75 0-.04-.05-.14-.15-.3-.1-.16-.37-.24-.81-.24-.2 0-.43.12-.69.36-.26.22-.51.53-.75.93-.24.38-.44.84-.6 1.38-.16.52-.24 1.09-.24 1.71 0 .52.09.99.27 1.41.2.42.45.78.75 1.08.3.28.65.5 1.05.66.4.16.81.24 1.23.24.3 0 .62-.06.96-.18.36-.14.69-.28.99-.42.32-.16.59-.3.81-.42.24-.14.39-.21.45-.21s.12.03.18.09c.08.06.13.12.15.18zm10.819-.54c0 .12-.04.24-.12.36-.08.12-.18.23-.3.33-.1.1-.22.19-.36.27-.12.06-.23.09-.33.09-.34 0-.78-.07-1.32-.21-.52-.16-.94-.4-1.26-.72-.34-.34-.64-.74-.9-1.2-.26-.48-.55-1.18-.87-2.1-.22.88-.48 1.75-.78 2.61-.28.86-.74 1.65-1.38 2.37-.04.04-.1.06-.18.06-.14 0-.29-.07-.45-.21-.16-.14-.24-.28-.24-.42 0-.14-.02-.46-.06-.96-.02-.52-.05-1.09-.09-1.71l-.12-1.92c-.02-.66-.03-1.2-.03-1.62 0-.2.01-.46.03-.78.02-.34.08-.63.18-.87.02-.04.09-.12.21-.24.14-.12.29-.18.45-.18.14 0 .22.09.24.27.02.18.03.38.03.6v4.74c0 .1.01.24.03.42.04.18.09.31.15.39.22-.48.42-1.04.6-1.68.2-.66.39-1.28.57-1.86.18-.6.36-1.1.54-1.5.18-.42.36-.63.54-.63.2 0 .36.04.48.12.12.08.22.24.3.48.1.58.18 1.1.24 1.56.06.44.13.84.21 1.2.1.36.23.7.39 1.02.18.3.42.58.72.84.28.26.59.45.93.57.36.12.67.18.93.18.12 0 .25-.02.39-.06.14-.06.24-.09.3-.09.08 0 .15.07.21.21.08.14.12.23.12.27zm9.197-9.87c-.26.3-.63.6-1.11.9-.48.28-.96.54-1.44.78l-1.26.63c-.36.16-.54.27-.54.33s.04.24.12.54c.08.3.17.66.27 1.08.12.4.24.82.36 1.26.12.44.22.83.3 1.17.04.2.09.46.15.78s.11.64.15.96c.06.32.11.61.15.87.04.24.06.37.06.39 0 .3-.05.61-.15.93-.1.32-.26.48-.48.48-.12 0-.23-.05-.33-.15-.1-.1-.19-.21-.27-.33-.08-.14-.14-.27-.18-.39-.04-.12-.06-.21-.06-.27v-.18c.02-.08.03-.17.03-.27 0-.38-.06-.93-.18-1.65-.04-.22-.12-.56-.24-1.02-.12-.46-.24-.93-.36-1.41-.14-.56-.3-1.17-.48-1.83-.08-.28-.13-.42-.15-.42-.14 0-.38.09-.72.27-.32.16-.69.37-1.11.63-.42.24-.86.51-1.32.81-.46.28-.89.55-1.29.81-.4.24-.74.45-1.02.63-.3.16-.48.24-.54.24-.26 0-.47-.09-.63-.27-.16-.18-.24-.38-.24-.6 0-.12.17-.29.51-.51.32-.24.73-.5 1.23-.78.48-.28 1.01-.57 1.59-.87.56-.3 1.08-.57 1.56-.81.5-.24.91-.44 1.23-.6l.51-.24c-.18-.92-.33-1.74-.45-2.46-.1-.62-.2-1.19-.3-1.71-.08-.52-.12-.8-.12-.84 0-.26.05-.45.15-.57.12-.14.25-.21.39-.21.22 0 .36.15.42.45.22 1.08.42 2.04.6 2.88.2.84.39 1.52.57 2.04.18-.04.49-.15.93-.33.44-.2.9-.41 1.38-.63.48-.22.91-.41 1.29-.57.4-.18.63-.27.69-.27.12 0 .19.04.21.12.04.08.08.15.12.21z" fill="#000"/><path d="M276.101 270.268c-.574 4.381-.999 8.902 4.562 9.906 6.225 1.124 12.235.21 18.33.551 3.876.216 9.154.342 12.391 4.48 2.419 3.091 2.48 6.816 2.788 10.173" stroke="#000" stroke-linecap="round" stroke-linejoin="round"/><path d="M319.411 280.853c-2.642 4.233-2.548 9.481-4.784 13.817-.701 1.358-.607.554-.745-.186-.356-1.902-3.523-3.572-4.998-4.097-1.307-.464-8.988 1.678-1.625-1.47 6.881-4.683 13.116-7.388 11.747-7.37-4.348.057-7.221 5.991-10.305 8.372-4.096 3.162 3.915-3.367 6.653-4.155" stroke="#000" stroke-linecap="round" stroke-linejoin="round"/><path fill-rule="evenodd" clip-rule="evenodd" d="M370.066 184c12.695 0 23.371 8.166 26.544 20.415 10.387 1.166 18.177 9.915 18.177 20.414 0 11.374-8.944 20.415-20.196 20.415h-50.492c-8.656 0-15.869-7.291-15.869-16.04 0-8.458 6.348-15.457 14.426-16.04v-1.458c0-15.166 12.407-27.706 27.41-27.706zm4.053 31.022l.824.208c2.21.543 7.385 1.813 7.385 7.346 0 4.561-3.354 7.558-8.876 8.087v2.287c0 .447-.364.81-.811.81h-2.028c-.448 0-.811-.362-.811-.81v-2.305c-2.816-.315-5.247-1.354-6.836-2.961-1.477-1.492-2.242-3.42-2.277-5.734h5.033c.137 3.064 2.41 4.882 6.138 4.882 1.276 0 5.441-.259 5.441-3.59 0-2.664-3.095-3.422-6.37-4.225-.559-.136-1.128-.276-1.696-.428-3.706-.978-7.659-2.423-7.659-7.218 0-4.769 4.045-7.193 8.225-7.621v-2.352c0-.448.363-.811.811-.811h2.028c.448 0 .811.363.811.811v2.445c3.195.449 7.828 2.079 7.985 7.747h-5.045c-.267-2.687-2.067-3.994-5.493-3.994-1.981 0-4.294.862-4.294 3.293 0 2.204 1.294 2.536 7.515 4.133z" fill="url(#paint2_linear)"/><path d="M310.14 354.73l25.61-16.829 57.806 1.463 30 19.025v19.025l-27.666 20.45h-53.555l-32.195-22.645V354.73z" fill="#fff"/><path fill-rule="evenodd" clip-rule="evenodd" d="M342.154 334.635c.187.304.093.703-.212.89-9.512 5.854-24.875 15.364-33.65 20.958-.302.192-.702.104-.894-.198-.192-.301-.104-.701.198-.894 8.785-5.6 24.155-15.115 33.667-20.968.305-.188.704-.093.891.212z" fill="#000"/><path fill-rule="evenodd" clip-rule="evenodd" d="M310.34 352.896c.205-.293.608-.365.901-.16 3.482 2.433 7.16 5.038 10.884 7.676 8.789 6.225 17.838 12.635 25.196 17.409.3.195.385.595.191.895-.195.3-.596.386-.896.191-7.381-4.788-16.468-11.225-25.267-17.458-3.718-2.633-7.385-5.23-10.849-7.651-.293-.205-.365-.609-.16-.902zM390.086 337.547c.196-.299.597-.383.896-.188 10.412 6.798 24.129 15.355 34.359 21.2.31.177.418.573.24.883-.177.311-.572.419-.883.241-10.259-5.862-23.999-14.433-34.424-21.24-.299-.195-.383-.596-.188-.896z" fill="#000"/><path fill-rule="evenodd" clip-rule="evenodd" d="M393.791 378.623c.23.274.639.309.912.079 2.906-2.445 8.412-6.039 14.374-9.9.298-.193.597-.386.896-.58 5.674-3.674 11.633-7.532 15.957-10.779.286-.214.344-.62.129-.906-.215-.286-.621-.344-.906-.129-4.287 3.218-10.211 7.054-15.901 10.738-.294.19-.587.38-.879.569-5.929 3.84-11.52 7.486-14.503 9.996-.274.23-.309.639-.079.912zM393.037 399.754c.215.286.62.344.906.13 11.703-8.777 19.747-14.627 32.181-23.404.292-.207.362-.611.155-.903-.206-.292-.61-.361-.902-.155-12.444 8.784-20.498 14.641-32.211 23.426-.286.214-.344.62-.129.906zM307.426 372.635c.214-.286.62-.344.906-.129 11.7 8.775 21.938 16.088 34.376 24.867.292.206.362.61.155.903-.206.292-.61.361-.902.155-12.441-8.782-22.691-16.103-34.406-24.889-.286-.215-.344-.621-.129-.907z" fill="#000"/><path fill-rule="evenodd" clip-rule="evenodd" d="M339.074 375.643c0-.358.29-.648.648-.648l62.509.001c.358 0 .648.289.648.647 0 .357-.29.647-.648.647h-62.509c-.358 0-.648-.29-.648-.647zM329.98 337.88c.011-.357.31-.637.668-.626 22.684.732 46.821 1.463 70.224 1.463.358 0 .647.29.647.647 0 .358-.289.648-.647.648-23.427 0-47.583-.732-70.266-1.464-.357-.011-.638-.31-.626-.668zM397.703 398.593h-58.886c-.357 0-.647-.29-.647-.647 0-.358.29-.648.647-.648h58.886c.357 0 .647.29.647.648 0 .357-.29.647-.647.647zM310.871 349.733c.357 0 .647.289.647.647v26.302c0 .358-.29.647-.647.647-.358 0-.648-.289-.648-.647V350.38c0-.358.29-.647.648-.647zM423.556 354.815c.357 0 .647.29.647.647v26.619c0 .357-.29.647-.647.647-.358 0-.648-.29-.648-.647v-26.619c0-.357.29-.647.648-.647z" fill="#000"/><path fill-rule="evenodd" clip-rule="evenodd" d="M341.603 373.84c.357 0 .647.29.647.647v24.089c0 .358-.29.648-.647.648-.358 0-.647-.29-.647-.648v-24.089c0-.357.289-.647.647-.647zM397.214 371.644c.357 0 .647.29.647.648v27.386c0 .357-.29.647-.647.647-.358 0-.648-.29-.648-.647v-27.386c0-.358.29-.648.648-.648zM313.229 354.736c.346.089.554.442.465.788l-2.195 8.518c-.089.347-.442.555-.788.466-.347-.09-.555-.443-.466-.789l2.196-8.518c.089-.346.442-.555.788-.465zm5.506 3.758c.346.089.554.442.465.788l-4.714 18.293c-.089.346-.442.555-.788.465-.347-.089-.555-.442-.466-.788l4.714-18.293c.09-.346.443-.555.789-.465zM324.37 362.121c.346.089.554.442.465.788l-4.722 18.325c-.09.346-.443.554-.789.465-.346-.089-.554-.442-.465-.788l4.722-18.325c.089-.346.442-.554.789-.465zm4.714 3.69c.346.089.554.442.465.788l-4.714 18.293c-.089.347-.442.555-.789.466-.346-.089-.554-.442-.465-.789l4.714-18.293c.09-.346.442-.554.789-.465zm5.531 3.659c.346.089.555.442.466.788l-4.903 19.025c-.089.346-.442.554-.789.465-.346-.089-.554-.442-.465-.788l4.903-19.025c.089-.346.442-.555.788-.465z" fill="#000"/><path fill-rule="evenodd" clip-rule="evenodd" d="M351.899 375.243c.346.09.554.443.465.789l-5.489 21.299c-.089.347-.442.555-.788.466-.347-.09-.555-.443-.466-.789l5.489-21.299c.09-.347.443-.555.789-.466zm-11.597-2.107c.347.089.555.442.466.789l-4.901 19.016c-.089.346-.442.555-.788.465-.347-.089-.555-.442-.466-.788l4.901-19.016c.089-.347.442-.555.788-.466zm5.122 2.107c.347.09.555.443.466.789l-5.122 19.876c-.09.346-.443.554-.789.465-.346-.089-.554-.442-.465-.788l5.122-19.876c.089-.347.442-.555.788-.466zM371.655 375.236c.346.09.555.443.465.789l-5.679 22.038c-.089.347-.442.555-.788.466-.347-.089-.555-.442-.466-.789l5.68-22.038c.089-.346.442-.555.788-.466zm-6.474 0c.346.09.554.443.465.789l-5.679 22.038c-.09.347-.443.555-.789.466-.346-.089-.554-.442-.465-.789l5.679-22.038c.09-.346.443-.555.789-.466zm-5.665 0c.346.09.554.443.465.789l-5.679 22.038c-.09.347-.443.555-.789.466-.346-.089-.554-.442-.465-.789l5.679-22.038c.089-.346.442-.555.789-.466zM389.693 376.055c.346.089.555.442.465.789l-5.468 21.219c-.089.347-.442.555-.788.466-.347-.089-.555-.442-.466-.789l5.469-21.22c.089-.346.442-.554.788-.465zm-6.474 0c.346.089.554.442.465.789l-5.468 21.219c-.089.347-.442.555-.789.466-.346-.089-.554-.442-.465-.789l5.468-21.22c.09-.346.443-.554.789-.465zm-5.665 0c.346.089.554.442.465.789l-5.468 21.219c-.09.347-.443.555-.789.466-.346-.089-.554-.442-.465-.789l5.468-21.22c.09-.346.443-.554.789-.465zM410.393 366.543c.346.089.555.442.465.788l-6.222 24.147c-.089.346-.442.555-.789.465-.346-.089-.554-.442-.465-.788l6.223-24.147c.089-.346.442-.554.788-.465zm-7.983 5.853c.347.09.555.443.466.789l-6.412 24.878c-.089.347-.442.555-.788.466-.346-.09-.555-.443-.465-.789l6.411-24.878c.089-.346.442-.555.788-.466zm-6.419 2.927c.346.09.555.443.465.789l-5.657 21.951c-.089.347-.442.555-.788.466-.346-.09-.555-.443-.465-.789l5.657-21.951c.089-.347.442-.555.788-.466zM424.011 361.42c.346.09.554.443.465.789l-4.714 18.293c-.089.346-.442.554-.789.465-.346-.089-.554-.442-.465-.788l4.714-18.293c.089-.346.442-.555.789-.466zm-6.878 1.464c.346.089.555.442.465.788l-5.657 21.952c-.089.346-.442.555-.788.465-.346-.089-.555-.442-.465-.788l5.657-21.952c.089-.346.442-.554.788-.465z" fill="#000"/><path d="M393.557 321.071c-4.17 16.086-9.946 36.422-23.406 37.319-21.961 1.463-23.424-15.087-23.424-32.197 1.787-16.085 12.12-35.122 25.61-35.122s24.794 4.383 21.22 30z" fill="#fff"/><path fill-rule="evenodd" clip-rule="evenodd" d="M353.408 356.071c.069-.351.409-.58.76-.512 3.033.593 5.551 1.145 7.966 1.674 3.595.787 6.962 1.525 11.461 2.274.353.058.591.392.533.744-.059.353-.392.591-.745.533-4.516-.751-7.949-1.503-11.58-2.298-2.415-.528-4.917-1.076-7.883-1.656-.351-.068-.58-.408-.512-.759z" fill="#000"/><path fill-rule="evenodd" clip-rule="evenodd" d="M389.339 294.971c3.622 3.218 5.597 9.287 5.597 14.393 0 4.915-1.475 17.42-5.061 28.799-1.793 5.69-4.128 11.144-7.102 15.236-2.972 4.087-6.652 6.905-11.14 7.101-.054.002-.108-.002-.16-.013-5.965-1.245-8.894-7.09-10.043-14.056-1.156-7.019-.571-15.486.758-22.553 2.066-10.984 7.037-19.806 11.729-25.286-.073-.22-.024-.473.148-.653 3.057-3.178 5.916-4.781 8.526-5.144 2.634-.366 4.913.546 6.748 2.176zm-10.907.913c1.575-1.062 3.025-1.624 4.337-1.806 2.196-.305 4.106.436 5.71 1.861 3.257 2.894 5.162 8.551 5.162 13.425 0 4.776-1.452 17.15-5.001 28.41-1.774 5.629-4.058 10.934-6.915 14.863-2.839 3.907-6.175 6.364-10.067 6.565-5.064-1.102-7.823-6.145-8.95-12.982-1.124-6.819-.56-15.124.752-22.102 2.56-13.612 9.673-23.774 14.898-28.161.027-.023.052-.047.074-.073z" fill="#000"/><path fill-rule="evenodd" clip-rule="evenodd" d="M372.105 291.215c-3.653 0-6.413 1.082-9.645 3.316-3.799 2.624-7.073 7.116-9.589 12.608-2.513 5.484-4.246 11.915-4.994 18.355-.749 6.443-.508 12.864.901 18.335 1.411 5.476 3.976 9.937 7.825 12.562.296.202.372.604.171.9-.202.295-.605.371-.9.17-4.199-2.863-6.892-7.654-8.35-13.309-1.458-5.66-1.695-12.248-.933-18.807.762-6.562 2.528-13.126 5.103-18.745 2.57-5.61 5.969-10.329 10.03-13.135 3.388-2.341 6.4-3.545 10.381-3.545 3.929 0 8.764 1.175 15.798 3.462.34.111.526.476.415.816-.11.34-.475.526-.815.416-7.033-2.287-11.694-3.399-15.398-3.399z" fill="#000"/><path fill-rule="evenodd" clip-rule="evenodd" d="M380.379 310.126c1.949.234 3.973 1.635 5.803 4.417.196.298.114.7-.185.896-.299.197-.7.114-.897-.185-1.716-2.609-3.45-3.671-4.876-3.843-1.405-.169-2.687.505-3.589 1.771-1.815 2.546-1.957 7.389 2.085 11.261 4.394 4.209 5.376 10.094 3.09 13.475-1.17 1.729-3.148 2.708-5.739 2.452-2.555-.253-5.687-1.698-9.313-4.719-.274-.229-.311-.637-.083-.912.229-.274.638-.312.912-.083 3.523 2.936 6.416 4.208 8.612 4.425 2.159.213 3.657-.586 4.538-1.889 1.815-2.683 1.198-7.877-2.912-11.814-4.462-4.274-4.467-9.829-2.244-12.947 1.116-1.567 2.827-2.543 4.798-2.305z" fill="#000"/><path fill-rule="evenodd" clip-rule="evenodd" d="M383.431 307.126c.345.096.547.452.451.797-2.985 10.745-7.161 23.273-11.38 34.75-.123.336-.495.508-.831.384-.336-.123-.508-.495-.384-.831 4.211-11.454 8.375-23.948 11.347-34.65.096-.344.453-.546.797-.45zM360.737 294.557c.094-.345.45-.547.795-.451l13.171 3.658c.345.096.547.453.453.798-.095.345-.451.546-.796.451l-13.171-3.659c-.344-.096-.547-.453-.452-.797zm6.581-3.642c.085-.348.436-.559.783-.473 2.882.717 4.449 1.166 5.979 1.606l.055.015c1.504.433 2.985.858 5.679 1.528.347.086.559.438.474.785-.085.347-.436.559-.783.472-2.716-.675-4.214-1.106-5.725-1.54l-.054-.015c-1.522-.437-3.073-.882-5.934-1.593-.347-.087-.559-.438-.474-.785zM350.489 309.207c.086-.347.436-.558.783-.472l14.635 3.659c.347.087.558.438.473.786-.086.347-.437.558-.784.471l-14.634-3.659c-.347-.086-.559-.438-.473-.785zm2.927-5.121c.085-.348.435-.559.782-.473 3.129.778 5.129 1.326 7.085 1.863l.075.021c1.928.528 3.825 1.049 6.743 1.775.347.086.559.438.474.785-.085.347-.436.558-.783.472-2.933-.729-4.842-1.253-6.772-1.783l-.076-.021c-1.953-.536-3.941-1.08-7.054-1.854-.347-.087-.56-.438-.474-.785zm2.927-5.123c.085-.347.435-.558.782-.472 2.993.744 5.226 1.305 7.424 1.856l.078.019c.027.007.054.014.08.021l7.053 1.763c.346.086.559.438.473.785-.085.347-.435.558-.782.472-2.784-.692-4.911-1.226-7.055-1.763l-7.58-1.895c-.346-.087-.559-.439-.473-.786zM347.559 321.663c.077-.35.422-.57.771-.492 2.927.65 4.979 1.01 6.865 1.34.225.039.448.078.669.117 2.083.367 4.056.736 6.891 1.472.346.09.555.444.466.79-.089.346-.441.554-.788.464-2.787-.724-4.723-1.086-6.79-1.45-.221-.039-.443-.078-.668-.117-1.887-.331-3.966-.694-6.923-1.352-.349-.077-.57-.423-.493-.772zm1.466-5.867c.084-.346.431-.56.778-.477l6.813 1.622c1.845.425 3.683.848 6.368 1.516.346.086.558.435.475.782-.083.346-.431.559-.777.477l-6.357-1.513c-.021-.005-.043-.01-.064-.015l-.065-.015c-1.89-.435-3.816-.879-6.696-1.595-.346-.086-.558-.435-.475-.782zm-2.193 11.701c.087-.346.438-.556.785-.468l14.4 3.659c.346.088.557.44.47.787-.088.347-.439.556-.786.468l-14.399-3.658c-.347-.088-.557-.441-.47-.788zM346.824 334.116c.069-.35.407-.577.757-.51l7.173 1.393c1.481.271 2.972.546 6.008 1.166.349.071.575.412.507.761-.069.35-.407.578-.756.51l-5.996-1.164c-.045-.008-.091-.017-.136-.025-.048-.009-.095-.017-.142-.026-1.583-.29-3.269-.601-6.908-1.344-.349-.071-.575-.411-.507-.761zm.739 5.824c.085-.347.435-.559.782-.472 3.113.774 6.4 1.52 8.91 2.072 1.254.277 2.314.504 3.06.663.372.079.667.141.868.184l.307.064-.128.634-.13.635-.311-.065c-.202-.043-.498-.105-.872-.185-.749-.159-1.811-.387-3.069-.664-2.515-.554-5.814-1.303-8.944-2.081-.346-.086-.559-.438-.473-.785zm14.433 3.277c-.072.35-.414.575-.764.503l.13-.635.128-.634c.35.072.577.415.506.766zM348.289 346.026c.076-.35.42-.571.769-.494 2.105.461 4.208.905 6.324 1.352 2.369.501 4.755 1.005 7.181 1.541.349.077.57.423.494.772-.076.349-.421.57-.77.493-2.452-.542-4.807-1.039-7.152-1.534-2.104-.445-4.2-.887-6.35-1.359-.35-.076-.571-.422-.496-.771zm2.194 5.444c.073-.351.415-.575.765-.501 2.399.505 4.549.901 6.985 1.35 2.031.375 4.261.786 7 1.327.351.07.58.41.511.761-.068.351-.408.58-.758.51-2.695-.532-4.921-.943-6.958-1.319-2.459-.453-4.643-.856-7.043-1.361-.35-.074-.574-.417-.502-.767z" fill="#000"/><path opacity=".7" d="M424.178 377.53l-27.355 19.598-55.532 1.276-31.434-23.732L274.336 184l187.405 2.858-37.563 190.672z" fill="url(#paint3_linear)"/></g><defs><linearGradient id="paint0_linear" x1="430.361" y1="813.909" x2="-28.4321" y2="324.632" gradientUnits="userSpaceOnUse"><stop offset=".153466" stop-color="#FFC101" stop-opacity=".78"/><stop offset=".667402" stop-color="#FFC101" stop-opacity="0"/></linearGradient><linearGradient id="paint1_linear" x1="197.155" y1="153.917" x2="300.661" y2="608.792" gradientUnits="userSpaceOnUse"><stop stop-color="#01C9CC" stop-opacity="0"/><stop offset=".260417" stop-color="#01C9CC" stop-opacity="0"/><stop offset=".648566" stop-color="#01C9CC" stop-opacity=".97"/><stop offset=".888337" stop-color="#fff" stop-opacity="0"/></linearGradient><linearGradient id="paint2_linear" x1="300.271" y1="203.782" x2="333.091" y2="275.584" gradientUnits="userSpaceOnUse"><stop stop-color="#00CFDE"/><stop offset="1" stop-color="#05A660"/></linearGradient><linearGradient id="paint3_linear" x1="368.241" y1="213.397" x2="380.452" y2="602.105" gradientUnits="userSpaceOnUse"><stop offset=".0385655" stop-color="#01C9CC" stop-opacity="0"/><stop offset=".328038" stop-color="#01C9CC" stop-opacity=".44"/><stop offset=".54534" stop-color="#01C9CC" stop-opacity="0"/></linearGradient></defs></svg>