<svg fill="none" viewBox="0 0 413 260" xmlns="http://www.w3.org/2000/svg" xmlns:xlink="http://www.w3.org/1999/xlink"><radialGradient id="a" cx="0" cy="0" gradientTransform="matrix(-.91199813 32.77711463 -112.75536152 -3.13733164 222.066 201.542)" gradientUnits="userSpaceOnUse" r="1"><stop offset="0"/><stop offset="1" stop-color="#3e7bfa" stop-opacity="0"/></radialGradient><linearGradient id="b" gradientUnits="userSpaceOnUse" x1="102.418" x2="173.361" y1="44.9487" y2="185.179"><stop offset="0" stop-color="#73dfe7" stop-opacity=".65"/><stop offset="1" stop-color="#0095f7"/></linearGradient><path d="m413 198c0 33.137-92.453 60-206.5 60-114.0468 0-206.5-26.863-206.5-60s92.4532-60 206.5-60c114.047 0 206.5 26.863 206.5 60z" fill="url(#a)" fill-opacity=".1" opacity=".7"/><path d="m242.441 193.474v-33.071l-32.396-7.424-22.947 7.424v33.071l31.721 10.123z" fill="#fff"/><path clip-rule="evenodd" d="m187.926 155.883c.276 0 .5.224.5.5v43.594c0 .276-.224.5-.5.5s-.5-.224-.5-.5v-43.594c0-.276.224-.5.5-.5z" fill="#000" fill-rule="evenodd"/><path clip-rule="evenodd" d="m183.978 194.824c.072-.267.347-.428.615-.36l39.829 10.06c.268.067.426.338.355.605-.072.267-.348.428-.615.36l-39.83-10.06c-.267-.068-.426-.339-.354-.605z" fill="#000" fill-rule="evenodd"/><path clip-rule="evenodd" d="m180.508 157.967c.054-.271.318-.449.59-.398l53.683 10.06c.271.051.447.311.393.582s-.318.449-.589.398l-53.683-10.06c-.272-.051-.448-.311-.394-.582z" fill="#000" fill-rule="evenodd"/><path clip-rule="evenodd" d="m208.222 151.239c.066-.268.338-.434.607-.372l43.293 10.06c.269.063.433.331.367.599-.067.268-.339.435-.608.372l-43.292-10.06c-.269-.063-.434-.331-.367-.599z" fill="#000" fill-rule="evenodd"/><path clip-rule="evenodd" d="m215.17 205.679c-.108-.254.011-.543.268-.646l34.634-13.899c.256-.103.552.019.661.273.108.254-.011.543-.268.646l-34.634 13.899c-.256.103-.552-.019-.661-.273z" fill="#000" fill-rule="evenodd"/><path clip-rule="evenodd" d="m216.884 166.696c-.077-.266.077-.539.344-.612l31.301-8.505c.267-.072.545.084.622.35.077.265-.077.538-.343.611l-31.302 8.505c-.267.072-.545-.084-.622-.349z" fill="#000" fill-rule="evenodd"/><path clip-rule="evenodd" d="m180.522 161.183c-.082-.263.066-.54.331-.618l44.396-13.043c.265-.078.546.073.629.336.083.264-.065.54-.33.618l-44.396 13.043c-.265.078-.547-.072-.63-.336z" fill="#000" fill-rule="evenodd"/><path clip-rule="evenodd" d="m220.828 164.266c.276 0 .5.223.5.5v40.241c0 .276-.224.5-.5.5s-.5-.224-.5-.5v-40.241c0-.277.224-.5.5-.5z" fill="#000" fill-rule="evenodd"/><path clip-rule="evenodd" d="m243.344 158.396c.276 0 .5.224.5.5v36.384c0 .276-.224.5-.5.5s-.5-.224-.5-.5v-36.384c0-.276.224-.5.5-.5z" fill="#000" fill-rule="evenodd"/><path clip-rule="evenodd" d="m237.669 159.737c.269.065.433.333.364.6l-9.863 38.564c-.069.267-.342.431-.612.366-.269-.065-.432-.333-.364-.6l9.864-38.564c.068-.267.342-.431.611-.366zm5.203 1.387c.268.068.427.34.355.605l-10.127 37.179c-.073.266-.349.426-.617.357-.269-.069-.427-.34-.355-.605l10.127-37.18c.072-.265.348-.425.617-.356zm-10.569-1.387c.27.064.433.333.365.6-1.736 6.783-3.517 13.872-5.271 20.855l-.085.339c-1.724 6.867-3.422 13.626-5.023 19.885-.068.267-.342.43-.611.366-.27-.065-.433-.333-.365-.6 1.601-6.257 3.298-13.014 5.023-19.882l.085-.337c1.754-6.984 3.535-14.074 5.271-20.86.068-.267.342-.431.611-.366zm-6.103 3.353c.27.065.433.333.365.6l-5.79 22.636c-.068.266-.342.43-.611.366-.27-.065-.433-.334-.364-.6l5.789-22.636c.068-.266.342-.43.611-.366z" fill="#000" fill-rule="evenodd"/><path clip-rule="evenodd" d="m242.887 180.411c.266.076.416.352.336.615l-4.955 16.221c-.081.263-.362.414-.628.338-.266-.077-.416-.353-.335-.616l4.955-16.22c.08-.264.361-.415.627-.338z" fill="#000" fill-rule="evenodd"/><path d="m287.441 209.474v-33.071l-32.396-7.424-22.947 7.424v33.071l31.721 10.123z" fill="#fff"/><path clip-rule="evenodd" d="m232.926 171.883c.276 0 .5.224.5.5v43.594c0 .276-.224.5-.5.5s-.5-.224-.5-.5v-43.594c0-.276.224-.5.5-.5z" fill="#000" fill-rule="evenodd"/><path clip-rule="evenodd" d="m228.978 210.824c.072-.267.347-.428.615-.36l39.829 10.06c.268.067.426.338.355.605-.072.267-.348.428-.615.36l-39.83-10.06c-.267-.068-.426-.339-.354-.605z" fill="#000" fill-rule="evenodd"/><path clip-rule="evenodd" d="m225.508 173.967c.054-.271.318-.449.59-.398l53.683 10.06c.271.051.447.311.393.582s-.318.449-.589.398l-53.683-10.06c-.272-.051-.448-.311-.394-.582z" fill="#000" fill-rule="evenodd"/><path clip-rule="evenodd" d="m253.222 167.239c.066-.268.338-.434.607-.372l43.293 10.06c.269.063.433.331.367.599-.067.268-.339.435-.608.372l-43.292-10.06c-.269-.063-.434-.331-.367-.599z" fill="#000" fill-rule="evenodd"/><path clip-rule="evenodd" d="m260.17 221.679c-.108-.254.011-.543.268-.646l34.634-13.899c.256-.103.552.019.661.273.108.254-.011.543-.268.646l-34.634 13.899c-.256.103-.552-.019-.661-.273z" fill="#000" fill-rule="evenodd"/><path clip-rule="evenodd" d="m261.884 182.696c-.077-.266.077-.539.344-.612l31.301-8.505c.267-.072.545.084.622.35.077.265-.077.538-.343.611l-31.302 8.505c-.267.072-.545-.084-.622-.349z" fill="#000" fill-rule="evenodd"/><path clip-rule="evenodd" d="m225.522 177.183c-.082-.263.066-.54.331-.618l44.396-13.043c.265-.078.546.073.629.336.083.264-.065.54-.33.618l-44.396 13.043c-.265.078-.547-.072-.63-.336z" fill="#000" fill-rule="evenodd"/><path clip-rule="evenodd" d="m265.828 180.266c.276 0 .5.223.5.5v40.241c0 .276-.224.5-.5.5s-.5-.224-.5-.5v-40.241c0-.277.224-.5.5-.5z" fill="#000" fill-rule="evenodd"/><path clip-rule="evenodd" d="m288.344 174.396c.276 0 .5.224.5.5v36.384c0 .276-.224.5-.5.5s-.5-.224-.5-.5v-36.384c0-.276.224-.5.5-.5z" fill="#000" fill-rule="evenodd"/><path clip-rule="evenodd" d="m282.669 175.737c.269.065.433.333.364.6l-9.863 38.564c-.069.267-.342.431-.612.366-.269-.065-.432-.333-.364-.6l9.864-38.564c.068-.267.342-.431.611-.366zm5.203 1.387c.268.068.427.34.355.605l-10.127 37.179c-.073.266-.349.426-.617.357-.269-.069-.427-.34-.355-.605l10.127-37.18c.072-.265.348-.425.617-.356zm-10.569-1.387c.27.064.433.333.365.6-1.736 6.783-3.517 13.872-5.271 20.855l-.085.339c-1.724 6.867-3.422 13.626-5.023 19.885-.068.267-.342.43-.611.366-.27-.065-.433-.333-.365-.6 1.601-6.257 3.298-13.014 5.023-19.882l.085-.337c1.754-6.984 3.535-14.074 5.271-20.86.068-.267.342-.431.611-.366zm-6.103 3.353c.27.065.433.333.365.6l-5.79 22.636c-.068.266-.342.43-.611.366-.27-.065-.433-.334-.364-.6l5.789-22.636c.068-.266.342-.43.611-.366z" fill="#000" fill-rule="evenodd"/><path clip-rule="evenodd" d="m287.887 196.411c.266.076.416.352.336.615l-4.955 16.221c-.081.263-.362.414-.628.338-.266-.077-.416-.353-.335-.616l4.955-16.22c.08-.264.361-.415.627-.338z" fill="#000" fill-rule="evenodd"/><path d="m250.441 218.474v-33.071l-32.396-7.424-22.947 7.424v33.071l31.721 10.123z" fill="#fff"/><path clip-rule="evenodd" d="m195.926 180.883c.276 0 .5.224.5.5v43.594c0 .276-.224.5-.5.5s-.5-.224-.5-.5v-43.594c0-.276.224-.5.5-.5z" fill="#000" fill-rule="evenodd"/><path clip-rule="evenodd" d="m191.978 219.824c.072-.267.347-.428.615-.36l39.829 10.06c.268.067.426.338.355.605-.072.267-.348.428-.615.36l-39.83-10.06c-.267-.068-.426-.339-.354-.605z" fill="#000" fill-rule="evenodd"/><path clip-rule="evenodd" d="m188.508 182.967c.054-.271.318-.449.59-.398l53.683 10.06c.271.051.447.311.393.582s-.318.449-.589.398l-53.683-10.06c-.272-.051-.448-.311-.394-.582z" fill="#000" fill-rule="evenodd"/><path clip-rule="evenodd" d="m216.222 176.239c.066-.268.338-.434.607-.372l43.293 10.06c.269.063.433.331.367.599-.067.268-.339.435-.608.372l-43.292-10.06c-.269-.063-.434-.331-.367-.599z" fill="#000" fill-rule="evenodd"/><path clip-rule="evenodd" d="m223.17 230.679c-.108-.254.011-.543.268-.646l34.634-13.899c.256-.103.552.019.661.273.108.254-.011.543-.268.646l-34.634 13.899c-.256.103-.552-.019-.661-.273z" fill="#000" fill-rule="evenodd"/><path clip-rule="evenodd" d="m224.884 191.696c-.077-.266.077-.539.344-.612l31.301-8.505c.267-.072.545.084.622.35.077.265-.077.538-.343.611l-31.302 8.505c-.267.072-.545-.084-.622-.349z" fill="#000" fill-rule="evenodd"/><path clip-rule="evenodd" d="m188.522 186.183c-.082-.263.066-.54.331-.618l44.396-13.043c.265-.078.546.073.629.336.083.264-.065.54-.33.618l-44.396 13.043c-.265.078-.547-.072-.63-.336z" fill="#000" fill-rule="evenodd"/><path clip-rule="evenodd" d="m228.828 189.266c.276 0 .5.223.5.5v40.241c0 .276-.224.5-.5.5s-.5-.224-.5-.5v-40.241c0-.277.224-.5.5-.5z" fill="#000" fill-rule="evenodd"/><path clip-rule="evenodd" d="m251.344 183.396c.276 0 .5.224.5.5v36.384c0 .276-.224.5-.5.5s-.5-.224-.5-.5v-36.384c0-.276.224-.5.5-.5z" fill="#000" fill-rule="evenodd"/><path clip-rule="evenodd" d="m245.669 184.737c.269.065.433.333.364.6l-9.863 38.564c-.069.267-.342.431-.612.366-.269-.065-.432-.333-.364-.6l9.864-38.564c.068-.267.342-.431.611-.366zm5.203 1.387c.268.068.427.34.355.605l-10.127 37.179c-.073.266-.349.426-.617.357-.269-.069-.427-.34-.355-.605l10.127-37.18c.072-.265.348-.425.617-.356zm-10.569-1.387c.27.064.433.333.365.6-1.736 6.783-3.517 13.872-5.271 20.855l-.085.339c-1.724 6.867-3.422 13.626-5.023 19.885-.068.267-.342.43-.611.366-.27-.065-.433-.333-.365-.6 1.601-6.257 3.298-13.014 5.023-19.882l.085-.337c1.754-6.984 3.535-14.074 5.271-20.86.068-.267.342-.431.611-.366zm-6.103 3.353c.27.065.433.333.365.6l-5.79 22.636c-.068.266-.342.43-.611.366-.27-.065-.433-.334-.364-.6l5.789-22.636c.068-.266.342-.43.611-.366z" fill="#000" fill-rule="evenodd"/><path clip-rule="evenodd" d="m250.887 205.411c.266.076.416.352.336.615l-4.955 16.221c-.081.263-.362.414-.628.338-.266-.077-.416-.353-.335-.616l4.955-16.22c.08-.264.361-.415.627-.338z" fill="#000" fill-rule="evenodd"/><path d="m118.441 207.474v-33.071l-32.3961-7.424-22.9472 7.424v33.071l31.7212 10.123z" fill="#fff"/><path clip-rule="evenodd" d="m63.9258 169.883c.2761 0 .5.224.5.5v43.594c0 .276-.2239.5-.5.5-.2762 0-.5-.224-.5-.5v-43.594c0-.276.2238-.5.5-.5z" fill="#000" fill-rule="evenodd"/><path clip-rule="evenodd" d="m59.9777 208.824c.0719-.267.3471-.428.6149-.36l39.8294 10.06c.268.067.426.338.355.605-.072.267-.348.428-.615.36l-39.8296-10.06c-.2677-.068-.4265-.339-.3547-.605z" fill="#000" fill-rule="evenodd"/><path clip-rule="evenodd" d="m56.5082 171.967c.0541-.271.318-.449.5894-.398l53.6834 10.06c.271.051.447.311.393.582s-.318.449-.589.398l-53.6834-10.06c-.2714-.051-.4476-.311-.3934-.582z" fill="#000" fill-rule="evenodd"/><path clip-rule="evenodd" d="m84.2219 165.239c.0664-.268.3383-.434.6073-.372l43.2928 10.06c.269.063.433.331.367.599-.067.268-.339.435-.608.372l-43.2924-10.06c-.269-.063-.4332-.331-.3667-.599z" fill="#000" fill-rule="evenodd"/><path clip-rule="evenodd" d="m91.1704 219.679c-.1087-.254.011-.543.2673-.646l34.6343-13.899c.256-.103.552.019.661.273.108.254-.011.543-.268.646l-34.6338 13.899c-.2563.103-.5521-.019-.6608-.273z" fill="#000" fill-rule="evenodd"/><path clip-rule="evenodd" d="m92.8843 180.696c-.0769-.266.0768-.539.3433-.612l31.3014-8.505c.267-.072.545.084.622.35.077.265-.077.538-.343.611l-31.3021 8.505c-.2664.072-.5448-.084-.6216-.349z" fill="#000" fill-rule="evenodd"/><path clip-rule="evenodd" d="m56.5224 175.183c-.0826-.263.0652-.54.3302-.618l44.3964-13.043c.265-.078.546.073.629.336.083.264-.065.54-.33.618l-44.3964 13.043c-.2649.078-.5467-.072-.6292-.336z" fill="#000" fill-rule="evenodd"/><path clip-rule="evenodd" d="m96.8281 178.266c.2762 0 .5.223.5.5v40.241c0 .276-.2238.5-.5.5-.2761 0-.5-.224-.5-.5v-40.241c0-.277.2239-.5.5-.5z" fill="#000" fill-rule="evenodd"/><path clip-rule="evenodd" d="m119.344 172.396c.276 0 .5.224.5.5v36.384c0 .276-.224.5-.5.5s-.5-.224-.5-.5v-36.384c0-.276.224-.5.5-.5z" fill="#000" fill-rule="evenodd"/><path clip-rule="evenodd" d="m113.669 173.737c.269.065.433.333.364.6l-9.863 38.564c-.069.267-.342.431-.612.366-.269-.065-.432-.333-.364-.6l9.864-38.564c.068-.267.342-.431.611-.366zm5.203 1.387c.268.068.427.34.355.605l-10.127 37.179c-.073.266-.349.426-.617.357-.269-.069-.427-.34-.355-.605l10.127-37.18c.072-.265.348-.425.617-.356zm-10.569-1.387c.27.064.433.333.365.6-1.736 6.783-3.517 13.872-5.271 20.855l-.085.339c-1.724 6.867-3.4222 13.626-5.0231 19.885-.0682.267-.3419.43-.6112.366-.2694-.065-.4325-.333-.3643-.6 1.6004-6.257 3.2976-13.014 5.0226-19.882l.085-.337c1.754-6.984 3.535-14.074 5.271-20.86.068-.267.342-.431.611-.366zm-6.103 3.353c.27.065.433.333.365.6l-5.7899 22.636c-.0682.266-.3419.43-.6112.366-.2694-.065-.4325-.334-.3643-.6l5.7894-22.636c.068-.266.342-.43.611-.366z" fill="#000" fill-rule="evenodd"/><path clip-rule="evenodd" d="m118.887 194.411c.266.076.416.352.336.615l-4.955 16.221c-.081.263-.362.414-.628.338-.266-.077-.416-.353-.335-.616l4.955-16.22c.08-.264.361-.415.627-.338z" fill="#000" fill-rule="evenodd"/><path d="m259 176.999-1.559-34.596-32.396-7.424-22.947 7.424v33.071l31.721 10.123z" fill="#fff"/><path clip-rule="evenodd" d="m202.926 137.883c.276 0 .5.224.5.5v43.594c0 .276-.224.5-.5.5s-.5-.224-.5-.5v-43.594c0-.276.224-.5.5-.5z" fill="#000" fill-rule="evenodd"/><path clip-rule="evenodd" d="m198.978 176.824c.072-.267.347-.428.615-.36l39.829 10.06c.268.067.426.338.355.605-.072.267-.348.428-.615.36l-39.83-10.06c-.267-.068-.426-.339-.354-.605z" fill="#000" fill-rule="evenodd"/><path clip-rule="evenodd" d="m195.508 139.967c.054-.271.318-.449.59-.398 8.83 1.654 15.518 2.902 21.967 4.104l.554.103c6.252 1.166 12.331 2.299 19.979 3.733.271.051.447.311.393.582s-.318.449-.589.398c-7.648-1.433-13.726-2.566-19.978-3.732l-.554-.103c-6.449-1.203-13.138-2.45-21.968-4.105-.272-.051-.448-.311-.394-.582z" fill="#000" fill-rule="evenodd"/><path clip-rule="evenodd" d="m223.222 133.239c.066-.268.338-.434.607-.372l43.293 10.06c.269.063.433.331.367.599-.067.268-.339.435-.608.372l-43.292-10.06c-.269-.063-.434-.331-.367-.599z" fill="#000" fill-rule="evenodd"/><path clip-rule="evenodd" d="m231.521 186.648c-.088-.261.056-.539.32-.621 2.834-.88 5.406-1.663 7.816-2.396 8.546-2.601 15.062-4.583 24.015-8.087.257-.1.552.025.659.279.106.255-.016.543-.273.644-8.992 3.519-15.551 5.514-24.106 8.117-2.407.732-4.972 1.513-7.794 2.389-.264.082-.549-.063-.637-.325z" fill="#000" fill-rule="evenodd"/><path clip-rule="evenodd" d="m231.884 148.696c-.077-.266.077-.539.344-.612l31.301-8.505c.267-.072.545.084.622.35.077.265-.077.538-.343.611l-31.302 8.505c-.267.072-.545-.084-.622-.349z" fill="#000" fill-rule="evenodd"/><path clip-rule="evenodd" d="m195.522 143.183c-.082-.263.066-.54.331-.618l44.396-13.043c.265-.078.546.073.629.336.083.264-.065.54-.33.618l-44.396 13.043c-.265.078-.547-.072-.63-.336z" fill="#000" fill-rule="evenodd"/><path clip-rule="evenodd" d="m235.828 146.266c.276 0 .5.223.5.5v40.241c0 .276-.224.5-.5.5s-.5-.224-.5-.5v-40.241c0-.277.224-.5.5-.5z" fill="#000" fill-rule="evenodd"/><path clip-rule="evenodd" d="m258.344 140.396c.276 0 .5.224.5.5v36.384c0 .276-.224.5-.5.5s-.5-.224-.5-.5v-36.384c0-.276.224-.5.5-.5z" fill="#000" fill-rule="evenodd"/><path clip-rule="evenodd" d="m258.637 141.74c.268.071.424.343.35.608l-10.885 38.565c-.075.265-.353.422-.62.351-.268-.071-.424-.344-.35-.609l10.885-38.564c.075-.265.353-.422.62-.351zm-6.01.776c.269.066.431.334.363.6-1.687 6.593-3.486 13.48-5.264 20.283l-.069.261c-1.755 6.714-3.487 13.342-5.068 19.523-.068.267-.342.431-.611.366s-.433-.333-.364-.6l4.877-19.067v-.003l5.523-20.997.001-.003c.07-.266.344-.428.612-.363zm-6.501 2.574c.269.065.432.333.364.6-1.735 6.78-3.22 13.028-4.678 19.173l-.071.299c-1.435 6.041-2.847 11.991-4.449 18.254-.068.267-.342.43-.611.366-.269-.065-.433-.333-.364-.6 1.599-6.254 3.01-12.197 4.445-18.241l.07-.295c1.459-6.145 2.946-12.4 4.682-19.19.068-.267.342-.43.612-.366zm-6.018.922c.272.055.444.317.386.586l-4.712 21.71c-.058.269-.325.442-.597.387-.272-.054-.445-.317-.386-.586l4.711-21.709c.059-.269.326-.443.598-.388z" fill="#000" fill-rule="evenodd"/><path clip-rule="evenodd" d="m257.887 162.409c.266.076.416.352.336.615l-4.955 16.221c-.081.263-.362.415-.628.338s-.416-.353-.335-.616l4.955-16.22c.08-.264.361-.415.627-.338z" fill="#000" fill-rule="evenodd"/><path d="m161.669 148.6-36.392-6.211v-33.338l36.392 4.5 13.608-8 15.5-6.0002-11.5 9.5002v30.5z" fill="#fff"/><g clip-rule="evenodd" fill-rule="evenodd"><path d="m167.567 103.862c.269.064.433.331.366.598l-.001.002-2.804 11.216c-.948 3.823-1.886 7.608-2.66 10.636-.068.266-.341.43-.61.366s-.433-.331-.366-.598l.001-.002 2.658-10.629c.008-.036.017-.071.026-.106l.025-.103c.965-3.894 1.938-7.818 2.755-11.014.068-.266.341-.429.61-.366zm-8.323-1.849c.267.072.422.346.346.61l-2.874 9.974c-.076.264-.355.42-.622.347-.267-.072-.422-.346-.346-.61l2.874-9.973c.077-.265.355-.421.622-.348zm4.824 1.157c.267.072.422.346.346.61l-2.788 9.74c-.076.265-.354.421-.622.349-.267-.072-.422-.345-.346-.61l2.788-9.74c.076-.265.354-.421.622-.349zm5.656 4.867c.269.064.432.333.364.6-.818 3.196-2.221 8.442-3.616 13.655l-.036.137c-1.383 5.17-2.753 10.289-3.533 13.34-.068.266-.342.43-.611.366-.27-.065-.433-.333-.365-.6.782-3.056 2.153-8.179 3.534-13.344l.039-.143c1.395-5.216 2.797-10.456 3.613-13.645.068-.267.341-.431.611-.366z" fill="#000"/><path d="m177.735 107.662c.27.06.439.325.376.593l-8.944 38.635c-.063.268-.333.437-.604.378-.27-.059-.439-.324-.376-.592l8.944-38.636c.063-.268.333-.437.604-.378zm-4.885 2.126c.27.061.438.327.373.594l-9.598 39.99c-.064.267-.335.435-.606.374-.27-.06-.437-.327-.373-.594l9.598-39.989c.065-.268.336-.436.606-.375zm5.49 14.248c.27.06.438.326.374.594l-4.311 18.088c-.064.268-.335.436-.605.376-.271-.061-.438-.326-.374-.594l4.311-18.088c.064-.268.335-.436.605-.376z" fill="#000"/><path d="m135.236 91.4476c.27.0647.433.3334.364.6l-3.898 15.1974c-.068.267-.342.43-.611.366-.269-.065-.432-.334-.364-.6l3.898-15.198c.068-.2666.342-.4302.611-.3654zm3.593 1.9792c.269.0649.432.3332.364.5997-.567 2.2146-1.009 3.9196-1.448 5.6097l-.009.0329c-.003.0107-.006.0214-.008.0321l-1.409 5.4568v.001c-.069.266-.343.429-.612.364-.269-.064-.432-.333-.364-.599.545-2.13.977-3.792 1.41-5.4594l1.464-5.672.001-.0011c.068-.2663.342-.4295.611-.3647zm3.592 2.087c.27.0646.433.3331.364.5998l-1.779 6.9574c-.068.266-.342.43-.611.365-.27-.064-.433-.333-.364-.599l1.779-6.9573c.068-.2667.342-.4305.611-.3659z" fill="#000"/><path d="m138.11 103.153c.27.065.433.333.364.6l-1.426 5.579c-.069.266-.342.43-.612.365-.269-.064-.432-.333-.364-.599l1.427-5.579c.068-.267.342-.43.611-.366zm-6.218 2.796c.27.065.433.333.364.6l-.711 2.783c-.069.266-.342.43-.612.365-.269-.064-.432-.333-.364-.599l.712-2.783c.068-.267.342-.431.611-.366z" fill="#000"/><path d="m149.009 99.6872c.269.0646.432.3328.364.5998l-2.669 10.435c-.068.267-.342.431-.611.366-.27-.064-.433-.333-.364-.599l2.669-10.436c.068-.2666.342-.4304.611-.3658zm4.969 2.0868c.269.065.432.333.364.6l-2.491 9.74c-.068.267-.342.43-.611.366-.27-.065-.433-.333-.364-.6l2.491-9.74c.068-.266.342-.43.611-.366zm-10.115-.792c.269.065.432.333.364.6l-2.338 9.14c-.068.267-.342.431-.611.366-.27-.064-.433-.333-.364-.599l2.337-9.141c.069-.267.342-.43.612-.366z" fill="#000"/><path d="m126.992 106.467c.276 0 .5.224.5.5v36.176c0 .276-.224.5-.5.5s-.5-.224-.5-.5v-36.176c0-.276.224-.5.5-.5z" fill="#000"/><path d="m125.059 141.668c.051-.271.312-.453.584-.406l40.237 6.957c.272.047.452.305.402.577-.05.271-.311.453-.584.406l-40.237-6.957c-.272-.047-.452-.305-.402-.577z" fill="#000"/><path d="m125.059 108.28c.045-.272.303-.458.576-.416l44.548 6.957c.273.043.457.298.412.571-.045.272-.303.458-.576.416l-44.548-6.957c-.273-.043-.458-.298-.412-.571z" fill="#000"/><path d="m143.02 100.641c.039-.274.292-.466.566-.429 7.061.943 13.722 2.144 20.179 3.309 3.63.655 7.196 1.298 10.732 1.877.272.045.455.301.408.574-.047.272-.306.456-.578.412-3.569-.585-7.149-1.231-10.786-1.887-6.438-1.161-13.053-2.355-20.096-3.295-.274-.037-.464-.288-.425-.561zm35.927 5.557c.044-.273.3-.461.573-.42.676.102.972.263 1.243.412l.011.006c.197.108.38.208.894.277.273.037.464.288.425.561-.039.274-.293.466-.566.429-.676-.09-.974-.245-1.252-.397l-.019-.011c-.2-.11-.387-.213-.893-.289-.273-.041-.459-.295-.416-.568z" fill="#000"/><path d="m161.034 149.629c-.131-.243-.036-.541.211-.665 3.772-1.892 7.466-3.925 11.067-5.912.105-.057.209-.115.314-.173 3.488-1.924 6.89-3.801 10.174-5.449.247-.124.553-.027.683.217.13.243.036.541-.211.665-3.267 1.639-6.653 3.507-10.148 5.435-.101.056-.203.112-.305.169-3.599 1.985-7.31 4.028-11.103 5.93-.246.124-.552.027-.682-.217z" fill="#000"/><path d="m161.03 115.635c-.127-.245-.03-.542.218-.663l20.119-9.841c.248-.121.553-.021.68.224.128.245.03.542-.218.663l-20.118 9.84c-.248.122-.553.022-.681-.223z" fill="#000"/><path d="m122.218 111.026c-.112-.252.003-.543.258-.65l25.866-10.8233c.255-.1065.553.0115.665.2636.113.2517-.002.5427-.257.6497l-25.867 10.823c-.255.107-.552-.011-.665-.263z" fill="#000"/><path d="m162.918 114.816c.276 0 .5.224.5.5v33.394c0 .276-.224.5-.5.5s-.5-.224-.5-.5v-33.394c0-.276.224-.5.5-.5z" fill="#000"/><path d="m178.727 106.467c.276 0 .5.224.5.5v34.785c0 .276-.224.5-.5.5-.277 0-.5-.224-.5-.5v-34.785c0-.276.223-.5.5-.5z" fill="#000"/><path d="m111.655 98.5327c.144-.2358.452-.3103.687-.1665 4.299 2.6218 8.437 5.4638 12.563 8.2978 1.387.952 2.773 1.904 4.163 2.846.229.155.288.466.134.695-.155.228-.466.288-.695.133-1.401-.95-2.794-1.906-4.185-2.862-4.121-2.83-8.227-5.65-12.5-8.2561-.236-.1438-.311-.4515-.167-.6872z" fill="#000"/><path d="m129.444 88.613c.147-.2339.455-.3043.689-.1574 3.571 2.2434 7.961 5.3144 12.064 8.1852 2.236 1.5637 4.386 3.068 6.273 4.3472.229.155.288.465.133.694s-.465.288-.694.133c-1.914-1.297-4.079-2.8113-6.321-4.3801-4.088-2.8601-8.434-5.9005-11.987-8.1326-.234-.1469-.304-.4555-.157-.6893z" fill="#000"/><path d="m134.64 88.692c.103.2561-.021.5474-.277.6507-8.615 3.4757-15.076 6.2559-24.413 10.4283-.252.1127-.548-.0004-.66-.2525-.113-.2521 0-.5478.252-.6605 9.345-4.176 15.817-6.9613 24.447-10.4426.256-.1034.547.0205.651.2766z" fill="#000"/><path d="m173.382 106.673c.162.223.112.536-.111.698-2.462 1.788-5.04 3.835-7.685 5.935-1.076.855-2.163 1.719-3.258 2.577-.217.17-.532.132-.702-.085-.17-.218-.132-.532.085-.702 1.083-.849 2.163-1.707 3.235-2.558 2.652-2.106 5.257-4.175 7.737-5.976.224-.162.536-.112.699.111z" fill="#000"/><path d="m190.604 98.2998c.176.2125.147.5278-.066.7041-4.049 3.3601-7.181 5.3821-10.011 7.2081-.705.455-1.391.898-2.067 1.346-.23.153-.541.09-.693-.14-.153-.231-.09-.541.141-.693.688-.456 1.382-.904 2.091-1.362 2.826-1.824 5.902-3.81 9.901-7.1286.212-.1764.527-.1471.704.0654z" fill="#000"/><path d="m191.403 98.606c.103.2561-.021.5475-.277.6508-3.391 1.3682-6.548 2.8492-9.705 4.3582-.425.203-.851.407-1.276.61-2.733 1.309-5.489 2.629-8.407 3.897-.253.11-.547-.006-.657-.259-.11-.254.006-.548.259-.658 2.899-1.26 5.637-2.571 8.371-3.881.426-.204.852-.408 1.279-.612 3.159-1.509 6.34-3.002 9.762-4.3826.256-.1033.548.0205.651.2766z" fill="#000"/></g><path d="m170.777 110.049c-7 6.5-14.5 2-20.5 2-6.5-1-18.5-2-18.5-3.5 0-10.4934 6.511-15.5482 16-16 10.5-.5 23 7.0066 23 17.5z" fill="#fff"/><path clip-rule="evenodd" d="m170.66 107.605c.039.331.069.665.088 1.001-1.553.247-3.062.512-4.564.775l-.092.017c-2.433.427-4.848.85-7.377 1.19-.273.036-.535-.155-.585-.427-.05-.273.131-.523.403-.56 2.51-.336 4.908-.757 7.346-1.185l.084-.015c1.538-.27 3.093-.542 4.697-.796zm-.921-3.826c.122.332.234.669.336 1.009l-3.202.555c-2.494.479-4.989.958-7.394 1.28-.269.037-.529-.149-.583-.417-.055-.268.115-.52.382-.566l7.367-1.276.049-.01.038-.007c.999-.192 2.003-.385 3.007-.568zm-1.871-3.705c.2.306.391.617.573.934l-6.639.891c-.272.036-.534-.155-.585-.427-.05-.273.131-.523.404-.56zm-2.632-3.2244c.297.2967.585.6018.863.9149-1.215.2001-2.442.3892-3.697.5576-.27.0363-.53-.151-.584-.4204-.053-.2693.121-.5206.389-.564zm-.318 18.7244c2.011.312 3.479.204 4.442-.69-.075-.026-.156-.035-.238-.023-1.388.199-2.794.446-4.204.713zm-7.444-1.767 11.638-1.665c.272-.039.451-.291.398-.562-.052-.272-.316-.461-.588-.422l-14.067 2.012c.916.213 1.788.427 2.619.637z" fill="#000" fill-rule="evenodd"/><path clip-rule="evenodd" d="m170.153 111.748c-.275-.023-.479-.266-.455-.541.054-.628.054-1.229 0-1.793-.001-.016-.002-.032-.002-.048 0-2.452-.853-5.506-2.487-8.29-1.631-2.7812-4.016-5.2509-7.043-6.584-4.371-1.9255-9.756-2.5943-14.706-1.2047-4.924 1.3825-9.446 4.8084-12.139 11.1347-.433 1.528-.686 3.216-.743 4.953-.009.276-.24.492-.516.483s-.492-.24-.483-.516c.06-1.822.326-3.602.789-5.224.006-.019.013-.039.021-.058 2.811-6.6278 7.581-10.2699 12.801-11.7355 5.203-1.4606 10.826-.7534 15.379 1.2523 3.264 1.4379 5.793 4.0787 7.503 6.9932 1.703 2.903 2.618 6.119 2.624 8.772.058.624.056 1.278-.002 1.951-.024.275-.266.479-.541.455z" fill="#000" fill-rule="evenodd"/><path clip-rule="evenodd" d="m124.785 107.972c.046-.273.304-.459.576-.416l44.549 6.957c.272.042.457.298.411.57-.045.272-.303.459-.576.416l-44.548-6.957c-.273-.043-.457-.298-.412-.57z" fill="#000" fill-rule="evenodd"/><path d="m157.746 82.6611c-7-1-26.5-6-27.5-6.5-2-8.9998-17.1-40.8349 3-47.0003 32.324-9.9155 48.325 9.5845 51.5 16.5001 3.937 8.5734 0 35.0002-2.5 37.0002s-17.5 1-24.5 0z" fill="url(#b)"/><path clip-rule="evenodd" d="m175.611 34.887c-7.41-5.8369-18.01-8.5014-29.621-8.0851-7.007.2512-12.057 1.4407-15.613 3.3287-3.54 1.8794-5.616 4.4585-6.679 7.547-1.069 3.1067-1.125 6.7649-.55 10.8047.575 4.0374 1.776 8.4155 3.185 12.9451.619 1.988 1.279 4.0067 1.942 6.037 2.348 7.1841 4.744 14.5134 5.534 21.1453.509 4.2652.362 8.2908-.909 11.8433-1.276 3.566-3.672 6.622-7.599 8.954-.237.141-.544.063-.685-.175-.141-.237-.063-.544.175-.685 3.732-2.216 5.973-5.091 7.167-8.431 1.2-3.3531 1.356-7.2077.858-11.388-.777-6.5233-3.129-13.7209-5.471-20.8894-.669-2.0459-1.336-4.0893-1.966-6.1141-1.414-4.5414-2.634-8.9817-3.221-13.1011-.586-4.1168-.547-7.9536.595-11.2713 1.148-3.3358 3.398-6.1104 7.155-8.1048 3.74-1.9859 8.958-3.1906 16.046-3.4448 11.765-.4218 22.623 2.2711 30.276 8.2989 7.675 6.0458 12.067 15.402 10.948 28.1503-1.698 19.363-8.842 38.6263-21.619 53.2293-.182.208-.498.229-.706.047-.207-.182-.229-.498-.047-.705 12.616-14.418 19.693-33.4701 21.376-52.6587 1.092-12.4427-3.183-21.4584-10.571-27.2773z" fill="#000" fill-rule="evenodd"/><path clip-rule="evenodd" d="m141.541 72.6997c.618.0131 1.159.0245 1.586.0245 8.163 0 10.356.2403 17.225.9928.755.0826 1.566.1715 2.448.2669.623.0674 1.286.1351 1.98.2059 2.458.251 5.295.5406 8.031.9894 3.495.5733 6.911 1.4181 9.209 2.8254.501.3062.873.669 1.085 1.0848.218.4264.251.8797.115 1.3119-.261.8305-1.103 1.4815-2.157 1.879-2.069.78-4.564 1.1146-7.071 1.2462-2.347.1232-4.739.0696-6.842.0224-.148-.0033-.293-.0065-.438-.0097-13.78-.303-20.262-1.9408-32.007-4.9082-.2-.0508-.403-.102-.607-.1535-.012.0192-.024.038-.039.056-.172.2158-.487.2511-.703.0788-.178-.1426-.453-.314-.794-.5224-.252-.0632-.505-.127-.762-.1914-.239-.0602-.395-.2842-.376-.5226-.205-.1375-.405-.281-.591-.4287-.424-.3378-.855-.7626-1.018-1.2625-.088-.2684-.099-.5611.009-.8548.106-.2859.309-.5305.576-.7413.649-.5129 1.622-.8271 2.686-1.0303 1.079-.2062 2.323-.3102 3.57-.3588 1.718-.067 3.495-.0293 4.885.0002zm-8.588 4.4576c.682.1718 1.346.3395 1.993.5031 11.733 2.9642 18.122 4.5786 31.788 4.879.143.0032.286.0064.431.0096 2.11.0472 4.466.1 6.774-.0211 2.47-.1297 4.845-.4571 6.771-1.1833.939-.3542 1.431-.8453 1.556-1.2432.057-.1821.047-.3646-.052-.5577-.104-.2036-.32-.4438-.716-.6862-2.119-1.2976-5.365-2.12-8.849-2.6915-2.703-.4433-5.498-.7287-7.953-.9794-.699-.0713-1.37-.1399-2.004-.2085-.884-.0957-1.697-.1847-2.453-.2675-6.85-.7504-9.004-.9864-17.112-.9864-.461 0-1.025-.012-1.657-.0255-1.379-.0294-3.086-.0658-4.775 0-1.224.0478-2.412.149-3.422.3419-1.025.1958-1.8.4744-2.253.8328-.17.1335-.233.238-.257.3027-.021.0569-.024.1164.002.1983.066.2007.288.4693.692.7906.386.3076.861.6054 1.325.8884.052.0317.104.0634.156.095.005.003.01.0059.015.0089z" fill="#000" fill-rule="evenodd"/><path clip-rule="evenodd" d="m133.635 72.5411c.16-.2253.472-.2786.697-.119 1.196.8469 2.361 1.748 3.516 2.6409.542.4193 1.082.8367 1.622 1.2459 1.699 1.2885 3.415 2.5114 5.269 3.5228.243.1323.332.436.2.6784s-.436.3318-.678.1995c-1.921-1.0476-3.684-2.3063-5.396-3.6039-.555-.4215-1.104-.8455-1.65-1.2679-1.146-.8858-2.282-1.7648-3.461-2.5997-.225-.1596-.279-.4717-.119-.697z" fill="#000" fill-rule="evenodd"/><path clip-rule="evenodd" d="m141.465 72.9581c.151-.2309.461-.2951.692-.1436 4.07 2.6724 7.962 5.8156 11.706 8.8792.214.1749.245.4899.07.7036-.174.2138-.489.2453-.703.0704-3.747-3.0657-7.601-6.1774-11.622-8.8173-.23-.1515-.295-.4615-.143-.6923z" fill="#000" fill-rule="evenodd"/><path clip-rule="evenodd" d="m148.95 72.2969c.184-.2065.5-.2252.706-.0419 3.168 2.8122 6.466 5.2797 10.101 7.4405 1.448.8603 2.807 1.786 4.145 2.7893.221.1657.266.4791.1.7s-.479.2657-.7.1c-1.313-.985-2.643-1.8901-4.056-2.7297-3.696-2.1968-7.045-4.7032-10.254-7.5523-.206-.1833-.225-.4994-.042-.7059z" fill="#000" fill-rule="evenodd"/><path clip-rule="evenodd" d="m156.354 73.3514c.156-.2275.468-.285.695-.1285 3.021 2.0782 6.153 3.9163 9.324 5.7773.375.2199.75.4401 1.126.6611 1.538.9047 3.082 1.8529 4.473 3.0454.21.1797.234.4954.054.705-.179.2097-.495.234-.705.0543-1.318-1.1301-2.795-2.0402-4.329-2.9428-.376-.2207-.751-.4409-1.126-.6611-3.167-1.8586-6.331-3.7154-9.384-5.8153-.227-.1565-.285-.4679-.128-.6954z" fill="#000" fill-rule="evenodd"/><path clip-rule="evenodd" d="m166.783 75.0048c.131-.243.434-.3337.677-.2025 4.282 2.3116 8.425 4.8222 12.502 7.4608.232.15.299.4595.149.6914-.151.2318-.46.2981-.692.1481-4.062-2.6281-8.181-5.1243-12.434-7.4203-.243-.1312-.333-.4345-.202-.6775z" fill="#000" fill-rule="evenodd"/><path clip-rule="evenodd" d="m170.246 51.2598c0 2.0863-.457 4.1082-1.239 5.9346l-5.413-5.3481c.652-1.042.978-2.2818.978-3.5861.065-3.7172-3-6.7835-6.783-6.7835-1.369 0-2.608.3911-3.652 1.0444l-5.021-4.9571c1.891-.8464 3.913-1.3042 6.13-1.3042 8.283 0 15 6.7167 15 15zm-23.217-12.5203 5.413 5.4125c-.913 1.1731-1.435 2.6085-1.435 4.1726 0 3.784 3.065 6.8479 6.848 6.8479 1.565 0 3-.5222 4.174-1.4354l5.804 5.8059c-2.739 4.0415-7.304 6.7168-12.587 6.7168-8.283 0-15-6.7168-15-15 0-5.2814 2.674-9.8475 6.783-12.5203zm10.826 13.8245c2.543 0 4.565-2.022 4.565-4.5661 0-2.5417-2.022-4.5636-4.565-4.5636-2.544 0-4.565 2.0219-4.565 4.5636 0 2.5441 2.021 4.5661 4.565 4.5661z" fill="#fff" fill-rule="evenodd"/><path clip-rule="evenodd" d="m89.8199 54.4263c.2575-.0995.547.0286.6466.2861.5059 1.3088 1.021 2.6184 1.5372 3.9305 3.0345 7.7144 6.1037 15.517 7.5377 23.7627.0473.272-.1348.5309-.4069.5782s-.531-.1349-.5783-.4069c-1.4151-8.137-4.4417-15.8331-7.4771-23.5519-.5175-1.3159-1.0353-2.6325-1.5453-3.952-.0996-.2576.0285-.5471.2861-.6467z" fill="#000" fill-rule="evenodd"/><path clip-rule="evenodd" d="m103.458 75.6701c.268-.0643.538.1013.603.3698.518 2.166.91 4.3247 1.304 6.4933.02.1067.039.2135.059.3202.049.2717-.131.532-.403.5814s-.532-.1308-.581-.4025c-.019-.1041-.038-.2082-.057-.3121-.395-2.1753-.783-4.3092-1.295-6.4474-.064-.2686.101-.5384.37-.6027z" fill="#000" fill-rule="evenodd"/><path clip-rule="evenodd" d="m211.327 14.2969c.181-.2084.497-.2304.705-.0492.061.053.123.1063.184.1598 3.62 3.1471 8.275 7.1936 10.863 11.6889 1.322 2.296 2.128 4.7454 1.961 7.2798-.104 1.5673-.579 3.1432-1.504 4.7134.942.6971 1.691 1.5596 2.151 2.5999.929 2.1008.612 4.7683-1.367 7.9559-2.455 3.9522-5.96 6.8678-9.47 9.6635-.264.21-.528.4193-.791.6282-3.262 2.5896-6.465 5.1321-8.917 8.3953-5.171 6.8814-8.08 16.6148-6.072 24.9948.064.2685-.101.5384-.37.6028-.268.0643-.538-.1012-.602-.3697-2.094-8.7358.94-18.769 6.244-25.8286 2.533-3.371 5.835-5.9911 9.078-8.564.269-.2139.538-.4274.807-.6411 3.516-2.8 6.891-5.6206 9.243-9.4087 1.88-3.0275 2.049-5.3355 1.302-7.0239-.369-.8355-.979-1.5575-1.778-2.1606-.483.6956-1.058 1.3896-1.732 2.0807-1.803 1.8495-4.581 3.5805-7.544 4.5989-2.955 1.016-6.178 1.3509-8.834.2923-1.674-.6669-2.337-2.0621-2.267-3.4858.069-1.3872.827-2.8092 1.972-3.6848 1.951-1.4916 4.642-2.4243 7.432-2.8027 2.793-.3789 5.734-.2091 8.206.5506.886.2721 1.721.6234 2.471 1.0585.838-1.4351 1.252-2.849 1.344-4.231.15-2.2748-.569-4.5263-1.829-6.7147-2.504-4.348-7.053-8.303-10.713-11.4856l-.124-.1075c-.208-.1812-.23-.497-.049-.7054zm10.831 24.0868c-.659-.3782-1.407-.694-2.224-.9452-2.313-.7106-5.105-.8783-7.779-.5156-2.677.3632-5.187 1.2513-6.959 2.6062-.919.7033-1.526 1.8568-1.58 2.9399-.052 1.0465.405 2.0164 1.638 2.5073 2.344.9342 5.298.6678 8.139-.309 2.834-.9743 5.473-2.6275 7.153-4.3512.631-.6472 1.165-1.2917 1.612-1.9324z" fill="#000" fill-rule="evenodd"/><path clip-rule="evenodd" d="m252.403 11.2685c.199.1914.206.5079.014.707l-10.029 10.4306c-.192.199-.508.2052-.707.0138s-.205-.5079-.014-.7069l10.029-10.4306c.192-.1991.508-.2053.707-.0139z" fill="#000" fill-rule="evenodd"/><path clip-rule="evenodd" d="m263.328 19.4139c.132.2427.042.5462-.2.678l-14.042 7.6223c-.242.1318-.546.0418-.678-.2008-.131-.2427-.041-.5463.201-.678l14.041-7.6224c.243-.1317.547-.0418.678.2009z" fill="#000" fill-rule="evenodd"/><path clip-rule="evenodd" d="m110.839 127.471c.276-.003.502.219.505.495.091 10.307.124 20.595 0 30.901-.004.276-.23.498-.506.494-.276-.003-.498-.23-.494-.506.124-10.296.091-20.577 0-30.88-.003-.276.219-.502.495-.504z" fill="#000" fill-rule="evenodd"/><path clip-rule="evenodd" d="m116.095 147.531c.276.019.483.259.464.534-.248 3.462-.031 6.881.19 10.351.077 1.203.153 2.412.211 3.631.014.276-.199.51-.475.523s-.51-.2-.523-.476c-.057-1.183-.132-2.37-.208-3.559-.222-3.49-.445-7.006-.193-10.541.02-.276.259-.483.534-.463z" fill="#000" fill-rule="evenodd"/></svg>