<svg width="320" height="180" viewBox="0 0 320 180" fill="none" xmlns="http://www.w3.org/2000/svg">
<path opacity="0.7" d="M276.382 125.717C276.382 155.697 224.276 180 160 180C95.7239 180 43.6177 155.697 43.6177 125.717C43.6177 95.7376 95.7239 71.4343 160 71.4343C224.276 71.4343 276.382 95.7376 276.382 125.717Z" fill="url(#paint0_radial_19750_153180)" fill-opacity="0.1"/>
<path d="M116.948 113.45V45.7115L183.24 38.9448L208.914 55.5164L207.047 113.45H215.216L219.184 116.668V146.777L162.234 154.712L158.266 150.978V148.411L143.62 134.618H135.576L116.948 113.45Z" fill="white"/>
<path fill-rule="evenodd" clip-rule="evenodd" d="M186.232 102.827C185.965 102.756 185.807 102.482 185.879 102.215L188.206 93.5305C188.277 93.2638 188.551 93.1055 188.818 93.177C189.085 93.2485 189.243 93.5226 189.172 93.7894L186.845 102.474C186.773 102.741 186.499 102.899 186.232 102.827ZM189.772 105.722C189.506 105.651 189.347 105.376 189.419 105.11L192.521 93.5305C192.593 93.2638 192.867 93.1055 193.134 93.177C193.401 93.2485 193.559 93.5226 193.487 93.7894L190.385 105.369C190.313 105.635 190.039 105.794 189.772 105.722ZM192.875 108.034C192.608 107.963 192.45 107.689 192.521 107.422L196.244 93.5305C196.315 93.2638 196.589 93.1055 196.856 93.177C197.123 93.2485 197.281 93.5226 197.21 93.7894L193.487 107.681C193.416 107.947 193.142 108.106 192.875 108.034ZM196.398 110.56C196.131 110.488 195.973 110.214 196.044 109.948L197.341 105.11C197.412 104.843 197.686 104.685 197.953 104.756C198.22 104.828 198.378 105.102 198.307 105.369L197.01 110.206C196.939 110.473 196.665 110.631 196.398 110.56Z" fill="black"/>
<path fill-rule="evenodd" clip-rule="evenodd" d="M118.799 116.078C118.532 116.006 118.374 115.732 118.445 115.465L133.919 57.7164C133.991 57.4496 134.265 57.2913 134.531 57.3628C134.798 57.4343 134.957 57.7085 134.885 57.9752L119.411 115.724C119.34 115.991 119.066 116.149 118.799 116.078Z" fill="black"/>
<path fill-rule="evenodd" clip-rule="evenodd" d="M116.457 77.5466C116.19 77.4752 116.032 77.201 116.104 76.9343L123.408 49.6738C123.479 49.4071 123.754 49.2488 124.02 49.3203C124.287 49.3917 124.445 49.6659 124.374 49.9326L117.069 77.1931C116.998 77.4598 116.724 77.6181 116.457 77.5466Z" fill="black"/>
<path fill-rule="evenodd" clip-rule="evenodd" d="M128.021 128.271C127.755 128.197 127.6 127.921 127.674 127.655L133.498 106.819C133.572 106.553 133.848 106.398 134.114 106.472C134.38 106.547 134.536 106.822 134.461 107.088L128.637 127.924C128.563 128.19 128.287 128.346 128.021 128.271Z" fill="black"/>
<path fill-rule="evenodd" clip-rule="evenodd" d="M121.369 118.838C121.102 118.766 120.944 118.491 121.016 118.225L135.452 64.7614C135.524 64.4948 135.798 64.3371 136.065 64.409C136.331 64.481 136.489 64.7555 136.417 65.0221L121.982 118.485C121.91 118.752 121.635 118.91 121.369 118.838Z" fill="black"/>
<path fill-rule="evenodd" clip-rule="evenodd" d="M116.042 91.4539C115.775 91.3824 115.617 91.1082 115.688 90.8415L126.158 51.7686C126.23 51.5019 126.504 51.3436 126.77 51.415C127.037 51.4865 127.195 51.7607 127.124 52.0274L116.654 91.1003C116.583 91.3671 116.309 91.5253 116.042 91.4539Z" fill="black"/>
<path fill-rule="evenodd" clip-rule="evenodd" d="M130.775 131.277C130.508 131.205 130.35 130.931 130.421 130.664L133.992 117.34C134.063 117.073 134.337 116.915 134.604 116.987C134.871 117.058 135.029 117.332 134.957 117.599L131.387 130.923C131.316 131.19 131.042 131.348 130.775 131.277Z" fill="black"/>
<path fill-rule="evenodd" clip-rule="evenodd" d="M115.317 58.9832C115.05 58.9117 114.892 58.6375 114.963 58.3708L118.28 45.9913C118.352 45.7246 118.626 45.5663 118.893 45.6377C119.16 45.7092 119.318 45.9834 119.246 46.2501L115.929 58.6296C115.858 58.8963 115.584 59.0546 115.317 58.9832Z" fill="black"/>
<path fill-rule="evenodd" clip-rule="evenodd" d="M123.803 122.05C123.536 121.978 123.378 121.704 123.45 121.437L133.89 82.5408C133.962 82.2741 134.236 82.1159 134.503 82.1875C134.77 82.2591 134.928 82.5333 134.856 82.8L124.416 121.696C124.344 121.963 124.07 122.121 123.803 122.05Z" fill="black"/>
<path fill-rule="evenodd" clip-rule="evenodd" d="M116.333 102.727C116.066 102.655 115.908 102.381 115.98 102.114L128.776 54.3556C128.848 54.0889 129.122 53.9306 129.389 54.0021C129.655 54.0735 129.814 54.3477 129.742 54.6144L116.945 102.373C116.874 102.64 116.6 102.798 116.333 102.727Z" fill="black"/>
<path fill-rule="evenodd" clip-rule="evenodd" d="M133.433 133.711C133.166 133.639 133.008 133.365 133.08 133.098L134.903 126.292C134.975 126.025 135.249 125.867 135.516 125.938C135.782 126.01 135.941 126.284 135.869 126.551L134.046 133.357C133.974 133.624 133.7 133.782 133.433 133.711Z" fill="black"/>
<path fill-rule="evenodd" clip-rule="evenodd" d="M116.106 67.367C115.839 67.2955 115.68 67.0213 115.752 66.7546L120.539 48.8903C120.61 48.6236 120.884 48.4653 121.151 48.5368C121.418 48.6083 121.576 48.8824 121.505 49.1492L116.718 67.0134C116.646 67.2801 116.372 67.4384 116.106 67.367Z" fill="black"/>
<path fill-rule="evenodd" clip-rule="evenodd" d="M126.064 125.009C125.797 124.937 125.639 124.663 125.71 124.396L133.807 94.1793C133.879 93.9126 134.153 93.7543 134.419 93.8258C134.686 93.8972 134.844 94.1714 134.773 94.4381L126.676 124.655C126.605 124.922 126.331 125.08 126.064 125.009Z" fill="black"/>
<path fill-rule="evenodd" clip-rule="evenodd" d="M116.592 113.089C116.325 113.018 116.167 112.744 116.238 112.477L131.297 56.2759C131.369 56.0092 131.643 55.8509 131.91 55.9223C132.176 55.9938 132.335 56.268 132.263 56.5347L117.204 112.736C117.133 113.003 116.859 113.161 116.592 113.089Z" fill="black"/>
<path fill-rule="evenodd" clip-rule="evenodd" d="M217.188 55.5446C217.207 55.8201 216.998 56.0585 216.723 56.077C214.035 56.2577 211.239 56.4477 208.359 56.6434C183.943 58.3024 153.432 60.3755 130.586 60.7492C130.31 60.7537 130.083 60.5336 130.078 60.2575C130.074 59.9814 130.294 59.7539 130.57 59.7494C153.388 59.3761 183.87 57.3049 208.292 55.6456C211.172 55.45 213.967 55.26 216.656 55.0793C216.931 55.0607 217.17 55.2691 217.188 55.5446Z" fill="black"/>
<path fill-rule="evenodd" clip-rule="evenodd" d="M113.502 43.9363C113.65 43.7034 113.96 43.6348 114.192 43.7832C117.433 45.8468 120.81 48.2798 124.249 50.7571C125.862 51.9189 127.488 53.0904 129.12 54.2382C134.25 57.846 139.456 61.2337 144.584 63.4463C144.838 63.5557 144.954 63.8499 144.845 64.1035C144.736 64.357 144.441 64.4739 144.188 64.3645C138.96 62.1086 133.683 58.6697 128.545 55.0562C126.891 53.8928 125.253 52.7128 123.634 51.5469C120.209 49.0791 116.872 46.6749 113.655 44.6266C113.422 44.4783 113.354 44.1692 113.502 43.9363Z" fill="black"/>
<path fill-rule="evenodd" clip-rule="evenodd" d="M178.711 36.3991C178.872 36.1747 179.184 36.1232 179.409 36.2841C179.857 36.6055 180.305 36.9269 180.753 37.2483C187.653 42.1976 194.543 47.1397 201.672 51.7277C202.641 52.3515 204.057 53.1721 205.568 54.0478C205.939 54.2629 206.315 54.4813 206.693 54.7009C208.592 55.8061 210.507 56.9443 211.703 57.814C211.926 57.9764 211.976 58.2891 211.813 58.5124C211.651 58.7358 211.338 58.7851 211.115 58.6227C209.968 57.7887 208.099 56.6767 206.19 55.5652C205.819 55.3493 205.446 55.1335 205.078 54.92C203.565 54.0432 202.121 53.2063 201.131 52.5686C193.98 47.9665 187.07 43.0104 180.175 38.0644C179.725 37.7418 179.276 37.4192 178.826 37.0968C178.601 36.9359 178.55 36.6235 178.711 36.3991Z" fill="black"/>
<path fill-rule="evenodd" clip-rule="evenodd" d="M189.549 38.4551C189.584 38.729 189.39 38.9794 189.116 39.0143C169.997 41.4535 132.617 45.4547 113.327 45.9234C113.051 45.9301 112.821 45.7118 112.815 45.4357C112.808 45.1596 113.026 44.9304 113.302 44.9237C132.536 44.4563 169.871 40.4614 188.99 38.0224C189.264 37.9874 189.514 38.1812 189.549 38.4551Z" fill="black"/>
<path fill-rule="evenodd" clip-rule="evenodd" d="M116.188 39.6444C116.463 39.6641 116.671 39.9034 116.651 40.1788C116.204 46.4169 116.357 54.12 116.546 61.8553C116.558 62.3691 116.571 62.883 116.584 63.3966C116.762 70.6025 116.94 77.7506 116.651 83.6296C116.237 92.0634 116.507 105.891 117.669 114.203C117.707 114.476 117.517 114.729 117.243 114.767C116.97 114.806 116.717 114.615 116.679 114.341C115.506 105.948 115.236 92.054 115.652 83.5806C115.939 77.7403 115.763 70.6281 115.584 63.4089C115.571 62.8996 115.559 62.3897 115.546 61.8797C115.357 54.1548 115.202 46.4021 115.653 40.1073C115.673 39.8319 115.912 39.6246 116.188 39.6444Z" fill="black"/>
<path fill-rule="evenodd" clip-rule="evenodd" d="M137.563 53.866C137.836 53.9104 138.021 54.1674 137.976 54.44C135.706 68.3604 135.022 82.5776 134.918 96.2542V104.475C134.953 109.71 135.046 114.85 135.135 119.831C135.241 125.677 135.342 131.305 135.342 136.612C135.342 136.889 135.118 137.112 134.842 137.112C134.566 137.112 134.342 136.889 134.342 136.612C134.342 131.299 134.241 125.697 134.136 119.868C134.046 114.891 133.953 109.749 133.918 104.48C133.9 101.764 133.897 99.0178 133.918 96.2485C134.022 82.5468 134.707 68.2717 136.989 54.279C137.034 54.0064 137.291 53.8215 137.563 53.866Z" fill="black"/>
<path fill-rule="evenodd" clip-rule="evenodd" d="M208.584 49.1556C208.859 49.1802 209.062 49.4231 209.037 49.6982C207.326 68.8178 206.882 100.769 206.882 113.518C206.882 113.794 206.658 114.018 206.382 114.018C206.106 114.018 205.882 113.794 205.882 113.518C205.882 100.767 206.326 68.777 208.041 49.609C208.066 49.334 208.309 49.131 208.584 49.1556Z" fill="black"/>
<path fill-rule="evenodd" clip-rule="evenodd" d="M115.726 111.774C115.935 111.594 116.251 111.618 116.431 111.828C119.014 114.831 121.466 117.89 123.908 120.934C128.514 126.679 133.08 132.372 138.4 137.545C138.598 137.738 138.603 138.054 138.41 138.252C138.218 138.45 137.901 138.455 137.703 138.262C132.342 133.05 127.704 127.267 123.07 121.49C120.638 118.458 118.207 115.426 115.673 112.48C115.493 112.27 115.516 111.955 115.726 111.774Z" fill="black"/>
<path fill-rule="evenodd" clip-rule="evenodd" d="M144.557 133.92C144.582 134.195 144.38 134.439 144.105 134.464C143.017 134.562 142.054 134.655 141.166 134.74C137.503 135.093 135.119 135.322 130.582 135.356C130.306 135.358 130.08 135.136 130.078 134.859C130.076 134.583 130.298 134.358 130.574 134.356C135.064 134.323 137.405 134.097 141.06 133.746C141.95 133.66 142.918 133.567 144.014 133.468C144.289 133.443 144.532 133.645 144.557 133.92Z" fill="black"/>
<path fill-rule="evenodd" clip-rule="evenodd" d="M198.915 66.9239C198.932 67.1995 198.723 67.437 198.447 67.4544C184.175 68.3526 169.914 69.313 155.651 70.2737C150.046 70.6511 144.441 71.0286 138.835 71.4023C138.56 71.4207 138.321 71.2122 138.303 70.9367C138.285 70.6612 138.493 70.4229 138.769 70.4046C144.373 70.0309 149.977 69.6535 155.581 69.2761C169.846 68.3154 184.11 67.3547 198.385 66.4563C198.66 66.439 198.898 66.6483 198.915 66.9239Z" fill="black"/>
<path fill-rule="evenodd" clip-rule="evenodd" d="M197.87 63.8628C198.146 63.8628 198.37 64.0867 198.37 64.3628L198.37 111.39C198.37 111.666 198.146 111.89 197.87 111.89C197.594 111.89 197.37 111.666 197.37 111.39L197.37 64.3628C197.37 64.0867 197.594 63.8628 197.87 63.8628Z" fill="black"/>
<path fill-rule="evenodd" clip-rule="evenodd" d="M143.338 69.655C143.614 69.6753 143.82 69.9151 143.8 70.1905C143.308 76.8377 143.467 82.9053 143.631 89.1889C143.716 92.4174 143.802 95.703 143.802 99.1536C143.802 99.4297 143.578 99.6536 143.302 99.6536C143.026 99.6536 142.802 99.4297 142.802 99.1536C142.802 95.7592 142.717 92.4995 142.633 89.2818C142.468 82.9656 142.307 76.811 142.803 70.1167C142.823 69.8413 143.063 69.6346 143.338 69.655Z" fill="black"/>
<path fill-rule="evenodd" clip-rule="evenodd" d="M199.8 92.8596C199.824 93.1347 199.621 93.3774 199.346 93.4017C192.479 94.0075 185.854 94.5555 179.246 95.102C167.251 96.094 155.315 97.0812 142.101 98.4011C141.827 98.4286 141.582 98.2281 141.554 97.9533C141.527 97.6785 141.727 97.4335 142.002 97.4061C155.222 96.0854 167.175 95.0969 179.176 94.1043C185.782 93.5579 192.403 93.0104 199.258 92.4055C199.533 92.3813 199.776 92.5846 199.8 92.8596Z" fill="black"/>
<path fill-rule="evenodd" clip-rule="evenodd" d="M143.16 97.484C143.436 97.4903 143.655 97.7192 143.649 97.9953C143.584 100.81 143.475 103.725 143.364 106.676C143.016 115.972 142.654 125.633 143.645 133.672C143.678 133.946 143.484 134.196 143.21 134.23C142.936 134.263 142.686 134.069 142.652 133.794C141.651 125.668 142.018 115.887 142.367 106.573C142.477 103.638 142.586 100.749 142.649 97.9725C142.655 97.6964 142.884 97.4777 143.16 97.484Z" fill="black"/>
<path fill-rule="evenodd" clip-rule="evenodd" d="M143.569 133.879C143.76 133.68 144.076 133.674 144.276 133.865C149.724 139.091 153.796 143.377 157.501 147.277C157.621 147.404 157.741 147.53 157.861 147.656C158.051 147.856 158.043 148.173 157.843 148.363C157.642 148.553 157.326 148.545 157.136 148.345C157.017 148.22 156.898 148.094 156.778 147.968C153.074 144.068 149.015 139.796 143.584 134.586C143.384 134.395 143.378 134.079 143.569 133.879Z" fill="black"/>
<path fill-rule="evenodd" clip-rule="evenodd" d="M141.948 114.05C142.143 113.855 142.46 113.855 142.655 114.05C147.826 119.221 154.023 126.75 158.069 132.818C158.222 133.047 158.16 133.358 157.93 133.511C157.7 133.664 157.39 133.602 157.236 133.372C153.229 127.361 147.074 119.883 141.948 114.757C141.753 114.562 141.753 114.245 141.948 114.05Z" fill="black"/>
<path fill-rule="evenodd" clip-rule="evenodd" d="M157.145 149.952C157.339 149.755 157.655 149.754 157.852 149.948C158.046 150.14 158.239 150.332 158.431 150.524C159.838 151.924 161.208 153.288 162.787 154.394C163.013 154.552 163.068 154.864 162.91 155.09C162.751 155.316 162.439 155.371 162.213 155.213C160.558 154.054 159.123 152.625 157.723 151.23C157.531 151.038 157.339 150.848 157.148 150.659C156.952 150.464 156.95 150.148 157.145 149.952Z" fill="black"/>
<path fill-rule="evenodd" clip-rule="evenodd" d="M220.837 146.507C221.109 146.461 221.367 146.644 221.414 146.916C221.46 147.188 221.277 147.447 221.005 147.493L220.921 147L220.837 146.507ZM201.458 150.552C190.075 152.222 175.459 154.175 162.543 155.301C162.268 155.325 162.026 155.122 162.002 154.847C161.978 154.571 162.181 154.329 162.457 154.305C175.343 153.181 189.937 151.232 201.313 149.563C207.001 148.729 211.882 147.965 215.341 147.409C217.071 147.131 218.445 146.906 219.387 146.75C219.858 146.672 220.22 146.611 220.465 146.57L220.837 146.507C220.837 146.507 220.837 146.507 220.921 147C221.005 147.493 221.005 147.493 221.005 147.493L220.631 147.556C220.385 147.597 220.022 147.658 219.55 147.736C218.607 147.893 217.232 148.118 215.5 148.397C212.037 148.952 207.151 149.717 201.458 150.552Z" fill="black"/>
<path fill-rule="evenodd" clip-rule="evenodd" d="M183.646 101.08C183.817 100.863 184.131 100.825 184.348 100.996C186.827 102.945 190.822 106.084 194.197 108.735L200.326 113.549C200.326 113.549 200.326 113.55 200.017 113.943C199.709 114.336 199.709 114.336 199.708 114.336L193.579 109.521C190.204 106.87 186.209 103.731 183.73 101.782C183.513 101.611 183.475 101.297 183.646 101.08ZM200.411 114.252C200.24 114.469 199.926 114.507 199.708 114.336L200.017 113.943L200.326 113.549C200.543 113.72 200.581 114.035 200.411 114.252Z" fill="black"/>
<path fill-rule="evenodd" clip-rule="evenodd" d="M183.229 108.091C183.405 107.879 183.72 107.85 183.933 108.026C185.15 109.037 185.977 109.743 186.661 110.327C188.181 111.624 188.989 112.314 191.788 114.393C192.01 114.558 192.056 114.871 191.891 115.093C191.727 115.314 191.413 115.361 191.192 115.196C188.365 113.096 187.531 112.385 185.998 111.076C185.315 110.493 184.493 109.791 183.294 108.796C183.081 108.619 183.052 108.304 183.229 108.091Z" fill="black"/>
<path fill-rule="evenodd" clip-rule="evenodd" d="M183.859 94.2924C184.135 94.2987 184.354 94.5277 184.347 94.8038C184.28 97.7268 184.299 100.113 184.322 102.953C184.334 104.565 184.348 106.324 184.348 108.411C184.348 108.687 184.124 108.911 183.848 108.911C183.572 108.911 183.348 108.687 183.348 108.411C183.348 106.344 183.334 104.592 183.322 102.981C183.299 100.128 183.28 97.7177 183.348 94.7807C183.354 94.5046 183.583 94.286 183.859 94.2924Z" fill="black"/>
<path fill-rule="evenodd" clip-rule="evenodd" d="M183.685 108.785C183.713 109.06 183.513 109.306 183.239 109.334C175.643 110.113 169.543 110.682 163.444 111.25L163.369 111.257C157.295 111.823 151.218 112.39 143.659 113.164C143.385 113.192 143.139 112.992 143.111 112.718C143.083 112.443 143.283 112.197 143.557 112.169C151.121 111.395 157.202 110.828 163.275 110.262L163.352 110.255C169.45 109.686 175.546 109.118 183.137 108.339C183.411 108.311 183.657 108.511 183.685 108.785Z" fill="black"/>
<path opacity="0.1" d="M176.191 133.05C190.668 133.05 202.404 121.339 202.404 106.893C202.404 92.4477 190.668 80.7371 176.191 80.7371C161.714 80.7371 149.978 92.4477 149.978 106.893C149.978 121.339 161.714 133.05 176.191 133.05Z" fill="#00ADE4"/>
<path opacity="0.2" d="M175.631 123.355C185.051 123.355 192.687 115.735 192.687 106.335C192.687 96.9361 185.051 89.3164 175.631 89.3164C166.211 89.3164 158.575 96.9361 158.575 106.335C158.575 115.735 166.211 123.355 175.631 123.355Z" fill="#00ADE4"/>
<path opacity="0.3" d="M175.981 114.636C180.923 114.636 184.928 110.638 184.928 105.708C184.928 100.777 180.923 96.7795 175.981 96.7795C171.04 96.7795 167.034 100.777 167.034 105.708C167.034 110.638 171.04 114.636 175.981 114.636Z" fill="#00ADE4"/>
<path d="M158.605 119.519V151.187L161.756 154.024L219.895 147.249V116.052L214.853 112.586L158.605 119.519Z" fill="white"/>
<path fill-rule="evenodd" clip-rule="evenodd" d="M156.946 117.802C157.141 117.606 157.457 117.604 157.653 117.798C157.848 117.99 158.041 118.182 158.233 118.374C159.64 119.775 161.01 121.139 162.588 122.244C162.815 122.402 162.87 122.714 162.711 122.94C162.553 123.167 162.241 123.222 162.015 123.063C160.36 121.905 158.925 120.475 157.525 119.08C157.333 118.889 157.141 118.698 156.95 118.509C156.754 118.315 156.752 117.998 156.946 117.802Z" fill="black"/>
<path fill-rule="evenodd" clip-rule="evenodd" d="M158.052 118.154C158.328 118.154 158.552 118.377 158.552 118.654C158.552 121.71 158.592 125.187 158.634 128.818C158.725 136.587 158.823 145.061 158.551 151.622C158.54 151.898 158.307 152.113 158.031 152.101C157.755 152.09 157.541 151.857 157.552 151.581C157.823 145.046 157.725 136.624 157.635 128.87C157.592 125.229 157.552 121.736 157.552 118.654C157.552 118.377 157.776 118.154 158.052 118.154Z" fill="black"/>
<path fill-rule="evenodd" clip-rule="evenodd" d="M223.03 116.185C223.033 116.461 222.811 116.687 222.535 116.689C208.822 116.812 194.074 118.679 179.747 120.493C173.495 121.285 167.323 122.067 161.352 122.689C161.077 122.717 160.831 122.518 160.803 122.243C160.774 121.968 160.973 121.723 161.248 121.694C167.17 121.077 173.314 120.299 179.551 119.51C193.905 117.692 208.752 115.812 222.526 115.689C222.802 115.687 223.028 115.909 223.03 116.185Z" fill="black"/>
<path fill-rule="evenodd" clip-rule="evenodd" d="M219.005 111.948C219.049 112.221 218.864 112.478 218.592 112.522C208.333 114.192 197.977 115.247 187.62 116.217C185.968 116.371 184.316 116.524 182.664 116.676C173.957 117.48 165.261 118.283 156.616 119.399C156.342 119.435 156.091 119.241 156.056 118.968C156.021 118.694 156.214 118.443 156.488 118.408C165.152 117.289 173.87 116.484 182.576 115.68C184.227 115.528 185.877 115.375 187.527 115.221C197.882 114.252 208.209 113.199 218.431 111.535C218.704 111.491 218.96 111.676 219.005 111.948Z" fill="black"/>
<path fill-rule="evenodd" clip-rule="evenodd" d="M213.115 111.66C213.249 111.419 213.554 111.332 213.795 111.467C216.693 113.081 219.608 114.65 222.537 116.212C222.781 116.342 222.873 116.645 222.743 116.889C222.613 117.133 222.31 117.225 222.067 117.095C219.136 115.532 216.214 113.959 213.308 112.34C213.067 112.206 212.981 111.902 213.115 111.66Z" fill="black"/>
<path fill-rule="evenodd" clip-rule="evenodd" d="M219.775 114.404C220.05 114.389 220.286 114.6 220.301 114.876C220.611 120.513 220.428 130.439 220.284 138.209C220.22 141.705 220.163 144.764 220.163 146.8C220.163 147.076 219.939 147.3 219.663 147.3C219.387 147.3 219.163 147.076 219.163 146.8C219.163 144.727 219.22 141.636 219.285 138.118C219.429 130.363 219.61 120.531 219.303 114.931C219.288 114.655 219.499 114.419 219.775 114.404Z" fill="black"/>
<path fill-rule="evenodd" clip-rule="evenodd" d="M161.772 119.155C162.048 119.137 162.285 119.347 162.302 119.623C162.86 128.624 162.651 138.107 162.466 146.521C162.381 150.353 162.302 153.962 162.302 157.204C162.302 157.48 162.078 157.704 161.802 157.704C161.526 157.704 161.302 157.48 161.302 157.204C161.302 153.921 161.382 150.287 161.467 146.441C161.652 138.047 161.859 128.644 161.304 119.685C161.287 119.409 161.497 119.172 161.772 119.155Z" fill="black"/>
<path fill-rule="evenodd" clip-rule="evenodd" d="M242.721 132.297C242.657 132.565 242.387 132.731 242.118 132.667L230.497 129.893C230.228 129.829 230.063 129.559 230.127 129.29C230.191 129.022 230.46 128.856 230.729 128.92L242.35 131.694C242.619 131.758 242.785 132.028 242.721 132.297Z" fill="black"/>
<path fill-rule="evenodd" clip-rule="evenodd" d="M147.642 147.277C147.69 147.549 147.509 147.809 147.237 147.857L135.474 149.952C135.203 150.001 134.943 149.819 134.894 149.548C134.846 149.276 135.027 149.016 135.299 148.968L147.062 146.873C147.334 146.824 147.593 147.005 147.642 147.277Z" fill="black"/>
<path fill-rule="evenodd" clip-rule="evenodd" d="M218.454 103.602C218.195 103.507 218.062 103.219 218.157 102.96L222.18 91.9899C222.275 91.7306 222.563 91.5975 222.822 91.6926C223.081 91.7877 223.214 92.0749 223.119 92.3342L219.096 103.304C219.001 103.564 218.713 103.697 218.454 103.602Z" fill="black"/>
<path fill-rule="evenodd" clip-rule="evenodd" d="M229.168 112.407C229.028 112.17 229.107 111.863 229.345 111.723L240.078 105.395C240.316 105.255 240.622 105.334 240.762 105.572C240.903 105.809 240.823 106.116 240.586 106.256L229.853 112.584C229.615 112.724 229.308 112.645 229.168 112.407Z" fill="black"/>
<path fill-rule="evenodd" clip-rule="evenodd" d="M151.511 155.491C151.72 155.672 151.743 155.988 151.563 156.197L145.8 162.869C145.62 163.078 145.304 163.101 145.095 162.92C144.886 162.74 144.863 162.424 145.043 162.215L150.806 155.543C150.986 155.334 151.302 155.311 151.511 155.491Z" fill="black"/>
<path fill-rule="evenodd" clip-rule="evenodd" d="M216.035 157.114C216.278 156.984 216.581 157.075 216.712 157.319C217.426 158.649 217.966 160.018 218.472 161.373C218.568 161.629 218.662 161.885 218.757 162.14C219.163 163.24 219.563 164.323 220.04 165.393C220.152 165.645 220.039 165.94 219.786 166.053C219.534 166.165 219.239 166.052 219.126 165.8C218.635 164.697 218.221 163.576 217.814 162.475C217.721 162.223 217.628 161.972 217.535 161.722C217.032 160.374 216.511 159.059 215.831 157.792C215.7 157.548 215.792 157.245 216.035 157.114Z" fill="black"/>
<path fill-rule="evenodd" clip-rule="evenodd" d="M186.804 172.748C186.528 172.737 186.313 172.505 186.324 172.229C186.394 170.447 186.395 168.067 186.377 166.127C186.368 165.159 186.355 164.302 186.344 163.688C186.338 163.38 186.333 163.134 186.33 162.964L186.326 162.769L186.324 162.703L186.824 162.69L187.324 162.678L187.325 162.747L187.33 162.943C187.333 163.114 187.338 163.361 187.344 163.67C187.355 164.286 187.368 165.146 187.377 166.118C187.395 168.06 187.395 170.46 187.324 172.268C187.313 172.544 187.08 172.759 186.804 172.748ZM186.812 162.19C187.088 162.184 187.317 162.402 187.324 162.678L186.824 162.69L186.324 162.702C186.318 162.426 186.536 162.197 186.812 162.19Z" fill="black"/>
<defs>
<radialGradient id="paint0_radial_19750_153180" cx="0" cy="0" r="1" gradientUnits="userSpaceOnUse" gradientTransform="translate(168.773 128.921) rotate(90.993) scale(29.6583 63.588)">
<stop/>
<stop offset="1" stop-color="#3E7BFA" stop-opacity="0"/>
</radialGradient>
</defs>
</svg>
