<svg width="117" height="117" viewBox="0 0 117 117" fill="none" xmlns="http://www.w3.org/2000/svg">
<path d="M54.1257 99.3113C53.1776 96.467 59.22 75.3956 62.5778 64.7295C54.0442 66.6257 35.8268 59.2542 56.4766 46.2698C52.3311 53.1531 51.5219 60.2729 65.3832 56.0544C61.4828 53.1531 47.6064 38.2777 70.7162 40.6481C86.392 42.2559 82.1724 52.6967 78.4195 56.0545C80.5922 55.857 83.397 54.7508 89.0856 61.3875C94.7741 68.0242 95.4062 77.3864 92.0484 79.7566C92.0484 79.7566 90.1285 73.5866 89.0856 70.2759C87.7054 65.8948 81.3823 61.3875 81.3823 61.3875C84.7401 72.8437 93.8281 96.3483 93.8281 96.3483C93.8281 96.3483 82.5674 89.8304 77.2344 85.6824C72.9679 82.3641 67.5559 87.0651 65.3832 89.8304C62.0257 94.1758 55.0738 102.156 54.1257 99.3113Z" fill="white"/>
<path fill-rule="evenodd" clip-rule="evenodd" d="M70.1772 39.2555C67.5961 38.9211 64.9508 38.9493 62.381 39.5661C61.4083 39.7996 60.3167 40.1434 59.3755 40.7203C58.4241 41.3035 57.5931 42.1466 57.2239 43.3742C57.0392 43.9881 56.9705 44.618 56.9925 45.2492C56.7579 47.2316 57.4612 49.1039 58.6644 50.7428C59.8784 52.3963 61.6296 53.8553 63.5694 55.0333C65.5126 56.2134 67.6765 57.1307 69.7466 57.685C71.8059 58.2363 73.828 58.4431 75.4691 58.1464C76.5325 57.9542 77.6036 57.5795 78.6172 57.055C78.8111 56.9771 79.0017 56.8933 79.1885 56.8033C79.7777 56.5196 80.2978 56.1248 80.7514 55.654C80.984 55.4642 81.2093 55.2658 81.4264 55.0595C83.0957 53.4727 84.3191 51.3692 84.4705 48.9945C84.6414 46.3132 83.0391 44.359 81.093 42.9991C79.8478 42.129 78.4088 41.4612 77.0618 40.9579C75.4207 40.2354 73.6241 39.8236 71.7548 39.5049C71.2324 39.4078 70.7062 39.324 70.1772 39.2555ZM71.543 40.9531C71.0345 40.8657 70.5135 40.7843 69.9804 40.7047C67.5428 40.3897 65.0833 40.4215 62.7224 40.9882C61.807 41.208 60.8885 41.5084 60.1398 41.9673C59.4013 42.4199 58.8625 43.004 58.6244 43.7955C58.2104 45.172 58.5689 46.8068 59.3931 48.42C60.2103 50.0193 61.4297 51.4838 62.5404 52.4538C64.3703 54.0519 67.2229 55.3829 70.2333 56.0194C73.0138 56.6073 75.8205 56.5804 78.0082 55.7232C78.6178 55.4027 79.2056 55.0193 79.7513 54.582C80.5184 53.7612 81.0946 52.5968 81.4261 51.3128C81.9153 49.4181 81.7973 47.5527 81.2249 46.5614C79.9995 44.4392 78.4103 43.157 76.5112 42.3135C75.816 42.0552 75.1388 41.8398 74.5223 41.6633C73.5431 41.3828 72.5472 41.1416 71.543 40.9531Z" fill="black"/>
<path fill-rule="evenodd" clip-rule="evenodd" d="M81.5618 61.0335C81.1946 61.2015 81.033 61.6354 81.201 62.0027C83.622 67.2951 84.9596 70.6695 86.4466 74.4208C87.4837 77.0373 88.5935 79.8371 90.1942 83.5989C90.6039 84.5617 91.6557 87.2745 92.2944 89.9803C92.6145 91.3367 92.8211 92.6516 92.8065 93.7274C92.7929 94.7271 92.5911 95.3498 92.2947 95.6761C91.7081 95.7652 90.9529 95.5294 89.9823 94.8924C88.9435 94.2108 87.8145 93.1739 86.6195 91.9926C86.1976 91.5756 85.7652 91.1382 85.3284 90.6963C84.5525 89.9113 83.7627 89.1123 82.9932 88.3886C81.7881 87.2554 80.5495 86.2245 79.3432 85.6213C76.176 84.0377 73.0635 84.0845 70.0945 85.4568C67.1624 86.812 64.4069 89.4404 61.8334 92.954C60.6399 94.5834 59.3697 96.266 57.7744 97.4131C56.2171 98.533 54.353 99.1394 51.9159 98.5978C51.5217 98.5102 51.1311 98.7588 51.0434 99.153C50.9558 99.5473 51.2044 99.9379 51.5986 100.025C54.4946 100.669 56.7784 99.9307 58.6283 98.6005C60.4402 97.2976 61.8365 95.4248 63.0133 93.8182C65.5163 90.4008 68.0944 87.9924 70.7081 86.7843C73.285 85.5933 75.9307 85.5502 78.6891 86.9294C79.6935 87.4316 80.8028 88.3364 81.9913 89.454C82.7448 90.1626 83.4967 90.9236 84.257 91.693C84.6983 92.1396 85.1425 92.5891 85.5913 93.0327C86.7897 94.2174 88.0083 95.3463 89.1799 96.1151C90.3286 96.869 91.5977 97.3873 92.8345 97.0551C92.9331 97.0286 93.0252 96.9817 93.1046 96.9174C93.997 96.1956 94.2525 94.9543 94.2689 93.7473C94.2858 92.4972 94.0492 91.0485 93.7177 89.6443C93.0532 86.829 91.9683 84.0329 91.5399 83.0262C89.9728 79.3435 88.8675 76.5566 87.8282 73.9363C86.324 70.1439 84.9582 66.7002 82.531 61.3943C82.363 61.027 81.9291 60.8655 81.5618 61.0335Z" fill="black"/>
<path fill-rule="evenodd" clip-rule="evenodd" d="M62.6847 63.6676C62.3075 63.5233 61.8848 63.7122 61.7406 64.0894C60.758 66.6592 58.2605 73.3065 56.2538 80.6033C55.2505 84.2514 54.3662 88.0747 53.8565 91.6402C53.3484 95.1941 53.2041 98.5454 53.7167 101.227C53.7926 101.623 54.1756 101.883 54.5723 101.808C54.9689 101.732 55.229 101.349 55.1532 100.952C54.6855 98.5058 54.8046 95.342 55.3043 91.8472C55.8022 88.3639 56.6701 84.6049 57.6639 80.9911C59.6515 73.764 62.1286 67.1694 63.1066 64.6118C63.2508 64.2345 63.062 63.8118 62.6847 63.6676Z" fill="black"/>
<path fill-rule="evenodd" clip-rule="evenodd" d="M57.9634 45.5885C57.6919 45.2895 57.2294 45.2673 56.9305 45.5388C55.8713 46.5007 54.6727 47.9455 53.763 49.5018C52.8668 51.0353 52.1793 52.799 52.3114 54.3683C52.3795 55.1761 52.6667 55.9446 53.26 56.5771C53.8478 57.2038 54.6855 57.6433 55.7637 57.8925C57.8933 58.3846 61.1233 58.1717 65.8071 56.991C66.1987 56.8922 66.4362 56.4947 66.3374 56.1031C66.2387 55.7115 65.8412 55.4741 65.4496 55.5728C60.8253 56.7386 57.8741 56.8791 56.093 56.4675C55.2159 56.2649 54.6659 55.9383 54.3267 55.5766C53.9929 55.2207 53.8137 54.7786 53.7688 54.2455C53.6751 53.133 54.1758 51.694 55.0257 50.2398C55.8622 48.8085 56.9675 47.4808 57.9137 46.6215C58.2127 46.3499 58.2349 45.8875 57.9634 45.5885Z" fill="black"/>
<path fill-rule="evenodd" clip-rule="evenodd" d="M78.299 55.3115C78.2158 55.7067 78.4687 56.0946 78.8639 56.1778C84.2399 57.3096 88.9467 61.4453 91.3019 66.314C93.3803 70.6105 93.5751 75.3386 90.9407 79.0297C90.6151 74.1593 88.8911 67.3265 82.4709 61.4413C82.1732 61.1684 81.7107 61.1885 81.4378 61.4862C81.1649 61.7839 81.185 62.2465 81.4827 62.5194C88.3899 68.851 89.5417 76.3229 89.5417 80.9423C89.5417 81.2381 89.7199 81.5047 89.9932 81.6179C90.2664 81.7311 90.581 81.6685 90.7901 81.4593C95.2048 77.0435 95.1454 70.9009 92.6185 65.6771C90.0958 60.4621 85.047 55.985 79.1652 54.7466C78.7701 54.6634 78.3822 54.9164 78.299 55.3115Z" fill="black"/>
<path fill-rule="evenodd" clip-rule="evenodd" d="M83.1893 53.1467C82.8509 53.3671 82.3979 53.2715 82.1775 52.9331C81.8908 52.493 81.1642 52.0577 79.9399 51.7399C78.757 51.4328 77.2649 51.2749 75.671 51.2563C72.4642 51.2191 69.0255 51.746 67.0848 52.5972C66.715 52.7594 66.2837 52.5911 66.1214 52.2212C65.9592 51.8514 66.1275 51.4201 66.4974 51.2579C68.7046 50.2897 72.3766 49.7554 75.688 49.7939C77.3532 49.8133 78.972 49.9776 80.3074 50.3243C81.6016 50.6603 82.8008 51.2105 83.4029 52.1348C83.6234 52.4732 83.5277 52.9262 83.1893 53.1467Z" fill="black"/>
<path fill-rule="evenodd" clip-rule="evenodd" d="M57.5754 44.9152C57.3552 44.5766 56.9023 44.4806 56.5637 44.7008C51.0441 48.2905 48.138 51.5084 47.1087 54.3711C46.5875 55.8208 46.55 57.1754 46.8989 58.4104C47.2456 59.6375 47.9603 60.7004 48.8736 61.6011C50.6876 63.3901 53.3568 64.6122 55.8585 65.2965C57.1175 65.6409 58.3571 65.8556 59.4582 65.9354C60.5464 66.0142 61.5496 65.965 62.3114 65.745C62.6994 65.6329 62.9231 65.2275 62.8111 64.8395C62.699 64.4515 62.2936 64.2278 61.9056 64.3399C61.3809 64.4914 60.5735 64.5498 59.5638 64.4767C58.5669 64.4045 57.4213 64.2078 56.2444 63.8858C53.8743 63.2375 51.4693 62.107 49.9005 60.5598C49.1223 59.7923 48.5686 58.9412 48.3063 58.0128C48.0462 57.0923 48.0593 56.05 48.485 54.8659C49.3496 52.4611 51.9226 49.4638 57.3611 45.9268C57.6996 45.7067 57.7956 45.2537 57.5754 44.9152Z" fill="black"/>
<path d="M103.691 25.877C103.691 26.5088 103.428 27.1757 102.902 27.8777C102.375 28.5446 101.726 29.2466 100.953 29.9837C100.181 30.6857 99.3389 31.4053 98.4263 32.1424C97.5137 32.8795 96.6713 33.6166 95.8991 34.3537C95.1269 35.0557 94.4775 35.7401 93.951 36.407C93.4245 37.0739 93.1613 37.6882 93.1613 38.2498C93.1613 38.6359 93.1964 39.0571 93.2666 39.5134C93.3719 39.9346 93.5123 40.2856 93.6878 40.5664C93.5123 40.8823 93.3368 41.128 93.1613 41.3035C92.9858 41.479 92.7576 41.5667 92.4768 41.5667C92.2311 41.5667 92.003 41.4614 91.7924 41.2508C91.6169 41.0402 91.4589 40.777 91.3185 40.4611C91.1781 40.1452 91.0553 39.8117 90.95 39.4607C90.8798 39.1097 90.8447 38.7938 90.8447 38.513C90.8447 37.7057 90.95 37.0388 91.1606 36.5123C91.3712 35.9507 91.6871 35.4418 92.1083 34.9855C92.5646 34.4941 93.1086 34.0027 93.7404 33.5113C94.3722 33.0199 95.1093 32.4583 95.9517 31.8265C96.5835 31.3351 97.2153 30.8086 97.8471 30.247C98.514 29.6854 99.0932 29.1413 99.5846 28.6148C100.111 28.0532 100.532 27.5267 100.848 27.0353C101.199 26.5088 101.375 26.035 101.375 25.6138C101.375 25.2628 101.217 24.9118 100.901 24.5608C100.62 24.2098 100.234 23.9114 99.7425 23.6657C99.2511 23.3849 98.672 23.1743 98.0051 23.0339C97.3382 22.8584 96.6362 22.7707 95.8991 22.7707C94.2494 22.7707 92.9507 22.8935 92.003 23.1392C91.0904 23.3849 90.3533 23.5078 89.7917 23.5078C89.5109 23.5078 89.2301 23.4376 88.9493 23.2972C88.6685 23.1217 88.5281 22.876 88.5281 22.5601C88.5281 22.1389 88.844 21.7879 89.4758 21.5071C90.1076 21.2263 90.8271 21.0157 91.6344 20.8753C92.4768 20.7349 93.2666 20.6471 94.0037 20.612C94.7759 20.5418 95.2848 20.5067 95.5305 20.5067C96.6186 20.5067 97.6541 20.6647 98.6369 20.9806C99.6197 21.2965 100.48 21.7001 101.217 22.1915C101.989 22.6829 102.586 23.2621 103.007 23.929C103.463 24.5608 103.691 25.2101 103.691 25.877ZM96.7941 48.3059C96.7941 48.7271 96.5835 49.043 96.1623 49.2536C95.7411 49.4993 95.355 49.6222 95.004 49.6222C94.6881 49.6222 94.3196 49.4467 93.8984 49.0957C93.4772 48.7798 93.2666 48.4639 93.2666 48.148C93.2666 48.0427 93.2666 47.9023 93.2666 47.7268C93.3017 47.5162 93.3543 47.3056 93.4245 47.095C93.5298 46.8844 93.6527 46.7089 93.7931 46.5685C93.9335 46.393 94.1265 46.3052 94.3722 46.3052C94.4775 46.3052 94.653 46.393 94.8987 46.5685C95.1795 46.7089 95.4603 46.8844 95.7411 47.095C96.0219 47.3056 96.2676 47.5337 96.4782 47.7794C96.6888 47.99 96.7941 48.1655 96.7941 48.3059Z" fill="#1A1A1A"/>
<path fill-rule="evenodd" clip-rule="evenodd" d="M95.5305 21.0186C95.3122 21.0186 94.8269 21.0512 94.05 21.1218L94.039 21.1228L94.028 21.1233C93.3143 21.1573 92.5453 21.2425 91.7203 21.3799C90.9478 21.5144 90.2703 21.7141 89.6836 21.9748C89.1067 22.2312 89.0399 22.4527 89.0399 22.5601C89.0399 22.6833 89.0769 22.7675 89.2015 22.8508C89.4109 22.9518 89.6062 22.9959 89.7916 22.9959C90.2881 22.9959 90.9755 22.8857 91.8699 22.6449L91.8745 22.6437C92.883 22.3822 94.2312 22.2588 95.899 22.2588C96.6726 22.2588 97.4145 22.3504 98.123 22.5357C98.8213 22.6838 99.4442 22.9077 99.9841 23.2142C100.517 23.4823 100.959 23.8178 101.291 24.2294C101.656 24.6388 101.887 25.1027 101.887 25.6138C101.887 26.1738 101.656 26.7459 101.276 27.3157C100.94 27.8388 100.498 28.3885 99.9582 28.9647C99.4517 29.5073 98.859 30.0637 98.182 30.6341C98.1837 30.6326 98.1855 30.6311 98.1872 30.6295L97.8471 30.247L98.1768 30.6385C98.1786 30.637 98.1803 30.6356 98.182 30.6341C97.544 31.201 96.9054 31.7332 96.266 32.2305L96.2589 32.236C95.4182 32.8666 94.6835 33.4262 94.0547 33.9153C93.4409 34.3927 92.9182 34.8655 92.484 35.3331C92.1062 35.7424 91.8263 36.1948 91.6398 36.692L91.6359 36.7025C91.4574 37.1487 91.3565 37.7454 91.3565 38.513C91.3565 38.7466 91.3852 39.0203 91.4472 39.3368C91.4449 39.3291 91.4426 39.3214 91.4402 39.3136L90.9499 39.4607L91.4519 39.3603C91.4503 39.3525 91.4488 39.3446 91.4472 39.3368C91.5451 39.6597 91.6582 39.9651 91.7863 40.2532C91.9076 40.5261 92.0371 40.7405 92.1702 40.9044C92.165 40.8994 92.1597 40.8942 92.1543 40.8889L91.7923 41.2508L92.1856 40.9231C92.1805 40.917 92.1753 40.9107 92.1702 40.9044C92.2988 41.0275 92.398 41.0548 92.4768 41.0548C92.6413 41.0548 92.7327 41.0081 92.7993 40.9415C92.8904 40.8504 92.9905 40.7243 93.0978 40.5572C93.1462 40.6551 93.1981 40.7487 93.2537 40.8377L93.6877 40.5664L93.2403 40.3178C93.1915 40.4055 93.144 40.4852 93.0978 40.5572C92.9623 40.2832 92.8543 39.9749 92.77 39.6375L92.7642 39.6146L92.7606 39.5912C92.6872 39.114 92.6494 38.6664 92.6494 38.2498C92.6494 37.5272 92.9863 36.8029 93.5492 36.0898C94.0955 35.3979 94.7636 34.6945 95.5501 33.9791C95.5486 33.9805 95.5471 33.982 95.5456 33.9834L95.899 34.3537L95.5547 33.9749C95.5532 33.9763 95.5516 33.9777 95.5501 33.9791C96.3322 33.2328 97.1839 32.4878 98.1046 31.7442C99.0086 31.014 99.8418 30.3024 100.605 29.6092C100.603 29.6106 100.602 29.612 100.6 29.6135L100.953 29.9837L100.609 29.605C100.608 29.6064 100.606 29.6078 100.605 29.6092C101.36 28.8881 101.989 28.2069 102.496 27.5656C102.494 27.5673 102.493 27.5689 102.492 27.5706L102.901 27.8777L102.5 27.5605C102.498 27.5622 102.497 27.5639 102.496 27.5656C102.978 26.9206 103.179 26.361 103.179 25.877C103.179 25.335 102.996 24.7884 102.592 24.2287L102.583 24.2158L102.574 24.2023C102.199 23.6087 101.661 23.0807 100.942 22.6234L100.933 22.6175C100.241 22.1563 99.4252 21.7716 98.4802 21.4679C97.5507 21.1691 96.5683 21.0186 95.5305 21.0186ZM93.9682 20.1013C94.7298 20.0321 95.2587 19.9948 95.5305 19.9948C96.6689 19.9948 97.7574 20.1602 98.7935 20.4932C99.8122 20.8207 100.715 21.2424 101.496 21.7626C102.315 22.2843 102.965 22.9092 103.431 23.6422C103.933 24.3423 104.203 25.09 104.203 25.877C104.203 26.6554 103.879 27.428 103.311 28.1848L103.303 28.195C102.759 28.8847 102.092 29.6043 101.307 30.354L101.298 30.3626C100.517 31.0721 99.6673 31.798 98.7479 32.5406C97.8452 33.2697 97.0135 33.9975 96.2525 34.7239L96.2435 34.7325C95.4876 35.4197 94.8584 36.0837 94.3528 36.7242C93.8627 37.3449 93.6731 37.8491 93.6731 38.2498C93.6731 38.5989 93.7043 38.9859 93.7689 39.4119C93.8641 39.7853 93.9848 40.0758 94.1218 40.2951L94.2818 40.5511L94.1352 40.815C93.9461 41.1553 93.7438 41.4448 93.5232 41.6654C93.2388 41.9498 92.8739 42.0786 92.4768 42.0786C92.0674 42.0786 91.7153 41.8976 91.4304 41.6128L91.414 41.5963L91.3991 41.5785C91.1867 41.3236 91.0056 41.0173 90.8507 40.669C90.701 40.3321 90.5708 39.9783 90.4597 39.6078L90.4527 39.5847L90.448 39.5611C90.3729 39.1856 90.3328 38.8352 90.3328 38.513C90.3328 37.6685 90.4419 36.9332 90.6832 36.3274C90.9179 35.7037 91.2689 35.1401 91.7321 34.6383L91.7332 34.6372C92.2114 34.1222 92.7766 33.6124 93.4261 33.1072C94.06 32.6142 94.7984 32.0516 95.641 31.4197C96.2623 30.9363 96.8843 30.4179 97.507 29.8644L97.5173 29.8553C98.1716 29.3042 98.7355 28.7744 99.2103 28.2656C99.7219 27.7199 100.123 27.2171 100.418 26.7585L100.422 26.7513C100.744 26.2693 100.863 25.895 100.863 25.6138C100.863 25.4274 100.781 25.1931 100.52 24.9032L100.51 24.8921L100.501 24.8805C100.276 24.5988 99.9531 24.3433 99.5136 24.1236L99.5009 24.1172L99.4885 24.1101C99.0517 23.8605 98.5246 23.6664 97.8996 23.5348L97.8871 23.5322L97.8748 23.5289C97.2532 23.3654 96.5952 23.2825 95.899 23.2825C94.2688 23.2825 93.0204 23.4046 92.1336 23.6341C91.2039 23.8843 90.4179 24.0196 89.7916 24.0196C89.4224 24.0196 89.0637 23.9267 88.7203 23.755L88.6986 23.7441L88.678 23.7312C88.2562 23.4677 88.0162 23.0625 88.0162 22.5601C88.0162 21.825 88.5811 21.3445 89.2679 21.0393C89.9444 20.7386 90.7054 20.5173 91.5467 20.371L91.5502 20.3703C92.4053 20.2278 93.2115 20.1378 93.9682 20.1013ZM94.3325 46.8187C94.2549 46.8253 94.2216 46.8522 94.1928 46.8882L94.175 46.9104L94.155 46.9304C94.0659 47.0195 93.9791 47.1376 93.8985 47.2922C93.8467 47.4528 93.8067 47.6123 93.7784 47.7706V48.1467C93.7784 48.2187 93.828 48.4031 94.2055 48.6862L94.216 48.694L94.226 48.7024C94.6165 49.0278 94.8687 49.1103 95.004 49.1103C95.2358 49.1103 95.5324 49.0285 95.9044 48.8115L95.9186 48.8032L95.9334 48.7958C96.0833 48.7208 96.1649 48.6428 96.2102 48.5748C96.2491 48.5165 96.2763 48.4435 96.2814 48.3413C96.2799 48.3386 96.2782 48.3357 96.2762 48.3323C96.2524 48.2927 96.2041 48.2292 96.1163 48.1414L96.1023 48.1275L96.0896 48.1125C95.9052 47.8975 95.6874 47.6945 95.434 47.5045C95.1749 47.3102 94.9201 47.1515 94.6698 47.0263L94.6339 47.0083L94.6012 46.985C94.4898 46.9055 94.4086 46.8562 94.3539 46.8289C94.3454 46.8246 94.3383 46.8213 94.3325 46.8187ZM96.2893 48.3574C96.2896 48.3582 96.2893 48.3574 96.2893 48.3574V48.3574ZM93.4123 46.2256C93.6583 45.9321 93.9973 45.7933 94.3722 45.7933C94.5466 45.7933 94.7041 45.8594 94.8117 45.9132C94.9226 45.9686 95.0408 46.0427 95.1634 46.1287C95.4624 46.2811 95.7573 46.4673 96.0482 46.6855C96.3509 46.9125 96.6203 47.161 96.8542 47.4316C96.9713 47.5502 97.0757 47.675 97.1541 47.8056C97.2339 47.9387 97.306 48.1099 97.306 48.3059C97.306 48.6061 97.2295 48.8916 97.0621 49.1427C96.8999 49.3859 96.6713 49.5688 96.4064 49.7038C95.9405 49.9734 95.4696 50.134 95.004 50.134C94.5111 50.134 94.0297 49.8694 93.5806 49.4972C93.1206 49.1496 92.7547 48.7036 92.7547 48.148V47.6844L92.7616 47.6426C92.8013 47.4046 92.8606 47.1681 92.9389 46.9331L92.9504 46.8986L92.9667 46.866C93.0879 46.6237 93.235 46.4075 93.4123 46.2256Z" fill="#1A1A1A"/>
<path d="M43.2905 53.6329C43.2905 54.2647 43.0272 54.9316 42.5007 55.6336C41.9742 56.3005 41.3249 57.0025 40.5527 57.7396C39.7805 58.4416 38.9381 59.1611 38.0255 59.8982C37.1129 60.6353 36.2705 61.3724 35.4983 62.1095C34.7261 62.8115 34.0767 63.496 33.5502 64.1629C33.0237 64.8298 32.7605 65.444 32.7605 66.0056C32.7605 66.3917 32.7956 66.8129 32.8658 67.2692C32.9711 67.6904 33.1115 68.0414 33.287 68.3222C33.1115 68.6381 32.936 68.8838 32.7605 69.0593C32.585 69.2348 32.3568 69.3226 32.076 69.3226C31.8303 69.3226 31.6022 69.2173 31.3916 69.0067C31.2161 68.7961 31.0581 68.5328 30.9177 68.2169C30.7773 67.901 30.6545 67.5676 30.5492 67.2166C30.479 66.8656 30.4439 66.5497 30.4439 66.2689C30.4439 65.4616 30.5492 64.7947 30.7598 64.2682C30.9704 63.7066 31.2863 63.1976 31.7075 62.7413C32.1638 62.2499 32.7078 61.7585 33.3396 61.2671C33.9714 60.7757 34.7085 60.2141 35.5509 59.5823C36.1827 59.0909 36.8145 58.5644 37.4463 58.0028C38.1132 57.4412 38.6924 56.8972 39.1838 56.3707C39.7103 55.8091 40.1315 55.2826 40.4474 54.7912C40.7984 54.2647 40.9739 53.7908 40.9739 53.3696C40.9739 53.0186 40.8159 52.6676 40.5 52.3166C40.2192 51.9656 39.8331 51.6673 39.3417 51.4216C38.8503 51.1408 38.2712 50.9302 37.6043 50.7898C36.9374 50.6143 36.2354 50.5265 35.4983 50.5265C33.8486 50.5265 32.5499 50.6494 31.6022 50.8951C30.6896 51.1408 29.9525 51.2636 29.3909 51.2636C29.1101 51.2636 28.8293 51.1934 28.5485 51.053C28.2677 50.8775 28.1273 50.6318 28.1273 50.3159C28.1273 49.8947 28.4432 49.5437 29.075 49.2629C29.7068 48.9821 30.4263 48.7715 31.2336 48.6311C32.076 48.4907 32.8658 48.403 33.6029 48.3679C34.3751 48.2977 34.884 48.2626 35.1297 48.2626C36.2178 48.2626 37.2533 48.4205 38.2361 48.7364C39.2189 49.0523 40.0788 49.456 40.8159 49.9474C41.5881 50.4388 42.1848 51.0179 42.606 51.6848C43.0623 52.3166 43.2905 52.966 43.2905 53.6329ZM36.3933 76.0618C36.3933 76.483 36.1827 76.7989 35.7615 77.0095C35.3403 77.2552 34.9542 77.378 34.6032 77.378C34.2873 77.378 33.9188 77.2025 33.4976 76.8515C33.0764 76.5356 32.8658 76.2197 32.8658 75.9038C32.8658 75.7985 32.8658 75.6581 32.8658 75.4826C32.9009 75.272 32.9535 75.0614 33.0237 74.8508C33.129 74.6402 33.2519 74.4647 33.3923 74.3243C33.5327 74.1488 33.7257 74.0611 33.9714 74.0611C34.0767 74.0611 34.2522 74.1488 34.4979 74.3243C34.7787 74.4647 35.0595 74.6402 35.3403 74.8508C35.6211 75.0614 35.8668 75.2896 36.0774 75.5353C36.288 75.7459 36.3933 75.9214 36.3933 76.0618Z" fill="#1A1A1A"/>
<path fill-rule="evenodd" clip-rule="evenodd" d="M35.1297 48.7745C34.9114 48.7745 34.4261 48.807 33.6492 48.8777L33.6382 48.8786L33.6272 48.8792C32.9135 48.9132 32.1444 48.9983 31.3195 49.1357C30.547 49.2702 29.8695 49.47 29.2828 49.7307C28.7059 49.9871 28.6391 50.2086 28.6391 50.3159C28.6391 50.4392 28.6761 50.5233 28.8007 50.6066C29.01 50.7076 29.2053 50.7518 29.3908 50.7518C29.8873 50.7518 30.5746 50.6416 31.4691 50.4008L31.4737 50.3996C32.4822 50.1381 33.8304 50.0147 35.4982 50.0147C36.2718 50.0147 37.0137 50.1063 37.7222 50.2915C38.4205 50.4396 39.0434 50.6636 39.5833 50.9701C40.1158 51.2382 40.5578 51.5736 40.8904 51.9852C41.2555 52.3946 41.4857 52.8586 41.4857 53.3696C41.4857 53.9297 41.2548 54.5018 40.8756 55.0716C40.5389 55.5947 40.0975 56.1444 39.5574 56.7205C39.0509 57.2631 38.4582 57.8196 37.7812 58.39C37.7829 58.3885 37.7846 58.3869 37.7864 58.3854L37.4463 58.0028L37.776 58.3944C37.7777 58.3929 37.7795 58.3914 37.7812 58.39C37.1432 58.9569 36.5045 59.4891 35.8651 59.9864L35.8581 59.9919C35.0174 60.6224 34.2827 61.1821 33.6538 61.6712C33.0401 62.1486 32.5174 62.6214 32.0832 63.089C31.7054 63.4983 31.4255 63.9506 31.239 64.4479L31.2351 64.4583C31.0566 64.9046 30.9557 65.5013 30.9557 66.2689C30.9557 66.5025 30.9843 66.7762 31.0464 67.0927C31.0441 67.085 31.0417 67.0772 31.0394 67.0695L30.5491 67.2166L31.0511 67.1162C31.0495 67.1083 31.0479 67.1005 31.0464 67.0927C31.1443 67.4156 31.2574 67.7209 31.3854 68.009C31.5067 68.282 31.6362 68.4963 31.7694 68.6603C31.7641 68.6553 31.7588 68.6501 31.7535 68.6447L31.3915 69.0067L31.7848 68.679C31.7796 68.6728 31.7745 68.6666 31.7694 68.6603C31.898 68.7833 31.9972 68.8107 32.076 68.8107C32.2405 68.8107 32.3319 68.764 32.3985 68.6974C32.4896 68.6063 32.5897 68.4802 32.6969 68.3131C32.7453 68.411 32.7973 68.5046 32.8529 68.5935L33.2869 68.3222L32.8395 68.0736C32.7907 68.1614 32.7432 68.241 32.6969 68.3131C32.5615 68.039 32.4535 67.7308 32.3691 67.3934L32.3634 67.3704L32.3598 67.3471C32.2864 66.8698 32.2486 66.4222 32.2486 66.0056C32.2486 65.2831 32.5855 64.5588 33.1484 63.8457C33.6947 63.1538 34.3628 62.4503 35.1493 61.735C35.1478 61.7364 35.1463 61.7378 35.1448 61.7393L35.4982 62.1095L35.1539 61.7308C35.1524 61.7322 35.1508 61.7336 35.1493 61.735C35.9314 60.9887 36.783 60.2437 37.7038 59.5C38.6078 58.7699 39.441 58.0582 40.2037 57.365C40.2022 57.3664 40.2007 57.3679 40.1992 57.3693L40.5526 57.7396L40.2083 57.3608C40.2068 57.3622 40.2052 57.3636 40.2037 57.365C40.9588 56.644 41.5882 55.9628 42.0949 55.3215C42.0937 55.3231 42.0924 55.3248 42.0912 55.3265L42.5007 55.6336L42.0989 55.3164C42.0976 55.3181 42.0963 55.3198 42.0949 55.3215C42.5776 54.6764 42.7786 54.1169 42.7786 53.6329C42.7786 53.0909 42.5953 52.5443 42.191 51.9845L42.1817 51.9716L42.1732 51.9582C41.7983 51.3646 41.2597 50.8366 40.5411 50.3792L40.5319 50.3734C39.84 49.9122 39.0244 49.5275 38.0794 49.2237C37.1499 48.925 36.1675 48.7745 35.1297 48.7745ZM33.5674 47.8571C34.329 47.788 34.8579 47.7507 35.1297 47.7507C36.2681 47.7507 37.3566 47.9161 38.3927 48.2491C39.4113 48.5765 40.314 48.9983 41.0953 49.5185C41.9139 50.0402 42.5642 50.665 43.0303 51.3981C43.5326 52.0982 43.8023 52.8459 43.8023 53.6329C43.8023 54.4112 43.4778 55.1838 42.9102 55.9407L42.9026 55.9509C42.358 56.6406 41.6914 57.3602 40.9061 58.1098L40.8971 58.1184C40.1167 58.8279 39.2665 59.5538 38.3471 60.2964C37.4444 61.0255 36.6127 61.7533 35.8517 62.4798L35.8427 62.4884C35.0868 63.1756 34.4576 63.8395 33.9519 64.4801C33.4619 65.1008 33.2723 65.605 33.2723 66.0056C33.2723 66.3548 33.3035 66.7417 33.368 67.1677C33.4633 67.5412 33.5839 67.8316 33.721 68.0509L33.881 68.3069L33.7344 68.5708C33.5453 68.9112 33.343 69.2007 33.1224 69.4213C32.838 69.7057 32.4731 69.8345 32.076 69.8345C31.6666 69.8345 31.3144 69.6535 31.0296 69.3686L31.0132 69.3522L30.9983 69.3344C30.7859 69.0795 30.6048 68.7732 30.4499 68.4248C30.3002 68.088 30.17 67.7342 30.0588 67.3637L30.0519 67.3406L30.0472 67.317C29.9721 66.9414 29.932 66.5911 29.932 66.2689C29.932 65.4243 30.0411 64.6891 30.2824 64.0833C30.517 63.4596 30.8681 62.8959 31.3313 62.3941L31.3323 62.393C31.8106 61.878 32.3758 61.3683 33.0253 60.8631C33.6592 60.3701 34.3976 59.8075 35.2402 59.1755C35.8615 58.6922 36.4835 58.1738 37.1062 57.6202L37.1164 57.6111C37.7708 57.0601 38.3346 56.5302 38.8095 56.0214C39.3211 55.4758 39.722 54.973 40.0168 54.5144L40.0214 54.5072C40.3427 54.0252 40.462 53.6508 40.462 53.3696C40.462 53.1833 40.3804 52.949 40.1195 52.6591L40.1096 52.648L40.1003 52.6364C39.8749 52.3546 39.5523 52.0992 39.1128 51.8794L39.1001 51.8731L39.0877 51.866C38.6509 51.6164 38.1238 51.4223 37.4988 51.2907L37.4863 51.288L37.474 51.2848C36.8524 51.1212 36.1944 51.0384 35.4982 51.0384C33.868 51.0384 32.6195 51.1604 31.7328 51.39C30.8031 51.6402 30.0171 51.7755 29.3908 51.7755C29.0216 51.7755 28.6629 51.6826 28.3195 51.5109L28.2978 51.5L28.2771 51.4871C27.8554 51.2235 27.6154 50.8184 27.6154 50.3159C27.6154 49.5809 28.1803 49.1004 28.867 48.7952C29.5436 48.4945 30.3046 48.2731 31.1459 48.1268L31.1494 48.1262C32.0044 47.9837 32.8106 47.8936 33.5674 47.8571ZM33.9316 74.5745C33.8541 74.5811 33.8208 74.608 33.7919 74.6441L33.7742 74.6662L33.7542 74.6863C33.6651 74.7753 33.5783 74.8935 33.4977 75.0481C33.4458 75.2087 33.4059 75.3681 33.3776 75.5265V75.9026C33.3776 75.9745 33.4272 76.1589 33.8047 76.442L33.8152 76.4499L33.8252 76.4583C34.2157 76.7837 34.4679 76.8662 34.6032 76.8662C34.835 76.8662 35.1316 76.7843 35.5036 76.5673L35.5178 76.559L35.5326 76.5516C35.6824 76.4767 35.7641 76.3987 35.8094 76.3307C35.8483 76.2724 35.8755 76.1993 35.8806 76.0971C35.8791 76.0945 35.8774 76.0915 35.8754 76.0882C35.8516 76.0486 35.8033 75.9851 35.7154 75.8972L35.7015 75.8833L35.6887 75.8684C35.5044 75.6533 35.2866 75.4504 35.0332 75.2603C34.7741 75.066 34.5193 74.9073 34.269 74.7822L34.233 74.7642L34.2004 74.7409C34.089 74.6613 34.0078 74.6121 33.9531 74.5847C33.9446 74.5805 33.9375 74.5772 33.9316 74.5745ZM35.8885 76.1133C35.8888 76.114 35.8885 76.1133 35.8885 76.1133V76.1133ZM33.0115 73.9814C33.2575 73.688 33.5965 73.5492 33.9714 73.5492C34.1458 73.5492 34.3033 73.6153 34.4109 73.6691C34.5218 73.7245 34.64 73.7985 34.7626 73.8846C35.0616 74.0369 35.3565 74.2231 35.6474 74.4413C35.9501 74.6684 36.2195 74.9168 36.4534 75.1875C36.5705 75.306 36.6749 75.4309 36.7532 75.5615C36.8331 75.6946 36.9052 75.8657 36.9052 76.0618C36.9052 76.3619 36.8286 76.6474 36.6612 76.8985C36.4991 77.1418 36.2705 77.3247 36.0056 77.4596C35.5397 77.7292 35.0688 77.8899 34.6032 77.8899C34.1103 77.8899 33.6289 77.6253 33.1798 77.253C32.7198 76.9055 32.3539 76.4594 32.3539 75.9038V75.4403L32.3608 75.3985C32.4005 75.1605 32.4598 74.9239 32.5381 74.689L32.5496 74.6544L32.5658 74.6219C32.687 74.3795 32.8341 74.1633 33.0115 73.9814Z" fill="#1A1A1A"/>
<path d="M70.9692 17.5759C70.9692 17.9971 70.7937 18.4417 70.4427 18.9097C70.0917 19.3543 69.6588 19.8223 69.144 20.3137C68.6292 20.7817 68.0676 21.2614 67.4592 21.7528C66.8508 22.2442 66.2892 22.7356 65.7744 23.227C65.2596 23.695 64.8267 24.1513 64.4757 24.5959C64.1247 25.0405 63.9492 25.45 63.9492 25.8244C63.9492 26.0818 63.9726 26.3626 64.0194 26.6668C64.0896 26.9476 64.1832 27.1816 64.3002 27.3688C64.1832 27.5794 64.0662 27.7432 63.9492 27.8602C63.8322 27.9772 63.6801 28.0357 63.4929 28.0357C63.3291 28.0357 63.177 27.9655 63.0366 27.8251C62.9196 27.6847 62.8143 27.5092 62.7207 27.2986C62.6271 27.088 62.5452 26.8657 62.475 26.6317C62.4282 26.3977 62.4048 26.1871 62.4048 25.9999C62.4048 25.4617 62.475 25.0171 62.6154 24.6661C62.7558 24.2917 62.9664 23.9524 63.2472 23.6482C63.5514 23.3206 63.9141 22.993 64.3353 22.6654C64.7565 22.3378 65.2479 21.9634 65.8095 21.5422C66.2307 21.2146 66.6519 20.8636 67.0731 20.4892C67.5177 20.1148 67.9038 19.7521 68.2314 19.4011C68.5824 19.0267 68.8632 18.6757 69.0738 18.3481C69.3078 17.9971 69.4248 17.6812 69.4248 17.4004C69.4248 17.1664 69.3195 16.9324 69.1089 16.6984C68.9217 16.4644 68.6643 16.2655 68.3367 16.1017C68.0091 15.9145 67.623 15.7741 67.1784 15.6805C66.7338 15.5635 66.2658 15.505 65.7744 15.505C64.6746 15.505 63.8088 15.5869 63.177 15.7507C62.5686 15.9145 62.0772 15.9964 61.7028 15.9964C61.5156 15.9964 61.3284 15.9496 61.1412 15.856C60.954 15.739 60.8604 15.5752 60.8604 15.3646C60.8604 15.0838 61.071 14.8498 61.4922 14.6626C61.9134 14.4754 62.3931 14.335 62.9313 14.2414C63.4929 14.1478 64.0194 14.0893 64.5108 14.0659C65.0256 14.0191 65.3649 13.9957 65.5287 13.9957C66.2541 13.9957 66.9444 14.101 67.5996 14.3116C68.2548 14.5222 68.8281 14.7913 69.3195 15.1189C69.8343 15.4465 70.2321 15.8326 70.5129 16.2772C70.8171 16.6984 70.9692 17.1313 70.9692 17.5759ZM66.3711 32.5285C66.3711 32.8093 66.2307 33.0199 65.9499 33.1603C65.6691 33.3241 65.4117 33.406 65.1777 33.406C64.9671 33.406 64.7214 33.289 64.4406 33.055C64.1598 32.8444 64.0194 32.6338 64.0194 32.4232C64.0194 32.353 64.0194 32.2594 64.0194 32.1424C64.0428 32.002 64.0779 31.8616 64.1247 31.7212C64.1949 31.5808 64.2768 31.4638 64.3704 31.3702C64.464 31.2532 64.5927 31.1947 64.7565 31.1947C64.8267 31.1947 64.9437 31.2532 65.1075 31.3702C65.2947 31.4638 65.4819 31.5808 65.6691 31.7212C65.8563 31.8616 66.0201 32.0137 66.1605 32.1775C66.3009 32.3179 66.3711 32.4349 66.3711 32.5285Z" fill="#1A1A1A"/>
<path fill-rule="evenodd" clip-rule="evenodd" d="M65.5287 14.3613C65.3845 14.3613 65.0621 14.3829 64.5439 14.43L64.5282 14.4314C64.0535 14.454 63.5418 14.5104 62.9927 14.6018C62.4793 14.6912 62.0297 14.8238 61.6407 14.9967C61.2587 15.1665 61.2261 15.308 61.2261 15.3646C61.2261 15.4378 61.2461 15.4864 61.3215 15.5372C61.4576 15.6026 61.5837 15.6308 61.7028 15.6308C62.0307 15.6308 62.4866 15.5579 63.082 15.3976L63.0853 15.3968C63.7605 15.2217 64.6617 15.1394 65.7744 15.1394C66.2919 15.1394 66.7883 15.2006 67.2627 15.3246C67.7298 15.4237 68.1471 15.5736 68.5093 15.7792C68.8663 15.959 69.1637 16.1844 69.3878 16.4617C69.6336 16.7374 69.7905 17.0521 69.7905 17.4004C69.7905 17.7803 69.6339 18.1664 69.3798 18.5484C69.1543 18.8985 68.8591 19.2661 68.4984 19.6509C68.16 20.0134 67.7643 20.385 67.3124 20.7657C66.8868 21.1439 66.4606 21.499 66.034 21.8308L66.0289 21.8347C65.4686 22.255 64.9789 22.628 64.5598 22.954C64.1514 23.2716 63.804 23.586 63.5155 23.8966C63.2658 24.1672 63.0809 24.4661 62.9578 24.7945L62.955 24.8019C62.8375 25.0956 62.7705 25.49 62.7705 25.9999C62.7705 26.1534 62.7893 26.3339 62.8302 26.5432C62.8951 26.7571 62.9701 26.9593 63.0548 27.1501C63.1348 27.3299 63.2197 27.4705 63.3065 27.5776C63.3881 27.6553 63.4481 27.6701 63.4929 27.6701C63.597 27.6701 63.6515 27.6409 63.6907 27.6017C63.7479 27.5445 63.811 27.4656 63.8789 27.361C63.7906 27.1796 63.72 26.9766 63.6647 26.7555L63.6606 26.7391L63.6581 26.7224C63.609 26.4032 63.5836 26.1036 63.5836 25.8244C63.5836 25.335 63.8117 24.8469 64.1888 24.3693C64.5539 23.9069 65.0002 23.437 65.5252 22.9594C66.0471 22.4615 66.6153 21.9645 67.2295 21.4684C67.8317 20.9819 68.3868 20.5079 68.8948 20.0462C69.3974 19.5662 69.816 19.1131 70.1529 18.6867C70.4726 18.2595 70.6036 17.8915 70.6036 17.5759C70.6036 17.2205 70.4836 16.861 70.2165 16.4913L70.2099 16.482L70.2038 16.4724C69.9561 16.0802 69.5998 15.7306 69.1232 15.4274L69.1167 15.4232C68.6576 15.1171 68.1159 14.8616 67.4878 14.6597C66.8706 14.4613 66.2182 14.3613 65.5287 14.3613ZM64.4855 13.7011C64.9928 13.655 65.3463 13.6301 65.5287 13.6301C66.2901 13.6301 67.0183 13.7407 67.7115 13.9635C68.3923 14.1823 68.9961 14.4644 69.5191 14.8125C70.0671 15.1618 70.5032 15.5805 70.816 16.0724C71.1531 16.5424 71.3349 17.0455 71.3349 17.5759C71.3349 18.1018 71.1156 18.6219 70.7352 19.1291L70.7298 19.1363C70.3659 19.5972 69.9207 20.0778 69.3965 20.5782L69.3901 20.5843C68.8694 21.0576 68.3022 21.5419 67.689 22.0372C67.0877 22.5229 66.5337 23.0077 66.0269 23.4915L66.0205 23.4976C65.5173 23.955 65.0988 24.3967 64.7627 24.8224C64.4377 25.2341 64.3149 25.565 64.3149 25.8244C64.3149 26.0554 64.3355 26.3117 64.3782 26.5943C64.4412 26.8409 64.5207 27.0317 64.6103 27.175L64.7246 27.3579L64.6199 27.5464C64.4931 27.7744 64.357 27.9695 64.2078 28.1187C64.013 28.3135 63.7632 28.4013 63.4929 28.4013C63.2122 28.4013 62.9715 28.2771 62.7781 28.0836L62.7664 28.0719L62.7558 28.0592C62.6124 27.8871 62.4905 27.6809 62.3866 27.4471C62.2864 27.2215 62.1992 26.9847 62.1248 26.7368L62.1199 26.7203L62.1165 26.7034C62.0662 26.4519 62.0392 26.2167 62.0392 25.9999C62.0392 25.4351 62.1122 24.9417 62.2745 24.534C62.4321 24.1153 62.6678 23.7369 62.9786 23.4002C63.2984 23.0557 63.677 22.7142 64.1109 22.3768C64.5335 22.048 65.0258 21.6729 65.5876 21.2516C66.0013 20.9298 66.4155 20.5846 66.8302 20.2159L66.8375 20.2094C67.2732 19.8426 67.6483 19.49 67.9641 19.1516C68.3044 18.7886 68.5708 18.4545 68.7663 18.1504L68.7696 18.1453C68.9824 17.826 69.0592 17.5812 69.0592 17.4004C69.0592 17.284 69.0085 17.1334 68.8372 16.943L68.8301 16.9351L68.8234 16.9268C68.6758 16.7422 68.4638 16.574 68.1732 16.4287L68.1551 16.4196C67.8664 16.2547 67.5178 16.1256 67.1031 16.0383L67.0853 16.0345C66.6731 15.926 66.2366 15.8706 65.7744 15.8706C64.6886 15.8706 63.8586 15.9519 63.2704 16.1042C62.6497 16.2712 62.1234 16.362 61.7028 16.362C61.4525 16.362 61.2096 16.299 60.9777 16.183L60.9622 16.1752L60.9475 16.166C60.6596 15.9861 60.4948 15.7084 60.4948 15.3646C60.4948 14.8596 60.8833 14.5331 61.3437 14.3285C61.7969 14.1271 62.3062 13.979 62.8687 13.8812L62.8712 13.8807C63.4418 13.7856 63.9801 13.7255 64.4855 13.7011ZM64.7258 31.5619C64.6852 31.5665 64.67 31.581 64.6559 31.5986L64.6433 31.6144L64.629 31.6287C64.572 31.6857 64.5158 31.7618 64.4633 31.8622C64.4296 31.9668 64.4036 32.0707 64.3851 32.1738V32.4224C64.3851 32.4587 64.4105 32.5753 64.66 32.7625L64.675 32.7737C64.9339 32.9895 65.0962 33.0404 65.1777 33.0404C65.3266 33.0404 65.5201 32.9878 65.7657 32.8445L65.7759 32.8385L65.7864 32.8333C65.8835 32.7848 65.9343 32.7353 65.9616 32.6942C65.984 32.6607 66.0005 32.6183 66.0046 32.558C65.9899 32.5337 65.9592 32.4932 65.902 32.436L65.8921 32.4261L65.8829 32.4154C65.7613 32.2735 65.6174 32.1394 65.4498 32.0137C65.2781 31.8849 65.1095 31.7799 64.944 31.6972L64.9184 31.6844L64.895 31.6677C64.8213 31.6151 64.7683 31.583 64.7334 31.5656C64.7306 31.5642 64.7281 31.563 64.7258 31.5619ZM66.0121 32.572C66.0124 32.5728 66.0121 32.572 66.0121 32.572V32.572ZM64.0985 31.1252C64.2676 30.924 64.5004 30.8291 64.7565 30.8291C64.8786 30.8291 64.9878 30.8752 65.0604 30.9115C65.1354 30.949 65.2148 30.9987 65.2966 31.0561C65.4968 31.1582 65.6941 31.2828 65.8885 31.4287C66.0914 31.5808 66.2721 31.7475 66.4291 31.9291C66.5078 32.0088 66.5786 32.0934 66.632 32.1824C66.6865 32.2733 66.7368 32.3918 66.7368 32.5285C66.7368 32.7329 66.6846 32.928 66.5701 33.0999C66.4593 33.2661 66.3035 33.3904 66.1243 33.4818C65.8115 33.6627 65.4936 33.7716 65.1777 33.7716C64.8408 33.7716 64.5145 33.591 64.2137 33.3418C63.9051 33.1085 63.6538 32.8049 63.6538 32.4232V32.1121L63.6588 32.0823C63.6854 31.9223 63.7253 31.7634 63.7779 31.6056L63.7861 31.5809L63.7977 31.5577C63.8793 31.3945 63.9785 31.2484 64.0985 31.1252Z" fill="#1A1A1A"/>
<path d="M48.2369 37.619C47.0057 38.4013 45.8129 38.2777 44.5051 37.9597C42.6234 36.5664 47.489 35.4419 48.4717 35.5869C50.0158 35.8147 49.0529 37.1005 48.2369 37.619Z" fill="#00ADE4"/>
<path fill-rule="evenodd" clip-rule="evenodd" d="M47.037 34.982C47.6035 34.8749 48.1997 34.8076 48.5785 34.8635C49.0456 34.9324 49.5141 35.1053 49.7974 35.5042C50.1011 35.9318 50.0482 36.4071 49.9272 36.7423C49.8075 37.0738 49.5912 37.3723 49.3736 37.6093C49.1507 37.8521 48.8886 38.0713 48.6291 38.2362C47.269 39.1004 45.9467 39.0244 44.6919 38.7531C44.5245 38.774 44.3492 38.7374 44.1977 38.6369C44.0861 38.6089 43.9746 38.58 43.8634 38.5506C43.4729 38.4474 43.2401 38.0472 43.3433 37.6567C43.3511 37.6272 43.3606 37.5985 43.3717 37.5708C43.2894 37.1819 43.4069 36.8316 43.5915 36.5647C43.775 36.2996 44.0354 36.0951 44.287 35.9381C44.5463 35.7763 44.8427 35.6363 45.1451 35.5166C45.7498 35.2771 46.4377 35.0953 47.037 34.982ZM44.8913 37.2993C46.0411 37.5595 46.929 37.5837 47.8447 37.0018C47.9932 36.9074 48.1575 36.7715 48.2964 36.6202C48.3953 36.5124 48.4645 36.4153 48.5079 36.3381C48.4706 36.3287 48.4236 36.319 48.365 36.3103C48.2525 36.2937 47.8719 36.3126 47.3086 36.4191C46.778 36.5194 46.1829 36.6786 45.6835 36.8763C45.4339 36.9752 45.2231 37.0778 45.0613 37.1788C44.988 37.2245 44.9325 37.2651 44.8913 37.2993Z" fill="#07182B"/>
<path fill-rule="evenodd" clip-rule="evenodd" d="M52.1437 39.5994C52.1206 39.5053 52.0784 39.4143 52.0162 39.3322C51.7723 39.0103 51.3137 38.947 50.9918 39.1909C50.6409 39.4567 50.3602 39.7301 50.1769 40.0191C49.9893 40.3148 49.8728 40.6808 49.9689 41.07C50.0627 41.4504 50.3222 41.6996 50.5578 41.8503C50.7937 42.0011 51.0644 42.0934 51.316 42.1506C51.8186 42.2647 52.4004 42.273 52.8755 42.1903C53.1094 42.1496 53.3701 42.078 53.5933 41.9483C53.8002 41.828 54.1456 41.5486 54.1456 41.0604C54.1456 40.7597 54.0563 40.4815 53.8835 40.2497C53.717 40.0264 53.5008 39.8828 53.2974 39.791C52.9161 39.6191 52.4837 39.5851 52.1437 39.5994Z" fill="black"/>
<path d="M25.0263 18.8526C25.8125 19.0363 26.4966 19.2396 26.9876 19.8986C26.462 16.9837 31.1942 16.3557 32.6796 16.3421C35.0127 16.3208 37.8973 16.5451 39.9102 17.8632C40.5866 18.3062 41.0787 19.034 40.7252 19.8506C40.2058 21.0506 38.9587 20.9969 37.8618 20.9969C37.0403 20.9969 39.5032 21.0683 40.3242 21.0928C43.1087 21.1757 45.9444 21.4114 48.6575 22.0691C50.294 22.4658 52.5815 23.2241 53.2861 24.963C53.8106 26.2575 52.6181 27.2185 51.6735 27.8744C49.9445 29.0749 48.0831 29.4696 46.0294 29.4696C45.615 29.4696 45.7518 29.535 45.9378 29.8531C46.2828 30.4429 46.3778 31.147 46.0947 31.7839C45.483 33.1604 43.746 33.5943 42.4075 33.8367C40.9281 34.1047 39.4053 34.0514 37.9446 33.7059C36.7372 33.4204 35.5059 32.937 34.5276 32.1544C34.3875 32.0423 34.0311 31.7132 34.1353 31.4788C34.1725 31.3952 33.654 31.6363 33.4729 31.6837C31.7671 32.1295 29.9661 32.3834 28.2079 32.4769C26.0017 32.5941 23.6029 32.5355 21.4873 31.8318C20.1438 31.385 17.9563 30.222 17.9919 28.5282C18.0229 27.0538 19.6284 26.191 20.7987 25.7257C21.8827 25.2948 22.9887 25.0333 24.1546 25.0023C24.7254 24.987 24.747 25.0214 24.1503 24.9064C23.0414 24.6926 21.9029 24.426 20.9294 23.8298C19.8552 23.172 18.6354 21.8674 19.064 20.4913C19.4089 19.384 20.4285 18.7194 21.5309 18.5562C22.6588 18.3893 23.9261 18.5954 25.0263 18.8526Z" fill="#00ADE4"/>
<path fill-rule="evenodd" clip-rule="evenodd" d="M32.673 15.6109C35.0123 15.5896 38.098 15.8024 40.3108 17.2515C40.7255 17.523 41.126 17.9077 41.3628 18.3997C41.6103 18.9138 41.6643 19.522 41.3963 20.1411C41.3576 20.2306 41.3157 20.3152 41.2709 20.3953C43.7852 20.5028 46.3507 20.7574 48.8297 21.3584C49.6678 21.5616 50.7181 21.8672 51.6627 22.3661C52.6021 22.8622 53.5201 23.5933 53.9638 24.6884C54.3459 25.6314 54.0773 26.4599 53.6229 27.0872C53.1928 27.681 52.5654 28.1454 52.0905 28.4751C50.4523 29.6126 48.7122 30.0761 46.8712 30.1782C47.0505 30.7812 47.0447 31.4469 46.763 32.0809C46.3585 32.991 45.5979 33.5476 44.8284 33.9003C44.0625 34.2514 43.2178 34.4331 42.5379 34.5563C40.9553 34.8429 39.3308 34.7852 37.7763 34.4176C36.5068 34.1174 35.1626 33.5988 34.0708 32.7254C33.9893 32.6602 33.8452 32.5351 33.7132 32.3754C33.6945 32.3811 33.6758 32.3864 33.6578 32.3911C31.8976 32.8512 30.047 33.1114 28.2467 33.2071C26.0141 33.3258 23.5044 33.2734 21.2565 32.5257C20.5318 32.2847 19.5664 31.8481 18.7706 31.2225C17.9904 30.6094 17.2358 29.701 17.2608 28.5128C17.2824 27.4849 17.8585 26.7196 18.5008 26.1861C19.1398 25.6552 19.917 25.2894 20.5285 25.0462C20.7503 24.9581 20.9735 24.8764 21.1986 24.8016C20.9771 24.6985 20.7594 24.5832 20.5475 24.4535C19.9438 24.0837 19.2825 23.5245 18.8241 22.8346C18.3626 22.1401 18.0648 21.2404 18.3659 20.2739C18.8161 18.8286 20.1241 18.0252 21.4238 17.8328C22.6949 17.6447 24.0748 17.8793 25.1927 18.1405C25.5708 18.2289 25.9816 18.3316 26.38 18.513C26.4956 18.1947 26.6684 17.905 26.8858 17.6455C27.3873 17.047 28.0997 16.6377 28.8071 16.3538C30.2215 15.786 31.8735 15.6182 32.673 15.6109ZM39.5096 18.475C37.6966 17.2878 35.0131 17.0521 32.6863 17.0734C32.0004 17.0796 30.5435 17.2327 29.3519 17.711C28.7562 17.9501 28.2913 18.2452 28.0068 18.5847C27.5941 19.0773 27.9669 20.2905 27.3098 20.5955C26.975 20.7509 26.4012 20.3355 26.4012 20.3355C26.0133 20.1633 25.6444 19.748 24.8599 19.5646C23.7774 19.3116 22.6226 19.1339 21.6379 19.2796C20.7329 19.4135 20.0018 19.9395 19.7622 20.7088C19.6347 21.1183 19.7324 21.5589 20.0422 22.0252C20.3551 22.4961 20.8408 22.9181 21.3113 23.2063C22.1617 23.727 23.1833 23.9753 24.2887 24.1884C24.4065 24.2111 24.498 24.2275 24.5689 24.2402C24.5846 24.243 24.5993 24.2457 24.6131 24.2482C24.6468 24.2543 24.6869 24.2616 24.7194 24.2686C24.7318 24.2713 24.7689 24.2794 24.8102 24.2928C24.8254 24.2977 24.887 24.3177 24.9558 24.3576C24.9866 24.3754 25.0739 24.4279 25.1553 24.5271C25.2452 24.6366 25.3813 24.879 25.2943 25.1893C25.2206 25.452 25.0328 25.5783 24.9729 25.6152C24.8972 25.6618 24.8303 25.6837 24.802 25.6923C24.7411 25.7109 24.6908 25.7175 24.676 25.7194C24.6376 25.7243 24.6036 25.7257 24.5909 25.7262C24.5588 25.7275 24.5192 25.7279 24.4858 25.7283C24.4777 25.7283 24.4691 25.7284 24.4603 25.7285C24.3886 25.7292 24.2946 25.73 24.1741 25.7333C23.1081 25.7617 22.087 26.0004 21.0689 26.4053C20.5101 26.6274 19.8993 26.9256 19.4353 27.3111C18.9745 27.6939 18.7324 28.0972 18.723 28.5436C18.7123 29.0492 19.0337 29.5692 19.6743 30.0727C20.2992 30.5639 21.0994 30.9322 21.7181 31.138C23.7013 31.7976 25.9893 31.8625 28.1691 31.7467C29.8848 31.6555 31.6356 31.4079 33.2864 30.9766C33.2864 30.9766 33.2946 30.9741 33.3141 30.9674C33.3363 30.9596 33.364 30.9494 33.398 30.9365C33.416 30.9296 33.4492 30.9167 33.486 30.9025C33.5368 30.8829 33.5943 30.8606 33.6276 30.848C33.6977 30.8216 33.8022 30.7829 33.8952 30.7596L33.8984 30.7587C33.9261 30.7516 34.0592 30.7172 34.2123 30.7356C34.279 30.7437 34.5685 30.7854 34.7523 31.0732C34.8436 31.2162 34.8703 31.3569 34.8687 31.4758C34.8793 31.4871 34.8909 31.4991 34.9034 31.5113C34.9358 31.5429 34.966 31.5686 34.9844 31.5834C35.8492 32.2752 36.9676 32.7235 38.1129 32.9943C39.4798 33.3176 40.9009 33.3664 42.2772 33.1172C42.9357 32.9979 43.6287 32.8414 44.2189 32.5709C44.8055 32.3019 45.2192 31.9533 45.4265 31.4869C45.597 31.1034 45.5556 30.6481 45.3066 30.2223C45.2816 30.1796 45.2623 30.15 45.2382 30.113C45.2267 30.0954 45.2141 30.0761 45.1992 30.0528C45.1811 30.0245 45.1508 29.9765 45.1235 29.9226C45.1009 29.878 45.0459 29.7649 45.0309 29.6154C45.0121 29.429 45.0582 29.194 45.239 29.0036C45.3855 28.8492 45.5551 28.7966 45.6294 28.7772C45.7759 28.739 45.9361 28.7384 46.0294 28.7384C47.9825 28.7384 49.6845 28.3653 51.2564 27.2738C51.7263 26.9475 52.1674 26.6035 52.4385 26.2292C52.6854 25.8883 52.7508 25.5891 52.6083 25.2376C52.3475 24.5938 51.7695 24.0764 50.9798 23.6594C50.1954 23.2451 49.2837 22.9733 48.4852 22.7797C45.8429 22.1392 43.0645 21.906 40.3025 21.8237C40.2523 21.8222 40.1959 21.8206 40.1345 21.8187C39.6943 21.8057 38.9942 21.7849 38.4522 21.7665C38.1462 21.7561 37.8816 21.7462 37.7442 21.7386C37.7116 21.7368 37.6748 21.7345 37.6441 21.7316C37.639 21.7312 37.5889 21.7268 37.5348 21.7144C37.5205 21.7111 37.4739 21.7003 37.4178 21.6771C37.3913 21.6662 37.3324 21.6404 37.2667 21.5926C37.2164 21.5561 37.056 21.4318 36.9909 21.1934C36.9086 20.8917 37.0343 20.6441 37.1511 20.5134C37.2474 20.4057 37.3505 20.3551 37.3858 20.3385C37.4647 20.3015 37.5328 20.2875 37.5487 20.2842C37.5925 20.2751 37.6297 20.2717 37.6391 20.2709C37.6542 20.2696 37.668 20.2688 37.677 20.2683C37.6953 20.2674 37.7141 20.2669 37.7306 20.2666C37.7647 20.2659 37.8088 20.2657 37.8618 20.2657C37.8991 20.2657 37.936 20.2657 37.9724 20.2657C38.5103 20.2662 38.948 20.2665 39.3222 20.1671C39.6658 20.0758 39.9007 19.9147 40.0541 19.5602C40.1396 19.3627 40.1243 19.1987 40.045 19.034C39.9551 18.8471 39.7714 18.6464 39.5096 18.475Z" fill="#1A1A1A"/>
</svg>
