<svg width="320" height="311" viewBox="0 0 320 311" fill="none" xmlns="http://www.w3.org/2000/svg">
    <path d="M121.5 83.5L114.5 84.5C115.7 82.1 110 77.1667 107 75L114.5 73C116.9 73.8 120.167 80.3333 121.5 83.5Z" fill="white"/>
    <path d="M117.5 166.5C108.3 153.3 113 144.333 116.5 141.5C120 138.5 126 139.5 135 144.5C144 149.5 143.5 166.5 143 169.5C142.5 172.5 129 183 117.5 166.5Z" fill="white"/>
    <path d="M228.5 122L220.5 117C230.9 115.4 239.167 108.667 242 105.5L252.5 110.5C248.5 116.9 234.833 120.833 228.5 122Z" fill="white"/>
    <path d="M245 90.0001L232 87.5001C233.2 82.7001 227.833 76.5001 225 74.0001C234.2 73.2001 238.5 75.0001 239.5 76.0001L245 90.0001Z" fill="white"/>
    <path opacity="0.7" d="M279 248.5C279 283.018 219.006 311 145 311C70.9938 311 11 283.018 11 248.5C11 213.982 70.9938 186 145 186C219.006 186 279 213.982 279 248.5Z" fill="url(#paint0_radial)" fill-opacity="0.1"/>
    <path d="M112.638 199.098L103.158 188.916L124.926 194.885L170.569 191.725L190.933 184.352C198.657 187.16 208.137 192.778 208.137 192.778C208.137 192.778 192.22 199.449 186.72 201.907V249.656L136.513 255.274L123.171 240.527V201.907L112.638 199.098Z" fill="white"/>
    <path d="M137.5 206L110.5 199L103 189.5L126.5 195L170 192.5L193 185.5L209 192.5L188.5 201.5L137.5 206Z" fill="url(#paint1_linear)"/>
    <path d="M111.499 200.5L135.999 205.5L186.999 200.5L213.499 191.5C213.499 191.5 284.822 153.026 272.999 104.5C265.464 73.5718 228.499 22.0001 228.499 22.0001C228.499 22.0001 115 -56.9997 34.4994 88.5002C1.51476 148.118 111.499 200.5 111.499 200.5Z" fill="url(#paint2_linear)"/>
    <path d="M136.609 205.844C136.609 224.873 136.609 242.136 136.609 256.07" stroke="black" stroke-linecap="round" stroke-linejoin="round"/>
    <path d="M186.768 199.363C186.768 217.51 186.768 233.582 186.768 250.238" stroke="black" stroke-linecap="round" stroke-linejoin="round"/>
    <path d="M131.592 256.07C154.599 253.478 163.348 252.829 187.975 249.913" stroke="black" stroke-linecap="round" stroke-linejoin="round"/>
    <path d="M121.547 239.22C129.972 248.293 132.24 250.561 138.721 257.69" stroke="black" stroke-linecap="round" stroke-linejoin="round"/>
    <path d="M123.213 201.857C123.213 212.969 123.213 231.996 123.213 243.108" stroke="black" stroke-linecap="round" stroke-linejoin="round"/>
    <path d="M131.592 206.491C146.498 205.519 170.477 203.575 189.919 201.631" stroke="black" stroke-linecap="round" stroke-linejoin="round"/>
    <path d="M124.463 194.502C142.189 193.665 151.034 193.206 170.801 191.91" stroke="black" stroke-linecap="round" stroke-linejoin="round"/>
    <path d="M168.531 190.29C175.342 195.671 183.159 199.659 190.725 203.862" stroke="black" stroke-linecap="round" stroke-linejoin="round"/>
    <path d="M170.477 191.435C180.198 187.697 185.706 186.077 197.696 182.513" stroke="black" stroke-linecap="round" stroke-linejoin="round"/>
    <path d="M186.678 201.631C195.427 197.742 202.232 194.826 212.293 191.926" stroke="black" stroke-linecap="round" stroke-linejoin="round"/>
    <path d="M190.891 183.809C197.695 187.049 205.148 190.613 211.629 193.854" stroke="black" stroke-linecap="round" stroke-linejoin="round"/>
    <path d="M103.076 188.993C106.641 192.882 109.881 196.77 113.769 200.335" stroke="black" stroke-linecap="round" stroke-linejoin="round"/>
    <path d="M123.814 194.178C129.971 199.362 133.86 202.927 139.368 208.435" stroke="black" stroke-linecap="round" stroke-linejoin="round"/>
    <path d="M110.854 198.715C121.547 201.307 127.394 202.645 136.777 205.844" stroke="black" stroke-linecap="round" stroke-linejoin="round"/>
    <path d="M103.076 188.993C110.825 190.896 118.477 193.175 126.228 195.061" stroke="black" stroke-linecap="round" stroke-linejoin="round"/>
    <path d="M170.301 188.993C170.301 194.592 170.301 198.066 170.301 203.251" stroke="black" stroke-linecap="round" stroke-linejoin="round"/>
    <path d="M133.209 251.412L136.689 240.606M125.207 242.986C128.92 231.457 133.166 219.518 136.689 208.578L125.207 242.986ZM136.689 225.08C134.328 232.409 131.918 239.894 129.452 247.55L136.689 225.08Z" stroke="black" stroke-linecap="round" stroke-linejoin="round"/>
    <path d="M123.406 232.102L132.138 204.716M123.406 216.302C124.857 211.798 126.289 207.352 127.703 202.96L123.406 216.302Z" stroke="black" stroke-linecap="round" stroke-linejoin="round"/>
    <path d="M168.479 203.662L170.288 198.044M157.424 204.715C158.716 200.704 159.998 196.725 161.269 192.778L157.424 204.715ZM166.984 192.778C165.828 196.368 164.659 199.995 163.479 203.662L166.984 192.778Z" stroke="black" stroke-linecap="round" stroke-linejoin="round"/>
    <path d="M152.313 205.271L156.111 193.48M141.325 206.119C142.693 201.87 144.05 197.657 145.395 193.48L141.325 206.119ZM147.287 205.353C148.576 201.349 149.85 197.392 151.11 193.48L147.287 205.353Z" stroke="black" stroke-linecap="round" stroke-linejoin="round"/>
    <path d="M135.922 204.715L139.314 194.182M127.694 196.991C127.996 196.053 128.298 195.116 128.599 194.182L127.694 196.991ZM134.314 194.182C133.602 196.391 132.886 198.615 132.165 200.853L134.314 194.182Z" stroke="black" stroke-linecap="round" stroke-linejoin="round"/>
    <ellipse cx="128.319" cy="157.092" rx="14.9022" ry="19.16" transform="rotate(-29.9856 128.319 157.092)" fill="white"/>
    <path d="M121.594 139.411C109.305 141.987 110.008 156.031 116.679 165.159C122.067 172.532 132.382 177.701 140.202 172.181C146.668 167.617 143.633 156.031 138.798 149.009C134.504 142.773 121.035 133.693 113.181 145.146" stroke="black" stroke-linecap="round" stroke-linejoin="round"/>
    <path d="M127.387 147.586C128.791 145.479 129.844 144.075 131.332 142.221" stroke="black" stroke-linecap="round" stroke-linejoin="round"/>
    <path d="M130.896 149.243C132.301 147.487 133.541 145.849 134.759 144.327" stroke="black" stroke-linecap="round" stroke-linejoin="round"/>
    <path d="M132.301 152.981C134.425 150.647 135.83 149.242 138.287 146.434" stroke="black" stroke-linecap="round" stroke-linejoin="round"/>
    <path d="M134.408 156.983C136.366 154.599 138.384 152.275 140.404 149.944" stroke="black" stroke-linecap="round" stroke-linejoin="round"/>
    <path d="M136.516 159.451C138.462 157.505 140.366 155.67 141.99 153.455" stroke="black" stroke-linecap="round" stroke-linejoin="round"/>
    <path d="M235.162 87.6641C235.162 85.221 232.752 78.4265 226.326 74.4102H235.162L241.99 76.4183L248.014 90.4755C243.463 89.6723 235.162 87.6641 235.162 87.6641Z" fill="white" fill-opacity="0.2"/>
    <path d="M220.746 72C224.431 74.231 228.049 76.2877 230.195 80.1856C231.515 82.5836 232.008 84.9833 232.262 87.6495" stroke="black" stroke-linecap="round" stroke-linejoin="round"/>
    <path d="M231.08 87.0586C235.716 88.1673 240.814 88.8262 245.253 90.6019" stroke="black" stroke-linecap="round" stroke-linejoin="round"/>
    <path d="M239.035 75.8623C242.315 80.7653 244.302 87.0975 245.355 91.3107" stroke="black" stroke-linecap="round" stroke-linejoin="round"/>
    <path d="M221.928 74.0673C229.676 74.4224 233.418 72.3515 239.387 76.2136" stroke="black" stroke-linecap="round" stroke-linejoin="round"/>
    <path d="M231.967 73.7715C235.705 75.2144 239.657 79.1356 242.195 82.1817" stroke="black" stroke-linecap="round" stroke-linejoin="round"/>
    <path d="M206.081 197.033L196.441 191.811L208.089 189L220.941 197.033H206.081Z" fill="white"/>
    <path d="M195 192.546C199.642 190.347 203.426 189.386 210.448 189.386" stroke="black" stroke-linecap="round" stroke-linejoin="round"/>
    <path d="M202.021 197.407C208.614 195.606 215.411 194.481 222.1 196.226" stroke="black" stroke-linecap="round" stroke-linejoin="round"/>
    <path d="M197.428 191.564C200.646 193.227 203.893 194.759 207.172 196.289" stroke="black" stroke-linecap="round" stroke-linejoin="round"/>
    <path d="M207.172 189.202C212.252 191.764 217.157 194.398 221.936 197.47" stroke="black" stroke-linecap="round" stroke-linejoin="round"/>
    <path d="M134.406 172.414C139.782 183.165 145.306 193.802 148.284 205.485" stroke="black" stroke-linecap="round" stroke-linejoin="round"/>
    <path d="M143.535 174.521C146.219 183.076 148.731 191.682 151.508 200.209" stroke="black" stroke-linecap="round" stroke-linejoin="round"/>
    <path d="M137.668 193.909C139.288 189.206 138.147 185.932 133.141 184.657C131.577 184.259 129.515 184.064 128.318 185.411C127.038 186.852 127.946 188.843 129.286 189.84C133.107 192.686 132.064 185.5 130.664 183.837C127.611 180.212 122.655 177.158 117.885 178.259" stroke="black" stroke-linecap="round" stroke-linejoin="round"/>
    <path d="M252.029 109.754C255.728 112.99 236.365 120.063 229.136 122.205L219.898 114.975C224.089 115.194 236.511 109.133 241.988 105.336C245.603 106.942 248.816 106.942 252.029 109.754Z" fill="white"/>
    <path d="M219.859 116.586C223.123 118.151 225.855 120.617 229.013 122.196" stroke="black" stroke-linecap="round" stroke-linejoin="round"/>
    <path d="M218.383 116.881C226.596 115.038 234.47 113.078 241.843 105.003" stroke="black" stroke-linecap="round" stroke-linejoin="round"/>
    <path d="M225.693 122.911C235.117 120.53 247.733 118.506 253.744 109.919" stroke="black" stroke-linecap="round" stroke-linejoin="round"/>
    <path d="M241.119 104.775C246.393 107.159 251.605 109.64 257.064 111.567" stroke="black" stroke-linecap="round" stroke-linejoin="round"/>
    <path d="M248.162 108.163C250.509 104.526 254.604 99.5619 252.339 95.0312" stroke="black" stroke-linecap="round" stroke-linejoin="round"/>
    <path d="M251.454 94.736C251.344 95.4412 250.69 97.8525 252.275 97.1966C253.246 96.7945 254.155 95.3897 254.063 94.3259C253.986 93.4485 252.699 93.4189 252.094 93.7518C251.387 94.1407 251.106 95.7016 251.159 96.442C251.216 97.2444 252.211 96.4339 252.34 96.0811C252.615 95.3278 253.112 93.1669 251.963 92.8988C250.779 92.6226 249.453 93.6523 249.453 94.8672C249.453 96.3084 250.975 96.7092 252.045 97.0982" stroke="black" stroke-linecap="round" stroke-linejoin="round"/>
    <path d="M144.238 147.486C145.642 142.571 155.119 128.484 138.627 120.753C136.127 119.581 129.101 116.721 127.997 121.212C127 125.265 131.562 126.726 134.723 126.954C138.074 127.195 140.609 125.145 141.219 121.836C141.802 118.666 140.174 115.98 139.381 113.043C138.116 108.353 143.104 105.661 147.223 105.661" stroke="black" stroke-linecap="round" stroke-linejoin="round"/>
    <path d="M147.222 105.662C147.595 107.017 148.889 107.851 149.421 106.104C149.885 104.579 147.291 103.878 146.96 105.366C146.658 106.725 148.698 106.81 149.158 105.727C149.488 104.951 148.503 105.043 148.043 105.12C146.685 105.346 146.397 105.866 145.746 106.843" stroke="black" stroke-linecap="round" stroke-linejoin="round"/>
    <path d="M174.083 75C172.216 77.1467 170.323 79.3621 168.465 81.5328" stroke="black" stroke-linecap="round" stroke-linejoin="round"/>
    <path d="M176.999 109.672C175.247 108.39 173.346 106.985 171.395 105.527" stroke="black" stroke-linecap="round" stroke-linejoin="round"/>
    <path d="M174.082 109.024C181.211 102.868 185.423 98.007 192.228 91.2021" stroke="black" stroke-linecap="round" stroke-linejoin="round"/>
    <path d="M172.463 75.6484C180.24 81.4812 183.48 85.6937 193.644 92.552" stroke="black" stroke-linecap="round" stroke-linejoin="round"/>
    <path d="M186 86.8882C184.345 92.0255 182.679 97.2006 181 102.414L186 86.8882ZM189.424 94C189.782 92.8887 190.139 91.7799 190.496 90.6736L189.424 94Z" stroke="black" stroke-linecap="round" stroke-linejoin="round"/>
    <path d="M180.235 91L182.328 84.5M177.658 99L174.76 108M173.967 77.1897L171.613 84.5C172.4 82.0557 173.185 79.619 173.967 77.1897ZM176.2 88C176.955 85.6568 177.706 83.3235 178.455 81L176.2 88Z" stroke="black" stroke-linecap="round" stroke-linejoin="round"/>
    <path d="M167.473 110.208L149.801 96.1507L166.669 78.0771L185.546 92.9376L167.473 110.208Z" fill="url(#paint3_linear)"/>
    <path d="M147.297 96.8268C151.837 92.4715 158.638 84.1892 165.119 76.7363" stroke="black" stroke-linecap="round" stroke-linejoin="round"/>
    <path d="M146 94.5586C151.581 99.1278 162.196 107.192 168.035 111.409" stroke="black" stroke-linecap="round" stroke-linejoin="round"/>
    <path d="M165.119 110.761C172.248 104.604 176.461 99.7433 183.265 92.9385" stroke="black" stroke-linecap="round" stroke-linejoin="round"/>
    <path d="M163.498 77.3848C171.275 83.2175 174.515 87.43 184.679 94.2883" stroke="black" stroke-linecap="round" stroke-linejoin="round"/>
    <path d="M158 93.6142C161.361 96.5202 162.395 98.3275 164.157 100.419C168.138 105.147 159.5 94.9814 171.687 87" stroke="black" stroke-linecap="round" stroke-linejoin="round"/>
    <path d="M125.918 104.496C123.718 103.703 118.072 102.038 117.486 101.721C116.312 104.576 117.974 110.312 118.952 112.823C120.907 114.806 125.625 118.85 124.451 115.995C123.278 113.14 124.94 106.875 125.918 104.496Z" fill="white"/>
    <path d="M118.467 113.984C116.495 109.945 115.517 105.859 116.183 101.419" stroke="black" stroke-linecap="round" stroke-linejoin="round"/>
    <path d="M123.224 116.794C122.071 111.902 121.956 107.203 124.938 102.896" stroke="black" stroke-linecap="round" stroke-linejoin="round"/>
    <path d="M114.469 100.467C118.093 101.815 121.805 103.033 125.32 104.655" stroke="black" stroke-linecap="round" stroke-linejoin="round"/>
    <path d="M115.611 111.509C119.075 113.068 122.091 115.092 125.32 117.03" stroke="black" stroke-linecap="round" stroke-linejoin="round"/>
    <path d="M116.678 73.2044C114.479 72.4114 111.859 72.4012 107.039 74.4093C112.662 79.2289 115.701 80.734 116.678 83.2452H123.104C123.104 83.2452 121.096 78.4256 116.678 73.2044Z" fill="white"/>
    <path d="M115.072 85.2537C113.461 80.6615 108.172 75.2871 103.807 73.624" stroke="black" stroke-linecap="round" stroke-linejoin="round"/>
    <path d="M103.996 75.3372C107.17 74.5158 110.345 73.7012 113.515 72.8623" stroke="black" stroke-linecap="round" stroke-linejoin="round"/>
    <path d="M112.639 72C117.554 75.8621 120.167 80.5555 121.767 84.2885" stroke="black" stroke-linecap="round" stroke-linejoin="round"/>
    <path d="M111.803 83.9042C115.742 83.7015 119.663 83.5234 123.606 83.5234" stroke="black" stroke-linecap="round" stroke-linejoin="round"/>
    <path d="M103.023 184.056C98.2039 181.245 87.3597 180.04 85.3516 179.638L89.3679 176.023L97.4006 178.032C100.881 180.977 106.879 186.305 103.023 184.056Z" fill="white"/>
    <path d="M103.915 182.425C98.2318 180.241 91.8488 177.325 85.7539 177.978" stroke="black" stroke-linecap="round" stroke-linejoin="round"/>
    <path d="M85.7539 178.68C88.4656 177.438 89.5858 176.841 91.7148 174.818" stroke="black" stroke-linecap="round" stroke-linejoin="round"/>
    <path d="M90.3184 175.521C93.1272 175.521 95.4377 176.109 98.7749 177.666" stroke="black" stroke-linecap="round" stroke-linejoin="round"/>
    <path d="M97.6914 176.925C100.387 179.568 103.202 181.952 106.258 184.159" stroke="black" stroke-linecap="round" stroke-linejoin="round"/>
    <path d="M178.129 181.645L183.752 171.604H195.399L178.129 181.645Z" fill="white"/>
    <path d="M177.045 182.727C179.119 178.32 182.126 174.295 183.836 169.735" stroke="black" stroke-linecap="round" stroke-linejoin="round"/>
    <path d="M181.77 172.097C186.299 171.839 190.815 171.507 195.352 171.507" stroke="black" stroke-linecap="round" stroke-linejoin="round"/>
    <path d="M176.75 182.432C183.177 177.396 187.441 175.48 194.445 171.36" stroke="black" stroke-linecap="round" stroke-linejoin="round"/>
    <path d="M179.736 149.114L170.9 141.483L201.023 126.622L209.859 134.655L179.736 149.114Z" fill="white"/>
    <path d="M160.302 204.204C159.921 201.475 156.574 159.61 165.202 168.062C167.268 170.087 166.755 174.444 165.891 176.838C165.271 178.557 164.004 180.603 161.855 179.972C158.553 179.002 156.934 175.232 156.294 172.196C154.942 165.771 157.412 160.338 161.462 155.431C164.824 151.356 169.797 146.7 174.082 143.624" stroke="black" stroke-linecap="round" stroke-linejoin="round"/>
    <path d="M166.711 148.476C166.885 151.312 168.784 150.629 168.007 148.214C167.3 146.015 165.064 148.249 166.482 149.231C167.923 150.229 169.237 147.497 167.86 147.344C165.798 147.115 164.831 149.523 167.007 150.248" stroke="black" stroke-linecap="round" stroke-linejoin="round"/>
    <path d="M169.074 139.617C171.63 141.456 173.707 143.759 175.98 145.916C176.732 146.629 178.301 148.144 178.818 147.885" stroke="black" stroke-linecap="round" stroke-linejoin="round"/>
    <path d="M167.598 140.504C178.241 135.816 188.196 129.735 198.897 125.149" stroke="black" stroke-linecap="round" stroke-linejoin="round"/>
    <path d="M177.637 148.476C183.304 145.554 188.811 142.422 194.566 139.651C199.296 137.372 204.134 135.235 208.64 132.531" stroke="black" stroke-linecap="round" stroke-linejoin="round"/>
    <path d="M199.191 124.559C202.388 127.505 205.843 130.029 208.935 133.122" stroke="black" stroke-linecap="round" stroke-linejoin="round"/>
    <path d="M203.621 128.988C207.048 127.528 210.393 125.627 213.956 124.559" stroke="black" stroke-linecap="round" stroke-linejoin="round"/>
    <path d="M213.66 123.082C213.885 123.92 214.164 124.966 215.268 124.657C215.744 124.524 216.675 123.857 216.564 123.246C216.338 122.007 214.295 123.422 214.251 124.263C214.205 125.138 216.228 123.254 215.251 122.82C214.712 122.58 213.23 123.606 213.955 123.968" stroke="black" stroke-linecap="round" stroke-linejoin="round"/>
    <path d="M151.81 140.781C152.276 140.466 156.264 136.082 158.199 133.929L159.426 144.536C157.864 149.544 154.368 159.638 152.89 159.958C151.412 160.278 148.307 158.815 146.939 158.044C148.369 152.42 151.344 141.095 151.81 140.781Z" fill="white"/>
    <path d="M151.221 159.556L156.04 145.901L159.655 145.098L153.229 159.958L151.221 159.556Z" fill="#4FACDF"/>
    <path d="M151.756 140.937C150.371 146.908 148.537 152.759 146.783 158.628" stroke="black" stroke-linecap="round" stroke-linejoin="round"/>
    <path d="M149.4 142.893C153.133 139.57 156.452 136.772 158.893 132.445" stroke="black" stroke-linecap="round" stroke-linejoin="round"/>
    <path d="M158.129 131.858C158.025 135.212 159.435 142.651 159.871 145.987" stroke="black" stroke-linecap="round" stroke-linejoin="round"/>
    <path d="M160.533 142.574C157.559 148.513 155.201 154.605 153.028 160.871" stroke="black" stroke-linecap="round" stroke-linejoin="round"/>
    <path d="M146.012 156.942C147.249 158.686 151.474 160.313 154.105 160.041" stroke="black" stroke-linecap="round" stroke-linejoin="round"/>
    <path d="M156.155 136.471C156.606 136.753 157.777 137.234 158.264 137.329" stroke="black" stroke-linecap="round" stroke-linejoin="round"/>
    <path d="M152.05 140.674C152.93 141.351 154.118 144.346 155.091 144.552C155.884 144.72 158.238 143.42 159.369 143.36" stroke="black" stroke-linecap="round" stroke-linejoin="round"/>
    <path d="M155.09 144.552C152.695 151.674 151.45 155.478 150.205 159.283" stroke="black" stroke-linecap="round" stroke-linejoin="round"/>
    <path d="M97.0876 128.566L88.0876 118.566C87.2543 117.4 85.8876 114.866 87.0876 114.066C88.5876 113.066 95.5876 114.566 99.5876 115.066C102.788 115.466 104.254 112.233 104.588 110.566C107.421 115.066 113.888 121.866 113.088 123.066C112.088 124.566 106.588 124.066 99.5876 123.066C93.9876 122.266 96.2543 126.733 97.0876 128.566Z" fill="white"/>
    <path d="M108.47 143.627C102.457 132.712 93.7117 124.246 85 115.534" stroke="black" stroke-linecap="round" stroke-linejoin="round"/>
    <path d="M88.2007 119.446C87.5426 118.001 85.9948 114.887 88.092 113.796C90.7986 112.389 94.3335 114.3 96.9625 114.942C99.1269 115.471 102.213 115.606 103.413 113.282C104.424 111.325 104.44 109.076 104.025 107" stroke="black" stroke-linecap="round" stroke-linejoin="round"/>
    <path d="M97.09 127.981C96.7669 126.783 96.1911 125.17 97.6925 124.553C99.8413 123.67 102.764 124.781 104.874 125.274C106.58 125.672 111.984 126.529 113.587 125.274" stroke="black" stroke-linecap="round" stroke-linejoin="round"/>
    <path d="M103.088 110.566C107.088 116.566 109.588 121.066 113.449 124.78" stroke="black" stroke-linecap="round" stroke-linejoin="round"/>
    <path d="M90.1484 144.174C93.7775 147.175 97.2874 150.306 100.817 153.42" stroke="black" stroke-linecap="round" stroke-linejoin="round"/>
    <path d="M97.7949 142.396C100.241 145.457 102.754 148.454 105.263 151.464" stroke="black" stroke-linecap="round" stroke-linejoin="round"/>
    <defs>
        <radialGradient id="paint0_radial" cx="0" cy="0" r="1" gradientUnits="userSpaceOnUse" gradientTransform="translate(155.101 252.189) rotate(90.993) scale(34.1479 73.2137)">
            <stop/>
            <stop offset="1" stop-color="#3E7BFA" stop-opacity="0"/>
        </radialGradient>
        <linearGradient id="paint1_linear" x1="191.5" y1="186.5" x2="116" y2="227.5" gradientUnits="userSpaceOnUse">
            <stop offset="0.123566" stop-color="#8FD7FE"/>
            <stop offset="0.528827" stop-color="#4FACDF"/>
        </linearGradient>
        <linearGradient id="paint2_linear" x1="145.499" y1="23.5002" x2="160.999" y2="528" gradientUnits="userSpaceOnUse">
            <stop offset="0.275038" stop-color="#4FACDF" stop-opacity="0"/>
            <stop offset="0.510523" stop-color="#4FACDF" stop-opacity="0.19"/>
        </linearGradient>
        <linearGradient id="paint3_linear" x1="203" y1="94.0002" x2="207.796" y2="55.9163" gradientUnits="userSpaceOnUse">
            <stop stop-color="#8FD7FE"/>
            <stop offset="0.640464" stop-color="#4FACDF"/>
        </linearGradient>
    </defs>
</svg>
