<svg width="108" height="117" fill="none" xmlns="http://www.w3.org/2000/svg"><path d="m17.56 79.967-5.916-6.381 13.585 3.74 28.483-1.98 12.708-4.62c4.82 1.76 10.736 5.28 10.736 5.28s-9.933 4.18-13.366 5.72v29.926l-31.331 3.52-8.326-9.241V81.727l-6.573-1.76z" fill="#fff"/><path d="m33.074 84.292-16.849-4.387-4.68-5.953 14.665 3.447 27.146-1.567 14.353-4.387 9.985 4.387-12.793 5.64-31.827 2.82z" fill="url(#a)"/><path fill-rule="evenodd" clip-rule="evenodd" d="M32.518 83.88c.173 0 .312.141.312.314v31.477c0 .173-.14.314-.312.314a.313.313 0 0 1-.312-.314V84.194c0-.173.14-.313.312-.313zM63.82 79.82c.172 0 .312.14.312.313v31.883a.312.312 0 1 1-.624 0V80.133c0-.173.14-.314.312-.314z" fill="#000"/><path fill-rule="evenodd" clip-rule="evenodd" d="M64.883 111.776a.313.313 0 0 1-.273.348 1267.72 1267.72 0 0 1-20.183 2.237c-4.358.456-8.87.928-15.005 1.622a.313.313 0 0 1-.07-.623c6.148-.696 10.662-1.168 15.018-1.623 5.826-.609 11.37-1.189 20.166-2.235a.312.312 0 0 1 .347.274z" fill="#000"/><path fill-rule="evenodd" clip-rule="evenodd" d="M22.906 104.882a.31.31 0 0 1 .441.016c2.087 2.256 3.569 3.842 4.85 5.214 1.946 2.081 3.431 3.67 5.87 6.364a.315.315 0 0 1-.021.443.312.312 0 0 1-.44-.022c-2.437-2.691-3.917-4.274-5.86-6.352a1174.461 1174.461 0 0 1-4.856-5.221.313.313 0 0 1 .016-.442z" fill="#000"/><path fill-rule="evenodd" clip-rule="evenodd" d="M24.158 81.383c.173 0 .312.14.312.313v25.852c0 .173-.14.314-.312.314a.313.313 0 0 1-.312-.314V81.696c0-.173.14-.313.312-.313zM29.076 84.621c.011.173.16.304.332.292 9.305-.61 24.273-1.828 36.41-3.047a.313.313 0 0 0-.063-.623c-12.13 1.218-27.09 2.436-36.388 3.045a.313.313 0 0 0-.291.333zM54.167 75.441a.313.313 0 0 1-.291.334c-12.338.812-17.86 1.1-28.923 1.624a.313.313 0 0 1-.03-.626c11.062-.525 16.58-.812 28.912-1.624.172-.011.32.12.332.292z" fill="#000"/><path fill-rule="evenodd" clip-rule="evenodd" d="M52.195 74.252a.311.311 0 0 1 .438-.051c3.575 2.836 7.595 5.05 11.615 7.264.732.403 1.464.806 2.193 1.213.151.084.205.275.122.426a.311.311 0 0 1-.425.122c-.723-.403-1.45-.804-2.18-1.206-4.02-2.213-8.092-4.456-11.712-7.328a.314.314 0 0 1-.05-.44z" fill="#000"/><path fill-rule="evenodd" clip-rule="evenodd" d="M70.938 69.483a.314.314 0 0 1-.21.39l-.442.132c-7.177 2.143-10.587 3.16-16.52 5.452a.314.314 0 0 1-.224-.585c5.956-2.3 9.386-3.324 16.56-5.466l.448-.134a.312.312 0 0 1 .388.211zM80.049 75.385a.313.313 0 0 1-.213.388c-6.258 1.812-10.489 3.632-15.945 6.068a.314.314 0 0 1-.254-.573c5.463-2.439 9.726-4.273 16.026-6.097a.312.312 0 0 1 .386.214z" fill="#000"/><path fill-rule="evenodd" clip-rule="evenodd" d="M66.111 70.25a.311.311 0 0 1 .416-.148c4.246 2.031 8.9 4.266 12.947 6.298a.314.314 0 0 1 .14.42.311.311 0 0 1-.419.14c-4.041-2.028-8.69-4.261-12.936-6.292a.314.314 0 0 1-.148-.418zM11.382 73.403a.311.311 0 0 1 .44.02c.577.631 1.138 1.26 1.695 1.885 1.603 1.798 3.168 3.554 4.96 5.203a.314.314 0 0 1 .018.443.311.311 0 0 1-.44.019c-1.816-1.672-3.411-3.46-5.02-5.266a213.27 213.27 0 0 0-1.673-1.861.314.314 0 0 1 .02-.443zM24.296 76.682a.311.311 0 0 1 .44-.038c3.848 3.255 6.281 5.495 9.725 8.953a.314.314 0 0 1 0 .444.311.311 0 0 1-.441 0c-3.431-3.446-5.851-5.674-9.687-8.918a.314.314 0 0 1-.037-.441z" fill="#000"/><path fill-rule="evenodd" clip-rule="evenodd" d="M16.142 79.653a.312.312 0 0 1 .377-.231l1.468.357c5.771 1.401 9.31 2.261 14.737 4.119a.314.314 0 0 1-.202.593c-5.398-1.848-8.912-2.702-14.686-4.104l-1.464-.356a.313.313 0 0 1-.23-.378zM11.29 73.56a.312.312 0 0 1 .377-.23c2.37.584 4.724 1.225 7.075 1.865l.155.042c2.404.654 4.803 1.306 7.217 1.895a.313.313 0 0 1-.148.61c-2.423-.593-4.83-1.246-7.232-1.9l-.153-.042c-2.352-.64-4.7-1.279-7.063-1.861a.313.313 0 0 1-.229-.38zM53.544 73.32c.172 0 .312.141.312.314v8.936a.313.313 0 1 1-.624 0v-8.936c0-.173.14-.313.312-.313zM30.304 113.05a.313.313 0 0 1-.202-.394l2.171-6.772a.312.312 0 1 1 .594.193l-2.17 6.771a.312.312 0 0 1-.393.202zm-2.346-2.421a.313.313 0 0 1-.202-.394l4.515-14.082a.312.312 0 1 1 .594.193l-4.514 14.081a.311.311 0 0 1-.393.202zm-2.652-2.861a.314.314 0 0 1-.2-.394c1.159-3.615 2.4-7.294 3.627-10.924l.047-.142.049-.143 3.439-10.353.001-.004a.312.312 0 0 1 .593.196c-1.07 3.34-2.248 6.83-3.442 10.362l-3.72 11.2-.001.003a.312.312 0 0 1-.394.199z" fill="#000"/><path fill-rule="evenodd" clip-rule="evenodd" d="M24.187 100.949a.314.314 0 0 1-.203-.394l5.447-17.162a.312.312 0 1 1 .595.19l-5.447 17.163a.311.311 0 0 1-.392.203zm-.004-9.902a.314.314 0 0 1-.201-.394l2.68-8.362a.312.312 0 1 1 .595.193l-2.68 8.36a.312.312 0 0 1-.394.203zM45.412 83.784a.314.314 0 0 1-.201-.394l2.397-7.48a.312.312 0 1 1 .595.192l-2.398 7.48a.312.312 0 0 1-.393.202zm3.779-.659a.314.314 0 0 1-.202-.394l2.186-6.82a.312.312 0 1 1 .595.192l-2.187 6.82a.312.312 0 0 1-.392.202zm3.12.001a.314.314 0 0 1-.2-.394l1.128-3.52a.312.312 0 1 1 .594.192l-1.128 3.52a.312.312 0 0 1-.393.202zM35.365 84.664a.314.314 0 0 1-.201-.394l2.539-7.92a.312.312 0 1 1 .594.192l-2.539 7.92a.312.312 0 0 1-.393.202zm3.721-.48a.314.314 0 0 1-.201-.394l2.385-7.44a.312.312 0 1 1 .594.193l-2.385 7.44a.312.312 0 0 1-.392.202zm3.138-.05a.314.314 0 0 1-.201-.394l2.368-7.389a.312.312 0 1 1 .594.193l-2.368 7.388a.312.312 0 0 1-.393.202zM31.996 83.786a.314.314 0 0 1-.202-.395l2.116-6.6a.312.312 0 1 1 .594.193l-2.116 6.6a.312.312 0 0 1-.392.202zm-2.345-2.421a.314.314 0 0 1-.202-.394l1.34-4.18a.312.312 0 1 1 .594.192l-1.34 4.18a.312.312 0 0 1-.392.202zm-2.792-2.42a.314.314 0 0 1-.201-.395l.564-1.76a.312.312 0 1 1 .594.192l-.564 1.76a.312.312 0 0 1-.393.202zM3.284 45.345a.311.311 0 0 1 .44-.042c1.985 1.65 3.914 3.36 5.839 5.069l.826.732c.129.115.141.313.027.443a.311.311 0 0 1-.44.027l-.827-.733c-1.926-1.709-3.846-3.413-5.823-5.055a.314.314 0 0 1-.042-.44zM8.101 44.186a.311.311 0 0 1 .439.049c1.346 1.692 2.725 3.353 4.108 5.018l.548.66c.11.133.092.33-.04.441a.311.311 0 0 1-.44-.04l-.547-.66a310.742 310.742 0 0 1-4.117-5.028.314.314 0 0 1 .05-.44z" fill="#000"/><path d="m23.09 7.52-4.369.627c.749-1.504-2.808-4.596-4.68-5.954L18.72.94c1.498.501 3.536 4.596 4.368 6.58zM20.593 59.537c-5.741-8.273-2.808-13.892-.624-15.668 2.184-1.88 5.929-1.253 11.545 1.88 5.616 3.134 5.304 13.788 4.992 15.668-.312 1.88-8.736 8.46-15.913-1.88z" fill="#fff"/><path d="M35.4 48.973c3.3 5.744 2.369 12.49-2.08 15.068-4.448 2.578-10.73.011-14.03-5.733-3.3-5.744-2.37-12.49 2.079-15.068 4.448-2.578 10.73-.011 14.03 5.733z" fill="#fff"/><path fill-rule="evenodd" clip-rule="evenodd" d="M18.558 44.816c-.317.345-.624.731-.917 1.161a.314.314 0 0 0-.022.317 8.496 8.496 0 0 0-.752 2.761c-.338 3.21.844 6.916 2.961 9.826 1.714 2.355 4.212 4.362 6.917 5.34 2.711.982 5.653.935 8.195-.868 2.156-1.528 2.689-4.207 2.336-6.98-.353-2.779-1.603-5.74-3.135-7.976-1.374-2.003-4.198-4.45-7.319-5.487-1.104-.367-2.254-.561-3.395-.49a.312.312 0 0 0-.343-.167c-1.976.416-3.45 1.3-4.473 2.501l-.053.062zm.47.413c.973-1.052 2.041-1.672 3.14-1.972 1.445-.394 2.975-.245 4.458.248 2.977.99 5.695 3.343 7 5.247 1.486 2.166 2.692 5.035 3.031 7.701.34 2.674-.197 5.056-2.077 6.388-2.337 1.658-5.055 1.72-7.623.791-2.574-.931-4.975-2.854-6.625-5.12-2.045-2.812-3.163-6.366-2.844-9.39.155-1.478.652-2.82 1.54-3.893z" fill="#000"/><path fill-rule="evenodd" clip-rule="evenodd" d="M29.42 44.076a.314.314 0 0 1 .047.44 42.433 42.433 0 0 0-2.445 3.34.311.311 0 0 1-.433.088.314.314 0 0 1-.086-.435 43.07 43.07 0 0 1 2.478-3.384.311.311 0 0 1 .438-.049zM31.558 45.396a.314.314 0 0 1 .05.44c-.366.459-.734.934-1.118 1.428l-.042.054a150.59 150.59 0 0 1-1.251 1.599.311.311 0 0 1-.439.049.314.314 0 0 1-.048-.44c.436-.549.848-1.08 1.246-1.593l.043-.055c.382-.493.753-.972 1.12-1.433a.311.311 0 0 1 .44-.05zM33.771 46.725c.13.114.143.312.03.442a102.691 102.691 0 0 1-2.423 2.677c-.417.45-.84.903-1.317 1.431a.311.311 0 0 1-.441.021.314.314 0 0 1-.021-.443c.489-.54.914-.997 1.333-1.447a100.81 100.81 0 0 0 2.399-2.651.311.311 0 0 1 .44-.03zM35.09 48.925c.13.113.145.31.032.442l-.144.166c-1.212 1.405-2.42 2.805-3.593 4.239a.311.311 0 0 1-.439.043.314.314 0 0 1-.043-.441c1.178-1.44 2.39-2.846 3.602-4.25l.145-.168a.311.311 0 0 1 .44-.031zM36.06 51.109a.314.314 0 0 1 .067.438c-.932 1.277-2.01 2.355-3.1 3.447-.116.115-.232.23-.347.347a.311.311 0 0 1-.442 0 .314.314 0 0 1 0-.443 283 283 0 0 1 .345-.346c1.096-1.097 2.139-2.14 3.04-3.376a.311.311 0 0 1 .437-.067z" fill="#000"/><path d="m89.862 31.649-4.992-3.134c6.49-1.003 11.649-5.222 13.417-7.207l6.552 3.134c-2.496 4.01-11.025 6.476-14.977 7.207zM100.159 11.594l-8.113-1.567c.75-3.008-2.6-6.893-4.368-8.46 5.741-.502 8.425.627 9.049 1.253l3.432 8.774z" fill="#fff"/><path d="M94.02 10.13c0-1.531-1.504-5.79-5.515-8.306h5.514l4.261 1.258 3.76 8.81c-2.84-.503-8.02-1.762-8.02-1.762z" fill="#fff" fill-opacity=".2"/><path fill-rule="evenodd" clip-rule="evenodd" d="M84.757.151a.311.311 0 0 1 .428-.106l.341.207c2.17 1.316 4.35 2.636 5.667 5.04.853 1.556 1.167 3.107 1.327 4.8a.312.312 0 1 1-.621.06c-.156-1.65-.458-3.107-1.252-4.557-1.235-2.253-3.279-3.493-5.483-4.83l-.302-.184a.314.314 0 0 1-.105-.43z" fill="#000"/><path fill-rule="evenodd" clip-rule="evenodd" d="M91.17 9.678a.312.312 0 0 1 .375-.232c.874.21 1.766.392 2.67.577.593.121 1.19.244 1.793.375 1.508.33 3.016.716 4.425 1.283a.314.314 0 0 1-.232.582c-1.36-.547-2.828-.924-4.326-1.252-.583-.128-1.174-.249-1.765-.37a82.523 82.523 0 0 1-2.71-.585.313.313 0 0 1-.23-.378z" fill="#000"/><path fill-rule="evenodd" clip-rule="evenodd" d="M96.263 2.473a.311.311 0 0 1 .433.087c2.077 3.118 3.327 7.129 3.987 9.78a.312.312 0 1 1-.605.152c-.655-2.631-1.884-6.557-3.9-9.584a.314.314 0 0 1 .085-.435z" fill="#000"/><path fill-rule="evenodd" clip-rule="evenodd" d="M88.996 1.885c-.962.053-2.026.093-3.25.037a.313.313 0 0 1 .029-.626 30.71 30.71 0 0 0 3.187-.037c.207-.01.41-.023.612-.035.717-.042 1.396-.083 2.052-.08 1.702.006 3.278.298 5.2 1.547a.314.314 0 0 1 .092.433.311.311 0 0 1-.432.093c-1.803-1.172-3.257-1.44-4.863-1.447a32.272 32.272 0 0 0-2 .079l-.627.036z" fill="#000"/><path fill-rule="evenodd" clip-rule="evenodd" d="M91.734 1.311a.312.312 0 0 1 .404-.18c1.215.471 2.446 1.338 3.565 2.315a27.163 27.163 0 0 1 2.945 3.048c.11.133.093.33-.04.441a.311.311 0 0 1-.44-.04 26.53 26.53 0 0 0-2.875-2.976c-1.094-.955-2.262-1.77-3.38-2.203a.314.314 0 0 1-.179-.405z" fill="#000"/><path d="M75.871 78.672 69.856 75.4l7.269-1.762 8.02 5.034h-9.274z" fill="#fff"/><path fill-rule="evenodd" clip-rule="evenodd" d="M78.597 74.193c-4.34 0-6.655.594-9.506 1.95a.311.311 0 0 1-.416-.149.314.314 0 0 1 .148-.417c2.943-1.4 5.35-2.01 9.775-2.01a.313.313 0 0 1 0 .626zM85.79 78.47c-4.093-1.073-8.27-.386-12.369.74a.313.313 0 0 1-.165-.605c4.13-1.133 8.436-1.856 12.692-.741a.314.314 0 0 1-.158.606z" fill="#000"/><path fill-rule="evenodd" clip-rule="evenodd" d="M70.194 75.101a.311.311 0 0 1 .42-.134c2.003 1.039 4.024 1.996 6.07 2.955.157.073.224.26.151.416a.311.311 0 0 1-.415.152c-2.046-.96-4.077-1.921-6.092-2.966a.314.314 0 0 1-.134-.423zM76.274 73.624a.311.311 0 0 1 .419-.14c3.174 1.609 6.246 3.265 9.241 5.198a.314.314 0 0 1 .094.433.311.311 0 0 1-.431.095c-2.969-1.917-6.02-3.562-9.185-5.166a.314.314 0 0 1-.138-.42zM31.005 62.964a.311.311 0 0 1 .418.14l.637 1.277c3.145 6.302 6.297 12.616 8.047 19.511a.312.312 0 1 1-.605.155c-1.732-6.827-4.855-13.084-8.006-19.399l-.63-1.264a.314.314 0 0 1 .139-.42zM36.748 64.265c.164-.052.34.04.39.205a844.815 844.815 0 0 1 1.95 6.356c.988 3.253 1.975 6.504 3.025 9.74a.312.312 0 1 1-.593.194c-1.051-3.24-2.042-6.502-3.032-9.762-.644-2.117-1.286-4.233-1.945-6.34a.314.314 0 0 1 .205-.393zM20.763 66.602c3.146-.73 6.348 1.291 8.283 3.598.055.065.107.14.158.221.431.017.856.097 1.226.192 1.616.413 2.676 1.17 3.171 2.268.49 1.086.39 2.429-.127 3.936a.312.312 0 1 1-.59-.204c.494-1.44.543-2.598.148-3.474-.389-.864-1.247-1.533-2.756-1.919a5.903 5.903 0 0 0-.764-.146c.062.168.118.345.166.524.153.564.248 1.2.234 1.753a2.805 2.805 0 0 1-.117.778c-.074.231-.198.455-.402.602-.444.32-1.022.14-1.632-.315-.465-.347-.86-.87-1.028-1.447-.17-.587-.106-1.242.378-1.788.371-.42.849-.63 1.34-.715-1.88-2.171-4.798-3.891-7.548-3.254a.313.313 0 0 1-.14-.61zm8.066 4.45a2.71 2.71 0 0 0-.04.003c-.486.04-.908.199-1.212.542-.316.357-.367.778-.245 1.196.125.43.431.843.802 1.12.583.437.818.364.895.308.057-.04.121-.125.172-.285.051-.157.08-.36.087-.6a5.765 5.765 0 0 0-.212-1.573 4.984 4.984 0 0 0-.247-.711z" fill="#000"/><path d="M104.546 23.974c2.308 2.028-9.775 6.46-14.286 7.803l-5.765-4.531c2.615.137 10.367-3.661 13.785-6.04 2.256 1.006 4.261 1.006 6.266 2.768z" fill="#fff"/><path fill-rule="evenodd" clip-rule="evenodd" d="M84.19 28.12a.311.311 0 0 1 .416-.147c1.042.502 1.996 1.147 2.92 1.778l.092.063c.9.613 1.773 1.21 2.704 1.677a.314.314 0 0 1 .14.42.311.311 0 0 1-.419.141c-.97-.487-1.874-1.104-2.763-1.712l-.104-.07c-.93-.634-1.846-1.253-2.84-1.732a.314.314 0 0 1-.147-.418z" fill="#000"/><path fill-rule="evenodd" clip-rule="evenodd" d="M98.4 20.765a.314.314 0 0 1 .02.443c-4.671 5.138-9.67 6.382-14.802 7.539a.313.313 0 0 1-.137-.611c5.117-1.154 9.947-2.366 14.478-7.35a.311.311 0 0 1 .44-.02zM105.795 23.82c.141.1.175.296.076.437-1.928 2.767-4.903 4.458-8.101 5.644-2.425.9-5.01 1.518-7.392 2.088-.754.18-1.489.356-2.19.535a.313.313 0 0 1-.153-.608c.718-.182 1.464-.361 2.225-.543 2.375-.569 4.908-1.175 7.294-2.06 3.146-1.166 5.983-2.8 7.806-5.415a.312.312 0 0 1 .435-.077z" fill="#000"/><path fill-rule="evenodd" clip-rule="evenodd" d="M97.453 20.725a.311.311 0 0 1 .413-.157l1.571.717c2.762 1.264 5.504 2.52 8.355 3.53a.314.314 0 0 1 .19.4.311.311 0 0 1-.398.19c-2.879-1.02-5.65-2.288-8.412-3.552-.52-.239-1.042-.477-1.563-.713a.314.314 0 0 1-.156-.415z" fill="#000"/><path fill-rule="evenodd" clip-rule="evenodd" d="M104.6 14.467a.312.312 0 0 1 .419.14c.768 1.543.443 3.14-.219 4.595-.498 1.095-1.211 2.156-1.838 3.09-.201.299-.393.585-.567.855a.31.31 0 0 1-.431.093.314.314 0 0 1-.093-.433c.187-.291.389-.592.596-.9.621-.925 1.291-1.922 1.765-2.965.628-1.38.874-2.759.229-4.055a.313.313 0 0 1 .139-.42z" fill="#000"/><path fill-rule="evenodd" clip-rule="evenodd" d="M103.252 13.43c.358-.281.844-.437 1.323-.325.253.06.425.214.533.404.092 0 .185.007.273.024.323.06.703.27.744.745.037.424-.123.88-.355 1.25-.233.37-.571.707-.952.866-.289.12-.602.15-.836-.063a.666.666 0 0 1-.159-.225 3.15 3.15 0 0 1-.495-.251c-.379-.244-.702-.62-.702-1.21 0-.497.268-.934.626-1.215zm1.805 2.013c.066-.075.128-.16.185-.25.188-.3.283-.618.262-.86-.007-.076-.052-.15-.237-.184h-.001c.002.051.002.102.001.152a4.17 4.17 0 0 1-.21 1.142zm-.678-1.738c-.246-.038-.519.043-.743.219-.24.189-.386.455-.386.72 0 .312.152.514.414.683l.028.017c.014-.226.056-.483.124-.724.053-.184.124-.37.219-.532.083-.143.195-.284.344-.383zm-.011 1.685.006-.006a.617.617 0 0 0 .074-.09c.077-.214.184-.623.195-.99a.781.781 0 0 0-.07.101 1.309 1.309 0 0 0-.074.15.352.352 0 0 1-.004.056 6.752 6.752 0 0 1-.036.2l-.004.02c-.016.083-.033.173-.049.268-.016.098-.03.197-.038.291zM35.628 22.867c-.923.727-1.434 1.762-1.078 3.087.12.447.272.887.431 1.335l.057.158c.14.393.283.794.404 1.199.274.911.45 1.872.266 2.922 1.592 1.014 2.667 2.159 3.353 3.374.919 1.626 1.121 3.348.966 4.994-.155 1.642-.667 3.217-1.187 4.563-.2.519-.404 1.007-.59 1.452l-.16.385c-.226.548-.407 1.007-.51 1.372a.312.312 0 1 1-.6-.172c.114-.405.31-.896.534-1.44l.163-.391c.184-.444.384-.923.581-1.433.513-1.327 1.001-2.84 1.148-4.395.146-1.553-.048-3.139-.888-4.626-.602-1.068-1.547-2.1-2.967-3.039-.26.83-.724 1.52-1.347 2.018-.771.614-1.769.917-2.885.836-1.012-.073-2.275-.345-3.217-.948-.475-.304-.882-.702-1.124-1.215-.244-.517-.308-1.125-.137-1.822.196-.802.669-1.298 1.294-1.552.605-.245 1.33-.256 2.041-.159 1.427.195 2.949.844 3.734 1.214.433.204.84.415 1.22.633.097-.822-.047-1.6-.285-2.39-.117-.388-.254-.773-.395-1.168l-.056-.16a18.38 18.38 0 0 1-.447-1.382c-.434-1.614.216-2.892 1.295-3.743 1.065-.84 2.556-1.278 3.9-1.278a.313.313 0 0 1 0 .627c-1.227 0-2.577.405-3.514 1.144zm-.626 9.001a16.02 16.02 0 0 0-1.357-.717c-.775-.364-2.225-.978-3.553-1.16-.665-.09-1.264-.067-1.723.12-.44.178-.774.514-.922 1.12-.14.572-.081 1.03.095 1.404.178.378.49.694.895.954.82.525 1.966.783 2.926.852.975.07 1.815-.193 2.453-.702.553-.441.969-1.077 1.186-1.871z" fill="#000"/><path fill-rule="evenodd" clip-rule="evenodd" d="M40.679 20.898c.17.24.234.547.133.88-.093.307-.234.553-.437.7a.722.722 0 0 1-.692.093 1.198 1.198 0 0 1-.525-.418l-.004-.005a.843.843 0 0 1-.36-.282c-.079.102-.162.227-.268.388l-.046.07a.311.311 0 0 1-.433.086.314.314 0 0 1-.086-.434l.056-.086c.17-.258.333-.504.55-.693.039-.034.078-.065.12-.095a.924.924 0 0 1 .537-.622c.254-.108.542-.106.793-.034.252.072.5.223.662.452zm-1.13.704c.212.011.418-.092.5-.247a.95.95 0 0 0-.122-.001 2.707 2.707 0 0 0-.453.073c.022.062.047.12.075.175zm.53-.326v.002-.002zm.054.095-.002-.001.002.001zM56.11 1.957c.13.114.143.312.03.442a628.54 628.54 0 0 0-3.505 4.093.311.311 0 0 1-.44.034.314.314 0 0 1-.034-.442l.322-.378c1.056-1.238 2.128-2.496 3.186-3.718a.311.311 0 0 1 .44-.03zM53.977 21.138a.311.311 0 0 1 .437-.064c1.217.914 2.402 1.794 3.494 2.596.14.102.17.298.068.438a.311.311 0 0 1-.436.068 430.615 430.615 0 0 1-3.5-2.6.314.314 0 0 1-.063-.438z" fill="#000"/><path fill-rule="evenodd" clip-rule="evenodd" d="M67.45 12.126a.314.314 0 0 1 0 .443c-1.264 1.268-2.385 2.431-3.457 3.541-2.518 2.61-4.756 4.93-7.885 7.644a.311.311 0 0 1-.44-.032.314.314 0 0 1 .032-.442c3.108-2.695 5.318-4.986 7.827-7.587 1.074-1.114 2.203-2.284 3.48-3.567a.311.311 0 0 1 .442 0z" fill="#000"/><path fill-rule="evenodd" clip-rule="evenodd" d="M54.644 2.412a.311.311 0 0 1 .437-.063c1.989 1.499 3.507 2.83 5.03 4.164.344.301.687.602 1.037.906 1.9 1.649 3.98 3.375 7.138 5.515.143.097.18.291.084.435a.311.311 0 0 1-.433.084c-3.185-2.158-5.286-3.901-7.197-5.56-.353-.307-.7-.61-1.044-.912-1.522-1.334-3.02-2.647-4.99-4.13a.314.314 0 0 1-.062-.439z" fill="#000"/><path fill-rule="evenodd" clip-rule="evenodd" d="M60.125 19.672a.314.314 0 0 1-.202-.394l3.12-9.73a.312.312 0 1 1 .594.192l-3.12 9.73a.312.312 0 0 1-.392.202zm5.257-5.272a.314.314 0 0 1-.202-.395l.669-2.084a.312.312 0 1 1 .594.192l-.669 2.084a.312.312 0 0 1-.392.203zM56.23 23.173a.314.314 0 0 1-.2-.394l1.808-5.64a.312.312 0 1 1 .594.191l-1.809 5.64a.312.312 0 0 1-.392.203zm3.417-10.654a.314.314 0 0 1-.2-.394l1.305-4.074a.312.312 0 1 1 .594.192l-1.306 4.074a.312.312 0 0 1-.393.202zm-2.517-1.88a.314.314 0 0 1-.202-.394l1.407-4.387a.312.312 0 1 1 .594.192l-1.407 4.387a.312.312 0 0 1-.392.202zm-2.863-2.194a.314.314 0 0 1-.201-.394l1.469-4.581a.312.312 0 1 1 .594.192l-1.47 4.581a.312.312 0 0 1-.392.202z" fill="#000"/><path d="m51.779 24.258-11.029-8.81L51.277 4.122l11.78 9.313-11.279 10.823z" fill="url(#b)"/><path fill-rule="evenodd" clip-rule="evenodd" d="M50.514 3.045c.13.114.144.312.031.442-1.051 1.214-2.118 2.466-3.171 3.702-2.987 3.504-5.866 6.882-7.97 8.91a.311.311 0 0 1-.442-.01.314.314 0 0 1 .01-.443c2.08-2.004 4.926-5.343 7.905-8.838a629.978 629.978 0 0 1 3.197-3.732.311.311 0 0 1 .44-.03z" fill="#000"/><path fill-rule="evenodd" clip-rule="evenodd" d="M38.137 14.253a.311.311 0 0 1 .44-.044c3.476 2.858 10.095 7.908 13.735 10.548.14.101.171.297.07.438a.311.311 0 0 1-.435.07C48.3 22.62 41.67 17.562 38.18 14.693a.314.314 0 0 1-.044-.44z" fill="#000"/><path fill-rule="evenodd" clip-rule="evenodd" d="M61.854 13.214a.314.314 0 0 1 0 .443 302.757 302.757 0 0 0-3.456 3.541c-2.518 2.61-4.756 4.93-7.885 7.644a.311.311 0 0 1-.44-.032.314.314 0 0 1 .033-.442c3.107-2.695 5.317-4.986 7.826-7.587a304.815 304.815 0 0 1 3.48-3.567.311.311 0 0 1 .442 0z" fill="#000"/><path fill-rule="evenodd" clip-rule="evenodd" d="M49.049 3.5a.311.311 0 0 1 .437-.063c1.989 1.499 3.507 2.829 5.03 4.164l1.037.906c1.9 1.649 3.98 3.375 7.138 5.515.143.096.18.291.084.435a.311.311 0 0 1-.433.084c-3.185-2.158-5.286-3.901-7.197-5.56-.353-.307-.7-.61-1.044-.912-1.522-1.334-3.02-2.647-4.99-4.13a.314.314 0 0 1-.062-.44zM54.67 9.542a.314.314 0 0 1-.09.434c-1.86 1.223-2.909 2.518-3.484 3.715a6.584 6.584 0 0 0-.646 3.2c.031.654.138 1.14.213 1.484.03.136.055.25.068.343a.7.7 0 0 1 .008.142.393.393 0 0 1-.024.115.337.337 0 0 1-.14.17c-.17.103-.328.01-.353-.003a.675.675 0 0 1-.123-.096c-.116-.11-.304-.334-.578-.66l-.05-.06c-.29-.347-.547-.677-.804-1.007-.734-.945-1.468-1.89-3.004-3.223a.314.314 0 0 1-.032-.442.311.311 0 0 1 .44-.032c1.586 1.377 2.366 2.38 3.108 3.335.246.318.489.63.755.948a8.484 8.484 0 0 1-.107-.985 7.213 7.213 0 0 1 .707-3.502c.63-1.312 1.761-2.689 3.703-3.966a.311.311 0 0 1 .432.09z" fill="#000"/><path d="M25.846 20.679c-1.373-.497-4.896-1.54-5.262-1.74-.732 1.79.305 5.384.915 6.958 1.22 1.243 4.164 3.777 3.432 1.988-.733-1.789.305-5.715.915-7.206z" fill="#fff"/><path fill-rule="evenodd" clip-rule="evenodd" d="M19.817 18.44c.17.026.288.186.262.357-.403 2.703.186 5.2 1.398 7.69a.314.314 0 0 1-.144.42.311.311 0 0 1-.417-.145c-1.25-2.57-1.881-5.196-1.454-8.058a.312.312 0 0 1 .355-.264zM25.412 19.419a.314.314 0 0 1 .079.436c-1.787 2.592-1.733 5.43-1.022 8.46a.312.312 0 1 1-.607.144c-.729-3.103-.818-6.155 1.116-8.96a.311.311 0 0 1 .434-.08z" fill="#000"/><path fill-rule="evenodd" clip-rule="evenodd" d="M18.41 18.044a.312.312 0 0 1 .4-.184c.569.213 1.144.42 1.72.63 1.703.616 3.425 1.24 5.074 2.004a.314.314 0 0 1-.261.57c-1.623-.753-3.308-1.363-5.003-1.977-.582-.211-1.165-.422-1.747-.64a.314.314 0 0 1-.184-.402zM19.13 24.945a.312.312 0 0 1 .412-.157c1.69.764 3.216 1.707 4.746 2.652.447.276.894.553 1.346.825.148.089.195.282.107.43a.311.311 0 0 1-.428.107c-.465-.28-.921-.561-1.373-.84-1.523-.942-3.004-1.857-4.654-2.603a.314.314 0 0 1-.156-.414z" fill="#000"/><path d="M20.081 1.069c-1.373-.497-3.008-.504-6.015.755 3.509 3.02 5.405 3.963 6.015 5.537h4.01s-1.253-3.02-4.01-6.292z" fill="#fff"/><path fill-rule="evenodd" clip-rule="evenodd" d="M11.757 1.22a.312.312 0 0 1 .403-.181c1.418.542 2.961 1.678 4.272 3.03 1.31 1.352 2.419 2.951 2.941 4.447a.312.312 0 1 1-.589.207c-.482-1.382-1.528-2.905-2.8-4.217-1.271-1.312-2.74-2.382-4.046-2.882a.314.314 0 0 1-.18-.404z" fill="#000"/><path fill-rule="evenodd" clip-rule="evenodd" d="M18.41.774a.313.313 0 0 1-.223.383c-1.552.413-3.108.816-4.662 1.22l-1.28.331a.313.313 0 0 1-.156-.607l1.281-.332c1.554-.403 3.107-.806 4.658-1.218a.312.312 0 0 1 .381.223z" fill="#000"/><path fill-rule="evenodd" clip-rule="evenodd" d="M17.315.12a.311.311 0 0 1 .438-.053c3.123 2.465 4.78 5.458 5.79 7.824a.312.312 0 1 1-.574.247c-.986-2.313-2.59-5.202-5.602-7.578a.314.314 0 0 1-.052-.44z" fill="#000"/><path fill-rule="evenodd" clip-rule="evenodd" d="M24.404 7.849c-2.452 0-4.892.111-7.35.238a.313.313 0 0 1-.032-.626c2.46-.127 4.913-.239 7.382-.239a.313.313 0 0 1 0 .627z" fill="#000"/><path d="M11.56 70.54C8.552 68.778 1.784 68.022.53 67.77l2.507-2.265 5.013 1.259c2.172 1.846 5.915 5.185 3.508 3.776z" fill="#fff"/><path fill-rule="evenodd" clip-rule="evenodd" d="M10.98 68.736c.423.167.839.332 1.247.49a.314.314 0 0 1-.224.584c-.418-.161-.841-.328-1.267-.497-1.394-.55-2.826-1.117-4.28-1.555-1.896-.572-3.798-.914-5.64-.716a.313.313 0 0 1-.066-.623c1.96-.21 3.951.156 5.885.738 1.482.447 2.948 1.026 4.346 1.58z" fill="#000"/><path fill-rule="evenodd" clip-rule="evenodd" d="M4.728 64.534a.314.314 0 0 1-.011.444c-1.363 1.3-2.095 1.69-3.805 2.478a.314.314 0 0 1-.26-.57c1.675-.771 2.34-1.128 3.635-2.363a.311.311 0 0 1 .441.011z" fill="#000"/><path fill-rule="evenodd" clip-rule="evenodd" d="M3.318 65.19c0-.173.14-.313.312-.313 1.81 0 3.298.385 5.41 1.374.156.073.223.26.15.417a.311.311 0 0 1-.414.151c-2.054-.963-3.45-1.315-5.146-1.315a.313.313 0 0 1-.312-.314z" fill="#000"/><path fill-rule="evenodd" clip-rule="evenodd" d="M8.009 65.851a.311.311 0 0 1 .441-.004 46.048 46.048 0 0 0 5.31 4.503c.14.102.171.298.07.438a.311.311 0 0 1-.435.07 46.675 46.675 0 0 1-5.382-4.564.314.314 0 0 1-.004-.443z" fill="#000"/><path d="m58.429 69.03 3.509-6.293h7.268L58.43 69.029z" fill="#fff"/><path fill-rule="evenodd" clip-rule="evenodd" d="M62.1 61.272c.161.06.243.24.182.403-.543 1.455-1.29 2.819-2.055 4.153l-.38.658c-.642 1.114-1.277 2.213-1.812 3.355a.311.311 0 0 1-.416.15.314.314 0 0 1-.149-.417c.547-1.169 1.198-2.295 1.841-3.408l.375-.65c.764-1.332 1.488-2.658 2.012-4.061a.312.312 0 0 1 .402-.183z" fill="#000"/><path fill-rule="evenodd" clip-rule="evenodd" d="M62.283 63.265c-.52.032-1.042.063-1.565.093a.313.313 0 0 1-.035-.626c.518-.03 1.037-.06 1.556-.092 2.305-.139 4.617-.278 6.938-.278a.313.313 0 0 1 0 .627c-2.3 0-4.59.138-6.894.276z" fill="#000"/><path fill-rule="evenodd" clip-rule="evenodd" d="M68.88 62.425a.314.314 0 0 1-.111.428c-1.136.671-2.153 1.248-3.107 1.788-2.735 1.55-4.944 2.8-7.902 5.127a.311.311 0 0 1-.438-.053.314.314 0 0 1 .054-.44c2.997-2.359 5.256-3.638 8.005-5.195.948-.537 1.956-1.107 3.072-1.767a.311.311 0 0 1 .427.111z" fill="#000"/><path d="m59.431 48.641-5.514-4.782 18.798-9.314 5.514 5.035-18.798 9.061z" fill="#fff"/><path fill-rule="evenodd" clip-rule="evenodd" d="M56.156 45.018c.1.14.069.337-.071.438-2.652 1.912-5.736 4.811-7.817 7.344-2.496 3.037-3.977 6.347-3.16 10.243.195.928.537 1.957 1.072 2.821.108.176.225.344.349.503.129-1.94.362-3.664.753-4.882.144-.45.313-.845.515-1.16.2-.315.445-.57.746-.71.642-.3 1.338-.01 2.037.678.732.72.98 1.822.994 2.883a8.828 8.828 0 0 1-.49 2.947c-.2.557-.514 1.198-.976 1.652-.477.468-1.122.742-1.923.506a3.862 3.862 0 0 1-1.105-.53c-.02.48-.034.971-.044 1.47-.12 6.095.46 13.065.577 13.902a.312.312 0 1 1-.618.087c-.122-.873-.704-7.876-.583-14.002.013-.664.035-1.32.066-1.958a5.706 5.706 0 0 1-.828-1.055c-.586-.945-.948-2.049-1.153-3.023-.871-4.157.731-7.657 3.29-10.77 2.115-2.575 5.238-5.512 7.934-7.456.14-.1.335-.068.435.072zm-9.04 21.971c.364.313.776.552 1.245.69.54.16.96-.009 1.31-.352.365-.358.64-.897.827-1.417a8.2 8.2 0 0 0 .452-2.726c-.013-.997-.25-1.895-.807-2.444-.647-.636-1.064-.684-1.337-.557-.157.073-.32.224-.484.48-.162.254-.312.593-.446 1.014-.407 1.27-.642 3.158-.76 5.312z" fill="#000"/><path fill-rule="evenodd" clip-rule="evenodd" d="M51.872 48.381a.543.543 0 0 1-.224.145 2.992 2.992 0 0 1-.034-.304.313.313 0 0 0-.218-.28.89.89 0 0 1 .245-.086c.051.047.117.139.174.317.023.073.042.143.057.208zm-.118-1.17c-.005 0-.01-.002-.013-.003-.31-.092-.606.029-.806.203-.102.088-.191.2-.257.325a1.24 1.24 0 0 0-.211.38c-.098.286-.083.607.078.894.16.285.449.507.844.639a.31.31 0 0 0 .201-.002.55.55 0 0 0 .428.047c.288-.086.439-.368.493-.642.03-.153.037-.326.018-.517.123-.22.199-.492.152-.746a.687.687 0 0 0-.201-.382.727.727 0 0 0-.426-.186 1.804 1.804 0 0 0-.3-.01zM52.524 42.507c.1-.14.295-.173.435-.072 1.192.861 2.226 1.888 3.246 2.9.365.364.729.725 1.097 1.075l.044.042c.236.225.564.539.875.785.166.132.314.234.43.293a.542.542 0 0 0 .109.044.314.314 0 0 1 .238.578.54.54 0 0 1-.348.039 1.085 1.085 0 0 1-.28-.101 3.352 3.352 0 0 1-.536-.361c-.334-.265-.682-.597-.915-.82l-.047-.044c-.389-.37-.764-.744-1.137-1.113-1.008-1.002-1.992-1.978-3.14-2.808a.314.314 0 0 1-.071-.437zm6.25 5.07z" fill="#000"/><path fill-rule="evenodd" clip-rule="evenodd" d="M71.675 33.5a.314.314 0 0 1-.164.41c-3.327 1.432-6.54 3.098-9.759 4.778l-.354.184c-3.098 1.618-6.207 3.24-9.416 4.66a.314.314 0 0 1-.252-.574c3.19-1.411 6.284-3.025 9.387-4.645l.348-.181c3.217-1.679 6.449-3.355 9.8-4.797a.311.311 0 0 1 .41.164zM77.736 38.087c.089.149.04.341-.107.43-2.238 1.349-4.61 2.475-6.958 3.591-.62.294-1.237.588-1.85.885-2.242 1.083-4.415 2.251-6.596 3.424-1.312.705-2.627 1.412-3.961 2.103a.311.311 0 0 1-.42-.135.314.314 0 0 1 .134-.422 290.447 290.447 0 0 0 3.932-2.088c2.193-1.178 4.39-2.359 6.64-3.447.622-.301 1.246-.597 1.869-.893 2.345-1.115 4.68-2.224 6.889-3.555a.311.311 0 0 1 .428.107z" fill="#000"/><path fill-rule="evenodd" clip-rule="evenodd" d="M71.343 33.04a.311.311 0 0 1 .44-.018c.838.775 1.703 1.502 2.574 2.235l.48.404c1.03.87 2.061 1.757 3.037 2.736a.314.314 0 0 1 0 .443.311.311 0 0 1-.442 0c-.954-.958-1.967-1.831-2.996-2.699l-.477-.402c-.871-.732-1.75-1.47-2.598-2.256a.314.314 0 0 1-.018-.443z" fill="#000"/><path fill-rule="evenodd" clip-rule="evenodd" d="M81.084 33.162a.314.314 0 0 1-.209.39c-1.09.329-2.152.787-3.215 1.28-.338.158-.677.319-1.017.48a60.98 60.98 0 0 1-2.185 1.004.314.314 0 0 1-.244-.577c.72-.307 1.43-.645 2.147-.986.343-.163.688-.327 1.037-.489 1.07-.498 2.165-.97 3.298-1.312a.312.312 0 0 1 .388.21z" fill="#000"/><path fill-rule="evenodd" clip-rule="evenodd" d="M82.533 31.992c.104.105.161.24.187.382a.76.76 0 0 1-.086.49c-.07.134-.171.252-.275.35a1.79 1.79 0 0 1-.67.402.99.99 0 0 1-.62-.006.912.912 0 0 1-.425-.337 1.387 1.387 0 0 1-.11-.181.478.478 0 0 1-.176-.466l-.051-.192-.007-.026a.314.314 0 0 1 .22-.383.31.31 0 0 1 .264.049c.117-.08.248-.147.379-.191.147-.05.364-.093.558-.007l.006.003a.953.953 0 0 1 .444-.062.609.609 0 0 1 .362.175zm-.504.66a.526.526 0 0 0 .053-.08c.027-.053.025-.08.024-.086a.19.19 0 0 0-.014-.047.145.145 0 0 0-.02-.001.74.74 0 0 1-.043.213z" fill="#000"/><path d="M42.007 43.42c.29-.197 2.781-2.946 3.99-4.296l.761 6.646c-.977 3.138-3.163 9.465-4.086 9.666-.923.2-2.86-.714-3.713-1.197.895-3.524 2.757-10.622 3.048-10.819z" fill="#fff"/><path d="m41.636 55.186 3.01-8.557 2.254-.505-4.012 9.312-1.252-.25z" fill="#4FACDF"/><path fill-rule="evenodd" clip-rule="evenodd" d="M42.045 43.21a.313.313 0 0 1 .233.377c-.74 3.192-1.683 6.33-2.623 9.456l-.495 1.65a.312.312 0 1 1-.597-.179c.164-.552.33-1.103.496-1.655.94-3.126 1.877-6.242 2.611-9.413a.313.313 0 0 1 .375-.235z" fill="#000"/><path fill-rule="evenodd" clip-rule="evenodd" d="M46.579 37.921c.15.085.203.276.118.427-1.454 2.584-3.397 4.316-5.539 6.224l-.453.404a.311.311 0 0 1-.44-.025.314.314 0 0 1 .026-.442l.437-.39c2.156-1.923 4.025-3.588 5.426-6.078a.312.312 0 0 1 .425-.12z" fill="#000"/><path fill-rule="evenodd" clip-rule="evenodd" d="M45.96 37.514c.172.005.307.15.302.322-.032 1.019.165 2.682.41 4.377.11.755.23 1.517.34 2.222.133.858.254 1.631.328 2.205a.312.312 0 1 1-.62.082 93.356 93.356 0 0 0-.323-2.173c-.11-.705-.23-1.471-.342-2.245-.244-1.685-.451-3.403-.417-4.487a.313.313 0 0 1 .322-.303z" fill="#000"/><path fill-rule="evenodd" clip-rule="evenodd" d="M47.592 44.262a.314.314 0 0 1 .139.42c-1.85 3.706-3.32 7.51-4.677 11.43a.312.312 0 1 1-.59-.205c1.362-3.933 2.841-7.765 4.709-11.505a.312.312 0 0 1 .419-.14z" fill="#000"/><path fill-rule="evenodd" clip-rule="evenodd" d="M43.747 55.454a.314.314 0 0 1-.28.344c-.887.093-2.008-.134-2.995-.514-.977-.375-1.9-.93-2.341-1.554a.314.314 0 0 1 .074-.436c.14-.1.336-.068.435.073.332.47 1.112.97 2.056 1.332.936.36 1.954.555 2.708.476a.312.312 0 0 1 .343.28zM46.338 41.314a.313.313 0 0 1-.366.248 4.521 4.521 0 0 1-.725-.241 5.128 5.128 0 0 1-.697-.337.314.314 0 0 1 .331-.531c.117.073.35.184.602.287.254.104.488.183.608.207.17.033.28.197.247.367zM47.032 45.016a.313.313 0 0 1-.295.33 2.436 2.436 0 0 0-.565.133c-.208.068-.431.153-.66.24l-.096.035c-.257.098-.521.196-.754.262-.216.062-.47.117-.677.073a.876.876 0 0 1-.365-.187 2.041 2.041 0 0 1-.287-.296 7.223 7.223 0 0 1-.519-.763l-.148-.245c-.114-.189-.223-.37-.33-.532-.157-.239-.281-.394-.372-.464a.314.314 0 0 1-.057-.44.311.311 0 0 1 .437-.057c.184.141.358.38.513.616.114.173.233.37.35.562.046.078.093.156.14.231.164.269.32.513.47.695.074.091.14.16.196.205.059.048.092.06.102.062.04.008.156 0 .377-.063.204-.058.445-.147.705-.245l.094-.036c.228-.086.466-.176.688-.249.248-.081.506-.151.726-.163a.312.312 0 0 1 .328.296z" fill="#000"/><path fill-rule="evenodd" clip-rule="evenodd" d="M44.155 45.485a.313.313 0 0 1 .196.397 1025.788 1025.788 0 0 0-3.055 9.23.312.312 0 1 1-.593-.195c.778-2.385 1.558-4.77 3.056-9.235a.312.312 0 0 1 .396-.197z" fill="#000"/><path d="M7.855 35.764 2.24 29.497c-.52-.732-1.373-2.32-.624-2.82.936-.627 5.304.313 7.8.626 1.997.25 2.913-1.776 3.12-2.82 1.769 2.82 5.804 7.082 5.305 7.834-.624.94-4.056.627-8.425 0-3.494-.502-2.08 2.298-1.56 3.447z" fill="#fff"/><path fill-rule="evenodd" clip-rule="evenodd" d="M.091 27.375a.311.311 0 0 1 .442 0l.844.847c5.148 5.161 10.273 10.299 13.855 16.83a.314.314 0 0 1-.123.425.311.311 0 0 1-.424-.123C11.147 38.904 6.082 33.825.92 28.648l-.828-.83a.314.314 0 0 1 0-.443z" fill="#000"/><path fill-rule="evenodd" clip-rule="evenodd" d="M12.123 21.94a.312.312 0 0 1 .368.246c.266 1.34.264 2.83-.412 4.143-.433.844-1.207 1.226-2.014 1.356-.801.129-1.666.016-2.362-.155-.409-.1-.848-.248-1.29-.395l-.054-.019a18.518 18.518 0 0 0-1.406-.427c-.947-.235-1.827-.29-2.568.096a.838.838 0 0 0-.444.526c-.067.226-.064.507-.004.825.11.587.391 1.202.6 1.66l.056.122a.314.314 0 0 1-.154.415.311.311 0 0 1-.414-.155c-.017-.04-.037-.08-.057-.125-.205-.448-.518-1.134-.644-1.8-.07-.37-.088-.761.02-1.121.11-.372.35-.692.754-.903.948-.495 2.016-.393 3.004-.149.498.123.991.287 1.454.442l.043.014c.451.151.869.29 1.252.385.654.16 1.428.255 2.115.145.68-.11 1.244-.412 1.56-1.025.585-1.14.604-2.469.353-3.732a.313.313 0 0 1 .244-.368zM10.427 33.46c-.77-.14-1.489-.163-2.075.079a.648.648 0 0 0-.333.263.756.756 0 0 0-.089.386c-.001.292.088.616.181.955l.047.172a.312.312 0 1 1-.602.163l-.042-.152c-.093-.332-.21-.754-.208-1.141.001-.234.045-.48.176-.703.134-.227.344-.404.633-.523.754-.311 1.618-.262 2.424-.116a19.2 19.2 0 0 1 1.512.363c.265.07.514.138.735.19.517.121 1.609.315 2.69.38.541.033 1.07.034 1.517-.02.46-.054.786-.16.967-.302a.311.311 0 0 1 .438.054.314.314 0 0 1-.054.44c-.32.25-.79.373-1.277.43a9.367 9.367 0 0 1-1.628.024 18.576 18.576 0 0 1-2.795-.396 24.925 24.925 0 0 1-.802-.207c-.454-.123-.924-.25-1.415-.339z" fill="#000"/><path fill-rule="evenodd" clip-rule="evenodd" d="M11.426 24.223a.311.311 0 0 1 .433.087c.558.84 1.068 1.63 1.549 2.377 1.687 2.618 3.024 4.692 4.874 6.479.124.12.128.318.008.443a.311.311 0 0 1-.441.008c-1.906-1.841-3.293-3.994-4.99-6.626-.475-.739-.976-1.515-1.52-2.334a.314.314 0 0 1 .087-.434z" fill="#000"/><defs><linearGradient id="a" x1="66.773" y1="72.072" x2="19.566" y2="97.598" gradientUnits="userSpaceOnUse"><stop offset=".124" stop-color="#8FD7FE"/><stop offset=".529" stop-color="#4FACDF"/></linearGradient><linearGradient id="b" x1="73.949" y1="14.101" x2="76.967" y2="-9.764" gradientUnits="userSpaceOnUse"><stop stop-color="#8FD7FE"/><stop offset=".64" stop-color="#4FACDF"/></linearGradient></defs></svg>