<svg width="92" height="123" viewBox="0 0 92 123" fill="none" xmlns="http://www.w3.org/2000/svg"><g opacity=".7"><path d="M60.4 94.95v-8.5l8-4.5 8 5v8.5l-7.5 4.5-8.5-5Z" fill="#FCFEFF" stroke="#000"/><path d="M68.4 90.95v9M76.4 86.45v9M60.4 86.45v9M60.4 86.45l7.725 4.617M67.4 81.45l9.725 5.617M59.4 94.45l9.725 5.617M60.4 86.499l7.795-4.5M68.4 90.95l7.795-4.5M68.4 99.95l8.5-5M70.9 89.95l-2.5 9.192m5-10.193-2.5 9.194m5-10.387-2.5 9.193" stroke="#000" stroke-linecap="round" stroke-linejoin="round"/><circle cx="68.072" cy="71.794" r="6.828" fill="#fff"/><path d="M64.097 71.655c1.242 1.214 2.275 2.552 2.945 4.428.13 1.27-1.455-6.587 7.46-12.084" stroke="#000" stroke-linecap="round" stroke-linejoin="round"/><path d="M69.593 65.263c-6.282 0-8.032 4.547-7.538 7.374.38 2.182 1.6 3.908 3.533 4.907 3.846 1.988 7.736.253 9.423-3.533 1.836-4.122-1.374-7.508-3.392-8.289-1.66-.642-3.915-.681-5.638 0" stroke="#000" stroke-linecap="round" stroke-linejoin="round"/><circle cx="43.846" cy="72.171" r="6.828" fill="#fff"/><path d="M39.872 72.032c1.24 1.214 2.274 2.552 2.944 4.428.13 1.27-1.455-6.587 7.46-12.084" stroke="#000" stroke-linecap="round" stroke-linejoin="round"/><path d="M45.368 65.64c-6.282 0-8.032 4.547-7.539 7.373.381 2.183 1.6 3.91 3.533 4.908 3.846 1.988 7.736.253 9.423-3.533 1.837-4.122-1.374-7.508-3.392-8.289-1.66-.643-3.914-.681-5.638 0" stroke="#000" stroke-linecap="round" stroke-linejoin="round"/><circle cx="18.679" cy="72.171" r="6.828" fill="#fff"/><path d="M14.705 72.032c1.24 1.214 2.274 2.552 2.944 4.428.13 1.27-1.455-6.587 7.46-12.084" stroke="#000" stroke-linecap="round" stroke-linejoin="round"/><path d="M20.2 65.64c-6.281 0-8.031 4.547-7.538 7.373.381 2.183 1.6 3.91 3.533 4.908 3.846 1.988 7.736.253 9.423-3.533 1.837-4.122-1.374-7.508-3.392-8.289-1.66-.643-3.914-.681-5.638 0" stroke="#000" stroke-linecap="round" stroke-linejoin="round"/><path d="M36.625 95.255v-8.5l8-4.5 8 5v8.5l-7.5 4.5-8.5-5Z" fill="#FCFEFF" stroke="#000"/><path d="M44.625 91.255v9M52.625 86.755v9M36.625 86.755v9M36.625 86.755l7.725 4.618M43.625 81.755l9.725 5.618M35.625 94.755l9.725 5.618M36.625 86.805l7.794-4.5M44.625 91.255l7.794-4.5M44.625 100.255l8.5-5M47.125 90.255l-2.5 9.193m5-10.193-2.5 9.193m5-10.386-2.5 9.193" stroke="#000" stroke-linecap="round" stroke-linejoin="round"/><path d="M12.85 95.805v-8.5l8-4.5 8 5v8.5l-7.5 4.5-8.5-5Z" fill="#FCFEFF" stroke="#000"/><path d="M20.85 91.805v9M28.85 87.305v9M12.85 87.305v9M12.85 87.305l7.725 4.617M19.85 82.305l9.725 5.617M11.85 95.305l9.725 5.617M12.85 87.355l7.794-4.5M20.85 91.805l7.794-4.5M20.85 100.805l8.5-5M23.35 90.805l-2.5 9.193m5-10.193-2.5 9.193m5-10.387-2.5 9.194" stroke="#000" stroke-linecap="round" stroke-linejoin="round"/><path opacity=".5" d="M59.396 17.114c6.052 11.746-1.073 17.541-2.3 18.236l-3.83 2.241c-5.761 1.237-10.267-4.12-11.8-6.954-4.29-9.706.307-15.429 3.142-17.077 6.62-4.575 12.617.463 14.788 3.554Z" fill="#2BB1F2"/><path d="M57.564 17.114c6.088 11.746-1.079 17.541-2.312 18.236l-3.853 2.241c-5.795 1.237-10.326-4.12-11.867-6.954-4.316-9.706.308-15.429 3.159-17.077 6.658-4.575 12.69.463 14.873 3.554Z" stroke="#000"/><ellipse rx="9.46" ry="12.73" transform="rotate(-18.642 100.776 -132.278) skewX(-.094)" stroke="#000"/><path d="M51 37.534c18.129-5.555 5.675-33.253-8.778-23.814M46.286 16.623l-.571 11.313" stroke="#000" stroke-linecap="round"/><path d="M45.859 27.113c2.442.47 5.076 1.077 7.326 1.41" stroke="#000" stroke-linecap="round"/><path d="M46.027 26.845c-.314.003-.572.039-.67.504-.12.561.37.78.702.785.46.006.902-.54.915-1.171.017-.798-.737-1.137-1.226-1.039-.465.095-.843.659-.839 1.299.004.724.726.9 1.145.669.402-.221.518-.99.164-1.329-.378-.361-.612.392-.78.737M44.613 19.235c.545-.566.932-1.326 1.283-2.11.126-.283.255-.577.336-.89.006-.023.045-.322.09-.31.066.019.142.472.161.53.134.417.297.83.481 1.209.257.527.604.911.95 1.323M50.677 29.364c3.505-.237 4.284-.405.645-2.596M49.499 13.759c1.103-.041 2.173-.824 3.165-1.257M52.598 15.874c.84-.316 1.65-.727 2.506-.992M54.972 18.519c.645-.203 1.276-.449 1.912-.662M56.488 21.957c.827-.25 1.597-.621 2.374-.992M57.28 24.667c.4 0 .744.006 1.12-.147.29-.117.553-.247.857-.315M57.675 28.304c.59-.046 1.146-.109 1.715-.264M56.884 31.477c.527-.049 1.056-.084 1.583-.132" stroke="#000" stroke-linecap="round"/><path d="m46.758 52.048-8.66-16.39-18.322-2.561L32.6 37.954l8.745 17.2 17.368 1.14-4.268 6.11 15.194-6.892-14.569-7.934 3.861 5.618-12.173-1.148Z" fill="#FCFEFF" stroke="#000" stroke-linecap="round" stroke-linejoin="round"/></g></svg>