<svg viewBox="0 0 1683 900" xmlns="http://www.w3.org/2000/svg" xmlns:xlink="http://www.w3.org/1999/xlink"><defs><path id="a" d="M237 203h-1v1h1zm-176 0h-1v1h1zm264 0h-1v1h1zm-176 0h-1v1h1zm88 88h-1v1h1zm-176 0h-1v1h1zm264 0h-1v1h1zm-176 0h-1v1h1zm88-44h-1v1h1zm-176 0h-1v1h1zm264 0h-1v1h1zm-176 0h-1v1h1zm88 88h-1v1h1zm-176 0h-1v1h1zm264 0h-1v1h1zm-176 0h-1v1h1zm44-132h-1v1h1zm-176 0h-1v1h1zm264 0h-1v1h1zm-176 0h-1v1h1zm88 88h-1v1h1zm-176 0h-1v1h1zm264 0h-1v1h1zm-176 0h-1v1h1zm88-44h-1v1h1zm-176 0h-1v1h1zm264 0h-1v1h1zm-176 0h-1v1h1zm88 88h-1v1h1zm-176 0h-1v1h1zm264 0h-1v1h1zm-176 0h-1v1h1zm132-154h-1v1h1zm-176 0h-1v1h1zm264 0h-1v1h1zm-176 0h-1v1h1zm88 88h-1v1h1zm-176 0h-1v1h1zm264 0h-1v1h1zm-176 0h-1v1h1zm88-44h-1v1h1zm-176 0h-1v1h1zm264 0h-1v1h1zm-176 0h-1v1h1zm88 88h-1v1h1zm-176 0h-1v1h1zm264 0h-1v1h1zm-176 0h-1v1h1zm44-132h-1v1h1zm-176 0h-1v1h1zm264 0h-1v1h1zm-176 0h-1v1h1zm88 88h-1v1h1zm-176 0h-1v1h1zm264 0h-1v1h1zm-176 0h-1v1h1zm88-44h-1v1h1zm-176 0h-1v1h1zm264 0h-1v1h1zm-176 0h-1v1h1zm88 88h-1v1h1zm-176 0h-1v1h1zm264 0h-1v1h1zm-176 0h-1v1h1zm154-110h-1v1h1zm-176 0h-1v1h1zm264 0h-1v1h1zm-176 0h-1v1h1zm88 88h-1v1h1zm-176 0h-1v1h1zm264 0h-1v1h1zm-176 0h-1v1h1zm88-44h-1v1h1zm-176 0h-1v1h1zm264 0h-1v1h1zm-176 0h-1v1h1zm88 88h-1v1h1zm-176 0h-1v1h1zm264 0h-1v1h1zm-176 0h-1v1h1zm44-132h-1v1h1zm-176 0h-1v1h1zm264 0h-1v1h1zm-176 0h-1v1h1zm88 88h-1v1h1zm-176 0h-1v1h1zm264 0h-1v1h1zm-176 0h-1v1h1zm88-44h-1v1h1zm-176 0h-1v1h1zm264 0h-1v1h1zm-176 0h-1v1h1zm88 88h-1v1h1zm-176 0h-1v1h1zm264 0h-1v1h1zm-176 0h-1v1h1zm132-154h-1v1h1zm-176 0h-1v1h1zm264 0h-1v1h1zm-176 0h-1v1h1zm88 88h-1v1h1zm-176 0h-1v1h1zm264 0h-1v1h1zm-176 0h-1v1h1zm88-44h-1v1h1zm-176 0h-1v1h1zm264 0h-1v1h1zm-176 0h-1v1h1zm88 88h-1v1h1zm-176 0h-1v1h1zm264 0h-1v1h1zm-176 0h-1v1h1zm44-132h-1v1h1zm-176 0h-1v1h1zm264 0h-1v1h1zm-176 0h-1v1h1zm88 88h-1v1h1zm-176 0h-1v1h1zm264 0h-1v1h1zm-176 0h-1v1h1zm88-44h-1v1h1zm-176 0h-1v1h1zm264 0h-1v1h1zm-176 0h-1v1h1zm88 88h-1v1h1zm-176 0h-1v1h1zm264 0h-1v1h1zm-176 0h-1v1h1z"/><path id="b" d="M611 203h-1v1h1zm-176 0h-1v1h1zm264 0h-1v1h1zm-176 0h-1v1h1zm88 88h-1v1h1zm-176 0h-1v1h1zm264 0h-1v1h1zm-176 0h-1v1h1zm88-44h-1v1h1zm-176 0h-1v1h1zm264 0h-1v1h1zm-176 0h-1v1h1zm88 88h-1v1h1zm-176 0h-1v1h1zm264 0h-1v1h1zm-176 0h-1v1h1zm44-132h-1v1h1zm-176 0h-1v1h1zm264 0h-1v1h1zm-176 0h-1v1h1zm88 88h-1v1h1zm-176 0h-1v1h1zm264 0h-1v1h1zm-176 0h-1v1h1zm88-44h-1v1h1zm-176 0h-1v1h1zm264 0h-1v1h1zm-176 0h-1v1h1zm88 88h-1v1h1zm-176 0h-1v1h1zm264 0h-1v1h1zm-176 0h-1v1h1zm132-154h-1v1h1zm-176 0h-1v1h1zm264 0h-1v1h1zm-176 0h-1v1h1zm88 88h-1v1h1zm-176 0h-1v1h1zm264 0h-1v1h1zm-176 0h-1v1h1zm88-44h-1v1h1zm-176 0h-1v1h1zm264 0h-1v1h1zm-176 0h-1v1h1zm88 88h-1v1h1zm-176 0h-1v1h1zm264 0h-1v1h1zm-176 0h-1v1h1zm44-132h-1v1h1zm-176 0h-1v1h1zm264 0h-1v1h1zm-176 0h-1v1h1zm88 88h-1v1h1zm-176 0h-1v1h1zm264 0h-1v1h1zm-176 0h-1v1h1zm88-44h-1v1h1zm-176 0h-1v1h1zm264 0h-1v1h1zm-176 0h-1v1h1zm88 88h-1v1h1zm-176 0h-1v1h1zm264 0h-1v1h1zm-176 0h-1v1h1zm99-110h-1v1h1zm-176 0h-1v1h1zm264 0h-1v1h1zm-176 0h-1v1h1zm88 88h-1v1h1zm-176 0h-1v1h1zm264 0h-1v1h1zm-176 0h-1v1h1zm88-44h-1v1h1zm-176 0h-1v1h1zm264 0h-1v1h1zm-176 0h-1v1h1zm88 88h-1v1h1zm-176 0h-1v1h1zm264 0h-1v1h1zm-176 0h-1v1h1zm44-132h-1v1h1zm-176 0h-1v1h1zm264 0h-1v1h1zm-176 0h-1v1h1zm88 88h-1v1h1zm-176 0h-1v1h1zm264 0h-1v1h1zm-176 0h-1v1h1zm88-44h-1v1h1zm-176 0h-1v1h1zm264 0h-1v1h1zm-176 0h-1v1h1zm88 88h-1v1h1zm-176 0h-1v1h1zm264 0h-1v1h1zm-176 0h-1v1h1zm132-154h-1v1h1zm-176 0h-1v1h1zm264 0h-1v1h1zm-176 0h-1v1h1zm88 88h-1v1h1zm-176 0h-1v1h1zm264 0h-1v1h1zm-176 0h-1v1h1zm88-44h-1v1h1zm-176 0h-1v1h1zm264 0h-1v1h1zm-176 0h-1v1h1zm88 88h-1v1h1zm-176 0h-1v1h1zm264 0h-1v1h1zm-176 0h-1v1h1zm44-132h-1v1h1zm-176 0h-1v1h1zm264 0h-1v1h1zm-176 0h-1v1h1zm88 88h-1v1h1zm-176 0h-1v1h1zm264 0h-1v1h1zm-176 0h-1v1h1zm88-44h-1v1h1zm-176 0h-1v1h1zm264 0h-1v1h1zm-176 0h-1v1h1zm88 88h-1v1h1zm-176 0h-1v1h1zm264 0h-1v1h1zm-176 0h-1v1h1z"/><path id="c" d="M600 203h-1v1h1zm-176 0h-1v1h1zm264 0h-1v1h1zm-176 0h-1v1h1zm88 88h-1v1h1zm-176 0h-1v1h1zm264 0h-1v1h1zm-176 0h-1v1h1zm88-44h-1v1h1zm-176 0h-1v1h1zm264 0h-1v1h1zm-176 0h-1v1h1zm88 88h-1v1h1zm-176 0h-1v1h1zm264 0h-1v1h1zm-176 0h-1v1h1zm44-132h-1v1h1zm-176 0h-1v1h1zm264 0h-1v1h1zm-176 0h-1v1h1zm88 88h-1v1h1zm-176 0h-1v1h1zm264 0h-1v1h1zm-176 0h-1v1h1zm88-44h-1v1h1zm-176 0h-1v1h1zm264 0h-1v1h1zm-176 0h-1v1h1zm88 88h-1v1h1zm-176 0h-1v1h1zm264 0h-1v1h1zm-176 0h-1v1h1zm132-154h-1v1h1zm-176 0h-1v1h1zm264 0h-1v1h1zm-176 0h-1v1h1zm88 88h-1v1h1zm-176 0h-1v1h1zm264 0h-1v1h1zm-176 0h-1v1h1zm88-44h-1v1h1zm-176 0h-1v1h1zm264 0h-1v1h1zm-176 0h-1v1h1zm88 88h-1v1h1zm-176 0h-1v1h1zm264 0h-1v1h1zm-176 0h-1v1h1zm44-132h-1v1h1zm-176 0h-1v1h1zm264 0h-1v1h1zm-176 0h-1v1h1zm88 88h-1v1h1zm-176 0h-1v1h1zm264 0h-1v1h1zm-176 0h-1v1h1zm88-44h-1v1h1zm-176 0h-1v1h1zm264 0h-1v1h1zm-176 0h-1v1h1zm88 88h-1v1h1zm-176 0h-1v1h1zm264 0h-1v1h1zm-176 0h-1v1h1zm121-99h-1v1h1zm-176 0h-1v1h1zm264 0h-1v1h1zm-176 0h-1v1h1zm88 88h-1v1h1zm-176 0h-1v1h1zm264 0h-1v1h1zm-176 0h-1v1h1zm88-44h-1v1h1zm-176 0h-1v1h1zm264 0h-1v1h1zm-176 0h-1v1h1zm88 88h-1v1h1zm-176 0h-1v1h1zm264 0h-1v1h1zm-176 0h-1v1h1zm44-132h-1v1h1zm-176 0h-1v1h1zm264 0h-1v1h1zm-176 0h-1v1h1zm88 88h-1v1h1zm-176 0h-1v1h1zm264 0h-1v1h1zm-176 0h-1v1h1zm88-44h-1v1h1zm-176 0h-1v1h1zm264 0h-1v1h1zm-176 0h-1v1h1zm88 88h-1v1h1zm-176 0h-1v1h1zm264 0h-1v1h1zm-176 0h-1v1h1zm132-154h-1v1h1zm-176 0h-1v1h1zm264 0h-1v1h1zm-176 0h-1v1h1zm88 88h-1v1h1zm-176 0h-1v1h1zm264 0h-1v1h1zm-176 0h-1v1h1zm88-44h-1v1h1zm-176 0h-1v1h1zm264 0h-1v1h1zm-176 0h-1v1h1zm88 88h-1v1h1zm-176 0h-1v1h1zm264 0h-1v1h1zm-176 0h-1v1h1zm44-132h-1v1h1zm-176 0h-1v1h1zm264 0h-1v1h1zm-176 0h-1v1h1zm88 88h-1v1h1zm-176 0h-1v1h1zm264 0h-1v1h1zm-176 0h-1v1h1zm88-44h-1v1h1zm-176 0h-1v1h1zm264 0h-1v1h1zm-176 0h-1v1h1zm88 88h-1v1h1zm-176 0h-1v1h1zm264 0h-1v1h1zm-176 0h-1v1h1z"/><path id="d" d="M600 214h-1v1h1zm-176 0h-1v1h1zm264 0h-1v1h1zm-176 0h-1v1h1zm88 88h-1v1h1zm-176 0h-1v1h1zm264 0h-1v1h1zm-176 0h-1v1h1zm88-44h-1v1h1zm-176 0h-1v1h1zm264 0h-1v1h1zm-176 0h-1v1h1zm88 88h-1v1h1zm-176 0h-1v1h1zm264 0h-1v1h1zm-176 0h-1v1h1zm44-132h-1v1h1zm-176 0h-1v1h1zm264 0h-1v1h1zm-176 0h-1v1h1zm88 88h-1v1h1zm-176 0h-1v1h1zm264 0h-1v1h1zm-176 0h-1v1h1zm88-44h-1v1h1zm-176 0h-1v1h1zm264 0h-1v1h1zm-176 0h-1v1h1zm88 88h-1v1h1zm-176 0h-1v1h1zm264 0h-1v1h1zm-176 0h-1v1h1zm132-154h-1v1h1zm-176 0h-1v1h1zm264 0h-1v1h1zm-176 0h-1v1h1zm88 88h-1v1h1zm-176 0h-1v1h1zm264 0h-1v1h1zm-176 0h-1v1h1zm88-44h-1v1h1zm-176 0h-1v1h1zm264 0h-1v1h1zm-176 0h-1v1h1zm88 88h-1v1h1zm-176 0h-1v1h1zm264 0h-1v1h1zm-176 0h-1v1h1zm44-132h-1v1h1zm-176 0h-1v1h1zm264 0h-1v1h1zm-176 0h-1v1h1zm88 88h-1v1h1zm-176 0h-1v1h1zm264 0h-1v1h1zm-176 0h-1v1h1zm88-44h-1v1h1zm-176 0h-1v1h1zm264 0h-1v1h1zm-176 0h-1v1h1zm88 88h-1v1h1zm-176 0h-1v1h1zm264 0h-1v1h1zm-176 0h-1v1h1zm121 55h-1v1h1zm-176 0h-1v1h1zm264 0h-1v1h1zm-176 0h-1v1h1zm88 88h-1v1h1zm-176 0h-1v1h1zm264 0h-1v1h1zm-176 0h-1v1h1zm88-44h-1v1h1zm-176 0h-1v1h1zm264 0h-1v1h1zm-176 0h-1v1h1zm88 88h-1v1h1zm-176 0h-1v1h1zm264 0h-1v1h1zm-176 0h-1v1h1zm44-132h-1v1h1zm-176 0h-1v1h1zm264 0h-1v1h1zm-176 0h-1v1h1zm88 88h-1v1h1zm-176 0h-1v1h1zm264 0h-1v1h1zm-176 0h-1v1h1zm88-44h-1v1h1zm-176 0h-1v1h1zm264 0h-1v1h1zm-176 0h-1v1h1zm88 88h-1v1h1zm-176 0h-1v1h1zm264 0h-1v1h1zm-176 0h-1v1h1zm132-154h-1v1h1zm-176 0h-1v1h1zm264 0h-1v1h1zm-176 0h-1v1h1zm88 88h-1v1h1zm-176 0h-1v1h1zm264 0h-1v1h1zm-176 0h-1v1h1zm88-44h-1v1h1zm-176 0h-1v1h1zm264 0h-1v1h1zm-176 0h-1v1h1zm88 88h-1v1h1zm-176 0h-1v1h1zm264 0h-1v1h1zm-176 0h-1v1h1zm44-132h-1v1h1zm-176 0h-1v1h1zm264 0h-1v1h1zm-176 0h-1v1h1zm88 88h-1v1h1zm-176 0h-1v1h1zm264 0h-1v1h1zm-176 0h-1v1h1zm88-44h-1v1h1zm-176 0h-1v1h1zm264 0h-1v1h1zm-176 0h-1v1h1zm88 88h-1v1h1zm-176 0h-1v1h1zm264 0h-1v1h1zm-176 0h-1v1h1z"/><path id="e" d="M600 742h-1v1h1zm-176 0h-1v1h1zm264 0h-1v1h1zm-176 0h-1v1h1zm88 88h-1v1h1zm-176 0h-1v1h1zm264 0h-1v1h1zm-176 0h-1v1h1zm88-44h-1v1h1zm-176 0h-1v1h1zm264 0h-1v1h1zm-176 0h-1v1h1zm88 88h-1v1h1zm-176 0h-1v1h1zm264 0h-1v1h1zm-176 0h-1v1h1zm44-132h-1v1h1zm-176 0h-1v1h1zm264 0h-1v1h1zm-176 0h-1v1h1zm88 88h-1v1h1zm-176 0h-1v1h1zm264 0h-1v1h1zm-176 0h-1v1h1zm88-44h-1v1h1zm-176 0h-1v1h1zm264 0h-1v1h1zm-176 0h-1v1h1zm88 88h-1v1h1zm-176 0h-1v1h1zm264 0h-1v1h1zm-176 0h-1v1h1zm132-154h-1v1h1zm-176 0h-1v1h1zm264 0h-1v1h1zm-176 0h-1v1h1zm88 88h-1v1h1zm-176 0h-1v1h1zm264 0h-1v1h1zm-176 0h-1v1h1zm88-44h-1v1h1zm-176 0h-1v1h1zm264 0h-1v1h1zm-176 0h-1v1h1zm88 88h-1v1h1zm-176 0h-1v1h1zm264 0h-1v1h1zm-176 0h-1v1h1zm44-132h-1v1h1zm-176 0h-1v1h1zm264 0h-1v1h1zm-176 0h-1v1h1zm88 88h-1v1h1zm-176 0h-1v1h1zm264 0h-1v1h1zm-176 0h-1v1h1zm88-44h-1v1h1zm-176 0h-1v1h1zm264 0h-1v1h1zm-176 0h-1v1h1zm88 88h-1v1h1zm-176 0h-1v1h1zm264 0h-1v1h1zm-176 0h-1v1h1zm-110 33h-1v1h1zm11 0h-1v1h1zm11 0h-1v1h1zm11 0h-1v1h1zm11 0h-1v1h1zm11 0h-1v1h1zm11 0h-1v1h1zm11 0h-1v1h1zm11 0h-1v1h1zm11 0h-1v1h1zm11 0h-1v1h1zm11 0h-1v1h1zm11 0h-1v1h1zm11 0h-1v1h1zm11 0h-1v1h1zm11 0h-1v1h1zm11 0h-1v1h1zm11 0h-1v1h1zm11 0h-1v1h1zm11 0h-1v1h1zm11 0h-1v1h1zm11 0h-1v1h1zm11 0h-1v1h1zm11 0h-1v1h1zm11 0h-1v1h1zm11 0h-1v1h1zm11 0h-1v1h1zm11 0h-1v1h1zm11 0h-1v1h1zm11 0h-1v1h1zm11 0h-1v1h1zm11 0h-1v1h1zm-341 11h-1v1h1zm11 0h-1v1h1zm11 0h-1v1h1zm11 0h-1v1h1zm11 0h-1v1h1zm11 0h-1v1h1zm11 0h-1v1h1zm11 0h-1v1h1zm11 0h-1v1h1zm11 0h-1v1h1zm11 0h-1v1h1zm11 0h-1v1h1zm11 0h-1v1h1zm11 0h-1v1h1zm11 0h-1v1h1zm11 0h-1v1h1zm11 0h-1v1h1zm11 0h-1v1h1zm11 0h-1v1h1zm11 0h-1v1h1zm11 0h-1v1h1zm11 0h-1v1h1zm11 0h-1v1h1zm11 0h-1v1h1zm11 0h-1v1h1zm11 0h-1v1h1zm11 0h-1v1h1zm11 0h-1v1h1zm11 0h-1v1h1zm11 0h-1v1h1zm11 0h-1v1h1zm11 0h-1v1h1z"/></defs><path d="M0 0h1683v900H0z" fill="#07182b"/><g fill="#fff" opacity=".3"><path d="M237 27h-1v1h1zM61 27h-1v1h1zm264 0h-1v1h1zm-176 0h-1v1h1zm88 88h-1v1h1zm-176 0h-1v1h1zm264 0h-1v1h1zm-176 0h-1v1h1zm88-44h-1v1h1zM61 71h-1v1h1zm264 0h-1v1h1zm-176 0h-1v1h1zm88 88h-1v1h1zm-176 0h-1v1h1zm264 0h-1v1h1zm-176 0h-1v1h1zm44-132h-1v1h1zM17 27h-1v1h1zm264 0h-1v1h1zm-176 0h-1v1h1zm88 88h-1v1h1zm-176 0h-1v1h1zm264 0h-1v1h1zm-176 0h-1v1h1zm88-44h-1v1h1zM17 71h-1v1h1zm264 0h-1v1h1zm-176 0h-1v1h1zm88 88h-1v1h1zm-176 0h-1v1h1zm264 0h-1v1h1zm-176 0h-1v1h1zM237 5h-1v1h1zM61 5h-1v1h1zm264 0h-1v1h1zM149 5h-1v1h1zm88 88h-1v1h1zM61 93h-1v1h1zm264 0h-1v1h1zm-176 0h-1v1h1zm88-44h-1v1h1zM61 49h-1v1h1zm264 0h-1v1h1zm-176 0h-1v1h1zm88 88h-1v1h1zm-176 0h-1v1h1zm264 0h-1v1h1zm-176 0h-1v1h1zM193 5h-1v1h1zM17 5h-1v1h1zm264 0h-1v1h1zM105 5h-1v1h1zm88 88h-1v1h1zM17 93h-1v1h1zm264 0h-1v1h1zm-176 0h-1v1h1zm88-44h-1v1h1zM17 49h-1v1h1zm264 0h-1v1h1zm-176 0h-1v1h1zm88 88h-1v1h1zm-176 0h-1v1h1zm264 0h-1v1h1zm-176 0h-1v1h1zM259 27h-1v1h1zM83 27h-1v1h1zm264 0h-1v1h1zm-176 0h-1v1h1zm88 88h-1v1h1zm-176 0h-1v1h1zm264 0h-1v1h1zm-176 0h-1v1h1zm88-44h-1v1h1zM83 71h-1v1h1zm264 0h-1v1h1zm-176 0h-1v1h1zm88 88h-1v1h1zm-176 0h-1v1h1zm264 0h-1v1h1zm-176 0h-1v1h1zm44-132h-1v1h1zM39 27h-1v1h1zm264 0h-1v1h1zm-176 0h-1v1h1zm88 88h-1v1h1zm-176 0h-1v1h1zm264 0h-1v1h1zm-176 0h-1v1h1zm88-44h-1v1h1zM39 71h-1v1h1zm264 0h-1v1h1zm-176 0h-1v1h1zm88 88h-1v1h1zm-176 0h-1v1h1zm264 0h-1v1h1zm-176 0h-1v1h1zM259 5h-1v1h1zM83 5h-1v1h1zm264 0h-1v1h1zM171 5h-1v1h1zm88 88h-1v1h1zM83 93h-1v1h1zm264 0h-1v1h1zm-176 0h-1v1h1zm88-44h-1v1h1zM83 49h-1v1h1zm264 0h-1v1h1zm-176 0h-1v1h1zm88 88h-1v1h1zm-176 0h-1v1h1zm264 0h-1v1h1zm-176 0h-1v1h1zM215 5h-1v1h1zM39 5h-1v1h1zm264 0h-1v1h1zM127 5h-1v1h1zm88 88h-1v1h1zM39 93h-1v1h1zm264 0h-1v1h1zm-176 0h-1v1h1zm88-44h-1v1h1zM39 49h-1v1h1zm264 0h-1v1h1zm-176 0h-1v1h1zm88 88h-1v1h1zm-176 0h-1v1h1zm264 0h-1v1h1zm-176 0h-1v1h1zM226 27h-1v1h1zM50 27h-1v1h1zm264 0h-1v1h1zm-176 0h-1v1h1zm88 88h-1v1h1zm-176 0h-1v1h1zm264 0h-1v1h1zm-176 0h-1v1h1zm88-44h-1v1h1zM50 71h-1v1h1zm264 0h-1v1h1zm-176 0h-1v1h1zm88 88h-1v1h1zm-176 0h-1v1h1zm264 0h-1v1h1zm-176 0h-1v1h1zm44-132h-1v1h1zM6 27H5v1h1zm264 0h-1v1h1zM94 27h-1v1h1zm88 88h-1v1h1zM6 115H5v1h1zm264 0h-1v1h1zm-176 0h-1v1h1zm88-44h-1v1h1zM6 71H5v1h1zm264 0h-1v1h1zM94 71h-1v1h1zm88 88h-1v1h1zM6 159H5v1h1zm264 0h-1v1h1zm-176 0h-1v1h1zM226 5h-1v1h1zM50 5h-1v1h1zm264 0h-1v1h1zM138 5h-1v1h1zm88 88h-1v1h1zM50 93h-1v1h1zm264 0h-1v1h1zm-176 0h-1v1h1zm88-44h-1v1h1zM50 49h-1v1h1zm264 0h-1v1h1zm-176 0h-1v1h1zm88 88h-1v1h1zm-176 0h-1v1h1zm264 0h-1v1h1zm-176 0h-1v1h1zM182 5h-1v1h1zM6 5H5v1h1zm264 0h-1v1h1zM94 5h-1v1h1zm88 88h-1v1h1zM6 93H5v1h1zm264 0h-1v1h1zM94 93h-1v1h1zm88-44h-1v1h1zM6 49H5v1h1zm264 0h-1v1h1zM94 49h-1v1h1zm88 88h-1v1h1zM6 137H5v1h1zm264 0h-1v1h1zm-176 0h-1v1h1zM248 27h-1v1h1zM72 27h-1v1h1zm264 0h-1v1h1zm-176 0h-1v1h1zm88 88h-1v1h1zm-176 0h-1v1h1zm264 0h-1v1h1zm-176 0h-1v1h1zm88-44h-1v1h1zM72 71h-1v1h1zm264 0h-1v1h1zm-176 0h-1v1h1zm88 88h-1v1h1zm-176 0h-1v1h1zm264 0h-1v1h1zm-176 0h-1v1h1zm44-132h-1v1h1zM28 27h-1v1h1zm264 0h-1v1h1zm-176 0h-1v1h1zm88 88h-1v1h1zm-176 0h-1v1h1zm264 0h-1v1h1zm-176 0h-1v1h1zm88-44h-1v1h1zM28 71h-1v1h1zm264 0h-1v1h1zm-176 0h-1v1h1zm88 88h-1v1h1zm-176 0h-1v1h1zm264 0h-1v1h1zm-176 0h-1v1h1zM248 5h-1v1h1zM72 5h-1v1h1zm264 0h-1v1h1zM160 5h-1v1h1zm88 88h-1v1h1zM72 93h-1v1h1zm264 0h-1v1h1zm-176 0h-1v1h1zm88-44h-1v1h1zM72 49h-1v1h1zm264 0h-1v1h1zm-176 0h-1v1h1zm88 88h-1v1h1zm-176 0h-1v1h1zm264 0h-1v1h1zm-176 0h-1v1h1zM204 5h-1v1h1zM28 5h-1v1h1zm264 0h-1v1h1zM116 5h-1v1h1zm88 88h-1v1h1zM28 93h-1v1h1zm264 0h-1v1h1zm-176 0h-1v1h1zm88-44h-1v1h1zM28 49h-1v1h1zm264 0h-1v1h1zm-176 0h-1v1h1zm88 88h-1v1h1zm-176 0h-1v1h1zm264 0h-1v1h1zm-176 0h-1v1h1zM237 38h-1v1h1zM61 38h-1v1h1zm264 0h-1v1h1zm-176 0h-1v1h1zm88 88h-1v1h1zm-176 0h-1v1h1zm264 0h-1v1h1zm-176 0h-1v1h1zm88-44h-1v1h1zM61 82h-1v1h1zm264 0h-1v1h1zm-176 0h-1v1h1zm88 88h-1v1h1zm-176 0h-1v1h1zm264 0h-1v1h1zm-176 0h-1v1h1zm44-132h-1v1h1zM17 38h-1v1h1zm264 0h-1v1h1zm-176 0h-1v1h1zm88 88h-1v1h1zm-176 0h-1v1h1zm264 0h-1v1h1zm-176 0h-1v1h1zm88-44h-1v1h1zM17 82h-1v1h1zm264 0h-1v1h1zm-176 0h-1v1h1zm88 88h-1v1h1zm-176 0h-1v1h1zm264 0h-1v1h1zm-176 0h-1v1h1zM237 16h-1v1h1zM61 16h-1v1h1zm264 0h-1v1h1zm-176 0h-1v1h1zm88 88h-1v1h1zm-176 0h-1v1h1zm264 0h-1v1h1zm-176 0h-1v1h1zm88-44h-1v1h1zM61 60h-1v1h1zm264 0h-1v1h1zm-176 0h-1v1h1zm88 88h-1v1h1zm-176 0h-1v1h1zm264 0h-1v1h1zm-176 0h-1v1h1zm44-132h-1v1h1zM17 16h-1v1h1zm264 0h-1v1h1zm-176 0h-1v1h1zm88 88h-1v1h1zm-176 0h-1v1h1zm264 0h-1v1h1zm-176 0h-1v1h1zm88-44h-1v1h1zM17 60h-1v1h1zm264 0h-1v1h1zm-176 0h-1v1h1zm88 88h-1v1h1zm-176 0h-1v1h1zm264 0h-1v1h1zm-176 0h-1v1h1zM259 38h-1v1h1zM83 38h-1v1h1zm264 0h-1v1h1zm-176 0h-1v1h1zm88 88h-1v1h1zm-176 0h-1v1h1zm264 0h-1v1h1zm-176 0h-1v1h1zm88-44h-1v1h1zM83 82h-1v1h1zm264 0h-1v1h1zm-176 0h-1v1h1zm88 88h-1v1h1zm-176 0h-1v1h1zm264 0h-1v1h1zm-176 0h-1v1h1zm44-132h-1v1h1zM39 38h-1v1h1zm264 0h-1v1h1zm-176 0h-1v1h1zm88 88h-1v1h1zm-176 0h-1v1h1zm264 0h-1v1h1zm-176 0h-1v1h1zm88-44h-1v1h1zM39 82h-1v1h1zm264 0h-1v1h1zm-176 0h-1v1h1zm88 88h-1v1h1zm-176 0h-1v1h1zm264 0h-1v1h1zm-176 0h-1v1h1zM259 16h-1v1h1zM83 16h-1v1h1zm264 0h-1v1h1zm-176 0h-1v1h1zm88 88h-1v1h1zm-176 0h-1v1h1zm264 0h-1v1h1zm-176 0h-1v1h1zm88-44h-1v1h1zM83 60h-1v1h1zm264 0h-1v1h1zm-176 0h-1v1h1zm88 88h-1v1h1zm-176 0h-1v1h1zm264 0h-1v1h1zm-176 0h-1v1h1zm44-132h-1v1h1zM39 16h-1v1h1zm264 0h-1v1h1zm-176 0h-1v1h1zm88 88h-1v1h1zm-176 0h-1v1h1zm264 0h-1v1h1zm-176 0h-1v1h1zm88-44h-1v1h1zM39 60h-1v1h1zm264 0h-1v1h1zm-176 0h-1v1h1zm88 88h-1v1h1zm-176 0h-1v1h1zm264 0h-1v1h1zm-176 0h-1v1h1zM226 38h-1v1h1zM50 38h-1v1h1zm264 0h-1v1h1zm-176 0h-1v1h1zm88 88h-1v1h1zm-176 0h-1v1h1zm264 0h-1v1h1zm-176 0h-1v1h1zm88-44h-1v1h1zM50 82h-1v1h1zm264 0h-1v1h1zm-176 0h-1v1h1zm88 88h-1v1h1zm-176 0h-1v1h1zm264 0h-1v1h1zm-176 0h-1v1h1zm44-132h-1v1h1zM6 38H5v1h1zm264 0h-1v1h1zM94 38h-1v1h1zm88 88h-1v1h1zM6 126H5v1h1zm264 0h-1v1h1zm-176 0h-1v1h1zm88-44h-1v1h1zM6 82H5v1h1zm264 0h-1v1h1zM94 82h-1v1h1zm88 88h-1v1h1zM6 170H5v1h1zm264 0h-1v1h1zm-176 0h-1v1h1zM226 16h-1v1h1zM50 16h-1v1h1zm264 0h-1v1h1zm-176 0h-1v1h1zm88 88h-1v1h1zm-176 0h-1v1h1zm264 0h-1v1h1zm-176 0h-1v1h1zm88-44h-1v1h1zM50 60h-1v1h1zm264 0h-1v1h1zm-176 0h-1v1h1zm88 88h-1v1h1zm-176 0h-1v1h1zm264 0h-1v1h1zm-176 0h-1v1h1zm44-132h-1v1h1zM6 16H5v1h1zm264 0h-1v1h1zM94 16h-1v1h1zm88 88h-1v1h1zM6 104H5v1h1zm264 0h-1v1h1zm-176 0h-1v1h1zm88-44h-1v1h1zM6 60H5v1h1zm264 0h-1v1h1zM94 60h-1v1h1zm88 88h-1v1h1zM6 148H5v1h1zm264 0h-1v1h1zm-176 0h-1v1h1zM248 38h-1v1h1zM72 38h-1v1h1zm264 0h-1v1h1zm-176 0h-1v1h1zm88 88h-1v1h1zm-176 0h-1v1h1zm264 0h-1v1h1zm-176 0h-1v1h1zm88-44h-1v1h1zM72 82h-1v1h1zm264 0h-1v1h1zm-176 0h-1v1h1zm88 88h-1v1h1zm-176 0h-1v1h1zm264 0h-1v1h1zm-176 0h-1v1h1zm44-132h-1v1h1zM28 38h-1v1h1zm264 0h-1v1h1zm-176 0h-1v1h1zm88 88h-1v1h1zm-176 0h-1v1h1zm264 0h-1v1h1zm-176 0h-1v1h1zm88-44h-1v1h1zM28 82h-1v1h1zm264 0h-1v1h1zm-176 0h-1v1h1zm88 88h-1v1h1zm-176 0h-1v1h1zm264 0h-1v1h1zm-176 0h-1v1h1zM248 16h-1v1h1zM72 16h-1v1h1zm264 0h-1v1h1zm-176 0h-1v1h1zm88 88h-1v1h1zm-176 0h-1v1h1zm264 0h-1v1h1zm-176 0h-1v1h1zm88-44h-1v1h1zM72 60h-1v1h1zm264 0h-1v1h1zm-176 0h-1v1h1zm88 88h-1v1h1zm-176 0h-1v1h1zm264 0h-1v1h1zm-176 0h-1v1h1zm44-132h-1v1h1zM28 16h-1v1h1zm264 0h-1v1h1zm-176 0h-1v1h1zm88 88h-1v1h1zm-176 0h-1v1h1zm264 0h-1v1h1zm-176 0h-1v1h1zm88-44h-1v1h1zM28 60h-1v1h1zm264 0h-1v1h1zm-176 0h-1v1h1zm88 88h-1v1h1zm-176 0h-1v1h1zm264 0h-1v1h1zm-176 0h-1v1h1z"/><use xlink:href="#a"/><path d="M226 203h-1v1h1zm-176 0h-1v1h1zm264 0h-1v1h1zm-176 0h-1v1h1zm88 88h-1v1h1zm-176 0h-1v1h1zm264 0h-1v1h1zm-176 0h-1v1h1zm88-44h-1v1h1zm-176 0h-1v1h1zm264 0h-1v1h1zm-176 0h-1v1h1zm88 88h-1v1h1zm-176 0h-1v1h1zm264 0h-1v1h1zm-176 0h-1v1h1zm44-132h-1v1h1zM6 203H5v1h1zm264 0h-1v1h1zm-176 0h-1v1h1zm88 88h-1v1h1zM6 291H5v1h1zm264 0h-1v1h1zm-176 0h-1v1h1zm88-44h-1v1h1zM6 247H5v1h1zm264 0h-1v1h1zm-176 0h-1v1h1zm88 88h-1v1h1zM6 335H5v1h1zm264 0h-1v1h1zm-176 0h-1v1h1zm132-154h-1v1h1zm-176 0h-1v1h1zm264 0h-1v1h1zm-176 0h-1v1h1zm88 88h-1v1h1zm-176 0h-1v1h1zm264 0h-1v1h1zm-176 0h-1v1h1zm88-44h-1v1h1zm-176 0h-1v1h1zm264 0h-1v1h1zm-176 0h-1v1h1zm88 88h-1v1h1zm-176 0h-1v1h1zm264 0h-1v1h1zm-176 0h-1v1h1zm44-132h-1v1h1zM6 181H5v1h1zm264 0h-1v1h1zm-176 0h-1v1h1zm88 88h-1v1h1zM6 269H5v1h1zm264 0h-1v1h1zm-176 0h-1v1h1zm88-44h-1v1h1zM6 225H5v1h1zm264 0h-1v1h1zm-176 0h-1v1h1zm88 88h-1v1h1zM6 313H5v1h1zm264 0h-1v1h1zm-176 0h-1v1h1zm154-110h-1v1h1zm-176 0h-1v1h1zm264 0h-1v1h1zm-176 0h-1v1h1zm88 88h-1v1h1zm-176 0h-1v1h1zm264 0h-1v1h1zm-176 0h-1v1h1zm88-44h-1v1h1zm-176 0h-1v1h1zm264 0h-1v1h1zm-176 0h-1v1h1zm88 88h-1v1h1zm-176 0h-1v1h1zm264 0h-1v1h1zm-176 0h-1v1h1zm44-132h-1v1h1zm-176 0h-1v1h1zm264 0h-1v1h1zm-176 0h-1v1h1zm88 88h-1v1h1zm-176 0h-1v1h1zm264 0h-1v1h1zm-176 0h-1v1h1zm88-44h-1v1h1zm-176 0h-1v1h1zm264 0h-1v1h1zm-176 0h-1v1h1zm88 88h-1v1h1zm-176 0h-1v1h1zm264 0h-1v1h1zm-176 0h-1v1h1zm132-154h-1v1h1zm-176 0h-1v1h1zm264 0h-1v1h1zm-176 0h-1v1h1zm88 88h-1v1h1zm-176 0h-1v1h1zm264 0h-1v1h1zm-176 0h-1v1h1zm88-44h-1v1h1zm-176 0h-1v1h1zm264 0h-1v1h1zm-176 0h-1v1h1zm88 88h-1v1h1zm-176 0h-1v1h1zm264 0h-1v1h1zm-176 0h-1v1h1zm44-132h-1v1h1zm-176 0h-1v1h1zm264 0h-1v1h1zm-176 0h-1v1h1zm88 88h-1v1h1zm-176 0h-1v1h1zm264 0h-1v1h1zm-176 0h-1v1h1zm88-44h-1v1h1zm-176 0h-1v1h1zm264 0h-1v1h1zm-176 0h-1v1h1zm88 88h-1v1h1zm-176 0h-1v1h1zm264 0h-1v1h1zm-176 0h-1v1h1z"/><use xlink:href="#a" y="11"/><path d="M226 214h-1v1h1zm-176 0h-1v1h1zm264 0h-1v1h1zm-176 0h-1v1h1zm88 88h-1v1h1zm-176 0h-1v1h1zm264 0h-1v1h1zm-176 0h-1v1h1zm88-44h-1v1h1zm-176 0h-1v1h1zm264 0h-1v1h1zm-176 0h-1v1h1zm88 88h-1v1h1zm-176 0h-1v1h1zm264 0h-1v1h1zm-176 0h-1v1h1zm44-132h-1v1h1zM6 214H5v1h1zm264 0h-1v1h1zm-176 0h-1v1h1zm88 88h-1v1h1zM6 302H5v1h1zm264 0h-1v1h1zm-176 0h-1v1h1zm88-44h-1v1h1zM6 258H5v1h1zm264 0h-1v1h1zm-176 0h-1v1h1zm88 88h-1v1h1zM6 346H5v1h1zm264 0h-1v1h1zm-176 0h-1v1h1zm132-154h-1v1h1zm-176 0h-1v1h1zm264 0h-1v1h1zm-176 0h-1v1h1zm88 88h-1v1h1zm-176 0h-1v1h1zm264 0h-1v1h1zm-176 0h-1v1h1zm88-44h-1v1h1zm-176 0h-1v1h1zm264 0h-1v1h1zm-176 0h-1v1h1zm88 88h-1v1h1zm-176 0h-1v1h1zm264 0h-1v1h1zm-176 0h-1v1h1zm44-132h-1v1h1zM6 192H5v1h1zm264 0h-1v1h1zm-176 0h-1v1h1zm88 88h-1v1h1zM6 280H5v1h1zm264 0h-1v1h1zm-176 0h-1v1h1zm88-44h-1v1h1zM6 236H5v1h1zm264 0h-1v1h1zm-176 0h-1v1h1zm88 88h-1v1h1zM6 324H5v1h1zm264 0h-1v1h1zm-176 0h-1v1h1zm154-110h-1v1h1zm-176 0h-1v1h1zm264 0h-1v1h1zm-176 0h-1v1h1zm88 88h-1v1h1zm-176 0h-1v1h1zm264 0h-1v1h1zm-176 0h-1v1h1zm88-44h-1v1h1zm-176 0h-1v1h1zm264 0h-1v1h1zm-176 0h-1v1h1zm88 88h-1v1h1zm-176 0h-1v1h1zm264 0h-1v1h1zm-176 0h-1v1h1zm44-132h-1v1h1zm-176 0h-1v1h1zm264 0h-1v1h1zm-176 0h-1v1h1zm88 88h-1v1h1zm-176 0h-1v1h1zm264 0h-1v1h1zm-176 0h-1v1h1zm88-44h-1v1h1zm-176 0h-1v1h1zm264 0h-1v1h1zm-176 0h-1v1h1zm88 88h-1v1h1zm-176 0h-1v1h1zm264 0h-1v1h1zm-176 0h-1v1h1zm132-154h-1v1h1zm-176 0h-1v1h1zm264 0h-1v1h1zm-176 0h-1v1h1zm88 88h-1v1h1zm-176 0h-1v1h1zm264 0h-1v1h1zm-176 0h-1v1h1zm88-44h-1v1h1zm-176 0h-1v1h1zm264 0h-1v1h1zm-176 0h-1v1h1zm88 88h-1v1h1zm-176 0h-1v1h1zm264 0h-1v1h1zm-176 0h-1v1h1zm44-132h-1v1h1zm-176 0h-1v1h1zm264 0h-1v1h1zm-176 0h-1v1h1zm88 88h-1v1h1zm-176 0h-1v1h1zm264 0h-1v1h1zm-176 0h-1v1h1zm88-44h-1v1h1zm-176 0h-1v1h1zm264 0h-1v1h1zm-176 0h-1v1h1zm88 88h-1v1h1zm-176 0h-1v1h1zm264 0h-1v1h1zm-176 0h-1v1h1z"/><use xlink:href="#a" y="176"/><path d="M226 379h-1v1h1zm-176 0h-1v1h1zm264 0h-1v1h1zm-176 0h-1v1h1zm88 88h-1v1h1zm-176 0h-1v1h1zm264 0h-1v1h1zm-176 0h-1v1h1zm88-44h-1v1h1zm-176 0h-1v1h1zm264 0h-1v1h1zm-176 0h-1v1h1zm88 88h-1v1h1zm-176 0h-1v1h1zm264 0h-1v1h1zm-176 0h-1v1h1zm44-132h-1v1h1zM6 379H5v1h1zm264 0h-1v1h1zm-176 0h-1v1h1zm88 88h-1v1h1zM6 467H5v1h1zm264 0h-1v1h1zm-176 0h-1v1h1zm88-44h-1v1h1zM6 423H5v1h1zm264 0h-1v1h1zm-176 0h-1v1h1zm88 88h-1v1h1zM6 511H5v1h1zm264 0h-1v1h1zm-176 0h-1v1h1zm132-154h-1v1h1zm-176 0h-1v1h1zm264 0h-1v1h1zm-176 0h-1v1h1zm88 88h-1v1h1zm-176 0h-1v1h1zm264 0h-1v1h1zm-176 0h-1v1h1zm88-44h-1v1h1zm-176 0h-1v1h1zm264 0h-1v1h1zm-176 0h-1v1h1zm88 88h-1v1h1zm-176 0h-1v1h1zm264 0h-1v1h1zm-176 0h-1v1h1zm44-132h-1v1h1zM6 357H5v1h1zm264 0h-1v1h1zm-176 0h-1v1h1zm88 88h-1v1h1zM6 445H5v1h1zm264 0h-1v1h1zm-176 0h-1v1h1zm88-44h-1v1h1zM6 401H5v1h1zm264 0h-1v1h1zm-176 0h-1v1h1zm88 88h-1v1h1zM6 489H5v1h1zm264 0h-1v1h1zm-176 0h-1v1h1zm154-110h-1v1h1zm-176 0h-1v1h1zm264 0h-1v1h1zm-176 0h-1v1h1zm88 88h-1v1h1zm-176 0h-1v1h1zm264 0h-1v1h1zm-176 0h-1v1h1zm88-44h-1v1h1zm-176 0h-1v1h1zm264 0h-1v1h1zm-176 0h-1v1h1zm88 88h-1v1h1zm-176 0h-1v1h1zm264 0h-1v1h1zm-176 0h-1v1h1zm44-132h-1v1h1zm-176 0h-1v1h1zm264 0h-1v1h1zm-176 0h-1v1h1zm88 88h-1v1h1zm-176 0h-1v1h1zm264 0h-1v1h1zm-176 0h-1v1h1zm88-44h-1v1h1zm-176 0h-1v1h1zm264 0h-1v1h1zm-176 0h-1v1h1zm88 88h-1v1h1zm-176 0h-1v1h1zm264 0h-1v1h1zm-176 0h-1v1h1zm132-154h-1v1h1zm-176 0h-1v1h1zm264 0h-1v1h1zm-176 0h-1v1h1zm88 88h-1v1h1zm-176 0h-1v1h1zm264 0h-1v1h1zm-176 0h-1v1h1zm88-44h-1v1h1zm-176 0h-1v1h1zm264 0h-1v1h1zm-176 0h-1v1h1zm88 88h-1v1h1zm-176 0h-1v1h1zm264 0h-1v1h1zm-176 0h-1v1h1zm44-132h-1v1h1zm-176 0h-1v1h1zm264 0h-1v1h1zm-176 0h-1v1h1zm88 88h-1v1h1zm-176 0h-1v1h1zm264 0h-1v1h1zm-176 0h-1v1h1zm88-44h-1v1h1zm-176 0h-1v1h1zm264 0h-1v1h1zm-176 0h-1v1h1zm88 88h-1v1h1zm-176 0h-1v1h1zm264 0h-1v1h1zm-176 0h-1v1h1z"/><use xlink:href="#a" y="187"/><path d="M226 390h-1v1h1zm-176 0h-1v1h1zm264 0h-1v1h1zm-176 0h-1v1h1zm88 88h-1v1h1zm-176 0h-1v1h1zm264 0h-1v1h1zm-176 0h-1v1h1zm88-44h-1v1h1zm-176 0h-1v1h1zm264 0h-1v1h1zm-176 0h-1v1h1zm88 88h-1v1h1zm-176 0h-1v1h1zm264 0h-1v1h1zm-176 0h-1v1h1zm44-132h-1v1h1zM6 390H5v1h1zm264 0h-1v1h1zm-176 0h-1v1h1zm88 88h-1v1h1zM6 478H5v1h1zm264 0h-1v1h1zm-176 0h-1v1h1zm88-44h-1v1h1zM6 434H5v1h1zm264 0h-1v1h1zm-176 0h-1v1h1zm88 88h-1v1h1zM6 522H5v1h1zm264 0h-1v1h1zm-176 0h-1v1h1zm132-154h-1v1h1zm-176 0h-1v1h1zm264 0h-1v1h1zm-176 0h-1v1h1zm88 88h-1v1h1zm-176 0h-1v1h1zm264 0h-1v1h1zm-176 0h-1v1h1zm88-44h-1v1h1zm-176 0h-1v1h1zm264 0h-1v1h1zm-176 0h-1v1h1zm88 88h-1v1h1zm-176 0h-1v1h1zm264 0h-1v1h1zm-176 0h-1v1h1zm44-132h-1v1h1zM6 368H5v1h1zm264 0h-1v1h1zm-176 0h-1v1h1zm88 88h-1v1h1zM6 456H5v1h1zm264 0h-1v1h1zm-176 0h-1v1h1zm88-44h-1v1h1zM6 412H5v1h1zm264 0h-1v1h1zm-176 0h-1v1h1zm88 88h-1v1h1zM6 500H5v1h1zm264 0h-1v1h1zm-176 0h-1v1h1zm154-110h-1v1h1zm-176 0h-1v1h1zm264 0h-1v1h1zm-176 0h-1v1h1zm88 88h-1v1h1zm-176 0h-1v1h1zm264 0h-1v1h1zm-176 0h-1v1h1zm88-44h-1v1h1zm-176 0h-1v1h1zm264 0h-1v1h1zm-176 0h-1v1h1zm88 88h-1v1h1zm-176 0h-1v1h1zm264 0h-1v1h1zm-176 0h-1v1h1zm44-132h-1v1h1zm-176 0h-1v1h1zm264 0h-1v1h1zm-176 0h-1v1h1zm88 88h-1v1h1zm-176 0h-1v1h1zm264 0h-1v1h1zm-176 0h-1v1h1zm88-44h-1v1h1zm-176 0h-1v1h1zm264 0h-1v1h1zm-176 0h-1v1h1zm88 88h-1v1h1zm-176 0h-1v1h1zm264 0h-1v1h1zm-176 0h-1v1h1zm132-154h-1v1h1zm-176 0h-1v1h1zm264 0h-1v1h1zm-176 0h-1v1h1zm88 88h-1v1h1zm-176 0h-1v1h1zm264 0h-1v1h1zm-176 0h-1v1h1zm88-44h-1v1h1zm-176 0h-1v1h1zm264 0h-1v1h1zm-176 0h-1v1h1zm88 88h-1v1h1zm-176 0h-1v1h1zm264 0h-1v1h1zm-176 0h-1v1h1zm44-132h-1v1h1zm-176 0h-1v1h1zm264 0h-1v1h1zm-176 0h-1v1h1zm88 88h-1v1h1zm-176 0h-1v1h1zm264 0h-1v1h1zm-176 0h-1v1h1zm88-44h-1v1h1zm-176 0h-1v1h1zm264 0h-1v1h1zm-176 0h-1v1h1zm88 88h-1v1h1zm-176 0h-1v1h1zm264 0h-1v1h1zm-176 0h-1v1h1z"/><use xlink:href="#a" y="352"/><path d="M226 555h-1v1h1zm-176 0h-1v1h1zm264 0h-1v1h1zm-176 0h-1v1h1zm88 88h-1v1h1zm-176 0h-1v1h1zm264 0h-1v1h1zm-176 0h-1v1h1zm88-44h-1v1h1zm-176 0h-1v1h1zm264 0h-1v1h1zm-176 0h-1v1h1zm88 88h-1v1h1zm-176 0h-1v1h1zm264 0h-1v1h1zm-176 0h-1v1h1zm44-132h-1v1h1zM6 555H5v1h1zm264 0h-1v1h1zm-176 0h-1v1h1zm88 88h-1v1h1zM6 643H5v1h1zm264 0h-1v1h1zm-176 0h-1v1h1zm88-44h-1v1h1zM6 599H5v1h1zm264 0h-1v1h1zm-176 0h-1v1h1zm88 88h-1v1h1zM6 687H5v1h1zm264 0h-1v1h1zm-176 0h-1v1h1zm132-154h-1v1h1zm-176 0h-1v1h1zm264 0h-1v1h1zm-176 0h-1v1h1zm88 88h-1v1h1zm-176 0h-1v1h1zm264 0h-1v1h1zm-176 0h-1v1h1zm88-44h-1v1h1zm-176 0h-1v1h1zm264 0h-1v1h1zm-176 0h-1v1h1zm88 88h-1v1h1zm-176 0h-1v1h1zm264 0h-1v1h1zm-176 0h-1v1h1zm44-132h-1v1h1zM6 533H5v1h1zm264 0h-1v1h1zm-176 0h-1v1h1zm88 88h-1v1h1zM6 621H5v1h1zm264 0h-1v1h1zm-176 0h-1v1h1zm88-44h-1v1h1zM6 577H5v1h1zm264 0h-1v1h1zm-176 0h-1v1h1zm88 88h-1v1h1zM6 665H5v1h1zm264 0h-1v1h1zm-176 0h-1v1h1zm154-110h-1v1h1zm-176 0h-1v1h1zm264 0h-1v1h1zm-176 0h-1v1h1zm88 88h-1v1h1zm-176 0h-1v1h1zm264 0h-1v1h1zm-176 0h-1v1h1zm88-44h-1v1h1zm-176 0h-1v1h1zm264 0h-1v1h1zm-176 0h-1v1h1zm88 88h-1v1h1zm-176 0h-1v1h1zm264 0h-1v1h1zm-176 0h-1v1h1zm44-132h-1v1h1zm-176 0h-1v1h1zm264 0h-1v1h1zm-176 0h-1v1h1zm88 88h-1v1h1zm-176 0h-1v1h1zm264 0h-1v1h1zm-176 0h-1v1h1zm88-44h-1v1h1zm-176 0h-1v1h1zm264 0h-1v1h1zm-176 0h-1v1h1zm88 88h-1v1h1zm-176 0h-1v1h1zm264 0h-1v1h1zm-176 0h-1v1h1zm132-154h-1v1h1zm-176 0h-1v1h1zm264 0h-1v1h1zm-176 0h-1v1h1zm88 88h-1v1h1zm-176 0h-1v1h1zm264 0h-1v1h1zm-176 0h-1v1h1zm88-44h-1v1h1zm-176 0h-1v1h1zm264 0h-1v1h1zm-176 0h-1v1h1zm88 88h-1v1h1zm-176 0h-1v1h1zm264 0h-1v1h1zm-176 0h-1v1h1zm44-132h-1v1h1zm-176 0h-1v1h1zm264 0h-1v1h1zm-176 0h-1v1h1zm88 88h-1v1h1zm-176 0h-1v1h1zm264 0h-1v1h1zm-176 0h-1v1h1zm88-44h-1v1h1zm-176 0h-1v1h1zm264 0h-1v1h1zm-176 0h-1v1h1zm88 88h-1v1h1zm-176 0h-1v1h1zm264 0h-1v1h1zm-176 0h-1v1h1z"/><use xlink:href="#a" y="363"/><path d="M226 566h-1v1h1zm-176 0h-1v1h1zm264 0h-1v1h1zm-176 0h-1v1h1zm88 88h-1v1h1zm-176 0h-1v1h1zm264 0h-1v1h1zm-176 0h-1v1h1zm88-44h-1v1h1zm-176 0h-1v1h1zm264 0h-1v1h1zm-176 0h-1v1h1zm88 88h-1v1h1zm-176 0h-1v1h1zm264 0h-1v1h1zm-176 0h-1v1h1zm44-132h-1v1h1zM6 566H5v1h1zm264 0h-1v1h1zm-176 0h-1v1h1zm88 88h-1v1h1zM6 654H5v1h1zm264 0h-1v1h1zm-176 0h-1v1h1zm88-44h-1v1h1zM6 610H5v1h1zm264 0h-1v1h1zm-176 0h-1v1h1zm88 88h-1v1h1zM6 698H5v1h1zm264 0h-1v1h1zm-176 0h-1v1h1zm132-154h-1v1h1zm-176 0h-1v1h1zm264 0h-1v1h1zm-176 0h-1v1h1zm88 88h-1v1h1zm-176 0h-1v1h1zm264 0h-1v1h1zm-176 0h-1v1h1zm88-44h-1v1h1zm-176 0h-1v1h1zm264 0h-1v1h1zm-176 0h-1v1h1zm88 88h-1v1h1zm-176 0h-1v1h1zm264 0h-1v1h1zm-176 0h-1v1h1zm44-132h-1v1h1zM6 544H5v1h1zm264 0h-1v1h1zm-176 0h-1v1h1zm88 88h-1v1h1zM6 632H5v1h1zm264 0h-1v1h1zm-176 0h-1v1h1zm88-44h-1v1h1zM6 588H5v1h1zm264 0h-1v1h1zm-176 0h-1v1h1zm88 88h-1v1h1zM6 676H5v1h1zm264 0h-1v1h1zm-176 0h-1v1h1zm154-110h-1v1h1zm-176 0h-1v1h1zm264 0h-1v1h1zm-176 0h-1v1h1zm88 88h-1v1h1zm-176 0h-1v1h1zm264 0h-1v1h1zm-176 0h-1v1h1zm88-44h-1v1h1zm-176 0h-1v1h1zm264 0h-1v1h1zm-176 0h-1v1h1zm88 88h-1v1h1zm-176 0h-1v1h1zm264 0h-1v1h1zm-176 0h-1v1h1zm44-132h-1v1h1zm-176 0h-1v1h1zm264 0h-1v1h1zm-176 0h-1v1h1zm88 88h-1v1h1zm-176 0h-1v1h1zm264 0h-1v1h1zm-176 0h-1v1h1zm88-44h-1v1h1zm-176 0h-1v1h1zm264 0h-1v1h1zm-176 0h-1v1h1zm88 88h-1v1h1zm-176 0h-1v1h1zm264 0h-1v1h1zm-176 0h-1v1h1zm132-154h-1v1h1zm-176 0h-1v1h1zm264 0h-1v1h1zm-176 0h-1v1h1zm88 88h-1v1h1zm-176 0h-1v1h1zm264 0h-1v1h1zm-176 0h-1v1h1zm88-44h-1v1h1zm-176 0h-1v1h1zm264 0h-1v1h1zm-176 0h-1v1h1zm88 88h-1v1h1zm-176 0h-1v1h1zm264 0h-1v1h1zm-176 0h-1v1h1zm44-132h-1v1h1zm-176 0h-1v1h1zm264 0h-1v1h1zm-176 0h-1v1h1zm88 88h-1v1h1zm-176 0h-1v1h1zm264 0h-1v1h1zm-176 0h-1v1h1zm88-44h-1v1h1zm-176 0h-1v1h1zm264 0h-1v1h1zm-176 0h-1v1h1zm88 88h-1v1h1zm-176 0h-1v1h1zm264 0h-1v1h1zm-176 0h-1v1h1z"/><use xlink:href="#a" y="528"/><path d="M226 731h-1v1h1zm-176 0h-1v1h1zm264 0h-1v1h1zm-176 0h-1v1h1zm88 88h-1v1h1zm-176 0h-1v1h1zm264 0h-1v1h1zm-176 0h-1v1h1zm88-44h-1v1h1zm-176 0h-1v1h1zm264 0h-1v1h1zm-176 0h-1v1h1zm88 88h-1v1h1zm-176 0h-1v1h1zm264 0h-1v1h1zm-176 0h-1v1h1zm44-132h-1v1h1zM6 731H5v1h1zm264 0h-1v1h1zm-176 0h-1v1h1zm88 88h-1v1h1zM6 819H5v1h1zm264 0h-1v1h1zm-176 0h-1v1h1zm88-44h-1v1h1zM6 775H5v1h1zm264 0h-1v1h1zm-176 0h-1v1h1zm88 88h-1v1h1zM6 863H5v1h1zm264 0h-1v1h1zm-176 0h-1v1h1zm132-154h-1v1h1zm-176 0h-1v1h1zm264 0h-1v1h1zm-176 0h-1v1h1zm88 88h-1v1h1zm-176 0h-1v1h1zm264 0h-1v1h1zm-176 0h-1v1h1zm88-44h-1v1h1zm-176 0h-1v1h1zm264 0h-1v1h1zm-176 0h-1v1h1zm88 88h-1v1h1zm-176 0h-1v1h1zm264 0h-1v1h1zm-176 0h-1v1h1zm44-132h-1v1h1zM6 709H5v1h1zm264 0h-1v1h1zm-176 0h-1v1h1zm88 88h-1v1h1zM6 797H5v1h1zm264 0h-1v1h1zm-176 0h-1v1h1zm88-44h-1v1h1zM6 753H5v1h1zm264 0h-1v1h1zm-176 0h-1v1h1zm88 88h-1v1h1zM6 841H5v1h1zm264 0h-1v1h1zm-176 0h-1v1h1zm154-110h-1v1h1zm-176 0h-1v1h1zm264 0h-1v1h1zm-176 0h-1v1h1zm88 88h-1v1h1zm-176 0h-1v1h1zm264 0h-1v1h1zm-176 0h-1v1h1zm88-44h-1v1h1zm-176 0h-1v1h1zm264 0h-1v1h1zm-176 0h-1v1h1zm88 88h-1v1h1zm-176 0h-1v1h1zm264 0h-1v1h1zm-176 0h-1v1h1zm44-132h-1v1h1zm-176 0h-1v1h1zm264 0h-1v1h1zm-176 0h-1v1h1zm88 88h-1v1h1zm-176 0h-1v1h1zm264 0h-1v1h1zm-176 0h-1v1h1zm88-44h-1v1h1zm-176 0h-1v1h1zm264 0h-1v1h1zm-176 0h-1v1h1zm88 88h-1v1h1zm-176 0h-1v1h1zm264 0h-1v1h1zm-176 0h-1v1h1zm132-154h-1v1h1zm-176 0h-1v1h1zm264 0h-1v1h1zm-176 0h-1v1h1zm88 88h-1v1h1zm-176 0h-1v1h1zm264 0h-1v1h1zm-176 0h-1v1h1zm88-44h-1v1h1zm-176 0h-1v1h1zm264 0h-1v1h1zm-176 0h-1v1h1zm88 88h-1v1h1zm-176 0h-1v1h1zm264 0h-1v1h1zm-176 0h-1v1h1zm44-132h-1v1h1zm-176 0h-1v1h1zm264 0h-1v1h1zm-176 0h-1v1h1zm88 88h-1v1h1zm-176 0h-1v1h1zm264 0h-1v1h1zm-176 0h-1v1h1zm88-44h-1v1h1zm-176 0h-1v1h1zm264 0h-1v1h1zm-176 0h-1v1h1zm88 88h-1v1h1zm-176 0h-1v1h1zm264 0h-1v1h1zm-176 0h-1v1h1z"/><use xlink:href="#a" y="539"/><path d="M226 742h-1v1h1zm-176 0h-1v1h1zm264 0h-1v1h1zm-176 0h-1v1h1zm88 88h-1v1h1zm-176 0h-1v1h1zm264 0h-1v1h1zm-176 0h-1v1h1zm88-44h-1v1h1zm-176 0h-1v1h1zm264 0h-1v1h1zm-176 0h-1v1h1zm88 88h-1v1h1zm-176 0h-1v1h1zm264 0h-1v1h1zm-176 0h-1v1h1zm44-132h-1v1h1zM6 742H5v1h1zm264 0h-1v1h1zm-176 0h-1v1h1zm88 88h-1v1h1zM6 830H5v1h1zm264 0h-1v1h1zm-176 0h-1v1h1zm88-44h-1v1h1zM6 786H5v1h1zm264 0h-1v1h1zm-176 0h-1v1h1zm88 88h-1v1h1zM6 874H5v1h1zm264 0h-1v1h1zm-176 0h-1v1h1zm132-154h-1v1h1zm-176 0h-1v1h1zm264 0h-1v1h1zm-176 0h-1v1h1zm88 88h-1v1h1zm-176 0h-1v1h1zm264 0h-1v1h1zm-176 0h-1v1h1zm88-44h-1v1h1zm-176 0h-1v1h1zm264 0h-1v1h1zm-176 0h-1v1h1zm88 88h-1v1h1zm-176 0h-1v1h1zm264 0h-1v1h1zm-176 0h-1v1h1zm44-132h-1v1h1zM6 720H5v1h1zm264 0h-1v1h1zm-176 0h-1v1h1zm88 88h-1v1h1zM6 808H5v1h1zm264 0h-1v1h1zm-176 0h-1v1h1zm88-44h-1v1h1zM6 764H5v1h1zm264 0h-1v1h1zm-176 0h-1v1h1zm88 88h-1v1h1zM6 852H5v1h1zm264 0h-1v1h1zm-176 0h-1v1h1zm154-110h-1v1h1zm-176 0h-1v1h1zm264 0h-1v1h1zm-176 0h-1v1h1zm88 88h-1v1h1zm-176 0h-1v1h1zm264 0h-1v1h1zm-176 0h-1v1h1zm88-44h-1v1h1zm-176 0h-1v1h1zm264 0h-1v1h1zm-176 0h-1v1h1zm88 88h-1v1h1zm-176 0h-1v1h1zm264 0h-1v1h1zm-176 0h-1v1h1zm44-132h-1v1h1zm-176 0h-1v1h1zm264 0h-1v1h1zm-176 0h-1v1h1zm88 88h-1v1h1zm-176 0h-1v1h1zm264 0h-1v1h1zm-176 0h-1v1h1zm88-44h-1v1h1zm-176 0h-1v1h1zm264 0h-1v1h1zm-176 0h-1v1h1zm88 88h-1v1h1zm-176 0h-1v1h1zm264 0h-1v1h1zm-176 0h-1v1h1zm132-154h-1v1h1zm-176 0h-1v1h1zm264 0h-1v1h1zm-176 0h-1v1h1zm88 88h-1v1h1zm-176 0h-1v1h1zm264 0h-1v1h1zm-176 0h-1v1h1zm88-44h-1v1h1zm-176 0h-1v1h1zm264 0h-1v1h1zm-176 0h-1v1h1zm88 88h-1v1h1zm-176 0h-1v1h1zm264 0h-1v1h1zm-176 0h-1v1h1zm44-132h-1v1h1zm-176 0h-1v1h1zm264 0h-1v1h1zm-176 0h-1v1h1zm88 88h-1v1h1zm-176 0h-1v1h1zm264 0h-1v1h1zm-176 0h-1v1h1zm88-44h-1v1h1zm-176 0h-1v1h1zm264 0h-1v1h1zm-176 0h-1v1h1zm88 88h-1v1h1zm-176 0h-1v1h1zm264 0h-1v1h1zm-176 0h-1v1h1zM6 885H5v1h1zm11 0h-1v1h1zm11 0h-1v1h1zm11 0h-1v1h1zm11 0h-1v1h1zm11 0h-1v1h1zm11 0h-1v1h1zm11 0h-1v1h1zm11 0h-1v1h1zm11 0h-1v1h1zm11 0h-1v1h1zm11 0h-1v1h1zm11 0h-1v1h1zm11 0h-1v1h1zm11 0h-1v1h1zm11 0h-1v1h1zm11 0h-1v1h1zm11 0h-1v1h1zm11 0h-1v1h1zm11 0h-1v1h1zm11 0h-1v1h1zm11 0h-1v1h1zm11 0h-1v1h1zm11 0h-1v1h1zm11 0h-1v1h1zm11 0h-1v1h1zm11 0h-1v1h1zm11 0h-1v1h1zm11 0h-1v1h1zm11 0h-1v1h1zm11 0h-1v1h1zm11 0h-1v1h1zM6 896H5v1h1zm11 0h-1v1h1zm11 0h-1v1h1zm11 0h-1v1h1zm11 0h-1v1h1zm11 0h-1v1h1zm11 0h-1v1h1zm11 0h-1v1h1zm11 0h-1v1h1zm11 0h-1v1h1zm11 0h-1v1h1zm11 0h-1v1h1zm11 0h-1v1h1zm11 0h-1v1h1zm11 0h-1v1h1zm11 0h-1v1h1zm11 0h-1v1h1zm11 0h-1v1h1zm11 0h-1v1h1zm11 0h-1v1h1zm11 0h-1v1h1zm11 0h-1v1h1zm11 0h-1v1h1zm11 0h-1v1h1zm11 0h-1v1h1zm11 0h-1v1h1zm11 0h-1v1h1zm11 0h-1v1h1zm11 0h-1v1h1zm11 0h-1v1h1zm11 0h-1v1h1zm11 0h-1v1h1zM589 27h-1v1h1zm-176 0h-1v1h1zm264 0h-1v1h1zm-176 0h-1v1h1zm88 88h-1v1h1zm-176 0h-1v1h1zm264 0h-1v1h1zm-176 0h-1v1h1zm88-44h-1v1h1zm-176 0h-1v1h1zm264 0h-1v1h1zm-176 0h-1v1h1zm88 88h-1v1h1zm-176 0h-1v1h1zm264 0h-1v1h1zm-176 0h-1v1h1zm44-132h-1v1h1zm-176 0h-1v1h1zm264 0h-1v1h1zm-176 0h-1v1h1zm88 88h-1v1h1zm-176 0h-1v1h1zm264 0h-1v1h1zm-176 0h-1v1h1zm88-44h-1v1h1zm-176 0h-1v1h1zm264 0h-1v1h1zm-176 0h-1v1h1zm88 88h-1v1h1zm-176 0h-1v1h1zm264 0h-1v1h1zm-176 0h-1v1h1zM589 5h-1v1h1zM413 5h-1v1h1zm264 0h-1v1h1zM501 5h-1v1h1zm88 88h-1v1h1zm-176 0h-1v1h1zm264 0h-1v1h1zm-176 0h-1v1h1zm88-44h-1v1h1zm-176 0h-1v1h1zm264 0h-1v1h1zm-176 0h-1v1h1zm88 88h-1v1h1zm-176 0h-1v1h1zm264 0h-1v1h1zm-176 0h-1v1h1zM545 5h-1v1h1zM369 5h-1v1h1zm264 0h-1v1h1zM457 5h-1v1h1zm88 88h-1v1h1zm-176 0h-1v1h1zm264 0h-1v1h1zm-176 0h-1v1h1zm88-44h-1v1h1zm-176 0h-1v1h1zm264 0h-1v1h1zm-176 0h-1v1h1zm88 88h-1v1h1zm-176 0h-1v1h1zm264 0h-1v1h1zm-176 0h-1v1h1zM611 27h-1v1h1zm-176 0h-1v1h1zm264 0h-1v1h1zm-176 0h-1v1h1zm88 88h-1v1h1zm-176 0h-1v1h1zm264 0h-1v1h1zm-176 0h-1v1h1zm88-44h-1v1h1zm-176 0h-1v1h1zm264 0h-1v1h1zm-176 0h-1v1h1zm88 88h-1v1h1zm-176 0h-1v1h1zm264 0h-1v1h1zm-176 0h-1v1h1zm44-132h-1v1h1zm-176 0h-1v1h1zm264 0h-1v1h1zm-176 0h-1v1h1zm88 88h-1v1h1zm-176 0h-1v1h1zm264 0h-1v1h1zm-176 0h-1v1h1zm88-44h-1v1h1zm-176 0h-1v1h1zm264 0h-1v1h1zm-176 0h-1v1h1zm88 88h-1v1h1zm-176 0h-1v1h1zm264 0h-1v1h1zm-176 0h-1v1h1zM611 5h-1v1h1zM435 5h-1v1h1zm264 0h-1v1h1zM523 5h-1v1h1zm88 88h-1v1h1zm-176 0h-1v1h1zm264 0h-1v1h1zm-176 0h-1v1h1zm88-44h-1v1h1zm-176 0h-1v1h1zm264 0h-1v1h1zm-176 0h-1v1h1zm88 88h-1v1h1zm-176 0h-1v1h1zm264 0h-1v1h1zm-176 0h-1v1h1zM567 5h-1v1h1zM391 5h-1v1h1zm264 0h-1v1h1zM479 5h-1v1h1zm88 88h-1v1h1zm-176 0h-1v1h1zm264 0h-1v1h1zm-176 0h-1v1h1zm88-44h-1v1h1zm-176 0h-1v1h1zm264 0h-1v1h1zm-176 0h-1v1h1zm88 88h-1v1h1zm-176 0h-1v1h1zm264 0h-1v1h1zm-176 0h-1v1h1zm99-110h-1v1h1zm-176 0h-1v1h1zm264 0h-1v1h1zm-176 0h-1v1h1zm88 88h-1v1h1zm-176 0h-1v1h1zm264 0h-1v1h1zm-176 0h-1v1h1zm88-44h-1v1h1zm-176 0h-1v1h1zm264 0h-1v1h1zm-176 0h-1v1h1zm88 88h-1v1h1zm-176 0h-1v1h1zm264 0h-1v1h1zm-176 0h-1v1h1zm44-132h-1v1h1zm-176 0h-1v1h1zm264 0h-1v1h1zm-176 0h-1v1h1zm88 88h-1v1h1zm-176 0h-1v1h1zm264 0h-1v1h1zm-176 0h-1v1h1zm88-44h-1v1h1zm-176 0h-1v1h1zm264 0h-1v1h1zm-176 0h-1v1h1zm88 88h-1v1h1zm-176 0h-1v1h1zm264 0h-1v1h1zm-176 0h-1v1h1zM578 5h-1v1h1zM402 5h-1v1h1zm264 0h-1v1h1zM490 5h-1v1h1zm88 88h-1v1h1zm-176 0h-1v1h1zm264 0h-1v1h1zm-176 0h-1v1h1zm88-44h-1v1h1zm-176 0h-1v1h1zm264 0h-1v1h1zm-176 0h-1v1h1zm88 88h-1v1h1zm-176 0h-1v1h1zm264 0h-1v1h1zm-176 0h-1v1h1zM534 5h-1v1h1zM358 5h-1v1h1zm264 0h-1v1h1zM446 5h-1v1h1zm88 88h-1v1h1zm-176 0h-1v1h1zm264 0h-1v1h1zm-176 0h-1v1h1zm88-44h-1v1h1zm-176 0h-1v1h1zm264 0h-1v1h1zm-176 0h-1v1h1zm88 88h-1v1h1zm-176 0h-1v1h1zm264 0h-1v1h1zm-176 0h-1v1h1zM600 27h-1v1h1zm-176 0h-1v1h1zm264 0h-1v1h1zm-176 0h-1v1h1zm88 88h-1v1h1zm-176 0h-1v1h1zm264 0h-1v1h1zm-176 0h-1v1h1zm88-44h-1v1h1zm-176 0h-1v1h1zm264 0h-1v1h1zm-176 0h-1v1h1zm88 88h-1v1h1zm-176 0h-1v1h1zm264 0h-1v1h1zm-176 0h-1v1h1zm44-132h-1v1h1zm-176 0h-1v1h1zm264 0h-1v1h1zm-176 0h-1v1h1zm88 88h-1v1h1zm-176 0h-1v1h1zm264 0h-1v1h1zm-176 0h-1v1h1zm88-44h-1v1h1zm-176 0h-1v1h1zm264 0h-1v1h1zm-176 0h-1v1h1zm88 88h-1v1h1zm-176 0h-1v1h1zm264 0h-1v1h1zm-176 0h-1v1h1zM600 5h-1v1h1zM424 5h-1v1h1zm264 0h-1v1h1zM512 5h-1v1h1zm88 88h-1v1h1zm-176 0h-1v1h1zm264 0h-1v1h1zm-176 0h-1v1h1zm88-44h-1v1h1zm-176 0h-1v1h1zm264 0h-1v1h1zm-176 0h-1v1h1zm88 88h-1v1h1zm-176 0h-1v1h1zm264 0h-1v1h1zm-176 0h-1v1h1zM556 5h-1v1h1zM380 5h-1v1h1zm264 0h-1v1h1zM468 5h-1v1h1zm88 88h-1v1h1zm-176 0h-1v1h1zm264 0h-1v1h1zm-176 0h-1v1h1zm88-44h-1v1h1zm-176 0h-1v1h1zm264 0h-1v1h1zm-176 0h-1v1h1zm88 88h-1v1h1zm-176 0h-1v1h1zm264 0h-1v1h1zm-176 0h-1v1h1zm121-99h-1v1h1zm-176 0h-1v1h1zm264 0h-1v1h1zm-176 0h-1v1h1zm88 88h-1v1h1zm-176 0h-1v1h1zm264 0h-1v1h1zm-176 0h-1v1h1zm88-44h-1v1h1zm-176 0h-1v1h1zm264 0h-1v1h1zm-176 0h-1v1h1zm88 88h-1v1h1zm-176 0h-1v1h1zm264 0h-1v1h1zm-176 0h-1v1h1zm44-132h-1v1h1zm-176 0h-1v1h1zm264 0h-1v1h1zm-176 0h-1v1h1zm88 88h-1v1h1zm-176 0h-1v1h1zm264 0h-1v1h1zm-176 0h-1v1h1zm88-44h-1v1h1zm-176 0h-1v1h1zm264 0h-1v1h1zm-176 0h-1v1h1zm88 88h-1v1h1zm-176 0h-1v1h1zm264 0h-1v1h1zm-176 0h-1v1h1zM589 16h-1v1h1zm-176 0h-1v1h1zm264 0h-1v1h1zm-176 0h-1v1h1zm88 88h-1v1h1zm-176 0h-1v1h1zm264 0h-1v1h1zm-176 0h-1v1h1zm88-44h-1v1h1zm-176 0h-1v1h1zm264 0h-1v1h1zm-176 0h-1v1h1zm88 88h-1v1h1zm-176 0h-1v1h1zm264 0h-1v1h1zm-176 0h-1v1h1zm44-132h-1v1h1zm-176 0h-1v1h1zm264 0h-1v1h1zm-176 0h-1v1h1zm88 88h-1v1h1zm-176 0h-1v1h1zm264 0h-1v1h1zm-176 0h-1v1h1zm88-44h-1v1h1zm-176 0h-1v1h1zm264 0h-1v1h1zm-176 0h-1v1h1zm88 88h-1v1h1zm-176 0h-1v1h1zm264 0h-1v1h1zm-176 0h-1v1h1zM611 38h-1v1h1zm-176 0h-1v1h1zm264 0h-1v1h1zm-176 0h-1v1h1zm88 88h-1v1h1zm-176 0h-1v1h1zm264 0h-1v1h1zm-176 0h-1v1h1zm88-44h-1v1h1zm-176 0h-1v1h1zm264 0h-1v1h1zm-176 0h-1v1h1zm88 88h-1v1h1zm-176 0h-1v1h1zm264 0h-1v1h1zm-176 0h-1v1h1zm44-132h-1v1h1zm-176 0h-1v1h1zm264 0h-1v1h1zm-176 0h-1v1h1zm88 88h-1v1h1zm-176 0h-1v1h1zm264 0h-1v1h1zm-176 0h-1v1h1zm88-44h-1v1h1zm-176 0h-1v1h1zm264 0h-1v1h1zm-176 0h-1v1h1zm88 88h-1v1h1zm-176 0h-1v1h1zm264 0h-1v1h1zm-176 0h-1v1h1zM611 16h-1v1h1zm-176 0h-1v1h1zm264 0h-1v1h1zm-176 0h-1v1h1zm88 88h-1v1h1zm-176 0h-1v1h1zm264 0h-1v1h1zm-176 0h-1v1h1zm88-44h-1v1h1zm-176 0h-1v1h1zm264 0h-1v1h1zm-176 0h-1v1h1zm88 88h-1v1h1zm-176 0h-1v1h1zm264 0h-1v1h1zm-176 0h-1v1h1zm44-132h-1v1h1zm-176 0h-1v1h1zm264 0h-1v1h1zm-176 0h-1v1h1zm88 88h-1v1h1zm-176 0h-1v1h1zm264 0h-1v1h1zm-176 0h-1v1h1zm88-44h-1v1h1zm-176 0h-1v1h1zm264 0h-1v1h1zm-176 0h-1v1h1zm88 88h-1v1h1zm-176 0h-1v1h1zm264 0h-1v1h1zm-176 0h-1v1h1zm99-110h-1v1h1zm-176 0h-1v1h1zm264 0h-1v1h1zm-176 0h-1v1h1zm88 88h-1v1h1zm-176 0h-1v1h1zm264 0h-1v1h1zm-176 0h-1v1h1zm88-44h-1v1h1zm-176 0h-1v1h1zm264 0h-1v1h1zm-176 0h-1v1h1zm88 88h-1v1h1zm-176 0h-1v1h1zm264 0h-1v1h1zm-176 0h-1v1h1zm44-132h-1v1h1zm-176 0h-1v1h1zm264 0h-1v1h1zm-176 0h-1v1h1zm88 88h-1v1h1zm-176 0h-1v1h1zm264 0h-1v1h1zm-176 0h-1v1h1zm88-44h-1v1h1zm-176 0h-1v1h1zm264 0h-1v1h1zm-176 0h-1v1h1zm88 88h-1v1h1zm-176 0h-1v1h1zm264 0h-1v1h1zm-176 0h-1v1h1zM578 16h-1v1h1zm-176 0h-1v1h1zm264 0h-1v1h1zm-176 0h-1v1h1zm88 88h-1v1h1zm-176 0h-1v1h1zm264 0h-1v1h1zm-176 0h-1v1h1zm88-44h-1v1h1zm-176 0h-1v1h1zm264 0h-1v1h1zm-176 0h-1v1h1zm88 88h-1v1h1zm-176 0h-1v1h1zm264 0h-1v1h1zm-176 0h-1v1h1zm44-132h-1v1h1zm-176 0h-1v1h1zm264 0h-1v1h1zm-176 0h-1v1h1zm88 88h-1v1h1zm-176 0h-1v1h1zm264 0h-1v1h1zm-176 0h-1v1h1zm88-44h-1v1h1zm-176 0h-1v1h1zm264 0h-1v1h1zm-176 0h-1v1h1zm88 88h-1v1h1zm-176 0h-1v1h1zm264 0h-1v1h1zm-176 0h-1v1h1zM600 38h-1v1h1zm-176 0h-1v1h1zm264 0h-1v1h1zm-176 0h-1v1h1zm88 88h-1v1h1zm-176 0h-1v1h1zm264 0h-1v1h1zm-176 0h-1v1h1zm88-44h-1v1h1zm-176 0h-1v1h1zm264 0h-1v1h1zm-176 0h-1v1h1zm88 88h-1v1h1zm-176 0h-1v1h1zm264 0h-1v1h1zm-176 0h-1v1h1zm44-132h-1v1h1zm-176 0h-1v1h1zm264 0h-1v1h1zm-176 0h-1v1h1zm88 88h-1v1h1zm-176 0h-1v1h1zm264 0h-1v1h1zm-176 0h-1v1h1zm88-44h-1v1h1zm-176 0h-1v1h1zm264 0h-1v1h1zm-176 0h-1v1h1zm88 88h-1v1h1zm-176 0h-1v1h1zm264 0h-1v1h1zm-176 0h-1v1h1zM600 16h-1v1h1zm-176 0h-1v1h1zm264 0h-1v1h1zm-176 0h-1v1h1zm88 88h-1v1h1zm-176 0h-1v1h1zm264 0h-1v1h1zm-176 0h-1v1h1zm88-44h-1v1h1zm-176 0h-1v1h1zm264 0h-1v1h1zm-176 0h-1v1h1zm88 88h-1v1h1zm-176 0h-1v1h1zm264 0h-1v1h1zm-176 0h-1v1h1zm44-132h-1v1h1zm-176 0h-1v1h1zm264 0h-1v1h1zm-176 0h-1v1h1zm88 88h-1v1h1zm-176 0h-1v1h1zm264 0h-1v1h1zm-176 0h-1v1h1zm88-44h-1v1h1zm-176 0h-1v1h1zm264 0h-1v1h1zm-176 0h-1v1h1zm88 88h-1v1h1zm-176 0h-1v1h1zm264 0h-1v1h1zm-176 0h-1v1h1zm121 55h-1v1h1zm-176 0h-1v1h1zm264 0h-1v1h1zm-176 0h-1v1h1zm88 88h-1v1h1zm-176 0h-1v1h1zm264 0h-1v1h1zm-176 0h-1v1h1zm88-44h-1v1h1zm-176 0h-1v1h1zm264 0h-1v1h1zm-176 0h-1v1h1zm88 88h-1v1h1zm-176 0h-1v1h1zm264 0h-1v1h1zm-176 0h-1v1h1zm44-132h-1v1h1zm-176 0h-1v1h1zm264 0h-1v1h1zm-176 0h-1v1h1zm88 88h-1v1h1zm-176 0h-1v1h1zm264 0h-1v1h1zm-176 0h-1v1h1zm88-44h-1v1h1zm-176 0h-1v1h1zm264 0h-1v1h1zm-176 0h-1v1h1zm88 88h-1v1h1zm-176 0h-1v1h1zm264 0h-1v1h1zm-176 0h-1v1h1zm132-154h-1v1h1zm-176 0h-1v1h1zm264 0h-1v1h1zm-176 0h-1v1h1zm88 88h-1v1h1zm-176 0h-1v1h1zm264 0h-1v1h1zm-176 0h-1v1h1zm88-44h-1v1h1zm-176 0h-1v1h1zm264 0h-1v1h1zm-176 0h-1v1h1zm88 88h-1v1h1zm-176 0h-1v1h1zm264 0h-1v1h1zm-176 0h-1v1h1zm44-132h-1v1h1zm-176 0h-1v1h1zm264 0h-1v1h1zm-176 0h-1v1h1zm88 88h-1v1h1zm-176 0h-1v1h1zm264 0h-1v1h1zm-176 0h-1v1h1zm88-44h-1v1h1zm-176 0h-1v1h1zm264 0h-1v1h1zm-176 0h-1v1h1zm88 88h-1v1h1zm-176 0h-1v1h1zm264 0h-1v1h1zm-176 0h-1v1h1z"/><use xlink:href="#b"/><use xlink:href="#c"/><use xlink:href="#b" y="11"/><use xlink:href="#d"/><use xlink:href="#b" y="176"/><use xlink:href="#c" y="176"/><use xlink:href="#b" y="187"/><use xlink:href="#d" y="176"/><use xlink:href="#b" y="352"/><use xlink:href="#c" y="352"/><use xlink:href="#b" y="363"/><use xlink:href="#d" y="352"/><use xlink:href="#b" y="528"/><use xlink:href="#c" y="528"/><use xlink:href="#b" y="539"/><use xlink:href="#e"/><path d="M941 27h-1v1h1zm-176 0h-1v1h1zm264 0h-1v1h1zm-176 0h-1v1h1zm88 88h-1v1h1zm-176 0h-1v1h1zm264 0h-1v1h1zm-176 0h-1v1h1zm88-44h-1v1h1zm-176 0h-1v1h1zm264 0h-1v1h1zm-176 0h-1v1h1zm88 88h-1v1h1zm-176 0h-1v1h1zm264 0h-1v1h1zm-176 0h-1v1h1zm44-132h-1v1h1zm-176 0h-1v1h1zm264 0h-1v1h1zm-176 0h-1v1h1zm88 88h-1v1h1zm-176 0h-1v1h1zm264 0h-1v1h1zm-176 0h-1v1h1zm88-44h-1v1h1zm-176 0h-1v1h1zm264 0h-1v1h1zm-176 0h-1v1h1zm88 88h-1v1h1zm-176 0h-1v1h1zm264 0h-1v1h1zm-176 0h-1v1h1zM941 5h-1v1h1zM765 5h-1v1h1zm264 0h-1v1h1zM853 5h-1v1h1zm88 88h-1v1h1zm-176 0h-1v1h1zm264 0h-1v1h1zm-176 0h-1v1h1zm88-44h-1v1h1zm-176 0h-1v1h1zm264 0h-1v1h1zm-176 0h-1v1h1zm88 88h-1v1h1zm-176 0h-1v1h1zm264 0h-1v1h1zm-176 0h-1v1h1zM897 5h-1v1h1zM721 5h-1v1h1zm264 0h-1v1h1zM809 5h-1v1h1zm88 88h-1v1h1zm-176 0h-1v1h1zm264 0h-1v1h1zm-176 0h-1v1h1zm88-44h-1v1h1zm-176 0h-1v1h1zm264 0h-1v1h1zm-176 0h-1v1h1zm88 88h-1v1h1zm-176 0h-1v1h1zm264 0h-1v1h1zm-176 0h-1v1h1zM963 27h-1v1h1zm-176 0h-1v1h1zm264 0h-1v1h1zm-176 0h-1v1h1zm88 88h-1v1h1zm-176 0h-1v1h1zm264 0h-1v1h1zm-176 0h-1v1h1zm88-44h-1v1h1zm-176 0h-1v1h1zm264 0h-1v1h1zm-176 0h-1v1h1zm88 88h-1v1h1zm-176 0h-1v1h1zm264 0h-1v1h1zm-176 0h-1v1h1zm44-132h-1v1h1zm-176 0h-1v1h1zm264 0h-1v1h1zm-176 0h-1v1h1zm88 88h-1v1h1zm-176 0h-1v1h1zm264 0h-1v1h1zm-176 0h-1v1h1zm88-44h-1v1h1zm-176 0h-1v1h1zm264 0h-1v1h1zm-176 0h-1v1h1zm88 88h-1v1h1zm-176 0h-1v1h1zm264 0h-1v1h1zm-176 0h-1v1h1zM963 5h-1v1h1zM787 5h-1v1h1zm264 0h-1v1h1zM875 5h-1v1h1zm88 88h-1v1h1zm-176 0h-1v1h1zm264 0h-1v1h1zm-176 0h-1v1h1zm88-44h-1v1h1zm-176 0h-1v1h1zm264 0h-1v1h1zm-176 0h-1v1h1zm88 88h-1v1h1zm-176 0h-1v1h1zm264 0h-1v1h1zm-176 0h-1v1h1zM919 5h-1v1h1zM743 5h-1v1h1zm264 0h-1v1h1zM831 5h-1v1h1zm88 88h-1v1h1zm-176 0h-1v1h1zm264 0h-1v1h1zm-176 0h-1v1h1zm88-44h-1v1h1zm-176 0h-1v1h1zm264 0h-1v1h1zm-176 0h-1v1h1zm88 88h-1v1h1zm-176 0h-1v1h1zm264 0h-1v1h1zm-176 0h-1v1h1zM930 27h-1v1h1zm-176 0h-1v1h1zm264 0h-1v1h1zm-176 0h-1v1h1zm88 88h-1v1h1zm-176 0h-1v1h1zm264 0h-1v1h1zm-176 0h-1v1h1zm88-44h-1v1h1zm-176 0h-1v1h1zm264 0h-1v1h1zm-176 0h-1v1h1zm88 88h-1v1h1zm-176 0h-1v1h1zm264 0h-1v1h1zm-176 0h-1v1h1zm44-132h-1v1h1zm-176 0h-1v1h1zm264 0h-1v1h1zm-176 0h-1v1h1zm88 88h-1v1h1zm-176 0h-1v1h1zm264 0h-1v1h1zm-176 0h-1v1h1zm88-44h-1v1h1zm-176 0h-1v1h1zm264 0h-1v1h1zm-176 0h-1v1h1zm88 88h-1v1h1zm-176 0h-1v1h1zm264 0h-1v1h1zm-176 0h-1v1h1zM930 5h-1v1h1zM754 5h-1v1h1zm264 0h-1v1h1zM842 5h-1v1h1zm88 88h-1v1h1zm-176 0h-1v1h1zm264 0h-1v1h1zm-176 0h-1v1h1zm88-44h-1v1h1zm-176 0h-1v1h1zm264 0h-1v1h1zm-176 0h-1v1h1zm88 88h-1v1h1zm-176 0h-1v1h1zm264 0h-1v1h1zm-176 0h-1v1h1zM886 5h-1v1h1zM710 5h-1v1h1zm264 0h-1v1h1zM798 5h-1v1h1zm88 88h-1v1h1zm-176 0h-1v1h1zm264 0h-1v1h1zm-176 0h-1v1h1zm88-44h-1v1h1zm-176 0h-1v1h1zm264 0h-1v1h1zm-176 0h-1v1h1zm88 88h-1v1h1zm-176 0h-1v1h1zm264 0h-1v1h1zm-176 0h-1v1h1zM952 27h-1v1h1zm-176 0h-1v1h1zm264 0h-1v1h1zm-176 0h-1v1h1zm88 88h-1v1h1zm-176 0h-1v1h1zm264 0h-1v1h1zm-176 0h-1v1h1zm88-44h-1v1h1zm-176 0h-1v1h1zm264 0h-1v1h1zm-176 0h-1v1h1zm88 88h-1v1h1zm-176 0h-1v1h1zm264 0h-1v1h1zm-176 0h-1v1h1zm44-132h-1v1h1zm-176 0h-1v1h1zm264 0h-1v1h1zm-176 0h-1v1h1zm88 88h-1v1h1zm-176 0h-1v1h1zm264 0h-1v1h1zm-176 0h-1v1h1zm88-44h-1v1h1zm-176 0h-1v1h1zm264 0h-1v1h1zm-176 0h-1v1h1zm88 88h-1v1h1zm-176 0h-1v1h1zm264 0h-1v1h1zm-176 0h-1v1h1zM952 5h-1v1h1zM776 5h-1v1h1zm264 0h-1v1h1zM864 5h-1v1h1zm88 88h-1v1h1zm-176 0h-1v1h1zm264 0h-1v1h1zm-176 0h-1v1h1zm88-44h-1v1h1zm-176 0h-1v1h1zm264 0h-1v1h1zm-176 0h-1v1h1zm88 88h-1v1h1zm-176 0h-1v1h1zm264 0h-1v1h1zm-176 0h-1v1h1zM908 5h-1v1h1zM732 5h-1v1h1zm264 0h-1v1h1zM820 5h-1v1h1zm88 88h-1v1h1zm-176 0h-1v1h1zm264 0h-1v1h1zm-176 0h-1v1h1zm88-44h-1v1h1zm-176 0h-1v1h1zm264 0h-1v1h1zm-176 0h-1v1h1zm88 88h-1v1h1zm-176 0h-1v1h1zm264 0h-1v1h1zm-176 0h-1v1h1zM941 38h-1v1h1zm-176 0h-1v1h1zm264 0h-1v1h1zm-176 0h-1v1h1zm88 88h-1v1h1zm-176 0h-1v1h1zm264 0h-1v1h1zm-176 0h-1v1h1zm88-44h-1v1h1zm-176 0h-1v1h1zm264 0h-1v1h1zm-176 0h-1v1h1zm88 88h-1v1h1zm-176 0h-1v1h1zm264 0h-1v1h1zm-176 0h-1v1h1zm44-132h-1v1h1zm-176 0h-1v1h1zm264 0h-1v1h1zm-176 0h-1v1h1zm88 88h-1v1h1zm-176 0h-1v1h1zm264 0h-1v1h1zm-176 0h-1v1h1zm88-44h-1v1h1zm-176 0h-1v1h1zm264 0h-1v1h1zm-176 0h-1v1h1zm88 88h-1v1h1zm-176 0h-1v1h1zm264 0h-1v1h1zm-176 0h-1v1h1zM941 16h-1v1h1zm-176 0h-1v1h1zm264 0h-1v1h1zm-176 0h-1v1h1zm88 88h-1v1h1zm-176 0h-1v1h1zm264 0h-1v1h1zm-176 0h-1v1h1zm88-44h-1v1h1zm-176 0h-1v1h1zm264 0h-1v1h1zm-176 0h-1v1h1zm88 88h-1v1h1zm-176 0h-1v1h1zm264 0h-1v1h1zm-176 0h-1v1h1zm44-132h-1v1h1zm-176 0h-1v1h1zm264 0h-1v1h1zm-176 0h-1v1h1zm88 88h-1v1h1zm-176 0h-1v1h1zm264 0h-1v1h1zm-176 0h-1v1h1zm88-44h-1v1h1zm-176 0h-1v1h1zm264 0h-1v1h1zm-176 0h-1v1h1zm88 88h-1v1h1zm-176 0h-1v1h1zm264 0h-1v1h1zm-176 0h-1v1h1zM963 38h-1v1h1zm-176 0h-1v1h1zm264 0h-1v1h1zm-176 0h-1v1h1zm88 88h-1v1h1zm-176 0h-1v1h1zm264 0h-1v1h1zm-176 0h-1v1h1zm88-44h-1v1h1zm-176 0h-1v1h1zm264 0h-1v1h1zm-176 0h-1v1h1zm88 88h-1v1h1zm-176 0h-1v1h1zm264 0h-1v1h1zm-176 0h-1v1h1zm44-132h-1v1h1zm-176 0h-1v1h1zm264 0h-1v1h1zm-176 0h-1v1h1zm88 88h-1v1h1zm-176 0h-1v1h1zm264 0h-1v1h1zm-176 0h-1v1h1zm88-44h-1v1h1zm-176 0h-1v1h1zm264 0h-1v1h1zm-176 0h-1v1h1zm88 88h-1v1h1zm-176 0h-1v1h1zm264 0h-1v1h1zm-176 0h-1v1h1zM963 16h-1v1h1zm-176 0h-1v1h1zm264 0h-1v1h1zm-176 0h-1v1h1zm88 88h-1v1h1zm-176 0h-1v1h1zm264 0h-1v1h1zm-176 0h-1v1h1zm88-44h-1v1h1zm-176 0h-1v1h1zm264 0h-1v1h1zm-176 0h-1v1h1zm88 88h-1v1h1zm-176 0h-1v1h1zm264 0h-1v1h1zm-176 0h-1v1h1zm44-132h-1v1h1zm-176 0h-1v1h1zm264 0h-1v1h1zm-176 0h-1v1h1zm88 88h-1v1h1zm-176 0h-1v1h1zm264 0h-1v1h1zm-176 0h-1v1h1zm88-44h-1v1h1zm-176 0h-1v1h1zm264 0h-1v1h1zm-176 0h-1v1h1zm88 88h-1v1h1zm-176 0h-1v1h1zm264 0h-1v1h1zm-176 0h-1v1h1zM930 38h-1v1h1zm-176 0h-1v1h1zm264 0h-1v1h1zm-176 0h-1v1h1zm88 88h-1v1h1zm-176 0h-1v1h1zm264 0h-1v1h1zm-176 0h-1v1h1zm88-44h-1v1h1zm-176 0h-1v1h1zm264 0h-1v1h1zm-176 0h-1v1h1zm88 88h-1v1h1zm-176 0h-1v1h1zm264 0h-1v1h1zm-176 0h-1v1h1zm44-132h-1v1h1zm-176 0h-1v1h1zm264 0h-1v1h1zm-176 0h-1v1h1zm88 88h-1v1h1zm-176 0h-1v1h1zm264 0h-1v1h1zm-176 0h-1v1h1zm88-44h-1v1h1zm-176 0h-1v1h1zm264 0h-1v1h1zm-176 0h-1v1h1zm88 88h-1v1h1zm-176 0h-1v1h1zm264 0h-1v1h1zm-176 0h-1v1h1zM930 16h-1v1h1zm-176 0h-1v1h1zm264 0h-1v1h1zm-176 0h-1v1h1zm88 88h-1v1h1zm-176 0h-1v1h1zm264 0h-1v1h1zm-176 0h-1v1h1zm88-44h-1v1h1zm-176 0h-1v1h1zm264 0h-1v1h1zm-176 0h-1v1h1zm88 88h-1v1h1zm-176 0h-1v1h1zm264 0h-1v1h1zm-176 0h-1v1h1zm44-132h-1v1h1zm-176 0h-1v1h1zm264 0h-1v1h1zm-176 0h-1v1h1zm88 88h-1v1h1zm-176 0h-1v1h1zm264 0h-1v1h1zm-176 0h-1v1h1zm88-44h-1v1h1zm-176 0h-1v1h1zm264 0h-1v1h1zm-176 0h-1v1h1zm88 88h-1v1h1zm-176 0h-1v1h1zm264 0h-1v1h1zm-176 0h-1v1h1zM952 38h-1v1h1zm-176 0h-1v1h1zm264 0h-1v1h1zm-176 0h-1v1h1zm88 88h-1v1h1zm-176 0h-1v1h1zm264 0h-1v1h1zm-176 0h-1v1h1zm88-44h-1v1h1zm-176 0h-1v1h1zm264 0h-1v1h1zm-176 0h-1v1h1zm88 88h-1v1h1zm-176 0h-1v1h1zm264 0h-1v1h1zm-176 0h-1v1h1zm44-132h-1v1h1zm-176 0h-1v1h1zm264 0h-1v1h1zm-176 0h-1v1h1zm88 88h-1v1h1zm-176 0h-1v1h1zm264 0h-1v1h1zm-176 0h-1v1h1zm88-44h-1v1h1zm-176 0h-1v1h1zm264 0h-1v1h1zm-176 0h-1v1h1zm88 88h-1v1h1zm-176 0h-1v1h1zm264 0h-1v1h1zm-176 0h-1v1h1zM952 16h-1v1h1zm-176 0h-1v1h1zm264 0h-1v1h1zm-176 0h-1v1h1zm88 88h-1v1h1zm-176 0h-1v1h1zm264 0h-1v1h1zm-176 0h-1v1h1zm88-44h-1v1h1zm-176 0h-1v1h1zm264 0h-1v1h1zm-176 0h-1v1h1zm88 88h-1v1h1zm-176 0h-1v1h1zm264 0h-1v1h1zm-176 0h-1v1h1zm44-132h-1v1h1zm-176 0h-1v1h1zm264 0h-1v1h1zm-176 0h-1v1h1zm88 88h-1v1h1zm-176 0h-1v1h1zm264 0h-1v1h1zm-176 0h-1v1h1zm88-44h-1v1h1zm-176 0h-1v1h1zm264 0h-1v1h1zm-176 0h-1v1h1zm88 88h-1v1h1zm-176 0h-1v1h1zm264 0h-1v1h1zm-176 0h-1v1h1z"/><use x="704" xlink:href="#a"/><use x="693" xlink:href="#a"/><use x="704" xlink:href="#a" y="11"/><use x="693" xlink:href="#a" y="11"/><use x="704" xlink:href="#a" y="176"/><use x="693" xlink:href="#a" y="176"/><use x="704" xlink:href="#a" y="187"/><use x="693" xlink:href="#a" y="187"/><use x="704" xlink:href="#a" y="352"/><use x="693" xlink:href="#a" y="352"/><use x="704" xlink:href="#a" y="363"/><use x="693" xlink:href="#a" y="363"/><use x="704" xlink:href="#a" y="528"/><use x="693" xlink:href="#a" y="528"/><use x="704" xlink:href="#a" y="539"/><use x="693" xlink:href="#a" y="539"/><path d="M710 885h-1v1h1zm11 0h-1v1h1zm11 0h-1v1h1zm11 0h-1v1h1zm11 0h-1v1h1zm11 0h-1v1h1zm11 0h-1v1h1zm11 0h-1v1h1zm11 0h-1v1h1zm11 0h-1v1h1zm11 0h-1v1h1zm11 0h-1v1h1zm11 0h-1v1h1zm11 0h-1v1h1zm11 0h-1v1h1zm11 0h-1v1h1zm11 0h-1v1h1zm11 0h-1v1h1zm11 0h-1v1h1zm11 0h-1v1h1zm11 0h-1v1h1zm11 0h-1v1h1zm11 0h-1v1h1zm11 0h-1v1h1zm11 0h-1v1h1zm11 0h-1v1h1zm11 0h-1v1h1zm11 0h-1v1h1zm11 0h-1v1h1zm11 0h-1v1h1zm11 0h-1v1h1zm11 0h-1v1h1zm-341 11h-1v1h1zm11 0h-1v1h1zm11 0h-1v1h1zm11 0h-1v1h1zm11 0h-1v1h1zm11 0h-1v1h1zm11 0h-1v1h1zm11 0h-1v1h1zm11 0h-1v1h1zm11 0h-1v1h1zm11 0h-1v1h1zm11 0h-1v1h1zm11 0h-1v1h1zm11 0h-1v1h1zm11 0h-1v1h1zm11 0h-1v1h1zm11 0h-1v1h1zm11 0h-1v1h1zm11 0h-1v1h1zm11 0h-1v1h1zm11 0h-1v1h1zm11 0h-1v1h1zm11 0h-1v1h1zm11 0h-1v1h1zm11 0h-1v1h1zm11 0h-1v1h1zm11 0h-1v1h1zm11 0h-1v1h1zm11 0h-1v1h1zm11 0h-1v1h1zm11 0h-1v1h1zm11 0h-1v1h1zm242-869h-1v1h1zm-176 0h-1v1h1zm264 0h-1v1h1zm-176 0h-1v1h1zm88 88h-1v1h1zm-176 0h-1v1h1zm264 0h-1v1h1zm-176 0h-1v1h1zm88-44h-1v1h1zm-176 0h-1v1h1zm264 0h-1v1h1zm-176 0h-1v1h1zm88 88h-1v1h1zm-176 0h-1v1h1zm264 0h-1v1h1zm-176 0h-1v1h1zm44-132h-1v1h1zm-176 0h-1v1h1zm264 0h-1v1h1zm-176 0h-1v1h1zm88 88h-1v1h1zm-176 0h-1v1h1zm264 0h-1v1h1zm-176 0h-1v1h1zm88-44h-1v1h1zm-176 0h-1v1h1zm264 0h-1v1h1zm-176 0h-1v1h1zm88 88h-1v1h1zm-176 0h-1v1h1zm264 0h-1v1h1zm-176 0h-1v1h1zM1293 5h-1v1h1zm-176 0h-1v1h1zm264 0h-1v1h1zm-176 0h-1v1h1zm88 88h-1v1h1zm-176 0h-1v1h1zm264 0h-1v1h1zm-176 0h-1v1h1zm88-44h-1v1h1zm-176 0h-1v1h1zm264 0h-1v1h1zm-176 0h-1v1h1zm88 88h-1v1h1zm-176 0h-1v1h1zm264 0h-1v1h1zm-176 0h-1v1h1zm44-132h-1v1h1zm-176 0h-1v1h1zm264 0h-1v1h1zm-176 0h-1v1h1zm88 88h-1v1h1zm-176 0h-1v1h1zm264 0h-1v1h1zm-176 0h-1v1h1zm88-44h-1v1h1zm-176 0h-1v1h1zm264 0h-1v1h1zm-176 0h-1v1h1zm88 88h-1v1h1zm-176 0h-1v1h1zm264 0h-1v1h1zm-176 0h-1v1h1zM1315 27h-1v1h1zm-176 0h-1v1h1zm264 0h-1v1h1zm-176 0h-1v1h1zm88 88h-1v1h1zm-176 0h-1v1h1zm264 0h-1v1h1zm-176 0h-1v1h1zm88-44h-1v1h1zm-176 0h-1v1h1zm264 0h-1v1h1zm-176 0h-1v1h1zm88 88h-1v1h1zm-176 0h-1v1h1zm264 0h-1v1h1zm-176 0h-1v1h1zm44-132h-1v1h1zm-176 0h-1v1h1zm264 0h-1v1h1zm-176 0h-1v1h1zm88 88h-1v1h1zm-176 0h-1v1h1zm264 0h-1v1h1zm-176 0h-1v1h1zm88-44h-1v1h1zm-176 0h-1v1h1zm264 0h-1v1h1zm-176 0h-1v1h1zm88 88h-1v1h1zm-176 0h-1v1h1zm264 0h-1v1h1zm-176 0h-1v1h1zM1315 5h-1v1h1zm-176 0h-1v1h1zm264 0h-1v1h1zm-176 0h-1v1h1zm88 88h-1v1h1zm-176 0h-1v1h1zm264 0h-1v1h1zm-176 0h-1v1h1zm88-44h-1v1h1zm-176 0h-1v1h1zm264 0h-1v1h1zm-176 0h-1v1h1zm88 88h-1v1h1zm-176 0h-1v1h1zm264 0h-1v1h1zm-176 0h-1v1h1zm44-132h-1v1h1zm-176 0h-1v1h1zm264 0h-1v1h1zm-176 0h-1v1h1zm88 88h-1v1h1zm-176 0h-1v1h1zm264 0h-1v1h1zm-176 0h-1v1h1zm88-44h-1v1h1zm-176 0h-1v1h1zm264 0h-1v1h1zm-176 0h-1v1h1zm88 88h-1v1h1zm-176 0h-1v1h1zm264 0h-1v1h1zm-176 0h-1v1h1zm99-110h-1v1h1zm-176 0h-1v1h1zm264 0h-1v1h1zm-176 0h-1v1h1zm88 88h-1v1h1zm-176 0h-1v1h1zm264 0h-1v1h1zm-176 0h-1v1h1zm88-44h-1v1h1zm-176 0h-1v1h1zm264 0h-1v1h1zm-176 0h-1v1h1zm88 88h-1v1h1zm-176 0h-1v1h1zm264 0h-1v1h1zm-176 0h-1v1h1zm44-132h-1v1h1zm-176 0h-1v1h1zm264 0h-1v1h1zm-176 0h-1v1h1zm88 88h-1v1h1zm-176 0h-1v1h1zm264 0h-1v1h1zm-176 0h-1v1h1zm88-44h-1v1h1zm-176 0h-1v1h1zm264 0h-1v1h1zm-176 0h-1v1h1zm88 88h-1v1h1zm-176 0h-1v1h1zm264 0h-1v1h1zm-176 0h-1v1h1zM1282 5h-1v1h1zm-176 0h-1v1h1zm264 0h-1v1h1zm-176 0h-1v1h1zm88 88h-1v1h1zm-176 0h-1v1h1zm264 0h-1v1h1zm-176 0h-1v1h1zm88-44h-1v1h1zm-176 0h-1v1h1zm264 0h-1v1h1zm-176 0h-1v1h1zm88 88h-1v1h1zm-176 0h-1v1h1zm264 0h-1v1h1zm-176 0h-1v1h1zm44-132h-1v1h1zm-176 0h-1v1h1zm264 0h-1v1h1zm-176 0h-1v1h1zm88 88h-1v1h1zm-176 0h-1v1h1zm264 0h-1v1h1zm-176 0h-1v1h1zm88-44h-1v1h1zm-176 0h-1v1h1zm264 0h-1v1h1zm-176 0h-1v1h1zm88 88h-1v1h1zm-176 0h-1v1h1zm264 0h-1v1h1zm-176 0h-1v1h1zM1304 27h-1v1h1zm-176 0h-1v1h1zm264 0h-1v1h1zm-176 0h-1v1h1zm88 88h-1v1h1zm-176 0h-1v1h1zm264 0h-1v1h1zm-176 0h-1v1h1zm88-44h-1v1h1zm-176 0h-1v1h1zm264 0h-1v1h1zm-176 0h-1v1h1zm88 88h-1v1h1zm-176 0h-1v1h1zm264 0h-1v1h1zm-176 0h-1v1h1zm44-132h-1v1h1zm-176 0h-1v1h1zm264 0h-1v1h1zm-176 0h-1v1h1zm88 88h-1v1h1zm-176 0h-1v1h1zm264 0h-1v1h1zm-176 0h-1v1h1zm88-44h-1v1h1zm-176 0h-1v1h1zm264 0h-1v1h1zm-176 0h-1v1h1zm88 88h-1v1h1zm-176 0h-1v1h1zm264 0h-1v1h1zm-176 0h-1v1h1zM1304 5h-1v1h1zm-176 0h-1v1h1zm264 0h-1v1h1zm-176 0h-1v1h1zm88 88h-1v1h1zm-176 0h-1v1h1zm264 0h-1v1h1zm-176 0h-1v1h1zm88-44h-1v1h1zm-176 0h-1v1h1zm264 0h-1v1h1zm-176 0h-1v1h1zm88 88h-1v1h1zm-176 0h-1v1h1zm264 0h-1v1h1zm-176 0h-1v1h1zm44-132h-1v1h1zm-176 0h-1v1h1zm264 0h-1v1h1zm-176 0h-1v1h1zm88 88h-1v1h1zm-176 0h-1v1h1zm264 0h-1v1h1zm-176 0h-1v1h1zm88-44h-1v1h1zm-176 0h-1v1h1zm264 0h-1v1h1zm-176 0h-1v1h1zm88 88h-1v1h1zm-176 0h-1v1h1zm264 0h-1v1h1zm-176 0h-1v1h1zm121-99h-1v1h1zm-176 0h-1v1h1zm264 0h-1v1h1zm-176 0h-1v1h1zm88 88h-1v1h1zm-176 0h-1v1h1zm264 0h-1v1h1zm-176 0h-1v1h1zm88-44h-1v1h1zm-176 0h-1v1h1zm264 0h-1v1h1zm-176 0h-1v1h1zm88 88h-1v1h1zm-176 0h-1v1h1zm264 0h-1v1h1zm-176 0h-1v1h1zm44-132h-1v1h1zm-176 0h-1v1h1zm264 0h-1v1h1zm-176 0h-1v1h1zm88 88h-1v1h1zm-176 0h-1v1h1zm264 0h-1v1h1zm-176 0h-1v1h1zm88-44h-1v1h1zm-176 0h-1v1h1zm264 0h-1v1h1zm-176 0h-1v1h1zm88 88h-1v1h1zm-176 0h-1v1h1zm264 0h-1v1h1zm-176 0h-1v1h1zm132-154h-1v1h1zm-176 0h-1v1h1zm264 0h-1v1h1zm-176 0h-1v1h1zm88 88h-1v1h1zm-176 0h-1v1h1zm264 0h-1v1h1zm-176 0h-1v1h1zm88-44h-1v1h1zm-176 0h-1v1h1zm264 0h-1v1h1zm-176 0h-1v1h1zm88 88h-1v1h1zm-176 0h-1v1h1zm264 0h-1v1h1zm-176 0h-1v1h1zm44-132h-1v1h1zm-176 0h-1v1h1zm264 0h-1v1h1zm-176 0h-1v1h1zm88 88h-1v1h1zm-176 0h-1v1h1zm264 0h-1v1h1zm-176 0h-1v1h1zm88-44h-1v1h1zm-176 0h-1v1h1zm264 0h-1v1h1zm-176 0h-1v1h1zm88 88h-1v1h1zm-176 0h-1v1h1zm264 0h-1v1h1zm-176 0h-1v1h1z"/><use x="704" xlink:href="#b" y="-165"/><use x="704" xlink:href="#d" y="-176"/><use x="704" xlink:href="#b"/><use x="704" xlink:href="#c"/><use x="704" xlink:href="#b" y="11"/><use x="704" xlink:href="#d"/><use x="704" xlink:href="#b" y="176"/><use x="704" xlink:href="#c" y="176"/><use x="704" xlink:href="#b" y="187"/><use x="704" xlink:href="#d" y="176"/><use x="704" xlink:href="#b" y="352"/><use x="704" xlink:href="#c" y="352"/><use x="704" xlink:href="#b" y="363"/><use x="704" xlink:href="#d" y="352"/><use x="704" xlink:href="#b" y="528"/><use x="704" xlink:href="#c" y="528"/><use x="704" xlink:href="#b" y="539"/><use x="704" xlink:href="#e"/><path d="M1645 27h-1v1h1zm-176 0h-1v1h1zm88 0h-1v1h1zm88 88h-1v1h1zm-176 0h-1v1h1zm88 0h-1v1h1zm88-44h-1v1h1zm-176 0h-1v1h1zm88 0h-1v1h1zm88 88h-1v1h1zm-176 0h-1v1h1zm88 0h-1v1h1zm44-132h-1v1h1zm-176 0h-1v1h1zm88 0h-1v1h1zm88 88h-1v1h1zm-176 0h-1v1h1zm88 0h-1v1h1zm88-44h-1v1h1zm-176 0h-1v1h1zm88 0h-1v1h1zm88 88h-1v1h1zm-176 0h-1v1h1zm88 0h-1v1h1zM1645 5h-1v1h1zm-176 0h-1v1h1zm88 0h-1v1h1zm88 88h-1v1h1zm-176 0h-1v1h1zm88 0h-1v1h1zm88-44h-1v1h1zm-176 0h-1v1h1zm88 0h-1v1h1zm88 88h-1v1h1zm-176 0h-1v1h1zm88 0h-1v1h1zm44-132h-1v1h1zm-176 0h-1v1h1zm88 0h-1v1h1zm88 88h-1v1h1zm-176 0h-1v1h1zm88 0h-1v1h1zm88-44h-1v1h1zm-176 0h-1v1h1zm88 0h-1v1h1zm88 88h-1v1h1zm-176 0h-1v1h1zm88 0h-1v1h1zm154-110h-1v1h1zm-176 0h-1v1h1zm88 0h-1v1h1zm88 88h-1v1h1zm-176 0h-1v1h1zm88 0h-1v1h1zm88-44h-1v1h1zm-176 0h-1v1h1zm88 0h-1v1h1zm88 88h-1v1h1zm-176 0h-1v1h1zm88 0h-1v1h1zm44-132h-1v1h1zm-176 0h-1v1h1zm88 0h-1v1h1zm88 88h-1v1h1zm-176 0h-1v1h1zm88 0h-1v1h1zm88-44h-1v1h1zm-176 0h-1v1h1zm88 0h-1v1h1zm88 88h-1v1h1zm-176 0h-1v1h1zm88 0h-1v1h1zM1667 5h-1v1h1zm-176 0h-1v1h1zm88 0h-1v1h1zm88 88h-1v1h1zm-176 0h-1v1h1zm88 0h-1v1h1zm88-44h-1v1h1zm-176 0h-1v1h1zm88 0h-1v1h1zm88 88h-1v1h1zm-176 0h-1v1h1zm88 0h-1v1h1zm44-132h-1v1h1zm-176 0h-1v1h1zm88 0h-1v1h1zm88 88h-1v1h1zm-176 0h-1v1h1zm88 0h-1v1h1zm88-44h-1v1h1zm-176 0h-1v1h1zm88 0h-1v1h1zm88 88h-1v1h1zm-176 0h-1v1h1zm88 0h-1v1h1zm99-110h-1v1h1zm-176 0h-1v1h1zm88 0h-1v1h1zm88 88h-1v1h1zm-176 0h-1v1h1zm88 0h-1v1h1zm88-44h-1v1h1zm-176 0h-1v1h1zm88 0h-1v1h1zm88 88h-1v1h1zm-176 0h-1v1h1zm88 0h-1v1h1zm44-132h-1v1h1zm-176 0h-1v1h1zm264 0h-1v1h1zm-176 0h-1v1h1zm88 88h-1v1h1zm-176 0h-1v1h1zm264 0h-1v1h1zm-176 0h-1v1h1zm88-44h-1v1h1zm-176 0h-1v1h1zm264 0h-1v1h1zm-176 0h-1v1h1zm88 88h-1v1h1zm-176 0h-1v1h1zm264 0h-1v1h1zm-176 0h-1v1h1zM1634 5h-1v1h1zm-176 0h-1v1h1zm88 0h-1v1h1zm88 88h-1v1h1zM1458 93h-1v1h1zm88 0h-1v1h1zm88-44h-1v1h1zm-176 0h-1v1h1zm88 0h-1v1h1zm88 88h-1v1h1zm-176 0h-1v1h1zm88 0h-1v1h1zm44-132h-1v1h1zm-176 0h-1v1h1zm264 0h-1v1h1zm-176 0h-1v1h1zm88 88h-1v1h1zm-176 0h-1v1h1zm264 0h-1v1h1zm-176 0h-1v1h1zm88-44h-1v1h1zm-176 0h-1v1h1zm264 0h-1v1h1zm-176 0h-1v1h1zm88 88h-1v1h1zm-176 0h-1v1h1zm264 0h-1v1h1zm-176 0h-1v1h1zm154-110h-1v1h1zm-176 0h-1v1h1zm88 0h-1v1h1zm88 88h-1v1h1zm-176 0h-1v1h1zm88 0h-1v1h1zm88-44h-1v1h1zm-176 0h-1v1h1zm88 0h-1v1h1zm88 88h-1v1h1zm-176 0h-1v1h1zm88 0h-1v1h1zm44-132h-1v1h1zm-176 0h-1v1h1zm88 0h-1v1h1zm88 88h-1v1h1zm-176 0h-1v1h1zm88 0h-1v1h1zm88-44h-1v1h1zm-176 0h-1v1h1zm88 0h-1v1h1zm88 88h-1v1h1zm-176 0h-1v1h1zm88 0h-1v1h1zM1656 5h-1v1h1zm-176 0h-1v1h1zm88 0h-1v1h1zm88 88h-1v1h1zm-176 0h-1v1h1zm88 0h-1v1h1zm88-44h-1v1h1zm-176 0h-1v1h1zm88 0h-1v1h1zm88 88h-1v1h1zm-176 0h-1v1h1zm88 0h-1v1h1zm44-132h-1v1h1zm-176 0h-1v1h1zm88 0h-1v1h1zm88 88h-1v1h1zm-176 0h-1v1h1zm88 0h-1v1h1zm88-44h-1v1h1zm-176 0h-1v1h1zm88 0h-1v1h1zm88 88h-1v1h1zm-176 0h-1v1h1zm88 0h-1v1h1zm121-99h-1v1h1zm-176 0h-1v1h1zm88 0h-1v1h1zm88 88h-1v1h1zm-176 0h-1v1h1zm88 0h-1v1h1zm88-44h-1v1h1zm-176 0h-1v1h1zm88 0h-1v1h1zm88 88h-1v1h1zm-176 0h-1v1h1zm88 0h-1v1h1zm44-132h-1v1h1zm-176 0h-1v1h1zm88 0h-1v1h1zm88 88h-1v1h1zm-176 0h-1v1h1zm88 0h-1v1h1zm88-44h-1v1h1zm-176 0h-1v1h1zm88 0h-1v1h1zm88 88h-1v1h1zm-176 0h-1v1h1zm88 0h-1v1h1zm132-154h-1v1h1zm-176 0h-1v1h1zm88 0h-1v1h1zm88 88h-1v1h1zm-176 0h-1v1h1zm88 0h-1v1h1zm88-44h-1v1h1zm-176 0h-1v1h1zm88 0h-1v1h1zm88 88h-1v1h1zm-176 0h-1v1h1zm88 0h-1v1h1zm44-132h-1v1h1zm-176 0h-1v1h1zm88 0h-1v1h1zm88 88h-1v1h1zm-176 0h-1v1h1zm88 0h-1v1h1zm88-44h-1v1h1zm-176 0h-1v1h1zm88 0h-1v1h1zm88 88h-1v1h1zm-176 0h-1v1h1zm88 0h-1v1h1zm154-110h-1v1h1zm-176 0h-1v1h1zm88 0h-1v1h1zm88 88h-1v1h1zm-176 0h-1v1h1zm88 0h-1v1h1zm88-44h-1v1h1zm-176 0h-1v1h1zM1579 82h-1v1h1zm88 88h-1v1h1zm-176 0h-1v1h1zm88 0h-1v1h1zm44-132h-1v1h1zm-176 0h-1v1h1zm88 0h-1v1h1zm88 88h-1v1h1zm-176 0h-1v1h1zm88 0h-1v1h1zm88-44h-1v1h1zm-176 0h-1v1h1zm88 0h-1v1h1zm88 88h-1v1h1zm-176 0h-1v1h1zm88 0h-1v1h1zm132-154h-1v1h1zm-176 0h-1v1h1zm88 0h-1v1h1zm88 88h-1v1h1zm-176 0h-1v1h1zm88 0h-1v1h1zm88-44h-1v1h1zm-176 0h-1v1h1zm88 0h-1v1h1zm88 88h-1v1h1zm-176 0h-1v1h1zm88 0h-1v1h1zm44-132h-1v1h1zm-176 0h-1v1h1zm88 0h-1v1h1zm88 88h-1v1h1zm-176 0h-1v1h1zm88 0h-1v1h1zm88-44h-1v1h1zm-176 0h-1v1h1zm88 0h-1v1h1zm88 88h-1v1h1zm-176 0h-1v1h1zm88 0h-1v1h1zm99-110h-1v1h1zm-176 0h-1v1h1zm88 0h-1v1h1zm88 88h-1v1h1zm-176 0h-1v1h1zm88 0h-1v1h1zm88-44h-1v1h1zm-176 0h-1v1h1zm88 0h-1v1h1zm88 88h-1v1h1zm-176 0h-1v1h1zm88 0h-1v1h1zm44-132h-1v1h1zm-176 0h-1v1h1zm264 0h-1v1h1zm-176 0h-1v1h1zm88 88h-1v1h1zm-176 0h-1v1h1zm264 0h-1v1h1zm-176 0h-1v1h1zm88-44h-1v1h1zm-176 0h-1v1h1zm264 0h-1v1h1zm-176 0h-1v1h1zm88 88h-1v1h1zm-176 0h-1v1h1zm264 0h-1v1h1zm-176 0h-1v1h1zm132-154h-1v1h1zm-176 0h-1v1h1zm88 0h-1v1h1zm88 88h-1v1h1zm-176 0h-1v1h1zm88 0h-1v1h1zm88-44h-1v1h1zm-176 0h-1v1h1zm88 0h-1v1h1zm88 88h-1v1h1zm-176 0h-1v1h1zm88 0h-1v1h1zm44-132h-1v1h1zm-176 0h-1v1h1zm264 0h-1v1h1zm-176 0h-1v1h1zm88 88h-1v1h1zm-176 0h-1v1h1zm264 0h-1v1h1zm-176 0h-1v1h1zm88-44h-1v1h1zm-176 0h-1v1h1zm264 0h-1v1h1zm-176 0h-1v1h1zm88 88h-1v1h1zm-176 0h-1v1h1zm264 0h-1v1h1zm-176 0h-1v1h1zm154-110h-1v1h1zm-176 0h-1v1h1zm88 0h-1v1h1zm88 88h-1v1h1zm-176 0h-1v1h1zm88 0h-1v1h1zm88-44h-1v1h1zm-176 0h-1v1h1zm88 0h-1v1h1zm88 88h-1v1h1zm-176 0h-1v1h1zm88 0h-1v1h1zm44-132h-1v1h1zm-176 0h-1v1h1zm88 0h-1v1h1zm88 88h-1v1h1zm-176 0h-1v1h1zm88 0h-1v1h1zm88-44h-1v1h1zm-176 0h-1v1h1zm88 0h-1v1h1zm88 88h-1v1h1zm-176 0h-1v1h1zm88 0h-1v1h1zm132-154h-1v1h1zm-176 0h-1v1h1zm88 0h-1v1h1zm88 88h-1v1h1zm-176 0h-1v1h1zm88 0h-1v1h1zm88-44h-1v1h1zm-176 0h-1v1h1zM1568 60h-1v1h1zm88 88h-1v1h1zm-176 0h-1v1h1zm88 0h-1v1h1zm44-132h-1v1h1zm-176 0h-1v1h1zm88 0h-1v1h1zm88 88h-1v1h1zm-176 0h-1v1h1zm88 0h-1v1h1zm88-44h-1v1h1zm-176 0h-1v1h1zm88 0h-1v1h1zm88 88h-1v1h1zm-176 0h-1v1h1zm88 0h-1v1h1zm121 55h-1v1h1zm-176 0h-1v1h1zm88 0h-1v1h1zm88 88h-1v1h1zm-176 0h-1v1h1zm88 0h-1v1h1zm88-44h-1v1h1zm-176 0h-1v1h1zm88 0h-1v1h1zm88 88h-1v1h1zm-176 0h-1v1h1zm88 0h-1v1h1zm44-132h-1v1h1zm-176 0h-1v1h1zm88 0h-1v1h1zm88 88h-1v1h1zm-176 0h-1v1h1zm88 0h-1v1h1zm88-44h-1v1h1zm-176 0h-1v1h1zm88 0h-1v1h1zm88 88h-1v1h1zm-176 0h-1v1h1zm88 0h-1v1h1zm132-154h-1v1h1zm-176 0h-1v1h1zm88 0h-1v1h1zm88 88h-1v1h1zm-176 0h-1v1h1zm88 0h-1v1h1zm88-44h-1v1h1zm-176 0h-1v1h1zm88 0h-1v1h1zm88 88h-1v1h1zm-176 0h-1v1h1zm88 0h-1v1h1zm44-132h-1v1h1zm-176 0h-1v1h1zm88 0h-1v1h1zm88 88h-1v1h1zm-176 0h-1v1h1zm88 0h-1v1h1zm88-44h-1v1h1zm-176 0h-1v1h1zm88 0h-1v1h1zm88 88h-1v1h1zm-176 0h-1v1h1zm88 0h-1v1h1zm154-110h-1v1h1zm-176 0h-1v1h1zm88 0h-1v1h1zm88 88h-1v1h1zm-176 0h-1v1h1zm88 0h-1v1h1zm88-44h-1v1h1zm-176 0h-1v1h1zm88 0h-1v1h1zm88 88h-1v1h1zm-176 0h-1v1h1zm88 0h-1v1h1zm44-132h-1v1h1zm-176 0h-1v1h1zm88 0h-1v1h1zm88 88h-1v1h1zm-176 0h-1v1h1zm88 0h-1v1h1zm88-44h-1v1h1zm-176 0h-1v1h1zm88 0h-1v1h1zm88 88h-1v1h1zm-176 0h-1v1h1zm88 0h-1v1h1zm132-154h-1v1h1zm-176 0h-1v1h1zm88 0h-1v1h1zm88 88h-1v1h1zm-176 0h-1v1h1zm88 0h-1v1h1zm88-44h-1v1h1zm-176 0h-1v1h1zm88 0h-1v1h1zm88 88h-1v1h1zm-176 0h-1v1h1zm88 0h-1v1h1zm44-132h-1v1h1zm-176 0h-1v1h1zm88 0h-1v1h1zm88 88h-1v1h1zm-176 0h-1v1h1zm88 0h-1v1h1zm88-44h-1v1h1zm-176 0h-1v1h1zm88 0h-1v1h1zm88 88h-1v1h1zm-176 0h-1v1h1zm88 0h-1v1h1zm99-110h-1v1h1zm-176 0h-1v1h1zm88 0h-1v1h1zm88 88h-1v1h1zm-176 0h-1v1h1zm88 0h-1v1h1zm88-44h-1v1h1zm-176 0h-1v1h1zm88 0h-1v1h1zm88 88h-1v1h1zm-176 0h-1v1h1zm88 0h-1v1h1zm44-132h-1v1h1zm-176 0h-1v1h1zm264 0h-1v1h1zm-176 0h-1v1h1zM1590 291h-1v1h1zm-176 0h-1v1h1zm264 0h-1v1h1zm-176 0h-1v1h1zm88-44h-1v1h1zm-176 0h-1v1h1zm264 0h-1v1h1zm-176 0h-1v1h1zm88 88h-1v1h1zm-176 0h-1v1h1zm264 0h-1v1h1zm-176 0h-1v1h1zm132-154h-1v1h1zm-176 0h-1v1h1zm88 0h-1v1h1zm88 88h-1v1h1zm-176 0h-1v1h1zm88 0h-1v1h1zm88-44h-1v1h1zm-176 0h-1v1h1zm88 0h-1v1h1zm88 88h-1v1h1zm-176 0h-1v1h1zm88 0h-1v1h1zm44-132h-1v1h1zm-176 0h-1v1h1zm264 0h-1v1h1zm-176 0h-1v1h1zm88 88h-1v1h1zm-176 0h-1v1h1zm264 0h-1v1h1zm-176 0h-1v1h1zm88-44h-1v1h1zm-176 0h-1v1h1zm264 0h-1v1h1zm-176 0h-1v1h1zm88 88h-1v1h1zm-176 0h-1v1h1zm264 0h-1v1h1zm-176 0h-1v1h1zm154-110h-1v1h1zm-176 0h-1v1h1zm88 0h-1v1h1zm88 88h-1v1h1zm-176 0h-1v1h1zm88 0h-1v1h1zm88-44h-1v1h1zm-176 0h-1v1h1zm88 0h-1v1h1zm88 88h-1v1h1zm-176 0h-1v1h1zm88 0h-1v1h1zm44-132h-1v1h1zm-176 0h-1v1h1zm88 0h-1v1h1zm88 88h-1v1h1zm-176 0h-1v1h1zm88 0h-1v1h1zm88-44h-1v1h1zm-176 0h-1v1h1zm88 0h-1v1h1zm88 88h-1v1h1zm-176 0h-1v1h1zm88 0h-1v1h1zm132-154h-1v1h1zm-176 0h-1v1h1zm88 0h-1v1h1zm88 88h-1v1h1zm-176 0h-1v1h1zm88 0h-1v1h1zm88-44h-1v1h1zm-176 0h-1v1h1zm88 0h-1v1h1zm88 88h-1v1h1zm-176 0h-1v1h1zm88 0h-1v1h1zm44-132h-1v1h1zm-176 0h-1v1h1zm88 0h-1v1h1zm88 88h-1v1h1zm-176 0h-1v1h1zm88 0h-1v1h1zm88-44h-1v1h1zm-176 0h-1v1h1zm88 0h-1v1h1zm88 88h-1v1h1zm-176 0h-1v1h1zm88 0h-1v1h1zm121-99h-1v1h1zm-176 0h-1v1h1zm88 0h-1v1h1zm88 88h-1v1h1zm-176 0h-1v1h1zm88 0h-1v1h1zm88-44h-1v1h1zm-176 0h-1v1h1zm88 0h-1v1h1zm88 88h-1v1h1zm-176 0h-1v1h1zm88 0h-1v1h1zm44-132h-1v1h1zm-176 0h-1v1h1zm88 0h-1v1h1zm88 88h-1v1h1zm-176 0h-1v1h1zm88 0h-1v1h1zm88-44h-1v1h1zm-176 0h-1v1h1zm88 0h-1v1h1zm88 88h-1v1h1zm-176 0h-1v1h1zm88 0h-1v1h1zm132-154h-1v1h1zm-176 0h-1v1h1zm88 0h-1v1h1zm88 88h-1v1h1zm-176 0h-1v1h1zm88 0h-1v1h1zm88-44h-1v1h1zm-176 0h-1v1h1zm88 0h-1v1h1zm88 88h-1v1h1zm-176 0h-1v1h1zm88 0h-1v1h1zm44-132h-1v1h1zm-176 0h-1v1h1zm88 0h-1v1h1zm88 88h-1v1h1zM1425 280h-1v1h1zm88 0h-1v1h1zm88-44h-1v1h1zm-176 0h-1v1h1zm88 0h-1v1h1zm88 88h-1v1h1zm-176 0h-1v1h1zm88 0h-1v1h1zm154-110h-1v1h1zm-176 0h-1v1h1zm88 0h-1v1h1zm88 88h-1v1h1zm-176 0h-1v1h1zm88 0h-1v1h1zm88-44h-1v1h1zm-176 0h-1v1h1zm88 0h-1v1h1zm88 88h-1v1h1zm-176 0h-1v1h1zm88 0h-1v1h1zm44-132h-1v1h1zm-176 0h-1v1h1zm88 0h-1v1h1zm88 88h-1v1h1zm-176 0h-1v1h1zm88 0h-1v1h1zm88-44h-1v1h1zm-176 0h-1v1h1zm88 0h-1v1h1zm88 88h-1v1h1zm-176 0h-1v1h1zm88 0h-1v1h1zm132-154h-1v1h1zm-176 0h-1v1h1zm88 0h-1v1h1zm88 88h-1v1h1zm-176 0h-1v1h1zm88 0h-1v1h1zm88-44h-1v1h1zm-176 0h-1v1h1zm88 0h-1v1h1zm88 88h-1v1h1zm-176 0h-1v1h1zm88 0h-1v1h1zm44-132h-1v1h1zm-176 0h-1v1h1zm88 0h-1v1h1zm88 88h-1v1h1zm-176 0h-1v1h1zm88 0h-1v1h1zm88-44h-1v1h1zm-176 0h-1v1h1zm88 0h-1v1h1zm88 88h-1v1h1zm-176 0h-1v1h1zm88 0h-1v1h1zm99-110h-1v1h1zm-176 0h-1v1h1zm88 0h-1v1h1zm88 88h-1v1h1zm-176 0h-1v1h1zm88 0h-1v1h1zm88-44h-1v1h1zm-176 0h-1v1h1zm88 0h-1v1h1zm88 88h-1v1h1zm-176 0h-1v1h1zm88 0h-1v1h1zm44-132h-1v1h1zm-176 0h-1v1h1zm264 0h-1v1h1zm-176 0h-1v1h1zm88 88h-1v1h1zm-176 0h-1v1h1zm264 0h-1v1h1zm-176 0h-1v1h1zm88-44h-1v1h1zm-176 0h-1v1h1zm264 0h-1v1h1zm-176 0h-1v1h1zm88 88h-1v1h1zm-176 0h-1v1h1zm264 0h-1v1h1zm-176 0h-1v1h1zm132-154h-1v1h1zm-176 0h-1v1h1zm88 0h-1v1h1zm88 88h-1v1h1zm-176 0h-1v1h1zm88 0h-1v1h1zm88-44h-1v1h1zm-176 0h-1v1h1zm88 0h-1v1h1zm88 88h-1v1h1zm-176 0h-1v1h1zm88 0h-1v1h1zm44-132h-1v1h1zm-176 0h-1v1h1zm264 0h-1v1h1zm-176 0h-1v1h1zm88 88h-1v1h1zm-176 0h-1v1h1zm264 0h-1v1h1zm-176 0h-1v1h1zm88-44h-1v1h1zm-176 0h-1v1h1zm264 0h-1v1h1zm-176 0h-1v1h1zm88 88h-1v1h1zm-176 0h-1v1h1zm264 0h-1v1h1zm-176 0h-1v1h1zm154-110h-1v1h1zm-176 0h-1v1h1zm88 0h-1v1h1zm88 88h-1v1h1zm-176 0h-1v1h1zm88 0h-1v1h1zm88-44h-1v1h1zm-176 0h-1v1h1zm88 0h-1v1h1zm88 88h-1v1h1zm-176 0h-1v1h1zm88 0h-1v1h1zm44-132h-1v1h1zm-176 0h-1v1h1zm88 0h-1v1h1zm88 88h-1v1h1zM1436 302h-1v1h1zm88 0h-1v1h1zm88-44h-1v1h1zm-176 0h-1v1h1zm88 0h-1v1h1zm88 88h-1v1h1zm-176 0h-1v1h1zm88 0h-1v1h1zm132-154h-1v1h1zm-176 0h-1v1h1zm88 0h-1v1h1zm88 88h-1v1h1zm-176 0h-1v1h1zm88 0h-1v1h1zm88-44h-1v1h1zm-176 0h-1v1h1zm88 0h-1v1h1zm88 88h-1v1h1zm-176 0h-1v1h1zm88 0h-1v1h1zm44-132h-1v1h1zm-176 0h-1v1h1zm88 0h-1v1h1zm88 88h-1v1h1zm-176 0h-1v1h1zm88 0h-1v1h1zm88-44h-1v1h1zm-176 0h-1v1h1zm88 0h-1v1h1zm88 88h-1v1h1zm-176 0h-1v1h1zm88 0h-1v1h1zm121 55h-1v1h1zm-176 0h-1v1h1zm88 0h-1v1h1zm88 88h-1v1h1zm-176 0h-1v1h1zm88 0h-1v1h1zm88-44h-1v1h1zm-176 0h-1v1h1zm88 0h-1v1h1zm88 88h-1v1h1zm-176 0h-1v1h1zm88 0h-1v1h1zm44-132h-1v1h1zm-176 0h-1v1h1zm88 0h-1v1h1zm88 88h-1v1h1zm-176 0h-1v1h1zm88 0h-1v1h1zm88-44h-1v1h1zm-176 0h-1v1h1zm88 0h-1v1h1zm88 88h-1v1h1zm-176 0h-1v1h1zm88 0h-1v1h1zm132-154h-1v1h1zm-176 0h-1v1h1zm88 0h-1v1h1zm88 88h-1v1h1zm-176 0h-1v1h1zm88 0h-1v1h1zm88-44h-1v1h1zm-176 0h-1v1h1zm88 0h-1v1h1zm88 88h-1v1h1zm-176 0h-1v1h1zm88 0h-1v1h1zm44-132h-1v1h1zm-176 0h-1v1h1zm88 0h-1v1h1zm88 88h-1v1h1zm-176 0h-1v1h1zm88 0h-1v1h1zm88-44h-1v1h1zm-176 0h-1v1h1zm88 0h-1v1h1zm88 88h-1v1h1zm-176 0h-1v1h1zm88 0h-1v1h1zm154-110h-1v1h1zm-176 0h-1v1h1zm88 0h-1v1h1zm88 88h-1v1h1zm-176 0h-1v1h1zm88 0h-1v1h1zm88-44h-1v1h1zm-176 0h-1v1h1zm88 0h-1v1h1zm88 88h-1v1h1zm-176 0h-1v1h1zm88 0h-1v1h1zm44-132h-1v1h1zm-176 0h-1v1h1zm88 0h-1v1h1zm88 88h-1v1h1zm-176 0h-1v1h1zm88 0h-1v1h1zm88-44h-1v1h1zm-176 0h-1v1h1zm88 0h-1v1h1zm88 88h-1v1h1zm-176 0h-1v1h1zm88 0h-1v1h1zm132-154h-1v1h1zm-176 0h-1v1h1zm88 0h-1v1h1zm88 88h-1v1h1zm-176 0h-1v1h1zm88 0h-1v1h1zm88-44h-1v1h1zm-176 0h-1v1h1zm88 0h-1v1h1zm88 88h-1v1h1zm-176 0h-1v1h1zm88 0h-1v1h1zm44-132h-1v1h1zm-176 0h-1v1h1zm88 0h-1v1h1zm88 88h-1v1h1zm-176 0h-1v1h1zm88 0h-1v1h1zm88-44h-1v1h1zm-176 0h-1v1h1zm88 0h-1v1h1zm88 88h-1v1h1zm-176 0h-1v1h1zm88 0h-1v1h1zM1634 379h-1v1h1zm-176 0h-1v1h1zm88 0h-1v1h1zm88 88h-1v1h1zm-176 0h-1v1h1zm88 0h-1v1h1zm88-44h-1v1h1zm-176 0h-1v1h1zm88 0h-1v1h1zm88 88h-1v1h1zm-176 0h-1v1h1zm88 0h-1v1h1zm44-132h-1v1h1zm-176 0h-1v1h1zm264 0h-1v1h1zm-176 0h-1v1h1zm88 88h-1v1h1zm-176 0h-1v1h1zm264 0h-1v1h1zm-176 0h-1v1h1zm88-44h-1v1h1zm-176 0h-1v1h1zm264 0h-1v1h1zm-176 0h-1v1h1zm88 88h-1v1h1zm-176 0h-1v1h1zm264 0h-1v1h1zm-176 0h-1v1h1zm132-154h-1v1h1zm-176 0h-1v1h1zm88 0h-1v1h1zm88 88h-1v1h1zm-176 0h-1v1h1zm88 0h-1v1h1zm88-44h-1v1h1zm-176 0h-1v1h1zm88 0h-1v1h1zm88 88h-1v1h1zm-176 0h-1v1h1zm88 0h-1v1h1zm44-132h-1v1h1zm-176 0h-1v1h1zm264 0h-1v1h1zm-176 0h-1v1h1zm88 88h-1v1h1zm-176 0h-1v1h1zm264 0h-1v1h1zm-176 0h-1v1h1zm88-44h-1v1h1zm-176 0h-1v1h1zm264 0h-1v1h1zm-176 0h-1v1h1zm88 88h-1v1h1zm-176 0h-1v1h1zm264 0h-1v1h1zm-176 0h-1v1h1zm154-110h-1v1h1zm-176 0h-1v1h1zm88 0h-1v1h1zm88 88h-1v1h1zm-176 0h-1v1h1zm88 0h-1v1h1zm88-44h-1v1h1zm-176 0h-1v1h1zm88 0h-1v1h1zm88 88h-1v1h1zm-176 0h-1v1h1zm88 0h-1v1h1zm44-132h-1v1h1zm-176 0h-1v1h1zm88 0h-1v1h1zm88 88h-1v1h1zm-176 0h-1v1h1zm88 0h-1v1h1zm88-44h-1v1h1zm-176 0h-1v1h1zm88 0h-1v1h1zm88 88h-1v1h1zm-176 0h-1v1h1zm88 0h-1v1h1zm132-154h-1v1h1zm-176 0h-1v1h1zm88 0h-1v1h1zm88 88h-1v1h1zm-176 0h-1v1h1zm88 0h-1v1h1zm88-44h-1v1h1zm-176 0h-1v1h1zm88 0h-1v1h1zm88 88h-1v1h1zm-176 0h-1v1h1zm88 0h-1v1h1zm44-132h-1v1h1zm-176 0h-1v1h1zm88 0h-1v1h1zm88 88h-1v1h1zm-176 0h-1v1h1zm88 0h-1v1h1zm88-44h-1v1h1zm-176 0h-1v1h1zm88 0h-1v1h1zm88 88h-1v1h1zm-176 0h-1v1h1zm88 0h-1v1h1zm121-99h-1v1h1zm-176 0h-1v1h1zm88 0h-1v1h1zm88 88h-1v1h1zm-176 0h-1v1h1zm88 0h-1v1h1zm88-44h-1v1h1zm-176 0h-1v1h1zm88 0h-1v1h1zm88 88h-1v1h1zm-176 0h-1v1h1zm88 0h-1v1h1zm44-132h-1v1h1zm-176 0h-1v1h1zm88 0h-1v1h1zm88 88h-1v1h1zm-176 0h-1v1h1zm88 0h-1v1h1zm88-44h-1v1h1zm-176 0h-1v1h1zm88 0h-1v1h1zm88 88h-1v1h1zm-176 0h-1v1h1zm88 0h-1v1h1zM1645 368h-1v1h1zm-176 0h-1v1h1zm88 0h-1v1h1zm88 88h-1v1h1zm-176 0h-1v1h1zm88 0h-1v1h1zm88-44h-1v1h1zm-176 0h-1v1h1zm88 0h-1v1h1zm88 88h-1v1h1zm-176 0h-1v1h1zm88 0h-1v1h1zm44-132h-1v1h1zm-176 0h-1v1h1zm88 0h-1v1h1zm88 88h-1v1h1zm-176 0h-1v1h1zm88 0h-1v1h1zm88-44h-1v1h1zm-176 0h-1v1h1zm88 0h-1v1h1zm88 88h-1v1h1zm-176 0h-1v1h1zm88 0h-1v1h1zm154-110h-1v1h1zm-176 0h-1v1h1zm88 0h-1v1h1zm88 88h-1v1h1zm-176 0h-1v1h1zm88 0h-1v1h1zm88-44h-1v1h1zm-176 0h-1v1h1zm88 0h-1v1h1zm88 88h-1v1h1zm-176 0h-1v1h1zm88 0h-1v1h1zm44-132h-1v1h1zm-176 0h-1v1h1zm88 0h-1v1h1zm88 88h-1v1h1zm-176 0h-1v1h1zm88 0h-1v1h1zm88-44h-1v1h1zm-176 0h-1v1h1zm88 0h-1v1h1zm88 88h-1v1h1zm-176 0h-1v1h1zm88 0h-1v1h1zm132-154h-1v1h1zm-176 0h-1v1h1zm88 0h-1v1h1zm88 88h-1v1h1zm-176 0h-1v1h1zm88 0h-1v1h1zm88-44h-1v1h1zm-176 0h-1v1h1zm88 0h-1v1h1zm88 88h-1v1h1zm-176 0h-1v1h1zm88 0h-1v1h1zm44-132h-1v1h1zm-176 0h-1v1h1zm88 0h-1v1h1zm88 88h-1v1h1zm-176 0h-1v1h1zm88 0h-1v1h1zm88-44h-1v1h1zm-176 0h-1v1h1zm88 0h-1v1h1zm88 88h-1v1h1zm-176 0h-1v1h1zm88 0h-1v1h1zm99-110h-1v1h1zm-176 0h-1v1h1zm88 0h-1v1h1zm88 88h-1v1h1zm-176 0h-1v1h1zm88 0h-1v1h1zm88-44h-1v1h1zm-176 0h-1v1h1zm88 0h-1v1h1zm88 88h-1v1h1zm-176 0h-1v1h1zm88 0h-1v1h1zm44-132h-1v1h1zm-176 0h-1v1h1zm264 0h-1v1h1zm-176 0h-1v1h1zm88 88h-1v1h1zm-176 0h-1v1h1zm264 0h-1v1h1zm-176 0h-1v1h1zm88-44h-1v1h1zm-176 0h-1v1h1zm264 0h-1v1h1zm-176 0h-1v1h1zm88 88h-1v1h1zm-176 0h-1v1h1zm264 0h-1v1h1zm-176 0h-1v1h1zm132-154h-1v1h1zm-176 0h-1v1h1zm88 0h-1v1h1zm88 88h-1v1h1zm-176 0h-1v1h1zm88 0h-1v1h1zm88-44h-1v1h1zm-176 0h-1v1h1zm88 0h-1v1h1zm88 88h-1v1h1zm-176 0h-1v1h1zm88 0h-1v1h1zm44-132h-1v1h1zm-176 0h-1v1h1zm264 0h-1v1h1zm-176 0h-1v1h1zm88 88h-1v1h1zm-176 0h-1v1h1zm264 0h-1v1h1zm-176 0h-1v1h1zm88-44h-1v1h1zm-176 0h-1v1h1zm264 0h-1v1h1zm-176 0h-1v1h1zm88 88h-1v1h1zm-176 0h-1v1h1zm264 0h-1v1h1zm-176 0h-1v1h1zM1656 390h-1v1h1zm-176 0h-1v1h1zm88 0h-1v1h1zm88 88h-1v1h1zm-176 0h-1v1h1zm88 0h-1v1h1zm88-44h-1v1h1zm-176 0h-1v1h1zm88 0h-1v1h1zm88 88h-1v1h1zm-176 0h-1v1h1zm88 0h-1v1h1zm44-132h-1v1h1zm-176 0h-1v1h1zm88 0h-1v1h1zm88 88h-1v1h1zm-176 0h-1v1h1zm88 0h-1v1h1zm88-44h-1v1h1zm-176 0h-1v1h1zm88 0h-1v1h1zm88 88h-1v1h1zm-176 0h-1v1h1zm88 0h-1v1h1zm132-154h-1v1h1zm-176 0h-1v1h1zm88 0h-1v1h1zm88 88h-1v1h1zm-176 0h-1v1h1zm88 0h-1v1h1zm88-44h-1v1h1zm-176 0h-1v1h1zm88 0h-1v1h1zm88 88h-1v1h1zm-176 0h-1v1h1zm88 0h-1v1h1zm44-132h-1v1h1zm-176 0h-1v1h1zm88 0h-1v1h1zm88 88h-1v1h1zm-176 0h-1v1h1zm88 0h-1v1h1zm88-44h-1v1h1zm-176 0h-1v1h1zm88 0h-1v1h1zm88 88h-1v1h1zm-176 0h-1v1h1zm88 0h-1v1h1zm121 55h-1v1h1zm-176 0h-1v1h1zm88 0h-1v1h1zm88 88h-1v1h1zm-176 0h-1v1h1zm88 0h-1v1h1zm88-44h-1v1h1zm-176 0h-1v1h1zm88 0h-1v1h1zm88 88h-1v1h1zm-176 0h-1v1h1zm88 0h-1v1h1zm44-132h-1v1h1zm-176 0h-1v1h1zm88 0h-1v1h1zm88 88h-1v1h1zm-176 0h-1v1h1zm88 0h-1v1h1zm88-44h-1v1h1zm-176 0h-1v1h1zm88 0h-1v1h1zm88 88h-1v1h1zm-176 0h-1v1h1zm88 0h-1v1h1zm132-154h-1v1h1zm-176 0h-1v1h1zm88 0h-1v1h1zm88 88h-1v1h1zm-176 0h-1v1h1zm88 0h-1v1h1zm88-44h-1v1h1zm-176 0h-1v1h1zm88 0h-1v1h1zm88 88h-1v1h1zm-176 0h-1v1h1zm88 0h-1v1h1zm44-132h-1v1h1zm-176 0h-1v1h1zm88 0h-1v1h1zm88 88h-1v1h1zm-176 0h-1v1h1zm88 0h-1v1h1zm88-44h-1v1h1zm-176 0h-1v1h1zm88 0h-1v1h1zm88 88h-1v1h1zm-176 0h-1v1h1zm88 0h-1v1h1zm154-110h-1v1h1zm-176 0h-1v1h1zm88 0h-1v1h1zm88 88h-1v1h1zm-176 0h-1v1h1zm88 0h-1v1h1zm88-44h-1v1h1zm-176 0h-1v1h1zm88 0h-1v1h1zm88 88h-1v1h1zm-176 0h-1v1h1zm88 0h-1v1h1zm44-132h-1v1h1zm-176 0h-1v1h1zm88 0h-1v1h1zm88 88h-1v1h1zm-176 0h-1v1h1zm88 0h-1v1h1zm88-44h-1v1h1zm-176 0h-1v1h1zm88 0h-1v1h1zm88 88h-1v1h1zm-176 0h-1v1h1zm88 0h-1v1h1zm132-154h-1v1h1zm-176 0h-1v1h1zm88 0h-1v1h1zm88 88h-1v1h1zm-176 0h-1v1h1zm88 0h-1v1h1zm88-44h-1v1h1zm-176 0h-1v1h1zM1579 577h-1v1h1zm88 88h-1v1h1zm-176 0h-1v1h1zm88 0h-1v1h1zm44-132h-1v1h1zm-176 0h-1v1h1zm88 0h-1v1h1zm88 88h-1v1h1zm-176 0h-1v1h1zm88 0h-1v1h1zm88-44h-1v1h1zm-176 0h-1v1h1zm88 0h-1v1h1zm88 88h-1v1h1zm-176 0h-1v1h1zm88 0h-1v1h1zm99-110h-1v1h1zm-176 0h-1v1h1zm88 0h-1v1h1zm88 88h-1v1h1zm-176 0h-1v1h1zm88 0h-1v1h1zm88-44h-1v1h1zm-176 0h-1v1h1zm88 0h-1v1h1zm88 88h-1v1h1zm-176 0h-1v1h1zm88 0h-1v1h1zm44-132h-1v1h1zm-176 0h-1v1h1zm264 0h-1v1h1zm-176 0h-1v1h1zm88 88h-1v1h1zm-176 0h-1v1h1zm264 0h-1v1h1zm-176 0h-1v1h1zm88-44h-1v1h1zm-176 0h-1v1h1zm264 0h-1v1h1zm-176 0h-1v1h1zm88 88h-1v1h1zm-176 0h-1v1h1zm264 0h-1v1h1zm-176 0h-1v1h1zm132-154h-1v1h1zm-176 0h-1v1h1zm88 0h-1v1h1zm88 88h-1v1h1zm-176 0h-1v1h1zm88 0h-1v1h1zm88-44h-1v1h1zm-176 0h-1v1h1zm88 0h-1v1h1zm88 88h-1v1h1zm-176 0h-1v1h1zm88 0h-1v1h1zm44-132h-1v1h1zm-176 0h-1v1h1zm264 0h-1v1h1zm-176 0h-1v1h1zm88 88h-1v1h1zm-176 0h-1v1h1zm264 0h-1v1h1zm-176 0h-1v1h1zm88-44h-1v1h1zm-176 0h-1v1h1zm264 0h-1v1h1zm-176 0h-1v1h1zm88 88h-1v1h1zm-176 0h-1v1h1zm264 0h-1v1h1zm-176 0h-1v1h1zm154-110h-1v1h1zm-176 0h-1v1h1zm88 0h-1v1h1zm88 88h-1v1h1zm-176 0h-1v1h1zm88 0h-1v1h1zm88-44h-1v1h1zm-176 0h-1v1h1zm88 0h-1v1h1zm88 88h-1v1h1zm-176 0h-1v1h1zm88 0h-1v1h1zm44-132h-1v1h1zm-176 0h-1v1h1zm88 0h-1v1h1zm88 88h-1v1h1zm-176 0h-1v1h1zm88 0h-1v1h1zm88-44h-1v1h1zm-176 0h-1v1h1zm88 0h-1v1h1zm88 88h-1v1h1zm-176 0h-1v1h1zm88 0h-1v1h1zm132-154h-1v1h1zm-176 0h-1v1h1zm88 0h-1v1h1zm88 88h-1v1h1zm-176 0h-1v1h1zm88 0h-1v1h1zm88-44h-1v1h1zm-176 0h-1v1h1zm88 0h-1v1h1zm88 88h-1v1h1zm-176 0h-1v1h1zm88 0h-1v1h1zm44-132h-1v1h1zm-176 0h-1v1h1zm88 0h-1v1h1zm88 88h-1v1h1zm-176 0h-1v1h1zm88 0h-1v1h1zm88-44h-1v1h1zm-176 0h-1v1h1zm88 0h-1v1h1zm88 88h-1v1h1zm-176 0h-1v1h1zm88 0h-1v1h1zm121-99h-1v1h1zm-176 0h-1v1h1zm88 0h-1v1h1zm88 88h-1v1h1zm-176 0h-1v1h1zm88 0h-1v1h1zm88-44h-1v1h1zm-176 0h-1v1h1zM1557 610h-1v1h1zm88 88h-1v1h1zm-176 0h-1v1h1zm88 0h-1v1h1zm44-132h-1v1h1zm-176 0h-1v1h1zm88 0h-1v1h1zm88 88h-1v1h1zm-176 0h-1v1h1zm88 0h-1v1h1zm88-44h-1v1h1zm-176 0h-1v1h1zm88 0h-1v1h1zm88 88h-1v1h1zm-176 0h-1v1h1zm88 0h-1v1h1zm132-154h-1v1h1zm-176 0h-1v1h1zm88 0h-1v1h1zm88 88h-1v1h1zm-176 0h-1v1h1zm88 0h-1v1h1zm88-44h-1v1h1zm-176 0h-1v1h1zm88 0h-1v1h1zm88 88h-1v1h1zm-176 0h-1v1h1zm88 0h-1v1h1zm44-132h-1v1h1zm-176 0h-1v1h1zm88 0h-1v1h1zm88 88h-1v1h1zm-176 0h-1v1h1zm88 0h-1v1h1zm88-44h-1v1h1zm-176 0h-1v1h1zm88 0h-1v1h1zm88 88h-1v1h1zm-176 0h-1v1h1zm88 0h-1v1h1zm154-110h-1v1h1zm-176 0h-1v1h1zm88 0h-1v1h1zm88 88h-1v1h1zm-176 0h-1v1h1zm88 0h-1v1h1zm88-44h-1v1h1zm-176 0h-1v1h1zm88 0h-1v1h1zm88 88h-1v1h1zm-176 0h-1v1h1zm88 0h-1v1h1zm44-132h-1v1h1zm-176 0h-1v1h1zm88 0h-1v1h1zm88 88h-1v1h1zm-176 0h-1v1h1zm88 0h-1v1h1zm88-44h-1v1h1zm-176 0h-1v1h1zm88 0h-1v1h1zm88 88h-1v1h1zm-176 0h-1v1h1zm88 0h-1v1h1zm132-154h-1v1h1zm-176 0h-1v1h1zm88 0h-1v1h1zm88 88h-1v1h1zm-176 0h-1v1h1zm88 0h-1v1h1zm88-44h-1v1h1zm-176 0h-1v1h1zm88 0h-1v1h1zm88 88h-1v1h1zm-176 0h-1v1h1zm88 0h-1v1h1zm44-132h-1v1h1zm-176 0h-1v1h1zm88 0h-1v1h1zm88 88h-1v1h1zm-176 0h-1v1h1zm88 0h-1v1h1zm88-44h-1v1h1zm-176 0h-1v1h1zm88 0h-1v1h1zm88 88h-1v1h1zm-176 0h-1v1h1zm88 0h-1v1h1zm99-110h-1v1h1zm-176 0h-1v1h1zm88 0h-1v1h1zm88 88h-1v1h1zm-176 0h-1v1h1zm88 0h-1v1h1zm88-44h-1v1h1zm-176 0h-1v1h1zm88 0h-1v1h1zm88 88h-1v1h1zm-176 0h-1v1h1zm88 0h-1v1h1zm44-132h-1v1h1zm-176 0h-1v1h1zm264 0h-1v1h1zm-176 0h-1v1h1zm88 88h-1v1h1zm-176 0h-1v1h1zm264 0h-1v1h1zm-176 0h-1v1h1zm88-44h-1v1h1zm-176 0h-1v1h1zm264 0h-1v1h1zm-176 0h-1v1h1zm88 88h-1v1h1zm-176 0h-1v1h1zm264 0h-1v1h1zm-176 0h-1v1h1zm132-154h-1v1h1zm-176 0h-1v1h1zm88 0h-1v1h1zm88 88h-1v1h1zm-176 0h-1v1h1zm88 0h-1v1h1zm88-44h-1v1h1zm-176 0h-1v1h1zm88 0h-1v1h1zm88 88h-1v1h1zm-176 0h-1v1h1zm88 0h-1v1h1zM1590 544h-1v1h1zm-176 0h-1v1h1zm264 0h-1v1h1zm-176 0h-1v1h1zm88 88h-1v1h1zm-176 0h-1v1h1zm264 0h-1v1h1zm-176 0h-1v1h1zm88-44h-1v1h1zm-176 0h-1v1h1zm264 0h-1v1h1zm-176 0h-1v1h1zm88 88h-1v1h1zm-176 0h-1v1h1zm264 0h-1v1h1zm-176 0h-1v1h1zm154-110h-1v1h1zm-176 0h-1v1h1zm88 0h-1v1h1zm88 88h-1v1h1zm-176 0h-1v1h1zm88 0h-1v1h1zm88-44h-1v1h1zm-176 0h-1v1h1zm88 0h-1v1h1zm88 88h-1v1h1zm-176 0h-1v1h1zm88 0h-1v1h1zm44-132h-1v1h1zm-176 0h-1v1h1zm88 0h-1v1h1zm88 88h-1v1h1zm-176 0h-1v1h1zm88 0h-1v1h1zm88-44h-1v1h1zm-176 0h-1v1h1zm88 0h-1v1h1zm88 88h-1v1h1zm-176 0h-1v1h1zm88 0h-1v1h1zm132-154h-1v1h1zm-176 0h-1v1h1zm88 0h-1v1h1zm88 88h-1v1h1zm-176 0h-1v1h1zm88 0h-1v1h1zm88-44h-1v1h1zm-176 0h-1v1h1zm88 0h-1v1h1zm88 88h-1v1h1zm-176 0h-1v1h1zm88 0h-1v1h1zm44-132h-1v1h1zm-176 0h-1v1h1zm88 0h-1v1h1zm88 88h-1v1h1zm-176 0h-1v1h1zm88 0h-1v1h1zm88-44h-1v1h1zm-176 0h-1v1h1zm88 0h-1v1h1zm88 88h-1v1h1zm-176 0h-1v1h1zm88 0h-1v1h1zm121 55h-1v1h1zm-176 0h-1v1h1zm88 0h-1v1h1zm88 88h-1v1h1zm-176 0h-1v1h1zm88 0h-1v1h1zm88-44h-1v1h1zm-176 0h-1v1h1zm88 0h-1v1h1zm88 88h-1v1h1zm-176 0h-1v1h1zm88 0h-1v1h1zm44-132h-1v1h1zm-176 0h-1v1h1zm88 0h-1v1h1zm88 88h-1v1h1zm-176 0h-1v1h1zm88 0h-1v1h1zm88-44h-1v1h1zm-176 0h-1v1h1zm88 0h-1v1h1zm88 88h-1v1h1zm-176 0h-1v1h1zm88 0h-1v1h1zm132-154h-1v1h1zm-176 0h-1v1h1zm88 0h-1v1h1zm88 88h-1v1h1zm-176 0h-1v1h1zm88 0h-1v1h1zm88-44h-1v1h1zm-176 0h-1v1h1zm88 0h-1v1h1zm88 88h-1v1h1zm-176 0h-1v1h1zm88 0h-1v1h1zm44-132h-1v1h1zm-176 0h-1v1h1zm88 0h-1v1h1zm88 88h-1v1h1zm-176 0h-1v1h1zm88 0h-1v1h1zm88-44h-1v1h1zm-176 0h-1v1h1zm88 0h-1v1h1zm88 88h-1v1h1zm-176 0h-1v1h1zm88 0h-1v1h1zm154-110h-1v1h1zm-176 0h-1v1h1zm88 0h-1v1h1zm88 88h-1v1h1zm-176 0h-1v1h1zm88 0h-1v1h1zm88-44h-1v1h1zm-176 0h-1v1h1zm88 0h-1v1h1zm88 88h-1v1h1zm-176 0h-1v1h1zm88 0h-1v1h1zm44-132h-1v1h1zm-176 0h-1v1h1zm88 0h-1v1h1zm88 88h-1v1h1zM1447 819h-1v1h1zm88 0h-1v1h1zm88-44h-1v1h1zm-176 0h-1v1h1zm88 0h-1v1h1zm88 88h-1v1h1zm-176 0h-1v1h1zm88 0h-1v1h1zm132-154h-1v1h1zm-176 0h-1v1h1zm88 0h-1v1h1zm88 88h-1v1h1zm-176 0h-1v1h1zm88 0h-1v1h1zm88-44h-1v1h1zm-176 0h-1v1h1zm88 0h-1v1h1zm88 88h-1v1h1zm-176 0h-1v1h1zm88 0h-1v1h1zm44-132h-1v1h1zm-176 0h-1v1h1zm88 0h-1v1h1zm88 88h-1v1h1zm-176 0h-1v1h1zm88 0h-1v1h1zm88-44h-1v1h1zm-176 0h-1v1h1zm88 0h-1v1h1zm88 88h-1v1h1zm-176 0h-1v1h1zm88 0h-1v1h1zm99-110h-1v1h1zm-176 0h-1v1h1zm88 0h-1v1h1zm88 88h-1v1h1zm-176 0h-1v1h1zm88 0h-1v1h1zm88-44h-1v1h1zm-176 0h-1v1h1zm88 0h-1v1h1zm88 88h-1v1h1zm-176 0h-1v1h1zm88 0h-1v1h1zm44-132h-1v1h1zm-176 0h-1v1h1zm264 0h-1v1h1zm-176 0h-1v1h1zm88 88h-1v1h1zm-176 0h-1v1h1zm264 0h-1v1h1zm-176 0h-1v1h1zm88-44h-1v1h1zm-176 0h-1v1h1zm264 0h-1v1h1zm-176 0h-1v1h1zm88 88h-1v1h1zm-176 0h-1v1h1zm264 0h-1v1h1zm-176 0h-1v1h1zm132-154h-1v1h1zm-176 0h-1v1h1zm88 0h-1v1h1zm88 88h-1v1h1zm-176 0h-1v1h1zm88 0h-1v1h1zm88-44h-1v1h1zm-176 0h-1v1h1zm88 0h-1v1h1zm88 88h-1v1h1zm-176 0h-1v1h1zm88 0h-1v1h1zm44-132h-1v1h1zm-176 0h-1v1h1zm264 0h-1v1h1zm-176 0h-1v1h1zm88 88h-1v1h1zm-176 0h-1v1h1zm264 0h-1v1h1zm-176 0h-1v1h1zm88-44h-1v1h1zm-176 0h-1v1h1zm264 0h-1v1h1zm-176 0h-1v1h1zm88 88h-1v1h1zm-176 0h-1v1h1zm264 0h-1v1h1zm-176 0h-1v1h1zm154-110h-1v1h1zm-176 0h-1v1h1zm88 0h-1v1h1zm88 88h-1v1h1zm-176 0h-1v1h1zm88 0h-1v1h1zm88-44h-1v1h1zm-176 0h-1v1h1zm88 0h-1v1h1zm88 88h-1v1h1zm-176 0h-1v1h1zm88 0h-1v1h1zm44-132h-1v1h1zm-176 0h-1v1h1zm88 0h-1v1h1zm88 88h-1v1h1zm-176 0h-1v1h1zm88 0h-1v1h1zm88-44h-1v1h1zm-176 0h-1v1h1zm88 0h-1v1h1zm88 88h-1v1h1zm-176 0h-1v1h1zm88 0h-1v1h1zm132-154h-1v1h1zm-176 0h-1v1h1zm88 0h-1v1h1zm88 88h-1v1h1zm-176 0h-1v1h1zm88 0h-1v1h1zm88-44h-1v1h1zm-176 0h-1v1h1zm88 0h-1v1h1zm88 88h-1v1h1zm-176 0h-1v1h1zm88 0h-1v1h1zm44-132h-1v1h1zm-176 0h-1v1h1zm88 0h-1v1h1zm88 88h-1v1h1zM1436 797h-1v1h1zm88 0h-1v1h1zm88-44h-1v1h1zm-176 0h-1v1h1zm88 0h-1v1h1zm88 88h-1v1h1zm-176 0h-1v1h1zm88 0h-1v1h1zm121-99h-1v1h1zm-176 0h-1v1h1zm88 0h-1v1h1zm88 88h-1v1h1zm-176 0h-1v1h1zm88 0h-1v1h1zm88-44h-1v1h1zm-176 0h-1v1h1zm88 0h-1v1h1zm88 88h-1v1h1zm-176 0h-1v1h1zm88 0h-1v1h1zm44-132h-1v1h1zm-176 0h-1v1h1zm88 0h-1v1h1zm88 88h-1v1h1zm-176 0h-1v1h1zm88 0h-1v1h1zm88-44h-1v1h1zm-176 0h-1v1h1zm88 0h-1v1h1zm88 88h-1v1h1zm-176 0h-1v1h1zm88 0h-1v1h1zm132-154h-1v1h1zm-176 0h-1v1h1zm88 0h-1v1h1zm88 88h-1v1h1zm-176 0h-1v1h1zm88 0h-1v1h1zm88-44h-1v1h1zm-176 0h-1v1h1zm88 0h-1v1h1zm88 88h-1v1h1zm-176 0h-1v1h1zm88 0h-1v1h1zm44-132h-1v1h1zm-176 0h-1v1h1zm88 0h-1v1h1zm88 88h-1v1h1zm-176 0h-1v1h1zm88 0h-1v1h1zm88-44h-1v1h1zm-176 0h-1v1h1zm88 0h-1v1h1zm88 88h-1v1h1zm-176 0h-1v1h1zm88 0h-1v1h1zm154-110h-1v1h1zm-176 0h-1v1h1zm88 0h-1v1h1zm88 88h-1v1h1zm-176 0h-1v1h1zm88 0h-1v1h1zm88-44h-1v1h1zm-176 0h-1v1h1zm88 0h-1v1h1zm88 88h-1v1h1zm-176 0h-1v1h1zm88 0h-1v1h1zm44-132h-1v1h1zm-176 0h-1v1h1zm88 0h-1v1h1zm88 88h-1v1h1zm-176 0h-1v1h1zm88 0h-1v1h1zm88-44h-1v1h1zm-176 0h-1v1h1zm88 0h-1v1h1zm88 88h-1v1h1zm-176 0h-1v1h1zm88 0h-1v1h1zm132-154h-1v1h1zm-176 0h-1v1h1zm88 0h-1v1h1zm88 88h-1v1h1zm-176 0h-1v1h1zm88 0h-1v1h1zm88-44h-1v1h1zm-176 0h-1v1h1zm88 0h-1v1h1zm88 88h-1v1h1zm-176 0h-1v1h1zm88 0h-1v1h1zm44-132h-1v1h1zm-176 0h-1v1h1zm88 0h-1v1h1zm88 88h-1v1h1zm-176 0h-1v1h1zm88 0h-1v1h1zm88-44h-1v1h1zm-176 0h-1v1h1zm88 0h-1v1h1zm88 88h-1v1h1zm-176 0h-1v1h1zm88 0h-1v1h1zm99-110h-1v1h1zm-176 0h-1v1h1zm88 0h-1v1h1zm88 88h-1v1h1zm-176 0h-1v1h1zm88 0h-1v1h1zm88-44h-1v1h1zm-176 0h-1v1h1zm88 0h-1v1h1zm88 88h-1v1h1zm-176 0h-1v1h1zm88 0h-1v1h1zm44-132h-1v1h1zm-176 0h-1v1h1zm264 0h-1v1h1zm-176 0h-1v1h1zm88 88h-1v1h1zm-176 0h-1v1h1zm264 0h-1v1h1zm-176 0h-1v1h1zm88-44h-1v1h1zm-176 0h-1v1h1zm264 0h-1v1h1zm-176 0h-1v1h1zM1590 874h-1v1h1zm-176 0h-1v1h1zm264 0h-1v1h1zm-176 0h-1v1h1zm132-154h-1v1h1zm-176 0h-1v1h1zm88 0h-1v1h1zm88 88h-1v1h1zm-176 0h-1v1h1zm88 0h-1v1h1zm88-44h-1v1h1zm-176 0h-1v1h1zm88 0h-1v1h1zm88 88h-1v1h1zm-176 0h-1v1h1zm88 0h-1v1h1zm44-132h-1v1h1zm-176 0h-1v1h1zm264 0h-1v1h1zm-176 0h-1v1h1zm88 88h-1v1h1zm-176 0h-1v1h1zm264 0h-1v1h1zm-176 0h-1v1h1zm88-44h-1v1h1zm-176 0h-1v1h1zm264 0h-1v1h1zm-176 0h-1v1h1zm88 88h-1v1h1zm-176 0h-1v1h1zm264 0h-1v1h1zm-176 0h-1v1h1zm154-110h-1v1h1zm-176 0h-1v1h1zm88 0h-1v1h1zm88 88h-1v1h1zm-176 0h-1v1h1zm88 0h-1v1h1zm88-44h-1v1h1zm-176 0h-1v1h1zm88 0h-1v1h1zm88 88h-1v1h1zm-176 0h-1v1h1zm88 0h-1v1h1zm44-132h-1v1h1zm-176 0h-1v1h1zm88 0h-1v1h1zm88 88h-1v1h1zm-176 0h-1v1h1zm88 0h-1v1h1zm88-44h-1v1h1zm-176 0h-1v1h1zm88 0h-1v1h1zm88 88h-1v1h1zm-176 0h-1v1h1zm88 0h-1v1h1zm132-154h-1v1h1zm-176 0h-1v1h1zm88 0h-1v1h1zm88 88h-1v1h1zm-176 0h-1v1h1zm88 0h-1v1h1zm88-44h-1v1h1zm-176 0h-1v1h1zm88 0h-1v1h1zm88 88h-1v1h1zm-176 0h-1v1h1zm88 0h-1v1h1zm44-132h-1v1h1zm-176 0h-1v1h1zm88 0h-1v1h1zm88 88h-1v1h1zm-176 0h-1v1h1zm88 0h-1v1h1zm88-44h-1v1h1zm-176 0h-1v1h1zm88 0h-1v1h1zm88 88h-1v1h1zm-176 0h-1v1h1zm88 0h-1v1h1zm-110 33h-1v1h1zm11 0h-1v1h1zm11 0h-1v1h1zm11 0h-1v1h1zm11 0h-1v1h1zm11 0h-1v1h1zm11 0h-1v1h1zm11 0h-1v1h1zm11 0h-1v1h1zm11 0h-1v1h1zm11 0h-1v1h1zm11 0h-1v1h1zm11 0h-1v1h1zm11 0h-1v1h1zm11 0h-1v1h1zm11 0h-1v1h1zm11 0h-1v1h1zm11 0h-1v1h1zm11 0h-1v1h1zm11 0h-1v1h1zm11 0h-1v1h1zm11 0h-1v1h1zm11 0h-1v1h1zm11 0h-1v1h1zm11 0h-1v1h1zm-264 11h-1v1h1zm11 0h-1v1h1zm11 0h-1v1h1zm11 0h-1v1h1zm11 0h-1v1h1zm11 0h-1v1h1zm11 0h-1v1h1zm11 0h-1v1h1zm11 0h-1v1h1zm11 0h-1v1h1zm11 0h-1v1h1zm11 0h-1v1h1zm11 0h-1v1h1zm11 0h-1v1h1zm11 0h-1v1h1zm11 0h-1v1h1zm11 0h-1v1h1zm11 0h-1v1h1zm11 0h-1v1h1zm11 0h-1v1h1zm11 0h-1v1h1zm11 0h-1v1h1zm11 0h-1v1h1zm11 0h-1v1h1zm11 0h-1v1h1z"/></g></svg>