<svg viewBox="0 0 1683 900" xmlns="http://www.w3.org/2000/svg" xmlns:xlink="http://www.w3.org/1999/xlink"><defs><path id="a" d="m237 203h-1v1h1zm-176 0h-1v1h1zm264 0h-1v1h1zm-176 0h-1v1h1zm88 88h-1v1h1zm-176 0h-1v1h1zm264 0h-1v1h1zm-176 0h-1v1h1zm88-44h-1v1h1zm-176 0h-1v1h1zm264 0h-1v1h1zm-176 0h-1v1h1zm88 88h-1v1h1zm-176 0h-1v1h1zm264 0h-1v1h1zm-176 0h-1v1h1zm44-132h-1v1h1zm-176 0h-1v1h1zm264 0h-1v1h1zm-176 0h-1v1h1zm88 88h-1v1h1zm-176 0h-1v1h1zm264 0h-1v1h1zm-176 0h-1v1h1zm88-44h-1v1h1zm-176 0h-1v1h1zm264 0h-1v1h1zm-176 0h-1v1h1zm88 88h-1v1h1zm-176 0h-1v1h1zm264 0h-1v1h1zm-176 0h-1v1h1zm132-154h-1v1h1zm-176 0h-1v1h1zm264 0h-1v1h1zm-176 0h-1v1h1zm88 88h-1v1h1zm-176 0h-1v1h1zm264 0h-1v1h1zm-176 0h-1v1h1zm88-44h-1v1h1zm-176 0h-1v1h1zm264 0h-1v1h1zm-176 0h-1v1h1zm88 88h-1v1h1zm-176 0h-1v1h1zm264 0h-1v1h1zm-176 0h-1v1h1zm44-132h-1v1h1zm-176 0h-1v1h1zm264 0h-1v1h1zm-176 0h-1v1h1zm88 88h-1v1h1zm-176 0h-1v1h1zm264 0h-1v1h1zm-176 0h-1v1h1zm88-44h-1v1h1zm-176 0h-1v1h1zm264 0h-1v1h1zm-176 0h-1v1h1zm88 88h-1v1h1zm-176 0h-1v1h1zm264 0h-1v1h1zm-176 0h-1v1h1zm154-110h-1v1h1zm-176 0h-1v1h1zm264 0h-1v1h1zm-176 0h-1v1h1zm88 88h-1v1h1zm-176 0h-1v1h1zm264 0h-1v1h1zm-176 0h-1v1h1zm88-44h-1v1h1zm-176 0h-1v1h1zm264 0h-1v1h1zm-176 0h-1v1h1zm88 88h-1v1h1zm-176 0h-1v1h1zm264 0h-1v1h1zm-176 0h-1v1h1zm44-132h-1v1h1zm-176 0h-1v1h1zm264 0h-1v1h1zm-176 0h-1v1h1zm88 88h-1v1h1zm-176 0h-1v1h1zm264 0h-1v1h1zm-176 0h-1v1h1zm88-44h-1v1h1zm-176 0h-1v1h1zm264 0h-1v1h1zm-176 0h-1v1h1zm88 88h-1v1h1zm-176 0h-1v1h1zm264 0h-1v1h1zm-176 0h-1v1h1zm132-154h-1v1h1zm-176 0h-1v1h1zm264 0h-1v1h1zm-176 0h-1v1h1zm88 88h-1v1h1zm-176 0h-1v1h1zm264 0h-1v1h1zm-176 0h-1v1h1zm88-44h-1v1h1zm-176 0h-1v1h1zm264 0h-1v1h1zm-176 0h-1v1h1zm88 88h-1v1h1zm-176 0h-1v1h1zm264 0h-1v1h1zm-176 0h-1v1h1zm44-132h-1v1h1zm-176 0h-1v1h1zm264 0h-1v1h1zm-176 0h-1v1h1zm88 88h-1v1h1zm-176 0h-1v1h1zm264 0h-1v1h1zm-176 0h-1v1h1zm88-44h-1v1h1zm-176 0h-1v1h1zm264 0h-1v1h1zm-176 0h-1v1h1zm88 88h-1v1h1zm-176 0h-1v1h1zm264 0h-1v1h1zm-176 0h-1v1h1z"/><path id="b" d="m611 203h-1v1h1zm-176 0h-1v1h1zm264 0h-1v1h1zm-176 0h-1v1h1zm88 88h-1v1h1zm-176 0h-1v1h1zm264 0h-1v1h1zm-176 0h-1v1h1zm88-44h-1v1h1zm-176 0h-1v1h1zm264 0h-1v1h1zm-176 0h-1v1h1zm88 88h-1v1h1zm-176 0h-1v1h1zm264 0h-1v1h1zm-176 0h-1v1h1zm44-132h-1v1h1zm-176 0h-1v1h1zm264 0h-1v1h1zm-176 0h-1v1h1zm88 88h-1v1h1zm-176 0h-1v1h1zm264 0h-1v1h1zm-176 0h-1v1h1zm88-44h-1v1h1zm-176 0h-1v1h1zm264 0h-1v1h1zm-176 0h-1v1h1zm88 88h-1v1h1zm-176 0h-1v1h1zm264 0h-1v1h1zm-176 0h-1v1h1zm132-154h-1v1h1zm-176 0h-1v1h1zm264 0h-1v1h1zm-176 0h-1v1h1zm88 88h-1v1h1zm-176 0h-1v1h1zm264 0h-1v1h1zm-176 0h-1v1h1zm88-44h-1v1h1zm-176 0h-1v1h1zm264 0h-1v1h1zm-176 0h-1v1h1zm88 88h-1v1h1zm-176 0h-1v1h1zm264 0h-1v1h1zm-176 0h-1v1h1zm44-132h-1v1h1zm-176 0h-1v1h1zm264 0h-1v1h1zm-176 0h-1v1h1zm88 88h-1v1h1zm-176 0h-1v1h1zm264 0h-1v1h1zm-176 0h-1v1h1zm88-44h-1v1h1zm-176 0h-1v1h1zm264 0h-1v1h1zm-176 0h-1v1h1zm88 88h-1v1h1zm-176 0h-1v1h1zm264 0h-1v1h1zm-176 0h-1v1h1zm99-110h-1v1h1zm-176 0h-1v1h1zm264 0h-1v1h1zm-176 0h-1v1h1zm88 88h-1v1h1zm-176 0h-1v1h1zm264 0h-1v1h1zm-176 0h-1v1h1zm88-44h-1v1h1zm-176 0h-1v1h1zm264 0h-1v1h1zm-176 0h-1v1h1zm88 88h-1v1h1zm-176 0h-1v1h1zm264 0h-1v1h1zm-176 0h-1v1h1zm44-132h-1v1h1zm-176 0h-1v1h1zm264 0h-1v1h1zm-176 0h-1v1h1zm88 88h-1v1h1zm-176 0h-1v1h1zm264 0h-1v1h1zm-176 0h-1v1h1zm88-44h-1v1h1zm-176 0h-1v1h1zm264 0h-1v1h1zm-176 0h-1v1h1zm88 88h-1v1h1zm-176 0h-1v1h1zm264 0h-1v1h1zm-176 0h-1v1h1zm132-154h-1v1h1zm-176 0h-1v1h1zm264 0h-1v1h1zm-176 0h-1v1h1zm88 88h-1v1h1zm-176 0h-1v1h1zm264 0h-1v1h1zm-176 0h-1v1h1zm88-44h-1v1h1zm-176 0h-1v1h1zm264 0h-1v1h1zm-176 0h-1v1h1zm88 88h-1v1h1zm-176 0h-1v1h1zm264 0h-1v1h1zm-176 0h-1v1h1zm44-132h-1v1h1zm-176 0h-1v1h1zm264 0h-1v1h1zm-176 0h-1v1h1zm88 88h-1v1h1zm-176 0h-1v1h1zm264 0h-1v1h1zm-176 0h-1v1h1zm88-44h-1v1h1zm-176 0h-1v1h1zm264 0h-1v1h1zm-176 0h-1v1h1zm88 88h-1v1h1zm-176 0h-1v1h1zm264 0h-1v1h1zm-176 0h-1v1h1z"/><path id="c" d="m600 203h-1v1h1zm-176 0h-1v1h1zm264 0h-1v1h1zm-176 0h-1v1h1zm88 88h-1v1h1zm-176 0h-1v1h1zm264 0h-1v1h1zm-176 0h-1v1h1zm88-44h-1v1h1zm-176 0h-1v1h1zm264 0h-1v1h1zm-176 0h-1v1h1zm88 88h-1v1h1zm-176 0h-1v1h1zm264 0h-1v1h1zm-176 0h-1v1h1zm44-132h-1v1h1zm-176 0h-1v1h1zm264 0h-1v1h1zm-176 0h-1v1h1zm88 88h-1v1h1zm-176 0h-1v1h1zm264 0h-1v1h1zm-176 0h-1v1h1zm88-44h-1v1h1zm-176 0h-1v1h1zm264 0h-1v1h1zm-176 0h-1v1h1zm88 88h-1v1h1zm-176 0h-1v1h1zm264 0h-1v1h1zm-176 0h-1v1h1zm132-154h-1v1h1zm-176 0h-1v1h1zm264 0h-1v1h1zm-176 0h-1v1h1zm88 88h-1v1h1zm-176 0h-1v1h1zm264 0h-1v1h1zm-176 0h-1v1h1zm88-44h-1v1h1zm-176 0h-1v1h1zm264 0h-1v1h1zm-176 0h-1v1h1zm88 88h-1v1h1zm-176 0h-1v1h1zm264 0h-1v1h1zm-176 0h-1v1h1zm44-132h-1v1h1zm-176 0h-1v1h1zm264 0h-1v1h1zm-176 0h-1v1h1zm88 88h-1v1h1zm-176 0h-1v1h1zm264 0h-1v1h1zm-176 0h-1v1h1zm88-44h-1v1h1zm-176 0h-1v1h1zm264 0h-1v1h1zm-176 0h-1v1h1zm88 88h-1v1h1zm-176 0h-1v1h1zm264 0h-1v1h1zm-176 0h-1v1h1zm121-99h-1v1h1zm-176 0h-1v1h1zm264 0h-1v1h1zm-176 0h-1v1h1zm88 88h-1v1h1zm-176 0h-1v1h1zm264 0h-1v1h1zm-176 0h-1v1h1zm88-44h-1v1h1zm-176 0h-1v1h1zm264 0h-1v1h1zm-176 0h-1v1h1zm88 88h-1v1h1zm-176 0h-1v1h1zm264 0h-1v1h1zm-176 0h-1v1h1zm44-132h-1v1h1zm-176 0h-1v1h1zm264 0h-1v1h1zm-176 0h-1v1h1zm88 88h-1v1h1zm-176 0h-1v1h1zm264 0h-1v1h1zm-176 0h-1v1h1zm88-44h-1v1h1zm-176 0h-1v1h1zm264 0h-1v1h1zm-176 0h-1v1h1zm88 88h-1v1h1zm-176 0h-1v1h1zm264 0h-1v1h1zm-176 0h-1v1h1zm132-154h-1v1h1zm-176 0h-1v1h1zm264 0h-1v1h1zm-176 0h-1v1h1zm88 88h-1v1h1zm-176 0h-1v1h1zm264 0h-1v1h1zm-176 0h-1v1h1zm88-44h-1v1h1zm-176 0h-1v1h1zm264 0h-1v1h1zm-176 0h-1v1h1zm88 88h-1v1h1zm-176 0h-1v1h1zm264 0h-1v1h1zm-176 0h-1v1h1zm44-132h-1v1h1zm-176 0h-1v1h1zm264 0h-1v1h1zm-176 0h-1v1h1zm88 88h-1v1h1zm-176 0h-1v1h1zm264 0h-1v1h1zm-176 0h-1v1h1zm88-44h-1v1h1zm-176 0h-1v1h1zm264 0h-1v1h1zm-176 0h-1v1h1zm88 88h-1v1h1zm-176 0h-1v1h1zm264 0h-1v1h1zm-176 0h-1v1h1z"/><path id="d" d="m600 214h-1v1h1zm-176 0h-1v1h1zm264 0h-1v1h1zm-176 0h-1v1h1zm88 88h-1v1h1zm-176 0h-1v1h1zm264 0h-1v1h1zm-176 0h-1v1h1zm88-44h-1v1h1zm-176 0h-1v1h1zm264 0h-1v1h1zm-176 0h-1v1h1zm88 88h-1v1h1zm-176 0h-1v1h1zm264 0h-1v1h1zm-176 0h-1v1h1zm44-132h-1v1h1zm-176 0h-1v1h1zm264 0h-1v1h1zm-176 0h-1v1h1zm88 88h-1v1h1zm-176 0h-1v1h1zm264 0h-1v1h1zm-176 0h-1v1h1zm88-44h-1v1h1zm-176 0h-1v1h1zm264 0h-1v1h1zm-176 0h-1v1h1zm88 88h-1v1h1zm-176 0h-1v1h1zm264 0h-1v1h1zm-176 0h-1v1h1zm132-154h-1v1h1zm-176 0h-1v1h1zm264 0h-1v1h1zm-176 0h-1v1h1zm88 88h-1v1h1zm-176 0h-1v1h1zm264 0h-1v1h1zm-176 0h-1v1h1zm88-44h-1v1h1zm-176 0h-1v1h1zm264 0h-1v1h1zm-176 0h-1v1h1zm88 88h-1v1h1zm-176 0h-1v1h1zm264 0h-1v1h1zm-176 0h-1v1h1zm44-132h-1v1h1zm-176 0h-1v1h1zm264 0h-1v1h1zm-176 0h-1v1h1zm88 88h-1v1h1zm-176 0h-1v1h1zm264 0h-1v1h1zm-176 0h-1v1h1zm88-44h-1v1h1zm-176 0h-1v1h1zm264 0h-1v1h1zm-176 0h-1v1h1zm88 88h-1v1h1zm-176 0h-1v1h1zm264 0h-1v1h1zm-176 0h-1v1h1zm121 55h-1v1h1zm-176 0h-1v1h1zm264 0h-1v1h1zm-176 0h-1v1h1zm88 88h-1v1h1zm-176 0h-1v1h1zm264 0h-1v1h1zm-176 0h-1v1h1zm88-44h-1v1h1zm-176 0h-1v1h1zm264 0h-1v1h1zm-176 0h-1v1h1zm88 88h-1v1h1zm-176 0h-1v1h1zm264 0h-1v1h1zm-176 0h-1v1h1zm44-132h-1v1h1zm-176 0h-1v1h1zm264 0h-1v1h1zm-176 0h-1v1h1zm88 88h-1v1h1zm-176 0h-1v1h1zm264 0h-1v1h1zm-176 0h-1v1h1zm88-44h-1v1h1zm-176 0h-1v1h1zm264 0h-1v1h1zm-176 0h-1v1h1zm88 88h-1v1h1zm-176 0h-1v1h1zm264 0h-1v1h1zm-176 0h-1v1h1zm132-154h-1v1h1zm-176 0h-1v1h1zm264 0h-1v1h1zm-176 0h-1v1h1zm88 88h-1v1h1zm-176 0h-1v1h1zm264 0h-1v1h1zm-176 0h-1v1h1zm88-44h-1v1h1zm-176 0h-1v1h1zm264 0h-1v1h1zm-176 0h-1v1h1zm88 88h-1v1h1zm-176 0h-1v1h1zm264 0h-1v1h1zm-176 0h-1v1h1zm44-132h-1v1h1zm-176 0h-1v1h1zm264 0h-1v1h1zm-176 0h-1v1h1zm88 88h-1v1h1zm-176 0h-1v1h1zm264 0h-1v1h1zm-176 0h-1v1h1zm88-44h-1v1h1zm-176 0h-1v1h1zm264 0h-1v1h1zm-176 0h-1v1h1zm88 88h-1v1h1zm-176 0h-1v1h1zm264 0h-1v1h1zm-176 0h-1v1h1z"/><path id="e" d="m600 742h-1v1h1zm-176 0h-1v1h1zm264 0h-1v1h1zm-176 0h-1v1h1zm88 88h-1v1h1zm-176 0h-1v1h1zm264 0h-1v1h1zm-176 0h-1v1h1zm88-44h-1v1h1zm-176 0h-1v1h1zm264 0h-1v1h1zm-176 0h-1v1h1zm88 88h-1v1h1zm-176 0h-1v1h1zm264 0h-1v1h1zm-176 0h-1v1h1zm44-132h-1v1h1zm-176 0h-1v1h1zm264 0h-1v1h1zm-176 0h-1v1h1zm88 88h-1v1h1zm-176 0h-1v1h1zm264 0h-1v1h1zm-176 0h-1v1h1zm88-44h-1v1h1zm-176 0h-1v1h1zm264 0h-1v1h1zm-176 0h-1v1h1zm88 88h-1v1h1zm-176 0h-1v1h1zm264 0h-1v1h1zm-176 0h-1v1h1zm132-154h-1v1h1zm-176 0h-1v1h1zm264 0h-1v1h1zm-176 0h-1v1h1zm88 88h-1v1h1zm-176 0h-1v1h1zm264 0h-1v1h1zm-176 0h-1v1h1zm88-44h-1v1h1zm-176 0h-1v1h1zm264 0h-1v1h1zm-176 0h-1v1h1zm88 88h-1v1h1zm-176 0h-1v1h1zm264 0h-1v1h1zm-176 0h-1v1h1zm44-132h-1v1h1zm-176 0h-1v1h1zm264 0h-1v1h1zm-176 0h-1v1h1zm88 88h-1v1h1zm-176 0h-1v1h1zm264 0h-1v1h1zm-176 0h-1v1h1zm88-44h-1v1h1zm-176 0h-1v1h1zm264 0h-1v1h1zm-176 0h-1v1h1zm88 88h-1v1h1zm-176 0h-1v1h1zm264 0h-1v1h1zm-176 0h-1v1h1zm-110 33h-1v1h1zm11 0h-1v1h1zm11 0h-1v1h1zm11 0h-1v1h1zm11 0h-1v1h1zm11 0h-1v1h1zm11 0h-1v1h1zm11 0h-1v1h1zm11 0h-1v1h1zm11 0h-1v1h1zm11 0h-1v1h1zm11 0h-1v1h1zm11 0h-1v1h1zm11 0h-1v1h1zm11 0h-1v1h1zm11 0h-1v1h1zm11 0h-1v1h1zm11 0h-1v1h1zm11 0h-1v1h1zm11 0h-1v1h1zm11 0h-1v1h1zm11 0h-1v1h1zm11 0h-1v1h1zm11 0h-1v1h1zm11 0h-1v1h1zm11 0h-1v1h1zm11 0h-1v1h1zm11 0h-1v1h1zm11 0h-1v1h1zm11 0h-1v1h1zm11 0h-1v1h1zm11 0h-1v1h1zm-341 11h-1v1h1zm11 0h-1v1h1zm11 0h-1v1h1zm11 0h-1v1h1zm11 0h-1v1h1zm11 0h-1v1h1zm11 0h-1v1h1zm11 0h-1v1h1zm11 0h-1v1h1zm11 0h-1v1h1zm11 0h-1v1h1zm11 0h-1v1h1zm11 0h-1v1h1zm11 0h-1v1h1zm11 0h-1v1h1zm11 0h-1v1h1zm11 0h-1v1h1zm11 0h-1v1h1zm11 0h-1v1h1zm11 0h-1v1h1zm11 0h-1v1h1zm11 0h-1v1h1zm11 0h-1v1h1zm11 0h-1v1h1zm11 0h-1v1h1zm11 0h-1v1h1zm11 0h-1v1h1zm11 0h-1v1h1zm11 0h-1v1h1zm11 0h-1v1h1zm11 0h-1v1h1zm11 0h-1v1h1z"/></defs><path d="m0 0h1683v900h-1683z" fill="#07182b"/><g fill="#fff" opacity=".3"><path d="m237 27h-1v1h1zm-176 0h-1v1h1zm264 0h-1v1h1zm-176 0h-1v1h1zm88 88h-1v1h1zm-176 0h-1v1h1zm264 0h-1v1h1zm-176 0h-1v1h1zm88-44h-1v1h1zm-176 0h-1v1h1zm264 0h-1v1h1zm-176 0h-1v1h1zm88 88h-1v1h1zm-176 0h-1v1h1zm264 0h-1v1h1zm-176 0h-1v1h1zm44-132h-1v1h1zm-176 0h-1v1h1zm264 0h-1v1h1zm-176 0h-1v1h1zm88 88h-1v1h1zm-176 0h-1v1h1zm264 0h-1v1h1zm-176 0h-1v1h1zm88-44h-1v1h1zm-176 0h-1v1h1zm264 0h-1v1h1zm-176 0h-1v1h1zm88 88h-1v1h1zm-176 0h-1v1h1zm264 0h-1v1h1zm-176 0h-1v1h1zm132-154h-1v1h1zm-176 0h-1v1h1zm264 0h-1v1h1zm-176 0h-1v1h1zm88 88h-1v1h1zm-176 0h-1v1h1zm264 0h-1v1h1zm-176 0h-1v1h1zm88-44h-1v1h1zm-176 0h-1v1h1zm264 0h-1v1h1zm-176 0h-1v1h1zm88 88h-1v1h1zm-176 0h-1v1h1zm264 0h-1v1h1zm-176 0h-1v1h1zm44-132h-1v1h1zm-176 0h-1v1h1zm264 0h-1v1h1zm-176 0h-1v1h1zm88 88h-1v1h1zm-176 0h-1v1h1zm264 0h-1v1h1zm-176 0h-1v1h1zm88-44h-1v1h1zm-176 0h-1v1h1zm264 0h-1v1h1zm-176 0h-1v1h1zm88 88h-1v1h1zm-176 0h-1v1h1zm264 0h-1v1h1zm-176 0h-1v1h1zm154-110h-1v1h1zm-176 0h-1v1h1zm264 0h-1v1h1zm-176 0h-1v1h1zm88 88h-1v1h1zm-176 0h-1v1h1zm264 0h-1v1h1zm-176 0h-1v1h1zm88-44h-1v1h1zm-176 0h-1v1h1zm264 0h-1v1h1zm-176 0h-1v1h1zm88 88h-1v1h1zm-176 0h-1v1h1zm264 0h-1v1h1zm-176 0h-1v1h1zm44-132h-1v1h1zm-176 0h-1v1h1zm264 0h-1v1h1zm-176 0h-1v1h1zm88 88h-1v1h1zm-176 0h-1v1h1zm264 0h-1v1h1zm-176 0h-1v1h1zm88-44h-1v1h1zm-176 0h-1v1h1zm264 0h-1v1h1zm-176 0h-1v1h1zm88 88h-1v1h1zm-176 0h-1v1h1zm264 0h-1v1h1zm-176 0h-1v1h1zm132-154h-1v1h1zm-176 0h-1v1h1zm264 0h-1v1h1zm-176 0h-1v1h1zm88 88h-1v1h1zm-176 0h-1v1h1zm264 0h-1v1h1zm-176 0h-1v1h1zm88-44h-1v1h1zm-176 0h-1v1h1zm264 0h-1v1h1zm-176 0h-1v1h1zm88 88h-1v1h1zm-176 0h-1v1h1zm264 0h-1v1h1zm-176 0h-1v1h1zm44-132h-1v1h1zm-176 0h-1v1h1zm264 0h-1v1h1zm-176 0h-1v1h1zm88 88h-1v1h1zm-176 0h-1v1h1zm264 0h-1v1h1zm-176 0h-1v1h1zm88-44h-1v1h1zm-176 0h-1v1h1zm264 0h-1v1h1zm-176 0h-1v1h1zm88 88h-1v1h1zm-176 0h-1v1h1zm264 0h-1v1h1zm-176 0h-1v1h1z"/><path d="m226 27h-1v1h1zm-176 0h-1v1h1zm264 0h-1v1h1zm-176 0h-1v1h1zm88 88h-1v1h1zm-176 0h-1v1h1zm264 0h-1v1h1zm-176 0h-1v1h1zm88-44h-1v1h1zm-176 0h-1v1h1zm264 0h-1v1h1zm-176 0h-1v1h1zm88 88h-1v1h1zm-176 0h-1v1h1zm264 0h-1v1h1zm-176 0h-1v1h1zm44-132h-1v1h1zm-176 0h-1v1h1zm264 0h-1v1h1zm-176 0h-1v1h1zm88 88h-1v1h1zm-176 0h-1v1h1zm264 0h-1v1h1zm-176 0h-1v1h1zm88-44h-1v1h1zm-176 0h-1v1h1zm264 0h-1v1h1zm-176 0h-1v1h1zm88 88h-1v1h1zm-176 0h-1v1h1zm264 0h-1v1h1zm-176 0h-1v1h1zm132-154h-1v1h1zm-176 0h-1v1h1zm264 0h-1v1h1zm-176 0h-1v1h1zm88 88h-1v1h1zm-176 0h-1v1h1zm264 0h-1v1h1zm-176 0h-1v1h1zm88-44h-1v1h1zm-176 0h-1v1h1zm264 0h-1v1h1zm-176 0h-1v1h1zm88 88h-1v1h1zm-176 0h-1v1h1zm264 0h-1v1h1zm-176 0h-1v1h1zm44-132h-1v1h1zm-176 0h-1v1h1zm264 0h-1v1h1zm-176 0h-1v1h1zm88 88h-1v1h1zm-176 0h-1v1h1zm264 0h-1v1h1zm-176 0h-1v1h1zm88-44h-1v1h1zm-176 0h-1v1h1zm264 0h-1v1h1zm-176 0h-1v1h1zm88 88h-1v1h1zm-176 0h-1v1h1zm264 0h-1v1h1zm-176 0h-1v1h1zm154-110h-1v1h1zm-176 0h-1v1h1zm264 0h-1v1h1zm-176 0h-1v1h1zm88 88h-1v1h1zm-176 0h-1v1h1zm264 0h-1v1h1zm-176 0h-1v1h1zm88-44h-1v1h1zm-176 0h-1v1h1zm264 0h-1v1h1zm-176 0h-1v1h1zm88 88h-1v1h1zm-176 0h-1v1h1zm264 0h-1v1h1zm-176 0h-1v1h1zm44-132h-1v1h1zm-176 0h-1v1h1zm264 0h-1v1h1zm-176 0h-1v1h1zm88 88h-1v1h1zm-176 0h-1v1h1zm264 0h-1v1h1zm-176 0h-1v1h1zm88-44h-1v1h1zm-176 0h-1v1h1zm264 0h-1v1h1zm-176 0h-1v1h1zm88 88h-1v1h1zm-176 0h-1v1h1zm264 0h-1v1h1zm-176 0h-1v1h1zm132-154h-1v1h1zm-176 0h-1v1h1zm264 0h-1v1h1zm-176 0h-1v1h1zm88 88h-1v1h1zm-176 0h-1v1h1zm264 0h-1v1h1zm-176 0h-1v1h1zm88-44h-1v1h1zm-176 0h-1v1h1zm264 0h-1v1h1zm-176 0h-1v1h1zm88 88h-1v1h1zm-176 0h-1v1h1zm264 0h-1v1h1zm-176 0h-1v1h1zm44-132h-1v1h1zm-176 0h-1v1h1zm264 0h-1v1h1zm-176 0h-1v1h1zm88 88h-1v1h1zm-176 0h-1v1h1zm264 0h-1v1h1zm-176 0h-1v1h1zm88-44h-1v1h1zm-176 0h-1v1h1zm264 0h-1v1h1zm-176 0h-1v1h1zm88 88h-1v1h1zm-176 0h-1v1h1zm264 0h-1v1h1zm-176 0h-1v1h1z"/><path d="m237 38h-1v1h1zm-176 0h-1v1h1zm264 0h-1v1h1zm-176 0h-1v1h1zm88 88h-1v1h1zm-176 0h-1v1h1zm264 0h-1v1h1zm-176 0h-1v1h1zm88-44h-1v1h1zm-176 0h-1v1h1zm264 0h-1v1h1zm-176 0h-1v1h1zm88 88h-1v1h1zm-176 0h-1v1h1zm264 0h-1v1h1zm-176 0h-1v1h1zm44-132h-1v1h1zm-176 0h-1v1h1zm264 0h-1v1h1zm-176 0h-1v1h1zm88 88h-1v1h1zm-176 0h-1v1h1zm264 0h-1v1h1zm-176 0h-1v1h1zm88-44h-1v1h1zm-176 0h-1v1h1zm264 0h-1v1h1zm-176 0h-1v1h1zm88 88h-1v1h1zm-176 0h-1v1h1zm264 0h-1v1h1zm-176 0h-1v1h1zm132-154h-1v1h1zm-176 0h-1v1h1zm264 0h-1v1h1zm-176 0h-1v1h1zm88 88h-1v1h1zm-176 0h-1v1h1zm264 0h-1v1h1zm-176 0h-1v1h1zm88-44h-1v1h1zm-176 0h-1v1h1zm264 0h-1v1h1zm-176 0h-1v1h1zm88 88h-1v1h1zm-176 0h-1v1h1zm264 0h-1v1h1zm-176 0h-1v1h1zm44-132h-1v1h1zm-176 0h-1v1h1zm264 0h-1v1h1zm-176 0h-1v1h1zm88 88h-1v1h1zm-176 0h-1v1h1zm264 0h-1v1h1zm-176 0h-1v1h1zm88-44h-1v1h1zm-176 0h-1v1h1zm264 0h-1v1h1zm-176 0h-1v1h1zm88 88h-1v1h1zm-176 0h-1v1h1zm264 0h-1v1h1zm-176 0h-1v1h1zm154-110h-1v1h1zm-176 0h-1v1h1zm264 0h-1v1h1zm-176 0h-1v1h1zm88 88h-1v1h1zm-176 0h-1v1h1zm264 0h-1v1h1zm-176 0h-1v1h1zm88-44h-1v1h1zm-176 0h-1v1h1zm264 0h-1v1h1zm-176 0h-1v1h1zm88 88h-1v1h1zm-176 0h-1v1h1zm264 0h-1v1h1zm-176 0h-1v1h1zm44-132h-1v1h1zm-176 0h-1v1h1zm264 0h-1v1h1zm-176 0h-1v1h1zm88 88h-1v1h1zm-176 0h-1v1h1zm264 0h-1v1h1zm-176 0h-1v1h1zm88-44h-1v1h1zm-176 0h-1v1h1zm264 0h-1v1h1zm-176 0h-1v1h1zm88 88h-1v1h1zm-176 0h-1v1h1zm264 0h-1v1h1zm-176 0h-1v1h1zm132-154h-1v1h1zm-176 0h-1v1h1zm264 0h-1v1h1zm-176 0h-1v1h1zm88 88h-1v1h1zm-176 0h-1v1h1zm264 0h-1v1h1zm-176 0h-1v1h1zm88-44h-1v1h1zm-176 0h-1v1h1zm264 0h-1v1h1zm-176 0h-1v1h1zm88 88h-1v1h1zm-176 0h-1v1h1zm264 0h-1v1h1zm-176 0h-1v1h1zm44-132h-1v1h1zm-176 0h-1v1h1zm264 0h-1v1h1zm-176 0h-1v1h1zm88 88h-1v1h1zm-176 0h-1v1h1zm264 0h-1v1h1zm-176 0h-1v1h1zm88-44h-1v1h1zm-176 0h-1v1h1zm264 0h-1v1h1zm-176 0h-1v1h1zm88 88h-1v1h1zm-176 0h-1v1h1zm264 0h-1v1h1zm-176 0h-1v1h1z"/><path d="m226 38h-1v1h1zm-176 0h-1v1h1zm264 0h-1v1h1zm-176 0h-1v1h1zm88 88h-1v1h1zm-176 0h-1v1h1zm264 0h-1v1h1zm-176 0h-1v1h1zm88-44h-1v1h1zm-176 0h-1v1h1zm264 0h-1v1h1zm-176 0h-1v1h1zm88 88h-1v1h1zm-176 0h-1v1h1zm264 0h-1v1h1zm-176 0h-1v1h1zm44-132h-1v1h1zm-176 0h-1v1h1zm264 0h-1v1h1zm-176 0h-1v1h1zm88 88h-1v1h1zm-176 0h-1v1h1zm264 0h-1v1h1zm-176 0h-1v1h1zm88-44h-1v1h1zm-176 0h-1v1h1zm264 0h-1v1h1zm-176 0h-1v1h1zm88 88h-1v1h1zm-176 0h-1v1h1zm264 0h-1v1h1zm-176 0h-1v1h1zm132-154h-1v1h1zm-176 0h-1v1h1zm264 0h-1v1h1zm-176 0h-1v1h1zm88 88h-1v1h1zm-176 0h-1v1h1zm264 0h-1v1h1zm-176 0h-1v1h1zm88-44h-1v1h1zm-176 0h-1v1h1zm264 0h-1v1h1zm-176 0h-1v1h1zm88 88h-1v1h1zm-176 0h-1v1h1zm264 0h-1v1h1zm-176 0h-1v1h1zm44-132h-1v1h1zm-176 0h-1v1h1zm264 0h-1v1h1zm-176 0h-1v1h1zm88 88h-1v1h1zm-176 0h-1v1h1zm264 0h-1v1h1zm-176 0h-1v1h1zm88-44h-1v1h1zm-176 0h-1v1h1zm264 0h-1v1h1zm-176 0h-1v1h1zm88 88h-1v1h1zm-176 0h-1v1h1zm264 0h-1v1h1zm-176 0h-1v1h1zm154-110h-1v1h1zm-176 0h-1v1h1zm264 0h-1v1h1zm-176 0h-1v1h1zm88 88h-1v1h1zm-176 0h-1v1h1zm264 0h-1v1h1zm-176 0h-1v1h1zm88-44h-1v1h1zm-176 0h-1v1h1zm264 0h-1v1h1zm-176 0h-1v1h1zm88 88h-1v1h1zm-176 0h-1v1h1zm264 0h-1v1h1zm-176 0h-1v1h1zm44-132h-1v1h1zm-176 0h-1v1h1zm264 0h-1v1h1zm-176 0h-1v1h1zm88 88h-1v1h1zm-176 0h-1v1h1zm264 0h-1v1h1zm-176 0h-1v1h1zm88-44h-1v1h1zm-176 0h-1v1h1zm264 0h-1v1h1zm-176 0h-1v1h1zm88 88h-1v1h1zm-176 0h-1v1h1zm264 0h-1v1h1zm-176 0h-1v1h1zm132-154h-1v1h1zm-176 0h-1v1h1zm264 0h-1v1h1zm-176 0h-1v1h1zm88 88h-1v1h1zm-176 0h-1v1h1zm264 0h-1v1h1zm-176 0h-1v1h1zm88-44h-1v1h1zm-176 0h-1v1h1zm264 0h-1v1h1zm-176 0h-1v1h1zm88 88h-1v1h1zm-176 0h-1v1h1zm264 0h-1v1h1zm-176 0h-1v1h1zm44-132h-1v1h1zm-176 0h-1v1h1zm264 0h-1v1h1zm-176 0h-1v1h1zm88 88h-1v1h1zm-176 0h-1v1h1zm264 0h-1v1h1zm-176 0h-1v1h1zm88-44h-1v1h1zm-176 0h-1v1h1zm264 0h-1v1h1zm-176 0h-1v1h1zm88 88h-1v1h1zm-176 0h-1v1h1zm264 0h-1v1h1zm-176 0h-1v1h1z"/><use xlink:href="#a"/><path d="m226 203h-1v1h1zm-176 0h-1v1h1zm264 0h-1v1h1zm-176 0h-1v1h1zm88 88h-1v1h1zm-176 0h-1v1h1zm264 0h-1v1h1zm-176 0h-1v1h1zm88-44h-1v1h1zm-176 0h-1v1h1zm264 0h-1v1h1zm-176 0h-1v1h1zm88 88h-1v1h1zm-176 0h-1v1h1zm264 0h-1v1h1zm-176 0h-1v1h1zm44-132h-1v1h1zm-176 0h-1v1h1zm264 0h-1v1h1zm-176 0h-1v1h1zm88 88h-1v1h1zm-176 0h-1v1h1zm264 0h-1v1h1zm-176 0h-1v1h1zm88-44h-1v1h1zm-176 0h-1v1h1zm264 0h-1v1h1zm-176 0h-1v1h1zm88 88h-1v1h1zm-176 0h-1v1h1zm264 0h-1v1h1zm-176 0h-1v1h1zm132-154h-1v1h1zm-176 0h-1v1h1zm264 0h-1v1h1zm-176 0h-1v1h1zm88 88h-1v1h1zm-176 0h-1v1h1zm264 0h-1v1h1zm-176 0h-1v1h1zm88-44h-1v1h1zm-176 0h-1v1h1zm264 0h-1v1h1zm-176 0h-1v1h1zm88 88h-1v1h1zm-176 0h-1v1h1zm264 0h-1v1h1zm-176 0h-1v1h1zm44-132h-1v1h1zm-176 0h-1v1h1zm264 0h-1v1h1zm-176 0h-1v1h1zm88 88h-1v1h1zm-176 0h-1v1h1zm264 0h-1v1h1zm-176 0h-1v1h1zm88-44h-1v1h1zm-176 0h-1v1h1zm264 0h-1v1h1zm-176 0h-1v1h1zm88 88h-1v1h1zm-176 0h-1v1h1zm264 0h-1v1h1zm-176 0h-1v1h1zm154-110h-1v1h1zm-176 0h-1v1h1zm264 0h-1v1h1zm-176 0h-1v1h1zm88 88h-1v1h1zm-176 0h-1v1h1zm264 0h-1v1h1zm-176 0h-1v1h1zm88-44h-1v1h1zm-176 0h-1v1h1zm264 0h-1v1h1zm-176 0h-1v1h1zm88 88h-1v1h1zm-176 0h-1v1h1zm264 0h-1v1h1zm-176 0h-1v1h1zm44-132h-1v1h1zm-176 0h-1v1h1zm264 0h-1v1h1zm-176 0h-1v1h1zm88 88h-1v1h1zm-176 0h-1v1h1zm264 0h-1v1h1zm-176 0h-1v1h1zm88-44h-1v1h1zm-176 0h-1v1h1zm264 0h-1v1h1zm-176 0h-1v1h1zm88 88h-1v1h1zm-176 0h-1v1h1zm264 0h-1v1h1zm-176 0h-1v1h1zm132-154h-1v1h1zm-176 0h-1v1h1zm264 0h-1v1h1zm-176 0h-1v1h1zm88 88h-1v1h1zm-176 0h-1v1h1zm264 0h-1v1h1zm-176 0h-1v1h1zm88-44h-1v1h1zm-176 0h-1v1h1zm264 0h-1v1h1zm-176 0h-1v1h1zm88 88h-1v1h1zm-176 0h-1v1h1zm264 0h-1v1h1zm-176 0h-1v1h1zm44-132h-1v1h1zm-176 0h-1v1h1zm264 0h-1v1h1zm-176 0h-1v1h1zm88 88h-1v1h1zm-176 0h-1v1h1zm264 0h-1v1h1zm-176 0h-1v1h1zm88-44h-1v1h1zm-176 0h-1v1h1zm264 0h-1v1h1zm-176 0h-1v1h1zm88 88h-1v1h1zm-176 0h-1v1h1zm264 0h-1v1h1zm-176 0h-1v1h1z"/><use xlink:href="#a" y="11"/><path d="m226 214h-1v1h1zm-176 0h-1v1h1zm264 0h-1v1h1zm-176 0h-1v1h1zm88 88h-1v1h1zm-176 0h-1v1h1zm264 0h-1v1h1zm-176 0h-1v1h1zm88-44h-1v1h1zm-176 0h-1v1h1zm264 0h-1v1h1zm-176 0h-1v1h1zm88 88h-1v1h1zm-176 0h-1v1h1zm264 0h-1v1h1zm-176 0h-1v1h1zm44-132h-1v1h1zm-176 0h-1v1h1zm264 0h-1v1h1zm-176 0h-1v1h1zm88 88h-1v1h1zm-176 0h-1v1h1zm264 0h-1v1h1zm-176 0h-1v1h1zm88-44h-1v1h1zm-176 0h-1v1h1zm264 0h-1v1h1zm-176 0h-1v1h1zm88 88h-1v1h1zm-176 0h-1v1h1zm264 0h-1v1h1zm-176 0h-1v1h1zm132-154h-1v1h1zm-176 0h-1v1h1zm264 0h-1v1h1zm-176 0h-1v1h1zm88 88h-1v1h1zm-176 0h-1v1h1zm264 0h-1v1h1zm-176 0h-1v1h1zm88-44h-1v1h1zm-176 0h-1v1h1zm264 0h-1v1h1zm-176 0h-1v1h1zm88 88h-1v1h1zm-176 0h-1v1h1zm264 0h-1v1h1zm-176 0h-1v1h1zm44-132h-1v1h1zm-176 0h-1v1h1zm264 0h-1v1h1zm-176 0h-1v1h1zm88 88h-1v1h1zm-176 0h-1v1h1zm264 0h-1v1h1zm-176 0h-1v1h1zm88-44h-1v1h1zm-176 0h-1v1h1zm264 0h-1v1h1zm-176 0h-1v1h1zm88 88h-1v1h1zm-176 0h-1v1h1zm264 0h-1v1h1zm-176 0h-1v1h1zm154-110h-1v1h1zm-176 0h-1v1h1zm264 0h-1v1h1zm-176 0h-1v1h1zm88 88h-1v1h1zm-176 0h-1v1h1zm264 0h-1v1h1zm-176 0h-1v1h1zm88-44h-1v1h1zm-176 0h-1v1h1zm264 0h-1v1h1zm-176 0h-1v1h1zm88 88h-1v1h1zm-176 0h-1v1h1zm264 0h-1v1h1zm-176 0h-1v1h1zm44-132h-1v1h1zm-176 0h-1v1h1zm264 0h-1v1h1zm-176 0h-1v1h1zm88 88h-1v1h1zm-176 0h-1v1h1zm264 0h-1v1h1zm-176 0h-1v1h1zm88-44h-1v1h1zm-176 0h-1v1h1zm264 0h-1v1h1zm-176 0h-1v1h1zm88 88h-1v1h1zm-176 0h-1v1h1zm264 0h-1v1h1zm-176 0h-1v1h1zm132-154h-1v1h1zm-176 0h-1v1h1zm264 0h-1v1h1zm-176 0h-1v1h1zm88 88h-1v1h1zm-176 0h-1v1h1zm264 0h-1v1h1zm-176 0h-1v1h1zm88-44h-1v1h1zm-176 0h-1v1h1zm264 0h-1v1h1zm-176 0h-1v1h1zm88 88h-1v1h1zm-176 0h-1v1h1zm264 0h-1v1h1zm-176 0h-1v1h1zm44-132h-1v1h1zm-176 0h-1v1h1zm264 0h-1v1h1zm-176 0h-1v1h1zm88 88h-1v1h1zm-176 0h-1v1h1zm264 0h-1v1h1zm-176 0h-1v1h1zm88-44h-1v1h1zm-176 0h-1v1h1zm264 0h-1v1h1zm-176 0h-1v1h1zm88 88h-1v1h1zm-176 0h-1v1h1zm264 0h-1v1h1zm-176 0h-1v1h1z"/><use xlink:href="#a" y="176"/><path d="m226 379h-1v1h1zm-176 0h-1v1h1zm264 0h-1v1h1zm-176 0h-1v1h1zm88 88h-1v1h1zm-176 0h-1v1h1zm264 0h-1v1h1zm-176 0h-1v1h1zm88-44h-1v1h1zm-176 0h-1v1h1zm264 0h-1v1h1zm-176 0h-1v1h1zm88 88h-1v1h1zm-176 0h-1v1h1zm264 0h-1v1h1zm-176 0h-1v1h1zm44-132h-1v1h1zm-176 0h-1v1h1zm264 0h-1v1h1zm-176 0h-1v1h1zm88 88h-1v1h1zm-176 0h-1v1h1zm264 0h-1v1h1zm-176 0h-1v1h1zm88-44h-1v1h1zm-176 0h-1v1h1zm264 0h-1v1h1zm-176 0h-1v1h1zm88 88h-1v1h1zm-176 0h-1v1h1zm264 0h-1v1h1zm-176 0h-1v1h1zm132-154h-1v1h1zm-176 0h-1v1h1zm264 0h-1v1h1zm-176 0h-1v1h1zm88 88h-1v1h1zm-176 0h-1v1h1zm264 0h-1v1h1zm-176 0h-1v1h1zm88-44h-1v1h1zm-176 0h-1v1h1zm264 0h-1v1h1zm-176 0h-1v1h1zm88 88h-1v1h1zm-176 0h-1v1h1zm264 0h-1v1h1zm-176 0h-1v1h1zm44-132h-1v1h1zm-176 0h-1v1h1zm264 0h-1v1h1zm-176 0h-1v1h1zm88 88h-1v1h1zm-176 0h-1v1h1zm264 0h-1v1h1zm-176 0h-1v1h1zm88-44h-1v1h1zm-176 0h-1v1h1zm264 0h-1v1h1zm-176 0h-1v1h1zm88 88h-1v1h1zm-176 0h-1v1h1zm264 0h-1v1h1zm-176 0h-1v1h1zm154-110h-1v1h1zm-176 0h-1v1h1zm264 0h-1v1h1zm-176 0h-1v1h1zm88 88h-1v1h1zm-176 0h-1v1h1zm264 0h-1v1h1zm-176 0h-1v1h1zm88-44h-1v1h1zm-176 0h-1v1h1zm264 0h-1v1h1zm-176 0h-1v1h1zm88 88h-1v1h1zm-176 0h-1v1h1zm264 0h-1v1h1zm-176 0h-1v1h1zm44-132h-1v1h1zm-176 0h-1v1h1zm264 0h-1v1h1zm-176 0h-1v1h1zm88 88h-1v1h1zm-176 0h-1v1h1zm264 0h-1v1h1zm-176 0h-1v1h1zm88-44h-1v1h1zm-176 0h-1v1h1zm264 0h-1v1h1zm-176 0h-1v1h1zm88 88h-1v1h1zm-176 0h-1v1h1zm264 0h-1v1h1zm-176 0h-1v1h1zm132-154h-1v1h1zm-176 0h-1v1h1zm264 0h-1v1h1zm-176 0h-1v1h1zm88 88h-1v1h1zm-176 0h-1v1h1zm264 0h-1v1h1zm-176 0h-1v1h1zm88-44h-1v1h1zm-176 0h-1v1h1zm264 0h-1v1h1zm-176 0h-1v1h1zm88 88h-1v1h1zm-176 0h-1v1h1zm264 0h-1v1h1zm-176 0h-1v1h1zm44-132h-1v1h1zm-176 0h-1v1h1zm264 0h-1v1h1zm-176 0h-1v1h1zm88 88h-1v1h1zm-176 0h-1v1h1zm264 0h-1v1h1zm-176 0h-1v1h1zm88-44h-1v1h1zm-176 0h-1v1h1zm264 0h-1v1h1zm-176 0h-1v1h1zm88 88h-1v1h1zm-176 0h-1v1h1zm264 0h-1v1h1zm-176 0h-1v1h1z"/><use xlink:href="#a" y="187"/><path d="m226 390h-1v1h1zm-176 0h-1v1h1zm264 0h-1v1h1zm-176 0h-1v1h1zm88 88h-1v1h1zm-176 0h-1v1h1zm264 0h-1v1h1zm-176 0h-1v1h1zm88-44h-1v1h1zm-176 0h-1v1h1zm264 0h-1v1h1zm-176 0h-1v1h1zm88 88h-1v1h1zm-176 0h-1v1h1zm264 0h-1v1h1zm-176 0h-1v1h1zm44-132h-1v1h1zm-176 0h-1v1h1zm264 0h-1v1h1zm-176 0h-1v1h1zm88 88h-1v1h1zm-176 0h-1v1h1zm264 0h-1v1h1zm-176 0h-1v1h1zm88-44h-1v1h1zm-176 0h-1v1h1zm264 0h-1v1h1zm-176 0h-1v1h1zm88 88h-1v1h1zm-176 0h-1v1h1zm264 0h-1v1h1zm-176 0h-1v1h1zm132-154h-1v1h1zm-176 0h-1v1h1zm264 0h-1v1h1zm-176 0h-1v1h1zm88 88h-1v1h1zm-176 0h-1v1h1zm264 0h-1v1h1zm-176 0h-1v1h1zm88-44h-1v1h1zm-176 0h-1v1h1zm264 0h-1v1h1zm-176 0h-1v1h1zm88 88h-1v1h1zm-176 0h-1v1h1zm264 0h-1v1h1zm-176 0h-1v1h1zm44-132h-1v1h1zm-176 0h-1v1h1zm264 0h-1v1h1zm-176 0h-1v1h1zm88 88h-1v1h1zm-176 0h-1v1h1zm264 0h-1v1h1zm-176 0h-1v1h1zm88-44h-1v1h1zm-176 0h-1v1h1zm264 0h-1v1h1zm-176 0h-1v1h1zm88 88h-1v1h1zm-176 0h-1v1h1zm264 0h-1v1h1zm-176 0h-1v1h1zm154-110h-1v1h1zm-176 0h-1v1h1zm264 0h-1v1h1zm-176 0h-1v1h1zm88 88h-1v1h1zm-176 0h-1v1h1zm264 0h-1v1h1zm-176 0h-1v1h1zm88-44h-1v1h1zm-176 0h-1v1h1zm264 0h-1v1h1zm-176 0h-1v1h1zm88 88h-1v1h1zm-176 0h-1v1h1zm264 0h-1v1h1zm-176 0h-1v1h1zm44-132h-1v1h1zm-176 0h-1v1h1zm264 0h-1v1h1zm-176 0h-1v1h1zm88 88h-1v1h1zm-176 0h-1v1h1zm264 0h-1v1h1zm-176 0h-1v1h1zm88-44h-1v1h1zm-176 0h-1v1h1zm264 0h-1v1h1zm-176 0h-1v1h1zm88 88h-1v1h1zm-176 0h-1v1h1zm264 0h-1v1h1zm-176 0h-1v1h1zm132-154h-1v1h1zm-176 0h-1v1h1zm264 0h-1v1h1zm-176 0h-1v1h1zm88 88h-1v1h1zm-176 0h-1v1h1zm264 0h-1v1h1zm-176 0h-1v1h1zm88-44h-1v1h1zm-176 0h-1v1h1zm264 0h-1v1h1zm-176 0h-1v1h1zm88 88h-1v1h1zm-176 0h-1v1h1zm264 0h-1v1h1zm-176 0h-1v1h1zm44-132h-1v1h1zm-176 0h-1v1h1zm264 0h-1v1h1zm-176 0h-1v1h1zm88 88h-1v1h1zm-176 0h-1v1h1zm264 0h-1v1h1zm-176 0h-1v1h1zm88-44h-1v1h1zm-176 0h-1v1h1zm264 0h-1v1h1zm-176 0h-1v1h1zm88 88h-1v1h1zm-176 0h-1v1h1zm264 0h-1v1h1zm-176 0h-1v1h1z"/><use xlink:href="#a" y="352"/><path d="m226 555h-1v1h1zm-176 0h-1v1h1zm264 0h-1v1h1zm-176 0h-1v1h1zm88 88h-1v1h1zm-176 0h-1v1h1zm264 0h-1v1h1zm-176 0h-1v1h1zm88-44h-1v1h1zm-176 0h-1v1h1zm264 0h-1v1h1zm-176 0h-1v1h1zm88 88h-1v1h1zm-176 0h-1v1h1zm264 0h-1v1h1zm-176 0h-1v1h1zm44-132h-1v1h1zm-176 0h-1v1h1zm264 0h-1v1h1zm-176 0h-1v1h1zm88 88h-1v1h1zm-176 0h-1v1h1zm264 0h-1v1h1zm-176 0h-1v1h1zm88-44h-1v1h1zm-176 0h-1v1h1zm264 0h-1v1h1zm-176 0h-1v1h1zm88 88h-1v1h1zm-176 0h-1v1h1zm264 0h-1v1h1zm-176 0h-1v1h1zm132-154h-1v1h1zm-176 0h-1v1h1zm264 0h-1v1h1zm-176 0h-1v1h1zm88 88h-1v1h1zm-176 0h-1v1h1zm264 0h-1v1h1zm-176 0h-1v1h1zm88-44h-1v1h1zm-176 0h-1v1h1zm264 0h-1v1h1zm-176 0h-1v1h1zm88 88h-1v1h1zm-176 0h-1v1h1zm264 0h-1v1h1zm-176 0h-1v1h1zm44-132h-1v1h1zm-176 0h-1v1h1zm264 0h-1v1h1zm-176 0h-1v1h1zm88 88h-1v1h1zm-176 0h-1v1h1zm264 0h-1v1h1zm-176 0h-1v1h1zm88-44h-1v1h1zm-176 0h-1v1h1zm264 0h-1v1h1zm-176 0h-1v1h1zm88 88h-1v1h1zm-176 0h-1v1h1zm264 0h-1v1h1zm-176 0h-1v1h1zm154-110h-1v1h1zm-176 0h-1v1h1zm264 0h-1v1h1zm-176 0h-1v1h1zm88 88h-1v1h1zm-176 0h-1v1h1zm264 0h-1v1h1zm-176 0h-1v1h1zm88-44h-1v1h1zm-176 0h-1v1h1zm264 0h-1v1h1zm-176 0h-1v1h1zm88 88h-1v1h1zm-176 0h-1v1h1zm264 0h-1v1h1zm-176 0h-1v1h1zm44-132h-1v1h1zm-176 0h-1v1h1zm264 0h-1v1h1zm-176 0h-1v1h1zm88 88h-1v1h1zm-176 0h-1v1h1zm264 0h-1v1h1zm-176 0h-1v1h1zm88-44h-1v1h1zm-176 0h-1v1h1zm264 0h-1v1h1zm-176 0h-1v1h1zm88 88h-1v1h1zm-176 0h-1v1h1zm264 0h-1v1h1zm-176 0h-1v1h1zm132-154h-1v1h1zm-176 0h-1v1h1zm264 0h-1v1h1zm-176 0h-1v1h1zm88 88h-1v1h1zm-176 0h-1v1h1zm264 0h-1v1h1zm-176 0h-1v1h1zm88-44h-1v1h1zm-176 0h-1v1h1zm264 0h-1v1h1zm-176 0h-1v1h1zm88 88h-1v1h1zm-176 0h-1v1h1zm264 0h-1v1h1zm-176 0h-1v1h1zm44-132h-1v1h1zm-176 0h-1v1h1zm264 0h-1v1h1zm-176 0h-1v1h1zm88 88h-1v1h1zm-176 0h-1v1h1zm264 0h-1v1h1zm-176 0h-1v1h1zm88-44h-1v1h1zm-176 0h-1v1h1zm264 0h-1v1h1zm-176 0h-1v1h1zm88 88h-1v1h1zm-176 0h-1v1h1zm264 0h-1v1h1zm-176 0h-1v1h1z"/><use xlink:href="#a" y="363"/><path d="m226 566h-1v1h1zm-176 0h-1v1h1zm264 0h-1v1h1zm-176 0h-1v1h1zm88 88h-1v1h1zm-176 0h-1v1h1zm264 0h-1v1h1zm-176 0h-1v1h1zm88-44h-1v1h1zm-176 0h-1v1h1zm264 0h-1v1h1zm-176 0h-1v1h1zm88 88h-1v1h1zm-176 0h-1v1h1zm264 0h-1v1h1zm-176 0h-1v1h1zm44-132h-1v1h1zm-176 0h-1v1h1zm264 0h-1v1h1zm-176 0h-1v1h1zm88 88h-1v1h1zm-176 0h-1v1h1zm264 0h-1v1h1zm-176 0h-1v1h1zm88-44h-1v1h1zm-176 0h-1v1h1zm264 0h-1v1h1zm-176 0h-1v1h1zm88 88h-1v1h1zm-176 0h-1v1h1zm264 0h-1v1h1zm-176 0h-1v1h1zm132-154h-1v1h1zm-176 0h-1v1h1zm264 0h-1v1h1zm-176 0h-1v1h1zm88 88h-1v1h1zm-176 0h-1v1h1zm264 0h-1v1h1zm-176 0h-1v1h1zm88-44h-1v1h1zm-176 0h-1v1h1zm264 0h-1v1h1zm-176 0h-1v1h1zm88 88h-1v1h1zm-176 0h-1v1h1zm264 0h-1v1h1zm-176 0h-1v1h1zm44-132h-1v1h1zm-176 0h-1v1h1zm264 0h-1v1h1zm-176 0h-1v1h1zm88 88h-1v1h1zm-176 0h-1v1h1zm264 0h-1v1h1zm-176 0h-1v1h1zm88-44h-1v1h1zm-176 0h-1v1h1zm264 0h-1v1h1zm-176 0h-1v1h1zm88 88h-1v1h1zm-176 0h-1v1h1zm264 0h-1v1h1zm-176 0h-1v1h1zm154-110h-1v1h1zm-176 0h-1v1h1zm264 0h-1v1h1zm-176 0h-1v1h1zm88 88h-1v1h1zm-176 0h-1v1h1zm264 0h-1v1h1zm-176 0h-1v1h1zm88-44h-1v1h1zm-176 0h-1v1h1zm264 0h-1v1h1zm-176 0h-1v1h1zm88 88h-1v1h1zm-176 0h-1v1h1zm264 0h-1v1h1zm-176 0h-1v1h1zm44-132h-1v1h1zm-176 0h-1v1h1zm264 0h-1v1h1zm-176 0h-1v1h1zm88 88h-1v1h1zm-176 0h-1v1h1zm264 0h-1v1h1zm-176 0h-1v1h1zm88-44h-1v1h1zm-176 0h-1v1h1zm264 0h-1v1h1zm-176 0h-1v1h1zm88 88h-1v1h1zm-176 0h-1v1h1zm264 0h-1v1h1zm-176 0h-1v1h1zm132-154h-1v1h1zm-176 0h-1v1h1zm264 0h-1v1h1zm-176 0h-1v1h1zm88 88h-1v1h1zm-176 0h-1v1h1zm264 0h-1v1h1zm-176 0h-1v1h1zm88-44h-1v1h1zm-176 0h-1v1h1zm264 0h-1v1h1zm-176 0h-1v1h1zm88 88h-1v1h1zm-176 0h-1v1h1zm264 0h-1v1h1zm-176 0h-1v1h1zm44-132h-1v1h1zm-176 0h-1v1h1zm264 0h-1v1h1zm-176 0h-1v1h1zm88 88h-1v1h1zm-176 0h-1v1h1zm264 0h-1v1h1zm-176 0h-1v1h1zm88-44h-1v1h1zm-176 0h-1v1h1zm264 0h-1v1h1zm-176 0h-1v1h1zm88 88h-1v1h1zm-176 0h-1v1h1zm264 0h-1v1h1zm-176 0h-1v1h1z"/><use xlink:href="#a" y="528"/><path d="m226 731h-1v1h1zm-176 0h-1v1h1zm264 0h-1v1h1zm-176 0h-1v1h1zm88 88h-1v1h1zm-176 0h-1v1h1zm264 0h-1v1h1zm-176 0h-1v1h1zm88-44h-1v1h1zm-176 0h-1v1h1zm264 0h-1v1h1zm-176 0h-1v1h1zm88 88h-1v1h1zm-176 0h-1v1h1zm264 0h-1v1h1zm-176 0h-1v1h1zm44-132h-1v1h1zm-176 0h-1v1h1zm264 0h-1v1h1zm-176 0h-1v1h1zm88 88h-1v1h1zm-176 0h-1v1h1zm264 0h-1v1h1zm-176 0h-1v1h1zm88-44h-1v1h1zm-176 0h-1v1h1zm264 0h-1v1h1zm-176 0h-1v1h1zm88 88h-1v1h1zm-176 0h-1v1h1zm264 0h-1v1h1zm-176 0h-1v1h1zm132-154h-1v1h1zm-176 0h-1v1h1zm264 0h-1v1h1zm-176 0h-1v1h1zm88 88h-1v1h1zm-176 0h-1v1h1zm264 0h-1v1h1zm-176 0h-1v1h1zm88-44h-1v1h1zm-176 0h-1v1h1zm264 0h-1v1h1zm-176 0h-1v1h1zm88 88h-1v1h1zm-176 0h-1v1h1zm264 0h-1v1h1zm-176 0h-1v1h1zm44-132h-1v1h1zm-176 0h-1v1h1zm264 0h-1v1h1zm-176 0h-1v1h1zm88 88h-1v1h1zm-176 0h-1v1h1zm264 0h-1v1h1zm-176 0h-1v1h1zm88-44h-1v1h1zm-176 0h-1v1h1zm264 0h-1v1h1zm-176 0h-1v1h1zm88 88h-1v1h1zm-176 0h-1v1h1zm264 0h-1v1h1zm-176 0h-1v1h1zm154-110h-1v1h1zm-176 0h-1v1h1zm264 0h-1v1h1zm-176 0h-1v1h1zm88 88h-1v1h1zm-176 0h-1v1h1zm264 0h-1v1h1zm-176 0h-1v1h1zm88-44h-1v1h1zm-176 0h-1v1h1zm264 0h-1v1h1zm-176 0h-1v1h1zm88 88h-1v1h1zm-176 0h-1v1h1zm264 0h-1v1h1zm-176 0h-1v1h1zm44-132h-1v1h1zm-176 0h-1v1h1zm264 0h-1v1h1zm-176 0h-1v1h1zm88 88h-1v1h1zm-176 0h-1v1h1zm264 0h-1v1h1zm-176 0h-1v1h1zm88-44h-1v1h1zm-176 0h-1v1h1zm264 0h-1v1h1zm-176 0h-1v1h1zm88 88h-1v1h1zm-176 0h-1v1h1zm264 0h-1v1h1zm-176 0h-1v1h1zm132-154h-1v1h1zm-176 0h-1v1h1zm264 0h-1v1h1zm-176 0h-1v1h1zm88 88h-1v1h1zm-176 0h-1v1h1zm264 0h-1v1h1zm-176 0h-1v1h1zm88-44h-1v1h1zm-176 0h-1v1h1zm264 0h-1v1h1zm-176 0h-1v1h1zm88 88h-1v1h1zm-176 0h-1v1h1zm264 0h-1v1h1zm-176 0h-1v1h1zm44-132h-1v1h1zm-176 0h-1v1h1zm264 0h-1v1h1zm-176 0h-1v1h1zm88 88h-1v1h1zm-176 0h-1v1h1zm264 0h-1v1h1zm-176 0h-1v1h1zm88-44h-1v1h1zm-176 0h-1v1h1zm264 0h-1v1h1zm-176 0h-1v1h1zm88 88h-1v1h1zm-176 0h-1v1h1zm264 0h-1v1h1zm-176 0h-1v1h1z"/><use xlink:href="#a" y="539"/><path d="m226 742h-1v1h1zm-176 0h-1v1h1zm264 0h-1v1h1zm-176 0h-1v1h1zm88 88h-1v1h1zm-176 0h-1v1h1zm264 0h-1v1h1zm-176 0h-1v1h1zm88-44h-1v1h1zm-176 0h-1v1h1zm264 0h-1v1h1zm-176 0h-1v1h1zm88 88h-1v1h1zm-176 0h-1v1h1zm264 0h-1v1h1zm-176 0h-1v1h1zm44-132h-1v1h1zm-176 0h-1v1h1zm264 0h-1v1h1zm-176 0h-1v1h1zm88 88h-1v1h1zm-176 0h-1v1h1zm264 0h-1v1h1zm-176 0h-1v1h1zm88-44h-1v1h1zm-176 0h-1v1h1zm264 0h-1v1h1zm-176 0h-1v1h1zm88 88h-1v1h1zm-176 0h-1v1h1zm264 0h-1v1h1zm-176 0h-1v1h1zm132-154h-1v1h1zm-176 0h-1v1h1zm264 0h-1v1h1zm-176 0h-1v1h1zm88 88h-1v1h1zm-176 0h-1v1h1zm264 0h-1v1h1zm-176 0h-1v1h1zm88-44h-1v1h1zm-176 0h-1v1h1zm264 0h-1v1h1zm-176 0h-1v1h1zm88 88h-1v1h1zm-176 0h-1v1h1zm264 0h-1v1h1zm-176 0h-1v1h1zm44-132h-1v1h1zm-176 0h-1v1h1zm264 0h-1v1h1zm-176 0h-1v1h1zm88 88h-1v1h1zm-176 0h-1v1h1zm264 0h-1v1h1zm-176 0h-1v1h1zm88-44h-1v1h1zm-176 0h-1v1h1zm264 0h-1v1h1zm-176 0h-1v1h1zm88 88h-1v1h1zm-176 0h-1v1h1zm264 0h-1v1h1zm-176 0h-1v1h1zm154-110h-1v1h1zm-176 0h-1v1h1zm264 0h-1v1h1zm-176 0h-1v1h1zm88 88h-1v1h1zm-176 0h-1v1h1zm264 0h-1v1h1zm-176 0h-1v1h1zm88-44h-1v1h1zm-176 0h-1v1h1zm264 0h-1v1h1zm-176 0h-1v1h1zm88 88h-1v1h1zm-176 0h-1v1h1zm264 0h-1v1h1zm-176 0h-1v1h1zm44-132h-1v1h1zm-176 0h-1v1h1zm264 0h-1v1h1zm-176 0h-1v1h1zm88 88h-1v1h1zm-176 0h-1v1h1zm264 0h-1v1h1zm-176 0h-1v1h1zm88-44h-1v1h1zm-176 0h-1v1h1zm264 0h-1v1h1zm-176 0h-1v1h1zm88 88h-1v1h1zm-176 0h-1v1h1zm264 0h-1v1h1zm-176 0h-1v1h1zm132-154h-1v1h1zm-176 0h-1v1h1zm264 0h-1v1h1zm-176 0h-1v1h1zm88 88h-1v1h1zm-176 0h-1v1h1zm264 0h-1v1h1zm-176 0h-1v1h1zm88-44h-1v1h1zm-176 0h-1v1h1zm264 0h-1v1h1zm-176 0h-1v1h1zm88 88h-1v1h1zm-176 0h-1v1h1zm264 0h-1v1h1zm-176 0h-1v1h1zm44-132h-1v1h1zm-176 0h-1v1h1zm264 0h-1v1h1zm-176 0h-1v1h1zm88 88h-1v1h1zm-176 0h-1v1h1zm264 0h-1v1h1zm-176 0h-1v1h1zm88-44h-1v1h1zm-176 0h-1v1h1zm264 0h-1v1h1zm-176 0h-1v1h1zm88 88h-1v1h1zm-176 0h-1v1h1zm264 0h-1v1h1zm-176 0h-1v1h1z"/><path d="m6 885h-1v1h1zm11 0h-1v1h1zm11 0h-1v1h1zm11 0h-1v1h1zm11 0h-1v1h1zm11 0h-1v1h1zm11 0h-1v1h1zm11 0h-1v1h1zm11 0h-1v1h1zm11 0h-1v1h1zm11 0h-1v1h1zm11 0h-1v1h1zm11 0h-1v1h1zm11 0h-1v1h1zm11 0h-1v1h1zm11 0h-1v1h1zm11 0h-1v1h1zm11 0h-1v1h1zm11 0h-1v1h1zm11 0h-1v1h1zm11 0h-1v1h1zm11 0h-1v1h1zm11 0h-1v1h1zm11 0h-1v1h1zm11 0h-1v1h1zm11 0h-1v1h1zm11 0h-1v1h1zm11 0h-1v1h1zm11 0h-1v1h1zm11 0h-1v1h1zm11 0h-1v1h1zm11 0h-1v1h1zm-341 11h-1v1h1zm11 0h-1v1h1zm11 0h-1v1h1zm11 0h-1v1h1zm11 0h-1v1h1zm11 0h-1v1h1zm11 0h-1v1h1zm11 0h-1v1h1zm11 0h-1v1h1zm11 0h-1v1h1zm11 0h-1v1h1zm11 0h-1v1h1zm11 0h-1v1h1zm11 0h-1v1h1zm11 0h-1v1h1zm11 0h-1v1h1zm11 0h-1v1h1zm11 0h-1v1h1zm11 0h-1v1h1zm11 0h-1v1h1zm11 0h-1v1h1zm11 0h-1v1h1zm11 0h-1v1h1zm11 0h-1v1h1zm11 0h-1v1h1zm11 0h-1v1h1zm11 0h-1v1h1zm11 0h-1v1h1zm11 0h-1v1h1zm11 0h-1v1h1zm11 0h-1v1h1zm11 0h-1v1h1zm242-869h-1v1h1zm-176 0h-1v1h1zm264 0h-1v1h1zm-176 0h-1v1h1zm88 88h-1v1h1zm-176 0h-1v1h1zm264 0h-1v1h1zm-176 0h-1v1h1zm88-44h-1v1h1zm-176 0h-1v1h1zm264 0h-1v1h1zm-176 0h-1v1h1zm88 88h-1v1h1zm-176 0h-1v1h1zm264 0h-1v1h1zm-176 0h-1v1h1zm44-132h-1v1h1zm-176 0h-1v1h1zm264 0h-1v1h1zm-176 0h-1v1h1zm88 88h-1v1h1zm-176 0h-1v1h1zm264 0h-1v1h1zm-176 0h-1v1h1zm88-44h-1v1h1zm-176 0h-1v1h1zm264 0h-1v1h1zm-176 0h-1v1h1zm88 88h-1v1h1zm-176 0h-1v1h1zm264 0h-1v1h1zm-176 0h-1v1h1zm132-154h-1v1h1zm-176 0h-1v1h1zm264 0h-1v1h1zm-176 0h-1v1h1zm88 88h-1v1h1zm-176 0h-1v1h1zm264 0h-1v1h1zm-176 0h-1v1h1zm88-44h-1v1h1zm-176 0h-1v1h1zm264 0h-1v1h1zm-176 0h-1v1h1zm88 88h-1v1h1zm-176 0h-1v1h1zm264 0h-1v1h1zm-176 0h-1v1h1zm44-132h-1v1h1zm-176 0h-1v1h1zm264 0h-1v1h1zm-176 0h-1v1h1zm88 88h-1v1h1zm-176 0h-1v1h1zm264 0h-1v1h1zm-176 0h-1v1h1zm88-44h-1v1h1zm-176 0h-1v1h1zm264 0h-1v1h1zm-176 0h-1v1h1zm88 88h-1v1h1zm-176 0h-1v1h1zm264 0h-1v1h1zm-176 0h-1v1h1z"/><path d="m611 27h-1v1h1zm-176 0h-1v1h1zm264 0h-1v1h1zm-176 0h-1v1h1zm88 88h-1v1h1zm-176 0h-1v1h1zm264 0h-1v1h1zm-176 0h-1v1h1zm88-44h-1v1h1zm-176 0h-1v1h1zm264 0h-1v1h1zm-176 0h-1v1h1zm88 88h-1v1h1zm-176 0h-1v1h1zm264 0h-1v1h1zm-176 0h-1v1h1zm44-132h-1v1h1zm-176 0h-1v1h1zm264 0h-1v1h1zm-176 0h-1v1h1zm88 88h-1v1h1zm-176 0h-1v1h1zm264 0h-1v1h1zm-176 0h-1v1h1zm88-44h-1v1h1zm-176 0h-1v1h1zm264 0h-1v1h1zm-176 0h-1v1h1zm88 88h-1v1h1zm-176 0h-1v1h1zm264 0h-1v1h1zm-176 0h-1v1h1zm132-154h-1v1h1zm-176 0h-1v1h1zm264 0h-1v1h1zm-176 0h-1v1h1zm88 88h-1v1h1zm-176 0h-1v1h1zm264 0h-1v1h1zm-176 0h-1v1h1zm88-44h-1v1h1zm-176 0h-1v1h1zm264 0h-1v1h1zm-176 0h-1v1h1zm88 88h-1v1h1zm-176 0h-1v1h1zm264 0h-1v1h1zm-176 0h-1v1h1zm44-132h-1v1h1zm-176 0h-1v1h1zm264 0h-1v1h1zm-176 0h-1v1h1zm88 88h-1v1h1zm-176 0h-1v1h1zm264 0h-1v1h1zm-176 0h-1v1h1zm88-44h-1v1h1zm-176 0h-1v1h1zm264 0h-1v1h1zm-176 0h-1v1h1zm88 88h-1v1h1zm-176 0h-1v1h1zm264 0h-1v1h1zm-176 0h-1v1h1zm99-110h-1v1h1zm-176 0h-1v1h1zm264 0h-1v1h1zm-176 0h-1v1h1zm88 88h-1v1h1zm-176 0h-1v1h1zm264 0h-1v1h1zm-176 0h-1v1h1zm88-44h-1v1h1zm-176 0h-1v1h1zm264 0h-1v1h1zm-176 0h-1v1h1zm88 88h-1v1h1zm-176 0h-1v1h1zm264 0h-1v1h1zm-176 0h-1v1h1zm44-132h-1v1h1zm-176 0h-1v1h1zm264 0h-1v1h1zm-176 0h-1v1h1zm88 88h-1v1h1zm-176 0h-1v1h1zm264 0h-1v1h1zm-176 0h-1v1h1zm88-44h-1v1h1zm-176 0h-1v1h1zm264 0h-1v1h1zm-176 0h-1v1h1zm88 88h-1v1h1zm-176 0h-1v1h1zm264 0h-1v1h1zm-176 0h-1v1h1zm132-154h-1v1h1zm-176 0h-1v1h1zm264 0h-1v1h1zm-176 0h-1v1h1zm88 88h-1v1h1zm-176 0h-1v1h1zm264 0h-1v1h1zm-176 0h-1v1h1zm88-44h-1v1h1zm-176 0h-1v1h1zm264 0h-1v1h1zm-176 0h-1v1h1zm88 88h-1v1h1zm-176 0h-1v1h1zm264 0h-1v1h1zm-176 0h-1v1h1zm44-132h-1v1h1zm-176 0h-1v1h1zm264 0h-1v1h1zm-176 0h-1v1h1zm88 88h-1v1h1zm-176 0h-1v1h1zm264 0h-1v1h1zm-176 0h-1v1h1zm88-44h-1v1h1zm-176 0h-1v1h1zm264 0h-1v1h1zm-176 0h-1v1h1zm88 88h-1v1h1zm-176 0h-1v1h1zm264 0h-1v1h1zm-176 0h-1v1h1z"/><path d="m600 27h-1v1h1zm-176 0h-1v1h1zm264 0h-1v1h1zm-176 0h-1v1h1zm88 88h-1v1h1zm-176 0h-1v1h1zm264 0h-1v1h1zm-176 0h-1v1h1zm88-44h-1v1h1zm-176 0h-1v1h1zm264 0h-1v1h1zm-176 0h-1v1h1zm88 88h-1v1h1zm-176 0h-1v1h1zm264 0h-1v1h1zm-176 0h-1v1h1zm44-132h-1v1h1zm-176 0h-1v1h1zm264 0h-1v1h1zm-176 0h-1v1h1zm88 88h-1v1h1zm-176 0h-1v1h1zm264 0h-1v1h1zm-176 0h-1v1h1zm88-44h-1v1h1zm-176 0h-1v1h1zm264 0h-1v1h1zm-176 0h-1v1h1zm88 88h-1v1h1zm-176 0h-1v1h1zm264 0h-1v1h1zm-176 0h-1v1h1zm132-154h-1v1h1zm-176 0h-1v1h1zm264 0h-1v1h1zm-176 0h-1v1h1zm88 88h-1v1h1zm-176 0h-1v1h1zm264 0h-1v1h1zm-176 0h-1v1h1zm88-44h-1v1h1zm-176 0h-1v1h1zm264 0h-1v1h1zm-176 0h-1v1h1zm88 88h-1v1h1zm-176 0h-1v1h1zm264 0h-1v1h1zm-176 0h-1v1h1zm44-132h-1v1h1zm-176 0h-1v1h1zm264 0h-1v1h1zm-176 0h-1v1h1zm88 88h-1v1h1zm-176 0h-1v1h1zm264 0h-1v1h1zm-176 0h-1v1h1zm88-44h-1v1h1zm-176 0h-1v1h1zm264 0h-1v1h1zm-176 0h-1v1h1zm88 88h-1v1h1zm-176 0h-1v1h1zm264 0h-1v1h1zm-176 0h-1v1h1zm121-99h-1v1h1zm-176 0h-1v1h1zm264 0h-1v1h1zm-176 0h-1v1h1zm88 88h-1v1h1zm-176 0h-1v1h1zm264 0h-1v1h1zm-176 0h-1v1h1zm88-44h-1v1h1zm-176 0h-1v1h1zm264 0h-1v1h1zm-176 0h-1v1h1zm88 88h-1v1h1zm-176 0h-1v1h1zm264 0h-1v1h1zm-176 0h-1v1h1zm44-132h-1v1h1zm-176 0h-1v1h1zm264 0h-1v1h1zm-176 0h-1v1h1zm88 88h-1v1h1zm-176 0h-1v1h1zm264 0h-1v1h1zm-176 0h-1v1h1zm88-44h-1v1h1zm-176 0h-1v1h1zm264 0h-1v1h1zm-176 0h-1v1h1zm88 88h-1v1h1zm-176 0h-1v1h1zm264 0h-1v1h1zm-176 0h-1v1h1zm132-154h-1v1h1zm-176 0h-1v1h1zm264 0h-1v1h1zm-176 0h-1v1h1zm88 88h-1v1h1zm-176 0h-1v1h1zm264 0h-1v1h1zm-176 0h-1v1h1zm88-44h-1v1h1zm-176 0h-1v1h1zm264 0h-1v1h1zm-176 0h-1v1h1zm88 88h-1v1h1zm-176 0h-1v1h1zm264 0h-1v1h1zm-176 0h-1v1h1zm44-132h-1v1h1zm-176 0h-1v1h1zm264 0h-1v1h1zm-176 0h-1v1h1zm88 88h-1v1h1zm-176 0h-1v1h1zm264 0h-1v1h1zm-176 0h-1v1h1zm88-44h-1v1h1zm-176 0h-1v1h1zm264 0h-1v1h1zm-176 0h-1v1h1zm88 88h-1v1h1zm-176 0h-1v1h1zm264 0h-1v1h1zm-176 0h-1v1h1z"/><path d="m611 38h-1v1h1zm-176 0h-1v1h1zm264 0h-1v1h1zm-176 0h-1v1h1zm88 88h-1v1h1zm-176 0h-1v1h1zm264 0h-1v1h1zm-176 0h-1v1h1zm88-44h-1v1h1zm-176 0h-1v1h1zm264 0h-1v1h1zm-176 0h-1v1h1zm88 88h-1v1h1zm-176 0h-1v1h1zm264 0h-1v1h1zm-176 0h-1v1h1zm44-132h-1v1h1zm-176 0h-1v1h1zm264 0h-1v1h1zm-176 0h-1v1h1zm88 88h-1v1h1zm-176 0h-1v1h1zm264 0h-1v1h1zm-176 0h-1v1h1zm88-44h-1v1h1zm-176 0h-1v1h1zm264 0h-1v1h1zm-176 0h-1v1h1zm88 88h-1v1h1zm-176 0h-1v1h1zm264 0h-1v1h1zm-176 0h-1v1h1zm132-154h-1v1h1zm-176 0h-1v1h1zm264 0h-1v1h1zm-176 0h-1v1h1zm88 88h-1v1h1zm-176 0h-1v1h1zm264 0h-1v1h1zm-176 0h-1v1h1zm88-44h-1v1h1zm-176 0h-1v1h1zm264 0h-1v1h1zm-176 0h-1v1h1zm88 88h-1v1h1zm-176 0h-1v1h1zm264 0h-1v1h1zm-176 0h-1v1h1zm44-132h-1v1h1zm-176 0h-1v1h1zm264 0h-1v1h1zm-176 0h-1v1h1zm88 88h-1v1h1zm-176 0h-1v1h1zm264 0h-1v1h1zm-176 0h-1v1h1zm88-44h-1v1h1zm-176 0h-1v1h1zm264 0h-1v1h1zm-176 0h-1v1h1zm88 88h-1v1h1zm-176 0h-1v1h1zm264 0h-1v1h1zm-176 0h-1v1h1zm99-110h-1v1h1zm-176 0h-1v1h1zm264 0h-1v1h1zm-176 0h-1v1h1zm88 88h-1v1h1zm-176 0h-1v1h1zm264 0h-1v1h1zm-176 0h-1v1h1zm88-44h-1v1h1zm-176 0h-1v1h1zm264 0h-1v1h1zm-176 0h-1v1h1zm88 88h-1v1h1zm-176 0h-1v1h1zm264 0h-1v1h1zm-176 0h-1v1h1zm44-132h-1v1h1zm-176 0h-1v1h1zm264 0h-1v1h1zm-176 0h-1v1h1zm88 88h-1v1h1zm-176 0h-1v1h1zm264 0h-1v1h1zm-176 0h-1v1h1zm88-44h-1v1h1zm-176 0h-1v1h1zm264 0h-1v1h1zm-176 0h-1v1h1zm88 88h-1v1h1zm-176 0h-1v1h1zm264 0h-1v1h1zm-176 0h-1v1h1zm132-154h-1v1h1zm-176 0h-1v1h1zm264 0h-1v1h1zm-176 0h-1v1h1zm88 88h-1v1h1zm-176 0h-1v1h1zm264 0h-1v1h1zm-176 0h-1v1h1zm88-44h-1v1h1zm-176 0h-1v1h1zm264 0h-1v1h1zm-176 0h-1v1h1zm88 88h-1v1h1zm-176 0h-1v1h1zm264 0h-1v1h1zm-176 0h-1v1h1zm44-132h-1v1h1zm-176 0h-1v1h1zm264 0h-1v1h1zm-176 0h-1v1h1zm88 88h-1v1h1zm-176 0h-1v1h1zm264 0h-1v1h1zm-176 0h-1v1h1zm88-44h-1v1h1zm-176 0h-1v1h1zm264 0h-1v1h1zm-176 0h-1v1h1zm88 88h-1v1h1zm-176 0h-1v1h1zm264 0h-1v1h1zm-176 0h-1v1h1z"/><path d="m600 38h-1v1h1zm-176 0h-1v1h1zm264 0h-1v1h1zm-176 0h-1v1h1zm88 88h-1v1h1zm-176 0h-1v1h1zm264 0h-1v1h1zm-176 0h-1v1h1zm88-44h-1v1h1zm-176 0h-1v1h1zm264 0h-1v1h1zm-176 0h-1v1h1zm88 88h-1v1h1zm-176 0h-1v1h1zm264 0h-1v1h1zm-176 0h-1v1h1zm44-132h-1v1h1zm-176 0h-1v1h1zm264 0h-1v1h1zm-176 0h-1v1h1zm88 88h-1v1h1zm-176 0h-1v1h1zm264 0h-1v1h1zm-176 0h-1v1h1zm88-44h-1v1h1zm-176 0h-1v1h1zm264 0h-1v1h1zm-176 0h-1v1h1zm88 88h-1v1h1zm-176 0h-1v1h1zm264 0h-1v1h1zm-176 0h-1v1h1zm132-154h-1v1h1zm-176 0h-1v1h1zm264 0h-1v1h1zm-176 0h-1v1h1zm88 88h-1v1h1zm-176 0h-1v1h1zm264 0h-1v1h1zm-176 0h-1v1h1zm88-44h-1v1h1zm-176 0h-1v1h1zm264 0h-1v1h1zm-176 0h-1v1h1zm88 88h-1v1h1zm-176 0h-1v1h1zm264 0h-1v1h1zm-176 0h-1v1h1zm44-132h-1v1h1zm-176 0h-1v1h1zm264 0h-1v1h1zm-176 0h-1v1h1zm88 88h-1v1h1zm-176 0h-1v1h1zm264 0h-1v1h1zm-176 0h-1v1h1zm88-44h-1v1h1zm-176 0h-1v1h1zm264 0h-1v1h1zm-176 0h-1v1h1zm88 88h-1v1h1zm-176 0h-1v1h1zm264 0h-1v1h1zm-176 0h-1v1h1zm121 55h-1v1h1zm-176 0h-1v1h1zm264 0h-1v1h1zm-176 0h-1v1h1zm88 88h-1v1h1zm-176 0h-1v1h1zm264 0h-1v1h1zm-176 0h-1v1h1zm88-44h-1v1h1zm-176 0h-1v1h1zm264 0h-1v1h1zm-176 0h-1v1h1zm88 88h-1v1h1zm-176 0h-1v1h1zm264 0h-1v1h1zm-176 0h-1v1h1zm44-132h-1v1h1zm-176 0h-1v1h1zm264 0h-1v1h1zm-176 0h-1v1h1zm88 88h-1v1h1zm-176 0h-1v1h1zm264 0h-1v1h1zm-176 0h-1v1h1zm88-44h-1v1h1zm-176 0h-1v1h1zm264 0h-1v1h1zm-176 0h-1v1h1zm88 88h-1v1h1zm-176 0h-1v1h1zm264 0h-1v1h1zm-176 0h-1v1h1zm132-154h-1v1h1zm-176 0h-1v1h1zm264 0h-1v1h1zm-176 0h-1v1h1zm88 88h-1v1h1zm-176 0h-1v1h1zm264 0h-1v1h1zm-176 0h-1v1h1zm88-44h-1v1h1zm-176 0h-1v1h1zm264 0h-1v1h1zm-176 0h-1v1h1zm88 88h-1v1h1zm-176 0h-1v1h1zm264 0h-1v1h1zm-176 0h-1v1h1zm44-132h-1v1h1zm-176 0h-1v1h1zm264 0h-1v1h1zm-176 0h-1v1h1zm88 88h-1v1h1zm-176 0h-1v1h1zm264 0h-1v1h1zm-176 0h-1v1h1zm88-44h-1v1h1zm-176 0h-1v1h1zm264 0h-1v1h1zm-176 0h-1v1h1zm88 88h-1v1h1zm-176 0h-1v1h1zm264 0h-1v1h1zm-176 0h-1v1h1z"/><use xlink:href="#b"/><use xlink:href="#c"/><use xlink:href="#b" y="11"/><use xlink:href="#d"/><use xlink:href="#b" y="176"/><use xlink:href="#c" y="176"/><use xlink:href="#b" y="187"/><use xlink:href="#d" y="176"/><use xlink:href="#b" y="352"/><use xlink:href="#c" y="352"/><use xlink:href="#b" y="363"/><use xlink:href="#d" y="352"/><use xlink:href="#b" y="528"/><use xlink:href="#c" y="528"/><use xlink:href="#b" y="539"/><use xlink:href="#e"/><path d="m941 27h-1v1h1zm-176 0h-1v1h1zm264 0h-1v1h1zm-176 0h-1v1h1zm88 88h-1v1h1zm-176 0h-1v1h1zm264 0h-1v1h1zm-176 0h-1v1h1zm88-44h-1v1h1zm-176 0h-1v1h1zm264 0h-1v1h1zm-176 0h-1v1h1zm88 88h-1v1h1zm-176 0h-1v1h1zm264 0h-1v1h1zm-176 0h-1v1h1zm44-132h-1v1h1zm-176 0h-1v1h1zm264 0h-1v1h1zm-176 0h-1v1h1zm88 88h-1v1h1zm-176 0h-1v1h1zm264 0h-1v1h1zm-176 0h-1v1h1zm88-44h-1v1h1zm-176 0h-1v1h1zm264 0h-1v1h1zm-176 0h-1v1h1zm88 88h-1v1h1zm-176 0h-1v1h1zm264 0h-1v1h1zm-176 0h-1v1h1zm132-154h-1v1h1zm-176 0h-1v1h1zm264 0h-1v1h1zm-176 0h-1v1h1zm88 88h-1v1h1zm-176 0h-1v1h1zm264 0h-1v1h1zm-176 0h-1v1h1zm88-44h-1v1h1zm-176 0h-1v1h1zm264 0h-1v1h1zm-176 0h-1v1h1zm88 88h-1v1h1zm-176 0h-1v1h1zm264 0h-1v1h1zm-176 0h-1v1h1zm44-132h-1v1h1zm-176 0h-1v1h1zm264 0h-1v1h1zm-176 0h-1v1h1zm88 88h-1v1h1zm-176 0h-1v1h1zm264 0h-1v1h1zm-176 0h-1v1h1zm88-44h-1v1h1zm-176 0h-1v1h1zm264 0h-1v1h1zm-176 0h-1v1h1zm88 88h-1v1h1zm-176 0h-1v1h1zm264 0h-1v1h1zm-176 0h-1v1h1zm154-110h-1v1h1zm-176 0h-1v1h1zm264 0h-1v1h1zm-176 0h-1v1h1zm88 88h-1v1h1zm-176 0h-1v1h1zm264 0h-1v1h1zm-176 0h-1v1h1zm88-44h-1v1h1zm-176 0h-1v1h1zm264 0h-1v1h1zm-176 0h-1v1h1zm88 88h-1v1h1zm-176 0h-1v1h1zm264 0h-1v1h1zm-176 0h-1v1h1zm44-132h-1v1h1zm-176 0h-1v1h1zm264 0h-1v1h1zm-176 0h-1v1h1zm88 88h-1v1h1zm-176 0h-1v1h1zm264 0h-1v1h1zm-176 0h-1v1h1zm88-44h-1v1h1zm-176 0h-1v1h1zm264 0h-1v1h1zm-176 0h-1v1h1zm88 88h-1v1h1zm-176 0h-1v1h1zm264 0h-1v1h1zm-176 0h-1v1h1zm132-154h-1v1h1zm-176 0h-1v1h1zm264 0h-1v1h1zm-176 0h-1v1h1zm88 88h-1v1h1zm-176 0h-1v1h1zm264 0h-1v1h1zm-176 0h-1v1h1zm88-44h-1v1h1zm-176 0h-1v1h1zm264 0h-1v1h1zm-176 0h-1v1h1zm88 88h-1v1h1zm-176 0h-1v1h1zm264 0h-1v1h1zm-176 0h-1v1h1zm44-132h-1v1h1zm-176 0h-1v1h1zm264 0h-1v1h1zm-176 0h-1v1h1zm88 88h-1v1h1zm-176 0h-1v1h1zm264 0h-1v1h1zm-176 0h-1v1h1zm88-44h-1v1h1zm-176 0h-1v1h1zm264 0h-1v1h1zm-176 0h-1v1h1zm88 88h-1v1h1zm-176 0h-1v1h1zm264 0h-1v1h1zm-176 0h-1v1h1z"/><path d="m930 27h-1v1h1zm-176 0h-1v1h1zm264 0h-1v1h1zm-176 0h-1v1h1zm88 88h-1v1h1zm-176 0h-1v1h1zm264 0h-1v1h1zm-176 0h-1v1h1zm88-44h-1v1h1zm-176 0h-1v1h1zm264 0h-1v1h1zm-176 0h-1v1h1zm88 88h-1v1h1zm-176 0h-1v1h1zm264 0h-1v1h1zm-176 0h-1v1h1zm44-132h-1v1h1zm-176 0h-1v1h1zm264 0h-1v1h1zm-176 0h-1v1h1zm88 88h-1v1h1zm-176 0h-1v1h1zm264 0h-1v1h1zm-176 0h-1v1h1zm88-44h-1v1h1zm-176 0h-1v1h1zm264 0h-1v1h1zm-176 0h-1v1h1zm88 88h-1v1h1zm-176 0h-1v1h1zm264 0h-1v1h1zm-176 0h-1v1h1zm132-154h-1v1h1zm-176 0h-1v1h1zm264 0h-1v1h1zm-176 0h-1v1h1zm88 88h-1v1h1zm-176 0h-1v1h1zm264 0h-1v1h1zm-176 0h-1v1h1zm88-44h-1v1h1zm-176 0h-1v1h1zm264 0h-1v1h1zm-176 0h-1v1h1zm88 88h-1v1h1zm-176 0h-1v1h1zm264 0h-1v1h1zm-176 0h-1v1h1zm44-132h-1v1h1zm-176 0h-1v1h1zm264 0h-1v1h1zm-176 0h-1v1h1zm88 88h-1v1h1zm-176 0h-1v1h1zm264 0h-1v1h1zm-176 0h-1v1h1zm88-44h-1v1h1zm-176 0h-1v1h1zm264 0h-1v1h1zm-176 0h-1v1h1zm88 88h-1v1h1zm-176 0h-1v1h1zm264 0h-1v1h1zm-176 0h-1v1h1zm154-110h-1v1h1zm-176 0h-1v1h1zm264 0h-1v1h1zm-176 0h-1v1h1zm88 88h-1v1h1zm-176 0h-1v1h1zm264 0h-1v1h1zm-176 0h-1v1h1zm88-44h-1v1h1zm-176 0h-1v1h1zm264 0h-1v1h1zm-176 0h-1v1h1zm88 88h-1v1h1zm-176 0h-1v1h1zm264 0h-1v1h1zm-176 0h-1v1h1zm44-132h-1v1h1zm-176 0h-1v1h1zm264 0h-1v1h1zm-176 0h-1v1h1zm88 88h-1v1h1zm-176 0h-1v1h1zm264 0h-1v1h1zm-176 0h-1v1h1zm88-44h-1v1h1zm-176 0h-1v1h1zm264 0h-1v1h1zm-176 0h-1v1h1zm88 88h-1v1h1zm-176 0h-1v1h1zm264 0h-1v1h1zm-176 0h-1v1h1zm132-154h-1v1h1zm-176 0h-1v1h1zm264 0h-1v1h1zm-176 0h-1v1h1zm88 88h-1v1h1zm-176 0h-1v1h1zm264 0h-1v1h1zm-176 0h-1v1h1zm88-44h-1v1h1zm-176 0h-1v1h1zm264 0h-1v1h1zm-176 0h-1v1h1zm88 88h-1v1h1zm-176 0h-1v1h1zm264 0h-1v1h1zm-176 0h-1v1h1zm44-132h-1v1h1zm-176 0h-1v1h1zm264 0h-1v1h1zm-176 0h-1v1h1zm88 88h-1v1h1zm-176 0h-1v1h1zm264 0h-1v1h1zm-176 0h-1v1h1zm88-44h-1v1h1zm-176 0h-1v1h1zm264 0h-1v1h1zm-176 0h-1v1h1zm88 88h-1v1h1zm-176 0h-1v1h1zm264 0h-1v1h1zm-176 0h-1v1h1z"/><path d="m941 38h-1v1h1zm-176 0h-1v1h1zm264 0h-1v1h1zm-176 0h-1v1h1zm88 88h-1v1h1zm-176 0h-1v1h1zm264 0h-1v1h1zm-176 0h-1v1h1zm88-44h-1v1h1zm-176 0h-1v1h1zm264 0h-1v1h1zm-176 0h-1v1h1zm88 88h-1v1h1zm-176 0h-1v1h1zm264 0h-1v1h1zm-176 0h-1v1h1zm44-132h-1v1h1zm-176 0h-1v1h1zm264 0h-1v1h1zm-176 0h-1v1h1zm88 88h-1v1h1zm-176 0h-1v1h1zm264 0h-1v1h1zm-176 0h-1v1h1zm88-44h-1v1h1zm-176 0h-1v1h1zm264 0h-1v1h1zm-176 0h-1v1h1zm88 88h-1v1h1zm-176 0h-1v1h1zm264 0h-1v1h1zm-176 0h-1v1h1zm132-154h-1v1h1zm-176 0h-1v1h1zm264 0h-1v1h1zm-176 0h-1v1h1zm88 88h-1v1h1zm-176 0h-1v1h1zm264 0h-1v1h1zm-176 0h-1v1h1zm88-44h-1v1h1zm-176 0h-1v1h1zm264 0h-1v1h1zm-176 0h-1v1h1zm88 88h-1v1h1zm-176 0h-1v1h1zm264 0h-1v1h1zm-176 0h-1v1h1zm44-132h-1v1h1zm-176 0h-1v1h1zm264 0h-1v1h1zm-176 0h-1v1h1zm88 88h-1v1h1zm-176 0h-1v1h1zm264 0h-1v1h1zm-176 0h-1v1h1zm88-44h-1v1h1zm-176 0h-1v1h1zm264 0h-1v1h1zm-176 0h-1v1h1zm88 88h-1v1h1zm-176 0h-1v1h1zm264 0h-1v1h1zm-176 0h-1v1h1zm154-110h-1v1h1zm-176 0h-1v1h1zm264 0h-1v1h1zm-176 0h-1v1h1zm88 88h-1v1h1zm-176 0h-1v1h1zm264 0h-1v1h1zm-176 0h-1v1h1zm88-44h-1v1h1zm-176 0h-1v1h1zm264 0h-1v1h1zm-176 0h-1v1h1zm88 88h-1v1h1zm-176 0h-1v1h1zm264 0h-1v1h1zm-176 0h-1v1h1zm44-132h-1v1h1zm-176 0h-1v1h1zm264 0h-1v1h1zm-176 0h-1v1h1zm88 88h-1v1h1zm-176 0h-1v1h1zm264 0h-1v1h1zm-176 0h-1v1h1zm88-44h-1v1h1zm-176 0h-1v1h1zm264 0h-1v1h1zm-176 0h-1v1h1zm88 88h-1v1h1zm-176 0h-1v1h1zm264 0h-1v1h1zm-176 0h-1v1h1zm132-154h-1v1h1zm-176 0h-1v1h1zm264 0h-1v1h1zm-176 0h-1v1h1zm88 88h-1v1h1zm-176 0h-1v1h1zm264 0h-1v1h1zm-176 0h-1v1h1zm88-44h-1v1h1zm-176 0h-1v1h1zm264 0h-1v1h1zm-176 0h-1v1h1zm88 88h-1v1h1zm-176 0h-1v1h1zm264 0h-1v1h1zm-176 0h-1v1h1zm44-132h-1v1h1zm-176 0h-1v1h1zm264 0h-1v1h1zm-176 0h-1v1h1zm88 88h-1v1h1zm-176 0h-1v1h1zm264 0h-1v1h1zm-176 0h-1v1h1zm88-44h-1v1h1zm-176 0h-1v1h1zm264 0h-1v1h1zm-176 0h-1v1h1zm88 88h-1v1h1zm-176 0h-1v1h1zm264 0h-1v1h1zm-176 0h-1v1h1z"/><path d="m930 38h-1v1h1zm-176 0h-1v1h1zm264 0h-1v1h1zm-176 0h-1v1h1zm88 88h-1v1h1zm-176 0h-1v1h1zm264 0h-1v1h1zm-176 0h-1v1h1zm88-44h-1v1h1zm-176 0h-1v1h1zm264 0h-1v1h1zm-176 0h-1v1h1zm88 88h-1v1h1zm-176 0h-1v1h1zm264 0h-1v1h1zm-176 0h-1v1h1zm44-132h-1v1h1zm-176 0h-1v1h1zm264 0h-1v1h1zm-176 0h-1v1h1zm88 88h-1v1h1zm-176 0h-1v1h1zm264 0h-1v1h1zm-176 0h-1v1h1zm88-44h-1v1h1zm-176 0h-1v1h1zm264 0h-1v1h1zm-176 0h-1v1h1zm88 88h-1v1h1zm-176 0h-1v1h1zm264 0h-1v1h1zm-176 0h-1v1h1zm132-154h-1v1h1zm-176 0h-1v1h1zm264 0h-1v1h1zm-176 0h-1v1h1zm88 88h-1v1h1zm-176 0h-1v1h1zm264 0h-1v1h1zm-176 0h-1v1h1zm88-44h-1v1h1zm-176 0h-1v1h1zm264 0h-1v1h1zm-176 0h-1v1h1zm88 88h-1v1h1zm-176 0h-1v1h1zm264 0h-1v1h1zm-176 0h-1v1h1zm44-132h-1v1h1zm-176 0h-1v1h1zm264 0h-1v1h1zm-176 0h-1v1h1zm88 88h-1v1h1zm-176 0h-1v1h1zm264 0h-1v1h1zm-176 0h-1v1h1zm88-44h-1v1h1zm-176 0h-1v1h1zm264 0h-1v1h1zm-176 0h-1v1h1zm88 88h-1v1h1zm-176 0h-1v1h1zm264 0h-1v1h1zm-176 0h-1v1h1zm154-110h-1v1h1zm-176 0h-1v1h1zm264 0h-1v1h1zm-176 0h-1v1h1zm88 88h-1v1h1zm-176 0h-1v1h1zm264 0h-1v1h1zm-176 0h-1v1h1zm88-44h-1v1h1zm-176 0h-1v1h1zm264 0h-1v1h1zm-176 0h-1v1h1zm88 88h-1v1h1zm-176 0h-1v1h1zm264 0h-1v1h1zm-176 0h-1v1h1zm44-132h-1v1h1zm-176 0h-1v1h1zm264 0h-1v1h1zm-176 0h-1v1h1zm88 88h-1v1h1zm-176 0h-1v1h1zm264 0h-1v1h1zm-176 0h-1v1h1zm88-44h-1v1h1zm-176 0h-1v1h1zm264 0h-1v1h1zm-176 0h-1v1h1zm88 88h-1v1h1zm-176 0h-1v1h1zm264 0h-1v1h1zm-176 0h-1v1h1zm132-154h-1v1h1zm-176 0h-1v1h1zm264 0h-1v1h1zm-176 0h-1v1h1zm88 88h-1v1h1zm-176 0h-1v1h1zm264 0h-1v1h1zm-176 0h-1v1h1zm88-44h-1v1h1zm-176 0h-1v1h1zm264 0h-1v1h1zm-176 0h-1v1h1zm88 88h-1v1h1zm-176 0h-1v1h1zm264 0h-1v1h1zm-176 0h-1v1h1zm44-132h-1v1h1zm-176 0h-1v1h1zm264 0h-1v1h1zm-176 0h-1v1h1zm88 88h-1v1h1zm-176 0h-1v1h1zm264 0h-1v1h1zm-176 0h-1v1h1zm88-44h-1v1h1zm-176 0h-1v1h1zm264 0h-1v1h1zm-176 0h-1v1h1zm88 88h-1v1h1zm-176 0h-1v1h1zm264 0h-1v1h1zm-176 0h-1v1h1z"/><use x="704" xlink:href="#a"/><use x="693" xlink:href="#a"/><use x="704" xlink:href="#a" y="11"/><use x="693" xlink:href="#a" y="11"/><use x="704" xlink:href="#a" y="176"/><use x="693" xlink:href="#a" y="176"/><use x="704" xlink:href="#a" y="187"/><use x="693" xlink:href="#a" y="187"/><use x="704" xlink:href="#a" y="352"/><use x="693" xlink:href="#a" y="352"/><use x="704" xlink:href="#a" y="363"/><use x="693" xlink:href="#a" y="363"/><use x="704" xlink:href="#a" y="528"/><use x="693" xlink:href="#a" y="528"/><use x="704" xlink:href="#a" y="539"/><use x="693" xlink:href="#a" y="539"/><path d="m710 885h-1v1h1zm11 0h-1v1h1zm11 0h-1v1h1zm11 0h-1v1h1zm11 0h-1v1h1zm11 0h-1v1h1zm11 0h-1v1h1zm11 0h-1v1h1zm11 0h-1v1h1zm11 0h-1v1h1zm11 0h-1v1h1zm11 0h-1v1h1zm11 0h-1v1h1zm11 0h-1v1h1zm11 0h-1v1h1zm11 0h-1v1h1zm11 0h-1v1h1zm11 0h-1v1h1zm11 0h-1v1h1zm11 0h-1v1h1zm11 0h-1v1h1zm11 0h-1v1h1zm11 0h-1v1h1zm11 0h-1v1h1zm11 0h-1v1h1zm11 0h-1v1h1zm11 0h-1v1h1zm11 0h-1v1h1zm11 0h-1v1h1zm11 0h-1v1h1zm11 0h-1v1h1zm11 0h-1v1h1zm-341 11h-1v1h1zm11 0h-1v1h1zm11 0h-1v1h1zm11 0h-1v1h1zm11 0h-1v1h1zm11 0h-1v1h1zm11 0h-1v1h1zm11 0h-1v1h1zm11 0h-1v1h1zm11 0h-1v1h1zm11 0h-1v1h1zm11 0h-1v1h1zm11 0h-1v1h1zm11 0h-1v1h1zm11 0h-1v1h1zm11 0h-1v1h1zm11 0h-1v1h1zm11 0h-1v1h1zm11 0h-1v1h1zm11 0h-1v1h1zm11 0h-1v1h1zm11 0h-1v1h1zm11 0h-1v1h1zm11 0h-1v1h1zm11 0h-1v1h1zm11 0h-1v1h1zm11 0h-1v1h1zm11 0h-1v1h1zm11 0h-1v1h1zm11 0h-1v1h1zm11 0h-1v1h1zm11 0h-1v1h1zm242-869h-1v1h1zm-176 0h-1v1h1zm264 0h-1v1h1zm-176 0h-1v1h1zm88 88h-1v1h1zm-176 0h-1v1h1zm264 0h-1v1h1zm-176 0h-1v1h1zm88-44h-1v1h1zm-176 0h-1v1h1zm264 0h-1v1h1zm-176 0h-1v1h1zm88 88h-1v1h1zm-176 0h-1v1h1zm264 0h-1v1h1zm-176 0h-1v1h1zm44-132h-1v1h1zm-176 0h-1v1h1zm264 0h-1v1h1zm-176 0h-1v1h1zm88 88h-1v1h1zm-176 0h-1v1h1zm264 0h-1v1h1zm-176 0h-1v1h1zm88-44h-1v1h1zm-176 0h-1v1h1zm264 0h-1v1h1zm-176 0h-1v1h1zm88 88h-1v1h1zm-176 0h-1v1h1zm264 0h-1v1h1zm-176 0h-1v1h1zm132-154h-1v1h1zm-176 0h-1v1h1zm264 0h-1v1h1zm-176 0h-1v1h1zm88 88h-1v1h1zm-176 0h-1v1h1zm264 0h-1v1h1zm-176 0h-1v1h1zm88-44h-1v1h1zm-176 0h-1v1h1zm264 0h-1v1h1zm-176 0h-1v1h1zm88 88h-1v1h1zm-176 0h-1v1h1zm264 0h-1v1h1zm-176 0h-1v1h1zm44-132h-1v1h1zm-176 0h-1v1h1zm264 0h-1v1h1zm-176 0h-1v1h1zm88 88h-1v1h1zm-176 0h-1v1h1zm264 0h-1v1h1zm-176 0h-1v1h1zm88-44h-1v1h1zm-176 0h-1v1h1zm264 0h-1v1h1zm-176 0h-1v1h1zm88 88h-1v1h1zm-176 0h-1v1h1zm264 0h-1v1h1zm-176 0h-1v1h1z"/><path d="m1315 27h-1v1h1zm-176 0h-1v1h1zm264 0h-1v1h1zm-176 0h-1v1h1zm88 88h-1v1h1zm-176 0h-1v1h1zm264 0h-1v1h1zm-176 0h-1v1h1zm88-44h-1v1h1zm-176 0h-1v1h1zm264 0h-1v1h1zm-176 0h-1v1h1zm88 88h-1v1h1zm-176 0h-1v1h1zm264 0h-1v1h1zm-176 0h-1v1h1zm44-132h-1v1h1zm-176 0h-1v1h1zm264 0h-1v1h1zm-176 0h-1v1h1zm88 88h-1v1h1zm-176 0h-1v1h1zm264 0h-1v1h1zm-176 0h-1v1h1zm88-44h-1v1h1zm-176 0h-1v1h1zm264 0h-1v1h1zm-176 0h-1v1h1zm88 88h-1v1h1zm-176 0h-1v1h1zm264 0h-1v1h1zm-176 0h-1v1h1zm132-154h-1v1h1zm-176 0h-1v1h1zm264 0h-1v1h1zm-176 0h-1v1h1zm88 88h-1v1h1zm-176 0h-1v1h1zm264 0h-1v1h1zm-176 0h-1v1h1zm88-44h-1v1h1zm-176 0h-1v1h1zm264 0h-1v1h1zm-176 0h-1v1h1zm88 88h-1v1h1zm-176 0h-1v1h1zm264 0h-1v1h1zm-176 0h-1v1h1zm44-132h-1v1h1zm-176 0h-1v1h1zm264 0h-1v1h1zm-176 0h-1v1h1zm88 88h-1v1h1zm-176 0h-1v1h1zm264 0h-1v1h1zm-176 0h-1v1h1zm88-44h-1v1h1zm-176 0h-1v1h1zm264 0h-1v1h1zm-176 0h-1v1h1zm88 88h-1v1h1zm-176 0h-1v1h1zm264 0h-1v1h1zm-176 0h-1v1h1zm99-110h-1v1h1zm-176 0h-1v1h1zm264 0h-1v1h1zm-176 0h-1v1h1zm88 88h-1v1h1zm-176 0h-1v1h1zm264 0h-1v1h1zm-176 0h-1v1h1zm88-44h-1v1h1zm-176 0h-1v1h1zm264 0h-1v1h1zm-176 0h-1v1h1zm88 88h-1v1h1zm-176 0h-1v1h1zm264 0h-1v1h1zm-176 0h-1v1h1zm44-132h-1v1h1zm-176 0h-1v1h1zm264 0h-1v1h1zm-176 0h-1v1h1zm88 88h-1v1h1zm-176 0h-1v1h1zm264 0h-1v1h1zm-176 0h-1v1h1zm88-44h-1v1h1zm-176 0h-1v1h1zm264 0h-1v1h1zm-176 0h-1v1h1zm88 88h-1v1h1zm-176 0h-1v1h1zm264 0h-1v1h1zm-176 0h-1v1h1zm132-154h-1v1h1zm-176 0h-1v1h1zm264 0h-1v1h1zm-176 0h-1v1h1zm88 88h-1v1h1zm-176 0h-1v1h1zm264 0h-1v1h1zm-176 0h-1v1h1zm88-44h-1v1h1zm-176 0h-1v1h1zm264 0h-1v1h1zm-176 0h-1v1h1zm88 88h-1v1h1zm-176 0h-1v1h1zm264 0h-1v1h1zm-176 0h-1v1h1zm44-132h-1v1h1zm-176 0h-1v1h1zm264 0h-1v1h1zm-176 0h-1v1h1zm88 88h-1v1h1zm-176 0h-1v1h1zm264 0h-1v1h1zm-176 0h-1v1h1zm88-44h-1v1h1zm-176 0h-1v1h1zm264 0h-1v1h1zm-176 0h-1v1h1zm88 88h-1v1h1zm-176 0h-1v1h1zm264 0h-1v1h1zm-176 0h-1v1h1z"/><path d="m1304 27h-1v1h1zm-176 0h-1v1h1zm264 0h-1v1h1zm-176 0h-1v1h1zm88 88h-1v1h1zm-176 0h-1v1h1zm264 0h-1v1h1zm-176 0h-1v1h1zm88-44h-1v1h1zm-176 0h-1v1h1zm264 0h-1v1h1zm-176 0h-1v1h1zm88 88h-1v1h1zm-176 0h-1v1h1zm264 0h-1v1h1zm-176 0h-1v1h1zm44-132h-1v1h1zm-176 0h-1v1h1zm264 0h-1v1h1zm-176 0h-1v1h1zm88 88h-1v1h1zm-176 0h-1v1h1zm264 0h-1v1h1zm-176 0h-1v1h1zm88-44h-1v1h1zm-176 0h-1v1h1zm264 0h-1v1h1zm-176 0h-1v1h1zm88 88h-1v1h1zm-176 0h-1v1h1zm264 0h-1v1h1zm-176 0h-1v1h1zm132-154h-1v1h1zm-176 0h-1v1h1zm264 0h-1v1h1zm-176 0h-1v1h1zm88 88h-1v1h1zm-176 0h-1v1h1zm264 0h-1v1h1zm-176 0h-1v1h1zm88-44h-1v1h1zm-176 0h-1v1h1zm264 0h-1v1h1zm-176 0h-1v1h1zm88 88h-1v1h1zm-176 0h-1v1h1zm264 0h-1v1h1zm-176 0h-1v1h1zm44-132h-1v1h1zm-176 0h-1v1h1zm264 0h-1v1h1zm-176 0h-1v1h1zm88 88h-1v1h1zm-176 0h-1v1h1zm264 0h-1v1h1zm-176 0h-1v1h1zm88-44h-1v1h1zm-176 0h-1v1h1zm264 0h-1v1h1zm-176 0h-1v1h1zm88 88h-1v1h1zm-176 0h-1v1h1zm264 0h-1v1h1zm-176 0h-1v1h1zm121-99h-1v1h1zm-176 0h-1v1h1zm264 0h-1v1h1zm-176 0h-1v1h1zm88 88h-1v1h1zm-176 0h-1v1h1zm264 0h-1v1h1zm-176 0h-1v1h1zm88-44h-1v1h1zm-176 0h-1v1h1zm264 0h-1v1h1zm-176 0h-1v1h1zm88 88h-1v1h1zm-176 0h-1v1h1zm264 0h-1v1h1zm-176 0h-1v1h1zm44-132h-1v1h1zm-176 0h-1v1h1zm264 0h-1v1h1zm-176 0h-1v1h1zm88 88h-1v1h1zm-176 0h-1v1h1zm264 0h-1v1h1zm-176 0h-1v1h1zm88-44h-1v1h1zm-176 0h-1v1h1zm264 0h-1v1h1zm-176 0h-1v1h1zm88 88h-1v1h1zm-176 0h-1v1h1zm264 0h-1v1h1zm-176 0h-1v1h1zm132-154h-1v1h1zm-176 0h-1v1h1zm264 0h-1v1h1zm-176 0h-1v1h1zm88 88h-1v1h1zm-176 0h-1v1h1zm264 0h-1v1h1zm-176 0h-1v1h1zm88-44h-1v1h1zm-176 0h-1v1h1zm264 0h-1v1h1zm-176 0h-1v1h1zm88 88h-1v1h1zm-176 0h-1v1h1zm264 0h-1v1h1zm-176 0h-1v1h1zm44-132h-1v1h1zm-176 0h-1v1h1zm264 0h-1v1h1zm-176 0h-1v1h1zm88 88h-1v1h1zm-176 0h-1v1h1zm264 0h-1v1h1zm-176 0h-1v1h1zm88-44h-1v1h1zm-176 0h-1v1h1zm264 0h-1v1h1zm-176 0h-1v1h1zm88 88h-1v1h1zm-176 0h-1v1h1zm264 0h-1v1h1zm-176 0h-1v1h1z"/><use x="704" xlink:href="#b" y="-165"/><use x="704" xlink:href="#d" y="-176"/><use x="704" xlink:href="#b"/><use x="704" xlink:href="#c"/><use x="704" xlink:href="#b" y="11"/><use x="704" xlink:href="#d"/><use x="704" xlink:href="#b" y="176"/><use x="704" xlink:href="#c" y="176"/><use x="704" xlink:href="#b" y="187"/><use x="704" xlink:href="#d" y="176"/><use x="704" xlink:href="#b" y="352"/><use x="704" xlink:href="#c" y="352"/><use x="704" xlink:href="#b" y="363"/><use x="704" xlink:href="#d" y="352"/><use x="704" xlink:href="#b" y="528"/><use x="704" xlink:href="#c" y="528"/><use x="704" xlink:href="#b" y="539"/><use x="704" xlink:href="#e"/><path d="m1645 27h-1v1h1zm-176 0h-1v1h1zm88 0h-1v1h1zm88 88h-1v1h1zm-176 0h-1v1h1zm88 0h-1v1h1zm88-44h-1v1h1zm-176 0h-1v1h1zm88 0h-1v1h1zm88 88h-1v1h1zm-176 0h-1v1h1zm88 0h-1v1h1zm44-132h-1v1h1zm-176 0h-1v1h1zm88 0h-1v1h1zm88 88h-1v1h1zm-176 0h-1v1h1zm88 0h-1v1h1zm88-44h-1v1h1zm-176 0h-1v1h1zm88 0h-1v1h1zm88 88h-1v1h1zm-176 0h-1v1h1zm88 0h-1v1h1zm132-154h-1v1h1zm-176 0h-1v1h1zm88 0h-1v1h1zm88 88h-1v1h1zm-176 0h-1v1h1zm88 0h-1v1h1zm88-44h-1v1h1zm-176 0h-1v1h1zm88 0h-1v1h1zm88 88h-1v1h1zm-176 0h-1v1h1zm88 0h-1v1h1zm44-132h-1v1h1zm-176 0h-1v1h1zm88 0h-1v1h1zm88 88h-1v1h1zm-176 0h-1v1h1zm88 0h-1v1h1zm88-44h-1v1h1zm-176 0h-1v1h1zm88 0h-1v1h1zm88 88h-1v1h1zm-176 0h-1v1h1zm88 0h-1v1h1zm154-110h-1v1h1zm-176 0h-1v1h1zm88 0h-1v1h1zm88 88h-1v1h1zm-176 0h-1v1h1zm88 0h-1v1h1zm88-44h-1v1h1zm-176 0h-1v1h1zm88 0h-1v1h1zm88 88h-1v1h1zm-176 0h-1v1h1zm88 0h-1v1h1zm44-132h-1v1h1zm-176 0h-1v1h1zm88 0h-1v1h1zm88 88h-1v1h1zm-176 0h-1v1h1zm88 0h-1v1h1zm88-44h-1v1h1zm-176 0h-1v1h1zm88 0h-1v1h1zm88 88h-1v1h1zm-176 0h-1v1h1zm88 0h-1v1h1zm132-154h-1v1h1zm-176 0h-1v1h1zm88 0h-1v1h1zm88 88h-1v1h1zm-176 0h-1v1h1zm88 0h-1v1h1zm88-44h-1v1h1zm-176 0h-1v1h1zm88 0h-1v1h1zm88 88h-1v1h1zm-176 0h-1v1h1zm88 0h-1v1h1zm44-132h-1v1h1zm-176 0h-1v1h1zm88 0h-1v1h1zm88 88h-1v1h1zm-176 0h-1v1h1zm88 0h-1v1h1zm88-44h-1v1h1zm-176 0h-1v1h1zm88 0h-1v1h1zm88 88h-1v1h1zm-176 0h-1v1h1zm88 0h-1v1h1zm99-110h-1v1h1zm-176 0h-1v1h1zm88 0h-1v1h1zm88 88h-1v1h1zm-176 0h-1v1h1zm88 0h-1v1h1zm88-44h-1v1h1zm-176 0h-1v1h1zm88 0h-1v1h1zm88 88h-1v1h1zm-176 0h-1v1h1zm88 0h-1v1h1zm44-132h-1v1h1zm-176 0h-1v1h1zm264 0h-1v1h1zm-176 0h-1v1h1zm88 88h-1v1h1zm-176 0h-1v1h1zm264 0h-1v1h1zm-176 0h-1v1h1zm88-44h-1v1h1zm-176 0h-1v1h1zm264 0h-1v1h1zm-176 0h-1v1h1zm88 88h-1v1h1zm-176 0h-1v1h1zm264 0h-1v1h1zm-176 0h-1v1h1zm132-154h-1v1h1zm-176 0h-1v1h1zm88 0h-1v1h1zm88 88h-1v1h1z"/><path d="m1458 93h-1v1h1zm88 0h-1v1h1zm88-44h-1v1h1zm-176 0h-1v1h1zm88 0h-1v1h1zm88 88h-1v1h1zm-176 0h-1v1h1zm88 0h-1v1h1zm44-132h-1v1h1zm-176 0h-1v1h1zm264 0h-1v1h1zm-176 0h-1v1h1zm88 88h-1v1h1zm-176 0h-1v1h1zm264 0h-1v1h1zm-176 0h-1v1h1zm88-44h-1v1h1zm-176 0h-1v1h1zm264 0h-1v1h1zm-176 0h-1v1h1zm88 88h-1v1h1zm-176 0h-1v1h1zm264 0h-1v1h1zm-176 0h-1v1h1zm154-110h-1v1h1zm-176 0h-1v1h1zm88 0h-1v1h1zm88 88h-1v1h1zm-176 0h-1v1h1zm88 0h-1v1h1zm88-44h-1v1h1zm-176 0h-1v1h1zm88 0h-1v1h1zm88 88h-1v1h1zm-176 0h-1v1h1zm88 0h-1v1h1zm44-132h-1v1h1zm-176 0h-1v1h1zm88 0h-1v1h1zm88 88h-1v1h1zm-176 0h-1v1h1zm88 0h-1v1h1zm88-44h-1v1h1zm-176 0h-1v1h1zm88 0h-1v1h1zm88 88h-1v1h1zm-176 0h-1v1h1zm88 0h-1v1h1zm132-154h-1v1h1zm-176 0h-1v1h1zm88 0h-1v1h1zm88 88h-1v1h1zm-176 0h-1v1h1zm88 0h-1v1h1zm88-44h-1v1h1zm-176 0h-1v1h1zm88 0h-1v1h1zm88 88h-1v1h1zm-176 0h-1v1h1zm88 0h-1v1h1zm44-132h-1v1h1zm-176 0h-1v1h1zm88 0h-1v1h1zm88 88h-1v1h1zm-176 0h-1v1h1zm88 0h-1v1h1zm88-44h-1v1h1zm-176 0h-1v1h1zm88 0h-1v1h1zm88 88h-1v1h1zm-176 0h-1v1h1zm88 0h-1v1h1zm121-99h-1v1h1zm-176 0h-1v1h1zm88 0h-1v1h1zm88 88h-1v1h1zm-176 0h-1v1h1zm88 0h-1v1h1zm88-44h-1v1h1zm-176 0h-1v1h1zm88 0h-1v1h1zm88 88h-1v1h1zm-176 0h-1v1h1zm88 0h-1v1h1zm44-132h-1v1h1zm-176 0h-1v1h1zm88 0h-1v1h1zm88 88h-1v1h1zm-176 0h-1v1h1zm88 0h-1v1h1zm88-44h-1v1h1zm-176 0h-1v1h1zm88 0h-1v1h1zm88 88h-1v1h1zm-176 0h-1v1h1zm88 0h-1v1h1zm132-154h-1v1h1zm-176 0h-1v1h1zm88 0h-1v1h1zm88 88h-1v1h1zm-176 0h-1v1h1zm88 0h-1v1h1zm88-44h-1v1h1zm-176 0h-1v1h1zm88 0h-1v1h1zm88 88h-1v1h1zm-176 0h-1v1h1zm88 0h-1v1h1zm44-132h-1v1h1zm-176 0h-1v1h1zm88 0h-1v1h1zm88 88h-1v1h1zm-176 0h-1v1h1zm88 0h-1v1h1zm88-44h-1v1h1zm-176 0h-1v1h1zm88 0h-1v1h1zm88 88h-1v1h1zm-176 0h-1v1h1zm88 0h-1v1h1zm154-110h-1v1h1zm-176 0h-1v1h1zm88 0h-1v1h1zm88 88h-1v1h1zm-176 0h-1v1h1zm88 0h-1v1h1zm88-44h-1v1h1zm-176 0h-1v1h1z"/><path d="m1579 82h-1v1h1zm88 88h-1v1h1zm-176 0h-1v1h1zm88 0h-1v1h1zm44-132h-1v1h1zm-176 0h-1v1h1zm88 0h-1v1h1zm88 88h-1v1h1zm-176 0h-1v1h1zm88 0h-1v1h1zm88-44h-1v1h1zm-176 0h-1v1h1zm88 0h-1v1h1zm88 88h-1v1h1zm-176 0h-1v1h1zm88 0h-1v1h1zm132-154h-1v1h1zm-176 0h-1v1h1zm88 0h-1v1h1zm88 88h-1v1h1zm-176 0h-1v1h1zm88 0h-1v1h1zm88-44h-1v1h1zm-176 0h-1v1h1zm88 0h-1v1h1zm88 88h-1v1h1zm-176 0h-1v1h1zm88 0h-1v1h1zm44-132h-1v1h1zm-176 0h-1v1h1zm88 0h-1v1h1zm88 88h-1v1h1zm-176 0h-1v1h1zm88 0h-1v1h1zm88-44h-1v1h1zm-176 0h-1v1h1zm88 0h-1v1h1zm88 88h-1v1h1zm-176 0h-1v1h1zm88 0h-1v1h1zm99-110h-1v1h1zm-176 0h-1v1h1zm88 0h-1v1h1zm88 88h-1v1h1zm-176 0h-1v1h1zm88 0h-1v1h1zm88-44h-1v1h1zm-176 0h-1v1h1zm88 0h-1v1h1zm88 88h-1v1h1zm-176 0h-1v1h1zm88 0h-1v1h1zm44-132h-1v1h1zm-176 0h-1v1h1zm264 0h-1v1h1zm-176 0h-1v1h1zm88 88h-1v1h1zm-176 0h-1v1h1zm264 0h-1v1h1zm-176 0h-1v1h1zm88-44h-1v1h1zm-176 0h-1v1h1zm264 0h-1v1h1zm-176 0h-1v1h1zm88 88h-1v1h1zm-176 0h-1v1h1zm264 0h-1v1h1zm-176 0h-1v1h1zm132-154h-1v1h1zm-176 0h-1v1h1zm88 0h-1v1h1zm88 88h-1v1h1zm-176 0h-1v1h1zm88 0h-1v1h1zm88-44h-1v1h1zm-176 0h-1v1h1zm88 0h-1v1h1zm88 88h-1v1h1zm-176 0h-1v1h1zm88 0h-1v1h1zm44-132h-1v1h1zm-176 0h-1v1h1zm264 0h-1v1h1zm-176 0h-1v1h1zm88 88h-1v1h1zm-176 0h-1v1h1zm264 0h-1v1h1zm-176 0h-1v1h1zm88-44h-1v1h1zm-176 0h-1v1h1zm264 0h-1v1h1zm-176 0h-1v1h1zm88 88h-1v1h1zm-176 0h-1v1h1zm264 0h-1v1h1zm-176 0h-1v1h1zm154-110h-1v1h1zm-176 0h-1v1h1zm88 0h-1v1h1zm88 88h-1v1h1zm-176 0h-1v1h1zm88 0h-1v1h1zm88-44h-1v1h1zm-176 0h-1v1h1zm88 0h-1v1h1zm88 88h-1v1h1zm-176 0h-1v1h1zm88 0h-1v1h1zm44-132h-1v1h1zm-176 0h-1v1h1zm88 0h-1v1h1zm88 88h-1v1h1zm-176 0h-1v1h1zm88 0h-1v1h1zm88-44h-1v1h1zm-176 0h-1v1h1zm88 0h-1v1h1zm88 88h-1v1h1zm-176 0h-1v1h1zm88 0h-1v1h1zm132-154h-1v1h1zm-176 0h-1v1h1zm88 0h-1v1h1zm88 88h-1v1h1zm-176 0h-1v1h1zm88 0h-1v1h1zm88-44h-1v1h1zm-176 0h-1v1h1z"/><path d="m1568 60h-1v1h1zm88 88h-1v1h1zm-176 0h-1v1h1zm88 0h-1v1h1zm44-132h-1v1h1zm-176 0h-1v1h1zm88 0h-1v1h1zm88 88h-1v1h1zm-176 0h-1v1h1zm88 0h-1v1h1zm88-44h-1v1h1zm-176 0h-1v1h1zm88 0h-1v1h1zm88 88h-1v1h1zm-176 0h-1v1h1zm88 0h-1v1h1zm121 55h-1v1h1zm-176 0h-1v1h1zm88 0h-1v1h1zm88 88h-1v1h1zm-176 0h-1v1h1zm88 0h-1v1h1zm88-44h-1v1h1zm-176 0h-1v1h1zm88 0h-1v1h1zm88 88h-1v1h1zm-176 0h-1v1h1zm88 0h-1v1h1zm44-132h-1v1h1zm-176 0h-1v1h1zm88 0h-1v1h1zm88 88h-1v1h1zm-176 0h-1v1h1zm88 0h-1v1h1zm88-44h-1v1h1zm-176 0h-1v1h1zm88 0h-1v1h1zm88 88h-1v1h1zm-176 0h-1v1h1zm88 0h-1v1h1zm132-154h-1v1h1zm-176 0h-1v1h1zm88 0h-1v1h1zm88 88h-1v1h1zm-176 0h-1v1h1zm88 0h-1v1h1zm88-44h-1v1h1zm-176 0h-1v1h1zm88 0h-1v1h1zm88 88h-1v1h1zm-176 0h-1v1h1zm88 0h-1v1h1zm44-132h-1v1h1zm-176 0h-1v1h1zm88 0h-1v1h1zm88 88h-1v1h1zm-176 0h-1v1h1zm88 0h-1v1h1zm88-44h-1v1h1zm-176 0h-1v1h1zm88 0h-1v1h1zm88 88h-1v1h1zm-176 0h-1v1h1zm88 0h-1v1h1zm154-110h-1v1h1zm-176 0h-1v1h1zm88 0h-1v1h1zm88 88h-1v1h1zm-176 0h-1v1h1zm88 0h-1v1h1zm88-44h-1v1h1zm-176 0h-1v1h1zm88 0h-1v1h1zm88 88h-1v1h1zm-176 0h-1v1h1zm88 0h-1v1h1zm44-132h-1v1h1zm-176 0h-1v1h1zm88 0h-1v1h1zm88 88h-1v1h1zm-176 0h-1v1h1zm88 0h-1v1h1zm88-44h-1v1h1zm-176 0h-1v1h1zm88 0h-1v1h1zm88 88h-1v1h1zm-176 0h-1v1h1zm88 0h-1v1h1zm132-154h-1v1h1zm-176 0h-1v1h1zm88 0h-1v1h1zm88 88h-1v1h1zm-176 0h-1v1h1zm88 0h-1v1h1zm88-44h-1v1h1zm-176 0h-1v1h1zm88 0h-1v1h1zm88 88h-1v1h1zm-176 0h-1v1h1zm88 0h-1v1h1zm44-132h-1v1h1zm-176 0h-1v1h1zm88 0h-1v1h1zm88 88h-1v1h1zm-176 0h-1v1h1zm88 0h-1v1h1zm88-44h-1v1h1zm-176 0h-1v1h1zm88 0h-1v1h1zm88 88h-1v1h1zm-176 0h-1v1h1zm88 0h-1v1h1zm99-110h-1v1h1zm-176 0h-1v1h1zm88 0h-1v1h1zm88 88h-1v1h1zm-176 0h-1v1h1zm88 0h-1v1h1zm88-44h-1v1h1zm-176 0h-1v1h1zm88 0h-1v1h1zm88 88h-1v1h1zm-176 0h-1v1h1zm88 0h-1v1h1zm44-132h-1v1h1zm-176 0h-1v1h1zm264 0h-1v1h1zm-176 0h-1v1h1z"/><path d="m1590 291h-1v1h1zm-176 0h-1v1h1zm264 0h-1v1h1zm-176 0h-1v1h1zm88-44h-1v1h1zm-176 0h-1v1h1zm264 0h-1v1h1zm-176 0h-1v1h1zm88 88h-1v1h1zm-176 0h-1v1h1zm264 0h-1v1h1zm-176 0h-1v1h1zm132-154h-1v1h1zm-176 0h-1v1h1zm88 0h-1v1h1zm88 88h-1v1h1zm-176 0h-1v1h1zm88 0h-1v1h1zm88-44h-1v1h1zm-176 0h-1v1h1zm88 0h-1v1h1zm88 88h-1v1h1zm-176 0h-1v1h1zm88 0h-1v1h1zm44-132h-1v1h1zm-176 0h-1v1h1zm264 0h-1v1h1zm-176 0h-1v1h1zm88 88h-1v1h1zm-176 0h-1v1h1zm264 0h-1v1h1zm-176 0h-1v1h1zm88-44h-1v1h1zm-176 0h-1v1h1zm264 0h-1v1h1zm-176 0h-1v1h1zm88 88h-1v1h1zm-176 0h-1v1h1zm264 0h-1v1h1zm-176 0h-1v1h1zm154-110h-1v1h1zm-176 0h-1v1h1zm88 0h-1v1h1zm88 88h-1v1h1zm-176 0h-1v1h1zm88 0h-1v1h1zm88-44h-1v1h1zm-176 0h-1v1h1zm88 0h-1v1h1zm88 88h-1v1h1zm-176 0h-1v1h1zm88 0h-1v1h1zm44-132h-1v1h1zm-176 0h-1v1h1zm88 0h-1v1h1zm88 88h-1v1h1zm-176 0h-1v1h1zm88 0h-1v1h1zm88-44h-1v1h1zm-176 0h-1v1h1zm88 0h-1v1h1zm88 88h-1v1h1zm-176 0h-1v1h1zm88 0h-1v1h1zm132-154h-1v1h1zm-176 0h-1v1h1zm88 0h-1v1h1zm88 88h-1v1h1zm-176 0h-1v1h1zm88 0h-1v1h1zm88-44h-1v1h1zm-176 0h-1v1h1zm88 0h-1v1h1zm88 88h-1v1h1zm-176 0h-1v1h1zm88 0h-1v1h1zm44-132h-1v1h1zm-176 0h-1v1h1zm88 0h-1v1h1zm88 88h-1v1h1zm-176 0h-1v1h1zm88 0h-1v1h1zm88-44h-1v1h1zm-176 0h-1v1h1zm88 0h-1v1h1zm88 88h-1v1h1zm-176 0h-1v1h1zm88 0h-1v1h1zm121-99h-1v1h1zm-176 0h-1v1h1zm88 0h-1v1h1zm88 88h-1v1h1zm-176 0h-1v1h1zm88 0h-1v1h1zm88-44h-1v1h1zm-176 0h-1v1h1zm88 0h-1v1h1zm88 88h-1v1h1zm-176 0h-1v1h1zm88 0h-1v1h1zm44-132h-1v1h1zm-176 0h-1v1h1zm88 0h-1v1h1zm88 88h-1v1h1zm-176 0h-1v1h1zm88 0h-1v1h1zm88-44h-1v1h1zm-176 0h-1v1h1zm88 0h-1v1h1zm88 88h-1v1h1zm-176 0h-1v1h1zm88 0h-1v1h1zm132-154h-1v1h1zm-176 0h-1v1h1zm88 0h-1v1h1zm88 88h-1v1h1zm-176 0h-1v1h1zm88 0h-1v1h1zm88-44h-1v1h1zm-176 0h-1v1h1zm88 0h-1v1h1zm88 88h-1v1h1zm-176 0h-1v1h1zm88 0h-1v1h1zm44-132h-1v1h1zm-176 0h-1v1h1zm88 0h-1v1h1zm88 88h-1v1h1z"/><path d="m1425 280h-1v1h1zm88 0h-1v1h1zm88-44h-1v1h1zm-176 0h-1v1h1zm88 0h-1v1h1zm88 88h-1v1h1zm-176 0h-1v1h1zm88 0h-1v1h1zm154-110h-1v1h1zm-176 0h-1v1h1zm88 0h-1v1h1zm88 88h-1v1h1zm-176 0h-1v1h1zm88 0h-1v1h1zm88-44h-1v1h1zm-176 0h-1v1h1zm88 0h-1v1h1zm88 88h-1v1h1zm-176 0h-1v1h1zm88 0h-1v1h1zm44-132h-1v1h1zm-176 0h-1v1h1zm88 0h-1v1h1zm88 88h-1v1h1zm-176 0h-1v1h1zm88 0h-1v1h1zm88-44h-1v1h1zm-176 0h-1v1h1zm88 0h-1v1h1zm88 88h-1v1h1zm-176 0h-1v1h1zm88 0h-1v1h1zm132-154h-1v1h1zm-176 0h-1v1h1zm88 0h-1v1h1zm88 88h-1v1h1zm-176 0h-1v1h1zm88 0h-1v1h1zm88-44h-1v1h1zm-176 0h-1v1h1zm88 0h-1v1h1zm88 88h-1v1h1zm-176 0h-1v1h1zm88 0h-1v1h1zm44-132h-1v1h1zm-176 0h-1v1h1zm88 0h-1v1h1zm88 88h-1v1h1zm-176 0h-1v1h1zm88 0h-1v1h1zm88-44h-1v1h1zm-176 0h-1v1h1zm88 0h-1v1h1zm88 88h-1v1h1zm-176 0h-1v1h1zm88 0h-1v1h1zm99-110h-1v1h1zm-176 0h-1v1h1zm88 0h-1v1h1zm88 88h-1v1h1zm-176 0h-1v1h1zm88 0h-1v1h1zm88-44h-1v1h1zm-176 0h-1v1h1zm88 0h-1v1h1zm88 88h-1v1h1zm-176 0h-1v1h1zm88 0h-1v1h1zm44-132h-1v1h1zm-176 0h-1v1h1zm264 0h-1v1h1zm-176 0h-1v1h1zm88 88h-1v1h1zm-176 0h-1v1h1zm264 0h-1v1h1zm-176 0h-1v1h1zm88-44h-1v1h1zm-176 0h-1v1h1zm264 0h-1v1h1zm-176 0h-1v1h1zm88 88h-1v1h1zm-176 0h-1v1h1zm264 0h-1v1h1zm-176 0h-1v1h1zm132-154h-1v1h1zm-176 0h-1v1h1zm88 0h-1v1h1zm88 88h-1v1h1zm-176 0h-1v1h1zm88 0h-1v1h1zm88-44h-1v1h1zm-176 0h-1v1h1zm88 0h-1v1h1zm88 88h-1v1h1zm-176 0h-1v1h1zm88 0h-1v1h1zm44-132h-1v1h1zm-176 0h-1v1h1zm264 0h-1v1h1zm-176 0h-1v1h1zm88 88h-1v1h1zm-176 0h-1v1h1zm264 0h-1v1h1zm-176 0h-1v1h1zm88-44h-1v1h1zm-176 0h-1v1h1zm264 0h-1v1h1zm-176 0h-1v1h1zm88 88h-1v1h1zm-176 0h-1v1h1zm264 0h-1v1h1zm-176 0h-1v1h1zm154-110h-1v1h1zm-176 0h-1v1h1zm88 0h-1v1h1zm88 88h-1v1h1zm-176 0h-1v1h1zm88 0h-1v1h1zm88-44h-1v1h1zm-176 0h-1v1h1zm88 0h-1v1h1zm88 88h-1v1h1zm-176 0h-1v1h1zm88 0h-1v1h1zm44-132h-1v1h1zm-176 0h-1v1h1zm88 0h-1v1h1zm88 88h-1v1h1z"/><path d="m1436 302h-1v1h1zm88 0h-1v1h1zm88-44h-1v1h1zm-176 0h-1v1h1zm88 0h-1v1h1zm88 88h-1v1h1zm-176 0h-1v1h1zm88 0h-1v1h1zm132-154h-1v1h1zm-176 0h-1v1h1zm88 0h-1v1h1zm88 88h-1v1h1zm-176 0h-1v1h1zm88 0h-1v1h1zm88-44h-1v1h1zm-176 0h-1v1h1zm88 0h-1v1h1zm88 88h-1v1h1zm-176 0h-1v1h1zm88 0h-1v1h1zm44-132h-1v1h1zm-176 0h-1v1h1zm88 0h-1v1h1zm88 88h-1v1h1zm-176 0h-1v1h1zm88 0h-1v1h1zm88-44h-1v1h1zm-176 0h-1v1h1zm88 0h-1v1h1zm88 88h-1v1h1zm-176 0h-1v1h1zm88 0h-1v1h1zm121 55h-1v1h1zm-176 0h-1v1h1zm88 0h-1v1h1zm88 88h-1v1h1zm-176 0h-1v1h1zm88 0h-1v1h1zm88-44h-1v1h1zm-176 0h-1v1h1zm88 0h-1v1h1zm88 88h-1v1h1zm-176 0h-1v1h1zm88 0h-1v1h1zm44-132h-1v1h1zm-176 0h-1v1h1zm88 0h-1v1h1zm88 88h-1v1h1zm-176 0h-1v1h1zm88 0h-1v1h1zm88-44h-1v1h1zm-176 0h-1v1h1zm88 0h-1v1h1zm88 88h-1v1h1zm-176 0h-1v1h1zm88 0h-1v1h1zm132-154h-1v1h1zm-176 0h-1v1h1zm88 0h-1v1h1zm88 88h-1v1h1zm-176 0h-1v1h1zm88 0h-1v1h1zm88-44h-1v1h1zm-176 0h-1v1h1zm88 0h-1v1h1zm88 88h-1v1h1zm-176 0h-1v1h1zm88 0h-1v1h1zm44-132h-1v1h1zm-176 0h-1v1h1zm88 0h-1v1h1zm88 88h-1v1h1zm-176 0h-1v1h1zm88 0h-1v1h1zm88-44h-1v1h1zm-176 0h-1v1h1zm88 0h-1v1h1zm88 88h-1v1h1zm-176 0h-1v1h1zm88 0h-1v1h1zm154-110h-1v1h1zm-176 0h-1v1h1zm88 0h-1v1h1zm88 88h-1v1h1zm-176 0h-1v1h1zm88 0h-1v1h1zm88-44h-1v1h1zm-176 0h-1v1h1zm88 0h-1v1h1zm88 88h-1v1h1zm-176 0h-1v1h1zm88 0h-1v1h1zm44-132h-1v1h1zm-176 0h-1v1h1zm88 0h-1v1h1zm88 88h-1v1h1zm-176 0h-1v1h1zm88 0h-1v1h1zm88-44h-1v1h1zm-176 0h-1v1h1zm88 0h-1v1h1zm88 88h-1v1h1zm-176 0h-1v1h1zm88 0h-1v1h1zm132-154h-1v1h1zm-176 0h-1v1h1zm88 0h-1v1h1zm88 88h-1v1h1zm-176 0h-1v1h1zm88 0h-1v1h1zm88-44h-1v1h1zm-176 0h-1v1h1zm88 0h-1v1h1zm88 88h-1v1h1zm-176 0h-1v1h1zm88 0h-1v1h1zm44-132h-1v1h1zm-176 0h-1v1h1zm88 0h-1v1h1zm88 88h-1v1h1zm-176 0h-1v1h1zm88 0h-1v1h1zm88-44h-1v1h1zm-176 0h-1v1h1zm88 0h-1v1h1zm88 88h-1v1h1zm-176 0h-1v1h1zm88 0h-1v1h1z"/><path d="m1634 379h-1v1h1zm-176 0h-1v1h1zm88 0h-1v1h1zm88 88h-1v1h1zm-176 0h-1v1h1zm88 0h-1v1h1zm88-44h-1v1h1zm-176 0h-1v1h1zm88 0h-1v1h1zm88 88h-1v1h1zm-176 0h-1v1h1zm88 0h-1v1h1zm44-132h-1v1h1zm-176 0h-1v1h1zm264 0h-1v1h1zm-176 0h-1v1h1zm88 88h-1v1h1zm-176 0h-1v1h1zm264 0h-1v1h1zm-176 0h-1v1h1zm88-44h-1v1h1zm-176 0h-1v1h1zm264 0h-1v1h1zm-176 0h-1v1h1zm88 88h-1v1h1zm-176 0h-1v1h1zm264 0h-1v1h1zm-176 0h-1v1h1zm132-154h-1v1h1zm-176 0h-1v1h1zm88 0h-1v1h1zm88 88h-1v1h1zm-176 0h-1v1h1zm88 0h-1v1h1zm88-44h-1v1h1zm-176 0h-1v1h1zm88 0h-1v1h1zm88 88h-1v1h1zm-176 0h-1v1h1zm88 0h-1v1h1zm44-132h-1v1h1zm-176 0h-1v1h1zm264 0h-1v1h1zm-176 0h-1v1h1zm88 88h-1v1h1zm-176 0h-1v1h1zm264 0h-1v1h1zm-176 0h-1v1h1zm88-44h-1v1h1zm-176 0h-1v1h1zm264 0h-1v1h1zm-176 0h-1v1h1zm88 88h-1v1h1zm-176 0h-1v1h1zm264 0h-1v1h1zm-176 0h-1v1h1zm154-110h-1v1h1zm-176 0h-1v1h1zm88 0h-1v1h1zm88 88h-1v1h1zm-176 0h-1v1h1zm88 0h-1v1h1zm88-44h-1v1h1zm-176 0h-1v1h1zm88 0h-1v1h1zm88 88h-1v1h1zm-176 0h-1v1h1zm88 0h-1v1h1zm44-132h-1v1h1zm-176 0h-1v1h1zm88 0h-1v1h1zm88 88h-1v1h1zm-176 0h-1v1h1zm88 0h-1v1h1zm88-44h-1v1h1zm-176 0h-1v1h1zm88 0h-1v1h1zm88 88h-1v1h1zm-176 0h-1v1h1zm88 0h-1v1h1zm132-154h-1v1h1zm-176 0h-1v1h1zm88 0h-1v1h1zm88 88h-1v1h1zm-176 0h-1v1h1zm88 0h-1v1h1zm88-44h-1v1h1zm-176 0h-1v1h1zm88 0h-1v1h1zm88 88h-1v1h1zm-176 0h-1v1h1zm88 0h-1v1h1zm44-132h-1v1h1zm-176 0h-1v1h1zm88 0h-1v1h1zm88 88h-1v1h1zm-176 0h-1v1h1zm88 0h-1v1h1zm88-44h-1v1h1zm-176 0h-1v1h1zm88 0h-1v1h1zm88 88h-1v1h1zm-176 0h-1v1h1zm88 0h-1v1h1zm121-99h-1v1h1zm-176 0h-1v1h1zm88 0h-1v1h1zm88 88h-1v1h1zm-176 0h-1v1h1zm88 0h-1v1h1zm88-44h-1v1h1zm-176 0h-1v1h1zm88 0h-1v1h1zm88 88h-1v1h1zm-176 0h-1v1h1zm88 0h-1v1h1zm44-132h-1v1h1zm-176 0h-1v1h1zm88 0h-1v1h1zm88 88h-1v1h1zm-176 0h-1v1h1zm88 0h-1v1h1zm88-44h-1v1h1zm-176 0h-1v1h1zm88 0h-1v1h1zm88 88h-1v1h1zm-176 0h-1v1h1zm88 0h-1v1h1z"/><path d="m1645 368h-1v1h1zm-176 0h-1v1h1zm88 0h-1v1h1zm88 88h-1v1h1zm-176 0h-1v1h1zm88 0h-1v1h1zm88-44h-1v1h1zm-176 0h-1v1h1zm88 0h-1v1h1zm88 88h-1v1h1zm-176 0h-1v1h1zm88 0h-1v1h1zm44-132h-1v1h1zm-176 0h-1v1h1zm88 0h-1v1h1zm88 88h-1v1h1zm-176 0h-1v1h1zm88 0h-1v1h1zm88-44h-1v1h1zm-176 0h-1v1h1zm88 0h-1v1h1zm88 88h-1v1h1zm-176 0h-1v1h1zm88 0h-1v1h1zm154-110h-1v1h1zm-176 0h-1v1h1zm88 0h-1v1h1zm88 88h-1v1h1zm-176 0h-1v1h1zm88 0h-1v1h1zm88-44h-1v1h1zm-176 0h-1v1h1zm88 0h-1v1h1zm88 88h-1v1h1zm-176 0h-1v1h1zm88 0h-1v1h1zm44-132h-1v1h1zm-176 0h-1v1h1zm88 0h-1v1h1zm88 88h-1v1h1zm-176 0h-1v1h1zm88 0h-1v1h1zm88-44h-1v1h1zm-176 0h-1v1h1zm88 0h-1v1h1zm88 88h-1v1h1zm-176 0h-1v1h1zm88 0h-1v1h1zm132-154h-1v1h1zm-176 0h-1v1h1zm88 0h-1v1h1zm88 88h-1v1h1zm-176 0h-1v1h1zm88 0h-1v1h1zm88-44h-1v1h1zm-176 0h-1v1h1zm88 0h-1v1h1zm88 88h-1v1h1zm-176 0h-1v1h1zm88 0h-1v1h1zm44-132h-1v1h1zm-176 0h-1v1h1zm88 0h-1v1h1zm88 88h-1v1h1zm-176 0h-1v1h1zm88 0h-1v1h1zm88-44h-1v1h1zm-176 0h-1v1h1zm88 0h-1v1h1zm88 88h-1v1h1zm-176 0h-1v1h1zm88 0h-1v1h1zm99-110h-1v1h1zm-176 0h-1v1h1zm88 0h-1v1h1zm88 88h-1v1h1zm-176 0h-1v1h1zm88 0h-1v1h1zm88-44h-1v1h1zm-176 0h-1v1h1zm88 0h-1v1h1zm88 88h-1v1h1zm-176 0h-1v1h1zm88 0h-1v1h1zm44-132h-1v1h1zm-176 0h-1v1h1zm264 0h-1v1h1zm-176 0h-1v1h1zm88 88h-1v1h1zm-176 0h-1v1h1zm264 0h-1v1h1zm-176 0h-1v1h1zm88-44h-1v1h1zm-176 0h-1v1h1zm264 0h-1v1h1zm-176 0h-1v1h1zm88 88h-1v1h1zm-176 0h-1v1h1zm264 0h-1v1h1zm-176 0h-1v1h1zm132-154h-1v1h1zm-176 0h-1v1h1zm88 0h-1v1h1zm88 88h-1v1h1zm-176 0h-1v1h1zm88 0h-1v1h1zm88-44h-1v1h1zm-176 0h-1v1h1zm88 0h-1v1h1zm88 88h-1v1h1zm-176 0h-1v1h1zm88 0h-1v1h1zm44-132h-1v1h1zm-176 0h-1v1h1zm264 0h-1v1h1zm-176 0h-1v1h1zm88 88h-1v1h1zm-176 0h-1v1h1zm264 0h-1v1h1zm-176 0h-1v1h1zm88-44h-1v1h1zm-176 0h-1v1h1zm264 0h-1v1h1zm-176 0h-1v1h1zm88 88h-1v1h1zm-176 0h-1v1h1zm264 0h-1v1h1zm-176 0h-1v1h1z"/><path d="m1656 390h-1v1h1zm-176 0h-1v1h1zm88 0h-1v1h1zm88 88h-1v1h1zm-176 0h-1v1h1zm88 0h-1v1h1zm88-44h-1v1h1zm-176 0h-1v1h1zm88 0h-1v1h1zm88 88h-1v1h1zm-176 0h-1v1h1zm88 0h-1v1h1zm44-132h-1v1h1zm-176 0h-1v1h1zm88 0h-1v1h1zm88 88h-1v1h1zm-176 0h-1v1h1zm88 0h-1v1h1zm88-44h-1v1h1zm-176 0h-1v1h1zm88 0h-1v1h1zm88 88h-1v1h1zm-176 0h-1v1h1zm88 0h-1v1h1zm132-154h-1v1h1zm-176 0h-1v1h1zm88 0h-1v1h1zm88 88h-1v1h1zm-176 0h-1v1h1zm88 0h-1v1h1zm88-44h-1v1h1zm-176 0h-1v1h1zm88 0h-1v1h1zm88 88h-1v1h1zm-176 0h-1v1h1zm88 0h-1v1h1zm44-132h-1v1h1zm-176 0h-1v1h1zm88 0h-1v1h1zm88 88h-1v1h1zm-176 0h-1v1h1zm88 0h-1v1h1zm88-44h-1v1h1zm-176 0h-1v1h1zm88 0h-1v1h1zm88 88h-1v1h1zm-176 0h-1v1h1zm88 0h-1v1h1zm121 55h-1v1h1zm-176 0h-1v1h1zm88 0h-1v1h1zm88 88h-1v1h1zm-176 0h-1v1h1zm88 0h-1v1h1zm88-44h-1v1h1zm-176 0h-1v1h1zm88 0h-1v1h1zm88 88h-1v1h1zm-176 0h-1v1h1zm88 0h-1v1h1zm44-132h-1v1h1zm-176 0h-1v1h1zm88 0h-1v1h1zm88 88h-1v1h1zm-176 0h-1v1h1zm88 0h-1v1h1zm88-44h-1v1h1zm-176 0h-1v1h1zm88 0h-1v1h1zm88 88h-1v1h1zm-176 0h-1v1h1zm88 0h-1v1h1zm132-154h-1v1h1zm-176 0h-1v1h1zm88 0h-1v1h1zm88 88h-1v1h1zm-176 0h-1v1h1zm88 0h-1v1h1zm88-44h-1v1h1zm-176 0h-1v1h1zm88 0h-1v1h1zm88 88h-1v1h1zm-176 0h-1v1h1zm88 0h-1v1h1zm44-132h-1v1h1zm-176 0h-1v1h1zm88 0h-1v1h1zm88 88h-1v1h1zm-176 0h-1v1h1zm88 0h-1v1h1zm88-44h-1v1h1zm-176 0h-1v1h1zm88 0h-1v1h1zm88 88h-1v1h1zm-176 0h-1v1h1zm88 0h-1v1h1zm154-110h-1v1h1zm-176 0h-1v1h1zm88 0h-1v1h1zm88 88h-1v1h1zm-176 0h-1v1h1zm88 0h-1v1h1zm88-44h-1v1h1zm-176 0h-1v1h1zm88 0h-1v1h1zm88 88h-1v1h1zm-176 0h-1v1h1zm88 0h-1v1h1zm44-132h-1v1h1zm-176 0h-1v1h1zm88 0h-1v1h1zm88 88h-1v1h1zm-176 0h-1v1h1zm88 0h-1v1h1zm88-44h-1v1h1zm-176 0h-1v1h1zm88 0h-1v1h1zm88 88h-1v1h1zm-176 0h-1v1h1zm88 0h-1v1h1zm132-154h-1v1h1zm-176 0h-1v1h1zm88 0h-1v1h1zm88 88h-1v1h1zm-176 0h-1v1h1zm88 0h-1v1h1zm88-44h-1v1h1zm-176 0h-1v1h1z"/><path d="m1579 577h-1v1h1zm88 88h-1v1h1zm-176 0h-1v1h1zm88 0h-1v1h1zm44-132h-1v1h1zm-176 0h-1v1h1zm88 0h-1v1h1zm88 88h-1v1h1zm-176 0h-1v1h1zm88 0h-1v1h1zm88-44h-1v1h1zm-176 0h-1v1h1zm88 0h-1v1h1zm88 88h-1v1h1zm-176 0h-1v1h1zm88 0h-1v1h1zm99-110h-1v1h1zm-176 0h-1v1h1zm88 0h-1v1h1zm88 88h-1v1h1zm-176 0h-1v1h1zm88 0h-1v1h1zm88-44h-1v1h1zm-176 0h-1v1h1zm88 0h-1v1h1zm88 88h-1v1h1zm-176 0h-1v1h1zm88 0h-1v1h1zm44-132h-1v1h1zm-176 0h-1v1h1zm264 0h-1v1h1zm-176 0h-1v1h1zm88 88h-1v1h1zm-176 0h-1v1h1zm264 0h-1v1h1zm-176 0h-1v1h1zm88-44h-1v1h1zm-176 0h-1v1h1zm264 0h-1v1h1zm-176 0h-1v1h1zm88 88h-1v1h1zm-176 0h-1v1h1zm264 0h-1v1h1zm-176 0h-1v1h1zm132-154h-1v1h1zm-176 0h-1v1h1zm88 0h-1v1h1zm88 88h-1v1h1zm-176 0h-1v1h1zm88 0h-1v1h1zm88-44h-1v1h1zm-176 0h-1v1h1zm88 0h-1v1h1zm88 88h-1v1h1zm-176 0h-1v1h1zm88 0h-1v1h1zm44-132h-1v1h1zm-176 0h-1v1h1zm264 0h-1v1h1zm-176 0h-1v1h1zm88 88h-1v1h1zm-176 0h-1v1h1zm264 0h-1v1h1zm-176 0h-1v1h1zm88-44h-1v1h1zm-176 0h-1v1h1zm264 0h-1v1h1zm-176 0h-1v1h1zm88 88h-1v1h1zm-176 0h-1v1h1zm264 0h-1v1h1zm-176 0h-1v1h1zm154-110h-1v1h1zm-176 0h-1v1h1zm88 0h-1v1h1zm88 88h-1v1h1zm-176 0h-1v1h1zm88 0h-1v1h1zm88-44h-1v1h1zm-176 0h-1v1h1zm88 0h-1v1h1zm88 88h-1v1h1zm-176 0h-1v1h1zm88 0h-1v1h1zm44-132h-1v1h1zm-176 0h-1v1h1zm88 0h-1v1h1zm88 88h-1v1h1zm-176 0h-1v1h1zm88 0h-1v1h1zm88-44h-1v1h1zm-176 0h-1v1h1zm88 0h-1v1h1zm88 88h-1v1h1zm-176 0h-1v1h1zm88 0h-1v1h1zm132-154h-1v1h1zm-176 0h-1v1h1zm88 0h-1v1h1zm88 88h-1v1h1zm-176 0h-1v1h1zm88 0h-1v1h1zm88-44h-1v1h1zm-176 0h-1v1h1zm88 0h-1v1h1zm88 88h-1v1h1zm-176 0h-1v1h1zm88 0h-1v1h1zm44-132h-1v1h1zm-176 0h-1v1h1zm88 0h-1v1h1zm88 88h-1v1h1zm-176 0h-1v1h1zm88 0h-1v1h1zm88-44h-1v1h1zm-176 0h-1v1h1zm88 0h-1v1h1zm88 88h-1v1h1zm-176 0h-1v1h1zm88 0h-1v1h1zm121-99h-1v1h1zm-176 0h-1v1h1zm88 0h-1v1h1zm88 88h-1v1h1zm-176 0h-1v1h1zm88 0h-1v1h1zm88-44h-1v1h1zm-176 0h-1v1h1z"/><path d="m1557 610h-1v1h1zm88 88h-1v1h1zm-176 0h-1v1h1zm88 0h-1v1h1zm44-132h-1v1h1zm-176 0h-1v1h1zm88 0h-1v1h1zm88 88h-1v1h1zm-176 0h-1v1h1zm88 0h-1v1h1zm88-44h-1v1h1zm-176 0h-1v1h1zm88 0h-1v1h1zm88 88h-1v1h1zm-176 0h-1v1h1zm88 0h-1v1h1zm132-154h-1v1h1zm-176 0h-1v1h1zm88 0h-1v1h1zm88 88h-1v1h1zm-176 0h-1v1h1zm88 0h-1v1h1zm88-44h-1v1h1zm-176 0h-1v1h1zm88 0h-1v1h1zm88 88h-1v1h1zm-176 0h-1v1h1zm88 0h-1v1h1zm44-132h-1v1h1zm-176 0h-1v1h1zm88 0h-1v1h1zm88 88h-1v1h1zm-176 0h-1v1h1zm88 0h-1v1h1zm88-44h-1v1h1zm-176 0h-1v1h1zm88 0h-1v1h1zm88 88h-1v1h1zm-176 0h-1v1h1zm88 0h-1v1h1zm154-110h-1v1h1zm-176 0h-1v1h1zm88 0h-1v1h1zm88 88h-1v1h1zm-176 0h-1v1h1zm88 0h-1v1h1zm88-44h-1v1h1zm-176 0h-1v1h1zm88 0h-1v1h1zm88 88h-1v1h1zm-176 0h-1v1h1zm88 0h-1v1h1zm44-132h-1v1h1zm-176 0h-1v1h1zm88 0h-1v1h1zm88 88h-1v1h1zm-176 0h-1v1h1zm88 0h-1v1h1zm88-44h-1v1h1zm-176 0h-1v1h1zm88 0h-1v1h1zm88 88h-1v1h1zm-176 0h-1v1h1zm88 0h-1v1h1zm132-154h-1v1h1zm-176 0h-1v1h1zm88 0h-1v1h1zm88 88h-1v1h1zm-176 0h-1v1h1zm88 0h-1v1h1zm88-44h-1v1h1zm-176 0h-1v1h1zm88 0h-1v1h1zm88 88h-1v1h1zm-176 0h-1v1h1zm88 0h-1v1h1zm44-132h-1v1h1zm-176 0h-1v1h1zm88 0h-1v1h1zm88 88h-1v1h1zm-176 0h-1v1h1zm88 0h-1v1h1zm88-44h-1v1h1zm-176 0h-1v1h1zm88 0h-1v1h1zm88 88h-1v1h1zm-176 0h-1v1h1zm88 0h-1v1h1zm99-110h-1v1h1zm-176 0h-1v1h1zm88 0h-1v1h1zm88 88h-1v1h1zm-176 0h-1v1h1zm88 0h-1v1h1zm88-44h-1v1h1zm-176 0h-1v1h1zm88 0h-1v1h1zm88 88h-1v1h1zm-176 0h-1v1h1zm88 0h-1v1h1zm44-132h-1v1h1zm-176 0h-1v1h1zm264 0h-1v1h1zm-176 0h-1v1h1zm88 88h-1v1h1zm-176 0h-1v1h1zm264 0h-1v1h1zm-176 0h-1v1h1zm88-44h-1v1h1zm-176 0h-1v1h1zm264 0h-1v1h1zm-176 0h-1v1h1zm88 88h-1v1h1zm-176 0h-1v1h1zm264 0h-1v1h1zm-176 0h-1v1h1zm132-154h-1v1h1zm-176 0h-1v1h1zm88 0h-1v1h1zm88 88h-1v1h1zm-176 0h-1v1h1zm88 0h-1v1h1zm88-44h-1v1h1zm-176 0h-1v1h1zm88 0h-1v1h1zm88 88h-1v1h1zm-176 0h-1v1h1zm88 0h-1v1h1z"/><path d="m1590 544h-1v1h1zm-176 0h-1v1h1zm264 0h-1v1h1zm-176 0h-1v1h1zm88 88h-1v1h1zm-176 0h-1v1h1zm264 0h-1v1h1zm-176 0h-1v1h1zm88-44h-1v1h1zm-176 0h-1v1h1zm264 0h-1v1h1zm-176 0h-1v1h1zm88 88h-1v1h1zm-176 0h-1v1h1zm264 0h-1v1h1zm-176 0h-1v1h1zm154-110h-1v1h1zm-176 0h-1v1h1zm88 0h-1v1h1zm88 88h-1v1h1zm-176 0h-1v1h1zm88 0h-1v1h1zm88-44h-1v1h1zm-176 0h-1v1h1zm88 0h-1v1h1zm88 88h-1v1h1zm-176 0h-1v1h1zm88 0h-1v1h1zm44-132h-1v1h1zm-176 0h-1v1h1zm88 0h-1v1h1zm88 88h-1v1h1zm-176 0h-1v1h1zm88 0h-1v1h1zm88-44h-1v1h1zm-176 0h-1v1h1zm88 0h-1v1h1zm88 88h-1v1h1zm-176 0h-1v1h1zm88 0h-1v1h1zm132-154h-1v1h1zm-176 0h-1v1h1zm88 0h-1v1h1zm88 88h-1v1h1zm-176 0h-1v1h1zm88 0h-1v1h1zm88-44h-1v1h1zm-176 0h-1v1h1zm88 0h-1v1h1zm88 88h-1v1h1zm-176 0h-1v1h1zm88 0h-1v1h1zm44-132h-1v1h1zm-176 0h-1v1h1zm88 0h-1v1h1zm88 88h-1v1h1zm-176 0h-1v1h1zm88 0h-1v1h1zm88-44h-1v1h1zm-176 0h-1v1h1zm88 0h-1v1h1zm88 88h-1v1h1zm-176 0h-1v1h1zm88 0h-1v1h1zm121 55h-1v1h1zm-176 0h-1v1h1zm88 0h-1v1h1zm88 88h-1v1h1zm-176 0h-1v1h1zm88 0h-1v1h1zm88-44h-1v1h1zm-176 0h-1v1h1zm88 0h-1v1h1zm88 88h-1v1h1zm-176 0h-1v1h1zm88 0h-1v1h1zm44-132h-1v1h1zm-176 0h-1v1h1zm88 0h-1v1h1zm88 88h-1v1h1zm-176 0h-1v1h1zm88 0h-1v1h1zm88-44h-1v1h1zm-176 0h-1v1h1zm88 0h-1v1h1zm88 88h-1v1h1zm-176 0h-1v1h1zm88 0h-1v1h1zm132-154h-1v1h1zm-176 0h-1v1h1zm88 0h-1v1h1zm88 88h-1v1h1zm-176 0h-1v1h1zm88 0h-1v1h1zm88-44h-1v1h1zm-176 0h-1v1h1zm88 0h-1v1h1zm88 88h-1v1h1zm-176 0h-1v1h1zm88 0h-1v1h1zm44-132h-1v1h1zm-176 0h-1v1h1zm88 0h-1v1h1zm88 88h-1v1h1zm-176 0h-1v1h1zm88 0h-1v1h1zm88-44h-1v1h1zm-176 0h-1v1h1zm88 0h-1v1h1zm88 88h-1v1h1zm-176 0h-1v1h1zm88 0h-1v1h1zm154-110h-1v1h1zm-176 0h-1v1h1zm88 0h-1v1h1zm88 88h-1v1h1zm-176 0h-1v1h1zm88 0h-1v1h1zm88-44h-1v1h1zm-176 0h-1v1h1zm88 0h-1v1h1zm88 88h-1v1h1zm-176 0h-1v1h1zm88 0h-1v1h1zm44-132h-1v1h1zm-176 0h-1v1h1zm88 0h-1v1h1zm88 88h-1v1h1z"/><path d="m1447 819h-1v1h1zm88 0h-1v1h1zm88-44h-1v1h1zm-176 0h-1v1h1zm88 0h-1v1h1zm88 88h-1v1h1zm-176 0h-1v1h1zm88 0h-1v1h1zm132-154h-1v1h1zm-176 0h-1v1h1zm88 0h-1v1h1zm88 88h-1v1h1zm-176 0h-1v1h1zm88 0h-1v1h1zm88-44h-1v1h1zm-176 0h-1v1h1zm88 0h-1v1h1zm88 88h-1v1h1zm-176 0h-1v1h1zm88 0h-1v1h1zm44-132h-1v1h1zm-176 0h-1v1h1zm88 0h-1v1h1zm88 88h-1v1h1zm-176 0h-1v1h1zm88 0h-1v1h1zm88-44h-1v1h1zm-176 0h-1v1h1zm88 0h-1v1h1zm88 88h-1v1h1zm-176 0h-1v1h1zm88 0h-1v1h1zm99-110h-1v1h1zm-176 0h-1v1h1zm88 0h-1v1h1zm88 88h-1v1h1zm-176 0h-1v1h1zm88 0h-1v1h1zm88-44h-1v1h1zm-176 0h-1v1h1zm88 0h-1v1h1zm88 88h-1v1h1zm-176 0h-1v1h1zm88 0h-1v1h1zm44-132h-1v1h1zm-176 0h-1v1h1zm264 0h-1v1h1zm-176 0h-1v1h1zm88 88h-1v1h1zm-176 0h-1v1h1zm264 0h-1v1h1zm-176 0h-1v1h1zm88-44h-1v1h1zm-176 0h-1v1h1zm264 0h-1v1h1zm-176 0h-1v1h1zm88 88h-1v1h1zm-176 0h-1v1h1zm264 0h-1v1h1zm-176 0h-1v1h1zm132-154h-1v1h1zm-176 0h-1v1h1zm88 0h-1v1h1zm88 88h-1v1h1zm-176 0h-1v1h1zm88 0h-1v1h1zm88-44h-1v1h1zm-176 0h-1v1h1zm88 0h-1v1h1zm88 88h-1v1h1zm-176 0h-1v1h1zm88 0h-1v1h1zm44-132h-1v1h1zm-176 0h-1v1h1zm264 0h-1v1h1zm-176 0h-1v1h1zm88 88h-1v1h1zm-176 0h-1v1h1zm264 0h-1v1h1zm-176 0h-1v1h1zm88-44h-1v1h1zm-176 0h-1v1h1zm264 0h-1v1h1zm-176 0h-1v1h1zm88 88h-1v1h1zm-176 0h-1v1h1zm264 0h-1v1h1zm-176 0h-1v1h1zm154-110h-1v1h1zm-176 0h-1v1h1zm88 0h-1v1h1zm88 88h-1v1h1zm-176 0h-1v1h1zm88 0h-1v1h1zm88-44h-1v1h1zm-176 0h-1v1h1zm88 0h-1v1h1zm88 88h-1v1h1zm-176 0h-1v1h1zm88 0h-1v1h1zm44-132h-1v1h1zm-176 0h-1v1h1zm88 0h-1v1h1zm88 88h-1v1h1zm-176 0h-1v1h1zm88 0h-1v1h1zm88-44h-1v1h1zm-176 0h-1v1h1zm88 0h-1v1h1zm88 88h-1v1h1zm-176 0h-1v1h1zm88 0h-1v1h1zm132-154h-1v1h1zm-176 0h-1v1h1zm88 0h-1v1h1zm88 88h-1v1h1zm-176 0h-1v1h1zm88 0h-1v1h1zm88-44h-1v1h1zm-176 0h-1v1h1zm88 0h-1v1h1zm88 88h-1v1h1zm-176 0h-1v1h1zm88 0h-1v1h1zm44-132h-1v1h1zm-176 0h-1v1h1zm88 0h-1v1h1zm88 88h-1v1h1z"/><path d="m1436 797h-1v1h1zm88 0h-1v1h1zm88-44h-1v1h1zm-176 0h-1v1h1zm88 0h-1v1h1zm88 88h-1v1h1zm-176 0h-1v1h1zm88 0h-1v1h1zm121-99h-1v1h1zm-176 0h-1v1h1zm88 0h-1v1h1zm88 88h-1v1h1zm-176 0h-1v1h1zm88 0h-1v1h1zm88-44h-1v1h1zm-176 0h-1v1h1zm88 0h-1v1h1zm88 88h-1v1h1zm-176 0h-1v1h1zm88 0h-1v1h1zm44-132h-1v1h1zm-176 0h-1v1h1zm88 0h-1v1h1zm88 88h-1v1h1zm-176 0h-1v1h1zm88 0h-1v1h1zm88-44h-1v1h1zm-176 0h-1v1h1zm88 0h-1v1h1zm88 88h-1v1h1zm-176 0h-1v1h1zm88 0h-1v1h1zm132-154h-1v1h1zm-176 0h-1v1h1zm88 0h-1v1h1zm88 88h-1v1h1zm-176 0h-1v1h1zm88 0h-1v1h1zm88-44h-1v1h1zm-176 0h-1v1h1zm88 0h-1v1h1zm88 88h-1v1h1zm-176 0h-1v1h1zm88 0h-1v1h1zm44-132h-1v1h1zm-176 0h-1v1h1zm88 0h-1v1h1zm88 88h-1v1h1zm-176 0h-1v1h1zm88 0h-1v1h1zm88-44h-1v1h1zm-176 0h-1v1h1zm88 0h-1v1h1zm88 88h-1v1h1zm-176 0h-1v1h1zm88 0h-1v1h1zm154-110h-1v1h1zm-176 0h-1v1h1zm88 0h-1v1h1zm88 88h-1v1h1zm-176 0h-1v1h1zm88 0h-1v1h1zm88-44h-1v1h1zm-176 0h-1v1h1zm88 0h-1v1h1zm88 88h-1v1h1zm-176 0h-1v1h1zm88 0h-1v1h1zm44-132h-1v1h1zm-176 0h-1v1h1zm88 0h-1v1h1zm88 88h-1v1h1zm-176 0h-1v1h1zm88 0h-1v1h1zm88-44h-1v1h1zm-176 0h-1v1h1zm88 0h-1v1h1zm88 88h-1v1h1zm-176 0h-1v1h1zm88 0h-1v1h1zm132-154h-1v1h1zm-176 0h-1v1h1zm88 0h-1v1h1zm88 88h-1v1h1zm-176 0h-1v1h1zm88 0h-1v1h1zm88-44h-1v1h1zm-176 0h-1v1h1zm88 0h-1v1h1zm88 88h-1v1h1zm-176 0h-1v1h1zm88 0h-1v1h1zm44-132h-1v1h1zm-176 0h-1v1h1zm88 0h-1v1h1zm88 88h-1v1h1zm-176 0h-1v1h1zm88 0h-1v1h1zm88-44h-1v1h1zm-176 0h-1v1h1zm88 0h-1v1h1zm88 88h-1v1h1zm-176 0h-1v1h1zm88 0h-1v1h1zm99-110h-1v1h1zm-176 0h-1v1h1zm88 0h-1v1h1zm88 88h-1v1h1zm-176 0h-1v1h1zm88 0h-1v1h1zm88-44h-1v1h1zm-176 0h-1v1h1zm88 0h-1v1h1zm88 88h-1v1h1zm-176 0h-1v1h1zm88 0h-1v1h1zm44-132h-1v1h1zm-176 0h-1v1h1zm264 0h-1v1h1zm-176 0h-1v1h1zm88 88h-1v1h1zm-176 0h-1v1h1zm264 0h-1v1h1zm-176 0h-1v1h1zm88-44h-1v1h1zm-176 0h-1v1h1zm264 0h-1v1h1zm-176 0h-1v1h1z"/><path d="m1590 874h-1v1h1zm-176 0h-1v1h1zm264 0h-1v1h1zm-176 0h-1v1h1zm132-154h-1v1h1zm-176 0h-1v1h1zm88 0h-1v1h1zm88 88h-1v1h1zm-176 0h-1v1h1zm88 0h-1v1h1zm88-44h-1v1h1zm-176 0h-1v1h1zm88 0h-1v1h1zm88 88h-1v1h1zm-176 0h-1v1h1zm88 0h-1v1h1zm44-132h-1v1h1zm-176 0h-1v1h1zm264 0h-1v1h1zm-176 0h-1v1h1zm88 88h-1v1h1zm-176 0h-1v1h1zm264 0h-1v1h1zm-176 0h-1v1h1zm88-44h-1v1h1zm-176 0h-1v1h1zm264 0h-1v1h1zm-176 0h-1v1h1zm88 88h-1v1h1zm-176 0h-1v1h1zm264 0h-1v1h1zm-176 0h-1v1h1zm154-110h-1v1h1zm-176 0h-1v1h1zm88 0h-1v1h1zm88 88h-1v1h1zm-176 0h-1v1h1zm88 0h-1v1h1zm88-44h-1v1h1zm-176 0h-1v1h1zm88 0h-1v1h1zm88 88h-1v1h1zm-176 0h-1v1h1zm88 0h-1v1h1zm44-132h-1v1h1zm-176 0h-1v1h1zm88 0h-1v1h1zm88 88h-1v1h1zm-176 0h-1v1h1zm88 0h-1v1h1zm88-44h-1v1h1zm-176 0h-1v1h1zm88 0h-1v1h1zm88 88h-1v1h1zm-176 0h-1v1h1zm88 0h-1v1h1zm132-154h-1v1h1zm-176 0h-1v1h1zm88 0h-1v1h1zm88 88h-1v1h1zm-176 0h-1v1h1zm88 0h-1v1h1zm88-44h-1v1h1zm-176 0h-1v1h1zm88 0h-1v1h1zm88 88h-1v1h1zm-176 0h-1v1h1zm88 0h-1v1h1zm44-132h-1v1h1zm-176 0h-1v1h1zm88 0h-1v1h1zm88 88h-1v1h1zm-176 0h-1v1h1zm88 0h-1v1h1zm88-44h-1v1h1zm-176 0h-1v1h1zm88 0h-1v1h1zm88 88h-1v1h1zm-176 0h-1v1h1zm88 0h-1v1h1zm-110 33h-1v1h1zm11 0h-1v1h1zm11 0h-1v1h1zm11 0h-1v1h1zm11 0h-1v1h1zm11 0h-1v1h1zm11 0h-1v1h1zm11 0h-1v1h1zm11 0h-1v1h1zm11 0h-1v1h1zm11 0h-1v1h1zm11 0h-1v1h1zm11 0h-1v1h1zm11 0h-1v1h1zm11 0h-1v1h1zm11 0h-1v1h1zm11 0h-1v1h1zm11 0h-1v1h1zm11 0h-1v1h1zm11 0h-1v1h1zm11 0h-1v1h1zm11 0h-1v1h1zm11 0h-1v1h1zm11 0h-1v1h1zm11 0h-1v1h1zm-264 11h-1v1h1zm11 0h-1v1h1zm11 0h-1v1h1zm11 0h-1v1h1zm11 0h-1v1h1zm11 0h-1v1h1zm11 0h-1v1h1zm11 0h-1v1h1zm11 0h-1v1h1zm11 0h-1v1h1zm11 0h-1v1h1zm11 0h-1v1h1zm11 0h-1v1h1zm11 0h-1v1h1zm11 0h-1v1h1zm11 0h-1v1h1zm11 0h-1v1h1zm11 0h-1v1h1zm11 0h-1v1h1zm11 0h-1v1h1zm11 0h-1v1h1zm11 0h-1v1h1zm11 0h-1v1h1zm11 0h-1v1h1zm11 0h-1v1h1z"/></g></svg>