<svg viewBox="0 0 2242 900" fill="none" xmlns="http://www.w3.org/2000/svg"><path opacity=".8" d="M12.88 882.161 1.42 856.423l39.827-17.847c16.533-6.388 82.662-33.253 166.451-67.444 219.617-89.425 402.975-164.009 424.392-169.457 60.493-15.405 124.744 8.266 176.595 27.241 19.726 7.139 38.137 14.09 53.73 17.847 44.337 10.521 87.358 7.139 117.981-9.393 13.714-7.327 46.774-24.423 84.914-44.149 51.29-26.301 115.16-59.178 157.06-81.722 12.59-6.763 19.91-15.029 19.35-21.98-.56-6.2-7.33-12.4-17.28-15.781-43.21-14.842-136.96-39.64-172.28-48.846l-.94-.188c-22.54-6.011-37.38-21.041-38.89-39.452-1.69-19.914 12.21-38.325 36.83-49.221 32.68-14.466 96-39.076 151.79-60.681 44.71-17.284 86.8-33.628 107.46-42.646 48.66-21.041 74.02-16.532 124.56-7.327 10.71 1.879 22.92 4.133 37.01 6.388 41.89 6.763 139.02 27.053 209.85 41.894 31.37 6.575 56.17 11.836 68 14.09 25.18 4.885 113.29 17.66 192-22.356 28.94-14.654 98.26-54.106 171.71-96 24.62-13.902 49.98-28.368 74.96-42.646l.38-.188 41.89-22.168 13.15 24.798-41.7 22.168c-24.99 14.09-50.16 28.556-74.77 42.458-76.84 43.774-143.35 81.535-172.84 96.564-86.61 44.149-182.8 30.247-210.22 24.987-12.03-2.255-36.83-7.515-68.39-14.09-70.64-14.842-167.39-34.944-208.53-41.707-14.28-2.254-26.68-4.509-37.57-6.575-49.04-8.83-67.45-12.212-108.4 5.448-21.23 9.205-63.69 25.55-108.59 43.021-55.61 21.417-118.55 45.84-150.48 60.118-12.78 5.636-20.67 14.09-20.1 21.229.56 6.2 7.32 11.648 18.03 14.466l.94.188c38.89 10.332 130 34.379 174.15 49.409 21.23 7.326 34.76 22.356 36.26 40.203 1.5 18.787-10.89 36.634-34.19 49.034-42.08 22.544-105.96 55.42-157.43 81.91-38.14 19.538-71.02 36.634-84.544 43.773-36.634 19.914-86.982 24.235-137.894 12.023-17.284-4.133-36.634-11.272-57.112-18.786-50.536-18.599-107.836-39.64-159.875-26.49-21.229 5.448-261.511 103.327-420.635 168.142-83.225 34.003-149.166 60.869-166.638 67.444L12.88 882.161Z" fill="url(#a)"/><path opacity=".8" d="M11.536 836.722.076 810.984l39.828-17.847c16.532-6.388 82.662-33.253 166.45-67.444 219.617-89.425 402.976-164.009 424.393-169.457 60.493-15.405 124.743 8.266 176.595 27.241 19.726 7.139 38.137 14.09 53.73 17.847 44.336 10.521 87.358 7.139 117.98-9.393 13.715-7.327 46.778-24.423 84.918-44.149 51.29-26.301 115.16-59.178 157.06-81.722 12.58-6.763 19.91-15.029 19.35-21.98-.57-6.2-7.33-12.4-17.29-15.781-43.21-14.842-136.95-39.64-172.27-48.846l-.94-.188c-22.55-6.011-37.39-21.041-38.89-39.452-1.69-19.914 12.21-38.325 36.82-49.221 32.69-14.466 96-39.076 151.8-60.681 44.71-17.284 86.79-33.628 107.46-42.646 48.66-21.041 74.02-16.532 124.55-7.327 10.71 1.879 22.92 4.133 37.01 6.388 41.9 6.763 139.03 27.053 209.85 41.894 31.38 6.575 56.17 11.836 68.01 14.09 25.17 4.885 113.28 17.66 192-22.356 28.93-14.654 98.26-54.106 171.71-96 24.61-13.902 49.97-28.368 74.96-42.646l.38-.188 41.89-22.168 13.15 24.798-41.71 22.168c-24.98 14.091-50.16 28.556-74.77 42.458-76.83 43.774-143.34 81.535-172.83 96.564-86.61 44.149-182.8 30.247-210.23 24.987-12.02-2.255-36.82-7.515-68.38-14.09-70.64-14.842-167.39-34.944-208.53-41.707-14.28-2.254-26.68-4.509-37.58-6.575-49.03-8.83-67.44-12.212-108.4 5.448-21.23 9.205-63.68 25.55-108.58 43.021-55.61 21.417-118.55 45.84-150.49 60.118-12.77 5.636-20.66 14.09-20.1 21.229.57 6.2 7.33 11.648 18.04 14.466l.94.188c38.89 10.332 130 34.379 174.15 49.409 21.23 7.326 34.76 22.356 36.26 40.203 1.5 18.787-10.9 36.634-34.19 49.034-42.09 22.544-105.96 55.42-157.44 81.91-38.13 19.538-71.01 36.634-84.537 43.773-36.634 19.914-86.982 24.235-137.894 12.023-17.284-4.133-36.635-11.272-57.112-18.786-50.536-18.599-107.836-39.64-159.875-26.49-21.229 5.448-261.511 103.327-420.635 168.142-83.225 34.004-149.167 60.869-166.638 67.444l-38.513 18.035Z" fill="url(#b)"/><defs><linearGradient id="a" x1="2007.67" y1="177.263" x2="-290.368" y2="1038.31" gradientUnits="userSpaceOnUse"><stop offset=".029" stop-color="#0A3364" stop-opacity="0"/><stop offset=".182" stop-color="#0A3364" stop-opacity=".939"/><stop offset=".589" stop-color="#0A3364"/><stop offset=".806" stop-color="#0A3364" stop-opacity="0"/></linearGradient><linearGradient id="b" x1="2096.98" y1="102.291" x2="-314.502" y2="966.174" gradientUnits="userSpaceOnUse"><stop offset=".061" stop-color="#00ADE4" stop-opacity="0"/><stop offset=".182" stop-color="#00ADE4"/><stop offset=".589" stop-color="#00ADE4"/><stop offset=".812" stop-color="#00ADE4" stop-opacity="0"/></linearGradient></defs></svg>