<svg width="36" height="49" viewBox="0 0 36 49" fill="none" xmlns="http://www.w3.org/2000/svg">
<path d="M2.23085 45.1668L1.97461 40.8189C3.46034 39.5912 6.15507 39.6322 5.25341 39.5912C4.35175 39.5503 2.86268 38.0396 2.23085 37.2894C2.14544 36.812 2.02586 35.1512 2.23085 32.3276C2.43585 29.504 6.5513 27.6728 8.5834 27.1101V12.8898L10.8375 12.276L13.5015 12.8898V26.6497L16.0631 26.3428V9.61605L18.7271 9.05335L20.93 9.61605V26.3428L22.3644 26.6497V8.43945H25.8481L27.2313 9.05335V27.1101C32.7233 28.0922 34.6427 30.3156 34.9159 31.3045V36.4709C33.2356 40.2358 26.7361 41.893 23.6964 42.2511L18.7271 35.4479L16.0631 36.4709L21.2374 43.5811L20.93 47.8779C12.856 49.7603 5.09975 46.8548 2.23085 45.1668Z" fill="white"/>
<path fill-rule="evenodd" clip-rule="evenodd" d="M8.0773 12.6543C8.10241 12.5845 8.17944 12.5483 8.24935 12.5734C9.33747 12.9638 10.4288 13.3012 11.5364 13.64C11.6075 13.6617 11.6474 13.7368 11.6256 13.8077C11.6039 13.8786 11.5287 13.9185 11.4577 13.8968C10.3503 13.5581 9.25327 13.219 8.15838 12.8261C8.08848 12.801 8.05218 12.7241 8.0773 12.6543Z" fill="black"/>
<path fill-rule="evenodd" clip-rule="evenodd" d="M8.0773 30.4512C8.10241 30.3814 8.17944 30.3452 8.24935 30.3703C9.33747 30.7607 10.4288 31.0981 11.5364 31.4369C11.6075 31.4586 11.6474 31.5337 11.6256 31.6046C11.6039 31.6755 11.5287 31.7154 11.4577 31.6937C10.3503 31.355 9.25327 31.0158 8.15838 30.623C8.08848 30.5979 8.05218 30.521 8.0773 30.4512Z" fill="black"/>
<path fill-rule="evenodd" clip-rule="evenodd" d="M10.461 12.1742C10.4789 12.1023 10.5519 12.0584 10.624 12.0763C10.9652 12.1608 11.3046 12.2511 11.6434 12.3412C12.4378 12.5524 13.2286 12.7627 14.0303 12.8962C14.1036 12.9083 14.1531 12.9775 14.1409 13.0507C14.1287 13.1238 14.0594 13.1733 13.9861 13.1611C13.1712 13.0255 12.3603 12.8098 11.5604 12.5972C11.2246 12.5078 10.8906 12.4191 10.5592 12.3369C10.4871 12.3191 10.4431 12.2462 10.461 12.1742Z" fill="black"/>
<path fill-rule="evenodd" clip-rule="evenodd" d="M13.5598 12.824C13.5818 12.8948 13.5422 12.9701 13.4712 12.9921C12.3183 13.3493 11.1351 13.5527 9.95305 13.7363C9.87965 13.7477 9.81089 13.6976 9.79947 13.6243C9.78805 13.551 9.83829 13.4824 9.91168 13.471C11.0928 13.2874 12.259 13.0865 13.3915 12.7356C13.4624 12.7136 13.5378 12.7532 13.5598 12.824Z" fill="black"/>
<path fill-rule="evenodd" clip-rule="evenodd" d="M14.1302 30.7547C14.1524 30.8255 14.1129 30.9009 14.042 30.923C12.9628 31.2606 11.8527 31.4617 10.7434 31.6455C10.6701 31.6576 10.6008 31.6081 10.5887 31.5349C10.5765 31.4618 10.6261 31.3926 10.6994 31.3805C11.8078 31.1969 12.9018 30.9982 13.9616 30.6667C14.0325 30.6446 14.108 30.684 14.1302 30.7547Z" fill="black"/>
<path fill-rule="evenodd" clip-rule="evenodd" d="M11.7119 11.9374C11.7241 12.0106 11.6747 12.0798 11.6014 12.092C11.3016 12.1418 11.0146 12.2189 10.7138 12.2997C10.6832 12.3079 10.6525 12.3161 10.6215 12.3244C9.77412 12.5511 8.91514 12.7248 8.06097 12.8975C8.03514 12.9027 8.00931 12.9079 7.98349 12.9131C7.91069 12.9279 7.83972 12.8809 7.82497 12.8082C7.81022 12.7355 7.85728 12.6646 7.93008 12.6499C7.95488 12.6449 7.97967 12.6399 8.00446 12.6349C8.86095 12.4617 9.71272 12.2894 10.552 12.065C10.583 12.0567 10.6141 12.0483 10.6451 12.04C10.9439 11.9597 11.2437 11.8792 11.5572 11.827C11.6304 11.8149 11.6997 11.8643 11.7119 11.9374Z" fill="black"/>
<path fill-rule="evenodd" clip-rule="evenodd" d="M8.57395 11.6201C8.64822 11.6201 8.70844 11.6802 8.70844 11.7544V31.812C8.70844 31.8862 8.64822 31.9463 8.57395 31.9463C8.49967 31.9463 8.43945 31.8862 8.43945 31.812V11.7544C8.43945 11.6802 8.49967 11.6201 8.57395 11.6201ZM13.5137 11.6201C13.588 11.6201 13.6482 11.6802 13.6482 11.7544V31.812C13.6482 31.8862 13.588 31.9463 13.5137 31.9463C13.4394 31.9463 13.3792 31.8862 13.3792 31.812V11.7544C13.3792 11.6802 13.4394 11.6201 13.5137 11.6201ZM10.8792 12.6066C10.9534 12.6066 11.0137 12.6667 11.0137 12.7408V31.812C11.0137 31.8862 10.9534 31.9463 10.8792 31.9463C10.8049 31.9463 10.7447 31.8862 10.7447 31.812V12.7408C10.7447 12.6667 10.8049 12.6066 10.8792 12.6066Z" fill="black"/>
<path fill-rule="evenodd" clip-rule="evenodd" d="M15.1984 9.40825C15.2235 9.33845 15.3005 9.3022 15.3704 9.32728C16.4586 9.71769 17.5499 10.0552 18.6575 10.3939C18.7285 10.4156 18.7685 10.4907 18.7467 10.5616C18.725 10.6325 18.6498 10.6724 18.5787 10.6507C17.4713 10.312 16.3744 9.97287 15.2795 9.58003C15.2096 9.55495 15.1733 9.47804 15.1984 9.40825Z" fill="black"/>
<path fill-rule="evenodd" clip-rule="evenodd" d="M15.6252 29.1264C15.6563 29.059 15.7362 29.0296 15.8036 29.0606C16.8538 29.5437 17.9117 29.9744 18.9858 30.4077C19.0546 30.4355 19.0879 30.5138 19.0601 30.5825C19.0322 30.6513 18.9538 30.6845 18.885 30.6567C17.8112 30.2235 16.7477 29.7907 15.6911 29.3045C15.6236 29.2735 15.5941 29.1937 15.6252 29.1264Z" fill="black"/>
<path fill-rule="evenodd" clip-rule="evenodd" d="M17.8292 8.76311C17.8471 8.69112 17.92 8.64725 17.9921 8.66512C18.3333 8.74967 18.6728 8.83995 19.0116 8.93005C19.806 9.1413 20.5967 9.3516 21.3985 9.48502C21.4718 9.49722 21.5213 9.5664 21.5091 9.63956C21.4968 9.71271 21.4275 9.76213 21.3543 9.74994C20.5393 9.61432 19.7285 9.39871 18.9286 9.18602C18.5927 9.09671 18.2588 9.00792 17.9273 8.92578C17.8552 8.90792 17.8113 8.83509 17.8292 8.76311Z" fill="black"/>
<path fill-rule="evenodd" clip-rule="evenodd" d="M22.2071 9.42452C22.2232 9.49692 22.1775 9.56865 22.105 9.58474C20.8501 9.86318 19.4982 10.0692 18.3984 10.2368C18.1946 10.2678 17.9996 10.2975 17.8153 10.3262C17.742 10.3376 17.6732 10.2874 17.6618 10.2141C17.6504 10.1408 17.7006 10.0722 17.774 10.0608C17.9595 10.032 18.1556 10.0021 18.36 9.97093C19.4601 9.80327 20.8014 9.59885 22.0466 9.32256C22.1191 9.30647 22.191 9.35212 22.2071 9.42452Z" fill="black"/>
<path fill-rule="evenodd" clip-rule="evenodd" d="M21.7091 29.4683C21.7329 29.5385 21.6951 29.6147 21.6247 29.6385C20.2156 30.1143 18.7692 30.3852 17.323 30.6301C17.2498 30.6425 17.1804 30.5933 17.1679 30.5202C17.1555 30.447 17.2048 30.3777 17.278 30.3653C18.7232 30.1206 20.1513 29.8525 21.5386 29.3841C21.6089 29.3603 21.6853 29.398 21.7091 29.4683Z" fill="black"/>
<path fill-rule="evenodd" clip-rule="evenodd" d="M19.4688 9.09846C19.4747 9.1724 19.4194 9.23705 19.3453 9.24286C19.0424 9.26664 18.7497 9.31862 18.4431 9.37306C18.4119 9.3786 18.3805 9.38416 18.349 9.38973C17.4851 9.54226 16.6143 9.64105 15.7483 9.73928C15.7222 9.74225 15.696 9.74522 15.6698 9.7482C15.596 9.75657 15.5294 9.70363 15.521 9.62994C15.5126 9.55625 15.5656 9.48972 15.6394 9.48134C15.6645 9.47849 15.6897 9.47564 15.7148 9.47279C16.5831 9.37428 17.4466 9.27631 18.3022 9.12526C18.3338 9.11967 18.3655 9.11404 18.3972 9.10841C18.7018 9.0543 19.0074 8.99998 19.3242 8.97512C19.3983 8.9693 19.463 9.02453 19.4688 9.09846Z" fill="black"/>
<path fill-rule="evenodd" clip-rule="evenodd" d="M15.9421 8.49707C16.0164 8.49707 16.0766 8.55719 16.0766 8.63136V30.1686C16.0766 30.2428 16.0164 30.3029 15.9421 30.3029C15.8678 30.3029 15.8076 30.2428 15.8076 30.1686V8.63136C15.8076 8.55719 15.8678 8.49707 15.9421 8.49707ZM20.8819 8.99029C20.9562 8.99029 21.0164 9.05041 21.0164 9.12458V30.1686C21.0164 30.2428 20.9562 30.3029 20.8819 30.3029C20.8076 30.3029 20.7474 30.2428 20.7474 30.1686V9.12458C20.7474 9.05041 20.8076 8.99029 20.8819 8.99029ZM18.2473 9.97673C18.3216 9.97673 18.3818 10.0369 18.3818 10.111V30.1686C18.3818 30.2428 18.3216 30.3029 18.2473 30.3029C18.1731 30.3029 18.1128 30.2428 18.1128 30.1686V10.111C18.1128 10.0369 18.1731 9.97673 18.2473 9.97673Z" fill="black"/>
<path fill-rule="evenodd" clip-rule="evenodd" d="M24.7482 8.09184C24.7733 8.02205 24.8503 7.9858 24.9202 8.01088C26.0084 8.40129 27.0997 8.73875 28.2073 9.0775C28.2783 9.09922 28.3183 9.17431 28.2965 9.24523C28.2748 9.31614 28.1996 9.35602 28.1285 9.33429C27.0212 8.99561 25.9242 8.65646 24.8293 8.26363C24.7594 8.23855 24.7231 8.16164 24.7482 8.09184Z" fill="black"/>
<path fill-rule="evenodd" clip-rule="evenodd" d="M21.8132 31.0624C21.8643 31.0086 21.9495 31.0063 22.0034 31.0573C22.7632 31.7763 23.5254 32.3979 24.3006 33.0232C24.3584 33.0698 24.3674 33.1544 24.3207 33.2121C24.274 33.2698 24.1893 33.2787 24.1316 33.2321C23.3563 32.6068 22.5867 31.9793 21.8183 31.2523C21.7644 31.2012 21.7621 31.1163 21.8132 31.0624Z" fill="black"/>
<path fill-rule="evenodd" clip-rule="evenodd" d="M21.5666 8.41703C21.5939 8.34806 21.672 8.31426 21.7411 8.34153C22.068 8.47062 22.3924 8.60514 22.7163 8.73941C23.4754 9.05421 24.2312 9.36759 25.0081 9.60623C25.0791 9.62804 25.1189 9.70318 25.0971 9.77407C25.0753 9.84495 25 9.88474 24.929 9.86293C24.1393 9.62036 23.3644 9.29905 22.5999 8.9821C22.2789 8.84901 21.9598 8.71669 21.6422 8.59129C21.5731 8.56401 21.5392 8.486 21.5666 8.41703Z" fill="black"/>
<path fill-rule="evenodd" clip-rule="evenodd" d="M28.0347 9.06943C28.0402 9.14339 27.9847 9.20783 27.9106 9.21338C26.6287 9.30931 25.2612 9.31966 24.1486 9.32809C23.9426 9.32965 23.7452 9.33114 23.5588 9.3331C23.4846 9.33388 23.4237 9.2744 23.4229 9.20024C23.4221 9.12608 23.4817 9.06533 23.556 9.06454C23.7438 9.06257 23.9421 9.06106 24.1488 9.05949C25.2617 9.05104 26.6185 9.04074 27.8905 8.94555C27.9646 8.94001 28.0291 8.99547 28.0347 9.06943Z" fill="black"/>
<path fill-rule="evenodd" clip-rule="evenodd" d="M27.9727 32.4539C27.9812 32.5275 27.9283 32.5942 27.8545 32.6027C25.7071 32.85 24.8783 32.8501 23.3933 32.8501C23.319 32.8501 23.2588 32.79 23.2588 32.7158C23.2588 32.6417 23.319 32.5816 23.3933 32.5816H23.395C24.8728 32.5816 25.6908 32.5816 27.8236 32.3359C27.8974 32.3274 27.9642 32.3802 27.9727 32.4539Z" fill="black"/>
<path fill-rule="evenodd" clip-rule="evenodd" d="M26.6561 8.46641C26.6563 8.54057 26.5963 8.60086 26.522 8.60107L22.0185 8.61361C21.9443 8.61381 21.8839 8.55386 21.8837 8.47969C21.8835 8.40553 21.9435 8.34524 22.0178 8.34503L26.5212 8.3325C26.5955 8.33229 26.6559 8.39224 26.6561 8.46641Z" fill="black"/>
<path fill-rule="evenodd" clip-rule="evenodd" d="M22.2409 7.83887C22.3152 7.83887 22.3754 7.89899 22.3754 7.97315V31.4833C22.3754 31.5575 22.3152 31.6176 22.2409 31.6176C22.1667 31.6176 22.1064 31.5575 22.1064 31.4833V7.97315C22.1064 7.89899 22.1667 7.83887 22.2409 7.83887ZM27.3454 7.83887C27.4196 7.83887 27.4798 7.89899 27.4798 7.97315V32.3053C27.4798 32.3795 27.4196 32.4396 27.3454 32.4396C27.2711 32.4396 27.2109 32.3795 27.2109 32.3053V7.97315C27.2109 7.89899 27.2711 7.83887 27.3454 7.83887ZM23.7229 8.82531C23.7971 8.82531 23.8574 8.88543 23.8574 8.95959V32.963C23.8574 33.0371 23.7971 33.0972 23.7229 33.0972C23.6486 33.0972 23.5884 33.0371 23.5884 32.963V8.95959C23.5884 8.88543 23.6486 8.82531 23.7229 8.82531Z" fill="black"/>
<path fill-rule="evenodd" clip-rule="evenodd" d="M19.0753 31.4402C19.099 31.5105 19.0611 31.5867 18.9906 31.6103C17.9717 31.9517 16.9549 32.2984 15.938 32.645C12.5885 33.7869 9.23825 34.929 5.81141 35.8868C5.73988 35.9068 5.66566 35.8652 5.64564 35.7937C5.62561 35.7223 5.66737 35.6482 5.73889 35.6282C9.15776 34.6726 12.4982 33.5338 15.8464 32.3924C16.8644 32.0454 17.8832 31.6981 18.9051 31.3556C18.9755 31.3321 19.0517 31.3699 19.0753 31.4402Z" fill="black"/>
<path fill-rule="evenodd" clip-rule="evenodd" d="M18.2006 31.3815C18.2567 31.3329 18.3416 31.3389 18.3903 31.3949C18.6041 31.6406 18.8168 31.8856 19.0288 32.1299C20.8783 34.2603 22.6758 36.331 24.6821 38.3342C24.7346 38.3866 24.7346 38.4716 24.6821 38.5241C24.6296 38.5765 24.5444 38.5765 24.4919 38.5241C22.4784 36.5137 20.6745 34.4356 18.8258 32.3061C18.6137 32.0617 18.401 31.8167 18.1872 31.571C18.1385 31.515 18.1445 31.4302 18.2006 31.3815Z" fill="black"/>
<path fill-rule="evenodd" clip-rule="evenodd" d="M18.5377 35.4035C18.5973 35.3592 18.6816 35.3716 18.7259 35.4312C20.8663 38.3081 22.3473 40.2798 24.1574 42.58C24.2033 42.6383 24.1931 42.7227 24.1347 42.7685C24.0763 42.8144 23.9918 42.8042 23.9459 42.7459C22.1335 40.4427 20.6506 38.4686 18.5099 35.5913C18.4656 35.5318 18.4781 35.4477 18.5377 35.4035Z" fill="black"/>
<path fill-rule="evenodd" clip-rule="evenodd" d="M27.215 27.1739C27.2341 27.1023 27.3078 27.0597 27.3796 27.0788C27.6318 27.1459 27.8798 27.2107 28.1236 27.2744C30.2559 27.8315 32.0724 28.3061 33.685 29.569C34.7094 30.3713 35.0756 31.2371 34.956 32.0984C34.8382 32.9465 34.2534 33.7542 33.4594 34.4612C31.8723 35.8744 29.373 36.9523 27.7015 37.2047C27.1392 37.3524 26.2223 37.4812 25.3128 37.5906C24.8544 37.6458 24.3993 37.6958 23.9879 37.7411C23.5721 37.7868 23.2009 37.8276 22.9161 37.8638C22.8425 37.8732 22.7751 37.8211 22.7657 37.7475C22.7564 37.674 22.8085 37.6067 22.8822 37.5974C23.1656 37.5614 23.542 37.5199 23.9618 37.4737C24.375 37.4283 24.8303 37.3781 25.2807 37.324C26.197 37.2138 27.0993 37.0861 27.6398 36.9431C27.6446 36.9419 27.6494 36.9409 27.6543 36.9402C29.2759 36.6973 31.7313 35.64 33.2803 34.2608C34.0555 33.5706 34.5847 32.8166 34.6896 32.0615C34.7926 31.3197 34.4902 30.5409 33.519 29.7803C31.9529 28.5538 30.1924 28.0934 28.0514 27.5333C27.8093 27.47 27.5624 27.4054 27.3103 27.3383C27.2385 27.3192 27.1959 27.2456 27.215 27.1739Z" fill="black"/>
<path fill-rule="evenodd" clip-rule="evenodd" d="M34.9344 31.5192C35.0056 31.5403 35.0462 31.615 35.0251 31.6861C35.0098 31.7378 34.9954 31.8538 34.9844 32.0343C34.9736 32.2096 34.9666 32.4323 34.9617 32.6877C34.9555 33.0097 34.9527 33.3801 34.9497 33.769C34.948 33.9979 34.9462 34.2332 34.9436 34.4688C34.9367 35.1029 34.9243 35.7381 34.8922 36.2458C34.8761 36.4994 34.855 36.7241 34.8265 36.9022C34.8123 36.9912 34.7959 37.071 34.7766 37.1382C34.758 37.2031 34.734 37.2662 34.6999 37.3148C33.4567 39.0889 31.5368 40.3355 29.3567 41.1589C27.1759 41.9825 24.7262 42.386 22.4098 42.4686C22.3356 42.4713 22.2732 42.4133 22.2706 42.3392C22.2679 42.2651 22.326 42.2029 22.4002 42.2002C24.6942 42.1184 27.114 41.7188 29.2615 40.9077C31.4096 40.0964 33.2769 38.8769 34.4795 37.1608C34.488 37.1488 34.5022 37.1196 34.5181 37.0642C34.5333 37.0112 34.5477 36.9429 34.5609 36.8599C34.5874 36.694 34.6079 36.479 34.6237 36.2288C34.6554 35.7288 34.6678 35.0999 34.6747 34.4659C34.6772 34.2324 34.679 33.9981 34.6807 33.7696C34.6837 33.3793 34.6866 33.0058 34.6928 32.6826C34.6977 32.426 34.7048 32.1989 34.7159 32.0179C34.7266 31.8422 34.7418 31.6956 34.7672 31.6098C34.7883 31.5387 34.8632 31.4982 34.9344 31.5192Z" fill="black"/>
<path fill-rule="evenodd" clip-rule="evenodd" d="M16.2728 35.214C16.3006 35.2828 16.2672 35.361 16.1983 35.3888C12.2854 36.9632 9.1167 38.1246 5.63858 39.3994C4.21165 39.9224 2.73264 40.4645 1.12881 41.0621C1.05922 41.088 0.981755 41.0527 0.955788 40.9832C0.929821 40.9137 0.965186 40.8364 1.03478 40.8104C2.6414 40.2119 4.12185 39.6692 5.54945 39.146C9.0259 37.8718 12.189 36.7124 16.0978 35.1397C16.1667 35.1119 16.245 35.1452 16.2728 35.214Z" fill="black"/>
<path fill-rule="evenodd" clip-rule="evenodd" d="M15.0809 35.0735C15.141 35.0299 15.2251 35.0433 15.2688 35.1033C15.5857 35.5395 15.9038 35.9751 16.2221 36.4109C17.9655 38.7983 19.7124 41.1906 21.284 43.7012C21.3233 43.7641 21.3042 43.847 21.2412 43.8863C21.1782 43.9256 21.0952 43.9065 21.0559 43.8436C19.4899 41.3418 17.7494 38.9584 16.0059 36.5708C15.6874 36.1346 15.3687 35.6982 15.051 35.261C15.0074 35.201 15.0208 35.117 15.0809 35.0735Z" fill="black"/>
<path fill-rule="evenodd" clip-rule="evenodd" d="M0.882978 40.1302C0.91983 40.0658 1.00199 40.0434 1.06648 40.0802C2.20671 40.7308 4.06355 41.4195 4.99213 41.7128C10.5796 43.478 17.8922 44.3909 22.7021 43.1903C22.7741 43.1723 22.8472 43.216 22.8652 43.288C22.8832 43.3599 22.8394 43.4328 22.7673 43.4508C17.8885 44.6687 10.5203 43.7409 4.91099 41.9689C3.97619 41.6736 2.09801 40.9781 0.933023 40.3134C0.868531 40.2766 0.846125 40.1946 0.882978 40.1302Z" fill="black"/>
<path fill-rule="evenodd" clip-rule="evenodd" d="M1.98103 39.6926C2.05521 39.6887 2.11847 39.7456 2.12232 39.8197C2.28714 42.9876 2.28716 43.9765 2.28716 46.444C2.28716 46.5182 2.22695 46.5783 2.15267 46.5783C2.07839 46.5783 2.01818 46.5182 2.01818 46.444V46.443C2.01818 43.9791 2.01818 42.995 1.8537 39.8336C1.84985 39.7596 1.90686 39.6964 1.98103 39.6926Z" fill="black"/>
<path fill-rule="evenodd" clip-rule="evenodd" d="M21.131 42.2822C21.2053 42.2831 21.2647 42.344 21.2639 42.4181C21.2539 43.2545 21.207 44.2049 21.1606 45.1459C21.1581 45.1981 21.1555 45.2502 21.1529 45.3024C21.1041 46.2956 21.058 47.2704 21.058 48.0885C21.058 48.1627 20.9978 48.2228 20.9236 48.2228C20.8493 48.2228 20.7891 48.1627 20.7891 48.0885C20.7891 47.2626 20.8355 46.2811 20.8843 45.2892C20.8868 45.2377 20.8893 45.1861 20.8919 45.1345C20.9384 44.1919 20.985 43.2461 20.9949 42.4149C20.9958 42.3408 21.0567 42.2814 21.131 42.2822Z" fill="black"/>
<path fill-rule="evenodd" clip-rule="evenodd" d="M1.38444 44.7223C1.42761 44.6619 1.51161 44.6479 1.57205 44.691C3.85386 46.3184 7.27532 47.4879 10.9612 48.0323C14.6455 48.5765 18.5785 48.4937 21.8774 47.6297C21.9493 47.6109 22.0228 47.6538 22.0416 47.7256C22.0605 47.7973 22.0175 47.8707 21.9457 47.8895C18.6042 48.7646 14.6336 48.8462 10.9218 48.298C7.21151 47.75 3.74434 46.5704 1.41571 44.9096C1.35526 44.8665 1.34126 44.7826 1.38444 44.7223Z" fill="black"/>
<path fill-rule="evenodd" clip-rule="evenodd" d="M18.7442 35.3811C18.7709 35.4504 18.7362 35.528 18.6669 35.5546C18.2756 35.7046 17.9607 35.8285 17.6864 35.9364C17.063 36.1817 16.6495 36.3444 16.0251 36.5436C15.9543 36.5662 15.8786 36.5272 15.856 36.4566C15.8334 36.3859 15.8725 36.3103 15.9432 36.2878C16.5588 36.0914 16.9617 35.9329 17.5801 35.6896C17.855 35.5814 18.1726 35.4564 18.5705 35.3039C18.6398 35.2773 18.7176 35.3119 18.7442 35.3811Z" fill="black"/>
<path fill-rule="evenodd" clip-rule="evenodd" d="M2.14633 36.7008C2.21596 36.675 2.29337 36.7105 2.31921 36.78C2.78889 38.0436 3.95274 39.0153 5.20526 39.4963C5.27459 39.5229 5.30917 39.6006 5.28251 39.6698C5.25584 39.739 5.17803 39.7736 5.1087 39.747C3.80429 39.246 2.57029 38.2273 2.06703 36.8734C2.04119 36.8039 2.07669 36.7266 2.14633 36.7008Z" fill="black"/>
<path fill-rule="evenodd" clip-rule="evenodd" d="M2.31931 32.336C2.39357 32.3375 2.45252 32.3989 2.45097 32.473C2.41792 34.057 2.42741 34.8926 2.43837 35.8585C2.44444 36.3932 2.45096 36.9678 2.45098 37.7312C2.45098 37.8054 2.39077 37.8655 2.31649 37.8655C2.24221 37.8655 2.18199 37.8054 2.18199 37.7312C2.18198 36.9736 2.17549 36.4007 2.16944 35.8664C2.15846 34.8974 2.14892 34.0551 2.18204 32.4674C2.18359 32.3933 2.24505 32.3344 2.31931 32.336Z" fill="black"/>
<path fill-rule="evenodd" clip-rule="evenodd" d="M18.6211 31.3487C18.6953 31.3502 18.7543 31.4116 18.7527 31.4857C18.7203 33.04 18.7288 33.6765 18.7395 34.4747C18.7458 34.9403 18.7527 35.4609 18.7528 36.2507C18.7528 36.3249 18.6926 36.385 18.6183 36.385C18.544 36.385 18.4838 36.3249 18.4838 36.2507C18.4838 35.4678 18.4768 34.9487 18.4706 34.483C18.4599 33.6813 18.4513 33.0381 18.4838 31.4801C18.4853 31.406 18.5468 31.3471 18.6211 31.3487Z" fill="black"/>
<path fill-rule="evenodd" clip-rule="evenodd" d="M23.913 37.2676C23.9873 37.2692 24.0463 37.3305 24.0447 37.4047C24.0123 38.9589 24.0208 39.5955 24.0315 40.3936C24.0378 40.8592 24.0447 41.3798 24.0448 42.1697C24.0448 42.2438 23.9845 42.3039 23.9103 42.3039C23.836 42.3039 23.7758 42.2438 23.7758 42.1697C23.7758 41.3868 23.7688 40.8676 23.7626 40.402C23.7519 39.6002 23.7433 38.957 23.7758 37.3991C23.7773 37.3249 23.8388 37.2661 23.913 37.2676Z" fill="black"/>
<path fill-rule="evenodd" clip-rule="evenodd" d="M6.12982 35.1299C6.20408 35.1315 6.26303 35.1928 6.26148 35.267C6.23093 36.731 6.2367 36.9722 6.24642 37.3782C6.25305 37.6553 6.26153 38.0092 6.26154 38.8811C6.26154 38.9553 6.20133 39.0154 6.12705 39.0154C6.05277 39.0154 5.99256 38.9553 5.99256 38.8811C5.99254 38.0231 5.98417 37.669 5.97757 37.3898C5.96782 36.9774 5.96194 36.7285 5.99255 35.2614C5.9941 35.1872 6.05555 35.1284 6.12982 35.1299Z" fill="black"/>
<path fill-rule="evenodd" clip-rule="evenodd" d="M1.80727 31.3496C1.88104 31.3409 1.94787 31.3936 1.95655 31.4672C2.02684 32.0638 2.33077 32.6364 2.74473 33.1529C3.15804 33.6687 3.67443 34.1202 4.1553 34.4734C5.06788 35.1436 6.09782 35.7107 7.20995 35.6644C7.28417 35.6614 7.34684 35.7189 7.34993 35.793C7.35302 35.8671 7.29537 35.9297 7.22115 35.9328C6.01255 35.9831 4.91861 35.3674 3.99591 34.6897C3.50266 34.3274 2.96703 33.8602 2.53471 33.3207C2.10303 32.7821 1.76771 32.1631 1.68941 31.4986C1.68073 31.425 1.7335 31.3582 1.80727 31.3496Z" fill="black"/>
<path fill-rule="evenodd" clip-rule="evenodd" d="M8.70472 27.3154C8.72338 27.3872 8.68022 27.4605 8.60833 27.4791C6.91538 27.9179 5.26515 28.5282 4.02102 29.73C3.39722 30.3326 2.79708 31.1214 2.55639 31.9454C2.40263 32.4717 2.50452 32.9723 2.72888 33.4843C2.75865 33.5522 2.72762 33.6314 2.65957 33.6611C2.59152 33.6909 2.51222 33.6599 2.48245 33.5919C2.24442 33.0487 2.12006 32.4799 2.29817 31.8702C2.55734 30.9829 3.19394 30.1552 3.83399 29.5369C5.12969 28.2853 6.83626 27.6609 8.54075 27.2192C8.61265 27.2006 8.68606 27.2436 8.70472 27.3154Z" fill="black"/>
<path d="M13.5138 26.5509C14.1461 26.4495 14.9788 26.3502 15.819 26.284L13.5138 26.5509Z" fill="#22222A"/>
<path fill-rule="evenodd" clip-rule="evenodd" d="M15.9526 26.2712C15.9597 26.3441 15.9071 26.4092 15.8342 26.4176L13.529 26.6845C13.4564 26.6929 13.3903 26.6418 13.3803 26.5695C13.3703 26.4971 13.42 26.4301 13.4922 26.4185C14.1285 26.3165 14.9648 26.2168 15.8082 26.1504C15.8813 26.1446 15.9455 26.1984 15.9526 26.2712Z" fill="black"/>
<path fill-rule="evenodd" clip-rule="evenodd" d="M20.7896 26.3742C20.7962 26.3004 20.8616 26.2459 20.9356 26.2525C21.1241 26.2694 21.2658 26.2795 21.3974 26.2889C21.641 26.3063 21.8501 26.3212 22.2575 26.372C22.3312 26.3812 22.3835 26.4484 22.3743 26.5219C22.3651 26.5955 22.2979 26.6477 22.2242 26.6385C21.823 26.5885 21.6244 26.5743 21.3858 26.5574C21.2537 26.548 21.1094 26.5377 20.9115 26.52C20.8376 26.5134 20.783 26.4481 20.7896 26.3742Z" fill="black"/>
<path fill-rule="evenodd" clip-rule="evenodd" d="M13.1683 12.7757C13.2403 12.7942 13.2835 12.8674 13.265 12.9392L11.1009 21.324C11.0824 21.3958 11.009 21.439 10.9371 21.4205C10.8652 21.402 10.8219 21.3288 10.8404 21.257L13.0045 12.8722C13.0231 12.8004 13.0964 12.7572 13.1683 12.7757ZM13.4943 15.0774C13.5663 15.0959 13.6095 15.1691 13.591 15.2409L11.2148 24.4477C11.1962 24.5195 11.1229 24.5627 11.051 24.5442C10.979 24.5257 10.9358 24.4525 10.9543 24.3807L13.3305 15.1739C13.3491 15.1021 13.4224 15.0589 13.4943 15.0774ZM13.5473 19.0231C13.6192 19.0417 13.6625 19.1149 13.6439 19.1867C13.1782 20.9912 12.7509 22.6276 12.333 24.2277L12.3069 24.3276C11.898 25.893 11.4975 27.4262 11.0781 29.0511C11.0596 29.1229 10.9863 29.1661 10.9143 29.1476C10.8424 29.1291 10.7991 29.0559 10.8177 28.9841C11.2371 27.3588 11.6377 25.8254 12.0465 24.2602L12.0727 24.1599C12.4906 22.5598 12.9178 20.9237 13.3835 19.1197C13.402 19.0479 13.4753 19.0046 13.5473 19.0231ZM9.59734 34.4779C9.66899 34.4974 9.71119 34.5713 9.69161 34.6428L8.7014 38.2598C8.68181 38.3313 8.60785 38.3734 8.5362 38.3539C8.46455 38.3343 8.42235 38.2605 8.44193 38.1889L9.43214 34.572C9.45173 34.5005 9.52569 34.4583 9.59734 34.4779ZM8.33839 35.0541C8.41032 35.0726 8.4536 35.1458 8.43507 35.2177L7.5231 38.7511C7.50456 38.8229 7.43123 38.8661 7.3593 38.8476C7.28737 38.8291 7.24409 38.7559 7.26262 38.6841L8.17459 35.1506C8.19313 35.0788 8.26646 35.0356 8.33839 35.0541ZM7.41833 35.0541C7.49025 35.0726 7.53354 35.1458 7.515 35.2177L6.60303 38.7511C6.5845 38.8229 6.51116 38.8661 6.43923 38.8476C6.3673 38.8291 6.32402 38.7559 6.34256 38.6841L7.25453 35.1506C7.27306 35.0788 7.3464 35.0356 7.41833 35.0541ZM5.6812 41.7846C5.75313 41.8031 5.79641 41.8764 5.77787 41.9482L4.60868 46.4782C4.59015 46.55 4.51681 46.5932 4.44488 46.5747C4.37296 46.5562 4.32967 46.483 4.34821 46.4112L5.5174 41.8812C5.53593 41.8093 5.60927 41.7661 5.6812 41.7846ZM6.50636 42.1523C6.57829 42.1709 6.62157 42.2441 6.60303 42.3159L5.52875 46.4782C5.51022 46.55 5.43688 46.5932 5.36495 46.5747C5.29302 46.5562 5.24974 46.483 5.26828 46.4112L6.34256 42.2489C6.36109 42.1771 6.43443 42.1338 6.50636 42.1523ZM7.42642 42.6616C7.49835 42.6801 7.54163 42.7533 7.5231 42.8252L6.45296 46.9714C6.43442 47.0432 6.36109 47.0865 6.28916 47.0679C6.21723 47.0494 6.17395 46.9762 6.19248 46.9044L7.26262 42.7581C7.28116 42.6863 7.3545 42.6431 7.42642 42.6616Z" fill="black"/>
<path d="M3.63379 41.3477C3.43681 42.1109 3.25931 42.7827 3.08305 43.45L2.55705 45.4579C2.74232 44.74 2.9121 44.0972 3.08305 43.45L3.63379 41.3477Z" fill="#22222A"/>
<path fill-rule="evenodd" clip-rule="evenodd" d="M11.9175 13.269C11.9894 13.2875 12.0327 13.3607 12.0142 13.4325L10.9627 17.5066C10.9441 17.5784 10.8708 17.6216 10.7989 17.6031C10.7269 17.5846 10.6837 17.5114 10.7022 17.4396L11.7537 13.3655C11.7722 13.2937 11.8456 13.2505 11.9175 13.269ZM4.42966 34.6418C4.50159 34.6604 4.54487 34.7336 4.52633 34.8054L3.60034 38.3932C3.58181 38.465 3.50847 38.5082 3.43654 38.4897C3.36461 38.4712 3.32133 38.398 3.33987 38.3261L4.26586 34.7384C4.28439 34.6666 4.35773 34.6233 4.42966 34.6418ZM6.27393 35.1351C6.34586 35.1536 6.38914 35.2268 6.37061 35.2986L5.3191 39.3727C5.30056 39.4445 5.22723 39.4877 5.1553 39.4692C5.08337 39.4507 5.04009 39.3775 5.05863 39.3057L6.11013 35.2316C6.12867 35.1598 6.202 35.1166 6.27393 35.1351ZM5.22243 35.1351C5.29435 35.1536 5.33764 35.2268 5.3191 35.2986L4.30071 39.2444C4.28218 39.3162 4.20884 39.3594 4.13691 39.3409C4.06498 39.3224 4.0217 39.2492 4.04024 39.1773L5.05863 35.2316C5.07716 35.1598 5.1505 35.1166 5.22243 35.1351ZM2.81721 40.8893C2.88914 40.9078 2.93242 40.981 2.91388 41.0528L2.27739 43.5189C2.25885 43.5908 2.18552 43.634 2.11359 43.6155C2.04166 43.597 1.99838 43.5237 2.01691 43.4519L2.65341 40.9858C2.67194 40.914 2.74528 40.8708 2.81721 40.8893ZM3.66856 41.2182C3.74036 41.2368 3.78351 41.3099 3.765 41.3817C3.5694 42.1395 3.393 42.8073 3.21806 43.4696L3.21413 43.4845L3.21406 43.4847L2.68826 45.4918L2.68814 45.4923C2.66937 45.564 2.59603 45.6069 2.52422 45.5883C2.45242 45.5697 2.40927 45.4965 2.42779 45.4248C2.61315 44.7066 2.78301 44.0634 2.95394 43.4164C2.95395 43.4163 2.95396 43.4163 2.95397 43.4162L3.50453 41.3146L3.50465 41.3142C3.52342 41.2425 3.59676 41.1996 3.66856 41.2182ZM4.57661 41.7113C4.64854 41.7298 4.69183 41.8031 4.67329 41.8749L3.60034 46.032C3.5818 46.1038 3.50847 46.1471 3.43654 46.1286C3.36461 46.11 3.32133 46.0368 3.33987 45.965L4.41281 41.8079C4.43135 41.736 4.50469 41.6928 4.57661 41.7113Z" fill="black"/>
<path fill-rule="evenodd" clip-rule="evenodd" d="M2.84215 33.4905C2.91408 33.509 2.95736 33.5823 2.93883 33.6541L2.47206 35.4626C2.45353 35.5344 2.38019 35.5776 2.30827 35.5591C2.23634 35.5406 2.19305 35.4674 2.21159 35.3955L2.67835 33.5871C2.69689 33.5153 2.77022 33.472 2.84215 33.4905ZM3.72393 34.1482C3.79585 34.1667 3.83914 34.2399 3.8206 34.3117L2.93883 37.7282C2.92029 37.8 2.84695 37.8432 2.77503 37.8247C2.7031 37.8062 2.65982 37.7329 2.67835 37.6611L3.56013 34.2447C3.57866 34.1729 3.652 34.1297 3.72393 34.1482Z" fill="black"/>
<path fill-rule="evenodd" clip-rule="evenodd" d="M18.7456 9.81586C18.8176 9.83437 18.8608 9.90759 18.8423 9.97941L18.4604 11.4591C18.4419 11.5309 18.3685 11.5741 18.2966 11.5556C18.2247 11.5371 18.1814 11.4639 18.1999 11.392L18.5818 9.91239C18.6004 9.84057 18.6737 9.79735 18.7456 9.81586ZM13.5067 22.4752C13.5787 22.4937 13.6219 22.5669 13.6034 22.6387L11.3545 31.3523C11.3359 31.4241 11.2626 31.4673 11.1907 31.4488C11.1187 31.4303 11.0754 31.3571 11.094 31.2853L13.3429 22.5717C13.3615 22.4999 13.4348 22.4567 13.5067 22.4752ZM13.5067 26.04C13.5787 26.0585 13.6219 26.1317 13.6034 26.2035L12.2745 31.3523C12.256 31.4241 12.1827 31.4673 12.1107 31.4488C12.0388 31.4303 11.9955 31.3571 12.0141 31.2853L13.3429 26.1365C13.3615 26.0647 13.4348 26.0215 13.5067 26.04ZM13.6537 29.5447C13.7256 29.5632 13.7689 29.6364 13.7504 29.7082L13.3824 31.1338C13.3639 31.2056 13.2906 31.2488 13.2186 31.2303C13.1467 31.2118 13.1034 31.1386 13.122 31.0667L13.4899 29.6412C13.5084 29.5694 13.5818 29.5262 13.6537 29.5447ZM12.5929 33.6548C12.6648 33.6733 12.7081 33.7466 12.6895 33.8184L11.8409 37.1065C11.8223 37.1783 11.749 37.2215 11.6771 37.203C11.6052 37.1845 11.5619 37.1113 11.5804 37.0395L12.4291 33.7514C12.4476 33.6795 12.5209 33.6363 12.5929 33.6548ZM11.4784 33.8988C11.5503 33.9173 11.5936 33.9905 11.5751 34.0623L10.6196 37.7641C10.6011 37.836 10.5278 37.8792 10.4558 37.8607C10.3839 37.8422 10.3406 37.7689 10.3592 37.6971L11.3146 33.9953C11.3331 33.9235 11.4065 33.8803 11.4784 33.8988ZM10.4516 34.3125C10.5235 34.331 10.5668 34.4042 10.5482 34.476L9.69958 37.7641C9.68104 37.836 9.6077 37.8792 9.53578 37.8607C9.46385 37.8422 9.42057 37.7689 9.4391 37.6971L10.2878 34.409C10.3063 34.3372 10.3796 34.2939 10.4516 34.3125ZM9.24998 42.5328C9.32191 42.5513 9.36519 42.6245 9.34666 42.6963C9.12617 43.5506 8.95002 44.2576 8.77522 44.9591L8.76361 45.0057C8.58499 45.7225 8.40678 46.437 8.18327 47.2998C8.16467 47.3716 8.0913 47.4148 8.01939 47.3962C7.94748 47.3777 7.90426 47.3044 7.92286 47.2326C8.14603 46.3711 8.32397 45.6577 8.50259 44.9408L8.51426 44.894C8.68903 44.1926 8.86541 43.4847 9.08618 42.6293C9.10472 42.5575 9.17805 42.5143 9.24998 42.5328ZM10.2166 42.8616C10.2885 42.8801 10.3318 42.9533 10.3133 43.0251C10.0885 43.896 9.84999 44.8005 9.61533 45.6902C9.4257 46.4093 9.23859 47.1188 9.06332 47.7932C9.04466 47.8649 8.97125 47.908 8.89935 47.8894C8.82746 47.8708 8.7843 47.7975 8.80296 47.7257C8.97897 47.0484 9.16614 46.3388 9.35569 45.6201C9.58995 44.7318 9.82785 43.8298 10.0528 42.9581C10.0714 42.8863 10.1447 42.8431 10.2166 42.8616ZM8.32992 42.5328C8.40184 42.5513 8.44513 42.6245 8.42659 42.6963L7.23847 47.2997C7.21993 47.3715 7.1466 47.4148 7.07467 47.3962C7.00274 47.3777 6.95946 47.3045 6.97799 47.2327L8.16612 42.6293C8.18465 42.5575 8.25799 42.5143 8.32992 42.5328Z" fill="black"/>
<path fill-rule="evenodd" clip-rule="evenodd" d="M20.4989 9.48695C20.5708 9.50546 20.6141 9.57868 20.5955 9.6505L18.5163 17.7064C18.4978 17.7782 18.4245 17.8215 18.3525 17.803C18.2806 17.7844 18.2373 17.7112 18.2559 17.6394L20.3351 9.58348C20.3536 9.51166 20.4269 9.46845 20.4989 9.48695ZM19.5788 9.48695C19.6507 9.50546 19.694 9.57868 19.6755 9.6505L18.4193 14.5177C18.4007 14.5895 18.3274 14.6327 18.2555 14.6142C18.1835 14.5957 18.1403 14.5225 18.1588 14.4507L19.415 9.58348C19.4335 9.51166 19.5069 9.46845 19.5788 9.48695ZM20.9139 11.9531C20.9858 11.9716 21.0291 12.0448 21.0106 12.1166L18.4193 22.1566C18.4007 22.2284 18.3274 22.2716 18.2555 22.2531C18.1835 22.2346 18.1403 22.1614 18.1588 22.0895L20.7501 12.0496C20.7686 11.9778 20.8419 11.9345 20.9139 11.9531ZM15.6098 32.5039C15.6817 32.5224 15.725 32.5956 15.7064 32.6674L14.9002 35.7912C14.8817 35.863 14.8083 35.9062 14.7364 35.8877C14.6645 35.8692 14.6212 35.796 14.6397 35.7241L15.446 32.6004C15.4645 32.5286 15.5378 32.4854 15.6098 32.5039ZM14.431 32.9971C14.5029 33.0156 14.5462 33.0888 14.5276 33.1607L13.7214 36.2844C13.7029 36.3562 13.6295 36.3994 13.5576 36.3809C13.4857 36.3624 13.4424 36.2892 13.4609 36.2174L14.2672 33.0936C14.2857 33.0218 14.359 32.9786 14.431 32.9971ZM13.426 33.3259C13.498 33.3444 13.5412 33.4176 13.5227 33.4895L12.6741 36.7776C12.6555 36.8494 12.5822 36.8926 12.5103 36.8741C12.4383 36.8556 12.395 36.7824 12.4136 36.7106L13.2622 33.4224C13.2808 33.3506 13.3541 33.3074 13.426 33.3259ZM11.8001 43.1903C11.8721 43.2088 11.9153 43.282 11.8968 43.3539L10.6238 48.2861C10.6053 48.3579 10.5319 48.4011 10.46 48.3826C10.3881 48.3641 10.3448 48.2909 10.3633 48.219L11.6363 43.2868C11.6549 43.215 11.7282 43.1718 11.8001 43.1903ZM12.7668 43.5191C12.8387 43.5376 12.882 43.6109 12.8634 43.6827C12.6492 44.5129 12.4242 45.3837 12.2026 46.2413C12.0217 46.9414 11.8431 47.6328 11.6745 48.2861C11.6559 48.3579 11.5826 48.4011 11.5106 48.3826C11.4387 48.3641 11.3954 48.2908 11.414 48.219C11.5827 47.5656 11.7613 46.8742 11.9422 46.1741C12.1637 45.3166 12.3887 44.4459 12.603 43.6157C12.6215 43.5438 12.6948 43.5006 12.7668 43.5191ZM10.8801 43.1903C10.952 43.2088 10.9953 43.282 10.9767 43.3539L9.78862 47.9572C9.77008 48.0291 9.69675 48.0723 9.62482 48.0538C9.55289 48.0353 9.50961 47.962 9.52814 47.8902L10.7163 43.2868C10.7348 43.215 10.8081 43.1718 10.8801 43.1903Z" fill="black"/>
<path fill-rule="evenodd" clip-rule="evenodd" d="M22.8392 8.66535C22.9111 8.68385 22.9544 8.75708 22.9359 8.8289L22.4267 10.8018C22.4082 10.8736 22.3348 10.9168 22.2629 10.8983C22.191 10.8798 22.1477 10.8066 22.1662 10.7348L22.6754 8.76187C22.694 8.69006 22.7673 8.64684 22.8392 8.66535ZM23.6744 8.99416C23.7464 9.01267 23.7896 9.08589 23.7711 9.15771L22.4267 14.3666C22.4082 14.4384 22.3348 14.4816 22.2629 14.4631C22.191 14.4446 22.1477 14.3714 22.1662 14.2996L23.5106 9.09069C23.5292 9.01887 23.6025 8.97565 23.6744 8.99416ZM23.6744 13.0682C23.7464 13.0867 23.7896 13.16 23.7711 13.2318L22.4267 18.4406C22.4082 18.5125 22.3348 18.5557 22.2629 18.5372C22.191 18.5187 22.1477 18.4454 22.1662 18.3736L23.5106 13.1647C23.5292 13.0929 23.6025 13.0497 23.6744 13.0682ZM20.8024 16.5569C20.8744 16.5754 20.9177 16.6486 20.8991 16.7204L18.3956 26.4204C18.377 26.4922 18.3037 26.5354 18.2318 26.5169C18.1598 26.4984 18.1166 26.4252 18.1351 26.3534L20.6386 16.6534C20.6572 16.5816 20.7305 16.5384 20.8024 16.5569ZM20.9587 19.5162C21.0306 19.5347 21.0739 19.6079 21.0554 19.6797L18.3956 29.9852C18.377 30.057 18.3037 30.1002 18.2318 30.0817C18.1598 30.0632 18.1166 29.99 18.1351 29.9182L20.7949 19.6127C20.8135 19.5409 20.8868 19.4977 20.9587 19.5162ZM20.9587 23.5902C21.0306 23.6088 21.0739 23.682 21.0554 23.7538L19.4471 29.9852C19.4285 30.057 19.3552 30.1002 19.2833 30.0817C19.2114 30.0632 19.1681 29.99 19.1866 29.9182L20.7949 23.6868C20.8135 23.615 20.8868 23.5717 20.9587 23.5902ZM18.8278 31.8467C18.8997 31.8652 18.943 31.9384 18.9244 32.0102L17.9909 35.6272C17.9724 35.699 17.899 35.7422 17.8271 35.7237C17.7552 35.7052 17.7119 35.632 17.7304 35.5602L18.664 31.9432C18.6825 31.8714 18.7558 31.8282 18.8278 31.8467ZM17.7762 31.8467C17.8482 31.8652 17.8915 31.9384 17.8729 32.0102L16.7697 36.2848C16.7511 36.3566 16.6778 36.3998 16.6059 36.3813C16.5339 36.3628 16.4907 36.2896 16.5092 36.2178L17.6124 31.9432C17.631 31.8714 17.7043 31.8282 17.7762 31.8467ZM16.7713 32.1755C16.8432 32.194 16.8865 32.2672 16.868 32.339L15.9345 35.956C15.9159 36.0278 15.8426 36.071 15.7707 36.0525C15.6987 36.034 15.6555 35.9608 15.674 35.889L16.6075 32.272C16.6261 32.2002 16.6994 32.157 16.7713 32.1755ZM15.815 43.5196C15.8869 43.5381 15.9302 43.6113 15.9117 43.6831L14.5963 48.7797C14.5777 48.8515 14.5044 48.8947 14.4325 48.8762C14.3605 48.8577 14.3173 48.7845 14.3358 48.7127L15.6512 43.6161C15.6698 43.5443 15.7431 43.501 15.815 43.5196ZM14.7635 43.5196C14.8354 43.5381 14.8787 43.6113 14.8602 43.6831L13.6296 48.4509C13.6111 48.5227 13.5378 48.5659 13.4658 48.5474C13.3939 48.5289 13.3506 48.4557 13.3692 48.3839L14.5997 43.6161C14.6182 43.5443 14.6916 43.501 14.7635 43.5196ZM13.8434 43.5196C13.9154 43.5381 13.9587 43.6113 13.9401 43.6831L12.7096 48.4509C12.691 48.5227 12.6177 48.5659 12.5458 48.5474C12.4738 48.5289 12.4306 48.4557 12.4491 48.3839L13.6796 43.6161C13.6982 43.5443 13.7715 43.501 13.8434 43.5196Z" fill="black"/>
<path fill-rule="evenodd" clip-rule="evenodd" d="M23.682 16.5569C23.7539 16.5755 23.7972 16.6487 23.7787 16.7205L22.2935 22.4747C22.275 22.5465 22.2016 22.5898 22.1297 22.5713C22.0578 22.5527 22.0145 22.4795 22.033 22.4077L23.5182 16.6535C23.5367 16.5817 23.6101 16.5384 23.682 16.5569ZM23.7958 19.6807C23.8678 19.6992 23.911 19.7724 23.8925 19.8442L22.3649 25.7629C22.3464 25.8347 22.2731 25.8779 22.2011 25.8594C22.1292 25.8409 22.0859 25.7677 22.1045 25.6958L23.632 19.7772C23.6506 19.7054 23.7239 19.6622 23.7958 19.6807ZM23.7958 23.7547C23.8678 23.7732 23.911 23.8465 23.8925 23.9183L22.3649 29.8369C22.3464 29.9087 22.2731 29.952 22.2011 29.9334C22.1292 29.9149 22.0859 29.8417 22.1045 29.7699L23.632 23.8513C23.6506 23.7794 23.7239 23.7362 23.7958 23.7547ZM20.9239 27.2434C20.9958 27.2619 21.0391 27.3351 21.0205 27.4069L20.384 29.873C20.3655 29.9448 20.2922 29.9881 20.2202 29.9695C20.1483 29.951 20.105 29.8778 20.1236 29.806L20.7601 27.3399C20.7786 27.2681 20.8519 27.2249 20.9239 27.2434ZM19.4811 32.8332C19.5531 32.8517 19.5963 32.9249 19.5778 32.9967L18.8565 35.7917C18.8379 35.8635 18.7646 35.9067 18.6927 35.8882C18.6207 35.8697 18.5774 35.7965 18.596 35.7246L19.3173 32.9297C19.3359 32.8579 19.4092 32.8147 19.4811 32.8332ZM20.2874 33.2743C20.3593 33.2928 20.4026 33.366 20.384 33.4378L19.5778 36.5616C19.5593 36.6334 19.4859 36.6766 19.414 36.6581C19.3421 36.6396 19.2988 36.5663 19.3173 36.4945L20.1236 33.3708C20.1421 33.299 20.2154 33.2558 20.2874 33.2743ZM21.0708 34.3129C21.1427 34.3314 21.186 34.4046 21.1675 34.4764L20.384 37.5119C20.3655 37.5837 20.2922 37.6269 20.2202 37.6084C20.1483 37.5899 20.105 37.5167 20.1236 37.4449L20.907 34.4094C20.9255 34.3376 20.9989 34.2943 21.0708 34.3129ZM18.6521 43.684C18.7241 43.7025 18.7673 43.7758 18.7488 43.8476L17.5607 48.451C17.5422 48.5228 17.4688 48.566 17.3969 48.5475C17.325 48.529 17.2817 48.4558 17.3002 48.3839L18.4883 43.7806C18.5069 43.7087 18.5802 43.6655 18.6521 43.684ZM17.6006 43.684C17.6726 43.7025 17.7158 43.7758 17.6973 43.8476L16.4243 48.7798C16.4058 48.8516 16.3324 48.8948 16.2605 48.8763C16.1886 48.8578 16.1453 48.7846 16.1638 48.7128L17.4368 43.7806C17.4554 43.7087 17.5287 43.6655 17.6006 43.684ZM16.6806 43.684C16.7525 43.7025 16.7958 43.7758 16.7772 43.8476L15.5891 48.451C15.5706 48.5228 15.4972 48.566 15.4253 48.5475C15.3534 48.529 15.3101 48.4558 15.3286 48.3839L16.5168 43.7806C16.5353 43.7087 16.6086 43.6655 16.6806 43.684Z" fill="black"/>
<path fill-rule="evenodd" clip-rule="evenodd" d="M23.7562 28.0804C23.8281 28.0989 23.8714 28.1721 23.8529 28.2439L22.8809 32.0098C22.8624 32.0817 22.789 32.1249 22.7171 32.1064C22.6452 32.0879 22.6019 32.0146 22.6204 31.9428L23.5924 28.1769C23.611 28.1051 23.6843 28.0619 23.7562 28.0804ZM23.8316 31.3531C23.9035 31.3716 23.9468 31.4448 23.9283 31.5166L23.6313 32.6675C23.6127 32.7393 23.5394 32.7825 23.4675 32.764C23.3955 32.7455 23.3522 32.6723 23.3708 32.6004L23.6678 31.4496C23.6863 31.3778 23.7597 31.3346 23.8316 31.3531ZM21.8507 35.4632C21.9226 35.4817 21.9659 35.555 21.9474 35.6268L21.1412 38.7505C21.1226 38.8223 21.0493 38.8655 20.9774 38.847C20.9054 38.8285 20.8622 38.7553 20.8807 38.6835L21.6869 35.5598C21.7055 35.4879 21.7788 35.4447 21.8507 35.4632ZM22.5586 36.2853C22.6306 36.3038 22.6738 36.377 22.6553 36.4488L21.8491 39.5725C21.8305 39.6444 21.7572 39.6876 21.6853 39.6691C21.6133 39.6506 21.5701 39.5773 21.5886 39.5055L22.3948 36.3818C22.4134 36.31 22.4867 36.2668 22.5586 36.2853ZM23.4828 36.7785C23.5548 36.797 23.598 36.8702 23.5795 36.942L22.6035 40.7234C22.585 40.7952 22.5117 40.8384 22.4397 40.8199C22.3678 40.8014 22.3245 40.7282 22.3431 40.6564L23.319 36.875C23.3376 36.8032 23.4109 36.76 23.4828 36.7785ZM20.6491 43.6836C20.7211 43.7021 20.7644 43.7753 20.7458 43.8471L19.5577 48.4505C19.5392 48.5223 19.4658 48.5655 19.3939 48.547C19.322 48.5285 19.2787 48.4553 19.2972 48.3835L20.4853 43.7801C20.5039 43.7083 20.5772 43.6651 20.6491 43.6836ZM19.7291 43.6836C19.801 43.7021 19.8443 43.7753 19.8258 43.8471L18.6376 48.4505C18.6191 48.5223 18.5458 48.5655 18.4738 48.547C18.4019 48.5285 18.3586 48.4553 18.3772 48.3835L19.5653 43.7801C19.5838 43.7083 19.6571 43.6651 19.7291 43.6836ZM21.149 45.8208C21.2209 45.8394 21.2642 45.9126 21.2457 45.9844L20.6941 48.1217C20.6755 48.1935 20.6022 48.2367 20.5303 48.2182C20.4583 48.1997 20.4151 48.1265 20.4336 48.0547L20.9852 45.9174C21.0038 45.8456 21.0771 45.8023 21.149 45.8208Z" fill="black"/>
<path fill-rule="evenodd" clip-rule="evenodd" d="M26.3941 37.2719C26.466 37.2904 26.5093 37.3636 26.4907 37.4355L25.2602 42.2033C25.2417 42.2751 25.1683 42.3183 25.0964 42.2998C25.0245 42.2813 24.9812 42.2081 24.9997 42.1362L26.2303 37.3684C26.2488 37.2966 26.3221 37.2534 26.3941 37.2719ZM25.3426 37.2719C25.4145 37.2904 25.4578 37.3636 25.4392 37.4355L24.2087 42.2033C24.1901 42.2751 24.1168 42.3183 24.0449 42.2998C23.973 42.2813 23.9297 42.2081 23.9482 42.1362L25.1788 37.3684C25.1973 37.2966 25.2706 37.2534 25.3426 37.2719ZM24.4225 37.2719C24.4944 37.2904 24.5377 37.3636 24.5192 37.4355L24.01 39.4083C23.9914 39.4802 23.9181 39.5234 23.8462 39.5049C23.7742 39.4864 23.731 39.4131 23.7495 39.3413L24.2587 37.3684C24.2772 37.2966 24.3506 37.2534 24.4225 37.2719Z" fill="black"/>
<path fill-rule="evenodd" clip-rule="evenodd" d="M29.6841 36.3383C29.756 36.3568 29.7993 36.4301 29.7808 36.5019L28.5213 41.3818C28.5028 41.4536 28.4294 41.4968 28.3575 41.4783C28.2856 41.4598 28.2423 41.3866 28.2608 41.3147L29.5203 36.4348C29.5388 36.363 29.6122 36.3198 29.6841 36.3383ZM28.4636 36.9931C28.5355 37.0116 28.5788 37.0848 28.5603 37.1566L27.3425 41.875C27.324 41.9468 27.2506 41.99 27.1787 41.9715C27.1068 41.953 27.0635 41.8798 27.082 41.808L28.2998 37.0896C28.3183 37.0178 28.3917 36.9746 28.4636 36.9931ZM27.5435 36.9931C27.6155 37.0116 27.6588 37.0848 27.6402 37.1566L26.4224 41.875C26.4039 41.9468 26.3306 41.99 26.2586 41.9715C26.1867 41.953 26.1434 41.8798 26.162 41.808L27.3797 37.0896C27.3983 37.0178 27.4716 36.9746 27.5435 36.9931Z" fill="black"/>
<path fill-rule="evenodd" clip-rule="evenodd" d="M33.3726 34.477C33.4445 34.4955 33.4878 34.5687 33.4693 34.6405L32.1538 39.7372C32.1353 39.809 32.062 39.8522 31.99 39.8337C31.9181 39.8152 31.8748 39.7419 31.8934 39.6701L33.2088 34.5735C33.2273 34.5017 33.3007 34.4585 33.3726 34.477ZM32.1089 35.299C32.1808 35.3175 32.2241 35.3908 32.2056 35.4626L30.9326 40.3948C30.9141 40.4666 30.8407 40.5098 30.7688 40.4913C30.6969 40.4728 30.6536 40.3996 30.6721 40.3278L31.9451 35.3956C31.9637 35.3237 32.037 35.2805 32.1089 35.299ZM31.0615 35.7922C31.1335 35.8108 31.1768 35.884 31.1582 35.9558L29.8852 40.888C29.8667 40.9598 29.7934 41.003 29.7214 40.9845C29.6495 40.966 29.6062 40.8928 29.6248 40.821L30.8978 35.8888C30.9163 35.817 30.9896 35.7737 31.0615 35.7922Z" fill="black"/>
<path fill-rule="evenodd" clip-rule="evenodd" d="M34.9535 32.1986C35.0254 32.2171 35.0687 32.2903 35.0502 32.3621L33.3587 38.9157C33.3401 38.9876 33.2668 39.0308 33.1949 39.0123C33.1229 38.9938 33.0797 38.9205 33.0982 38.8487L34.7897 32.2951C34.8082 32.2233 34.8816 32.18 34.9535 32.1986ZM34.9535 35.7634C35.0254 35.7819 35.0687 35.8551 35.0502 35.9269L34.6182 37.6005C34.5997 37.6723 34.5263 37.7155 34.4544 37.697C34.3825 37.6785 34.3392 37.6053 34.3577 37.5335L34.7897 35.8599C34.8082 35.7881 34.8816 35.7448 34.9535 35.7634Z" fill="black"/>
<path d="M31.9643 14.7041C30.6273 14.7041 29.7916 17.7079 29.2902 19.2097C28.7888 20.7116 28.2976 21.7559 30.6273 21.7128C32.353 21.6698 36.6821 22.3163 35.4741 20.3778C34.5681 18.9132 33.1342 14.7041 31.9643 14.7041Z" fill="#EF9790"/>
<path fill-rule="evenodd" clip-rule="evenodd" d="M30.9526 15.1077C31.239 14.789 31.5754 14.5703 31.964 14.5703C32.1513 14.5703 32.3301 14.6543 32.4958 14.782C32.6621 14.9103 32.8259 15.0909 32.9862 15.3047C33.3069 15.7322 33.6285 16.3131 33.9382 16.9322C34.1789 17.4134 34.4148 17.9227 34.6389 18.4065C34.7035 18.546 34.7671 18.6833 34.8296 18.8172C35.1103 19.4191 35.3666 19.9495 35.5882 20.3078L35.4738 20.3783L35.588 20.3074C35.7461 20.5612 35.825 20.79 35.8175 20.9954C35.8098 21.2076 35.7105 21.376 35.5534 21.503C35.4006 21.6266 35.1934 21.7115 34.9595 21.7713C34.7241 21.8315 34.4517 21.8687 34.1606 21.8905C33.5787 21.9342 32.9067 21.9176 32.277 21.8934C32.1444 21.8882 32.0138 21.8828 31.8863 21.8775C31.4045 21.8574 30.967 21.8392 30.6304 21.8476L30.6295 21.8476C30.0407 21.8585 29.6121 21.8016 29.3124 21.6753C29.0039 21.5453 28.8298 21.3402 28.7659 21.0722C28.7051 20.817 28.7482 20.52 28.8295 20.2073C28.8931 19.9626 28.9844 19.6936 29.0801 19.4114C29.1073 19.3312 29.1349 19.2499 29.1623 19.1678L29.2893 19.21L29.1623 19.1678C29.2087 19.0288 29.2582 18.8762 29.3109 18.7136C29.5406 18.0052 29.8314 17.1084 30.1917 16.3374C30.4134 15.8632 30.6655 15.4271 30.9526 15.1077ZM29.5691 18.7895C29.5157 18.9542 29.4652 19.1098 29.4175 19.2527C29.3889 19.3385 29.3605 19.4222 29.3328 19.5039C29.2377 19.7841 29.1508 20.0404 29.0899 20.2747C29.0108 20.5789 28.9828 20.8219 29.0276 21.01C29.0695 21.1855 29.1781 21.3272 29.417 21.4279C29.6647 21.5322 30.0482 21.5897 30.6241 21.5791C30.9706 21.5705 31.4203 21.5892 31.9033 21.6094C32.0295 21.6146 32.158 21.62 32.2874 21.625C32.9171 21.6492 33.5754 21.6651 34.1405 21.6227C34.4229 21.6015 34.6782 21.566 34.8928 21.5112C35.1089 21.4559 35.274 21.3834 35.3841 21.2943C35.49 21.2087 35.5442 21.1092 35.5487 20.9856C35.5535 20.8551 35.5034 20.6801 35.3596 20.4493L35.3594 20.4489C35.128 20.0749 34.8653 19.5299 34.5858 18.9306C34.5226 18.7953 34.4586 18.657 34.3937 18.5169C34.1698 18.0337 33.9363 17.5294 33.6976 17.0522C33.3893 16.436 33.0765 15.8731 32.7709 15.4657C32.6181 15.2619 32.4709 15.1023 32.3314 14.9946C32.1912 14.8865 32.0693 14.8389 31.964 14.8389C31.6841 14.8389 31.4147 14.9957 31.1527 15.2871C30.8914 15.5778 30.6526 15.9865 30.4355 16.451C30.083 17.2051 29.7989 18.0812 29.5691 18.7895Z" fill="black"/>
<path d="M31.5 15.7793C31.7589 16.727 31.6294 17.7178 32.0177 18.6655C32.1472 18.967 32.104 18.5793 32.104 18.4932C32.104 17.9332 32.104 17.3732 32.0177 16.8131C31.9746 16.5978 31.8451 16.167 31.9314 15.9516C31.9746 15.8655 32.406 16.5978 32.406 16.6408C32.6649 17.2439 32.7512 18.0193 32.5354 18.6224" fill="#EF9790"/>
<path fill-rule="evenodd" clip-rule="evenodd" d="M31.4644 15.6503C31.536 15.6308 31.61 15.6729 31.6295 15.7445C31.7439 16.1633 31.7846 16.5908 31.8242 17.0061C31.8307 17.0743 31.8372 17.1421 31.8439 17.2096C31.8725 17.495 31.9063 17.7752 31.9677 18.0504C31.9633 17.6424 31.9468 17.2393 31.885 16.8371C31.8787 16.806 31.8693 16.7651 31.8586 16.7185C31.8373 16.6259 31.8108 16.5107 31.7931 16.405C31.7791 16.3206 31.7685 16.2323 31.7677 16.1486C31.767 16.0663 31.7755 15.9792 31.8063 15.9023C31.8077 15.8988 31.8092 15.8954 31.8109 15.8921C31.8216 15.8707 31.8406 15.8457 31.8717 15.8287C31.903 15.8115 31.9346 15.809 31.9592 15.8118C32.0012 15.8167 32.0318 15.8382 32.0444 15.8476C32.0746 15.8701 32.1038 15.903 32.128 15.9328C32.1795 15.9962 32.2408 16.0862 32.2981 16.1762C32.3561 16.2671 32.4127 16.3622 32.4551 16.4378C32.4762 16.4755 32.4944 16.5095 32.5077 16.5363C32.5142 16.5495 32.5204 16.5627 32.5253 16.5746C32.5277 16.5804 32.5306 16.5878 32.5331 16.5958L32.5331 16.5961C32.5334 16.597 32.5338 16.5983 32.5343 16.6001C32.799 17.2239 32.8904 18.0291 32.6619 18.6681C32.6369 18.7379 32.5599 18.7743 32.49 18.7494C32.42 18.7244 32.3836 18.6476 32.4085 18.5778C32.61 18.0146 32.5314 17.275 32.2822 16.6943C32.2793 16.6875 32.2769 16.6806 32.2752 16.6735C32.2735 16.6696 32.2707 16.6636 32.2666 16.6554C32.2561 16.6343 32.2403 16.6047 32.2203 16.569C32.1805 16.4979 32.1265 16.4071 32.0712 16.3204C32.0631 16.3076 32.055 16.295 32.0469 16.2827C32.0501 16.3081 32.054 16.3342 32.0585 16.3608C32.0753 16.4618 32.0968 16.5544 32.1166 16.6397C32.1286 16.6915 32.14 16.7407 32.1494 16.7873L32.1505 16.7932L32.1504 16.7933C32.2383 17.3634 32.2383 17.932 32.2383 18.4888V18.4937C32.2383 18.5046 32.2391 18.5213 32.2404 18.5443C32.2411 18.5582 32.242 18.5745 32.2428 18.5932C32.2448 18.6365 32.2467 18.6913 32.2433 18.7355C32.2418 18.7551 32.2384 18.7869 32.2266 18.8164C32.221 18.8304 32.2073 18.8602 32.1764 18.8838C32.137 18.9138 32.0872 18.9205 32.043 18.9058C32.0082 18.8942 31.9857 18.8724 31.9749 18.8607C31.9623 18.8472 31.9521 18.8325 31.944 18.8194C31.9276 18.793 31.9111 18.759 31.8939 18.7189L31.893 18.7169L31.893 18.7168C31.691 18.2237 31.6249 17.7224 31.5763 17.2363C31.5693 17.1665 31.5626 17.0972 31.5561 17.0282C31.5162 16.6118 31.4778 16.2099 31.37 15.8152C31.3505 15.7436 31.3927 15.6698 31.4644 15.6503Z" fill="black"/>
<path d="M32.3198 19.8715C32.2336 20.5608 33.0533 20.5608 33.0533 20.0008C33.0533 19.57 32.4493 19.7423 32.4061 19.9577C32.363 20.3454 33.0964 19.57 32.7944 19.6562C32.6218 19.6992 32.4061 20.0008 32.4061 19.9577" fill="#EF9790"/>
<path fill-rule="evenodd" clip-rule="evenodd" d="M32.5159 20.1947C32.5555 20.2416 32.6091 20.2666 32.6651 20.2713C32.7835 20.2811 32.9185 20.2001 32.9185 20.0013C32.9185 19.9485 32.9063 19.9207 32.8938 19.9051C32.862 19.9445 32.8259 19.9831 32.7903 20.0173C32.7514 20.0546 32.7091 20.0905 32.6668 20.1203C32.6262 20.1487 32.578 20.177 32.5283 20.1915C32.5245 20.1926 32.5204 20.1937 32.5159 20.1947ZM32.9995 19.6503C33.0121 19.6572 33.0244 19.6648 33.0363 19.6734C33.1357 19.7446 33.1875 19.8595 33.1875 20.0013C33.1875 20.3625 32.9126 20.5614 32.6427 20.5389C32.5093 20.5278 32.3784 20.4626 32.2893 20.3411C32.2 20.2195 32.1613 20.0538 32.1861 19.8554C32.1953 19.7818 32.2625 19.7296 32.3362 19.7388C32.3529 19.7409 32.3686 19.7459 32.3826 19.7534C32.4054 19.7328 32.4296 19.715 32.4531 19.7001C32.4787 19.6839 32.5063 19.6692 32.5352 19.6565C32.5496 19.6443 32.5643 19.6324 32.5794 19.621C32.6287 19.5837 32.6909 19.5445 32.7593 19.5269C32.785 19.5198 32.8164 19.5137 32.8492 19.5162C32.8845 19.5189 32.9356 19.5332 32.9709 19.5815C32.9878 19.6046 32.9961 19.6286 32.9995 19.6503Z" fill="black"/>
<path d="M12.2231 1C10.8861 0.999988 10.0504 4.00376 9.549 5.50563C9.04763 7.00751 8.55634 8.05181 10.8861 8.00873C12.6118 7.96565 16.9409 8.6122 15.7329 6.67373C14.8269 5.2091 13.393 1.00001 12.2231 1Z" fill="#EF9790"/>
<path fill-rule="evenodd" clip-rule="evenodd" d="M11.2113 1.40263C11.4978 1.08393 11.8342 0.865231 12.2228 0.865234C12.4101 0.865236 12.5889 0.949195 12.7546 1.07697C12.9209 1.20523 13.0847 1.38585 13.245 1.59959C13.5657 2.02717 13.8873 2.60803 14.197 3.22715C14.4377 3.70834 14.6736 4.2176 14.8977 4.70144C14.9623 4.84088 15.0259 4.97821 15.0884 5.11215C15.3691 5.71401 15.6254 6.24439 15.847 6.60268L15.7326 6.67324L15.8468 6.60231C16.0049 6.8561 16.0838 7.08494 16.0763 7.2903C16.0686 7.5025 15.9693 7.67088 15.8122 7.79793C15.6594 7.92153 15.4521 8.00646 15.2183 8.06626C14.9829 8.12644 14.7105 8.16359 14.4194 8.18544C13.8375 8.2291 13.1655 8.21254 12.5358 8.18827C12.4032 8.18316 12.2726 8.17772 12.1451 8.1724C11.6633 8.15232 11.2258 8.13409 10.8891 8.1425L10.8883 8.14252C10.2995 8.1534 9.87092 8.0965 9.57122 7.97024C9.26265 7.84025 9.08863 7.63512 9.02474 7.36716C8.96387 7.11189 9.00703 6.81492 9.0883 6.5022C9.1519 6.2575 9.24318 5.98847 9.3389 5.70634C9.36612 5.6261 9.3937 5.5448 9.42111 5.46269L9.54812 5.50496L9.42111 5.46269C9.46749 5.32377 9.51699 5.17112 9.5697 5.00854C9.79939 4.30014 10.0902 3.40329 10.4505 2.63234C10.6722 2.15814 10.9242 1.72204 11.2113 1.40263ZM9.8279 5.08441C9.77448 5.24909 9.724 5.40471 9.67629 5.54762C9.64766 5.6334 9.61926 5.71711 9.59156 5.79878C9.4965 6.07904 9.40956 6.33536 9.34867 6.56966C9.26962 6.8738 9.24155 7.11682 9.28641 7.30496C9.32825 7.48043 9.43689 7.62216 9.67578 7.7228C9.92347 7.82714 10.307 7.88461 10.8829 7.874C11.2294 7.86537 11.6791 7.88414 12.1621 7.90429C12.2883 7.90955 12.4167 7.91491 12.5462 7.9199C13.1759 7.94417 13.8342 7.96001 14.3993 7.91762C14.6816 7.89643 14.937 7.86094 15.1515 7.80608C15.3677 7.75081 15.5328 7.67829 15.6429 7.58923C15.7488 7.50363 15.803 7.40415 15.8075 7.28051C15.8123 7.15002 15.7622 6.97502 15.6184 6.74419L15.6181 6.74382C15.3868 6.3698 15.1241 5.82481 14.8446 5.22553C14.7814 5.09018 14.7174 4.95191 14.6525 4.81187C14.4286 4.3286 14.1951 3.82437 13.9563 3.34716C13.6481 2.73093 13.3352 2.16797 13.0297 1.76057C12.8769 1.55683 12.7297 1.39717 12.5901 1.28952C12.4499 1.18139 12.328 1.13381 12.2228 1.13381C11.9429 1.1338 11.6735 1.29058 11.4115 1.58201C11.1502 1.87274 10.9114 2.28145 10.6943 2.74592C10.3418 3.50006 10.0576 4.37608 9.8279 5.08441Z" fill="black"/>
<path d="M11.7588 2.07422C12.0176 3.02192 11.8882 4.01269 12.2765 4.96039C12.4059 5.26193 12.3628 4.87424 12.3628 4.78808C12.3628 4.22808 12.3628 3.66808 12.2765 3.10807C12.2334 2.89269 12.1039 2.46191 12.1902 2.24653C12.2334 2.16037 12.6648 2.89269 12.6648 2.93576C12.9237 3.53884 13.0099 4.31423 12.7942 4.91732" fill="#EF9790"/>
<path fill-rule="evenodd" clip-rule="evenodd" d="M11.7232 1.9452C11.7948 1.92568 11.8688 1.96787 11.8883 2.03942C12.0027 2.45824 12.0434 2.88573 12.083 3.30098C12.0895 3.36918 12.0959 3.43704 12.1027 3.50447C12.1313 3.78997 12.1651 4.07012 12.2265 4.34535C12.2221 3.93734 12.2056 3.53427 12.1438 3.13205C12.1375 3.10094 12.1281 3.06002 12.1174 3.01339C12.0961 2.9208 12.0696 2.80565 12.0519 2.69991C12.0378 2.61553 12.0273 2.52719 12.0265 2.44347C12.0258 2.36122 12.0343 2.27411 12.0651 2.19719C12.0665 2.19373 12.068 2.19033 12.0697 2.187C12.0804 2.16558 12.0994 2.14063 12.1305 2.12359C12.1618 2.10645 12.1934 2.10389 12.2179 2.10674C12.26 2.11162 12.2906 2.13317 12.3032 2.14254C12.3334 2.16503 12.3625 2.19794 12.3868 2.22771C12.4383 2.29107 12.4996 2.38113 12.5569 2.47112C12.6149 2.56206 12.6715 2.65712 12.7138 2.73273C12.7349 2.77039 12.7532 2.80439 12.7665 2.83123C12.773 2.84444 12.7792 2.85763 12.7841 2.8695C12.7865 2.87533 12.7894 2.88271 12.7918 2.8907L12.7919 2.891C12.7922 2.8919 12.7926 2.89325 12.7931 2.89498C13.0578 3.51879 13.1492 4.32399 12.9206 4.96301C12.8957 5.03286 12.8187 5.06925 12.7488 5.04431C12.6788 5.01937 12.6424 4.94252 12.6673 4.87268C12.8688 4.30951 12.7902 3.56995 12.5409 2.98919C12.5381 2.98246 12.5357 2.97553 12.534 2.96845C12.5322 2.96451 12.5295 2.95856 12.5254 2.95033C12.5149 2.92921 12.4991 2.8996 12.4791 2.86389C12.4392 2.79277 12.3853 2.70206 12.33 2.61531C12.3218 2.60255 12.3137 2.58996 12.3057 2.5776C12.3089 2.60305 12.3128 2.62917 12.3173 2.65575C12.3341 2.75674 12.3556 2.84934 12.3754 2.9346C12.3874 2.98646 12.3988 3.0356 12.4082 3.08227L12.4093 3.08816L12.4092 3.08818C12.4971 3.65834 12.4971 4.22694 12.4971 4.78374V4.78861C12.4971 4.79951 12.4979 4.81619 12.4992 4.83919C12.4999 4.85313 12.5008 4.86939 12.5016 4.8881C12.5036 4.93145 12.5055 4.9862 12.502 5.03045C12.5005 5.05006 12.4972 5.08178 12.4854 5.11132C12.4798 5.12536 12.4661 5.15514 12.4352 5.1787C12.3958 5.20873 12.3459 5.21541 12.3018 5.20072C12.267 5.18914 12.2445 5.16736 12.2336 5.15565C12.2211 5.14211 12.2109 5.1274 12.2028 5.11427C12.1864 5.08789 12.1699 5.05395 12.1527 5.01382L12.1518 5.01178L12.1518 5.01177C11.9497 4.51863 11.8837 4.01728 11.8351 3.5312C11.8281 3.46142 11.8214 3.39208 11.8148 3.32313C11.775 2.90675 11.7366 2.50482 11.6288 2.11008C11.6093 2.03853 11.6515 1.96471 11.7232 1.9452Z" fill="black"/>
<path d="M12.5786 6.16646C12.4923 6.8557 13.3121 6.8557 13.3121 6.29569C13.3121 5.86492 12.7081 6.03723 12.6649 6.25262C12.6218 6.64031 13.3552 5.86492 13.0532 5.95108C12.8806 5.99415 12.6649 6.29569 12.6649 6.25262" fill="#EF9790"/>
<path fill-rule="evenodd" clip-rule="evenodd" d="M12.7747 6.48965C12.8143 6.53655 12.8679 6.56156 12.9239 6.56621C13.0423 6.57607 13.1773 6.49499 13.1773 6.29619C13.1773 6.24344 13.1651 6.21559 13.1526 6.20002C13.1208 6.23938 13.0847 6.27797 13.0491 6.31222C13.0102 6.3495 12.9679 6.38543 12.9256 6.41518C12.885 6.44367 12.8368 6.47195 12.7871 6.48639C12.7833 6.4875 12.7791 6.4886 12.7747 6.48965ZM13.2583 5.94523C13.2709 5.95209 13.2832 5.95977 13.2951 5.96834C13.3945 6.03952 13.4463 6.15439 13.4463 6.29619C13.4463 6.65739 13.1714 6.85632 12.9015 6.83386C12.7681 6.82276 12.6372 6.75751 12.548 6.63605C12.4588 6.51439 12.42 6.34871 12.4449 6.1503C12.4541 6.07671 12.5213 6.02451 12.595 6.03371C12.6117 6.03579 12.6273 6.04086 12.6414 6.04831C12.6642 6.02769 12.6883 6.00992 12.7119 5.99501C12.7375 5.97878 12.7651 5.96415 12.794 5.9514C12.8084 5.93923 12.8231 5.92729 12.8382 5.91588C12.8875 5.87862 12.9497 5.83943 13.018 5.82186C13.0438 5.81467 13.0752 5.80863 13.108 5.81112C13.1433 5.81379 13.1944 5.82813 13.2297 5.87644C13.2466 5.89953 13.2548 5.92354 13.2583 5.94523Z" fill="black"/>
</svg>
