<svg viewBox="0 0 105 177" xmlns="http://www.w3.org/2000/svg"><path d="m56.535 102.748-5.844-1.682-12.175 5.79-.325 18.636 19.496 4.763 9.57-6.152.077-4.422 3.567 1.327-.215 12.318 18.522 4.431 9.56-5.521.33-18.951-13.966-3.719.215-12.319-17.538-4.729-11.197 5.808-.077 4.422Z" fill="#fff"/><path fill-rule="evenodd" clip-rule="evenodd" d="M70.423 110.921a.284.284 0 0 1 .278.289l-.413 23.689a.283.283 0 0 1-.567-.01l.414-23.689a.283.283 0 0 1 .288-.279Z"/><path fill-rule="evenodd" clip-rule="evenodd" d="M67.811 132.578a.288.288 0 0 1 .35-.203l23.667 6.043a.278.278 0 0 1 .2.343.288.288 0 0 1-.349.204l-23.667-6.043a.278.278 0 0 1-.2-.344ZM68.796 113.635c.043-.151.2-.24.351-.199l22.363 6.02a.278.278 0 0 1 .196.346.288.288 0 0 1-.352.199l-22.362-6.02a.278.278 0 0 1-.196-.346ZM79.333 108.136a.289.289 0 0 1 .349-.204l23.667 6.043a.279.279 0 0 1 .201.344.288.288 0 0 1-.349.203l-23.668-6.043a.277.277 0 0 1-.2-.343Z"/><path fill-rule="evenodd" clip-rule="evenodd" d="M86.656 139.633a.273.273 0 0 1 .077-.387l14.522-9.408a.294.294 0 0 1 .399.079.273.273 0 0 1-.077.387l-14.522 9.408a.294.294 0 0 1-.399-.079ZM87.64 120.693a.273.273 0 0 1 .076-.387l14.522-9.408a.294.294 0 0 1 .399.079.273.273 0 0 1-.076.387l-14.522 9.408a.294.294 0 0 1-.4-.079ZM68.257 115.367a.274.274 0 0 1 .103-.381l15.164-8.408a.293.293 0 0 1 .392.107.274.274 0 0 1-.103.381l-15.164 8.408a.293.293 0 0 1-.392-.107Z"/><path fill-rule="evenodd" clip-rule="evenodd" d="M89.75 115.998a.284.284 0 0 1 .279.288l-.403 23.058a.283.283 0 0 1-.567-.01l.403-23.058a.283.283 0 0 1 .288-.278ZM99.12 112.054a.284.284 0 0 1 .278.288l-.37 21.163a.283.283 0 0 1-.566-.01l.369-21.163a.283.283 0 0 1 .288-.278Z"/><path fill-rule="evenodd" clip-rule="evenodd" d="M99.03 119.142a.278.278 0 0 1 .2.343c-.819 2.984-1.535 5.524-2.238 8.012l-.037.131-.037.131-2.08 7.442v.001a.288.288 0 0 1-.35.2.278.278 0 0 1-.2-.343c.736-2.683 1.404-5.048 2.08-7.445l2.312-8.271v-.001a.288.288 0 0 1 .35-.2Zm-7.806-1.083c.151.043.237.199.191.349l-1.492 4.93a.287.287 0 0 1-.355.192.278.278 0 0 1-.192-.348l1.493-4.931a.289.289 0 0 1 .355-.192Zm7.953 6.572c.152.04.24.195.198.345l-2.525 8.918a.29.29 0 0 1-.351.199.279.279 0 0 1-.198-.346l2.525-8.917a.289.289 0 0 1 .351-.199ZM98.808 112.976c.152.041.24.196.196.346l-6.618 22.892a.288.288 0 0 1-.352.196.278.278 0 0 1-.196-.346l6.617-22.891a.29.29 0 0 1 .353-.197Zm-2.65 2.165c.151.041.24.194.199.343-.852 3.102-2.13 7.357-3.393 11.553l-.067.226-.07.23-3.163 10.764a.289.289 0 0 1-.351.196.279.279 0 0 1-.198-.343c.763-2.78 1.95-6.732 3.165-10.771l3.527-12.002a.289.289 0 0 1 .352-.196Zm-2.296.591a.28.28 0 0 1 .2.344l-2.222 8.101-.037.133-2.023 7.377a.289.289 0 0 1-.35.201.278.278 0 0 1-.2-.343l2.022-7.376.037-.134.037-.134 2.185-7.967a.289.289 0 0 1 .35-.202Z"/><path fill-rule="evenodd" clip-rule="evenodd" d="M94.566 115.985a.283.283 0 0 0-.53.134l-.11 6.238a.284.284 0 0 0 .526.153.283.283 0 0 0 .53-.134l.11-6.238a.284.284 0 0 0-.526-.153Z"/><path fill-rule="evenodd" clip-rule="evenodd" d="M77.011 110.607a.284.284 0 0 1 .356-.185 325.135 325.135 0 0 0 6.859 2.066c2.235.657 4.473 1.319 6.866 2.089.355.114.71.234 1.064.353.927.312 1.85.623 2.78.84.056.013.12.024.2.038l.032.005c.09.015.192.034.292.059.175.045.452.137.576.389a.283.283 0 1 1-.508.251c.002.004-.003-.008-.04-.029a.75.75 0 0 0-.169-.062 3.188 3.188 0 0 0-.278-.055 3.416 3.416 0 0 1-.233-.044c-.959-.224-1.922-.548-2.858-.863-.348-.117-.693-.233-1.032-.343a277.515 277.515 0 0 0-7.263-2.205 332.699 332.699 0 0 1-6.459-1.948.283.283 0 0 1-.185-.356Z"/><path fill-rule="evenodd" clip-rule="evenodd" d="M75.38 110.579a.284.284 0 0 1 .356-.185c2.037.643 4.08 1.273 6.126 1.903 2.752.848 5.506 1.697 8.246 2.578.355.115.71.234 1.064.353.927.313 1.85.624 2.781.841a3.08 3.08 0 0 0 .231.043c.09.015.192.033.292.059.175.045.451.137.576.389a.284.284 0 0 1-.508.251c.002.004-.002-.009-.04-.029a.703.703 0 0 0-.169-.062 3.195 3.195 0 0 0-.278-.055c-.077-.013-.16-.027-.233-.044-.959-.224-1.921-.548-2.858-.863a68.419 68.419 0 0 0-1.032-.343c-2.74-.881-5.485-1.727-8.231-2.574a920.709 920.709 0 0 1-6.138-1.907.283.283 0 0 1-.185-.355ZM38.576 103.414a.284.284 0 0 1 .279.289l-.414 23.689a.283.283 0 0 1-.567-.01l.414-23.689a.284.284 0 0 1 .288-.279Z"/><path fill-rule="evenodd" clip-rule="evenodd" d="M35.965 125.071a.288.288 0 0 1 .349-.203l23.667 6.043a.277.277 0 0 1 .2.343.289.289 0 0 1-.348.204l-23.668-6.043a.279.279 0 0 1-.2-.344ZM35.644 106.109a.29.29 0 0 1 .348-.204l23.668 6.043a.279.279 0 0 1 .2.344.288.288 0 0 1-.349.203l-23.667-6.043a.277.277 0 0 1-.2-.343ZM46.192 99.974a.289.289 0 0 1 .35-.204l23.667 6.043a.279.279 0 0 1 .2.344.288.288 0 0 1-.349.203l-23.667-6.042a.279.279 0 0 1-.2-.344Z"/><path fill-rule="evenodd" clip-rule="evenodd" d="M55.133 132.127a.274.274 0 0 1 .084-.386l13.196-8.167a.295.295 0 0 1 .397.087.274.274 0 0 1-.085.386l-13.195 8.167a.293.293 0 0 1-.397-.087ZM54.475 113.143a.273.273 0 0 1 .109-.379l15.152-8.134a.293.293 0 0 1 .391.112.274.274 0 0 1-.109.38l-15.152 8.133a.293.293 0 0 1-.39-.112ZM36.29 107.651a.275.275 0 0 1 .13-.374l15.792-7.384a.292.292 0 0 1 .384.134c.07.14.012.307-.13.373l-15.792 7.384a.292.292 0 0 1-.384-.133Z"/><path fill-rule="evenodd" clip-rule="evenodd" d="M57.904 108.491a.284.284 0 0 1 .279.288l-.402 23.058a.283.283 0 0 1-.567-.01l.402-23.058a.283.283 0 0 1 .288-.278ZM67.925 104.559a.282.282 0 0 1 .279.288l-.37 21.162a.284.284 0 1 1-.567-.01l.37-21.162a.283.283 0 0 1 .288-.278ZM85.405 102.662a.278.278 0 0 1 .2.343l-1.639 5.975a.289.289 0 0 1-.35.201.278.278 0 0 1-.2-.344l1.64-5.974a.288.288 0 0 1 .35-.201ZM84.457 98.222c.152.04.242.193.2.344l-2.761 10.062a.289.289 0 0 1-.35.201.278.278 0 0 1-.201-.344l2.762-10.062a.289.289 0 0 1 .35-.201Zm-3.005 1.8a.28.28 0 0 1 .2.344l-2.514 9.161a.289.289 0 0 1-.35.202.279.279 0 0 1-.2-.344l2.514-9.161a.289.289 0 0 1 .35-.202Zm-2.456.948a.278.278 0 0 1 .2.344l-2.621 9.551a.29.29 0 0 1-.35.201.278.278 0 0 1-.2-.344l2.62-9.551a.289.289 0 0 1 .35-.201ZM62.119 99.385c.152.04.242.193.2.344l-1.21 4.411a.289.289 0 0 1-.35.201.278.278 0 0 1-.2-.344l1.21-4.41a.289.289 0 0 1 .35-.202Zm-4.428-1.016c.152.039.242.193.2.343l-1.208 4.403a.29.29 0 0 1-.35.201.278.278 0 0 1-.2-.344l1.208-4.402a.289.289 0 0 1 .35-.201Zm1.93.972c.151.04.241.194.2.344l-.952 3.468a.289.289 0 0 1-.35.201.278.278 0 0 1-.2-.344l.951-3.467a.289.289 0 0 1 .35-.202Z"/><path fill-rule="evenodd" clip-rule="evenodd" d="M68.882 101.294a.278.278 0 0 1 .2.344l-.967 3.523a.289.289 0 0 1-.35.202.28.28 0 0 1-.2-.344l.966-3.523a.289.289 0 0 1 .35-.202Zm-2.353-.573a.278.278 0 0 1 .2.343l-1.112 4.054a.29.29 0 0 1-.35.201.278.278 0 0 1-.201-.344l1.112-4.053a.288.288 0 0 1 .35-.201Zm-2.073-.452a.278.278 0 0 1 .2.344l-1.121 4.087a.289.289 0 0 1-.35.202.279.279 0 0 1-.201-.344l1.122-4.088a.289.289 0 0 1 .35-.201ZM73.517 102.601a.28.28 0 0 1 .201.344l-4.797 17.478a.289.289 0 0 1-.35.201.278.278 0 0 1-.2-.343l4.796-17.478a.289.289 0 0 1 .35-.202Zm-2.061-.483c.151.041.24.195.198.345l-3.682 13.024a.29.29 0 0 1-.352.199.278.278 0 0 1-.198-.345l3.682-13.024a.29.29 0 0 1 .352-.199Zm4.357 1.267a.278.278 0 0 1 .2.344l-2.466 8.984a.288.288 0 0 1-.35.201.278.278 0 0 1-.2-.343l2.466-8.985a.289.289 0 0 1 .35-.201ZM61.953 94.547a.284.284 0 0 1 .356-.185c2.037.643 4.081 1.273 6.126 1.903 2.752.848 5.506 1.697 8.246 2.578.356.115.71.234 1.064.353.927.313 1.85.624 2.781.841a3.094 3.094 0 0 0 .231.043c.09.015.192.033.292.059.176.045.452.137.576.389a.284.284 0 0 1-.508.251c.002.004-.002-.009-.039-.029a.705.705 0 0 0-.17-.062 3.188 3.188 0 0 0-.278-.055c-.076-.013-.16-.027-.233-.044-.959-.224-1.921-.548-2.857-.863-.349-.118-.693-.234-1.033-.343-2.74-.882-5.485-1.727-8.231-2.574a940.58 940.58 0 0 1-6.137-1.906.283.283 0 0 1-.186-.356Z"/><path fill-rule="evenodd" clip-rule="evenodd" d="M63.585 94.575a.283.283 0 0 1 .356-.185 332.61 332.61 0 0 0 6.86 2.066c2.234.657 4.472 1.319 6.865 2.089.356.114.71.234 1.064.353.927.312 1.85.623 2.781.84.055.013.12.024.199.038l.032.005c.09.015.192.034.292.06.176.044.452.136.576.388a.283.283 0 1 1-.508.251c.002.004-.002-.008-.039-.029a.749.749 0 0 0-.17-.062 3.188 3.188 0 0 0-.278-.055 3.416 3.416 0 0 1-.233-.044c-.959-.224-1.921-.548-2.857-.863-.349-.117-.693-.233-1.033-.343a278.177 278.177 0 0 0-7.263-2.205c-2.099-.617-4.21-1.238-6.459-1.948a.284.284 0 0 1-.185-.356Z"/><path fill-rule="evenodd" clip-rule="evenodd" d="M81.138 99.953a.283.283 0 0 0-.53.134l-.11 6.238a.284.284 0 0 0 .526.153.283.283 0 0 0 .53-.134l.11-6.238a.284.284 0 0 0-.526-.153ZM56.998 94.89a.283.283 0 0 1 .279.288l-.144 8.212a.283.283 0 0 1-.566-.01l.143-8.212a.283.283 0 0 1 .288-.279Z"/><path fill-rule="evenodd" clip-rule="evenodd" d="m56.566 103.38.088-5.054.567.01-.088 5.054-.567-.01ZM67.38 119.864a.288.288 0 0 1 .349-.203l2.599.663a.279.279 0 0 1 .2.344.29.29 0 0 1-.349.204l-2.599-.664a.279.279 0 0 1-.2-.344Z"/><path fill-rule="evenodd" clip-rule="evenodd" d="M54.064 97.584a.289.289 0 0 1 .35-.204l23.667 6.043a.279.279 0 0 1 .2.344.288.288 0 0 1-.349.203l-23.667-6.043a.278.278 0 0 1-.2-.343ZM65.907 92.104a.289.289 0 0 1 .35-.204l23.666 6.043a.278.278 0 0 1 .2.344.289.289 0 0 1-.348.203l-23.667-6.043a.278.278 0 0 1-.2-.343Z"/><path fill-rule="evenodd" clip-rule="evenodd" d="M73.758 103.926a.274.274 0 0 1 .108-.38l14.955-8.06a.293.293 0 0 1 .39.11.274.274 0 0 1-.107.38l-14.955 8.061a.292.292 0 0 1-.391-.111ZM54.718 99.137a.274.274 0 0 1 .113-.379l15.384-8.023a.293.293 0 0 1 .39.117.274.274 0 0 1-.114.378l-15.384 8.024a.293.293 0 0 1-.39-.117Z"/><path fill-rule="evenodd" clip-rule="evenodd" d="M76.326 99.966a.283.283 0 0 1 .279.288l-.188 10.74a.283.283 0 0 1-.566-.01l.187-10.739a.284.284 0 0 1 .288-.279ZM85.695 96.022a.284.284 0 0 1 .278.288l-.231 13.266a.284.284 0 0 1-.567-.01l.231-13.266a.283.283 0 0 1 .288-.278ZM59.41 110.107a.278.278 0 0 1 .2.343l-1.554 5.66a.289.289 0 0 1-.35.202.279.279 0 0 1-.2-.344l1.553-5.66a.288.288 0 0 1 .35-.201ZM67.646 105.876a.278.278 0 0 1 .2.344l-6.113 22.277a.289.289 0 0 1-.35.201.278.278 0 0 1-.2-.344l6.113-22.276a.289.289 0 0 1 .35-.202Zm-3.003 1.795a.278.278 0 0 1 .2.343l-6.04 22.011a.289.289 0 0 1-.35.202.28.28 0 0 1-.2-.344l6.04-22.011a.287.287 0 0 1 .35-.201Zm-2.53 1.219a.278.278 0 0 1 .2.344l-4.143 15.093a.287.287 0 0 1-.35.201.278.278 0 0 1-.2-.343l4.142-15.094a.289.289 0 0 1 .35-.201ZM67.81 115.213a.278.278 0 0 1 .201.343l-2.874 10.473a.289.289 0 0 1-.35.201.278.278 0 0 1-.2-.344l2.873-10.472a.288.288 0 0 1 .35-.201Z"/><path fill-rule="evenodd" clip-rule="evenodd" d="M43.526 103.388a.284.284 0 0 1 .355-.185c2.037.643 4.081 1.273 6.127 1.903 2.752.848 5.505 1.697 8.245 2.578.356.115.71.234 1.065.354.927.312 1.85.623 2.78.84a3.08 3.08 0 0 0 .232.043c.089.015.192.033.291.059.176.045.452.137.577.389a.284.284 0 0 1-.508.251c.001.004-.003-.009-.04-.029a.75.75 0 0 0-.17-.062 3.195 3.195 0 0 0-.278-.055c-.076-.013-.16-.027-.232-.044-.96-.224-1.922-.548-2.858-.863a68.786 68.786 0 0 0-1.032-.343c-2.74-.881-5.485-1.727-8.232-2.574a983.4 983.4 0 0 1-6.137-1.906.284.284 0 0 1-.185-.356Z"/><path fill-rule="evenodd" clip-rule="evenodd" d="M45.157 103.416a.282.282 0 0 1 .355-.184c2.244.708 4.35 1.327 6.45 1.944l.41.121c2.235.657 4.472 1.319 6.865 2.089.356.114.71.234 1.064.353.928.312 1.85.623 2.781.84.056.013.12.024.199.038l.032.005c.09.015.193.034.292.059.176.045.452.137.577.389a.283.283 0 0 1-.509.252c.002.003-.002-.009-.039-.03a.71.71 0 0 0-.17-.061 2.764 2.764 0 0 0-.278-.055 4.161 4.161 0 0 1-.233-.045c-.959-.224-1.921-.548-2.857-.863-.348-.117-.693-.233-1.032-.343a277.642 277.642 0 0 0-7.264-2.205 332.484 332.484 0 0 1-6.458-1.948.283.283 0 0 1-.185-.356Z"/><path fill-rule="evenodd" clip-rule="evenodd" d="M62.71 108.795a.284.284 0 0 0-.53.133l-.11 6.239a.284.284 0 0 0 .526.152.28.28 0 0 0 .243.144.283.283 0 0 0 .288-.278l.109-6.238a.282.282 0 0 0-.279-.288.281.281 0 0 0-.247.136Z"/><path d="M51.033 141.315c0 10.894-8.416 19.725-19.367 19.725-10.95 0-19.827-8.831-19.827-19.725 0-10.894 8.877-19.726 19.827-19.726 7.84 0 19.367 8.832 19.367 19.726Z" fill="#fff"/><path fill-rule="evenodd" clip-rule="evenodd" d="M57.23 141.527a.435.435 0 0 1-.483.414l-15.861-1.603a.487.487 0 0 1-.432-.507.435.435 0 0 1 .483-.414l15.86 1.603a.486.486 0 0 1 .433.507Zm-3.62 3.559a.436.436 0 0 1-.466.425l-7.999-.502c-2.624-.117-5.248-.234-7.742-.486a.487.487 0 0 1-.432-.498.436.436 0 0 1 .465-.425l7.717.485.05.002.041.002c2.658.118 5.347.238 7.934.499.249.026.44.247.432.498Zm-1.7 3.992a.436.436 0 0 1-.482.414c-2.764-.28-5.371-.439-7.956-.595l-.096-.006c-2.55-.154-5.08-.308-7.703-.573a.486.486 0 0 1-.432-.507.436.436 0 0 1 .483-.414c2.605.263 5.119.416 7.674.57l.088.006c2.583.156 5.207.316 7.993.598a.486.486 0 0 1 .432.507ZM46.237 151.916a.436.436 0 0 1-.48.419l-15.873-1.465a.486.486 0 0 1-.436-.503.435.435 0 0 1 .479-.418l15.873 1.465a.486.486 0 0 1 .437.502Zm-.537 7.049a.436.436 0 0 1-.467.426l-8.16-.537c-2.52-.13-5.022-.261-7.616-.501a.486.486 0 0 1-.436-.496.436.436 0 0 1 .466-.426l7.598.5.093.004.088.005c2.584.134 5.21.271 7.998.528.25.024.444.245.436.497Zm-.16-3.293a.436.436 0 0 1-.462.428l-8.003-.432c-2.625-.094-5.25-.188-7.746-.419a.487.487 0 0 1-.436-.494.435.435 0 0 1 .461-.428l7.72.417.051.001.04.002c2.66.095 5.35.192 7.938.43.249.023.443.243.436.495ZM58.591 137.625a.436.436 0 0 1-.47.422l-8.155-.608c-2.518-.152-5.018-.305-7.61-.567a.486.486 0 0 1-.433-.5c.011-.252.22-.44.471-.421l7.592.565.093.006.088.005c2.583.156 5.207.316 7.992.598.25.025.443.248.432.5ZM31.43 160.092a.435.435 0 0 1-.482.414c-2.556-.258-5.218-.377-7.88-.496l-.055-.002c-2.64-.117-5.279-.235-7.787-.488a.487.487 0 0 1-.431-.507.436.436 0 0 1 .482-.414c2.482.251 5.1.367 7.749.485l.04.002c2.658.118 5.346.238 7.933.499a.487.487 0 0 1 .431.507Zm-3.762-4.039a.435.435 0 0 1-.482.414c-2.556-.258-5.219-.377-7.881-.496l-.055-.002c-2.639-.117-5.278-.235-7.786-.488a.487.487 0 0 1-.432-.507.436.436 0 0 1 .482-.414c2.483.251 5.1.367 7.75.485l.04.002c2.658.118 5.346.238 7.932.499a.487.487 0 0 1 .432.507Zm-2.07-3.519a.435.435 0 0 1-.483.414l-15.86-1.602a.487.487 0 0 1-.431-.507.435.435 0 0 1 .482-.414l15.86 1.603a.486.486 0 0 1 .431.506Z"/><path fill-rule="evenodd" clip-rule="evenodd" d="M18.88 125.5c3.99-3.167 9.082-4.814 15.061-4.266.32.03.634.065.943.106 2.27-.044 4.584.176 6.85.714a.46.46 0 1 1-.214.893 24.573 24.573 0 0 0-1.888-.372c3.081 1.257 5.614 3.315 8.038 6.1 2.094 2.405 3.357 5.672 3.886 9.066.53 3.396.33 6.956-.536 9.975a.439.439 0 0 1-.02.053c-2.902 6.807-7.823 10.544-13.208 12.048-5.369 1.5-11.174.774-15.875-1.286-3.364-1.474-5.972-4.183-7.737-7.176-1.758-2.982-2.702-6.284-2.707-9.004-.413-4.424 2.113-10.407 6.643-14.914 2.037-2.026 5.106-3.726 8.662-4.812a18.917 18.917 0 0 0-7.323 3.592c-3.805 3.021-6.573 7.5-8.094 12.799a.462.462 0 0 1-.57.315.46.46 0 0 1-.317-.568c1.564-5.444 4.423-10.101 8.406-13.263Zm15.952-3.241a29.036 29.036 0 0 0-6.363.85c-4.062 1.011-7.538 2.825-9.7 4.977-4.411 4.388-6.766 10.128-6.376 14.2a.442.442 0 0 1 .002.043c0 2.536.886 5.689 2.58 8.562 1.693 2.87 4.17 5.422 7.314 6.8 4.533 1.987 10.118 2.677 15.253 1.243 5.113-1.428 9.805-4.967 12.599-11.497.82-2.877 1.013-6.291.504-9.555-.511-3.278-1.723-6.367-3.672-8.607-3.432-3.943-7.021-6.319-12.141-7.016Z"/><path d="M32.423 47.682c-.847-.848-.706-1.413-.53-1.59l20.454-26.221c-.147.003-.003-.127.209-.268l-.209.268c.22-.005 1.098-.31 3.388-1.328 4.768-2.119 6.887 1.06 7.417 2.12.53 1.059 14.834 38.675 15.364 39.734.53 1.06 1.06 3.18 0 4.239-.848.847-6.004 2.825-8.477 3.708C57.854 61.81 33.271 48.53 32.423 47.682Z" fill="#01C9CC"/><path fill-rule="evenodd" clip-rule="evenodd" d="m78.714 61.419-7.947 3.179-.394-.984 7.947-3.179.394.984ZM77.124 56.65l-7.947 3.18-.394-.984 7.947-3.179.394.984ZM75.005 52.412l-7.947 3.18-.394-.985 7.947-3.178.394.983ZM62.819 19.565l-7.947 3.178-.394-.983 7.947-3.18.394.985Zm1.59 3.708-7.948 3.179-.393-.984 7.947-3.179.393.984Zm1.589 4.239L58.05 30.69l-.394-.983 7.947-3.18.394.985Zm1.59 4.238-7.948 3.179-.393-.984 7.947-3.179.393.984Zm1.059 3.709L60.7 38.637l-.394-.983 7.947-3.18.394.985Zm1.59 3.708-7.948 3.179-.393-.984 7.947-3.179.393.984Zm1.589 4.239-7.947 3.178-.394-.983 7.947-3.18.394.985Zm2.119 4.238-7.947 3.179-.394-.984 7.947-3.179.394.984Z"/><path fill-rule="evenodd" clip-rule="evenodd" d="M59.902 18.165c-.492-.031-1.087.087-1.88.35l-.008.003-5.305 1.592-.305-1.015 5.29-1.587c.83-.276 1.579-.445 2.275-.4.724.046 1.353.32 1.932.852.562.518 1.071 1.275 1.595 2.28.527 1.01 1.087 2.306 1.738 3.934.417 1.043 1.457 3.854 2.842 7.597.864 2.334 1.861 5.03 2.926 7.886 2.776 7.449 6.012 16.002 8.534 22.128.396.96.273 1.838-.221 2.6-.471.728-1.263 1.326-2.165 1.837-1.43.81-3.31 1.493-5.064 2.13-.455.165-.902.328-1.33.488a.53.53 0 0 1-.372-.992c.457-.171.923-.34 1.391-.511 1.745-.634 3.508-1.275 4.852-2.037.85-.482 1.466-.977 1.799-1.49.31-.48.39-.993.13-1.622-2.53-6.144-5.771-14.713-8.547-22.161-1.072-2.877-2.074-5.585-2.939-7.922-1.378-3.723-2.408-6.507-2.82-7.537-.648-1.62-1.192-2.878-1.693-3.838-.504-.965-.945-1.595-1.374-1.99-.412-.38-.815-.545-1.281-.575Z"/><path fill-rule="evenodd" clip-rule="evenodd" d="M70.783 66.552 53.912 20.876a1.06 1.06 0 0 0-1.827-.288L32.149 45.961a1.06 1.06 0 0 0 .321 1.583l36.807 20.302c.86.474 1.846-.374 1.506-1.294ZM54.906 20.508c-.574-1.554-2.63-1.878-3.654-.575L31.315 45.307a2.12 2.12 0 0 0 .643 3.165l36.807 20.302c1.719.948 3.692-.748 3.011-2.59L54.906 20.51Z"/><path d="M55.205 50.86a3.179 3.179 0 1 1-6.357 0 3.179 3.179 0 0 1 6.357 0Z" fill="#fff"/><path fill-rule="evenodd" clip-rule="evenodd" d="M52.026 52.98a2.12 2.12 0 1 0 0-4.238 2.12 2.12 0 0 0 0 4.238Zm0 1.06a3.179 3.179 0 1 0 0-6.358 3.179 3.179 0 0 0 0 6.358Z"/><path d="M55.205 33.377c0 3.53-.276 9.261-1.362 10.91-.535.811-1.155 1.276-1.817 1.276-.661 0-1.282-.465-1.816-1.276-1.086-1.649-1.362-7.91-1.362-11.44 0-5.266 1.172-6.357 3.178-6.357 2.007 0 3.18 1.62 3.18 6.887Z" fill="#fff"/><path fill-rule="evenodd" clip-rule="evenodd" d="M50.6 28.228c-.39.668-.693 2.004-.693 4.62 0 1.743.069 4.157.27 6.327.1 1.086.232 2.092.4 2.913.176.861.367 1.387.518 1.616.462.702.804.8.931.8.128 0 .47-.098.932-.8.158-.24.346-.743.52-1.545.167-.77.298-1.707.399-2.725.2-2.035.269-4.313.269-6.057 0-2.6-.297-4.107-.721-4.936-.2-.39-.409-.592-.599-.706-.192-.114-.443-.185-.8-.185-.413 0-.691.057-.892.151-.18.086-.36.23-.535.527Zm3.243 16.059c1.086-1.649 1.362-7.38 1.362-10.91 0-5.266-1.172-6.887-3.179-6.887-2.006 0-3.178 1.09-3.178 6.358 0 3.53.276 9.79 1.362 11.439.534.811 1.155 1.276 1.816 1.276.662 0 1.282-.465 1.817-1.276Z"/></svg>