<svg width="389" height="205" viewBox="0 0 389 205" fill="none" xmlns="http://www.w3.org/2000/svg">
<path opacity="0.7" d="M320.5 87.5C320.5 117.876 267.67 142.5 202.5 142.5C137.33 142.5 84.5 117.876 84.5 87.5C84.5 57.1243 137.33 32.5 202.5 32.5C267.67 32.5 320.5 57.1243 320.5 87.5Z" fill="url(#paint0_radial_7710_223119)" fill-opacity="0.1"/>
<path opacity="0.7" d="M236.5 147.5C236.5 177.876 183.67 202.5 118.5 202.5C53.3304 202.5 0.5 177.876 0.5 147.5C0.5 117.124 53.3304 92.5 118.5 92.5C183.67 92.5 236.5 117.124 236.5 147.5Z" fill="url(#paint1_radial_7710_223119)" fill-opacity="0.1"/>
<path opacity="0.7" d="M388.5 141.5C388.5 171.876 335.67 196.5 270.5 196.5C205.33 196.5 152.5 171.876 152.5 141.5C152.5 111.124 205.33 86.5 270.5 86.5C335.67 86.5 388.5 111.124 388.5 141.5Z" fill="url(#paint2_radial_7710_223119)" fill-opacity="0.1"/>
<path fill-rule="evenodd" clip-rule="evenodd" d="M302.463 51.5977C302.567 51.8535 302.444 52.1452 302.188 52.2494C276.518 62.6997 203.226 98.232 180.224 109.769C179.529 110.117 178.848 110.459 178.181 110.792C173.332 113.222 169.257 115.263 166.045 117.028C162.372 119.047 159.903 120.666 158.688 122.046C158.085 122.731 157.85 123.291 157.858 123.76C157.866 124.213 158.103 124.706 158.741 125.257C159.382 125.812 160.379 126.382 161.785 126.975C163.185 127.567 164.962 128.171 167.14 128.806C170.282 129.723 175.318 131.147 181.47 132.887C198.782 137.784 224.939 145.182 242.651 150.81C247.164 152.244 251.003 153.717 254.05 155.244C257.089 156.767 259.382 158.362 260.761 160.057C262.159 161.774 262.634 163.623 261.956 165.56C261.294 167.448 259.563 169.329 256.782 171.234C249.467 176.245 219.751 194.426 202.244 204.223C202.003 204.357 201.698 204.271 201.563 204.03C201.429 203.789 201.515 203.485 201.756 203.35C219.249 193.561 248.937 175.397 256.217 170.409C258.936 168.547 260.455 166.817 261.012 165.229C261.551 163.689 261.214 162.198 259.986 160.688C258.739 159.156 256.594 157.637 253.603 156.138C250.619 154.644 246.834 153.188 242.348 151.763C224.653 146.141 198.535 138.753 181.222 133.856C175.06 132.114 170.014 130.686 166.86 129.766C164.663 129.125 162.846 128.509 161.396 127.897C159.952 127.287 158.844 126.669 158.087 126.014C157.326 125.355 156.872 124.616 156.858 123.776C156.845 122.951 157.259 122.156 157.937 121.385C159.284 119.854 161.909 118.16 165.564 116.152C168.794 114.376 172.888 112.325 177.733 109.898C178.4 109.564 179.081 109.223 179.776 108.875C202.773 97.3405 276.099 61.7905 301.811 51.3232C302.067 51.219 302.359 51.342 302.463 51.5977Z" fill="black"/>
<path fill-rule="evenodd" clip-rule="evenodd" d="M294.946 43.5596C295.071 43.8058 294.973 44.1068 294.727 44.2319C279.964 51.7381 249.069 65.8862 219.504 79.3348C214.725 81.5087 209.98 83.6642 205.345 85.7705C181.288 96.7008 160.148 106.306 152.191 110.269C150.774 110.975 149.374 111.666 148.005 112.343C144.779 113.936 141.718 115.448 138.97 116.884C135.052 118.932 131.811 120.806 129.667 122.515C128.593 123.371 127.825 124.162 127.379 124.888C126.938 125.605 126.836 126.214 127.006 126.758C127.181 127.319 127.679 127.924 128.684 128.545C129.684 129.164 131.133 129.766 133.108 130.342C135.16 130.94 138.177 131.813 141.89 132.887C159.885 138.092 194.219 148.022 214.12 154.345C218.62 155.775 222.606 157.108 225.846 158.414C229.075 159.717 231.615 161.013 233.187 162.388C233.976 163.079 234.553 163.816 234.832 164.617C235.117 165.433 235.077 166.274 234.702 167.122C233.976 168.767 231.997 170.432 228.741 172.224C221.043 176.462 211.41 182.019 201.447 187.767C192.586 192.878 183.465 198.14 175.212 202.758C174.971 202.893 174.667 202.807 174.532 202.566C174.397 202.325 174.483 202.02 174.724 201.885C182.942 197.287 192.062 192.026 200.928 186.911C210.91 181.154 220.57 175.581 228.259 171.348C231.503 169.562 233.207 168.033 233.787 166.718C234.066 166.088 234.084 165.509 233.888 164.946C233.686 164.367 233.243 163.766 232.529 163.141C231.092 161.884 228.687 160.639 225.472 159.342C222.27 158.05 218.315 156.727 213.817 155.298C193.93 148.98 159.618 139.055 141.62 133.849C137.904 132.775 134.883 131.901 132.828 131.302C130.811 130.713 129.266 130.081 128.158 129.396C127.054 128.712 126.328 127.942 126.051 127.055C125.769 126.151 125.988 125.24 126.527 124.364C127.061 123.496 127.931 122.62 129.043 121.733C131.27 119.958 134.586 118.047 138.507 115.998C141.265 114.556 144.342 113.036 147.574 111.44C148.941 110.765 150.336 110.076 151.745 109.374C159.719 105.402 180.883 95.7863 204.937 84.8572C209.572 82.7514 214.314 80.5969 219.09 78.4246C248.665 64.9717 279.535 50.8344 294.273 43.3405C294.519 43.2154 294.82 43.3135 294.946 43.5596Z" fill="black"/>
<path d="M144.276 148.632L118.828 159.34L96.3765 152.27L96.3765 123.772L125.534 112.964L144.276 120.041L144.276 121.088L144.276 126.804L144.276 148.632Z" fill="white"/>
<path fill-rule="evenodd" clip-rule="evenodd" d="M121.549 112.57C121.622 112.304 121.897 112.147 122.164 112.22C126.027 113.277 129.966 114.59 134.041 115.962C134.291 116.047 134.541 116.131 134.792 116.215C138.637 117.511 142.609 118.849 146.776 120.075C147.041 120.153 147.192 120.43 147.115 120.695C147.037 120.96 146.759 121.112 146.494 121.034C142.308 119.803 138.319 118.459 134.476 117.164C134.224 117.079 133.973 116.995 133.722 116.91C129.644 115.537 125.731 114.233 121.9 113.185C121.633 113.112 121.477 112.837 121.549 112.57Z" fill="black"/>
<path fill-rule="evenodd" clip-rule="evenodd" d="M96.3766 121.81C96.6528 121.81 96.8766 122.034 96.8766 122.31L96.8766 152.878C96.8766 153.154 96.6528 153.378 96.3766 153.378C96.1005 153.378 95.8766 153.154 95.8766 152.878L95.8766 122.31C95.8766 122.034 96.1005 121.81 96.3766 121.81Z" fill="black"/>
<path fill-rule="evenodd" clip-rule="evenodd" d="M144.276 119.018C144.552 119.018 144.776 119.241 144.776 119.518L144.776 148.963C144.776 149.239 144.552 149.463 144.276 149.463C144 149.463 143.776 149.239 143.776 148.963L143.776 119.518C143.776 119.241 144 119.018 144.276 119.018ZM120.023 127.519C120.299 127.519 120.523 127.743 120.523 128.019L120.523 159.877C120.523 160.153 120.299 160.377 120.023 160.377C119.747 160.377 119.523 160.153 119.523 159.877L119.523 128.019C119.523 127.743 119.747 127.519 120.023 127.519Z" fill="black"/>
<path fill-rule="evenodd" clip-rule="evenodd" d="M95.288 152.743C95.3608 152.476 95.6358 152.319 95.9022 152.392C100.148 153.554 104.683 154.724 109.426 155.947C113.283 156.941 117.277 157.971 121.365 159.061C121.632 159.132 121.79 159.406 121.719 159.673C121.648 159.94 121.374 160.098 121.107 160.027C117.041 158.943 113.05 157.914 109.191 156.919C104.436 155.693 99.8831 154.518 95.6383 153.357C95.3719 153.284 95.2151 153.009 95.288 152.743Z" fill="black"/>
<path fill-rule="evenodd" clip-rule="evenodd" d="M96.5004 123.63C96.5732 123.364 96.8482 123.207 97.1146 123.28C101.361 124.442 105.896 125.611 110.638 126.834C114.495 127.829 118.49 128.859 122.577 129.949C122.844 130.02 123.003 130.294 122.932 130.561C122.86 130.828 122.586 130.986 122.32 130.915C118.253 129.831 114.262 128.801 110.403 127.806C105.649 126.58 101.095 125.406 96.8507 124.245C96.5843 124.172 96.4275 123.897 96.5004 123.63Z" fill="black"/>
<path fill-rule="evenodd" clip-rule="evenodd" d="M147.777 147.85C147.873 148.109 147.741 148.397 147.482 148.493C141.999 150.525 122.727 158.328 117.325 160.589C117.071 160.695 116.778 160.575 116.671 160.321C116.564 160.066 116.685 159.773 116.939 159.666C122.343 157.405 141.631 149.595 147.134 147.555C147.393 147.459 147.681 147.591 147.777 147.85Z" fill="black"/>
<path fill-rule="evenodd" clip-rule="evenodd" d="M145.744 119.344C145.84 119.603 145.707 119.89 145.449 119.986C141.733 121.364 133.542 124.907 126.959 127.754C123.831 129.108 121.066 130.304 119.317 131.035C119.062 131.142 118.769 131.022 118.663 130.767C118.556 130.513 118.676 130.22 118.931 130.113C120.654 129.392 123.396 128.206 126.507 126.86C133.103 124.007 141.361 120.435 145.101 119.049C145.36 118.953 145.648 119.085 145.744 119.344Z" fill="black"/>
<path fill-rule="evenodd" clip-rule="evenodd" d="M124.805 112.538C124.901 112.797 124.769 113.085 124.51 113.181C119.831 114.915 106.601 120.471 99.4619 123.469C98.2379 123.983 97.1929 124.421 96.4007 124.753C96.146 124.86 95.8531 124.739 95.7465 124.485C95.6399 124.23 95.76 123.937 96.0147 123.83C96.8027 123.501 97.8438 123.064 99.0643 122.551C106.197 119.556 119.46 113.986 124.162 112.243C124.421 112.147 124.709 112.279 124.805 112.538Z" fill="black"/>
<path fill-rule="evenodd" clip-rule="evenodd" d="M134.338 116.188C134.442 116.443 134.32 116.735 134.064 116.84C130.428 118.328 124.895 120.758 119.791 123C115.887 124.715 112.234 126.319 109.872 127.308C109.617 127.414 109.324 127.294 109.218 127.04C109.111 126.785 109.231 126.492 109.486 126.385C111.799 125.417 115.439 123.819 119.342 122.105C124.475 119.851 130.063 117.396 133.686 115.914C133.941 115.81 134.233 115.932 134.338 116.188Z" fill="black"/>
<path fill-rule="evenodd" clip-rule="evenodd" d="M130.224 125.47C130.476 125.579 130.624 125.881 130.555 126.147C129.237 131.236 127.6 136.95 125.979 142.6L125.926 142.787C125.907 142.851 125.889 142.916 125.87 142.98L121.495 158.701C121.422 158.965 121.16 159.09 120.907 158.981C120.655 158.872 120.507 158.57 120.576 158.304C121.808 153.548 123.372 148.089 124.955 142.57L129.636 125.749C129.709 125.486 129.972 125.361 130.224 125.47ZM124.466 127.934C124.718 128.044 124.865 128.345 124.797 128.611C124.054 131.48 123.396 133.712 122.746 135.916L122.733 135.96C122.728 135.975 122.724 135.99 122.72 136.005L120.732 143.082C120.658 143.346 120.395 143.469 120.143 143.36C119.892 143.251 119.744 142.949 119.813 142.684C120.525 139.933 121.165 137.763 121.805 135.59L123.878 128.212C123.952 127.949 124.214 127.825 124.466 127.934Z" fill="black"/>
<path fill-rule="evenodd" clip-rule="evenodd" d="M144.722 119.38C144.976 119.487 145.126 119.791 145.057 120.058L136.708 152.298C136.638 152.566 136.376 152.695 136.121 152.588C135.867 152.481 135.717 152.177 135.786 151.91L144.136 119.67C144.205 119.402 144.467 119.273 144.722 119.38ZM139.157 122.298C139.412 122.405 139.562 122.709 139.493 122.976L131.395 154.245C131.326 154.512 131.063 154.642 130.809 154.534C130.554 154.427 130.404 154.123 130.473 153.856L138.571 122.588C138.641 122.32 138.903 122.191 139.157 122.298ZM134.407 124.268C134.662 124.375 134.812 124.679 134.743 124.946L126.588 156.56C126.519 156.827 126.256 156.957 126.002 156.85C125.747 156.743 125.597 156.44 125.666 156.172L133.822 124.558C133.891 124.291 134.153 124.161 134.407 124.268ZM144.731 136.312C144.984 136.424 145.129 136.73 145.055 136.996L141.379 150.152C141.305 150.417 141.04 150.541 140.787 150.429C140.534 150.316 140.389 150.01 140.463 149.745L144.138 136.589C144.212 136.323 144.477 136.199 144.731 136.312Z" fill="black"/>
<path d="M112.875 66.6626C111.816 70.7455 108.281 75.9605 104.865 76.1882C97.5084 76.6782 97.2875 71.4384 97.2875 67.0955C97.7411 63.0127 101.441 58.0029 104.865 58.0029C109.627 58.0029 113.782 60.1602 112.875 66.6626Z" fill="white"/>
<path fill-rule="evenodd" clip-rule="evenodd" d="M107.627 62.5399C108.343 62.6262 109.028 63.1323 109.612 64.0203C109.764 64.251 109.7 64.5611 109.469 64.7128C109.239 64.8646 108.929 64.8006 108.777 64.5699C108.28 63.8148 107.82 63.5704 107.507 63.5328C107.212 63.4971 106.921 63.6319 106.696 63.9476C106.239 64.5899 106.161 65.8994 107.295 66.9855C108.7 68.3316 109.085 70.2868 108.278 71.4805C107.854 72.1073 107.139 72.4474 106.248 72.3594C105.385 72.2742 104.375 71.7935 103.246 70.8526C103.034 70.6758 103.005 70.3605 103.182 70.1484C103.358 69.9363 103.674 69.9076 103.886 70.0844C104.936 70.9593 105.762 71.3065 106.346 71.3643C106.904 71.4193 107.248 71.2175 107.449 70.9202C107.892 70.2658 107.789 68.8442 106.603 67.7076C105.145 66.311 105.109 64.4516 105.882 63.3673C106.272 62.8196 106.894 62.4517 107.627 62.5399Z" fill="black"/>
<path fill-rule="evenodd" clip-rule="evenodd" d="M108.602 61.6346C108.868 61.7085 109.024 61.9841 108.95 62.2502C108.038 65.5353 106.762 69.3617 105.474 72.8648C105.379 73.124 105.092 73.2568 104.833 73.1616C104.573 73.0663 104.44 72.7789 104.536 72.5197C105.817 69.0337 107.084 65.234 107.987 61.9825C108.061 61.7164 108.336 61.5607 108.602 61.6346Z" fill="black"/>
<path fill-rule="evenodd" clip-rule="evenodd" d="M101.221 59.1856C101.294 58.9193 101.569 58.7634 101.835 58.8373L105.178 59.766C105.445 59.8399 105.601 60.1156 105.528 60.3819C105.455 60.6482 105.18 60.8041 104.914 60.7302L101.57 59.8015C101.304 59.7276 101.148 59.4518 101.221 59.1856ZM102.889 58.27C102.955 58.0018 103.226 57.8384 103.494 57.9051C104.231 58.0884 104.633 58.2036 105.023 58.3157L105.037 58.3198C105.417 58.429 105.789 58.5357 106.467 58.7043C106.735 58.771 106.899 59.0424 106.833 59.3106C106.767 59.5788 106.496 59.7421 106.228 59.6755C105.533 59.5025 105.148 59.392 104.763 59.2813L104.75 59.2775C104.365 59.1671 103.976 59.0555 103.255 58.8762C102.987 58.8096 102.823 58.5381 102.889 58.27Z" fill="black"/>
<path fill-rule="evenodd" clip-rule="evenodd" d="M98.1057 63.0614C98.1808 62.7957 98.4569 62.6418 98.7225 62.7177L101.753 63.5837C102.019 63.6596 102.173 63.9365 102.098 64.2022C102.023 64.4679 101.747 64.6218 101.481 64.5459L98.4506 63.6799C98.185 63.6041 98.0306 63.3272 98.1057 63.0614ZM98.9815 61.5152C99.0736 61.2549 99.3591 61.1193 99.6192 61.2122L102.65 62.2946C102.91 62.3875 103.046 62.6738 102.954 62.9341C102.862 63.1943 102.577 63.33 102.317 63.2371L99.2857 62.1546C99.0255 62.0617 98.8893 61.7754 98.9815 61.5152ZM100.06 60.2263C100.147 59.9641 100.43 59.8224 100.692 59.9097L103.939 60.9922C104.201 61.0796 104.343 61.3629 104.257 61.6251C104.17 61.8872 103.888 62.0289 103.626 61.9416L100.378 60.8591C100.116 60.7718 99.9739 60.4884 100.06 60.2263Z" fill="black"/>
<path fill-rule="evenodd" clip-rule="evenodd" d="M96.8069 66.3083C96.882 66.0426 97.1581 65.8887 97.4237 65.9646L100.455 66.8306C100.72 66.9064 100.874 67.1833 100.799 67.449C100.724 67.7147 100.448 67.8686 100.183 67.7928L97.1518 66.9268C96.8862 66.8509 96.7318 66.574 96.8069 66.3083ZM97.4563 64.5765C97.5314 64.3108 97.8075 64.1569 98.0731 64.2327L101.104 65.0986C101.369 65.1745 101.524 65.4514 101.449 65.7171C101.374 65.9828 101.098 66.1367 100.832 66.0608L97.8012 65.195C97.5356 65.1191 97.3812 64.8422 97.4563 64.5765ZM96.5904 68.6898C96.6655 68.4241 96.9416 68.2702 97.2072 68.346L100.238 69.212C100.504 69.2879 100.658 69.5648 100.583 69.8305C100.508 70.0962 100.232 70.2501 99.9661 70.1742L96.9353 69.3083C96.6697 69.2324 96.5153 68.9555 96.5904 68.6898Z" fill="black"/>
<path fill-rule="evenodd" clip-rule="evenodd" d="M96.8005 70.8798C96.8619 70.6106 97.1297 70.4426 97.3987 70.5047L100.213 71.1542C100.482 71.2163 100.651 71.4849 100.589 71.7542C100.528 72.0234 100.26 72.1914 99.9911 72.1293L97.1767 71.4798C96.9076 71.4177 96.7392 71.1491 96.8005 70.8798ZM97.6686 72.8195C97.7347 72.5515 98.0056 72.3884 98.2735 72.4554L100.871 73.1048C101.139 73.1717 101.303 73.4434 101.237 73.7115C101.17 73.9796 100.9 74.1426 100.632 74.0756L98.0338 73.4262C97.7659 73.3593 97.6024 73.0876 97.6686 72.8195Z" fill="black"/>
<path fill-rule="evenodd" clip-rule="evenodd" d="M103.632 62.2614C102.146 64.0317 101.057 66.2991 100.815 68.2399C100.386 71.6694 100.845 74.0584 102.188 75.4015C102.208 75.4221 102.227 75.4445 102.244 75.4683C102.385 75.67 102.625 75.8274 102.974 75.9256C103.322 76.024 103.745 76.0525 104.189 76.0203C104.632 75.9882 105.074 75.8975 105.453 75.7738C105.841 75.6472 106.125 75.4983 106.276 75.3715C106.312 75.3414 106.353 75.3164 106.396 75.2975C107.786 74.6862 109.057 73.4015 110.069 71.7604C111.076 70.1253 111.798 68.1795 112.113 66.3116C112.429 64.4342 112.324 62.6931 111.746 61.4338C111.186 60.214 110.174 59.4177 108.53 59.3686C106.929 59.3208 105.134 60.4734 103.632 62.2614ZM102.867 61.6183C104.433 59.7527 106.495 58.3074 108.56 58.3691C110.599 58.43 111.942 59.4661 112.655 61.0165C113.348 62.5274 113.433 64.4942 113.099 66.4776C112.764 68.4705 111.997 70.5384 110.92 72.2851C109.861 74.0042 108.474 75.4545 106.859 76.1856C106.573 76.4066 106.18 76.5884 105.763 76.7245C105.309 76.8729 104.786 76.9796 104.262 77.0176C103.74 77.0555 103.194 77.0269 102.702 76.8881C102.224 76.7532 101.765 76.5042 101.451 76.0792C99.7883 74.3883 99.3875 71.594 99.8222 68.1159C100.094 65.9433 101.285 63.5015 102.867 61.6183Z" fill="black"/>
<path fill-rule="evenodd" clip-rule="evenodd" d="M100.455 61.1608C99.0164 62.7938 97.9871 64.8935 97.7845 66.7176C97.7816 66.7434 97.7767 66.769 97.7699 66.794C97.4698 67.8944 97.4648 69.2752 97.7237 70.5694C97.9842 71.8717 98.4958 73.0087 99.1566 73.6696C99.1771 73.6902 99.1959 73.7125 99.2126 73.7364C99.5981 74.2871 100.27 74.7819 101.122 75.1974C101.966 75.6092 102.945 75.9227 103.891 76.1329C104.16 76.1928 104.33 76.4599 104.27 76.7295C104.21 76.999 103.943 77.169 103.674 77.1091C102.671 76.8863 101.615 76.5504 100.684 76.0962C99.7751 75.6529 98.9442 75.0769 98.4188 74.3457C97.5812 73.4896 97.0206 72.1526 96.7431 70.7656C96.4635 69.3675 96.4559 67.842 96.795 66.5686C97.0351 64.5062 98.1727 62.2388 99.7046 60.4998C101.236 58.7609 103.262 57.4418 105.313 57.503C106.591 57.5412 107.68 57.906 109.343 58.4629C109.486 58.5108 109.634 58.5602 109.786 58.6109C110.048 58.6982 110.189 58.9814 110.102 59.2434C110.015 59.5053 109.731 59.6469 109.469 59.5596C109.335 59.5147 109.205 59.4712 109.079 59.4291C107.354 58.8526 106.408 58.5362 105.283 58.5026C103.666 58.4543 101.903 59.5166 100.455 61.1608Z" fill="black"/>
<path d="M138.875 80.6626C137.816 84.7455 134.281 89.9605 130.865 90.1882C123.508 90.6782 123.287 85.4384 123.287 81.0955C123.741 77.0127 127.441 72.0029 130.865 72.0029C135.627 72.0029 139.782 74.1602 138.875 80.6626Z" fill="white"/>
<path fill-rule="evenodd" clip-rule="evenodd" d="M133.627 76.5399C134.343 76.6262 135.028 77.1323 135.612 78.0203C135.764 78.251 135.7 78.5611 135.469 78.7128C135.239 78.8646 134.929 78.8006 134.777 78.5699C134.28 77.8148 133.82 77.5704 133.507 77.5328C133.212 77.4971 132.921 77.6319 132.696 77.9476C132.239 78.5899 132.161 79.8994 133.295 80.9855C134.7 82.3316 135.085 84.2868 134.278 85.4805C133.854 86.1073 133.139 86.4474 132.248 86.3594C131.385 86.2742 130.375 85.7935 129.246 84.8526C129.034 84.6758 129.005 84.3605 129.182 84.1484C129.358 83.9363 129.674 83.9076 129.886 84.0844C130.936 84.9593 131.762 85.3065 132.346 85.3643C132.904 85.4193 133.248 85.2175 133.449 84.9202C133.892 84.2658 133.789 82.8442 132.603 81.7076C131.145 80.311 131.109 78.4516 131.882 77.3673C132.272 76.8196 132.894 76.4517 133.627 76.5399Z" fill="black"/>
<path fill-rule="evenodd" clip-rule="evenodd" d="M134.602 75.6346C134.868 75.7085 135.024 75.9841 134.95 76.2502C134.038 79.5353 132.762 83.3617 131.474 86.8648C131.379 87.124 131.092 87.2568 130.833 87.1616C130.573 87.0663 130.44 86.7789 130.536 86.5197C131.817 83.0337 133.084 79.234 133.987 75.9825C134.061 75.7164 134.336 75.5607 134.602 75.6346Z" fill="black"/>
<path fill-rule="evenodd" clip-rule="evenodd" d="M127.221 73.1856C127.294 72.9193 127.569 72.7634 127.835 72.8373L131.178 73.766C131.445 73.8399 131.601 74.1156 131.528 74.3819C131.455 74.6482 131.18 74.8041 130.914 74.7302L127.57 73.8015C127.304 73.7276 127.148 73.4518 127.221 73.1856ZM128.889 72.27C128.955 72.0018 129.226 71.8384 129.494 71.9051C130.231 72.0884 130.633 72.2036 131.023 72.3157L131.037 72.3198C131.417 72.429 131.789 72.5357 132.467 72.7043C132.735 72.771 132.899 73.0424 132.833 73.3106C132.767 73.5788 132.496 73.7421 132.228 73.6755C131.533 73.5025 131.148 73.392 130.763 73.2813L130.75 73.2775C130.365 73.1671 129.976 73.0555 129.255 72.8762C128.987 72.8096 128.823 72.5381 128.889 72.27Z" fill="black"/>
<path fill-rule="evenodd" clip-rule="evenodd" d="M124.106 77.0614C124.181 76.7957 124.457 76.6418 124.722 76.7177L127.753 77.5837C128.019 77.6596 128.173 77.9365 128.098 78.2022C128.023 78.4679 127.747 78.6218 127.481 78.5459L124.451 77.6799C124.185 77.6041 124.031 77.3272 124.106 77.0614ZM124.981 75.5152C125.074 75.2549 125.359 75.1193 125.619 75.2122L128.65 76.2946C128.91 76.3875 129.046 76.6738 128.954 76.9341C128.862 77.1943 128.577 77.33 128.317 77.2371L125.286 76.1546C125.026 76.0617 124.889 75.7754 124.981 75.5152ZM126.06 74.2263C126.147 73.9641 126.43 73.8224 126.692 73.9097L129.939 74.9922C130.201 75.0796 130.343 75.3629 130.257 75.6251C130.17 75.8872 129.888 76.0289 129.626 75.9416L126.378 74.8591C126.116 74.7718 125.974 74.4884 126.06 74.2263Z" fill="black"/>
<path fill-rule="evenodd" clip-rule="evenodd" d="M122.807 80.3083C122.882 80.0426 123.158 79.8887 123.424 79.9646L126.455 80.8306C126.72 80.9064 126.874 81.1833 126.799 81.449C126.724 81.7147 126.448 81.8686 126.183 81.7928L123.152 80.9268C122.886 80.8509 122.732 80.574 122.807 80.3083ZM123.456 78.5765C123.531 78.3108 123.808 78.1569 124.073 78.2327L127.104 79.0986C127.369 79.1745 127.524 79.4514 127.449 79.7171C127.374 79.9828 127.098 80.1367 126.832 80.0608L123.801 79.195C123.536 79.1191 123.381 78.8422 123.456 78.5765ZM122.59 82.6898C122.666 82.4241 122.942 82.2702 123.207 82.346L126.238 83.212C126.504 83.2879 126.658 83.5648 126.583 83.8305C126.508 84.0962 126.232 84.2501 125.966 84.1742L122.935 83.3083C122.67 83.2324 122.515 82.9555 122.59 82.6898Z" fill="black"/>
<path fill-rule="evenodd" clip-rule="evenodd" d="M122.801 84.8798C122.862 84.6106 123.13 84.4426 123.399 84.5047L126.213 85.1542C126.482 85.2163 126.651 85.4849 126.589 85.7542C126.528 86.0234 126.26 86.1914 125.991 86.1293L123.177 85.4798C122.908 85.4177 122.739 85.1491 122.801 84.8798ZM123.669 86.8195C123.735 86.5515 124.006 86.3884 124.273 86.4554L126.871 87.1048C127.139 87.1717 127.303 87.4434 127.237 87.7115C127.17 87.9796 126.9 88.1426 126.632 88.0756L124.034 87.4262C123.766 87.3593 123.602 87.0876 123.669 86.8195Z" fill="black"/>
<path fill-rule="evenodd" clip-rule="evenodd" d="M129.632 76.2614C128.146 78.0317 127.057 80.2991 126.815 82.2399C126.386 85.6694 126.845 88.0584 128.188 89.4015C128.208 89.4221 128.227 89.4445 128.244 89.4683C128.385 89.67 128.625 89.8274 128.974 89.9256C129.322 90.024 129.745 90.0525 130.189 90.0203C130.632 89.9882 131.074 89.8975 131.453 89.7738C131.841 89.6472 132.125 89.4983 132.276 89.3715C132.312 89.3414 132.353 89.3164 132.396 89.2975C133.786 88.6862 135.057 87.4015 136.069 85.7604C137.076 84.1253 137.798 82.1795 138.113 80.3116C138.429 78.4342 138.324 76.6931 137.746 75.4338C137.186 74.214 136.174 73.4177 134.53 73.3686C132.929 73.3208 131.134 74.4734 129.632 76.2614ZM128.867 75.6183C130.433 73.7527 132.495 72.3074 134.56 72.3691C136.599 72.43 137.942 73.4661 138.655 75.0165C139.348 76.5274 139.433 78.4942 139.099 80.4776C138.764 82.4705 137.997 84.5384 136.92 86.2851C135.861 88.0042 134.474 89.4545 132.859 90.1856C132.573 90.4066 132.18 90.5884 131.763 90.7245C131.309 90.8729 130.786 90.9796 130.262 91.0176C129.74 91.0555 129.194 91.0269 128.702 90.8881C128.224 90.7532 127.765 90.5042 127.451 90.0792C125.788 88.3883 125.387 85.594 125.822 82.1159C126.094 79.9433 127.285 77.5015 128.867 75.6183Z" fill="black"/>
<path fill-rule="evenodd" clip-rule="evenodd" d="M126.455 75.1608C125.016 76.7938 123.987 78.8935 123.784 80.7176C123.782 80.7434 123.777 80.769 123.77 80.794C123.47 81.8944 123.465 83.2752 123.724 84.5694C123.984 85.8717 124.496 87.0087 125.157 87.6696C125.177 87.6902 125.196 87.7125 125.213 87.7364C125.598 88.2871 126.27 88.7819 127.122 89.1974C127.966 89.6092 128.945 89.9227 129.891 90.1329C130.16 90.1928 130.33 90.4599 130.27 90.7295C130.21 90.999 129.943 91.169 129.674 91.1091C128.671 90.8863 127.615 90.5504 126.684 90.0962C125.775 89.6529 124.944 89.0769 124.419 88.3457C123.581 87.4896 123.021 86.1526 122.743 84.7656C122.464 83.3675 122.456 81.842 122.795 80.5686C123.035 78.5062 124.173 76.2388 125.705 74.4998C127.236 72.7609 129.262 71.4418 131.313 71.503C132.591 71.5412 133.68 71.906 135.343 72.4629C135.486 72.5108 135.634 72.5602 135.786 72.6109C136.048 72.6982 136.189 72.9814 136.102 73.2434C136.015 73.5053 135.731 73.6469 135.469 73.5596C135.335 73.5147 135.205 73.4712 135.079 73.4291C133.354 72.8526 132.408 72.5362 131.283 72.5026C129.666 72.4543 127.903 73.5166 126.455 75.1608Z" fill="black"/>
<path d="M136.875 37.6626C135.816 41.7455 132.281 46.9605 128.865 47.1882C121.508 47.6782 121.287 42.4384 121.287 38.0955C121.741 34.0127 125.441 29.0029 128.865 29.0029C133.627 29.0029 137.782 31.1602 136.875 37.6626Z" fill="white"/>
<path fill-rule="evenodd" clip-rule="evenodd" d="M131.627 33.5399C132.343 33.6262 133.028 34.1323 133.612 35.0203C133.764 35.251 133.7 35.5611 133.469 35.7128C133.239 35.8646 132.929 35.8006 132.777 35.5699C132.28 34.8148 131.82 34.5704 131.507 34.5328C131.212 34.4971 130.921 34.6319 130.696 34.9476C130.239 35.5899 130.161 36.8994 131.295 37.9855C132.7 39.3316 133.085 41.2868 132.278 42.4805C131.854 43.1073 131.139 43.4474 130.248 43.3594C129.385 43.2742 128.375 42.7935 127.246 41.8526C127.034 41.6758 127.005 41.3605 127.182 41.1484C127.358 40.9363 127.674 40.9076 127.886 41.0844C128.936 41.9593 129.762 42.3065 130.346 42.3643C130.904 42.4193 131.248 42.2175 131.449 41.9202C131.892 41.2658 131.789 39.8442 130.603 38.7076C129.145 37.311 129.109 35.4516 129.882 34.3673C130.272 33.8196 130.894 33.4517 131.627 33.5399Z" fill="black"/>
<path fill-rule="evenodd" clip-rule="evenodd" d="M132.602 32.6346C132.868 32.7085 133.024 32.9841 132.95 33.2502C132.038 36.5353 130.762 40.3617 129.474 43.8648C129.379 44.124 129.092 44.2568 128.833 44.1616C128.573 44.0663 128.44 43.7789 128.536 43.5197C129.817 40.0337 131.084 36.234 131.987 32.9825C132.061 32.7164 132.336 32.5607 132.602 32.6346Z" fill="black"/>
<path fill-rule="evenodd" clip-rule="evenodd" d="M125.221 30.1856C125.294 29.9193 125.569 29.7634 125.835 29.8373L129.178 30.766C129.445 30.8399 129.601 31.1156 129.528 31.3819C129.455 31.6482 129.18 31.8041 128.914 31.7302L125.57 30.8015C125.304 30.7276 125.148 30.4518 125.221 30.1856ZM126.889 29.27C126.955 29.0018 127.226 28.8384 127.494 28.9051C128.231 29.0884 128.633 29.2036 129.023 29.3157L129.037 29.3198C129.417 29.429 129.789 29.5357 130.467 29.7043C130.735 29.771 130.899 30.0424 130.833 30.3106C130.767 30.5788 130.496 30.7421 130.228 30.6755C129.533 30.5025 129.148 30.392 128.763 30.2813L128.75 30.2775C128.365 30.1671 127.976 30.0555 127.255 29.8762C126.987 29.8096 126.823 29.5381 126.889 29.27Z" fill="black"/>
<path fill-rule="evenodd" clip-rule="evenodd" d="M122.106 34.0614C122.181 33.7957 122.457 33.6418 122.722 33.7177L125.753 34.5837C126.019 34.6596 126.173 34.9365 126.098 35.2022C126.023 35.4679 125.747 35.6218 125.481 35.5459L122.451 34.6799C122.185 34.6041 122.031 34.3272 122.106 34.0614ZM122.981 32.5152C123.074 32.2549 123.359 32.1193 123.619 32.2122L126.65 33.2946C126.91 33.3875 127.046 33.6738 126.954 33.9341C126.862 34.1943 126.577 34.33 126.317 34.2371L123.286 33.1546C123.026 33.0617 122.889 32.7754 122.981 32.5152ZM124.06 31.2263C124.147 30.9641 124.43 30.8224 124.692 30.9097L127.939 31.9922C128.201 32.0796 128.343 32.3629 128.257 32.6251C128.17 32.8872 127.888 33.0289 127.626 32.9416L124.378 31.8591C124.116 31.7718 123.974 31.4884 124.06 31.2263Z" fill="black"/>
<path fill-rule="evenodd" clip-rule="evenodd" d="M120.807 37.3083C120.882 37.0426 121.158 36.8887 121.424 36.9646L124.455 37.8306C124.72 37.9064 124.874 38.1833 124.799 38.449C124.724 38.7147 124.448 38.8686 124.183 38.7928L121.152 37.9268C120.886 37.8509 120.732 37.574 120.807 37.3083ZM121.456 35.5765C121.531 35.3108 121.808 35.1569 122.073 35.2327L125.104 36.0986C125.369 36.1745 125.524 36.4514 125.449 36.7171C125.374 36.9828 125.098 37.1367 124.832 37.0608L121.801 36.195C121.536 36.1191 121.381 35.8422 121.456 35.5765ZM120.59 39.6898C120.666 39.4241 120.942 39.2702 121.207 39.346L124.238 40.212C124.504 40.2879 124.658 40.5648 124.583 40.8305C124.508 41.0962 124.232 41.2501 123.966 41.1742L120.935 40.3083C120.67 40.2324 120.515 39.9555 120.59 39.6898Z" fill="black"/>
<path fill-rule="evenodd" clip-rule="evenodd" d="M120.801 41.8798C120.862 41.6106 121.13 41.4426 121.399 41.5047L124.213 42.1542C124.482 42.2163 124.651 42.4849 124.589 42.7542C124.528 43.0234 124.26 43.1914 123.991 43.1293L121.177 42.4798C120.908 42.4177 120.739 42.1491 120.801 41.8798ZM121.669 43.8195C121.735 43.5515 122.006 43.3884 122.273 43.4554L124.871 44.1048C125.139 44.1717 125.303 44.4434 125.237 44.7115C125.17 44.9796 124.9 45.1426 124.632 45.0756L122.034 44.4262C121.766 44.3593 121.602 44.0876 121.669 43.8195Z" fill="black"/>
<path fill-rule="evenodd" clip-rule="evenodd" d="M127.632 33.2614C126.146 35.0317 125.057 37.2991 124.815 39.2399C124.386 42.6694 124.845 45.0584 126.188 46.4015C126.208 46.4221 126.227 46.4445 126.244 46.4683C126.385 46.67 126.625 46.8274 126.974 46.9256C127.322 47.024 127.745 47.0525 128.189 47.0203C128.632 46.9882 129.074 46.8975 129.453 46.7738C129.841 46.6472 130.125 46.4983 130.276 46.3715C130.312 46.3414 130.353 46.3164 130.396 46.2975C131.786 45.6862 133.057 44.4015 134.069 42.7604C135.076 41.1253 135.798 39.1795 136.113 37.3116C136.429 35.4342 136.324 33.6931 135.746 32.4338C135.186 31.214 134.174 30.4177 132.53 30.3686C130.929 30.3208 129.134 31.4734 127.632 33.2614ZM126.867 32.6183C128.433 30.7527 130.495 29.3074 132.56 29.3691C134.599 29.43 135.942 30.4661 136.655 32.0165C137.348 33.5274 137.433 35.4942 137.099 37.4776C136.764 39.4705 135.997 41.5384 134.92 43.2851C133.861 45.0042 132.474 46.4545 130.859 47.1856C130.573 47.4066 130.18 47.5884 129.763 47.7245C129.309 47.8729 128.786 47.9796 128.262 48.0176C127.74 48.0555 127.194 48.0269 126.702 47.8881C126.224 47.7532 125.765 47.5042 125.451 47.0792C123.788 45.3883 123.387 42.594 123.822 39.1159C124.094 36.9433 125.285 34.5015 126.867 32.6183Z" fill="black"/>
<path fill-rule="evenodd" clip-rule="evenodd" d="M124.455 32.1608C123.016 33.7938 121.987 35.8935 121.784 37.7176C121.782 37.7434 121.777 37.769 121.77 37.794C121.47 38.8944 121.465 40.2752 121.724 41.5694C121.984 42.8717 122.496 44.0087 123.157 44.6696C123.177 44.6902 123.196 44.7125 123.213 44.7364C123.598 45.2871 124.27 45.7819 125.122 46.1974C125.966 46.6092 126.945 46.9227 127.891 47.1329C128.16 47.1928 128.33 47.4599 128.27 47.7295C128.21 47.999 127.943 48.169 127.674 48.1091C126.671 47.8863 125.615 47.5504 124.684 47.0962C123.775 46.6529 122.944 46.0769 122.419 45.3457C121.581 44.4896 121.021 43.1526 120.743 41.7656C120.464 40.3675 120.456 38.842 120.795 37.5686C121.035 35.5062 122.173 33.2388 123.705 31.4998C125.236 29.7609 127.262 28.4418 129.313 28.503C130.591 28.5412 131.68 28.906 133.343 29.4629C133.486 29.5108 133.634 29.5602 133.786 29.6109C134.048 29.6982 134.189 29.9814 134.102 30.2434C134.015 30.5053 133.731 30.6469 133.469 30.5596C133.335 30.5147 133.205 30.4712 133.079 30.4291C131.354 29.8526 130.408 29.5362 129.283 29.5026C127.666 29.4543 125.903 30.5166 124.455 32.1608Z" fill="black"/>
<path fill-rule="evenodd" clip-rule="evenodd" d="M104 15.2861C104.276 15.2861 104.5 15.51 104.5 15.7861L104.5 44.2664C104.5 44.5425 104.276 44.7664 104 44.7664C103.724 44.7664 103.5 44.5425 103.5 44.2664L103.5 15.7861C103.5 15.51 103.724 15.2861 104 15.2861ZM104 82.4703C104.276 82.4703 104.5 82.6942 104.5 82.9703L104.5 100.286C104.5 100.562 104.276 100.786 104 100.786C103.724 100.786 103.5 100.562 103.5 100.286L103.5 82.9703C103.5 82.6942 103.724 82.4703 104 82.4703ZM104 114.602C104.276 114.602 104.5 114.826 104.5 115.102L104.5 125.786C104.5 126.062 104.276 126.286 104 126.286C103.724 126.286 103.5 126.062 103.5 125.786L103.5 115.102C103.5 114.826 103.724 114.602 104 114.602Z" fill="black"/>
<path fill-rule="evenodd" clip-rule="evenodd" d="M117 15.2861C117.276 15.2861 117.5 15.51 117.5 15.7861L117.5 37.6166C117.5 37.8928 117.276 38.1166 117 38.1166C116.724 38.1166 116.5 37.8928 116.5 37.6166L116.5 15.7861C116.5 15.51 116.724 15.2861 117 15.2861ZM117 53.4895C117.276 53.4895 117.5 53.7134 117.5 53.9895L117.5 69.5827C117.5 69.8589 117.276 70.0827 117 70.0827C116.724 70.0827 116.5 69.8589 116.5 69.5827L116.5 53.9895C116.5 53.7134 116.724 53.4895 117 53.4895ZM117 89.3539C117.276 89.3539 117.5 89.5778 117.5 89.8539L117.5 107.786C117.5 108.062 117.276 108.286 117 108.286C116.724 108.286 116.5 108.062 116.5 107.786L116.5 89.8539C116.5 89.5778 116.724 89.3539 117 89.3539Z" fill="black"/>
<path fill-rule="evenodd" clip-rule="evenodd" d="M128.005 5.28624C128.281 5.28873 128.503 5.5146 128.5 5.79073L128.312 26.7188C128.309 26.9949 128.083 27.2167 127.807 27.2142C127.531 27.2117 127.309 26.9859 127.312 26.7097L127.5 5.78172C127.503 5.50559 127.729 5.28375 128.005 5.28624ZM127.604 49.7583C127.88 49.7608 128.102 49.9867 128.1 50.2628L127.935 68.5748C127.932 68.851 127.706 69.0728 127.43 69.0703C127.154 69.0678 126.932 68.8419 126.935 68.5658L127.1 50.2538C127.102 49.9777 127.328 49.7558 127.604 49.7583ZM127.199 94.2304C127.475 94.2304 127.699 94.4542 127.699 94.7304L127.699 114.286C127.699 114.562 127.475 114.786 127.199 114.786C126.923 114.786 126.699 114.562 126.699 114.286L126.699 94.7304C126.699 94.4542 126.923 94.2304 127.199 94.2304Z" fill="black"/>
<path d="M269.667 19.7863V3.11963L299 7.11963V23.7863L269.667 19.7863Z" fill="white"/>
<path fill-rule="evenodd" clip-rule="evenodd" d="M269.15 0.583984C269.426 0.583984 269.65 0.807842 269.65 1.08398V55.7861C269.65 56.0623 269.426 56.2861 269.15 56.2861C268.874 56.2861 268.65 56.0623 268.65 55.7861V1.08398C268.65 0.807842 268.874 0.583984 269.15 0.583984Z" fill="black"/>
<path fill-rule="evenodd" clip-rule="evenodd" d="M267 0C267.276 0 267.5 0.223858 267.5 0.5V56.7861C267.5 57.0623 267.276 57.2861 267 57.2861C266.724 57.2861 266.5 57.0623 266.5 56.7861V0.5C266.5 0.223858 266.724 0 267 0Z" fill="black"/>
<path fill-rule="evenodd" clip-rule="evenodd" d="M266.506 1.00424C266.551 0.731638 266.807 0.546388 267.08 0.590472C269.696 1.01362 276.103 1.74182 282.899 2.51233L283.183 2.54452C289.882 3.30396 296.901 4.09971 300.941 4.67682C301.214 4.71587 301.404 4.96913 301.365 5.2425C301.326 5.51587 301.073 5.70582 300.799 5.66677C296.774 5.09174 289.765 4.29712 283.054 3.53628L282.787 3.50597C276.008 2.73739 269.567 2.00569 266.92 1.57765C266.648 1.53356 266.462 1.27684 266.506 1.00424Z" fill="black"/>
<path fill-rule="evenodd" clip-rule="evenodd" d="M268.84 17.3739C268.873 17.0998 269.123 16.9048 269.397 16.9383C276.544 17.8134 284.366 18.9083 291.842 19.9547C294.384 20.3105 296.886 20.6607 299.308 20.9947C299.582 21.0325 299.773 21.2848 299.735 21.5584C299.697 21.8319 299.445 22.0231 299.172 21.9854C296.745 21.6507 294.24 21.3001 291.696 20.944C284.222 19.898 276.413 18.8049 269.275 17.9309C269.001 17.8974 268.806 17.6479 268.84 17.3739Z" fill="black"/>
<path fill-rule="evenodd" clip-rule="evenodd" d="M298.534 3.50342C298.81 3.50342 299.034 3.72727 299.034 4.00341C299.034 11.5949 299.034 18.0185 299.034 21.7465C299.034 22.0226 298.81 22.2465 298.534 22.2464C298.257 22.2464 298.034 22.0226 298.034 21.7464C298.034 18.0185 298.034 11.5949 298.034 4.00342C298.034 3.72728 298.258 3.50342 298.534 3.50342Z" fill="black"/>
<path d="M247.973 145.579V136.126L262.526 131.182L294.051 130.712L301.989 137.65V147.561L290.096 154.004H259.867L247.973 145.579Z" fill="white"/>
<path fill-rule="evenodd" clip-rule="evenodd" d="M244.613 142.729C244.787 142.515 245.102 142.483 245.316 142.658C248.314 145.105 250.563 147.009 252.648 148.774L252.649 148.775C254.734 150.54 256.655 152.167 259.003 154.064C259.218 154.237 259.251 154.552 259.078 154.767C258.904 154.982 258.589 155.015 258.374 154.842C256.017 152.937 254.089 151.304 252.004 149.539L252.003 149.538C249.917 147.773 247.674 145.874 244.684 143.433C244.47 143.258 244.438 142.943 244.613 142.729Z" fill="black"/>
<path fill-rule="evenodd" clip-rule="evenodd" d="M290.987 154.504C284.006 154.396 265.212 154.106 258.868 154.008C258.592 154.004 258.372 153.777 258.376 153.5C258.38 153.224 258.608 153.004 258.884 153.008C265.227 153.106 284.022 153.396 291.003 153.504C291.279 153.508 291.499 153.735 291.495 154.011C291.491 154.288 291.263 154.508 290.987 154.504Z" fill="black"/>
<path fill-rule="evenodd" clip-rule="evenodd" d="M248.12 133.284C248.396 133.284 248.62 133.508 248.62 133.784L248.62 148.553C248.62 148.829 248.396 149.053 248.12 149.053C247.844 149.053 247.62 148.829 247.62 148.553L247.62 133.784C247.62 133.508 247.844 133.284 248.12 133.284Z" fill="black"/>
<path fill-rule="evenodd" clip-rule="evenodd" d="M259.867 141.115C260.143 141.115 260.367 141.339 260.367 141.615V153.013C260.367 153.289 260.143 153.513 259.867 153.513C259.591 153.513 259.367 153.289 259.367 153.013V141.615C259.367 141.339 259.591 141.115 259.867 141.115Z" fill="black"/>
<path fill-rule="evenodd" clip-rule="evenodd" d="M290.096 140.619C290.372 140.619 290.596 140.843 290.596 141.119V154.994C290.596 155.27 290.372 155.494 290.096 155.494C289.82 155.494 289.596 155.27 289.596 154.994V141.119C289.596 140.843 289.82 140.619 290.096 140.619Z" fill="black"/>
<path fill-rule="evenodd" clip-rule="evenodd" d="M301.99 133.682C302.266 133.682 302.49 133.905 302.49 134.182V148.057C302.49 148.333 302.266 148.557 301.99 148.557C301.713 148.557 301.49 148.333 301.49 148.057V134.182C301.49 133.905 301.713 133.682 301.99 133.682Z" fill="black"/>
<path fill-rule="evenodd" clip-rule="evenodd" d="M246.861 134.79C247.01 134.558 247.32 134.491 247.552 134.64C251.962 137.475 253.63 138.529 255.662 139.812C256.826 140.548 258.11 141.359 260.098 142.624C260.331 142.772 260.4 143.081 260.251 143.314C260.103 143.547 259.794 143.616 259.561 143.468C257.578 142.206 256.296 141.395 255.131 140.66C253.097 139.375 251.424 138.318 247.011 135.481C246.779 135.332 246.712 135.023 246.861 134.79Z" fill="black"/>
<path fill-rule="evenodd" clip-rule="evenodd" d="M259.329 143.046C259.329 142.77 259.553 142.546 259.829 142.546C265.684 142.546 284.112 142.546 290.554 142.546C290.83 142.546 291.054 142.77 291.054 143.046C291.054 143.322 290.83 143.546 290.554 143.546C284.112 143.546 265.684 143.546 259.829 143.546C259.553 143.546 259.329 143.322 259.329 143.046Z" fill="black"/>
<path fill-rule="evenodd" clip-rule="evenodd" d="M290.796 128.49C290.96 128.268 291.272 128.22 291.495 128.383L291.199 128.786L290.904 129.189C290.681 129.026 290.633 128.713 290.796 128.49ZM291.199 128.786C290.904 129.189 290.904 129.189 290.904 129.189L291.279 129.465C291.521 129.642 291.871 129.898 292.303 130.215C293.168 130.847 294.362 131.721 295.682 132.684C298.319 134.608 301.458 136.891 303.457 138.319C303.682 138.479 303.994 138.427 304.154 138.203C304.315 137.978 304.263 137.666 304.038 137.505C302.044 136.081 298.909 133.801 296.271 131.876C294.952 130.913 293.758 130.04 292.894 129.408C292.462 129.091 292.112 128.835 291.87 128.658L291.495 128.383C291.495 128.383 291.495 128.383 291.199 128.786Z" fill="black"/>
<path fill-rule="evenodd" clip-rule="evenodd" d="M267.719 129.199C267.806 129.461 267.664 129.744 267.402 129.831C262.276 131.54 249.737 136.1 246.897 137.236C246.64 137.339 246.35 137.214 246.247 136.957C246.144 136.701 246.269 136.41 246.525 136.308C249.389 135.162 261.946 130.596 267.086 128.883C267.348 128.795 267.631 128.937 267.719 129.199Z" fill="black"/>
<path fill-rule="evenodd" clip-rule="evenodd" d="M280.728 130.908C274.369 130.952 267.978 130.997 261.541 130.997C261.265 130.997 261.041 130.773 261.041 130.497C261.041 130.221 261.265 129.997 261.541 129.997C267.974 129.997 274.362 129.953 280.721 129.908L280.812 129.907C287.14 129.863 293.441 129.818 299.728 129.818C300.005 129.818 300.228 130.042 300.228 130.318C300.228 130.595 300.005 130.818 299.728 130.818C293.444 130.818 287.147 130.863 280.817 130.907L280.728 130.908Z" fill="black"/>
<path fill-rule="evenodd" clip-rule="evenodd" d="M305.447 135.978C305.571 136.225 305.471 136.525 305.224 136.648C301.422 138.549 297.997 140.092 294.714 141.57C292.859 142.406 291.049 143.221 289.242 144.069C288.992 144.186 288.694 144.078 288.577 143.828C288.46 143.578 288.567 143.281 288.817 143.163C290.653 142.302 292.474 141.482 294.335 140.644C297.602 139.173 300.989 137.648 304.776 135.754C305.023 135.631 305.324 135.731 305.447 135.978ZM304.419 146.843C304.542 147.09 304.442 147.39 304.195 147.514L304.191 147.516C298.247 150.488 294.278 152.472 289.242 154.835C288.992 154.953 288.694 154.845 288.577 154.595C288.46 154.345 288.567 154.047 288.817 153.93C293.842 151.573 297.801 149.593 303.748 146.619C303.995 146.496 304.295 146.596 304.419 146.843Z" fill="black"/>
<path fill-rule="evenodd" clip-rule="evenodd" d="M252.079 137.666C252.344 137.744 252.496 138.022 252.418 138.287L249.94 146.712C249.862 146.977 249.584 147.128 249.319 147.05C249.054 146.972 248.902 146.694 248.98 146.429L251.458 138.005C251.536 137.74 251.814 137.588 252.079 137.666ZM255.532 139.644C255.799 139.713 255.96 139.986 255.891 140.253C255.496 141.788 254.93 143.369 254.375 144.917L254.371 144.929C253.815 146.482 253.272 147.999 252.899 149.445C252.83 149.712 252.558 149.873 252.29 149.804C252.023 149.735 251.862 149.462 251.931 149.195C252.315 147.704 252.871 146.151 253.421 144.617L253.434 144.58C253.991 143.023 254.541 141.486 254.923 140.004C254.992 139.736 255.264 139.575 255.532 139.644ZM259.027 142.129C259.291 142.213 259.436 142.494 259.353 142.757L256.314 152.323C256.23 152.586 255.949 152.732 255.686 152.648C255.423 152.565 255.277 152.283 255.361 152.02L258.399 142.455C258.483 142.191 258.764 142.046 259.027 142.129Z" fill="black"/>
<path fill-rule="evenodd" clip-rule="evenodd" d="M272.153 142.617C272.42 142.686 272.581 142.958 272.512 143.226C272.062 144.971 271.631 146.707 271.201 148.435L271.194 148.465C270.767 150.183 270.342 151.894 269.904 153.596C269.835 153.863 269.562 154.024 269.295 153.955C269.027 153.886 268.866 153.614 268.935 153.346C269.373 151.649 269.797 149.941 270.224 148.222L270.231 148.194C270.66 146.466 271.093 144.726 271.544 142.976C271.613 142.709 271.885 142.548 272.153 142.617ZM267.92 142.617C268.188 142.686 268.349 142.958 268.28 143.226C267.827 144.982 267.343 146.714 266.863 148.428L266.854 148.459C266.377 150.165 265.904 151.853 265.468 153.543C265.399 153.811 265.127 153.971 264.859 153.903C264.592 153.834 264.431 153.561 264.5 153.294C264.938 151.594 265.413 149.897 265.89 148.194L265.9 148.159C266.38 146.443 266.862 144.721 267.311 142.976C267.38 142.709 267.653 142.548 267.92 142.617ZM263.241 143.115C263.507 143.189 263.662 143.465 263.588 143.731L260.844 153.553C260.769 153.819 260.494 153.974 260.228 153.9C259.962 153.826 259.806 153.55 259.881 153.284L262.625 143.462C262.699 143.196 262.975 143.04 263.241 143.115Z" fill="black"/>
<path fill-rule="evenodd" clip-rule="evenodd" d="M284.354 143.117C284.621 143.186 284.782 143.458 284.713 143.726L282.156 153.65C282.087 153.918 281.814 154.079 281.547 154.01C281.279 153.941 281.118 153.668 281.187 153.401L283.745 143.476C283.814 143.209 284.086 143.048 284.354 143.117ZM279.894 143.117C280.161 143.186 280.322 143.458 280.253 143.726L277.696 153.65C277.627 153.918 277.354 154.079 277.087 154.01C276.819 153.941 276.658 153.668 276.727 153.401L279.285 143.476C279.354 143.209 279.626 143.048 279.894 143.117ZM275.929 143.099C276.197 143.168 276.358 143.441 276.289 143.708L273.731 153.632C273.662 153.9 273.39 154.061 273.122 153.992C272.855 153.923 272.694 153.65 272.763 153.383L275.32 143.458C275.389 143.191 275.662 143.03 275.929 143.099Z" fill="black"/>
<path fill-rule="evenodd" clip-rule="evenodd" d="M297.765 139.148C298.033 139.217 298.193 139.49 298.125 139.757L295.187 151.155C295.118 151.422 294.846 151.583 294.578 151.514C294.311 151.445 294.15 151.173 294.219 150.905L297.156 139.508C297.225 139.24 297.498 139.079 297.765 139.148ZM293.211 141.631C293.476 141.709 293.627 141.987 293.549 142.252L290.032 154.145C289.953 154.41 289.675 154.561 289.41 154.483C289.146 154.405 288.994 154.127 289.073 153.862L292.59 141.968C292.668 141.704 292.946 141.552 293.211 141.631ZM288.522 143.113C288.789 143.182 288.95 143.454 288.881 143.722L286.2 154.128C286.131 154.396 285.858 154.557 285.591 154.488C285.323 154.419 285.162 154.146 285.231 153.879L287.913 143.472C287.982 143.205 288.255 143.044 288.522 143.113Z" fill="black"/>
<path fill-rule="evenodd" clip-rule="evenodd" d="M301.729 137.166C301.996 137.236 302.157 137.509 302.087 137.776L299.005 149.669C298.935 149.937 298.662 150.097 298.395 150.028C298.128 149.959 297.967 149.686 298.037 149.418L301.119 137.525C301.189 137.258 301.462 137.097 301.729 137.166Z" fill="black"/>
<path fill-rule="evenodd" clip-rule="evenodd" d="M271.408 136.41H267.498L263.289 131.219L265.899 128.474V121.563H263.289L265.899 112.514H268.798L271.408 110.194V105.555L277.787 102.076L281.266 104.413V108.454L283.585 104.413L288.404 106.715L289.674 112.514L286.775 115.123V119.762H289.674L288.404 128.474L284.648 127.443L281.266 131.219L282.288 136.41L276.625 138.77L271.408 137.826V136.41ZM274.435 120.07L278.017 117.682L280.405 118.876L278.813 123.652L276.027 125.642L274.435 124.846V120.07Z" fill="white"/>
<path fill-rule="evenodd" clip-rule="evenodd" d="M262.847 121.125C262.933 120.863 263.216 120.72 263.478 120.806C263.905 120.946 264.335 121.035 264.813 121.126C266.231 121.396 267.651 121.632 269.078 121.87C269.738 121.98 270.399 122.09 271.063 122.204C271.335 122.25 271.518 122.509 271.471 122.781C271.424 123.053 271.166 123.236 270.894 123.189C270.241 123.077 269.585 122.968 268.927 122.858C267.495 122.62 266.055 122.38 264.626 122.108C264.145 122.017 263.66 121.918 263.166 121.756C262.904 121.67 262.761 121.387 262.847 121.125Z" fill="black"/>
<path fill-rule="evenodd" clip-rule="evenodd" d="M264.244 112.257C264.287 111.985 264.544 111.799 264.817 111.843C265.322 111.924 265.801 112.015 266.32 112.177C267.909 112.673 269.489 113.221 271.06 113.765C271.775 114.013 272.487 114.26 273.197 114.501C273.459 114.59 273.599 114.874 273.51 115.135C273.422 115.397 273.138 115.537 272.876 115.448C272.152 115.202 271.433 114.953 270.715 114.704C269.152 114.162 267.596 113.623 266.022 113.132C265.57 112.991 265.145 112.909 264.658 112.83C264.385 112.786 264.2 112.53 264.244 112.257Z" fill="black"/>
<path fill-rule="evenodd" clip-rule="evenodd" d="M270.503 105.169C270.589 104.907 270.872 104.764 271.134 104.85C272.783 105.393 274.47 105.811 276.173 106.233C276.883 106.409 277.596 106.585 278.31 106.772C278.577 106.842 278.737 107.115 278.667 107.382C278.597 107.649 278.324 107.809 278.057 107.739C277.37 107.56 276.673 107.387 275.972 107.213C274.254 106.788 272.508 106.356 270.821 105.8C270.559 105.714 270.416 105.431 270.503 105.169Z" fill="black"/>
<path fill-rule="evenodd" clip-rule="evenodd" d="M275.785 101.612C275.881 101.353 276.169 101.221 276.427 101.318C278.095 101.937 279.775 102.521 281.461 103.107C281.838 103.238 282.216 103.37 282.594 103.502C282.855 103.593 282.993 103.878 282.902 104.138C282.811 104.399 282.526 104.537 282.265 104.446C281.889 104.315 281.513 104.184 281.136 104.053C279.45 103.467 277.758 102.878 276.079 102.255C275.82 102.159 275.688 101.871 275.785 101.612Z" fill="black"/>
<path fill-rule="evenodd" clip-rule="evenodd" d="M282.78 104.438C282.844 104.169 283.113 104.003 283.382 104.067C284.707 104.382 286.019 104.828 287.299 105.262C287.791 105.429 288.279 105.595 288.76 105.75C289.023 105.835 289.167 106.117 289.082 106.38C288.997 106.643 288.715 106.787 288.452 106.702C287.941 106.536 287.435 106.365 286.933 106.194C285.67 105.766 284.426 105.344 283.15 105.04C282.882 104.976 282.716 104.706 282.78 104.438Z" fill="black"/>
<path fill-rule="evenodd" clip-rule="evenodd" d="M286.577 119.745C286.643 119.477 286.914 119.313 287.182 119.379C287.703 119.508 288.226 119.636 288.75 119.764C289.365 119.914 289.981 120.065 290.593 120.216C290.861 120.282 291.024 120.553 290.958 120.821C290.892 121.089 290.621 121.253 290.353 121.187C289.739 121.035 289.127 120.885 288.515 120.736C287.993 120.608 287.469 120.48 286.943 120.35C286.675 120.284 286.511 120.013 286.577 119.745Z" fill="black"/>
<path fill-rule="evenodd" clip-rule="evenodd" d="M284.324 127.409C284.386 127.14 284.654 126.972 284.923 127.034C285.799 127.236 286.674 127.465 287.541 127.692C287.939 127.797 288.336 127.901 288.731 128.002C288.998 128.07 289.16 128.342 289.091 128.61C289.023 128.877 288.751 129.039 288.483 128.971C288.076 128.867 287.672 128.761 287.269 128.655C286.41 128.43 285.559 128.207 284.699 128.008C284.43 127.946 284.262 127.678 284.324 127.409Z" fill="black"/>
<path fill-rule="evenodd" clip-rule="evenodd" d="M282.029 130.438C282.302 130.394 282.559 130.579 282.602 130.852C282.656 131.185 282.69 131.494 282.698 131.849C282.726 133.105 282.709 134.368 282.692 135.621C282.684 136.206 282.676 136.789 282.673 137.368C282.672 137.644 282.446 137.867 282.17 137.865C281.894 137.863 281.672 137.638 281.673 137.362C281.676 136.766 281.684 136.174 281.692 135.584C281.709 134.342 281.726 133.109 281.698 131.872C281.692 131.572 281.663 131.31 281.615 131.011C281.571 130.738 281.757 130.481 282.029 130.438Z" fill="black"/>
<path fill-rule="evenodd" clip-rule="evenodd" d="M276.601 133.586C276.876 133.564 277.117 133.77 277.138 134.045C277.225 135.152 277.249 136.289 277.273 137.407C277.288 138.104 277.303 138.794 277.332 139.466C277.344 139.742 277.131 139.976 276.855 139.988C276.579 140 276.345 139.786 276.333 139.51C276.301 138.787 276.287 138.078 276.272 137.375C276.249 136.286 276.227 135.213 276.141 134.123C276.12 133.848 276.325 133.607 276.601 133.586Z" fill="black"/>
<path fill-rule="evenodd" clip-rule="evenodd" d="M274.661 133.522C274.865 133.708 274.879 134.024 274.693 134.228C274.408 134.539 274.127 134.866 273.839 135.203C273.816 135.23 273.793 135.257 273.77 135.284C273.505 135.593 273.235 135.909 272.957 136.219C272.353 136.892 271.699 137.554 270.948 138.093C270.723 138.254 270.411 138.202 270.25 137.978C270.089 137.753 270.141 137.441 270.365 137.28C271.029 136.804 271.627 136.205 272.212 135.551C272.482 135.251 272.745 134.943 273.011 134.632C273.034 134.606 273.056 134.579 273.079 134.553C273.367 134.217 273.658 133.878 273.955 133.553C274.141 133.349 274.457 133.335 274.661 133.522Z" fill="black"/>
<path fill-rule="evenodd" clip-rule="evenodd" d="M272.375 127.89C272.562 128.093 272.549 128.409 272.346 128.597C271.934 128.977 271.516 129.342 271.103 129.705C270.067 130.612 269.055 131.498 268.214 132.533C268.04 132.748 267.725 132.78 267.51 132.606C267.296 132.432 267.263 132.117 267.438 131.903C268.336 130.797 269.447 129.824 270.507 128.896C270.906 128.546 271.298 128.203 271.669 127.861C271.872 127.674 272.188 127.687 272.375 127.89Z" fill="black"/>
<path fill-rule="evenodd" clip-rule="evenodd" d="M271.196 121.432C271.468 121.481 271.648 121.742 271.599 122.013C271.133 124.575 271.54 127.146 271.792 128.742C271.809 128.849 271.825 128.952 271.841 129.049C271.883 129.322 271.696 129.578 271.423 129.62C271.15 129.663 270.895 129.476 270.852 129.203C270.837 129.103 270.82 128.997 270.802 128.885C270.55 127.297 270.118 124.571 270.615 121.834C270.664 121.563 270.925 121.383 271.196 121.432Z" fill="black"/>
<path fill-rule="evenodd" clip-rule="evenodd" d="M277.463 111.387C277.597 111.628 277.51 111.932 277.268 112.067C275.041 113.304 274.201 114.457 273.596 115.486C273.456 115.724 273.15 115.803 272.912 115.663C272.674 115.523 272.594 115.217 272.734 114.979C273.416 113.82 274.377 112.529 276.783 111.192C277.024 111.058 277.328 111.145 277.463 111.387Z" fill="black"/>
<path fill-rule="evenodd" clip-rule="evenodd" d="M276.651 105.919C276.927 105.925 277.146 106.154 277.14 106.43C277.133 106.75 277.126 107.07 277.119 107.39C277.075 109.386 277.031 111.379 277.011 113.372C277.008 113.648 276.782 113.87 276.506 113.867C276.23 113.865 276.008 113.639 276.011 113.363C276.031 111.362 276.075 109.363 276.119 107.367C276.126 107.047 276.133 106.728 276.14 106.408C276.146 106.132 276.375 105.913 276.651 105.919Z" fill="black"/>
<path fill-rule="evenodd" clip-rule="evenodd" d="M281.465 103.538C281.741 103.538 281.965 103.762 281.965 104.038V109.764C281.965 110.04 281.741 110.264 281.465 110.264C281.189 110.264 280.965 110.04 280.965 109.764V104.038C280.965 103.762 281.189 103.538 281.465 103.538Z" fill="black"/>
<path fill-rule="evenodd" clip-rule="evenodd" d="M280.322 109.25C280.322 108.974 280.545 108.75 280.822 108.75C281.412 108.75 282.127 108.836 282.807 109.066C283.485 109.295 284.165 109.679 284.631 110.301C284.797 110.522 284.752 110.835 284.531 111.001C284.311 111.167 283.997 111.122 283.831 110.901C283.526 110.494 283.048 110.203 282.487 110.013C281.929 109.825 281.325 109.75 280.822 109.75C280.545 109.75 280.322 109.526 280.322 109.25Z" fill="black"/>
<path fill-rule="evenodd" clip-rule="evenodd" d="M289.67 104.459C289.864 104.656 289.862 104.972 289.665 105.166C289.194 105.631 288.724 106.097 288.253 106.564C287.155 107.652 286.054 108.743 284.944 109.82C284.625 110.129 284.316 110.407 283.952 110.679C283.731 110.845 283.418 110.8 283.252 110.579C283.087 110.358 283.131 110.045 283.352 109.879C283.671 109.64 283.947 109.393 284.248 109.102C285.354 108.029 286.448 106.944 287.545 105.858C288.017 105.39 288.489 104.922 288.963 104.455C289.159 104.261 289.476 104.263 289.67 104.459Z" fill="black"/>
<path fill-rule="evenodd" clip-rule="evenodd" d="M291.082 110.761C291.278 110.955 291.279 111.272 291.085 111.468C290.702 111.855 290.318 112.234 289.936 112.611C289.107 113.429 288.288 114.236 287.511 115.091C287.412 115.2 287.341 115.324 287.263 115.5C287.151 115.753 286.856 115.867 286.603 115.756C286.351 115.644 286.236 115.349 286.348 115.096C286.448 114.87 286.572 114.638 286.771 114.419C287.567 113.543 288.418 112.703 289.257 111.876C289.634 111.503 290.009 111.134 290.375 110.764C290.569 110.568 290.886 110.567 291.082 110.761Z" fill="black"/>
<path fill-rule="evenodd" clip-rule="evenodd" d="M287.463 105.404C287.704 105.269 288.009 105.356 288.143 105.597C288.481 106.204 288.632 106.807 288.781 107.405C288.789 107.439 288.798 107.473 288.806 107.506C288.938 108.034 289.054 108.551 289.168 109.061C289.361 109.925 289.55 110.77 289.807 111.614C289.815 111.64 289.823 111.661 289.83 111.676C289.832 111.68 289.834 111.684 289.835 111.687C290.071 111.789 290.193 112.056 290.111 112.304C290.023 112.566 289.74 112.707 289.478 112.62C289.068 112.483 288.914 112.111 288.851 111.905C288.585 111.033 288.379 110.114 288.178 109.219C288.065 108.717 287.955 108.223 287.836 107.749C287.831 107.728 287.826 107.707 287.82 107.686C287.663 107.057 287.542 106.572 287.27 106.084C287.135 105.843 287.222 105.538 287.463 105.404Z" fill="black"/>
<path fill-rule="evenodd" clip-rule="evenodd" d="M286.697 114.23C286.966 114.17 287.233 114.34 287.293 114.609C287.814 116.951 287.998 118.691 287.275 120.679C287.181 120.939 286.894 121.073 286.634 120.978C286.375 120.884 286.241 120.597 286.335 120.337C286.958 118.624 286.826 117.117 286.317 114.826C286.257 114.557 286.427 114.29 286.697 114.23Z" fill="black"/>
<path fill-rule="evenodd" clip-rule="evenodd" d="M289.366 119.821C289.639 119.779 289.894 119.965 289.937 120.238C290.178 121.79 289.883 123.561 289.451 125.166C289.064 126.606 288.552 127.96 288.175 128.961C288.13 129.081 288.086 129.196 288.045 129.305C287.948 129.563 287.66 129.694 287.401 129.597C287.143 129.501 287.012 129.212 287.109 128.954C287.151 128.843 287.194 128.727 287.24 128.607C287.618 127.604 288.112 126.295 288.486 124.906C288.906 123.342 289.158 121.735 288.949 120.392C288.906 120.119 289.093 119.863 289.366 119.821Z" fill="black"/>
<path fill-rule="evenodd" clip-rule="evenodd" d="M285.054 126.154C285.312 126.253 285.441 126.542 285.342 126.8C284.895 127.962 284.472 128.856 283.903 129.662C283.332 130.471 282.631 131.169 281.651 131.963C281.437 132.137 281.122 132.104 280.948 131.89C280.774 131.675 280.807 131.36 281.021 131.186C281.959 130.427 282.586 129.794 283.086 129.086C283.586 128.376 283.974 127.569 284.408 126.441C284.507 126.184 284.797 126.055 285.054 126.154Z" fill="black"/>
<path fill-rule="evenodd" clip-rule="evenodd" d="M283.57 135.92C283.679 136.174 283.561 136.468 283.308 136.577C282.214 137.046 281.395 137.387 280.705 137.674C279.403 138.216 278.563 138.565 277.207 139.22C276.771 139.431 276.457 139.522 276.014 139.596C275.741 139.641 275.484 139.457 275.438 139.185C275.393 138.912 275.577 138.655 275.849 138.609C276.209 138.55 276.431 138.485 276.772 138.32C278.153 137.653 279.026 137.289 280.348 136.739C281.036 136.452 281.847 136.115 282.914 135.658C283.167 135.549 283.461 135.667 283.57 135.92Z" fill="black"/>
<path fill-rule="evenodd" clip-rule="evenodd" d="M271.512 137.942C271.548 137.669 271.799 137.476 272.073 137.512C272.966 137.63 273.846 137.837 274.698 138.037C274.793 138.059 274.887 138.081 274.981 138.103C275.931 138.324 276.849 138.526 277.775 138.603C278.05 138.626 278.255 138.868 278.232 139.143C278.209 139.418 277.967 139.623 277.692 139.6C276.685 139.516 275.703 139.298 274.754 139.077C274.66 139.055 274.566 139.033 274.473 139.011C273.614 138.81 272.782 138.615 271.942 138.504C271.668 138.467 271.475 138.216 271.512 137.942Z" fill="black"/>
<path fill-rule="evenodd" clip-rule="evenodd" d="M271.743 135.52C272.017 135.481 272.27 135.671 272.309 135.944C272.345 136.2 272.38 136.453 272.415 136.705C272.483 137.203 272.55 137.694 272.629 138.188C272.673 138.46 272.487 138.717 272.215 138.76C271.942 138.804 271.686 138.618 271.642 138.346C271.561 137.841 271.491 137.33 271.422 136.826C271.388 136.577 271.354 136.329 271.319 136.085C271.28 135.812 271.47 135.559 271.743 135.52Z" fill="black"/>
<path fill-rule="evenodd" clip-rule="evenodd" d="M270.917 113.309C271.127 113.489 271.151 113.804 270.971 114.014C270.278 114.823 269.657 116.337 269.244 118.022C268.834 119.694 268.652 121.435 268.773 122.646C268.801 122.921 268.6 123.166 268.325 123.193C268.051 123.221 267.806 123.02 267.778 122.746C267.642 121.383 267.846 119.521 268.273 117.784C268.696 116.058 269.362 114.355 270.212 113.363C270.392 113.153 270.707 113.129 270.917 113.309Z" fill="black"/>
<path fill-rule="evenodd" clip-rule="evenodd" d="M266.714 111.963C266.956 112.095 267.045 112.399 266.913 112.641C265.395 115.425 264.331 118.654 264.401 121.72C264.407 121.996 264.188 122.225 263.912 122.231C263.636 122.237 263.407 122.018 263.401 121.742C263.326 118.446 264.465 115.041 266.035 112.163C266.168 111.92 266.471 111.831 266.714 111.963Z" fill="black"/>
<path fill-rule="evenodd" clip-rule="evenodd" d="M271.659 110.702C271.851 110.9 271.846 111.217 271.647 111.409C271.44 111.61 271.233 111.813 271.024 112.018C270.343 112.684 269.651 113.362 268.928 113.999C268.72 114.181 268.405 114.161 268.222 113.954C268.04 113.747 268.06 113.431 268.267 113.248C268.968 112.63 269.634 111.978 270.311 111.316C270.523 111.108 270.736 110.9 270.952 110.691C271.15 110.499 271.466 110.504 271.659 110.702Z" fill="black"/>
<path fill-rule="evenodd" clip-rule="evenodd" d="M271.429 105.019C271.705 105.019 271.929 105.243 271.929 105.519C271.929 106.505 271.891 107.497 271.854 108.478C271.837 108.929 271.82 109.378 271.807 109.823L271.807 109.842C271.799 110.107 271.796 110.187 271.839 110.315C271.926 110.577 271.785 110.86 271.523 110.947C271.261 111.035 270.978 110.893 270.89 110.631C270.79 110.329 270.798 110.08 270.806 109.854C270.806 109.834 270.807 109.814 270.808 109.793C270.821 109.331 270.839 108.872 270.856 108.417C270.893 107.446 270.929 106.486 270.929 105.519C270.929 105.243 271.153 105.019 271.429 105.019Z" fill="black"/>
<path fill-rule="evenodd" clip-rule="evenodd" d="M270.114 110.648C270.194 110.384 270.473 110.235 270.738 110.316C271.768 110.63 272.69 110.856 273.583 111.075C273.635 111.087 273.686 111.1 273.738 111.113C274.677 111.343 275.591 111.571 276.546 111.89C276.808 111.977 276.949 112.26 276.862 112.522C276.775 112.784 276.492 112.926 276.23 112.838C275.318 112.535 274.44 112.315 273.5 112.084C273.447 112.071 273.394 112.058 273.34 112.045C272.45 111.827 271.503 111.595 270.446 111.272C270.182 111.192 270.033 110.912 270.114 110.648Z" fill="black"/>
<path fill-rule="evenodd" clip-rule="evenodd" d="M284.569 103.361C284.8 103.512 284.865 103.822 284.715 104.053C284.38 104.566 284.046 105.077 283.711 105.587C283.077 106.553 282.445 107.517 281.821 108.49C281.672 108.722 281.363 108.79 281.131 108.641C280.898 108.491 280.83 108.182 280.98 107.95C281.606 106.973 282.243 106.001 282.879 105.032C283.213 104.523 283.546 104.015 283.877 103.507C284.028 103.276 284.337 103.211 284.569 103.361Z" fill="black"/>
<path fill-rule="evenodd" clip-rule="evenodd" d="M278.115 101.687C278.24 101.933 278.143 102.234 277.897 102.36C277.099 102.768 276.297 103.163 275.498 103.557C273.854 104.367 272.221 105.171 270.649 106.079C270.41 106.217 270.104 106.135 269.966 105.896C269.828 105.657 269.91 105.351 270.149 105.213C271.748 104.289 273.434 103.459 275.095 102.641C275.886 102.25 276.673 101.863 277.442 101.47C277.687 101.344 277.989 101.441 278.115 101.687Z" fill="black"/>
<path fill-rule="evenodd" clip-rule="evenodd" d="M284.142 102.617C284.287 102.853 284.214 103.161 283.979 103.305C282.849 104.001 281.685 104.642 280.535 105.276C280.289 105.412 280.043 105.547 279.798 105.683C279.491 105.853 279.18 106.031 278.864 106.212C277.945 106.738 276.989 107.286 276.002 107.713C275.748 107.823 275.454 107.707 275.344 107.453C275.234 107.2 275.351 106.905 275.604 106.796C276.536 106.392 277.421 105.886 278.326 105.367C278.652 105.181 278.98 104.993 279.314 104.808C279.563 104.67 279.811 104.533 280.059 104.397C281.209 103.763 282.347 103.135 283.454 102.454C283.69 102.309 283.998 102.382 284.142 102.617Z" fill="black"/>
<path fill-rule="evenodd" clip-rule="evenodd" d="M266.861 122.003C267.137 122.003 267.361 122.227 267.361 122.503C267.361 123.352 267.423 124.201 267.488 125.072L267.489 125.082C267.553 125.944 267.618 126.827 267.618 127.714C267.618 127.99 267.394 128.214 267.118 128.214C266.842 128.214 266.618 127.99 266.618 127.714C266.618 126.867 266.555 126.017 266.491 125.146L266.49 125.138C266.426 124.276 266.361 123.392 266.361 122.503C266.361 122.227 266.585 122.003 266.861 122.003Z" fill="black"/>
<path fill-rule="evenodd" clip-rule="evenodd" d="M266.043 127.48C266.11 127.212 266.381 127.049 266.649 127.116C267.837 127.413 268.921 127.657 270.243 127.955C270.909 128.104 271.635 128.268 272.466 128.458C272.735 128.52 272.903 128.788 272.841 129.058C272.78 129.327 272.511 129.495 272.242 129.433C271.423 129.245 270.702 129.083 270.038 128.933C268.707 128.634 267.606 128.386 266.406 128.086C266.139 128.019 265.976 127.748 266.043 127.48Z" fill="black"/>
<path fill-rule="evenodd" clip-rule="evenodd" d="M267.654 127.029C267.855 127.219 267.863 127.536 267.673 127.736C266.757 128.702 265.838 129.669 264.91 130.628C264.836 130.704 264.76 130.785 264.682 130.868C264.352 131.218 263.983 131.609 263.545 131.918C263.32 132.077 263.008 132.024 262.849 131.798C262.689 131.572 262.743 131.26 262.969 131.101C263.316 130.856 263.599 130.557 263.922 130.215C264.009 130.124 264.098 130.029 264.192 129.932C265.116 128.978 266.032 128.014 266.947 127.048C267.137 126.848 267.454 126.839 267.654 127.029Z" fill="black"/>
<path fill-rule="evenodd" clip-rule="evenodd" d="M262.506 131.307C262.547 131.034 262.802 130.846 263.075 130.887C264.121 131.045 265.013 131.223 265.973 131.415C265.999 131.42 266.026 131.426 266.052 131.431C266.99 131.619 268 131.822 269.299 132.038C269.571 132.083 269.755 132.341 269.71 132.613C269.665 132.886 269.407 133.07 269.135 133.024C267.819 132.805 266.795 132.6 265.858 132.412C265.831 132.407 265.803 132.401 265.776 132.396C264.816 132.203 263.945 132.03 262.925 131.876C262.652 131.834 262.464 131.58 262.506 131.307Z" fill="black"/>
<path fill-rule="evenodd" clip-rule="evenodd" d="M273.324 133.446C273.392 133.179 273.664 133.017 273.932 133.085C275.258 133.421 276.607 133.513 278.016 133.585C278.292 133.599 278.504 133.834 278.49 134.11C278.476 134.385 278.241 134.598 277.965 134.584C276.557 134.512 275.118 134.418 273.686 134.054C273.418 133.986 273.256 133.714 273.324 133.446Z" fill="black"/>
<path fill-rule="evenodd" clip-rule="evenodd" d="M267.595 131.62C267.819 131.458 268.131 131.507 268.294 131.73C269.02 132.727 269.688 133.776 270.347 134.81C270.65 135.285 270.95 135.756 271.253 136.218C271.334 136.341 271.401 136.45 271.467 136.556C271.552 136.695 271.635 136.828 271.739 136.979C271.905 137.22 272.067 137.412 272.243 137.544C272.464 137.709 272.509 138.023 272.343 138.244C272.177 138.464 271.864 138.509 271.643 138.344C271.34 138.116 271.105 137.822 270.915 137.546C270.809 137.392 270.692 137.204 270.588 137.038C270.524 136.935 270.465 136.84 270.417 136.767C270.098 136.28 269.789 135.796 269.483 135.315C268.833 134.295 268.193 133.291 267.486 132.319C267.323 132.096 267.372 131.783 267.595 131.62Z" fill="black"/>
<path fill-rule="evenodd" clip-rule="evenodd" d="M262.803 131.066C263.013 130.886 263.329 130.911 263.508 131.12C264.689 132.498 265.881 133.978 266.941 135.294C267.273 135.705 267.591 136.1 267.892 136.471C268.066 136.685 268.033 137 267.819 137.174C267.604 137.348 267.289 137.315 267.115 137.101C266.81 136.725 266.489 136.326 266.156 135.912C265.097 134.599 263.919 133.136 262.749 131.771C262.569 131.562 262.594 131.246 262.803 131.066Z" fill="black"/>
<path fill-rule="evenodd" clip-rule="evenodd" d="M265.975 136.39C265.98 136.114 266.208 135.895 266.484 135.9C267.427 135.918 268.336 136.157 269.184 136.391C269.243 136.407 269.302 136.423 269.36 136.44C270.161 136.661 270.907 136.868 271.663 136.931C271.938 136.954 272.143 137.196 272.12 137.471C272.097 137.746 271.855 137.951 271.58 137.928C270.726 137.856 269.892 137.625 269.111 137.408C269.046 137.39 268.982 137.373 268.918 137.355C268.063 137.119 267.266 136.915 266.465 136.9C266.189 136.895 265.969 136.666 265.975 136.39Z" fill="black"/>
<path fill-rule="evenodd" clip-rule="evenodd" d="M273.527 124.147C273.684 123.921 273.996 123.864 274.223 124.022C274.566 124.261 274.894 124.487 275.207 124.703C276.995 125.94 278.33 126.863 279.662 127.973C279.874 128.15 279.903 128.465 279.726 128.677C279.549 128.89 279.234 128.918 279.022 128.741C277.727 127.662 276.434 126.768 274.644 125.53C274.33 125.313 274 125.085 273.652 124.843C273.426 124.686 273.369 124.374 273.527 124.147Z" fill="black"/>
<path fill-rule="evenodd" clip-rule="evenodd" d="M275.279 118.081C275.554 118.112 275.751 118.359 275.721 118.633C275.62 119.539 275.518 120.621 275.415 121.709C275.26 123.359 275.102 125.023 274.947 126.112C274.908 126.385 274.655 126.575 274.381 126.536C274.108 126.497 273.918 126.244 273.957 125.971C274.11 124.898 274.262 123.288 274.415 121.665C274.518 120.571 274.622 119.47 274.727 118.523C274.757 118.248 275.005 118.051 275.279 118.081Z" fill="black"/>
<path fill-rule="evenodd" clip-rule="evenodd" d="M280.252 115.697C280.421 115.915 280.382 116.23 280.164 116.399C279.707 116.754 278.752 117.433 277.75 118.145C277.603 118.249 277.455 118.355 277.307 118.46C276.137 119.292 274.997 120.109 274.514 120.508C274.301 120.683 273.985 120.653 273.81 120.44C273.634 120.227 273.664 119.912 273.877 119.736C274.395 119.308 275.574 118.465 276.727 117.645C276.876 117.539 277.024 117.434 277.17 117.33C278.178 116.614 279.112 115.951 279.55 115.61C279.768 115.44 280.082 115.479 280.252 115.697Z" fill="black"/>
<path fill-rule="evenodd" clip-rule="evenodd" d="M277.76 115.61C277.907 115.376 278.216 115.306 278.45 115.453C279.592 116.17 280.824 116.737 282.081 117.314C282.596 117.552 283.116 117.791 283.635 118.043C283.778 118.112 283.931 118.177 284.101 118.25C284.19 118.288 284.285 118.328 284.385 118.372C284.657 118.491 284.957 118.633 285.217 118.806C285.446 118.959 285.509 119.269 285.355 119.499C285.202 119.729 284.892 119.791 284.662 119.638C284.479 119.516 284.247 119.404 283.983 119.288C283.906 119.254 283.823 119.219 283.739 119.183C283.555 119.104 283.363 119.022 283.198 118.942C282.721 118.71 282.226 118.483 281.724 118.252C280.444 117.663 279.119 117.053 277.918 116.299C277.684 116.153 277.614 115.844 277.76 115.61Z" fill="black"/>
<path fill-rule="evenodd" clip-rule="evenodd" d="M283.634 124.504C283.773 124.743 283.692 125.049 283.453 125.187C283.202 125.333 282.684 125.647 282.053 126.029C280.581 126.92 278.496 128.182 277.764 128.548C277.517 128.671 277.216 128.571 277.093 128.324C276.969 128.077 277.069 127.777 277.316 127.653C278.012 127.305 279.98 126.114 281.44 125.23C282.105 124.827 282.665 124.488 282.95 124.323C283.189 124.184 283.495 124.265 283.634 124.504Z" fill="black"/>
<path fill-rule="evenodd" clip-rule="evenodd" d="M283.825 117.834C284.095 117.894 284.265 118.161 284.205 118.431C283.951 119.574 283.76 120.719 283.567 121.879L283.566 121.885C283.373 123.039 283.179 124.208 282.918 125.379C282.858 125.649 282.591 125.819 282.322 125.759C282.052 125.699 281.882 125.432 281.942 125.162C282.196 124.02 282.387 122.875 282.58 121.714L282.581 121.708C282.774 120.554 282.969 119.385 283.229 118.214C283.289 117.944 283.556 117.774 283.825 117.834Z" fill="black"/>
<path fill-rule="evenodd" clip-rule="evenodd" d="M280.41 117.703C280.68 117.76 280.853 118.025 280.796 118.296C280.755 118.493 280.713 118.692 280.672 118.89C280.517 119.627 280.362 120.368 280.194 121.106C280.127 121.402 280.058 121.695 279.991 121.986C279.862 122.537 279.735 123.084 279.616 123.636L279.597 123.722C279.593 123.745 279.59 123.758 279.588 123.769C279.586 123.782 279.585 123.793 279.585 123.822C279.585 124.098 279.361 124.322 279.085 124.322C278.808 124.322 278.585 124.098 278.585 123.822C278.585 123.67 278.607 123.571 278.629 123.469C278.632 123.454 278.636 123.44 278.639 123.426C278.759 122.866 278.89 122.304 279.019 121.748C279.087 121.458 279.154 121.17 279.219 120.884C279.385 120.155 279.538 119.425 279.692 118.69C279.734 118.49 279.775 118.29 279.818 118.089C279.875 117.819 280.14 117.646 280.41 117.703Z" fill="black"/>
<path fill-rule="evenodd" clip-rule="evenodd" d="M279.811 123.643C279.945 123.884 279.858 124.188 279.617 124.322C279.13 124.593 278.613 124.827 278.121 125.05C277.968 125.119 277.818 125.186 277.672 125.254C277.522 125.324 277.37 125.396 277.215 125.469C276.715 125.705 276.192 125.952 275.66 126.154C275.401 126.252 275.113 126.123 275.014 125.865C274.916 125.606 275.046 125.318 275.304 125.219C275.796 125.032 276.27 124.809 276.762 124.576C276.923 124.5 277.086 124.423 277.252 124.347C277.416 124.271 277.577 124.198 277.736 124.126C278.22 123.907 278.684 123.697 279.131 123.448C279.373 123.314 279.677 123.401 279.811 123.643Z" fill="black"/>
<path fill-rule="evenodd" clip-rule="evenodd" d="M277.608 117.325C277.732 117.078 278.032 116.978 278.279 117.102L278.281 117.103C279.303 117.614 279.804 117.864 281.072 118.371C281.328 118.474 281.453 118.765 281.35 119.021C281.248 119.278 280.957 119.402 280.7 119.3C279.395 118.778 278.867 118.514 277.832 117.996C277.585 117.873 277.485 117.572 277.608 117.325Z" fill="black"/>
<path fill-rule="evenodd" clip-rule="evenodd" d="M285.244 118.533C285.269 118.808 285.066 119.051 284.791 119.076C283.429 119.201 281.417 119.303 279.856 119.303C279.58 119.303 279.356 119.079 279.356 118.803C279.356 118.527 279.58 118.303 279.856 118.303C281.384 118.303 283.366 118.202 284.701 118.08C284.976 118.055 285.219 118.258 285.244 118.533Z" fill="black"/>
<path fill-rule="evenodd" clip-rule="evenodd" d="M278.019 123.544C278.083 123.275 278.353 123.109 278.621 123.173C278.915 123.243 279.206 123.314 279.496 123.384C280.181 123.549 280.859 123.713 281.544 123.865C281.666 123.892 281.786 123.919 281.904 123.946C282.543 124.09 283.149 124.226 283.766 124.288C284.041 124.316 284.242 124.561 284.214 124.835C284.187 125.11 283.942 125.311 283.667 125.283C282.983 125.215 282.308 125.062 281.671 124.918C281.555 124.892 281.441 124.866 281.328 124.841C280.633 124.687 279.94 124.52 279.251 124.353C278.963 124.284 278.676 124.214 278.39 124.146C278.121 124.082 277.955 123.813 278.019 123.544Z" fill="black"/>
<path fill-rule="evenodd" clip-rule="evenodd" d="M283.563 122.029C283.505 122.299 283.239 122.47 282.969 122.412C281.78 122.156 280.598 121.9 279.417 121.64C279.147 121.58 278.977 121.313 279.037 121.044C279.096 120.774 279.363 120.604 279.633 120.663C280.811 120.923 281.991 121.179 283.179 121.435C283.449 121.493 283.621 121.759 283.563 122.029ZM281.816 117.042C281.922 117.298 281.8 117.59 281.545 117.695C280.691 118.047 279.962 118.329 279.415 118.532C279.156 118.628 278.868 118.496 278.772 118.237C278.676 117.978 278.808 117.691 279.067 117.595C279.604 117.396 280.321 117.118 281.163 116.771C281.419 116.665 281.711 116.787 281.816 117.042Z" fill="black"/>
<path fill-rule="evenodd" clip-rule="evenodd" d="M280.704 126.672C280.59 126.923 280.293 127.034 280.042 126.92L276.629 125.368C276.378 125.254 276.267 124.958 276.381 124.706C276.495 124.455 276.792 124.344 277.043 124.458L280.456 126.01C280.707 126.124 280.818 126.42 280.704 126.672Z" fill="black"/>
<path fill-rule="evenodd" clip-rule="evenodd" d="M277.005 136.352C276.96 136.624 276.703 136.809 276.431 136.765L272.722 136.163C272.449 136.119 272.264 135.862 272.308 135.59C272.353 135.317 272.61 135.132 272.882 135.176L276.591 135.778C276.864 135.822 277.049 136.079 277.005 136.352ZM269.712 134.837C269.677 135.111 269.427 135.304 269.153 135.269L265.293 134.775C265.019 134.74 264.825 134.489 264.86 134.215C264.895 133.941 265.146 133.748 265.42 133.783L269.28 134.277C269.554 134.313 269.748 134.563 269.712 134.837Z" fill="black"/>
<path fill-rule="evenodd" clip-rule="evenodd" d="M286.899 108.248C286.829 108.515 286.556 108.675 286.289 108.605C285.512 108.403 284.869 108.199 284.271 108.006C284.197 107.982 284.123 107.958 284.05 107.934C283.535 107.767 283.053 107.611 282.529 107.466C282.263 107.393 282.107 107.117 282.18 106.851C282.254 106.585 282.529 106.429 282.796 106.502C283.342 106.653 283.846 106.817 284.359 106.983C284.432 107.007 284.506 107.031 284.579 107.055C285.171 107.246 285.793 107.442 286.541 107.638C286.808 107.707 286.968 107.98 286.899 108.248Z" fill="black"/>
<path fill-rule="evenodd" clip-rule="evenodd" d="M270.154 130.392C270.098 130.663 269.833 130.836 269.563 130.78C268.812 130.623 268.152 130.473 267.506 130.325C267.46 130.315 267.414 130.304 267.368 130.294C266.769 130.157 266.177 130.022 265.527 129.883C265.257 129.826 265.084 129.56 265.142 129.29C265.199 129.02 265.465 128.848 265.735 128.905C266.393 129.045 266.991 129.182 267.59 129.319C267.636 129.329 267.682 129.34 267.729 129.351C268.374 129.498 269.027 129.646 269.767 129.801C270.037 129.857 270.211 130.122 270.154 130.392ZM271.08 125.493C271.022 125.763 270.756 125.934 270.486 125.876L267.14 125.152C266.871 125.094 266.699 124.828 266.757 124.558C266.816 124.288 267.082 124.117 267.352 124.175L270.697 124.899C270.967 124.957 271.139 125.223 271.08 125.493Z" fill="black"/>
<path fill-rule="evenodd" clip-rule="evenodd" d="M269.089 119.277C269.033 119.548 268.768 119.721 268.497 119.664L263.799 118.679C263.528 118.622 263.355 118.357 263.412 118.087C263.469 117.817 263.734 117.644 264.004 117.7L268.702 118.685C268.973 118.742 269.146 119.007 269.089 119.277ZM269.532 116.455C269.473 116.725 269.206 116.895 268.936 116.836L265.076 115.989C264.806 115.93 264.636 115.663 264.695 115.394C264.754 115.124 265.021 114.953 265.29 115.012L269.151 115.859C269.42 115.919 269.591 116.185 269.532 116.455Z" fill="black"/>
<path fill-rule="evenodd" clip-rule="evenodd" d="M276.912 109.554C276.856 109.825 276.591 109.998 276.321 109.942L270.908 108.819C270.638 108.763 270.464 108.499 270.52 108.228C270.576 107.958 270.841 107.784 271.111 107.84L276.524 108.963C276.794 109.019 276.968 109.284 276.912 109.554ZM274.167 113.883C274.07 114.142 273.782 114.273 273.523 114.176L269.938 112.831C269.679 112.735 269.548 112.446 269.645 112.188C269.742 111.929 270.03 111.798 270.289 111.895L273.874 113.24C274.133 113.337 274.264 113.625 274.167 113.883Z" fill="black"/>
<path fill-rule="evenodd" clip-rule="evenodd" d="M280.005 105.541C279.928 105.806 279.652 105.958 279.388 105.883C278.559 105.647 277.924 105.458 277.405 105.299L274.103 104.327C273.842 104.251 273.69 103.979 273.761 103.716C273.833 103.454 274.101 103.297 274.365 103.363C275.303 103.597 275.886 103.779 276.691 104.031C276.998 104.127 277.338 104.233 277.742 104.356L279.666 104.922C279.93 105 280.082 105.277 280.005 105.541Z" fill="black"/>
<path d="M159.181 94.8414V35.2099L195.534 19.2656L247.193 29.47V86.8693L213.71 105.365L200.955 103.132L200.495 84.9759L172.813 97.8762L159.181 94.8414Z" fill="white"/>
<path fill-rule="evenodd" clip-rule="evenodd" d="M172.051 59.812C172.327 59.812 172.551 60.0359 172.551 60.3121C172.55 71.0378 172.551 77.2773 172.551 83.8004C172.552 88.1597 172.552 92.6457 172.552 98.6818C172.552 98.958 172.328 99.1818 172.052 99.1818C171.776 99.1818 171.552 98.958 171.552 98.6818C171.552 92.6459 171.552 88.16 171.551 83.8007C171.551 77.2775 171.55 71.0378 171.551 60.312C171.551 60.0358 171.775 59.812 172.051 59.812Z" fill="black"/>
<path fill-rule="evenodd" clip-rule="evenodd" d="M200.662 67.3052C200.939 67.3052 201.162 67.5291 201.162 67.8052C201.161 78.4202 201.162 83.7322 201.162 89.4432C201.163 93.3593 201.163 97.4629 201.163 103.592C201.163 103.869 200.939 104.092 200.663 104.092C200.387 104.092 200.163 103.868 200.163 103.592C200.163 97.4631 200.163 93.3595 200.162 89.4435C200.162 83.7324 200.161 78.4201 200.162 67.8051C200.162 67.529 200.386 67.3052 200.662 67.3052Z" fill="black"/>
<path fill-rule="evenodd" clip-rule="evenodd" d="M159.375 33.8374C159.651 33.8374 159.875 34.0613 159.875 34.3374C159.874 46.677 159.874 63.4951 159.874 77.6884C159.874 84.0768 159.874 89.9334 159.874 94.6106C159.874 94.8867 159.65 95.1106 159.374 95.1106C159.098 95.1106 158.874 94.8867 158.874 94.6105C158.874 89.9332 158.874 84.0763 158.874 77.6875C158.874 63.4944 158.874 46.6766 158.875 34.3374C158.875 34.0612 159.098 33.8374 159.375 33.8374Z" fill="black"/>
<path fill-rule="evenodd" clip-rule="evenodd" d="M214.287 35.9697C214.563 35.9697 214.787 36.1936 214.787 36.4698C214.786 50.7371 214.786 70.1826 214.787 86.5934C214.787 93.9804 214.787 100.752 214.787 106.161C214.787 106.437 214.563 106.661 214.287 106.661C214.011 106.661 213.787 106.437 213.787 106.161C213.787 100.752 213.787 93.9804 213.787 86.5935C213.786 70.1827 213.786 50.7371 213.787 36.4697C213.787 36.1935 214.01 35.9697 214.287 35.9697Z" fill="black"/>
<path fill-rule="evenodd" clip-rule="evenodd" d="M246.983 25.0698C247.26 25.0698 247.483 25.2937 247.483 25.5699C247.483 39.7535 247.483 55.2461 247.483 69.2004C247.483 75.6011 247.484 81.6782 247.484 87.1568C247.484 87.433 247.26 87.6568 246.984 87.6568C246.708 87.6568 246.484 87.433 246.484 87.1568C246.484 81.6782 246.483 75.6012 246.483 69.2005C246.483 55.2461 246.483 39.7534 246.483 25.5698C246.483 25.2936 246.707 25.0698 246.983 25.0698Z" fill="black"/>
<path fill-rule="evenodd" clip-rule="evenodd" d="M197.914 18.0069C198.012 18.2651 197.882 18.5538 197.624 18.6517C187.957 22.3193 165.359 32.0118 156.118 35.9754C155.721 36.1457 155.349 36.3055 155.003 36.4537C154.75 36.5625 154.456 36.445 154.347 36.1912C154.238 35.9374 154.355 35.6434 154.609 35.5346C154.957 35.3855 155.332 35.2247 155.732 35.0531C164.969 31.0911 187.581 21.3924 197.27 17.7167C197.528 17.6188 197.817 17.7487 197.914 18.0069Z" fill="black"/>
<path fill-rule="evenodd" clip-rule="evenodd" d="M252.886 26.0385C253.004 26.2883 252.896 26.5862 252.647 26.7039C236.228 34.44 227.291 38.6437 209.047 47.1536C208.797 47.2704 208.5 47.1621 208.383 46.9119C208.266 46.6616 208.374 46.3641 208.625 46.2474C226.866 37.7382 235.802 33.5351 252.22 25.7993C252.47 25.6816 252.768 25.7887 252.886 26.0385Z" fill="black"/>
<path fill-rule="evenodd" clip-rule="evenodd" d="M249.81 85.2835C249.939 85.5278 249.846 85.8302 249.601 85.959C241.634 90.1601 235.071 93.814 229.318 97.017C221.578 101.326 215.304 104.82 209.047 107.731C208.796 107.848 208.499 107.739 208.383 107.489C208.266 107.238 208.375 106.941 208.625 106.824C214.86 103.923 221.079 100.46 228.781 96.171C234.531 92.9691 241.108 89.3069 249.135 85.0744C249.379 84.9456 249.682 85.0392 249.81 85.2835Z" fill="black"/>
<path fill-rule="evenodd" clip-rule="evenodd" d="M190.597 17.6948C190.647 17.4233 190.908 17.2442 191.18 17.2946C198.374 18.6322 212.967 21.4718 227.377 24.2755C235.751 25.9049 244.063 27.5223 250.825 28.8258C251.096 28.878 251.273 29.1402 251.221 29.4114C251.169 29.6825 250.907 29.86 250.635 29.8077C243.868 28.5032 235.553 26.8852 227.177 25.2554C212.772 22.4524 198.188 19.6147 190.997 18.2778C190.726 18.2273 190.547 17.9663 190.597 17.6948ZM153.508 33.283C153.559 33.0115 153.82 32.8322 154.091 32.8825C156.643 33.3556 160.192 34.0314 164.401 34.8329C179.663 37.7392 203.601 42.2978 220.151 44.8309C220.424 44.8727 220.612 45.1279 220.57 45.4008C220.528 45.6738 220.273 45.8612 220 45.8194C203.429 43.2831 179.458 38.7182 164.198 35.8123C159.996 35.0119 156.454 34.3374 153.909 33.8658C153.637 33.8154 153.458 33.5545 153.508 33.283ZM170.194 64.66C170.238 64.3874 170.495 64.2021 170.767 64.2462C178.801 65.5444 184.632 66.6134 190.801 67.7445C195.22 68.5548 199.814 69.3969 205.514 70.3779C205.786 70.4247 205.969 70.6833 205.922 70.9555C205.875 71.2276 205.617 71.4103 205.345 71.3634C199.618 70.3779 195.02 69.535 190.602 68.7248C184.447 67.5962 178.639 66.5312 170.608 65.2333C170.335 65.1893 170.15 64.9326 170.194 64.66Z" fill="black"/>
<path fill-rule="evenodd" clip-rule="evenodd" d="M158.891 94.4795C158.964 94.213 159.238 94.0556 159.505 94.1279C163.491 95.2095 167.424 96.1546 171.401 96.9843C171.671 97.0407 171.844 97.3056 171.788 97.5759C171.732 97.8462 171.467 98.0196 171.196 97.9632C167.2 97.1293 163.247 96.1796 159.243 95.093C158.976 95.0207 158.819 94.746 158.891 94.4795Z" fill="black"/>
<path fill-rule="evenodd" clip-rule="evenodd" d="M197.454 101.735C197.526 101.468 197.801 101.311 198.067 101.383C204.432 103.11 213.86 104.962 220.368 106.082C220.641 106.129 220.823 106.387 220.776 106.66C220.73 106.932 220.471 107.114 220.199 107.067C213.681 105.946 204.216 104.088 197.805 102.348C197.539 102.276 197.382 102.001 197.454 101.735Z" fill="black"/>
<path fill-rule="evenodd" clip-rule="evenodd" d="M227.267 37.9146C227.534 37.9835 227.695 38.2561 227.626 38.5235L215.152 86.9302C215.083 87.1976 214.81 87.3585 214.543 87.2896C214.275 87.2207 214.114 86.948 214.183 86.6806L226.658 38.274C226.727 38.0066 226.999 37.8457 227.267 37.9146ZM223.01 39.8279C223.277 39.8968 223.438 40.1694 223.369 40.4368L215.152 72.3254C215.083 72.5928 214.81 72.7537 214.543 72.6848C214.275 72.6159 214.114 72.3433 214.183 72.0759L222.401 40.1873C222.47 39.9199 222.743 39.759 223.01 39.8279ZM219.255 41.618C219.523 41.6869 219.684 41.9596 219.615 42.227L214.488 62.1211C214.419 62.3885 214.147 62.5494 213.879 62.4805C213.612 62.4116 213.451 62.1389 213.52 61.8715L218.647 41.9774C218.715 41.71 218.988 41.5491 219.255 41.618Z" fill="black"/>
<path fill-rule="evenodd" clip-rule="evenodd" d="M239.622 32.1748C239.89 32.2437 240.05 32.5164 239.982 32.7838L222.396 101.025C222.327 101.293 222.054 101.454 221.787 101.385C221.519 101.316 221.358 101.043 221.427 100.776L239.013 32.5342C239.082 32.2668 239.355 32.1059 239.622 32.1748ZM235.448 33.7693C235.715 33.8382 235.876 34.1108 235.807 34.3782L217.974 103.576C217.906 103.844 217.633 104.005 217.365 103.936C217.098 103.867 216.937 103.594 217.006 103.327L234.839 34.1287C234.908 33.8613 235.18 33.7003 235.448 33.7693ZM231.661 35.6826C231.929 35.7515 232.09 36.0241 232.021 36.2915L214.833 102.988C214.764 103.256 214.491 103.417 214.224 103.348C213.956 103.279 213.795 103.006 213.864 102.739L231.052 36.042C231.121 35.7746 231.394 35.6137 231.661 35.6826Z" fill="black"/>
<path fill-rule="evenodd" clip-rule="evenodd" d="M247.264 30.2614C247.531 30.3303 247.692 30.603 247.623 30.8704L230.859 95.923C230.79 96.1904 230.518 96.3513 230.25 96.2824C229.983 96.2135 229.822 95.9408 229.891 95.6734L246.655 30.6208C246.724 30.3534 246.997 30.1925 247.264 30.2614ZM243.971 30.2614C244.238 30.3303 244.399 30.603 244.33 30.8704L227.073 97.8363C227.004 98.1037 226.731 98.2646 226.464 98.1957C226.197 98.1268 226.036 97.8541 226.105 97.5867L243.362 30.6208C243.431 30.3534 243.703 30.1925 243.971 30.2614ZM247.987 42.0602C248.255 42.1291 248.416 42.4017 248.347 42.6691L235.198 93.6908C235.129 93.9582 234.857 94.1191 234.589 94.0502C234.322 93.9813 234.161 93.7086 234.23 93.4412L247.378 42.4196C247.447 42.1522 247.72 41.9913 247.987 42.0602Z" fill="black"/>
<path fill-rule="evenodd" clip-rule="evenodd" d="M247.052 60.3792C247.319 60.4481 247.48 60.7207 247.411 60.9881L239.641 91.1393C239.572 91.4067 239.3 91.5676 239.032 91.4987C238.765 91.4298 238.604 91.1571 238.673 90.8897L246.443 60.7386C246.512 60.4712 246.785 60.3103 247.052 60.3792ZM247.052 74.2671C247.319 74.336 247.48 74.6087 247.411 74.8761L243.796 88.9071C243.727 89.1745 243.454 89.3354 243.187 89.2665C242.919 89.1976 242.758 88.9249 242.827 88.6575L246.443 74.6265C246.512 74.3591 246.785 74.1982 247.052 74.2671Z" fill="black"/>
<path fill-rule="evenodd" clip-rule="evenodd" d="M184.186 66.7821C184.303 67.0323 184.195 67.3299 183.945 67.4468L172.121 72.9728C171.871 73.0897 171.573 72.9817 171.457 72.7315C171.34 72.4813 171.448 72.1837 171.698 72.0668L183.522 66.5409C183.772 66.4239 184.07 66.532 184.186 66.7821ZM178.083 65.6115C178.2 65.8617 178.092 66.1593 177.842 66.2762L172.121 68.9498C171.871 69.0667 171.573 68.9587 171.457 68.7085C171.34 68.4583 171.448 68.1608 171.698 68.0438L177.419 65.3702C177.669 65.2533 177.966 65.3613 178.083 65.6115Z" fill="black"/>
<path fill-rule="evenodd" clip-rule="evenodd" d="M201.088 69.8973C201.205 70.1475 201.097 70.445 200.847 70.562L172.466 83.8258C172.216 83.9427 171.918 83.8347 171.801 83.5845C171.684 83.3344 171.792 83.0368 172.042 82.9199L200.423 69.656C200.673 69.5391 200.971 69.6471 201.088 69.8973ZM194.391 69.004C194.508 69.2541 194.4 69.5517 194.15 69.6686L172.466 79.8028C172.216 79.9197 171.918 79.8117 171.801 79.5616C171.684 79.3114 171.792 79.0138 172.042 78.8969L193.727 68.7627C193.977 68.6458 194.274 68.7538 194.391 69.004ZM189.344 67.8429C189.46 68.0931 189.352 68.3907 189.102 68.5076L172.466 76.2827C172.216 76.3996 171.918 76.2916 171.801 76.0414C171.684 75.7913 171.792 75.4937 172.042 75.3768L188.679 67.6016C188.929 67.4847 189.227 67.5928 189.344 67.8429Z" fill="black"/>
<path fill-rule="evenodd" clip-rule="evenodd" d="M201.364 73.3524C201.481 73.6026 201.373 73.9001 201.123 74.0171L172.466 87.4099C172.216 87.5268 171.918 87.4188 171.801 87.1686C171.684 86.9185 171.792 86.6209 172.042 86.504L200.699 73.1111C200.949 72.9942 201.247 73.1022 201.364 73.3524ZM201.364 76.8725C201.481 77.1227 201.373 77.4203 201.123 77.5372L172.466 90.93C172.216 91.0469 171.918 90.9389 171.801 90.6887C171.684 90.4386 171.792 90.141 172.042 90.0241L200.699 76.6312C200.949 76.5143 201.247 76.6223 201.364 76.8725ZM200.769 81.1735C200.886 81.4237 200.778 81.7213 200.528 81.8382L172.466 94.953C172.216 95.0699 171.918 94.9619 171.801 94.7117C171.684 94.4616 171.792 94.164 172.042 94.0471L200.104 80.9322C200.355 80.8153 200.652 80.9233 200.769 81.1735ZM200.769 84.7643C200.886 85.0145 200.778 85.3121 200.528 85.429L172.466 98.5438C172.216 98.6608 171.918 98.5527 171.801 98.3026C171.684 98.0524 171.792 97.7548 172.042 97.6379L200.104 84.5231C200.355 84.4061 200.652 84.5142 200.769 84.7643Z" fill="black"/>
<defs>
<radialGradient id="paint0_radial_7710_223119" cx="0" cy="0" r="1" gradientUnits="userSpaceOnUse" gradientTransform="translate(211.395 90.7464) rotate(90.9937) scale(30.0502 64.4718)">
<stop/>
<stop offset="1" stop-color="#3E7BFA" stop-opacity="0"/>
</radialGradient>
<radialGradient id="paint1_radial_7710_223119" cx="0" cy="0" r="1" gradientUnits="userSpaceOnUse" gradientTransform="translate(127.395 150.746) rotate(90.9937) scale(30.0502 64.4718)">
<stop/>
<stop offset="1" stop-color="#3E7BFA" stop-opacity="0"/>
</radialGradient>
<radialGradient id="paint2_radial_7710_223119" cx="0" cy="0" r="1" gradientUnits="userSpaceOnUse" gradientTransform="translate(279.395 144.746) rotate(90.9937) scale(30.0502 64.4718)">
<stop/>
<stop offset="1" stop-color="#3E7BFA" stop-opacity="0"/>
</radialGradient>
</defs>
</svg>
