<svg width="320" height="201" viewBox="0 0 320 201" fill="none" xmlns="http://www.w3.org/2000/svg">
<rect width="320" height="199.659" transform="translate(0 0.616455)" fill="white"/>
<path opacity="0.5" fill-rule="evenodd" clip-rule="evenodd" d="M167.563 97.7859C167.678 98.017 167.585 98.2981 167.353 98.4137C165.163 99.5069 162.952 100.6 160.746 101.684C169.913 102.364 182.796 103.179 191.479 103.691C190.579 102.509 189.679 101.317 188.8 100.147C188.644 99.94 188.686 99.6467 188.893 99.4916C189.1 99.3366 189.394 99.3785 189.55 99.5852C190.587 100.967 191.653 102.376 192.712 103.764C194.654 103.877 196.343 103.972 197.675 104.044C197.933 104.058 198.131 104.278 198.118 104.536C198.104 104.795 197.883 104.992 197.624 104.979C196.479 104.917 195.069 104.838 193.462 104.745C196.337 108.499 199.099 112.01 201.04 114.292C202.284 113.671 203.428 113.086 204.421 112.557C204.649 112.436 204.933 112.522 205.055 112.75C205.177 112.978 205.09 113.261 204.862 113.383C204.186 113.743 203.441 114.129 202.643 114.534C212.028 114.91 224.616 115.46 233.497 115.883C232.988 115.334 232.473 114.781 231.956 114.225C231.78 114.035 231.791 113.739 231.98 113.563C232.17 113.388 232.467 113.398 232.643 113.588C233.382 114.383 234.115 115.171 234.836 115.947C237.165 116.059 239.188 116.161 240.762 116.245C241.02 116.259 241.218 116.48 241.204 116.738C241.191 116.996 240.97 117.194 240.711 117.18C239.359 117.107 237.674 117.022 235.748 116.928C239.729 121.211 243.303 125.049 245.738 127.567C246.658 127.092 247.571 126.614 248.484 126.128C248.713 126.006 248.997 126.093 249.119 126.321C249.24 126.549 249.154 126.832 248.926 126.954C248.092 127.397 247.259 127.835 246.42 128.268C246.686 128.539 246.933 128.789 247.162 129.018C247.345 129.201 247.345 129.497 247.162 129.68C246.979 129.862 246.682 129.862 246.499 129.68C246.211 129.392 245.894 129.07 245.549 128.717C240.487 131.313 235.199 133.822 228.68 136.915L228.679 136.915L227.444 137.501C229.531 137.603 231.35 137.694 232.793 137.772C233.051 137.786 233.249 138.006 233.235 138.265C233.221 138.523 233.001 138.72 232.742 138.707C230.912 138.608 228.474 138.487 225.652 138.352L225.53 138.41L226.43 139.379L226.499 139.453C230.894 144.181 234.862 148.451 237.461 151.131C238.57 150.554 239.596 150.016 240.516 149.525C240.745 149.404 241.029 149.49 241.151 149.718C241.272 149.946 241.186 150.23 240.958 150.351C240.104 150.806 239.16 151.302 238.144 151.831C238.349 152.039 238.542 152.234 238.724 152.415C238.907 152.598 238.907 152.894 238.724 153.077C238.541 153.26 238.244 153.26 238.061 153.077C237.819 152.836 237.556 152.57 237.275 152.282C231.385 155.331 223.372 159.332 216.141 162.837C217.666 162.912 219.015 162.981 220.136 163.041C220.395 163.055 220.593 163.276 220.579 163.534C220.565 163.792 220.344 163.99 220.086 163.976C218.562 163.894 216.617 163.796 214.38 163.688C213.2 164.256 212.048 164.808 210.938 165.335C210.705 165.446 210.425 165.347 210.314 165.114C210.202 164.881 210.302 164.601 210.535 164.49C211.15 164.198 211.777 163.899 212.414 163.594C202.61 163.129 188.525 162.518 179.116 162.151L179.216 162.268C179.384 162.464 179.362 162.759 179.165 162.928C178.968 163.096 178.672 163.073 178.504 162.877C178.45 162.814 178.395 162.749 178.339 162.684L178.213 162.536C172.132 165.721 162.933 170.326 154.799 174.263L154.981 174.273C155.239 174.286 155.438 174.507 155.424 174.765C155.41 175.023 155.189 175.221 154.93 175.207C154.367 175.177 153.74 175.142 153.057 175.104C152.011 175.607 150.99 176.096 150.001 176.566C149.767 176.677 149.488 176.578 149.376 176.344C149.265 176.111 149.364 175.832 149.598 175.721C150.098 175.483 150.606 175.24 151.122 174.994C142.48 174.495 127.745 173.573 117.675 172.823L117.844 173.076C117.988 173.291 117.93 173.581 117.714 173.725C117.499 173.868 117.208 173.81 117.064 173.595C116.874 173.31 116.682 173.023 116.487 172.734C115.109 172.629 113.834 172.529 112.693 172.434C112.435 172.412 112.243 172.186 112.265 171.928C112.286 171.671 112.513 171.48 112.771 171.501C113.702 171.579 114.724 171.66 115.818 171.744C113.493 168.315 110.796 164.472 107.272 159.536C105.842 160.241 104.458 160.925 103.133 161.587C102.902 161.702 102.62 161.608 102.504 161.377C102.389 161.146 102.483 160.865 102.714 160.749C103.754 160.231 104.829 159.698 105.934 159.152L104.5 159.071L104.49 159.071H104.49H104.49L104.49 159.071L104.49 159.071L104.49 159.071L104.49 159.071L104.489 159.071L104.489 159.071C96.3575 158.612 84.973 157.969 73.9561 157.899C74.2151 158.283 74.4697 158.662 74.7206 159.038C74.8642 159.253 74.806 159.543 74.5906 159.687C74.3751 159.83 74.0841 159.772 73.9405 159.557C73.5762 159.011 73.2039 158.458 72.8217 157.893C72.5434 157.893 72.2654 157.892 71.9878 157.892C71.7289 157.892 71.519 157.683 71.519 157.424C71.519 157.166 71.7289 156.956 71.9878 156.956L72.185 156.956C69.9108 153.621 67.267 149.864 63.8582 145.093C63.0536 145.437 62.2328 145.79 61.3923 146.155C61.1549 146.258 60.8788 146.15 60.7756 145.913C60.6723 145.676 60.7811 145.4 61.0185 145.297C61.7956 144.96 62.5554 144.632 63.3008 144.313L63.1678 144.127C63.0173 143.917 63.0661 143.624 63.2768 143.474C63.4875 143.324 63.7802 143.373 63.9307 143.583L64.183 143.936C66.4603 142.964 68.6098 142.063 70.7154 141.181L70.7154 141.18L70.7155 141.18L70.7156 141.18L70.7157 141.18L70.7157 141.18L70.7158 141.18L70.716 141.18L70.7162 141.18C76.7799 138.639 82.48 136.249 89.8223 132.765C89.8065 132.715 89.7988 132.662 89.8006 132.608C89.8029 132.537 89.821 132.47 89.8514 132.41C87.751 129.335 85.3327 125.893 82.2913 121.63C81.4379 121.995 80.5664 122.37 79.6727 122.758C79.4353 122.861 79.1591 122.752 79.0559 122.515C78.9527 122.278 79.0615 122.003 79.2989 121.9C80.1293 121.539 80.94 121.19 81.7345 120.85C81.4867 120.503 81.2349 120.151 80.9789 119.793C80.8285 119.583 80.8773 119.29 81.0879 119.14C81.2986 118.99 81.5913 119.039 81.7418 119.249C82.039 119.664 82.3305 120.072 82.6167 120.473C84.8364 119.526 86.9359 118.646 88.9934 117.784L88.9941 117.784L88.9948 117.783L88.9949 117.783L88.9957 117.783L88.9958 117.783L88.9959 117.783L88.996 117.783C93.8592 115.745 98.4884 113.804 103.918 111.318C103.883 111.252 103.863 111.177 103.863 111.097C103.863 110.839 104.073 110.629 104.332 110.629C104.69 110.629 105.05 110.63 105.409 110.631C106.652 110.054 107.94 109.448 109.283 108.804C109.516 108.692 109.796 108.791 109.908 109.024C110.02 109.257 109.922 109.536 109.689 109.648C108.973 109.991 108.273 110.323 107.587 110.646C118.227 110.756 129.076 111.368 136.892 111.809L136.893 111.81L137.498 111.844C136.96 111.089 136.402 110.308 135.823 109.498C135.672 109.288 135.721 108.995 135.932 108.845C136.143 108.695 136.435 108.744 136.586 108.954C137.232 109.858 137.852 110.726 138.448 111.562C142.193 109.701 146.357 107.671 150.709 105.549L150.71 105.549L150.712 105.548L150.712 105.548L151.469 105.179C153.369 104.252 155.303 103.309 157.251 102.356C156.596 102.304 155.974 102.254 155.387 102.205C155.129 102.184 154.937 101.957 154.959 101.7C154.98 101.442 155.207 101.251 155.465 101.272C156.507 101.359 157.661 101.451 158.904 101.546C161.58 100.233 164.273 98.9049 166.934 97.5766C167.165 97.461 167.447 97.5547 167.563 97.7859ZM198.945 115.325C198.806 115.319 198.668 115.314 198.531 115.309C198.272 115.299 198.07 115.081 198.08 114.823C198.09 114.565 198.308 114.363 198.567 114.373C199.009 114.39 199.462 114.408 199.928 114.426C197.886 111.993 195.089 108.42 192.227 104.673C183.05 104.135 168.583 103.221 159.088 102.498C156.658 103.69 154.243 104.868 151.88 106.02L151.125 106.388L151.124 106.389C147.104 108.348 143.248 110.228 139.735 111.969C140.142 111.991 140.537 112.013 140.92 112.034C141.178 112.047 141.376 112.268 141.362 112.526C141.348 112.784 141.128 112.982 140.869 112.968C140.394 112.943 139.901 112.915 139.39 112.887C142.234 116.892 144.508 120.154 146.516 123.129C146.834 123.153 147.156 123.178 147.484 123.202C149.613 122.24 151.857 121.198 154.283 120.035C154.517 119.924 154.797 120.022 154.909 120.255C155.021 120.488 154.922 120.767 154.689 120.879C152.841 121.765 151.097 122.581 149.429 123.345C158.335 123.993 170.157 124.741 178.4 125.229C178.367 125.061 178.428 124.888 178.558 124.779L178.001 124.18L178 124.179C177.246 123.368 176.48 122.543 175.706 121.711C175.529 121.522 175.54 121.225 175.73 121.05C175.92 120.874 176.216 120.885 176.393 121.074C177.128 121.865 177.857 122.649 178.574 123.421L178.599 123.447L178.616 123.466L178.678 123.532L178.687 123.542L178.687 123.542C178.943 123.817 179.197 124.091 179.45 124.362C183.299 122.645 192.079 118.673 198.945 115.325ZM180.123 125.087C184.423 123.166 194.014 118.819 200.911 115.401C210.753 115.79 224.968 116.41 234.409 116.863C238.539 121.307 242.293 125.344 244.868 128.014C239.898 130.556 234.692 133.026 228.278 136.069L228.278 136.069L228.278 136.07L228.212 136.101C227.32 136.524 226.404 136.959 225.462 137.406L224.556 137.363L224.205 136.985C224.029 136.796 223.732 136.785 223.542 136.961C223.442 137.054 223.391 137.181 223.393 137.308C213.647 136.852 200.508 136.285 191.633 135.94C192.689 135.228 193.78 134.484 194.911 133.703C195.124 133.556 195.177 133.264 195.03 133.052C194.883 132.839 194.591 132.786 194.378 132.933C192.919 133.941 191.53 134.884 190.194 135.779C188.108 133.65 184.93 130.253 181.284 126.335C182.678 126.415 183.909 126.484 184.93 126.539C185.189 126.553 185.41 126.355 185.424 126.097C185.438 125.839 185.239 125.618 184.981 125.604C183.728 125.537 182.16 125.448 180.362 125.344C180.283 125.258 180.203 125.173 180.123 125.087ZM214.187 162.742C221.695 159.121 230.31 154.829 236.593 151.58C233.982 148.88 230.094 144.697 225.814 140.092L225.813 140.091C225.258 139.493 224.696 138.889 224.129 138.28C214.121 137.809 200.158 137.206 191.049 136.854C191.044 136.967 190.999 137.079 190.912 137.166C190.729 137.349 190.432 137.349 190.249 137.166C190.191 137.107 190.131 137.048 190.07 136.987C185.049 140.329 180.742 142.997 176.229 145.793L176.229 145.793L176.229 145.793L176.228 145.793C174.43 146.907 172.598 148.042 170.676 149.247C171.368 149.3 172.003 149.348 172.572 149.39C172.83 149.409 173.024 149.633 173.005 149.891C172.986 150.149 172.761 150.342 172.503 150.323C171.673 150.262 170.703 150.188 169.621 150.105C172.781 154.271 175.982 158.393 178.301 161.183L178.741 161.2C179.029 161.048 179.308 160.9 179.579 160.756C179.807 160.634 180.091 160.72 180.213 160.948C180.266 161.048 180.28 161.157 180.259 161.26C190.23 161.653 204.726 162.285 214.187 162.742ZM177.455 161.631C177.454 161.709 177.472 161.783 177.506 161.849C171.048 165.225 161.228 170.13 152.868 174.156C144.394 173.678 127.753 172.644 117.011 171.835C114.63 168.306 111.876 164.375 108.24 159.28L108.525 159.295C108.784 159.309 109.005 159.111 109.018 158.853C109.022 158.796 109.014 158.74 108.998 158.688C111.38 157.52 113.875 156.303 116.437 155.054L117.192 154.686C122.231 152.23 127.506 149.655 132.665 147.08C132.727 147.049 132.779 147.006 132.819 146.956C133.169 146.99 133.527 147.025 133.893 147.06C134.43 147.716 134.929 148.313 135.38 148.839C135.549 149.035 135.845 149.058 136.041 148.89C136.238 148.721 136.261 148.426 136.092 148.23C135.816 147.908 135.522 147.559 135.212 147.186C144.921 148.106 159.033 149.277 167.786 149.962C167.47 150.163 167.151 150.366 166.828 150.571C166.61 150.71 166.546 150.999 166.685 151.217C166.825 151.435 167.114 151.499 167.333 151.36C167.803 151.06 168.267 150.765 168.726 150.475C171.879 154.635 175.095 158.782 177.455 161.631ZM147.652 124.153C157.274 124.87 171.169 125.745 179.931 126.256C183.781 130.396 187.175 134.03 189.401 136.307C184.462 139.591 180.216 142.221 175.757 144.984L175.757 144.984L175.757 144.984L175.756 144.984C173.622 146.306 171.439 147.658 169.108 149.127L168.866 149.108C168.412 148.508 167.962 147.91 167.516 147.317C167.361 147.11 167.067 147.068 166.86 147.223C166.653 147.379 166.611 147.672 166.766 147.879C167.048 148.254 167.332 148.632 167.618 149.01C158.566 148.3 143.996 147.089 134.372 146.166C131.83 143.05 128.486 138.708 125.303 134.489L125.4 134.494C125.659 134.508 125.88 134.31 125.894 134.052C125.905 133.844 125.779 133.661 125.595 133.59C128.706 132.247 131.557 131.052 134.335 129.887L134.335 129.887C138.332 128.212 142.18 126.599 146.441 124.697L146.596 124.928C146.739 125.143 147.03 125.201 147.246 125.058C147.461 124.914 147.519 124.624 147.376 124.409L147.308 124.308L147.652 124.153ZM137.225 112.766L136.834 112.744C128.533 112.275 116.843 111.616 105.615 111.568C99.592 114.357 94.5925 116.452 89.3353 118.656L89.3351 118.656L89.3348 118.656L89.3342 118.656L89.3339 118.657C87.3408 119.492 85.3106 120.343 83.1736 121.253C86.2561 125.576 88.6991 129.055 90.8234 132.172L91.0559 132.18C91.1656 132.143 91.2818 132.149 91.3836 132.191C104.391 132.614 115.431 133.045 123.56 133.46C123.583 133.354 123.643 133.256 123.736 133.185C123.891 133.07 124.094 133.064 124.252 133.154C124.267 133.146 124.283 133.138 124.299 133.131C127.795 131.614 130.941 130.295 133.996 129.014L133.996 129.014L133.996 129.014C137.87 127.391 141.595 125.829 145.694 124.005C144.617 123.922 143.611 123.842 142.693 123.765C142.435 123.744 142.243 123.518 142.265 123.26C142.286 123.003 142.513 122.811 142.771 122.833C143.56 122.898 144.415 122.967 145.323 123.038C143.32 120.084 141.04 116.823 138.193 112.82L138.04 112.812L137.822 112.92C137.609 113.026 137.355 112.956 137.225 112.766ZM124.081 134.424C115.936 134.002 104.733 133.562 91.4737 133.13C91.8345 133.663 92.1866 134.187 92.5317 134.704C92.6753 134.919 92.6171 135.209 92.4017 135.353C92.1863 135.496 91.8952 135.438 91.7516 135.223C91.364 134.642 90.9674 134.053 90.5593 133.451C83.0343 137.032 77.222 139.468 71.055 142.053L71.0549 142.053L71.0548 142.053L71.0547 142.054L71.0545 142.054L71.0543 142.054C69.0135 142.909 66.9339 143.781 64.7405 144.716C68.2738 149.663 70.9855 153.522 73.3204 156.959C84.5631 157.009 96.2607 157.669 104.548 158.137L104.548 158.137C105.166 158.172 105.765 158.205 106.343 158.238L106.291 158.165C106.141 157.955 106.19 157.662 106.4 157.512C106.611 157.362 106.904 157.411 107.054 157.621L107.543 158.304L107.644 158.31C110.306 157.002 113.119 155.63 116.016 154.218L116.017 154.217L116.022 154.215L116.023 154.215L116.024 154.214L116.781 153.845C121.463 151.562 126.346 149.18 131.148 146.79C130.868 146.761 130.595 146.733 130.329 146.706C130.072 146.679 129.885 146.449 129.912 146.192C129.938 145.935 130.169 145.748 130.426 145.775C131.24 145.859 132.123 145.948 133.063 146.04C130.46 142.813 127.166 138.522 124.081 134.424Z" fill="#6938C0"/>
<path fill-rule="evenodd" clip-rule="evenodd" d="M78.1641 24.5971C78.4386 24.5669 78.6857 24.7645 78.716 25.0385C78.7217 25.0901 78.7223 25.1795 78.7226 25.2564C78.723 25.3501 78.7225 25.4781 78.7214 25.6372C78.719 25.9557 78.7138 26.4045 78.7063 26.9641C78.6929 27.9702 78.672 29.3378 78.6473 30.957C78.6445 31.1392 78.6417 31.3244 78.6388 31.5128C78.582 35.2389 78.5082 40.1525 78.4562 45.0529C78.4042 49.9541 78.3742 54.8389 78.405 58.5085C78.4204 60.3443 78.4509 61.8703 78.5012 62.9403C78.5264 63.4772 78.5561 63.8888 78.5898 64.1641C78.5944 64.2021 78.599 64.2362 78.6034 64.2666C79.842 64.5295 81.1007 64.6214 82.4043 64.7166C82.5585 64.7279 82.7133 64.7392 82.8688 64.7508C84.3197 64.8595 85.7701 64.92 87.2298 64.9809C87.655 64.9986 88.081 65.0164 88.508 65.0354C90.3951 65.1194 92.2946 65.2273 94.1923 65.4641C94.4717 65.4989 94.8006 65.5789 95.0835 65.6477C95.1145 65.6553 95.145 65.6627 95.1748 65.6699C95.5131 65.7517 95.7426 65.8001 95.8638 65.8001C96.1399 65.8001 96.3638 66.0236 96.3638 66.2993C96.3638 66.575 96.1399 66.7984 95.8638 66.7984C95.5961 66.7984 95.2335 66.7112 94.9395 66.6402C94.9112 66.6333 94.8832 66.6265 94.8553 66.6198C94.5577 66.5476 94.287 66.482 94.0682 66.4547C92.212 66.223 90.3455 66.1165 88.4634 66.0327C88.0428 66.014 87.621 65.9964 87.1984 65.9788C85.7357 65.9178 84.2631 65.8563 82.794 65.7463C82.6389 65.7347 82.4831 65.7234 82.3269 65.712C80.9394 65.611 79.5123 65.5072 78.1051 65.1784C77.8641 65.1221 77.7621 64.9272 77.7418 64.8884L77.7412 64.8873C77.7048 64.8178 77.6827 64.7462 77.6685 64.6925C77.6386 64.5802 77.616 64.439 77.5972 64.2851C77.5588 63.9718 77.5278 63.5302 77.5023 62.9871C77.4511 61.8972 77.4204 60.3556 77.405 58.5169C77.3742 54.8373 77.4043 49.9446 77.4563 45.0424C77.5083 40.1394 77.5822 35.2237 77.6389 31.4976C77.6418 31.3093 77.6446 31.124 77.6474 30.942C77.6721 29.3224 77.693 27.9558 77.7064 26.9507C77.7139 26.3915 77.7191 25.9453 77.7214 25.6299C77.7225 25.472 77.723 25.3484 77.7226 25.2604C77.7224 25.2078 77.7218 25.176 77.7215 25.1592C77.7213 25.1426 77.7212 25.1407 77.722 25.148C77.6917 24.874 77.8897 24.6274 78.1641 24.5971Z" fill="#B0B1C4"/>
<path fill-rule="evenodd" clip-rule="evenodd" d="M93.0779 62.7406C93.3541 62.7406 93.5779 62.9641 93.5779 63.2397V63.9874C93.7477 64.0464 93.9692 64.1468 94.2294 64.2647C94.2546 64.2761 94.2801 64.2877 94.3059 64.2994C94.6888 64.4726 95.3492 64.7006 96.0256 64.9342C96.3362 65.0414 96.6503 65.1498 96.9424 65.2547C97.3755 65.4101 97.7933 65.5692 98.0193 65.7005C98.0735 65.732 98.1606 65.7862 98.2326 65.8646C98.2681 65.9034 98.3336 65.9837 98.3652 66.1037C98.4033 66.249 98.38 66.4128 98.2817 66.5478C98.2004 66.6595 98.0968 66.7113 98.0428 66.7339C97.9827 66.759 97.9256 66.7719 97.8833 66.7793C97.7982 66.7941 97.7043 66.7983 97.6129 66.7983H95.4708C95.322 66.8226 95.169 66.8506 95.0123 66.8793C94.5602 66.962 94.0777 67.0503 93.5779 67.0716V67.2286L92.5779 67.2289V67.0708C92.4658 67.0741 92.3759 67.0731 92.3071 67.0682C92.2632 67.065 92.1851 67.0579 92.1066 67.0315C92.0746 67.0207 91.9765 66.9862 91.889 66.8951C91.8391 66.8432 91.784 66.7635 91.7594 66.655C91.7341 66.5436 91.7497 66.4402 91.7815 66.3586C91.836 66.2186 91.9357 66.1446 91.9644 66.1239C92.0062 66.0935 92.0458 66.0736 92.0706 66.0621C92.1218 66.0383 92.1752 66.0207 92.2186 66.0078C92.3094 65.9807 92.4329 65.9527 92.5779 65.9263V65.6347C92.5779 65.4036 92.5699 65.2202 92.5629 65.0577C92.5598 64.9863 92.5568 64.919 92.5548 64.8534C92.5518 64.7551 92.5505 64.6474 92.5608 64.5491C92.5639 64.5194 92.5687 64.4816 92.5779 64.439V63.2397C92.5779 62.9641 92.8018 62.7406 93.0779 62.7406ZM95.0588 65.8H93.9447C93.8247 65.8 93.7014 65.8037 93.5779 65.8105V65.0666C93.6581 65.1023 93.751 65.1443 93.8595 65.1934C93.8705 65.1984 93.8817 65.2035 93.893 65.2086C94.2389 65.3651 94.7927 65.5634 95.3638 65.762C95.323 65.767 95.2814 65.7722 95.2395 65.7774C95.1808 65.7847 95.1204 65.7922 95.0588 65.8Z" fill="#B0B1C4"/>
<path fill-rule="evenodd" clip-rule="evenodd" d="M253.223 100.341C264.256 111.995 272.42 126.733 276.308 134.243C276.435 134.488 276.339 134.789 276.094 134.916C275.849 135.042 275.547 134.947 275.42 134.702C271.54 127.209 263.429 112.574 252.497 101.027C241.552 89.4656 227.925 81.1428 212.959 85.8771C189.057 95.8569 175.486 116.168 171.181 122.615C171.028 122.844 170.718 122.906 170.488 122.753C170.258 122.6 170.196 122.29 170.349 122.061L170.355 122.053C174.674 115.585 188.391 95.0448 212.593 84.9475L212.614 84.939L212.635 84.9323C228.188 80.0003 242.208 88.7058 253.223 100.341Z" fill="#B0B1C4"/>
<path fill-rule="evenodd" clip-rule="evenodd" d="M67.9138 24.2803C68.1899 24.2813 68.413 24.5055 68.412 24.7812C68.3779 34.3001 68.3209 43.8156 68.0683 53.3374C68.0237 55.0186 68.0366 56.5791 68.0514 58.3757C68.0597 59.3688 68.0685 60.4341 68.0685 61.6318C68.0685 62.6251 68.3056 64.4952 68.9747 66.0991C69.6529 67.725 70.6822 68.8828 72.1807 68.8828H72.2555L72.3271 68.9046C73.3393 69.2139 74.956 69.3751 76.9319 69.4321C78.8939 69.4887 81.1621 69.4419 83.4509 69.3554C85.2006 69.2893 86.9687 69.1994 88.6168 69.1157C91.2552 68.9816 93.5859 68.8632 95.0402 68.8828C95.3526 68.887 95.6736 68.8906 96.0005 68.8942C97.7512 68.9135 99.6728 68.9348 101.36 69.0699C102.362 69.1501 103.3 69.2718 104.083 69.4626C104.849 69.6492 105.543 69.9191 105.985 70.346C106.79 71.1236 107.101 72.1551 107.229 73.2473C107.32 74.028 107.322 74.8986 107.324 75.7791C107.325 76.1117 107.326 76.4458 107.332 76.777C107.386 79.973 107.367 85.2821 107.349 90.4897C107.34 93.0548 107.332 95.5953 107.332 97.8465C107.332 98.1222 107.108 98.3456 106.832 98.3456C106.555 98.3456 106.332 98.1222 106.332 97.8465C106.332 95.5849 106.34 93.0378 106.349 90.469C106.367 85.2686 106.386 79.9798 106.332 76.7938C106.325 76.4242 106.325 76.0674 106.324 75.7225C106.322 74.8659 106.32 74.0834 106.236 73.3632C106.119 72.3697 105.854 71.6087 105.29 71.0634C105.047 70.829 104.573 70.6095 103.846 70.4325C103.137 70.2597 102.259 70.1434 101.28 70.065C99.6306 69.9329 97.7506 69.912 95.9985 69.8926C95.6693 69.8889 95.3445 69.8853 95.0267 69.881C93.6006 69.8618 91.3316 69.9773 88.7275 70.1098C87.0731 70.1941 85.2835 70.2852 83.4888 70.353C81.1924 70.4398 78.8982 70.4875 76.9031 70.43C74.9619 70.374 73.2569 70.2178 72.1051 69.8803C70.0183 69.8413 68.7632 68.1888 68.0515 66.4829C67.3222 64.7345 67.0685 62.7296 67.0685 61.6318C67.0685 60.455 67.0598 59.3982 67.0516 58.4075C67.0367 56.5975 67.0236 55.0082 67.0686 53.311C67.3209 43.8016 67.3779 34.2961 67.412 24.7776C67.413 24.502 67.6376 24.2793 67.9138 24.2803Z" fill="black"/>
<path fill-rule="evenodd" clip-rule="evenodd" d="M112.989 95.8374C115.863 95.6662 118.873 95.6187 119.786 95.6187C120.728 95.6187 122.399 95.784 123.69 96.106C124.319 96.2627 124.939 96.4752 125.324 96.7741C125.519 96.9253 125.731 97.1588 125.766 97.4874C125.801 97.8314 125.627 98.1143 125.414 98.3209L125.338 98.3946L125.238 98.4312C120.269 100.259 114.688 100.136 110.569 99.6565C110.606 99.6749 110.636 99.6886 110.656 99.6977C110.659 99.6991 110.662 99.7003 110.664 99.7013C110.879 99.7697 111.027 99.9779 111.01 100.212C110.991 100.487 110.751 100.694 110.476 100.675C110.411 100.67 110.36 100.653 110.352 100.65C110.352 100.65 110.351 100.65 110.351 100.65C110.334 100.645 110.318 100.639 110.308 100.635C110.287 100.626 110.265 100.617 110.245 100.608C110.203 100.589 110.15 100.564 110.089 100.533C109.966 100.473 109.8 100.387 109.608 100.283C109.225 100.075 108.727 99.7873 108.249 99.4706C108.159 99.4113 108.07 99.3502 107.98 99.2878C107.958 99.284 107.936 99.2803 107.913 99.2765C107.727 99.2451 107.583 99.1147 107.525 98.9486C107.317 98.7829 107.126 98.6125 106.97 98.4431C106.808 98.2677 106.653 98.0603 106.571 97.8311C106.483 97.5838 106.472 97.2762 106.671 97.0013M108.374 98.3411C112.424 99.002 119.002 99.5966 124.709 97.5611C124.503 97.4019 124.066 97.2287 123.448 97.0746C122.243 96.7741 120.654 96.617 119.786 96.617C118.889 96.617 115.899 96.6641 113.049 96.834C111.622 96.919 110.242 97.0341 109.179 97.1874C108.646 97.2644 108.208 97.3489 107.889 97.4395C107.736 97.483 107.623 97.5245 107.545 97.5612C107.576 97.6114 107.626 97.6804 107.706 97.7676C107.869 97.9447 108.102 98.1406 108.374 98.3411ZM124.777 97.5329C124.777 97.5329 124.777 97.5342 124.775 97.5367C124.776 97.5342 124.777 97.533 124.777 97.5329ZM112.989 95.8374C111.554 95.923 110.14 96.04 109.036 96.1994ZM109.036 96.1994C108.486 96.2789 107.997 96.3709 107.615 96.4793ZM107.615 96.4793C107.425 96.5334 107.248 96.5954 107.097 96.6686ZM107.097 96.6686C106.958 96.7364 106.787 96.8393 106.671 97.0013Z" fill="black"/>
<path fill-rule="evenodd" clip-rule="evenodd" d="M117.737 59.3158C117.775 59.0428 118.028 58.8524 118.301 58.8905C120.301 59.169 121.77 60.1293 122.827 61.5312C123.873 62.9176 124.505 64.7178 124.891 66.6771C125.543 69.9881 125.516 73.8941 125.493 77.3019C125.488 77.9154 125.484 78.5128 125.484 79.0877V96.8892C125.484 97.1648 125.26 97.3883 124.984 97.3883C124.708 97.3883 124.484 97.1648 124.484 96.8892V79.0876C124.484 78.4979 124.488 77.8903 124.492 77.2704C124.515 73.8568 124.54 70.072 123.909 66.8697C123.538 64.9836 122.947 63.3488 122.029 62.1318C121.122 60.9305 119.886 60.1192 118.163 59.8792C117.89 59.8411 117.699 59.5889 117.737 59.3158Z" fill="black"/>
<path fill-rule="evenodd" clip-rule="evenodd" d="M84.2608 56.9995C84.2006 56.7913 84.0083 56.639 83.7803 56.639C83.5041 56.639 83.2803 56.8625 83.2803 57.1381C83.2803 57.3942 83.4106 57.5881 83.5518 57.7153C83.686 57.8361 83.8533 57.9206 84.0162 57.9839C84.3445 58.1114 84.7914 58.2036 85.3116 58.275C86.3618 58.4192 87.8469 58.4958 89.6111 58.5391C91.5362 58.5863 93.8334 58.5942 96.3058 58.6028C98.3568 58.6098 100.528 58.6173 102.708 58.648C107.539 58.716 112.444 58.8976 116.332 59.4345C118.277 59.7031 119.945 60.0578 121.213 60.5213C122.505 60.9934 123.275 61.5406 123.579 62.1208C123.707 62.365 124.01 62.4593 124.254 62.3313C124.499 62.2034 124.593 61.9018 124.465 61.6576C123.979 60.731 122.899 60.0744 121.557 59.5839C120.192 59.0849 118.444 58.7184 116.469 58.4456C112.515 57.8996 107.557 57.7178 102.722 57.6498C100.514 57.6187 98.3376 57.6113 96.2892 57.6044C93.8327 57.596 91.5601 57.5883 89.6357 57.5411C87.8742 57.4979 86.4378 57.422 85.4479 57.286C84.948 57.2174 84.5951 57.1375 84.3788 57.0535C84.3234 57.032 84.2855 57.0134 84.2608 56.9995Z" fill="black"/>
<path fill-rule="evenodd" clip-rule="evenodd" d="M83.9163 25.011C84.1924 25.011 84.4163 25.2345 84.4163 25.5101V58.1859C84.4163 58.4616 84.1924 58.685 83.9163 58.685C83.6401 58.685 83.4163 58.4616 83.4163 58.1859V25.5101C83.4163 25.2345 83.6401 25.011 83.9163 25.011Z" fill="black"/>
<path d="M108.302 104.151C109.422 102.989 110.854 102.251 112.258 102.018C116.149 100.5 123.963 102.218 123.963 110.072C123.963 115.834 119.861 119.886 115.278 119.837C112.141 119.804 107.974 116.424 106.747 112.719C105.511 108.985 106.502 106.019 108.302 104.151Z" fill="#AE82FC"/>
<path fill-rule="evenodd" clip-rule="evenodd" d="M119.794 102.084C122.392 103.385 124.463 105.945 124.463 110.072C124.463 116.068 120.176 120.389 115.273 120.337C113.546 120.318 111.612 119.391 109.977 118.039C108.335 116.682 106.921 114.836 106.272 112.876C105.53 110.634 105.553 108.637 106.074 106.963C105.571 107.618 105.147 108.338 104.834 109.125C104.732 109.381 104.441 109.507 104.184 109.405C103.928 109.303 103.802 109.013 103.904 108.757C104.746 106.64 106.289 105 107.973 103.773C109.147 102.568 110.641 101.793 112.125 101.534C114.207 100.741 117.253 100.812 119.794 102.084ZM108.632 104.529C109.882 103.629 111.232 102.954 112.44 102.483C114.248 101.778 117.026 101.816 119.345 102.977C121.626 104.119 123.463 106.345 123.463 110.072C123.463 115.6 119.547 119.384 115.283 119.338C113.873 119.323 112.155 118.544 110.615 117.271C109.083 116.004 107.799 114.307 107.222 112.563C106.049 109.021 106.983 106.262 108.632 104.529Z" fill="black"/>
<path d="M107.736 62.1484C108.856 60.9863 110.288 60.2489 111.692 60.0154C115.583 58.4976 123.397 60.2153 123.397 68.07C123.397 73.8316 119.295 77.8839 114.712 77.835C111.575 77.8015 107.408 74.4214 106.181 70.7169C104.944 66.9826 105.936 64.0166 107.736 62.1484Z" fill="#FAFBFC"/>
<path fill-rule="evenodd" clip-rule="evenodd" d="M119.228 60.0819C121.826 61.3829 123.896 63.9425 123.896 68.07C123.896 74.0659 119.61 78.3865 114.707 78.3342C112.979 78.3157 111.045 77.3883 109.411 76.037C107.769 74.6793 106.355 72.834 105.706 70.8736C104.964 68.6312 104.987 66.6344 105.508 64.9608C105.005 65.616 104.581 66.3357 104.267 67.1227C104.165 67.3789 103.875 67.5041 103.618 67.4024C103.361 67.3006 103.236 67.0104 103.338 66.7542C104.18 64.6375 105.723 62.9975 107.407 61.7703C108.58 60.5657 110.075 59.7904 111.559 59.5317C113.641 58.7388 116.687 58.8098 119.228 60.0819ZM108.066 62.5262C109.316 61.6264 110.666 60.9517 111.874 60.4803C113.682 59.7752 116.46 59.8132 118.779 60.9742C121.06 62.1163 122.896 64.3429 122.896 68.07C122.896 73.5973 118.981 77.3814 114.717 77.3359C113.307 77.3209 111.589 76.5415 110.049 75.2682C108.517 74.0014 107.233 72.3044 106.656 70.5603C105.483 67.0186 106.417 64.2595 108.066 62.5262Z" fill="black"/>
<path d="M69.9512 29.6212C70.9852 28.5481 72.3082 27.8671 73.6046 27.6514C77.1979 26.2498 84.4135 27.8361 84.4135 35.0898C84.4135 40.4105 80.626 44.1528 76.3934 44.1076C73.4962 44.0767 69.6478 40.9552 68.515 37.5342C67.3732 34.0855 68.2888 31.3466 69.9512 29.6212Z" fill="white"/>
<path fill-rule="evenodd" clip-rule="evenodd" d="M80.5806 27.6787C82.9923 28.8862 84.9134 31.2627 84.9134 35.0898C84.9134 40.6448 80.9405 44.6554 76.3881 44.6068C74.7809 44.5896 72.9866 43.7275 71.4736 42.4767C69.9527 41.2193 68.6425 39.5095 68.0403 37.6908C67.382 35.7029 67.3732 33.9219 67.7963 32.4117C67.3895 32.9681 67.0444 33.5732 66.7835 34.2291C66.6815 34.4853 66.3909 34.6105 66.1342 34.5087C65.8776 34.407 65.7522 34.1168 65.8541 33.8606C66.6349 31.8983 68.064 30.3791 69.6219 29.2431C70.7099 28.1275 72.0951 27.4086 73.4712 27.1678C75.4046 26.433 78.2266 26.5001 80.5806 27.6787ZM70.2811 29.999C71.4315 29.1714 72.6738 28.5504 73.7866 28.1164C75.4453 27.4693 78.0001 27.5035 80.1323 28.5711C82.2267 29.6197 83.9134 31.6632 83.9134 35.0898C83.9134 40.1762 80.3114 43.6503 76.3987 43.6085C75.1087 43.5948 73.5302 42.8807 72.1114 41.7078C70.7006 40.5414 69.5203 38.9799 68.9897 37.3775C67.9117 34.1216 68.7696 31.5894 70.2811 29.999Z" fill="black"/>
<path d="M118.104 131.353C118.188 131.012 118.307 130.701 118.455 130.414C118.483 130.312 118.513 130.209 118.548 130.102C119.35 127.64 121.257 125.61 123.762 124.857C128.605 123.401 136.997 126.03 136.129 132.281C135.435 137.268 132.05 141.43 126.874 140.875C124.173 140.585 121.987 139.853 120.246 137.566C119.127 136.097 117.599 133.395 118.104 131.353Z" fill="#CFB4FF"/>
<path fill-rule="evenodd" clip-rule="evenodd" d="M132.305 125.23C135.016 126.543 137.099 128.934 136.624 132.349C136.265 134.928 135.208 137.322 133.538 139.007C131.857 140.703 129.569 141.666 126.82 141.371C124.049 141.074 121.706 140.308 119.847 137.868C119.269 137.109 118.582 136.028 118.103 134.864C117.63 133.713 117.328 132.407 117.618 131.233C117.707 130.873 117.832 130.541 117.986 130.233C118.012 130.139 118.041 130.044 118.073 129.948C118.92 127.347 120.94 125.184 123.617 124.379C126.17 123.612 129.608 123.924 132.305 125.23ZM119.724 135.883C120.028 136.405 120.35 136.879 120.644 137.264C122.269 139.399 124.297 140.096 126.927 140.378C129.355 140.639 131.348 139.798 132.827 138.305C134.317 136.802 135.298 134.621 135.633 132.212C136.027 129.377 134.348 127.329 131.869 126.128C129.376 124.921 126.197 124.647 123.906 125.335C122.437 125.777 121.181 126.693 120.264 127.891C120.326 127.852 120.388 127.813 120.451 127.776C120.931 127.484 121.43 127.226 121.91 126.984C121.993 126.942 122.075 126.9 122.156 126.859C122.55 126.661 122.925 126.473 123.275 126.278C123.516 126.143 123.82 126.229 123.955 126.469C124.09 126.71 124.004 127.014 123.763 127.149C123.392 127.356 122.994 127.556 122.6 127.754C122.52 127.794 122.44 127.835 122.361 127.875C121.884 128.115 121.415 128.358 120.971 128.628C120.098 129.159 119.367 129.769 118.924 130.596C118.558 132.011 118.945 132.877 119.508 134.138C119.657 134.472 119.819 134.835 119.982 135.242C120.082 135.492 119.967 135.773 119.724 135.883Z" fill="black"/>
<path d="M110.191 141.594C110.711 140.478 111.397 139.665 112.243 139.436C115.701 137.236 126.037 137.472 127.642 142.647C130.122 150.641 121.223 154.853 115.975 154.654C113.433 154.558 110.142 153.859 109.296 150.584C108.686 148.223 109.01 144.127 110.191 141.594Z" fill="#AE82FC"/>
<path fill-rule="evenodd" clip-rule="evenodd" d="M125.294 139.22C126.618 139.979 127.671 141.052 128.12 142.5C128.77 144.597 128.681 146.473 128.072 148.099C127.465 149.718 126.356 151.058 125.016 152.115C122.35 154.218 118.695 155.257 115.956 155.153C114.657 155.104 113.119 154.9 111.783 154.261C110.429 153.613 109.278 152.513 108.812 150.709C108.723 150.363 108.653 149.985 108.602 149.584C107.06 146.696 108.31 143.448 109.755 141.345C110.279 140.235 111.021 139.286 112.037 138.976C112.983 138.394 114.33 137.995 115.813 137.788C117.338 137.575 119.05 137.56 120.704 137.781C122.355 138.002 123.973 138.463 125.294 139.22ZM110.626 141.842C110.078 143.037 109.717 144.617 109.57 146.2C109.421 147.801 109.495 149.353 109.78 150.459C110.16 151.93 111.078 152.817 112.216 153.361C113.372 153.914 114.751 154.108 115.994 154.155C118.502 154.25 121.922 153.283 124.397 151.331C125.628 150.361 126.606 149.161 127.135 147.749C127.661 146.343 127.754 144.695 127.165 142.795C126.811 141.655 125.969 140.758 124.796 140.086C123.62 139.412 122.136 138.98 120.571 138.771C119.008 138.561 117.387 138.576 115.951 138.776C114.506 138.978 113.291 139.361 112.511 139.857C112.022 140.169 111.302 140.874 110.626 141.842Z" fill="black"/>
<path d="M146.964 148.601C145.745 156.323 129.124 157.365 127.201 149.32C125.084 146.869 124.38 143.838 127.201 140.653C130.431 137.005 137.874 138.262 141.689 140.088C144.835 141.594 147.543 144.928 146.964 148.601Z" fill="#AE82FC"/>
<path fill-rule="evenodd" clip-rule="evenodd" d="M134.241 137.819C137.054 137.908 139.937 138.696 141.905 139.638C145.164 141.197 148.085 144.706 147.457 148.679C147.123 150.796 145.736 152.42 143.89 153.53C142.046 154.639 139.71 155.259 137.37 155.372C135.031 155.485 132.647 155.094 130.707 154.135C128.796 153.191 127.293 151.681 126.744 149.554C125.683 148.298 124.945 146.859 124.85 145.291C124.753 143.673 125.346 141.994 126.826 140.322C128.588 138.332 131.444 137.731 134.241 137.819ZM128.979 151.643C129.563 152.289 130.301 152.821 131.15 153.24C131.575 153.45 132.026 153.631 132.496 153.783C131.284 153.195 130.07 152.474 128.979 151.643ZM136.974 154.388C137.09 154.385 137.206 154.38 137.322 154.375C139.53 154.268 141.698 153.682 143.374 152.675C145.047 151.669 146.194 150.268 146.47 148.524C147.002 145.15 144.507 141.99 141.473 140.538C139.626 139.654 136.879 138.901 134.21 138.817C131.524 138.732 129.043 139.326 127.575 140.984C126.235 142.497 125.77 143.926 125.848 145.232C125.928 146.55 126.566 147.82 127.579 148.994C129.863 151.638 133.899 153.613 136.772 154.288C136.849 154.306 136.917 154.341 136.974 154.388Z" fill="black"/>
<path d="M140.957 136.755C140.251 136.616 139.59 136.456 138.97 136.274C134.757 133.861 130.413 130.99 130.867 126.588C131.618 119.316 139.628 118.337 146.15 121.666C151.718 124.507 151.976 131.135 147.832 134.98C145.946 136.73 143.797 137.316 140.957 136.755Z" fill="#AE82FC"/>
<path fill-rule="evenodd" clip-rule="evenodd" d="M136.221 119.668C139.279 118.893 143.038 119.517 146.378 121.221C149.311 122.718 150.871 125.234 151.131 127.898C151.389 130.553 150.353 133.322 148.172 135.346C147.178 136.268 146.098 136.898 144.879 137.217C143.98 137.452 143.022 137.514 141.988 137.413C142.247 137.563 142.502 137.712 142.748 137.861C142.985 138.003 143.061 138.31 142.919 138.546C142.776 138.782 142.469 138.858 142.232 138.716C141.529 138.293 140.774 137.868 139.99 137.426C139.591 137.201 139.184 136.972 138.772 136.736C136.579 136.086 134.862 135.157 133.508 133.882C132.143 132.597 131.174 130.985 130.448 129.02C130.394 128.874 130.412 128.719 130.486 128.595C130.341 127.947 130.295 127.262 130.37 126.537C130.567 124.626 131.246 123.099 132.283 121.949C133.318 120.801 134.687 120.057 136.221 119.668ZM139.168 135.812C139.755 135.982 140.383 136.133 141.054 136.266C142.418 136.535 143.586 136.523 144.625 136.251C145.662 135.98 146.6 135.442 147.492 134.614C149.455 132.793 150.362 130.326 150.135 127.995C149.91 125.674 148.557 123.455 145.923 122.11C142.741 120.486 139.233 119.935 136.467 120.635C135.09 120.984 133.908 121.64 133.026 122.617C132.147 123.592 131.543 124.914 131.365 126.639C131.158 128.64 132.03 130.319 133.524 131.826C135.015 133.33 137.078 134.613 139.168 135.812Z" fill="black"/>
<path d="M163.603 120.363C163.88 119.524 164.171 118.743 164.48 118.016C167.88 113.256 171.809 108.41 176.592 109.656C184.494 111.715 184.18 121.639 179.366 129.071C175.257 135.414 167.89 134.687 164.366 129.028C162.762 126.452 162.489 123.739 163.603 120.363Z" fill="#AE82FC"/>
<path fill-rule="evenodd" clip-rule="evenodd" d="M183.246 117.307C183.564 121.109 182.238 125.556 179.786 129.342C177.647 132.643 174.621 134.152 171.629 134.049C168.648 133.947 165.781 132.246 163.941 129.291C162.412 126.837 162.041 124.258 162.832 121.208C162.566 121.579 162.303 121.942 162.043 122.29C161.878 122.511 161.565 122.557 161.344 122.393C161.122 122.228 161.076 121.915 161.241 121.694C161.832 120.901 162.435 120.045 163.06 119.157C163.381 118.702 163.708 118.238 164.041 117.77C165.136 115.207 166.452 113.272 168.085 111.831C169.73 110.379 171.67 109.453 173.966 108.877C174.134 108.834 174.303 108.883 174.423 108.991C175.164 108.915 175.929 108.967 176.718 109.173C178.796 109.714 180.357 110.781 181.436 112.213C182.511 113.64 183.086 115.401 183.246 117.307ZM164.919 118.261C164.624 118.96 164.344 119.711 164.078 120.519C163.003 123.775 163.275 126.331 164.79 128.764C166.475 131.469 169.053 132.962 171.664 133.052C174.264 133.141 176.976 131.842 178.946 128.8C181.308 125.154 182.545 120.923 182.249 117.39C182.102 115.628 181.575 114.058 180.637 112.813C179.702 111.573 178.339 110.627 176.466 110.139C174.292 109.572 172.277 110.37 170.336 111.968C168.399 113.563 166.611 115.894 164.919 118.261Z" fill="black"/>
<path d="M198.075 82.0462C198.694 81.415 199.301 80.8421 199.899 80.325C205.053 77.5481 210.719 74.9267 214.462 78.1498C220.646 83.4746 215.982 92.2449 208.381 96.7979C201.891 100.684 195.6 96.7904 194.935 90.1595C194.632 87.1416 195.585 84.5861 198.075 82.0462Z" fill="#AE82FC"/>
<path fill-rule="evenodd" clip-rule="evenodd" d="M217.057 87.9452C215.664 91.4981 212.51 94.9067 208.638 97.2259C205.26 99.2487 201.878 99.2717 199.238 97.863C196.607 96.4592 194.784 93.6709 194.437 90.2093C194.149 87.3334 194.953 84.8555 197.011 82.4653C196.607 82.6817 196.211 82.8911 195.825 83.0897C195.579 83.2157 195.277 83.1192 195.151 82.874C195.025 82.6288 195.122 82.3279 195.367 82.2018C196.248 81.75 197.167 81.2466 198.121 80.7248C198.61 80.4571 199.108 80.1846 199.614 79.9117C201.727 78.0927 203.763 76.9345 205.865 76.3595C207.983 75.78 210.133 75.8021 212.448 76.2949C212.618 76.331 212.749 76.4489 212.809 76.5984C213.506 76.8566 214.17 77.2397 214.788 77.7718C216.414 79.1717 217.345 80.8162 217.681 82.5762C218.016 84.33 217.755 86.1642 217.057 87.9452ZM200.185 80.7381C199.612 81.2359 199.028 81.7874 198.432 82.3953C196.031 84.845 195.146 87.2591 195.432 90.1098C195.75 93.279 197.406 95.7532 199.709 96.9826C202.004 98.2069 205.011 98.2336 208.123 96.3699C211.853 94.1361 214.831 90.8831 216.125 87.5815C216.771 85.9351 216.991 84.2938 216.699 82.7632C216.407 81.2389 215.602 79.7903 214.135 78.5278C212.434 77.0632 210.274 76.8924 207.825 77.4731C205.383 78.0521 202.748 79.3584 200.185 80.7381Z" fill="black"/>
<path d="M225.646 79.7515C226.286 79.1892 226.922 78.6876 227.558 78.2445C233.361 76.2367 239.823 74.4948 245.045 78.6885C253.673 85.6168 249.625 94.1829 241.153 97.6373C233.922 100.586 225.438 95.1805 223.345 87.9008C222.392 84.5877 223.073 82.014 225.646 79.7515Z" fill="#CFB4FF"/>
<path fill-rule="evenodd" clip-rule="evenodd" d="M249.992 89.6038C248.944 93.2339 245.671 96.3343 241.342 98.0993C237.555 99.6437 233.464 98.99 230.072 97.037C226.684 95.0857 223.95 91.8139 222.864 88.0385C222.37 86.3188 222.288 84.7502 222.692 83.2987C223.061 81.9693 223.827 80.7783 224.982 79.6816C224.259 79.9355 223.551 80.1791 222.866 80.3984C222.603 80.4826 222.322 80.3381 222.237 80.0756C222.153 79.8131 222.298 79.532 222.561 79.4478C223.556 79.1293 224.588 78.7631 225.66 78.383C226.206 78.1892 226.763 77.9919 227.329 77.7954C229.595 76.23 231.883 75.374 234.342 75.1576C236.816 74.94 239.432 75.372 242.336 76.3348C242.492 76.3864 242.605 76.5069 242.653 76.651C243.581 77.0577 244.486 77.5989 245.359 78.2995C249.791 81.8591 251.053 85.9281 249.992 89.6038ZM227.788 78.6933C227.187 79.115 226.585 79.5917 225.977 80.1261C224.746 81.2084 223.997 82.3384 223.655 83.5657C223.313 84.7949 223.367 86.1698 223.826 87.7631C224.833 91.2674 227.387 94.3382 230.572 96.1723C233.754 98.0048 237.52 98.5795 240.964 97.1752C245.107 95.4859 248.094 92.576 249.031 89.3274C249.955 86.1244 248.927 82.4462 244.732 79.0774C239.769 75.0915 233.603 76.6852 227.788 78.6933Z" fill="black"/>
<path fill-rule="evenodd" clip-rule="evenodd" d="M274.335 128.549C271.14 130.574 266.631 130.729 262.218 129.185C258.357 127.835 255.727 124.638 254.485 120.932C253.244 117.228 253.37 112.969 255.064 109.424C255.836 107.81 256.817 106.581 258.083 105.761C259.242 105.011 260.606 104.626 262.198 104.569C261.494 104.283 260.804 103.997 260.139 103.706C259.886 103.595 259.772 103.3 259.883 103.048C259.994 102.795 260.289 102.681 260.542 102.792C261.476 103.202 262.488 103.609 263.537 104.032C264.086 104.253 264.646 104.478 265.21 104.711C267.546 104.99 269.555 105.668 271.333 106.779C273.726 108.274 275.66 110.526 277.415 113.548C277.497 113.69 277.502 113.855 277.442 113.995C277.867 114.914 278.185 115.918 278.373 117.02C279.328 122.618 277.57 126.499 274.335 128.549ZM264.956 105.686C264.226 105.604 263.458 105.562 262.649 105.56C261.009 105.556 259.697 105.906 258.627 106.599C257.555 107.293 256.682 108.358 255.967 109.854C254.394 113.145 254.267 117.134 255.434 120.615C256.599 124.093 259.037 127.015 262.548 128.243C266.772 129.72 270.94 129.518 273.799 127.706C276.618 125.92 278.291 122.486 277.387 117.187C276.695 113.13 274.076 110.487 270.754 108.485C268.93 107.386 266.933 106.5 264.956 105.686Z" fill="black"/>
<path d="M148.01 134.314C148.625 133.836 149.234 133.414 149.839 133.044C155.248 131.534 161.245 130.302 165.779 134.421C173.27 141.225 169.097 148.82 161.171 151.503C154.405 153.794 146.96 148.388 145.455 141.626C144.77 138.549 145.535 136.237 148.01 134.314Z" fill="#EADEFF"/>
<path fill-rule="evenodd" clip-rule="evenodd" d="M169.727 144.674C168.563 147.946 165.389 150.602 161.331 151.976C157.773 153.181 154.06 152.353 151.064 150.376C148.071 148.401 145.75 145.253 144.967 141.734C144.61 140.132 144.622 138.687 145.075 137.375C145.471 136.226 146.192 135.216 147.232 134.308C146.623 134.48 146.025 134.644 145.446 134.792C145.179 134.86 144.907 134.698 144.838 134.431C144.77 134.164 144.932 133.892 145.199 133.824C146.125 133.589 147.087 133.312 148.086 133.025C148.594 132.879 149.111 132.73 149.638 132.582C151.798 131.278 153.939 130.622 156.203 130.56C158.481 130.499 160.852 131.04 163.453 132.082C163.599 132.14 163.702 132.259 163.745 132.398C164.567 132.821 165.36 133.365 166.116 134.051C169.974 137.556 170.908 141.358 169.727 144.674ZM150.041 133.506C149.473 133.856 148.899 134.256 148.317 134.708C147.138 135.624 146.397 136.608 146.02 137.7C145.643 138.794 145.615 140.043 145.943 141.518C146.665 144.761 148.819 147.697 151.616 149.543C154.41 151.387 157.803 152.117 161.01 151.031C164.878 149.721 167.754 147.238 168.785 144.34C169.8 141.487 169.075 138.089 165.443 134.79C161.154 130.894 155.463 131.996 150.041 133.506Z" fill="black"/>
<path d="M220.736 151.744C218.833 144.347 224.951 138.042 232.06 138.079C246.552 138.155 246.142 153.55 240.23 158.259C232.66 164.287 222.965 160.41 220.736 151.744Z" fill="white"/>
<path fill-rule="evenodd" clip-rule="evenodd" d="M228.312 160.982C224.502 159.626 221.406 156.357 220.252 151.868C218.253 144.098 224.687 137.541 232.063 137.58C235.777 137.599 238.584 138.602 240.595 140.212C242.605 141.822 243.78 144.008 244.285 146.325C245.288 150.922 243.673 156.155 240.541 158.649C236.626 161.768 232.129 162.341 228.312 160.982ZM228.648 160.042C232.129 161.281 236.264 160.779 239.918 157.869C242.699 155.654 244.246 150.835 243.308 146.538C242.844 144.408 241.774 142.437 239.969 140.991C238.166 139.547 235.59 138.596 232.058 138.578C225.215 138.542 219.414 144.596 221.22 151.62C222.295 155.798 225.161 158.8 228.648 160.042Z" fill="black"/>
<path fill-rule="evenodd" clip-rule="evenodd" d="M38.9692 95.9519C39.0209 95.6811 39.2826 95.5034 39.5539 95.5549C41.5592 95.936 43.5948 96.304 45.6473 96.6752C54.6108 98.296 63.8958 99.9749 72.3793 103.045C82.8259 106.825 92.1198 112.732 98.198 123.288C98.6378 124.051 99.0979 124.82 99.5604 125.592C100.267 126.772 100.979 127.962 101.633 129.158C101.765 129.4 101.676 129.703 101.434 129.835C101.191 129.967 100.887 129.878 100.755 129.636C100.106 128.449 99.4172 127.298 98.7215 126.137C98.2574 125.362 97.7906 124.583 97.331 123.785C91.408 113.499 82.3457 107.713 72.0385 103.983C63.6425 100.945 54.4619 99.2845 45.503 97.664C43.4418 97.2912 41.3924 96.9205 39.3669 96.5356C39.0957 96.4841 38.9176 96.2227 38.9692 95.9519Z" fill="black"/>
<path fill-rule="evenodd" clip-rule="evenodd" d="M86.6254 54.8781C86.7585 55.1196 86.6702 55.4231 86.4282 55.556C80.3244 58.9073 73.3669 61.1665 66.3249 61.2512C66.0487 61.2545 65.8222 61.0338 65.8189 60.7581C65.8156 60.4825 66.0367 60.2563 66.3128 60.253C73.153 60.1707 79.9498 57.9737 85.9463 54.6813C86.1883 54.5484 86.4923 54.6365 86.6254 54.8781Z" fill="black"/>
<path fill-rule="evenodd" clip-rule="evenodd" d="M86.197 58.3917C86.464 58.4619 86.6235 58.7349 86.5533 59.0015C86.341 59.8065 86.1212 60.6182 85.8517 61.4252C84.8837 64.3244 83.1602 66.8458 81.4945 69.2827C81.3147 69.5458 81.1356 69.8078 80.9581 70.0693C80.8032 70.2975 80.4923 70.3572 80.2637 70.2025C80.0351 70.0479 79.9753 69.7376 80.1302 69.5093C80.3074 69.2482 80.4851 68.9882 80.6623 68.7287C82.3394 66.2733 83.9817 63.8687 84.903 61.1095C85.1615 60.3356 85.3743 59.5511 85.5862 58.7474C85.6565 58.4808 85.9299 58.3216 86.197 58.3917Z" fill="black"/>
<path fill-rule="evenodd" clip-rule="evenodd" d="M118.06 59.2653C118.295 59.4098 118.368 59.7173 118.223 59.952C115.336 64.6357 111.423 67.8237 107.177 71.1696C106.96 71.3404 106.646 71.3035 106.475 71.0871C106.304 70.8708 106.341 70.5569 106.558 70.3861C110.81 67.035 114.588 63.9439 117.372 59.4288C117.516 59.1941 117.824 59.1209 118.06 59.2653Z" fill="black"/>
<path fill-rule="evenodd" clip-rule="evenodd" d="M125.182 73.1155C125.233 73.3866 125.053 73.647 124.782 73.6972C119.254 74.7192 113.702 75.2429 108.135 75.7683C107.969 75.7839 107.803 75.7995 107.637 75.8152C107.362 75.8412 107.119 75.6397 107.093 75.3653C107.067 75.0908 107.268 74.8473 107.543 74.8213C107.703 74.8062 107.864 74.7911 108.024 74.776C113.604 74.2495 119.116 73.7293 124.6 72.7156C124.871 72.6654 125.132 72.8444 125.182 73.1155Z" fill="black"/>
<path fill-rule="evenodd" clip-rule="evenodd" d="M87.0783 98.3312C87.2678 98.1306 87.5842 98.1213 87.7851 98.3104C88.7432 99.2121 89.7106 100.11 90.68 101.01C94.924 104.948 99.2064 108.922 102.913 113.415C103.088 113.628 103.058 113.942 102.844 114.118C102.631 114.293 102.316 114.262 102.141 114.05C98.4809 109.613 94.2589 105.695 90.0181 101.759C89.0439 100.854 88.0687 99.9493 87.0992 99.0368C86.8982 98.8477 86.8889 98.5318 87.0783 98.3312Z" fill="black"/>
<path fill-rule="evenodd" clip-rule="evenodd" d="M193.321 78.1876C193.547 78.3464 193.601 78.6578 193.442 78.8832C192.138 80.7302 190.796 82.5387 189.46 84.3408C185.811 89.2611 182.198 94.1336 179.474 99.6128C179.351 99.8597 179.051 99.9606 178.804 99.838C178.556 99.7155 178.455 99.4159 178.578 99.169C181.345 93.6042 185.036 88.6262 188.702 83.6832C190.028 81.8956 191.35 80.1126 192.624 78.3081C192.783 78.0827 193.095 78.0288 193.321 78.1876Z" fill="black"/>
<path fill-rule="evenodd" clip-rule="evenodd" d="M189.373 89.6625C189.597 89.8227 189.649 90.1344 189.489 90.3588L184.102 97.8881C183.941 98.1124 183.629 98.1644 183.404 98.0041C183.179 97.8439 183.127 97.5322 183.288 97.3078L188.675 89.7785C188.836 89.5542 189.148 89.5022 189.373 89.6625Z" fill="black"/>
<path fill-rule="evenodd" clip-rule="evenodd" d="M169.338 82.7635C169.532 82.9604 169.528 83.2765 169.331 83.4694C168.826 83.9632 168.312 84.4509 167.799 84.9384C165.816 86.8211 163.838 88.7 162.379 90.9097C161.891 91.6493 161.48 92.418 161.239 93.1929C162.586 93.0931 163.927 93.8224 164.88 94.8093C165.946 95.9133 166.676 97.4927 166.369 98.9583C166.292 99.327 166.128 99.6479 165.84 99.8575C165.553 100.067 165.217 100.11 164.91 100.077C164.326 100.014 163.679 99.659 163.112 99.2673C162.527 98.8624 161.953 98.3633 161.501 97.9216C161.275 97.7001 161.076 97.4892 160.918 97.3074C160.769 97.1358 160.633 96.961 160.557 96.8184C160.217 96.1779 160.051 95.5325 160.014 94.8958C159.775 95.2074 159.607 95.5973 159.538 96.0081C159.216 97.9051 159.49 99.9369 159.994 101.989C160.309 103.276 160.703 104.527 161.087 105.749C161.322 106.496 161.553 107.232 161.761 107.959C161.837 108.224 161.684 108.5 161.418 108.576C161.153 108.652 160.876 108.499 160.8 108.234C160.607 107.559 160.382 106.843 160.15 106.104C159.757 104.853 159.343 103.534 159.022 102.226C158.506 100.123 158.197 97.9361 158.552 95.8416C158.703 94.9467 159.239 93.9793 160.126 93.5017C160.365 92.3626 160.932 91.287 161.544 90.3603C163.072 88.0454 165.159 86.0648 167.151 84.1744C167.654 83.6973 168.151 83.2258 168.631 82.7562C168.828 82.5633 169.145 82.5666 169.338 82.7635ZM161.026 94.2282C160.96 94.9455 161.074 95.6593 161.441 96.3513C161.459 96.3857 161.53 96.4872 161.675 96.6545C161.811 96.8117 161.991 97.0024 162.201 97.2085C162.624 97.622 163.155 98.082 163.682 98.4468C164.228 98.8248 164.7 99.0502 165.018 99.0845C165.162 99.1001 165.224 99.0709 165.25 99.0514C165.278 99.0317 165.346 98.9659 165.39 98.7538C165.605 97.7304 165.096 96.4714 164.16 95.5022C163.237 94.546 162.044 94.0205 161.026 94.2282Z" fill="black"/>
<path fill-rule="evenodd" clip-rule="evenodd" d="M157.28 78.6384C157.297 78.7566 157.321 78.8846 157.351 79.0221C157.372 79.1165 157.395 79.2185 157.42 79.3238C157.479 79.5809 157.544 79.8581 157.576 80.0948C157.789 81.6576 158.071 83.2066 158.376 84.7598C158.495 84.6293 158.613 84.4989 158.732 84.3685C160.252 82.7011 161.768 81.0367 163.059 79.2504C162.476 79.2546 161.893 79.2519 161.313 79.2441C161.137 79.2418 160.743 79.1867 160.309 79.1206C159.87 79.0538 159.338 78.9672 158.821 78.883L158.763 78.8736C158.226 78.7861 157.71 78.7023 157.328 78.6455C157.311 78.6431 157.295 78.6407 157.28 78.6384ZM157.786 86.9098C157.788 86.9177 157.789 86.9257 157.791 86.9336L157.816 87.055C157.87 87.3253 158.134 87.5002 158.404 87.4457C158.675 87.3912 158.85 87.1279 158.796 86.8577L158.774 86.7496C158.722 86.4928 158.67 86.2363 158.619 85.9801C158.884 85.6866 159.153 85.392 159.422 85.0959C161.185 83.1615 163.004 81.1646 164.448 79.0025C164.449 79.0019 164.449 79.0012 164.45 79.0005C164.471 78.9695 164.572 78.8189 164.541 78.6142C164.521 78.4821 164.452 78.367 164.352 78.2879C164.265 78.2187 164.177 78.1937 164.127 78.1835C164.033 78.1643 163.95 78.1739 163.92 78.1777C163.878 78.1829 163.838 78.191 163.809 78.1975C163.778 78.2042 163.747 78.212 163.721 78.2183L163.718 78.2191C163.692 78.2256 163.67 78.231 163.649 78.2358C163.615 78.2435 163.6 78.2456 163.598 78.2461C162.843 78.2576 162.084 78.256 161.326 78.2459C161.237 78.2447 160.929 78.2051 160.46 78.1337C160.026 78.0678 159.499 77.9819 158.979 77.8973L158.924 77.8883C158.389 77.8012 157.866 77.7161 157.475 77.6581C157.281 77.6292 157.113 77.6061 156.991 77.5928C156.932 77.5864 156.871 77.5809 156.82 77.5796C156.798 77.579 156.754 77.5783 156.705 77.5848C156.685 77.5876 156.627 77.5959 156.561 77.625C156.519 77.6434 156.294 77.7499 156.263 78.0299C156.218 78.4316 156.295 78.8662 156.374 79.2323C156.403 79.3666 156.431 79.4906 156.458 79.6068C156.513 79.8388 156.559 80.0398 156.585 80.2294C156.836 82.0658 157.179 83.8804 157.54 85.6842C157.258 85.9976 156.979 86.3122 156.703 86.6288C156.522 86.8369 156.544 87.1521 156.753 87.333C156.961 87.5139 157.277 87.4919 157.458 87.2839C157.566 87.1593 157.676 87.0346 157.786 86.9098Z" fill="black"/>
<path fill-rule="evenodd" clip-rule="evenodd" d="M191.935 117.308C191.961 117.034 192.206 116.833 192.48 116.859C196.04 117.202 199.599 117.552 203.158 117.908C203.432 117.935 203.633 118.18 203.605 118.454C203.578 118.728 203.333 118.928 203.058 118.901C199.501 118.546 195.943 118.196 192.384 117.853C192.11 117.826 191.908 117.582 191.935 117.308Z" fill="black"/>
<path fill-rule="evenodd" clip-rule="evenodd" d="M191.951 121.589C192.025 121.323 192.301 121.169 192.567 121.243C195.432 122.044 198.291 122.861 201.147 123.69C201.413 123.767 201.565 124.044 201.488 124.309C201.411 124.574 201.133 124.726 200.868 124.649C198.015 123.82 195.159 123.004 192.298 122.204C192.032 122.13 191.876 121.854 191.951 121.589Z" fill="black"/>
<path fill-rule="evenodd" clip-rule="evenodd" d="M134.576 157.978C134.816 158.114 134.901 158.419 134.764 158.659C133.877 160.222 133.003 161.79 132.144 163.368C132.012 163.61 131.708 163.7 131.466 163.568C131.223 163.437 131.133 163.134 131.265 162.891C132.128 161.307 133.005 159.734 133.894 158.167C134.031 157.927 134.336 157.843 134.576 157.978Z" fill="black"/>
<path fill-rule="evenodd" clip-rule="evenodd" d="M139.208 158.613C139.484 158.601 139.718 158.815 139.729 159.09C139.796 160.664 139.854 162.238 139.904 163.812C139.913 164.088 139.697 164.318 139.421 164.327C139.145 164.336 138.914 164.12 138.905 163.844C138.854 162.273 138.797 160.703 138.73 159.132C138.718 158.857 138.933 158.624 139.208 158.613Z" fill="black"/>
<path fill-rule="evenodd" clip-rule="evenodd" d="M99.5828 138.904C100.498 139.12 101.393 139.498 101.937 139.787C102.198 139.925 103.069 140.463 103.769 141.093C104.115 141.403 104.461 141.773 104.654 142.161C104.752 142.358 104.826 142.592 104.813 142.842C104.799 143.106 104.69 143.349 104.493 143.546C104.219 143.819 103.826 143.838 103.544 143.816C103.231 143.792 102.871 143.702 102.498 143.58C101.748 143.334 100.845 142.924 99.9715 142.488C99.0933 142.051 98.2263 141.578 97.5446 141.198C97.4958 141.171 97.448 141.145 97.4015 141.119C97.6156 141.61 97.9343 142.083 98.1833 142.453C98.2587 142.565 98.3278 142.668 98.3856 142.758C98.5338 142.991 98.4652 143.299 98.2322 143.447C97.9992 143.595 97.6902 143.527 97.5419 143.294C97.5031 143.233 97.4499 143.155 97.3869 143.061C97.1353 142.689 96.729 142.087 96.4726 141.489C96.3366 141.172 96.2224 140.814 96.2038 140.455C95.986 140.325 95.8987 140.048 96.0098 139.814C96.0902 139.644 96.254 139.541 96.4291 139.529C96.5392 139.357 96.6922 139.201 96.8942 139.073C97.2801 138.828 97.7419 138.741 98.1911 138.733C98.6443 138.725 99.1245 138.796 99.5828 138.904ZM97.3721 139.957C97.3945 139.97 97.4172 139.983 97.4404 139.996C97.6188 140.096 97.8185 140.208 98.0314 140.326C98.7083 140.703 99.56 141.168 100.418 141.595C101.28 142.025 102.131 142.409 102.81 142.631C103.152 142.743 103.425 142.806 103.622 142.821C103.727 142.829 103.782 142.822 103.805 142.817C103.814 142.805 103.814 142.797 103.814 142.791C103.814 142.791 103.814 142.79 103.814 142.79C103.815 142.767 103.809 142.708 103.758 142.604C103.651 142.39 103.419 142.121 103.1 141.834C102.472 141.269 101.671 140.776 101.467 140.668C100.987 140.413 100.172 140.069 99.3532 139.876C98.9445 139.78 98.5519 139.725 98.209 139.731C97.8622 139.737 97.6048 139.805 97.4311 139.915C97.4096 139.929 97.39 139.943 97.3721 139.957Z" fill="black"/>
<path fill-rule="evenodd" clip-rule="evenodd" d="M49.6903 132.375C56.5126 129.279 64.3834 131.334 70.9906 133.897C73.5151 134.876 76.1715 136.271 78.0626 138.383C82.6163 139.809 86.7138 142.661 90.587 145.356C91.4469 145.954 92.2958 146.545 93.1362 147.111C93.3652 147.265 93.4256 147.575 93.2712 147.804C93.1168 148.032 92.8061 148.092 92.5771 147.938C91.7074 147.353 90.8383 146.749 89.9656 146.142C86.507 143.737 82.991 141.292 79.1492 139.818C79.5002 140.376 79.8009 140.975 80.0404 141.619C80.278 142.259 80.4668 143.159 80.3348 143.952C80.2676 144.356 80.1115 144.765 79.8022 145.087C79.4856 145.417 79.0499 145.613 78.5096 145.656C77.7312 145.718 76.8185 145.541 75.9356 145.212C75.0476 144.881 74.1537 144.382 73.4108 143.763C72.6714 143.147 72.0526 142.387 71.7655 141.525C71.4717 140.643 71.5383 139.686 72.1201 138.748C72.4289 138.25 72.9173 137.978 73.4317 137.841C73.9411 137.706 74.5107 137.693 75.0553 137.736C75.4066 137.763 75.7602 137.814 76.0979 137.878C74.5181 136.561 72.5782 135.584 70.6284 134.827C64.0343 132.269 56.5193 130.373 50.1041 133.284C49.8527 133.398 49.5563 133.287 49.442 133.036C49.3278 132.785 49.4389 132.489 49.6903 132.375ZM77.4953 139.253C76.9037 139.076 75.9177 138.804 74.9776 138.731C74.4903 138.693 74.046 138.711 73.6886 138.806C73.3362 138.9 73.1048 139.056 72.9704 139.273C72.5481 139.954 72.5121 140.603 72.7145 141.21C72.9237 141.838 73.3998 142.454 74.0516 142.997C74.6997 143.537 75.493 143.981 76.2855 144.277C77.0832 144.574 77.8444 144.707 78.4306 144.661C78.7633 144.635 78.9571 144.525 79.0799 144.397C79.2099 144.261 79.303 144.06 79.3483 143.788C79.441 143.231 79.3076 142.518 79.1028 141.967C78.7251 140.951 78.1732 140.052 77.4953 139.253Z" fill="black"/>
<path fill-rule="evenodd" clip-rule="evenodd" d="M65.7185 124.711C65.3926 124.829 65.0673 124.948 64.742 125.062C64.4815 125.153 64.1961 125.016 64.1046 124.756C64.0131 124.496 64.1502 124.211 64.4107 124.12C64.7133 124.014 65.0243 123.901 65.3417 123.785C66.2728 123.447 67.2592 123.089 68.2519 122.825C69.5929 122.468 71.0025 122.264 72.4185 122.5C72.6909 122.545 72.8749 122.802 72.8295 123.074C72.7841 123.346 72.5265 123.53 72.2541 123.485C71.0349 123.282 69.7815 123.451 68.5096 123.789C67.5634 124.041 66.6383 124.377 65.7185 124.711Z" fill="black"/>
<path fill-rule="evenodd" clip-rule="evenodd" d="M64.5955 123.816C64.6842 123.555 64.9681 123.415 65.2296 123.503C65.5513 123.612 65.8743 123.72 66.1981 123.829C68.4655 124.588 70.7699 125.36 72.9365 126.484C73.1815 126.611 73.2768 126.913 73.1494 127.157C73.022 127.402 72.7202 127.497 72.4752 127.37C70.3831 126.284 68.1585 125.539 65.8845 124.777C65.5601 124.668 65.2347 124.559 64.9085 124.449C64.647 124.36 64.5069 124.077 64.5955 123.816Z" fill="black"/>
<path fill-rule="evenodd" clip-rule="evenodd" d="M77.1281 125.683C77.2039 125.948 77.0502 126.225 76.7847 126.3C74.9387 126.827 73.0925 127.32 71.2244 127.781C70.9563 127.847 70.6853 127.683 70.6191 127.416C70.5529 127.148 70.7165 126.878 70.9846 126.811C72.8402 126.354 74.6748 125.864 76.5099 125.341C76.7755 125.265 77.0522 125.418 77.1281 125.683Z" fill="black"/>
<path fill-rule="evenodd" clip-rule="evenodd" d="M69.177 121.544C69.298 121.296 69.5974 121.194 69.8456 121.314C70.4078 121.588 70.9863 121.858 71.5728 122.133C74.2096 123.365 77.0061 124.673 79.2024 126.682C79.4059 126.869 79.4197 127.184 79.2331 127.388C79.0465 127.591 78.7302 127.605 78.5266 127.418C76.4546 125.522 73.8317 124.294 71.2022 123.063C70.6021 122.782 70.0016 122.501 69.4073 122.212C69.1591 122.091 69.056 121.792 69.177 121.544Z" fill="black"/>
<path fill-rule="evenodd" clip-rule="evenodd" d="M195.601 146.597C195.715 146.346 196.011 146.234 196.263 146.347C198.594 147.398 200.929 148.445 203.264 149.493C212.172 153.489 221.089 157.489 229.898 161.711C231.548 162.502 233.16 163.321 234.761 164.201C235.003 164.334 235.091 164.638 234.958 164.879C234.825 165.121 234.521 165.209 234.279 165.076C232.697 164.205 231.101 163.396 229.465 162.611C220.669 158.395 211.766 154.401 202.86 150.406C200.523 149.358 198.186 148.31 195.851 147.257C195.599 147.144 195.488 146.848 195.601 146.597Z" fill="#B0B1C4"/>
<path fill-rule="evenodd" clip-rule="evenodd" d="M195.651 147.254C195.813 147.03 196.125 146.979 196.349 147.14C196.383 147.165 196.416 147.189 196.45 147.213C199.219 149.203 202.001 151.203 204.578 153.49C204.784 153.673 204.803 153.988 204.62 154.194C204.436 154.4 204.12 154.419 203.914 154.236C201.376 151.984 198.629 150.009 195.847 148.01C195.819 147.99 195.792 147.97 195.765 147.951C195.541 147.79 195.49 147.478 195.651 147.254Z" fill="#B0B1C4"/>
<path fill-rule="evenodd" clip-rule="evenodd" d="M195.189 147.354C195.227 147.081 195.479 146.89 195.753 146.927C196.752 147.064 197.75 147.204 198.748 147.343C202.17 147.82 205.585 148.296 209.01 148.687C210.002 148.801 210.943 148.942 211.925 149.165C212.194 149.226 212.363 149.493 212.302 149.762C212.241 150.031 211.973 150.199 211.703 150.138C210.768 149.926 209.865 149.79 208.897 149.679C205.457 149.286 202.026 148.808 198.602 148.33C197.606 148.192 196.611 148.053 195.616 147.916C195.343 147.879 195.152 147.627 195.189 147.354Z" fill="#B0B1C4"/>
<path fill-rule="evenodd" clip-rule="evenodd" d="M235.47 151.507C235.561 151.246 235.846 151.108 236.107 151.199C242.847 153.535 249.581 155.887 256.309 158.258C256.57 158.349 256.706 158.635 256.614 158.895C256.523 159.154 256.237 159.291 255.977 159.199C249.25 156.829 242.518 154.477 235.779 152.142C235.518 152.052 235.38 151.767 235.47 151.507Z" fill="black"/>
<path fill-rule="evenodd" clip-rule="evenodd" d="M240.006 148.765C240.079 148.499 240.354 148.343 240.62 148.416C245.995 149.889 251.376 151.314 256.773 152.699C257.04 152.768 257.201 153.04 257.132 153.307C257.063 153.574 256.791 153.735 256.523 153.666C251.122 152.279 245.736 150.853 240.355 149.379C240.089 149.306 239.933 149.031 240.006 148.765Z" fill="black"/>
</svg>
