<svg width="320" height="213" viewBox="0 0 320 213" fill="none" xmlns="http://www.w3.org/2000/svg">
<path fill-rule="evenodd" clip-rule="evenodd" d="M163 213C214.915 213 257 188.6 257 158.5C257 128.4 214.915 104 163 104C111.085 104 69 128.4 69 158.5C69 188.6 111.085 213 163 213ZM137 111.5V123.5C131.333 124.667 119.7 129 118.5 137C117.3 145 118 151.333 118.5 153.5L126.5 160.5L115.5 163.5V178C130.5 186.5 160.1 189.2 170.5 186C180.9 182.8 176.5 175.333 173 172L158 151L166.5 148L182.5 168.5C192.5 166.833 212.9 161.5 214.5 153.5C216.1 145.5 215.167 137.167 214.5 134C212.816 126 193 123.5 193 123.5V108.5L137 111.5Z" fill="url(#paint0_radial)" fill-opacity="0.2"/>
<path opacity="0.25" d="M168.624 88.8477C168.903 62.482 169.812 43.9982 168.903 42.8124C166.876 40.1619 232.653 40.7199 244.257 42.4637C244.257 42.4637 244.816 87.6619 243.278 88.5687C240.622 90.1729 168.624 88.8477 168.624 88.8477Z" fill="url(#paint1_linear)"/>
<path opacity="0.25" d="M59.8564 75.3161C60.206 48.7412 62.2331 24.3286 61.1846 23.1428C58.8079 20.4225 136.329 21.399 150.169 23.1428C150.169 23.1428 151.008 74.1303 149.191 75.0371C145.905 76.6413 59.8564 75.3161 59.8564 75.3161Z" fill="url(#paint2_linear)"/>
<path opacity="0.25" d="M59.9961 123.095C60.2757 107.68 61.6737 93.5908 60.9048 92.8933C59.2272 91.3588 114.519 91.847 124.445 92.8933C124.445 92.8933 125.074 122.398 123.746 122.956C121.44 123.862 59.9961 123.095 59.9961 123.095Z" fill="url(#paint3_linear)"/>
<path d="M135.375 79.875C138.689 81.066 142.012 82.0949 145.375 83.125" stroke="black" stroke-linecap="round" stroke-linejoin="round"/>
<path d="M135.375 134C138.689 135.191 142.012 136.22 145.375 137.25" stroke="black" stroke-linecap="round" stroke-linejoin="round"/>
<path d="M142.625 78.375C146.06 79.2274 149.507 80.2928 153 80.875" stroke="black" stroke-linecap="round" stroke-linejoin="round"/>
<path d="M140.625 82.625C144.213 82.0666 147.78 81.4519 151.25 80.375" stroke="black" stroke-linecap="round" stroke-linejoin="round"/>
<path d="M143.019 137.091C146.386 136.533 149.733 135.925 152.981 134.908" stroke="black" stroke-linecap="round" stroke-linejoin="round"/>
<path d="M134.625 80.125C137.299 79.5833 139.974 79.0465 142.611 78.3403C143.62 78.0701 144.598 77.7961 145.625 77.625" stroke="black" stroke-linecap="round" stroke-linejoin="round"/>
<path d="M143.5 80C143.5 104.5 143.5 122 143.5 138M136.5 77V138M151.5 77C151.5 101.5 151.5 122 151.5 138" stroke="black" stroke-linecap="round" stroke-linejoin="round"/>
<path d="M157 70C160.314 71.191 163.637 72.2199 167 73.25" stroke="black" stroke-linecap="round" stroke-linejoin="round"/>
<path d="M158.282 130C161.48 131.474 164.701 132.787 167.962 134.105" stroke="black" stroke-linecap="round" stroke-linejoin="round"/>
<path d="M165 68C168.435 68.8524 171.882 69.9178 175.375 70.5" stroke="black" stroke-linecap="round" stroke-linejoin="round"/>
<path d="M164.5 72.25C168.088 71.6916 173 71 177.5 70" stroke="black" stroke-linecap="round" stroke-linejoin="round"/>
<path d="M163 134C167.39 133.255 171.754 132.436 176 131" stroke="black" stroke-linecap="round" stroke-linejoin="round"/>
<path d="M158 70.4906C160.711 70.1824 163.423 69.8794 166.111 69.4041C167.139 69.2222 168.138 69.034 169.175 68.9524" stroke="black" stroke-linecap="round" stroke-linejoin="round"/>
<path d="M165.875 72C165.875 96.5 165.875 117 165.875 133M158.875 67.5V133M173.875 69C173.875 93.5 173.875 117 173.875 133" stroke="black" stroke-linecap="round" stroke-linejoin="round"/>
<path d="M186 66C189.314 67.191 192.637 68.2199 196 69.25" stroke="black" stroke-linecap="round" stroke-linejoin="round"/>
<path d="M177 136C179.32 138.199 181.646 140.098 184 142" stroke="black" stroke-linecap="round" stroke-linejoin="round"/>
<path d="M176.333 67C179.623 68.3013 182.898 69.8154 186.283 70.8568" stroke="black" stroke-linecap="round" stroke-linejoin="round"/>
<path d="M182 69.2268C185.631 69.1885 190.592 69.2083 195.188 68.8638" stroke="black" stroke-linecap="round" stroke-linejoin="round"/>
<path d="M181.5 140.75C186 140.75 188.5 140.75 195 140" stroke="black" stroke-linecap="round" stroke-linejoin="round"/>
<path d="M177.325 67.0378C181.29 67.0267 185.605 67.0147 191 66.9997" stroke="black" stroke-linecap="round" stroke-linejoin="round"/>
<path d="M182.5 68.5C182.5 93 182.5 125.5 182.5 141.5M193.5 65.5V139.5M178 65.5C178 90 178 121 178 137" stroke="black" stroke-linecap="round" stroke-linejoin="round"/>
<path d="M128 149.999C141.552 146.205 154.703 141.462 168 136.999" stroke="black" stroke-linecap="round" stroke-linejoin="round"/>
<path d="M166 136.999C172.308 144.262 178.322 151.321 185.125 158.124" stroke="black" stroke-linecap="round" stroke-linejoin="round"/>
<path d="M167 149.249C173.5 157.999 178 163.999 183.5 170.999" stroke="black" stroke-linecap="round" stroke-linejoin="round"/>
<path d="M193.5 123.999C201 125.999 207.125 127.283 212.5 131.499C224.62 141.005 204.5 152.499 194.5 153.999C191.153 154.886 183.428 155.563 180 155.999" stroke="black" stroke-linecap="round" stroke-linejoin="round"/>
<path d="M178.5 169.999C192.5 169.499 208.073 165.114 215.5 154.499C216.531 153.025 215.935 139.171 216.431 137.499" stroke="black" stroke-linecap="round" stroke-linejoin="round"/>
<path d="M113.75 165.749C130.5 159.499 142.75 155.249 159.5 148.499" stroke="black" stroke-linecap="round" stroke-linejoin="round"/>
<path d="M156.5 148.249C162.74 156.85 169.116 165.36 174.75 174.374" stroke="black" stroke-linecap="round" stroke-linejoin="round"/>
<path d="M113.5 163.499C117 165.499 122.671 167.604 125.5 168.499C142.5 173.878 164.79 176.677 179.5 172.999" stroke="black" stroke-linecap="round" stroke-linejoin="round"/>
<path d="M116.5 162.374C117 171.999 117 174.999 117 182.499" stroke="black" stroke-linecap="round" stroke-linejoin="round"/>
<path d="M174.625 170.249C174.561 175.6 174 182.499 174 187.499" stroke="black" stroke-linecap="round" stroke-linejoin="round"/>
<path d="M115 177.499C129 187.499 156.836 191.788 177 186.499" stroke="black" stroke-linecap="round" stroke-linejoin="round"/>
<path d="M159 151.999C161.716 151.131 163.093 150.499 167 148.999" stroke="black" stroke-linecap="round" stroke-linejoin="round"/>
<path d="M117.125 153.249C118.602 157.229 122.243 160.256 126.125 161.749" stroke="black" stroke-linecap="round" stroke-linejoin="round"/>
<path d="M117.5 155.999C117.5 149.499 117.344 147.486 117.5 139.999" stroke="black" stroke-linecap="round" stroke-linejoin="round"/>
<path d="M167 151.499C167 144.999 166.844 144.486 167 136.999" stroke="black" stroke-linecap="round" stroke-linejoin="round"/>
<path d="M183.069 169.499C183.069 162.999 182.913 162.486 183.069 154.999" stroke="black" stroke-linecap="round" stroke-linejoin="round"/>
<path d="M129.069 159.499C129.069 152.999 128.913 155.986 129.069 148.499" stroke="black" stroke-linecap="round" stroke-linejoin="round"/>
<path d="M116 136.999C116.451 140.834 119.882 144.247 122.84 146.423C125.627 148.472 128.851 150.271 132.375 150.124" stroke="black" stroke-linecap="round" stroke-linejoin="round"/>
<path d="M118.375 143.249C117.673 141.644 117.329 140.018 117.833 138.291C118.592 135.688 120.47 133.23 122.389 131.374C126.245 127.643 131.342 125.766 136.5 124.427" stroke="black" stroke-linecap="round" stroke-linejoin="round"/>
<path d="M151.5 121.999C153.42 121.691 155.948 121.389 158.5 121.188L151.5 121.999Z" fill="#22222A" stroke="black" stroke-linecap="round" stroke-linejoin="round"/>
<path d="M174 121.499C175.659 121.648 176.101 121.624 178 121.861" stroke="black" stroke-linecap="round" stroke-linejoin="round"/>
<path d="M143.778 106L150.349 80.5M132.889 148.254L130.119 159M127.614 168.723L124.063 182.5M130.119 169.841C129.016 174.122 127.93 178.337 126.857 182.5M143.709 129.5C146.31 119.405 148.672 110.474 151.5 99.5M132.913 171.39C131.802 175.704 130.718 179.908 129.664 184M136.493 157.5L139.5 146.5M151.339 87.5C148.817 97.2882 146.419 106.593 144.123 115.5L151.339 87.5ZM135.683 148.254C134.745 151.892 133.823 155.472 132.913 159L135.683 148.254Z" stroke="black" stroke-linecap="round" stroke-linejoin="round"/>
<path d="M121.5 167C120.906 169.304 120.371 171.334 119.839 173.348C119.835 173.364 119.831 173.379 119.827 173.394L118.23 179.5C118.793 177.317 119.308 175.362 119.827 173.394C119.831 173.379 119.835 173.364 119.839 173.348L121.5 167Z" fill="#22222A"/>
<path d="M118.915 166L116.982 173.5M121 157.912L123.812 147M124.258 168.5C123.144 172.824 122.057 177.039 121 181.143M126.219 148.5C125.17 152.57 124.14 156.566 123.126 160.5L126.219 148.5ZM121.5 167C120.321 171.573 119.373 175.066 118.23 179.5L121.5 167ZM129.412 148.5L126.219 160.891C127.26 156.85 128.325 152.719 129.412 148.5ZM146.549 82.0005C145.47 86.1887 144.405 90.3189 143.356 94.3907L146.549 82.0005Z" stroke="black" stroke-linecap="round" stroke-linejoin="round"/>
<path d="M117.575 149C118.043 147.181 118.516 145.348 118.992 143.5L117.575 149ZM118.992 155.89C119.869 152.488 120.761 149.025 121.67 145.5L118.992 155.89Z" stroke="black" stroke-linecap="round" stroke-linejoin="round"/>
<path d="M142.1 146L139.523 156M144.548 136.5L151.378 110M135.658 171L132.05 185M138.452 171C137.082 176.315 136.275 179.756 134.919 185M142.317 156C143.268 152.309 144.235 148.559 145.218 144.742M147.342 136.5C148.654 131.411 149.997 126.198 151.378 120.842M141.387 172C140.152 176.793 138.784 181.903 137.591 186.5M146.025 154C146.871 150.721 147.73 147.388 148.602 144M150.706 135.836C151.077 134.4 151.449 132.955 151.824 131.5M166.126 76.0005C166.511 74.5075 166.898 73.0074 167.286 71.5005L166.126 76.0005Z" stroke="black" stroke-linecap="round" stroke-linejoin="round"/>
<path d="M143.4 173L139.792 187M148.554 153L151.131 143M166 85.3026L169.814 70.5003M149.129 174C147.947 178.587 146.658 183.579 145.519 188M142.328 188C143.597 183.078 144.883 178.086 146.194 173L142.328 188ZM151.734 151.5C152.539 148.379 153.354 145.214 154.182 142L151.734 151.5ZM166.294 95.0003C168.315 87.1598 170.416 79.0084 172.608 70.5003L166.294 95.0003ZM166 108.534C168.531 98.7118 171.155 88.5311 173.868 78.0003L166 108.534ZM157.762 140.5C156.934 143.714 156.118 146.881 155.314 150L157.762 140.5Z" stroke="black" stroke-linecap="round" stroke-linejoin="round"/>
<path d="M148.663 188.5L152.4 174M158.456 150.5L161.291 139.5M165.929 121.5L173.531 92M178.17 74L179.716 68M178.17 97.2316C179.429 92.3474 180.805 87.0053 182.252 81.3902M151.457 188.5C152.684 183.739 153.927 178.914 155.194 174L151.457 188.5ZM160.992 151.5C162.087 147.252 163.202 142.923 164.342 138.5L160.992 151.5ZM165.929 132.341C168.486 122.42 171.167 112.017 174.006 101L165.929 132.341ZM178.17 84.8414C179.496 79.6975 180.856 74.4208 182.252 69L178.17 84.8414ZM154.392 189.5C155.681 184.5 157.012 179.333 158.387 174L154.392 189.5ZM164.7 149.5C165.629 145.895 166.574 142.229 167.535 138.5L164.7 149.5ZM169.122 132.341C170.709 126.185 172.337 119.867 174.006 113.39L169.122 132.341Z" stroke="black" stroke-linecap="round" stroke-linejoin="round"/>
<path d="M157.406 188.5L161.013 174.5M167.327 150L169.518 141.5M171.966 132L173.899 124.5M177.764 109.5L182.274 92M159.942 189.5C161.211 184.575 162.497 179.584 163.807 174.5L159.942 189.5ZM169.518 152.341C170.322 149.22 171.138 146.055 171.966 142.841L169.518 152.341ZM177.981 119.5C179.481 113.678 181.026 107.686 182.62 101.5L177.981 119.5ZM163.393 188.5C164.56 183.97 165.763 179.303 167 174.5L163.393 188.5ZM171.966 155.232C172.747 152.201 173.54 149.123 174.345 146L171.966 155.232ZM177.981 131.89C179.49 126.036 181.036 120.035 182.62 113.89L177.981 131.89Z" stroke="black" stroke-linecap="round" stroke-linejoin="round"/>
<path d="M166.663 188.5L170.271 174.5M174.266 159L176.714 149.5M179.549 138.5L182.5 127.047M169.457 188.5C170.642 183.901 171.843 179.241 173.065 174.5L169.457 188.5ZM176.415 161.5C177.22 158.376 178.036 155.211 178.863 152L176.415 161.5ZM181.827 140.5C182.126 139.34 182.427 138.173 182.729 137L181.827 140.5ZM172.908 187.5C173.459 185.363 174.017 183.196 174.583 181L172.908 187.5ZM178.706 165C179.675 161.242 180.662 157.409 181.67 153.5L178.706 165Z" stroke="black" stroke-linecap="round" stroke-linejoin="round"/>
<path d="M184.523 155L182.977 161M183.58 169.5C184.803 164.758 186.046 159.931 187.317 155L183.58 169.5ZM186.773 169.5C187.986 164.794 189.232 159.96 190.51 155L186.773 169.5Z" stroke="black" stroke-linecap="round" stroke-linejoin="round"/>
<path d="M190.302 168.5L194 154.15M193.096 168.5C194.305 163.807 195.536 159.03 196.794 154.15L193.096 168.5ZM196.675 167C197.917 162.181 199.192 157.234 200.5 152.159L196.675 167Z" stroke="black" stroke-linecap="round" stroke-linejoin="round"/>
<path d="M200.817 165.5L204.683 150.5M207.863 149C206.643 153.736 205.335 158.809 203.998 164M211.7 146.5C210.334 151.802 209.002 156.97 207.706 162L211.7 146.5Z" stroke="black" stroke-linecap="round" stroke-linejoin="round"/>
<path d="M211.364 159.5L216.5 139.568M215.188 155.5C215.622 153.815 216.06 152.119 216.5 150.41L215.188 155.5Z" stroke="black" stroke-linecap="round" stroke-linejoin="round"/>
<path d="M78.5 166.5C87 115.306 124.5 113.5 143.5 113.5C156.207 114.389 166.5 113.846 185 112C197.191 109.46 197.914 106.621 193.5 104.311M233.324 98.5C243.169 123.975 217.326 123.5 210.5 123.5C203.5 123.5 156 118.891 156 103C156.125 101.926 157.23 101.143 159 100.61M177.5 100.347C176.168 100.184 174.826 100.05 173.5 99.946" stroke="black" stroke-linecap="round" stroke-linejoin="round"/>
<path d="M104.5 33.7503C95.4705 34.7124 88.75 41.0003 88.75 50.5003C88.75 60.0003 99.9999 65.0003 108 65.0003C116 65.0003 126.506 60.9867 128.5 52.5003C130.85 42.5003 123.766 35.4624 116 32.6113C106.006 28.9425 96.1323 34.0336 88.75 40.2503" stroke="#D9DAE6" stroke-linecap="round" stroke-linejoin="round"/>
<path d="M102.5 52.8333C100.5 50.8333 100.362 46.2245 103.5 44.5C105.999 43.0003 108.962 42.4772 111.5 43.5C113.077 44.1355 115.005 45.8329 115.195 47.75C115.386 49.6857 114.412 51.6404 113 52.8333C109.762 55.5688 104.5 54.8333 102.5 52.8333Z" stroke="#D9DAE6" stroke-linecap="round" stroke-linejoin="round"/>
<path d="M105 54C102.388 56.481 98.6816 59.7035 96 62" stroke="#D9DAE6" stroke-linecap="round" stroke-linejoin="round"/>
<path d="M88 52C91.3639 51.6429 94.717 51.1741 98.0483 50.5417C99.0356 50.3543 100.007 50.1292 101 50" stroke="#D9DAE6" stroke-linecap="round" stroke-linejoin="round"/>
<path d="M110.625 30.75C110.557 34.9367 109.563 39.0603 108.625 43.125" stroke="#D9DAE6" stroke-linecap="round" stroke-linejoin="round"/>
<path d="M66.5 109.5C70 109.5 71.1353 114.708 73.9404 114.5C77.7433 114.218 80.5596 98 83 98C84.7405 98 88.8916 116.948 89 116.5C89.1567 115.852 93 102 95 102C97 102 96.8798 107.119 99 110.715C100.882 113.908 102 106.153 103.5 106.153C105 106.153 105.144 108.715 106 111.5C106.856 114.285 109.689 108.75 115 108.75C115.337 108.75 125.495 108.75 123.75 108.75" stroke="#D9DAE6" stroke-linecap="round" stroke-linejoin="round"/>
<path d="M73.4999 114.375C73.3295 115.966 74.3765 114.961 73.9791 114.514C73.4396 113.907 72.646 114.531 72.7777 115.223C72.9309 116.027 73.8155 115.005 73.9374 114.688C74.1166 114.222 73.2825 113.903 73.1249 114.375" stroke="#D9DAE6" stroke-linecap="round" stroke-linejoin="round"/>
<path d="M82.375 97.7501C82.2663 98.493 83.0348 98.8773 83 98.2501C82.9639 97.6012 81.89 97.3076 82.0069 98.2432C82.0788 98.8183 83.0559 98.6845 83.1181 98.1251C83.1785 97.5808 82.25 97.3744 82.25 98.0001" stroke="#D9DAE6" stroke-linecap="round" stroke-linejoin="round"/>
<path d="M88.875 115.875C88.5199 116.176 88.1035 116.652 88.2639 117.174C88.3589 117.482 89.0978 117.577 89.2986 117.361C90.015 116.59 88.3961 116.278 88.2778 116.681C87.9727 117.718 89.6032 117.761 89.7361 116.931C89.909 115.85 88.5593 116.017 88.125 116.625" stroke="#D9DAE6" stroke-linecap="round" stroke-linejoin="round"/>
<path d="M99.625 111.375C99.1239 112.163 100.032 112.067 99.8612 111.382C99.7444 110.915 99.2304 111.161 99.1528 111.5C99.0585 111.913 99.5632 112.23 99.6181 111.736C99.6421 111.52 99.4648 110.821 99.25 111.25" stroke="#D9DAE6" stroke-linecap="round" stroke-linejoin="round"/>
<path d="M113.25 108.5C113.176 108.859 113.007 109.597 113.611 109.597C113.854 109.597 114.112 109.306 114.194 109.097C114.394 108.594 113.506 108.272 113.201 108.577C112.928 108.85 113.135 109.453 113.5 109.493C113.916 109.539 114.24 109.123 113.75 109" stroke="#D9DAE6" stroke-linecap="round" stroke-linejoin="round"/>
<path d="M103.25 105.875C103.309 106.598 104.046 107.148 104 106.153C103.982 105.768 103.317 105.366 103.153 105.875C102.753 107.112 104.179 106.304 103.5 105.625" stroke="#D9DAE6" stroke-linecap="round" stroke-linejoin="round"/>
<path d="M95.0002 101.625C94.7664 101.785 93.7271 103.075 94.7502 102.847C95.1517 102.758 95.4501 102.031 94.9724 101.847C94.5442 101.683 94.344 102.166 94.5141 102.549C94.7362 103.048 95.0002 102.011 95.0002 101.875" stroke="#D9DAE6" stroke-linecap="round" stroke-linejoin="round"/>
<path d="M230.577 95.3483C235.519 95.3483 239.525 91.3511 239.525 86.4202C239.525 81.4894 235.519 77.4922 230.577 77.4922C225.636 77.4922 221.63 81.4894 221.63 86.4202C221.63 91.3511 225.636 95.3483 230.577 95.3483Z" fill="url(#paint4_linear)"/>
<path d="M230.787 113.762C245.264 113.762 257 102.051 257 87.6056C257 73.1598 245.264 61.4492 230.787 61.4492C216.31 61.4492 204.574 73.1598 204.574 87.6056C204.574 102.051 216.31 113.762 230.787 113.762Z" fill="url(#paint5_linear)"/>
<path d="M230.227 104.066C239.647 104.066 247.283 96.4468 247.283 87.0474C247.283 77.648 239.647 70.0283 230.227 70.0283C220.808 70.0283 213.171 77.648 213.171 87.0474C213.171 96.4468 220.808 104.066 230.227 104.066Z" fill="url(#paint6_radial)"/>
<path d="M228.76 82.793L226.942 93.395L229.948 89.489L230.018 89.768L231.486 97.9985L235.261 97.2313L232.045 89.489L236.729 90.5353L228.76 82.793Z" fill="white"/>
<path d="M229 83.499C228.167 86.7074 227.333 89.9157 226.5 93.124" stroke="black" stroke-linecap="round" stroke-linejoin="round"/>
<path d="M226 94.124C227.281 92.8005 228.434 91.4015 229.625 89.999" stroke="black" stroke-linecap="round" stroke-linejoin="round"/>
<path d="M229.5 89.874C230.462 92.9568 231.114 96.1129 231.875 99.249" stroke="black" stroke-linecap="round" stroke-linejoin="round"/>
<path d="M231.625 89.624C233.208 92.2141 234.253 95.1182 235.5 97.874" stroke="black" stroke-linecap="round" stroke-linejoin="round"/>
<path d="M231.625 89.624C233.534 90.1681 235.45 90.6429 237.375 91.124" stroke="black" stroke-linecap="round" stroke-linejoin="round"/>
<path d="M228.5 83.249C231.374 85.8796 234.337 88.4133 237.125 91.124" stroke="black" stroke-linecap="round" stroke-linejoin="round"/>
<path d="M230.625 98.249C232.383 98.1339 234.123 97.9348 235.875 97.749" stroke="black" stroke-linecap="round" stroke-linejoin="round"/>
<g opacity="0.65">
<g opacity="0.65">
<path opacity="0.69" d="M230.556 144.09C234.191 142.276 237.406 136.905 238.804 133.836C239.713 131.814 240.482 127.14 244.257 124.978C248.031 122.816 251.177 130 249.499 133.139C246.423 138.928 241.67 146.67 236.987 145.764C229.717 144.299 230.556 144.09 230.556 144.09Z" fill="url(#paint7_linear)"/>
<path opacity="0.22" d="M230.276 144.02C233.911 142.207 237.406 140.393 238.804 137.254C239.713 135.232 244.396 128.815 248.171 126.583C251.946 124.351 252.086 132.163 250.408 135.301C247.332 141.091 243.418 147.438 238.734 146.531C231.465 145.067 230.276 144.02 230.276 144.02Z" fill="url(#paint8_linear)"/>
<path opacity="0.17" d="M153.944 85.8485C155.342 83.2678 155.971 82.2913 157.369 79.1525C158.278 77.1995 157.998 69.3875 161.773 67.1554C165.548 64.9234 174.565 71.759 172.887 74.8977C169.812 80.687 162.402 93.8001 158.767 90.6613C154.992 87.5226 153.944 85.8485 153.944 85.8485Z" fill="url(#paint9_linear)"/>
<path opacity="0.8" d="M153.664 85.7788L153.385 80.1988C153.175 76.9902 153.944 71.5497 157.649 69.3177C161.353 67.0857 168.553 75.8742 166.876 79.013C163.8 84.8023 164.149 88.9176 159.047 91.0101C158.138 91.3588 153.664 85.7788 153.664 85.7788Z" fill="url(#paint10_linear)"/>
<path opacity="0.2" d="M200.778 128.117C203.085 126.861 206.51 122.816 207.908 119.747C208.817 117.724 210.354 110.261 214.129 108.098C217.904 105.936 224.195 113.19 223.076 116.608C221.399 121.77 222.657 124.769 207.418 129.651C202.805 131.116 200.778 128.117 200.778 128.117Z" fill="url(#paint11_linear)"/>
<path opacity="0.8" d="M200.289 127.908C202.176 123.513 203.224 121.77 204.203 116.887C204.972 112.981 202.036 105.099 206.37 102.379C210.704 99.6587 218.393 109.842 217.764 116.05C216.925 124.141 213.15 127.629 207.279 130.279C206.23 130.767 200.289 127.908 200.289 127.908Z" fill="url(#paint12_linear)"/>
<path opacity="0.38" d="M156.321 126.513C157.719 123.932 156.67 108.936 160.445 106.773C164.22 104.611 175.264 114.306 173.587 117.445C170.511 123.234 163.241 129.861 158.977 127.698C158.138 127.21 157.23 126.861 156.321 126.513Z" fill="url(#paint13_linear)"/>
<path opacity="0.8" d="M155.831 126.373C157.229 124.629 157.439 124.141 157.858 123.164C159.116 119.747 157.369 112.702 161.144 110.539C164.918 108.377 170.231 115.631 168.553 118.77C165.477 124.559 163.8 126.791 161.004 127.489C159.186 127.907 157.299 127.489 155.831 126.373Z" fill="url(#paint14_linear)"/>
<path opacity="0.2" d="M204.762 67.7135C207.069 66.458 209.795 59.1342 211.193 56.0652C212.102 54.1122 213.64 46.5791 217.414 44.4169C221.189 42.2546 226.711 49.3692 226.362 52.9264C225.803 58.9947 223.356 64.5747 216.925 65.1327C211.613 65.621 204.762 67.7135 204.762 67.7135Z" fill="url(#paint15_linear)"/>
<path opacity="0.8" d="M205.322 66.9458C207.209 62.5516 207.139 59.6918 208.188 54.8093C208.957 50.9033 205.671 43.6492 210.005 40.8592C214.339 38.0692 223.916 47.2762 222.238 53.3445C220.98 57.8085 218.463 62.5516 216.995 63.8071C216.017 64.5743 205.671 67.0156 205.322 66.9458Z" fill="url(#paint16_linear)"/>
<path opacity="0.69" d="M123.537 80.6869C121.23 78.2457 119.483 77.4086 118.085 74.3396C116.547 71.3404 116.057 67.9923 116.547 64.6443C117.316 60.3896 124.865 62.6913 126.193 66.0393C128.64 72.1076 130.247 76.1531 127.661 83.7559C127.312 84.7324 123.537 80.6869 123.537 80.6869Z" fill="url(#paint17_linear)"/>
<path opacity="0.22" d="M125.983 82.6402C124.306 80.1291 122.698 80.8266 121.3 77.7576C120.391 75.8046 119.552 67.0161 120.321 62.6915C121.09 58.367 127.102 63.3193 128.43 66.6673C130.876 72.7356 132.973 79.7106 129.338 82.8494C126.612 85.2209 125.983 82.6402 125.983 82.6402Z" fill="url(#paint18_linear)"/>
<path opacity="0.17" d="M159.956 159.574C161.354 156.993 163.591 154.971 164.709 151.762C166.946 145.275 164.569 141.299 168.274 139.137C171.979 136.975 181.695 149.112 180.017 152.25C176.942 158.04 164.639 163.55 161.004 160.411C157.299 157.133 159.956 159.574 159.956 159.574Z" fill="url(#paint19_linear)"/>
<path opacity="0.8" d="M159.956 159.574C161.144 158.179 162.402 154.831 162.612 153.785C164.429 146.531 160.445 143.462 164.15 141.23C167.854 138.998 175.054 147.786 173.377 150.925C170.301 156.714 167.715 158.737 162.542 160.83C161.703 161.178 159.956 159.574 159.956 159.574Z" fill="url(#paint20_linear)"/>
<path opacity="0.17" d="M100.819 98.1937C100.26 95.334 100.609 92.3347 99.4209 89.1262C96.9743 82.7091 92.5705 81.2444 94.0384 77.1291C95.5064 73.0138 110.745 76.1526 111.514 79.6401C112.912 86.0572 106.97 98.124 102.217 98.124C97.2539 98.0542 100.819 98.1937 100.819 98.1937Z" fill="url(#paint21_linear)"/>
<path opacity="0.8" d="M100.819 98.1944C100.889 96.3809 99.6304 92.9631 99.1411 92.0564C95.8558 85.2906 90.8228 85.4998 92.2908 81.4543C93.7587 77.339 104.873 79.5013 105.642 82.9888C107.04 89.4058 106.341 92.6143 103.685 97.4969C103.265 98.2641 100.819 98.1944 100.819 98.1944Z" fill="url(#paint22_linear)"/>
<path opacity="0.1" d="M137.307 40.5807C139.614 39.3252 143.039 35.2797 144.437 32.2107C145.346 30.2577 146.884 22.7246 150.658 20.5624C154.433 18.4001 160.724 25.6541 159.606 29.0719C157.928 34.1637 159.186 37.2327 143.948 42.1152C139.334 43.58 137.307 40.5807 137.307 40.5807Z" fill="url(#paint23_linear)"/>
<path opacity="0.6" d="M136.818 40.3715C138.705 35.9772 139.754 34.2335 140.732 29.3509C141.501 25.4449 138.635 17.5631 142.899 14.8429C147.163 12.1226 154.922 22.3062 154.293 28.5139C153.454 36.605 147.373 41.6968 141.501 44.3473C140.453 44.7658 136.818 40.3715 136.818 40.3715Z" fill="url(#paint24_linear)"/>
<path opacity="0.17" d="M73.1377 138.998C72.5086 136.139 72.3688 134.953 71.4601 131.675C70.9008 129.582 65.5883 123.793 67.0563 119.678C68.5242 115.562 79.7783 115.004 80.5473 118.492C81.9453 124.909 84.7414 139.696 79.9182 139.626C75.025 139.626 73.1377 138.998 73.1377 138.998Z" fill="url(#paint25_linear)"/>
<path opacity="0.8" d="M72.9281 139.137L69.0836 135.022C66.8467 132.72 63.9108 128.047 65.3788 123.932C66.8467 119.817 77.9611 121.909 78.73 125.397C80.128 131.814 83.0639 134.743 80.4775 139.626C79.9183 140.532 72.9281 139.137 72.9281 139.137Z" fill="url(#paint26_linear)"/>
<path opacity="0.17" d="M77.1919 22.794C76.5628 19.9342 76.1434 16.8652 75.2347 13.5869C74.6755 11.4944 69.6425 7.58838 71.1105 3.54286C72.5784 -0.502666 83.8326 -1.20017 84.6015 2.28735C85.9995 8.70438 84.6015 25.584 79.7783 25.584C74.8852 25.5142 77.1919 22.794 77.1919 22.794Z" fill="url(#paint27_linear)"/>
<path opacity="0.8" d="M76.5629 24.3981L75.0251 18.9576C74.1163 15.8886 73.627 10.3783 76.8425 7.44877C80.058 4.51926 88.9355 11.4943 88.0268 14.9121C86.2792 21.1896 83.9725 23.1426 79.359 26.2814C78.5901 26.8394 76.5629 24.3981 76.5629 24.3981Z" fill="url(#paint28_linear)"/>
<path opacity="0.38" d="M62.5825 59.9714C61.6738 57.1814 50.0701 47.5558 51.0488 43.3708C52.0274 39.1858 66.7067 37.8605 67.8251 41.2783C69.9222 47.4861 69.7125 57.3209 65.1689 58.8554C64.3301 59.1344 63.4213 59.5529 62.5825 59.9714Z" fill="url(#paint29_linear)"/>
<path opacity="0.8" d="M62.093 60.2503C61.7435 58.0183 61.6037 57.53 61.1144 56.6233C59.5066 53.345 53.2155 49.7877 54.1941 45.533C55.1727 41.2782 64.19 42.464 65.3085 45.8817C67.4055 52.0895 67.8249 54.8795 66.4269 57.3208C65.5881 58.8553 63.9803 59.9713 62.093 60.2503Z" fill="url(#paint30_linear)"/>
</g>
<g opacity="0.65">
<path opacity="0.2" d="M125.844 139.416C125.844 136.766 125.005 136.417 122.908 133.766C121.58 132.023 115.708 127.14 115.498 122.816C115.289 118.491 124.236 116.956 127.172 118.91C132.275 122.258 134.372 124.769 131.855 130.697C131.156 132.371 130.737 134.952 131.715 138.858C132.484 141.718 125.844 139.416 125.844 139.416Z" fill="url(#paint31_linear)"/>
<path opacity="0.8" d="M131.156 139.556C128.15 135.789 130.597 143.741 120.251 135.859C117.176 133.418 109.207 132.86 108.788 127.768C108.368 122.676 121.02 118.491 125.564 122.816C128.919 126.024 127.591 133.487 128.01 135.371C128.29 136.556 131.366 139.277 131.156 139.556Z" fill="url(#paint32_linear)"/>
</g>
<path opacity="0.65" d="M230.647 143.407C234.282 141.593 235.261 141.035 237.078 139.361C237.847 138.664 239.595 140.477 242.6 140.896C244.348 141.105 239.664 145.29 236.659 144.802C229.389 143.686 230.647 143.407 230.647 143.407Z" fill="url(#paint33_linear)"/>
<path opacity="0.65" d="M154.035 86.0718C153.755 85.165 154.315 83.0027 155.363 81.4682C155.922 80.6312 159.627 85.5835 160.746 87.955C161.514 89.5593 160.955 89.4198 158.998 91.303C158.229 92.0005 155.153 87.4668 154.035 86.0718Z" fill="#EFE59C" stroke="#706F6F" stroke-width="0.04" stroke-miterlimit="10"/>
<g opacity="0.65">
<path opacity="0.65" d="M200.219 128.326C203.854 126.513 205.811 123.374 207.628 121.7C208.397 121.002 212.521 123.165 215.597 123.583C217.345 123.792 207.209 131.186 204.343 130.279C202.875 129.721 201.477 129.094 200.219 128.326Z" fill="url(#paint34_linear)"/>
<path opacity="0.65" d="M155.552 126.025C159.187 124.211 158.558 122.049 160.375 120.445C161.144 119.747 161.913 121.282 163.241 123.025C163.59 123.444 162.332 127.559 159.956 127.35C158.418 127.21 156.95 126.792 155.552 126.025Z" fill="url(#paint35_linear)"/>
<path opacity="0.65" d="M204.553 67.016C208.188 65.2025 210.005 61.994 211.753 60.3897C212.522 59.6922 215.807 62.552 217.205 64.2957C217.554 64.7142 215.667 65.5512 213.29 65.4117C210.914 65.2722 204.553 67.016 204.553 67.016Z" fill="url(#paint36_linear)"/>
</g>
<path opacity="0.65" d="M99.7213 89.2107C99.4417 88.3039 103.216 88.7922 104.754 88.5829C105.733 88.4434 104.335 91.3729 104.894 95.2789C104.894 95.4882 102.098 97.8597 101.748 97.511C100.211 95.837 99.7213 92.1402 99.7213 89.2107Z" fill="#FFC5A1"/>
<path opacity="0.65" d="M79.3801 26.2951C78.6112 26.8531 78.5413 25.4581 76.7238 24.9698C75.7452 24.6908 80.149 19.7385 81.2674 16.3208C81.8266 14.6468 82.6654 17.2973 85.0421 18.6225C85.9508 19.041 82.5955 24.5513 79.3801 26.2951Z" fill="#EFE59C"/>
<path opacity="0.65" d="M137.678 38.2225C137.887 37.3157 140.404 33.9677 142.082 33.1307C143.06 32.7122 143.06 37.5947 144.528 40.873C145.227 42.4772 143.55 42.826 141.522 44.3605C140.684 44.9185 136.42 41.5705 137.678 38.2225Z" fill="url(#paint37_linear)"/>
<path opacity="0.65" d="M66.378 57.5437C66.6576 58.4505 67.3567 60.4732 66.378 62.0078C65.8188 62.8448 60.1568 57.6135 56.0326 56.9857C54.2851 56.7067 58.9685 56.7067 59.8772 54.3352C60.2267 53.4982 65.5392 54.0562 66.378 57.5437Z" fill="#9EBCFD"/>
<path opacity="0.65" d="M127.262 85.8621C126.423 81.8863 122.439 80.4215 121.321 78.2593C120.831 77.3525 123.418 77.492 125.445 76.5853C125.934 76.376 128.031 75.7483 127.262 77.9803C126.493 80.2123 127.262 85.8621 127.262 85.8621Z" fill="#FEB7D5"/>
<path opacity="0.65" d="M80.4286 139.779C80.7781 140.686 75.7452 139.919 74.2773 140.198C73.2986 140.407 71.2016 138.803 69.5239 136.361C68.5453 134.897 69.5239 137.408 74.3472 135.943C75.3957 135.664 77.0733 137.477 80.4286 139.779Z" fill="#EFE59C"/>
<path opacity="0.65" d="M123.208 135.943C122.929 135.036 126.494 135.594 127.962 135.385C128.94 135.245 129.08 136.78 131.177 139.57C131.317 139.709 126.144 139.849 125.795 139.43C124.327 137.756 123.208 138.802 123.208 135.943Z" fill="#BBECD8"/>
<path opacity="0.65" d="M159.907 159.518C162.982 156.868 163.052 154.915 164.87 153.241C165.639 152.543 166.827 155.124 168.155 156.868C168.505 157.286 163.681 161.192 161.584 160.774C160.885 160.565 160.326 160.146 159.907 159.518Z" fill="url(#paint38_linear)"/>
</g>
<defs>
<radialGradient id="paint0_radial" cx="0" cy="0" r="1" gradientUnits="userSpaceOnUse" gradientTransform="translate(163 158.5) rotate(90) scale(54.5 94)">
<stop stop-color="#C4C4C4"/>
<stop offset="1" stop-color="#C4C4C4" stop-opacity="0"/>
</radialGradient>
<linearGradient id="paint1_linear" x1="202.965" y1="140.879" x2="209.013" y2="3.92989" gradientUnits="userSpaceOnUse">
<stop stop-color="#E4E7EF" stop-opacity="0.52"/>
<stop offset="1" stop-color="#F4F6F8"/>
</linearGradient>
<linearGradient id="paint2_linear" x1="102.288" y1="119.992" x2="108.336" y2="-16.9565" gradientUnits="userSpaceOnUse">
<stop offset="0.62" stop-color="#E4E7EF"/>
<stop offset="1" stop-color="#F4F6F8" stop-opacity="0.03"/>
</linearGradient>
<linearGradient id="paint3_linear" x1="91.2893" y1="135.949" x2="97.3306" y2="-1.00048" gradientUnits="userSpaceOnUse">
<stop stop-color="#E4E7EF"/>
<stop offset="1" stop-color="#F4F6F8"/>
</linearGradient>
<linearGradient id="paint4_linear" x1="229.695" y1="91.3907" x2="232.556" y2="75.2064" gradientUnits="userSpaceOnUse">
<stop stop-color="#FFC5A1" stop-opacity="0.4"/>
<stop offset="1" stop-color="#FFC5A1" stop-opacity="0.4"/>
</linearGradient>
<linearGradient id="paint5_linear" x1="228.218" y1="102.063" x2="236.591" y2="54.738" gradientUnits="userSpaceOnUse">
<stop offset="0.43" stop-color="#EABDAD" stop-opacity="0.2"/>
<stop offset="1" stop-color="#EABDAD" stop-opacity="0"/>
</linearGradient>
<radialGradient id="paint6_radial" cx="0" cy="0" r="1" gradientUnits="userSpaceOnUse" gradientTransform="translate(230.227 87.0474) scale(26.2292 26.1725)">
<stop offset="0.63" stop-color="#FFC5A1" stop-opacity="0.19"/>
<stop offset="1" stop-color="#B1A6CD" stop-opacity="0.2"/>
</radialGradient>
<linearGradient id="paint7_linear" x1="226.008" y1="156.507" x2="247.18" y2="128.793" gradientUnits="userSpaceOnUse">
<stop stop-color="#F6B4E2"/>
<stop offset="1" stop-color="#F5B1E1" stop-opacity="0"/>
</linearGradient>
<linearGradient id="paint8_linear" x1="226.993" y1="157.751" x2="248.778" y2="129.24" gradientUnits="userSpaceOnUse">
<stop offset="0.3" stop-color="#F4AEE0"/>
<stop offset="0.98" stop-color="#F6B3E2" stop-opacity="0"/>
</linearGradient>
<linearGradient id="paint9_linear" x1="153.158" y1="82.4369" x2="165.599" y2="77.2632" gradientUnits="userSpaceOnUse">
<stop offset="0.21" stop-color="#EFE59C"/>
<stop offset="0.85" stop-color="#EFE59C" stop-opacity="0"/>
</linearGradient>
<linearGradient id="paint10_linear" x1="160.239" y1="95.3206" x2="160.239" y2="73.154" gradientUnits="userSpaceOnUse">
<stop offset="0.21" stop-color="#EFE59C"/>
<stop offset="0.85" stop-color="#EFE59C" stop-opacity="0"/>
</linearGradient>
<linearGradient id="paint11_linear" x1="202.161" y1="141.786" x2="223.499" y2="101.3" gradientUnits="userSpaceOnUse">
<stop offset="0.5" stop-color="#B1A6CC"/>
<stop offset="0.79" stop-color="white" stop-opacity="0"/>
</linearGradient>
<linearGradient id="paint12_linear" x1="209.146" y1="131.712" x2="208.898" y2="103.17" gradientUnits="userSpaceOnUse">
<stop offset="0.08" stop-color="#B1A6CC"/>
<stop offset="0.85" stop-color="white" stop-opacity="0"/>
</linearGradient>
<linearGradient id="paint13_linear" x1="163.906" y1="130.823" x2="166.405" y2="109.91" gradientUnits="userSpaceOnUse">
<stop offset="0.26" stop-color="#9EBCFD"/>
<stop offset="0.88" stop-color="white" stop-opacity="0"/>
</linearGradient>
<linearGradient id="paint14_linear" x1="162.351" y1="131.109" x2="162.351" y2="113.455" gradientUnits="userSpaceOnUse">
<stop offset="0.37" stop-color="#9EBCFD"/>
<stop offset="1" stop-color="white" stop-opacity="0"/>
</linearGradient>
<linearGradient id="paint15_linear" x1="204.938" y1="81.3217" x2="228.011" y2="37.54" gradientUnits="userSpaceOnUse">
<stop offset="0.44" stop-color="#70FFD6"/>
<stop offset="0.77" stop-color="#70FFD6" stop-opacity="0"/>
</linearGradient>
<linearGradient id="paint16_linear" x1="202.563" y1="91.471" x2="221.612" y2="26.009" gradientUnits="userSpaceOnUse">
<stop offset="0.18" stop-color="#BBECD8"/>
<stop offset="0.71" stop-color="#BBECD8" stop-opacity="0"/>
</linearGradient>
<linearGradient id="paint17_linear" x1="127.658" y1="95.3728" x2="121.166" y2="64.6338" gradientUnits="userSpaceOnUse">
<stop stop-color="#F6B4E2"/>
<stop offset="1" stop-color="#F5B1E1" stop-opacity="0"/>
</linearGradient>
<linearGradient id="paint18_linear" x1="130.108" y1="95.215" x2="123.415" y2="63.5314" gradientUnits="userSpaceOnUse">
<stop offset="0.3" stop-color="#F4AEE0"/>
<stop offset="0.98" stop-color="#F6B3E2" stop-opacity="0"/>
</linearGradient>
<linearGradient id="paint19_linear" x1="158.797" y1="161.431" x2="172.593" y2="147.374" gradientUnits="userSpaceOnUse">
<stop offset="0.44" stop-color="#FFC5A1"/>
<stop offset="0.91" stop-color="#FFC5A1" stop-opacity="0"/>
</linearGradient>
<linearGradient id="paint20_linear" x1="166.791" y1="164.757" x2="166.791" y2="144.648" gradientUnits="userSpaceOnUse">
<stop offset="0.21" stop-color="#FFC5A1"/>
<stop offset="0.85" stop-color="#FFC5A1" stop-opacity="0"/>
</linearGradient>
<linearGradient id="paint21_linear" x1="101.022" y1="100.721" x2="102.671" y2="81.0856" gradientUnits="userSpaceOnUse">
<stop offset="0.44" stop-color="#FFC5A1"/>
<stop offset="0.91" stop-color="#FFC5A1" stop-opacity="0"/>
</linearGradient>
<linearGradient id="paint22_linear" x1="109.612" y1="98.0655" x2="96.7436" y2="82.5488" gradientUnits="userSpaceOnUse">
<stop offset="0.21" stop-color="#FFC5A1"/>
<stop offset="0.85" stop-color="#FFC5A1" stop-opacity="0"/>
</linearGradient>
<linearGradient id="paint23_linear" x1="138.676" y1="54.261" x2="160.014" y2="13.7747" gradientUnits="userSpaceOnUse">
<stop offset="0.5" stop-color="#B1A6CC"/>
<stop offset="0.79" stop-color="white" stop-opacity="0"/>
</linearGradient>
<linearGradient id="paint24_linear" x1="145.694" y1="46.0236" x2="145.432" y2="15.8981" gradientUnits="userSpaceOnUse">
<stop offset="0.08" stop-color="#B1A6CC"/>
<stop offset="0.85" stop-color="white" stop-opacity="0"/>
</linearGradient>
<linearGradient id="paint25_linear" x1="69.8735" y1="137.664" x2="76.1322" y2="125.733" gradientUnits="userSpaceOnUse">
<stop offset="0.21" stop-color="#EFE59C"/>
<stop offset="0.85" stop-color="#EFE59C" stop-opacity="0"/>
</linearGradient>
<linearGradient id="paint26_linear" x1="84.2697" y1="142.497" x2="70.0888" y2="125.398" gradientUnits="userSpaceOnUse">
<stop offset="0.21" stop-color="#EFE59C"/>
<stop offset="0.85" stop-color="#EFE59C" stop-opacity="0"/>
</linearGradient>
<linearGradient id="paint27_linear" x1="72.1735" y1="22.2111" x2="78.9957" y2="9.22042" gradientUnits="userSpaceOnUse">
<stop offset="0.21" stop-color="#EFE59C"/>
<stop offset="0.85" stop-color="#EFE59C" stop-opacity="0"/>
</linearGradient>
<linearGradient id="paint28_linear" x1="84.3303" y1="29.0631" x2="80.1263" y2="10.1032" gradientUnits="userSpaceOnUse">
<stop offset="0.21" stop-color="#EFE59C"/>
<stop offset="0.85" stop-color="#EFE59C" stop-opacity="0"/>
</linearGradient>
<linearGradient id="paint29_linear" x1="70.8984" y1="57.468" x2="57.4853" y2="41.2086" gradientUnits="userSpaceOnUse">
<stop offset="0.26" stop-color="#9EBCFD"/>
<stop offset="0.88" stop-color="white" stop-opacity="0"/>
</linearGradient>
<linearGradient id="paint30_linear" x1="70.0003" y1="58.8285" x2="57.2166" y2="46.6245" gradientUnits="userSpaceOnUse">
<stop offset="0.37" stop-color="#9EBCFD"/>
<stop offset="1" stop-color="white" stop-opacity="0"/>
</linearGradient>
<linearGradient id="paint31_linear" x1="139.638" y1="147.153" x2="115.095" y2="111.107" gradientUnits="userSpaceOnUse">
<stop offset="0.44" stop-color="#70FFD6"/>
<stop offset="0.77" stop-color="#70FFD6" stop-opacity="0"/>
</linearGradient>
<linearGradient id="paint32_linear" x1="147.299" y1="155.233" x2="102.091" y2="111.296" gradientUnits="userSpaceOnUse">
<stop offset="0.18" stop-color="#BBECD8"/>
<stop offset="0.71" stop-color="#BBECD8" stop-opacity="0"/>
</linearGradient>
<linearGradient id="paint33_linear" x1="226.094" y1="153.051" x2="269.724" y2="110.004" gradientUnits="userSpaceOnUse">
<stop offset="0.12" stop-color="#FEB7D5"/>
<stop offset="0.6" stop-color="#FEB7D5" stop-opacity="0"/>
</linearGradient>
<linearGradient id="paint34_linear" x1="200.198" y1="125.959" x2="215.777" y2="125.959" gradientUnits="userSpaceOnUse">
<stop stop-color="#B1A7CB"/>
<stop offset="1" stop-color="#B1A6CD"/>
</linearGradient>
<linearGradient id="paint35_linear" x1="154.242" y1="129.445" x2="179.325" y2="107.615" gradientUnits="userSpaceOnUse">
<stop offset="0.32" stop-color="#9EBCFD"/>
<stop offset="0.6" stop-color="#9EBCFD" stop-opacity="0"/>
</linearGradient>
<linearGradient id="paint36_linear" x1="207.155" y1="68.8167" x2="242.997" y2="37.6312" gradientUnits="userSpaceOnUse">
<stop offset="0.4" stop-color="#BBECD8"/>
<stop offset="1" stop-color="#BBECD8" stop-opacity="0"/>
</linearGradient>
<linearGradient id="paint37_linear" x1="137.447" y1="38.7637" x2="144.661" y2="38.7637" gradientUnits="userSpaceOnUse">
<stop stop-color="#B1A7CB"/>
<stop offset="1" stop-color="#B1A6CD"/>
</linearGradient>
<linearGradient id="paint38_linear" x1="158.032" y1="162.58" x2="184.434" y2="139.603" gradientUnits="userSpaceOnUse">
<stop offset="0.32" stop-color="#FFC5A1"/>
<stop offset="1"/>
</linearGradient>
</defs>
</svg>
