<svg width="108" height="117" viewBox="0 0 108 117" fill="none" xmlns="http://www.w3.org/2000/svg">
<path d="M17.5599 79.9666L11.6442 73.5856L25.2285 77.3262L53.7117 75.3459L66.4196 70.7251C71.2399 72.4854 77.1556 76.006 77.1556 76.006C77.1556 76.006 67.223 80.1867 63.7904 81.7269V111.652L32.4588 115.172L24.133 105.931V81.7269L17.5599 79.9666Z" fill="white"/>
<path d="M33.0744 84.2923L16.2251 79.9054L11.5448 73.9517L26.2099 77.3986L53.3558 75.8318L67.7089 71.4448L77.6936 75.8318L64.9007 81.4722L33.0744 84.2923Z" fill="url(#paint0_linear_150_120386)"/>
<path fill-rule="evenodd" clip-rule="evenodd" d="M32.5184 83.8809C32.6907 83.8809 32.8304 84.0212 32.8304 84.1942L32.8304 115.671C32.8304 115.844 32.6907 115.985 32.5184 115.985C32.3461 115.985 32.2064 115.844 32.2064 115.671L32.2064 84.1942C32.2064 84.0212 32.3461 83.8809 32.5184 83.8809Z" fill="black"/>
<path fill-rule="evenodd" clip-rule="evenodd" d="M63.8202 79.8193C63.9925 79.8193 64.1322 79.9596 64.1322 80.1327L64.1322 112.016C64.1322 112.189 63.9925 112.329 63.8201 112.329C63.6478 112.329 63.5081 112.189 63.5081 112.016L63.5081 80.1327C63.5081 79.9596 63.6478 79.8193 63.8202 79.8193Z" fill="black"/>
<path fill-rule="evenodd" clip-rule="evenodd" d="M64.8827 111.776C64.903 111.948 64.7807 112.104 64.6095 112.124C55.815 113.17 50.2596 113.751 44.4266 114.361C40.0689 114.817 35.5563 115.289 29.4223 115.983C29.251 116.002 29.0966 115.878 29.0773 115.706C29.058 115.534 29.1812 115.379 29.3524 115.36C35.5002 114.664 40.0138 114.192 44.3701 113.737C50.1961 113.128 55.7406 112.548 64.5361 111.502C64.7073 111.481 64.8624 111.604 64.8827 111.776Z" fill="black"/>
<path fill-rule="evenodd" clip-rule="evenodd" d="M22.9063 104.882C23.0326 104.764 23.23 104.771 23.3473 104.898C25.4336 107.154 26.9156 108.74 28.1976 110.112C30.1433 112.193 31.6285 113.782 34.0669 116.476C34.1828 116.604 34.1734 116.802 34.0459 116.919C33.9184 117.035 33.7211 117.026 33.6052 116.897C31.1692 114.206 29.6893 112.623 27.7469 110.545C26.4652 109.174 24.9821 107.587 22.89 105.324C22.7727 105.198 22.78 104.999 22.9063 104.882Z" fill="black"/>
<path fill-rule="evenodd" clip-rule="evenodd" d="M24.1583 81.3828C24.3306 81.3828 24.4703 81.5231 24.4703 81.6962V107.548C24.4703 107.721 24.3306 107.862 24.1583 107.862C23.986 107.862 23.8463 107.721 23.8463 107.548V81.6962C23.8463 81.5231 23.986 81.3828 24.1583 81.3828Z" fill="black"/>
<path fill-rule="evenodd" clip-rule="evenodd" d="M29.076 84.6211C29.0872 84.7938 29.2357 84.9246 29.4076 84.9134C38.7132 84.3039 53.6807 83.0851 65.8172 81.8663C65.9886 81.8491 66.1137 81.6955 66.0966 81.5233C66.0794 81.3511 65.9265 81.2255 65.7551 81.2427C53.6257 82.4608 38.6653 83.679 29.367 84.288C29.1951 84.2993 29.0647 84.4484 29.076 84.6211Z" fill="black"/>
<path fill-rule="evenodd" clip-rule="evenodd" d="M54.1668 75.4413C54.1781 75.614 54.0478 75.7632 53.8759 75.7745C41.5384 76.587 36.0168 76.8743 24.9533 77.3994C24.7812 77.4076 24.6351 77.2741 24.6269 77.1012C24.6188 76.9284 24.7518 76.7816 24.9239 76.7734C35.9846 76.2485 41.5022 75.9613 53.835 75.1491C54.007 75.1378 54.1555 75.2686 54.1668 75.4413Z" fill="black"/>
<path fill-rule="evenodd" clip-rule="evenodd" d="M52.1951 74.2524C52.3019 74.1166 52.4981 74.0935 52.6333 74.2008C56.2078 77.0368 60.2276 79.2508 64.2484 81.4653C64.9803 81.8683 65.7121 82.2714 66.4414 82.6782C66.592 82.7623 66.6463 82.9531 66.5626 83.1043C66.4789 83.2556 66.2889 83.3101 66.1383 83.2261C65.4153 82.8227 64.6876 82.422 63.9581 82.0203C59.9382 79.8067 55.8656 77.564 52.2465 74.6925C52.1113 74.5853 52.0882 74.3882 52.1951 74.2524Z" fill="black"/>
<path fill-rule="evenodd" clip-rule="evenodd" d="M70.9384 69.4834C70.9875 69.6493 70.8934 69.8238 70.7282 69.8731C70.5793 69.9175 70.4321 69.9615 70.2863 70.005C63.1087 72.1478 59.6986 73.1658 53.7652 75.457C53.6043 75.5191 53.4238 75.4386 53.362 75.277C53.3001 75.1155 53.3804 74.9342 53.5412 74.8721C59.4975 72.572 62.9282 71.5479 70.1019 69.4063C70.2498 69.3621 70.3993 69.3175 70.5504 69.2724C70.7156 69.223 70.8893 69.3175 70.9384 69.4834Z" fill="black"/>
<path fill-rule="evenodd" clip-rule="evenodd" d="M80.049 75.3853C80.0968 75.5516 80.0012 75.7253 79.8356 75.7732C73.5778 77.5846 69.3471 79.4052 63.8907 81.8406C63.7332 81.9108 63.5488 81.8396 63.4788 81.6815C63.4089 81.5233 63.4798 81.3381 63.6372 81.2679C69.1005 78.8294 73.3628 76.9946 79.6628 75.171C79.8284 75.1231 80.0013 75.2191 80.049 75.3853Z" fill="black"/>
<path fill-rule="evenodd" clip-rule="evenodd" d="M66.111 70.2505C66.1851 70.0942 66.3713 70.0279 66.5269 70.1023C70.7733 72.133 75.4268 74.368 79.4741 76.4003C79.6282 76.4777 79.6907 76.666 79.6136 76.8208C79.5366 76.9755 79.3491 77.0383 79.195 76.9609C75.1537 74.9316 70.5053 72.699 66.2586 70.6681C66.103 70.5937 66.037 70.4067 66.111 70.2505Z" fill="black"/>
<path fill-rule="evenodd" clip-rule="evenodd" d="M11.3815 73.4032C11.5085 73.2862 11.7059 73.2948 11.8224 73.4224C12.3989 74.0541 12.96 74.6834 13.5166 75.3078C15.1195 77.1058 16.685 78.8619 18.4763 80.5109C18.6033 80.6278 18.6119 80.8261 18.4955 80.9536C18.379 81.0812 18.1817 81.0898 18.0546 80.9729C16.2386 79.3011 14.6438 77.5121 13.035 75.7074C12.4823 75.0874 11.9279 74.4655 11.3624 73.8459C11.2459 73.7183 11.2545 73.5201 11.3815 73.4032Z" fill="black"/>
<path fill-rule="evenodd" clip-rule="evenodd" d="M24.2955 76.6818C24.4065 76.5495 24.6033 76.5325 24.7352 76.644C28.5838 79.8988 31.017 82.1387 34.4611 85.5975C34.583 85.7199 34.583 85.9183 34.4611 86.0407C34.3393 86.1631 34.1417 86.1631 34.0199 86.0407C30.5887 82.5949 28.1687 80.367 24.3332 77.1234C24.2014 77.0119 24.1845 76.8142 24.2955 76.6818Z" fill="black"/>
<path fill-rule="evenodd" clip-rule="evenodd" d="M16.1423 79.6527C16.1829 79.4845 16.3516 79.3812 16.519 79.422C17.0248 79.5451 17.5133 79.6638 17.9868 79.7787C23.7579 81.1804 27.2979 82.0401 32.7234 83.8976C32.8865 83.9535 32.9737 84.1315 32.9181 84.2953C32.8625 84.4591 32.6852 84.5467 32.5221 84.4908C27.1242 82.6428 23.6098 81.7892 17.8363 80.387C17.3641 80.2723 16.8767 80.1539 16.372 80.031C16.2045 79.9903 16.1017 79.8209 16.1423 79.6527Z" fill="black"/>
<path fill-rule="evenodd" clip-rule="evenodd" d="M11.2893 73.5595C11.3304 73.3914 11.4994 73.2886 11.6668 73.3299C14.0366 73.9142 16.3913 74.555 18.7418 75.1947L18.8973 75.237C21.3007 75.891 23.6999 76.5425 26.1139 77.1322C26.2813 77.1731 26.3841 77.3426 26.3433 77.5108C26.3026 77.6789 26.1338 77.7821 25.9664 77.7412C23.5433 77.1493 21.1365 76.4957 18.7341 75.8419L18.5815 75.8004C16.229 75.1601 13.8804 74.521 11.518 73.9385C11.3506 73.8973 11.2483 73.7276 11.2893 73.5595Z" fill="black"/>
<path fill-rule="evenodd" clip-rule="evenodd" d="M53.544 73.3208C53.7163 73.3208 53.856 73.4611 53.856 73.6342L53.856 82.5696C53.856 82.7426 53.7163 82.8829 53.544 82.8829C53.3716 82.8829 53.2319 82.7426 53.2319 82.5696L53.2319 73.6342C53.2319 73.4611 53.3716 73.3208 53.544 73.3208Z" fill="black"/>
<path fill-rule="evenodd" clip-rule="evenodd" d="M30.3037 113.05C30.1396 112.997 30.0493 112.821 30.1021 112.656L32.273 105.884C32.3258 105.72 32.5016 105.629 32.6658 105.682C32.8299 105.735 32.9201 105.912 32.8673 106.077L30.6964 112.848C30.6436 113.013 30.4678 113.103 30.3037 113.05ZM27.9578 110.629C27.7937 110.576 27.7035 110.4 27.7563 110.235L32.2706 96.1535C32.3234 95.9888 32.4992 95.8983 32.6633 95.9514C32.8274 96.0045 32.9177 96.1811 32.8649 96.3458L28.3506 110.427C28.2978 110.592 28.1219 110.682 27.9578 110.629ZM25.3055 107.768C25.1423 107.714 25.0529 107.538 25.1055 107.374C26.2644 103.759 27.5064 100.08 28.7326 96.4498L28.7804 96.3083C28.7965 96.2607 28.8126 96.213 28.8287 96.1654L32.268 85.8117L32.269 85.8086C32.3233 85.645 32.4991 85.5563 32.6623 85.6101C32.8255 85.6638 32.9149 85.8398 32.8623 86.0039C31.7913 89.3446 30.6136 92.8333 29.4204 96.3656L25.6998 107.566L25.6988 107.569C25.6445 107.733 25.4687 107.821 25.3055 107.768Z" fill="black"/>
<path fill-rule="evenodd" clip-rule="evenodd" d="M24.1867 100.949C24.0224 100.896 23.9317 100.72 23.984 100.555L29.4313 83.3933C29.4837 83.2284 29.6592 83.1374 29.8235 83.19C29.9878 83.2426 30.0785 83.4189 30.0262 83.5838L24.5789 100.746C24.5266 100.911 24.351 101.002 24.1867 100.949ZM24.1834 91.0468C24.0193 90.9937 23.929 90.8172 23.9818 90.6525L26.6624 82.2915C26.7152 82.1268 26.891 82.0363 27.0551 82.0894C27.2193 82.1425 27.3095 82.319 27.2567 82.4838L24.5762 90.8447C24.5233 91.0094 24.3475 91.0999 24.1834 91.0468Z" fill="black"/>
<path fill-rule="evenodd" clip-rule="evenodd" d="M45.4122 83.7843C45.2481 83.7312 45.1579 83.5547 45.2107 83.39L47.6084 75.91C47.6612 75.7453 47.837 75.6548 48.0011 75.7079C48.1651 75.761 48.2553 75.9375 48.2026 76.1022L45.8048 83.5822C45.752 83.7469 45.5762 83.8374 45.4122 83.7843ZM49.1907 83.1252C49.0266 83.0721 48.9364 82.8956 48.9892 82.7309L51.1754 75.9109C51.2282 75.7462 51.404 75.6557 51.568 75.7088C51.7321 75.7619 51.8223 75.9384 51.7695 76.1031L49.5834 82.9231C49.5306 83.0878 49.3548 83.1783 49.1907 83.1252ZM52.3118 83.126C52.1477 83.0729 52.0575 82.8964 52.1103 82.7317L53.2386 79.2117C53.2914 79.047 53.4672 78.9565 53.6313 79.0096C53.7954 79.0627 53.8856 79.2392 53.8328 79.4039L52.7045 82.9239C52.6517 83.0886 52.4759 83.1791 52.3118 83.126Z" fill="black"/>
<path fill-rule="evenodd" clip-rule="evenodd" d="M35.3655 84.6642C35.2014 84.6111 35.1112 84.4345 35.164 84.2698L37.7028 76.3497C37.7556 76.185 37.9314 76.0945 38.0955 76.1476C38.2596 76.2007 38.3498 76.3772 38.297 76.5419L35.7581 84.4621C35.7054 84.6268 35.5295 84.7173 35.3655 84.6642ZM39.0865 84.1848C38.9224 84.1317 38.8322 83.9552 38.885 83.7905L41.2698 76.3506C41.3226 76.1859 41.4985 76.0954 41.6625 76.1485C41.8266 76.2016 41.9168 76.3781 41.864 76.5428L39.4792 83.9827C39.4264 84.1474 39.2505 84.2379 39.0865 84.1848ZM42.2241 84.1342C42.06 84.0811 41.9698 83.9046 42.0226 83.7399L44.391 76.3514C44.4438 76.1867 44.6196 76.0962 44.7837 76.1493C44.9478 76.2024 45.038 76.3789 44.9852 76.5436L42.6168 83.9321C42.564 84.0968 42.3882 84.1873 42.2241 84.1342Z" fill="black"/>
<path fill-rule="evenodd" clip-rule="evenodd" d="M31.9957 83.7857C31.8317 83.7326 31.7415 83.5561 31.7942 83.3914L33.9098 76.7916C33.9626 76.6269 34.1384 76.5364 34.3024 76.5895C34.4665 76.6426 34.5567 76.8191 34.5039 76.9838L32.3884 83.5836C32.3356 83.7483 32.1598 83.8388 31.9957 83.7857ZM29.6505 81.365C29.4864 81.3119 29.3962 81.1354 29.449 80.9707L30.7888 76.7908C30.8416 76.6261 31.0174 76.5356 31.1815 76.5887C31.3455 76.6418 31.4357 76.8184 31.383 76.983L30.0431 81.1629C29.9903 81.3276 29.8145 81.4181 29.6505 81.365ZM26.8593 78.9442C26.6953 78.8911 26.6051 78.7145 26.6579 78.5499L27.222 76.7899C27.2748 76.6252 27.4506 76.5347 27.6147 76.5878C27.7787 76.6409 27.8689 76.8175 27.8161 76.9822L27.252 78.7421C27.1992 78.9068 27.0234 78.9973 26.8593 78.9442Z" fill="black"/>
<path fill-rule="evenodd" clip-rule="evenodd" d="M3.28441 45.3451C3.39423 45.2117 3.59092 45.193 3.72371 45.3033C5.70926 46.9524 7.63778 48.6636 9.56282 50.3717C9.83815 50.616 10.1134 50.8603 10.3888 51.1043C10.518 51.2188 10.5303 51.4168 10.4163 51.5466C10.3023 51.6763 10.1051 51.6887 9.97588 51.5742C9.70007 51.3298 9.42455 51.0853 9.14914 50.8409C7.22342 49.1322 5.3031 47.4283 3.32601 45.7863C3.19321 45.676 3.17459 45.4785 3.28441 45.3451Z" fill="black"/>
<path fill-rule="evenodd" clip-rule="evenodd" d="M8.1012 44.1858C8.23582 44.0777 8.43216 44.0997 8.53974 44.2349C9.88611 45.927 11.2652 47.5878 12.6484 49.2534C12.8308 49.4731 13.0134 49.693 13.1959 49.9129C13.3062 50.0459 13.2883 50.2435 13.156 50.3543C13.0236 50.465 12.8268 50.4471 12.7165 50.3141C12.5341 50.0944 12.3517 49.8747 12.1692 49.6549C10.7865 47.9899 9.40297 46.3237 8.05222 44.6262C7.94465 44.491 7.96658 44.2938 8.1012 44.1858Z" fill="black"/>
<path d="M23.0894 7.52037L18.7211 8.14708C19.4699 6.64298 15.9128 3.55122 14.0407 2.19336L18.7211 0.939941C20.2188 1.44131 22.2573 5.5358 23.0894 7.52037Z" fill="white"/>
<path d="M20.5932 59.5371C14.852 51.2645 17.785 45.6451 19.9691 43.8694C22.1533 41.9893 25.8976 42.616 31.514 45.7495C37.1304 48.8831 36.8184 59.5371 36.5063 61.4172C36.1943 63.2973 27.7697 69.8778 20.5932 59.5371Z" fill="white"/>
<path d="M35.3995 48.973C38.6998 54.717 37.769 61.4632 33.3204 64.0411C28.8718 66.6189 22.59 64.0522 19.2897 58.3082C15.9894 52.5642 16.9203 45.8179 21.3689 43.2401C25.8175 40.6622 32.0992 43.2289 35.3995 48.973Z" fill="white"/>
<path fill-rule="evenodd" clip-rule="evenodd" d="M18.5584 44.8164C18.2407 45.1614 17.9342 45.5474 17.6408 45.9772C17.5746 46.0741 17.57 46.1952 17.6185 46.2936C17.2143 47.1448 16.97 48.0787 16.8671 49.0552C16.5287 52.2649 17.7111 55.9715 19.8285 58.8813C21.5417 61.2357 24.0401 63.243 26.7454 64.2218C29.4565 65.2027 32.3977 65.1556 34.9402 63.3532C37.0962 61.8248 37.6288 59.1458 37.2762 56.3739C36.9227 53.5941 35.6733 50.6321 34.1409 48.3971C32.7672 46.3936 29.9429 43.9477 26.8222 42.9099C25.7181 42.5427 24.5678 42.349 23.4267 42.4193C23.3648 42.2952 23.2255 42.2235 23.0839 42.2533C21.1078 42.6692 19.6333 43.5537 18.6109 44.7541C18.5932 44.7748 18.5758 44.7956 18.5584 44.8164ZM19.0281 45.2294C20.0009 44.1774 21.069 43.5575 22.1686 43.2572C23.6133 42.8626 25.1428 43.0116 26.6261 43.5048C29.6031 44.4948 32.3212 46.8481 33.6269 48.7525C35.1118 50.9182 36.3181 53.7871 36.6572 56.4533C36.9973 59.1273 36.4595 61.5091 34.5803 62.8412C32.2425 64.4985 29.5251 64.5614 26.9569 63.6322C24.3829 62.7009 21.9816 60.778 20.3324 58.5116C18.2869 55.7005 17.1687 52.1459 17.4876 49.1211C17.6433 47.6443 18.1401 46.3029 19.0281 45.2294Z" fill="black"/>
<path fill-rule="evenodd" clip-rule="evenodd" d="M29.4194 44.0763C29.5538 44.1846 29.5754 44.3818 29.4675 44.5168C28.544 45.6727 27.8923 46.5454 27.0219 47.8567C26.9263 48.0007 26.7326 48.0396 26.5892 47.9436C26.4458 47.8476 26.4071 47.653 26.5027 47.509C27.385 46.1798 28.048 45.2922 28.9808 44.1246C29.0886 43.9896 29.285 43.968 29.4194 44.0763Z" fill="black"/>
<path fill-rule="evenodd" clip-rule="evenodd" d="M31.5583 45.3958C31.6929 45.5039 31.7147 45.7011 31.6071 45.8363C31.2421 46.2945 30.8736 46.7698 30.4904 47.2641C30.4764 47.2822 30.4623 47.3003 30.4483 47.3184C30.0504 47.8317 29.6366 48.3649 29.1969 48.9168C29.0893 49.0519 28.8929 49.0738 28.7584 48.9657C28.6238 48.8576 28.602 48.6604 28.7097 48.5253C29.1464 47.977 29.5578 47.4468 29.9559 46.9334C29.9703 46.9148 29.9846 46.8963 29.999 46.8778C30.3814 46.3845 30.7521 45.9063 31.1198 45.4448C31.2274 45.3096 31.4238 45.2877 31.5583 45.3958Z" fill="black"/>
<path fill-rule="evenodd" clip-rule="evenodd" d="M33.7711 46.725C33.9008 46.839 33.9139 47.0369 33.8005 47.1672C32.8237 48.2882 32.1083 49.0582 31.3781 49.8441C30.9609 50.2931 30.5388 50.7473 30.0605 51.2752C29.9445 51.4032 29.7471 51.4125 29.6197 51.296C29.4922 51.1795 29.4829 50.9813 29.5989 50.8533C30.0878 50.3139 30.5134 49.8559 30.9317 49.4058C31.6564 48.626 32.3591 47.8698 33.3308 46.7545C33.4443 46.6242 33.6414 46.611 33.7711 46.725Z" fill="black"/>
<path fill-rule="evenodd" clip-rule="evenodd" d="M35.0905 48.9247C35.2208 49.038 35.2348 49.2359 35.122 49.3667C35.0741 49.4222 35.0263 49.4776 34.9785 49.533C33.7655 50.9385 32.558 52.3376 31.3855 53.7717C31.2761 53.9055 31.0795 53.9249 30.9463 53.8151C30.8131 53.7052 30.7938 53.5078 30.9032 53.374C32.0811 51.9332 33.2935 50.5285 34.5051 49.1247C34.5535 49.0685 34.602 49.0124 34.6504 48.9563C34.7633 48.8255 34.9603 48.8114 35.0905 48.9247Z" fill="black"/>
<path fill-rule="evenodd" clip-rule="evenodd" d="M36.0599 51.109C36.1989 51.2114 36.2289 51.4075 36.127 51.547C35.1949 52.8235 34.1175 53.9017 33.0265 54.9935C32.911 55.1091 32.7953 55.2249 32.6795 55.3411C32.5577 55.4635 32.3601 55.4635 32.2383 55.3411C32.1164 55.2188 32.1164 55.0204 32.2383 54.898C32.3537 54.782 32.4687 54.6669 32.5831 54.5524C33.679 53.4554 34.7219 52.4115 35.6238 51.1764C35.7257 51.0369 35.921 51.0067 36.0599 51.109Z" fill="black"/>
<path d="M89.8622 31.6488L84.8699 28.5153C91.3599 27.5125 96.5187 23.2927 98.2868 21.3081L104.839 24.4417C102.343 28.4526 93.8145 30.9176 89.8622 31.6488Z" fill="white"/>
<path d="M100.159 11.5942L92.0464 10.0274C92.7952 7.01914 89.4462 3.13358 87.6781 1.56683C93.4193 1.06547 96.1027 2.19354 96.7267 2.82025L100.159 11.5942Z" fill="white"/>
<path d="M94.0194 10.1301C94.0194 8.59899 92.5155 4.3408 88.5053 1.82373H94.0194L98.2802 3.08227L102.04 11.892C99.1992 11.3886 94.0194 10.1301 94.0194 10.1301Z" fill="white" fill-opacity="0.2"/>
<path fill-rule="evenodd" clip-rule="evenodd" d="M84.7565 0.151109C84.8458 0.00306786 85.0376 -0.0442836 85.185 0.045347C85.2986 0.114394 85.4123 0.1833 85.526 0.25222C87.6965 1.56753 89.8756 2.88799 91.1932 5.29231C92.0456 6.84759 92.3599 8.39903 92.5204 10.0914C92.5367 10.2636 92.4109 10.4166 92.2393 10.433C92.0678 10.4494 91.9155 10.3231 91.8991 10.1508C91.7427 8.50117 91.4414 7.04479 90.6465 5.5945C89.4119 3.34174 87.3682 2.10199 85.1643 0.765074C85.0638 0.704104 84.9629 0.642932 84.8618 0.581453C84.7144 0.491822 84.6673 0.299151 84.7565 0.151109Z" fill="black"/>
<path fill-rule="evenodd" clip-rule="evenodd" d="M91.1692 9.67805C91.2093 9.50973 91.3776 9.40591 91.5452 9.44616C92.4188 9.65596 93.3105 9.83822 94.2149 10.0231C94.8075 10.1442 95.4056 10.2665 96.0076 10.3983C97.5162 10.7287 99.0239 11.1145 100.433 11.6806C100.593 11.7449 100.671 11.9272 100.607 12.0879C100.543 12.2486 100.361 12.3267 100.201 12.2625C98.8405 11.7158 97.3726 11.3387 95.8747 11.0106C95.292 10.883 94.7007 10.7621 94.1097 10.6412C93.1942 10.454 92.2797 10.2669 91.4001 10.0557C91.2325 10.0154 91.1291 9.84636 91.1692 9.67805Z" fill="black"/>
<path fill-rule="evenodd" clip-rule="evenodd" d="M96.2632 2.47335C96.4064 2.37712 96.6002 2.41572 96.696 2.55957C98.7734 5.67813 100.023 9.68905 100.683 12.3394C100.725 12.5073 100.623 12.6774 100.456 12.7194C100.289 12.7614 100.12 12.6593 100.078 12.4914C99.423 9.86089 98.1937 5.93498 96.1773 2.90803C96.0815 2.76419 96.12 2.56957 96.2632 2.47335Z" fill="black"/>
<path fill-rule="evenodd" clip-rule="evenodd" d="M88.9959 1.88523C88.0346 1.93803 86.9701 1.97802 85.7462 1.92168C85.574 1.91376 85.4409 1.76719 85.4488 1.59431C85.4566 1.42143 85.6026 1.28771 85.7747 1.29563C86.9683 1.35057 88.0089 1.31179 88.9618 1.25946C89.1691 1.24808 89.373 1.23599 89.5738 1.22408C90.2913 1.18155 90.9701 1.14131 91.6256 1.14365C93.328 1.14972 94.9041 1.44221 96.8253 2.69065C96.97 2.78467 97.0114 2.97867 96.9177 3.12397C96.8241 3.26926 96.631 3.31083 96.4863 3.21682C94.6828 2.04486 93.2287 1.77608 91.6234 1.77036C90.9893 1.76809 90.3364 1.80676 89.6226 1.84904C89.419 1.8611 89.2104 1.87345 88.9959 1.88523Z" fill="black"/>
<path fill-rule="evenodd" clip-rule="evenodd" d="M91.7343 1.31096C91.7964 1.14951 91.977 1.06914 92.1378 1.13145C93.3525 1.60231 94.584 2.46902 95.7026 3.44595C96.8242 4.42551 97.8483 5.52993 98.6483 6.49394C98.7586 6.62688 98.7407 6.82448 98.6083 6.93527C98.4759 7.04606 98.2792 7.02809 98.1689 6.89514C97.3847 5.95015 96.3838 4.87135 95.2931 3.91886C94.1994 2.96374 93.0313 2.14957 91.9131 1.71612C91.7523 1.65381 91.6723 1.47241 91.7343 1.31096Z" fill="black"/>
<path d="M75.8715 78.6723L69.8562 75.4001L77.1247 73.6382L85.1451 78.6723H75.8715Z" fill="white"/>
<path fill-rule="evenodd" clip-rule="evenodd" d="M78.5975 74.1931C74.2573 74.1931 71.9416 74.787 69.0906 76.1433C68.9349 76.2174 68.7488 76.1506 68.675 75.9942C68.6013 75.8378 68.6677 75.651 68.8235 75.5769C71.7656 74.1773 74.1737 73.5664 78.5975 73.5664C78.7698 73.5664 78.9095 73.7067 78.9095 73.8798C78.9095 74.0528 78.7698 74.1931 78.5975 74.1931Z" fill="black"/>
<path fill-rule="evenodd" clip-rule="evenodd" d="M85.7903 78.4699C81.6969 77.3975 77.5206 78.0844 73.4213 79.2092C73.2551 79.2548 73.0835 79.1564 73.0381 78.9895C72.9927 78.8226 73.0906 78.6502 73.2568 78.6046C77.3852 77.4718 81.6923 76.7486 85.9478 77.8635C86.1145 77.9072 86.2145 78.0784 86.171 78.2458C86.1275 78.4133 85.957 78.5136 85.7903 78.4699Z" fill="black"/>
<path fill-rule="evenodd" clip-rule="evenodd" d="M70.1945 75.1012C70.2736 74.9475 70.4618 74.8872 70.6149 74.9667C72.6172 76.0056 74.6382 76.963 76.6843 77.9219C76.8405 77.9951 76.908 78.1816 76.8351 78.3384C76.7623 78.4952 76.5766 78.563 76.4204 78.4898C74.3739 77.5307 72.3429 76.5687 70.3284 75.5235C70.1753 75.444 70.1154 75.255 70.1945 75.1012Z" fill="black"/>
<path fill-rule="evenodd" clip-rule="evenodd" d="M76.2738 73.6235C76.3513 73.469 76.539 73.4069 76.6928 73.4848C79.8674 75.0925 82.9393 76.7488 85.9343 78.6824C86.0792 78.776 86.1212 78.9699 86.028 79.1155C85.9348 79.261 85.7418 79.3032 85.5968 79.2096C82.6281 77.293 79.578 75.6478 76.4119 74.0444C76.258 73.9665 76.1962 73.778 76.2738 73.6235Z" fill="black"/>
<path fill-rule="evenodd" clip-rule="evenodd" d="M31.0048 62.9638C31.1589 62.8864 31.3463 62.9492 31.4234 63.104C31.6354 63.5298 31.8479 63.9555 32.0604 64.3813C35.2055 70.6828 38.3569 76.997 40.1071 83.8923C40.1496 84.06 40.0488 84.2306 39.8818 84.2734C39.7148 84.3161 39.5449 84.2148 39.5024 84.0471C37.7695 77.22 34.647 70.9631 31.4955 64.6482C31.2854 64.2272 31.0752 63.8059 30.8652 63.3842C30.7882 63.2294 30.8506 63.0412 31.0048 62.9638Z" fill="black"/>
<path fill-rule="evenodd" clip-rule="evenodd" d="M36.7475 64.2649C36.912 64.2131 37.0871 64.305 37.1387 64.4701C37.8004 66.5883 38.4442 68.7078 39.0877 70.8258C40.076 74.0793 41.0634 77.3295 42.1128 80.5663C42.1661 80.7308 42.0765 80.9077 41.9127 80.9613C41.7488 81.0148 41.5727 80.9249 41.5194 80.7603C40.469 77.5204 39.4778 74.2577 38.4876 70.9981C37.8444 68.881 37.2016 66.7651 36.5432 64.6577C36.4916 64.4926 36.5831 64.3167 36.7475 64.2649Z" fill="black"/>
<path fill-rule="evenodd" clip-rule="evenodd" d="M20.763 66.6015C23.9095 65.8723 27.1115 67.893 29.0464 70.2004C29.1008 70.2653 29.1533 70.3395 29.2038 70.4213C29.6354 70.4379 30.0599 70.5179 30.4305 70.6126C32.0464 71.0259 33.106 71.7821 33.601 72.8806C34.0907 73.9673 33.9907 75.3097 33.4739 76.8166C33.4177 76.9802 33.2402 77.0672 33.0772 77.0108C32.9143 76.9545 32.8277 76.7761 32.8838 76.6125C33.3779 75.1721 33.4272 74.0148 33.0325 73.139C32.6431 72.2749 31.7846 71.6057 30.2765 71.22C30.0321 71.1575 29.7727 71.1047 29.5117 71.0739C29.5739 71.2419 29.6298 71.419 29.6785 71.5984C29.8311 72.1615 29.9257 72.7975 29.9117 73.3512C29.9047 73.6279 29.8703 73.8964 29.7951 74.1295C29.7206 74.3605 29.5971 74.5836 29.3929 74.7306C28.9487 75.0505 28.3707 74.8719 27.7614 74.4163C27.2964 74.0685 26.9011 73.5457 26.7333 72.9691C26.5624 72.3818 26.6274 71.7269 27.1106 71.181C27.482 70.7614 27.96 70.5516 28.4516 70.4663C26.5713 68.2949 23.6529 66.575 20.9033 67.2122C20.7354 67.2511 20.5679 67.146 20.5291 66.9773C20.4904 66.8087 20.5951 66.6405 20.763 66.6015ZM28.8291 71.0518C28.8155 71.0527 28.8018 71.0538 28.7882 71.0549C28.3031 71.0945 27.8811 71.2538 27.577 71.5974C27.2613 71.9541 27.2104 72.3746 27.3323 72.7933C27.4573 73.2226 27.7634 73.6363 28.1342 73.9136C28.7172 74.3497 28.9521 74.2769 29.0292 74.2213C29.0858 74.1806 29.15 74.0957 29.2014 73.9364C29.2521 73.7793 29.2817 73.5753 29.2878 73.3353C29.3 72.8558 29.217 72.2818 29.0763 71.763C29.0033 71.4938 28.9182 71.2518 28.8291 71.0518Z" fill="black"/>
<path d="M104.546 23.9739C106.854 26.0022 94.7713 30.4343 90.2598 31.7768L84.4951 27.246C87.1104 27.383 94.862 23.5846 98.2802 21.2051C100.536 22.2119 102.541 22.2119 104.546 23.9739Z" fill="white"/>
<path fill-rule="evenodd" clip-rule="evenodd" d="M84.1893 28.1203C84.2638 27.9643 84.4502 27.8984 84.6055 27.9733C85.6479 28.4753 86.6016 29.12 87.5268 29.7514C87.5572 29.7721 87.5875 29.7928 87.6179 29.8135C88.5172 30.4274 89.3907 31.0237 90.3223 31.4915C90.4765 31.5689 90.539 31.7571 90.4619 31.9119C90.3848 32.0667 90.1974 32.1294 90.0433 32.052C89.0734 31.5651 88.1691 30.9476 87.2797 30.3405C87.2452 30.3169 87.2106 30.2933 87.1761 30.2697C86.2469 29.6357 85.3298 29.0172 84.3357 28.5383C84.1803 28.4635 84.1147 28.2763 84.1893 28.1203Z" fill="black"/>
<path fill-rule="evenodd" clip-rule="evenodd" d="M98.3999 20.7655C98.5271 20.8822 98.5361 21.0804 98.4199 21.2082C93.749 26.3458 88.7503 27.5898 83.6176 28.7469C83.4494 28.7848 83.2825 28.6787 83.2448 28.5098C83.2071 28.3409 83.3128 28.1733 83.4809 28.1354C88.5986 26.9817 93.4276 25.7698 97.959 20.7857C98.0752 20.6579 98.2726 20.6489 98.3999 20.7655Z" fill="black"/>
<path fill-rule="evenodd" clip-rule="evenodd" d="M105.795 23.8208C105.936 23.9201 105.97 24.1155 105.872 24.2572C103.943 27.0237 100.968 28.7153 97.77 29.9011C95.3451 30.8003 92.7603 31.4189 90.3783 31.989C89.6237 32.1696 88.8895 32.3453 88.1872 32.5236C88.0202 32.566 87.8505 32.4643 87.8083 32.2965C87.7661 32.1287 87.8673 31.9583 88.0344 31.9159C88.7535 31.7335 89.4989 31.555 90.2605 31.3727C92.6352 30.8043 95.1676 30.198 97.5538 29.3132C100.7 28.1465 103.537 26.5131 105.36 23.8978C105.459 23.7561 105.654 23.7216 105.795 23.8208Z" fill="black"/>
<path fill-rule="evenodd" clip-rule="evenodd" d="M97.4533 20.7249C97.5243 20.5672 97.7091 20.4971 97.8661 20.5684C98.3911 20.8067 98.9144 21.0462 99.437 21.2853C102.199 22.5494 104.941 23.8041 107.792 24.8146C107.954 24.8722 108.039 25.0512 107.982 25.2144C107.925 25.3776 107.747 25.4632 107.584 25.4056C104.705 24.385 101.934 23.1169 99.1723 21.8529C98.6511 21.6144 98.1303 21.376 97.6091 21.1395C97.4521 21.0682 97.3823 20.8826 97.4533 20.7249Z" fill="black"/>
<path fill-rule="evenodd" clip-rule="evenodd" d="M104.6 14.4667C104.754 14.3893 104.942 14.4521 105.019 14.6069C105.787 16.1501 105.462 17.7475 104.8 19.2023C104.302 20.2968 103.589 21.3576 102.962 22.2915C102.761 22.5906 102.569 22.8768 102.395 23.1468C102.302 23.2922 102.109 23.334 101.964 23.2401C101.819 23.1463 101.778 22.9523 101.871 22.8069C102.058 22.5155 102.26 22.2152 102.467 21.9069C103.088 20.9816 103.758 19.9845 104.232 18.9418C104.86 17.5612 105.106 16.1834 104.461 14.8872C104.383 14.7324 104.446 14.5441 104.6 14.4667Z" fill="black"/>
<path fill-rule="evenodd" clip-rule="evenodd" d="M103.252 13.4302C103.61 13.149 104.096 12.9933 104.575 13.1055C104.828 13.1647 105 13.3192 105.108 13.5091C105.2 13.5086 105.293 13.5162 105.381 13.5327C105.704 13.5928 106.084 13.8032 106.125 14.2779C106.162 14.7024 106.002 15.1575 105.77 15.5273C105.537 15.8977 105.199 16.2354 104.818 16.3937C104.529 16.514 104.216 16.5438 103.982 16.331C103.911 16.2658 103.859 16.1881 103.823 16.1058C103.653 16.0355 103.482 15.9535 103.328 15.8547C102.949 15.611 102.626 15.2355 102.626 14.6443C102.626 14.1478 102.894 13.7114 103.252 13.4302ZM105.057 15.4433C105.123 15.3675 105.185 15.2835 105.242 15.193C105.43 14.8929 105.525 14.5745 105.504 14.3322C105.497 14.2571 105.452 14.1833 105.267 14.1489C105.267 14.1488 105.266 14.1487 105.266 14.1486C105.268 14.2 105.268 14.2509 105.267 14.3009C105.258 14.7251 105.147 15.1733 105.057 15.4433ZM104.379 13.7052C104.133 13.6666 103.86 13.7484 103.636 13.9239C103.396 14.1125 103.25 14.3794 103.25 14.6443C103.25 14.9564 103.402 15.158 103.665 15.3267C103.674 15.3326 103.683 15.3384 103.692 15.3442C103.706 15.1185 103.748 14.8614 103.816 14.6195C103.869 14.4362 103.94 14.2502 104.035 14.0875C104.118 13.945 104.23 13.8038 104.379 13.7052ZM104.368 15.3903C104.37 15.3881 104.372 15.3858 104.374 15.3836C104.4 15.3574 104.42 15.3334 104.434 15.3142C104.443 15.3021 104.447 15.2951 104.448 15.2931C104.525 15.0801 104.632 14.6709 104.643 14.3035C104.621 14.3304 104.597 14.3639 104.573 14.4051C104.547 14.4499 104.522 14.5002 104.499 14.555C104.499 14.5733 104.498 14.5919 104.495 14.6107C104.486 14.6674 104.473 14.7382 104.459 14.8112C104.457 14.8178 104.456 14.8245 104.455 14.8312C104.439 14.9139 104.422 15.0041 104.406 15.0985C104.39 15.1971 104.376 15.2959 104.368 15.3903Z" fill="black"/>
<path fill-rule="evenodd" clip-rule="evenodd" d="M35.6277 22.8669C34.7052 23.5944 34.1935 24.6289 34.5496 25.9542C34.6697 26.4011 34.8222 26.8411 34.9812 27.2886C35 27.3413 35.0188 27.3941 35.0377 27.447C35.1779 27.8404 35.3208 28.2412 35.4424 28.6457C35.7164 29.557 35.8928 30.5183 35.7081 31.5676C37.2995 32.5823 38.3751 33.7266 39.0611 34.9416C39.9795 36.5681 40.1821 38.2904 40.027 39.9358C39.8722 41.5775 39.3604 43.1528 38.8399 44.499C38.6393 45.0176 38.4358 45.5064 38.2505 45.9513C38.1954 46.0836 38.1419 46.212 38.0906 46.3361C37.8643 46.8838 37.683 47.3426 37.5792 47.7078C37.5318 47.8742 37.3591 47.9705 37.1934 47.923C37.0277 47.8754 36.9318 47.702 36.9791 47.5356C37.0943 47.1306 37.2896 46.6397 37.5142 46.0959C37.5668 45.9688 37.6211 45.8384 37.6767 45.7049C37.8615 45.2611 38.0608 44.7824 38.2582 44.2721C38.7713 42.9451 39.259 41.4329 39.4057 39.8768C39.5521 38.3244 39.3583 36.7385 38.5183 35.2508C37.9155 34.1832 36.971 33.1502 35.5513 32.212C35.2902 33.042 34.827 33.7329 34.2037 34.2298C33.4328 34.8444 32.4355 35.1471 31.3187 35.0663C30.3069 34.993 29.0438 34.7213 28.1019 34.1177C27.6273 33.8136 27.2202 33.4161 26.9781 32.9035C26.7338 32.386 26.6703 31.7778 26.841 31.0807C27.0372 30.2792 27.5097 29.7834 28.1348 29.5294C28.7399 29.2836 29.4642 29.273 30.1763 29.3703C31.603 29.5651 33.1249 30.2144 33.9099 30.5839C34.3433 30.788 34.7493 30.9993 35.1291 31.2174C35.2269 30.3955 35.0826 29.6172 34.845 28.8269C34.7283 28.4386 34.5911 28.0537 34.4503 27.6587C34.4314 27.6057 34.4125 27.5526 34.3935 27.4993C34.2343 27.0514 34.0743 26.5907 33.9471 26.1174C33.5135 24.5035 34.1633 23.2249 35.2423 22.374C36.3066 21.5347 37.7984 21.0962 39.1416 21.0962C39.3139 21.0962 39.4536 21.2365 39.4536 21.4095C39.4536 21.5826 39.3139 21.7229 39.1416 21.7229C37.9146 21.7229 36.5649 22.1279 35.6277 22.8669ZM35.0019 31.868C34.5864 31.6213 34.1349 31.382 33.645 31.1514C32.8702 30.7867 31.42 30.1726 30.0922 29.9913C29.427 29.9004 28.8285 29.9236 28.3689 30.1104C27.9293 30.289 27.5953 30.6245 27.447 31.2304C27.3067 31.8033 27.3658 32.2619 27.542 32.6349C27.7204 33.0127 28.0316 33.3293 28.4375 33.5894C29.2566 34.1142 30.403 34.3717 31.3635 34.4412C32.3382 34.5117 33.1776 34.2476 33.8157 33.739C34.3691 33.2978 34.7848 32.6616 35.0019 31.868Z" fill="black"/>
<path fill-rule="evenodd" clip-rule="evenodd" d="M40.6788 20.8985C40.8481 21.1371 40.913 21.4445 40.8119 21.7782C40.7189 22.0851 40.5779 22.3308 40.3748 22.4785C40.1564 22.6374 39.9066 22.6534 39.6831 22.5714C39.4729 22.4941 39.2949 22.3356 39.1582 22.1535C39.1567 22.1515 39.1552 22.1496 39.1538 22.1475C39.0354 22.0978 38.9246 22.0232 38.8352 21.9183C38.8208 21.9014 38.8073 21.8841 38.7946 21.8663C38.7152 21.9683 38.6324 22.0932 38.5261 22.2537C38.5112 22.2762 38.4958 22.2995 38.4799 22.3234C38.3843 22.4674 38.1906 22.5063 38.0472 22.4103C37.9038 22.3143 37.8651 22.1198 37.9607 21.9758C37.9796 21.9472 37.9984 21.9187 38.0171 21.8904C38.1875 21.6321 38.3496 21.3863 38.5671 21.1968C38.6056 21.1633 38.6453 21.1318 38.6866 21.1023C38.7707 20.7963 38.9725 20.5871 39.2238 20.4802C39.478 20.372 39.7656 20.3741 40.0171 20.4461C40.269 20.5181 40.5161 20.6691 40.6788 20.8985ZM39.5488 21.6022C39.7615 21.6135 39.9671 21.5103 40.0496 21.3549C40.0156 21.3521 39.9746 21.3516 39.9274 21.3539C39.8491 21.3577 39.7698 21.3683 39.7048 21.3792C39.619 21.3936 39.5426 21.4096 39.474 21.4274C39.4958 21.4893 39.521 21.5479 39.5488 21.6022ZM40.079 21.2759C40.0791 21.2759 40.079 21.2766 40.0788 21.2781L40.079 21.2759ZM40.1334 21.3711C40.1334 21.3711 40.1325 21.3708 40.1311 21.37C40.1328 21.3706 40.1335 21.371 40.1334 21.3711Z" fill="black"/>
<path fill-rule="evenodd" clip-rule="evenodd" d="M56.1092 1.95727C56.2392 2.07083 56.253 2.26875 56.1399 2.39935C55.0835 3.61942 54.0133 4.87505 52.9574 6.11404C52.8499 6.24009 52.7426 6.36598 52.6355 6.49164C52.5235 6.62311 52.3265 6.63845 52.1956 6.5259C52.0647 6.41336 52.0494 6.21555 52.1615 6.08408C52.2686 5.95842 52.3759 5.8325 52.4834 5.70639C53.5391 4.46769 54.6108 3.21016 55.669 1.98811C55.782 1.85752 55.9791 1.84371 56.1092 1.95727Z" fill="black"/>
<path fill-rule="evenodd" clip-rule="evenodd" d="M53.977 21.138C54.0802 20.9994 54.2757 20.971 54.4138 21.0745C55.6311 21.9878 56.816 22.8676 57.9085 23.67C58.0476 23.7722 58.0779 23.9682 57.9762 24.1079C57.8745 24.2476 57.6793 24.2781 57.5402 24.1759C56.4458 23.3722 55.2591 22.491 54.0403 21.5766C53.9022 21.4731 53.8739 21.2767 53.977 21.138Z" fill="black"/>
<path fill-rule="evenodd" clip-rule="evenodd" d="M67.4491 12.126C67.571 12.2483 67.571 12.4467 67.4491 12.5691C66.1864 13.8372 65.0646 15.0001 63.9934 16.1103C61.4753 18.7205 59.2374 21.0401 56.1084 23.754C55.978 23.8671 55.7809 23.8526 55.6683 23.7216C55.5557 23.5907 55.5701 23.3928 55.7005 23.2797C58.8077 20.5848 61.018 18.2936 63.527 15.6928C64.6013 14.5793 65.7303 13.409 67.0079 12.126C67.1297 12.0036 67.3273 12.0036 67.4491 12.126Z" fill="black"/>
<path fill-rule="evenodd" clip-rule="evenodd" d="M54.6437 2.41198C54.7471 2.27353 54.9427 2.24547 55.0806 2.34931C57.0698 3.84763 58.588 5.17814 60.1113 6.5131C60.4547 6.81409 60.7984 7.1153 61.1478 7.41871C63.0471 9.06788 65.1281 10.7939 68.2858 12.9338C68.4286 13.0306 68.4663 13.2254 68.3699 13.3688C68.2735 13.5123 68.0795 13.5501 67.9367 13.4533C64.7518 11.295 62.6505 9.55201 60.7397 7.89278C60.3867 7.58628 60.0407 7.28303 59.6958 6.98084C58.1739 5.64713 56.6753 4.33388 54.7061 2.85068C54.5683 2.74684 54.5403 2.55043 54.6437 2.41198Z" fill="black"/>
<path fill-rule="evenodd" clip-rule="evenodd" d="M60.1246 19.6724C59.9606 19.6193 59.8704 19.4428 59.9232 19.278L63.0435 9.54823C63.0963 9.3835 63.2721 9.29297 63.4361 9.34602C63.6001 9.39908 63.6903 9.57562 63.6375 9.74035L60.5172 19.4702C60.4644 19.6349 60.2886 19.7254 60.1246 19.6724ZM65.3818 14.3996C65.2178 14.3465 65.1277 14.17 65.1805 14.0052L65.849 11.9206C65.9018 11.7558 66.0776 11.6653 66.2417 11.7184C66.4057 11.7714 66.4958 11.948 66.443 12.1127L65.7745 14.1973C65.7217 14.3621 65.5459 14.4526 65.3818 14.3996Z" fill="black"/>
<path fill-rule="evenodd" clip-rule="evenodd" d="M56.2309 23.173C56.0668 23.1199 55.9767 22.9434 56.0295 22.7787L57.8383 17.1383C57.8911 16.9736 58.0669 16.883 58.231 16.9361C58.395 16.9891 58.4851 17.1657 58.4323 17.3304L56.6235 22.9708C56.5707 23.1355 56.3949 23.226 56.2309 23.173ZM59.6475 12.519C59.4834 12.4659 59.3933 12.2894 59.4461 12.1246L60.7525 8.05103C60.8053 7.8863 60.9811 7.79577 61.1451 7.84882C61.3092 7.90188 61.3993 8.07842 61.3465 8.24315L60.0401 12.3167C59.9873 12.4815 59.8115 12.572 59.6475 12.519ZM57.1299 10.6388C56.9659 10.5858 56.8757 10.4092 56.9285 10.2445L58.3354 5.85756C58.3882 5.69283 58.564 5.6023 58.728 5.65535C58.8921 5.7084 58.9822 5.88495 58.9294 6.04967L57.5225 10.4366C57.4697 10.6014 57.2939 10.6919 57.1299 10.6388ZM54.267 8.44536C54.103 8.39231 54.0128 8.21576 54.0656 8.05103L55.5348 3.46963C55.5877 3.3049 55.7635 3.21437 55.9275 3.26742C56.0915 3.32047 56.1817 3.49702 56.1288 3.66175L54.6596 8.24315C54.6068 8.40788 54.431 8.49841 54.267 8.44536Z" fill="black"/>
<path d="M51.7785 24.2581L40.7504 15.4484L51.2772 4.12158L63.0572 13.4347L51.7785 24.2581Z" fill="url(#paint1_linear_150_120386)"/>
<path fill-rule="evenodd" clip-rule="evenodd" d="M50.5143 3.04516C50.6443 3.15872 50.658 3.35664 50.545 3.48724C49.4939 4.70113 48.4271 5.95288 47.3737 7.18884C44.3869 10.6934 41.5083 14.071 39.4037 16.0986C39.2793 16.2184 39.0818 16.2143 38.9625 16.0894C38.8432 15.9645 38.8473 15.7661 38.9717 15.6463C41.0522 13.642 43.8981 10.3028 46.8771 6.80753C47.9354 5.56577 49.0105 4.30431 50.0741 3.076C50.1871 2.94541 50.3842 2.9316 50.5143 3.04516Z" fill="black"/>
<path fill-rule="evenodd" clip-rule="evenodd" d="M38.1374 14.2526C38.2465 14.1186 38.4431 14.099 38.5765 14.2086C42.0532 17.0672 48.6725 22.1172 52.3121 24.7571C52.4518 24.8584 52.4833 25.0543 52.3824 25.1946C52.2815 25.3349 52.0865 25.3665 51.9468 25.2651C48.2997 22.6199 41.67 17.5621 38.1811 14.6935C38.0478 14.5839 38.0282 14.3865 38.1374 14.2526Z" fill="black"/>
<path fill-rule="evenodd" clip-rule="evenodd" d="M61.8542 13.2138C61.9761 13.3362 61.9761 13.5346 61.8542 13.657C60.5915 14.9251 59.4697 16.0879 58.3985 17.1982C55.8804 19.8084 53.6425 22.128 50.5135 24.8419C50.383 24.955 50.186 24.9405 50.0734 24.8095C49.9607 24.6786 49.9752 24.4807 50.1056 24.3676C53.2128 21.6726 55.423 19.3815 57.9321 16.7807C59.0064 15.6672 60.1354 14.4969 61.413 13.2138C61.5348 13.0915 61.7324 13.0915 61.8542 13.2138Z" fill="black"/>
<path fill-rule="evenodd" clip-rule="evenodd" d="M49.0488 3.49987C49.1522 3.36142 49.3478 3.33336 49.4856 3.4372C51.4749 4.93552 52.9931 6.26603 54.5164 7.60099C54.8598 7.90198 55.2035 8.20319 55.5529 8.5066C57.4521 10.1558 59.5332 11.8818 62.6909 14.0217C62.8337 14.1185 62.8714 14.3133 62.775 14.4567C62.6786 14.6002 62.4846 14.638 62.3418 14.5412C59.1569 12.3829 57.0556 10.6399 55.1448 8.98067C54.7918 8.67417 54.4458 8.37092 54.1009 8.06873C52.579 6.73502 51.0804 5.42177 49.1112 3.93857C48.9734 3.83473 48.9454 3.63832 49.0488 3.49987Z" fill="black"/>
<path fill-rule="evenodd" clip-rule="evenodd" d="M54.6694 9.5421C54.7638 9.68687 54.7235 9.8811 54.5793 9.97592C52.7191 11.1994 51.6714 12.4942 51.0962 13.6909C50.5206 14.8884 50.409 16.0068 50.4504 16.8908C50.481 17.5449 50.5876 18.0312 50.6629 18.3749C50.6928 18.5113 50.7178 18.6252 50.7311 18.7182C50.7365 18.7558 50.7425 18.8075 50.7392 18.8596C50.7376 18.8858 50.7329 18.928 50.7153 18.9746C50.6972 19.0225 50.6577 19.0945 50.5754 19.1445C50.4056 19.2476 50.2467 19.1559 50.2217 19.1415L50.2215 19.1414C50.1722 19.113 50.1296 19.0753 50.0987 19.0461C49.9834 18.9369 49.7951 18.7123 49.5208 18.3851C49.5044 18.3656 49.4878 18.3457 49.4708 18.3254C49.1802 17.9789 48.9237 17.6489 48.6673 17.3189C47.9332 16.3743 47.1992 15.4297 45.6633 14.096C45.5329 13.9828 45.5186 13.7849 45.6313 13.654C45.744 13.5231 45.9411 13.5087 46.0714 13.6219C47.6573 14.999 48.4371 16.0027 49.1789 16.9574C49.4254 17.2747 49.6678 17.5867 49.9342 17.9051C49.8866 17.618 49.8439 17.2819 49.827 16.9202C49.7819 15.9566 49.9039 14.7297 50.5342 13.4185C51.1648 12.1064 52.2951 10.7291 54.2374 9.45164C54.3816 9.35683 54.575 9.39732 54.6694 9.5421Z" fill="black"/>
<path d="M25.8459 20.6789C24.4731 20.1819 20.9497 19.1382 20.5836 18.9395C19.8515 20.7286 20.8887 24.3235 21.4988 25.8973C22.719 27.1398 25.6628 29.6745 24.9307 27.8853C24.1985 26.0961 25.2357 22.1699 25.8459 20.6789Z" fill="white"/>
<path fill-rule="evenodd" clip-rule="evenodd" d="M19.8171 18.4405C19.9875 18.4662 20.1049 18.6257 20.0793 18.7969C19.6756 21.5 20.2654 23.9964 21.4768 26.4873C21.5524 26.6428 21.4882 26.8304 21.3333 26.9064C21.1785 26.9823 20.9916 26.9178 20.916 26.7623C19.6658 24.1915 19.0348 21.5656 19.4622 18.7039C19.4878 18.5328 19.6466 18.4148 19.8171 18.4405Z" fill="black"/>
<path fill-rule="evenodd" clip-rule="evenodd" d="M25.412 19.419C25.5537 19.5175 25.589 19.7127 25.4909 19.855C23.7038 22.4473 23.7578 25.285 24.4688 28.3143C24.5084 28.4828 24.4045 28.6515 24.2367 28.6912C24.069 28.7309 23.901 28.6266 23.8614 28.4581C23.1334 25.3564 23.0437 22.3039 24.9778 19.4983C25.0759 19.356 25.2703 19.3205 25.412 19.419Z" fill="black"/>
<path fill-rule="evenodd" clip-rule="evenodd" d="M18.4091 18.0445C18.4692 17.8823 18.6489 17.7997 18.8104 17.8601C19.379 18.0725 19.9537 18.2807 20.5307 18.4896C22.2328 19.106 23.9552 19.7298 25.6041 20.4941C25.7605 20.5666 25.8288 20.7527 25.7566 20.9099C25.6844 21.067 25.499 21.1356 25.3425 21.0631C23.7204 20.3112 22.0346 19.7007 20.3395 19.0867C19.7576 18.876 19.1747 18.6649 18.5928 18.4475C18.4313 18.3871 18.349 18.2067 18.4091 18.0445Z" fill="black"/>
<path fill-rule="evenodd" clip-rule="evenodd" d="M19.1299 24.9451C19.2006 24.7873 19.3853 24.7169 19.5424 24.7879C21.2326 25.5518 22.7586 26.4949 24.2882 27.4403C24.7351 27.7164 25.1822 27.9928 25.6338 28.2649C25.7816 28.354 25.8295 28.5465 25.7409 28.6949C25.6522 28.8433 25.4605 28.8914 25.3128 28.8023C24.8477 28.5221 24.3919 28.2405 23.94 27.9612C22.4166 27.0198 20.9363 26.1051 19.2864 25.3594C19.1292 25.2884 19.0591 25.1029 19.1299 24.9451Z" fill="black"/>
<path d="M20.0812 1.06853C18.7084 0.571538 17.0735 0.565166 14.0659 1.82367C17.5748 4.84416 19.4711 5.78741 20.0812 7.36122H24.0914C24.0914 7.36122 22.8382 4.34074 20.0812 1.06853Z" fill="white"/>
<path fill-rule="evenodd" clip-rule="evenodd" d="M11.757 1.21995C11.8184 1.05823 11.9987 0.977071 12.1597 1.03868C13.5781 1.58134 15.1212 2.7167 16.4319 4.06873C17.7428 5.42106 18.8507 7.02041 19.3731 8.51617C19.4301 8.67948 19.3445 8.8583 19.1819 8.91558C19.0193 8.97286 18.8412 8.88691 18.7842 8.7236C18.3015 7.34145 17.2564 5.81773 15.9847 4.5059C14.7127 3.19379 13.2434 2.12391 11.9375 1.62433C11.7765 1.56272 11.6957 1.38168 11.757 1.21995Z" fill="black"/>
<path fill-rule="evenodd" clip-rule="evenodd" d="M18.4092 0.773773C18.4533 0.941072 18.354 1.11259 18.1874 1.15688C16.6346 1.56966 15.0793 1.97309 13.525 2.37627C13.0984 2.48691 12.672 2.59754 12.2456 2.70834C12.0788 2.75169 11.9085 2.65102 11.8654 2.48348C11.8222 2.31593 11.9224 2.14497 12.0893 2.10161C12.5162 1.99066 12.9431 1.87992 13.37 1.76921C14.924 1.3661 16.4769 0.963289 18.0277 0.551038C18.1943 0.506753 18.3651 0.606475 18.4092 0.773773Z" fill="black"/>
<path fill-rule="evenodd" clip-rule="evenodd" d="M17.3146 0.11977C17.4211 -0.0163102 17.6172 -0.0399492 17.7527 0.0669713C20.8765 2.53179 22.5337 5.52521 23.5434 7.89121C23.6113 8.05028 23.5379 8.23449 23.3795 8.30266C23.2211 8.37084 23.0377 8.29715 22.9698 8.13808C21.9828 5.82517 20.3783 2.93574 17.3672 0.559763C17.2317 0.452842 17.2081 0.255851 17.3146 0.11977Z" fill="black"/>
<path fill-rule="evenodd" clip-rule="evenodd" d="M24.4041 7.84888C21.952 7.84888 19.5123 7.96009 17.0544 8.08708C16.8823 8.09597 16.7356 7.96307 16.7267 7.79024C16.7179 7.61741 16.8502 7.47009 17.0223 7.4612C19.4812 7.33416 21.9347 7.22217 24.4041 7.22217C24.5764 7.22217 24.7161 7.36246 24.7161 7.53552C24.7161 7.70858 24.5764 7.84888 24.4041 7.84888Z" fill="black"/>
<path d="M11.5595 70.5395C8.55185 68.7776 1.78462 68.0224 0.531433 67.7707L3.03781 65.5054L8.05057 66.7639C10.2228 68.6098 13.9656 71.9491 11.5595 70.5395Z" fill="white"/>
<path fill-rule="evenodd" clip-rule="evenodd" d="M10.9808 68.7363C11.403 68.9033 11.8189 69.0677 12.2273 69.2254C12.3881 69.2874 12.4684 69.4687 12.4066 69.6303C12.3447 69.7918 12.1642 69.8724 12.0034 69.8103C11.5848 69.6488 11.162 69.4816 10.7356 69.313C9.34231 68.7621 7.90985 68.1958 6.45542 67.7575C4.55963 67.1864 2.65842 66.8439 0.815321 67.0422C0.643976 67.0607 0.490192 66.9361 0.471833 66.764C0.453475 66.592 0.577495 66.4375 0.74884 66.4191C2.70922 66.2081 4.7014 66.5748 6.63474 67.1573C8.11672 67.6038 9.5829 68.1835 10.9808 68.7363Z" fill="black"/>
<path fill-rule="evenodd" clip-rule="evenodd" d="M4.72816 64.5345C4.84685 64.66 4.84179 64.8584 4.71685 64.9775C3.35427 66.2775 2.62175 66.6687 0.912075 67.4556C0.75542 67.5277 0.57022 67.4586 0.49842 67.3013C0.42662 67.144 0.495409 66.958 0.652063 66.8859C2.32683 66.115 2.99242 65.7583 4.28704 64.5232C4.41197 64.404 4.60947 64.4091 4.72816 64.5345Z" fill="black"/>
<path fill-rule="evenodd" clip-rule="evenodd" d="M3.31836 65.1903C3.31836 65.0172 3.45806 64.877 3.63038 64.877C5.44084 64.877 6.92826 65.2616 9.03957 66.2511C9.19573 66.3243 9.26324 66.5107 9.19037 66.6676C9.11749 66.8244 8.93183 66.8922 8.77567 66.819C6.72194 65.8565 5.32555 65.5037 3.63038 65.5037C3.45806 65.5037 3.31836 65.3634 3.31836 65.1903Z" fill="black"/>
<path fill-rule="evenodd" clip-rule="evenodd" d="M8.00871 65.8513C8.12935 65.7277 8.3269 65.7258 8.44996 65.8469C10.1216 67.4928 11.8659 68.9764 13.7603 70.3504C13.9 70.4517 13.9315 70.6476 13.8306 70.7879C13.7297 70.9282 13.5346 70.9598 13.3949 70.8585C11.4745 69.4656 9.70632 67.9616 8.01308 66.2944C7.89003 66.1733 7.88807 65.9749 8.00871 65.8513Z" fill="black"/>
<path d="M58.4288 69.0295L61.9377 62.7368H69.2062L58.4288 69.0295Z" fill="white"/>
<path fill-rule="evenodd" clip-rule="evenodd" d="M62.0999 61.2715C62.2613 61.3323 62.343 61.5129 62.2825 61.6749C61.7393 63.1296 60.9921 64.4937 60.227 65.8281C60.1007 66.0483 59.974 66.2676 59.8476 66.4864C59.2047 67.5995 58.5696 68.6989 58.0346 69.8405C57.9612 69.9971 57.7753 70.0643 57.6194 69.9906C57.4635 69.917 57.3966 69.7303 57.47 69.5737C58.0174 68.4054 58.6683 67.2787 59.3114 66.1657C59.4369 65.9484 59.5621 65.7317 59.6862 65.5153C60.4498 64.1836 61.1744 62.8577 61.6982 61.4549C61.7587 61.2928 61.9386 61.2107 62.0999 61.2715Z" fill="black"/>
<path fill-rule="evenodd" clip-rule="evenodd" d="M62.2835 63.2654C61.7626 63.2968 61.2409 63.3282 60.7183 63.3581C60.5462 63.368 60.3988 63.2359 60.389 63.0631C60.3792 62.8903 60.5107 62.7423 60.6828 62.7324C61.2011 62.7028 61.7199 62.6715 62.2391 62.6402C64.5436 62.5012 66.8563 62.3618 69.1767 62.3618C69.349 62.3618 69.4887 62.5021 69.4887 62.6752C69.4887 62.8482 69.349 62.9885 69.1767 62.9885C66.8768 62.9885 64.587 63.1265 62.2835 63.2654Z" fill="black"/>
<path fill-rule="evenodd" clip-rule="evenodd" d="M68.8797 62.4245C68.967 62.5737 68.9174 62.7658 68.7689 62.8535C67.6333 63.5244 66.6157 64.1007 65.6622 64.6408C62.927 66.1901 60.7184 67.4411 57.7605 69.7685C57.6248 69.8753 57.4287 69.8514 57.3224 69.7151C57.2161 69.5789 57.2399 69.382 57.3756 69.2752C60.3734 66.9164 62.6323 65.637 65.3808 64.0803C66.3295 63.543 67.3366 62.9726 68.4525 62.3133C68.601 62.2256 68.7923 62.2754 68.8797 62.4245Z" fill="black"/>
<path d="M59.4313 48.641L53.9173 43.8586L72.7151 34.5454L78.2292 39.5796L59.4313 48.641Z" fill="white"/>
<path fill-rule="evenodd" clip-rule="evenodd" d="M56.1563 45.0183C56.2568 45.1589 56.2248 45.3547 56.0848 45.4556C53.4328 47.3677 50.3491 50.2671 48.2679 52.8C45.7724 55.8371 44.2911 59.1465 45.1079 63.0428C45.3026 63.9714 45.6445 65.0002 46.1795 65.864C46.2885 66.04 46.4049 66.2082 46.529 66.3668C46.6576 64.4269 46.8914 62.7035 47.2816 61.4847C47.4258 61.0342 47.5953 60.6398 47.7967 60.3243C47.9974 60.0101 48.2417 59.7555 48.5427 59.6149C49.1849 59.3148 49.8808 59.6053 50.5796 60.2928C51.3117 61.013 51.5599 62.115 51.574 63.1756C51.5882 64.2456 51.3657 65.3409 51.0847 66.1231C50.8845 66.6802 50.5704 67.3212 50.1079 67.7749C49.6312 68.2425 48.9855 68.517 48.185 68.281C47.7782 68.161 47.411 67.9791 47.0804 67.7511C47.0606 68.2315 47.0461 68.7224 47.0362 69.2203C46.9154 75.3162 47.4963 82.2863 47.6128 83.1234C47.6366 83.2948 47.5176 83.4531 47.3469 83.4771C47.1763 83.501 47.0186 83.3815 46.9947 83.2101C46.8733 82.337 46.2909 75.3336 46.4123 69.2079C46.4254 68.5437 46.4469 67.8879 46.4783 67.2498C46.1606 66.9354 45.8858 66.5764 45.6496 66.195C45.0644 65.2501 44.7015 64.1462 44.4973 63.1719C43.6258 59.0149 45.2282 55.5148 47.7866 52.4011C49.9018 49.8268 53.0249 46.8903 55.7208 44.9465C55.8608 44.8456 56.0558 44.8777 56.1563 45.0183ZM47.1168 66.989C47.4795 67.3022 47.8924 67.5415 48.3608 67.6797C48.9014 67.8391 49.3214 67.6703 49.6718 67.3266C50.0364 66.9689 50.3109 66.4303 50.4977 65.9104C50.7558 65.192 50.9631 64.1716 50.95 63.1839C50.9368 62.1868 50.7004 61.289 50.1429 60.7405C49.4957 60.1037 49.0791 60.0555 48.8059 60.1831C48.6492 60.2563 48.4851 60.4072 48.322 60.6626C48.1598 60.9168 48.0102 61.2563 47.8757 61.6766C47.4692 62.9461 47.2344 64.8349 47.1168 66.989Z" fill="black"/>
<path fill-rule="evenodd" clip-rule="evenodd" d="M51.8716 48.381C51.8124 48.4432 51.7466 48.4894 51.6817 48.5147C51.6706 48.519 51.6593 48.5229 51.6477 48.5261C51.6329 48.4368 51.6214 48.3357 51.6145 48.2221C51.6063 48.0886 51.5161 47.9798 51.3961 47.9421C51.4677 47.9039 51.5493 47.8739 51.6406 47.8556C51.6924 47.9028 51.7577 47.9946 51.8147 48.1727C51.8382 48.2462 51.857 48.3156 51.8716 48.381ZM51.7536 47.2118C51.7493 47.2104 51.7449 47.2091 51.7406 47.2078C51.4303 47.1161 51.1352 47.2367 50.9345 47.4109C50.8328 47.4991 50.7438 47.6102 50.6781 47.7359C50.5855 47.8502 50.5138 47.9784 50.4669 48.1159C50.3692 48.4021 50.3839 48.7226 50.5452 49.0095C50.7059 49.2951 50.9939 49.5167 51.3886 49.6489C51.4568 49.6717 51.5273 49.6696 51.5902 49.6474C51.7154 49.7149 51.8607 49.7405 52.0183 49.6937C52.3059 49.6082 52.4568 49.326 52.5111 49.0522C52.5414 48.8993 52.5482 48.7256 52.5286 48.5348C52.652 48.3153 52.7278 48.0428 52.6814 47.7886C52.6566 47.6529 52.595 47.5159 52.48 47.4074C52.3643 47.2985 52.2163 47.2386 52.0541 47.2205C51.951 47.209 51.8507 47.2064 51.7536 47.2118Z" fill="black"/>
<path fill-rule="evenodd" clip-rule="evenodd" d="M52.5239 42.5069C52.6245 42.3664 52.8195 42.3344 52.9594 42.4355C54.1506 43.296 55.1851 44.3232 56.2048 45.3359C56.5702 45.6987 56.9336 46.0596 57.3017 46.4103C57.316 46.4239 57.3307 46.4379 57.3458 46.4523C57.5817 46.6773 57.9102 46.9906 58.2206 47.237C58.3869 47.369 58.5348 47.471 58.6513 47.5299C58.703 47.5561 58.7386 47.5686 58.7597 47.5738C58.9046 47.5253 59.0667 47.5899 59.137 47.7311C59.214 47.8859 59.1516 48.0741 58.9974 48.1515C58.8731 48.2139 58.7454 48.2094 58.6495 48.1909C58.5519 48.1721 58.4566 48.1332 58.3704 48.0896C58.1978 48.0022 58.0111 47.8695 57.8337 47.7287C57.4999 47.4637 57.1521 47.1319 56.9193 46.9099C56.903 46.8943 56.8873 46.8793 56.8721 46.8649C56.4833 46.4944 56.1075 46.1213 55.7352 45.7516C54.7265 44.75 53.7434 43.7738 52.595 42.9442C52.4551 42.8432 52.4232 42.6474 52.5239 42.5069ZM58.7746 47.5765C58.7746 47.5765 58.7741 47.5765 58.7732 47.5764L58.7746 47.5765Z" fill="black"/>
<path fill-rule="evenodd" clip-rule="evenodd" d="M71.6746 33.4991C71.7425 33.6581 71.6691 33.8424 71.5108 33.9105C68.1842 35.3423 64.9714 37.0082 61.7523 38.6879C61.6344 38.7494 61.5164 38.811 61.3985 38.8725C58.2999 40.4897 55.1912 42.1121 51.9816 43.5319C51.8239 43.6017 51.6397 43.5298 51.5703 43.3714C51.5008 43.2131 51.5724 43.0281 51.7301 42.9584C54.9209 41.5469 58.0135 39.9328 61.1169 38.3132C61.2328 38.2527 61.3487 38.1922 61.4646 38.1318C64.6817 36.4531 67.914 34.7767 71.2649 33.3345C71.4233 33.2663 71.6068 33.34 71.6746 33.4991Z" fill="black"/>
<path fill-rule="evenodd" clip-rule="evenodd" d="M77.7361 38.0872C77.8248 38.2356 77.7769 38.4281 77.6291 38.5172C75.3909 39.8658 73.0198 40.9923 70.6711 42.1082C70.0518 42.4024 69.434 42.6959 68.8207 42.9925C66.5795 44.0764 64.4065 45.2444 62.2248 46.417C60.9132 47.1219 59.5984 47.8286 58.2638 48.5197C58.1107 48.599 57.9225 48.5386 57.8435 48.3848C57.7645 48.231 57.8247 48.042 57.9778 47.9627C59.2937 47.2813 60.6011 46.5787 61.9103 45.8751C64.1026 44.6969 66.2999 43.5161 68.5499 42.4279C69.1722 42.127 69.7958 41.8306 70.4188 41.5347C72.764 40.4203 75.0989 39.3109 77.308 37.9798C77.4558 37.8907 77.6475 37.9388 77.7361 38.0872Z" fill="black"/>
<path fill-rule="evenodd" clip-rule="evenodd" d="M71.3426 33.04C71.4594 32.9127 71.6568 32.9046 71.7835 33.0219C72.6206 33.7966 73.4858 34.5241 74.3571 35.2568C74.5171 35.3913 74.6773 35.526 74.8376 35.6612C75.8679 36.5304 76.8982 37.4178 77.8734 38.3972C77.9953 38.5196 77.9953 38.718 77.8734 38.8404C77.7516 38.9627 77.554 38.9627 77.4322 38.8404C76.4775 37.8816 75.465 37.009 74.4362 36.1411C74.2775 36.0072 74.1183 35.8734 73.9589 35.7394C73.0878 35.0069 72.2096 34.2684 71.3606 33.4827C71.2339 33.3655 71.2259 33.1672 71.3426 33.04Z" fill="black"/>
<path fill-rule="evenodd" clip-rule="evenodd" d="M81.0842 33.1624C81.1337 33.3281 81.04 33.5028 80.875 33.5525C79.785 33.8809 78.7234 34.3386 77.6601 34.8328C77.3223 34.9897 76.983 35.151 76.6426 35.3129C75.9186 35.6571 75.1894 36.0037 74.4584 36.3164C74.2998 36.3843 74.1165 36.3102 74.049 36.1509C73.9815 35.9917 74.0553 35.8077 74.2138 35.7399C74.9336 35.432 75.6435 35.0944 76.3612 34.7532C76.7044 34.59 77.0494 34.426 77.398 34.264C78.4688 33.7664 79.5625 33.2937 80.6957 32.9523C80.8607 32.9025 81.0347 32.9966 81.0842 33.1624Z" fill="black"/>
<path fill-rule="evenodd" clip-rule="evenodd" d="M82.5334 31.9922C82.6366 32.0968 82.6941 32.2311 82.72 32.3739C82.7534 32.5586 82.7047 32.7283 82.6339 32.8636C82.5634 32.9984 82.4625 33.1164 82.359 33.2134C82.1571 33.4026 81.895 33.5578 81.6884 33.6159C81.4679 33.6779 81.2592 33.6795 81.0695 33.6097C80.8807 33.5403 80.7435 33.4123 80.6439 33.2733C80.6032 33.2166 80.5671 33.1554 80.5348 33.0917C80.4767 33.0449 80.4256 32.9847 80.3915 32.9079C80.3477 32.8096 80.3438 32.7115 80.3592 32.6257C80.3396 32.558 80.3224 32.4934 80.3066 32.4343C80.3043 32.4256 80.302 32.4169 80.2997 32.4084C80.2551 32.2412 80.3538 32.0694 80.5202 32.0245C80.6147 31.9991 80.7107 32.02 80.7842 32.0735C80.9006 31.994 81.0322 31.9266 81.163 31.8826C81.31 31.8332 81.5265 31.7896 81.7208 31.8764C81.7228 31.8773 81.7249 31.8782 81.7269 31.8791C81.8678 31.8275 82.021 31.7977 82.1714 31.8169C82.299 31.8332 82.4285 31.8858 82.5334 31.9922ZM82.0293 32.6514C82.0512 32.6234 82.0686 32.5968 82.0815 32.5721C82.1094 32.5188 82.1072 32.4928 82.106 32.486C82.1015 32.461 82.0961 32.4463 82.0925 32.4386C82.0867 32.4379 82.0797 32.4376 82.0717 32.4378C82.0694 32.4831 82.0627 32.5263 82.0536 32.5662C82.047 32.5949 82.0388 32.6233 82.0293 32.6514Z" fill="black"/>
<path d="M42.0067 43.4201C42.2975 43.2231 44.7882 40.4739 45.9973 39.124L46.7583 45.7698C45.7806 48.908 43.5946 55.2347 42.6718 55.4358C41.749 55.6368 39.8121 54.7216 38.9589 54.2388C39.8537 50.7147 41.716 43.6172 42.0067 43.4201Z" fill="white"/>
<path d="M41.6365 55.1856L44.6465 46.6289L46.8997 46.124L42.8878 55.4362L41.6365 55.1856Z" fill="#4FACDF"/>
<path fill-rule="evenodd" clip-rule="evenodd" d="M42.0448 43.2108C42.2127 43.2497 42.3171 43.418 42.2781 43.5866C41.5384 46.7792 40.595 49.9175 39.6552 53.0434C39.4898 53.5936 39.3245 54.1434 39.1605 54.6931C39.111 54.8589 38.9371 54.9532 38.772 54.9038C38.6069 54.8544 38.5132 54.6799 38.5627 54.5141C38.7274 53.962 38.8932 53.4106 39.0589 52.8595C39.9987 49.733 40.9355 46.6167 41.6702 43.4455C41.7093 43.2769 41.877 43.1719 42.0448 43.2108Z" fill="black"/>
<path fill-rule="evenodd" clip-rule="evenodd" d="M46.5788 37.9213C46.7287 38.0062 46.7816 38.1971 46.6969 38.3478C45.2431 40.9323 43.2998 42.6638 41.1579 44.5722C41.0079 44.7059 40.8569 44.8405 40.705 44.9763C40.5762 45.0914 40.379 45.08 40.2646 44.951C40.1501 44.8219 40.1617 44.6239 40.2905 44.5088C40.4376 44.3773 40.5835 44.2473 40.728 44.1184C42.8842 42.1964 44.7531 40.5305 46.1537 38.0405C46.2385 37.8898 46.4288 37.8365 46.5788 37.9213Z" fill="black"/>
<path fill-rule="evenodd" clip-rule="evenodd" d="M45.96 37.5135C46.1323 37.5188 46.2675 37.6633 46.262 37.8362C46.2296 38.8549 46.4274 40.5183 46.6727 42.2127C46.7821 42.9679 46.9011 43.7301 47.0112 44.4353C47.1451 45.2931 47.2659 46.0665 47.34 46.6401C47.3622 46.8117 47.2416 46.969 47.0707 46.9916C46.8997 47.0142 46.7431 46.8933 46.7209 46.7217C46.6471 46.1511 46.529 45.3949 46.3968 44.5485C46.2868 43.8445 46.167 43.078 46.0549 42.3038C45.811 40.6192 45.6036 38.9006 45.638 37.8173C45.6435 37.6443 45.7877 37.5083 45.96 37.5135Z" fill="black"/>
<path fill-rule="evenodd" clip-rule="evenodd" d="M47.5919 44.2622C47.7459 44.3396 47.8081 44.5278 47.7308 44.6825C45.8802 48.3877 44.4107 52.1914 43.0539 56.112C42.9973 56.2755 42.8195 56.3622 42.6567 56.3057C42.4939 56.2491 42.4078 56.0707 42.4644 55.9072C43.8256 51.9738 45.3053 48.1417 47.173 44.4024C47.2503 44.2476 47.4378 44.1849 47.5919 44.2622Z" fill="black"/>
<path fill-rule="evenodd" clip-rule="evenodd" d="M43.7466 55.4543C43.7642 55.6264 43.6394 55.7805 43.4679 55.7984C42.58 55.8913 41.4585 55.6636 40.4723 55.2845C39.4949 54.9087 38.5713 54.3537 38.131 53.7304C38.0314 53.5894 38.0646 53.3938 38.2053 53.2935C38.3459 53.1932 38.5407 53.2263 38.6404 53.3674C38.9718 53.8364 39.7521 54.3362 40.6963 54.6992C41.6318 55.0588 42.6497 55.254 43.4042 55.1751C43.5757 55.1572 43.729 55.2822 43.7466 55.4543Z" fill="black"/>
<path fill-rule="evenodd" clip-rule="evenodd" d="M46.3379 41.3139C46.3049 41.4838 46.141 41.5949 45.9718 41.562C45.7874 41.5262 45.5044 41.4259 45.2467 41.3206C44.9871 41.2145 44.7137 41.0871 44.5496 40.9841C44.4036 40.8924 44.3594 40.6991 44.451 40.5523C44.5426 40.4055 44.7352 40.3609 44.8812 40.4526C44.9982 40.526 45.2308 40.6371 45.4829 40.7401C45.7369 40.844 45.9714 40.9235 46.0913 40.9467C46.2605 40.9796 46.3709 41.144 46.3379 41.3139Z" fill="black"/>
<path fill-rule="evenodd" clip-rule="evenodd" d="M47.0325 45.016C47.0415 45.1888 46.9093 45.3365 46.7371 45.3458C46.6042 45.353 46.4129 45.3997 46.1719 45.4787C45.9643 45.5468 45.7408 45.6315 45.5117 45.7183C45.4799 45.7303 45.448 45.7424 45.416 45.7545C45.1587 45.8518 44.8947 45.9497 44.6617 46.0162C44.4456 46.0779 44.1923 46.1328 43.9848 46.0888C43.8428 46.0587 43.7203 45.9834 43.6201 45.902C43.5182 45.8192 43.4222 45.7161 43.333 45.6065C43.1552 45.388 42.9791 45.1121 42.8143 44.8427C42.7636 44.76 42.7141 44.678 42.6655 44.5977C42.5516 44.4091 42.4428 44.2289 42.3359 44.0662C42.179 43.8274 42.0547 43.6722 41.9635 43.6018C41.8269 43.4964 41.8015 43.2997 41.9067 43.1624C42.0119 43.0251 42.2078 42.9993 42.3444 43.1047C42.5277 43.2461 42.7019 43.4843 42.8571 43.7206C42.9709 43.8937 43.0896 44.0902 43.2063 44.2834C43.2534 44.3614 43.3002 44.4389 43.3462 44.514C43.5108 44.7828 43.6678 45.0267 43.8166 45.2095C43.8907 45.3005 43.9563 45.3684 44.0131 45.4145C44.0717 45.462 44.1051 45.4736 44.1147 45.4756C44.1549 45.4841 44.2711 45.4764 44.492 45.4134C44.6961 45.3552 44.9365 45.2664 45.1969 45.168C45.2281 45.1562 45.2597 45.1443 45.2915 45.1322C45.5188 45.0461 45.7569 44.9559 45.979 44.883C46.2275 44.8016 46.4846 44.732 46.7045 44.72C46.8766 44.7107 47.0235 44.8432 47.0325 45.016Z" fill="black"/>
<path fill-rule="evenodd" clip-rule="evenodd" d="M44.1546 45.4852C44.3179 45.5402 44.4056 45.7178 44.3506 45.8818C42.8527 50.344 42.0742 52.7275 41.2956 55.1115L41.2955 55.1116C41.2418 55.2761 41.0655 55.3659 40.9018 55.3122C40.738 55.2586 40.6488 55.0817 40.7026 54.9172C41.4815 52.5324 42.2606 50.1471 43.7592 45.6825C43.8143 45.5185 43.9913 45.4301 44.1546 45.4852Z" fill="black"/>
<path d="M7.85519 35.7636L2.23878 29.4966C1.71874 28.7654 0.865882 27.1778 1.61474 26.6764C2.5508 26.0497 6.91912 26.9897 9.4153 27.3031C11.4122 27.5538 12.3275 25.5274 12.5355 24.4829C14.3037 27.3031 18.3392 31.5647 17.8399 32.3168C17.2159 33.2568 13.7836 32.9435 9.4153 32.3168C5.92065 31.8154 7.33515 34.6147 7.85519 35.7636Z" fill="white"/>
<path fill-rule="evenodd" clip-rule="evenodd" d="M0.0913893 27.375C0.213242 27.2526 0.410804 27.2526 0.532656 27.375C0.814031 27.6576 1.09558 27.9398 1.37706 28.222C6.52541 33.3835 11.6497 38.521 15.2317 45.0515C15.3149 45.2031 15.2599 45.3936 15.109 45.4771C14.958 45.5606 14.7683 45.5054 14.6851 45.3539C11.1473 38.904 6.0818 33.825 0.91887 28.6483C0.643248 28.3719 0.367349 28.0953 0.0913893 27.8181C-0.0304631 27.6958 -0.0304631 27.4974 0.0913893 27.375Z" fill="black"/>
<path fill-rule="evenodd" clip-rule="evenodd" d="M12.1233 21.9407C12.2923 21.9068 12.4567 22.0168 12.4905 22.1865C12.7572 23.5257 12.755 25.0158 12.0795 26.329C11.6456 27.1726 10.8718 27.5554 10.0645 27.685C9.26386 27.8135 8.39951 27.7005 7.70298 27.5296C7.29447 27.4294 6.85488 27.2824 6.41316 27.1347C6.39508 27.1286 6.377 27.1226 6.35891 27.1165C5.89373 26.961 5.42272 26.805 4.95274 26.6887C4.00582 26.4544 3.12641 26.3982 2.38542 26.7851C2.13543 26.9157 2.00484 27.0965 1.94117 27.3109C1.8739 27.5374 1.87733 27.8181 1.93716 28.136C2.04755 28.7226 2.32835 29.3378 2.53737 29.7956C2.55667 29.8379 2.57536 29.8789 2.59325 29.9183C2.66465 30.0758 2.5954 30.2616 2.43856 30.3333C2.28172 30.4051 2.0967 30.3355 2.02529 30.178C2.00754 30.1388 1.98847 30.0972 1.96837 30.0532C1.76301 29.6045 1.44952 28.9195 1.32397 28.2524C1.25459 27.8838 1.23626 27.4918 1.34315 27.1318C1.45364 26.7597 1.6931 26.4403 2.09751 26.2291C3.04556 25.734 4.11361 25.8356 5.10205 26.0802C5.59974 26.2034 6.09339 26.3672 6.55603 26.5219C6.57032 26.5267 6.58458 26.5314 6.59881 26.5362C7.05028 26.6872 7.46804 26.8269 7.85106 26.9208C8.50522 27.0813 9.27901 27.1764 9.96605 27.0661C10.6465 26.9569 11.21 26.654 11.5251 26.0414C12.1114 24.9016 12.13 23.572 11.8785 22.3094C11.8447 22.1397 11.9543 21.9747 12.1233 21.9407Z" fill="black"/>
<path fill-rule="evenodd" clip-rule="evenodd" d="M10.4273 33.46C9.65626 33.3196 8.93796 33.2969 8.3517 33.5387C8.17143 33.6131 8.07506 33.7072 8.01923 33.8018C7.96098 33.9005 7.93107 34.027 7.93022 34.1882C7.92867 34.4798 8.0179 34.8039 8.11139 35.1434C8.12707 35.2003 8.14287 35.2577 8.15838 35.3154C8.20328 35.4825 8.1048 35.6545 7.93842 35.6996C7.77205 35.7446 7.60078 35.6457 7.55589 35.4787C7.54292 35.4304 7.52871 35.3793 7.51385 35.3259C7.42146 34.9937 7.30413 34.5719 7.30618 34.1848C7.30742 33.9511 7.35075 33.7054 7.48234 33.4823C7.61636 33.2552 7.82642 33.0779 8.11461 32.959C8.86933 32.6477 9.73333 32.6967 10.5386 32.8433C11.0472 32.9359 11.5747 33.0777 12.0509 33.2057C12.3157 33.2769 12.5646 33.3438 12.7856 33.3956C13.3031 33.517 14.3949 33.7106 15.4764 33.7765C16.0173 33.8094 16.5455 33.8097 16.9934 33.7564C17.4526 33.7017 17.7793 33.5958 17.9596 33.454C18.0954 33.3474 18.2915 33.3714 18.3977 33.5077C18.5039 33.644 18.48 33.8409 18.3442 33.9476C18.0244 34.1989 17.5545 34.3207 17.0669 34.3788C16.5679 34.4382 15.999 34.4362 15.4387 34.402C14.3179 34.3338 13.1912 34.1343 12.6437 34.0059C12.3817 33.9445 12.1149 33.8725 11.8423 33.7989C11.388 33.6762 10.9178 33.5493 10.4273 33.46Z" fill="black"/>
<path fill-rule="evenodd" clip-rule="evenodd" d="M11.4264 24.2226C11.5698 24.1266 11.7635 24.1655 11.8591 24.3095C12.4172 25.1503 12.9269 25.9409 13.408 26.6874C15.095 29.3046 16.432 31.3788 18.2815 33.1655C18.4057 33.2855 18.4096 33.4838 18.2901 33.6085C18.1706 33.7333 17.9731 33.7371 17.8489 33.6171C15.9425 31.7756 14.5554 29.6228 12.8599 26.9914C12.3836 26.2523 11.8831 25.4755 11.3399 24.6571C11.2443 24.5131 11.283 24.3186 11.4264 24.2226Z" fill="black"/>
<defs>
<linearGradient id="paint0_linear_150_120386" x1="66.7725" y1="72.0717" x2="19.5659" y2="97.5981" gradientUnits="userSpaceOnUse">
<stop offset="0.123566" stop-color="#8FD7FE"/>
<stop offset="0.528827" stop-color="#4FACDF"/>
</linearGradient>
<linearGradient id="paint1_linear_150_120386" x1="73.9491" y1="14.1007" x2="76.9674" y2="-9.76359" gradientUnits="userSpaceOnUse">
<stop stop-color="#8FD7FE"/>
<stop offset="0.640464" stop-color="#4FACDF"/>
</linearGradient>
</defs>
</svg>
