<svg width="320" height="200" viewBox="0 0 320 200" fill="none" xmlns="http://www.w3.org/2000/svg">
<rect width="320" height="200" fill="#FAFBFC"/>
<path d="M69.4885 122.284L91.1549 105.333H143.588L168.721 122.284V141.583L143.588 158.642H94.1882L68.6219 141.583L69.4885 122.284Z" fill="white"/>
<path fill-rule="evenodd" clip-rule="evenodd" d="M93.2743 104.59C93.4492 104.804 93.4177 105.119 93.204 105.294C89.1317 108.626 81.8236 113.818 75.6093 118.233C72.7025 120.298 70.035 122.193 68.0499 123.648C67.8272 123.812 67.5143 123.763 67.3511 123.541C67.1878 123.318 67.236 123.005 67.4587 122.842C69.4715 121.366 72.1599 119.456 75.0804 117.382C81.2797 112.978 88.5244 107.831 92.5707 104.52C92.7844 104.345 93.0994 104.376 93.2743 104.59Z" fill="black"/>
<path fill-rule="evenodd" clip-rule="evenodd" d="M66.0427 119.55C66.1991 119.322 66.5104 119.265 66.738 119.421C70.164 121.774 73.2843 124.003 76.2842 126.146C83.0992 131.013 89.2927 135.437 97.0362 139.87C97.2759 140.007 97.359 140.312 97.2218 140.552C97.0846 140.792 96.7791 140.875 96.5394 140.738C88.7508 136.279 82.4959 131.812 75.6605 126.93C72.668 124.792 69.5642 122.576 66.1718 120.245C65.9442 120.089 65.8864 119.778 66.0427 119.55Z" fill="black"/>
<path fill-rule="evenodd" clip-rule="evenodd" d="M140.134 103.357C140.284 103.125 140.593 103.057 140.825 103.206C150.796 109.606 161.641 116.864 170.755 123.698C170.976 123.863 171.021 124.177 170.855 124.398C170.689 124.619 170.376 124.663 170.155 124.498C161.069 117.685 150.247 110.442 140.285 104.048C140.053 103.899 139.985 103.589 140.134 103.357Z" fill="black"/>
<path fill-rule="evenodd" clip-rule="evenodd" d="M139.735 140.591C139.911 140.804 140.227 140.834 140.439 140.658C143.226 138.352 148.501 134.968 154.201 131.339C154.486 131.158 154.771 130.976 155.058 130.794C160.487 127.338 166.184 123.712 170.317 120.662C170.539 120.498 170.587 120.185 170.423 119.962C170.259 119.74 169.945 119.693 169.723 119.857C165.62 122.886 159.949 126.495 154.507 129.959C154.225 130.138 153.944 130.317 153.664 130.496C147.99 134.108 142.649 137.532 139.802 139.887C139.589 140.063 139.559 140.378 139.735 140.591Z" fill="black"/>
<path fill-rule="evenodd" clip-rule="evenodd" d="M139.712 161.916C139.872 162.141 140.184 162.195 140.409 162.035C143.738 159.682 146.769 157.453 149.684 155.31C156.304 150.443 162.319 146.02 169.841 141.587C170.079 141.447 170.158 141.141 170.018 140.903C169.878 140.665 169.571 140.586 169.333 140.726C161.766 145.185 155.689 149.653 149.049 154.535C146.142 156.672 143.127 158.889 139.832 161.219C139.607 161.378 139.553 161.69 139.712 161.916Z" fill="black"/>
<path fill-rule="evenodd" clip-rule="evenodd" d="M66.9108 140.018C67.0685 139.791 67.3801 139.735 67.6067 139.893C71.1302 142.344 74.3395 144.666 77.425 146.897C84.435 151.968 90.8062 156.577 98.7716 161.194C99.0105 161.333 99.0919 161.639 98.9534 161.878C98.8149 162.117 98.5089 162.198 98.27 162.06C90.2595 157.416 83.8268 152.763 76.7963 147.677C73.7182 145.451 70.5255 143.142 67.0357 140.714C66.809 140.556 66.7531 140.245 66.9108 140.018Z" fill="black"/>
<path fill-rule="evenodd" clip-rule="evenodd" d="M89.3555 137.745C89.3555 137.468 89.5794 137.245 89.8555 137.245L149.655 137.245C149.931 137.245 150.155 137.468 150.155 137.745C150.155 138.021 149.931 138.245 149.655 138.245L89.8555 138.245C89.5794 138.245 89.3555 138.021 89.3555 137.745Z" fill="black"/>
<path fill-rule="evenodd" clip-rule="evenodd" d="M147.921 105.833C124.956 105.833 108.11 105.92 87.2837 107.112C87.008 107.127 86.7717 106.917 86.756 106.641C86.7402 106.365 86.9509 106.129 87.2266 106.113C108.084 104.92 124.954 104.833 147.921 104.833C148.197 104.833 148.421 105.057 148.421 105.333C148.421 105.609 148.197 105.833 147.921 105.833Z" fill="black"/>
<path fill-rule="evenodd" clip-rule="evenodd" d="M145.322 159.219L88.9893 159.219C88.7131 159.219 88.4893 158.995 88.4893 158.719C88.4893 158.442 88.7131 158.219 88.9893 158.219L145.322 158.219C145.598 158.219 145.822 158.442 145.822 158.719C145.822 158.995 145.598 159.219 145.322 159.219Z" fill="black"/>
<path fill-rule="evenodd" clip-rule="evenodd" d="M69.9216 117.628C70.1977 117.628 70.4216 117.851 70.4216 118.128V142.863C70.4216 143.139 70.1977 143.363 69.9216 143.363C69.6454 143.363 69.4216 143.139 69.4216 142.863V118.128C69.4216 117.851 69.6454 117.628 69.9216 117.628Z" fill="black"/>
<path fill-rule="evenodd" clip-rule="evenodd" d="M167.854 119.333C168.13 119.333 168.354 119.557 168.354 119.833V144.866C168.354 145.142 168.13 145.366 167.854 145.366C167.578 145.366 167.354 145.142 167.354 144.866V119.833C167.354 119.557 167.578 119.333 167.854 119.333Z" fill="black"/>
<path fill-rule="evenodd" clip-rule="evenodd" d="M92.453 135.112C92.7291 135.112 92.953 135.336 92.953 135.612V158.266C92.953 158.542 92.7291 158.766 92.453 158.766C92.1769 158.766 91.953 158.542 91.953 158.266V135.612C91.953 135.336 92.1769 135.112 92.453 135.112Z" fill="black"/>
<path fill-rule="evenodd" clip-rule="evenodd" d="M143.588 131.669C143.864 131.669 144.088 131.893 144.088 132.169C144.088 133.253 144.109 135.335 144.136 137.908C144.161 140.386 144.192 143.321 144.212 146.259C144.254 152.228 144.254 158.236 144.086 160.387C144.064 160.662 143.824 160.868 143.548 160.846C143.273 160.825 143.067 160.584 143.089 160.309C143.253 158.212 143.254 152.259 143.212 146.266C143.192 143.339 143.162 140.407 143.136 137.928C143.109 135.347 143.088 133.256 143.088 132.169C143.088 131.893 143.312 131.669 143.588 131.669Z" fill="black"/>
<path fill-rule="evenodd" clip-rule="evenodd" d="M72.6664 123.192C72.9249 123.267 73.0756 123.534 73.0074 123.794C72.7953 124.604 72.2404 126.152 71.6996 127.661L71.6924 127.681C71.6896 127.689 71.6869 127.697 71.6841 127.705L70.397 131.504C70.3105 131.76 70.0372 131.902 69.7788 131.827C69.5203 131.751 69.3696 131.485 69.4378 131.225C69.6463 130.428 70.1949 128.898 70.7327 127.397L70.7379 127.383L72.0482 123.514C72.1347 123.259 72.408 123.117 72.6664 123.192Z" fill="black"/>
<path fill-rule="evenodd" clip-rule="evenodd" d="M75.2587 126.173C75.5264 126.241 75.6867 126.512 75.6167 126.779L71.3733 142.985C71.3033 143.252 71.0296 143.414 70.762 143.346C70.4943 143.278 70.334 143.007 70.404 142.739L74.6474 126.534C74.7173 126.266 74.991 126.105 75.2587 126.173ZM82.347 130.864C82.6146 130.932 82.7749 131.203 82.705 131.471L78.3499 148.103C78.2799 148.37 78.0062 148.532 77.7385 148.464C77.4709 148.396 77.3106 148.124 77.3805 147.857L81.7357 131.225C81.8056 130.958 82.0793 130.796 82.347 130.864Z" fill="black"/>
<path fill-rule="evenodd" clip-rule="evenodd" d="M89.5484 135.37C89.8161 135.438 89.9764 135.709 89.9064 135.976L85.3911 153.221C85.3212 153.488 85.0475 153.649 84.7798 153.581C84.5122 153.513 84.3519 153.242 84.4218 152.975L88.9371 135.731C89.0071 135.464 89.2808 135.302 89.5484 135.37Z" fill="black"/>
<path fill-rule="evenodd" clip-rule="evenodd" d="M106.238 137.688C106.505 137.755 106.666 138.027 106.596 138.294L101.326 158.418C101.256 158.686 100.983 158.847 100.715 158.779C100.447 158.711 100.287 158.44 100.357 158.173L105.627 138.048C105.696 137.781 105.97 137.62 106.238 137.688ZM97.9212 137.688C98.1889 137.755 98.3492 138.027 98.2792 138.294L93.0098 158.418C92.9398 158.686 92.6661 158.847 92.3985 158.779C92.1308 158.711 91.9705 158.44 92.0405 158.173L97.3099 138.048C97.3798 137.781 97.6535 137.62 97.9212 137.688Z" fill="black"/>
<path fill-rule="evenodd" clip-rule="evenodd" d="M114.874 137.261C115.142 137.329 115.302 137.6 115.232 137.868C114.344 141.259 113.426 144.946 112.515 148.608L112.491 148.703C111.588 152.332 110.692 155.934 109.839 159.191C109.769 159.458 109.495 159.62 109.228 159.552C108.96 159.484 108.8 159.212 108.87 158.945C109.721 155.695 110.616 152.097 111.52 148.465L111.543 148.374C112.454 144.713 113.373 141.02 114.263 137.622C114.333 137.355 114.607 137.193 114.874 137.261Z" fill="black"/>
<path fill-rule="evenodd" clip-rule="evenodd" d="M132.273 137.688C132.54 137.755 132.701 138.027 132.631 138.294L127.382 158.338C127.312 158.605 127.039 158.767 126.771 158.699C126.503 158.631 126.343 158.36 126.413 158.092L131.661 138.048C131.731 137.781 132.005 137.62 132.273 137.688ZM123.956 137.688C124.224 137.755 124.384 138.027 124.314 138.294L119.066 158.338C118.996 158.605 118.722 158.767 118.454 158.699C118.187 158.631 118.026 158.36 118.096 158.092L123.345 138.048C123.415 137.781 123.688 137.62 123.956 137.688Z" fill="black"/>
<path fill-rule="evenodd" clip-rule="evenodd" d="M140.969 137.687C141.237 137.755 141.397 138.027 141.327 138.294L136.079 158.338C136.009 158.605 135.735 158.767 135.468 158.699C135.2 158.631 135.04 158.359 135.11 158.092L140.358 138.048C140.428 137.781 140.702 137.619 140.969 137.687Z" fill="black"/>
<path fill-rule="evenodd" clip-rule="evenodd" d="M161.481 125.412C161.748 125.479 161.909 125.751 161.839 126.018L155.274 151.088C155.204 151.356 154.93 151.517 154.663 151.449C154.395 151.381 154.235 151.11 154.305 150.843L160.869 125.772C160.939 125.505 161.213 125.344 161.481 125.412ZM151.29 132.57C151.557 132.638 151.717 132.91 151.648 133.177L145.171 157.912C145.101 158.179 144.827 158.341 144.559 158.273C144.292 158.205 144.131 157.933 144.201 157.666L150.678 132.931C150.748 132.664 151.022 132.502 151.29 132.57Z" fill="black"/>
<path fill-rule="evenodd" clip-rule="evenodd" d="M167.649 131.29C167.917 131.358 168.077 131.63 168.007 131.897L164.657 144.691C164.587 144.958 164.313 145.12 164.045 145.052C163.778 144.984 163.617 144.712 163.687 144.445L167.038 131.651C167.107 131.384 167.381 131.222 167.649 131.29Z" fill="black"/>
<path fill-rule="evenodd" clip-rule="evenodd" d="M103.428 82.9882L112.468 75.6433L118.118 77.9032L120.378 80.7282H124.898L128.853 73.3833L137.892 79.0332L140.717 84.1181L137.892 88.0731L140.717 91.463H145.802L147.497 94.853L145.802 106.718H139.587L135.068 113.498L137.327 118.583L127.723 124.797L124.898 119.713H118.118L113.598 125.927L104.558 120.843L100.603 118.583L104.558 111.803V109.543H100.603L96.0831 105.588V94.288L102.298 93.723L106.253 88.0731L103.428 82.9882ZM114.728 98.8079L123.768 91.463L126.593 94.288L126.028 103.328L118.118 109.543L114.728 106.718V98.8079Z" fill="white"/>
<path fill-rule="evenodd" clip-rule="evenodd" d="M103.428 82.9882L112.468 75.6433L118.118 77.9032L120.378 80.7282H124.898L128.853 73.3833L137.892 79.0332L140.717 84.1181L137.892 88.0731L140.717 91.463H145.802L147.497 94.853L145.802 106.718H139.587L135.068 113.498L137.327 118.583L127.723 124.797L124.898 119.713H118.118L113.598 125.927L104.558 120.843L100.603 118.583L104.558 111.803V109.543H100.603L96.0831 105.588V94.288L102.298 93.723L106.253 88.0731L103.428 82.9882ZM114.728 98.8079L123.768 91.463L126.593 94.288L126.028 103.328L118.118 109.543L114.728 106.718V98.8079Z" fill="#AE82FC"/>
<path fill-rule="evenodd" clip-rule="evenodd" d="M111.726 88.6269C111.966 88.7632 112.05 89.0683 111.914 89.3085L106.547 98.7721C106.41 99.0123 106.105 99.0966 105.865 98.9604C105.625 98.8241 105.541 98.519 105.677 98.2788L111.044 88.8152C111.18 88.575 111.486 88.4907 111.726 88.6269Z" fill="black"/>
<path fill-rule="evenodd" clip-rule="evenodd" d="M107.586 84.6585C107.833 84.5364 108.133 84.6381 108.255 84.8858C108.39 85.1593 108.523 85.4319 108.656 85.7033C109.517 87.4667 110.354 89.178 111.464 90.751C111.623 90.9766 111.569 91.2886 111.344 91.4478C111.118 91.6071 110.806 91.5533 110.647 91.3277C109.487 89.6839 108.612 87.8934 107.754 86.1348C107.622 85.865 107.49 85.5958 107.358 85.3281C107.236 85.0804 107.338 84.7806 107.586 84.6585Z" fill="black"/>
<path fill-rule="evenodd" clip-rule="evenodd" d="M118.798 77.9971C119.058 77.9047 119.344 78.0407 119.436 78.301C120.006 79.9042 120.475 81.5319 120.94 83.1476C121.028 83.4513 121.115 83.7546 121.203 84.0572C121.42 84.8037 121.562 85.2758 121.924 85.8183C122.077 86.0481 122.015 86.3585 121.785 86.5117C121.555 86.6649 121.245 86.6028 121.092 86.373C120.636 85.6895 120.459 85.0802 120.245 84.3432L120.243 84.3362C120.154 84.0292 120.065 83.7231 119.977 83.4177C119.512 81.8018 119.052 80.2077 118.494 78.6356C118.402 78.3754 118.538 78.0895 118.798 77.9971Z" fill="black"/>
<path fill-rule="evenodd" clip-rule="evenodd" d="M119.537 76.6601C119.678 76.8979 119.599 77.2045 119.361 77.345C115.149 79.8341 110.993 82.6624 107.756 86.2874C107.572 86.4934 107.256 86.5113 107.05 86.3273C106.844 86.1434 106.826 85.8273 107.01 85.6214C110.351 81.8799 114.613 78.989 118.852 76.484C119.09 76.3436 119.397 76.4224 119.537 76.6601Z" fill="black"/>
<path fill-rule="evenodd" clip-rule="evenodd" d="M123.74 85.0981C122.639 85.0337 121.506 85.1101 120.557 85.1816C120.281 85.2024 120.041 84.996 120.02 84.7206C120 84.4452 120.206 84.2052 120.481 84.1844C121.429 84.113 122.623 84.0311 123.799 84.0998C124.966 84.1681 126.177 84.3873 127.132 84.9605C127.369 85.1026 127.446 85.4097 127.304 85.6465C127.162 85.8833 126.855 85.9601 126.618 85.818C125.868 85.3683 124.85 85.163 123.74 85.0981Z" fill="black"/>
<path fill-rule="evenodd" clip-rule="evenodd" d="M132.704 76.9542C132.916 77.1309 132.945 77.4462 132.768 77.6584C130.976 79.8082 129.648 82.488 128.361 85.0846C128.203 85.4036 128.045 85.7214 127.887 86.0367C127.764 86.2837 127.464 86.3838 127.217 86.2603C126.97 86.1369 126.869 85.8365 126.993 85.5895C127.149 85.2771 127.306 84.96 127.465 84.6397C128.744 82.0576 130.127 79.2652 132 77.0182C132.177 76.806 132.492 76.7774 132.704 76.9542Z" fill="black"/>
<path fill-rule="evenodd" clip-rule="evenodd" d="M141.071 83.6234C141.266 83.8186 141.266 84.1352 141.071 84.3305C139.511 85.8903 138.329 87.9343 137.17 89.9381C136.989 90.2499 136.809 90.5607 136.629 90.8685C136.489 91.1067 136.183 91.1866 135.945 91.0469C135.706 90.9072 135.627 90.6008 135.766 90.3626C135.941 90.0648 136.117 89.7602 136.295 89.4513C137.448 87.4567 138.703 85.2841 140.364 83.6234C140.559 83.4281 140.876 83.4281 141.071 83.6234Z" fill="black"/>
<path fill-rule="evenodd" clip-rule="evenodd" d="M136.5 88.3535C136.736 88.2088 137.044 88.2821 137.188 88.5173C138.381 90.4546 139.23 92.4141 139.922 94.5583C140.007 94.8211 139.863 95.1029 139.6 95.1876C139.337 95.2724 139.055 95.1281 138.97 94.8653C138.299 92.7829 137.48 90.8989 136.337 89.0414C136.192 88.8062 136.265 88.4983 136.5 88.3535Z" fill="black"/>
<path fill-rule="evenodd" clip-rule="evenodd" d="M147.15 94.9791C147.158 95.2551 146.941 95.4857 146.665 95.494C146.106 95.511 145.544 95.5317 144.98 95.5525C143.191 95.6184 141.379 95.6852 139.574 95.6353C139.298 95.6277 139.08 95.3977 139.088 95.1217C139.095 94.8457 139.325 94.6281 139.601 94.6357C141.371 94.6846 143.138 94.6195 144.92 94.5539C145.49 94.5329 146.061 94.5119 146.635 94.4945C146.911 94.4861 147.141 94.7031 147.15 94.9791Z" fill="black"/>
<path fill-rule="evenodd" clip-rule="evenodd" d="M147.685 94.6377C147.96 94.6635 148.162 94.9073 148.136 95.1822C148.01 96.5285 147.849 97.8692 147.689 99.2058C147.348 102.053 147.009 104.881 147.009 107.707C147.009 107.983 146.785 108.207 146.509 108.207C146.232 108.207 146.009 107.983 146.009 107.707C146.009 104.821 146.36 101.891 146.704 99.0119C146.863 97.6902 147.02 96.3793 147.141 95.0888C147.167 94.8138 147.41 94.6119 147.685 94.6377Z" fill="black"/>
<path fill-rule="evenodd" clip-rule="evenodd" d="M148.138 106.688C148.154 106.964 147.944 107.201 147.668 107.217C144.842 107.383 142.014 107.532 139.183 107.641C138.907 107.652 138.675 107.437 138.664 107.161C138.653 106.885 138.869 106.653 139.144 106.642C141.967 106.533 144.787 106.385 147.609 106.219C147.885 106.202 148.121 106.413 148.138 106.688Z" fill="black"/>
<path fill-rule="evenodd" clip-rule="evenodd" d="M140.643 103.862C140.894 103.977 141.004 104.273 140.89 104.524C139.577 107.396 137.898 110.036 136.23 112.658C135.935 113.121 135.641 113.584 135.349 114.047C135.202 114.28 134.893 114.35 134.66 114.203C134.426 114.056 134.356 113.747 134.503 113.514C134.8 113.043 135.097 112.576 135.393 112.11C137.062 109.486 138.699 106.912 139.98 104.109C140.095 103.858 140.392 103.747 140.643 103.862Z" fill="black"/>
<path fill-rule="evenodd" clip-rule="evenodd" d="M134.375 112.511C134.608 112.363 134.917 112.431 135.066 112.664C135.704 113.668 136.283 114.702 136.853 115.723C136.874 115.761 136.894 115.798 136.915 115.836C137.466 116.823 138.008 117.797 138.599 118.741C138.745 118.976 138.674 119.284 138.44 119.43C138.206 119.577 137.897 119.506 137.751 119.271C137.147 118.305 136.593 117.311 136.046 116.33C136.024 116.29 136.002 116.25 135.979 116.21C135.408 115.186 134.843 114.177 134.222 113.201C134.074 112.968 134.142 112.659 134.375 112.511Z" fill="black"/>
<path fill-rule="evenodd" clip-rule="evenodd" d="M126.234 119.043C126.292 119.313 126.12 119.579 125.85 119.637C122.814 120.287 120.12 120.455 117.022 119.777C116.752 119.718 116.582 119.452 116.641 119.182C116.7 118.912 116.966 118.741 117.236 118.8C120.158 119.44 122.702 119.288 125.64 118.659C125.91 118.601 126.176 118.773 126.234 119.043Z" fill="black"/>
<path fill-rule="evenodd" clip-rule="evenodd" d="M124.975 118.833C125.226 118.72 125.522 118.832 125.636 119.083C126.502 121.002 127.459 122.831 128.447 124.706C128.576 124.95 128.483 125.252 128.238 125.381C127.994 125.51 127.692 125.416 127.563 125.172C126.576 123.3 125.604 121.445 124.724 119.495C124.611 119.243 124.723 118.947 124.975 118.833Z" fill="black"/>
<path fill-rule="evenodd" clip-rule="evenodd" d="M138.026 119.012C138.179 119.241 138.117 119.552 137.887 119.705C137.781 119.776 137.675 119.847 137.568 119.918C134.489 121.971 131.331 124.078 127.935 125.674C127.685 125.791 127.388 125.684 127.27 125.434C127.153 125.184 127.26 124.886 127.51 124.769C130.836 123.205 133.94 121.136 137.036 119.07C137.135 119.005 137.234 118.939 137.333 118.873C137.562 118.72 137.873 118.782 138.026 119.012Z" fill="black"/>
<path fill-rule="evenodd" clip-rule="evenodd" d="M118.276 117.685C118.538 117.772 118.679 118.055 118.592 118.317C118.099 119.796 117.425 121.205 116.738 122.579C116.615 122.825 116.491 123.07 116.368 123.314C115.8 124.441 115.241 125.549 114.765 126.686C114.659 126.94 114.366 127.06 114.111 126.954C113.856 126.847 113.736 126.554 113.843 126.3C114.334 125.127 114.912 123.981 115.481 122.853C115.602 122.612 115.724 122.371 115.844 122.131C116.529 120.762 117.175 119.407 117.643 118.001C117.731 117.739 118.014 117.597 118.276 117.685Z" fill="black"/>
<path fill-rule="evenodd" clip-rule="evenodd" d="M110.837 113.42C111.036 113.611 111.042 113.928 110.851 114.127C109.35 115.688 108.015 117.353 106.659 119.044C106.095 119.747 105.528 120.455 104.943 121.161C104.767 121.374 104.452 121.404 104.239 121.228C104.027 121.052 103.997 120.737 104.173 120.524C104.736 119.843 105.291 119.15 105.849 118.455C107.216 116.75 108.596 115.029 110.13 113.434C110.321 113.235 110.638 113.228 110.837 113.42Z" fill="black"/>
<path fill-rule="evenodd" clip-rule="evenodd" d="M103.706 120.303C103.848 120.066 104.155 119.989 104.392 120.131C106.959 121.672 109.385 123.409 111.796 125.137C112.106 125.359 112.417 125.581 112.727 125.803C112.753 125.821 112.801 125.859 112.85 125.898C112.879 125.92 112.908 125.943 112.933 125.962C112.959 125.981 112.985 126.001 113.01 126.02C113.012 126.019 113.014 126.019 113.016 126.018C113.278 125.931 113.561 126.072 113.648 126.334C113.673 126.408 113.719 126.563 113.678 126.734C113.653 126.836 113.594 126.954 113.479 127.043C113.368 127.128 113.249 127.152 113.166 127.156C113.02 127.163 112.897 127.113 112.842 127.089C112.772 127.058 112.705 127.019 112.648 126.984C112.533 126.912 112.414 126.824 112.324 126.755C112.284 126.724 112.246 126.695 112.216 126.671L112.204 126.662L112.163 126.63L112.15 126.62C112.148 126.618 112.147 126.618 112.146 126.617C112.146 126.617 112.146 126.617 112.146 126.617C111.834 126.394 111.524 126.172 111.213 125.949C108.798 124.22 106.407 122.507 103.877 120.989C103.64 120.847 103.563 120.54 103.706 120.303ZM112.703 126.662C112.703 126.662 112.702 126.659 112.7 126.652C112.703 126.659 112.703 126.662 112.703 126.662ZM113.242 126.172C113.251 126.175 113.252 126.176 113.243 126.173C113.243 126.173 113.242 126.172 113.242 126.172Z" fill="black"/>
<path fill-rule="evenodd" clip-rule="evenodd" d="M106.879 108.484C107.152 108.44 107.409 108.625 107.453 108.898C107.771 110.857 108.746 113.023 110.138 114.415C110.333 114.611 110.333 114.927 110.138 115.123C109.942 115.318 109.626 115.318 109.431 115.123C107.863 113.555 106.81 111.183 106.466 109.058C106.421 108.785 106.607 108.528 106.879 108.484Z" fill="black"/>
<path fill-rule="evenodd" clip-rule="evenodd" d="M98.7027 108.445C98.7629 108.175 99.0303 108.006 99.2997 108.066C101.382 108.532 103.59 108.51 105.812 108.487C106.288 108.483 106.765 108.478 107.242 108.478C107.518 108.478 107.742 108.702 107.742 108.978C107.742 109.254 107.518 109.478 107.242 109.478C106.789 109.478 106.328 109.483 105.862 109.488C103.637 109.511 101.288 109.536 99.0815 109.042C98.812 108.982 98.6424 108.714 98.7027 108.445Z" fill="black"/>
<path fill-rule="evenodd" clip-rule="evenodd" d="M99.134 97.3977C99.2108 97.1325 99.488 96.9796 99.7533 97.0564C102.492 97.8486 105.144 97.6835 108.027 97.323C108.301 97.2888 108.551 97.4832 108.585 97.7572C108.62 98.0312 108.425 98.2811 108.151 98.3153C105.242 98.6789 102.419 98.8687 99.4754 98.017C99.2101 97.9402 99.0573 97.663 99.134 97.3977Z" fill="black"/>
<path fill-rule="evenodd" clip-rule="evenodd" d="M100.046 97.0367C100.322 97.0407 100.543 97.2678 100.539 97.5439C100.518 99.0007 100.462 100.456 100.407 101.904C100.405 101.951 100.403 101.998 100.401 102.044C100.344 103.541 100.289 105.03 100.272 106.519C100.258 107.719 100.277 108.52 100.648 109.508C100.745 109.767 100.614 110.055 100.355 110.152C100.097 110.249 99.8087 110.118 99.7118 109.86C99.2707 108.683 99.2581 107.72 99.2719 106.508C99.289 105.004 99.3452 103.501 99.4021 102.006C99.4039 101.961 99.4056 101.915 99.4073 101.87C99.4627 100.419 99.5178 98.9741 99.5387 97.5294C99.5427 97.2533 99.7698 97.0327 100.046 97.0367Z" fill="black"/>
<path fill-rule="evenodd" clip-rule="evenodd" d="M95.8474 93.6771C96.0288 93.4689 96.3446 93.4471 96.5528 93.6285C98.1074 94.9828 99.4341 96.4066 100.809 97.8819L100.828 97.9021C101.016 98.1041 101.005 98.4205 100.803 98.6087C100.601 98.797 100.284 98.7858 100.096 98.5838L100.093 98.581C98.7079 97.0942 97.4112 95.7026 95.8959 94.3825C95.6877 94.2011 95.666 93.8853 95.8474 93.6771Z" fill="black"/>
<path fill-rule="evenodd" clip-rule="evenodd" d="M103.503 93.5485C103.522 93.824 103.313 94.0623 103.038 94.0806C102.265 94.1322 101.515 94.2103 100.758 94.2893C100.282 94.3389 99.8038 94.3888 99.3147 94.4326C98.0656 94.5445 96.7919 94.6111 95.4775 94.5038C95.2022 94.4814 94.9973 94.24 95.0198 93.9648C95.0423 93.6896 95.2836 93.4847 95.5588 93.5071C96.7899 93.6076 97.9983 93.5465 99.2255 93.4366C99.6826 93.3956 100.149 93.3471 100.621 93.298C101.396 93.2174 102.186 93.1352 102.971 93.0829C103.247 93.0645 103.485 93.273 103.503 93.5485Z" fill="black"/>
<path fill-rule="evenodd" clip-rule="evenodd" d="M107.225 88.3475C107.385 88.5722 107.333 88.8845 107.109 89.045C105.239 90.3805 104.267 92.669 103.627 94.9861C103.554 95.2523 103.279 95.4085 103.012 95.335C102.746 95.2615 102.59 94.9861 102.664 94.7199C103.315 92.3618 104.361 89.7785 106.527 88.2312C106.752 88.0707 107.064 88.1228 107.225 88.3475Z" fill="black"/>
<path fill-rule="evenodd" clip-rule="evenodd" d="M102.732 82.2863C102.964 82.1359 103.273 82.2019 103.424 82.4335C104.645 84.316 105.662 86.2531 106.569 88.2938C106.681 88.5461 106.567 88.8416 106.315 88.9538C106.062 89.0659 105.767 88.9523 105.655 88.6999C104.765 86.6986 103.773 84.8091 102.585 82.9779C102.435 82.7463 102.5 82.4366 102.732 82.2863Z" fill="black"/>
<path fill-rule="evenodd" clip-rule="evenodd" d="M102.403 82.3693C102.51 82.1151 102.804 81.9963 103.058 82.1041C104.29 82.6264 105.426 83.2905 106.527 83.9458C106.6 83.989 106.672 84.0321 106.745 84.0752C107.778 84.6905 108.784 85.2898 109.852 85.7829C110.103 85.8986 110.213 86.1957 110.097 86.4464C109.981 86.6972 109.684 86.8066 109.433 86.6909C108.315 86.1748 107.266 85.5499 106.243 84.94C106.167 84.895 106.092 84.8501 106.016 84.8052C104.912 84.1485 103.83 83.5173 102.668 83.0248C102.414 82.9171 102.295 82.6236 102.403 82.3693Z" fill="black"/>
<path fill-rule="evenodd" clip-rule="evenodd" d="M106.388 88.2414C106.529 88.004 106.836 87.9259 107.073 88.067C108.204 88.7391 109.371 89.2815 110.591 89.8492L110.625 89.865C110.979 90.0299 111.349 90.2015 111.691 90.5445C111.887 90.7398 111.887 91.0563 111.691 91.2516C111.496 91.4469 111.18 91.4469 110.984 91.2516C110.781 91.048 110.564 90.9396 110.201 90.7707L110.149 90.7465C108.943 90.1854 107.737 89.6247 106.563 88.9267C106.325 88.7856 106.247 88.4788 106.388 88.2414Z" fill="black"/>
<path fill-rule="evenodd" clip-rule="evenodd" d="M102.575 93.3141C102.801 93.1552 103.113 93.2094 103.272 93.4353C104.533 95.2275 105.791 96.9328 107.313 98.4544C107.508 98.6496 107.508 98.9662 107.313 99.1615C107.117 99.3567 106.801 99.3567 106.606 99.1615C105.019 97.5747 103.719 95.8087 102.454 94.0107C102.295 93.7849 102.349 93.473 102.575 93.3141Z" fill="black"/>
<path fill-rule="evenodd" clip-rule="evenodd" d="M114.608 74.427C114.734 74.6729 114.636 74.9741 114.39 75.0998C109.81 77.4411 105.443 80.2496 102.42 84.412C102.258 84.6354 101.945 84.685 101.722 84.5228C101.498 84.3605 101.449 84.0478 101.611 83.8244C104.774 79.4689 109.311 76.5729 113.935 74.2094C114.181 74.0837 114.482 74.1811 114.608 74.427Z" fill="black"/>
<path fill-rule="evenodd" clip-rule="evenodd" d="M111.745 74.7001C111.876 74.4569 112.179 74.3659 112.422 74.4968C114.628 75.6837 116.849 76.7797 119.155 77.723C119.41 77.8275 119.533 78.1195 119.428 78.3751C119.324 78.6306 119.032 78.7531 118.776 78.6485C116.428 77.6879 114.174 76.5749 111.948 75.3773C111.705 75.2465 111.614 74.9433 111.745 74.7001Z" fill="black"/>
<path fill-rule="evenodd" clip-rule="evenodd" d="M125.18 81.2282C123.233 81.2282 121.361 81.2909 119.481 81.6434C119.21 81.6943 118.948 81.5155 118.898 81.2441C118.847 80.9727 119.025 80.7114 119.297 80.6605C121.27 80.2905 123.218 80.2282 125.18 80.2282C125.456 80.2282 125.68 80.4521 125.68 80.7282C125.68 81.0044 125.456 81.2282 125.18 81.2282Z" fill="black"/>
<path fill-rule="evenodd" clip-rule="evenodd" d="M124.528 80.1421C124.774 80.016 125.075 80.113 125.201 80.3587C126.132 82.1712 127.01 84.0095 127.884 85.8386C127.981 86.0408 128.077 86.2429 128.174 86.4449C128.293 86.694 128.188 86.9925 127.938 87.1117C127.689 87.2308 127.391 87.1255 127.272 86.8763C127.175 86.6744 127.078 86.4724 126.982 86.2706C126.107 84.4395 125.235 82.6144 124.312 80.8153C124.186 80.5696 124.282 80.2682 124.528 80.1421Z" fill="black"/>
<path fill-rule="evenodd" clip-rule="evenodd" d="M129.217 73.0774C129.464 73.2009 129.565 73.5012 129.441 73.7482C128.999 74.6315 128.522 75.5091 128.049 76.3784C127.814 76.8099 127.58 77.2393 127.353 77.6664C126.661 78.9644 126.013 80.2616 125.507 81.61C125.41 81.8686 125.122 81.9996 124.863 81.9026C124.605 81.8057 124.474 81.5175 124.571 81.2589C125.1 79.8486 125.772 78.5057 126.47 77.196C126.707 76.7522 126.945 76.3145 127.182 75.8793C127.65 75.0196 128.112 74.1694 128.547 73.301C128.67 73.054 128.971 72.9539 129.217 73.0774Z" fill="black"/>
<path fill-rule="evenodd" clip-rule="evenodd" d="M129.495 73.2098C129.747 73.0966 130.043 73.209 130.156 73.4609C130.966 75.2635 131.82 77.0338 132.692 78.8133C132.813 79.0613 132.711 79.3608 132.463 79.4823C132.215 79.6037 131.915 79.5012 131.794 79.2532C130.921 77.471 130.061 75.6888 129.244 73.8708C129.131 73.6189 129.243 73.3229 129.495 73.2098Z" fill="black"/>
<path fill-rule="evenodd" clip-rule="evenodd" d="M131.806 77.6593C131.941 77.4183 132.246 77.3321 132.487 77.4669C134.603 78.6499 136.565 80.0762 138.499 81.4824C139.007 81.8517 139.513 82.2196 140.019 82.5813C140.244 82.7418 140.296 83.0541 140.136 83.2788C139.975 83.5035 139.663 83.5556 139.438 83.3951C138.916 83.0223 138.4 82.647 137.885 82.2731C135.957 80.8717 134.058 79.4908 131.999 78.3397C131.758 78.205 131.671 77.9003 131.806 77.6593Z" fill="black"/>
<path fill-rule="evenodd" clip-rule="evenodd" d="M129.449 73.3556C129.621 73.139 129.935 73.1024 130.152 73.2738C131.423 74.2797 132.785 75.0943 134.191 75.8841C134.528 76.0734 134.868 76.2619 135.21 76.4513C136.286 77.0467 137.38 77.6523 138.443 78.3289C138.676 78.4772 138.745 78.7862 138.597 79.0192C138.449 79.2522 138.14 79.3209 137.907 79.1726C136.872 78.5139 135.815 77.9291 134.745 77.3371C134.398 77.145 134.05 76.9522 133.701 76.7559C132.284 75.9598 130.866 75.1142 129.531 74.0579C129.315 73.8866 129.278 73.5721 129.449 73.3556Z" fill="black"/>
<path fill-rule="evenodd" clip-rule="evenodd" d="M137.589 77.854C137.851 77.7646 138.135 77.9039 138.224 78.1651C138.56 79.1465 138.989 80.0828 139.44 81.0318C139.505 81.1694 139.571 81.3074 139.637 81.4459C140.023 82.2553 140.417 83.0808 140.758 83.9325C140.86 84.1889 140.736 84.4799 140.479 84.5824C140.223 84.685 139.932 84.5603 139.829 84.3039C139.502 83.4848 139.124 82.6922 138.737 81.8815C138.67 81.7418 138.603 81.6016 138.536 81.4607C138.084 80.5086 137.634 79.5282 137.278 78.489C137.189 78.2277 137.328 77.9434 137.589 77.854Z" fill="black"/>
<path fill-rule="evenodd" clip-rule="evenodd" d="M137.781 87.7833C138.019 87.6434 138.325 87.723 138.465 87.9611C139.128 89.0903 139.787 90.2217 140.444 91.3533C140.582 91.5921 140.501 91.8981 140.262 92.0367C140.024 92.1754 139.718 92.0942 139.579 91.8554C138.922 90.7243 138.265 89.5946 137.603 88.4676C137.463 88.2295 137.542 87.9231 137.781 87.7833Z" fill="black"/>
<path fill-rule="evenodd" clip-rule="evenodd" d="M140.437 89.9954C140.702 90.0747 140.852 90.3535 140.773 90.618C140.296 92.2063 140.265 93.9655 140.234 95.7162C140.232 95.8082 140.23 95.9003 140.229 95.9922C140.224 96.2683 139.996 96.488 139.719 96.4829C139.443 96.4778 139.224 96.2498 139.229 95.9737C139.231 95.8697 139.233 95.765 139.234 95.6596C139.264 93.9444 139.297 92.0559 139.815 90.3306C139.894 90.0661 140.173 89.9161 140.437 89.9954Z" fill="black"/>
<path fill-rule="evenodd" clip-rule="evenodd" d="M139.522 90.9373C139.578 90.667 139.843 90.4935 140.113 90.5498C141.18 90.7721 142.259 90.868 143.365 90.9476C143.537 90.9599 143.709 90.9719 143.883 90.9839C144.816 91.0486 145.77 91.1148 146.721 91.2505C146.994 91.2896 147.184 91.5429 147.145 91.8162C147.106 92.0896 146.853 92.2796 146.579 92.2405C145.668 92.1104 144.756 92.047 143.822 91.9822C143.646 91.97 143.47 91.9577 143.293 91.945C142.182 91.8651 141.046 91.7657 139.909 91.5288C139.639 91.4725 139.465 91.2076 139.522 90.9373Z" fill="black"/>
<path fill-rule="evenodd" clip-rule="evenodd" d="M144.971 90.6161C145.205 90.469 145.514 90.5393 145.661 90.7731C146.603 92.2715 147.483 93.7841 148.355 95.3112C148.492 95.5509 148.409 95.8564 148.169 95.9934C147.929 96.1304 147.624 96.0471 147.487 95.8073C146.616 94.2834 145.745 92.7856 144.814 91.3055C144.667 91.0718 144.737 90.7631 144.971 90.6161Z" fill="black"/>
<path fill-rule="evenodd" clip-rule="evenodd" d="M103.856 108.779C104.121 108.704 104.398 108.857 104.474 109.123C104.774 110.172 105.076 111.194 105.45 112.192C105.547 112.451 105.416 112.739 105.157 112.836C104.899 112.933 104.611 112.802 104.514 112.543C104.124 111.504 103.813 110.449 103.512 109.398C103.436 109.132 103.59 108.855 103.856 108.779Z" fill="black"/>
<path fill-rule="evenodd" clip-rule="evenodd" d="M103.282 111.122C103.424 110.885 103.731 110.808 103.968 110.95C104.453 111.242 104.946 111.566 105.438 111.889C105.483 111.919 105.528 111.948 105.573 111.978C106.113 112.333 106.653 112.685 107.204 113.006C108.308 113.651 109.412 114.146 110.546 114.272C110.82 114.302 111.018 114.55 110.987 114.824C110.957 115.099 110.71 115.296 110.435 115.266C109.096 115.117 107.848 114.54 106.7 113.87C106.124 113.534 105.563 113.168 105.023 112.813C104.979 112.784 104.935 112.755 104.891 112.727C104.396 112.401 103.92 112.088 103.453 111.808C103.216 111.666 103.14 111.359 103.282 111.122Z" fill="black"/>
<path fill-rule="evenodd" clip-rule="evenodd" d="M104.701 112.38C104.928 112.538 104.985 112.849 104.828 113.076C104.346 113.771 103.834 114.459 103.328 115.138C103.062 115.496 102.797 115.852 102.539 116.205C101.784 117.24 101.071 118.279 100.479 119.384C100.348 119.627 100.045 119.719 99.802 119.588C99.5585 119.458 99.4669 119.155 99.5973 118.912C100.222 117.745 100.967 116.663 101.731 115.616C102.002 115.245 102.273 114.881 102.542 114.52C103.041 113.85 103.533 113.189 104.006 112.507C104.163 112.28 104.474 112.223 104.701 112.38Z" fill="black"/>
<path fill-rule="evenodd" clip-rule="evenodd" d="M100.795 118.108C100.979 117.902 101.295 117.885 101.501 118.068C101.98 118.496 102.521 118.978 103.097 119.386C103.678 119.796 104.255 120.103 104.797 120.211C105.068 120.265 105.244 120.529 105.19 120.799C105.135 121.07 104.872 121.246 104.601 121.192C103.858 121.043 103.146 120.645 102.52 120.202C101.891 119.757 101.31 119.239 100.837 118.816L100.835 118.814C100.629 118.63 100.611 118.314 100.795 118.108Z" fill="black"/>
<path fill-rule="evenodd" clip-rule="evenodd" d="M95.0634 104.916C95.2785 104.743 95.5932 104.777 95.7664 104.992C95.9659 105.24 96.1675 105.505 96.3752 105.778C96.7735 106.302 97.1947 106.856 97.6689 107.377C98.3862 108.165 99.1185 108.748 99.8641 108.913C100.134 108.973 100.304 109.24 100.244 109.51C100.184 109.78 99.9167 109.949 99.6471 109.89C98.5845 109.653 97.6754 108.869 96.9295 108.05C96.428 107.499 95.9519 106.874 95.5373 106.329C95.3386 106.068 95.154 105.826 94.9874 105.619C94.8143 105.404 94.8483 105.089 95.0634 104.916Z" fill="black"/>
<path fill-rule="evenodd" clip-rule="evenodd" d="M95.3731 92.658C95.6492 92.6559 95.8748 92.8781 95.8769 93.1542C95.9047 96.8107 95.9486 100.447 96.2363 104.073C96.2987 104.86 96.3853 105.582 96.5682 106.314C96.6352 106.582 96.4723 106.853 96.2044 106.92C95.9365 106.987 95.665 106.824 95.5981 106.557C95.3956 105.747 95.3036 104.961 95.2394 104.152C94.9486 100.486 94.9047 96.8167 94.8769 93.1618C94.8748 92.8857 95.097 92.6601 95.3731 92.658Z" fill="black"/>
<path fill-rule="evenodd" clip-rule="evenodd" d="M114.265 96.4733C114.54 96.4514 114.781 96.6569 114.803 96.9321C115.043 99.9569 115.096 103.009 115.148 106.039C115.17 107.301 115.192 108.56 115.228 109.811C115.235 110.087 115.018 110.317 114.742 110.325C114.466 110.333 114.236 110.115 114.228 109.839C114.192 108.565 114.17 107.292 114.148 106.022C114.095 103.006 114.043 100.004 113.806 97.0113C113.784 96.736 113.989 96.4951 114.265 96.4733Z" fill="black"/>
<path fill-rule="evenodd" clip-rule="evenodd" d="M112.775 105.428C112.941 105.207 113.255 105.164 113.475 105.33C114.64 106.209 115.774 107.107 116.902 108.001C119.276 109.881 121.624 111.741 124.176 113.358C124.41 113.506 124.479 113.814 124.331 114.048C124.184 114.281 123.875 114.35 123.641 114.203C121.045 112.558 118.625 110.642 116.229 108.744C115.11 107.858 113.997 106.976 112.873 106.128C112.652 105.962 112.609 105.648 112.775 105.428Z" fill="black"/>
<path fill-rule="evenodd" clip-rule="evenodd" d="M132.485 105.127C132.662 105.339 132.634 105.654 132.421 105.831C130.803 107.179 129.119 108.451 127.445 109.714C127.151 109.936 126.857 110.158 126.563 110.38C124.598 111.868 122.663 113.364 120.854 114.999C120.649 115.184 120.333 115.168 120.148 114.963C119.963 114.758 119.979 114.442 120.184 114.257C122.028 112.591 123.993 111.072 125.96 109.583C126.255 109.359 126.551 109.136 126.846 108.913C128.52 107.649 130.183 106.394 131.781 105.062C131.993 104.886 132.309 104.914 132.485 105.127Z" fill="black"/>
<path fill-rule="evenodd" clip-rule="evenodd" d="M132.56 92.6593C132.836 92.6787 133.043 92.9177 133.024 93.1931C132.872 95.3531 132.789 97.5215 132.706 99.6994C132.69 100.117 132.674 100.535 132.658 100.953C132.556 103.549 132.434 106.154 132.175 108.745C132.148 109.02 131.903 109.22 131.628 109.193C131.353 109.165 131.153 108.92 131.18 108.646C131.436 106.087 131.556 103.508 131.658 100.914C131.675 100.498 131.691 100.082 131.707 99.6653C131.79 97.4875 131.873 95.3004 132.026 93.1229C132.046 92.8475 132.285 92.6399 132.56 92.6593Z" fill="black"/>
<path fill-rule="evenodd" clip-rule="evenodd" d="M124.896 90.7718C125.044 91.0051 124.975 91.314 124.741 91.4617C122.754 92.7203 120.873 94.1337 118.999 95.5859C118.578 95.9122 118.157 96.2408 117.735 96.57C116.285 97.7016 114.826 98.8406 113.325 99.9201C113.101 100.081 112.788 100.03 112.627 99.8061C112.466 99.582 112.517 99.2695 112.741 99.1083C114.224 98.0413 115.663 96.9186 117.11 95.7891C117.535 95.4581 117.96 95.1264 118.387 94.7955C120.265 93.3395 122.177 91.902 124.206 90.6169C124.44 90.4691 124.749 90.5385 124.896 90.7718Z" fill="black"/>
<path fill-rule="evenodd" clip-rule="evenodd" d="M123.772 91.6139C123.923 91.3825 124.233 91.3171 124.464 91.4678C125.097 91.8795 125.738 92.2832 126.38 92.6881C128.779 94.1991 131.202 95.7259 133.296 97.7415C133.495 97.9331 133.501 98.2496 133.309 98.4485C133.117 98.6474 132.801 98.6534 132.602 98.4618C130.59 96.5244 128.279 95.0681 125.894 93.5644C125.239 93.1521 124.58 92.7361 123.919 92.3058C123.687 92.1551 123.622 91.8453 123.772 91.6139Z" fill="black"/>
<path fill-rule="evenodd" clip-rule="evenodd" d="M126.614 92.5172C126.889 92.5287 127.104 92.7617 127.092 93.0376L127.089 93.1197C126.929 96.9532 126.77 100.782 126.669 104.612C126.662 104.888 126.432 105.106 126.156 105.099C125.88 105.092 125.662 104.862 125.669 104.586C125.77 100.748 125.93 96.9127 126.09 93.0816C126.091 93.0531 126.092 93.0245 126.093 92.996C126.105 92.7201 126.338 92.5057 126.614 92.5172Z" fill="black"/>
<path fill-rule="evenodd" clip-rule="evenodd" d="M126.317 103.921C126.457 104.159 126.378 104.466 126.14 104.606C124.697 105.458 123.358 106.458 121.995 107.476C121.958 107.504 121.92 107.532 121.883 107.56C120.489 108.601 119.067 109.657 117.518 110.542C117.279 110.679 116.973 110.596 116.836 110.356C116.699 110.116 116.782 109.811 117.022 109.674C118.51 108.823 119.885 107.804 121.285 106.759C121.327 106.727 121.37 106.695 121.413 106.663C122.764 105.654 124.141 104.624 125.632 103.745C125.87 103.604 126.177 103.684 126.317 103.921Z" fill="black"/>
<path fill-rule="evenodd" clip-rule="evenodd" d="M125.139 103.71C125.24 103.453 125.53 103.326 125.787 103.428C126.868 103.853 127.985 104.209 129.12 104.571C129.277 104.62 129.434 104.67 129.592 104.721C130.882 105.133 132.187 105.565 133.434 106.12C133.687 106.232 133.8 106.527 133.688 106.78C133.576 107.032 133.281 107.146 133.028 107.033C131.836 106.503 130.577 106.086 129.287 105.673C129.131 105.624 128.975 105.574 128.818 105.524C127.686 105.163 126.535 104.797 125.421 104.358C125.164 104.257 125.038 103.966 125.139 103.71Z" fill="black"/>
<path fill-rule="evenodd" clip-rule="evenodd" d="M95.3042 101.846C95.4986 101.65 95.8151 101.648 96.0113 101.843C96.0755 101.906 96.1395 101.97 96.2034 102.033C97.2352 103.056 98.2373 104.05 99.3542 104.909C99.5731 105.077 99.614 105.391 99.4457 105.61C99.2773 105.829 98.9634 105.87 98.7445 105.702C97.5759 104.803 96.5318 103.767 95.5102 102.754C95.4426 102.687 95.375 102.62 95.3075 102.553C95.1114 102.359 95.1099 102.042 95.3042 101.846Z" fill="black"/>
<path fill-rule="evenodd" clip-rule="evenodd" d="M94.9024 96.7402C95.1083 96.5561 95.4244 96.5738 95.6084 96.7797C96.5439 97.8261 97.5435 98.789 98.5585 99.7667C99.0736 100.263 99.5926 100.763 100.109 101.279C100.304 101.475 100.304 101.791 100.109 101.986C99.9139 102.182 99.5973 102.182 99.402 101.986C98.914 101.498 98.4097 101.012 97.9014 100.523C96.8698 99.5287 95.8222 98.5192 94.8629 97.4462C94.6789 97.2403 94.6966 96.9242 94.9024 96.7402Z" fill="black"/>
<path fill-rule="evenodd" clip-rule="evenodd" d="M104.02 91.0181C104.187 90.7987 104.501 90.7569 104.72 90.9246C105.8 91.7502 106.822 92.6497 107.827 93.5333C108.025 93.7073 108.222 93.8808 108.418 94.053C108.626 94.2348 108.647 94.5507 108.466 94.7585C108.284 94.9663 107.968 94.9874 107.76 94.8055C107.559 94.6296 107.359 94.4535 107.159 94.2779C106.155 93.3945 105.163 92.5218 104.113 91.719C103.894 91.5512 103.852 91.2374 104.02 91.0181Z" fill="black"/>
<path fill-rule="evenodd" clip-rule="evenodd" d="M105.386 79.9312C105.514 79.6866 105.817 79.5921 106.061 79.7203C106.678 80.0433 107.329 80.3192 108.002 80.6045C108.103 80.6474 108.205 80.6904 108.307 80.7339C109.079 81.0626 109.872 81.4122 110.606 81.8532C110.843 81.9952 110.92 82.3024 110.778 82.5392C110.636 82.7759 110.329 82.8527 110.092 82.7107C109.422 82.3087 108.686 81.9823 107.915 81.6539C107.816 81.6117 107.716 81.5693 107.616 81.5268C106.945 81.2429 106.253 80.9496 105.597 80.6061C105.353 80.478 105.258 80.1758 105.386 79.9312Z" fill="black"/>
<path fill-rule="evenodd" clip-rule="evenodd" d="M108.869 76.8406C109.065 76.6469 109.382 76.6495 109.576 76.8464C110.104 77.3833 110.761 78.0279 111.467 78.5744C112.183 79.1274 112.903 79.5425 113.555 79.6729C113.825 79.7271 114.001 79.9905 113.947 80.2613C113.893 80.5321 113.629 80.7077 113.359 80.6535C112.478 80.4775 111.611 79.9492 110.856 79.3655C110.092 78.7754 109.396 78.0901 108.863 77.5477C108.669 77.3508 108.672 77.0343 108.869 76.8406Z" fill="black"/>
<path fill-rule="evenodd" clip-rule="evenodd" d="M127.264 75.5991C127.523 75.5018 127.811 75.6325 127.908 75.891C128.167 76.5791 128.372 77.3082 128.57 78.014C128.616 78.179 128.662 78.3427 128.708 78.5043C128.956 79.3714 129.214 80.192 129.582 80.9283C129.706 81.1753 129.606 81.4757 129.359 81.5992C129.112 81.7227 128.811 81.6225 128.688 81.3756C128.275 80.5498 127.996 79.652 127.746 78.7791C127.697 78.6067 127.649 78.4358 127.602 78.2663C127.404 77.5637 127.214 76.8868 126.972 76.2431C126.875 75.9846 127.006 75.6963 127.264 75.5991Z" fill="black"/>
<path fill-rule="evenodd" clip-rule="evenodd" d="M141.88 90.8337C142.15 90.7738 142.417 90.9437 142.477 91.2133C142.661 92.0443 142.816 92.8894 142.968 93.7241C143.04 94.1193 143.112 94.5122 143.186 94.9002C143.238 95.1714 143.06 95.4333 142.789 95.4853C142.518 95.5372 142.256 95.3595 142.204 95.0882C142.126 94.6816 142.053 94.279 141.98 93.8791C141.829 93.0552 141.681 92.2428 141.501 91.4302C141.441 91.1607 141.611 90.8936 141.88 90.8337Z" fill="black"/>
<path fill-rule="evenodd" clip-rule="evenodd" d="M120.064 108.347C120.178 108.096 120.475 107.985 120.726 108.099C122.084 108.716 123.406 109.379 124.713 110.093C124.956 110.225 125.045 110.528 124.913 110.771C124.781 111.013 124.477 111.103 124.235 110.97C122.947 110.268 121.647 109.616 120.312 109.009C120.061 108.895 119.95 108.599 120.064 108.347Z" fill="black"/>
<path fill-rule="evenodd" clip-rule="evenodd" d="M123.389 105.826C123.569 105.617 123.885 105.594 124.094 105.774C125.217 106.742 126.589 107.529 128.001 107.932C128.267 108.008 128.421 108.285 128.345 108.55C128.269 108.816 127.992 108.969 127.727 108.894C126.157 108.445 124.659 107.581 123.441 106.532C123.232 106.351 123.209 106.036 123.389 105.826Z" fill="black"/>
<path fill-rule="evenodd" clip-rule="evenodd" d="M125.821 100.118C125.877 99.8481 126.142 99.6746 126.412 99.7309C127.226 99.9004 128.021 100.136 128.794 100.364C128.814 100.37 128.834 100.376 128.854 100.382C129.653 100.618 130.427 100.845 131.211 101.001C131.481 101.055 131.657 101.319 131.603 101.59C131.549 101.86 131.285 102.036 131.015 101.982C130.18 101.815 129.364 101.575 128.571 101.341C128.556 101.336 128.541 101.332 128.526 101.328C127.742 101.096 126.981 100.871 126.208 100.71C125.938 100.654 125.764 100.389 125.821 100.118Z" fill="black"/>
<path fill-rule="evenodd" clip-rule="evenodd" d="M126.236 96.2215C126.26 95.9465 126.503 95.7431 126.778 95.7674C127.631 95.8427 128.461 96.0245 129.261 96.2183C129.444 96.2624 129.624 96.3069 129.802 96.3511C130.419 96.5036 131.018 96.6518 131.626 96.7623C131.897 96.8117 132.078 97.072 132.028 97.3436C131.979 97.6153 131.719 97.7955 131.447 97.7461C130.805 97.6295 130.166 97.4712 129.544 97.3174C129.37 97.2743 129.197 97.2316 129.026 97.1902C128.234 96.9986 127.465 96.8319 126.69 96.7635C126.415 96.7393 126.212 96.4966 126.236 96.2215Z" fill="black"/>
<path fill-rule="evenodd" clip-rule="evenodd" d="M102.283 114.388C102.416 114.146 102.719 114.056 102.962 114.189C104.321 114.932 105.508 115.96 106.635 116.937C106.853 117.126 107.069 117.313 107.283 117.496C107.494 117.675 107.519 117.99 107.34 118.201C107.161 118.411 106.845 118.436 106.635 118.257C106.407 118.063 106.182 117.868 105.959 117.675C104.83 116.698 103.739 115.754 102.482 115.066C102.24 114.934 102.151 114.63 102.283 114.388Z" fill="black"/>
<path d="M196.76 65.5202C196.76 86.2301 179.676 103.019 158.602 103.019C137.527 103.019 120.443 86.2301 120.443 65.5202C120.443 44.8104 137.527 28.0217 158.602 28.0217C179.676 28.0217 196.76 44.8104 196.76 65.5202Z" fill="white"/>
<path d="M145.106 68.5188H153.928V98.417H145.106V68.5188Z" fill="#CFB4FF"/>
<path d="M177.112 58.5666H185.933V97.7384H177.112V58.5666Z" fill="#CFB4FF"/>
<path d="M128.266 78.1115H137.087V91.4981H128.266V78.1115Z" fill="#F6F1FF"/>
<path d="M160.884 64.0707H169.705V100.017H160.884V64.0707Z" fill="#F6F1FF"/>
<path fill-rule="evenodd" clip-rule="evenodd" d="M127.74 77.2604C128.016 77.2616 128.239 77.4864 128.238 77.7626C128.219 82.0307 128.226 87.1627 128.232 91.9843C128.235 94.2812 128.238 96.5077 128.238 98.5367C128.238 98.8129 128.014 99.0367 127.738 99.0367C127.461 99.0367 127.238 98.8129 127.238 98.5367C127.238 96.5104 127.235 94.2856 127.232 91.9896C127.226 87.1665 127.219 82.0292 127.238 77.7583C127.239 77.4822 127.464 77.2593 127.74 77.2604Z" fill="black"/>
<path fill-rule="evenodd" clip-rule="evenodd" d="M138.296 77.4079C138.34 77.6804 138.155 77.9374 137.883 77.9817C134.353 78.5565 131.052 78.3943 127.496 77.985C127.222 77.9534 127.025 77.7054 127.056 77.4311C127.088 77.1567 127.336 76.9599 127.61 76.9915C131.128 77.3964 134.323 77.548 137.722 76.9947C137.995 76.9504 138.251 77.1353 138.296 77.4079Z" fill="black"/>
<path fill-rule="evenodd" clip-rule="evenodd" d="M137.767 76.9905C138.043 76.9904 138.267 77.2142 138.267 77.4903C138.268 81.2407 138.268 85.7928 138.268 89.8013C138.268 94.0128 138.268 97.6243 138.269 99.0758C138.269 99.3519 138.046 99.576 137.769 99.5762C137.493 99.5765 137.269 99.3528 137.269 99.0767C137.268 97.625 137.268 94.0125 137.268 89.8003C137.268 85.7918 137.268 81.24 137.267 77.4906C137.267 77.2145 137.49 76.9906 137.767 76.9905Z" fill="black"/>
<path fill-rule="evenodd" clip-rule="evenodd" d="M144.541 67.5655C144.817 67.5663 145.04 67.7908 145.039 68.0669C145.021 74.5193 145.027 82.2784 145.033 89.5667C145.036 93.0381 145.039 96.4027 145.039 99.4684C145.039 99.7445 144.815 99.9684 144.539 99.9684C144.263 99.9684 144.039 99.7445 144.039 99.4684C144.039 96.4045 144.036 93.041 144.033 89.5703C144.027 82.2809 144.021 74.5183 144.039 68.0641C144.04 67.7879 144.264 67.5647 144.541 67.5655Z" fill="black"/>
<path fill-rule="evenodd" clip-rule="evenodd" d="M155.09 67.5347C155.156 67.8028 154.992 68.0737 154.724 68.1397C151.162 69.0161 147.835 68.7671 144.269 68.1468C143.997 68.0994 143.815 67.8405 143.862 67.5685C143.91 67.2964 144.169 67.1142 144.441 67.1616C147.949 67.7719 151.118 67.9972 154.485 67.1687C154.753 67.1027 155.024 67.2666 155.09 67.5347Z" fill="black"/>
<path fill-rule="evenodd" clip-rule="evenodd" d="M154.568 67.1576C154.844 67.1575 155.068 67.3814 155.068 67.6575C155.069 73.3257 155.069 80.2059 155.069 86.2648C155.069 92.6306 155.069 98.0897 155.071 100.284C155.071 100.56 154.847 100.784 154.571 100.784C154.295 100.784 154.071 100.56 154.071 100.284C154.069 98.0901 154.069 92.6304 154.069 86.2641C154.069 80.2052 154.069 73.3252 154.068 67.6577C154.068 67.3815 154.292 67.1576 154.568 67.1576Z" fill="black"/>
<path fill-rule="evenodd" clip-rule="evenodd" d="M160.206 63.4941C160.482 63.4948 160.705 63.7192 160.704 63.9954C160.686 71.3743 160.693 80.2478 160.699 88.5825C160.701 92.5522 160.704 96.3996 160.704 99.9052C160.704 100.181 160.48 100.405 160.204 100.405C159.928 100.405 159.704 100.181 159.704 99.9052C159.704 96.4012 159.701 92.5547 159.699 88.5856C159.693 80.2499 159.686 71.3734 159.704 63.9929C159.705 63.7168 159.929 63.4935 160.206 63.4941Z" fill="black"/>
<path fill-rule="evenodd" clip-rule="evenodd" d="M170.75 63.3884C170.825 63.6542 170.67 63.9303 170.405 64.0051C166.83 65.011 163.492 64.7244 159.922 64.0142C159.652 63.9603 159.476 63.6971 159.53 63.4262C159.583 63.1554 159.847 62.9795 160.118 63.0334C163.622 63.7306 166.779 63.9864 170.134 63.0425C170.4 62.9677 170.676 63.1225 170.75 63.3884Z" fill="black"/>
<path fill-rule="evenodd" clip-rule="evenodd" d="M170.233 63.0278C170.51 63.0277 170.733 63.2515 170.734 63.5277C170.735 70.0095 170.735 77.8774 170.735 84.806C170.734 92.0858 170.734 98.3287 170.736 100.838C170.736 101.114 170.512 101.338 170.236 101.338C169.96 101.338 169.736 101.114 169.736 100.838C169.734 98.3291 169.734 92.0857 169.735 84.8055C169.735 77.8768 169.735 70.0091 169.734 63.5279C169.733 63.2517 169.957 63.0278 170.233 63.0278Z" fill="black"/>
<path fill-rule="evenodd" clip-rule="evenodd" d="M176.539 58.2432C176.815 58.2437 177.038 58.468 177.038 58.7442C177.02 67.9346 177.026 78.9868 177.032 89.3675C177.035 94.3114 177.038 99.103 177.038 103.469C177.038 103.745 176.814 103.969 176.538 103.969C176.262 103.969 176.038 103.745 176.038 103.469C176.038 99.1043 176.035 94.3135 176.032 89.37C176.026 78.9885 176.02 67.9339 176.038 58.7422C176.038 58.466 176.263 58.2426 176.539 58.2432Z" fill="black"/>
<path fill-rule="evenodd" clip-rule="evenodd" d="M187.075 57.992C187.166 58.2526 187.029 58.5379 186.768 58.6292C183.17 59.8902 179.81 59.529 176.233 58.6427C175.965 58.5763 175.802 58.3051 175.868 58.0371C175.935 57.7691 176.206 57.6056 176.474 57.672C179.971 58.5385 183.107 58.8529 186.437 57.6855C186.698 57.5942 186.983 57.7314 187.075 57.992Z" fill="black"/>
<path fill-rule="evenodd" clip-rule="evenodd" d="M186.567 57.662C186.843 57.662 187.067 57.8858 187.067 58.1619C187.068 66.2346 187.068 76.0336 187.068 84.6629C187.068 93.7296 187.068 101.505 187.069 104.63C187.069 104.906 186.846 105.13 186.569 105.13C186.293 105.13 186.069 104.906 186.069 104.63C186.068 101.505 186.068 93.7296 186.068 84.6626C186.068 76.0333 186.068 66.2343 186.067 58.1621C186.067 57.8859 186.291 57.662 186.567 57.662Z" fill="black"/>
<path d="M219.133 162.859C219.61 161.01 222.066 152.246 223.234 148.096L227.707 148.468L241.867 165.467L235.06 163.555C225.069 161.392 220.028 175.236 218.462 174.49C216.896 173.744 218.536 165.17 219.133 162.859Z" fill="white"/>
<path fill-rule="evenodd" clip-rule="evenodd" d="M189.08 98.9254L241.777 175.917L232.708 180.451L178.749 104.488C158.051 111.462 130.992 107.562 120.305 91.0143C78.9269 26.9451 158.528 0.244749 192.828 36.2885C219.079 63.8738 201.171 92.1241 189.08 98.9254ZM155.141 98.4169C175.114 99.6377 196.04 84.1957 196.04 65.0535C196.04 45.9112 174.464 29.0967 155.141 29.0967C135.817 29.0967 120.153 44.6145 120.153 63.7568C120.153 82.899 138.664 97.4098 155.141 98.4169Z" fill="#F6F1FF"/>
<path d="M210.205 148.269C211.326 147.76 217.968 143.813 216.755 142.855C216.615 142.603 216.111 142.742 207.341 144.243L210.205 148.269Z" fill="white"/>
<path fill-rule="evenodd" clip-rule="evenodd" d="M194.433 74.451C192.541 79.9281 188.701 85.2856 182.457 90.1784C164.152 104.522 144.487 100.281 132.114 88.9495C125.439 82.8366 120.856 74.622 119.767 66.1336C119.694 66.7696 119.626 67.4148 119.565 68.0695C119.539 68.3444 119.295 68.5464 119.02 68.5205C118.745 68.4947 118.543 68.2509 118.569 67.976C118.811 65.4012 119.144 62.9659 119.562 60.6653C119.775 56.7988 120.77 52.9563 122.677 49.3087C126.432 39.5937 132.22 33.4614 138.98 30.1879C149.314 25.1833 161.763 26.9391 172.338 32.5196C182.912 38.1001 191.717 47.5578 194.744 58.1189C196.26 63.4072 196.326 68.9729 194.433 74.451ZM125.792 44.8519C129.358 38.0965 134.104 33.6599 139.415 31.0879C149.374 26.2652 161.477 27.9185 171.871 33.404C182.266 38.8895 190.848 48.1548 193.783 58.3945C195.248 63.5066 195.307 68.8607 193.488 74.1244C191.669 79.3892 187.961 84.5956 181.841 89.3913C163.973 103.392 144.854 99.2609 132.789 88.2121C124.852 80.9424 120.014 70.7343 120.564 60.7401C121.314 56.6383 122.334 52.9843 123.579 49.7458C124.311 48.3481 125.181 46.9814 126.197 45.656C126.365 45.4368 126.323 45.123 126.104 44.955C126.011 44.8836 125.9 44.85 125.792 44.8519Z" fill="black"/>
<path fill-rule="evenodd" clip-rule="evenodd" d="M153.75 19.0965C169.286 19.0977 184.514 25.2763 194.591 36.1192C204.684 46.9787 209.585 62.4919 204.482 81.0656L204.478 81.0805L204.473 81.0951C201.228 90.5743 192.652 98.4926 182.096 103.471C171.534 108.453 158.914 110.529 147.485 108.254C133.375 105.445 120.209 95.234 113.666 81.3191C107.795 68.8315 107.266 53.3781 116.126 37.6411C112.536 42.3164 110.05 47.8496 109.258 54.1523C109.223 54.4263 108.973 54.6205 108.699 54.586C108.425 54.5515 108.231 54.3015 108.265 54.0275C109.348 45.4174 113.494 38.2221 119.255 32.646C119.37 32.4788 119.487 32.3116 119.605 32.1443C119.701 32.007 119.855 31.9331 120.011 31.9321C121.557 30.507 123.21 29.1938 124.943 27.9962C133.567 22.0378 144.217 18.9165 153.75 19.0965ZM120.022 33.2948C108.236 50.4118 108.243 67.4343 114.571 80.8936C120.982 94.5282 133.889 104.528 147.681 107.273C158.87 109.501 171.272 107.471 181.67 102.567C192.069 97.662 200.389 89.9194 203.522 80.7858C208.527 62.5522 203.713 47.4023 193.859 36.7999C183.988 26.1791 169.033 20.0965 153.745 20.0965H153.735V20.0964C144.415 19.9193 133.968 22.9763 125.511 28.8189C123.562 30.166 121.719 31.6598 120.022 33.2948Z" fill="black"/>
<path fill-rule="evenodd" clip-rule="evenodd" d="M188.914 99.399C189.141 99.2416 189.452 99.2979 189.61 99.5248L241.816 174.771C241.974 174.997 241.917 175.309 241.69 175.466C241.464 175.624 241.152 175.568 240.995 175.341L188.788 100.095C188.631 99.868 188.687 99.5564 188.914 99.399Z" fill="black"/>
<path fill-rule="evenodd" clip-rule="evenodd" d="M178.854 103.805C179.08 103.647 179.392 103.702 179.55 103.928L232.942 180.072C233.101 180.298 233.046 180.609 232.82 180.768C232.594 180.926 232.282 180.872 232.123 180.646L178.732 104.502C178.573 104.276 178.628 103.964 178.854 103.805Z" fill="black"/>
<path fill-rule="evenodd" clip-rule="evenodd" d="M242.599 174.725C242.739 174.963 242.66 175.27 242.422 175.41L233.265 180.789C233.027 180.929 232.72 180.85 232.58 180.612C232.44 180.374 232.52 180.067 232.758 179.927L241.915 174.547C242.153 174.407 242.46 174.487 242.599 174.725Z" fill="black"/>
<path d="M213.998 157.484C214.69 151.41 218.835 144.703 220.821 142.108C221.446 142.354 214.807 138.265 213.998 133.624C213.171 128.88 218.144 122.502 229.46 129.176C239.45 135.067 230.608 143.096 228.312 143.096C227.822 145.503 253.502 170.923 252.708 173.088C224.294 157.484 225.093 148.66 224.294 149.123C219.912 151.66 216.113 160.975 214.479 165.363C214.031 165.267 213.307 163.557 213.998 157.484Z" fill="white"/>
<path fill-rule="evenodd" clip-rule="evenodd" d="M221.906 141.532C222.072 141.753 222.027 142.066 221.807 142.232C220.759 143.019 219.752 144.398 218.833 146.16C217.919 147.913 217.115 150.002 216.454 152.159C215.129 156.485 214.403 161.011 214.494 163.57C214.496 163.624 214.499 163.676 214.501 163.724C214.846 163.149 215.292 162.225 215.848 161.071C216.056 160.64 216.279 160.177 216.518 159.689C217.447 157.789 218.594 155.554 219.943 153.485C221.288 151.422 222.856 149.489 224.642 148.22C224.867 148.06 225.179 148.113 225.339 148.338C225.499 148.563 225.446 148.875 225.221 149.035C223.585 150.198 222.098 152.01 220.78 154.032C219.466 156.048 218.341 158.237 217.416 160.128C217.194 160.583 216.981 161.024 216.779 161.443C216.155 162.738 215.634 163.818 215.241 164.429C215.11 164.632 214.969 164.823 214.819 164.956C214.695 165.065 214.371 165.298 214 165.098C213.846 165.014 213.755 164.885 213.702 164.784C213.648 164.68 213.612 164.565 213.586 164.454C213.535 164.232 213.507 163.946 213.495 163.605C213.398 160.892 214.156 156.246 215.498 151.866C216.171 149.669 216.997 147.521 217.947 145.698C218.891 143.886 219.982 142.351 221.206 141.432C221.427 141.267 221.74 141.311 221.906 141.532ZM214.139 164.221C214.139 164.221 214.141 164.219 214.145 164.217C214.141 164.22 214.139 164.221 214.139 164.221Z" fill="black"/>
<path fill-rule="evenodd" clip-rule="evenodd" d="M221.558 126.601C218.841 126.494 216.248 127.631 214.541 130.769C213.569 132.556 214.173 134.928 215.637 137.117C217.09 139.29 219.267 141.084 221.076 141.666C221.339 141.751 221.484 142.033 221.399 142.296C221.314 142.558 221.033 142.703 220.77 142.618C218.686 141.947 216.344 139.973 214.806 137.673C213.278 135.389 212.417 132.582 213.663 130.291C215.561 126.802 218.52 125.48 221.598 125.602C224.639 125.722 227.766 127.245 230.122 129.363C232.469 131.475 234.141 134.264 234.121 136.985C234.1 139.776 232.308 142.308 228.146 143.861C227.887 143.957 227.599 143.826 227.503 143.567C227.406 143.308 227.538 143.02 227.796 142.924C231.696 141.469 233.104 139.234 233.121 136.978C233.138 134.653 231.687 132.116 229.453 130.107C227.227 128.104 224.313 126.71 221.558 126.601Z" fill="black"/>
<path fill-rule="evenodd" clip-rule="evenodd" d="M227.308 142.633C227.513 142.447 227.829 142.463 228.015 142.667C240.176 156.07 247.141 163.983 250.611 168.327C251.479 169.414 252.134 170.284 252.598 170.965C253.054 171.633 253.355 172.159 253.478 172.547C253.535 172.728 253.588 172.983 253.494 173.226C253.372 173.539 253.091 173.653 252.864 173.67C252.663 173.685 252.451 173.635 252.264 173.574C252.066 173.509 251.845 173.415 251.607 173.3C250.665 172.845 249.283 171.978 247.707 170.968C247.417 170.783 247.12 170.591 246.816 170.396C245.457 169.523 243.977 168.571 242.485 167.668C240.659 166.564 238.832 165.543 237.212 164.839C235.565 164.122 234.227 163.778 233.339 163.911C233.066 163.952 232.811 163.764 232.77 163.491C232.729 163.218 232.918 162.963 233.191 162.922C234.385 162.743 235.955 163.202 237.61 163.922C239.292 164.653 241.164 165.701 243.002 166.813C244.507 167.723 246.002 168.684 247.361 169.558C247.664 169.752 247.959 169.942 248.246 170.126C249.84 171.147 251.166 171.977 252.042 172.4C252.177 172.465 252.298 172.519 252.402 172.56C252.281 172.317 252.079 171.979 251.772 171.529C251.328 170.877 250.691 170.029 249.829 168.951C246.383 164.636 239.44 156.748 227.274 143.339C227.089 143.135 227.104 142.819 227.308 142.633Z" fill="black"/>
<path fill-rule="evenodd" clip-rule="evenodd" d="M214.853 129.387C215.129 129.387 215.353 129.611 215.353 129.887C215.353 131.863 216.456 133.562 218.088 134.786C219.723 136.012 221.837 136.718 223.727 136.718C224.003 136.718 224.227 136.942 224.227 137.218C224.227 137.495 224.003 137.718 223.727 137.718C221.612 137.718 219.289 136.937 217.488 135.586C215.684 134.234 214.353 132.267 214.353 129.887C214.353 129.611 214.576 129.387 214.853 129.387Z" fill="black"/>
<path fill-rule="evenodd" clip-rule="evenodd" d="M219.6 160.867C219.861 160.955 220.002 161.238 219.914 161.5C219.733 162.037 219.495 163.188 219.263 164.637C219.032 166.073 218.815 167.766 218.669 169.367C218.524 170.974 218.453 172.466 218.512 173.509C218.535 173.916 218.576 174.225 218.628 174.438C218.766 174.262 218.939 174.016 219.138 173.712C219.546 173.09 220.045 172.261 220.554 171.386C221.571 169.636 222.612 167.726 223.012 166.972C223.141 166.728 223.444 166.635 223.688 166.764C223.932 166.893 224.025 167.196 223.895 167.44C223.491 168.204 222.444 170.126 221.419 171.888C220.907 172.769 220.397 173.616 219.974 174.261C219.763 174.583 219.568 174.862 219.401 175.073C219.319 175.178 219.236 175.274 219.158 175.352C219.092 175.417 218.98 175.52 218.838 175.575C218.591 175.67 218.322 175.645 218.101 175.478C217.916 175.338 217.81 175.134 217.745 174.962C217.611 174.61 217.545 174.115 217.514 173.566C217.451 172.447 217.527 170.896 217.673 169.277C217.821 167.652 218.042 165.936 218.275 164.479C218.507 163.034 218.756 161.807 218.966 161.181C219.054 160.92 219.338 160.779 219.6 160.867ZM218.42 174.672C218.42 174.672 218.421 174.672 218.422 174.671C218.421 174.672 218.42 174.672 218.42 174.672Z" fill="black"/>
<path fill-rule="evenodd" clip-rule="evenodd" d="M211.021 144.118C210.012 144.292 208.824 144.496 207.425 144.736C207.153 144.782 206.895 144.599 206.848 144.327C206.802 144.055 206.985 143.796 207.257 143.75C208.646 143.512 209.828 143.309 210.836 143.135C213.003 142.762 214.358 142.528 215.208 142.398C215.822 142.303 216.209 142.256 216.456 142.255C216.577 142.254 216.719 142.263 216.853 142.315C216.976 142.364 217.065 142.437 217.13 142.519C217.254 142.637 217.344 142.786 217.382 142.962C217.425 143.158 217.395 143.345 217.342 143.502C217.24 143.804 217.017 144.101 216.77 144.371C216.263 144.925 215.475 145.549 214.644 146.138C212.98 147.319 211.011 148.452 210.412 148.725C210.161 148.839 209.864 148.728 209.75 148.476C209.636 148.225 209.747 147.928 209.998 147.814C210.519 147.577 212.432 146.482 214.066 145.323C214.884 144.742 215.6 144.168 216.032 143.696C216.205 143.507 216.308 143.361 216.361 143.258C216.18 143.269 215.876 143.307 215.36 143.386C214.519 143.515 213.179 143.746 211.021 144.118Z" fill="black"/>
<path d="M166.846 46.3885L129.308 67.7183L129.998 62.9574L164.461 43.793L161.263 42.1862C166.307 41.2491 176.357 39.6271 176.211 40.6351C176.065 41.6431 169.013 48.2593 165.506 51.4414L166.846 46.3885Z" fill="#AE82FC"/>
<path fill-rule="evenodd" clip-rule="evenodd" d="M164.827 43.7215C164.949 43.969 164.848 44.2689 164.6 44.3914C158.359 47.479 152.55 50.7413 146.851 53.98C146.27 54.3102 145.69 54.6401 145.111 54.9696C140.013 57.8703 134.976 60.7362 129.783 63.4138C129.537 63.5403 129.236 63.4439 129.109 63.1985C128.983 62.953 129.079 62.6515 129.324 62.5249C134.499 59.8575 139.517 57.0019 144.618 54.0998C145.196 53.7706 145.776 53.4408 146.357 53.1106C152.057 49.8714 157.888 46.5965 164.157 43.4951C164.404 43.3726 164.704 43.474 164.827 43.7215Z" fill="black"/>
<path fill-rule="evenodd" clip-rule="evenodd" d="M162.829 42.398C163.464 42.6593 164.199 43.0158 165.017 43.5025C165.254 43.6438 165.332 43.9506 165.191 44.1879C165.049 44.4252 164.743 44.503 164.505 44.3618C162.389 43.1017 160.889 42.7839 160.388 42.7056C160.325 42.6958 160.278 42.6896 160.245 42.6857L160.206 42.6813L160.19 42.6795L160.178 42.678C160.175 42.6776 160.16 42.6757 160.144 42.6724C160.14 42.6716 160.109 42.6657 160.071 42.6522C160.046 42.6423 159.972 42.6034 159.926 42.5704C159.83 42.4664 159.746 42.1128 159.828 41.9005C159.904 41.8119 160.043 41.7227 160.087 41.7059C160.11 41.6991 160.148 41.6905 160.161 41.6881C160.185 41.6842 160.204 41.683 160.21 41.6827C160.224 41.6818 160.235 41.6816 160.238 41.6816L160.249 41.6815L160.284 41.6817C160.311 41.6819 160.356 41.6818 160.418 41.6802C160.666 41.6739 161.215 41.6434 162.114 41.4998C162.745 41.3988 163.354 41.3013 163.94 41.2074C167.66 40.6115 170.465 40.1622 172.442 39.9065C173.585 39.7587 174.471 39.6728 175.107 39.6632C175.423 39.6583 175.699 39.6718 175.924 39.7141C176.121 39.7512 176.403 39.8314 176.577 40.0653C176.706 40.2378 176.708 40.4277 176.693 40.5457C176.676 40.666 176.634 40.7791 176.589 40.8745C176.499 41.0676 176.351 41.2942 176.163 41.547C175.781 42.0588 175.168 42.7644 174.311 43.6775C172.593 45.5078 169.853 48.2183 165.914 51.966C165.781 52.0928 165.589 52.1362 165.414 52.079C165.239 52.0218 165.11 51.8733 165.078 51.6923C164.826 50.2938 165.322 49.0303 165.784 48.0668C165.888 47.8498 165.985 47.6578 166.074 47.4814C166.108 47.4142 166.141 47.3493 166.173 47.2861C160.845 50.7747 154.602 54.2047 148.59 57.5069L148.564 57.5213C142.116 61.0633 135.942 64.4542 131.389 67.6332C131.364 67.6507 131.337 67.6658 131.31 67.6784C130.748 67.9339 130.209 68.1069 129.75 68.0256C129.495 67.9805 129.271 67.8588 129.1 67.6573C128.938 67.4663 128.846 67.2316 128.793 66.9924C128.69 66.5248 128.703 65.898 128.77 65.1497C128.839 64.3886 128.97 63.443 129.134 62.3126C129.174 62.0393 129.427 61.8499 129.701 61.8895C129.974 61.929 130.163 62.1827 130.124 62.456C129.959 63.5908 129.832 64.5097 129.766 65.2396C129.699 65.9822 129.702 66.4727 129.77 66.7756C129.802 66.9216 129.841 66.9856 129.862 67.0099C129.874 67.0236 129.885 67.0339 129.924 67.0409C130.05 67.0632 130.326 67.0231 130.855 66.7866C135.448 63.5845 141.642 60.1822 148.042 56.6669L148.109 56.6304C154.564 53.0851 161.231 49.4209 166.749 45.7027C166.882 45.6136 167.049 45.5929 167.199 45.6471C167.349 45.7013 167.464 45.8239 167.509 45.977C167.575 46.2024 167.557 46.4281 167.514 46.6239C167.472 46.8211 167.396 47.0229 167.311 47.2182C167.214 47.4431 167.08 47.7077 166.944 47.978C166.856 48.1524 166.767 48.3292 166.685 48.4991C166.388 49.1199 166.124 49.7786 166.039 50.4657C169.539 47.1212 172.004 44.6745 173.582 42.9932C174.432 42.0867 175.014 41.4143 175.361 40.9492C175.441 40.8426 175.505 40.7511 175.555 40.6737C175.441 40.6645 175.298 40.6604 175.122 40.663C174.547 40.6718 173.707 40.7512 172.57 40.8982C170.609 41.1518 167.822 41.5983 164.099 42.1947C163.687 42.2607 163.264 42.3285 162.829 42.398ZM160.301 41.6857C160.301 41.6857 160.302 41.6858 160.304 41.6861L160.301 41.6857ZM160.249 42.6816C160.246 42.6815 160.246 42.6816 160.249 42.6816V42.6816Z" fill="black"/>
</svg>
