<svg width="144" height="198" viewBox="0 0 144 198" fill="none" xmlns="http://www.w3.org/2000/svg">
<g clip-path="url(#clip0_7699_211359)">
<path fill-rule="evenodd" clip-rule="evenodd" d="M24.4138 68.0449C24.747 67.9126 25.1215 68.0828 25.2503 68.425C25.9048 70.164 26.5712 71.904 27.2389 73.6475C31.1646 83.8979 35.1352 94.2655 36.9903 105.222C37.0515 105.583 36.8158 105.927 36.4639 105.99C36.1119 106.053 35.777 105.811 35.7158 105.449C33.8851 94.6376 29.9697 84.4115 26.0428 74.1552C25.3733 72.4067 24.7035 70.6574 24.0437 68.9041C23.9149 68.5618 24.0806 68.1772 24.4138 68.0449Z" fill="black"/>
<path fill-rule="evenodd" clip-rule="evenodd" d="M28.4883 101.012C28.83 100.955 29.1734 101.104 29.2552 101.345C29.9151 103.292 30.4142 105.233 30.9156 107.182C30.9402 107.278 30.9649 107.374 30.9896 107.47C31.0525 107.714 30.8232 107.948 30.4774 107.993C30.1317 108.037 29.8005 107.875 29.7376 107.631C29.7135 107.537 29.6895 107.444 29.6654 107.35C29.1625 105.395 28.6691 103.476 28.0176 101.554C27.9358 101.313 28.1465 101.07 28.4883 101.012Z" fill="black"/>
<path fill-rule="evenodd" clip-rule="evenodd" d="M78.3642 0.229024C78.6036 -0.0485714 79.0209 -0.0779239 79.2963 0.163463C79.3768 0.23406 79.4578 0.305006 79.5391 0.376299C84.3226 4.56882 90.473 9.95945 93.8936 15.9479C95.6408 19.0066 96.7057 22.2696 96.484 25.6458C96.3469 27.7338 95.7197 29.8332 94.4968 31.9249C95.7414 32.8535 96.7313 34.0025 97.3394 35.3884C98.5672 38.1871 98.1488 41.7405 95.5328 45.987C92.2894 51.2519 87.6579 55.136 83.019 58.8604C82.6706 59.1401 82.3222 59.4189 81.9743 59.6973C77.6633 63.147 73.4306 66.534 70.1907 70.8812C63.3582 80.0484 59.5135 93.0149 62.1675 104.179C62.2526 104.536 62.0338 104.896 61.679 104.982C61.3241 105.067 60.9675 104.847 60.8825 104.489C58.1158 92.8515 62.1248 79.4855 69.1342 70.0809C72.4812 65.5902 76.8446 62.0999 81.1295 58.6723C81.4857 58.3874 81.8414 58.1029 82.1958 57.8183C86.8418 54.0882 91.3015 50.3306 94.4103 45.2842C96.8948 41.2511 97.1177 38.1765 96.1309 35.9273C95.6425 34.8142 94.8364 33.8524 93.7812 33.0489C93.1423 33.9756 92.3824 34.9001 91.4922 35.8208C89.1101 38.2847 85.4388 40.5906 81.524 41.9473C77.619 43.3008 73.3604 43.7469 69.8497 42.3367C67.6378 41.4483 66.7616 39.5897 66.8548 37.6931C66.9456 35.8451 67.9473 33.9507 69.4604 32.7843C72.0378 30.7972 75.5944 29.5547 79.281 29.0506C82.9721 28.5458 86.858 28.772 90.1252 29.7841C91.2953 30.1466 92.3994 30.6145 93.3902 31.1941C94.4973 29.2824 95.0446 27.3988 95.1655 25.5578C95.3645 22.5274 94.4138 19.528 92.7485 16.6127C89.4399 10.8204 83.4293 5.55167 78.5925 1.3119L78.4292 1.16872C78.1538 0.927338 78.1247 0.506619 78.3642 0.229024ZM92.6769 32.3167C91.806 31.8128 90.8175 31.3922 89.737 31.0575C86.6812 30.1109 82.9918 29.8875 79.4586 30.3706C75.921 30.8544 72.6043 32.0375 70.2631 33.8425C69.0476 34.7795 68.2455 36.3162 68.1746 37.759C68.1061 39.1531 68.7104 40.4451 70.3388 41.0992C73.437 42.3437 77.3398 41.9888 81.0944 40.6875C84.8394 39.3896 88.326 37.1872 90.5459 34.891C91.3796 34.0287 92.086 33.1702 92.6769 32.3167Z" fill="black"/>
<path fill-rule="evenodd" clip-rule="evenodd" d="M128.805 0.183171C129.058 0.434335 129.066 0.849695 128.823 1.11091L116.092 14.7986C115.849 15.0598 115.447 15.068 115.195 14.8168C114.942 14.5657 114.934 14.1503 115.177 13.8891L127.908 0.201362C128.151 -0.0598476 128.553 -0.067992 128.805 0.183171Z" fill="black"/>
<path fill-rule="evenodd" clip-rule="evenodd" d="M143.919 11.3337C144.095 11.6433 143.975 12.0305 143.652 12.1986L124.982 21.9226C124.659 22.0907 124.256 21.9759 124.081 21.6663C123.905 21.3567 124.025 20.9695 124.348 20.8014L143.018 11.0774C143.341 10.9093 143.744 11.0241 143.919 11.3337Z" fill="black"/>
<path d="M16.0769 50.1666C16.0769 54.0958 15.769 60.4751 14.5603 62.3105C13.9655 63.2137 13.2749 63.7307 12.5383 63.7307C11.8017 63.7307 11.1111 63.2137 10.5163 62.3105C9.3076 60.4751 9 53.5061 9 49.5769C9 43.7142 10.3049 42.5 12.5383 42.5C14.7717 42.5 16.0769 44.3039 16.0769 50.1666Z" fill="white"/>
<path fill-rule="evenodd" clip-rule="evenodd" d="M10.9501 44.4349C10.5161 45.1777 10.1795 46.6657 10.1795 49.5769C10.1795 51.518 10.2557 54.2043 10.4794 56.6201C10.5913 57.8295 10.7382 58.9486 10.9251 59.8629C11.121 60.8216 11.3331 61.4062 11.5014 61.6618C12.0158 62.443 12.3966 62.5512 12.5383 62.5512C12.6801 62.5512 13.0608 62.443 13.5752 61.6618C13.7508 61.3952 13.961 60.834 14.1545 59.9415C14.3401 59.0848 14.4864 58.0416 14.5981 56.9081C14.8211 54.6435 14.8974 52.1074 14.8974 50.1666C14.8974 47.2726 14.5667 45.594 14.095 44.6719C13.8729 44.2376 13.64 44.0124 13.4285 43.886C13.215 43.7585 12.9357 43.6795 12.5383 43.6795C12.078 43.6795 11.7684 43.7436 11.5456 43.8485C11.3438 43.9434 11.1434 44.1039 10.9501 44.4349ZM14.5603 62.3105C15.769 60.4751 16.0769 54.0958 16.0769 50.1666C16.0769 44.3039 14.7717 42.5 12.5383 42.5C10.3049 42.5 9 43.7142 9 49.5769C9 53.5061 9.3076 60.4751 10.5163 62.3105C11.1111 63.2137 11.8017 63.7307 12.5383 63.7307C13.2749 63.7307 13.9655 63.2137 14.5603 62.3105Z" fill="black"/>
<path d="M16.0769 69.6273C16.0769 71.5815 14.4927 73.1658 12.5384 73.1658C10.5842 73.1658 9 71.5815 9 69.6273C9 67.6731 10.5842 66.0889 12.5384 66.0889C14.4927 66.0889 16.0769 67.6731 16.0769 69.6273Z" fill="white"/>
<path fill-rule="evenodd" clip-rule="evenodd" d="M12.5384 71.5576C13.8413 71.5576 14.8974 70.5014 14.8974 69.1986C14.8974 67.8958 13.8413 66.8396 12.5384 66.8396C11.2356 66.8396 10.1795 67.8958 10.1795 69.1986C10.1795 70.5014 11.2356 71.5576 12.5384 71.5576ZM12.5384 72.737C14.4927 72.737 16.0769 71.1528 16.0769 69.1986C16.0769 67.2444 14.4927 65.6602 12.5384 65.6602C10.5842 65.6602 9 67.2444 9 69.1986C9 71.1528 10.5842 72.737 12.5384 72.737Z" fill="black"/>
<path d="M28.0785 146.755L17.8555 168.564V180.832L45.1169 195.144L79.1936 190.373L88.7351 168.564V156.978L64.1999 141.984L28.0785 146.755Z" fill="white"/>
<path fill-rule="evenodd" clip-rule="evenodd" d="M15.8968 178.457C16.0791 178.128 16.4938 178.009 16.8231 178.191C21.2864 180.66 26.9002 183.859 32.5081 187.054L32.6693 187.146C38.2256 190.312 43.7653 193.469 48.174 195.911C48.5033 196.093 48.6224 196.508 48.44 196.837C48.2576 197.167 47.8428 197.286 47.5136 197.103C43.0976 194.657 37.5522 191.497 32.0001 188.333L31.8332 188.238C26.223 185.041 20.6174 181.848 16.1632 179.383C15.8339 179.201 15.7146 178.787 15.8968 178.457Z" fill="black"/>
<path fill-rule="evenodd" clip-rule="evenodd" d="M89.0125 166.578C89.3564 166.731 89.5114 167.134 89.3585 167.478C87.278 172.159 85.6932 175.75 84.3391 178.818C82.1467 183.785 80.559 187.382 78.4516 192.019C78.2958 192.361 77.8918 192.513 77.5491 192.357C77.2064 192.201 77.0549 191.797 77.2107 191.454C79.3154 186.824 80.8985 183.237 83.0881 178.276C84.4422 175.208 86.0282 171.615 88.1129 166.924C88.2658 166.58 88.6685 166.426 89.0125 166.578Z" fill="black"/>
<path fill-rule="evenodd" clip-rule="evenodd" d="M81.9096 188.89C81.9757 189.261 81.729 189.615 81.3585 189.681C66.8632 192.269 59.037 193.288 49.5593 194.521C46.5476 194.913 43.3692 195.326 39.7571 195.819C39.3841 195.87 39.0406 195.609 38.9897 195.236C38.9389 194.863 39.2 194.519 39.5729 194.468C43.1967 193.974 46.3812 193.56 49.3956 193.167C58.8656 191.935 66.6574 190.921 81.1189 188.339C81.4894 188.273 81.8434 188.519 81.9096 188.89Z" fill="black"/>
<path fill-rule="evenodd" clip-rule="evenodd" d="M16.5785 166.19C16.7607 165.86 17.1754 165.741 17.5048 165.923C21.968 168.393 27.5819 171.591 33.1897 174.786L33.3509 174.878C38.9073 178.045 44.4469 181.201 48.8557 183.643C49.1849 183.826 49.304 184.24 49.1216 184.57C48.9392 184.899 48.5245 185.018 48.1952 184.836C43.7792 182.39 38.2338 179.23 32.6817 176.066L32.5149 175.971C26.9046 172.774 21.299 169.58 16.8449 167.116C16.5155 166.934 16.3963 166.519 16.5785 166.19Z" fill="black"/>
<path fill-rule="evenodd" clip-rule="evenodd" d="M60.8783 141.654C61.0605 141.325 61.4752 141.206 61.8046 141.388C66.2678 143.858 71.8817 147.056 77.4895 150.251L77.6507 150.343C83.2071 153.509 88.7467 156.666 93.1555 159.108C93.4848 159.291 93.6038 159.705 93.4214 160.035C93.2391 160.364 92.8243 160.483 92.495 160.3C88.079 157.854 82.5336 154.694 76.9815 151.531L76.8147 151.436C71.2044 148.239 65.5988 145.045 61.1447 142.581C60.8153 142.399 60.6961 141.984 60.8783 141.654Z" fill="black"/>
<path fill-rule="evenodd" clip-rule="evenodd" d="M29.0379 144.769C29.3818 144.922 29.5367 145.325 29.3839 145.668C27.3034 150.349 25.7186 153.94 24.3645 157.008C22.1721 161.975 20.5844 165.573 18.477 170.209C18.3212 170.552 17.9171 170.703 17.5745 170.547C17.2318 170.392 17.0803 169.988 17.2361 169.645C19.3407 165.015 20.9239 161.428 23.1135 156.467C24.4676 153.399 26.0536 149.805 28.1383 145.115C28.2911 144.771 28.6939 144.616 29.0379 144.769ZM89.6945 154.31C90.0385 154.463 90.1934 154.866 90.0405 155.21C87.96 159.891 86.3751 163.482 85.021 166.55C82.8286 171.517 81.241 175.114 79.1336 179.75C78.9778 180.093 78.5738 180.245 78.2311 180.089C77.8885 179.933 77.7369 179.529 77.8927 179.186C79.9974 174.556 81.5806 170.969 83.7702 166.008C85.1243 162.94 86.7103 159.347 88.7949 154.656C88.9478 154.312 89.3505 154.157 89.6945 154.31Z" fill="black"/>
<path fill-rule="evenodd" clip-rule="evenodd" d="M67.5981 141.865C67.6642 142.235 67.4175 142.589 67.0469 142.655C52.5517 145.244 44.7255 146.262 35.2478 147.495C32.2361 147.887 29.0577 148.301 25.4456 148.793C25.0726 148.844 24.7291 148.583 24.6782 148.21C24.6273 147.837 24.8885 147.494 25.2614 147.443C28.8852 146.949 32.0697 146.534 35.0841 146.142C44.5541 144.91 52.3459 143.896 66.8073 141.313C67.1779 141.247 67.5319 141.494 67.5981 141.865ZM82.5918 176.623C82.658 176.993 82.4113 177.347 82.0407 177.414C67.5455 180.002 59.7192 181.02 50.2415 182.254C47.2299 182.646 44.0515 183.059 40.4394 183.552C40.0664 183.603 39.7228 183.342 39.672 182.969C39.6211 182.596 39.8822 182.252 40.2552 182.201C43.879 181.707 47.0635 181.293 50.0779 180.9C59.5479 179.668 67.3397 178.654 81.8011 176.072C82.1716 176.006 82.5257 176.252 82.5918 176.623Z" fill="black"/>
<path fill-rule="evenodd" clip-rule="evenodd" d="M88.0515 154.934C88.4278 154.932 88.7344 155.236 88.7362 155.612C88.7414 156.708 88.7533 158.448 88.7665 160.374C88.7903 163.842 88.8182 167.911 88.8182 169.89C88.8182 170.266 88.5131 170.571 88.1367 170.571C87.7603 170.571 87.4552 170.266 87.4552 169.89C87.4552 167.914 87.4273 163.858 87.4036 160.393C87.3903 158.465 87.3784 156.72 87.3732 155.618C87.3714 155.242 87.6751 154.935 88.0515 154.934ZM19.1344 165.876C19.5108 165.874 19.8173 166.178 19.8191 166.554C19.8243 167.649 19.8362 169.39 19.8494 171.315C19.8732 174.784 19.9011 178.853 19.9011 180.832C19.9011 181.208 19.596 181.513 19.2196 181.513C18.8432 181.513 18.5381 181.208 18.5381 180.832C18.5381 178.857 18.5102 174.801 18.4865 171.336C18.4733 169.408 18.4613 167.662 18.4561 166.56C18.4543 166.184 18.758 165.877 19.1344 165.876ZM79.1095 176.099C79.4859 176.097 79.7925 176.401 79.7942 176.777C79.7994 177.873 79.8114 179.613 79.8246 181.539C79.8484 185.008 79.8763 189.076 79.8763 191.055C79.8763 191.431 79.5711 191.736 79.1947 191.736C78.8183 191.736 78.5132 191.431 78.5132 191.055C78.5132 189.079 78.4854 185.023 78.4616 181.558C78.4484 179.63 78.4364 177.885 78.4312 176.783C78.4294 176.407 78.7331 176.1 79.1095 176.099ZM44.3512 180.869C44.7276 180.868 45.0342 181.171 45.0359 181.548C45.0411 182.643 45.0531 184.384 45.0663 186.309C45.0901 189.778 45.118 193.847 45.118 195.826C45.118 196.202 44.8128 196.507 44.4364 196.507C44.06 196.507 43.7549 196.202 43.7549 195.826C43.7549 193.85 43.7271 189.795 43.7033 186.33C43.6901 184.402 43.6781 182.656 43.6729 181.554C43.6711 181.178 43.9748 180.871 44.3512 180.869Z" fill="black"/>
<path fill-rule="evenodd" clip-rule="evenodd" d="M78.0102 177.057C78.3734 177.156 78.5878 177.53 78.489 177.893L75.0813 190.424C74.9825 190.788 74.608 191.002 74.2448 190.903C73.8816 190.804 73.6672 190.43 73.766 190.067L77.1737 177.536C77.2725 177.172 77.647 176.958 78.0102 177.057ZM73.921 177.738C74.2842 177.837 74.4986 178.212 74.3998 178.575L70.992 191.106C70.8933 191.469 70.5188 191.684 70.1555 191.585C69.7923 191.486 69.578 191.112 69.6767 190.748L73.0845 178.217C73.1832 177.854 73.5578 177.64 73.921 177.738ZM69.8318 178.418C70.195 178.517 70.4093 178.892 70.3106 179.255L66.9028 191.786C66.8041 192.149 66.4295 192.364 66.0663 192.265C65.7031 192.166 65.4888 191.792 65.5875 191.428L68.9953 178.897C69.094 178.534 69.4685 178.32 69.8318 178.418ZM65.0611 179.1C65.4243 179.199 65.6387 179.573 65.5399 179.936L62.3175 191.786C62.2187 192.149 61.8442 192.364 61.481 192.265C61.1178 192.166 60.9034 191.792 61.0022 191.428L64.2246 179.579C64.3233 179.216 64.6979 179.001 65.0611 179.1ZM60.9718 179.78C61.335 179.879 61.5494 180.253 61.4506 180.617L58.2279 192.468C58.1291 192.831 57.7546 193.045 57.3914 192.946C57.0282 192.848 56.8138 192.473 56.9126 192.11L60.1353 180.259C60.2341 179.896 60.6086 179.681 60.9718 179.78ZM56.6973 180.462C57.0605 180.56 57.2749 180.935 57.1761 181.298L53.9537 193.148C53.8549 193.511 53.4804 193.725 53.1172 193.627C52.754 193.528 52.5396 193.153 52.6384 192.79L55.8608 180.94C55.9596 180.577 56.3341 180.363 56.6973 180.462ZM52.6084 181.142C52.9717 181.24 53.186 181.615 53.0873 181.978L49.8644 193.829C49.7657 194.193 49.3912 194.407 49.028 194.308C48.6647 194.209 48.4504 193.835 48.5491 193.472L51.7719 181.621C51.8707 181.257 52.2452 181.043 52.6084 181.142ZM48.7045 181.142C49.0678 181.24 49.2821 181.615 49.1834 181.978L45.7756 194.509C45.6768 194.873 45.3023 195.087 44.9391 194.988C44.5759 194.889 44.3615 194.515 44.4603 194.152L47.868 181.621C47.9668 181.257 48.3413 181.043 48.7045 181.142Z" fill="black"/>
<path fill-rule="evenodd" clip-rule="evenodd" d="M85.4308 163.738C85.8072 163.742 86.1094 164.05 86.1059 164.426L86.0101 174.704C86.0066 175.081 85.6986 175.383 85.3222 175.379C84.9458 175.376 84.6436 175.068 84.6471 174.691L84.7429 164.413C84.7464 164.037 85.0544 163.735 85.4308 163.738ZM82.6024 170.609C82.9788 170.609 83.284 170.914 83.284 171.29V180.132C83.284 180.508 82.9788 180.813 82.6024 180.813C82.226 180.813 81.9209 180.508 81.9209 180.132V171.29C81.9209 170.914 82.226 170.609 82.6024 170.609Z" fill="black"/>
<path fill-rule="evenodd" clip-rule="evenodd" d="M22.1238 169.27C22.487 169.368 22.7013 169.743 22.6024 170.106L19.876 180.125C19.7771 180.488 19.4026 180.703 19.0394 180.604C18.6762 180.505 18.4619 180.131 18.5607 179.767L21.2872 169.748C21.386 169.385 21.7606 169.171 22.1238 169.27ZM25.5281 170.632C25.8918 170.729 26.108 171.102 26.011 171.466L23.1029 182.37C23.0059 182.734 22.6325 182.95 22.2688 182.853C21.9051 182.756 21.6889 182.383 21.7859 182.019L24.694 171.115C24.791 170.751 25.1644 170.535 25.5281 170.632ZM28.9315 172.675C29.2958 172.77 29.5144 173.142 29.4198 173.506L26.786 183.645C26.6913 184.009 26.3193 184.227 25.955 184.133C25.5906 184.038 25.372 183.666 25.4667 183.302L28.1005 173.164C28.1951 172.799 28.5672 172.581 28.9315 172.675ZM32.3397 174.72C32.7039 174.815 32.922 175.188 32.8269 175.552L30.1011 185.985C30.006 186.349 29.6336 186.567 29.2694 186.472C28.9053 186.377 28.6872 186.004 28.7823 185.64L31.5081 175.207C31.6032 174.843 31.9756 174.625 32.3397 174.72ZM36.4305 176.765C36.7944 176.861 37.0116 177.234 36.9157 177.598L34.0399 188.502C33.9439 188.866 33.5711 189.084 33.2071 188.988C32.8432 188.892 32.6259 188.519 32.7219 188.155L35.5977 177.25C35.6936 176.886 36.0665 176.669 36.4305 176.765ZM39.8432 179.061C40.2065 179.16 40.4208 179.534 40.3221 179.898L37.4246 190.552C37.3259 190.915 36.9514 191.13 36.5881 191.031C36.2249 190.932 36.0106 190.558 36.1093 190.194L39.0067 179.54C39.1055 179.177 39.48 178.962 39.8432 179.061ZM43.248 180.855C43.6117 180.952 43.8279 181.325 43.7309 181.689L40.8675 192.426C40.7705 192.789 40.397 193.005 40.0333 192.908C39.6696 192.811 39.4534 192.438 39.5504 192.074L42.4139 181.338C42.5109 180.974 42.8844 180.758 43.248 180.855Z" fill="black"/>
<path d="M28.0786 126.309L18.5371 147.437L28.7601 152.207L45.117 162.43L79.8753 156.296L84.646 146.073L88.7352 136.532L62.8369 122.22L28.0786 126.309Z" fill="#2BB1F2"/>
<path fill-rule="evenodd" clip-rule="evenodd" d="M16.5775 145.743C16.7597 145.414 17.1745 145.295 17.5038 145.477C18.341 145.94 19.2185 146.429 20.1287 146.938C20.4572 147.122 20.5744 147.538 20.3905 147.866C20.2067 148.194 19.7914 148.312 19.463 148.128C18.5543 147.619 17.6788 147.132 16.8439 146.67C16.5145 146.487 16.3953 146.073 16.5775 145.743ZM24.4298 150.143C24.6154 149.816 25.0313 149.701 25.3588 149.887C27.0567 150.849 28.8092 151.846 30.5792 152.854C30.9063 153.04 31.0205 153.456 30.8342 153.783C30.648 154.11 30.2318 154.224 29.9047 154.038C28.135 153.03 26.3835 152.034 24.6868 151.072C24.3593 150.887 24.2443 150.471 24.4298 150.143ZM34.8659 156.08C35.0522 155.753 35.4683 155.639 35.7954 155.825C37.5652 156.833 39.3166 157.83 41.0131 158.792C41.3405 158.977 41.4555 159.393 41.2698 159.721C41.0842 160.048 40.6682 160.163 40.3408 159.977C38.6432 159.015 36.8908 158.018 35.1208 157.01C34.7937 156.823 34.6796 156.407 34.8659 156.08ZM45.3085 161.999C45.4925 161.671 45.9078 161.554 46.2362 161.738C47.1447 162.247 48.0201 162.735 48.8547 163.197C49.184 163.379 49.303 163.794 49.1206 164.123C48.9383 164.453 48.5235 164.572 48.1942 164.389C47.3573 163.926 46.48 163.437 45.57 162.927C45.2416 162.743 45.1245 162.328 45.3085 161.999Z" fill="black"/>
<path fill-rule="evenodd" clip-rule="evenodd" d="M60.5375 121.208C60.7197 120.879 61.1344 120.76 61.4638 120.942C62.301 121.405 63.1785 121.894 64.0887 122.403C64.4171 122.587 64.5344 123.002 64.3505 123.331C64.1667 123.659 63.7514 123.777 63.4229 123.593C62.5143 123.084 61.6388 122.596 60.8039 122.134C60.4745 121.952 60.3552 121.538 60.5375 121.208ZM68.3898 125.608C68.5754 125.281 68.9913 125.166 69.3188 125.351C71.0167 126.314 72.7691 127.31 74.5392 128.318C74.8663 128.505 74.9804 128.921 74.7942 129.248C74.6079 129.575 74.1918 129.689 73.8647 129.503C72.0949 128.495 70.3434 127.499 68.6467 126.537C68.3192 126.352 68.2042 125.936 68.3898 125.608ZM78.8258 131.545C79.0121 131.218 79.4283 131.104 79.7554 131.29C81.5251 132.298 83.2765 133.295 84.973 134.256C85.3005 134.442 85.4154 134.858 85.2298 135.185C85.0441 135.513 84.6282 135.628 84.3008 135.442C82.6031 134.48 80.8508 133.483 79.0808 132.475C78.7537 132.288 78.6396 131.872 78.8258 131.545ZM89.2685 137.464C89.4524 137.136 89.8678 137.019 90.1961 137.203C91.1047 137.711 91.98 138.2 92.8147 138.662C93.1439 138.844 93.263 139.259 93.0806 139.588C92.8982 139.918 92.4835 140.037 92.1542 139.854C91.3173 139.391 90.44 138.901 89.5299 138.392C89.2016 138.208 89.0845 137.792 89.2685 137.464Z" fill="black"/>
<path fill-rule="evenodd" clip-rule="evenodd" d="M29.037 124.323C29.381 124.475 29.5359 124.878 29.383 125.222C28.9177 126.269 28.4822 127.256 28.0728 128.191C27.9218 128.536 27.5199 128.693 27.1751 128.542C26.8303 128.391 26.6733 127.989 26.8243 127.644C27.2347 126.707 27.6711 125.718 28.1374 124.669C28.2903 124.325 28.693 124.17 29.037 124.323ZM25.1482 133.248C25.4949 133.395 25.657 133.794 25.5103 134.141C24.6725 136.121 23.9603 137.84 23.2945 139.446C23.2002 139.673 23.1069 139.898 23.0142 140.122C22.87 140.47 22.4713 140.635 22.1236 140.49C21.7759 140.346 21.6109 139.947 21.7551 139.6C21.8477 139.376 21.941 139.151 22.0353 138.924C22.701 137.318 23.4151 135.595 24.255 133.61C24.4016 133.263 24.8016 133.101 25.1482 133.248ZM89.6936 133.864C90.0376 134.017 90.1925 134.42 90.0396 134.764C89.5601 135.843 89.1069 136.864 88.6768 137.834C88.5243 138.178 88.1216 138.333 87.7775 138.18C87.4334 138.028 87.2782 137.625 87.4307 137.281C87.861 136.311 88.3143 135.289 88.794 134.21C88.9469 133.866 89.3497 133.711 89.6936 133.864ZM85.6132 143.073C85.9575 143.225 86.1134 143.627 85.9614 143.971C85.6336 144.714 85.3203 145.424 85.0184 146.108C84.388 147.536 83.8077 148.851 83.2507 150.109C83.0984 150.454 82.6958 150.609 82.3516 150.457C82.0074 150.304 81.8519 149.902 82.0042 149.558C82.561 148.299 83.141 146.985 83.7713 145.557C84.0732 144.873 84.3866 144.163 84.7145 143.421C84.8665 143.076 85.2689 142.921 85.6132 143.073ZM20.131 145.21C20.4759 145.361 20.6335 145.762 20.4828 146.107C20.0698 147.053 19.6336 148.034 19.1576 149.081C19.0019 149.424 18.5978 149.575 18.2551 149.42C17.9125 149.264 17.761 148.86 17.9167 148.517C18.3897 147.476 18.8232 146.502 19.2337 145.562C19.3843 145.217 19.786 145.059 20.131 145.21ZM80.1752 155.342C80.5184 155.496 80.6715 155.899 80.5171 156.243C80.074 157.228 79.6171 158.238 79.1327 159.304C78.977 159.647 78.5729 159.798 78.2303 159.643C77.8876 159.487 77.7361 159.083 77.8918 158.74C78.3755 157.676 78.8317 156.667 79.274 155.684C79.4284 155.34 79.8319 155.187 80.1752 155.342Z" fill="black"/>
<path fill-rule="evenodd" clip-rule="evenodd" d="M67.5971 121.418C67.6632 121.789 67.4165 122.143 67.046 122.209C66.1559 122.368 65.291 122.521 64.4493 122.668C64.0785 122.733 63.7253 122.486 63.6603 122.115C63.5953 121.744 63.8432 121.391 64.214 121.326C65.0542 121.179 65.9177 121.026 66.8063 120.867C67.1769 120.801 67.5309 121.048 67.5971 121.418ZM59.8285 122.772C59.8907 123.143 59.6401 123.495 59.2689 123.557C57.434 123.864 55.7131 124.144 54.0777 124.402C53.7059 124.46 53.357 124.206 53.2983 123.835C53.2396 123.463 53.4935 123.114 53.8653 123.055C55.4963 122.798 57.2131 122.519 59.0438 122.212C59.4151 122.15 59.7664 122.401 59.8285 122.772ZM49.4537 124.421C49.5085 124.793 49.251 125.139 48.8786 125.194C47.0802 125.459 45.362 125.701 43.6731 125.933C43.3002 125.984 42.9565 125.723 42.9053 125.35C42.8542 124.977 43.115 124.634 43.4879 124.582C45.1731 124.351 46.8869 124.109 48.6803 123.846C49.0527 123.791 49.399 124.048 49.4537 124.421ZM39.0504 125.865C39.0993 126.238 38.8364 126.581 38.4632 126.63C37.4066 126.768 36.3402 126.907 35.2522 127.048C34.5945 127.134 33.9289 127.221 33.2527 127.309C32.8795 127.358 32.5374 127.094 32.4887 126.721C32.44 126.348 32.7031 126.006 33.0764 125.957C33.7536 125.869 34.4198 125.782 35.0777 125.697C36.165 125.555 37.2299 125.416 38.286 125.278C38.6592 125.229 39.0014 125.492 39.0504 125.865ZM28.6328 127.23C28.6828 127.603 28.4208 127.946 28.0477 127.996C27.2039 128.109 26.3375 128.225 25.4446 128.347C25.0716 128.398 24.7281 128.137 24.6772 127.764C24.6264 127.391 24.8875 127.047 25.2604 126.997C26.1546 126.875 27.022 126.758 27.8669 126.645C28.2399 126.595 28.5829 126.857 28.6328 127.23ZM82.5908 156.177C82.657 156.547 82.4103 156.901 82.0397 156.967C81.1497 157.126 80.2847 157.279 79.443 157.427C79.0723 157.492 78.7191 157.244 78.6541 156.873C78.5891 156.502 78.837 156.149 79.2077 156.084C80.048 155.937 80.9114 155.784 81.8001 155.625C82.1707 155.559 82.5247 155.806 82.5908 156.177ZM74.8223 157.53C74.8845 157.902 74.6339 158.253 74.2627 158.315C72.4278 158.622 70.7069 158.902 69.0715 159.16C68.6997 159.219 68.3507 158.965 68.2921 158.593C68.2334 158.221 68.4872 157.872 68.859 157.813C70.4901 157.556 72.2068 157.277 74.0376 156.971C74.4088 156.909 74.7602 157.159 74.8223 157.53ZM64.4475 159.179C64.5022 159.551 64.2448 159.898 63.8724 159.953C62.074 160.217 60.3557 160.46 58.6669 160.691C58.294 160.742 57.9502 160.481 57.8991 160.109C57.8479 159.736 58.1088 159.392 58.4817 159.341C60.1668 159.11 61.8806 158.868 63.6741 158.604C64.0465 158.549 64.3927 158.807 64.4475 159.179ZM54.0441 160.623C54.0931 160.997 53.8302 161.339 53.457 161.388C52.4009 161.526 51.335 161.665 50.2476 161.806C49.5893 161.892 48.9232 161.979 48.2465 162.067C47.8733 162.116 47.5312 161.853 47.4825 161.479C47.4338 161.106 47.6969 160.764 48.0701 160.716C48.7468 160.627 49.4124 160.541 50.0698 160.455C51.1577 160.314 52.2232 160.175 53.2798 160.036C53.653 159.987 53.9952 160.25 54.0441 160.623ZM43.6266 161.988C43.6765 162.361 43.4146 162.704 43.0415 162.754C42.1977 162.867 41.3313 162.984 40.4384 163.105C40.0654 163.156 39.7219 162.895 39.671 162.522C39.6201 162.149 39.8813 161.806 40.2542 161.755C41.1483 161.633 42.0158 161.516 42.8606 161.403C43.2337 161.353 43.5766 161.615 43.6266 161.988Z" fill="black"/>
<path fill-rule="evenodd" clip-rule="evenodd" d="M53.9764 131.761C54.3528 131.761 54.6579 132.066 54.6579 132.442V137.895H60.7917C61.1681 137.895 61.4733 138.2 61.4733 138.576C61.4733 138.952 61.1681 139.258 60.7917 139.258H54.6579V144.71C54.6579 145.086 54.3528 145.391 53.9764 145.391C53.6 145.391 53.2948 145.086 53.2948 144.71V139.258H47.161C46.7846 139.258 46.4795 138.952 46.4795 138.576C46.4795 138.2 46.7846 137.895 47.161 137.895H53.2948V132.442C53.2948 132.066 53.6 131.761 53.9764 131.761Z" fill="black"/>
</g>
<defs>
<clipPath id="clip0_7699_211359">
<rect width="144" height="198" fill="white"/>
</clipPath>
</defs>
</svg>
