<svg width="13" height="14" viewBox="0 0 13 14" fill="none" xmlns="http://www.w3.org/2000/svg">
  <path d="M12.4376 2.45162C12.4358 2.44612 12.4343 2.44088 12.4323 2.43539C12.4168 2.39295 12.3941 2.35451 12.3652 2.32106C12.3632 2.31881 12.3627 2.31582 12.3607 2.31357L10.4086 0.125065C10.3377 0.0454325 10.2361 0 10.1292 0H2.32655C2.21971 0 2.11811 0.0456822 2.04697 0.125065L0.0951087 2.31357C0.0931116 2.31582 0.0926126 2.31906 0.0903659 2.32156C0.0619081 2.35501 0.0391917 2.3932 0.0237147 2.43539C0.0217176 2.44088 0.0202199 2.44662 0.0184725 2.45212C0.00748875 2.48731 0 2.52401 0 2.5627V13.6256C0 13.8322 0.167502 14 0.374445 14H12.0813C12.288 14 12.4558 13.8322 12.4558 13.6256V2.5627C12.456 2.52376 12.4485 2.48706 12.4376 2.45162ZM4.52829 10.3122H7.92825V10.6694C7.92825 10.8447 7.78571 10.9872 7.61047 10.9872H4.84557C4.67058 10.9872 4.52829 10.8447 4.52829 10.6694V10.3122ZM0.74914 9.56333V6.62468H3.77965V6.98215C3.77965 7.56978 4.25794 8.04807 4.84582 8.04807H7.61072C8.19885 8.04807 8.67739 7.57003 8.67739 6.98215V6.62468H11.7074V9.56308H0.74914V9.56333ZM3.7794 2.93715V3.29437C3.7794 3.88225 4.25769 4.36054 4.84557 4.36054H7.61047C8.1986 4.36054 8.67714 3.88225 8.67714 3.29437V2.93715H11.7071V5.87579H0.74914V2.93715H3.7794ZM7.9285 2.93715V3.29437C7.9285 3.46936 7.78596 3.61165 7.61072 3.61165H4.84557C4.67058 3.61165 4.52829 3.46936 4.52829 3.29437V2.93715H7.9285ZM4.52829 6.62468H7.92825V6.98215C7.92825 7.15689 7.78571 7.29918 7.61047 7.29918H4.84557C4.67058 7.29918 4.52829 7.15714 4.52829 6.98215V6.62468ZM2.4943 0.748641H9.96173L11.2461 2.18826H1.21046L2.4943 0.748641ZM11.7071 13.2511H0.74914V10.3122H3.77965V10.6694C3.77965 11.2576 4.25794 11.7361 4.84582 11.7361H7.61072C8.19885 11.7361 8.67739 11.2576 8.67739 10.6694V10.312H11.7074V13.2511H11.7071Z" fill="#6B6D85"/>
</svg>