<svg width="1149" height="551" viewBox="0 0 1149 551" fill="none" xmlns="http://www.w3.org/2000/svg">
<g filter="url(#filter0_d)">
<rect opacity="0.25" width="90" height="90" rx="21.9772" transform="matrix(0.938191 -0.346117 0.707107 0.707107 130.613 429.41)" fill="#32C5FF"/>
<g opacity="0.9">
<g clip-path="url(#clip0)">
<path fill-rule="evenodd" clip-rule="evenodd" d="M229.404 436.39C230.896 438.949 231.614 441.625 231.674 444.202L219.236 439.976C219.528 438.415 219.161 436.755 218.228 435.155C215.675 430.568 208.605 428.129 202.584 429.759C200.404 430.349 198.712 431.363 197.517 432.613L185.981 428.697C188.386 426.843 191.277 425.412 194.806 424.456C207.989 420.887 223.483 426.232 229.404 436.39ZM183.499 431.036L195.984 435.343C195.37 437.176 195.566 439.16 196.684 441.08C199.389 445.719 206.459 448.158 212.479 446.528C214.97 445.853 216.881 444.595 218.097 442.97L231.484 447.587C230.015 453.727 224.661 458.973 216.253 461.249C203.07 464.818 187.577 459.474 181.655 449.316C177.879 442.837 178.871 436.086 183.499 431.036ZM210.614 443.328C214.662 442.233 216.435 438.882 214.616 435.762C212.798 432.643 208.135 431.035 204.087 432.131C200.039 433.227 198.266 436.577 200.084 439.697C201.903 442.816 206.566 444.424 210.614 443.328Z" fill="white"/>
</g>
</g>
</g>
<g filter="url(#filter1_d)">
<rect opacity="0.25" width="90" height="90" rx="21.9772" transform="matrix(0.938191 -0.346117 0.707107 0.707107 374.613 167.41)" fill="#F2994A"/>
<g opacity="0.9">
<path d="M444.789 163.387C457.476 163.016 469.316 169.975 471.246 178.938C473.125 187.667 464.911 195.065 452.763 195.789L442.461 186.085L442.726 186.334L443.352 186.917C443.352 186.917 444.455 185.457 447.708 184.721C453.344 183.447 454.224 184.903 459.857 183.629C463.38 182.832 466.217 180.864 466.217 180.864L454.841 170.807C454.841 170.807 452.003 172.772 448.479 173.569C442.843 174.844 441.963 173.388 436.331 174.662L435.92 174.766C433.931 175.502 433.27 176.076 432.61 176.649L431.949 177.222C431.949 177.222 431.553 177.497 431.415 177.563C430.815 177.849 430.995 179.05 431.649 179.667L449.88 198.114C450.309 198.518 450.697 198.879 451.418 198.997C451.457 199.078 451.717 198.905 451.739 198.987C451.434 199.072 452.213 198.98 452.451 198.973C467.592 198.53 477.993 189.505 475.69 178.808C473.387 168.111 459.254 159.804 444.113 160.247C428.972 160.69 418.57 169.715 420.873 180.412C422.834 189.518 434.223 197.018 446.654 198.737L442.519 194.798L442.349 194.62L442.312 194.585C434.025 192.199 426.708 186.738 425.318 180.282C423.388 171.318 432.101 163.758 444.789 163.387Z" fill="white"/>
</g>
</g>
<g filter="url(#filter2_d)">
<rect opacity="0.25" width="90" height="90" rx="21.9772" transform="matrix(0.938191 -0.346117 0.707107 0.707107 768.613 146.41)" fill="#7D4DD3"/>
<g opacity="0.9">
<path fill-rule="evenodd" clip-rule="evenodd" d="M857.026 177.047L858.047 177.236C859.08 177.421 860.065 177.447 860.902 177.312C861.735 177.192 862.404 176.921 862.843 176.524L863.276 176.119C870.171 169.722 868.592 159.869 859.143 150.332L858.901 150.088C857.67 148.829 855.588 147.8 853.452 147.397L847.961 146.392L849.233 165.388C849.17 165.638 848.906 165.817 848.504 165.88C848.086 165.941 847.585 165.881 847.107 165.716L834.843 161.525C834.225 161.313 833.757 161.068 833.531 160.586C833.191 159.859 833.761 159.442 834.37 159.351C834.96 159.264 835.186 159.341 835.765 159.539C835.782 159.545 835.799 159.551 835.817 159.557L844.539 162.412C844.916 162.535 845.254 162.454 845.241 162.243L844.272 145.717L829.68 143.046C827.563 142.646 825.716 142.92 824.835 143.766L814.694 153.152C813.805 154.005 814.036 155.308 815.298 156.563L815.541 156.807C824.998 166.334 840.846 174.067 857.026 177.047Z" fill="white"/>
</g>
</g>
<g filter="url(#filter3_d)">
<rect width="90" height="90" rx="21.9772" transform="matrix(0.938191 -0.346117 0.707107 0.707107 111 156.15)" fill="#15BB7F"/>
<g opacity="0.9">
<path fill-rule="evenodd" clip-rule="evenodd" d="M176.702 155.203C184.37 152.846 193.013 154.527 198.223 159.434C204.81 158.028 211.868 160.507 214.69 165.218C217.747 170.322 214.775 176.04 207.978 178.13L177.48 187.507C172.252 189.114 165.935 187.182 163.583 183.257C161.31 179.462 163.263 175.142 167.985 173.38L167.593 172.726C163.517 165.921 167.64 157.99 176.702 155.203ZM187.489 168.37L188.043 168.311C189.523 168.144 192.991 167.753 194.478 170.236C195.704 172.282 194.484 174.25 191.291 175.513L191.905 176.539C192.025 176.74 191.904 176.97 191.633 177.053L190.408 177.43C190.138 177.513 189.821 177.418 189.701 177.217L189.081 176.183C187.296 176.564 185.548 176.55 184.156 176.124C182.863 175.728 181.883 175.005 181.24 173.974L184.28 173.039C185.186 174.388 187.047 174.782 189.299 174.09C190.07 173.853 192.516 172.963 191.621 171.468C190.905 170.273 188.832 170.507 186.637 170.756C186.263 170.798 185.882 170.841 185.498 170.879C182.997 171.128 180.22 171.213 178.931 169.062C177.65 166.922 179.441 165.083 181.851 164.115L181.219 163.059C181.099 162.858 181.22 162.628 181.491 162.545L182.716 162.168C182.986 162.085 183.303 162.18 183.423 162.381L184.081 163.478C186.131 163.086 189.367 162.957 190.986 165.472L187.939 166.408C187.055 165.252 185.617 165 183.547 165.637C182.351 166.004 181.185 166.821 181.839 167.912C182.431 168.901 183.303 168.809 187.489 168.37Z" fill="white"/>
</g>
</g>
<g opacity="0.9" filter="url(#filter4_d)">
<rect opacity="0.25" width="90" height="90" rx="21.9772" transform="matrix(0.938191 -0.346117 0.707107 0.707107 487 272.15)" fill="#4DC952"/>
<g opacity="0.9">
<path fill-rule="evenodd" clip-rule="evenodd" d="M559.513 271.521C557.189 273.447 556.316 275.976 557.057 278.645L557.737 281.101L565.469 280.995L564.788 278.54C564.046 275.856 566.735 273.629 570.783 273.573C574.833 273.519 578.732 275.657 579.477 278.34C580.221 281.023 577.534 283.251 573.482 283.306L573.397 283.308L551.062 283.612C547.034 283.666 543.537 284.757 541.212 286.683C538.888 288.608 538.015 291.138 538.756 293.807C539.495 296.475 541.759 298.962 545.13 300.811C548.501 302.659 552.575 303.646 556.602 303.591C560.629 303.537 564.127 302.446 566.451 300.52C568.776 298.595 569.648 296.065 568.908 293.396L568.227 290.941L560.495 291.046L561.176 293.502C561.92 296.186 559.231 298.412 555.181 298.468C551.132 298.523 547.232 296.385 546.488 293.701C546.116 292.359 546.602 291.132 547.688 290.233C548.773 289.334 550.457 288.763 552.482 288.735L574.903 288.43C578.93 288.375 582.428 287.284 584.752 285.359C587.076 283.433 587.949 280.903 587.209 278.235C586.469 275.566 584.206 273.079 580.835 271.231C577.464 269.383 573.39 268.395 569.363 268.45C565.335 268.505 561.838 269.595 559.513 271.521Z" fill="white"/>
</g>
</g>
<g filter="url(#filter5_d)">
<path d="M12.0001 540.1L124.687 493.349C137.224 488.147 141.049 472.234 132.245 461.903L112.752 439.029C106.03 431.141 109.143 418.974 118.828 415.283L199.659 384.484C209.978 380.552 221.622 382.607 229.972 389.833L277.273 430.766C286.187 438.48 298.792 440.258 309.493 435.312L350 416.586" stroke="#0092E4" stroke-width="4"/>
<path d="M378.368 306L349.938 272.497C343.18 264.533 346.426 252.273 356.239 248.698L391.526 235.841C398.32 233.365 400.321 224.719 395.306 219.509L353.403 175.984C346.033 168.329 348.74 155.65 358.593 151.672L435.082 120.792C449.817 114.844 466.675 118.181 478.032 129.295L536.056 186.074C541.535 191.436 549.595 193.194 556.809 190.601L623.23 166.728C634.596 162.643 647.303 165.772 655.473 174.667L674 194.841" stroke="#0092E4" stroke-width="4"/>
<path d="M349.294 417L355.34 412.988C363.024 407.889 364.331 397.129 358.091 390.339L321.189 350.188C313.955 342.318 317.041 329.623 327.079 325.95L432.165 287.508C446.759 282.169 463.123 285.766 474.134 296.731L526.442 348.825C535.092 357.44 548.1 359.954 559.337 355.182L647.754 317.639C657.413 313.538 659.984 301.041 652.729 293.461L606.642 245.306C599.418 237.758 601.93 225.322 611.517 221.17L721.827 173.394C736.329 167.113 753.169 169.959 764.801 180.656L815.159 226.968C820.894 232.242 829.17 233.706 836.366 230.718L934.093 190.144C943.864 186.087 946.478 173.461 939.12 165.859L900.657 126.117C893.257 118.472 895.949 105.767 905.813 101.779L1118 15.9999" stroke="#0092E4" stroke-width="4"/>
</g>
<path d="M273.677 234.395L369.504 338.81C374.642 344.409 382.51 346.612 389.809 344.496L418.139 336.281C431.124 332.516 445.132 335.565 455.378 344.387L506.457 388.366C518.241 398.513 534.838 400.91 549.012 394.512L691.789 330.068C704.364 324.392 707.552 307.989 698.017 298.018L666.18 264.719C659.081 257.294 661.378 245.091 670.691 240.755L722.102 216.819C733.187 211.657 746.296 213.741 755.235 222.085L791.597 256.026C803.379 267.024 820.61 269.876 835.307 263.261L979.222 198.492C988.783 194.188 991.092 181.653 983.691 174.226L873.382 63.5148C862.173 52.2658 845.372 48.7121 830.569 54.4594L574.529 153.865C560.154 159.446 543.852 156.267 532.627 145.695L479.043 95.2261C470.489 87.1696 458.019 84.8487 447.139 89.2882L284.414 155.69C273.507 160.141 261.005 157.796 252.452 149.697L213.491 112.802C205.488 105.223 193.974 102.643 183.502 106.082L95.4857 134.988C81.184 139.684 77.0017 157.901 87.8225 168.366L163.098 241.164C168.454 246.343 176.244 248.116 183.313 245.765L242.107 226.212C253.323 222.482 265.684 225.686 273.677 234.395Z" stroke="#0092E4" stroke-width="4" stroke-dasharray="5.5 5.5"/>
<path d="M9.66564 535.626C6.15328 537.011 5.51827 540.25 8.24731 542.86C10.9763 545.469 16.036 546.461 19.5484 545.075C23.0607 543.69 23.6957 540.451 20.9667 537.841C18.2377 535.232 13.178 534.24 9.66564 535.626Z" fill="white" stroke="#0092E4" stroke-width="4"/>
<path d="M373.666 301.626C370.153 303.011 369.518 306.25 372.247 308.86C374.976 311.469 380.036 312.461 383.548 311.075C387.061 309.69 387.696 306.451 384.967 303.841C382.238 301.232 377.178 300.24 373.666 301.626Z" fill="white" stroke="#0092E4" stroke-width="4"/>
<path d="M668.666 191.626C665.153 193.011 664.518 196.25 667.247 198.86C669.976 201.469 675.036 202.461 678.548 201.075C682.061 199.69 682.696 196.451 679.967 193.841C677.238 191.232 672.178 190.24 668.666 191.626Z" fill="white" stroke="#0092E4" stroke-width="4"/>
<path d="M76.6656 145.626C73.1533 147.011 72.5183 150.25 75.2473 152.86C77.9763 155.469 83.036 156.461 86.5484 155.075C90.0607 153.69 90.6957 150.451 87.9667 147.841C85.2377 145.232 80.178 144.24 76.6656 145.626Z" fill="white" stroke="#0092E4" stroke-width="4"/>
<path d="M1129.77 8.76102C1130.31 8.67195 1130.79 9.06432 1130.52 9.37581L1122.66 18.4094C1122.44 18.654 1121.9 18.6649 1121.62 18.4305L1113.75 11.9802C1113.47 11.7458 1113.62 11.4143 1114.04 11.3444L1129.77 8.76102Z" fill="white" stroke="#0092E4" stroke-width="3"/>
<path d="M821.666 227.626C818.153 229.011 817.518 232.25 820.247 234.86C822.976 237.469 828.036 238.461 831.548 237.075C835.061 235.69 835.696 232.451 832.967 229.841C830.238 227.232 825.178 226.24 821.666 227.626Z" fill="white" stroke="#0092E4" stroke-width="4"/>
<defs>
<filter id="filter0_d" x="77.0001" y="371" width="253.093" height="179.212" filterUnits="userSpaceOnUse" color-interpolation-filters="sRGB">
<feFlood flood-opacity="0" result="BackgroundImageFix"/>
<feColorMatrix in="SourceAlpha" type="matrix" values="0 0 0 0 0 0 0 0 0 0 0 0 0 0 0 0 0 0 127 0"/>
<feOffset dy="20"/>
<feGaussianBlur stdDeviation="5"/>
<feColorMatrix type="matrix" values="0 0 0 0 0.43125 0 0 0 0 0.671768 0 0 0 0 0.766667 0 0 0 0.1 0"/>
<feBlend mode="normal" in2="BackgroundImageFix" result="effect1_dropShadow"/>
<feBlend mode="normal" in="SourceGraphic" in2="effect1_dropShadow" result="shape"/>
</filter>
<filter id="filter1_d" x="320" y="106" width="253.093" height="179.212" filterUnits="userSpaceOnUse" color-interpolation-filters="sRGB">
<feFlood flood-opacity="0" result="BackgroundImageFix"/>
<feColorMatrix in="SourceAlpha" type="matrix" values="0 0 0 0 0 0 0 0 0 0 0 0 0 0 0 0 0 0 127 0"/>
<feOffset dy="20"/>
<feGaussianBlur stdDeviation="5"/>
<feColorMatrix type="matrix" values="0 0 0 0 0.675 0 0 0 0 0.577897 0 0 0 0 0.275625 0 0 0 0.1 0"/>
<feBlend mode="normal" in2="BackgroundImageFix" result="effect1_dropShadow"/>
<feBlend mode="normal" in="SourceGraphic" in2="effect1_dropShadow" result="shape"/>
</filter>
<filter id="filter2_d" x="711" y="81.9999" width="253.093" height="179.212" filterUnits="userSpaceOnUse" color-interpolation-filters="sRGB">
<feFlood flood-opacity="0" result="BackgroundImageFix"/>
<feColorMatrix in="SourceAlpha" type="matrix" values="0 0 0 0 0 0 0 0 0 0 0 0 0 0 0 0 0 0 127 0"/>
<feOffset dy="20"/>
<feGaussianBlur stdDeviation="5"/>
<feColorMatrix type="matrix" values="0 0 0 0 0.591358 0 0 0 0 0.362934 0 0 0 0 0.770833 0 0 0 0.1 0"/>
<feBlend mode="normal" in2="BackgroundImageFix" result="effect1_dropShadow"/>
<feBlend mode="normal" in="SourceGraphic" in2="effect1_dropShadow" result="shape"/>
</filter>
<filter id="filter3_d" x="58.0001" y="96.9999" width="253.093" height="169.212" filterUnits="userSpaceOnUse" color-interpolation-filters="sRGB">
<feFlood flood-opacity="0" result="BackgroundImageFix"/>
<feColorMatrix in="SourceAlpha" type="matrix" values="0 0 0 0 0 0 0 0 0 0 0 0 0 0 0 0 0 0 127 0"/>
<feOffset dy="10"/>
<feGaussianBlur stdDeviation="5"/>
<feColorMatrix type="matrix" values="0 0 0 0 0.196078 0 0 0 0 0.772549 0 0 0 0 1 0 0 0 0.1 0"/>
<feBlend mode="normal" in2="BackgroundImageFix" result="effect1_dropShadow"/>
<feBlend mode="normal" in="SourceGraphic" in2="effect1_dropShadow" result="shape"/>
</filter>
<filter id="filter4_d" x="444" y="209.031" width="253.093" height="183.182" filterUnits="userSpaceOnUse" color-interpolation-filters="sRGB">
<feFlood flood-opacity="0" result="BackgroundImageFix"/>
<feColorMatrix in="SourceAlpha" type="matrix" values="0 0 0 0 0 0 0 0 0 0 0 0 0 0 0 0 0 0 127 0"/>
<feOffset dy="20"/>
<feGaussianBlur stdDeviation="5"/>
<feColorMatrix type="matrix" values="0 0 0 0 0.565026 0 0 0 0 0.8125 0 0 0 0 0.52474 0 0 0 0.1 0"/>
<feBlend mode="normal" in2="BackgroundImageFix" result="effect1_dropShadow"/>
<feBlend mode="normal" in="SourceGraphic" in2="effect1_dropShadow" result="shape"/>
</filter>
<filter id="filter5_d" x="7.2337" y="14.1457" width="1115.52" height="536.802" filterUnits="userSpaceOnUse" color-interpolation-filters="sRGB">
<feFlood flood-opacity="0" result="BackgroundImageFix"/>
<feColorMatrix in="SourceAlpha" type="matrix" values="0 0 0 0 0 0 0 0 0 0 0 0 0 0 0 0 0 0 127 0"/>
<feOffset dy="5"/>
<feGaussianBlur stdDeviation="2"/>
<feColorMatrix type="matrix" values="0 0 0 0 0.376471 0 0 0 0 0.380392 0 0 0 0 0.439216 0 0 0 0.1 0"/>
<feBlend mode="normal" in2="BackgroundImageFix" result="effect1_dropShadow"/>
<feBlend mode="normal" in="SourceGraphic" in2="effect1_dropShadow" result="shape"/>
</filter>
<clipPath id="clip0">
<rect width="49.467" height="42.5875" fill="white" transform="matrix(0.965254 -0.261312 0.503593 0.863941 170.932 430.919)"/>
</clipPath>
</defs>
</svg>
