<svg xmlns="http://www.w3.org/2000/svg" width="113" height="178" fill="none" viewBox="0 0 113 178">
  <path fill="url(#paint0_linear)" fill-rule="evenodd" d="M51.371 46.885l36.029-5.33c.134-.464.31-1.027.514-1.676 3.114-9.934 12.522-39.94-28.212-37.28-9.966.651-17.652 13.666-18.278 24.729-.503 8.892 5.168 15.043 9.947 19.557zM75.66 23.221a12.61 12.61 0 00.828-4.455c0-6.954-5.64-12.594-12.594-12.594a12.39 12.39 0 00-4.494.823.465.465 0 00-.15.77l3.44 3.394c.16.158.406.183.604.077a5.743 5.743 0 012.735-.684c3.176 0 5.75 2.574 5.695 5.695 0 .958-.21 1.874-.629 2.675-.105.2-.078.45.083.609l3.865 3.818c.194.192.52.128.617-.128zM57.328 8.586a.564.564 0 00-.724-.07 12.444 12.444 0 00-5.304 10.25c0 6.954 5.64 12.593 12.594 12.593 4.262 0 7.968-2.073 10.291-5.247a.564.564 0 00-.063-.732l-4.231-4.231a.514.514 0 00-.65-.053 5.646 5.646 0 01-3.157.955 5.749 5.749 0 01-5.75-5.75c0-1.163.344-2.241.955-3.157a.514.514 0 00-.052-.65l-3.91-3.908zm12.589 7.442a3.81 3.81 0 01-3.833 3.833 3.81 3.81 0 01-3.833-3.833 3.81 3.81 0 013.833-3.833 3.81 3.81 0 013.833 3.833z" clip-rule="evenodd"/>
  <path fill="#000" d="M38.274 118.246a.5.5 0 00-.632.316c-.873 2.618-3.83 3.894-7.353 3.974-3.496.079-7.272-1.04-9.434-2.893a.5.5 0 00-.65.76c2.397 2.055 6.437 3.216 10.106 3.132 3.643-.082 7.198-1.412 8.28-4.657a.5.5 0 00-.317-.632z"/>
  <path fill="#000" fill-rule="evenodd" d="M26.526 109.332c-2.806-.363-5.674-.331-8.455.337-1.057.253-2.221.622-3.216 1.232-1.002.614-1.854 1.487-2.233 2.746a6.055 6.055 0 00-.24 1.985c-.255 2.09.48 4.081 1.778 5.847 1.304 1.776 3.195 3.355 5.304 4.636.283.172.57.339.86.5-.588.36-1.178.717-1.767 1.074-4.416 2.678-8.802 5.337-12.695 8.9-3.63 3.322-5.65 7.387-5.187 11.387.462 3.976 3.356 7.714 9.16 10.485a30.552 30.552 0 00.497.903c-.576 2.466-1.064 4.932-1.401 7.292-.418 2.92-.609 5.7-.444 8.13a9.11 9.11 0 01-2.056-.228.5.5 0 10-.217.976 10.03 10.03 0 002.363.251c.052.451.117.888.198 1.309a.5.5 0 00.982-.188 16.712 16.712 0 01-.182-1.195c1.57-.209 2.93-.835 4.123-1.693 1.946-1.4 3.455-3.419 4.752-5.19 2.766-3.776 5.637-6.469 8.576-7.828 2.914-1.347 5.919-1.395 9.036.164 1.146.573 2.392 1.593 3.702 2.825a97.506 97.506 0 012.505 2.475c.484.49.97.982 1.458 1.464 1.316 1.302 2.637 2.523 3.897 3.35 1.245.817 2.543 1.324 3.772.994a.496.496 0 00.185-.094c.87-.703 1.149-1.944 1.167-3.253.018-1.337-.236-2.902-.598-4.436-.725-3.071-1.91-6.128-2.378-7.225-.294-.691-.573-1.354-.84-1.991a.512.512 0 00.08-.065c4.734-4.734 4.693-11.335 1.952-17.001-2.498-5.164-7.276-9.653-12.923-11.418.235-.194.464-.396.685-.606 1.794-1.705 3.091-3.949 3.252-6.465.178-2.796-1.485-4.856-3.584-6.322-1.345-.94-2.905-1.664-4.371-2.211-1.77-.781-3.717-1.229-5.763-1.578a32.46 32.46 0 00-1.734-.275zm-15.938 48.411c.042.041.076.09.1.142.276-1.115.568-2.226.87-3.323 2.075-7.546 4.63-14.461 5.82-17.594-3.004 1.433-5.68 3.495-7.332 6.195-2.197 3.588-2.645 8.4.542 14.58zm7.933-21.284a.498.498 0 01-.007.336c-1.076 2.814-3.803 10.074-5.992 18.032-1.094 3.98-2.052 8.125-2.601 11.971-.414 2.89-.594 5.591-.437 7.916 1.38-.191 2.57-.746 3.63-1.508 1.798-1.294 3.22-3.183 4.53-4.969 2.814-3.842 5.806-6.686 8.962-8.145 3.182-1.47 6.507-1.521 9.903.177 1.284.642 2.619 1.749 3.94 2.992.842.792 1.702 1.662 2.552 2.521v.001c.482.487.96.97 1.429 1.434 1.314 1.299 2.574 2.458 3.743 3.225 1.133.744 2.079 1.052 2.858.89.452-.428.7-1.239.717-2.42.016-1.219-.217-2.692-.571-4.193-.708-2.997-1.87-5.996-2.325-7.064-1.752-4.118-2.971-7.193-4.112-10.07-1.598-4.031-3.042-7.673-5.584-13.253a.498.498 0 01-.11-.241l-.082-.182a.499.499 0 11.909-.416l.114.25c7.257 6.715 8.933 14.538 9.147 19.846 3.503-4.257 3.372-9.898.93-14.947-2.483-5.132-7.312-9.541-12.92-11.073-.252.182-.52.342-.8.478-.204.098-.412.189-.624.274-1.092.566-2.245.97-3.387 1.177-1.744.315-3.918.098-6.158-.502a26.032 26.032 0 01-4.822-1.84l-.033.022c-.755.463-1.508.92-2.258 1.375-4.419 2.68-8.71 5.283-12.525 8.774-3.487 3.191-5.283 6.961-4.868 10.534.379 3.265 2.623 6.514 7.433 9.108-2.657-5.861-2.169-10.638.09-14.328 2.533-4.137 7.226-6.796 11.851-8.118a.5.5 0 11.275.962c-.942.269-1.88.593-2.797.974zm18.315-10.001c-.15-.036-.299-.069-.449-.101a.5.5 0 00-.532.746c-.182.107-.365.21-.551.307-2.483.978-5.64 1-8.736.346-3.347-.708-6.534-2.19-8.593-3.988-1.247-1.089-2.612-2.729-3.53-4.524-.922-1.805-1.353-3.688-.865-5.309.289-.961.942-1.657 1.798-2.181.863-.529 1.908-.869 2.926-1.113 2.64-.633 5.382-.668 8.091-.317.585.087 1.16.177 1.72.273 1.119.21 2.227.478 3.315.789.684.196 1.44.436 2.217.726 2.136.947 3.941 2.394 5.33 4.799.686 1.188.799 3.331.252 5.45-.373 1.445-1.03 2.787-1.927 3.74a11.76 11.76 0 01-.466.357zm4.322 9.888c1.904 4.293 3.162 7.467 4.527 10.908v.002c.741 1.867 1.513 3.813 2.435 6.058-.234-4.629-1.637-11.084-6.962-16.968zm-2.056-21.085c1.236 1.196 1.99 2.642 1.878 4.393a7.758 7.758 0 01-.753 2.838c.545-2.205.474-4.596-.384-6.082-.236-.408-.483-.79-.74-1.149z" clip-rule="evenodd"/>
  <path fill="#fff" d="M70.034 66.086c-10.379 0-11.586 8.154-10.728 12.016H86.77c-2.145-3.576-4.72-12.016-16.735-12.016z"/>
  <path fill="#fff" d="M79.288 110.391l-24.648-1.274-1.108-21.573h-2.81l3.918-8.724 16.251-2.861 23.872 2.861 3.45 9.965h-4.335l.885 17.565-15.475 4.041z"/>
  <g>
    <path fill="#1A1A1A" fill-rule="evenodd" d="M56.91 77.717c-.127-1.28-.365-2.531-.65-3.79-.165-.727-.348-1.468-.534-2.218-.287-1.16-.58-2.345-.82-3.541-.524-2.625-1.06-5.255-1.596-7.888-.88-4.315-1.76-8.639-2.598-12.963a.498.498 0 01-.3-.103c-.096-.073-.191-.147-.286-.222a6.37 6.37 0 01-.353.498c-.334.422-.742.8-1.251.97a.5.5 0 11-.316-.95c.242-.08.502-.285.783-.64.123-.156.243-.331.362-.522-6.56-5.71-9.703-15.337-7.72-24.551 1.323-8.78 6.95-14.81 13.573-18.143C61.814.328 69.48-.348 74.96 1.645c9.625 3.5 14.466 10.304 16.113 17.552 1.64 7.221.11 14.872-2.961 20.135a.5.5 0 01-.635.205c-.12 5.077-.378 10.13-.635 15.172v.01c-.352 6.9-.702 13.778-.702 20.696a.5.5 0 01-.5.5h-.004a5.882 5.882 0 01-.085.908.499.499 0 01-.053.155l.968.133c2.17.297 4.411.605 6.929.976-.19-.412-.394-.846-.612-1.307a.5.5 0 11.904-.428c.327.691.621 1.324.889 1.911.712.107 1.448.22 2.21.339a.5.5 0 01-.154.988c-.535-.084-1.058-.164-1.568-.242.64 1.441 1.114 2.598 1.559 3.709.141.354.28.702.418 1.053l.001.002a139.279 139.279 0 001.938 4.7l1.59.218a.5.5 0 01-.137.99c-2.105-.29-4.11-.563-6.067-.824v16.664c.639-.134 1.282-.265 1.93-.395a.5.5 0 11.196.981l-.34.068 1.879.209a.5.5 0 11-.111.994l-3.554-.396v1.163a.5.5 0 01-1 0v-1.275l-.357-.04c-1.87.402-3.692.814-5.456 1.223a.501.501 0 01-.923.23l-.008-.013c-1.172.273-2.316.545-3.428.809l.252.368a.5.5 0 01-.825.566l-.47-.686c-.998.238-1.97.47-2.912.691l4.254.474a.5.5 0 01-.11.994 5538.69 5538.69 0 01-7.076-.79l-.663.149a.5.5 0 01-.566-.286l-3.222-.362h-.006l-.002-.001-3.275-.367a.498.498 0 01-.91.184l-.203-.309-3.087-.345a.5.5 0 01-.899.129l-.16-.247-3.504-.389a.5.5 0 01-.835-.011l-.055-.088c-1.419-.156-2.8-.308-4.14-.453l-.287.066a.5.5 0 01-.753.175c-.615.142-1.215.278-1.799.408a.5.5 0 11-.217-.976l.16-.036a.5.5 0 01.319-.921l1.342.144V88.124c-.87.207-1.718.408-2.541.6-.037.106-.074.213-.11.322a.5.5 0 01-.966-.072c-.608.14-1.201.275-1.78.403a.5.5 0 11-.216-.976c.741-.165 1.512-.34 2.308-.525.583-1.67 1.068-2.94 1.536-4.168.134-.352.267-.7.4-1.053.352-.93.71-1.9 1.11-3.062-.457.104-.906.206-1.345.303a.5.5 0 01-.217-.976c.626-.14 1.273-.286 1.938-.44a33.7 33.7 0 00.035-.107.5.5 0 01-.618-.2c-1.336-2.172-2.746-4.226-4.163-6.293-.997-1.453-1.998-2.912-2.98-4.422a.5.5 0 11.838-.545c.95 1.461 1.942 2.907 2.938 4.36 1.435 2.093 2.879 4.198 4.219 6.376l.002.003c.185-.572.38-1.19.589-1.865a.5.5 0 01.955.295c-.24.78-.465 1.486-.676 2.133.686-.16 1.389-.327 2.109-.498zM42.618 21.96c1.26-8.405 6.637-14.193 13.036-17.413 6.415-3.23 13.793-3.844 18.964-1.963 9.289 3.377 13.904 9.898 15.48 16.834 1.216 5.355.62 10.965-1.061 15.568a2.552 2.552 0 00-.552-.729 4.33 4.33 0 00-1.161-.756.5.5 0 00-.153-.068c-.621-.269-1.34-.467-2.102-.614-1.413-.274-3.06-.39-4.707-.415a49.932 49.932 0 00-1.7.005c-.26-.395-.548-.838-.873-1.339a.5.5 0 10-.839.546l.54.828a69.485 69.485 0 00-5.637.456l-.096-.133a.5.5 0 00-.904.275c-4.475.7-9.532 2.321-13.728 4.86a.5.5 0 00-.84.528c-1.834 1.2-3.474 2.584-4.788 4.154-.186.222-.36.478-.526.75a467.276 467.276 0 01-.708-3.877.5.5 0 00-.985.175c.303 1.7.617 3.402.94 5.103l-.04.077c-.109.217-.218.433-.327.643-6.166-5.477-9.141-14.65-7.238-23.464a.558.558 0 00.005-.031zm28.777 12.012a39.843 39.843 0 00-8.972 2.422l.485.745.364-.135c2.972-1.105 5.928-1.7 8.896-1.955-.245-.344-.501-.702-.773-1.077zM72.835 36a35.318 35.318 0 00-4.409.584l4.21 6.663c.056.09.08.191.076.29 1.457-.427 2.854-.859 4.138-1.272-1.458-2.416-2.516-4.11-4.014-6.265zm4.99 5.946c-1.41-2.34-2.444-4.008-3.82-6.011 1.924-.081 3.863-.032 5.826.101.665 1.032 1.237 1.95 2.652 4.248-1.067.429-2.689 1.013-4.658 1.662zm-.446 1.199l.376.626a.5.5 0 10.858-.514l-.26-.432c1.962-.651 3.598-1.243 4.67-1.681a.5.5 0 00.863-.377c.054-.026.103-.051.149-.075l.117-.06c.477-.246 1.404-.724 2.33-1.339-.117 5.133-.377 10.247-.638 15.365l-.001.023c-.317 6.217-.635 12.442-.694 18.7-.568-1.433-1.598-2.779-2.902-3.945-2.326-2.082-5.604-3.676-9.028-4.287-3.425-.611-7.045-.246-10.013 1.664-2.585 1.664-4.618 4.463-5.605 8.67a41.78 41.78 0 00-.366-1.777c-.175-.772-.361-1.526-.548-2.28a77.145 77.145 0 01-.8-3.454c-.526-2.633-1.063-5.266-1.6-7.901v-.002c-.85-4.167-1.699-8.337-2.51-12.507.158.082.326.151.502.21.895.3 2.124.378 3.537.313.192-.01.388-.02.59-.035a.5.5 0 00.723-.06c1.4-.134 2.968-.376 4.623-.694a.498.498 0 00.46-.09 99.23 99.23 0 004.11-.912c.35-.085.702-.172 1.053-.26l.115.186a.5.5 0 00.891-.444 163.67 163.67 0 008.998-2.632zM56.985 78.727c.014.3.022.604.022.91a.5.5 0 101 0c0-.386-.011-.768-.033-1.145l.585-.14h.003c3.57-.85 7.485-1.783 11.618-2.657a102.256 102.256 0 01-1.569 4.43l-.398 1.048-.002.005c-.334.874-.675 1.77-1.055 2.816-4.508.935-8.793 1.955-12.653 2.874l-.161.039a.498.498 0 00-.743.177c-.753.178-1.488.353-2.204.521a155.88 155.88 0 011.313-3.535l.404-1.062c.413-1.092.833-2.236 1.32-3.68.826-.192 1.678-.393 2.553-.601zM83.41 39.885a5.47 5.47 0 00.163-.08l.112-.058c.591-.305 1.79-.924 2.821-1.692.023-1.264.037-2.53.04-3.796a9.995 9.995 0 00-1.668-.458c-1.332-.258-2.913-.372-4.532-.396a47.34 47.34 0 00-1.038-.003l.2.306.002.003.889 1.363c1.522.114 3.053.273 4.597.458a.5.5 0 01-.119.993c-1.279-.153-2.544-.288-3.799-.394.544.856 1.154 1.84 2.332 3.754zm-4.258-4.893a51.15 51.15 0 00-5.82-.025c-.255-.364-.524-.742-.81-1.14a68.859 68.859 0 015.605-.403l.543.83.482.738zm-7.35 8.809a.468.468 0 01-.013-.02l-4.345-6.877a.509.509 0 01-.047-.098 31.001 31.001 0 00-3.777 1.137l-.152.056.602.922.002.003.004.005v.001c1.428 2.184 1.686 2.578 3.764 5.953a151.58 151.58 0 003.962-1.082zm-16.897-3.138c.599-.482 1.232-.94 1.893-1.373l.163.27c-.342.166-.683.339-1.017.517-.353.188-.7.383-1.04.586zm2.74-1.906l.227.376c1.478-.67 2.933-1.222 4.07-1.64-.143-.223-.296-.457-.458-.706a32.24 32.24 0 00-3.84 1.97zm-1.23 2.203c.35-.188.709-.368 1.069-.542.52.85.993 1.617 1.423 2.312v.001l.002.001c.949 1.536 1.68 2.719 2.202 3.667-1.52.282-2.949.493-4.22.608l-2.98-4.472c.728-.56 1.586-1.087 2.503-1.575zm3.304 1.18c1.062 1.72 1.873 3.032 2.421 4.061a99.06 99.06 0 004.684-1.06c-1.92-3.12-2.199-3.544-3.584-5.663l-.001-.002-.003-.003-.732-1.121c-1.136.416-2.61.968-4.108 1.641.477.779.918 1.492 1.322 2.146v.002zm-6.577 1.044l2.601 3.903c-1.366.061-2.436-.024-3.147-.263-.354-.119-.584-.264-.722-.416a.747.747 0 01-.198-.533c0-.86.473-1.719 1.343-2.572.04-.04.081-.08.123-.118zm34.38-6.01c.01-.798.018-1.598.022-2.398.093.068.177.137.254.21.244.23.36.441.408.624.047.183.037.376-.037.592-.105.306-.33.635-.648.972zm-23.776 30.48c-2.642 1.7-4.738 4.764-5.497 9.744l.045-.01.002-.001c3.673-.875 7.73-1.841 11.998-2.738a.5.5 0 01.01-.085c-.191-.41-.389-.829-.593-1.26a.5.5 0 01.904-.428l.277.586.063-.205a.5.5 0 11.956.295l-.254.814.935-.189a.5.5 0 01.399.89c4.466.78 8.01 1.29 11.58 1.783a.499.499 0 01-.006-.197c.38-2.195-.794-4.511-2.986-6.472-2.18-1.951-5.285-3.468-8.537-4.048-3.25-.58-6.596-.216-9.296 1.52zm23.342 39.819c.93-.216 1.876-.433 2.837-.649l-3.502-.393c.233.363.454.709.665 1.042zm-1.39-2.129a.5.5 0 00-.58-.065l-1.891-.213 4.215-16.64a.5.5 0 00.015-.116c1.602.196 3.192.398 4.8.608-1.106 4.316-2.021 8.255-2.906 12.065v.002l-.001.002c-.363 1.564-.722 3.107-1.086 4.644l-1.753-.196-.003-.001h-.004l-.015-.002-.79-.088zm-.56.943c.33.508.634.98.918 1.427-1.187.278-2.345.553-3.469.82a900.951 900.951 0 01-1.873-2.743l1.261.142-.024.097a.5.5 0 00.97.245l.058-.23 2.16.242zm-13.44 3.226l-3.66-.411-2.036-3.1c.975-.22 1.965-.44 2.968-.657l2.729 4.168zm-4.952-.556l-1.784-2.718c-.773.177-1.535.354-2.285.53l1.216 1.87 2.853.318zm-1.886-3.783a.498.498 0 01.467-.044c1.023-.233 2.063-.465 3.119-.694l-1.813-.195a.5.5 0 01.107-.995c1.149.123 2.335.252 3.554.385V85.144a.5.5 0 01-.132-.515l.132-.412v-5.77c-.26.728-.506 1.389-.748 2.031l-.401 1.054-.002.005v.002c-.27.706-.543 1.422-.837 2.219l.494-.1a.5.5 0 11.196.981l-1.09.22c-.183.51-.375 1.058-.58 1.657a.5.5 0 11-.945-.324c.131-.384.257-.748.38-1.095-4.272.897-8.316 1.86-11.994 2.736h-.001l-.222.053v19.721l.172.019c1.141-.267 2.332-.551 3.567-.845l.006-.001.007-.002 2.766-.657-.096-.148a.499.499 0 11.838-.545l.293.45c.872-.205 1.76-.412 2.664-.619a.479.479 0 01.1-.085zm5.434.367l-.275-.42.275-.059v.479zm2.695 4.116l-1.937-2.958a.498.498 0 00.242-.428v-1.418l.34-.07 2.526.279 3.105 4.729-1.015.232-3.261-.366zm1.727-5.571l.022.034c.92.101 1.855.205 2.803.311l4.252-16.783a517.602 517.602 0 00-4.262-.456l-4.392 16.645c.016.035.03.071.038.11l.747.082a.5.5 0 01.793.057zm3.587 5.463l-2.853-4.344 2.129.236a.501.501 0 00.546.061l1.352.151c.01.076.037.151.083.219.67.988 1.331 1.955 1.985 2.91-1.12.267-2.202.524-3.242.767zm-16.661-2.537l.965 1.483-3.104-.344-.352-.548 2.49-.591zm-3.417.998l-.104-.162-.432.103.536.059zm13.069-23.637v8.42l2.728-9.597a.499.499 0 01.091-.176c-.451-1.035-.905-2.07-1.382-3.143l-1.437 4.496zm.87-5.763a.498.498 0 00-.15.226l-.72 2.252v-4.39c.302.658.59 1.294.87 1.912zm2.553 5.8l-.414 1.456.014.001 1.078.105-.678-1.562zm-.682 2.397l-2.194 7.716a.5.5 0 01-.547.359v8.858l.293.032.565-.115 4.13-15.65-.43-.984c-.536-.054-1.08-.107-1.631-.16a.498.498 0 01-.186-.056zm8.76.954c1.245.14 2.465.283 3.675.43l-4.247 16.763c-1.244-.139-2.47-.277-3.679-.411l4.252-16.782zm15.026.892c-5.227-.713-9.95-1.326-15.084-1.905a.496.496 0 00-.507-.057c-1.829-.205-3.714-.406-5.695-.605l-.618-1.422-.018-.042c-1.228-2.831-2.377-5.478-3.865-8.708 5.661 1.004 9.856 1.579 14.33 2.192 2.347.323 4.771.655 7.525 1.065a102.21 102.21 0 011.804 4.257l.416 1.047v.002c.492 1.237 1 2.519 1.712 4.176zm-7.493 12.545c.892-3.84 1.81-7.798 2.928-12.15l.109.015v9.187a.5.5 0 00-.038.097l-2.102 7.616-1.96-.219c.356-1.506.706-3.012 1.06-4.537l.002-.005v-.004zm1.903 4.878l.727.081.407-.087v-4.102l-1.134 4.108z" clip-rule="evenodd"/>
    <path fill="#1A1A1A" d="M42.124 69.247a.5.5 0 01.699.11l.65.89c1.834 2.509 3.449 4.718 5.063 7.407a.5.5 0 11-.858.515c-1.589-2.648-3.177-4.82-5.013-7.333l-.017-.023-.633-.868a.5.5 0 01.11-.698zM43.098 79.784a.5.5 0 01.693.139l3.576 5.363a.5.5 0 01-.832.554l-3.576-5.363a.5.5 0 01.139-.693zM100.229 66.767a.499.499 0 01.691.146 90.186 90.186 0 012.724 4.46l.351.609a140.583 140.583 0 002.295 3.88.5.5 0 11-.852.524 144.015 144.015 0 01-2.311-3.907 337.16 337.16 0 00-.349-.605 89.576 89.576 0 00-2.696-4.416.5.5 0 01.147-.691zM101.516 77.492a.5.5 0 01.692.147 90.962 90.962 0 012.724 4.46l.35.608c.652 1.133 1.336 2.322 2.295 3.88a.5.5 0 11-.851.525c-.968-1.573-1.659-2.774-2.311-3.907l-.107-.185-.242-.42a89.735 89.735 0 00-2.697-4.416.5.5 0 01.147-.692z"/>
  </g>
  <defs>
    <linearGradient id="paint0_linear" x1="25.338" x2="52.629" y1="16.791" y2="64.028" gradientUnits="userSpaceOnUse">
      <stop stop-color="#73DFE7"/>
      <stop offset="1" stop-color="#0095F7"/>
    </linearGradient>
  </defs>
</svg>