<svg viewBox="0 0 241 177" fill="none" xmlns="http://www.w3.org/2000/svg">
<path fill-rule="evenodd" clip-rule="evenodd" d="M122 0C163.59 0 197.674 32.1388 200.771 72.936C194.501 74.1596 188.646 76.5434 183.439 79.8548C183.443 79.5706 183.445 79.2859 183.445 79.0008C183.445 45.0659 155.935 17.5563 122 17.5563C88.3694 17.5563 61.0493 44.5749 60.5622 78.0897C55.2932 75.2288 49.458 73.2783 43.2678 72.4492C46.5977 31.8834 80.5755 0 122 0ZM60.25 106.458C60.25 117.504 51.2125 126.541 40.1667 126.541C29.1208 126.541 20.0833 117.504 20.0833 106.458C20.0833 95.4121 29.1208 86.3746 40.1667 86.3746C51.2125 86.3746 60.25 95.4121 60.25 106.458ZM40.1667 136.583C44.0829 136.583 47.7983 136.985 51.5138 137.587C47.4971 144.415 45.1875 152.248 45.1875 160.583V176.75H0V160.984C0 152.85 4.82 145.62 12.2508 142.407C20.7863 138.692 30.2254 136.583 40.1667 136.583ZM220.917 106.458C220.917 117.504 211.879 126.541 200.833 126.541C189.788 126.541 180.75 117.504 180.75 106.458C180.75 95.4121 189.788 86.3746 200.833 86.3746C211.879 86.3746 220.917 95.4121 220.917 106.458ZM228.749 142.407C236.18 145.62 241 152.85 241 160.984V176.75H195.812V160.583C195.812 152.248 193.503 144.415 189.486 137.587C193.202 136.985 196.917 136.583 200.833 136.583C210.775 136.583 220.214 138.692 228.749 142.407ZM120.5 124.031C136.868 124.031 151.328 127.847 163.077 133.068C173.922 137.888 180.75 148.733 180.75 160.583V176.75H60.25V160.583C60.25 148.733 67.0783 137.888 77.9233 133.068C89.6721 127.947 104.132 124.031 120.5 124.031ZM81.1223 156.445C81.094 156.518 81.0654 156.592 81.0362 156.666H159.964C159.921 156.567 159.879 156.47 159.838 156.373C158.912 154.217 158.227 152.621 150.826 149.738C141.085 145.922 130.843 144.114 120.5 144.114C110.157 144.114 99.9146 145.922 90.1742 149.738C82.5941 152.653 81.9736 154.252 81.1223 156.445ZM130.542 86.3746C130.542 80.8517 126.023 76.3329 120.5 76.3329C114.977 76.3329 110.458 80.8517 110.458 86.3746C110.458 91.8975 114.977 96.4163 120.5 96.4163C126.023 96.4163 130.542 91.8975 130.542 86.3746ZM90.375 86.3746C90.375 69.7054 103.831 56.2496 120.5 56.2496C137.169 56.2496 150.625 69.7054 150.625 86.3746C150.625 103.044 137.169 116.5 120.5 116.5C103.831 116.5 90.375 103.044 90.375 86.3746Z" fill="#D9DAE6"/>
</svg>
