<svg fill="none" height="709" viewBox="0 0 595 709" width="595" xmlns="http://www.w3.org/2000/svg" xmlns:xlink="http://www.w3.org/1999/xlink"><filter id="a" color-interpolation-filters="sRGB" filterUnits="userSpaceOnUse" height="69.6007" width="182.166" x="222.481" y="381.684"><feFlood flood-opacity="0" result="BackgroundImageFix"/><feColorMatrix in="SourceAlpha" type="matrix" values="0 0 0 0 0 0 0 0 0 0 0 0 0 0 0 0 0 0 127 0"/><feOffset dy="4"/><feGaussianBlur stdDeviation="2"/><feColorMatrix type="matrix" values="0 0 0 0 0 0 0 0 0 0 0 0 0 0 0 0 0 0 0.25 0"/><feBlend in2="BackgroundImageFix" mode="normal" result="effect1_dropShadow"/><feBlend in="SourceGraphic" in2="effect1_dropShadow" mode="normal" result="shape"/></filter><filter id="b" color-interpolation-filters="sRGB" filterUnits="userSpaceOnUse" height="90.5343" width="193.086" x="216.242" y="366.789"><feFlood flood-opacity="0" result="BackgroundImageFix"/><feColorMatrix in="SourceAlpha" type="matrix" values="0 0 0 0 0 0 0 0 0 0 0 0 0 0 0 0 0 0 127 0"/><feOffset dy="4"/><feGaussianBlur stdDeviation="2"/><feColorMatrix type="matrix" values="0 0 0 0 0 0 0 0 0 0 0 0 0 0 0 0 0 0 0.25 0"/><feBlend in2="BackgroundImageFix" mode="normal" result="effect1_dropShadow"/><feBlend in="SourceGraphic" in2="effect1_dropShadow" mode="normal" result="shape"/></filter><filter id="c" color-interpolation-filters="sRGB" filterUnits="userSpaceOnUse" height="117.891" width="95.1679" x="266.878" y="291.527"><feFlood flood-opacity="0" result="BackgroundImageFix"/><feColorMatrix in="SourceAlpha" type="matrix" values="0 0 0 0 0 0 0 0 0 0 0 0 0 0 0 0 0 0 127 0"/><feOffset dy="4"/><feGaussianBlur stdDeviation="2"/><feColorMatrix type="matrix" values="0 0 0 0 0 0 0 0 0 0 0 0 0 0 0 0 0 0 0.25 0"/><feBlend in2="BackgroundImageFix" mode="normal" result="effect1_dropShadow"/><feBlend in="SourceGraphic" in2="effect1_dropShadow" mode="normal" result="shape"/></filter><filter id="d" color-interpolation-filters="sRGB" filterUnits="userSpaceOnUse" height="91.7219" width="64.2596" x="271.906" y="307.871"><feFlood flood-opacity="0" result="BackgroundImageFix"/><feColorMatrix in="SourceAlpha" type="matrix" values="0 0 0 0 0 0 0 0 0 0 0 0 0 0 0 0 0 0 127 0"/><feOffset dy="4"/><feGaussianBlur stdDeviation="2"/><feColorMatrix type="matrix" values="0 0 0 0 0 0 0 0 0 0 0 0 0 0 0 0 0 0 0.25 0"/><feBlend in2="BackgroundImageFix" mode="normal" result="effect1_dropShadow"/><feBlend in="SourceGraphic" in2="effect1_dropShadow" mode="normal" result="shape"/></filter><linearGradient id="e" gradientUnits="userSpaceOnUse" x1="379.228" x2="-182.619" y1="953.399" y2="354.22"><stop offset=".153466" stop-color="#62f91f" stop-opacity=".78"/><stop offset=".667402" stop-color="#62f91f" stop-opacity="0"/></linearGradient><linearGradient id="f" gradientUnits="userSpaceOnUse" x1="93.6401" x2="220.395" y1="145.16" y2="702.208"><stop offset="0" stop-color="#ffc100" stop-opacity="0"/><stop offset=".319769" stop-color="#ffc100" stop-opacity="0"/><stop offset=".648566" stop-color="#ffc100" stop-opacity=".97"/><stop offset=".888337" stop-color="#fff" stop-opacity="0"/></linearGradient><linearGradient id="g" gradientUnits="userSpaceOnUse" x1="1411.39" x2="827.523" y1="278.821" y2="-218.939"><stop offset="0" stop-color="#8a36ff" stop-opacity="0"/><stop offset=".259833" stop-color="#8a36ff"/><stop offset=".808846" stop-color="#fff" stop-opacity="0"/></linearGradient><linearGradient id="h" gradientUnits="userSpaceOnUse" x1="311.567" x2="326.522" y1="208.621" y2="684.641"><stop offset=".0385655" stop-color="#f3af2c" stop-opacity="0"/><stop offset=".328038" stop-color="#f3af2c" stop-opacity=".44"/><stop offset=".54534" stop-color="#f3af2c" stop-opacity="0"/></linearGradient><linearGradient id="i" gradientUnits="userSpaceOnUse" x1="325.215" x2="374.626" y1="176" y2="252.041"><stop offset="0" stop-color="#ffc100"/><stop offset="1" stop-color="#e66b35"/></linearGradient><clipPath id="j"><path d="m0 0h595v709h-595z"/></clipPath><g clip-path="url(#j)"><path d="m-169.843 795.14 16.607-45.116c15.206 1.06 38.118 7.428 63.6591 16.064 19.0403 6.438 38.6853 13.824 56.6297 20.57l.0081.003.0058.002c8.1325 3.057 15.9154 5.983 23.13423 8.63 2.07583.761 4.16641 1.534 6.27282 2.313 44.04405 16.279 95.00925 35.117 162.68825 4.07 66.722-30.608 176.95-82.578 216.577-108.996 2.612-1.741 5.625-4.404 7.043-8.393 1.616-4.548.496-8.832-1.538-12.008-1.831-2.858-4.478-5.028-6.94-6.675-2.573-1.722-5.62-3.316-8.926-4.809-12.998-5.871-33.772-11.835-57.667-17.954-14.993-3.84-31.377-7.783-48.301-11.856-37.921-9.125-78.552-18.903-112.31-29.633-11.89-3.779-21.423-13.3-23.851-22.902-1.149-4.542-.78-9.228 1.746-13.909 2.593-4.806 7.829-10.264 17.53-15.369 15.998-8.421 40.989-19.768 70.216-32.516l58.4 16.505c-18.341 8.099-35.072 15.549-48.274 21.45-9.008 4.027-16.375 7.333-21.49 9.633-2.558 1.15-4.553 2.048-5.909 2.659l-2.075.936c-3.613 1.632-5.8 5.368-5.456 9.317s3.146 7.25 6.986 8.231l.005.001 1.176.302c.781.2 1.943.499 3.46.889 3.034.782 7.49 1.933 13.174 3.409 11.368 2.953 27.647 7.208 47.281 12.415 39.272 10.415 91.948 24.633 145.595 39.852 11.032 3.13 20.545 7.579 27.716 12.777 7.228 5.238 11.562 10.845 13.308 16.166 1.635 4.984 1.331 10.667-2.629 17.327-4.129 6.944-12.325 15.022-26.621 23.528-29.946 17.816-85.047 48.951-139.207 77.525-54.539 28.774-106.97 54.322-132.153 61.622-26.002 7.536-46.8599 13.011-78.7193 9.685-32.3358-3.377-76.4695-15.895-148.2307-45.876-30.699-12.826-52.503-19.45-71.99-20.446-5.874-.301-11.46-.086-16.931.577z" fill="url(#e)"/><path d="m801.632 522.902c-43.565-8.062-92.513-19.109-146.019-31.183l-.052-.012-.335-.076c-8.078-1.823-16.26-3.669-24.542-5.532-11.403-2.564-23.067-5.42-34.808-8.293l-.005-.001-.004-.002c-22.969-5.622-46.229-11.315-68.382-15.043-33.675-5.667-66.927-7.251-96.238 3.07-27.453 9.666-87.096 35.261-139.491 58.255-26.283 11.535-50.871 22.472-68.886 30.525-9.009 4.026-16.375 7.333-21.491 9.633-2.557 1.15-4.552 2.048-5.908 2.659l-2.076.936c-3.612 1.632-5.8 5.368-5.456 9.317.345 3.949 3.146 7.25 6.987 8.231l.004.001 1.176.302c.782.2 1.943.499 3.46.889 3.034.782 7.49 1.932 13.174 3.409 11.369 2.953 27.647 7.208 47.281 12.415 24.976 6.624 55.372 14.785 87.991 23.764l-6.249 26.09c-10.073-3.103-21.641-6.239-34.05-9.417-14.993-3.84-31.377-7.783-48.301-11.855-37.921-9.126-78.552-18.904-112.31-29.633-11.89-3.779-21.423-13.301-23.851-22.902-1.149-4.543-.78-9.228 1.746-13.91 2.593-4.806 7.829-10.263 17.53-15.369 28.896-15.208 87.124-39.964 146.665-65.277 29.155-12.395 58.623-24.923 85.117-36.53 2.833-1.241 5.569-2.444 8.219-3.609 35.239-15.494 55.212-24.275 83.217-26.103 30.547-1.994 70.969 4.322 149.646 21.891 57.725 12.89 90.961 19.651 124.01 26.374 14.668 2.984 29.3 5.961 46.018 9.462 5.303 1.111 10.404 2.197 15.343 3.248 3.648.777 7.208 1.535 10.697 2.27z" fill="url(#f)"/><path d="m1505.46 222.411c-9.36 5.617-19.76 11.854-31.04 18.605-50.51 30.242-118.53 70.777-188.6 111.95-70.08 41.18-142.15 82.974-200.78 115.747-29.32 16.39-55.22 30.492-75.8 41.122-20.846 10.77-35.54 17.608-42.825 19.895-30.493 9.573-75.225 7.761-132.895-1.334-51.08-8.055-110.923-21.56-177.909-36.677l-.052-.012-.335-.075c-8.078-1.823-16.259-3.669-24.542-5.532-11.403-2.565-23.067-5.42-34.808-8.294l-.004-.001-.005-.001c-22.969-5.622-46.228-11.315-68.382-15.043-20.708-3.485-41.256-5.426-60.826-4.004l9.103-41.456c29.472-.188 69.241 6.523 139.63 22.241 57.724 12.89 90.961 19.651 124.01 26.375 14.668 2.983 29.3 5.96 46.018 9.461 5.303 1.111 10.403 2.197 15.343 3.248 45.475 9.682 77.313 16.46 128.171 12.928 29.497-2.048 62.011-15.631 95.608-33.34 22.06-11.624 45.31-25.444 69.01-39.527 12.41-7.379 24.95-14.831 37.5-22.076 39.1-22.574 118.16-66.397 203.18-113.524l.02-.011c52.37-29.031 107-59.316 155.95-86.658z" fill="url(#g)"/><path d="m538.991 991.338.278.415zm444.614-313.593-.285-.411zm-293.289-409.239.076-.494zm-330.731 31.359.192.462zm-502.335 194.428-.177-.467zm1444.6-117.597.11-.489zm-1194.993 652.274-.161.47zm-475.814-194.428.207-.455zm-160.685-177.18-.176-.468zm1068.911 334.391c.956-.64 1.914-1.282 2.874-1.927l-.558-.83c-.959.644-1.917 1.286-2.872 1.927zm8.658-5.818c1.923-1.296 3.854-2.6 5.792-3.912l-.56-.828c-1.938 1.311-3.869 2.615-5.791 3.91zm11.555-7.818c1.922-1.305 3.852-2.618 5.789-3.937l-.563-.827c-1.936 1.319-3.866 2.632-5.788 3.937zm11.531-7.855c1.921-1.313 3.849-2.633 5.783-3.959l-.565-.824c-1.934 1.325-3.861 2.645-5.782 3.957zm11.511-7.891c1.914-1.315 3.834-2.637 5.76-3.964l-.568-.823c-1.925 1.327-3.845 2.648-5.758 3.963zm11.494-7.921c1.906-1.318 3.819-2.641 5.737-3.97l-.569-.822c-1.918 1.328-3.83 2.651-5.737 3.969zm11.477-7.951c1.901-1.32 3.807-2.645 5.718-3.975l-.571-.82c-1.911 1.329-3.816 2.654-5.717 3.974zm11.464-7.977c1.896-1.322 3.796-2.648 5.7-3.979l-.572-.819c-1.905 1.33-3.805 2.656-5.7 3.978zm11.428-7.984c1.898-1.329 3.801-2.662 5.708-3.999l-.574-.819c-1.907 1.337-3.809 2.67-5.708 3.999zm11.417-8.006c1.902-1.335 3.807-2.675 5.717-4.018l-.575-.818c-1.91 1.343-3.815 2.682-5.717 4.018zm11.41-8.026c1.901-1.34 3.806-2.683 5.715-4.03l-.577-.817c-1.908 1.347-3.813 2.69-5.714 4.029zm11.403-8.046c1.896-1.34 3.796-2.683 5.699-4.029l-.578-.816c-1.902 1.345-3.802 2.688-5.698 4.028zm11.397-8.063c1.892-1.34 3.787-2.683 5.685-4.029l-.579-.815c-1.897 1.345-3.792 2.688-5.684 4.028zm11.387-8.074c1.889-1.341 3.782-2.685 5.677-4.032l-.579-.815c-1.895 1.346-3.788 2.69-5.677 4.032zm11.366-8.076c1.893-1.346 3.788-2.695 5.686-4.046l-.58-.815c-1.897 1.351-3.793 2.7-5.686 4.046zm11.364-8.089c1.895-1.35 3.791-2.702 5.69-4.055l-.581-.815c-1.898 1.354-3.795 2.706-5.689 4.055zm11.362-8.101c1.892-1.349 3.785-2.701 5.68-4.053l-.581-.814c-1.895 1.352-3.788 2.704-5.68 4.053zm11.36-8.109c1.889-1.35 3.78-2.701 5.672-4.053l-.581-.814c-1.893 1.353-3.783 2.704-5.673 4.053zm11.353-8.114c1.889-1.35 3.779-2.702 5.67-4.055l-.582-.813c-1.891 1.352-3.781 2.704-5.67 4.055zm11.344-8.115c1.891-1.353 3.783-2.706 5.675-4.061l-.582-.813c-1.892 1.354-3.784 2.708-5.675 4.061zm11.345-8.12c1.891-1.354 3.782-2.708 5.674-4.063l-.582-.813c-1.892 1.355-3.783 2.709-5.674 4.063zm11.345-8.125c1.89-1.353 3.78-2.707 5.671-4.062l-.582-.813c-1.891 1.355-3.781 2.709-5.671 4.062zm11.343-8.125c1.89-1.354 3.78-2.708 5.671-4.062l-.583-.813c-1.89 1.354-3.78 2.708-5.67 4.062zm11.342-8.125c1.89-1.354 3.781-2.708 5.672-4.063l-.583-.812c-1.89 1.354-3.781 2.708-5.672 4.062zm11.343-8.125c1.891-1.353 3.781-2.707 5.67-4.06l-.582-.813c-1.89 1.353-3.78 2.707-5.67 4.06zm11.345-8.123c1.891-1.354 3.781-2.707 5.671-4.059l-.582-.813c-1.89 1.352-3.78 2.705-5.671 4.059zm11.345-8.119c1.893-1.354 3.784-2.707 5.675-4.059l-.581-.814c-1.891 1.353-3.783 2.706-5.676 4.06zm11.345-8.113c1.895-1.354 3.789-2.708 5.682-4.06l-.582-.814c-1.893 1.353-3.787 2.706-5.682 4.061zm11.356-8.113c1.894-1.352 3.787-2.703 5.678-4.053l-.581-.814c-1.891 1.35-3.784 2.701-5.678 4.053zm11.36-8.106c1.892-1.35 3.783-2.697 5.671-4.043l-.58-.815c-1.889 1.346-3.779 2.694-5.672 4.044zm11.362-8.097c1.896-1.35 3.789-2.698 5.681-4.043l-.58-.815c-1.891 1.346-3.785 2.693-5.681 4.043zm11.365-8.086c1.9-1.35 3.797-2.698 5.691-4.043l-.579-.815c-1.894 1.345-3.792 2.693-5.691 4.043zm11.368-8.072c1.904-1.351 3.805-2.698 5.703-4.044l-.578-.815c-1.898 1.345-3.8 2.693-5.703 4.043zm11.392-8.072c1.901-1.346 3.799-2.689 5.695-4.029l-.577-.816c-1.896 1.34-3.795 2.683-5.696 4.029zm11.397-8.057c1.899-1.34 3.794-2.677 5.685-4.011l-.576-.817c-1.892 1.334-3.787 2.671-5.685 4.011zm11.404-8.04c1.903-1.339 3.802-2.675 5.698-4.007l-.575-.818c-1.896 1.332-3.795 2.668-5.698 4.008zm11.411-8.02c1.909-1.339 3.813-2.674 5.714-4.006l-.574-.819c-1.901 1.332-3.806 2.667-5.715 4.007zm11.418-7.998c1.915-1.339 3.826-2.674 5.732-4.005l-.572-.82c-1.907 1.331-3.818 2.666-5.733 4.006zm11.438-7.983c1.919-1.336 3.833-2.668 5.742-3.995l-.571-.821c-1.909 1.327-3.824 2.659-5.742 3.996zm11.466-7.968c.951-.66 1.901-1.319 2.85-1.976l-.57-.822c-.949.657-1.899 1.316-2.85 1.976zm2.85-1.976c.959-.665 1.919-1.329 2.878-1.992l-.569-.823c-.959.664-1.919 1.328-2.879 1.993zm8.628-5.963c1.915-1.32 3.829-2.637 5.741-3.951l-.567-.824c-1.912 1.314-3.826 2.632-5.741 3.952zm11.472-7.883c1.92-1.319 3.84-2.634 5.76-3.946l-.56-.826c-1.92 1.313-3.84 2.628-5.77 3.947zm11.53-7.884c1.92-1.31 3.84-2.616 5.76-3.918l-.56-.827c-1.92 1.303-3.84 2.609-5.76 3.918zm11.5-7.818c1.94-1.313 3.87-2.623 5.8-3.93l-.56-.828c-1.93 1.307-3.86 2.617-5.8 3.931zm11.58-7.839c1.93-1.3 3.85-2.596 5.77-3.889l-.56-.829c-1.92 1.293-3.84 2.589-5.77 3.889zm11.54-7.778c1.94-1.305 3.88-2.608 5.81-3.906l-.56-.83c-1.93 1.298-3.87 2.601-5.81 3.907zm11.6-7.79c1.92-1.291 3.84-2.578 5.76-3.861l-.56-.831c-1.91 1.283-3.83 2.571-5.76 3.862zm11.58-7.753c1.94-1.299 3.87-2.594 5.81-3.885l-.56-.832c-1.93 1.292-3.87 2.587-5.81 3.886zm11.59-7.746c1.93-1.289 3.86-2.574 5.78-3.855l-.56-.832c-1.92 1.281-3.84 2.566-5.78 3.855zm11.61-7.747c1.94-1.293 3.88-2.582 5.81-3.867l-.56-.832c-1.93 1.285-3.86 2.574-5.8 3.867zm11.57-7.707c1.95-1.299 3.89-2.593 5.83-3.883l-.56-.832c-1.93 1.29-3.87 2.584-5.82 3.882zm11.65-7.76c1.93-1.288 3.86-2.572 5.78-3.851l-.56-.832c-1.91 1.279-3.84 2.562-5.77 3.85zm11.57-7.709c1.95-1.303 3.9-2.601 5.84-3.895l-.56-.832c-1.94 1.294-3.88 2.592-5.84 3.895zm11.62-7.76c1.93-1.285 3.84-2.566 5.75-3.841l-.56-.831c-1.9 1.275-3.82 2.556-5.74 3.841zm11.6-7.758c1.94-1.301 3.87-2.596 5.79-3.885l-.55-.83c-1.92 1.289-3.85 2.584-5.8 3.884zm11.53-7.738c1.95-1.315 3.9-2.624 5.83-3.927l-.56-.829c-1.93 1.303-3.88 2.612-5.83 3.927zm11.62-7.838c1.92-1.297 3.83-2.589 5.72-3.875l-.56-.827c-1.9 1.285-3.8 2.577-5.72 3.874zm11.53-7.82c1.94-1.32 3.86-2.634 5.77-3.942l-.56-.825c-1.91 1.307-3.84 2.62-5.78 3.941zm11.47-7.845c1.94-1.334 3.87-2.662 5.79-3.982l-.57-.823c-1.91 1.32-3.84 2.647-5.79 3.981zm11.54-7.961c1.9-1.319 3.78-2.63 5.65-3.935l-.57-.82c-1.87 1.304-3.75 2.615-5.65 3.934zm11.43-7.981c1.92-1.348 3.81-2.688 5.7-4.02l-.58-.816c-1.88 1.331-3.78 2.67-5.7 4.018zm11.32-8.017c1.93-1.382 3.85-2.755 5.74-4.119l-.58-.811c-1.9 1.363-3.81 2.735-5.74 4.116zm11.35-8.183c1.9-1.385 3.78-2.76 5.64-4.125l-.6-.805c-1.85 1.364-3.73 2.738-5.63 4.121zm11.27-8.298c1.86-1.383 3.69-2.757 5.49-4.12l-.6-.797c-1.8 1.361-3.63 2.733-5.49 4.115zm11.14-8.419c1.85-1.421 3.67-2.831 5.46-4.229l-.62-.788c-1.78 1.396-3.6 2.804-5.45 4.224zm10.98-8.586c1.84-1.468 3.65-2.922 5.41-4.363l-.63-.775c-1.76 1.438-3.56 2.89-5.4 4.356zm10.8-8.812c1.82-1.522 3.6-3.027 5.33-4.517l-.66-.757c-1.72 1.486-3.49 2.988-5.31 4.507zm10.58-9.12c1.77-1.582 3.49-3.145 5.15-4.688l-.68-.733c-1.66 1.539-3.37 3.097-5.14 4.675zm10.24-9.534c1.69-1.649 3.3-3.274 4.85-4.875l-.72-.694c-1.54 1.593-3.15 3.211-4.83 4.854zm9.68-10.083c1.61-1.804 3.12-3.576 4.52-5.315l-.77-.627c-1.4 1.724-2.89 3.483-4.49 5.277zm8.69-10.818c1.43-2.035 2.7-4.02 3.8-5.956l-.87-.495c-1.08 1.905-2.34 3.863-3.75 5.875zm6.88-12.306c.92-2.342 1.55-4.604 1.89-6.785l-.99-.15c-.32 2.095-.93 4.285-1.83 6.569zm1.82-13.876c-.44-2.319-1.31-4.511-2.63-6.571l-.85.541c1.26 1.954 2.09 4.026 2.5 6.216zm-7.34-11.823c-1.66-1.402-3.59-2.721-5.81-3.958l-.48.873c2.16 1.21 4.04 2.494 5.65 3.849zm-12.17-6.976c-2.07-.841-4.31-1.634-6.73-2.38l-.3.956c2.4.738 4.61 1.522 6.66 2.351zm-13.34-4.192c-1.16-.285-2.36-.561-3.59-.828l-.21.977c1.22.266 2.41.54 3.57.822zm-3.59-.828c-1.15-.248-2.29-.496-3.44-.744l-.21.977c1.15.248 2.29.496 3.44.744zm-10.33-2.229c-2.3-.494-4.6-.987-6.91-1.479l-.21.978c2.31.492 4.61.985 6.91 1.479zm-13.82-2.946c-2.29-.486-4.59-.972-6.9-1.456l-.2.978c2.3.485 4.6.97 6.9 1.456zm-13.81-2.908c-2.3-.481-4.61-.961-6.91-1.44l-.21.979c2.31.479 4.61.959 6.91 1.44zm-13.82-2.87c-2.31-.476-4.61-.951-6.92-1.425l-.2.98c2.31.474 4.61.949 6.92 1.424zm-13.84-2.839c-2.3-.47-4.6-.938-6.91-1.406l-.2.98c2.31.468 4.61.936 6.91 1.406zm-13.84-2.806c-2.3-.465-4.61-.928-6.92-1.391l-.19.981c2.31.462 4.61.926 6.92 1.39zm-13.83-2.773c-2.31-.46-4.62-.919-6.93-1.377l-.2.981c2.31.458 4.62.916 6.93 1.376zm-13.86-2.746c-2.31-.454-4.61-.908-6.92-1.361l-.19.982c2.3.452 4.61.906 6.92 1.36zm-13.85-2.715c-2.31-.451-4.62-.9-6.93-1.348l-.19.982c2.31.448 4.62.897 6.93 1.347zm-13.86-2.688c-2.31-.446-4.62-.891-6.94-1.335l-.18.982c2.31.444 4.62.889 6.93 1.334zm-13.87-2.662c-2.31-.442-4.62-.882-6.93-1.321l-.19.982c2.31.439 4.62.88 6.93 1.321zm-13.87-2.636c-2.31-.437-4.62-.873-6.94-1.309l-.18.983c2.31.435 4.62.871 6.93 1.309zm-13.88-2.611c-2.31-.434-4.62-.866-6.93-1.297l-.19.983c2.31.431 4.63.863 6.94 1.296zm-13.87-2.587c-2.32-.43-4.63-.858-6.95-1.286l-.18.984c2.31.427 4.63.855 6.94 1.285zm-13.89-2.565c-2.31-.425-4.63-.85-6.94-1.273l-.18.984c2.31.423 4.63.847 6.94 1.273zm-13.89-2.542c-2.32-.422-4.63-.843-6.94-1.263l-.18.984c2.31.42 4.62.841 6.94 1.263zm-13.88-2.519c-2.33-.419-4.64-.837-6.96-1.254l-.18.984c2.32.417 4.64.835 6.96 1.254zm-13.91-2.501c-2.31-.414-4.63-.828-6.94-1.24l-.17.984c2.31.412 4.62.826 6.94 1.241zm-13.9-2.48c-2.32-.411-4.63-.822-6.95-1.231l-.17.985c2.31.409 4.63.819 6.95 1.231zm-13.89-2.457c-2.32-.41-4.65-.818-6.97-1.225l-.17.985c2.32.407 4.64.815 6.97 1.225zm-13.91-2.442c-2.32-.406-4.64-.81-6.95-1.212l-.17.985c2.31.403 4.63.806 6.94 1.212zm-13.92-2.424c-2.32-.402-4.636-.803-6.95-1.203l-.17.985c2.313.4 4.63.801 6.95 1.204zm-13.897-2.402c-2.328-.401-4.653-.8-6.974-1.198l-.169.985c2.321.398 4.645.798 6.973 1.199zm-13.923-2.388c-2.322-.397-4.639-.793-6.952-1.187l-.168.986c2.313.394 4.63.79 6.951 1.186zm-13.928-2.373c-2.321-.394-4.637-.786-6.948-1.177l-.167.986c2.311.391 4.627.783 6.947 1.177zm-13.907-2.352c-2.331-.393-4.657-.784-6.977-1.173l-.165.986c2.32.389 4.645.781 6.975 1.173zm-13.921-2.338c-2.329-.39-4.653-.778-6.97-1.165l-.165.987c2.318.386 4.641.775 6.97 1.164zm-13.944-2.326c-2.319-.386-4.632-.77-6.939-1.152l-.163.986c2.306.383 4.619.766 6.938 1.152zm-13.923-2.308c-2.33-.385-4.653-.768-6.97-1.15l-.162.987c2.316.381 4.639.764 6.969 1.149zm-13.898-2.289c-2.343-.385-4.678-.768-7.005-1.149l-.162.987c2.328.381 4.663.764 7.005 1.148zm-13.965-2.286c-2.325-.38-4.642-.757-6.95-1.133l-.161.987c2.309.376 4.625.753 6.95 1.133zm-13.946-2.27c-2.324-.377-4.639-.752-6.946-1.125l-.159.987c2.306.374 4.621.749 6.944 1.126zm-13.925-2.252c-2.336-.377-4.664-.752-6.981-1.125l-.159.988c2.318.372 4.644.747 6.981 1.124zm-13.904-2.237c-2.35-.377-4.689-.752-7.018-1.124l-.158.987c2.328.373 4.668.747 7.017 1.124zm-13.976-2.236c-2.332-.372-4.654-.742-6.964-1.11l-.157.987c2.31.368 4.631.738 6.964 1.11zm-13.959-2.222c-2.32-.369-4.628-.735-6.923-1.098l-.157.987c2.296.364 4.603.73 6.923 1.098zm-13.944-2.209c-2.332-.369-4.651-.735-6.956-1.098l-.156.988c2.306.363 4.624.729 6.956 1.098zm-13.929-2.196c-2.345-.369-4.676-.736-6.991-1.099l-.155.988c2.315.363 4.645.729 6.99 1.098zm-13.919-2.186c-2.359-.369-4.701-.736-7.026-1.099l-.155.988c2.326.363 4.668.73 7.026 1.099zm-13.952-2.181c-2.358-.369-4.699-.734-7.021-1.095l-.154.988c2.322.361 4.662.726 7.021 1.095zm-13.97-2.177c-2.352-.366-4.684-.729-6.995-1.088l-.154.988c2.312.359 4.644.722 6.996 1.088zm-13.963-2.17c-2.348-.364-4.675-.725-6.978-1.082l-.153.989c2.303.357 4.629.717 6.978 1.082zm-13.957-2.163c-2.35-.363-4.674-.723-6.972-1.079l-.153.989c2.298.355 4.622.715 6.972 1.079zm-13.951-2.158c-1.15-.178-2.292-.355-3.427-.53l-.153.988c1.135.176 2.278.352 3.427.53zm-3.427-.53c-1.178-.182-2.351-.363-3.52-.541l-.151.988c1.168.179 2.341.359 3.518.541zm-10.473-1.591c-2.344-.349-4.669-.691-6.975-1.025l-.144.99c2.305.334 4.629.675 6.972 1.024zm-13.919-2.015c-2.354-.33-4.687-.652-7.001-.965l-.134.991c2.312.313 4.644.634 6.996.964zm-13.935-1.886c-2.361-.307-4.703-.604-7.025-.893l-.123.993c2.32.288 4.659.585 7.019.892zm-13.997-1.737c-2.351-.277-4.684-.545-6.997-.802l-.11.994c2.311.257 4.641.524 6.99.801zm-14.007-1.555c-2.342-.243-4.666-.475-6.971-.696l-.095.995c2.302.221 4.623.453 6.963.696zm-14.014-1.342c-2.356-.205-4.693-.399-7.012-.581l-.078.997c2.316.182 4.65.375 7.003.581zm-14.015-1.095c-2.368-.162-4.718-.311-7.05-.446l-.058.998c2.329.135 4.675.284 7.039.446zm-14.077-.815c-2.356-.111-4.695-.207-7.019-.289l-.035.999c2.32.082 4.655.178 7.007.289zm-14.077-.494c-2.362-.053-4.708-.091-7.041-.113l-.009 1c2.328.022 4.67.06 7.027.113zm-14.07-.132c-2.363.01-4.714.037-7.052.081l.019 1c2.333-.044 4.679-.071 7.037-.081zm-14.097.267c-2.355.079-4.698.177-7.033.293l.05.999c2.329-.116 4.667-.213 7.017-.293zm-14.059.698c-2.352.154-4.695.328-7.032.52l.082.997c2.331-.192 4.669-.365 7.016-.52zm-14.047 1.158c-2.339.232-4.672.484-7.001.756l.115.993c2.324-.271 4.652-.522 6.985-.754zm-13.992 1.632c-2.326.313-4.65.645-6.973.997l.15.989c2.317-.352 4.636-.683 6.956-.994zm-13.926 2.114c-2.311.391-4.623.803-6.937 1.235l.184.983c2.308-.431 4.614-.842 6.92-1.232zm-13.855 2.588c-2.29.468-4.584.956-6.883 1.465l.217.976c2.293-.507 4.581-.994 6.866-1.461zm-13.745 3.04c-2.276.542-4.558 1.104-6.847 1.685l.246.97c2.285-.581 4.562-1.142 6.832-1.682zm-13.66 3.472c-2.25.607-4.509 1.234-6.776 1.881l.274.962c2.263-.646 4.517-1.272 6.762-1.878zm-13.54 3.86c-2.238.671-4.487 1.361-6.747 2.071l.299.954c2.257-.708 4.502-1.398 6.736-2.067zm-13.433 4.215c-2.215.724-4.442 1.468-6.681 2.229l.321.947c2.237-.76 4.46-1.502 6.671-2.226zm-13.357 4.54c-2.188.77-4.389 1.558-6.604 2.363l.341.94c2.213-.804 4.41-1.591 6.595-2.36zm-13.216 4.802c-2.183.817-4.381 1.651-6.595 2.502l.359.934c2.211-.85 4.406-1.683 6.587-2.499zm-13.134 5.047c-2.172.856-4.36 1.728-6.563 2.615l.373.928c2.202-.887 4.387-1.758 6.557-2.612zm-13.066 5.262c-1.092.449-2.187.902-3.287 1.358l.383.924c1.099-.456 2.194-.909 3.284-1.357zm-3.287 1.358c-1.074.446-2.155.894-3.241 1.344l.382.924c1.087-.45 2.168-.898 3.242-1.344zm-9.812 4.058c-2.156.889-4.336 1.785-6.542 2.69l.38.925c2.206-.905 4.387-1.801 6.543-2.69zm-13.087 5.369c-2.169.886-4.362 1.78-6.579 2.683l.376.926c2.218-.903 4.412-1.797 6.582-2.683zm-13.143 5.348c-2.161.875-4.345 1.759-6.552 2.651l.374.927c2.208-.892 4.393-1.776 6.554-2.652zm-13.151 5.311c-2.163.87-4.348 1.749-6.556 2.634l.372.929c2.208-.886 4.394-1.765 6.557-2.635zm-13.131 5.268c-2.181.872-4.384 1.752-6.609 2.64l.371.929c2.225-.888 4.428-1.768 6.609-2.64zm-13.159 5.249c-2.185.869-4.391 1.745-6.618 2.629l.368.93c2.228-.884 4.435-1.761 6.62-2.63zm-13.177 5.228c-2.181.864-4.382 1.734-6.604 2.611l.367.931c2.222-.878 4.424-1.748 6.605-2.612zm-13.19 5.21c-2.178.858-4.375 1.723-6.592 2.595l.366.931c2.217-.873 4.415-1.738 6.593-2.596zm-13.196 5.19c-2.176.854-4.371 1.715-6.586 2.583l.365.931c2.215-.868 4.41-1.729 6.586-2.583zm-13.2 5.172c-2.177.851-4.371 1.709-6.585 2.574l.364.931c2.214-.864 4.409-1.722 6.585-2.574zm-13.201 5.155c-2.179.85-4.376 1.706-6.591 2.568l.363.932c2.215-.862 4.412-1.718 6.591-2.568zm-13.202 5.141c-2.185.849-4.387 1.704-6.606 2.566l.362.932c2.219-.861 4.421-1.717 6.606-2.566zm-13.205 5.127c-2.193.85-4.402 1.706-6.629 2.569l.361.932c2.227-.862 4.436-1.718 6.63-2.569zm-13.21 5.116c-2.204.853-4.424 1.712-6.661 2.576l.36.933c2.237-.865 4.458-1.723 6.662-2.576zm-13.218 5.109c-2.202.85-4.419 1.705-6.652 2.566l.36.933c2.233-.861 4.45-1.716 6.652-2.566zm-13.233 5.103c-2.191.845-4.397 1.694-6.619 2.549l.36.934c2.221-.856 4.427-1.705 6.619-2.55zm-13.252 5.102c-2.179.838-4.373 1.682-6.582 2.531l.359.933c2.208-.849 4.403-1.692 6.582-2.531zm-13.251 5.093c-2.176.835-4.365 1.676-6.569 2.521l.359.934c2.203-.846 4.393-1.686 6.568-2.522zm-13.194 5.062c-2.2.844-4.414 1.693-6.642 2.547l.358.933c2.228-.853 4.442-1.702 6.642-2.546zm-13.22 5.066c-2.206.845-4.4255 1.695-6.6584 2.549l.3574.934c2.233-.854 4.4525-1.704 6.6587-2.549zm-13.2557 5.073c-2.1888.838-4.3905 1.68-6.6051 2.526l.3571.934c2.2147-.846 4.4163-1.688 6.6053-2.526zm-13.2876 5.08c-2.175.831-4.3624 1.666-6.5621 2.506l.3568.934c2.1997-.84 4.3871-1.675 6.5621-2.506zm-13.1859 5.035c-2.2118.844-4.4359 1.693-6.6724 2.546l.3563.934c2.2366-.853 4.4609-1.702 6.6727-2.546zm-13.2361 5.049c-2.1997.839-4.4113 1.682-6.6348 2.529l.3561.935c2.2237-.848 4.4352-1.691 6.635-2.53zm-13.2961 5.067c-2.1787.83-4.3688 1.665-6.5704 2.503l.356.934c2.2014-.838 4.3916-1.672 6.5703-2.502zm-13.209 5.03c-2.2095.842-4.4302 1.687-6.6624 2.536l.3556.935c2.2323-.85 4.453-1.695 6.6625-2.536zm-13.23269 5.036c-2.20105.837-4.41308 1.678-6.636229 2.524l.3554684.934c2.2231406-.845 4.4351806-1.686 6.6362306-2.524zm-13.31225 5.062c-2.17762.827-4.36576 1.659-6.56446 2.495l.3552.934c2.1988-.835 4.38687-1.667 6.5646-2.495zm-13.19226 5.013c-2.2197.843-4.4502 1.69-6.6913 2.541l.355.935c2.2412-.851 4.4715-1.698 6.6914-2.542zm-13.256 5.034c-2.1946.833-4.3993 1.67-6.6141 2.511l.3548.935c2.215-.841 4.4196-1.678 6.6142-2.511zm-13.2892 5.044c-2.1919.832-4.3934 1.667-6.605 2.506l.3547.935c2.2116-.839 4.4133-1.675 6.6051-2.506zm-13.2007 5.008c-2.2083.837-4.4263 1.678-6.6543 2.523l.3547.935c2.2279-.845 4.4459-1.686 6.6543-2.523zm-13.3133 5.048c-2.1818.827-4.3728 1.657-6.5731 2.491l.3543.935c2.2005-.833 4.3915-1.664 6.5732-2.491zm-13.2024 5.004c-2.2192.841-4.4478 1.685-6.6858 2.533l.3543.935c2.238-.848 4.4666-1.692 6.6859-2.533zm-13.2739 5.029c-2.1909.83-4.3909 1.663-6.6009 2.5l.354.935c2.21-.837 4.41-1.67 6.6011-2.5zm-13.2549 5.02c-2.215.838-4.439 1.68-6.672 2.526l.354.935c2.233-.845 4.457-1.687 6.672-2.526zm-13.241 5.012c-2.198.832-4.405 1.668-6.62 2.506l.354.935c2.215-.838 4.422-1.673 6.62-2.505zm-13.293 5.031c-1.117.423-2.236.846-3.357 1.271l.354.935c1.121-.424 2.24-.848 3.357-1.27zm-3.357 1.271c-1.052.398-2.118.803-3.198 1.216l.357.934c1.079-.412 2.144-.818 3.195-1.215zm-9.774 3.757c-2.12.826-4.287 1.678-6.497 2.553l.368.93c2.209-.875 4.374-1.726 6.492-2.551zm-12.979 5.136c-2.142.859-4.32 1.737-6.534 2.635l.375.927c2.213-.897 4.391-1.776 6.532-2.634zm-12.993 5.266c-2.128.87-4.286 1.757-6.471 2.658l.381.925c2.185-.901 4.341-1.788 6.469-2.658zm-12.976 5.351c-2.117.879-4.258 1.771-6.422 2.676l.386.922c2.163-.904 4.303-1.796 6.419-2.675zm-12.919 5.398c-2.119.891-4.258 1.792-6.416 2.703l.389.921c2.157-.911 4.296-1.812 6.415-2.702zm-12.884 5.44c-2.126.901-4.269 1.812-6.428 2.731l.392.92c2.158-.919 4.301-1.829 6.427-2.731zm-12.876 5.48c-2.13.91-4.274 1.827-6.432 2.752l.394.919c2.157-.924 4.301-1.841 6.431-2.751zm-12.868 5.512c-2.132.916-4.275 1.838-6.43 2.766l.396.918c2.154-.927 4.298-1.849 6.429-2.765zm-12.859 5.537c-2.132.92-4.275 1.846-6.426 2.776l.397.917c2.151-.929 4.293-1.855 6.425-2.775zm-12.852 5.556c-2.133.923-4.273 1.851-6.421 2.782l.398.918c2.148-.931 4.288-1.859 6.42-2.782zm-12.846 5.571c-2.133.926-4.272 1.855-6.416 2.787l.398.917c2.145-.932 4.284-1.861 6.416-2.787zm-12.842 5.581c-2.132.928-4.27 1.858-6.412 2.791l.399.916c2.142-.932 4.28-1.862 6.412-2.79zm-12.837 5.588c-2.134.93-4.271 1.861-6.411 2.793l.4.917c2.14-.932 4.277-1.864 6.41-2.793zm-12.835 5.593c-2.135.93-4.272 1.862-6.411 2.794l.4.917c2.139-.933 4.276-1.864 6.411-2.795zm-12.832 5.592c-2.137.932-4.276 1.864-6.414 2.796l.399.916c2.139-.931 4.277-1.863 6.415-2.795zm-12.831 5.591c-2.14.932-4.281 1.864-6.42 2.795l.399.917c2.14-.931 4.28-1.863 6.42-2.795zm-12.835 5.587c-2.143.932-4.284 1.863-6.423 2.793l.398.917c2.14-.929 4.281-1.861 6.424-2.793zm-12.839 5.581c-2.145.931-4.287 1.86-6.425 2.788l.397.917c2.139-.927 4.281-1.857 6.426-2.788zm-12.845 5.57c-2.146.93-4.289 1.857-6.426 2.781l.397.918c2.138-.924 4.28-1.851 6.427-2.781zm-12.851 5.558c-2.148.927-4.29 1.851-6.426 2.771l.396.919c2.136-.921 4.278-1.845 6.427-2.772zm-12.858 5.54c-2.15.924-4.292 1.845-6.427 2.76l.395.919c2.134-.916 4.277-1.836 6.427-2.76zm-12.867 5.519c-2.152.921-4.295 1.837-6.429 2.747l.393.92c2.133-.911 4.277-1.826 6.429-2.747zm-12.877 5.494c-2.156.916-4.301 1.827-6.434 2.731l.39.921c2.134-.904 4.279-1.815 6.435-2.732zm-12.889 5.461c-2.162.913-4.31 1.818-6.444 2.716l.387.921c2.135-.897 4.284-1.802 6.446-2.715zm-12.902 5.424c-2.17.908-4.324 1.807-6.462 2.697l.384.923c2.138-.89 4.293-1.789 6.464-2.698zm-12.915 5.375c-2.183.903-4.346 1.796-6.489 2.677l.381.925c2.143-.882 4.307-1.774 6.49-2.678zm-12.927 5.315c-2.199.898-4.375 1.783-6.526 2.654l.375.927c2.152-.872 4.329-1.757 6.529-2.655zm-12.981 5.256c-2.204.884-4.38 1.753-6.525 2.605l.369.929c2.147-.852 4.323-1.721 6.529-2.606zm-13.042 5.177c-2.189.859-4.344 1.699-6.463 2.518l.361.933c2.12-.82 4.277-1.66 6.467-2.52zm-13.054 5.048c-1.079.41-2.148.815-3.206 1.214l.353.936c1.059-.4 2.128-.805 3.209-1.216zm-3.206 1.214c-1.16.437-2.297.875-3.413 1.315l.367.931c1.11-.438 2.243-.875 3.399-1.31zm-9.843 3.97c-2.274.984-4.441 1.974-6.504 2.971l.435.901c2.05-.991 4.204-1.976 6.466-2.955zm-12.765 6.191c-2.146 1.178-4.153 2.365-6.026 3.561l.539.843c1.852-1.183 3.84-2.359 5.968-3.527zm-11.78 7.592c-1.99 1.539-3.77 3.093-5.345 4.664l.707.708c1.541-1.538 3.289-3.065 5.25-4.581zm-9.957 10.13c-1.437 2.082-2.54 4.192-3.32 6.331l.94.343c.748-2.052 1.81-4.087 3.203-6.106zm-4.723 13.325c-.101 2.34.153 4.703.744 7.087l.97-.24c-.569-2.299-.812-4.566-.715-6.804zm3.224 13.744c.995 2.02 2.212 4.053 3.639 6.101l.82-.571c-1.401-2.013-2.592-4.003-3.562-5.972zm8.005 11.68c1.476 1.705 3.089 3.421 4.832 5.148l.703-.711c-1.726-1.711-3.321-3.408-4.779-5.091zm9.985 9.956c1.706 1.506 3.506 3.022 5.397 4.546l.627-.779c-1.879-1.515-3.668-3.021-5.362-4.517zm10.993 8.889c1.837 1.375 3.742 2.757 5.715 4.146l.576-.818c-1.966-1.384-3.863-2.76-5.691-4.129zm11.484 8.102c1.917 1.282 3.887 2.569 5.91 3.863l.539-.843c-2.018-1.29-3.983-2.574-5.893-3.851zm11.901 7.619c1.952 1.201 3.947 2.406 5.983 3.617l.511-.859c-2.032-1.209-4.022-2.412-5.97-3.61zm12.095 7.197c1.994 1.151 4.024 2.306 6.088 3.466l.49-.872c-2.061-1.158-4.087-2.311-6.078-3.46zm12.246 6.885c2.035 1.117 4.1 2.238 6.195 3.363l.473-.881c-2.092-1.124-4.155-2.244-6.187-3.359zm12.388 6.658c2.063 1.087 4.152 2.178 6.266 3.273l.46-.888c-2.112-1.094-4.199-2.184-6.26-3.27zm12.492 6.472c2.082 1.062 4.186 2.127 6.312 3.196l.449-.894c-2.124-1.068-4.226-2.132-6.306-3.193zm12.571 6.322c2.094 1.04 4.207 2.083 6.34 3.13l.44-.898c-2.131-1.046-4.243-2.088-6.336-3.127zm12.631 6.201c2.102 1.021 4.221 2.045 6.356 3.072l.434-.901c-2.135-1.027-4.252-2.05-6.353-3.071zm12.68 6.101c2.107 1.006 4.228 2.014 6.364 3.025l.428-.904c-2.135-1.011-4.256-2.018-6.361-3.023zm12.72 6.024c2.109.991 4.231 1.986 6.366 2.984l.423-.906c-2.134-.997-4.255-1.992-6.364-2.983zm12.751 5.96c2.111.981 4.233 1.965 6.365 2.952l.42-.907c-2.132-.987-4.253-1.971-6.363-2.952zm12.778 5.913c2.111.972 4.231 1.948 6.361 2.926l.418-.909c-2.13-.978-4.25-1.953-6.361-2.925zm12.778 5.868c2.117.969 4.242 1.941 6.376 2.915l.415-.91c-2.133-.974-4.258-1.946-6.374-2.914zm12.781 5.837c1.071.488 2.144.977 3.219 1.467l.414-.91c-1.074-.49-2.147-.979-3.219-1.467zm3.219 1.467c1.079.491 2.153.98 3.223 1.468l.415-.91c-1.07-.488-2.145-.977-3.224-1.468zm9.592 4.371c2.106.96 4.195 1.913 6.268 2.859l.415-.91c-2.073-.946-4.162-1.899-6.268-2.859zm12.61 5.754c2.134.974 4.25 1.941 6.349 2.9l.416-.91c-2.099-.959-4.216-1.926-6.35-2.9zm12.597 5.755c2.144.981 4.27 1.953 6.379 2.917l.416-.909c-2.109-.965-4.235-1.937-6.38-2.917zm12.697 5.808c2.107.963 4.196 1.92 6.269 2.868l.416-.909c-2.073-.949-4.162-1.905-6.269-2.869zm12.648 5.788c2.109.965 4.2 1.922 6.274 2.872l.417-.909c-2.075-.95-4.166-1.907-6.275-2.872zm12.618 5.775c2.125.973 4.233 1.938 6.325 2.895l.416-.909c-2.092-.957-4.2-1.922-6.325-2.895zm12.605 5.768c2.139.978 4.26 1.948 6.365 2.91l.416-.909c-2.105-.962-4.226-1.932-6.365-2.911zm12.631 5.773c2.14.977 4.263 1.947 6.37 2.908l.415-.91c-2.107-.961-4.23-1.93-6.37-2.908zm12.669 5.78c2.128.969 4.241 1.931 6.338 2.886l.414-.911c-2.097-.954-4.209-1.916-6.338-2.885zm12.662 5.76c2.121.963 4.228 1.919 6.321 2.868l.413-.911c-2.093-.949-4.199-1.904-6.321-2.868zm12.662 5.738c2.119.958 4.224 1.908 6.317 2.852l.411-.912c-2.092-.943-4.197-1.894-6.316-2.851zm12.67 5.712c2.119.952 4.226 1.897 6.321 2.836l.409-.913c-2.095-.938-4.201-1.883-6.32-2.835zm12.683 5.68c2.12.946 4.23 1.886 6.331 2.819l.406-.913c-2.101-.934-4.21-1.873-6.33-2.819zm12.698 5.643c2.122.938 4.237 1.872 6.345 2.8l.403-.916c-2.107-.927-4.221-1.86-6.343-2.799zm12.718 5.598c2.125.93 4.245 1.856 6.361 2.777l.399-.916c-2.115-.921-4.234-1.847-6.359-2.777zm12.74 5.547c2.128.921 4.253 1.838 6.377 2.752l.395-.919c-2.123-.913-4.247-1.83-6.374-2.751zm12.766 5.491c2.13.91 4.26 1.817 6.392 2.721l.39-.92c-2.13-.904-4.26-1.811-6.389-2.721zm12.794 5.429c2.131.898 4.266 1.794 6.405 2.688l.386-.922c-2.138-.894-4.272-1.79-6.403-2.688zm12.823 5.363c2.133.885 4.271 1.769 6.416 2.653l.381-.924c-2.144-.884-4.282-1.768-6.414-2.653zm12.853 5.294c2.133.873 4.275 1.745 6.427 2.617l.376-.926c-2.151-.873-4.292-1.744-6.425-2.616zm12.881 5.225c2.135.859 4.281 1.719 6.4376 2.58l.3709-.928c-2.1565-.861-4.3005-1.721-6.4345-2.58zm12.9094 5.154c2.1369.847 4.286 1.695 6.4486 2.545l.366-.93c-2.1619-.85-4.3103-1.698-6.4463-2.544zm12.9337 5.085c2.1402.835 4.2942 1.673 6.4635 2.513l.3611-.933c-2.1684-.839-4.3217-1.677-6.4612-2.511zm12.956 5.018c2.1457.825 4.307 1.653 6.4846 2.485l.3567-.935c-2.1769-.831-4.3374-1.658-6.4824-2.483zm12.9767 4.954c2.1549.817 4.3264 1.638 6.5153 2.462l.3525-.936c-2.1884-.824-4.3592-1.644-6.5133-2.461zm12.9976 4.896c2.1686.811 4.3548 1.626 6.5592 2.446l.3486-.937c-2.2039-.82-4.3893-1.635-6.5573-2.446zm13.0218 4.842c2.1718.802 4.3618 1.609 6.5706 2.421l.3449-.939c-2.2083-.811-4.3976-1.618-6.569-2.42zm13.0516 4.795c2.1619.79 4.3419 1.585 6.5409 2.384l.34155-.94c-2.19835-.799-4.37795-1.593-6.53935-2.383zm13.09144 4.758c2.148067.777 4.3142 1.558 6.49902 2.344l.3385-.941c-2.18433-.786-4.349976-1.567-6.49756-2.343zm13.11026 4.717c2.1419.767 4.3017 1.539 6.4801 2.315l.3358-.942c-2.178-.776-4.3374-1.548-6.4788-2.314zm13.0359 4.642c2.1796.78 4.3778 1.56 6.5948 2.34l.3333-.94c-2.2167-.79-4.4144-1.56-6.5937-2.338zm13.0844 4.63c2.1812.77 4.3808 1.54 6.599 2.32l.331-.94c-2.2179-.78-4.417-1.56-6.5979-2.32zm13.1553 4.61c2.1553.76 4.3281 1.52 6.519 2.28l.3289-.95c-2.1904-.76-4.363-1.52-6.5179-2.27zm13.1456 4.58c2.1615.75 4.3402 1.51 6.5367 2.27l.327-.95c-2.1961-.76-4.3745-1.51-6.5357-2.26zm13.0701 4.53c2.1952.75 4.4078 1.52 6.6383 2.28l.3253-.94c-2.2302-.77-4.4426-1.53-6.6374-2.29zm13.1805 4.53c2.1609.74 4.3384 1.49 6.5328 2.24l.3238-.95c-2.1941-.75-4.3713-1.49-6.532-2.23zm13.1667 4.51c1.114.38 2.233.76 3.356 1.14l.322-.94c-1.122-.39-2.241-.77-3.355-1.15zm3.356 1.14c1.118.38 2.232.76 3.343 1.14l.321-.95c-1.11-.37-2.224-.75-3.342-1.13zm9.965 3.37c2.193.73 4.371 1.45 6.535 2.16l.312-.95c-2.162-.71-4.339-1.43-6.53-2.16zm13.087 4.3c2.237.73 4.458 1.44 6.664 2.14l.303-.95c-2.204-.7-4.423-1.41-6.659-2.14zm13.237 4.22c2.209.69 4.402 1.37 6.581 2.04l.293-.96c-2.177-.67-4.369-1.35-6.576-2.04zm13.276 4.07c2.215.67 4.415 1.32 6.599 1.97l.283-.96c-2.183-.65-4.381-1.3-6.594-1.96zm13.24 3.9c2.255.65 4.493 1.28 6.714 1.9l.27-.96c-2.219-.62-4.455-1.26-6.708-1.9zm13.329 3.73c2.26.62 4.502 1.22 6.728 1.81l.256-.97c-2.223-.59-4.464-1.19-6.721-1.8zm13.447 3.56c2.23.57 4.442 1.13 6.637 1.67l.24-.97c-2.192-.54-4.402-1.1-6.628-1.67zm13.455 3.33c2.254.54 4.491 1.06 6.71 1.56l.223-.97c-2.216-.51-4.45-1.03-6.701-1.56zm13.483 3.08c2.284.5 4.549.98 6.796 1.45l.203-.98c-2.244-.47-4.505-.95-6.786-1.45zm13.529 2.8c2.31.46 4.6.89 6.872 1.31l.181-.98c-2.267-.42-4.554-.85-6.861-1.31zm13.63 2.52c2.319.39 4.617.77 6.896 1.13l.157-.98c-2.275-.36-4.569-.74-6.883-1.14zm13.715 2.17c2.317.33 4.614.65 6.891.94l.129-.99c-2.273-.29-4.565-.61-6.877-.94zm13.758 1.78c2.32.27 4.62.51 6.9.73l.097-.99c-2.274-.23-4.569-.47-6.883-.73zm13.8 1.35c2.326.19 4.631.36 6.917.5l.063-1c-2.28-.14-4.58-.31-6.899-.5zm13.835.87c2.331.11 4.643.19 6.935.24l.025-1c-2.286-.05-4.591-.13-6.916-.24zm13.855.35c2.335.01 4.652-.01 6.949-.05l-.016-1c-2.291.04-4.6.06-6.929.05zm13.855-.24c2.335-.09 4.653-.21 6.952-.35l-.062-1c-2.292.14-4.601.26-6.929.35zm13.837-.86c2.327-.2 4.636-.42 6.93-.68l-.11-.99c-2.285.25-4.587.48-6.905.68zm13.802-1.52c2.303-.31 4.591-.65 6.865-1.02l-.159-.98c-2.266.36-4.545.7-6.841 1.01zm13.699-2.21c2.277-.42 4.54-.88 6.792-1.36l-.209-.98c-2.243.48-4.498.94-6.767 1.36zm13.564-2.89c2.249-.54 4.488-1.11 6.718-1.71l-.258-.96c-2.222.59-4.452 1.15-6.694 1.69zm13.398-3.58c2.217-.65 4.426-1.33 6.628-2.04l-.305-.95c-2.195.7-4.396 1.38-6.605 2.03zm13.211-4.23c2.179-.75 4.351-1.53 6.52-2.34l-.348-.94c-2.162.81-4.328 1.58-6.499 2.34zm12.999-4.83c2.14-.85 4.277-1.72 6.412-2.62l-.388-.93c-2.129.9-4.26 1.77-6.393 2.62zm12.774-5.38c2.105-.93 4.211-1.89 6.318-2.88l-.423-.9c-2.102.98-4.201 1.94-6.301 2.87zm12.56-5.86c2.073-1.01 4.149-2.04 6.229-3.1l-.454-.89c-2.074 1.05-4.145 2.09-6.214 3.1zm12.358-6.27c2.036-1.08 4.076-2.17 6.122-3.29l-.478-.88c-2.042 1.12-4.079 2.21-6.111 3.28zm12.172-6.64c2.003-1.12 4.011-2.27 6.026-3.43l-.5-.87c-2.012 1.16-4.017 2.31-6.015 3.43zm12.007-6.93c1.972-1.17 3.953-2.35 5.942-3.56l-.518-.85c-1.986 1.2-3.964 2.38-5.933 3.55zm11.861-7.17c1.948-1.21 3.905-2.42 5.871-3.66l-.531-.85c-1.965 1.24-3.92 2.45-5.865 3.66zm11.737-7.37c1.928-1.23 3.867-2.48 5.816-3.74l-.543-.84c-1.948 1.26-3.884 2.51-5.811 3.74zm11.634-7.52c1.914-1.25 3.84-2.521 5.777-3.802l-.552-.834c-1.936 1.28-3.86 2.546-5.773 3.796zm11.551-7.638c.968-.646 1.939-1.296 2.913-1.949l-.556-.83c-.974.652-1.945 1.301-2.912 1.947z" fill="#0b0b0d"/><path d="m400.815 415.053-69.725 28.76-105.053-17.256-33.468-207.071 238.925-10.865z" fill="url(#h)" opacity=".7"/><g stroke="#0b0b0d"><g filter="url(#a)" stroke-linecap="round" stroke-linejoin="round"><path d="m282.364 414.329c-2.367 9.229-3.067 12.814-5.461 22.736m34.321-20.383c-3.257 10.976-3.818 15.107-6.377 25.087m-14.684-25.087c-2.429 9.473-3.012 11.908-5.46 22.034m14.04-20.698c-2.428 9.472-3.9 15.679-5.46 22.183m-24.181-5.488 6.241-22.735m24.961 30.807c1.172-4.848 2.097-8.866 3.009-12.776"/><path d="m226.981 422.95c2.113-8.239 3.107-12.178 5.461-21.952m6.24 1.568c-2.323 9.059-2.991 14.34-5.184 22.89m6.466 1.559c1.268-5.299 4.463-16.861 5.738-22.097"/><path d="m328.386 410.409c-2.658 10.367-4.68 15.68-7.02 25.088m15.222-28.224c-2.752 10.733-4.06 14.865-6.642 24.935m-10.14-17.879-7.02 25.873"/><path d="m267.845 410.409c-2.234 8.717-4.423 14.669-6.541 22.931m-8.581-26.067-5.993 22.496m13.492-21.711-6.719 23.52c2.111-8.233 4.506-14.889 6.719-23.52z"/><path d="m347.885 426.086 6.24-25.871m-8.58 3.136-7.02 25.872m17.94-7.057c2.453-9.564 3.644-15.742 6.24-25.871zm7.8-3.135c2.408-9.392 3.688-16.701 6.241-26.656z"/><path d="m387.666 386.104c-2.707 10.557-4.679 19.599-6.24 25.871m7.871-3.136c2.45-9.555 4.357-16.538 6.951-26.655m-23.401 32.927 6.239-25.087m17.16 16.463c1.246-4.857 2.775-10.618 3.902-14.895"/></g><g filter="url(#b)" stroke-linecap="round" stroke-linejoin="round"><path d="m220.742 398.648c29.151 6.795 58.301 14.207 85.802 20.384"/><path d="m222.302 422.164c18.72 5.488 51.481 13.328 85.022 21.952"/><path d="m303.424 419.818c20.281-7.056 70.982-28.223 101.403-40.767"/><path d="m302.645 444.121c29.64-12.543 56.941-22.735 102.183-41.551"/><path d="m400.146 379.828v29.791"/><path d="m226.981 390.812c.201 11.499 0 23.52 0 36.064"/><path d="m303.424 414.328c.201 11.499 0 21.952 0 34.495"/><path d="m222.302 401.781c8.58-3.92 40.561-15.679 60.062-23.519"/><path d="m345.545 367.289c18.72 4.704 40.561 10.192 58.502 14.896"/></g><g filter="url(#c)" stroke-linecap="round" stroke-linejoin="round"><path d="m272.815 386.57c10.053 17.321 61.035 19.486 84.731 3.609"/><path d="m271.378 393.788c8.705-18.956 39.176-83.638 49.547-101.761"/><path d="m315.897 292.027c6.232 12.319 33.772 88.47 39.494 101.039"/></g><g filter="url(#d)" stroke-linecap="round" stroke-linejoin="round"><path d="m321.08 321.188-17.388 5.697m13.301-11.903-10.429 3.599m8.659-10.211-4.35 1.508"/><path d="m321.265 328.004-21.882 7.594m22.978 7.678c-12.461 4.325-20.672 7.204-32.312 11.244m33.563-19.423-28.537 9.904"/><path d="m329.294 349.521-44.272 15.069m46.645-7.902-50.235 17.16m8.748 12.866-12.617 4.378m37.167-20.71c-12.819 4.449-25.933 8.922-38.325 13.179"/></g></g><path d="m350.749 182.442c18.297 0 33.116 14.895 33.116 33.284 0 17.908-14.053 32.501-31.686 33.253l-11.769-20.398.304.522.716 1.227s2.032-2.911 6.92-4.217c8.47-2.263 9.282.758 17.746-1.503 5.296-1.415 9.968-5.258 9.968-5.258l-13.199-21.182s-4.673 3.838-9.969 5.253c-8.47 2.262-9.282-.759-17.746 1.502l-.621.188c-3.077 1.382-4.201 2.512-5.325 3.641l-1.124 1.13s-.652.535-.869.663c-.949.547-1.062 3.006-.314 4.302l20.433 38.698c.49.849.936 1.608 1.932 1.892.031.168.457-.169.463 0-.463.155.682.013 1.024.013 21.835 0 39.526-17.781 39.526-39.726s-17.691-39.726-39.526-39.726c-21.834 0-39.525 17.781-39.525 39.726 0 18.682 14.008 34.652 31.291 38.898l-4.71-8.276-.19-.374-.041-.073c-11.139-5.358-19.94-16.929-19.94-30.175 0-18.389 14.819-33.284 33.115-33.284z" fill="url(#i)" opacity=".9"/><path d="m66.056 234.628c0 .08-.03.14-.09.18s-.12.08-.18.12c-.08.04-.17.07-.27.09-.16 0-.3-.01-.42-.03s-.26-.03-.42-.03c-.22 0-.66.13-1.32.39-.64.24-1.31.55-2.01.93s-1.33.78-1.89 1.2c-.54.42-.82.79-.84 1.11l.36 2.04c.1.52.18.99.24 1.41.08.42.13.63.15.63.04-.02.17-.1.39-.24.24-.16.53-.33.87-.51.34-.2.71-.41 1.11-.63.42-.22.82-.42 1.2-.6s.73-.33 1.05-.45.57-.18.75-.18c.14 0 .26.03.36.09.12.06.18.17.18.33 0 .12-.14.29-.42.51s-.63.46-1.05.72-.88.54-1.38.84c-.48.28-.93.55-1.35.81-.42.24-.77.47-1.05.69-.28.2-.42.35-.42.45s.03.42.09.96c.08.52.18 1.1.3 1.74.14.64.29 1.26.45 1.86.18.6.37 1.02.57 1.26.04.04.06.1.06.18 0 .12-.08.25-.24.39-.16.16-.3.24-.42.24-.16 0-.33-.15-.51-.45-.16-.3-.31-.68-.45-1.14s-.28-.95-.42-1.47c-.12-.52-.23-1.01-.33-1.47-.08-.46-.15-.84-.21-1.14s-.1-.45-.12-.45c-.06 0-.2.04-.42.12-.22.06-.45.09-.69.09-.18 0-.34-.07-.48-.21-.12-.16-.18-.32-.18-.48s.05-.3.15-.42.22-.23.36-.33.29-.19.45-.27.3-.16.42-.24l-.84-5.73c0-.16.03-.32.09-.48.06-.18.19-.27.39-.27.04 0 .1.05.18.15.08.08.14.12.18.12.06-.04.32-.24.78-.6.46-.38 1.02-.78 1.68-1.2.68-.44 1.4-.83 2.16-1.17.78-.36 1.5-.54 2.16-.54.26 0 .54.11.84.33s.45.47.45.75zm8.6381 12.96c.02.04.03.1.03.18 0 .12-.09.3-.27.54-.06.08-.19.21-.39.39s-.47.36-.81.54-.76.34-1.26.48c-.48.14-1.05.21-1.71.21-.46 0-.91-.1-1.35-.3-.44-.22-.83-.53-1.17-.93-.34-.42-.62-.93-.84-1.53-.22-.62-.33-1.34-.33-2.16 0-.78.1-1.51.3-2.19s.45-1.28.75-1.8c.32-.52.67-.93 1.05-1.23s.75-.45 1.11-.45c.32 0 .64.07.96.21.34.12.64.28.9.48.28.2.5.43.66.69.16.24.24.49.24.75 0 .3-.14.61-.42.93-.26.32-.58.62-.96.9-.38.26-.76.48-1.14.66-.38.16-.68.24-.9.24-.12 0-.23-.05-.33-.15-.08-.12-.12-.26-.12-.42 0-.28.12-.5.36-.66.26-.16.54-.3.84-.42.3-.14.57-.3.81-.48.26-.18.39-.43.39-.75 0-.04-.05-.14-.15-.3s-.37-.24-.81-.24c-.2 0-.43.12-.69.36-.26.22-.51.53-.75.93-.24.38-.44.84-.6 1.38-.16.52-.24 1.09-.24 1.71 0 .52.09.99.27 1.41.2.42.45.78.75 1.08.3.28.65.5 1.05.66s.81.24 1.23.24c.3 0 .62-.06.96-.18.36-.14.69-.28.99-.42.32-.16.59-.3.81-.42.24-.14.39-.21.45-.21s.12.03.18.09c.08.06.13.12.15.18zm16.069-3.09c0 .36-.17.81-.51 1.35-.32.52-.76 1.03-1.32 1.53s-1.21.93-1.95 1.29c-.74.34-1.51.51-2.31.51-.36 0-.74-.06-1.14-.18s-.79-.29-1.17-.51c-.38-.24-.72-.52-1.02-.84-.3-.34-.52-.72-.66-1.14-.12.12-.27.32-.45.6-.16.28-.34.57-.54.87-.2.28-.42.53-.66.75-.24.2-.49.3-.75.3s-.48-.13-.66-.39c-.16-.28-.29-.58-.39-.9-.1-.34-.17-.66-.21-.96s-.06-.47-.06-.51c0-.24.07-.69.21-1.35.14-.68.35-1.38.63-2.1s.63-1.36 1.05-1.92c.44-.56.95-.84 1.53-.84.22 0 .36.1.42.3.08.18.12.36.12.54v.9c.1.08.2.14.3.18.12.02.22.06.3.12.1.04.17.11.21.21.06.1.09.26.09.48 0 .14-.01.27-.03.39-.02.1-.03.2-.03.3 0 .52.04 1.03.12 1.53s.24.95.48 1.35c.24.38.57.7.99.96.42.24.98.36 1.68.36.88 0 1.62-.18 2.22-.54.62-.38 1.13-.79 1.53-1.23.42-.46.75-.87.99-1.23.24-.38.44-.57.6-.57.26 0 .39.13.39.39zm-10.53-1.32c0-.08-.02-.15-.06-.21-.04-.08-.06-.15-.06-.21 0-.08.02-.15.06-.21s.06-.14.06-.24c0-.06-.02-.1-.06-.12-.04-.04-.06-.08-.06-.12-.18.04-.37.21-.57.51-.18.3-.36.65-.54 1.05-.16.4-.29.81-.39 1.23-.1.4-.15.73-.15.99 0 .14.04.37.12.69s.17.53.27.63c.34-.7.65-1.38.93-2.04.3-.66.45-1.31.45-1.95zm18.5491-6c-.26.3-.63.6-1.11.9-.48.28-.96.54-1.44.78s-.9.45-1.26.63c-.36.16-.54.27-.54.33s.04.24.12.54.17.66.27 1.08c.12.4.24.82.36 1.26s.22.83.3 1.17c.04.2.09.46.15.78s.11.64.15.96c.06.32.11.61.15.87.04.24.06.37.06.39 0 .3-.05.61-.15.93s-.26.48-.48.48c-.12 0-.23-.05-.33-.15s-.19-.21-.27-.33c-.08-.14-.14-.27-.18-.39s-.06-.21-.06-.27c0-.04 0-.1 0-.18.02-.08.03-.17.03-.27 0-.38-.06-.93-.18-1.65-.04-.22-.12-.56-.24-1.02s-.24-.93-.36-1.41c-.14-.56-.3-1.17-.48-1.83-.08-.28-.13-.42-.15-.42-.14 0-.38.09-.72.27-.32.16-.69.37-1.11.63-.42.24-.86.51-1.32.81-.46.28-.89.55-1.29.81-.4.24-.74.45-1.02.63-.3.16-.48.24-.54.24-.26 0-.47-.09-.63-.27s-.24-.38-.24-.6c0-.12.17-.29.51-.51.32-.24.73-.5 1.23-.78.48-.28 1.01-.57 1.59-.87.56-.3 1.08-.57 1.56-.81.5-.24.91-.44 1.23-.6.34-.16.51-.24.51-.24-.18-.92-.33-1.74-.45-2.46-.1-.62-.2-1.19-.3-1.71-.08-.52-.12-.8-.12-.84 0-.26.05-.45.15-.57.12-.14.25-.21.39-.21.22 0 .36.15.42.45.22 1.08.42 2.04.6 2.88.2.84.39 1.52.57 2.04.18-.04.49-.15.93-.33.44-.2.9-.41 1.38-.63s.91-.41 1.29-.57c.4-.18.63-.27.69-.27.12 0 .19.04.21.12.04.08.08.15.12.21zm11.1998 8.58c0 .18-.12.37-.36.57s-.52.39-.84.57c-.32.16-.65.3-.99.42-.32.12-.56.18-.72.18-.18 0-.38-.05-.6-.15-.2-.1-.4-.22-.6-.36-.18-.14-.34-.27-.48-.39s-.23-.2-.27-.24c-.06.06-.15.18-.27.36s-.27.38-.45.6c-.16.2-.34.38-.54.54-.18.16-.37.24-.57.24-.52 0-.97-.28-1.35-.84s-.7-1.2-.96-1.92c-.24-.72-.43-1.41-.57-2.07-.12-.68-.18-1.14-.18-1.38 0-.14.07-.25.21-.33.16-.1.28-.15.36-.15.28 0 .47.1.57.3.1.18.15.38.15.6 0 .18.05.5.15.96.12.46.26.93.42 1.41s.33.91.51 1.29c.18.36.34.54.48.54.26 0 .48-.16.66-.48.2-.34.36-.72.48-1.14.12-.44.21-.85.27-1.23.06-.4.09-.66.09-.78 0-.02 0-.08 0-.18.02-.12.04-.24.06-.36s.03-.23.03-.33c.02-.1.03-.17.03-.21 0-.14-.03-.23-.09-.27-.06-.06-.09-.17-.09-.33 0-.12.06-.23.18-.33.12-.12.38-.18.78-.18.16 0 .28.05.36.15.1.08.17.18.21.3s.06.24.06.36c.02.1.03.17.03.21 0 .02-.01.16-.03.42s-.04.55-.06.87c0 .3-.01.59-.03.87s-.03.45-.03.51.03.18.09.36.13.37.21.57c.1.18.21.35.33.51.12.14.25.21.39.21.24 0 .46-.03.66-.09.22-.08.42-.16.6-.24.2-.1.38-.18.54-.24.16-.08.31-.12.45-.12.18 0 .34.04.48.12.16.08.24.18.24.3zm7.985-4.17c0 .14-.06.26-.18.36-.12.08-.26.15-.42.21s-.32.11-.48.15c-.16.02-.29.03-.39.03-.3 0-.5-.02-.6-.06s-.18-.06-.24-.06c-.5 0-.9.04-1.2.12s-.54.21-.72.39c-.16.18-.27.41-.33.69-.04.26-.06.58-.06.96 0 .64.02 1.15.06 1.53.06.38.11.69.15.93.06.24.11.43.15.57.06.12.09.24.09.36 0 .16-.09.33-.27.51-.16.18-.31.27-.45.27-.24 0-.46-.21-.66-.63-.18-.44-.34-.95-.48-1.53-.12-.6-.22-1.19-.3-1.77s-.12-1.02-.12-1.32c0-.34.03-.66.09-.96.06-.32.14-.59.24-.81.1-.24.21-.43.33-.57s.24-.21.36-.21c.1 0 .18.04.24.12.06.06.11.14.15.24.04.08.08.16.12.24.06.06.13.09.21.09.18 0 .47-.09.87-.27s.89-.27 1.47-.27c.54 0 .94.02 1.2.06.28.02.55.08.81.18.06.02.13.07.21.15.1.06.15.16.15.3zm10.452 6c.02.04.03.1.03.18 0 .12-.09.3-.27.54-.06.08-.19.21-.39.39s-.47.36-.81.54-.76.34-1.26.48c-.48.14-1.05.21-1.71.21-.46 0-.91-.1-1.35-.3-.44-.22-.83-.53-1.17-.93-.34-.42-.62-.93-.84-1.53-.22-.62-.33-1.34-.33-2.16 0-.78.1-1.51.3-2.19s.45-1.28.75-1.8c.32-.52.67-.93 1.05-1.23s.75-.45 1.11-.45c.32 0 .64.07.96.21.34.12.64.28.9.48.28.2.5.43.66.69.16.24.24.49.24.75 0 .3-.14.61-.42.93-.26.32-.58.62-.96.9-.38.26-.76.48-1.14.66-.38.16-.68.24-.9.24-.12 0-.23-.05-.33-.15-.08-.12-.12-.26-.12-.42 0-.28.12-.5.36-.66.26-.16.54-.3.84-.42.3-.14.57-.3.81-.48.26-.18.39-.43.39-.75 0-.04-.05-.14-.15-.3s-.37-.24-.81-.24c-.2 0-.43.12-.69.36-.26.22-.51.53-.75.93-.24.38-.44.84-.6 1.38-.16.52-.24 1.09-.24 1.71 0 .52.09.99.27 1.41.2.42.45.78.75 1.08.3.28.65.5 1.05.66s.81.24 1.23.24c.3 0 .62-.06.96-.18.36-.14.69-.28.99-.42.32-.16.59-.3.81-.42.24-.14.39-.21.45-.21s.12.03.18.09c.08.06.13.12.15.18zm23.751-18.36c.02.04.03.11.03.21v.33c0 .14-.05.21-.15.21-.04 0-.09-.01-.15-.03s-.11-.04-.15-.06c-.36-.16-.8-.36-1.32-.6-.5-.26-1.07-.39-1.71-.39-.72 0-1.3.27-1.74.81s-.78 1.17-1.02 1.89c-.22.7-.37 1.39-.45 2.07-.06.68-.09 1.17-.09 1.47 0 .22.03.57.09 1.05.08.46.18.94.3 1.44s.26.96.42 1.38c.16.4.32.65.48.75.12 0 .33-.01.63-.03.32-.02.58-.03.78-.03.34 0 .66.03.96.09s.61.09.93.09h.36c.16 0 .32.01.48.03.18.02.33.06.45.12.12.04.18.1.18.18 0 .1-.07.19-.21.27s-.3.15-.48.21c-.18.04-.36.07-.54.09s-.32.03-.42.03-.23 0-.39 0c-.16-.02-.34-.04-.54-.06-.18-.02-.36-.03-.54-.03-.16-.02-.3-.03-.42-.03-.32 0-.52.04-.6.12-.06.06-.09.19-.09.39 0 .3.13.71.39 1.23.28.5.58 1.04.9 1.62s.61 1.18.87 1.8c.28.62.42 1.19.42 1.71 0 .1-.03.29-.09.57-.04.26-.11.53-.21.81-.08.28-.2.53-.36.75s-.34.33-.54.33c-.16 0-.31-.04-.45-.12-.12-.1-.18-.26-.18-.48 0-.32.08-.62.24-.9.18-.28.27-.58.27-.9 0-.16-.08-.43-.24-.81-.14-.38-.32-.8-.54-1.26-.22-.48-.46-.98-.72-1.5s-.51-.99-.75-1.41c-.22-.44-.41-.8-.57-1.08s-.25-.43-.27-.45c-.4.14-.81.28-1.23.42s-.8.35-1.14.63c-.14.14-.27.21-.39.21-.2 0-.39-.08-.57-.24-.16-.16-.24-.34-.24-.54 0-.22.06-.39.18-.51.14-.14.27-.24.39-.3.18-.1.46-.21.84-.33s.76-.22 1.14-.3c.14-.04.27-.07.39-.09.12-.04.18-.11.18-.21-.06-.2-.15-.46-.27-.78-.1-.34-.21-.74-.33-1.2-.1-.46-.19-.97-.27-1.53-.08-.58-.12-1.2-.12-1.86 0-.72.08-1.48.24-2.28.18-.8.45-1.53.81-2.19.38-.68.85-1.23 1.41-1.65.56-.44 1.23-.66 2.01-.66.36 0 .76.04 1.2.12.44.06.84.16 1.2.3.38.12.69.28.93.48.26.18.39.39.39.63zm5.598 20.64c0 .16-.06.28-.18.36s-.26.12-.42.12c-.18 0-.37-.17-.57-.51-.18-.34-.36-.77-.54-1.29s-.35-1.08-.51-1.68c-.16-.62-.3-1.19-.42-1.71-.12-.54-.22-.99-.3-1.35-.06-.36-.09-.56-.09-.6 0-.08-.04-.29-.12-.63-.06-.34-.15-.87-.27-1.59-.1-.72-.22-1.65-.36-2.79-.12-1.16-.25-2.59-.39-4.29 0-.18.03-.41.09-.69s.2-.42.42-.42c.28 0 .49.19.63.57.16.38.28.85.36 1.41.1.56.17 1.15.21 1.77.04.6.09 1.13.15 1.59.08.64.15 1.22.21 1.74.08.52.15 1.04.21 1.56.08.5.17 1.03.27 1.59.12.56.26 1.18.42 1.86zm16.288-5.37c0 .36-.17.81-.51 1.35-.32.52-.76 1.03-1.32 1.53s-1.21.93-1.95 1.29c-.74.34-1.51.51-2.31.51-.36 0-.74-.06-1.14-.18s-.79-.29-1.17-.51c-.38-.24-.72-.52-1.02-.84-.3-.34-.52-.72-.66-1.14-.12.12-.27.32-.45.6-.16.28-.34.57-.54.87-.2.28-.42.53-.66.75-.24.2-.49.3-.75.3s-.48-.13-.66-.39c-.16-.28-.29-.58-.39-.9-.1-.34-.17-.66-.21-.96s-.06-.47-.06-.51c0-.24.07-.69.21-1.35.14-.68.35-1.38.63-2.1s.63-1.36 1.05-1.92c.44-.56.95-.84 1.53-.84.22 0 .36.1.42.3.08.18.12.36.12.54v.9c.1.08.2.14.3.18.12.02.22.06.3.12.1.04.17.11.21.21.06.1.09.26.09.48 0 .14-.01.27-.03.39-.02.1-.03.2-.03.3 0 .52.04 1.03.12 1.53s.24.95.48 1.35c.24.38.57.7.99.96.42.24.98.36 1.68.36.88 0 1.62-.18 2.22-.54.62-.38 1.13-.79 1.53-1.23.42-.46.75-.87.99-1.23.24-.38.44-.57.6-.57.26 0 .39.13.39.39zm-10.53-1.32c0-.08-.02-.15-.06-.21-.04-.08-.06-.15-.06-.21 0-.08.02-.15.06-.21s.06-.14.06-.24c0-.06-.02-.1-.06-.12-.04-.04-.06-.08-.06-.12-.18.04-.37.21-.57.51-.18.3-.36.65-.54 1.05-.16.4-.29.81-.39 1.23-.1.4-.15.73-.15.99 0 .14.04.37.12.69s.17.53.27.63c.34-.7.65-1.38.93-2.04.3-.66.45-1.31.45-1.95zm18.04 4.92c0 .22-.08.37-.24.45s-.24.19-.24.33c-.02-.02.02.09.12.33s.19.49.27.75c.14.54.26 1.01.36 1.41.12.4.21.77.27 1.11.08.34.14.68.18 1.02s.06.72.06 1.14-.07.85-.21 1.29-.34.83-.6 1.17-.58.62-.96.84-.81.33-1.29.33c-.74 0-1.33-.15-1.77-.45-.42-.3-.74-.64-.96-1.02s-.36-.76-.42-1.14c-.06-.36-.09-.6-.09-.72 0-.74.19-1.48.57-2.22s.8-1.41 1.26-2.01.88-1.1 1.26-1.5.57-.63.57-.69l-.33-.99c-.2.24-.38.51-.54.81-.14.28-.3.55-.48.81-.16.24-.36.45-.6.63-.22.16-.5.24-.84.24-.36 0-.72-.11-1.08-.33s-.68-.55-.96-.99-.51-.97-.69-1.59c-.16-.62-.24-1.34-.24-2.16 0-.46.07-1.03.21-1.71.14-.7.36-1.37.66-2.01s.67-1.18 1.11-1.62c.46-.46.99-.69 1.59-.69.34 0 .65.06.93.18.3.12.45.27.45.45 0 .16-.03.29-.09.39s-.14.2-.24.3c-.06-.04-.13-.08-.21-.12-.06-.04-.15-.06-.27-.06-.44 0-.84.2-1.2.6-.34.38-.63.86-.87 1.44-.24.56-.43 1.15-.57 1.77-.12.62-.18 1.16-.18 1.62 0 1.02.17 1.8.51 2.34.34.52.7.78 1.08.78.18 0 .37-.13.57-.39.22-.28.42-.58.6-.9.2-.34.37-.66.51-.96s.22-.48.24-.54c.04-.2.06-.43.06-.69 0-.22-.01-.46-.03-.72 0-.28 0-.56 0-.84 0-.52.04-.95.12-1.29.08-.36.28-.54.6-.54s.55.1.69.3c.14.18.21.4.21.66 0 .18-.01.4-.03.66v.72c0 .22-.01.42-.03.6v.3c0 .12.01.3.03.54.04.22.07.45.09.69.04.22.07.43.09.63.04.18.07.3.09.36s.05.15.09.27.08.21.12.27c.02-.04.06-.08.12-.12.06-.06.11-.11.15-.15.1.06.19.18.27.36.1.16.15.25.15.27zm-1.02 3.81c-.08-.32-.17-.64-.27-.96s-.2-.65-.3-.99c-.34.42-.67.82-.99 1.2-.3.4-.58.79-.84 1.17-.24.38-.44.77-.6 1.17-.14.42-.21.86-.21 1.32 0 .62.17 1.13.51 1.53.36.4.75.6 1.17.6.46 0 .89-.17 1.29-.51.42-.34.63-.83.63-1.47 0-.42-.01-.77-.03-1.05s-.05-.53-.09-.75c-.02-.2-.06-.4-.12-.6-.04-.18-.09-.4-.15-.66z" fill="#000"/><path d="m190.318 287.645c-.702 5.365-1.223 10.902 5.587 12.132 7.623 1.376 14.983.257 22.448.674 4.746.265 11.21.42 15.174 5.486 2.962 3.785 3.037 8.348 3.414 12.459" stroke="#000" stroke-linecap="round" stroke-linejoin="round"/><path d="m243.358 300.608c-3.236 5.184-3.121 11.612-5.859 16.921-.858 1.663-.743.679-.912-.228-.436-2.329-4.314-4.374-6.121-5.017-1.601-.569-11.007 2.054-1.99-1.8 8.427-5.735 16.062-9.047 14.386-9.025-5.325.069-8.843 7.336-12.62 10.252-5.016 3.872 4.795-4.123 8.148-5.088" stroke="#000" stroke-linecap="round" stroke-linejoin="round"/></g></svg>