<svg width="99" height="76" viewBox="0 0 99 76" fill="none" xmlns="http://www.w3.org/2000/svg">
<g clip-path="url(#clip0)">
<path d="M9.13606 75.8813L9.13144 75.9115C9.12596 75.8821 9.12068 75.8521 9.11567 75.8225C9.10651 75.7747 9.09856 75.7269 9.09107 75.6787C8.7938 73.7977 8.95739 71.8721 9.56767 70.069C9.68498 69.717 9.81858 69.3715 9.96849 69.0325C10.5418 67.7194 11.3545 66.5258 12.3647 65.5133C12.6927 65.1759 13.0669 64.8873 13.476 64.6562C13.5361 64.6242 13.5965 64.5939 13.6582 64.566C14.0366 64.3814 14.4626 64.3194 14.8776 64.3884C15.0283 64.4168 15.1744 64.4661 15.3117 64.5348C15.3598 64.5584 15.4062 64.5842 15.4517 64.6118C15.729 64.7946 15.9658 65.033 16.1473 65.312C16.3287 65.5911 16.4509 65.9048 16.5062 66.2335C16.585 66.7238 16.5669 67.2249 16.4531 67.7082C16.4433 67.7544 16.4328 67.8004 16.4216 67.8462C16.3409 68.1683 16.2395 68.4849 16.118 68.7938C14.9023 71.9379 12.2896 74.7275 9.13606 75.8813Z" fill="#F2F2F2"/>
<path d="M15.3037 64.5449C14.355 65.9151 13.4589 67.32 12.6153 68.7597C11.7727 70.1982 10.9852 71.6674 10.2528 73.1674C9.84309 74.0066 9.45129 74.8543 9.07741 75.7105C9.03601 75.8053 9.17566 75.8877 9.21759 75.7917C9.8853 74.2633 10.6099 72.7617 11.3914 71.2871C12.1724 69.8139 13.0083 68.3719 13.899 66.9612C14.3974 66.1719 14.9124 65.3935 15.4439 64.6261C15.5033 64.5403 15.3629 64.4594 15.3037 64.5449Z" fill="white"/>
<path d="M16.3187 67.7165C15.6058 68.6477 14.5565 69.2589 13.3982 69.4177C13.0751 69.462 12.748 69.4685 12.4233 69.4371C12.3195 69.4272 12.3188 69.5899 12.4217 69.5997C13.6298 69.7019 14.8292 69.3209 15.7595 68.5396C16.0205 68.3204 16.2552 68.0714 16.4589 67.7977C16.5212 67.7143 16.3806 67.6336 16.3187 67.7165Z" fill="white"/>
<path d="M10.2302 72.7678C10.0645 72.5305 9.92678 72.2746 9.81989 72.0053C9.57568 71.3913 9.489 70.7255 9.56781 70.069C9.68511 69.717 9.81872 69.3715 9.96863 69.0325C9.97771 69.0458 9.98317 69.0613 9.98448 69.0774C9.98579 69.0935 9.9829 69.1097 9.9761 69.1243C9.87054 69.3787 9.79466 69.6445 9.74996 69.9164C9.58951 70.886 9.81225 71.8802 10.3707 72.6871C10.3778 72.6959 10.3825 72.7064 10.3843 72.7176C10.3862 72.7287 10.3852 72.7402 10.3814 72.7508C10.3752 72.765 10.3654 72.7772 10.353 72.7864C10.3405 72.7955 10.326 72.8012 10.3107 72.8029C10.2954 72.8046 10.2799 72.8023 10.2658 72.7961C10.2517 72.79 10.2394 72.7802 10.2302 72.7678Z" fill="white"/>
<path d="M13.5002 64.5532C13.3051 65.3347 13.3632 66.1583 13.6661 66.9043C13.6768 66.9229 13.6944 66.9365 13.7151 66.9422C13.7357 66.9479 13.7578 66.9451 13.7764 66.9345C13.7947 66.9235 13.808 66.9058 13.8136 66.8851C13.8192 66.8645 13.8167 66.8424 13.8065 66.8236C13.5229 66.1158 13.4703 65.3358 13.6563 64.596C13.6611 64.5755 13.6578 64.5539 13.6471 64.5357C13.6364 64.5176 13.6191 64.5044 13.5988 64.4988C13.5786 64.4933 13.557 64.4958 13.5386 64.506C13.5202 64.5161 13.5064 64.5331 13.5002 64.5532H13.5002Z" fill="white"/>
<path d="M9.11615 71.9545L9.12597 71.9834C9.10757 71.96 9.08902 71.9358 9.07091 71.912C9.04071 71.8739 9.01155 71.8352 8.98267 71.7961C7.85007 70.2691 7.10504 68.4876 6.81214 66.6058C6.75336 66.2394 6.71199 65.871 6.68804 65.5008C6.5889 64.0703 6.75698 62.6339 7.18361 61.2656C7.31814 60.8137 7.51616 60.3833 7.77167 59.9876C7.81008 59.9313 7.84956 59.8762 7.89131 59.8227C8.14111 59.4826 8.48969 59.2287 8.88902 59.0961C9.03567 59.0509 9.18782 59.0264 9.34116 59.0231C9.39467 59.0215 9.44766 59.0227 9.50067 59.0259C9.83076 59.0583 10.1507 59.1588 10.4403 59.3212C10.7299 59.4836 10.9831 59.7044 11.184 59.9697C11.4804 60.3671 11.696 60.8193 11.8186 61.3004C11.8313 61.3459 11.8432 61.3915 11.8544 61.4373C11.9318 61.7603 11.9883 62.0879 12.0236 62.4182C12.4 65.7702 11.3755 69.4604 9.11615 71.9545Z" fill="#F2F2F2"/>
<path d="M9.3388 59.0358C9.13196 60.6921 8.98768 62.3547 8.90596 64.0235C8.82459 65.6907 8.80623 67.3595 8.85087 69.0298C8.8759 69.9642 8.92072 70.8979 8.98533 71.8307C8.99246 71.9339 9.15422 71.9417 9.147 71.8371C9.03192 70.1719 8.97965 68.5038 8.99019 66.833C9.001 65.1638 9.0748 63.4966 9.21158 61.8314C9.28816 60.8997 9.38445 59.97 9.50046 59.0423C9.51342 58.9385 9.35171 58.9324 9.3388 59.0358V59.0358Z" fill="white"/>
<path d="M11.7033 61.3705C11.5024 62.5279 10.8557 63.5592 9.90334 64.2406C9.63765 64.4307 9.35095 64.5892 9.04897 64.7129C8.95244 64.7527 9.02698 64.8971 9.12269 64.8577C10.2397 64.3841 11.1258 63.4867 11.5886 62.3605C11.7184 62.0445 11.8111 61.7145 11.865 61.3769C11.8817 61.274 11.7199 61.2682 11.7033 61.3705V61.3705Z" fill="white"/>
<path d="M8.64621 68.6864C8.38977 68.5537 8.14956 68.3914 7.93044 68.2028C7.43042 67.7731 7.04593 67.2239 6.81233 66.6058C6.75355 66.2393 6.71218 65.871 6.68823 65.5007C6.70244 65.5083 6.71443 65.5195 6.72304 65.5331C6.73164 65.5468 6.73655 65.5624 6.73729 65.5786C6.76137 65.8531 6.81701 66.1239 6.9031 66.3856C7.20912 67.3192 7.86588 68.0956 8.73333 68.5495C8.74366 68.554 8.75267 68.561 8.75949 68.57C8.76631 68.579 8.77072 68.5897 8.7723 68.6009C8.77329 68.6163 8.77025 68.6317 8.76347 68.6456C8.7567 68.6595 8.74642 68.6713 8.73367 68.68C8.72092 68.6886 8.70614 68.6938 8.6908 68.6949C8.67545 68.6961 8.66009 68.6931 8.64621 68.6864Z" fill="white"/>
<path d="M7.74549 59.8852C7.93386 60.6683 8.36597 61.3705 8.97893 61.8897C8.99704 61.9012 9.01893 61.9051 9.03984 61.9004C9.06075 61.8958 9.07901 61.8831 9.09065 61.865C9.10169 61.8467 9.10529 61.8248 9.10071 61.8039C9.09614 61.783 9.08372 61.7647 9.06605 61.7527C8.4878 61.2583 8.08071 60.5921 7.90348 59.8502C7.89827 59.8298 7.88537 59.8122 7.8675 59.8011C7.84962 59.79 7.82817 59.7864 7.80768 59.7909C7.78718 59.7955 7.76923 59.8078 7.75763 59.8254C7.74603 59.843 7.74167 59.8644 7.74549 59.8852L7.74549 59.8852Z" fill="white"/>
<path d="M9.18622 75.9013L9.20994 75.9203C9.1819 75.9106 9.15333 75.9003 9.12529 75.89C9.07945 75.8742 9.03417 75.8574 8.98885 75.8401C7.21635 75.1666 5.634 74.0688 4.37894 72.6418C4.13304 72.3648 3.90081 72.0769 3.68225 71.7779C2.83225 70.6263 2.20418 69.3249 1.83049 67.9411C1.70169 67.4875 1.63796 67.0177 1.64123 66.546C1.64339 66.4777 1.64716 66.41 1.65363 66.3422C1.68189 65.9205 1.83959 65.5179 2.10498 65.19C2.20434 65.0725 2.31939 64.9695 2.44685 64.8837C2.49106 64.8534 2.53637 64.8257 2.58274 64.7997C2.87823 64.6483 3.20163 64.5599 3.53269 64.5399C3.86376 64.52 4.19536 64.5689 4.50674 64.6837C4.96942 64.8581 5.39342 65.1224 5.75451 65.4615C5.78956 65.4929 5.82407 65.5249 5.85807 65.5574C6.09633 65.7876 6.3195 66.0331 6.52617 66.2924C8.63943 68.9129 9.7535 72.5768 9.18622 75.9013Z" fill="#F2F2F2"/>
<path d="M2.45153 64.8958C3.16473 66.4034 3.934 67.8823 4.75933 69.3326C5.58413 70.7815 6.46283 72.1975 7.39541 73.5807C7.91721 74.3545 8.45523 75.1169 9.00949 75.8679C9.07082 75.951 9.2113 75.87 9.14918 75.7858C8.15991 74.445 7.2221 73.0678 6.33573 71.6543C5.45042 70.242 4.61926 68.7973 3.84226 67.3202C3.40759 66.4937 2.99058 65.6583 2.59121 64.8137C2.54653 64.7193 2.40701 64.8017 2.45153 64.8958Z" fill="white"/>
<path d="M5.69505 65.5829C6.14595 66.667 6.15358 67.8859 5.71627 68.9756C5.59427 69.2796 5.43763 69.5683 5.2495 69.8361C5.18946 69.9218 5.32966 70.0031 5.38919 69.9181C6.07661 68.9144 6.34239 67.6787 6.12883 66.4792C6.06888 66.1427 5.97019 65.8144 5.83474 65.5009C5.79361 65.405 5.6542 65.4878 5.69505 65.5829Z" fill="white"/>
<path d="M7.03912 73.4022C6.7519 73.4292 6.46254 73.4224 6.17687 73.3822C5.52532 73.2908 4.9071 73.0362 4.37906 72.6418C4.13317 72.3648 3.90094 72.0769 3.68237 71.7779C3.6984 71.7766 3.71448 71.7795 3.72904 71.7863C3.74361 71.7931 3.75614 71.8037 3.76542 71.8169C3.93281 72.0352 4.1248 72.2332 4.33754 72.4071C5.09562 73.0281 6.06504 73.3268 7.03912 73.2396C7.05023 73.2378 7.06162 73.2389 7.07219 73.2428C7.08276 73.2467 7.09216 73.2532 7.09949 73.2618C7.1086 73.2743 7.1143 73.2889 7.11603 73.3043C7.11776 73.3197 7.11546 73.3352 7.10936 73.3494C7.10325 73.3636 7.09356 73.376 7.08123 73.3852C7.06891 73.3945 7.05439 73.4003 7.03912 73.4022Z" fill="white"/>
<path d="M1.56433 66.4738C2.14266 67.0317 2.88303 67.3895 3.6777 67.4952C3.72137 67.501 3.75817 67.4536 3.75858 67.4139C3.75808 67.3925 3.74939 67.3721 3.73433 67.3569C3.71927 67.3418 3.69899 67.3331 3.6777 67.3326C2.92557 67.229 2.2256 66.8881 1.67872 66.3589C1.60374 66.2862 1.48919 66.401 1.56432 66.4738H1.56433Z" fill="white"/>
<path d="M20.228 54.4563C20.386 54.3475 20.5183 54.2051 20.6156 54.0393C20.7129 53.8735 20.7729 53.6883 20.7913 53.4966C20.8097 53.305 20.7861 53.1117 20.7221 52.9302C20.6581 52.7488 20.5553 52.5836 20.4209 52.4464L20.9291 41.0442L18.3418 41.3361L18.4921 52.4891C18.2777 52.7312 18.1592 53.044 18.1589 53.3681C18.1587 53.6922 18.2767 54.0052 18.4907 54.2477C18.7047 54.4902 18.9997 54.6453 19.3199 54.6838C19.6401 54.7222 19.9632 54.6413 20.228 54.4563Z" fill="#FFB8B8"/>
<path d="M24.948 73.7577L26.4206 74.0179L27.8761 68.4327L25.9466 68.0487L24.948 73.7577Z" fill="#FFB8B8"/>
<path d="M29.0203 75.8941L24.3921 75.0763L24.7065 73.2791L27.5465 73.7809C27.7813 73.8224 28.0057 73.91 28.2068 74.0386C28.408 74.1673 28.582 74.3345 28.7188 74.5307C28.8557 74.727 28.9527 74.9484 29.0045 75.1823C29.0562 75.4162 29.0615 75.6581 29.0203 75.8941Z" fill="#2F2E41"/>
<path d="M20.9062 74.4986L22.4014 74.4985L23.1127 68.7019L20.906 68.702L20.9062 74.4986Z" fill="#FFB8B8"/>
<path d="M25.2849 75.8939L20.5858 75.8941L20.5857 74.0693L23.4693 74.0691C23.9508 74.0691 24.4126 74.2614 24.7531 74.6036C25.0936 74.9458 25.2849 75.4099 25.2849 75.8939L25.2849 75.8939Z" fill="#2F2E41"/>
<path d="M27.2666 72.9113C27.2432 72.9113 27.2199 72.9099 27.1967 72.9071L25.4369 72.7616C25.3568 72.7521 25.2794 72.7264 25.2095 72.6859C25.1395 72.6455 25.0785 72.5911 25.0301 72.5262C24.9818 72.4614 24.947 72.3873 24.928 72.3085C24.9089 72.2297 24.9061 72.1478 24.9195 72.0678L26.5445 62.9134L25.4465 57.094C25.4375 57.0467 25.4119 57.0043 25.3742 56.9745C25.3366 56.9448 25.2895 56.9297 25.2417 56.9321C25.1939 56.9345 25.1485 56.9542 25.114 56.9875C25.0795 57.0209 25.0581 57.0657 25.0539 57.1136L23.6812 72.6357C23.6661 72.7915 23.5914 72.9353 23.4729 73.0367C23.3543 73.1382 23.2012 73.1894 23.0458 73.1796L21.3878 73.1176C21.2425 73.1072 21.106 73.0438 21.0041 72.9392C20.9022 72.8346 20.8419 72.6961 20.8346 72.5499L20.7231 53.9461L29.3188 52.8662L29.9193 62.1873L29.9169 62.1972L27.8448 72.4541C27.8132 72.5844 27.7391 72.7002 27.6342 72.7831C27.5294 72.866 27.3999 72.9111 27.2666 72.9113Z" fill="#2F2E41"/>
<path d="M23.5572 33.6555C25.2115 33.6555 26.5526 32.3075 26.5526 30.6448C26.5526 28.982 25.2115 27.634 23.5572 27.634C21.9028 27.634 20.5618 28.982 20.5618 30.6448C20.5618 32.3075 21.9028 33.6555 23.5572 33.6555Z" fill="#FFB8B8"/>
<path d="M26.3796 55.3058C25.9111 55.3086 25.4516 55.1765 25.0555 54.9251C23.6045 54.0136 21.9565 54.3759 21.1032 54.673C21.0186 54.7028 20.9283 54.7129 20.8392 54.7027C20.75 54.6925 20.6643 54.6622 20.5885 54.614C20.5136 54.5667 20.4502 54.503 20.4032 54.4276C20.3562 54.3522 20.3268 54.2671 20.3172 54.1786L18.7656 40.2504C18.5056 37.9167 19.9042 35.7226 22.0911 35.0334C22.1733 35.0075 22.2568 34.9829 22.3418 34.9597C23.0223 34.7742 23.735 34.7409 24.4298 34.8621C25.1245 34.9833 25.7844 35.256 26.3629 35.6612C26.9523 36.0707 27.4451 36.6051 27.8069 37.2268C28.1686 37.8484 28.3903 38.5422 28.4566 39.2593L29.7628 53.2809C29.7717 53.3717 29.7595 53.4633 29.7272 53.5485C29.6948 53.6338 29.6433 53.7103 29.5765 53.7721C29.1186 54.1979 27.7896 55.3057 26.3796 55.3058Z" fill="#0278D5"/>
<path d="M21.6546 43.2372L18.154 42.8503C18.0544 42.8393 17.9584 42.8069 17.8724 42.7552C17.7864 42.7035 17.7125 42.6338 17.6557 42.5508C17.5989 42.4678 17.5606 42.3735 17.5434 42.2743C17.5261 42.1751 17.5304 42.0733 17.5558 41.9759L18.4468 38.5624C18.5057 38.0506 18.7642 37.5831 19.1655 37.2624C19.5669 36.9418 20.0783 36.7942 20.5878 36.852C21.0972 36.9099 21.563 37.1684 21.8831 37.5709C22.2032 37.9734 22.3515 38.487 22.2953 38.9992L22.4276 42.5143C22.4314 42.6149 22.4135 42.7152 22.3752 42.8083C22.3369 42.9013 22.2792 42.985 22.2058 43.0536C22.1324 43.1222 22.0452 43.1741 21.9501 43.2058C21.855 43.2375 21.7542 43.2482 21.6546 43.2372V43.2372Z" fill="#0278D5"/>
<path d="M29.7486 53.9681C29.8924 53.8409 30.0067 53.6836 30.0834 53.5072C30.1602 53.3308 30.1975 53.1396 30.1928 52.9472C30.1881 52.7547 30.1414 52.5656 30.0561 52.3933C29.9709 52.2209 29.849 52.0694 29.6992 51.9495L28.8366 40.5688L26.3013 41.1424L27.7895 52.2255C27.6057 52.4918 27.5256 52.8167 27.5642 53.1384C27.6028 53.4602 27.7575 53.7566 27.999 53.9714C28.2405 54.1862 28.552 54.3045 28.8744 54.3039C29.1969 54.3033 29.508 54.1838 29.7486 53.9681V53.9681Z" fill="#FFB8B8"/>
<path d="M25.3292 42.5218C25.2558 42.4532 25.198 42.3695 25.1597 42.2764C25.1215 42.1833 25.1036 42.0831 25.1074 41.9824L25.2397 38.4674C25.1836 37.9552 25.3318 37.4415 25.6519 37.039C25.972 36.6365 26.4379 36.378 26.9473 36.3202C27.4567 36.2624 27.9682 36.41 28.3695 36.7306C28.7708 37.0512 29.0293 37.5187 29.0882 38.0306L29.9793 41.444C30.0047 41.5414 30.0089 41.6432 29.9917 41.7424C29.9744 41.8416 29.9361 41.936 29.8794 42.0189C29.8226 42.1019 29.7487 42.1716 29.6627 42.2233C29.5767 42.275 29.4806 42.3075 29.381 42.3185L25.8804 42.7054C25.7808 42.7164 25.68 42.7057 25.5849 42.6741C25.4897 42.6424 25.4025 42.5904 25.3292 42.5218Z" fill="#0278D5"/>
<path d="M23.3791 33.7689C23.3258 33.7688 23.2727 33.7626 23.2209 33.7503L23.2057 33.7466C20.5721 33.3417 19.9901 31.8084 19.8623 31.1681C19.7301 30.5052 19.8807 29.8653 20.2209 29.6168C20.0354 29.0281 20.0652 28.5061 20.3096 28.0646C20.7359 27.2948 21.661 27.0345 21.7851 27.0027C22.5239 26.4548 23.4079 26.8205 23.5687 26.8947C24.9979 26.3632 25.5441 26.8056 25.6429 26.9044C26.2818 27.0197 26.6712 27.2678 26.8005 27.6418C27.0433 28.3443 26.2754 29.2181 26.2426 29.255L26.2255 29.2741L25.0816 29.3289C24.973 29.3341 24.8668 29.3622 24.7697 29.4113C24.6727 29.4604 24.587 29.5295 24.5182 29.6141C24.4494 29.6987 24.3991 29.7968 24.3705 29.9022C24.3419 30.0076 24.3356 30.1178 24.3521 30.2258C24.3831 30.3651 24.4222 30.5024 24.4693 30.6371C24.6646 31.2508 24.811 31.775 24.6222 31.9744C24.5794 32.0129 24.5267 32.0386 24.4701 32.0485C24.4135 32.0583 24.3552 32.052 24.302 32.0301C24.1232 31.9821 24.0017 31.9922 23.9412 32.0601C23.8473 32.1655 23.876 32.4321 24.022 32.811C24.0678 32.9308 24.0801 33.0609 24.0576 33.1872C24.0352 33.3136 23.9787 33.4313 23.8944 33.5277C23.831 33.603 23.752 33.6635 23.6631 33.7051C23.5741 33.7468 23.4772 33.7685 23.3791 33.7689Z" fill="#2F2E41"/>
<path d="M58.7542 43.3935H43.9973C43.4477 43.3929 42.9207 43.1732 42.532 42.7825C42.1433 42.3918 41.9247 41.8621 41.9241 41.3097V19.0206C41.9247 18.4682 42.1433 17.9385 42.532 17.5478C42.9207 17.1571 43.4477 16.9374 43.9973 16.9368H58.7542C59.3038 16.9374 59.8308 17.1571 60.2195 17.5478C60.6082 17.9385 60.8268 18.4682 60.8274 19.0206V41.3097C60.8268 41.8621 60.6082 42.3918 60.2195 42.7825C59.8308 43.1732 59.3038 43.3929 58.7542 43.3935ZM43.9973 17.1819C43.5123 17.1825 43.0473 17.3764 42.7044 17.7211C42.3614 18.0658 42.1685 18.5332 42.168 19.0206V41.3097C42.1685 41.7971 42.3614 42.2645 42.7044 42.6092C43.0473 42.9539 43.5123 43.1478 43.9973 43.1484H58.7542C59.2392 43.1478 59.7042 42.9539 60.0471 42.6092C60.3901 42.2645 60.583 41.7971 60.5835 41.3097V19.0206C60.583 18.5332 60.3901 18.0658 60.0471 17.7211C59.7042 17.3764 59.2392 17.1825 58.7542 17.1819H43.9973Z" fill="#3F3D56"/>
<path d="M56.4978 27.6523H46.2534C45.9786 27.652 45.7151 27.5421 45.5208 27.3468C45.3264 27.1514 45.2171 26.8866 45.2168 26.6104V21.7071C45.2171 21.4309 45.3264 21.166 45.5208 20.9707C45.7151 20.7754 45.9786 20.6655 46.2534 20.6652H56.4978C56.7727 20.6655 57.0362 20.7754 57.2305 20.9707C57.4248 21.1661 57.5342 21.4309 57.5345 21.7071V26.6104C57.5342 26.8866 57.4248 27.1514 57.2305 27.3468C57.0362 27.5421 56.7727 27.652 56.4978 27.6523Z" fill="#0278D5"/>
<path d="M55.7661 32.249H46.9852C46.7264 32.249 46.4783 32.1457 46.2953 31.9618C46.1123 31.7779 46.0095 31.5285 46.0095 31.2684C46.0095 31.0083 46.1123 30.7589 46.2953 30.575C46.4783 30.3911 46.7264 30.2878 46.9852 30.2878H55.7661C56.0249 30.2878 56.273 30.3911 56.456 30.575C56.639 30.7589 56.7417 31.0083 56.7417 31.2684C56.7417 31.5285 56.639 31.7779 56.456 31.9618C56.273 32.1457 56.0249 32.249 55.7661 32.249Z" fill="#CCCCCC"/>
<path d="M55.7661 35.9265H46.9852C46.7264 35.9265 46.4783 35.8232 46.2953 35.6392C46.1123 35.4553 46.0095 35.2059 46.0095 34.9458C46.0095 34.6857 46.1123 34.4363 46.2953 34.2524C46.4783 34.0685 46.7264 33.9652 46.9852 33.9652H55.7661C56.0249 33.9652 56.273 34.0685 56.456 34.2524C56.639 34.4363 56.7417 34.6857 56.7417 34.9458C56.7417 35.2059 56.639 35.4553 56.456 35.6392C56.273 35.8232 56.0249 35.9265 55.7661 35.9265Z" fill="#CCCCCC"/>
<path d="M55.7661 39.6039H46.9852C46.7264 39.6039 46.4783 39.5006 46.2953 39.3167C46.1123 39.1328 46.0095 38.8833 46.0095 38.6233C46.0095 38.3632 46.1123 38.1137 46.2953 37.9298C46.4783 37.7459 46.7264 37.6426 46.9852 37.6426H55.7661C56.0249 37.6426 56.273 37.7459 56.456 37.9298C56.639 38.1137 56.7417 38.3632 56.7417 38.6233C56.7417 38.8833 56.639 39.1328 56.456 39.3167C56.273 39.5006 56.0249 39.6039 55.7661 39.6039Z" fill="#CCCCCC"/>
<path d="M94.7315 55.8968H79.9746C79.425 55.8961 78.898 55.6764 78.5093 55.2857C78.1206 54.8951 77.902 54.3654 77.9014 53.8129V31.5239C77.902 30.9714 78.1206 30.4417 78.5093 30.051C78.898 29.6604 79.425 29.4406 79.9746 29.44H94.7315C95.2811 29.4406 95.8081 29.6604 96.1968 30.051C96.5855 30.4417 96.8041 30.9714 96.8047 31.5239V53.8129C96.8041 54.3654 96.5855 54.8951 96.1968 55.2857C95.8081 55.6764 95.2811 55.8961 94.7315 55.8968ZM79.9746 29.6852C79.4896 29.6857 79.0246 29.8796 78.6817 30.2243C78.3387 30.569 78.1458 31.0364 78.1453 31.5239V53.8129C78.1458 54.3004 78.3387 54.7677 78.6817 55.1125C79.0246 55.4572 79.4896 55.6511 79.9746 55.6516H94.7315C95.2165 55.6511 95.6814 55.4572 96.0244 55.1125C96.3673 54.7677 96.5603 54.3004 96.5608 53.8129V31.5239C96.5603 31.0364 96.3673 30.569 96.0244 30.2243C95.6814 29.8796 95.2165 29.6857 94.7315 29.6852H79.9746Z" fill="#3F3D56"/>
<path d="M91.7436 34.9458H82.9627C82.704 34.9458 82.4558 34.8425 82.2728 34.6586C82.0899 34.4747 81.9871 34.2253 81.9871 33.9652C81.9871 33.7051 82.0899 33.4557 82.2728 33.2718C82.4558 33.0879 82.704 32.9845 82.9627 32.9845H91.7436C92.0024 32.9845 92.2506 33.0879 92.4335 33.2718C92.6165 33.4557 92.7193 33.7051 92.7193 33.9652C92.7193 34.2253 92.6165 34.4747 92.4335 34.6586C92.2506 34.8425 92.0024 34.9458 91.7436 34.9458Z" fill="#CCCCCC"/>
<path d="M91.7436 38.6233H82.9627C82.704 38.6233 82.4558 38.5199 82.2728 38.336C82.0899 38.1521 81.9871 37.9027 81.9871 37.6426C81.9871 37.3825 82.0899 37.1331 82.2728 36.9492C82.4558 36.7653 82.704 36.662 82.9627 36.662H91.7436C92.0024 36.662 92.2506 36.7653 92.4335 36.9492C92.6165 37.1331 92.7193 37.3825 92.7193 37.6426C92.7193 37.9027 92.6165 38.1521 92.4335 38.336C92.2506 38.5199 92.0024 38.6233 91.7436 38.6233Z" fill="#CCCCCC"/>
<path d="M92.4754 48.0006H82.231C81.9561 48.0003 81.6927 47.8904 81.4983 47.6951C81.304 47.4997 81.1947 47.2349 81.1943 46.9587V42.0555C81.1947 41.7792 81.304 41.5144 81.4983 41.3191C81.6927 41.1237 81.9561 41.0138 82.231 41.0135H92.4754C92.7502 41.0138 93.0137 41.1237 93.208 41.3191C93.4024 41.5144 93.5117 41.7792 93.512 42.0555V46.9587C93.5117 47.2349 93.4024 47.4997 93.208 47.6951C93.0137 47.8904 92.7502 48.0003 92.4754 48.0006Z" fill="#E6E6E6"/>
<path d="M91.7436 52.3523H82.9627C82.704 52.3523 82.4558 52.249 82.2728 52.0651C82.0899 51.8811 81.9871 51.6317 81.9871 51.3716C81.9871 51.1116 82.0899 50.8621 82.2728 50.6782C82.4558 50.4943 82.704 50.391 82.9627 50.391H91.7436C92.0024 50.391 92.2506 50.4943 92.4335 50.6782C92.6165 50.8621 92.7193 51.1116 92.7193 51.3716C92.7193 51.6317 92.6165 51.8811 92.4335 52.0651C92.2506 52.249 92.0024 52.3523 91.7436 52.3523Z" fill="#CCCCCC"/>
<path d="M85.7066 20.471H70.9497C70.4001 20.4703 69.8731 20.2506 69.4844 19.8599C69.0957 19.4693 68.8771 18.9396 68.8765 18.3871V4.55613C68.8771 4.00364 69.0957 3.47396 69.4844 3.0833C69.8731 2.69263 70.4001 2.47288 70.9497 2.47226H85.7066C86.2562 2.47288 86.7832 2.69263 87.1719 3.0833C87.5606 3.47396 87.7792 4.00364 87.7798 4.55613V18.3871C87.7792 18.9396 87.5606 19.4693 87.1719 19.8599C86.7832 20.2506 86.2562 20.4703 85.7066 20.471ZM70.9497 2.71742C70.4647 2.71797 69.9997 2.91187 69.6568 3.25658C69.3138 3.60128 69.1209 4.06864 69.1204 4.55613V18.3871C69.1209 18.8746 69.3138 19.3419 69.6568 19.6866C69.9997 20.0314 70.4647 20.2253 70.9497 20.2258H85.7066C86.1916 20.2253 86.6566 20.0314 86.9995 19.6866C87.3425 19.3419 87.5354 18.8746 87.5359 18.3871V4.55613C87.5354 4.06864 87.3425 3.60128 86.9995 3.25658C86.6566 2.91187 86.1916 2.71797 85.7066 2.71742H70.9497Z" fill="#3F3D56"/>
<path d="M82.7187 16.1297H73.9378C73.6791 16.1297 73.4309 16.0264 73.2479 15.8425C73.0649 15.6586 72.9622 15.4091 72.9622 15.149C72.9622 14.889 73.0649 14.6395 73.2479 14.4556C73.4309 14.2717 73.6791 14.1684 73.9378 14.1684H82.7187C82.9775 14.1684 83.2257 14.2717 83.4086 14.4556C83.5916 14.6395 83.6944 14.889 83.6944 15.149C83.6944 15.4091 83.5916 15.6586 83.4086 15.8425C83.2257 16.0264 82.9775 16.1297 82.7187 16.1297Z" fill="#CCCCCC"/>
<path d="M82.7187 12.4523H73.9378C73.6791 12.4523 73.4309 12.349 73.2479 12.165C73.0649 11.9811 72.9622 11.7317 72.9622 11.4716C72.9622 11.2115 73.0649 10.9621 73.2479 10.7782C73.4309 10.5943 73.6791 10.491 73.9378 10.491H82.7187C82.9775 10.491 83.2257 10.5943 83.4086 10.7782C83.5916 10.9621 83.6944 11.2115 83.6944 11.4716C83.6944 11.7317 83.5916 11.9811 83.4086 12.165C83.2257 12.349 82.9775 12.4523 82.7187 12.4523Z" fill="#CCCCCC"/>
<path d="M82.7187 8.77486H73.9378C73.6791 8.77486 73.4309 8.67154 73.2479 8.48764C73.0649 8.30373 72.9622 8.0543 72.9622 7.79421C72.9622 7.53413 73.0649 7.2847 73.2479 7.10079C73.4309 6.91689 73.6791 6.81357 73.9378 6.81357H82.7187C82.9775 6.81357 83.2257 6.91689 83.4086 7.10079C83.5916 7.2847 83.6944 7.53413 83.6944 7.79421C83.6944 8.0543 83.5916 8.30373 83.4086 8.48764C83.2257 8.67154 82.9775 8.77486 82.7187 8.77486Z" fill="#CCCCCC"/>
<path d="M59.6077 20.3484C61.1569 20.3484 62.4128 19.0861 62.4128 17.529C62.4128 15.9719 61.1569 14.7097 59.6077 14.7097C58.0586 14.7097 56.8027 15.9719 56.8027 17.529C56.8027 19.0861 58.0586 20.3484 59.6077 20.3484Z" fill="#0278D5"/>
<path d="M59.3297 18.6045C59.2665 18.6047 59.2051 18.5842 59.1546 18.5461L59.1515 18.5437L58.4923 18.0365C58.4616 18.013 58.4358 17.9837 58.4164 17.9502C58.3971 17.9167 58.3844 17.8797 58.3793 17.8413C58.3742 17.8029 58.3767 17.7639 58.3866 17.7264C58.3965 17.689 58.4137 17.6539 58.4371 17.6231C58.4605 17.5924 58.4898 17.5666 58.5232 17.5472C58.5566 17.5278 58.5934 17.5153 58.6317 17.5103C58.6699 17.5053 58.7087 17.5079 58.7459 17.518C58.7831 17.5281 58.818 17.5455 58.8485 17.5691L59.2755 17.8982L60.2845 16.5756C60.3079 16.5449 60.3371 16.5192 60.3704 16.4998C60.4037 16.4805 60.4405 16.4679 60.4786 16.4629C60.5167 16.4578 60.5555 16.4603 60.5926 16.4703C60.6298 16.4803 60.6646 16.4976 60.6951 16.5211L60.6889 16.5297L60.6953 16.5212C60.7569 16.5688 60.7971 16.6389 60.8073 16.7163C60.8175 16.7937 60.7967 16.8719 60.7495 16.9339L59.5627 18.4897C59.5352 18.5255 59.4999 18.5545 59.4595 18.5744C59.4191 18.5944 59.3747 18.6047 59.3297 18.6045Z" fill="white"/>
<path d="M96.1949 32.9742C97.7441 32.9742 98.9999 31.7119 98.9999 30.1548C98.9999 28.5977 97.7441 27.3355 96.1949 27.3355C94.6457 27.3355 93.3899 28.5977 93.3899 30.1548C93.3899 31.7119 94.6457 32.9742 96.1949 32.9742Z" fill="#3F3D56"/>
<path d="M95.9171 31.2304C95.8539 31.2305 95.7925 31.21 95.742 31.1719L95.7389 31.1696L95.0797 30.6623C95.049 30.6388 95.0232 30.6095 95.0038 30.576C94.9845 30.5425 94.9718 30.5055 94.9667 30.4671C94.9616 30.4287 94.9641 30.3897 94.974 30.3523C94.9839 30.3148 95.0011 30.2797 95.0245 30.249C95.0479 30.2182 95.0772 30.1924 95.1106 30.173C95.144 30.1537 95.1808 30.1411 95.2191 30.1361C95.2573 30.1311 95.2961 30.1337 95.3333 30.1438C95.3705 30.1539 95.4054 30.1713 95.4359 30.195L95.8629 30.524L96.8719 29.2014C96.8953 29.1707 96.9245 29.145 96.9578 29.1256C96.9911 29.1063 97.0279 29.0937 97.066 29.0887C97.1041 29.0836 97.1429 29.0862 97.18 29.0962C97.2172 29.1061 97.252 29.1234 97.2825 29.1469L97.2763 29.1555L97.2827 29.147C97.3443 29.1946 97.3845 29.2648 97.3947 29.3421C97.4049 29.4195 97.3841 29.4978 97.3369 29.5598L96.1501 31.1155C96.1226 31.1513 96.0873 31.1803 96.0469 31.2003C96.0065 31.2202 95.9621 31.2305 95.9171 31.2304Z" fill="white"/>
<path d="M87.2921 5.63871C88.8412 5.63871 90.0971 4.37644 90.0971 2.81936C90.0971 1.26227 88.8412 0 87.2921 0C85.7429 0 84.4871 1.26227 84.4871 2.81936C84.4871 4.37644 85.7429 5.63871 87.2921 5.63871Z" fill="#3F3D56"/>
<path d="M87.014 3.89488C86.9509 3.895 86.8894 3.87448 86.8389 3.83644L86.8358 3.83407L86.1766 3.32679C86.1459 3.30333 86.1202 3.27402 86.1008 3.24053C86.0814 3.20705 86.0688 3.17004 86.0636 3.13164C86.0585 3.09324 86.061 3.0542 86.0709 3.01676C86.0808 2.97932 86.098 2.94422 86.1214 2.91346C86.1449 2.88271 86.1741 2.85691 86.2075 2.83754C86.2409 2.81817 86.2778 2.80562 86.316 2.80061C86.3542 2.79559 86.393 2.79821 86.4303 2.80831C86.4675 2.81841 86.5023 2.83579 86.5329 2.85946L86.9598 3.18854L87.9689 1.86591C87.9923 1.83523 88.0214 1.80949 88.0547 1.79015C88.088 1.77081 88.1248 1.75825 88.1629 1.75319C88.2011 1.74813 88.2398 1.75067 88.277 1.76066C88.3141 1.77065 88.349 1.7879 88.3795 1.81143L88.3732 1.81999L88.3796 1.81155C88.4412 1.85911 88.4815 1.92927 88.4916 2.00664C88.5018 2.08401 88.481 2.16228 88.4338 2.22426L87.247 3.77999C87.2195 3.81584 87.1842 3.84486 87.1438 3.86478C87.1034 3.8847 87.059 3.895 87.014 3.89488Z" fill="white"/>
<path d="M46.5877 76H0.121957C0.0896122 76 0.0585918 75.9871 0.0357204 75.9641C0.0128489 75.9411 0 75.9099 0 75.8774C0 75.8449 0.0128489 75.8137 0.0357204 75.7908C0.0585918 75.7678 0.0896122 75.7549 0.121957 75.7549H46.5877C46.62 75.7549 46.651 75.7678 46.6739 75.7908C46.6968 75.8137 46.7096 75.8449 46.7096 75.8774C46.7096 75.9099 46.6968 75.9411 46.6739 75.9641C46.651 75.9871 46.62 76 46.5877 76Z" fill="#3F3D56"/>
</g>
<defs>
<clipPath id="clip0">
<rect width="99" height="76" fill="white"/>
</clipPath>
</defs>
</svg>
