<svg width="245" height="112" viewBox="0 0 245 153" fill="none" xmlns="http://www.w3.org/2000/svg"><path opacity=".5" d="M104.174 62.303c0 23.053-18.519 41.741-41.362 41.741-22.843 0-41.36-18.688-41.36-41.74 0-23.053 18.517-41.742 41.36-41.742 22.844 0 41.362 18.689 41.362 41.741Z" fill="#2BB1F2"/><path d="M54.907 67.827 37.876 94.222c13.138 13.259 37.508 9.208 48.051 5.525C80.25 89.72 69.747 69.3 73.154 67.827c4.258-1.841 12.49-10.105 8.516-18.415-8.516-17.801-24.24-16.625-34.063-4.91-6.69 7.98.812 18.62 7.3 23.325Z" fill="#fff"/><path fill-rule="evenodd" clip-rule="evenodd" d="M65.114 36.072c-6.15-.462-12.484 2.723-17.368 8.548-3.287 3.92-3.097 8.495-1.265 12.7 1.834 4.21 5.308 8.021 8.531 10.36l.14.101-17.044 26.417c6.516 6.502 15.787 8.774 24.77 8.957 8.91.181 17.507-1.695 22.781-3.509-2.834-5.017-6.816-12.524-9.692-18.99-1.456-3.274-2.632-6.29-3.23-8.583-.298-1.144-.457-2.123-.428-2.869.028-.737.245-1.316.772-1.544 2.091-.905 5.187-3.404 7.263-6.712 2.074-3.302 3.111-7.377 1.16-11.456-4.237-8.858-10.248-12.96-16.39-13.42Zm.027-.366c6.305.473 12.414 4.685 16.692 13.627 2.024 4.232.933 8.444-1.18 11.811-2.112 3.363-5.261 5.915-7.428 6.852-.324.14-.525.521-.552 1.222-.026.692.121 1.629.417 2.763.59 2.263 1.756 5.256 3.21 8.525 2.906 6.535 6.948 14.14 9.785 19.15l.108.192-.207.073c-5.288 1.847-14.038 3.785-23.116 3.601-9.076-.185-18.508-2.493-25.125-9.17l-.104-.105 17.017-26.373c-3.224-2.376-6.672-6.187-8.511-10.408-1.868-4.286-2.084-9.022 1.32-13.082 4.938-5.89 11.377-9.15 17.674-8.678Z" fill="#000"/><path fill-rule="evenodd" clip-rule="evenodd" d="M63.81 35.915c6.673.15 13.371 3.117 17.032 8.911 2.413 3.817 2.547 9.92.859 15.017-1.685 5.087-5.305 9.486-10.682 9.498-6.523.483-11.545-.066-15.366-1.498.234.11.47.218.708.32a.616.616 0 0 1 .32.806.606.606 0 0 1-.8.323c-4.635-2.005-8.812-5.537-10.915-9.97-2.119-4.468-2.1-9.798 1.584-15.251 3.81-5.64 10.587-8.305 17.26-8.156ZM48.033 61.927c-1.92-2.943-2.825-6.589-3.136-10.676-.404 2.7.077 5.247 1.166 7.542a16.217 16.217 0 0 0 1.97 3.134Zm-2.05-14.35c.001 6.708 1.166 12.17 4.772 15.785 3.6 3.61 9.785 5.527 20.196 4.754a.556.556 0 0 1 .045-.002c4.613 0 7.931-3.773 9.55-8.66 1.618-4.885 1.418-10.568-.73-13.968-3.394-5.371-9.667-8.2-16.035-8.343-6.368-.143-12.703 2.404-16.226 7.62-.64.947-1.161 1.886-1.572 2.814Z" fill="#000"/><path fill-rule="evenodd" clip-rule="evenodd" d="M46.4 43.967c3.853-5.703 10.695-8.386 17.413-8.235 6.72.15 13.482 3.138 17.183 8.995 2.452 3.88 2.576 10.045.878 15.174-1.694 5.115-5.358 9.607-10.848 9.624-5.84.43-10.492.04-14.165-1.08a.801.801 0 0 1-.013.596.788.788 0 0 1-1.038.42c-4.666-2.02-8.883-5.578-11.008-10.06-2.148-4.528-2.123-9.927 1.598-15.434Zm17.405-7.869c-6.627-.148-13.337 2.5-17.104 8.075-3.648 5.4-3.661 10.661-1.57 15.07 2.08 4.384 6.218 7.889 10.823 9.88a.424.424 0 0 0 .559-.226.432.432 0 0 0-.224-.565c-.24-.104-.477-.212-.714-.323a.184.184 0 0 1-.09-.237.182.182 0 0 1 .232-.101c3.787 1.42 8.78 1.969 15.289 1.487h.013c5.26-.012 8.834-4.317 10.509-9.373 1.678-5.066 1.533-11.106-.84-14.86-3.62-5.732-10.255-8.678-16.883-8.827Zm-.027 1.227c-6.322-.141-12.59 2.388-16.072 7.54a18.012 18.012 0 0 0-1.54 2.751c.006 6.677 1.173 12.061 4.719 15.616 3.544 3.554 9.663 5.472 20.054 4.7a.8.8 0 0 1 .058-.002c4.496 0 7.769-3.678 9.377-8.535 1.608-4.853 1.398-10.474-.711-13.81-3.354-5.309-9.563-8.118-15.885-8.26ZM47.405 44.66c3.566-5.279 9.967-7.844 16.381-7.7 6.414.144 12.75 2.994 16.185 8.429 2.187 3.461 2.377 9.207.749 14.123-1.629 4.919-4.994 8.786-9.723 8.786l-.032.001c-10.431.775-16.682-1.141-20.338-4.806-3.659-3.67-4.824-9.195-4.825-15.915 0-.026.005-.051.016-.075.415-.938.941-1.887 1.587-2.843Zm-2.5 6.409a.183.183 0 0 1 .175.169c.31 4.07 1.21 7.682 3.106 10.59a.184.184 0 0 1-.045.248.182.182 0 0 1-.25-.033 16.4 16.4 0 0 1-1.992-3.17c-1.102-2.325-1.591-4.91-1.18-7.648a.183.183 0 0 1 .186-.156Zm.037 2.338c.255 1.874.663 3.642 1.27 5.273-.773-1.642-1.231-3.412-1.27-5.273Z" fill="#000"/><path fill-rule="evenodd" clip-rule="evenodd" d="M54.666 67.955a.617.617 0 0 1 .114.86c-3.473 4.577-5.901 8.544-8.26 12.579-.437.746-.872 1.495-1.31 2.251-1.93 3.33-3.938 6.793-6.54 10.731a.605.605 0 0 1-.844.17.617.617 0 0 1-.168-.85c2.58-3.906 4.567-7.334 6.496-10.661.44-.759.877-1.512 1.317-2.265 2.37-4.053 4.827-8.068 8.343-12.701a.605.605 0 0 1 .852-.114Z" fill="#000"/><path fill-rule="evenodd" clip-rule="evenodd" d="M53.669 67.956a.786.786 0 0 1 1.108-.148.802.802 0 0 1 .147 1.117c-3.466 4.569-5.89 8.528-8.248 12.56-.436.746-.87 1.495-1.309 2.252-1.93 3.33-3.94 6.797-6.546 10.74a.786.786 0 0 1-1.096.22.801.801 0 0 1-.22-1.104c2.578-3.901 4.562-7.324 6.492-10.652.44-.758.877-1.512 1.317-2.266 2.371-4.054 4.833-8.077 8.355-12.719Zm.886.143a.423.423 0 0 0-.597.08c-3.508 4.625-5.961 8.633-8.33 12.683-.44.752-.877 1.505-1.316 2.264l-.001.001c-1.93 3.327-3.919 6.758-6.502 10.669a.433.433 0 0 0 .118.597c.196.132.46.078.59-.12 2.6-3.933 4.605-7.392 6.535-10.721.439-.756.873-1.506 1.31-2.253 2.36-4.037 4.794-8.011 8.273-12.596a.434.434 0 0 0-.08-.604ZM72.253 68.608a.607.607 0 0 1 .783.359c3.873 10.422 7.906 20.383 13.158 30.1.161.299.052.671-.243.834a.606.606 0 0 1-.825-.245c-5.293-9.794-9.35-19.818-13.229-30.258a.616.616 0 0 1 .356-.79Z" fill="#000"/><path fill-rule="evenodd" clip-rule="evenodd" d="M72.189 68.435a.789.789 0 0 1 1.018.466c3.872 10.42 7.9 20.371 13.147 30.078a.8.8 0 0 1-.315 1.081.786.786 0 0 1-1.073-.318c-5.3-9.805-9.36-19.838-13.24-30.281a.8.8 0 0 1 .463-1.026Zm.676.595a.425.425 0 0 0-.548-.252.432.432 0 0 0-.25.554C75.948 79.77 80 89.784 85.287 99.567a.424.424 0 0 0 .578.172.433.433 0 0 0 .17-.585c-5.259-9.73-9.295-19.7-13.169-30.124Z" fill="#000"/><path fill-rule="evenodd" clip-rule="evenodd" d="M42.514 24.289c15.35-6.197 28.736-6.166 43.092 1.647a.58.58 0 0 1 .053.032c13.61 9.316 20.833 19.037 23.546 28.405 2.715 9.377.885 18.31-3.439 25.982-4.318 7.663-11.13 14.082-18.426 18.488-7.287 4.399-15.127 6.83-21.525 6.427-25.169-1.588-43.731-17.998-44.97-39.863a.584.584 0 0 1-.001-.035c0-12.5 8.026-29.894 25.253-39.434a.605.605 0 0 1 .825.243.617.617 0 0 1-.24.833c-16.828 9.32-24.615 26.288-24.622 38.34 1.205 21.095 19.132 37.133 43.831 38.691 6.072.383 13.666-1.934 20.824-6.256 7.15-4.317 13.796-10.593 17.994-18.04 4.192-7.44 5.935-16.03 3.328-25.031-2.608-9.005-9.594-18.51-23.036-27.716-13.974-7.597-26.961-7.65-41.998-1.588-9.615 5.466-16.223 12.539-21.035 20.309a.605.605 0 0 1-.838.195.617.617 0 0 1-.194-.846c4.914-7.934 11.675-15.168 21.506-20.748a.601.601 0 0 1 .072-.035Z" fill="#000"/><path fill-rule="evenodd" clip-rule="evenodd" d="M42.446 24.12c15.393-6.215 28.837-6.187 43.247 1.655a.799.799 0 0 1 .068.042l-.101.15.101-.15c13.632 9.331 20.891 19.085 23.619 28.506 2.731 9.433.888 18.417-3.455 26.123-4.337 7.695-11.173 14.136-18.491 18.555-7.307 4.411-15.183 6.859-21.63 6.453-25.239-1.592-43.896-18.057-45.141-40.036a.765.765 0 0 1-.001-.045c0-12.567 8.062-30.023 25.347-39.595a.787.787 0 0 1 1.074.316.8.8 0 0 1-.313 1.082C30.003 36.46 22.252 53.364 22.243 65.35c1.2 20.979 19.033 36.959 43.66 38.512 6.022.38 13.58-1.919 20.719-6.23 7.127-4.303 13.749-10.558 17.928-17.973 4.173-7.404 5.903-15.944 3.312-24.89-2.592-8.95-9.542-18.42-22.955-27.61-13.914-7.56-26.839-7.617-41.825-1.58-9.58 5.45-16.163 12.497-20.96 20.241a.787.787 0 0 1-1.089.254.801.801 0 0 1-.251-1.098c4.928-7.957 11.71-15.214 21.57-20.811a.798.798 0 0 1 .094-.046Zm43.073 1.978c-14.301-7.784-27.63-7.817-42.937-1.638a.429.429 0 0 0-.05.024C32.73 30.048 25.99 37.26 21.091 45.17a.433.433 0 0 0 .135.593c.199.126.462.065.586-.137 4.827-7.793 11.456-14.889 21.1-20.371a.17.17 0 0 1 .022-.01c15.08-6.08 28.125-6.03 42.153 1.596l.016.01c13.464 9.222 20.485 18.758 23.108 27.816 2.623 9.057.867 17.7-3.345 25.172-4.215 7.48-10.886 13.778-18.058 18.108-7.178 4.334-14.809 6.667-20.93 6.281-24.768-1.562-42.79-17.655-44-38.862l-.001-.011c.007-12.119 7.83-29.15 24.716-38.5a.433.433 0 0 0 .169-.585.424.424 0 0 0-.578-.17c-17.168 9.507-25.16 26.839-25.159 39.273v.024c1.233 21.752 19.702 38.107 44.8 39.691 6.35.4 14.152-2.014 21.42-6.402 7.275-4.392 14.061-10.79 18.362-18.42 4.303-7.637 6.121-16.52 3.422-25.84-2.698-9.315-9.887-19.006-23.474-28.306l.103-.151-.103.151a.408.408 0 0 0-.037-.022l.087-.161-.087.16Z" fill="#000"/><path fill-rule="evenodd" clip-rule="evenodd" d="M76.611 52.933c.28.188.355.57.169.852-.99 1.499-2.021 2.813-3.31 3.792-1.302.989-2.84 1.615-4.812 1.783-4.405.376-7.276-1.25-10.547-3.7a.618.618 0 0 1-.125-.86.605.605 0 0 1 .85-.126c3.187 2.387 5.757 3.8 9.72 3.462 1.752-.149 3.07-.696 4.183-1.54 1.124-.854 2.065-2.033 3.029-3.492a.605.605 0 0 1 .843-.17Z" fill="#000"/><path fill-rule="evenodd" clip-rule="evenodd" d="M75.616 53.003a.786.786 0 0 1 1.097-.221.801.801 0 0 1 .219 1.105c-.995 1.505-2.039 2.84-3.352 3.837-1.33 1.01-2.901 1.648-4.907 1.82-4.47.38-7.387-1.276-10.67-3.737a.802.802 0 0 1-.164-1.115.786.786 0 0 1 1.107-.165c3.173 2.378 5.698 3.76 9.594 3.428 1.72-.147 3.005-.682 4.089-1.505 1.1-.835 2.027-1.994 2.987-3.447Zm.894.083a.423.423 0 0 0-.59.12c-.968 1.465-1.922 2.664-3.072 3.537-1.14.866-2.491 1.425-4.277 1.577-4.03.344-6.645-1.102-9.843-3.499a.423.423 0 0 0-.596.09c-.14.19-.1.46.088.602 3.259 2.442 6.084 4.035 10.423 3.665 1.939-.165 3.444-.78 4.717-1.747 1.264-.96 2.282-2.254 3.268-3.747a.433.433 0 0 0-.118-.598ZM11.256 14.123c-.547.137-1.13.493-1.731 1.19-.893 1.035-1.852 1.865-3.014 2.36 2.977.948 5.896 2.044 8.8 3.134l.18.067c1.365.513 2.727 1.024 4.093 1.518-.806-1.556-1.755-3.17-2.784-4.566-1.255-1.704-2.568-2.996-3.817-3.52-.61-.255-1.182-.32-1.727-.183Zm9.987 8.859c-.94-1.94-2.136-4.083-3.466-5.889-1.287-1.746-2.763-3.265-4.328-3.92-.798-.335-1.639-.454-2.486-.241-.845.211-1.633.736-2.356 1.575C7.3 16.023 5.98 16.906 4.064 16.95a8.465 8.465 0 0 0-.845-.156 4.547 4.547 0 0 0-.494-.039 1.427 1.427 0 0 0-.407.042.633.633 0 0 0-.137 1.175c.136.075.305.108.417.127.276.047.71.08 1.315.08h.015c.134.033.275.072.425.116 3.568 1.047 7.047 2.353 10.551 3.669l.162.061c1.758.66 3.521 1.32 5.301 1.95.754 1.596 1.318 3.013 1.612 3.904.106.322.45.496.77.388a.615.615 0 0 0 .384-.776 34.408 34.408 0 0 0-1.174-2.966c1.296.438 2.601.854 3.92 1.234a.608.608 0 0 0 .752-.421.615.615 0 0 0-.417-.76 94.705 94.705 0 0 1-4.97-1.596Z" fill="#000"/><path fill-rule="evenodd" clip-rule="evenodd" d="M10.918 12.754c.893-.223 1.775-.097 2.601.25 1.612.676 3.112 2.228 4.404 3.98 1.324 1.797 2.512 3.922 3.45 5.85a94.17 94.17 0 0 0 4.89 1.57c.42.12.663.562.543.985a.79.79 0 0 1-.977.547 88.42 88.42 0 0 1-3.537-1.105 32.87 32.87 0 0 1 1.014 2.603.799.799 0 0 1-.5 1.008.79.79 0 0 1-1-.504c-.287-.87-.836-2.252-1.571-3.816a288.59 288.59 0 0 1-5.233-1.924l-.162-.061c-3.505-1.317-6.978-2.62-10.538-3.666-.14-.04-.272-.076-.396-.108-.606 0-1.05-.034-1.339-.082a1.51 1.51 0 0 1-.474-.148.816.816 0 0 1 .174-1.511 1.6 1.6 0 0 1 .46-.05 4.7 4.7 0 0 1 .515.041c.238.03.52.08.84.154 1.836-.049 3.105-.892 4.387-2.38.74-.86 1.56-1.41 2.45-1.633Zm2.461.588c-.77-.323-1.57-.433-2.372-.232-.8.2-1.558.7-2.263 1.518-1.326 1.54-2.69 2.46-4.676 2.506a.181.181 0 0 1-.045-.005 8.301 8.301 0 0 0-.827-.152 4.362 4.362 0 0 0-.474-.038 1.253 1.253 0 0 0-.353.035.521.521 0 0 0-.132.058.45.45 0 0 0-.107.665.49.49 0 0 0 .14.115c.105.059.246.088.358.107.262.044.685.078 1.285.078h.015c.014 0 .03.001.044.005.136.034.28.073.432.117 3.574 1.05 7.059 2.358 10.56 3.673l.166.062c1.757.66 3.52 1.32 5.297 1.948.046.016.084.05.104.094.757 1.602 1.324 3.026 1.62 3.926a.425.425 0 0 0 .54.272.431.431 0 0 0 .269-.544 34.268 34.268 0 0 0-1.168-2.95.184.184 0 0 1 .032-.198.182.182 0 0 1 .193-.05 90.11 90.11 0 0 0 3.912 1.232.431.431 0 0 0 .234-.828 94.933 94.933 0 0 1-4.98-1.6.183.183 0 0 1-.104-.093c-.938-1.934-2.127-4.066-3.45-5.86-1.281-1.74-2.732-3.224-4.25-3.86Zm-.467 1.134c-.58-.244-1.112-.3-1.612-.174-.503.126-1.056.456-1.638 1.131-.793.92-1.645 1.69-2.652 2.208 2.828.916 5.604 1.959 8.361 2.994l.183.068c1.218.458 2.432.913 3.649 1.356-.754-1.418-1.62-2.862-2.55-4.123-1.25-1.698-2.538-2.956-3.74-3.46Zm-1.7-.53c.59-.148 1.203-.076 1.84.191 1.297.544 2.635 1.87 3.895 3.58 1.036 1.406 1.99 3.03 2.798 4.59a.184.184 0 0 1-.024.206.181.181 0 0 1-.199.052 361.114 361.114 0 0 1-4.095-1.518l-.18-.068c-2.904-1.09-5.82-2.184-8.791-3.13a.183.183 0 0 1-.016-.344c1.127-.48 2.064-1.288 2.947-2.312.618-.718 1.232-1.099 1.825-1.247ZM56.271 1.445a.615.615 0 0 1-.417.76c-4.326 1.247-8.914 4.266-11.346 8.072l-.038.06c.277.121.539.248.783.38.59.32 1.23 1.058 1.775 1.873.562.841 1.09 1.866 1.42 2.862.32.966.495 2.031.194 2.878-.159.448-.452.833-.904 1.082-.44.242-.98.328-1.593.287-1.228-.083-2.15-.623-2.782-1.44-.617-.8-.93-1.826-1.044-2.868-.16-1.458.056-3.063.502-4.358a11.969 11.969 0 0 0-2.458-.492c-1.608-.143-3.115.093-4.154.852-.998.728-1.466 1.966-1.673 3.457-.144 1.042-.152 2.102-.16 3.101-.002.447-.006.882-.02 1.297a.61.61 0 0 1-.631.591.611.611 0 0 1-.586-.636c.013-.347.016-.74.02-1.163.007-1.031.017-2.236.172-3.36.222-1.601.76-3.258 2.165-4.282 1.378-1.005 3.229-1.235 4.974-1.08.976.087 1.951.297 2.843.584.056-.1.113-.198.172-.29 2.623-4.105 7.485-7.276 12.034-8.588a.607.607 0 0 1 .752.421Zm-12.307 10.01c-.376 1.099-.578 2.51-.436 3.8.1.904.362 1.688.795 2.249.418.541 1.02.91 1.902.97.466.03.755-.043.93-.14a.725.725 0 0 0 .342-.419c.157-.441.096-1.169-.204-2.074a11.098 11.098 0 0 0-1.274-2.564c-.527-.79-1.03-1.31-1.34-1.477a9.114 9.114 0 0 0-.715-.346Z" fill="#000"/><path fill-rule="evenodd" clip-rule="evenodd" d="M55.47.848a.79.79 0 0 1 .977.548.798.798 0 0 1-.543.985c-4.247 1.225-8.743 4.17-11.166 7.877.21.096.411.196.602.299.631.341 1.292 1.113 1.84 1.931.569.853 1.105 1.893 1.44 2.907.323.975.516 2.09.194 2.997a2.13 2.13 0 0 1-.989 1.181c-.48.265-1.056.352-1.693.31-1.28-.087-2.25-.652-2.913-1.512-.644-.834-.965-1.897-1.081-2.959-.157-1.42.037-2.972.45-4.257a11.73 11.73 0 0 0-2.24-.43c-1.588-.142-3.044.096-4.032.817-.938.684-1.395 1.86-1.6 3.334-.142 1.028-.15 2.076-.157 3.077v.002c-.003.446-.006.883-.022 1.301a.793.793 0 0 1-.819.767.794.794 0 0 1-.76-.826 41.3 41.3 0 0 0 .018-1.157v-.006c.008-1.028.017-2.242.175-3.379.224-1.617.773-3.336 2.238-4.405 1.428-1.042 3.331-1.27 5.097-1.114.94.084 1.877.28 2.742.548.034-.058.069-.115.104-.17 2.65-4.15 7.554-7.344 12.137-8.666Zm.626.648a.425.425 0 0 0-.526-.295c-4.516 1.302-9.337 4.45-11.931 8.511a4.902 4.902 0 0 0-.166.28.182.182 0 0 1-.215.086c-.88-.284-1.843-.49-2.804-.576-1.725-.154-3.524.077-4.85 1.045-1.344.98-1.872 2.574-2.092 4.159-.154 1.11-.163 2.303-.171 3.337v.002c-.004.42-.007.816-.02 1.166a.429.429 0 0 0 .41.446.428.428 0 0 0 .442-.414c.015-.413.018-.845.022-1.292v-.006c.007-.996.015-2.066.16-3.12.21-1.507.688-2.807 1.747-3.58 1.09-.795 2.648-1.03 4.277-.886a12.15 12.15 0 0 1 2.495.5.183.183 0 0 1 .119.235c-.438 1.271-.65 2.85-.493 4.278.112 1.02.418 2.011 1.007 2.774.6.777 1.474 1.291 2.65 1.37.592.04 1.093-.044 1.493-.264.409-.225.675-.573.82-.983.28-.787.121-1.801-.196-2.758-.323-.978-.843-1.988-1.397-2.818-.542-.81-1.162-1.517-1.71-1.813-.24-.13-.497-.255-.77-.373a.183.183 0 0 1-.082-.265l.04-.063c2.46-3.851 7.089-6.893 11.448-8.15a.431.431 0 0 0 .293-.533ZM43.89 11.287c.046-.02.099-.02.145 0 .26.111.504.23.73.352.182.098.401.287.636.542a8.2 8.2 0 0 1 .77.994c.518.775 1 1.715 1.295 2.609.303.914.381 1.692.203 2.194a.907.907 0 0 1-.427.518c-.214.118-.54.194-1.029.161-.935-.063-1.584-.457-2.034-1.04-.46-.597-.73-1.416-.832-2.34-.146-1.32.061-2.76.444-3.882a.183.183 0 0 1 .099-.108Zm.184.417c-.328 1.047-.496 2.345-.365 3.532.097.883.352 1.63.758 2.156.386.5.94.843 1.77.9.444.03.695-.043.83-.118a.542.542 0 0 0 .258-.32c.136-.38.092-1.058-.205-1.954a10.917 10.917 0 0 0-1.252-2.52 7.847 7.847 0 0 0-.734-.95c-.225-.244-.412-.398-.541-.468a8.624 8.624 0 0 0-.52-.258ZM9.204 90.144c-3.26-.037-5.907-.036-7.543.108a.61.61 0 0 1-.659-.557.612.612 0 0 1 .553-.666c1.708-.15 4.42-.15 7.662-.113.904.01 1.85.023 2.831.037 2.553.035 5.335.074 8.188.074.336 0 .608.275.608.614 0 .339-.272.614-.608.614-2.862 0-5.657-.039-8.213-.074-.978-.014-1.921-.027-2.82-.037Z" fill="#000"/><path fill-rule="evenodd" clip-rule="evenodd" d="M1.54 88.847c1.717-.153 4.44-.151 7.68-.114.903.01 1.85.023 2.83.036 2.554.036 5.334.074 8.186.074.437 0 .79.358.79.798 0 .44-.353.797-.79.797-2.864 0-5.66-.039-8.215-.074-.979-.014-1.921-.027-2.82-.037-3.261-.037-5.899-.036-7.524.108a.793.793 0 0 1-.856-.725.795.795 0 0 1 .718-.863Zm7.675.252c-3.244-.037-5.947-.037-7.644.113a.43.43 0 0 0-.387.466c.02.238.228.412.461.392 1.647-.146 4.304-.147 7.56-.11.9.01 1.842.023 2.82.037h.001c2.555.035 5.35.074 8.21.074a.428.428 0 0 0 .426-.43.428.428 0 0 0-.426-.43c-2.855 0-5.637-.04-8.19-.075l-2.83-.037ZM24.724 97.174a.617.617 0 0 1 .209.843c-.606 1.018-2.684 3.772-4.743 6.453a1096.89 1096.89 0 0 1-2.708 3.507 290.431 290.431 0 0 0-2.139 2.779.605.605 0 0 1-.851.121.618.618 0 0 1-.12-.86c.375-.501 1.177-1.538 2.166-2.814.815-1.053 1.757-2.27 2.69-3.485 2.087-2.717 4.104-5.395 4.662-6.333a.605.605 0 0 1 .834-.21Z" fill="#000"/><path fill-rule="evenodd" clip-rule="evenodd" d="M23.733 97.292a.787.787 0 0 1 1.085-.274.8.8 0 0 1 .27 1.094c-.612 1.03-2.7 3.795-4.754 6.47-.946 1.232-1.892 2.455-2.708 3.508-.98 1.265-1.768 2.283-2.137 2.777a.786.786 0 0 1-1.108.157.802.802 0 0 1-.155-1.116c.376-.503 1.178-1.54 2.165-2.814l.003-.003c.815-1.053 1.757-2.27 2.69-3.485 2.09-2.722 4.098-5.388 4.649-6.314Zm.897.04a.423.423 0 0 0-.584.148c-.565.95-2.591 3.639-4.674 6.35-.933 1.216-1.875 2.433-2.69 3.486-.99 1.278-1.791 2.312-2.165 2.812a.434.434 0 0 0 .084.604.424.424 0 0 0 .596-.085c.372-.497 1.162-1.517 2.139-2.779l.002-.003c.816-1.053 1.762-2.276 2.707-3.507 2.063-2.686 4.133-5.428 4.731-6.435a.433.433 0 0 0-.146-.59ZM126.241 62.304a.61.61 0 0 1 .608-.61H244a.61.61 0 0 1 .607.61.61.61 0 0 1-.607.612H126.849a.61.61 0 0 1-.608-.611Zm0 12.56a.61.61 0 0 1 .608-.612h89.258a.61.61 0 0 1 .607.611.61.61 0 0 1-.607.612h-89.258a.61.61 0 0 1-.608-.612Zm0 13.858a.61.61 0 0 1 .608-.612h89.258a.61.61 0 0 1 .607.612.61.61 0 0 1-.607.61h-89.258a.61.61 0 0 1-.608-.61ZM134.7 41.946a.61.61 0 0 0-.608-.612h-5.656a.61.61 0 0 0-.608.611.61.61 0 0 0 .608.611h5.656a.61.61 0 0 0 .608-.61ZM149.583 41.93a.61.61 0 0 0-.607-.611h-5.668a.61.61 0 0 0-.608.61.61.61 0 0 0 .608.612h5.668a.61.61 0 0 0 .607-.611ZM136.871 41.93c0 1.01.81 1.821 1.801 1.821.99 0 1.8-.811 1.8-1.82 0-1.01-.81-1.821-1.8-1.821a1.81 1.81 0 0 0-1.801 1.82Zm-1.215 0c0 1.681 1.35 3.043 3.016 3.043 1.665 0 3.015-1.362 3.015-3.042 0-1.681-1.35-3.043-3.015-3.043-1.666 0-3.016 1.362-3.016 3.043Z" fill="currentColor"/></svg>