<svg width="47" height="43" viewBox="0 0 47 43" fill="none" xmlns="http://www.w3.org/2000/svg">
<path d="M13.8858 15.3506L4.78874 21.7187C4.27544 21.9068 3.42879 22.7008 4.14864 24.3718C5.04844 26.4605 10.1755 36.5339 12.0664 38.3939C13.9572 40.2539 14.6457 38.7448 17.0699 38.3939C19.4942 38.043 23.9718 34.8872 26.1673 33.5452L26.2152 33.5159C28.3954 32.1834 30.6133 30.8277 30.3861 29.8439C30.1573 28.8528 25.0315 19.5257 24.8027 18.5346C24.5739 17.5436 21.916 14.8549 20.254 13.986C18.9244 13.2908 15.3901 14.9336 13.8858 15.3506Z" fill="#01C9CC"/>
<path d="M15.251 25.8131L12.5218 21.2644C13.4316 20.8096 15.524 19.8088 16.6156 19.4449C17.7073 19.0811 18.89 22.0225 19.3449 23.5388L15.251 25.8131Z" fill="white"/>
<path d="M13.4316 27.1777L10.7024 22.629C8.42804 23.5388 7.97317 24.9034 8.42804 25.8131C8.79193 26.5409 9.79264 28.239 10.2475 28.9972L13.4316 27.1777Z" fill="white"/>
<path d="M17.9803 34.4556L14.7963 29.452L12.0671 31.7264C12.5219 32.6361 13.7045 34.6375 14.7963 35.3653C15.888 36.0931 17.3739 35.0621 17.9803 34.4556Z" fill="white"/>
<path d="M20.2547 33.5458L16.6156 28.5423L21.1644 26.268C21.316 26.5712 21.8922 27.6326 22.9839 29.452C24.0755 31.2715 21.6193 32.9393 20.2547 33.5458Z" fill="white"/>
<path fill-rule="evenodd" clip-rule="evenodd" d="M20.1082 13.8283C21.8272 14.1966 23.0479 15.3012 23.7745 16.5118L23.7764 16.5149L23.8075 16.5665L23.9036 16.7263C23.9875 16.8662 24.1103 17.0713 24.2656 17.3323C24.5762 17.8543 25.0172 18.6001 25.539 19.4958C26.5822 21.2868 27.9492 23.679 29.2423 26.0806C30.5071 28.4294 30.4305 30.0411 29.9442 31.0947C29.7055 31.6118 29.3793 31.9684 29.1114 32.1962C28.9774 32.3102 28.8571 32.3927 28.768 32.4479C28.7234 32.4755 28.6864 32.4964 28.6591 32.511C28.6475 32.5173 28.6376 32.5224 28.6296 32.5264L28.6167 32.5342L28.5407 32.5794C28.4745 32.6188 28.378 32.676 28.2566 32.7474C28.0139 32.8902 27.6713 33.0901 27.2715 33.3185C26.4733 33.7746 25.4425 34.3474 24.5231 34.8071C24.3286 34.9044 24.092 34.8255 23.9948 34.631C23.8975 34.4365 23.9764 34.2 24.1709 34.1027C25.0709 33.6527 26.087 33.0883 26.8808 32.6347C27.2771 32.4082 27.6168 32.2101 27.8573 32.0686C27.9776 31.9979 28.073 31.9413 28.1383 31.9025L28.2128 31.8581L28.2379 31.8431C28.249 31.8364 28.2608 31.8301 28.2726 31.8245C28.2727 31.8245 28.2725 31.8245 28.2726 31.8245M28.2726 31.8245C28.2749 31.8234 28.2794 31.821 28.2865 31.8172C28.3005 31.8097 28.3235 31.7968 28.3535 31.7782C28.4137 31.741 28.5012 31.6814 28.6012 31.5963C28.8013 31.4261 29.048 31.1573 29.2292 30.7647C29.5827 29.9988 29.7335 28.6539 28.5489 26.454C27.2615 24.063 25.8993 21.6791 24.8585 19.8922C24.3382 18.9989 23.8984 18.2553 23.5888 17.735C23.434 17.4749 23.3118 17.2707 23.2283 17.1316L23.1329 16.9729L23.1008 16.9196L23.1003 16.9189L23.0996 16.9177C22.4615 15.8543 21.408 14.9122 19.9432 14.5983C18.4803 14.2848 16.5385 14.5835 14.0964 16.1375C13.913 16.2543 13.6696 16.2002 13.5528 16.0167C13.4361 15.8333 13.4902 15.5899 13.6736 15.4731C16.2351 13.8431 18.3871 13.4595 20.1082 13.8283M28.2726 31.8245C28.2715 31.8251 28.2707 31.8254 28.2709 31.8253L28.2716 31.825L28.2726 31.8245Z" fill="black"/>
<path fill-rule="evenodd" clip-rule="evenodd" d="M9.69937 29.2859C9.59238 29.0966 9.65912 28.8564 9.84845 28.7494L13.2383 26.8337C13.4276 26.7267 13.6678 26.7935 13.7748 26.9828C13.8818 27.1721 13.8151 27.4123 13.6257 27.5193L10.2359 29.435C10.0466 29.542 9.80637 29.4752 9.69937 29.2859ZM15.239 26.1841C15.1338 25.9938 15.2028 25.7542 15.3932 25.649C16.9265 24.8015 18.376 24.0065 19.611 23.3303C19.8018 23.2258 20.0411 23.2958 20.1455 23.4865C20.25 23.6773 20.18 23.9166 19.9892 24.021C18.7546 24.6971 17.3061 25.4915 15.7741 26.3383C15.5838 26.4435 15.3442 26.3745 15.239 26.1841ZM22.639 22.1217C22.5344 21.9312 22.604 21.6919 22.7945 21.5872L22.7949 21.5869L25.5231 20.0868L25.5237 20.0865C25.7141 19.9818 25.9534 20.0511 26.0583 20.2415C26.1632 20.4318 26.094 20.6711 25.9038 20.7762C25.02 21.2642 24.1072 21.7657 23.1739 22.2773C23.1738 22.2774 23.1736 22.2774 23.1735 22.2775C22.9829 22.382 22.7436 22.3123 22.639 22.1217Z" fill="black"/>
<path fill-rule="evenodd" clip-rule="evenodd" d="M11.2694 31.6379C11.1628 31.4486 11.2296 31.2089 11.4186 31.102C12.4665 30.5093 13.5324 29.9128 14.6053 29.3166C14.7952 29.2111 15.0346 29.2792 15.1404 29.4689C15.2463 29.6586 15.1785 29.8981 14.989 30.0043L14.9878 30.005L11.8063 31.7875L11.805 31.7882C11.6155 31.8944 11.3759 31.8271 11.2694 31.6379ZM16.7261 28.5925C16.6211 28.402 16.6904 28.1625 16.8808 28.0576C18.4091 27.2153 19.7513 26.4791 20.9756 25.8087C21.1663 25.7042 21.4056 25.7742 21.5101 25.9649C21.6145 26.1557 21.5446 26.395 21.3538 26.4994C20.1299 27.1696 18.7884 27.9054 17.261 28.7473C17.0705 28.8523 16.831 28.783 16.7261 28.5925ZM19.0006 16.9049C18.8954 16.7146 18.9644 16.475 19.1547 16.3698C19.3475 16.2632 19.5384 16.1577 19.7264 16.0537C20.5233 15.613 21.2681 15.2012 21.8847 14.862C22.0752 14.7572 22.3146 14.8267 22.4195 15.0173C22.5243 15.2078 22.4548 15.4472 22.2642 15.5521C21.6488 15.8906 20.9055 16.3016 20.1092 16.7419C19.9207 16.8462 19.7292 16.9521 19.5358 17.059C19.3454 17.1642 19.1059 17.0952 19.0006 16.9049ZM20.8201 19.6341C20.7149 19.4438 20.7839 19.2042 20.9742 19.099C21.1669 18.9925 21.3577 18.887 21.5456 18.7831C22.3426 18.3423 23.0874 17.9305 23.7041 17.5912C23.8947 17.4864 24.1341 17.5559 24.2389 17.7465C24.3437 17.937 24.2742 18.1765 24.0837 18.2813C23.4682 18.6198 22.7247 19.031 21.9282 19.4714C21.7399 19.5756 21.5485 19.6813 21.3552 19.7882C21.1649 19.8934 20.9253 19.8244 20.8201 19.6341ZM24.0041 24.5902C23.899 24.3999 23.968 24.1603 24.1583 24.0551C24.1583 24.0551 24.1584 24.0551 24.1584 24.055C24.1586 24.0549 24.1588 24.0548 24.1591 24.0547C24.3517 23.9482 24.5424 23.8427 24.7302 23.7389C25.5267 23.2984 26.2712 22.8868 26.8876 22.5477C26.8878 22.5476 26.888 22.5475 26.8882 22.5474C27.0786 22.4426 27.3179 22.512 27.4228 22.7023C27.5277 22.8926 27.4586 23.132 27.2684 23.2371L27.2678 23.2374L24.5401 24.7439C24.5399 24.744 24.5396 24.7442 24.5393 24.7443L24.5392 24.7444C24.3488 24.8495 24.1093 24.7805 24.0041 24.5902ZM25.3688 27.0548C25.2636 26.8644 25.3325 26.6249 25.5229 26.5196C25.7157 26.413 25.9067 26.3074 26.0948 26.2034C26.8916 25.7628 27.6363 25.351 28.2528 25.0119C28.4434 24.9071 28.6828 24.9766 28.7876 25.1671C28.8924 25.3577 28.8229 25.5971 28.6324 25.7019C28.0166 26.0406 27.2727 26.4519 26.4759 26.8926C26.2878 26.9966 26.0969 27.1022 25.9039 27.2088C25.7136 27.3141 25.474 27.2451 25.3688 27.0548ZM26.7334 30.1003C26.6282 29.91 26.6971 29.6704 26.8875 29.5652C27.0804 29.4585 27.2714 29.3529 27.4595 29.2489C28.2562 28.8083 29.0009 28.3965 29.6174 28.0574C29.808 27.9526 30.0474 28.0221 30.1522 28.2126C30.257 28.4032 30.1875 28.6426 29.997 28.7474C29.3813 29.0861 28.6377 29.4973 27.841 29.9378C27.6528 30.0419 27.4617 30.1476 27.2685 30.2544C27.0782 30.3596 26.8386 30.2906 26.7334 30.1003Z" fill="black"/>
<path fill-rule="evenodd" clip-rule="evenodd" d="M10.4895 22.296C10.6724 22.1784 10.916 22.2313 11.0336 22.4143C11.5295 23.1857 11.9616 23.919 12.3945 24.6606C12.4419 24.7418 12.4893 24.823 12.5367 24.9044C12.9238 25.5682 13.3171 26.2427 13.7664 26.9686C13.8809 27.1536 13.8238 27.3962 13.6389 27.5107C13.4539 27.6252 13.2113 27.568 13.0968 27.3831C12.6417 26.6478 12.2431 25.9642 11.8564 25.3012C11.8089 25.2197 11.7616 25.1385 11.7144 25.0576C11.282 24.317 10.8572 23.5962 10.3712 22.8401C10.2536 22.6572 10.3065 22.4136 10.4895 22.296ZM14.7455 29.3641C14.9328 29.2537 15.1742 29.3161 15.2846 29.5034L18.084 34.2538C18.1944 34.4412 18.132 34.6826 17.9447 34.793C17.7573 34.9034 17.5159 34.841 17.4055 34.6537L14.6061 29.9032C14.4957 29.7159 14.5581 29.4745 14.7455 29.3641Z" fill="black"/>
<path fill-rule="evenodd" clip-rule="evenodd" d="M12.3098 20.9317C12.4927 20.8141 12.7363 20.8671 12.8539 21.05C13.7924 22.5098 14.7543 24.0406 15.7234 25.6042C15.8379 25.789 15.781 26.0318 15.5961 26.1463C15.4113 26.2609 15.1685 26.2039 15.054 26.0191C14.0865 24.4581 13.127 22.9311 12.1915 21.4759C12.0739 21.293 12.1269 21.0493 12.3098 20.9317ZM16.8659 28.2098C17.0514 28.0963 17.2938 28.1547 17.4073 28.3402C17.85 29.064 18.3904 29.8961 18.9364 30.7369L18.9412 30.7442C19.4872 31.585 20.0386 32.4341 20.4949 33.1803C20.6083 33.3658 20.5499 33.6082 20.3644 33.7217C20.1789 33.8351 19.9365 33.7767 19.823 33.5912C19.3734 32.8559 18.8283 32.0163 18.2807 31.1732L18.272 31.1597C17.7289 30.3234 17.1838 29.484 16.7355 28.7512C16.622 28.5657 16.6804 28.3233 16.8659 28.2098Z" fill="black"/>
<path fill-rule="evenodd" clip-rule="evenodd" d="M17.1098 14.8675C18.4502 15.1753 19.5809 16.1916 20.5915 17.876C22.8524 21.6441 23.9027 23.5447 25.1986 25.8899C25.4694 26.38 25.7509 26.8895 26.0565 27.4396C26.9478 29.0438 27.4321 30.4269 27.2099 31.6776C26.983 32.9544 26.0461 33.9717 24.4127 34.905C23.5502 35.3978 22.8296 35.8166 22.1824 36.1928C20.4495 37.2 19.2426 37.9015 17.2459 38.8998C15.2243 39.9106 13.7438 39.7968 12.6213 39.1128C11.5804 38.4785 10.9172 37.3866 10.415 36.5597C10.3982 36.5321 10.3817 36.5048 10.3653 36.4779L10.3648 36.4771L10.2537 36.2941C10.1804 36.1735 10.0717 35.9949 9.93046 35.7634C9.64792 35.3002 9.23495 34.625 8.71336 33.777C7.67019 32.081 6.19265 29.694 4.45542 26.9306C3.69438 25.72 3.41003 24.3683 3.65289 23.1206C3.89688 21.8671 4.66793 20.7482 5.95776 20.011C8.15094 18.7576 9.68901 17.811 11.0334 16.9835C11.6386 16.6111 12.2046 16.2627 12.7734 15.9215C14.3372 14.9831 15.7737 14.5606 17.1098 14.8675ZM16.9335 15.635C15.8864 15.3945 14.6683 15.7029 13.1786 16.5968C12.6213 16.9312 12.0611 17.2759 11.4593 17.6462C10.1106 18.4763 8.55267 19.4351 6.34852 20.6948C5.25061 21.3222 4.62461 22.2502 4.42592 23.2711C4.22611 24.2976 4.45345 25.4477 5.12216 26.5115C6.86101 29.2775 8.33992 31.6667 9.38416 33.3644C9.90629 34.2133 10.3198 34.8893 10.6028 35.3532C10.7443 35.5852 10.8531 35.7641 10.9267 35.8851L11.038 36.0685L11.0514 36.0905C11.5799 36.9593 12.1564 37.9073 13.0311 38.4403C13.8662 38.9491 15.0497 39.1174 16.8937 38.1954C18.8669 37.2089 20.0481 36.5223 21.772 35.5204C22.4212 35.143 23.1475 34.7209 24.022 34.2212C25.5727 33.3351 26.2677 32.4783 26.4345 31.5398C26.6059 30.5751 26.2457 29.4018 25.3681 27.822C25.0617 27.2705 24.7797 26.7602 24.5086 26.2697C23.2138 23.9265 22.1696 22.0368 19.9162 18.2812C18.958 16.6841 17.9765 15.8746 16.9335 15.635Z" fill="black"/>
<path fill-rule="evenodd" clip-rule="evenodd" d="M16.1595 19.0576C16.9138 19.1218 17.5583 19.5794 18.1104 20.4382C18.6807 21.3254 19.3675 22.4105 20.0586 23.5186C20.1737 23.7031 20.1174 23.946 19.9328 24.0611C19.7483 24.1762 19.5054 24.1199 19.3903 23.9353C18.7009 22.8299 18.016 21.7478 17.4479 20.8641C16.9782 20.1334 16.5245 19.879 16.0926 19.8423C15.6303 19.8029 15.0849 20.0007 14.4176 20.4159C13.9902 20.6818 13.399 21.0411 12.7246 21.447C12.5383 21.5592 12.2963 21.499 12.1842 21.3127C12.072 21.1264 12.1322 20.8844 12.3185 20.7723C12.9921 20.3669 13.5792 20.01 14.0015 19.7473C14.7071 19.3082 15.4356 18.9959 16.1595 19.0576ZM10.8771 22.0942C10.9884 22.2811 10.9271 22.5227 10.7402 22.634C10.2221 22.9425 9.69814 23.2536 9.19315 23.5529C8.58187 23.9152 8.38672 24.3552 8.36813 24.7805C8.3482 25.2364 8.53086 25.7275 8.78023 26.1435C9.30786 27.0139 9.87591 27.9541 10.4307 28.874C10.543 29.0602 10.4831 29.3022 10.2969 29.4145C10.1106 29.5269 9.86863 29.4669 9.75631 29.2807C9.20155 28.3609 8.63363 27.4209 8.10625 26.5508L8.1053 26.5493C7.8151 26.0655 7.55199 25.4177 7.58135 24.7462C7.61205 24.0438 7.96149 23.3674 8.79161 22.8754C9.29625 22.5763 9.81978 22.2655 10.3373 21.9573C10.5242 21.8461 10.7659 21.9074 10.8771 22.0942ZM20.9594 25.7254C21.1451 25.6123 21.3874 25.6713 21.5004 25.8571C22.2568 27.1004 22.9128 28.2104 23.2776 28.8914C23.715 29.7081 23.9893 30.4279 23.7338 31.1347C23.6083 31.4817 23.369 31.7856 23.0421 32.0757C22.7163 32.365 22.2843 32.6573 21.7454 32.9767C21.2227 33.2864 20.7851 33.5477 20.3968 33.7796L20.3453 33.8104C20.1586 33.9219 19.9169 33.8609 19.8054 33.6742C19.6939 33.4875 19.7548 33.2458 19.9415 33.1343L19.9924 33.1039C20.3809 32.8719 20.8196 32.6098 21.3439 32.2992C21.8669 31.9892 22.2489 31.7268 22.5193 31.4868C22.7887 31.2476 22.9278 31.0476 22.9932 30.8669C23.1193 30.5181 23.0246 30.087 22.5834 29.2633C22.2299 28.6035 21.5843 27.5101 20.8276 26.2664C20.7146 26.0806 20.7736 25.8384 20.9594 25.7254ZM11.3421 31.1501C11.5285 31.038 11.7704 31.0981 11.8825 31.2845C12.3827 32.116 12.8166 32.8382 13.1254 33.3525L13.6176 34.1725L13.6181 34.1734C13.6232 34.1819 13.628 34.1907 13.6325 34.1996C13.847 34.6279 14.2 35.0469 14.6578 35.2653C15.0958 35.4742 15.6755 35.5225 16.4207 35.1361C16.8562 34.9103 17.2727 34.6843 17.6859 34.4526C17.8755 34.3462 18.1155 34.4137 18.2219 34.6034C18.3283 34.7931 18.2607 35.0331 18.0711 35.1395C17.6514 35.3748 17.2274 35.6049 16.7832 35.8352C15.8382 36.3253 14.9984 36.3004 14.3187 35.9761C13.6646 35.6641 13.2043 35.0972 12.9353 34.566L12.4503 33.7579C12.1415 33.2437 11.7077 32.5217 11.2077 31.6905C11.0956 31.5041 11.1558 31.2622 11.3421 31.1501Z" fill="black"/>
<path d="M43.1957 2.34805C44.9195 3.26661 47.0004 5.31789 46.1227 8.26553C44.2553 14.5363 33.4294 16.6693 29.8959 13.937C21.6727 18.8327 17.9204 26.6361 27.1981 11.781C24.3124 10.784 21.1401 7.19238 24.3486 3.82401C26.9111 1.13382 30.2511 0.528864 33.3766 0.414283C36.665 0.293734 40.1013 0.699158 43.1957 2.34805Z" fill="white"/>
<path fill-rule="evenodd" clip-rule="evenodd" d="M33.3625 0.0200159C36.6894 -0.101948 40.203 0.306247 43.3812 1.99978C44.2856 2.48175 45.2964 3.26625 45.9684 4.3356C46.6479 5.41689 46.975 6.78306 46.5003 8.37714C45.5103 11.7017 42.1784 13.8641 38.7435 14.855C37.0144 15.3538 35.2272 15.5667 33.6377 15.4777C32.1734 15.3957 30.8382 15.055 29.8767 14.4075C26.6322 16.3787 24.1304 18.7699 22.8802 19.9647C22.6061 20.2267 22.3922 20.4311 22.2438 20.561C22.1904 20.6078 22.1382 20.6514 22.0909 20.6858C22.0674 20.7029 22.0388 20.7224 22.0075 20.7398C21.9832 20.7533 21.9252 20.7842 21.8489 20.7964C21.7668 20.8095 21.569 20.8082 21.444 20.6223C21.3535 20.4877 21.3749 20.3499 21.3795 20.3202L21.3796 20.3199C21.3929 20.2344 21.4307 20.154 21.4526 20.1091C21.5542 19.9003 21.8133 19.4889 22.2184 18.8595C22.3705 18.6231 22.5456 18.3524 22.7445 18.0449C23.5857 16.7445 24.8533 14.785 26.6123 11.9749C25.2362 11.3824 23.8653 10.2658 23.1391 8.87305C22.7323 8.09277 22.5233 7.21576 22.6443 6.29597C22.7656 5.37457 23.2136 4.44414 24.0638 3.55166C26.734 0.748313 30.2043 0.135791 33.3625 0.0200159ZM43.0108 2.6948C40.0002 1.09054 36.6411 0.687883 33.3913 0.807018C30.2984 0.920404 27.0887 1.51779 24.634 4.09483C23.8799 4.88653 23.5213 5.66818 23.4251 6.39873C23.3288 7.13086 23.4916 7.84564 23.8374 8.50894C24.5361 9.84878 25.9625 10.9367 27.3269 11.4081C27.4403 11.4472 27.5296 11.5359 27.5696 11.649C27.6095 11.762 27.5958 11.8871 27.5323 11.9888C25.7347 14.8671 24.4253 16.8963 23.5437 18.2594C24.9888 16.937 27.1306 15.1245 29.6948 13.5979C29.8337 13.5152 30.0091 13.5258 30.1371 13.6247C30.9317 14.2392 32.1801 14.6074 33.6817 14.6914C35.1743 14.775 36.8727 14.575 38.5252 14.0983C41.8535 13.1381 44.8682 11.0986 45.7455 8.15238C46.1486 6.79883 45.8741 5.66554 45.3016 4.75464C44.7217 3.8318 43.8301 3.13138 43.0108 2.6948Z" fill="black"/>
<path d="M30.8645 7.67201C30.8645 8.67687 30.0499 9.49148 29.0451 9.49148C28.0402 9.49148 27.2256 8.67687 27.2256 7.67201C27.2256 6.66714 28.0402 5.85254 29.0451 5.85254C30.0499 5.85254 30.8645 6.66714 30.8645 7.67201Z" fill="#01C9CC"/>
<path fill-rule="evenodd" clip-rule="evenodd" d="M29.0451 8.70395C29.615 8.70395 30.077 8.24193 30.077 7.67201C30.077 7.10208 29.615 6.64007 29.0451 6.64007C28.4751 6.64007 28.0131 7.10208 28.0131 7.67201C28.0131 8.24193 28.4751 8.70395 29.0451 8.70395ZM29.0451 9.49148C30.0499 9.49148 30.8645 8.67687 30.8645 7.67201C30.8645 6.66714 30.0499 5.85254 29.0451 5.85254C28.0402 5.85254 27.2256 6.66714 27.2256 7.67201C27.2256 8.67687 28.0402 9.49148 29.0451 9.49148Z" fill="black"/>
<path d="M40.8723 7.67201C40.8723 8.67687 40.0577 9.49148 39.0529 9.49148C38.048 9.49148 37.2334 8.67687 37.2334 7.67201C37.2334 6.66714 38.048 5.85254 39.0529 5.85254C40.0577 5.85254 40.8723 6.66714 40.8723 7.67201Z" fill="#01C9CC"/>
<path fill-rule="evenodd" clip-rule="evenodd" d="M39.0529 8.70395C39.6228 8.70395 40.0848 8.24193 40.0848 7.67201C40.0848 7.10208 39.6228 6.64007 39.0529 6.64007C38.4829 6.64007 38.0209 7.10208 38.0209 7.67201C38.0209 8.24193 38.4829 8.70395 39.0529 8.70395ZM39.0529 9.49148C40.0577 9.49148 40.8723 8.67687 40.8723 7.67201C40.8723 6.66714 40.0577 5.85254 39.0529 5.85254C38.048 5.85254 37.2334 6.66714 37.2334 7.67201C37.2334 8.67687 38.048 9.49148 39.0529 9.49148Z" fill="black"/>
<path fill-rule="evenodd" clip-rule="evenodd" d="M38.0365 2.48402C38.1382 2.67622 38.0649 2.91451 37.8727 3.01626L30.14 7.11007L29.7715 6.41406L37.5042 2.32025C37.6964 2.2185 37.9347 2.29182 38.0365 2.48402Z" fill="black"/>
</svg>