<svg width="52" height="49" viewBox="0 0 52 49" fill="none" xmlns="http://www.w3.org/2000/svg">
<path d="M18.0703 13.4308L25.1391 7.77577C23.3719 6.12638 21.1099 2.47415 26.1995 1.06038C31.289 -0.353385 32.5614 2.59196 32.5614 4.24135H43.5181C41.3974 4.5948 36.0251 5.72581 35.7424 6.00856C35.4596 6.29131 39.9837 14.0199 40.6906 14.4912C38.5699 16.1405 31.737 10.6688 27.9667 10.2499C24.7857 9.89641 21.6047 11.6636 18.0703 13.4308Z" fill="white"/>
<path fill-rule="evenodd" clip-rule="evenodd" d="M23.6072 1.52807C25.4144 0.0765876 27.8162 -0.340089 30.0235 0.27481C30.6118 0.438705 31.2662 0.713113 31.8202 1.11806C32.3745 1.52318 32.8495 2.07537 33.0286 2.79579C33.246 3.67034 32.9599 4.54289 32.504 5.26622C32.0463 5.99229 31.3909 6.61341 30.779 7.01168C29.6021 7.77778 28.121 8.06168 26.7597 7.93893C26.3387 7.90097 25.8713 7.81694 25.4055 7.67984C25.3969 7.71108 25.3839 7.74165 25.3663 7.77069C25.2648 7.93743 25.0473 7.99032 24.8806 7.88883C24.7766 7.82553 24.6694 7.76189 24.5602 7.69707C23.6449 7.15387 22.5902 6.52792 22.1353 5.32755C21.5361 3.7462 22.5538 2.37406 23.6072 1.52807ZM24.3675 1.84061C24.4364 1.95309 24.4392 2.09976 24.3627 2.2178C24.3125 2.29521 24.2621 2.37211 24.212 2.44859C23.8672 2.97488 23.5353 3.48159 23.3547 4.00383C23.1577 4.57361 23.1539 5.12745 23.5501 5.70822C23.8611 6.16429 24.3769 6.52188 24.9838 6.78021C25.5874 7.03715 26.2526 7.18346 26.8232 7.2349C28.0541 7.34589 29.3709 7.08482 30.3934 6.41925C30.9282 6.07115 31.5078 5.5209 31.906 4.88929C32.3058 4.25492 32.496 3.58347 32.3426 2.96634C32.2157 2.45594 31.8713 2.03096 31.4031 1.68876C30.9347 1.34639 30.3635 1.10332 29.8338 0.955765C27.9586 0.433375 25.9438 0.735084 24.3675 1.84061Z" fill="black"/>
<path fill-rule="evenodd" clip-rule="evenodd" d="M25.45 7.42897C25.5706 7.58244 25.544 7.80464 25.3905 7.92527C22.5343 10.1705 20.417 11.9349 18.2965 13.702C18.1466 13.827 17.9237 13.8067 17.7987 13.6567C17.6738 13.5068 17.694 13.2839 17.844 13.1589L17.8447 13.1583C19.9653 11.3912 22.0891 9.6213 24.9537 7.36953C25.1071 7.2489 25.3293 7.27551 25.45 7.42897Z" fill="black"/>
<path fill-rule="evenodd" clip-rule="evenodd" d="M23.0053 11.3774C21.3122 11.9852 19.6563 12.856 18.2576 13.7302C18.0921 13.8337 17.874 13.7833 17.7706 13.6178C17.6671 13.4523 17.7174 13.2342 17.883 13.1308C19.3118 12.2377 21.0136 11.3413 22.7665 10.7121C24.5155 10.0843 26.3405 9.71322 28.0057 9.89824C28.1997 9.91979 28.3395 10.0945 28.3179 10.2885C28.2964 10.4826 28.1216 10.6224 27.9276 10.6008C26.4118 10.4324 24.7024 10.7682 23.0053 11.3774Z" fill="black"/>
<path fill-rule="evenodd" clip-rule="evenodd" d="M44.5272 4.75492C41.0235 4.24183 36.8103 4.24106 32.5614 4.24106C32.3662 4.24106 32.208 4.08282 32.208 3.88762C32.208 3.69242 32.3662 3.53418 32.5614 3.53418H32.5798C36.8075 3.53418 41.0697 3.53417 44.6297 4.05549C44.8228 4.08378 44.9565 4.26328 44.9282 4.45642C44.8999 4.64956 44.7204 4.7832 44.5272 4.75492Z" fill="black"/>
<path fill-rule="evenodd" clip-rule="evenodd" d="M44.5296 3.88282C44.5529 3.88288 44.6203 3.88303 44.6869 3.90452C44.8726 3.96445 44.9747 4.16363 44.9147 4.3494C44.8603 4.51817 44.6909 4.61781 44.5211 4.58972C44.5079 4.58985 44.4865 4.59069 44.4553 4.59287C44.3858 4.59772 44.2866 4.60783 44.1589 4.62329C43.9048 4.6541 43.554 4.70417 43.1363 4.76883C42.3019 4.89801 41.2107 5.08378 40.1132 5.28525C39.0154 5.48679 37.9148 5.70338 37.0607 5.89407C36.633 5.98956 36.2715 6.07758 36.0047 6.15313C35.8959 6.18393 35.8063 6.21168 35.7362 6.23603C35.7443 6.25968 35.7543 6.28667 35.7665 6.31718C35.848 6.52139 35.9972 6.807 36.2027 7.1557C36.611 7.84874 37.2112 8.74044 37.842 9.62943C38.4718 10.5169 39.1273 11.3949 39.6431 12.0585C39.9013 12.3906 40.1228 12.6669 40.2878 12.8631C40.3706 12.9616 40.4366 13.0367 40.4843 13.0875C40.5056 13.1101 40.5206 13.1251 40.5301 13.1341C40.6744 13.2277 40.7324 13.4153 40.6591 13.5766C40.5783 13.7543 40.3688 13.8329 40.1911 13.7521C40.1261 13.7226 40.0757 13.6765 40.0579 13.6602L40.0569 13.6593C40.029 13.6338 39.9991 13.6034 39.9691 13.5715C39.9085 13.5069 39.8331 13.4206 39.7468 13.3181C39.5736 13.1122 39.3459 12.828 39.085 12.4924C38.5628 11.8206 37.9012 10.9344 37.2655 10.0385C36.6309 9.14415 36.0171 8.23336 35.5936 7.51453C35.3832 7.1573 35.212 6.83463 35.11 6.57943C35.06 6.45424 35.0182 6.3249 35.0037 6.20561C34.9921 6.11094 34.981 5.88916 35.1615 5.73747C35.2439 5.66827 35.3596 5.62135 35.4441 5.58988C35.5446 5.55245 35.6698 5.51328 35.8121 5.47298C36.0977 5.39212 36.474 5.30077 36.9066 5.20418C37.7731 5.01072 38.8835 4.7923 39.9856 4.58998C41.0881 4.38759 42.1859 4.20066 43.0282 4.07027C43.4489 4.00514 43.8084 3.95371 44.0739 3.92155C44.206 3.90553 44.3189 3.89378 44.406 3.8877C44.4492 3.88469 44.4909 3.88271 44.5279 3.88282L44.5296 3.88282ZM40.5412 13.1439C40.5413 13.144 40.5397 13.1428 40.5363 13.1398C40.5394 13.1422 40.5411 13.1437 40.5412 13.1439ZM35.7045 6.10616C35.7047 6.10637 35.705 6.10963 35.7048 6.1153C35.7042 6.10878 35.7043 6.10594 35.7045 6.10616ZM44.5358 4.59004C44.5357 4.59011 44.5334 4.59007 44.5294 4.58973C44.5339 4.5898 44.5359 4.58997 44.5358 4.59004Z" fill="black"/>
<path fill-rule="evenodd" clip-rule="evenodd" d="M30.3174 3.75014C30.5002 3.6816 30.7039 3.7742 30.7725 3.95697C30.996 4.55309 30.5941 5.02459 30.2422 5.29652C29.8689 5.58494 29.3896 5.78811 29.0685 5.88691C28.3947 6.09423 27.7444 6.05436 27.1321 5.92303C26.6715 5.82425 26.2104 5.66764 25.7758 5.52004C25.6436 5.47514 25.5138 5.43107 25.3873 5.38971C25.2018 5.32908 25.1005 5.12951 25.1611 4.94397C25.2218 4.75842 25.4213 4.65716 25.6069 4.7178C25.7511 4.76492 25.8922 4.81281 26.0313 4.86C26.4572 5.00454 26.8638 5.14253 27.2803 5.23186C27.8212 5.34786 28.3405 5.37131 28.8606 5.21129C29.1309 5.12811 29.5251 4.95726 29.81 4.73715C30.1162 4.50056 30.1571 4.32904 30.1106 4.20518C30.0421 4.02241 30.1347 3.81868 30.3174 3.75014Z" fill="black"/>
<path d="M38.8718 31.0221C38.8718 31.0221 45.8607 31.283 45.1909 26.4074C44.9187 24.4219 44.2055 22.7535 41.8649 21.3599C43.7463 13.899 37.6074 9.34506 33.2903 11.6493C33.0905 11.7559 29.3264 7.51243 25.4833 9.89675C21.6404 12.2809 20.5348 16.7394 22.4301 20.1058C24.325 23.4729 38.8718 31.0221 38.8718 31.0221Z" fill="#01C9CC"/>
<path fill-rule="evenodd" clip-rule="evenodd" d="M43.2019 22.3874C43.9524 22.6438 44.7042 23.1213 45.0735 23.7957L45.0735 23.7958C45.7861 25.0983 46.0372 26.7821 45.2076 28.3116C44.3509 29.8909 43.2648 31.2431 41.444 31.5445C41.0747 31.6056 40.6424 31.5538 40.1859 31.4391C39.7242 31.3232 39.2102 31.1359 38.6664 30.9015C37.5789 30.4329 36.3408 29.7628 35.1124 29.0547C34.2832 28.5768 33.451 28.0771 32.6689 27.6076C32.2929 27.3819 31.9286 27.1631 31.5817 26.9571C30.5022 26.3158 29.6026 25.8042 29.0149 25.5599C28.8366 25.4857 28.7514 25.2792 28.8246 25.0987C28.8978 24.9181 29.1017 24.8318 29.28 24.906C29.922 25.1729 30.8657 25.7123 31.9349 26.3473C32.2874 26.5567 32.6548 26.7773 33.0323 27.004C33.8114 27.4718 34.6337 27.9655 35.4577 28.4404C36.6803 29.1451 37.8903 29.7989 38.9397 30.2511C39.4644 30.4772 39.9411 30.6494 40.3539 30.753C40.7717 30.8579 41.0974 30.8856 41.3313 30.8469C42.8215 30.6002 43.7656 29.5016 44.5957 27.9713C45.2807 26.7085 45.0922 25.2887 44.4629 24.1384C44.2116 23.6796 43.6447 23.2847 42.9788 23.0572C42.3096 22.8286 41.6477 22.8054 41.2518 22.9704C41.0736 23.0447 40.8696 22.9585 40.7963 22.778C40.7229 22.5975 40.808 22.391 40.9862 22.3167C41.6021 22.0601 42.4545 22.1321 43.2019 22.3874Z" fill="black"/>
<path fill-rule="evenodd" clip-rule="evenodd" d="M40.3604 12.2411C42.1032 13.8473 43.1448 16.3536 43.116 18.8302L43.116 18.8305C43.1096 19.3433 42.9874 20.8827 42.3354 22.4625C42.261 22.6426 42.0566 22.7276 41.8787 22.6523C41.7009 22.577 41.617 22.37 41.6913 22.1899C42.299 20.7177 42.4124 19.274 42.418 18.8217C42.4445 16.5362 41.4781 14.2271 39.8905 12.7639C38.3174 11.3141 36.1335 10.6895 33.6514 11.7431M40.3604 12.2411C38.603 10.6215 36.134 9.92273 33.3814 11.0912L40.3604 12.2411ZM33.3814 11.0912L33.3812 11.0913L33.3814 11.0912ZM33.3812 11.0913C32.7693 11.3514 32.0221 11.8151 31.4908 12.2676L33.3812 11.0913ZM33.6512 11.7432C33.1062 11.9748 32.4192 12.4006 31.9401 12.8086C31.7926 12.9342 31.5724 12.9149 31.4483 12.7656C31.3243 12.6162 31.3433 12.3932 31.4908 12.2676" fill="black"/>
<path fill-rule="evenodd" clip-rule="evenodd" d="M26.0043 9.10067C28.4148 8.20903 31.1797 8.72736 32.6839 10.6871L32.4084 10.904L32.6838 10.6868C32.6838 10.6869 32.6839 10.687 32.6839 10.6871C32.8295 10.8765 33.0212 11.2336 33.1807 11.5736C33.3397 11.9125 33.4953 12.2954 33.5465 12.5426C33.5861 12.7337 33.4652 12.921 33.2766 12.9611C33.0879 13.0011 32.9029 12.8787 32.8633 12.6877C32.8308 12.5305 32.7084 12.2143 32.5502 11.8769C32.3925 11.5407 32.2279 11.2446 32.133 11.1211L32.1328 11.1209C30.8571 9.45892 28.44 8.95226 26.2438 9.76464C24.0717 10.5681 22.144 12.6625 21.9135 16.1718L21.9135 16.1719C21.8128 17.6972 21.9293 19.5277 22.9318 20.8069C22.9236 20.7998 22.9155 20.7928 22.9073 20.7857L22.6797 21.0536L22.9513 20.8316C22.9448 20.8234 22.9383 20.8152 22.9318 20.8069C24.5497 22.2092 26.7678 23.4565 28.4508 24.4029C28.9429 24.6796 29.3892 24.9306 29.7614 25.1522C29.9276 25.2511 29.9831 25.4677 29.8854 25.636C29.7877 25.8043 29.5738 25.8605 29.4076 25.7615C29.0606 25.5549 28.6343 25.3154 28.1575 25.0474C26.4641 24.0957 24.1333 22.7858 22.4521 21.3216C22.4361 21.3077 22.4214 21.2923 22.4082 21.2756C21.2104 19.773 21.1139 17.6874 21.217 16.1249L21.5652 16.1484L21.217 16.1248C21.217 16.1248 21.217 16.1249 21.217 16.1249C21.4656 12.3398 23.5696 10.0012 26.0043 9.10067Z" fill="black"/>
<path fill-rule="evenodd" clip-rule="evenodd" d="M32.6445 15.2348C33.636 14.6708 35.3272 14.9743 36.2655 16.668C36.3601 16.8387 36.2984 17.0538 36.1276 17.1484C35.9569 17.243 35.7418 17.1813 35.6472 17.0105C34.8728 15.6126 33.5972 15.5061 32.9941 15.8492C32.7035 16.0145 32.5797 16.2619 32.6465 16.5516C32.7223 16.8805 33.064 17.3645 33.9754 17.8899C34.9862 18.4726 35.4772 19.2198 35.4832 19.9898C35.4891 20.7466 35.0238 21.4039 34.3854 21.808C33.7424 22.215 32.8856 22.394 32.0213 22.179C31.1498 21.9622 30.3009 21.3528 29.6616 20.2378C29.5645 20.0685 29.623 19.8525 29.7924 19.7554C29.9617 19.6583 30.1777 19.7169 30.2748 19.8862C30.8312 20.8565 31.531 21.3286 32.192 21.493C32.8602 21.6593 33.5197 21.5193 34.0074 21.2107C34.4998 20.899 34.7798 20.444 34.7763 19.9953C34.7729 19.5597 34.4997 19.0081 33.6224 18.5023C32.6458 17.9393 32.0989 17.3231 31.9577 16.7104C31.8073 16.0585 32.1378 15.5231 32.6445 15.2348Z" fill="black"/>
<path fill-rule="evenodd" clip-rule="evenodd" d="M35.6152 14.4614C35.7847 14.5582 35.8436 14.7741 35.7468 14.9436C34.7664 16.6602 32.3515 20.7891 31.0127 22.9091C30.9085 23.0741 30.6902 23.1234 30.5252 23.0192C30.3601 22.915 30.3108 22.6967 30.415 22.5316C31.7452 20.4253 34.1538 16.3075 35.133 14.593C35.2298 14.4235 35.4457 14.3646 35.6152 14.4614Z" fill="black"/>
<path d="M9.99891 21.6525L3.22656 31.663L19.9108 30.8288C18.341 27.922 14.6705 21.4856 16.6726 20.8182C19.1752 19.984 18.341 16.6472 18.341 15.813C18.341 14.9788 14.17 13.3104 9.99891 15.813C6.66207 17.8151 8.60856 20.5402 9.99891 21.6525Z" fill="white"/>
<path fill-rule="evenodd" clip-rule="evenodd" d="M9.3845 16.03C11.1917 14.5785 13.5935 14.1619 15.8008 14.7768C16.3892 14.9407 17.0435 15.2151 17.5976 15.62C18.1518 16.0251 18.6269 16.5773 18.806 17.2977C19.0234 18.1723 18.7372 19.0448 18.2813 19.7682C17.8236 20.4942 17.1682 21.1154 16.5564 21.5136C15.3794 22.2797 13.8984 22.5636 12.537 22.4409C12.116 22.4029 11.6487 22.3189 11.1828 22.1818C11.1743 22.213 11.1613 22.2436 11.1436 22.2726C11.0421 22.4394 10.8247 22.4923 10.6579 22.3908C10.5539 22.3275 10.4467 22.2638 10.3375 22.199C9.42224 21.6558 8.36756 21.0299 7.91268 19.8295C7.31343 18.2482 8.33116 16.876 9.3845 16.03ZM10.1448 16.3426C10.2137 16.455 10.2166 16.6017 10.14 16.7198C10.0898 16.7972 10.0394 16.8741 9.98933 16.9505C9.64459 17.4768 9.31266 17.9835 9.13207 18.5058C8.93504 19.0756 8.93124 19.6294 9.3274 20.2102C9.63849 20.6662 10.1542 21.0238 10.7611 21.2822C11.3647 21.5391 12.0299 21.6854 12.6005 21.7369C13.8315 21.8478 15.1483 21.5868 16.1707 20.9212C16.7055 20.5731 17.2852 20.0229 17.6833 19.3912C18.0831 18.7569 18.2734 18.0854 18.12 17.4683C17.9931 16.9579 17.6486 16.5329 17.1804 16.1907C16.712 15.8483 16.1409 15.6053 15.6112 15.4577C13.7359 14.9353 11.7212 15.237 10.1448 16.3426Z" fill="black"/>
<path fill-rule="evenodd" clip-rule="evenodd" d="M10.4377 21.5894C10.6165 21.6678 10.6978 21.8763 10.6195 22.055C9.85519 23.7982 8.75579 25.7966 7.73669 27.5944C7.50278 28.007 7.27355 28.4083 7.05356 28.7935C6.30844 30.098 5.66929 31.217 5.313 31.962C5.22878 32.1381 5.01775 32.2125 4.84165 32.1283C4.66556 32.0441 4.59108 31.8331 4.6753 31.657C5.04382 30.8864 5.70232 29.7337 6.45108 28.4229C6.66865 28.042 6.89383 27.6478 7.12174 27.2458C8.14108 25.4476 9.22395 23.4775 9.97207 21.7712C10.0505 21.5924 10.2589 21.511 10.4377 21.5894Z" fill="black"/>
<path fill-rule="evenodd" clip-rule="evenodd" d="M15.5301 21.4887C15.704 21.4002 15.9168 21.4694 16.0054 21.6433C16.3424 22.3052 16.6837 22.9605 17.0227 23.6112C18.1958 25.8633 19.3397 28.0592 20.1695 30.2721C20.238 30.4548 20.1454 30.6586 19.9626 30.7271C19.7799 30.7956 19.5761 30.703 19.5076 30.5203C18.6944 28.3516 17.5776 26.2074 16.4084 23.9626C16.0665 23.3061 15.7201 22.6409 15.3755 21.9641C15.2869 21.7901 15.3561 21.5773 15.5301 21.4887Z" fill="black"/>
<path fill-rule="evenodd" clip-rule="evenodd" d="M14.2685 18.562C14.3486 18.384 14.5579 18.3046 14.7359 18.3847C15.4276 18.696 16.0388 18.8554 16.6324 18.8618C17.2234 18.8683 17.8207 18.7234 18.4856 18.3909C18.6602 18.3036 18.8725 18.3744 18.9598 18.549C19.0471 18.7236 18.9763 18.9359 18.8017 19.0232C18.0543 19.3969 17.3465 19.5765 16.6247 19.5687C15.9055 19.5609 15.1964 19.3671 14.4458 19.0294C14.2678 18.9493 14.1884 18.74 14.2685 18.562Z" fill="black"/>
<path d="M20.6371 45.8251C20.6371 45.8251 27.5963 46.0848 26.9294 41.23C26.6583 39.2529 25.9481 37.5916 23.6175 36.2039C25.4909 28.7747 19.3781 24.2401 15.0793 26.5345C14.4042 26.8946 10.9814 21.789 7.15468 24.1632C3.32806 26.5372 2.37797 31.603 4.26521 34.9551C6.15212 38.3079 20.6371 45.8251 20.6371 45.8251Z" fill="#01C9CC"/>
<path fill-rule="evenodd" clip-rule="evenodd" d="M24.9488 37.2259C25.6963 37.4813 26.4453 37.957 26.8133 38.629L26.8133 38.6291C27.523 39.9263 27.7732 41.6036 26.9468 43.1271C26.0937 44.6998 25.0119 46.0468 23.1981 46.347C22.8301 46.408 22.3995 46.3563 21.9448 46.2421C21.485 46.1267 20.9731 45.9401 20.4316 45.7067C19.3486 45.2401 18.1157 44.5727 16.8925 43.8677C16.0668 43.3918 15.2381 42.8942 14.4593 42.4267C14.0849 42.2019 13.7221 41.9841 13.3767 41.7789C12.3018 41.1404 11.4061 40.631 10.821 40.3877C10.6427 40.3136 10.5575 40.1071 10.6307 39.9265C10.7039 39.7459 10.9078 39.6597 11.0861 39.7338C11.7255 39.9997 12.6653 40.5368 13.7299 41.1692C14.0809 41.3777 14.4468 41.5973 14.8227 41.823C15.5985 42.2888 16.4173 42.7804 17.2378 43.2533C18.4552 43.9551 19.66 44.606 20.7049 45.0563C21.2273 45.2814 21.7019 45.4528 22.1128 45.556C22.5287 45.6605 22.8528 45.6879 23.0855 45.6494C24.5687 45.4039 25.5085 44.3105 26.335 42.7868C27.0167 41.53 26.8292 40.1168 26.2028 38.9718C25.9528 38.5153 25.3887 38.1222 24.7257 37.8957C24.0596 37.6682 23.4009 37.6452 23.0071 37.8093C22.8289 37.8835 22.6249 37.7974 22.5516 37.6169C22.4782 37.4364 22.5633 37.2298 22.7415 37.1555C23.3552 36.8999 24.2044 36.9716 24.9488 37.2259Z" fill="black"/>
<path fill-rule="evenodd" clip-rule="evenodd" d="M22.1204 27.1233C23.8561 28.723 24.8934 31.219 24.8647 33.6855L24.8647 33.6858C24.8584 34.1965 24.7367 35.7296 24.0873 37.3029C24.013 37.483 23.8085 37.568 23.6307 37.4927C23.4528 37.4174 23.3689 37.2104 23.4433 37.0303C24.0482 35.5646 24.1612 34.1272 24.1667 33.6769C24.1931 31.4016 23.231 29.1027 21.6505 27.646C20.0844 26.2027 17.9103 25.5809 15.4393 26.6299C14.8967 26.8606 14.2127 27.2844 13.7358 27.6906C13.5882 27.8162 13.3681 27.7969 13.244 27.6475C13.1199 27.4981 13.139 27.2752 13.2865 27.1496C13.8156 26.6989 14.5598 26.2371 15.1693 25.9781L15.1694 25.978C17.9109 24.8142 20.3701 25.5102 22.1204 27.1233Z" fill="black"/>
<path fill-rule="evenodd" clip-rule="evenodd" d="M14.4757 25.5752C14.6208 25.7639 14.8119 26.1198 14.9707 26.4585C15.129 26.7959 15.2841 27.1774 15.3351 27.4237C15.3747 27.6147 15.2538 27.8021 15.0651 27.8422C14.8765 27.8822 14.6915 27.7598 14.6519 27.5688C14.6195 27.4125 14.4978 27.0977 14.3402 26.7618C14.1832 26.427 14.0194 26.1323 13.9249 26.0095L13.9247 26.0092C12.6549 24.355 10.2489 23.8505 8.06238 24.6592C5.90007 25.4591 3.981 27.5441 3.75147 31.0379L3.75146 31.038C3.65123 32.5567 3.76724 34.3789 4.76504 35.6522C6.37591 37.0483 8.5844 38.2902 10.2602 39.2326C10.7502 39.5081 11.1947 39.7581 11.5653 39.9788C11.7315 40.0777 11.787 40.2943 11.6893 40.4626C11.5916 40.6308 11.3777 40.687 11.2115 40.5881C10.8661 40.3824 10.4416 40.1439 9.9669 39.8771C8.28066 38.9294 5.95952 37.625 4.2854 36.1669C4.26939 36.1529 4.25466 36.1375 4.2414 36.1209C3.04833 34.6242 2.95228 32.5469 3.05496 30.991C3.30261 27.2214 5.39798 24.8922 7.82288 23.9953C10.2235 23.1073 12.9773 23.6234 14.4757 25.5752Z" fill="black"/>
<path fill-rule="evenodd" clip-rule="evenodd" d="M15.1776 30.1097C16.1849 29.5746 17.8667 29.9269 18.7556 31.647C18.8453 31.8204 18.7773 32.0336 18.6039 32.1232C18.4305 32.2128 18.2173 32.1449 18.1277 31.9715C17.394 30.5518 16.122 30.4085 15.5092 30.734C15.214 30.8909 15.0831 31.1346 15.1415 31.426C15.2078 31.757 15.5353 32.2507 16.4312 32.8022C17.4247 33.4139 17.8938 34.175 17.8776 34.9448C17.8616 35.7015 17.3775 36.3451 16.7277 36.7305C16.0732 37.1187 15.2116 37.2729 14.3539 37.033C13.489 36.7911 12.6581 36.1574 12.0512 35.0245C11.9591 34.8524 12.0239 34.6382 12.1959 34.546C12.368 34.4538 12.5822 34.5186 12.6744 34.6907C13.2025 35.6766 13.8884 36.1688 14.5443 36.3523C15.2074 36.5377 15.8707 36.417 16.3671 36.1225C16.8683 35.8252 17.1614 35.3785 17.1709 34.9299C17.1801 34.4943 16.9229 33.9351 16.0606 33.4042C15.1006 32.8132 14.5718 32.1814 14.4483 31.5649C14.3169 30.9089 14.6627 30.3832 15.1776 30.1097Z" fill="black"/>
<path fill-rule="evenodd" clip-rule="evenodd" d="M18.1699 29.4222C18.3365 29.5239 18.3892 29.7414 18.2875 29.908C17.2579 31.5956 14.7246 35.653 13.3251 37.7333C13.2162 37.8953 12.9966 37.9383 12.8346 37.8293C12.6726 37.7204 12.6297 37.5007 12.7386 37.3388C14.1291 35.2718 16.6558 31.2253 17.6841 29.5398C17.7858 29.3732 18.0033 29.3206 18.1699 29.4222Z" fill="black"/>
</svg>