<svg width="113" height="60" viewBox="0 0 113 60" fill="none" xmlns="http://www.w3.org/2000/svg">
<g clip-path="url(#clip0)">
<path d="M34.4636 0.916992L31.5156 3.72908L29 8.69599H31.2682L34.4636 0.916992ZM34.8558 1.57494L33.5976 5.47566L36.01 8.80961L31.3301 9.69413H39L34.8558 1.57494Z" fill="#0072C6"/>
</g>
<path d="M93.8275 42.2736C94.0164 49.6009 79.9693 55.9097 62.4526 56.3647C44.9358 56.8198 30.5826 51.2488 30.3937 43.9215C30.2049 36.5942 44.2519 30.2854 61.7686 29.8304C79.2854 29.3753 93.6386 34.9464 93.8275 42.2736Z" fill="url(#paint0_radial)" fill-opacity="0.2"/>
<path fill-rule="evenodd" clip-rule="evenodd" d="M60.6061 33.1284C59.8859 33.2971 59.1659 33.4653 58.4448 33.6297C58.4011 33.6397 58.3644 33.6642 58.3386 33.6969L58.3792 33.6901L58.3134 33.7392C58.2979 33.7749 58.2933 33.8157 58.3025 33.8566C58.3256 33.9587 58.4268 34.0227 58.5285 33.9995C59.3551 33.811 60.1808 33.6175 61.0058 33.4242L61.2248 33.3729C61.5202 33.4444 63.6065 33.9239 63.901 33.9995C64.0021 34.0254 64.1049 33.9642 64.1307 33.8627C64.1565 33.7613 64.0956 33.658 63.9945 33.6321C63.9246 33.6141 62.0632 33.1905 61.9932 33.1728C62.0467 33.1284 62.0737 33.056 62.0569 32.9836C62.0333 32.8816 61.9318 32.8182 61.8302 32.8419C61.6288 32.8889 61.4274 32.936 61.2261 32.9832C61.0941 32.9514 60.962 32.9201 60.8298 32.8893C60.7282 32.8656 60.6267 32.9291 60.6031 33.031C60.5954 33.0644 60.597 33.0978 60.6061 33.1284ZM54.5983 34.7897C54.6192 34.8923 54.5534 34.9925 54.4512 35.0135C54.2017 35.0647 54.0456 35.0947 53.9349 35.116C53.9017 35.1224 53.8725 35.1281 53.8461 35.1332L53.8467 35.1311L53.4942 34.7773C53.5482 34.5974 53.6052 34.4073 53.6658 34.2044C53.6957 34.1041 53.801 34.0472 53.9009 34.0773C54.0008 34.1074 54.0575 34.2131 54.0276 34.3134C53.9835 34.4609 53.9414 34.6016 53.9009 34.7365C54.0128 34.7148 54.1617 34.6859 54.3755 34.642C54.4777 34.621 54.5774 34.6871 54.5983 34.7897ZM53.3481 34.8694L53.2477 35.2976L53.2204 35.3062C53.1469 35.3292 53.0607 35.3561 52.9585 35.388C52.8589 35.419 52.753 35.3631 52.7221 35.2631C52.6912 35.1631 52.7469 35.0569 52.8465 35.0258C52.9437 34.9956 53.0269 34.9695 53.0992 34.9469C53.2015 34.9148 53.2818 34.8897 53.3481 34.8694ZM52.8423 36.9652C52.7357 37.3314 52.6278 37.7103 52.5063 38.1474C52.3061 38.0996 52.1057 38.0531 51.905 38.008C51.8032 37.9851 51.7022 38.0494 51.6794 38.1516C51.6566 38.2538 51.7207 38.3552 51.8224 38.378C52.017 38.4217 52.2112 38.4668 52.4053 38.513L52.3898 38.5692C52.3621 38.6702 52.4212 38.7746 52.5217 38.8024L52.5247 38.8032V41.6683C52.4177 41.6347 52.3108 41.601 52.2038 41.5671C52.1043 41.5356 51.9983 41.591 51.9669 41.6909C51.9355 41.7907 51.9907 41.8972 52.0901 41.9287C52.2359 41.9749 52.3817 42.0208 52.5278 42.0666C52.5438 42.1549 52.6209 42.2219 52.7135 42.2219C52.7658 42.2219 52.8131 42.2006 52.8472 42.1662C54.046 42.5388 55.2542 42.8989 56.4612 43.2587L56.4617 43.2588C57.592 43.5957 58.7212 43.9323 59.8407 44.2785C59.783 44.2892 59.7252 44.2999 59.6672 44.3105C59.5646 44.3294 59.4966 44.4281 59.5154 44.5311C59.5341 44.6341 59.6325 44.7024 59.7351 44.6836C59.8503 44.6624 59.9649 44.6411 60.0789 44.6197V44.6866C60.0789 44.7913 60.1634 44.8762 60.2677 44.8762C60.372 44.8762 60.4566 44.7913 60.4566 44.6866V44.5477C62.6795 44.1185 64.6911 43.6326 66.8178 43.1188L66.8192 43.1185C67.2117 43.0236 67.6082 42.9278 68.0107 42.8313V42.9803C68.0107 43.085 68.0953 43.1699 68.1996 43.1699C68.3039 43.1699 68.3884 43.085 68.3884 42.9803V42.7409C68.59 42.6928 68.7932 42.6445 68.9983 42.5961C69.0998 42.5721 69.1627 42.47 69.1388 42.3681C69.1149 42.2661 69.0133 42.203 68.9117 42.2269C68.7359 42.2685 68.5615 42.3099 68.3884 42.3511V39.1884C68.3884 39.1166 68.3903 39.0392 68.3939 38.9568C68.5938 38.9071 68.7963 38.856 69.0017 38.8033C69.1028 38.7774 69.1638 38.6742 69.138 38.5727C69.1122 38.4712 69.0093 38.41 68.9083 38.4359C68.7436 38.4781 68.5809 38.5193 68.4199 38.5596C68.4578 38.102 68.5251 37.5539 68.5943 36.9904L68.5995 36.9483C68.6627 36.4334 68.7269 35.9077 68.7682 35.4384C68.8677 35.463 68.9691 35.4033 68.9958 35.3034C69.0075 35.2594 69.0029 35.2148 68.9855 35.1763L68.3522 35.8121C68.3154 36.1596 68.2703 36.5302 68.2246 36.9019L68.2166 36.9669C68.1502 37.5075 68.0838 38.0484 68.045 38.5107C68.0234 38.5415 68.0107 38.5791 68.0107 38.6196V38.6609C65.4526 39.2873 63.3052 39.6861 60.7329 40.1637L60.7319 40.1639L60.4566 40.2151V40.1364C60.4566 40.0317 60.372 39.9468 60.2677 39.9468C60.1634 39.9468 60.0789 40.0317 60.0789 40.1364V40.2844C59.2195 40.0129 58.355 39.7614 57.4925 39.5118L57.155 39.4141C55.7474 39.0063 54.3315 38.5961 52.9024 38.2435V38.2404H52.5247L52.8423 36.9652ZM66.6315 34.8122L66.9048 34.4985C66.7645 34.4564 66.6239 34.414 66.485 34.3722C65.9563 34.2131 65.4519 34.0613 65.0776 33.9521L64.9415 34.3073C65.309 34.4143 65.82 34.5681 66.3595 34.7304C66.4495 34.7575 66.5404 34.7848 66.6315 34.8122ZM68.0107 39.0511V39.1884V42.4414C67.5765 42.5455 67.1497 42.6486 66.7279 42.7505L66.7242 42.7514L66.7236 42.7515L66.7232 42.7516C64.6213 43.2594 62.6408 43.7378 60.4566 44.1616V40.8038C60.8148 40.9208 61.1716 41.0418 61.5265 41.1682C61.6248 41.2032 61.7328 41.1516 61.7677 41.0529C61.8026 40.9543 61.7511 40.8459 61.6528 40.8109C61.3818 40.7143 61.1097 40.6209 60.8369 40.5301C63.3633 40.0609 65.4924 39.6649 68.0107 39.0511ZM59.2927 40.4376C59.2153 40.4728 59.1687 40.5575 59.185 40.6451C59.2041 40.7481 59.3028 40.8159 59.4053 40.7967C59.626 40.7554 59.843 40.7149 60.0568 40.6751L60.0789 40.6821V43.9554C58.9038 43.591 57.7317 43.2417 56.5607 42.8928C55.3406 42.5292 54.1218 42.166 52.9024 41.7864V38.634C54.2926 38.9795 55.6726 39.3793 57.0528 39.7791L57.3878 39.8761C58.0248 40.0605 58.6604 40.2452 59.2927 40.4376Z" fill="black"/>
<path fill-rule="evenodd" clip-rule="evenodd" d="M11.119 25.1234C11.1192 25.1264 11.1194 25.1295 11.1198 25.1325C10.4792 25.2257 9.84091 25.3152 9.20203 25.4049C8.40045 25.5173 7.598 25.6299 6.78924 25.75C6.49287 25.7941 6.18235 25.8513 5.87393 25.9082C5.63588 25.9521 5.39907 25.9958 5.17099 26.0329L5.1806 26.0265C5.26715 25.968 5.29014 25.8502 5.23194 25.7633C5.17374 25.6764 5.05639 25.6534 4.96984 25.7118C4.8411 25.7987 4.71225 25.8855 4.58338 25.9723L4.58309 25.9725L4.33593 26.139C4.07987 26.1597 3.82588 26.1668 3.57411 26.1538C3.46994 26.1484 3.38115 26.2288 3.37578 26.3334C3.37041 26.4379 3.4505 26.5271 3.55466 26.5325C3.61815 26.5357 3.68165 26.5378 3.74514 26.5388C2.95768 27.0745 2.17616 27.621 1.41994 28.207C1.39706 28.1971 1.37184 28.1917 1.34535 28.1917C1.24105 28.1917 1.15649 28.2765 1.15649 28.3813V28.4137C1.05037 28.4979 0.944807 28.583 0.839846 28.6691C0.789582 28.6545 0.73931 28.64 0.689027 28.6255C0.588739 28.5968 0.484211 28.6551 0.455557 28.7558C0.43415 28.831 0.461148 28.9086 0.517993 28.955C0.482416 29.0215 0.488554 29.1057 0.539902 29.167C0.607086 29.2471 0.726225 29.2573 0.806006 29.1899C0.845823 29.1562 0.885737 29.1227 0.925748 29.0893C1.00275 29.1121 1.07966 29.135 1.15649 29.1582V31.9941L1.03372 31.9481C0.936009 31.9115 0.827216 31.9613 0.790723 32.0594C0.754229 32.1575 0.803854 32.2667 0.901562 32.3034C2.46278 32.8888 4.03501 33.4481 5.60998 33.994C5.59591 34.0267 5.59083 34.0637 5.59733 34.1014C5.61512 34.2046 5.71286 34.2738 5.81563 34.2559C5.91771 34.2382 6.0198 34.2206 6.12191 34.2031C6.15609 34.2374 6.20335 34.2587 6.25556 34.2587C6.28236 34.2587 6.30785 34.2531 6.33094 34.243C6.47432 34.2923 6.6177 34.3416 6.76109 34.3907C6.8598 34.4246 6.96714 34.3717 7.00084 34.2726C7.02699 34.1957 7.00114 34.1136 6.94215 34.0649C9.27148 33.6792 11.6067 33.349 13.9502 33.0422L13.9366 33.0622C13.8782 33.1489 13.9008 33.2668 13.9871 33.3255C14.0735 33.3842 14.1909 33.3615 14.2494 33.2748C14.3172 33.1744 14.3856 33.0749 14.4548 32.9763C14.5545 32.9596 14.6238 32.8665 14.6108 32.7651L14.6099 32.7586C15.1712 31.9813 15.777 31.26 16.4249 30.5594C16.4343 30.5609 16.4439 30.5616 16.4537 30.5616C16.558 30.5616 16.6425 30.4767 16.6425 30.372V30.3266C16.8709 30.0847 17.1043 29.8448 17.3426 29.6055C17.4164 29.5314 17.4164 29.4114 17.3426 29.3374C17.2689 29.2633 17.1493 29.2633 17.0756 29.3374C16.9295 29.484 16.7851 29.631 16.6425 29.7786V27.0764C16.6981 27.0221 16.7535 26.9677 16.8089 26.9132C16.9094 26.9424 17.01 26.9712 17.1108 26.9996C17.2112 27.028 17.3155 26.9692 17.3437 26.8684C17.3719 26.7676 17.3134 26.6629 17.213 26.6346C17.1812 26.6256 17.1494 26.6166 17.1177 26.6076C17.1771 26.5484 17.2363 26.4891 17.2954 26.4298C17.3692 26.3557 17.3692 26.2357 17.2954 26.1617C17.2217 26.0876 17.1021 26.0876 17.0283 26.1617C16.92 26.2704 16.8112 26.3789 16.702 26.487C16.4439 26.4109 16.1865 26.3328 15.9293 26.2534L15.6273 26.5566C15.8495 26.6258 16.0721 26.6942 16.2952 26.7613C16.276 26.791 16.2648 26.8265 16.2648 26.8645V26.9162C15.551 27.6116 14.8221 28.2961 14.091 28.9766C14.068 28.9903 14.0482 29.0088 14.0329 29.0307C13.9451 29.1123 13.8574 29.1939 13.7696 29.2754C13.4947 29.3154 13.2195 29.3553 12.9442 29.3952L12.9441 29.3952L12.9441 29.3952C10.7747 29.7094 8.59599 30.025 6.44441 30.4446V30.2772C6.44441 30.1725 6.35986 30.0876 6.25556 30.0876C6.15126 30.0876 6.0667 30.1725 6.0667 30.2772V30.3757C5.53333 30.2002 4.99911 30.0194 4.46396 29.8382L4.46391 29.8382L4.46388 29.8382L4.46388 29.8382C3.4905 29.5086 2.51408 29.1781 1.5342 28.877V28.5979C2.47773 27.8589 3.46543 27.1832 4.46572 26.5084C4.72156 26.4845 4.97601 26.4488 5.22777 26.4078C5.47877 26.367 5.71968 26.3224 5.9572 26.2784L5.95721 26.2784L5.95722 26.2784L5.95723 26.2784L5.95725 26.2784L5.95726 26.2784C6.25396 26.2235 6.54536 26.1696 6.84451 26.1251C7.64048 26.0069 8.44441 25.8941 9.24922 25.7811L9.24925 25.7811L9.24931 25.7811C10.1515 25.6545 11.0548 25.5277 11.9492 25.393C11.9535 25.3924 11.9577 25.3916 11.9619 25.3907C12.4419 25.5294 12.9153 25.6853 13.3921 25.8423L13.3921 25.8423C13.6464 25.926 13.9016 26.0101 14.1593 26.092L14.4629 26.1886L14.463 26.1887L14.463 26.1887C14.5636 26.2207 14.6642 26.2527 14.7649 26.2848L15.0659 25.9826C14.9029 25.9309 14.74 25.879 14.5768 25.8271L14.2733 25.7305C14.0236 25.6512 13.7724 25.5684 13.52 25.4853C13.0141 25.3187 12.5035 25.1506 11.9911 25.0047C11.7503 24.9362 11.5515 24.9044 11.2948 24.9216C11.1908 24.9285 11.112 25.0189 11.119 25.1234ZM6.0667 33.751C4.55037 33.2272 3.03725 32.6923 1.5342 32.1348V29.2735C2.47033 29.5632 3.39659 29.8769 4.32553 30.1916L4.32555 30.1916L4.32556 30.1916L4.32558 30.1916L4.32571 30.1917L4.32584 30.1917L4.32596 30.1917L4.32624 30.1918L4.32627 30.1919C4.78742 30.3481 5.24922 30.5045 5.71322 30.6583C5.69172 30.6966 5.68336 30.7426 5.69281 30.7891C5.71369 30.8917 5.81345 30.9579 5.91564 30.937C5.96598 30.9266 6.01633 30.9164 6.0667 30.9062V33.751ZM16.2648 30.1759V27.4435C15.6592 28.0284 15.0445 28.6057 14.4293 29.1787C14.8277 29.12 15.2255 29.0605 15.6225 28.9996C15.7256 28.9838 15.822 29.0549 15.8377 29.1584C15.8535 29.2619 15.7827 29.3586 15.6796 29.3745C15.2454 29.441 14.8109 29.5059 14.3763 29.5698V32.4366C14.9619 31.6359 15.5927 30.8947 16.2648 30.1759ZM13.9987 32.6534C11.4741 32.9833 8.9566 33.34 6.44441 33.7636V30.8974C6.6298 30.9571 6.81566 31.0162 7.00209 31.0744C7.10168 31.1055 7.20753 31.0497 7.23852 30.9497C7.2695 30.8497 7.21388 30.7435 7.11429 30.7124L7.09542 30.7065C9.0469 30.3428 11.0168 30.0575 12.9877 29.772L12.9878 29.772L12.9878 29.772L12.9879 29.772L13.3068 29.7258C13.2769 29.793 13.2877 29.8745 13.3406 29.9319C13.4114 30.0088 13.5309 30.0135 13.6074 29.9424L13.646 29.9066L13.6474 29.9054L13.94 29.6337L13.9986 29.6252V32.6471L13.9987 32.6534Z" fill="black"/>
<path fill-rule="evenodd" clip-rule="evenodd" d="M72.7658 17.9226C72.8124 17.647 72.8567 17.3584 72.8858 17.1056C73.3754 17.057 73.8581 17.0093 74.336 16.9621L74.3361 16.9621C75.785 16.819 77.189 16.6804 78.6026 16.5345C79.281 16.6413 79.9795 16.7393 80.688 16.8387L80.688 16.8387L80.688 16.8387C82.0177 17.0253 83.3824 17.2169 84.7144 17.4799C85.0383 18.443 85.0815 18.5569 85.192 18.8486L85.1921 18.8487C85.2327 18.956 85.2825 19.0874 85.3588 19.294C85.173 19.3225 84.9887 19.3509 84.8053 19.3791L84.8036 19.3793C82.9734 19.6607 81.2497 19.9257 79.3413 20.1596V20.0391C79.3413 19.9344 79.2568 19.8495 79.1525 19.8495C79.0482 19.8495 78.9636 19.9344 78.9636 20.0391V20.1226C78.5275 20.0435 78.1287 19.9718 77.759 19.9053L77.7583 19.9051L77.7583 19.9051L77.7582 19.9051L77.7582 19.9051C75.6026 19.5173 74.4319 19.3066 72.5933 18.859L72.598 18.8352C72.6055 18.797 72.6136 18.7558 72.6221 18.712H72.1649V18.7534C72.1177 18.7417 72.07 18.7297 72.0218 18.7176C72.0077 18.7141 71.9936 18.7122 71.9796 18.712H71.9721C71.889 18.7136 71.8139 18.7707 71.7928 18.8556C71.7675 18.9572 71.829 19.0601 71.9302 19.0855C72.0097 19.1055 72.0879 19.125 72.1649 19.1441V22.1572L72.0112 22.128C71.9087 22.1085 71.8099 22.1761 71.7905 22.2789C71.771 22.3818 71.8383 22.481 71.9408 22.5006C73.4218 22.7827 74.9168 23.0507 76.4108 23.3185L76.4109 23.3185L76.4115 23.3186L76.4118 23.3187C76.9783 23.4202 77.5447 23.5217 78.1101 23.624L77.9888 23.6439C77.8858 23.6609 77.8161 23.7584 77.833 23.8617C77.8499 23.9651 77.947 24.0351 78.0499 24.0181C78.3636 23.9665 78.6688 23.9166 78.9672 23.8678C78.9842 23.9549 79.0607 24.0206 79.1525 24.0206C79.251 24.0206 79.3319 23.9449 79.3406 23.8483C79.6445 23.9043 79.948 23.9606 80.2509 24.0174C80.3534 24.0366 80.4521 23.9688 80.4712 23.8659C80.4901 23.7646 80.425 23.6672 80.3253 23.6457C82.0442 23.3627 83.6055 23.0932 85.3847 22.7151V22.7883C85.3847 22.893 85.4692 22.9779 85.5735 22.9779C85.6778 22.9779 85.7624 22.893 85.7624 22.7883V22.6338C85.9619 22.5905 86.1643 22.5457 86.3703 22.4993C86.4721 22.4764 86.536 22.3749 86.5132 22.2728C86.4904 22.1706 86.3894 22.1064 86.2876 22.1293C86.11 22.1693 85.9351 22.2081 85.7624 22.2458V20.0392C85.7837 20.0392 85.8054 20.0355 85.8267 20.0278C85.9248 19.9921 85.9754 19.8834 85.9399 19.785C85.9161 19.719 85.8937 19.6572 85.8726 19.5989C86.1561 19.5557 86.4432 19.5121 86.7346 19.4683C86.8378 19.4528 86.9089 19.3562 86.8934 19.2527C86.878 19.1491 86.7818 19.0778 86.6787 19.0933C86.3663 19.1402 86.0593 19.1869 85.7564 19.2331C85.7478 19.2001 85.7307 19.1705 85.7074 19.147C85.6327 18.9448 85.5839 18.8162 85.5442 18.7115L85.5441 18.7112L85.5439 18.7106L85.5439 18.7106L85.5439 18.7106C85.4436 18.446 85.4008 18.3331 85.1425 17.5673L85.1569 17.5703C85.259 17.5919 85.3591 17.5263 85.3806 17.4239C85.4021 17.3214 85.3368 17.2209 85.2347 17.1993C85.1575 17.183 85.0801 17.1669 85.0026 17.1511L84.997 17.1347C84.9637 17.0355 84.8566 16.9821 84.7578 17.0156C84.719 17.0287 84.6873 17.0531 84.6651 17.084C83.3612 16.8313 82.0156 16.6422 80.7155 16.4595L80.7155 16.4595L80.7155 16.4595L80.7155 16.4595C80.3754 16.4117 80.0384 16.3644 79.7061 16.3164C79.7168 16.289 79.7213 16.2587 79.718 16.2275C79.7071 16.1233 79.6142 16.0478 79.5105 16.0587C79.2105 16.0903 78.9115 16.1214 78.613 16.1523C78.4233 16.1223 78.2358 16.0917 78.0508 16.0603C77.948 16.0428 77.8505 16.1124 77.8331 16.2156C77.8322 16.2212 77.8315 16.2268 77.8311 16.2324C76.6646 16.3512 75.4982 16.4663 74.3005 16.5846C73.8448 16.6296 73.3847 16.6751 72.9182 16.7213C72.9196 16.6878 72.9203 16.6561 72.9203 16.6264C72.9203 16.5217 72.8357 16.4368 72.7314 16.4368C72.6271 16.4368 72.5426 16.5217 72.5426 16.6264C72.5426 16.6661 72.5411 16.7106 72.5383 16.7591C72.3458 16.7782 72.1522 16.7975 71.9573 16.817C71.8535 16.8273 71.7778 16.9202 71.7881 17.0244C71.7984 17.1286 71.8909 17.2047 71.9947 17.1943L72.5008 17.1438C72.4738 17.3608 72.4361 17.6058 72.3953 17.8482L72.7658 17.9226ZM78.5872 20.4402L78.5871 20.4398C78.271 20.3826 77.9748 20.3293 77.695 20.279L77.6948 20.279L77.6948 20.279L77.6948 20.279C75.5517 19.8934 74.3717 19.6811 72.5426 19.2368V22.2286C73.851 22.4745 75.161 22.7093 76.4719 22.9442L76.4719 22.9442L76.472 22.9442L76.472 22.9443L76.4721 22.9443L76.4722 22.9443C77.3023 23.0931 78.1328 23.2419 78.9636 23.3937V20.587C78.9081 20.5936 78.8524 20.6001 78.7966 20.6067C78.693 20.6187 78.5992 20.5442 78.5872 20.4402ZM84.8648 19.7535L84.8647 19.7535C83.1342 20.0196 81.4934 20.2718 79.7021 20.4969C79.6672 20.5741 79.5833 20.6207 79.4964 20.6049L79.3413 20.5766V23.4226C81.4675 23.0756 83.2683 22.7794 85.3847 22.3274V19.6737L84.8651 19.7535L84.8649 19.7535L84.8648 19.7535Z" fill="black"/>
<path fill-rule="evenodd" clip-rule="evenodd" d="M35.3169 11.2516C35.4457 11.2847 35.5745 11.3181 35.7038 11.3516L35.7038 11.3516L35.7039 11.3516C36.4483 11.5446 37.2092 11.7418 38.0656 11.9168L38.0386 11.944L38.0384 11.9442L38.0384 11.9442C37.7972 12.1876 37.5578 12.4291 37.3191 12.6679C37.2922 12.653 37.2612 12.6446 37.2283 12.6446C37.124 12.6446 37.0394 12.7295 37.0394 12.8342V12.8783C36.1949 12.9353 35.3305 13.0164 34.469 13.101C34.294 13.1182 34.1191 13.1355 33.9446 13.1528C33.213 13.2252 32.4867 13.2971 31.7774 13.3561C31.0009 13.2075 30.2277 13.0473 29.4524 12.8868L29.4524 12.8868L29.4524 12.8868L29.4523 12.8868C29.1077 12.8154 28.7627 12.744 28.4168 12.6735C28.9798 12.3209 29.5167 11.9396 30.0471 11.5402C30.0626 11.5285 30.0759 11.5148 30.0867 11.4998C31.422 11.3915 32.7654 11.2734 34.0972 11.0775L34.2558 10.6C34.2376 10.5958 34.2195 10.5916 34.2013 10.5875C34.106 10.5657 34.0112 10.6205 33.9805 10.7114C32.5114 10.9248 31.024 11.0443 29.5356 11.1638L29.5356 11.1638C29.3878 11.1757 29.2401 11.1876 29.0924 11.1995C28.9884 11.208 28.9109 11.2994 28.9193 11.4038C28.9277 11.5081 29.0188 11.5859 29.1227 11.5775L29.3892 11.556C28.8955 11.9144 28.3948 12.2525 27.8702 12.563L27.8224 12.5534C27.7201 12.533 27.6207 12.5997 27.6003 12.7024C27.58 12.8051 27.6465 12.9049 27.7488 12.9253L27.861 12.9478C27.8648 12.9487 27.8686 12.9494 27.8724 12.9501L27.9744 12.9706V15.0789C27.9165 15.0725 27.8584 15.067 27.8002 15.0625C27.6962 15.0544 27.6054 15.1324 27.5973 15.2368C27.5892 15.3412 27.6669 15.4324 27.7709 15.4405C27.839 15.4459 27.9068 15.4525 27.9744 15.4605V15.4885C27.9744 15.5932 28.059 15.6781 28.1633 15.6781C28.258 15.6781 28.3364 15.6081 28.35 15.5168C28.8105 15.5999 29.2661 15.7297 29.7304 15.862L29.7304 15.862C29.8541 15.8973 29.9785 15.9327 30.1038 15.9675C30.2139 15.9981 30.3238 16.0282 30.4334 16.0583L30.4338 16.0584L30.4338 16.0584C30.8191 16.1641 31.2004 16.2687 31.5759 16.3879C31.606 16.4642 31.6835 16.5148 31.7691 16.5068L31.8984 16.4947C31.9229 16.5032 31.9475 16.5118 31.9719 16.5205C32.0457 16.5466 32.1247 16.524 32.1743 16.4695C32.8801 16.406 33.59 16.3483 34.3008 16.2906L34.3009 16.2906L34.3009 16.2906L34.3009 16.2906L34.3009 16.2906L34.3009 16.2906C35.2088 16.2169 36.1182 16.143 37.0227 16.0566C37.0458 16.0586 37.0692 16.0564 37.0917 16.0499C37.2302 16.0366 37.3686 16.0229 37.5069 16.0089C37.6107 15.9984 37.6863 15.9055 37.6759 15.8013C37.6677 15.7201 37.6097 15.6561 37.5354 15.6367C38.0203 15.1448 38.2631 14.8726 38.8866 14.0902C38.9517 14.0084 38.9385 13.8891 38.8571 13.8237C38.7756 13.7583 38.6568 13.7715 38.5916 13.8533L38.5503 13.9052V12.0113C38.6637 12.0324 38.779 12.053 38.8961 12.0731C38.9989 12.0907 39.0965 12.0214 39.1141 11.9182C39.1317 11.815 39.0626 11.717 38.9598 11.6993C38.9183 11.6922 38.8771 11.685 38.8361 11.6778L38.8727 11.6411C38.9464 11.567 38.9464 11.447 38.8727 11.373C38.7989 11.2989 38.6793 11.2989 38.6056 11.373C38.5536 11.4251 38.5018 11.4772 38.4501 11.5292C38.4237 11.515 38.3935 11.507 38.3614 11.507C38.3091 11.507 38.2617 11.5284 38.2275 11.5629C37.3495 11.3867 36.5822 11.1876 35.8212 10.9902L35.821 10.9901C35.6975 10.9581 35.5741 10.9261 35.4504 10.8942L35.3169 11.2516ZM35.469 10.8445C35.517 10.8352 35.5649 10.8257 35.6128 10.8161C35.7151 10.7955 35.7814 10.6956 35.761 10.593C35.746 10.5175 35.6882 10.4615 35.6181 10.4453L35.469 10.8445ZM31.7515 16.0461V13.7388C31.566 13.754 31.3816 13.7684 31.1985 13.7817C31.0945 13.7892 31.0041 13.7106 30.9966 13.6062C30.9962 13.6006 30.996 13.595 30.9961 13.5895C30.4526 13.4811 29.9103 13.3688 29.3685 13.2566L29.3685 13.2566L29.3685 13.2566C29.0295 13.1864 28.6908 13.1163 28.3521 13.0472V15.1324C28.8611 15.2196 29.3583 15.3615 29.842 15.4995L29.842 15.4995C29.9637 15.5342 30.0845 15.5687 30.2045 15.602C30.3122 15.6319 30.4205 15.6616 30.5292 15.6914C30.9351 15.8027 31.346 15.9154 31.7515 16.0461ZM36.9574 15.6819L37.0614 15.5774C37.0474 15.5509 37.0394 15.5206 37.0394 15.4885V13.3778C36.9988 13.3727 36.9595 13.3543 36.9285 13.3227C36.9126 13.3065 36.9002 13.2882 36.8913 13.2686C36.1084 13.3243 35.3079 13.3996 34.5057 13.4784C34.3325 13.4954 34.1593 13.5125 33.9861 13.5297L33.9849 13.5298L33.9845 13.5298L33.9828 13.53H33.9828L33.9824 13.53L33.9824 13.53L33.9824 13.53L33.9824 13.53L33.9823 13.5301L33.9823 13.5301L33.9823 13.5301C33.6368 13.5643 33.2916 13.5985 32.9484 13.6313C32.9736 13.67 32.9848 13.7181 32.9763 13.7672C32.9584 13.8704 32.8606 13.9395 32.7578 13.9215C32.5481 13.8849 32.3385 13.8471 32.1292 13.8083V16.0929C32.8484 16.028 33.5642 15.9699 34.2791 15.9119L34.2792 15.9119L34.2792 15.9119L34.2792 15.9119L34.2792 15.9119L34.2793 15.9119L34.2793 15.9119L34.2793 15.9119C35.1721 15.8395 36.0633 15.7671 36.9574 15.6819ZM38.1735 14.3705C37.888 14.7163 37.6864 14.9392 37.4171 15.2166V13.2342C37.5467 13.2265 37.6758 13.2195 37.8041 13.2131C37.9083 13.208 37.9886 13.1191 37.9835 13.0145C37.9784 12.9099 37.8898 12.8293 37.7856 12.8344C37.7513 12.8361 37.7169 12.8378 37.6825 12.8396C37.8454 12.6763 38.0087 12.5117 38.1726 12.3465V14.3509C38.1726 14.3576 38.1729 14.3641 38.1735 14.3705Z" fill="black"/>
<path fill-rule="evenodd" clip-rule="evenodd" d="M59.0162 39.9511C59.1181 39.9735 59.1826 40.0745 59.1604 40.1768L58.3767 43.7791C58.3544 43.8814 58.2538 43.9462 58.1519 43.9239C58.05 43.9015 57.9854 43.8005 58.0077 43.6982L58.7914 40.0959C58.8136 39.9936 58.9143 39.9288 59.0162 39.9511ZM60.1317 40.3319C60.2327 40.3581 60.2935 40.4614 60.2674 40.5628L59.4401 43.786C59.4141 43.8874 59.3111 43.9484 59.2101 43.9222C59.1091 43.8961 59.0483 43.7927 59.0743 43.6913L59.9017 40.4682C59.9277 40.3668 60.0307 40.3058 60.1317 40.3319ZM57.9677 39.9527C58.0688 39.9789 58.1295 40.0823 58.1035 40.1836L57.2761 43.4068C57.2501 43.5082 57.1471 43.5692 57.0461 43.543C56.9451 43.5169 56.8844 43.4135 56.9104 43.3121L57.7377 40.089C57.7638 39.9876 57.8667 39.9266 57.9677 39.9527Z" fill="black"/>
<path fill-rule="evenodd" clip-rule="evenodd" d="M64.0045 39.5734C64.1055 39.5996 64.1663 39.703 64.1403 39.8044L63.1182 43.7858C63.0922 43.8872 62.9892 43.9482 62.8882 43.9221C62.7872 43.896 62.7264 43.7926 62.7525 43.6912L63.7745 39.7097C63.8005 39.6083 63.9035 39.5473 64.0045 39.5734ZM62.7195 39.8813C62.8205 39.9075 62.8812 40.0109 62.8552 40.1123L61.8354 44.085C61.8094 44.1864 61.7064 44.2474 61.6054 44.2212C61.5044 44.1951 61.4436 44.0917 61.4697 43.9903L62.4894 40.0176C62.5155 39.9162 62.6185 39.8552 62.7195 39.8813ZM61.5972 40.1422C61.6982 40.1684 61.759 40.2717 61.733 40.3731L60.7109 44.3546C60.6849 44.456 60.5819 44.517 60.4809 44.4909C60.3799 44.4648 60.3192 44.3614 60.3452 44.26L61.3672 40.2785C61.3932 40.1771 61.4962 40.1161 61.5972 40.1422Z" fill="black"/>
<path fill-rule="evenodd" clip-rule="evenodd" d="M54.7835 38.7319C54.8845 38.758 54.9452 38.8614 54.9192 38.9628L54.0701 42.2705C54.0441 42.3719 53.9411 42.433 53.8401 42.4068C53.7391 42.3807 53.6783 42.2773 53.7044 42.1759L54.5535 38.8682C54.5795 38.7668 54.6825 38.7058 54.7835 38.7319ZM55.7683 39.0061C55.8693 39.0322 55.9301 39.1356 55.9041 39.237L55.0281 42.6497C55.002 42.7511 54.8991 42.8121 54.7981 42.786C54.6971 42.7599 54.6363 42.6565 54.6623 42.5551L55.5383 39.1424C55.5644 39.041 55.6673 38.98 55.7683 39.0061ZM56.877 39.3853C56.978 39.4114 57.0388 39.5148 57.0128 39.6162L56.1367 43.0289C56.1107 43.1303 56.0077 43.1913 55.9067 43.1652C55.8057 43.1391 55.745 43.0357 55.771 42.9343L56.647 39.5216C56.673 39.4202 56.776 39.3592 56.877 39.3853Z" fill="black"/>
<path fill-rule="evenodd" clip-rule="evenodd" d="M67.5504 39.0051C67.6514 39.0312 67.7122 39.1346 67.6862 39.236L66.7128 43.0279C66.6868 43.1293 66.5838 43.1903 66.4828 43.1642C66.3818 43.1381 66.321 43.0347 66.3471 42.9333L67.3204 39.1414C67.3465 39.04 67.4494 38.979 67.5504 39.0051ZM66.2811 39.2517C66.3821 39.2778 66.4429 39.3812 66.4169 39.4826L65.4094 43.4071C65.3834 43.5085 65.2804 43.5695 65.1794 43.5434C65.0784 43.5172 65.0177 43.4139 65.0437 43.3125L66.0511 39.388C66.0771 39.2866 66.1801 39.2256 66.2811 39.2517ZM65.2258 39.2517C65.3268 39.2778 65.3876 39.3812 65.3616 39.4826L64.3542 43.4071C64.3281 43.5085 64.2252 43.5695 64.1242 43.5434C64.0232 43.5172 63.9624 43.4139 63.9884 43.3125L64.9958 39.388C65.0218 39.2866 65.1248 39.2256 65.2258 39.2517Z" fill="black"/>
<path fill-rule="evenodd" clip-rule="evenodd" d="M53.636 38.435C53.737 38.4611 53.7978 38.5645 53.7718 38.6659L52.9444 41.889C52.9184 41.9904 52.8154 42.0514 52.7144 42.0253C52.6134 41.9992 52.5526 41.8958 52.5786 41.7944L53.406 38.5713C53.432 38.4699 53.535 38.4089 53.636 38.435Z" fill="black"/>
<path fill-rule="evenodd" clip-rule="evenodd" d="M4.86452 29.8959C4.96552 29.9221 5.0263 30.0255 5.00027 30.1269L4.21938 33.1689C4.19335 33.2703 4.09037 33.3313 3.98937 33.3052C3.88837 33.2791 3.82759 33.1757 3.85362 33.0743L4.63451 30.0322C4.66054 29.9308 4.76352 29.8698 4.86452 29.8959ZM6.97759 30.4733C7.07859 30.4994 7.13937 30.6028 7.11334 30.7042L6.23732 34.1169C6.21129 34.2183 6.10831 34.2793 6.00731 34.2532C5.90631 34.2271 5.84553 34.1237 5.87156 34.0223L6.74759 30.6096C6.77361 30.5082 6.87659 30.4472 6.97759 30.4733ZM5.77158 30.4733C5.87258 30.4994 5.93336 30.6028 5.90733 30.7042L5.17731 33.5481C5.15128 33.6495 5.0483 33.7105 4.9473 33.6844C4.8463 33.6583 4.78552 33.5549 4.81155 33.4535L5.54157 30.6096C5.5676 30.5082 5.67058 30.4472 5.77158 30.4733Z" fill="black"/>
<path fill-rule="evenodd" clip-rule="evenodd" d="M10.8033 29.9045C10.9043 29.9306 10.9651 30.034 10.9391 30.1354L10.1178 33.3348C10.0918 33.4362 9.98882 33.4972 9.88782 33.471C9.78682 33.4449 9.72604 33.3415 9.75207 33.2401L10.5733 30.0408C10.5994 29.9394 10.7023 29.8784 10.8033 29.9045ZM9.59732 29.9045C9.69833 29.9306 9.7591 30.034 9.73307 30.1354L8.85705 33.5481C8.83102 33.6495 8.72804 33.7105 8.62704 33.6844C8.52604 33.6583 8.46526 33.5549 8.49129 33.4535L9.36732 30.0408C9.39334 29.9394 9.49632 29.8784 9.59732 29.9045ZM8.44472 30.2837C8.54572 30.3098 8.6065 30.4132 8.58047 30.5146L7.70445 33.9273C7.67842 34.0287 7.57544 34.0897 7.47444 34.0636C7.37344 34.0374 7.31266 33.9341 7.33869 33.8327L8.21471 30.42C8.24074 30.3186 8.34372 30.2576 8.44472 30.2837Z" fill="black"/>
<path fill-rule="evenodd" clip-rule="evenodd" d="M1.58229 29.0649C1.68329 29.091 1.74407 29.1944 1.71804 29.2958L1.45388 30.3249C1.42785 30.4263 1.32488 30.4873 1.22387 30.4612C1.12287 30.435 1.0621 30.3317 1.08812 30.2303L1.35229 29.2012C1.37831 29.0998 1.48129 29.0388 1.58229 29.0649ZM2.56807 29.3356C2.66907 29.3617 2.72985 29.4651 2.70382 29.5665L1.92513 32.6C1.8991 32.7014 1.79612 32.7624 1.69512 32.7363C1.59412 32.7102 1.53334 32.6068 1.55937 32.5054L2.33806 29.4719C2.36409 29.3705 2.46707 29.3095 2.56807 29.3356ZM3.66169 29.7735C3.76269 29.7996 3.82347 29.903 3.79744 30.0044L3.04002 32.955C3.014 33.0564 2.91102 33.1174 2.81002 33.0913C2.70901 33.0652 2.64824 32.9618 2.67427 32.8604L3.43168 29.9097C3.45771 29.8083 3.56069 29.7473 3.66169 29.7735Z" fill="black"/>
<path fill-rule="evenodd" clip-rule="evenodd" d="M14.3492 29.3361C14.4502 29.3623 14.511 29.4657 14.485 29.5671L13.6152 32.9556C13.5891 33.057 13.4862 33.118 13.3852 33.0919C13.2842 33.0657 13.2234 32.9623 13.2494 32.8609L14.1192 29.4724C14.1453 29.371 14.2482 29.31 14.3492 29.3361ZM13.0946 29.5257C13.1956 29.5519 13.2563 29.6553 13.2303 29.7566L12.3543 33.1694C12.3282 33.2708 12.2253 33.3318 12.1243 33.3057C12.0233 33.2795 11.9625 33.1761 11.9885 33.0747L12.8645 29.662C12.8906 29.5606 12.9936 29.4996 13.0946 29.5257ZM11.9906 29.7153C12.0916 29.7415 12.1524 29.8448 12.1264 29.9462L11.2503 33.359C11.2243 33.4604 11.1213 33.5214 11.0203 33.4953C10.9193 33.4691 10.8586 33.3657 10.8846 33.2643L11.7606 29.8516C11.7866 29.7502 11.8896 29.6892 11.9906 29.7153Z" fill="black"/>
<path fill-rule="evenodd" clip-rule="evenodd" d="M15.8529 27.6697C15.9572 27.6715 16.0403 27.7578 16.0386 27.8625L15.9906 30.7151C15.9888 30.8198 15.9029 30.9032 15.7986 30.9014C15.6943 30.8997 15.6112 30.8134 15.6129 30.7087L15.6609 27.8561C15.6627 27.7514 15.7486 27.6679 15.8529 27.6697ZM14.8118 28.5226C14.916 28.5185 15.0038 28.5999 15.008 28.7045L15.13 31.7639C15.1341 31.8685 15.053 31.9567 14.9488 31.9609C14.8446 31.9651 14.7567 31.8837 14.7526 31.7791L14.6306 28.7197C14.6264 28.615 14.7075 28.5268 14.8118 28.5226Z" fill="black"/>
<path fill-rule="evenodd" clip-rule="evenodd" d="M82.6148 20.0461C82.7158 20.0722 82.7766 20.1756 82.7506 20.277L81.9232 23.5001C81.8972 23.6015 81.7942 23.6625 81.6932 23.6364C81.5922 23.6103 81.5315 23.5069 81.5575 23.4055L82.3848 20.1824C82.4109 20.081 82.5138 20.02 82.6148 20.0461ZM81.4088 20.0461C81.5098 20.0722 81.5706 20.1756 81.5446 20.277L80.7172 23.5001C80.6912 23.6015 80.5882 23.6625 80.4872 23.6364C80.3862 23.6103 80.3255 23.5069 80.3515 23.4055L81.1788 20.1824C81.2049 20.081 81.3078 20.02 81.4088 20.0461ZM80.3337 20.1237C80.4347 20.1498 80.4955 20.2532 80.4694 20.3546L79.662 23.5002C79.6359 23.6016 79.533 23.6626 79.432 23.6365C79.331 23.6103 79.2702 23.5069 79.2962 23.4055L80.1037 20.2599C80.1297 20.1585 80.2327 20.0975 80.3337 20.1237Z" fill="black"/>
<path fill-rule="evenodd" clip-rule="evenodd" d="M79.3141 20.0461C79.4151 20.0722 79.4759 20.1756 79.4498 20.277L78.6225 23.5001C78.5965 23.6015 78.4935 23.6625 78.3925 23.6364C78.2915 23.6103 78.2307 23.5069 78.2567 23.4055L79.0841 20.1824C79.1101 20.081 79.2131 20.02 79.3141 20.0461ZM78.1081 20.0461C78.2091 20.0722 78.2698 20.1756 78.2438 20.277L77.5138 23.1209C77.4878 23.2223 77.3848 23.2833 77.2838 23.2572C77.1828 23.2311 77.122 23.1277 77.148 23.0263L77.8781 20.1824C77.9041 20.081 78.0071 20.02 78.1081 20.0461ZM77.0528 20.0461C77.1538 20.0722 77.2146 20.1756 77.1886 20.277L76.4585 23.1209C76.4325 23.2223 76.3295 23.2833 76.2285 23.2572C76.1275 23.2311 76.0667 23.1277 76.0928 23.0263L76.8228 20.1824C76.8488 20.081 76.9518 20.02 77.0528 20.0461Z" fill="black"/>
<path fill-rule="evenodd" clip-rule="evenodd" d="M85.1012 19.2877C85.2022 19.3138 85.2629 19.4172 85.2369 19.5186L84.4167 22.7137C84.3907 22.8151 84.2877 22.8761 84.1867 22.85C84.0857 22.8238 84.0249 22.7205 84.051 22.6191L84.8711 19.424C84.8972 19.3226 85.0001 19.2616 85.1012 19.2877ZM83.9485 19.6669C84.0495 19.693 84.1103 19.7964 84.0843 19.8978L83.3056 22.9313C83.2796 23.0327 83.1766 23.0937 83.0756 23.0676C82.9746 23.0415 82.9138 22.9381 82.9398 22.8367L83.7185 19.8032C83.7446 19.7018 83.8475 19.6408 83.9485 19.6669ZM85.8205 21.1836C85.9215 21.2098 85.9823 21.3132 85.9562 21.4145L85.6228 22.7137C85.5967 22.8151 85.4938 22.8761 85.3927 22.85C85.2917 22.8238 85.231 22.7205 85.257 22.6191L85.5905 21.3199C85.6165 21.2185 85.7195 21.1575 85.8205 21.1836Z" fill="black"/>
<path fill-rule="evenodd" clip-rule="evenodd" d="M74.8043 19.2877C74.9053 19.3138 74.966 19.4172 74.94 19.5186L74.1613 22.5521C74.1353 22.6535 74.0323 22.7145 73.9313 22.6884C73.8303 22.6623 73.7695 22.5589 73.7956 22.4575L74.5743 19.424C74.6003 19.3226 74.7033 19.2616 74.8043 19.2877ZM75.9129 19.6669C76.0139 19.693 76.0747 19.7964 76.0487 19.8978L75.27 22.9313C75.244 23.0327 75.141 23.0937 75.04 23.0676C74.939 23.0415 74.8782 22.9381 74.9042 22.8367L75.6829 19.8032C75.709 19.7018 75.8119 19.6408 75.9129 19.6669ZM73.749 19.2877C73.85 19.3138 73.9108 19.4172 73.8847 19.5186L73.1061 22.5521C73.08 22.6535 72.9771 22.7145 72.8761 22.6884C72.7751 22.6623 72.7143 22.5589 72.7403 22.4575L73.519 19.424C73.545 19.3226 73.648 19.2616 73.749 19.2877ZM68.3468 40.3327C68.4478 40.3589 68.5086 40.4622 68.4826 40.5636L67.9472 42.6492C67.9212 42.7506 67.8182 42.8116 67.7172 42.7855C67.6162 42.7593 67.5555 42.656 67.5815 42.5546L68.1168 40.469C68.1429 40.3676 68.2458 40.3066 68.3468 40.3327Z" fill="black"/>
<path fill-rule="evenodd" clip-rule="evenodd" d="M32.3043 13.4104C32.4053 13.4365 32.4661 13.5399 32.4401 13.6413L31.7587 16.2956C31.7327 16.397 31.6297 16.458 31.5287 16.4319C31.4277 16.4058 31.3669 16.3024 31.393 16.201L32.0743 13.5466C32.1003 13.4452 32.2033 13.3842 32.3043 13.4104ZM30.1404 13.0312C30.2414 13.0573 30.3022 13.1607 30.2761 13.2621L29.6685 15.6292C29.6425 15.7306 29.5395 15.7916 29.4385 15.7655C29.3375 15.7393 29.2767 15.6359 29.3027 15.5345L29.9104 13.1675C29.9364 13.0661 30.0394 13.005 30.1404 13.0312ZM31.0983 13.4104C31.1993 13.4365 31.2601 13.5399 31.2341 13.6413L30.65 15.9164C30.624 16.0178 30.521 16.0788 30.42 16.0527C30.319 16.0266 30.2582 15.9232 30.2843 15.8218L30.8683 13.5466C30.8943 13.4452 30.9973 13.3842 31.0983 13.4104Z" fill="black"/>
<path fill-rule="evenodd" clip-rule="evenodd" d="M28.9524 12.8403C29.0534 12.8664 29.1142 12.9698 29.0882 13.0712L28.5342 15.2293C28.5081 15.3307 28.4052 15.3917 28.3042 15.3656C28.2032 15.3395 28.1424 15.2361 28.1684 15.1347L28.7224 12.9766C28.7484 12.8752 28.8514 12.8142 28.9524 12.8403Z" fill="black"/>
<path fill-rule="evenodd" clip-rule="evenodd" d="M35.8385 13.2209C35.9395 13.247 36.0003 13.3504 35.9742 13.4518L35.3346 15.9438C35.3085 16.0452 35.2056 16.1062 35.1046 16.0801C35.0036 16.054 34.9428 15.9506 34.9688 15.8492L35.6085 13.3572C35.6345 13.2558 35.7375 13.1948 35.8385 13.2209ZM34.6325 13.2209C34.7335 13.247 34.7943 13.3504 34.7682 13.4518L34.0382 16.2957C34.0122 16.3971 33.9092 16.4582 33.8082 16.432C33.7072 16.4059 33.6464 16.3025 33.6724 16.2011L34.4025 13.3572C34.4285 13.2558 34.5315 13.1948 34.6325 13.2209ZM33.5199 13.444C33.6209 13.4702 33.6817 13.5735 33.6557 13.6749L32.9829 16.2957C32.9569 16.3971 32.8539 16.4582 32.7529 16.432C32.6519 16.4059 32.5912 16.3025 32.6172 16.2011L33.2899 13.5803C33.316 13.4789 33.4189 13.4179 33.5199 13.444Z" fill="black"/>
<path fill-rule="evenodd" clip-rule="evenodd" d="M38.4683 11.8932C38.5693 11.9193 38.6301 12.0227 38.6041 12.1241L37.728 15.5368C37.702 15.6382 37.599 15.6992 37.498 15.6731C37.397 15.6469 37.3363 15.5436 37.3623 15.4422L38.2383 12.0294C38.2643 11.9281 38.3673 11.867 38.4683 11.8932ZM37.1211 13.0307C37.2221 13.0569 37.2828 13.1602 37.2568 13.2616L36.5268 16.1056C36.5008 16.207 36.3978 16.268 36.2968 16.2419C36.1958 16.2157 36.135 16.1123 36.161 16.0109L36.891 13.167C36.9171 13.0656 37.0201 13.0046 37.1211 13.0307Z" fill="black"/>
<path fill-rule="evenodd" clip-rule="evenodd" d="M57.8123 35.5853L54.0352 34.8269L55.1683 34.4486C53.0909 24.9689 48.5584 5.44059 42.7039 4.30303C39.3574 3.65278 35.3386 10.1805 34.772 12.6452L36.094 13.214L32.3169 13.4036L33.0723 11.8868L33.6389 12.266C34.5202 9.54848 37.1138 3.88592 42.7039 3.73424C48.294 3.58256 54.7276 23.9577 57.0568 34.0694L58.3788 33.879L57.8123 35.5853ZM64.7238 35.1147L63.9684 33.5979L65.4792 33.9771C65.8569 26.9621 68.1853 16.3848 74.1665 18.2407C76.5989 18.9955 76.8617 18.9012 77.2493 18.7622C77.4335 18.6961 77.6458 18.6199 78.1324 18.6199L78.8879 20.1367L76.4328 19.5679C76.1809 19.0623 74.2798 18.582 73.2222 19.1887C73.1898 19.2073 73.1556 19.2268 73.1197 19.2471L73.1189 19.2476C71.6964 20.0555 67.7221 22.3125 66.8012 34.3309C66.7923 34.4471 66.885 34.448 66.885 34.6519C67.116 34.7376 66.412 34.716 66.6884 34.8269L64.7238 35.1147ZM111.447 46.919L112.013 58.4843L100.304 54.6924L105.404 52.9861C104.981 52.161 104.536 51.2389 104.058 50.2496L104.058 50.2492L104.058 50.2488C100.472 42.8273 95.061 31.6288 84.063 29.2867C74.9224 27.3402 65.7441 38.3873 65.7441 38.3873C65.7441 38.3873 66.6884 38.5769 68.0104 38.5769L61.5893 39.946L62.1559 37.6289L63.9684 37.8605L63.4779 38.5768C68.0104 32.5518 76.9621 24.8881 85.5738 26.2532C99.549 28.4685 108.425 51.4693 108.425 51.4693C108.425 51.4693 110.691 48.9414 111.447 46.919ZM53.2798 34.8269L55.3571 36.9125L52.3355 38.8084L52.902 36.9125C48.8732 30.5295 39.6822 19.0906 29.8618 19.4698C21.7697 19.7822 16.642 25.3472 15.1312 27.0536L13.9981 29.1391L11.543 27.0536H13.9981C17.0197 23.4513 24.7628 18.5218 29.2953 18.5218C34.9609 18.5218 38.9268 19.0906 44.7813 24.5888C49.4649 28.9874 51.9578 33.3102 53.2798 36.1541V34.8269Z" fill="#01C9CC"/>
<mask id="mask0" mask-type="alpha" maskUnits="userSpaceOnUse" x="59" y="15" width="23" height="22">
<path d="M67.9015 33.5224L65.2244 36.4378H63.8178L59.8701 28.1016L69.4442 15.6201H77.9747L81.3325 19.9476L67.9015 33.5224Z" fill="#C4C4C4"/>
</mask>
<g mask="url(#mask0)">
<path fill-rule="evenodd" clip-rule="evenodd" d="M67.9739 22.7626C66.4685 26.0295 65.6535 30.4083 65.4654 33.9006C65.4624 33.9571 65.4343 34.0093 65.389 34.0429C65.3436 34.0766 65.2857 34.0881 65.231 34.0743L64.1186 33.7951L64.6377 34.8376L67.2841 34.8198C67.1896 34.7845 67.1012 34.751 67.0208 34.7193C66.8661 34.6583 66.7302 34.5998 66.632 34.5429C66.5836 34.5149 66.5336 34.4813 66.4941 34.4406C66.457 34.4023 66.4028 34.3299 66.4105 34.2297C66.8841 28.0491 68.1641 24.4208 69.507 22.2366C70.7886 20.1519 72.1206 19.3952 72.8233 18.996C72.8592 18.9756 72.8936 18.9561 72.9262 18.9374C73.5091 18.603 74.2998 18.5768 74.9585 18.6875C75.2913 18.7435 75.6023 18.8363 75.8504 18.9512C76.0593 19.048 76.2538 19.1742 76.361 19.3314L76.6642 19.4632L78.3451 19.7906L77.8285 18.7533C77.4278 18.8495 77.1375 18.9009 76.9409 18.9283C76.8309 18.9436 76.7502 18.9515 76.6957 18.9555C76.6684 18.9575 76.6478 18.9585 76.6333 18.9591C76.6261 18.9594 76.6204 18.9595 76.6162 18.9596L76.6117 18.9597C76.3867 18.9661 76.2404 18.9187 75.9682 18.8191C75.9371 18.8077 75.9039 18.7955 75.8685 18.7824C75.595 18.6815 75.1832 18.5297 74.4749 18.3099C73.0422 17.8653 71.8021 18.1644 70.7279 18.9737C69.645 19.7896 68.7269 21.1283 67.9739 22.7626ZM76.6081 18.5805L76.6089 18.5805C76.6107 18.5804 76.6141 18.5804 76.619 18.5802C76.6289 18.5798 76.6451 18.579 76.668 18.5773C76.7139 18.5739 76.7865 18.567 76.889 18.5527C77.094 18.5241 77.4178 18.4663 77.8843 18.3493C77.9701 18.3278 78.0594 18.369 78.099 18.4484L78.8544 19.9652C78.8866 20.0298 78.8794 20.1071 78.8359 20.1646C78.7924 20.2222 78.7201 20.2499 78.6495 20.2361L76.5721 19.8315C76.5587 19.8289 76.5456 19.8248 76.533 19.8194L76.1553 19.6552C76.1146 19.6375 76.0813 19.6059 76.0615 19.566C76.0291 19.501 75.9154 19.399 75.6921 19.2955C75.4798 19.1972 75.2022 19.113 74.8961 19.0615C74.2768 18.9574 73.5882 18.9944 73.1136 19.2666C73.0806 19.2855 73.046 19.3052 73.0097 19.3258C72.326 19.7139 71.0597 20.4329 69.8284 22.4357C68.5317 24.5449 67.2664 28.0916 66.7919 34.1967C66.7995 34.2018 66.809 34.2077 66.8206 34.2144C66.8923 34.2559 67.0051 34.3057 67.1589 34.3663C67.2848 34.416 67.431 34.4702 67.5946 34.5309C67.6284 34.5435 67.663 34.5563 67.6984 34.5694C67.9033 34.6456 68.1302 34.7308 68.3686 34.8266C68.4525 34.8602 68.5008 34.9488 68.4841 35.0378C68.4673 35.1269 68.3901 35.1916 68.2998 35.1922L64.5227 35.2176C64.4507 35.2181 64.3847 35.1774 64.3525 35.1128L63.5971 33.596C63.5641 33.5298 63.5725 33.4503 63.6187 33.3926C63.6648 33.3348 63.7403 33.3093 63.8118 33.3273L65.1014 33.651C65.3137 30.1669 66.1323 25.8558 67.631 22.6034C68.3966 20.9421 69.3474 19.5397 70.5012 18.6704C71.6639 17.7944 73.0285 17.4642 74.5864 17.9476C75.3042 18.1703 75.7235 18.325 75.9983 18.4263C76.0337 18.4394 76.0666 18.4516 76.0975 18.4629C76.3671 18.5615 76.4543 18.585 76.6025 18.5806L76.6074 18.5805L76.6081 18.5805Z" fill="#22222A"/>
</g>
<path fill-rule="evenodd" clip-rule="evenodd" d="M57.1972 33.8388L58.5216 33.5056C58.5904 33.4883 58.6631 33.5112 58.7098 33.5648C58.7564 33.6184 58.7692 33.6938 58.7429 33.7599L57.9875 35.6559C57.9537 35.7407 57.8644 35.7893 57.7751 35.7714L53.998 35.013C53.914 34.9961 53.8519 34.9247 53.8465 34.8389C53.8412 34.7531 53.8941 34.6744 53.9753 34.6472L54.9472 34.322C53.9065 29.5801 52.2698 22.4343 50.1738 16.3088C49.1131 13.2092 47.9378 10.3798 46.6672 8.25779C46.0319 7.19686 45.3765 6.31891 44.7044 5.67321C44.032 5.02712 43.3522 4.62229 42.6679 4.48931C41.8985 4.33981 41.0704 4.59934 40.2353 5.14464C39.4016 5.68892 38.5822 6.50464 37.8423 7.42519C36.4204 9.19441 35.3244 11.3101 34.9943 12.5347L36.1683 13.0399C36.2491 13.0746 36.2953 13.1607 36.2798 13.2476C36.2642 13.3345 36.1911 13.3991 36.1033 13.4035L32.3262 13.5931C32.2592 13.5964 32.1954 13.5638 32.1587 13.5074C32.122 13.451 32.1178 13.3792 32.1479 13.3189L32.9033 11.8022C32.9275 11.7535 32.9714 11.7177 33.0237 11.7037C33.0761 11.6898 33.1319 11.699 33.177 11.7292L33.5378 11.9707C34.0037 10.6008 34.8642 8.61653 36.2598 6.91746C37.7401 5.11513 39.833 3.62261 42.6987 3.54486C43.457 3.52428 44.211 3.85226 44.9464 4.43028C45.6821 5.00858 46.4134 5.84801 47.132 6.87966C48.5693 8.94328 49.9766 11.8068 51.2777 14.981C53.8489 21.2536 56.0204 28.7762 57.1972 33.8388ZM44.7135 4.72884C44.018 4.18213 43.3481 3.90657 42.7089 3.92391C39.9845 3.99783 37.9855 5.41243 36.5512 7.15869C35.1147 8.90759 34.2552 10.9779 33.8183 12.3248C33.8 12.3813 33.7565 12.4258 33.7007 12.4453C33.6449 12.4647 33.5832 12.4568 33.534 12.4239L33.1454 12.1638L32.6303 13.1981L35.2694 13.0657L34.6975 12.8196C34.6135 12.7835 34.5673 12.6921 34.5879 12.6027C34.8798 11.3329 36.0439 9.05911 37.5484 7.18708C38.3024 6.2489 39.1505 5.40057 40.0293 4.82677C40.9066 4.25399 41.8358 3.9414 42.7397 4.11703C43.5189 4.26844 44.2614 4.72268 44.9656 5.39927C45.6702 6.07624 46.3455 6.98456 46.9909 8.06243C48.2816 10.218 49.467 13.0762 50.531 16.1856C52.6595 22.406 54.3139 29.6674 55.3526 34.4072C55.3734 34.5019 55.3195 34.5971 55.2279 34.6278L54.7694 34.7812L57.6951 35.3686L58.2549 33.9636L57.1026 34.2535C57.0534 34.2658 57.0014 34.2578 56.9581 34.2313C56.9149 34.2047 56.8841 34.1618 56.8727 34.1123C55.7097 29.0636 53.5218 21.4522 50.9284 15.1253C49.6313 11.9608 48.2364 9.12699 46.8224 7.09695C46.1153 6.08177 45.4087 5.27528 44.7135 4.72884Z" fill="#22222A"/>
<path fill-rule="evenodd" clip-rule="evenodd" d="M21.1745 21.6015C18.3059 23.2775 15.6342 25.3975 14.1419 27.1765C14.1061 27.2193 14.0532 27.244 13.9975 27.244H12.0579L13.9426 28.8449L14.9648 26.9636C14.9717 26.951 14.9799 26.9392 14.9895 26.9284C16.5045 25.2173 21.6783 19.5968 29.854 19.2811C34.8378 19.0887 39.6376 21.8933 43.6789 25.5147C47.725 29.1402 51.0407 33.611 53.061 36.8118C53.0903 36.8582 53.0981 36.9151 53.0824 36.9678L52.6598 38.3818L55.0552 36.8788L53.468 35.2855V36.1549C53.468 36.2438 53.4065 36.3208 53.3201 36.34C53.2336 36.3593 53.1455 36.3156 53.108 36.2351C51.7939 33.4081 49.314 29.1067 44.6517 24.7281C41.7379 21.9916 39.3053 20.4922 36.9061 19.6738C34.5051 18.8547 32.1229 18.7122 29.2947 18.7122C27.0809 18.7122 24.0486 19.9223 21.1745 21.6015ZM20.9845 21.2738C23.8705 19.5876 26.976 18.333 29.2947 18.333C32.1321 18.333 34.5656 18.4749 37.0276 19.3148C39.4914 20.1553 41.9691 21.6894 44.9097 24.4512C49.22 28.4992 51.6847 32.4848 53.0903 35.3245V34.8278C53.0903 34.7511 53.1363 34.6819 53.2069 34.6526C53.2775 34.6232 53.3587 34.6395 53.4127 34.6937L55.4901 36.7792C55.5308 36.8201 55.5507 36.8773 55.5442 36.9348C55.5377 36.9922 55.5055 37.0435 55.4567 37.0741L52.435 38.97C52.3683 39.0119 52.2828 39.0078 52.2203 38.96C52.1578 38.9121 52.1314 38.8304 52.154 38.7548L52.6958 36.9418C50.6831 33.7649 47.4086 29.365 43.4274 25.7976C39.411 22.1985 34.7051 19.4733 29.8685 19.66C21.8851 19.9683 16.8104 25.4441 15.2861 27.1642L14.1633 29.2307C14.1361 29.2807 14.0879 29.3158 14.0321 29.3263C13.9764 29.3367 13.9188 29.3215 13.8755 29.2846L11.4204 27.1991C11.3599 27.1477 11.3378 27.0639 11.365 26.9892C11.3923 26.9144 11.4631 26.8648 11.5424 26.8648H13.91C15.4492 25.0562 18.1287 22.9423 20.9845 21.2738Z" fill="#22222A"/>
<path fill-rule="evenodd" clip-rule="evenodd" d="M73.098 29.8028C69.239 32.2871 65.8837 35.6927 63.6285 38.6905C63.5666 38.7728 63.4506 38.7903 63.3674 38.7301C63.2841 38.6698 63.264 38.5538 63.3222 38.4689L63.6372 38.0088L62.2991 37.8378L61.8444 39.6973L66.5594 38.6919C66.4889 38.6847 66.4221 38.6773 66.3594 38.6699C66.1557 38.6458 65.9937 38.6217 65.882 38.6035C65.8262 38.5945 65.783 38.5868 65.7534 38.5815C65.7387 38.5788 65.7273 38.5766 65.7195 38.5751L65.7105 38.5734L65.7081 38.5729L65.7074 38.5728C65.7074 38.5728 65.707 38.5727 65.744 38.3868C65.599 38.2653 65.5992 38.2651 65.5992 38.2651L65.601 38.263L65.6063 38.2567L65.6268 38.2324C65.6448 38.2111 65.6715 38.1797 65.7067 38.139C65.7769 38.0576 65.8809 37.9389 66.0162 37.7887C66.2869 37.4883 66.6834 37.0621 67.1876 36.5569C68.1956 35.5469 69.6359 34.2199 71.3644 32.9534C74.812 30.4273 79.4496 28.11 84.1021 29.1007C90.3995 30.4418 94.8734 34.6552 98.2158 39.391C100.771 43.0117 102.678 46.9577 104.232 50.1752C104.709 51.1617 105.152 52.0798 105.571 52.899C105.598 52.9508 105.599 53.012 105.575 53.0649C105.551 53.1178 105.504 53.1566 105.447 53.17L101.804 54.038L111.069 58.6008V48.1691C110.511 49.014 109.947 49.7944 109.497 50.3951C109.224 50.7586 108.993 51.0566 108.83 51.264C108.749 51.3677 108.684 51.4487 108.64 51.5039C108.618 51.5315 108.601 51.5527 108.589 51.5669L108.576 51.5832L108.573 51.5874L108.572 51.5884L108.571 51.5888C108.571 51.5888 108.571 51.5889 108.425 51.4688C108.249 51.5373 108.249 51.5371 108.249 51.5371L108.248 51.5334L108.243 51.5213C108.239 51.5105 108.232 51.4942 108.224 51.4727C108.207 51.4296 108.181 51.3653 108.147 51.2813C108.079 51.1133 107.977 50.8663 107.843 50.5508C107.574 49.9197 107.174 49.0152 106.65 47.9225C105.602 45.7368 104.06 42.8004 102.083 39.796C100.105 36.7908 97.696 33.7227 94.9154 31.2697C92.1345 28.8164 88.9912 26.9864 85.5443 26.44C81.3025 25.7676 76.9592 27.3171 73.098 29.8028ZM108.425 51.4688L108.249 51.5371C108.273 51.6 108.329 51.6454 108.395 51.656C108.462 51.6667 108.529 51.641 108.571 51.5888L108.425 51.4688ZM108.48 51.097C108.412 50.9289 108.315 50.6943 108.19 50.4016C107.919 49.7661 107.517 48.8564 106.99 47.7581C105.937 45.5619 104.387 42.6096 102.398 39.587C100.409 36.5651 97.979 33.4676 95.1647 30.9849C92.3509 28.5025 89.1439 26.6267 85.6032 26.0654C81.2333 25.3727 76.7948 26.9725 72.8941 29.4836C69.3298 31.7782 66.1958 34.8453 63.9443 37.6659L62.1797 37.4403C62.0844 37.4281 61.9953 37.4896 61.9724 37.5832L61.4058 39.9003C61.3903 39.9637 61.4084 40.0306 61.4536 40.0775C61.4989 40.1243 61.5649 40.1446 61.6285 40.131L68.0495 38.7618C68.1441 38.7417 68.2082 38.6531 68.1981 38.5566C68.188 38.46 68.107 38.3868 68.0103 38.3868C67.3581 38.3868 66.799 38.34 66.4035 38.2933C66.2912 38.28 66.1921 38.2667 66.1079 38.2546C66.1613 38.1938 66.2243 38.123 66.2963 38.0431C66.5633 37.7469 66.9553 37.3254 67.4544 36.8253C68.4529 35.8248 69.8784 34.5117 71.5871 33.2597C75.0138 30.7489 79.5356 28.5159 84.0237 29.4717C90.1907 30.785 94.593 34.9137 97.9077 39.6102C100.443 43.2025 102.33 47.107 103.883 50.3213C104.321 51.2291 104.733 52.0818 105.126 52.8568L101.205 53.791C101.127 53.8095 101.07 53.8749 101.061 53.9544C101.052 54.0339 101.094 54.1105 101.165 54.1457L111.175 59.0752C111.233 59.104 111.303 59.1005 111.358 59.0659C111.413 59.0313 111.447 58.9704 111.447 58.905V47.5293C111.447 47.445 111.391 47.3708 111.311 47.3473C111.23 47.3237 111.144 47.3564 111.099 47.4275C110.441 48.4647 109.736 49.4452 109.195 50.1671C108.924 50.5279 108.695 50.8236 108.534 51.0291C108.515 51.0529 108.497 51.0756 108.48 51.097ZM65.744 38.3868L65.5992 38.2651C65.5565 38.3165 65.5438 38.3868 65.566 38.4498C65.5881 38.5129 65.6421 38.5596 65.7074 38.5728L65.744 38.3868Z" fill="#22222A"/>
<path d="M65.4712 23.712L62.7121 20.9386C62.3854 20.6284 61.9962 20.3923 61.5708 20.246C60.6282 19.931 59.6901 20.1769 58.9303 20.9386L56.1645 23.712C55.8556 24.04 55.6204 24.4308 55.4747 24.8579C55.1598 25.8043 55.4047 26.7461 56.1645 27.5078L58.9269 30.2812C59.2531 30.5914 59.642 30.8276 60.0671 30.9737C60.3247 31.0611 60.5945 31.1063 60.8664 31.1075C61.5291 31.1075 62.1635 30.8264 62.7076 30.2812L65.4689 27.5078C65.7782 27.1798 66.0138 26.7891 66.1598 26.3619C66.4737 25.4155 66.2287 24.4748 65.4689 23.712H65.4712ZM61.0301 21.7433C61.2388 21.8104 61.4311 21.9209 61.5945 22.0674L62.4107 22.888L60.819 24.485L59.2272 22.8869L60.0479 22.0618C60.2681 21.8419 60.5785 21.6084 61.0323 21.7421L61.0301 21.7433ZM56.9683 25.3951C57.0354 25.1854 57.1458 24.9923 57.2923 24.8284L58.1085 24.0089L59.7002 25.607L58.1073 27.2051L57.2866 26.38C57.0665 26.1602 56.8351 25.8485 56.9671 25.3928L56.9683 25.3951ZM60.6056 29.4731C60.3967 29.4065 60.2042 29.296 60.0412 29.1489L59.2272 28.3386L60.819 26.7393L62.4107 28.3374L61.59 29.1625C61.3699 29.3824 61.0606 29.6159 60.6056 29.4822V29.4731ZM64.6697 25.8292C64.6026 26.0386 64.4926 26.2317 64.3468 26.3959L63.5306 27.2051L61.9388 25.607L63.5306 24.0089L64.3513 24.8329C64.5715 25.0528 64.8029 25.3645 64.6708 25.8201" fill="#00ABE4"/>
<path d="M5.91913 18.678C5.91913 18.8254 5.93499 18.9448 5.96276 19.0324C5.99448 19.12 6.03414 19.2155 6.08967 19.3191C6.1095 19.3509 6.11743 19.3828 6.11743 19.4106C6.11743 19.4505 6.09363 19.4903 6.04208 19.5301L5.79222 19.6973C5.75653 19.7212 5.72083 19.7331 5.68911 19.7331C5.64945 19.7331 5.60979 19.7132 5.57013 19.6774C5.51461 19.6177 5.46701 19.554 5.42735 19.4903C5.3877 19.4226 5.34804 19.3469 5.30441 19.2554C4.99507 19.6217 4.60641 19.8048 4.13842 19.8048C3.80529 19.8048 3.53957 19.7093 3.34524 19.5181C3.15091 19.327 3.05176 19.0722 3.05176 18.7537C3.05176 18.4153 3.17074 18.1405 3.41266 17.9335C3.65458 17.7265 3.97582 17.6229 4.38431 17.6229C4.51915 17.6229 4.65796 17.6349 4.8047 17.6548C4.95144 17.6747 5.10215 17.7066 5.26079 17.7424V17.4517C5.26079 17.1491 5.19733 16.9381 5.07439 16.8147C4.94748 16.6913 4.73332 16.6316 4.42794 16.6316C4.28913 16.6316 4.14636 16.6475 3.99962 16.6833C3.85288 16.7191 3.7101 16.7629 3.5713 16.8187C3.50784 16.8466 3.46025 16.8625 3.43249 16.8704C3.40473 16.8784 3.3849 16.8824 3.36903 16.8824C3.31351 16.8824 3.28575 16.8426 3.28575 16.759V16.5639C3.28575 16.5002 3.29368 16.4524 3.31351 16.4245C3.33334 16.3966 3.36903 16.3688 3.42456 16.3409C3.56336 16.2692 3.72993 16.2095 3.92426 16.1617C4.1186 16.11 4.32482 16.0861 4.54295 16.0861C5.0149 16.0861 5.35993 16.1936 5.58203 16.4086C5.80015 16.6236 5.9112 16.9501 5.9112 17.388V18.678H5.91913ZM4.30896 19.2832C4.43984 19.2832 4.57468 19.2593 4.71745 19.2116C4.86023 19.1638 4.98714 19.0762 5.09422 18.9567C5.15767 18.8811 5.20526 18.7975 5.22906 18.7019C5.25285 18.6064 5.26872 18.4909 5.26872 18.3555V18.1883C5.1537 18.1604 5.03076 18.1366 4.90385 18.1206C4.77694 18.1047 4.654 18.0967 4.53105 18.0967C4.26533 18.0967 4.071 18.1485 3.94013 18.256C3.80925 18.3635 3.7458 18.5148 3.7458 18.7139C3.7458 18.901 3.79339 19.0404 3.89254 19.1359C3.98772 19.2355 4.12653 19.2832 4.30896 19.2832ZM7.49361 19.7132C7.42222 19.7132 7.37463 19.7013 7.3429 19.6734C7.31118 19.6495 7.28341 19.5938 7.25962 19.5181L6.32762 16.4404C6.30383 16.3608 6.29193 16.3091 6.29193 16.2812C6.29193 16.2175 6.32366 16.1816 6.38711 16.1816H6.77577C6.85113 16.1816 6.90268 16.1936 6.93044 16.2215C6.96217 16.2453 6.98597 16.3011 7.00976 16.3767L7.67604 19.0125L8.29473 16.3767C8.31456 16.2971 8.33835 16.2453 8.37008 16.2215C8.40181 16.1976 8.45733 16.1816 8.52872 16.1816H8.84599C8.92135 16.1816 8.9729 16.1936 9.00463 16.2215C9.03636 16.2453 9.06412 16.3011 9.07998 16.3767L9.7066 19.0443L10.3927 16.3767C10.4165 16.2971 10.4443 16.2453 10.472 16.2215C10.5038 16.1976 10.5553 16.1816 10.6267 16.1816H10.9955C11.059 16.1816 11.0947 16.2135 11.0947 16.2812C11.0947 16.3011 11.0907 16.321 11.0867 16.3449C11.0828 16.3688 11.0749 16.4006 11.059 16.4444L10.1032 19.5221C10.0794 19.6018 10.0516 19.6535 10.0199 19.6774C9.98818 19.7013 9.93663 19.7172 9.8692 19.7172H9.52813C9.45278 19.7172 9.40122 19.7053 9.3695 19.6774C9.33777 19.6495 9.31001 19.5978 9.29414 19.5181L8.67942 16.9501L8.06867 19.5142C8.04884 19.5938 8.02504 19.6455 7.99332 19.6734C7.96159 19.7013 7.90607 19.7132 7.83468 19.7132H7.49361ZM12.5898 19.8207C12.3836 19.8207 12.1774 19.7968 11.9791 19.7491C11.7808 19.7013 11.6261 19.6495 11.523 19.5898C11.4595 19.554 11.4159 19.5142 11.4001 19.4783C11.3842 19.4425 11.3763 19.4027 11.3763 19.3668V19.1638C11.3763 19.0802 11.408 19.0404 11.4675 19.0404C11.4913 19.0404 11.5151 19.0443 11.5389 19.0523C11.5627 19.0603 11.5984 19.0762 11.638 19.0921C11.7729 19.1518 11.9196 19.1996 12.0743 19.2315C12.2329 19.2633 12.3876 19.2792 12.5462 19.2792C12.7961 19.2792 12.9904 19.2355 13.1252 19.1479C13.2601 19.0603 13.3315 18.9329 13.3315 18.7696C13.3315 18.6581 13.2958 18.5666 13.2244 18.4909C13.153 18.4153 13.0182 18.3476 12.8238 18.2839L12.2488 18.1047C11.9593 18.0131 11.7451 17.8778 11.6142 17.6986C11.4833 17.5234 11.4159 17.3283 11.4159 17.1213C11.4159 16.9541 11.4516 16.8067 11.523 16.6793C11.5944 16.5519 11.6896 16.4404 11.8085 16.3528C11.9275 16.2613 12.0624 16.1936 12.221 16.1458C12.3796 16.098 12.5462 16.0781 12.7207 16.0781C12.808 16.0781 12.8992 16.0821 12.9864 16.0941C13.0776 16.106 13.1609 16.1219 13.2442 16.1378C13.3235 16.1578 13.3989 16.1777 13.4703 16.2016C13.5417 16.2254 13.5972 16.2493 13.6368 16.2732C13.6924 16.3051 13.732 16.3369 13.7558 16.3728C13.7796 16.4046 13.7915 16.4484 13.7915 16.5041V16.6913C13.7915 16.7749 13.7598 16.8187 13.7003 16.8187C13.6686 16.8187 13.617 16.8028 13.5496 16.7709C13.3235 16.6674 13.0697 16.6156 12.7881 16.6156C12.5621 16.6156 12.3836 16.6515 12.2607 16.7271C12.1377 16.8028 12.0743 16.9182 12.0743 17.0815C12.0743 17.1929 12.1139 17.2885 12.1932 17.3641C12.2726 17.4398 12.4193 17.5154 12.6295 17.5831L13.1927 17.7623C13.4782 17.8539 13.6844 17.9813 13.8074 18.1445C13.9303 18.3078 13.9898 18.4949 13.9898 18.7019C13.9898 18.8731 13.9541 19.0284 13.8867 19.1638C13.8153 19.2992 13.7201 19.4186 13.5972 19.5142C13.4742 19.6137 13.3275 19.6854 13.157 19.7371C12.9785 19.7929 12.7921 19.8207 12.5898 19.8207Z" fill="#252F3E"/>
<path d="M13.3393 21.7547C12.0345 22.7222 10.1388 23.2358 8.50877 23.2358C6.22439 23.2358 4.16607 22.3878 2.61142 20.9783C2.48848 20.8668 2.59952 20.7155 2.74626 20.8031C4.42782 21.7826 6.50201 22.3758 8.64758 22.3758C10.0951 22.3758 11.6855 22.0732 13.1489 21.4521C13.367 21.3526 13.5534 21.5954 13.3393 21.7547ZM13.8826 21.1336C13.7161 20.9186 12.7801 21.0301 12.3557 21.0818C12.2288 21.0978 12.209 20.9863 12.324 20.9027C13.0696 20.3771 14.2951 20.5284 14.4379 20.7036C14.5806 20.8828 14.3982 22.113 13.7002 22.7023C13.5931 22.7939 13.49 22.7461 13.5376 22.6266C13.6962 22.2325 14.0492 21.3446 13.8826 21.1336Z" fill="#FF9900"/>
<g clip-path="url(#clip1)">
<path d="M80.614 7.65911H80.9802L82.0234 6.6159L82.0747 6.17326C80.1337 4.46005 77.1705 4.64465 75.4573 6.58572C74.9809 7.12493 74.6354 7.76625 74.4473 8.46039C74.5635 8.4126 74.6922 8.40506 74.8134 8.43826L76.8994 8.09421C76.8994 8.09421 77.0055 7.91866 77.0603 7.92973C77.9884 6.91065 79.5502 6.79195 80.6216 7.65911H80.614Z" fill="#EA4335"/>
<path d="M83.5097 8.46036C83.2698 7.5776 82.7779 6.78388 82.0933 6.17676L80.6296 7.64048C81.2478 8.14549 81.5999 8.90652 81.5848 9.70478V9.96483C82.3046 9.96483 82.8875 10.5483 82.8875 11.2676C82.8875 11.9874 82.3041 12.5704 81.5848 12.5704H78.9788L78.7188 12.8339V14.3967L78.9788 14.6568H81.5848C83.0787 14.6684 84.4041 13.7001 84.8477 12.2736C85.2903 10.8466 84.7471 9.29735 83.5097 8.46036Z" fill="#4285F4"/>
<path d="M76.3684 14.6426H78.9745V12.5567H76.3684C76.1828 12.5567 75.9992 12.5169 75.8302 12.4395L75.4641 12.5526L74.4138 13.5958L74.3223 13.962C74.9113 14.4067 75.63 14.6456 76.3684 14.6426Z" fill="#34A853"/>
<path d="M76.3688 7.87502C74.9212 7.88357 73.6391 8.81059 73.1773 10.1823C72.7156 11.5539 73.1758 13.068 74.3231 13.9502L75.8347 12.4387C75.1787 12.1424 74.8875 11.3708 75.1838 10.7149C75.48 10.059 76.2516 9.7678 76.9075 10.0641C77.1963 10.1948 77.4276 10.4262 77.5584 10.7149L79.0699 9.20343C78.4266 8.36293 77.4271 7.8715 76.3688 7.87502Z" fill="#FBBC05"/>
</g>
<defs>
<radialGradient id="paint0_radial" cx="0" cy="0" r="1" gradientUnits="userSpaceOnUse" gradientTransform="translate(62.1106 43.0976) rotate(90.2661) scale(10.1706 24.5736)">
<stop stop-color="#C4C4C4"/>
<stop offset="1" stop-color="#C4C4C4" stop-opacity="0"/>
</radialGradient>
<clipPath id="clip0">
<rect width="10" height="8.778" fill="white" transform="translate(29 0.916992)"/>
</clipPath>
<clipPath id="clip1">
<rect width="12" height="9.65704" fill="white" transform="translate(73 5)"/>
</clipPath>
</defs>
</svg>