<svg width="155" height="122" viewBox="0 0 155 122" fill="none" xmlns="http://www.w3.org/2000/svg">
<g opacity="0.65">
<g opacity="0.65">
<path opacity="0.69" d="M135.291 108.844C138.029 107.474 140.452 103.416 141.505 101.097C142.19 99.5681 142.769 96.0369 145.613 94.4031C148.457 92.7692 150.827 98.1978 149.563 100.569C147.246 104.944 143.665 110.794 140.136 110.109C134.659 109.002 135.291 108.844 135.291 108.844Z" fill="url(#paint0_linear)"/>
<path opacity="0.22" d="M135.08 108.791C137.819 107.421 140.452 106.05 141.505 103.679C142.19 102.15 145.719 97.3015 148.563 95.615C151.407 93.9284 151.512 99.8313 150.248 102.203C147.931 106.578 144.981 111.374 141.453 110.688C135.975 109.582 135.08 108.791 135.08 108.791Z" fill="url(#paint1_linear)"/>
<path opacity="0.17" d="M77.5684 64.8359C78.6217 62.8858 79.0957 62.148 80.149 59.7763C80.8337 58.3005 80.623 52.3976 83.467 50.7111C86.3109 49.0246 93.1048 54.1896 91.8408 56.5613C89.5235 60.9358 83.9409 70.8442 81.2023 68.4725C78.3583 66.1008 77.5684 64.8359 77.5684 64.8359Z" fill="url(#paint2_linear)"/>
<path opacity="0.8" d="M77.3575 64.7835L77.1469 60.5672C76.9889 58.1428 77.5682 54.0318 80.3595 52.3453C83.1508 50.6587 88.5754 57.2995 87.3114 59.6712C84.9941 64.0457 85.2574 67.1552 81.4128 68.7363C80.7281 68.9999 77.3575 64.7835 77.3575 64.7835Z" fill="url(#paint3_linear)"/>
<path opacity="0.2" d="M112.855 96.7745C114.593 95.8258 117.174 92.769 118.227 90.45C118.912 88.9216 120.071 83.2822 122.915 81.6484C125.759 80.0145 130.499 85.4958 129.656 88.0783C128.392 91.9784 129.34 94.2447 117.859 97.934C114.383 99.0408 112.855 96.7745 112.855 96.7745Z" fill="url(#paint4_linear)"/>
<path opacity="0.8" d="M112.485 96.6169C113.907 93.2965 114.697 91.9789 115.435 88.2896C116.014 85.3382 113.802 79.3825 117.067 77.3271C120.333 75.2716 126.126 82.9665 125.652 87.6571C125.02 93.7709 122.176 96.4061 117.752 98.4088C116.962 98.7778 112.485 96.6169 112.485 96.6169Z" fill="url(#paint5_linear)"/>
<path opacity="0.38" d="M79.3594 95.5628C80.4127 93.6127 79.6227 82.2813 82.4667 80.6474C85.3106 79.0136 93.6319 86.3395 92.3679 88.7112C90.0506 93.0857 84.5733 98.0926 81.3607 96.4588C80.7287 96.0898 80.044 95.8263 79.3594 95.5628Z" fill="url(#paint6_linear)"/>
<path opacity="0.8" d="M78.9912 95.4574C80.0445 94.1398 80.2025 93.7709 80.5185 93.033C81.4665 90.4505 80.1499 85.1273 82.9938 83.4935C85.8378 81.8597 89.8404 87.3409 88.5765 89.7126C86.2591 94.0871 84.9951 95.7736 82.8885 96.3007C81.5192 96.6169 80.0972 96.3007 78.9912 95.4574Z" fill="url(#paint7_linear)"/>
<path opacity="0.2" d="M115.857 51.133C117.489 50.1843 119.417 44.6504 120.405 42.3314C121.048 40.8557 122.135 35.1636 124.805 33.5298C127.474 31.8959 131.379 37.2718 131.132 39.9597C130.737 44.545 129.006 48.7613 124.459 49.183C120.702 49.5519 115.857 51.133 115.857 51.133Z" fill="url(#paint8_linear)"/>
<path opacity="0.8" d="M116.277 50.5536C117.699 47.2332 117.647 45.0723 118.437 41.383C119.016 38.4316 116.541 32.9503 119.806 30.8421C123.071 28.7339 130.286 35.6909 129.023 40.2762C128.075 43.6493 126.179 47.2332 125.073 48.1819C124.335 48.7616 116.541 50.6063 116.277 50.5536Z" fill="url(#paint9_linear)"/>
<path opacity="0.69" d="M54.6589 60.9354C52.9209 59.0907 51.6043 58.4583 50.551 56.1393C49.3923 53.873 49.0237 51.3432 49.3923 48.8134C49.9716 45.5984 55.6596 47.3377 56.6602 49.8675C58.5035 54.4527 59.7149 57.5096 57.7662 63.2544C57.5029 63.9922 54.6589 60.9354 54.6589 60.9354Z" fill="url(#paint10_linear)"/>
<path opacity="0.22" d="M56.502 62.4117C55.238 60.5143 54.0267 61.0414 52.9733 58.7224C52.2887 57.2466 51.6567 50.6059 52.236 47.3382C52.8153 44.0705 57.3446 47.8125 58.3453 50.3424C60.1886 54.9276 61.7686 60.1981 59.0299 62.5698C56.976 64.3617 56.502 62.4117 56.502 62.4117Z" fill="url(#paint11_linear)"/>
<path opacity="0.17" d="M82.098 120.544C83.1513 118.594 84.8366 117.066 85.6793 114.641C87.3646 109.74 85.5739 106.736 88.3652 105.102C91.1565 103.468 98.4771 112.639 97.2131 115.01C94.8958 119.385 85.6266 123.548 82.888 121.177C80.0967 118.7 82.098 120.544 82.098 120.544Z" fill="url(#paint12_linear)"/>
<path opacity="0.8" d="M82.0977 120.544C82.993 119.49 83.941 116.961 84.099 116.17C85.4683 110.689 82.4663 108.37 85.2576 106.683C88.0489 104.997 93.4735 111.637 92.2095 114.009C89.8922 118.384 87.9436 119.912 84.0463 121.493C83.4143 121.757 82.0977 120.544 82.0977 120.544Z" fill="url(#paint13_linear)"/>
<path opacity="0.17" d="M37.5421 74.1642C37.1208 72.0033 37.3841 69.737 36.4888 67.3126C34.6455 62.4638 31.3275 61.357 32.4335 58.2475C33.5395 55.1379 45.0207 57.5096 45.6 60.1448C46.6533 64.9936 42.1767 74.1115 38.5954 74.1115C34.8562 74.0588 37.5421 74.1642 37.5421 74.1642Z" fill="url(#paint14_linear)"/>
<path opacity="0.8" d="M37.5425 74.1642C37.5952 72.7939 36.6472 70.2114 36.2786 69.5263C33.8033 64.4139 30.0113 64.572 31.1173 61.5152C32.2233 58.4056 40.5972 60.0395 41.1765 62.6747C42.2298 67.5235 41.7032 69.9479 39.7019 73.6372C39.3859 74.2169 37.5425 74.1642 37.5425 74.1642Z" fill="url(#paint15_linear)"/>
<path opacity="0.1" d="M65.0342 30.631C66.7722 29.6823 69.3528 26.6254 70.4061 24.3064C71.0908 22.8307 72.2494 17.1386 75.0934 15.5048C77.9374 13.871 82.6773 19.3522 81.8347 21.9347C80.5707 25.7822 81.5187 28.1012 70.0375 31.7905C66.5615 32.8973 65.0342 30.631 65.0342 30.631Z" fill="url(#paint16_linear)"/>
<path opacity="0.6" d="M64.665 30.4724C66.087 27.152 66.877 25.8344 67.6143 22.1451C68.1937 19.1936 66.0344 13.238 69.247 11.1825C72.4596 9.12707 78.3055 16.8219 77.8315 21.5126C77.1995 27.6263 72.6176 31.4737 68.1937 33.4765C67.4037 33.7927 64.665 30.4724 64.665 30.4724Z" fill="url(#paint17_linear)"/>
<path opacity="0.17" d="M16.6865 104.997C16.2125 102.836 16.1072 101.94 15.4226 99.4633C15.0012 97.8821 10.9986 93.5077 12.1046 90.3981C13.2106 87.2886 21.6898 86.8669 22.2691 89.5021C23.3225 94.351 25.4291 105.524 21.7951 105.472C18.1085 105.472 16.6865 104.997 16.6865 104.997Z" fill="url(#paint18_linear)"/>
<path opacity="0.8" d="M16.5284 105.102L13.6318 101.992C11.9465 100.253 9.7345 96.7215 10.8405 93.612C11.9465 90.5024 20.3204 92.0836 20.8997 94.7188C21.953 99.5676 24.165 101.781 22.2163 105.47C21.795 106.156 16.5284 105.102 16.5284 105.102Z" fill="url(#paint19_linear)"/>
<path opacity="0.17" d="M19.7413 17.191C19.2673 15.0301 18.9513 12.7111 18.2666 10.234C17.8453 8.65287 14.0533 5.70142 15.1593 2.64457C16.2653 -0.41229 24.7445 -0.939334 25.3239 1.69589C26.3772 6.54469 25.3239 19.2992 21.6899 19.2992C18.0033 19.2465 19.7413 17.191 19.7413 17.191Z" fill="url(#paint20_linear)"/>
<path opacity="0.8" d="M19.2676 18.4028L18.1089 14.2919C17.4242 11.9729 17.0556 7.80923 19.4782 5.59565C21.9009 3.38206 28.5894 8.6525 27.9048 11.235C26.5881 15.9784 24.8502 17.4541 21.3742 19.8258C20.7949 20.2475 19.2676 18.4028 19.2676 18.4028Z" fill="url(#paint21_linear)"/>
<path opacity="0.38" d="M8.734 45.2819C8.04934 43.1737 -0.693222 35.9005 0.0441021 32.7383C0.781426 29.576 11.8413 28.5746 12.6839 31.1571C14.2639 35.8478 14.1059 43.2792 10.6826 44.4387C10.0506 44.6495 9.36599 44.9657 8.734 45.2819Z" fill="url(#paint22_linear)"/>
<path opacity="0.8" d="M8.36562 45.4939C8.10229 43.8074 7.99696 43.4385 7.6283 42.7533C6.41698 40.2762 1.67703 37.5883 2.41436 34.3733C3.15168 31.1583 9.9456 32.0543 10.7883 34.6368C12.3682 39.3275 12.6842 41.4357 11.6309 43.2804C10.9989 44.4399 9.7876 45.2831 8.36562 45.4939Z" fill="url(#paint23_linear)"/>
</g>
<g opacity="0.65">
<path opacity="0.2" d="M56.3979 105.313C56.3979 103.31 55.7659 103.046 54.1859 101.043C53.1853 99.7259 48.7613 96.0366 48.6033 92.7689C48.4453 89.5012 55.1866 88.3417 57.3985 89.8174C61.2432 92.3472 62.8231 94.2446 60.9272 98.7245C60.4005 99.9894 60.0845 101.939 60.8218 104.891C61.4012 107.052 56.3979 105.313 56.3979 105.313Z" fill="url(#paint24_linear)"/>
<path opacity="0.8" d="M60.3999 105.418C58.1352 102.572 59.9785 108.58 52.184 102.625C49.8667 100.78 43.8627 100.358 43.5467 96.511C43.2307 92.6636 52.7633 89.5013 56.1866 92.769C58.7145 95.1934 57.7139 100.833 58.0299 102.256C58.2406 103.152 60.5579 105.207 60.3999 105.418Z" fill="url(#paint25_linear)"/>
</g>
<path opacity="0.65" d="M135.359 108.328C138.097 106.957 138.835 106.536 140.204 105.271C140.783 104.744 142.1 106.114 144.364 106.43C145.681 106.588 142.152 109.751 139.888 109.382C134.411 108.538 135.359 108.328 135.359 108.328Z" fill="url(#paint26_linear)"/>
<path opacity="0.65" d="M77.637 65.0047C77.4263 64.3196 77.8476 62.6858 78.6376 61.5263C79.0589 60.8938 81.8502 64.6358 82.6929 66.4278C83.2722 67.64 82.8509 67.5346 81.3762 68.9576C80.7969 69.4846 78.4796 66.0588 77.637 65.0047Z" fill="#EFE59C" stroke="#706F6F" stroke-width="0.04" stroke-miterlimit="10"/>
<g opacity="0.65">
<path opacity="0.65" d="M112.434 96.9331C115.172 95.5628 116.647 93.1911 118.016 91.9262C118.596 91.3991 121.703 93.0329 124.02 93.3492C125.337 93.5073 117.7 99.0939 115.541 98.4088C114.435 97.9872 113.382 97.5128 112.434 96.9331Z" fill="url(#paint27_linear)"/>
<path opacity="0.65" d="M78.7803 95.1931C81.5189 93.8228 81.0449 92.189 82.4142 90.9768C82.9936 90.4497 83.5729 91.6092 84.5735 92.9268C84.8369 93.243 83.8889 96.3526 82.0982 96.1945C80.9396 96.0891 79.8336 95.7729 78.7803 95.1931Z" fill="url(#paint28_linear)"/>
<path opacity="0.65" d="M115.699 50.6057C118.438 49.2354 119.807 46.811 121.124 45.5988C121.703 45.0717 124.178 47.2326 125.232 48.5502C125.495 48.8665 124.073 49.4989 122.282 49.3935C120.492 49.2881 115.699 50.6057 115.699 50.6057Z" fill="url(#paint29_linear)"/>
</g>
<path opacity="0.65" d="M36.7152 67.3764C36.5045 66.6912 39.3485 67.0602 40.5072 66.902C41.2445 66.7966 40.1912 69.0102 40.6125 71.9617C40.6125 72.1198 38.5058 73.9117 38.2425 73.6482C37.0839 72.3833 36.7152 69.59 36.7152 67.3764Z" fill="#FFC5A1"/>
<path opacity="0.65" d="M21.3896 19.8365C20.8103 20.2581 20.7576 19.204 19.3883 18.8351C18.651 18.6243 21.9689 14.8823 22.8116 12.2998C23.2329 11.0348 23.8649 13.0376 25.6556 14.039C26.3402 14.3552 23.8123 18.5189 21.3896 19.8365Z" fill="#EFE59C"/>
<path opacity="0.65" d="M65.3133 28.8499C65.4713 28.1647 67.3673 25.6349 68.6313 25.0025C69.3686 24.6862 69.3686 28.3755 70.4746 30.8526C71.0013 32.0648 69.7373 32.3284 68.21 33.4879C67.578 33.9095 64.3653 31.3797 65.3133 28.8499Z" fill="url(#paint30_linear)"/>
<path opacity="0.65" d="M11.594 43.4482C11.8047 44.1334 12.3314 45.6618 11.594 46.8213C11.1727 47.4538 6.90676 43.5009 3.79947 43.0266C2.48281 42.8158 6.01144 42.8158 6.6961 41.0238C6.95943 40.3914 10.962 40.813 11.594 43.4482Z" fill="#9EBCFD"/>
<path opacity="0.65" d="M57.4664 64.8462C56.8344 61.8421 53.8325 60.7353 52.9898 59.1015C52.6211 58.4163 54.5698 58.5217 56.0971 57.8365C56.4658 57.6784 58.0457 57.2041 57.4664 58.8906C56.8871 60.5772 57.4664 64.8462 57.4664 64.8462Z" fill="#FEB7D5"/>
<path opacity="0.65" d="M22.1795 105.586C22.4428 106.271 18.6509 105.691 17.5449 105.902C16.8076 106.06 15.2276 104.848 13.9636 103.003C13.2263 101.897 13.9636 103.794 17.5975 102.687C18.3875 102.476 19.6515 103.847 22.1795 105.586Z" fill="#EFE59C"/>
<path opacity="0.65" d="M54.4111 102.688C54.2005 102.003 56.8864 102.424 57.9924 102.266C58.7297 102.161 58.8351 103.32 60.415 105.429C60.5204 105.534 56.6231 105.639 56.3598 105.323C55.2538 104.058 54.4111 104.849 54.4111 102.688Z" fill="#BBECD8"/>
<path opacity="0.65" d="M82.0605 120.502C84.3779 118.499 84.4305 117.023 85.7998 115.758C86.3792 115.231 87.2745 117.181 88.2751 118.499C88.5385 118.815 84.9045 121.767 83.3245 121.45C82.7979 121.292 82.3765 120.976 82.0605 120.502Z" fill="url(#paint31_linear)"/>
</g>
<path opacity="0.25" d="M71.3701 76.3725C71.5619 58.2321 72.1854 45.5146 71.5619 44.6987C70.1712 42.8751 115.297 43.259 123.258 44.4588C123.258 44.4588 123.642 75.5566 122.587 76.1805C120.764 77.2843 71.3701 76.3725 71.3701 76.3725Z" fill="url(#paint32_linear)"/>
<path opacity="0.25" d="M92 67.0621C92.2398 48.7778 93.6305 31.9811 92.9112 31.1652C91.2807 29.2936 144.463 29.9655 153.959 31.1652C153.959 31.1652 154.534 66.2463 153.287 66.8702C151.033 67.9739 92 67.0621 92 67.0621Z" fill="url(#paint33_linear)"/>
<path opacity="0.25" d="M7 100.452C7.19182 89.8457 8.15093 80.1516 7.62342 79.6717C6.47249 78.6159 44.4053 78.9519 51.215 79.6717C51.215 79.6717 51.6466 99.9717 50.7355 100.356C49.1529 100.979 7 100.452 7 100.452Z" fill="url(#paint34_linear)"/>
<path d="M120.124 36.3868C112.942 37.1521 107.597 42.1536 107.597 49.71C107.597 57.2664 116.545 61.2435 122.908 61.2435C129.272 61.2435 137.628 58.051 139.214 51.3008C141.083 43.3467 135.449 37.7487 129.272 35.4809C121.323 32.5626 113.469 36.6122 107.597 41.557" stroke="#D9DAE6" stroke-linecap="round" stroke-linejoin="round"/>
<path d="M118.533 51.5654C116.943 49.9745 116.833 46.3086 119.329 44.9369C121.317 43.744 123.674 43.328 125.692 44.1415C126.947 44.647 128.48 45.9971 128.631 47.522C128.783 49.0617 128.009 50.6165 126.885 51.5654C124.31 53.7412 120.124 53.1562 118.533 51.5654Z" stroke="#D9DAE6" stroke-linecap="round" stroke-linejoin="round"/>
<path d="M120.522 52.4932C118.445 54.4666 115.496 57.0298 113.363 58.8565" stroke="#D9DAE6" stroke-linecap="round" stroke-linejoin="round"/>
<path d="M107 50.9023C109.676 50.6183 112.343 50.2454 114.993 49.7424C115.778 49.5933 116.55 49.4143 117.34 49.3115" stroke="#D9DAE6" stroke-linecap="round" stroke-linejoin="round"/>
<path d="M124.996 34C124.942 37.3302 124.151 40.6101 123.405 43.8432" stroke="#D9DAE6" stroke-linecap="round" stroke-linejoin="round"/>
<path d="M6 91.9695C8.78395 91.9695 9.68697 96.1119 11.9182 95.9466C14.943 95.7226 17.1832 82.8223 19.1243 82.8223C20.5087 82.8223 23.8106 97.8938 23.8968 97.5374C24.0214 97.0223 27.0784 86.004 28.6693 86.004C30.2601 86.004 30.1645 90.0753 31.8509 92.9362C33.3477 95.4754 34.2372 89.3071 35.4303 89.3071C36.6234 89.3071 36.7382 91.3454 37.4188 93.5604C38.0994 95.7754 40.3529 91.373 44.5775 91.373C44.8458 91.373 52.925 91.373 51.5374 91.373" stroke="#D9DAE6" stroke-linecap="round" stroke-linejoin="round"/>
<path d="M11.8507 95.3317C11.7151 96.5971 12.5479 95.7978 12.2318 95.4422C11.8027 94.9594 11.1714 95.4554 11.2762 96.0056C11.3981 96.6453 12.1016 95.8325 12.1987 95.5803C12.3411 95.2099 11.6777 94.9558 11.5524 95.3317" stroke="#D9DAE6" stroke-linecap="round" stroke-linejoin="round"/>
<path d="M18.9092 82.1073C18.8227 82.6982 19.4341 83.0039 19.4063 82.505C19.3777 81.9889 18.5234 81.7553 18.6165 82.4995C18.6736 82.957 19.4508 82.8505 19.5002 82.4056C19.5484 81.9726 18.8098 81.8084 18.8098 82.3062" stroke="#D9DAE6" stroke-linecap="round" stroke-linejoin="round"/>
<path d="M24.08 96.5244C23.7975 96.7641 23.4663 97.1426 23.5939 97.5573C23.6694 97.8029 24.2572 97.8785 24.4169 97.7065C24.9868 97.0928 23.699 96.8452 23.6049 97.1652C23.3623 97.9901 24.6592 98.0248 24.7649 97.364C24.9024 96.5046 23.8289 96.6373 23.4834 97.121" stroke="#D9DAE6" stroke-linecap="round" stroke-linejoin="round"/>
<path d="M32.63 93.9446C32.2314 94.571 32.9541 94.495 32.8178 93.9501C32.725 93.5787 32.3161 93.7742 32.2544 94.044C32.1794 94.3722 32.5809 94.6246 32.6245 94.2318C32.6436 94.0601 32.5026 93.5035 32.3318 93.8452" stroke="#D9DAE6" stroke-linecap="round" stroke-linejoin="round"/>
<path d="M51.4033 91.1741C51.3443 91.4595 51.2097 92.0469 51.6905 92.0469C51.8841 92.0469 52.0891 91.8148 52.1545 91.6492C52.3129 91.2486 51.607 90.9926 51.3646 91.2349C51.1468 91.4527 51.3116 91.9317 51.6022 91.964C51.9333 92.0008 52.1905 91.6692 51.801 91.5718" stroke="#D9DAE6" stroke-linecap="round" stroke-linejoin="round"/>
<path d="M35.5136 88.5699C35.5606 89.1447 36.147 89.5826 36.1102 88.7909C36.096 88.4849 35.5673 88.165 35.4363 88.5699C35.118 89.5539 36.2524 88.911 35.7125 88.3711" stroke="#D9DAE6" stroke-linecap="round" stroke-linejoin="round"/>
<path d="M28.9522 85.1895C28.7663 85.3164 27.9396 86.3425 28.7534 86.1616C29.0728 86.0906 29.3101 85.5123 28.9301 85.3662C28.5896 85.2352 28.4303 85.6198 28.5656 85.9241C28.7422 86.3216 28.9522 85.4963 28.9522 85.3883" stroke="#D9DAE6" stroke-linecap="round" stroke-linejoin="round"/>
<path d="M81.5774 79.0945C81.5774 86.0258 78.4212 90.4918 73.0266 90.4918C67.6321 90.4918 63.4238 85.1428 63.4238 78.2115C63.4238 71.2802 64.1167 67.9456 69.5112 67.9456C76.4683 66.069 81.5774 72.1632 81.5774 79.0945Z" fill="white"/>
<path fill-rule="evenodd" clip-rule="evenodd" d="M79.1624 88.7796C79.14 88.6514 79.0194 88.5659 78.8931 88.5886C77.7594 88.793 76.8174 88.9834 75.9135 89.1661C74.5673 89.4383 73.3056 89.6934 71.6211 89.9519C71.4942 89.9713 71.407 90.0915 71.4261 90.2203C71.4453 90.3491 71.5636 90.4378 71.6905 90.4183C73.3803 90.159 74.6638 89.8997 76.0218 89.6254C76.9256 89.4428 77.8625 89.2535 78.9743 89.0531C79.1006 89.0303 79.1848 88.9079 79.1624 88.7796Z" fill="black"/>
<path fill-rule="evenodd" clip-rule="evenodd" d="M69.7682 68.2871C69.6904 68.3907 69.71 68.5387 69.812 68.6177C69.9451 68.7208 70.0829 68.8319 70.2246 68.9507C69.4679 68.4825 68.7327 68.2826 68.0327 68.3021C66.9923 68.3312 66.0734 68.8438 65.3196 69.5896C63.8209 71.072 62.9073 73.5392 62.9073 75.3231C62.9073 80.9847 65.0121 85.2002 66.985 87.6775C67.7001 88.5754 68.676 89.2292 69.5997 89.6466C70.5169 90.061 71.4159 90.2571 71.9866 90.2054C71.9942 90.2047 72.0017 90.2036 72.0092 90.2022C74.2089 89.7788 75.5064 87.906 76.1288 85.5927C76.7522 83.2756 76.7195 80.4567 76.2195 78.0037C75.2365 73.1812 72.1222 69.8142 70.0938 68.2427C69.9918 68.1637 69.8461 68.1836 69.7682 68.2871ZM71.4179 70.0634C73.1523 71.8488 75.0467 74.5774 75.7646 78.0993C76.2532 80.4966 76.2807 83.2381 75.6807 85.4684C75.0808 87.698 73.8745 89.3574 71.9342 89.7365C71.4729 89.7745 70.6639 89.6111 69.7886 89.2156C68.9127 88.8198 68.0035 88.2062 67.3462 87.3809C65.4307 84.9757 63.3718 80.8624 63.3718 75.3231C63.3718 73.6605 64.2389 71.3171 65.6437 69.9275C66.3415 69.2372 67.1551 68.7985 68.0454 68.7737C68.9331 68.7489 69.9409 69.1344 71.0322 70.1813C71.1254 70.2707 71.2725 70.2665 71.3605 70.1718C71.3899 70.1403 71.4089 70.1028 71.4179 70.0634Z" fill="black"/>
<path fill-rule="evenodd" clip-rule="evenodd" d="M65.5284 69.3741C70.8086 67.7898 73.4922 67.4016 75.8689 68.9168C78.7288 70.7402 80.6843 74.8128 81.1072 78.9631C81.5303 83.1145 80.4114 87.2311 77.2644 89.1947C77.1551 89.2629 77.1209 89.4082 77.1881 89.5192C77.2552 89.6301 77.3983 89.6648 77.5076 89.5966C80.8748 87.4957 82.0008 83.1486 81.5693 78.9145C81.1378 74.6794 79.1393 70.4449 76.1159 68.5173C73.5373 66.8733 70.6463 67.3466 65.3968 68.9217C65.2737 68.9586 65.2035 69.0898 65.2398 69.2147C65.2762 69.3396 65.4054 69.411 65.5284 69.3741Z" fill="black"/>
<path fill-rule="evenodd" clip-rule="evenodd" d="M79.1568 70.5573C79.1151 70.4341 78.9813 70.3634 78.858 70.3993L73.7479 71.889C73.6246 71.9249 73.5585 72.0539 73.6003 72.1771C73.642 72.3003 73.7758 72.371 73.8991 72.335L79.0092 70.8454C79.1325 70.8094 79.1986 70.6804 79.1568 70.5573ZM76.9048 69.2246C76.863 69.1014 76.7292 69.0307 76.6059 69.0667L72.0347 70.3993C71.9114 70.4352 71.8453 70.5642 71.887 70.6874C71.9288 70.8105 72.0626 70.8813 72.1859 70.8453L76.7571 69.5127C76.8804 69.4768 76.9465 69.3478 76.9048 69.2246Z" fill="black"/>
<path fill-rule="evenodd" clip-rule="evenodd" d="M80.8072 74.4117C80.7655 74.2886 80.6317 74.2179 80.5084 74.2538L75.4795 75.7198C75.3562 75.7558 75.2901 75.8848 75.3319 76.0079C75.3736 76.1311 75.5074 76.2018 75.6307 76.1659L80.6596 74.6998C80.7829 74.6639 80.849 74.5349 80.8072 74.4117ZM79.4664 72.5923C79.4247 72.4691 79.2909 72.3984 79.1676 72.4343L74.3249 73.8461C74.2016 73.882 74.1355 74.011 74.1772 74.1342C74.219 74.2573 74.3528 74.328 74.4761 74.2921L79.3188 72.8804C79.4421 72.8444 79.5082 72.7154 79.4664 72.5923Z" fill="black"/>
<path fill-rule="evenodd" clip-rule="evenodd" d="M81.3669 76.6957C81.3275 76.5733 81.197 76.5006 81.0738 76.5324L78.4052 77.2214C77.5258 77.4359 76.6514 77.6495 75.9056 77.8669C75.7837 77.9024 75.7174 78.0292 75.7568 78.1515C75.7963 78.2739 75.9268 78.3466 76.0499 78.3148L78.5396 77.672C78.5506 77.6694 78.5616 77.6667 78.5726 77.664L78.6007 77.6571C79.5019 77.4374 80.4185 77.2135 81.2181 76.9804C81.3401 76.9448 81.4063 76.8181 81.3669 76.6957ZM81.889 78.9678C81.8472 78.8447 81.7134 78.7739 81.5901 78.8099L76.3799 80.3288C76.2566 80.3647 76.1905 80.4937 76.2322 80.6169C76.274 80.7401 76.4078 80.8108 76.5311 80.7748L81.7413 79.2559C81.8646 79.22 81.9307 79.091 81.889 78.9678Z" fill="black"/>
<path fill-rule="evenodd" clip-rule="evenodd" d="M81.8746 81.2365C81.8377 81.112 81.7066 81.0364 81.5818 81.0675L76.2338 82.4001C76.109 82.4312 76.0377 82.5573 76.0746 82.6818C76.1115 82.8063 76.2426 82.882 76.3675 82.8509L81.7154 81.5182C81.8402 81.4871 81.9115 81.361 81.8746 81.2365ZM81.3242 83.2925C81.2824 83.1694 81.1486 83.0986 81.0253 83.1346L75.9871 84.6034C75.8638 84.6393 75.7977 84.7683 75.8394 84.8915C75.8812 85.0146 76.015 85.0853 76.1383 85.0494L81.1765 83.5806C81.2998 83.5447 81.3659 83.4157 81.3242 83.2925Z" fill="black"/>
<path fill-rule="evenodd" clip-rule="evenodd" d="M81.3236 85.1471C81.2818 85.0239 81.148 84.9532 81.0247 84.9891C79.6482 85.3904 78.3751 85.716 77.0833 86.0463C76.4298 86.2135 75.7715 86.3818 75.0925 86.5618C74.9683 86.5947 74.8989 86.722 74.9377 86.846C74.9764 86.97 75.1086 87.0438 75.2329 87.0109C75.9036 86.833 76.558 86.6657 77.2097 86.499C78.5063 86.1674 79.7924 85.8385 81.1759 85.4352C81.2992 85.3992 81.3653 85.2702 81.3236 85.1471ZM79.6261 87.4814C79.5955 87.3555 79.468 87.2737 79.3415 87.2986L74.2315 88.3037C74.105 88.3286 74.0273 88.4508 74.0579 88.5767C74.0886 88.7026 74.216 88.7845 74.3425 88.7596L79.4526 87.7544C79.5791 87.7295 79.6568 87.6073 79.6261 87.4814Z" fill="black"/>
<path fill-rule="evenodd" clip-rule="evenodd" d="M75.5031 68.1724C75.4612 68.0492 75.3274 67.9786 75.2041 68.0147L71.1148 69.211C70.9915 69.2471 70.9255 69.3761 70.9674 69.4993C71.0093 69.6224 71.1431 69.693 71.2664 69.6569L75.3557 68.4606C75.479 68.4246 75.545 68.2955 75.5031 68.1724ZM72.8075 67.6457C72.7657 67.5225 72.6319 67.4518 72.5086 67.4877C71.4029 67.8101 70.991 67.9113 70.5968 68.0074L70.5781 68.012C70.1845 68.108 69.7975 68.2023 68.7724 68.5012C68.6491 68.5371 68.583 68.6661 68.6248 68.7893C68.6665 68.9124 68.8003 68.9832 68.9236 68.9472C69.939 68.6512 70.32 68.5583 70.7072 68.4639L70.7282 68.4588C71.1288 68.3611 71.5474 68.2581 72.6598 67.9338C72.7831 67.8978 72.8492 67.7689 72.8075 67.6457Z" fill="black"/>
<path d="M64.1876 54.3661L82.3056 57.2859C92.3832 45.9694 81.4006 32.9395 71.2529 35.6969C61.1053 38.4543 62.3052 49.1519 64.1876 54.3661Z" fill="url(#paint35_linear)"/>
<path fill-rule="evenodd" clip-rule="evenodd" d="M65.6729 51.2171C65.0102 51.3974 64.424 51.6543 64.077 52.0351C63.9188 52.2086 63.8191 52.3946 63.7826 52.5914C63.7459 52.7887 63.7764 52.9781 63.8485 53.1518C63.9886 53.489 64.2915 53.7818 64.6149 54.0221C65.2293 54.4787 66.0314 54.8262 66.3727 54.974C66.3941 54.9833 66.4137 54.9918 66.4314 54.9995C66.8803 55.1952 68.12 55.5615 69.7035 55.9565C71.2951 56.3536 73.2545 56.7847 75.1558 57.1078C77.0537 57.4304 78.9068 57.6479 80.2802 57.6121C80.9632 57.5944 81.5521 57.5138 81.9723 57.3367C82.1841 57.2474 82.3685 57.1272 82.4971 56.9632C82.6224 56.8034 82.685 56.614 82.6789 56.4036C82.6846 56.413 82.6903 56.4224 82.6961 56.4318C82.8455 56.6759 83.0061 56.9181 83.1821 57.1134C83.3564 57.3069 83.5641 57.4752 83.8129 57.5395C83.9372 57.5716 84.064 57.4957 84.0963 57.37C84.1285 57.2443 84.0539 57.1164 83.9297 57.0843C83.8073 57.0527 83.674 56.9603 83.5263 56.7964C83.3802 56.6342 83.2377 56.4222 83.0917 56.1835C83.0222 56.07 82.9535 55.9531 82.8837 55.8344L82.8744 55.8185C82.8019 55.6951 82.7283 55.5701 82.6539 55.4496C82.5065 55.2108 82.3486 54.9773 82.1762 54.7965C79.7289 52.2294 75.3544 50.9594 71.946 50.7885C71.1486 50.7485 69.5158 50.7114 67.9279 50.8506C67.1344 50.9201 66.3445 51.0343 65.6729 51.2171ZM80.5912 54.0436C80.3838 53.934 80.1692 53.8304 79.9517 53.7326C78.7718 53.202 77.4637 52.8244 76.6551 52.591C76.53 52.5549 76.4169 52.5222 76.3181 52.493C72.7561 51.4393 69.3382 51.8461 65.796 52.5364C65.6699 52.561 65.587 52.6842 65.6108 52.8115C65.6346 52.9389 65.7562 53.0222 65.8823 52.9976C69.4092 52.3103 72.7352 51.9231 76.1859 52.9438C76.2879 52.974 76.4035 53.0074 76.5303 53.0441C77.3416 53.2784 78.6142 53.6461 79.7614 54.1619C80.4246 54.4602 81.0318 54.802 81.4781 55.1862C81.9264 55.5722 82.1849 55.9767 82.2133 56.3991C82.2208 56.5111 82.192 56.5973 82.1332 56.6723C82.0702 56.7527 81.9624 56.8325 81.7948 56.9032C81.4561 57.046 80.9373 57.1252 80.2701 57.1425C78.9429 57.1771 77.1257 56.966 75.2347 56.6446C73.3471 56.3237 71.3993 55.8953 69.8166 55.5004C68.226 55.1036 67.0245 54.7457 66.6168 54.568C66.5997 54.5606 66.5811 54.5525 66.5612 54.5438C66.2171 54.3946 65.4604 54.0663 64.8912 53.6433C64.5869 53.4172 64.3677 53.1863 64.2772 52.9685C64.2341 52.8647 64.2222 52.7688 64.2394 52.6763C64.2567 52.5831 64.307 52.4748 64.4183 52.3526C64.6717 52.0746 65.1484 51.8458 65.7921 51.6707C66.4267 51.498 67.1864 51.3869 67.9663 51.3186C69.5253 51.1819 71.1352 51.2183 71.9212 51.2577C74.738 51.3989 78.1804 52.3057 80.5912 54.0436Z" fill="black"/>
<path fill-rule="evenodd" clip-rule="evenodd" d="M78.9217 36.3367C82.1185 37.6859 84.9066 40.3264 85.7918 44.3907C85.7929 44.3956 85.7941 44.4005 85.7955 44.4053C87.0783 48.9059 85.7203 53.7983 82.5361 56.6414C82.4396 56.7276 82.4301 56.8764 82.5149 56.9737C82.5997 57.0711 82.7466 57.0801 82.8432 56.9939C86.1709 54.0227 87.5701 48.9408 86.2446 44.2803C85.3187 40.0418 82.4067 37.2967 79.1022 35.902C75.8042 34.5101 72.084 34.4498 69.5064 35.6144C64.9774 37.6607 62.8657 41.151 62.3091 44.7464C61.7545 48.3286 62.7435 52.0095 64.3978 54.4701C64.4699 54.5774 64.6146 54.6048 64.7209 54.5314C64.8272 54.458 64.8549 54.3115 64.7828 54.2042C63.1918 51.8378 62.2332 48.2766 62.7687 44.8175C63.3022 41.3716 65.3182 38.0216 69.6946 36.0443C72.1322 34.9429 75.7166 34.984 78.9217 36.3367Z" fill="black"/>
<path fill-rule="evenodd" clip-rule="evenodd" d="M82.9825 53.0307C82.856 53.0053 82.7326 53.0882 82.707 53.2159C81.5275 59.0858 80.2717 68.0375 79.6644 72.7449C79.6477 72.8741 79.738 72.992 79.8659 73.0084C79.9939 73.0247 80.1111 72.9332 80.1278 72.804C80.735 68.0974 81.9891 59.1601 83.165 53.3079C83.1907 53.1802 83.1089 53.0561 82.9825 53.0307Z" fill="black"/>
<path fill-rule="evenodd" clip-rule="evenodd" d="M64.7196 51.5583C64.5915 51.5785 64.5036 51.6992 64.5232 51.8279C65.8651 60.6346 67.8389 72.9095 69.3375 78.9927C69.3686 79.1191 69.4958 79.1957 69.6215 79.1639C69.7473 79.1321 69.824 79.004 69.7929 78.8777C68.3005 72.8196 66.3299 60.5681 64.987 51.7547C64.9674 51.626 64.8477 51.5381 64.7196 51.5583Z" fill="black"/>
<path fill-rule="evenodd" clip-rule="evenodd" d="M79.6141 52.639C79.5 52.5801 79.3601 52.6266 79.3018 52.7429C78.8881 53.567 78.5228 54.272 78.2089 54.8779C77.6932 55.873 77.3161 56.6007 77.091 57.1494C77.0416 57.2698 77.0974 57.4078 77.2157 57.4575C77.334 57.5073 77.4699 57.45 77.5193 57.3296C77.7369 56.7993 78.0979 56.1028 78.6025 55.1294C78.9175 54.5218 79.2883 53.8063 79.7151 52.9561C79.7735 52.8398 79.7282 52.6979 79.6141 52.639ZM77.0811 51.983C76.9691 51.92 76.8277 51.9613 76.7653 52.0754C76.4372 52.6745 76.1966 53.1114 76.0049 53.4596C75.3423 54.6628 75.2635 54.8058 74.1726 56.9215C74.1129 57.0371 74.1566 57.1796 74.2701 57.2398C74.3836 57.2999 74.5239 57.255 74.5835 57.1394C75.6716 55.0293 75.7485 54.8896 76.4096 53.689C76.6013 53.341 76.842 52.9038 77.1707 52.3037C77.2331 52.1896 77.193 52.0461 77.0811 51.983ZM81.4204 54.6274C81.3092 54.5631 81.1674 54.6028 81.1037 54.7162L79.6167 57.3622C79.553 57.4755 79.5915 57.6195 79.7028 57.6839C79.814 57.7482 79.9558 57.7084 80.0195 57.5951L81.5065 54.9491C81.5702 54.8357 81.5317 54.6917 81.4204 54.6274Z" fill="black"/>
<path fill-rule="evenodd" clip-rule="evenodd" d="M72.4139 50.623C72.3055 50.554 72.1622 50.5876 72.0938 50.6982C70.7572 52.8606 70.2383 53.8754 69.1354 56.0731C69.0771 56.1894 69.1223 56.3314 69.2364 56.3902C69.3506 56.4491 69.4904 56.4026 69.5487 56.2863C70.6488 54.0941 71.1606 53.0934 72.4866 50.9481C72.5549 50.8376 72.5224 50.692 72.4139 50.623ZM74.1961 52.2418C74.0833 52.1803 73.9425 52.2236 73.8816 52.3384L72.0142 55.8581C71.9532 55.973 71.9952 56.116 72.108 56.1775C72.2208 56.239 72.3616 56.1957 72.4226 56.0809L74.2899 52.5612C74.3509 52.4463 74.3089 52.3033 74.1961 52.2418ZM69.449 49.9869C69.337 49.9238 69.1957 49.9652 69.1332 50.0792C68.8153 50.6596 68.5796 51.0878 68.391 51.4306C67.7119 52.6644 67.6424 52.7907 66.5415 54.9255C66.4819 55.0411 66.5256 55.1836 66.6391 55.2438C66.7526 55.3039 66.8929 55.259 66.9525 55.1434C68.0505 53.0141 68.1182 52.8911 68.7958 51.6599C68.9844 51.3173 69.2202 50.8889 69.5386 50.3075C69.601 50.1935 69.5609 50.0499 69.449 49.9869Z" fill="black"/>
<path fill-rule="evenodd" clip-rule="evenodd" d="M89.2212 67.2986C89.1126 67.2295 88.9693 67.263 88.901 67.3735C88.7624 67.5978 88.6259 67.8182 88.4913 68.0355C87.3365 69.8994 86.3226 71.5358 85.3322 73.5109C85.2739 73.6271 85.3193 73.7691 85.4335 73.8281C85.5478 73.8871 85.6876 73.8407 85.7459 73.7244C86.7261 71.7695 87.7287 70.1513 88.8847 68.2854C89.019 68.0685 89.1555 67.8483 89.2942 67.6238C89.3625 67.5133 89.3298 67.3677 89.2212 67.2986ZM86.3566 65.7487C86.2445 65.6855 86.1031 65.7268 86.0408 65.8407C85.4466 66.9262 84.8254 67.9991 84.2025 69.0748C83.3069 70.6216 82.4078 72.1744 81.5808 73.7792C81.5213 73.8948 81.5651 74.0373 81.6787 74.0975C81.7922 74.1578 81.9326 74.113 81.9921 73.9974C82.8175 72.3957 83.7025 70.8679 84.5908 69.3342C85.2142 68.258 85.8392 67.1789 86.4465 66.0694C86.5089 65.9554 86.4686 65.8118 86.3566 65.7487ZM89.0529 74.7916C88.9416 74.7272 88.7998 74.7668 88.7361 74.8801L86.5075 78.8468C86.4439 78.9601 86.4826 79.1041 86.5939 79.1685C86.7053 79.2329 86.8471 79.1933 86.9107 79.0801L89.1393 75.1133C89.203 75.0001 89.1643 74.856 89.0529 74.7916ZM60.9271 71.3215C60.815 71.2583 60.6736 71.2995 60.6113 71.4135C59.8782 72.7528 59.402 73.7214 58.934 74.6948C58.8627 74.8431 58.7916 74.9915 58.7198 75.1413C58.321 75.9737 57.9015 76.8491 57.3084 78C57.2489 78.1155 57.2927 78.258 57.4063 78.3183C57.5198 78.3785 57.6602 78.3337 57.7197 78.2182C58.3161 77.0608 58.7387 76.179 59.1377 75.3463C59.2093 75.1968 59.2802 75.0488 59.3512 74.9012C59.8172 73.9319 60.2894 72.9714 61.017 71.6422C61.0794 71.5282 61.0391 71.3846 60.9271 71.3215ZM61.9552 74.2075C61.8432 74.1443 61.7018 74.1855 61.6394 74.2995C60.9063 75.6388 60.4301 76.6074 59.9621 77.5808C59.8908 77.7291 59.8197 77.8775 59.7479 78.0273C59.3491 78.8597 58.9296 79.7351 58.3365 80.886C58.277 81.0015 58.3208 81.144 58.4344 81.2043C58.548 81.2645 58.6883 81.2197 58.7479 81.1042C59.3443 79.9468 59.7668 79.065 60.1658 78.2323C60.2374 78.0828 60.3083 77.9348 60.3793 77.7872C60.8454 76.8179 61.3176 75.8574 62.0451 74.5282C62.1075 74.4142 62.0673 74.2706 61.9552 74.2075Z" fill="black"/>
<path fill-rule="evenodd" clip-rule="evenodd" d="M69.1617 77.3629C69.1017 77.3212 69.0154 77.2819 68.9126 77.2955C68.791 77.3117 68.7118 77.3922 68.6681 77.4684C68.6263 77.5411 68.6057 77.626 68.5953 77.7076C68.5744 77.8729 68.5878 78.0929 68.6353 78.3596C68.6745 78.5796 68.8012 78.8159 68.9493 79.0177C69.1 79.2229 69.2916 79.4181 69.4876 79.5503C69.5856 79.6164 69.6927 79.6722 69.8027 79.7019C69.9127 79.7316 70.0413 79.739 70.1653 79.6853C70.4287 79.5713 70.5113 79.2691 70.5116 78.9395C70.5117 78.9144 70.5119 78.8859 70.5123 78.8544C70.5143 78.6522 70.5175 78.3307 70.4604 78.0423C70.3972 77.7229 70.2299 77.3078 69.772 77.2567C69.6592 77.244 69.5524 77.2373 69.4577 77.2465C69.3618 77.2558 69.2577 77.2831 69.1691 77.3566C69.1666 77.3587 69.1641 77.3608 69.1617 77.3629ZM69.5354 78.3984C69.6078 78.3382 69.6401 78.2367 69.6089 78.1412C69.5609 77.9946 69.5094 77.8654 69.4557 77.7554C69.4566 77.7509 69.4576 77.7467 69.4585 77.7427C69.4609 77.7329 69.4632 77.7262 69.4649 77.7218C69.4712 77.72 69.4825 77.7175 69.5007 77.7157C69.5436 77.7116 69.6058 77.7132 69.6977 77.7227C69.7002 77.7345 69.7037 77.7462 69.7081 77.7578C69.8683 78.1756 69.8898 78.4366 69.8652 78.575C69.8533 78.6414 69.8336 78.6655 69.8281 78.671C69.828 78.6711 69.8279 78.6712 69.8278 78.6713C69.8253 78.6739 69.8239 78.6752 69.8158 78.6753C69.7869 78.6754 69.6972 78.6471 69.6032 78.5154C69.5791 78.4816 69.5561 78.4425 69.5354 78.3984ZM69.4681 77.7149C69.4681 77.7149 69.4679 77.7152 69.4676 77.7158C69.468 77.7153 69.4681 77.7149 69.4681 77.7149ZM69.7161 79.1374C69.7257 79.1444 69.7353 79.151 69.7448 79.1575C69.8162 79.2057 69.8767 79.2339 69.9227 79.2463C69.9451 79.2524 69.9609 79.2538 69.971 79.2536C69.9804 79.2534 69.984 79.2519 69.9842 79.2518L69.9842 79.2518L69.985 79.2513C69.9854 79.251 69.9866 79.2501 69.9885 79.248C69.9923 79.2438 70.0005 79.2332 70.0097 79.211C70.0207 79.1845 70.0314 79.1458 70.0386 79.0916C69.9698 79.1281 69.8942 79.1461 69.8175 79.1466C69.7832 79.1468 69.7493 79.1436 69.7161 79.1374ZM69.4584 77.7241C69.4581 77.7242 69.4579 77.7243 69.4579 77.7243C69.4579 77.7243 69.4581 77.7243 69.4584 77.7241Z" fill="black"/>
<path d="M74.934 47.441C74.934 47.5672 75.0347 47.6695 75.159 47.6695H78.7856L78.7961 47.6695L78.8065 47.6695H78.914V47.6671C80.4945 47.6042 81.7567 46.2833 81.7567 44.663C81.7567 43.0866 80.5619 41.7936 79.0417 41.6668C78.9339 41.6578 78.8429 41.5785 78.8203 41.4709C78.4097 39.5155 76.6989 38.0488 74.6507 38.0488C72.2961 38.0488 70.3874 39.9871 70.3874 42.3781C70.3874 42.4033 70.3697 42.425 70.3453 42.43C69.1535 42.6731 68.2559 43.742 68.2559 45.0238C68.2559 46.4849 69.4223 47.6694 70.8611 47.6694L73.8587 47.6695C73.9829 47.6695 74.0837 47.5672 74.0837 47.441V46.7243C74.0837 46.6091 73.999 46.5129 73.8877 46.4912C73.4191 46.4 73.018 46.2036 72.7434 45.9226C72.4978 45.6712 72.3511 45.3599 72.3056 44.9941C72.2898 44.8676 72.3932 44.7632 72.5188 44.7638L73.02 44.7662C73.1403 44.7668 73.2361 44.8644 73.2635 44.9833C73.3786 45.4828 73.8238 45.8118 74.4833 45.815C74.7403 45.8162 75.6985 45.6943 75.7016 45.0217C75.7041 44.4839 75.0077 44.2799 74.3488 44.1148C74.2365 44.0867 74.1221 44.0579 74.0077 44.0268C73.2625 43.8258 72.4742 43.5957 72.4787 42.6276C72.483 41.6871 73.2625 41.2021 74.0837 41.1033V40.2014C74.0837 40.0752 74.1844 39.9729 74.3087 39.9729H74.7081C74.8324 39.9729 74.9331 40.0752 74.9331 40.2014V41.1278C75.5253 41.2249 76.3228 41.5293 76.4581 42.4563C76.4766 42.5836 76.3727 42.6902 76.2459 42.6896L75.7423 42.6872C75.6268 42.6867 75.5336 42.5959 75.4991 42.4839C75.3685 42.0605 74.959 41.8038 74.3595 41.8009C73.9606 41.7991 73.3826 42.0139 73.3803 42.5048C73.3783 42.9496 73.7136 43.1012 74.9647 43.4295L75.1303 43.4724C75.1512 43.4776 75.1736 43.4831 75.1971 43.4889C75.6737 43.6056 76.6517 43.8451 76.6468 44.9098C76.6429 45.7502 76.0775 46.3251 75.1327 46.4962C75.0201 46.5166 74.934 46.6132 74.934 46.7294V47.441Z" fill="white"/>
<defs>
<linearGradient id="paint0_linear" x1="131.865" y1="118.227" x2="147.874" y2="97.3304" gradientUnits="userSpaceOnUse">
<stop stop-color="#F6B4E2"/>
<stop offset="1" stop-color="#F5B1E1" stop-opacity="0"/>
</linearGradient>
<linearGradient id="paint1_linear" x1="132.607" y1="119.166" x2="149.08" y2="97.6688" gradientUnits="userSpaceOnUse">
<stop offset="0.3" stop-color="#F4AEE0"/>
<stop offset="0.98" stop-color="#F6B3E2" stop-opacity="0"/>
</linearGradient>
<linearGradient id="paint2_linear" x1="76.976" y1="62.2579" x2="86.3578" y2="58.3679" gradientUnits="userSpaceOnUse">
<stop offset="0.21" stop-color="#EFE59C"/>
<stop offset="0.85" stop-color="#EFE59C" stop-opacity="0"/>
</linearGradient>
<linearGradient id="paint3_linear" x1="82.3112" y1="71.9935" x2="82.3112" y2="55.244" gradientUnits="userSpaceOnUse">
<stop offset="0.21" stop-color="#EFE59C"/>
<stop offset="0.85" stop-color="#EFE59C" stop-opacity="0"/>
</linearGradient>
<linearGradient id="paint4_linear" x1="113.897" y1="107.103" x2="130.047" y2="76.5496" gradientUnits="userSpaceOnUse">
<stop offset="0.5" stop-color="#B1A6CC"/>
<stop offset="0.79" stop-color="white" stop-opacity="0"/>
</linearGradient>
<linearGradient id="paint5_linear" x1="119.159" y1="99.4918" x2="118.971" y2="77.9249" gradientUnits="userSpaceOnUse">
<stop offset="0.08" stop-color="#B1A6CC"/>
<stop offset="0.85" stop-color="white" stop-opacity="0"/>
</linearGradient>
<linearGradient id="paint6_linear" x1="85.0743" y1="98.8194" x2="86.9676" y2="83.0189" gradientUnits="userSpaceOnUse">
<stop offset="0.26" stop-color="#9EBCFD"/>
<stop offset="0.88" stop-color="white" stop-opacity="0"/>
</linearGradient>
<linearGradient id="paint7_linear" x1="83.9039" y1="99.036" x2="83.9039" y2="85.6965" gradientUnits="userSpaceOnUse">
<stop offset="0.37" stop-color="#9EBCFD"/>
<stop offset="1" stop-color="white" stop-opacity="0"/>
</linearGradient>
<linearGradient id="paint8_linear" x1="115.981" y1="61.4156" x2="134.054" y2="29.322" gradientUnits="userSpaceOnUse">
<stop offset="0.44" stop-color="#70FFD6"/>
<stop offset="0.77" stop-color="#70FFD6" stop-opacity="0"/>
</linearGradient>
<linearGradient id="paint9_linear" x1="114.199" y1="69.0852" x2="128.628" y2="19.6435" gradientUnits="userSpaceOnUse">
<stop offset="0.18" stop-color="#BBECD8"/>
<stop offset="0.71" stop-color="#BBECD8" stop-opacity="0"/>
</linearGradient>
<linearGradient id="paint10_linear" x1="57.764" y1="72.0322" x2="52.8455" y2="48.8111" gradientUnits="userSpaceOnUse">
<stop stop-color="#F6B4E2"/>
<stop offset="1" stop-color="#F5B1E1" stop-opacity="0"/>
</linearGradient>
<linearGradient id="paint11_linear" x1="59.6097" y1="71.9134" x2="54.5393" y2="47.9787" gradientUnits="userSpaceOnUse">
<stop offset="0.3" stop-color="#F4AEE0"/>
<stop offset="0.98" stop-color="#F6B3E2" stop-opacity="0"/>
</linearGradient>
<linearGradient id="paint12_linear" x1="81.2253" y1="121.947" x2="91.6504" y2="111.356" gradientUnits="userSpaceOnUse">
<stop offset="0.44" stop-color="#FFC5A1"/>
<stop offset="0.91" stop-color="#FFC5A1" stop-opacity="0"/>
</linearGradient>
<linearGradient id="paint13_linear" x1="87.2475" y1="124.46" x2="87.2475" y2="109.266" gradientUnits="userSpaceOnUse">
<stop offset="0.21" stop-color="#FFC5A1"/>
<stop offset="0.85" stop-color="#FFC5A1" stop-opacity="0"/>
</linearGradient>
<linearGradient id="paint14_linear" x1="37.6954" y1="76.0737" x2="38.9444" y2="61.2376" gradientUnits="userSpaceOnUse">
<stop offset="0.44" stop-color="#FFC5A1"/>
<stop offset="0.91" stop-color="#FFC5A1" stop-opacity="0"/>
</linearGradient>
<linearGradient id="paint15_linear" x1="44.1679" y1="74.0669" x2="34.4389" y2="62.3699" gradientUnits="userSpaceOnUse">
<stop offset="0.21" stop-color="#FFC5A1"/>
<stop offset="0.85" stop-color="#FFC5A1" stop-opacity="0"/>
</linearGradient>
<linearGradient id="paint16_linear" x1="66.0655" y1="40.968" x2="82.2155" y2="10.4145" gradientUnits="userSpaceOnUse">
<stop offset="0.5" stop-color="#B1A6CC"/>
<stop offset="0.79" stop-color="white" stop-opacity="0"/>
</linearGradient>
<linearGradient id="paint17_linear" x1="71.3522" y1="34.7432" x2="71.1542" y2="11.9799" gradientUnits="userSpaceOnUse">
<stop offset="0.08" stop-color="#B1A6CC"/>
<stop offset="0.85" stop-color="white" stop-opacity="0"/>
</linearGradient>
<linearGradient id="paint18_linear" x1="14.2272" y1="103.989" x2="18.9641" y2="94.9849" gradientUnits="userSpaceOnUse">
<stop offset="0.21" stop-color="#EFE59C"/>
<stop offset="0.85" stop-color="#EFE59C" stop-opacity="0"/>
</linearGradient>
<linearGradient id="paint19_linear" x1="25.0735" y1="107.64" x2="14.3525" y2="94.7504" gradientUnits="userSpaceOnUse">
<stop offset="0.21" stop-color="#EFE59C"/>
<stop offset="0.85" stop-color="#EFE59C" stop-opacity="0"/>
</linearGradient>
<linearGradient id="paint20_linear" x1="15.9602" y1="16.7505" x2="21.1237" y2="6.94693" gradientUnits="userSpaceOnUse">
<stop offset="0.21" stop-color="#EFE59C"/>
<stop offset="0.85" stop-color="#EFE59C" stop-opacity="0"/>
</linearGradient>
<linearGradient id="paint21_linear" x1="25.1198" y1="21.9277" x2="21.9348" y2="7.60525" gradientUnits="userSpaceOnUse">
<stop offset="0.21" stop-color="#EFE59C"/>
<stop offset="0.85" stop-color="#EFE59C" stop-opacity="0"/>
</linearGradient>
<linearGradient id="paint22_linear" x1="14.9994" y1="43.3904" x2="4.85875" y2="31.1333" gradientUnits="userSpaceOnUse">
<stop offset="0.26" stop-color="#9EBCFD"/>
<stop offset="0.88" stop-color="white" stop-opacity="0"/>
</linearGradient>
<linearGradient id="paint23_linear" x1="14.3233" y1="44.4196" x2="4.66499" y2="35.226" gradientUnits="userSpaceOnUse">
<stop offset="0.37" stop-color="#9EBCFD"/>
<stop offset="1" stop-color="white" stop-opacity="0"/>
</linearGradient>
<linearGradient id="paint24_linear" x1="66.7906" y1="111.159" x2="48.2264" y2="83.9717" gradientUnits="userSpaceOnUse">
<stop offset="0.44" stop-color="#70FFD6"/>
<stop offset="0.77" stop-color="#70FFD6" stop-opacity="0"/>
</linearGradient>
<linearGradient id="paint25_linear" x1="72.5627" y1="117.264" x2="38.4052" y2="84.1636" gradientUnits="userSpaceOnUse">
<stop offset="0.18" stop-color="#BBECD8"/>
<stop offset="0.71" stop-color="#BBECD8" stop-opacity="0"/>
</linearGradient>
<linearGradient id="paint26_linear" x1="131.928" y1="115.615" x2="164.894" y2="83.1833" gradientUnits="userSpaceOnUse">
<stop offset="0.12" stop-color="#FEB7D5"/>
<stop offset="0.6" stop-color="#FEB7D5" stop-opacity="0"/>
</linearGradient>
<linearGradient id="paint27_linear" x1="112.418" y1="95.1447" x2="124.156" y2="95.1447" gradientUnits="userSpaceOnUse">
<stop stop-color="#B1A7CB"/>
<stop offset="1" stop-color="#B1A6CD"/>
</linearGradient>
<linearGradient id="paint28_linear" x1="77.7936" y1="97.7773" x2="96.7389" y2="81.3366" gradientUnits="userSpaceOnUse">
<stop offset="0.32" stop-color="#9EBCFD"/>
<stop offset="0.6" stop-color="#9EBCFD" stop-opacity="0"/>
</linearGradient>
<linearGradient id="paint29_linear" x1="117.66" y1="51.9664" x2="144.731" y2="28.4797" gradientUnits="userSpaceOnUse">
<stop offset="0.4" stop-color="#BBECD8"/>
<stop offset="1" stop-color="#BBECD8" stop-opacity="0"/>
</linearGradient>
<linearGradient id="paint30_linear" x1="65.1396" y1="29.2588" x2="70.575" y2="29.2588" gradientUnits="userSpaceOnUse">
<stop stop-color="#B1A7CB"/>
<stop offset="1" stop-color="#B1A6CD"/>
</linearGradient>
<linearGradient id="paint31_linear" x1="80.6484" y1="122.815" x2="100.59" y2="105.511" gradientUnits="userSpaceOnUse">
<stop offset="0.32" stop-color="#FFC5A1"/>
<stop offset="1"/>
</linearGradient>
<linearGradient id="paint32_linear" x1="94.9298" y1="112.172" x2="99.1032" y2="17.9474" gradientUnits="userSpaceOnUse">
<stop stop-color="#E4E7EF" stop-opacity="0.52"/>
<stop offset="1" stop-color="#F4F6F8"/>
</linearGradient>
<linearGradient id="paint33_linear" x1="121.11" y1="97.801" x2="125.283" y2="3.57668" gradientUnits="userSpaceOnUse">
<stop offset="0.62" stop-color="#E4E7EF"/>
<stop offset="1" stop-color="#F4F6F8" stop-opacity="0.03"/>
</linearGradient>
<linearGradient id="paint34_linear" x1="28.4685" y1="109.295" x2="32.6371" y2="15.0709" gradientUnits="userSpaceOnUse">
<stop stop-color="#E4E7EF"/>
<stop offset="1" stop-color="#F4F6F8"/>
</linearGradient>
<linearGradient id="paint35_linear" x1="81.5616" y1="33.0313" x2="66.3781" y2="61.1226" gradientUnits="userSpaceOnUse">
<stop stop-color="#00CFDE"/>
<stop offset="1" stop-color="#05A660"/>
</linearGradient>
</defs>
</svg>