<svg width="10" height="10" viewBox="0 0 10 10" fill="none" xmlns="http://www.w3.org/2000/svg">
  <path d="M6.95789 2.96842V1.52632C6.95789 0.684211 6.27368 0 5.43158 0H1.52632C0.684211 0 0 0.684211 0 1.52632V5.43158C0 6.27368 0.684211 6.95789 1.52632 6.95789H2.96842C3.21053 8.67368 4.68421 10 6.46316 10C8.41053 10 10 8.42105 10 6.46316C10 4.68421 8.67368 3.21053 6.95789 2.96842ZM5.97895 2.96842C4.42105 3.18947 3.18947 4.42105 2.96842 5.97895H1.52632C1.22105 5.97895 0.978947 5.73684 0.978947 5.43158V1.52632C0.978947 1.22105 1.22105 0.978947 1.52632 0.978947H5.43158C5.73684 0.978947 5.97895 1.22105 5.97895 1.52632V2.96842ZM7.95789 6.85263H6.46316C6.24211 6.85263 6.07368 6.67368 6.07368 6.46316V4.62105C6.07368 4.4 6.25263 4.23158 6.46316 4.23158C6.67368 4.23158 6.85263 4.41053 6.85263 4.62105V6.07368H7.95789C8.17895 6.07368 8.34737 6.25263 8.34737 6.46316C8.34737 6.67368 8.17895 6.85263 7.95789 6.85263Z" fill="#FF7B26"/>
</svg>