<svg fill="none" height="709" viewBox="0 0 595 709" width="595" xmlns="http://www.w3.org/2000/svg" xmlns:xlink="http://www.w3.org/1999/xlink"><linearGradient id="a" gradientUnits="userSpaceOnUse" x1="-74.881" x2="603.488" y1="669.476" y2="1134.26"><stop offset="0" stop-color="#0095f7" stop-opacity="0"/><stop offset=".303839" stop-color="#0095f7"/><stop offset=".540726" stop-color="#0095f7" stop-opacity="0"/></linearGradient><linearGradient id="b" gradientUnits="userSpaceOnUse" x1="911.048" x2="415.615" y1="582.246" y2="53.8936"><stop offset=".153466" stop-color="#62f91f" stop-opacity=".78"/><stop offset=".667402" stop-color="#62f91f" stop-opacity="0"/></linearGradient><linearGradient id="c" gradientUnits="userSpaceOnUse" x1="292.168" x2="335.339" y1="227.768" y2="554.877"><stop offset="0" stop-color="#00cfde" stop-opacity="0"/><stop offset=".0445471" stop-color="#00cfde" stop-opacity="0"/><stop offset=".382612" stop-color="#4a9fff" stop-opacity=".21"/><stop offset=".603486" stop-color="#3e7bfa" stop-opacity=".53"/></linearGradient><radialGradient id="d" cx="0" cy="0" gradientTransform="matrix(-1.06873043 60.91072483 -132.20065213 -2.31957279 207.528 323.46)" gradientUnits="userSpaceOnUse" r="1"><stop offset="0"/><stop offset="1" stop-color="#3e7bfa" stop-opacity="0"/></radialGradient><linearGradient id="e" gradientUnits="userSpaceOnUse" x1="300.832" x2="340.162" y1="150.393" y2="210.966"><stop offset="0" stop-color="#73dfe7"/><stop offset="1" stop-color="#0095f7"/></linearGradient><clipPath id="f"><path d="m0 0h595v709h-595z"/></clipPath><g clip-path="url(#f)"><path d="m-57.6723 652.61-17.3277-39.516.0189-.008c33.9679-14.282 64.0285-26.903 90.8147-38.138l-.3799 4.001 92.3873-42.538c11.203-4.687 21.574-9.023 31.24-13.065l.311-.13c66.171-27.67 99.285-41.516 140.442-59.314 16.447-7.112 32.097-14.133 46.894-20.771l.003-.001.006-.003.006-.002c17.666-7.925 34.115-15.304 49.246-21.639 13.763-5.763 26.039-10.486 36.608-13.76 10.682-3.309 19.067-4.958 25.215-4.958 13.216 0 35.136 5.947 59.847 14.303 16.789 5.677 34.112 12.189 49.935 18.138l.008.002.005.002c7.171 2.696 14.034 5.277 20.399 7.611 1.831.671 3.674 1.352 5.532 2.039 38.837 14.355 83.778 30.966 143.457 3.589 47.458-21.771 119.878-55.798 164.45-80.37l13.847 29.744c-22.385 12.558-47.982 26.577-73.346 39.958-48.093 25.373-94.326 47.901-116.532 54.338-22.928 6.646-41.321 11.474-69.414 8.54-28.514-2.977-67.431-14.016-130.71-40.453-27.07-11.31-46.297-17.151-63.48-18.029-17.484-.894-32.074 3.386-49.64 10.593-29.706 12.187-110.278 48.289-205.965 91.164l-.005.002-.002.001c-77.706 34.817-165.3777 74.101-243.8703 108.67z" fill="url(#a)"/><path d="m426.88 442.695 14.644-39.784c13.408.935 33.613 6.55 56.134 14.166 16.79 5.677 34.113 12.189 49.936 18.138l.007.002.005.002c7.172 2.696 14.034 5.276 20.4 7.61 1.83.672 3.674 1.353 5.531 2.04 38.838 14.355 83.779 30.966 143.458 3.589 58.835-26.99 156.034-72.817 190.976-96.112 2.304-1.535 4.961-3.884 6.21-7.401 1.426-4.011.438-7.788-1.356-10.589-1.614-2.52-3.948-4.433-6.119-5.886-2.269-1.519-4.956-2.923-7.871-4.24-11.462-5.178-29.78-10.436-50.85-15.832-13.221-3.386-27.669-6.863-42.592-10.454-33.439-8.047-69.266-16.669-99.034-26.13-10.485-3.333-18.891-11.729-21.032-20.195-1.013-4.006-.688-8.137 1.54-12.266 2.286-4.238 6.903-9.05 15.457-13.552 14.108-7.425 36.145-17.431 61.916-28.672l51.498 14.553c-16.174 7.142-30.927 13.711-42.568 18.915-7.944 3.551-14.439 6.466-18.95 8.494-2.255 1.014-4.015 1.807-5.21 2.346l-1.83.825c-3.186 1.439-5.115 4.733-4.811 8.215.303 3.483 2.774 6.393 6.16 7.259l.004.001 1.037.265c.689.177 1.713.44 3.051.785 2.675.689 6.605 1.704 11.617 3.006 10.025 2.603 24.379 6.356 41.692 10.947 34.63 9.184 81.08 21.721 128.385 35.141 9.728 2.76 18.116 6.683 24.44 11.267 6.373 4.619 10.195 9.563 11.734 14.255 1.442 4.395 1.174 9.406-2.318 15.279-3.64 6.123-10.868 13.247-23.474 20.746-26.406 15.71-74.993 43.165-122.752 68.362-48.092 25.373-94.325 47.901-116.531 54.337-22.929 6.646-41.321 11.474-69.415 8.541-28.513-2.977-67.43-14.016-130.709-40.454-27.07-11.309-46.297-17.15-63.48-18.029-5.18-.265-10.106-.075-14.93.51z" fill="url(#b)"/><path d="m1051.93 615.696-.28-.415zm392.05-276.524-.28-.411zm-258.62-360.8652-.07.4941zm-291.633 27.65231.192.46179zm-442.956 171.44589-.177-.468zm1273.839-103.6971.11-.4886zm-1053.738 575.1721-.161.473zm-419.57-171.446.208-.455zm-141.691-156.236.177.467zm942.589 294.913c.97-.647 1.94-1.297 2.91-1.95l-.56-.83c-.97.652-1.94 1.302-2.9 1.95zm8.77-5.893c1.94-1.307 3.88-2.624 5.84-3.948l-.56-.828c-1.96 1.324-3.9 2.64-5.84 3.947zm11.69-7.919c1.93-1.314 3.87-2.636 5.82-3.967l-.56-.825c-1.95 1.329-3.89 2.651-5.82 3.965zm11.66-7.959c1.93-1.321 3.86-2.649 5.8-3.984l-.56-.824c-1.95 1.335-3.88 2.662-5.81 3.983zm11.63-7.995c1.92-1.327 3.86-2.661 5.79-4.001l-.57-.822c-1.93 1.34-3.86 2.673-5.79 3.999zm11.61-8.027c1.92-1.333 3.85-2.671 5.78-4.016l-.57-.821c-1.93 1.344-3.86 2.683-5.78 4.015zm11.59-8.054c1.92-1.339 3.84-2.682 5.77-4.031l-.57-.82c-1.93 1.349-3.86 2.692-5.78 4.03zm11.56-8.08c1.92-1.344 3.85-2.692 5.78-4.045l-.58-.819c-1.93 1.353-3.85 2.701-5.77 4.044zm11.56-8.103c1.92-1.348 3.84-2.701 5.77-4.058l-.58-.817c-1.93 1.356-3.85 2.709-5.77 4.057zm11.54-8.123c1.91-1.352 3.84-2.709 5.76-4.069l-.58-.817c-1.92 1.36-3.84 2.717-5.76 4.069zm11.52-8.14c1.92-1.357 3.84-2.717 5.77-4.08l-.58-.816c-1.93 1.363-3.85 2.723-5.77 4.079zm11.52-8.157c1.92-1.36 3.84-2.723 5.76-4.089l-.58-.816c-1.92 1.366-3.84 2.729-5.76 4.089zm11.5-8.171c1.92-1.363 3.84-2.728 5.77-4.097l-.58-.814c-1.93 1.368-3.85 2.733-5.76 4.096zm11.5-8.182c1.92-1.365 3.84-2.731 5.76-4.1l-.58-.814c-1.92 1.369-3.84 2.735-5.76 4.099zm11.5-8.193c1.91-1.365 3.83-2.732 5.74-4.101l-.58-.814c-1.92 1.369-3.83 2.736-5.74 4.101zm11.48-8.201c1.92-1.367 3.83-2.734 5.74-4.103l-.58-.814c-1.91 1.369-3.83 2.737-5.74 4.103zm11.49-8.208c1.91-1.367 3.82-2.735 5.73-4.105l-.58-.813c-1.91 1.369-3.82 2.737-5.74 4.104zm11.47-8.213c1.91-1.368 3.83-2.736 5.74-4.106l-.58-.813c-1.92 1.369-3.83 2.738-5.74 4.106zm11.48-8.216c1.91-1.368 3.82-2.738 5.73-4.107l-.58-.813c-1.91 1.369-3.82 2.739-5.73 4.107zm11.47-8.217c1.91-1.369 3.82-2.739 5.74-4.109l-.59-.813c-1.91 1.37-3.82 2.74-5.73 4.11zm11.47-8.218c1.91-1.37 3.83-2.74 5.74-4.109l-.58-.813c-1.92 1.37-3.83 2.739-5.74 4.109zm11.48-8.218c1.91-1.369 3.82-2.739 5.73-4.107l-.58-.814c-1.91 1.369-3.82 2.739-5.74 4.108zm11.47-8.216c1.91-1.369 3.82-2.737 5.74-4.104l-.59-.813c-1.91 1.367-3.82 2.735-5.73 4.104zm11.48-8.212c1.91-1.368 3.82-2.735 5.73-4.101l-.58-.814c-1.91 1.366-3.82 2.733-5.73 4.102zm11.48-8.207c1.91-1.368 3.83-2.734 5.74-4.099l-.58-.814c-1.91 1.365-3.83 2.732-5.74 4.099zm11.48-8.2c1.92-1.367 3.83-2.733 5.75-4.096l-.58-.814c-1.92 1.363-3.83 2.729-5.75 4.096zm11.49-8.191c1.92-1.366 3.84-2.731 5.75-4.093l-.58-.815c-1.91 1.362-3.83 2.727-5.75 4.094zm11.5-8.18c1.92-1.366 3.84-2.73 5.76-4.091l-.58-.815c-1.92 1.361-3.84 2.725-5.76 4.091zm11.5-8.168c1.93-1.365 3.85-2.728 5.77-4.087l-.58-.816c-1.92 1.359-3.84 2.722-5.77 4.087zm11.51-8.155c1.93-1.364 3.86-2.725 5.78-4.082l-.58-.817c-1.92 1.358-3.84 2.718-5.77 4.082zm11.53-8.143c1.93-1.361 3.86-2.719 5.78-4.072l-.57-.817c-1.93 1.353-3.85 2.71-5.78 4.071zm11.54-8.126c1.94-1.357 3.86-2.711 5.79-4.059l-.58-.819c-1.92 1.349-3.85 2.702-5.78 4.06zm11.56-8.105c1.93-1.354 3.86-2.703 5.78-4.047l-.57-.82c-1.92 1.345-3.85 2.694-5.79 4.048zm11.57-8.082c1.93-1.35 3.87-2.695 5.79-4.033l-.57-.821c-1.93 1.339-3.86 2.683-5.79 4.033zm11.58-8.057c.97-.668 1.93-1.334 2.89-1.999l-.57-.822c-.96.665-1.92 1.331-2.89 1.999zm2.89-1.999c.95-.66 1.9-1.319 2.85-1.976l-.56-.823c-.96.658-1.91 1.317-2.86 1.977zm8.56-5.913c1.9-1.308 3.79-2.613 5.69-3.915l-.57-.824c-1.89 1.302-3.79 2.607-5.69 3.916zm11.38-7.815c1.91-1.31 3.82-2.615 5.73-3.917l-.57-.826c-1.9 1.302-3.81 2.608-5.73 3.918zm11.44-7.811c1.91-1.294 3.8-2.585 5.7-3.872l-.56-.827c-1.9 1.287-3.8 2.578-5.7 3.872zm11.45-7.766c1.91-1.296 3.82-2.589 5.73-3.878l-.56-.829c-1.91 1.289-3.82 2.582-5.73 3.879zm11.45-7.732c1.92-1.293 3.83-2.582 5.74-3.867l-.56-.83c-1.91 1.285-3.82 2.574-5.74 3.867zm11.5-7.734c1.91-1.285 3.82-2.566 5.73-3.842l-.56-.831c-1.91 1.277-3.82 2.558-5.73 3.842zm11.47-7.686c1.93-1.291 3.85-2.578 5.77-3.86l-.56-.831c-1.92 1.282-3.84 2.569-5.77 3.86zm11.51-7.693c1.92-1.28 3.83-2.556 5.73-3.826l-.55-.832c-1.91 1.271-3.82 2.546-5.74 3.826zm11.52-7.684c1.92-1.282 3.84-2.558 5.75-3.83l-.56-.832c-1.91 1.272-3.82 2.548-5.75 3.83zm11.47-7.645c1.94-1.292 3.88-2.579 5.8-3.861l-.56-.832c-1.92 1.282-3.85 2.569-5.79 3.861zm11.55-7.69c1.91-1.277 3.82-2.548 5.72-3.814l-.55-.832c-1.9 1.266-3.81 2.537-5.73 3.814zm11.52-7.681c1.92-1.284 3.84-2.562 5.74-3.834l-.56-.832c-1.9 1.272-3.81 2.55-5.74 3.834zm11.46-7.66c1.94-1.298 3.87-2.591 5.79-3.878l-.56-.83c-1.91 1.286-3.84 2.579-5.79 3.877zm11.52-7.719c1.92-1.291 3.83-2.575 5.72-3.852l-.56-.83c-1.89 1.278-3.8 2.561-5.72 3.851zm11.49-7.745c1.91-1.291 3.81-2.575 5.7-3.853l-.57-.828c-1.88 1.278-3.78 2.562-5.69 3.852zm11.43-7.752c1.93-1.311 3.84-2.614 5.74-3.91l-.57-.826c-1.89 1.296-3.8 2.599-5.73 3.909zm11.38-7.778c1.94-1.331 3.86-2.655 5.76-3.97l-.57-.823c-1.9 1.315-3.82 2.638-5.76 3.969zm11.43-7.901c1.9-1.326 3.79-2.643 5.66-3.952l-.58-.818c-1.86 1.308-3.75 2.624-5.65 3.949zm11.35-7.957c1.88-1.326 3.74-2.643 5.57-3.952l-.58-.814c-1.83 1.307-3.69 2.624-5.57 3.949zm11.27-8.034c1.88-1.355 3.74-2.699 5.57-4.033l-.59-.808c-1.83 1.333-3.69 2.676-5.56 4.029zm11.17-8.141c1.88-1.387 3.73-2.762 5.55-4.125l-.59-.801c-1.82 1.362-3.67 2.736-5.55 4.121zm11.07-8.286c1.87-1.423 3.71-2.833 5.51-4.23l-.61-.79c-1.8 1.395-3.64 2.803-5.51 4.224zm10.93-8.479c1.85-1.465 3.66-2.915 5.43-4.349l-.63-.777c-1.76 1.432-3.57 2.879-5.42 4.342zm10.76-8.737c1.81-1.512 3.57-3.006 5.28-4.481l-.65-.757c-1.71 1.472-3.46 2.962-5.27 4.47zm10.5-9.078c1.74-1.563 3.42-3.104 5.03-4.623l-.69-.727c-1.6 1.513-3.27 3.048-5 4.606zm10.08-9.523c1.69-1.692 3.29-3.356 4.8-4.991l-.73-.679c-1.5 1.625-3.1 3.279-4.78 4.964zm9.34-10.134c1.56-1.873 3-3.704 4.29-5.493l-.81-.586c-1.28 1.767-2.7 3.58-4.25 5.437zm8.12-11.343c1.25-2.16 2.26-4.252 3.03-6.275l-.93-.356c-.75 1.965-1.74 4.009-2.97 6.13zm4.71-13.0847c.24-2.4718.02-4.8195-.69-7.0338l-.95.3049c.66 2.072.87 4.2817.65 6.6321zm-4.22-13.1593c-1.43-1.6287-3.21-3.1467-5.36-4.5548l-.55.8366c2.09 1.367 3.8 2.8275 5.16 4.3771zm-11.53-7.8574c-1.97-.8739-4.14-1.6935-6.5-2.4585l-.31.9513c2.34.7559 4.47 1.5635 6.41 2.4215zm-13.07-4.3208c-1.15-.2846-2.34-.5595-3.56-.8245l-.21.9773c1.21.2631 2.39.5357 3.52.8179zm-3.56-.8245c-1.14-.247-2.28-.4938-3.42-.7403l-.21.9774c1.14.2465 2.28.4932 3.42.7402zm-10.28-2.2165c-2.29-.491-4.58-.9811-6.88-1.4701l-.21.9781c2.3.4889 4.59.9789 6.88 1.4698zm-13.74-2.9239c-2.29-.4831-4.58-.9651-6.87-1.4462l-.21.9788c2.3.4809 4.59.9628 6.87 1.4459zm-13.76-2.884c-2.28-.4757-4.57-.9505-6.86-1.4241l-.21.9793c2.3.4735 4.58.9481 6.87 1.4239zm-13.75-2.8421c-2.29-.4701-4.58-.9392-6.88-1.4072l-.2.9799c2.3.4679 4.59.9369 6.88 1.4069zm-13.76-2.8047c-2.29-.4648-4.59-.9285-6.89-1.3911l-.2.9803c2.3.4626 4.6.9262 6.89 1.3909zm-13.77-2.7706c-2.29-.4585-4.59-.9159-6.89-1.3722l-.19.9808c2.29.4562 4.59.9136 6.88 1.372zm-13.78-2.7371c-2.3-.4528-4.59-.9045-6.89-1.355l-.19.9813c2.3.4505 4.59.902 6.88 1.3547zm-13.78-2.7033c-2.3-.4479-4.6-.8947-6.9-1.3403l-.19.9817c2.3.4456 4.6.8923 6.9 1.3401zm-13.79-2.6726c-2.3-.443-4.6-.8848-6.9-1.3254l-.19.9821c2.3.4406 4.6.8823 6.9 1.3252zm-13.8-2.6433c-2.3-.4381-4.6-.875-6.9-1.3107l-.18.9826c2.3.4356 4.6.8724 6.9 1.3104zm-13.8-2.6143c-2.3-.4336-4.6-.8661-6.9-1.2973l-.19.9829c2.31.4312 4.61.8635 6.91 1.2971zm-13.8-2.5873c-2.31-.429-4.61-.8569-6.91-1.2835l-.18.9832c2.3.4266 4.6.8544 6.9 1.2834zm-13.82-2.5611c-2.3-.4246-4.6-.848-6.9-1.2701l-.18.9836c2.3.422 4.6.8453 6.9 1.2699zm-13.81-2.5353c-2.31-.4209-4.61-.8404-6.91-1.2587l-.18.9839c2.3.4182 4.6.8377 6.91 1.2585zm-13.81-2.5096c-2.31-.4175-4.62-.8337-6.92-1.2485l-.18.9842c2.3.4148 4.61.8309 6.92 1.2483zm-13.83-2.4889c-2.31-.4129-4.61-.8244-6.91-1.2346l-.18.9845c2.3.4101 4.6.8216 6.91 1.2345zm-13.84-2.4655c-2.3-.409-4.6-.8166-6.9-1.2226l-.18.9847c2.3.4061 4.6.8135 6.91 1.2225zm-13.83-2.4425c-2.31-.4062-4.61-.8108-6.92-1.214l-.17.985c2.3.4031 4.61.8077 6.92 1.2138zm-13.82-2.4196c-2.31-.4036-4.63-.8057-6.93-1.2064l-.18.9853c2.31.4006 4.62.8027 6.94 1.2063zm-13.85-2.4036c-2.31-.3992-4.62-.7968-6.92-1.1929l-.17.9855c2.31.396 4.61.7937 6.92 1.1928zm-13.85-2.3832c-2.3-.3952-4.61-.7888-6.9-1.1807l-.17.9857c2.29.392 4.6.7855 6.9 1.1806zm-13.84-2.3626c-2.32-.393-4.62-.7845-6.92-1.1742l-.17.9859c2.3.3898 4.61.7811 6.92 1.1742zm-13.84-2.3422c-2.32-.3913-4.63-.7809-6.94-1.1687l-.17.9862c2.31.3877 4.63.7772 6.95 1.1685zm-13.85-2.3269c-2.32-.3883-4.63-.7748-6.94-1.1594l-.16.9864c2.3.3846 4.62.771 6.94 1.1592zm-13.87-2.31236c-2.31-.38385-4.61-.76581-6.91-1.14594l-.16.98657c2.29.38007 4.6.76203 6.91 1.14583zm-13.86-2.29444c-2.31-.38092-4.61-.75989-6.91-1.1369l-.16.98682c2.29.37695 4.6.75592 6.91 1.13678zm-13.86-2.27698c-2.32-.37957-4.62-.75708-6.93-1.1325l-.16.98694c2.3.37542 4.61.75293 6.93 1.13244zm-13.85-2.26013c-2.32-.37848-4.64-.75476-6.95-1.12884l-.16.98712c2.31.37408 4.63.7503 6.95 1.12872zm-13.84-2.244627c-2.34-.377319-4.66-.75238-6.97-1.125122l-.16.9872441c2.31.3727419 4.63.7477419 6.97 1.1250649zm-13.89-2.237003c-2.32-.37384-4.64-.7453-6.95-1.11431l-.15.98742c2.3.36902 4.62.74042 6.94 1.1142zm-13.88-2.22271c-2.32-.37055-4.63-.73853-6.92-1.10401l-.16.98755c2.29.36548 4.6.73346 6.92 1.10394zm-13.88-2.20929c-2.31-.3675-4.61-.7323-6.9-1.09436l-.16.98767c2.29.36212 4.59.72687 6.9 1.0943zm-13.88-2.19684c-2.31-.36475-4.6-.72669-6.88-1.08569l-.16.98779c2.28.35907 4.58.72095 6.89 1.08569zm-13.87-2.18532c-2.32-.3636-4.61-.724-6.89-1.0813l-.16.9879c2.28.3573 4.58.7177 6.89 1.08121zm-13.88-2.1753c-2.32-.3623-4.61-.7212-6.89-1.0768l-.16.988c2.28.3556 4.58.7146 6.9 1.0768zm-13.88-2.1662c-2.31-.3609-4.61-.7182-6.88-1.0718l-.16.9881c2.28.3536 4.57.7109 6.89 1.0718zm-13.88-2.1587c-2.32-.3598-4.61-.7157-6.88-1.0675l-.15.9882c2.27.3518 4.56.7076 6.88 1.0675zm-13.88-2.152c-2.33-.3609-4.63-.7173-6.9-1.0691l-.16.9883c2.28.3518 4.58.7081 6.91 1.069zm-13.87-2.1464c-1.14-.1772-2.28-.353-3.41-.5276l-.15.9882c1.13.1746 2.26.3505 3.41.5276zm-3.41-.5276c-1.19-.1837-2.37-.3652-3.55-.5446l-.15.9886c1.18.1793 2.36.3607 3.55.5442zm-10.54-1.596c-2.37-.3514-4.72-.6939-7.05-1.0273l-.14.9899c2.33.3332 4.68.6754 7.05 1.0266zm-14.05-2.0123c-2.37-.3263-4.71-.6429-7.03-.9493l-.13.9914c2.32.3062 4.66.6224 7.02.9485zm-14.08-1.8573c-2.37-.2965-4.71-.5821-7.03-.8566l-.11.9931c2.31.2742 4.65.5595 7.01.8557zm-14.08-1.6644c-2.38-.2631-4.73-.5139-7.07-.7523l-.1.9948c2.33.2381 4.69.4887 7.06.7514zm-14.12-1.4403c-2.37-.2202-4.72-.427-7.05-.6201l-.08.9966c2.32.1927 4.67.3992 7.04.6193zm-14.15-1.1703c-2.38-.1715-4.74-.3281-7.08-.4693l-.06.9982c2.34.1409 4.69.2973 7.07.4685zm-14.16-.8524c-2.38-.1136-4.74-.2106-7.08-.2909l-.03.9994c2.34.0802 4.69.177 7.06.2904zm-14.19-.4842c-2.38-.0476-4.75-.0769-7.1-.0878v1c2.34.0109 4.7.0402 7.08.0875zm-14.2-.064c-2.38.0274-4.74.0743-7.09.1412l.03.9996c2.34-.0668 4.7-.1136 7.07-.1409zm-14.18.4051c-2.37.1096-4.74.2402-7.09.3922l.07.9979c2.34-.1516 4.7-.2818 7.07-.3911zm-14.17.9166c-2.37.1976-4.72.4174-7.07.6596l.1.9947c2.34-.2416 4.69-.4607 7.05-.6578zm-14.13 1.4565c-2.35.2888-4.69.6005-7.03.9354l.14.99c2.33-.3341 4.67-.6449 7.01-.9328zm-14.05 2.0094c-2.34.3804-4.67.7842-7.003 1.2117l.181.9837c2.332-.4264 4.652-.8291 6.982-1.2084zm-13.973 2.5577c-2.31.4687-4.622.9607-6.941 1.4765l.217.9762c2.313-.5145 4.62-1.0053 6.922-1.4727zm-13.854 3.0802c-2.287.5522-4.581 1.1276-6.885 1.7263l.252.9678c2.298-.5973 4.587-1.1712 6.868-1.7221zm-13.745 3.5705c-2.268.6297-4.546 1.282-6.836 1.9571l.282.9592c2.286-.6736 4.559-1.3245 6.822-1.9528zm-13.618 4.0114c-2.238.6959-4.489 1.4133-6.754 2.1525l.31.9507c2.261-.7378 4.507-1.4538 6.741-2.1483zm-13.487 4.3992c-2.224.758-4.463 1.53677-6.717 2.33633l.334.9425c2.251-.79821 4.486-1.57562 6.705-2.33233zm-13.388 4.74514c-2.195.8064-4.406 1.63214-6.634 2.47748l.355.93494c2.225-.84412 4.432-1.66864 6.624-2.47382zm-13.26 5.02905c-2.19.85523-4.397 1.728887-6.622 2.62128l.372.92816c2.223-.89129 4.427-1.763913 6.613-2.617978zm-13.168 5.2779c-1.1.45129-2.203.90698-3.312 1.36712l.384.92359c1.107-.45966 2.209-.91486 3.307-1.3656zm-3.312 1.36712c-1.058.43946-2.124.88117-3.196 1.32508l.382.92395c1.073-.44403 2.139-.88587 3.198-1.32544zm-9.66 3.99378c-2.133.87841-4.293 1.76571-6.482 2.66221l.38.9253c2.188-.8967 4.349-1.7842 6.483-2.6628zm-12.922 5.29481c-2.127.8672-4.28 1.7431-6.459 2.628l.376.9266c2.18-.8851 4.333-1.7612 6.46-2.6286zm-12.941 5.2544c-2.14.8652-4.306 1.7391-6.497 2.6217l.374.9276c2.192-.8829 4.357-1.7568 6.498-2.6223zm-12.949 5.2158c-2.137.8575-4.298 1.7234-6.484 2.5978l.372.9285c2.186-.8746 4.347-1.7405 6.484-2.5983zm-13.005 5.2019c-2.127.8482-4.277 1.7044-6.452 2.5687l.37.9292c2.174-.8644 4.325-1.7207 6.453-2.5691zm-12.947 5.1472c-2.149.8518-4.32 1.7115-6.514 2.5793l.367.9299c2.195-.8678 4.367-1.7276 6.516-2.5795zm-12.981 5.133c-2.153.8491-4.327 1.7057-6.524 2.5702l.366.9306c2.197-.8646 4.372-1.7214 6.525-2.5705zm-13.005 5.1181c-2.147.8429-4.314 1.693-6.503 2.5507l.365.931c2.189-.8577 4.357-1.7079 6.503-2.5509zm-13.021 5.1026c-2.141.8373-4.302 1.6817-6.483 2.5332l.364.9315c2.181-.8516 4.342-1.696 6.483-2.5335zm-13.029 5.0865c-2.136.8327-4.292 1.6721-6.467 2.5184l.363.932c2.175-.8464 4.331-1.6859 6.467-2.5186zm-13.024 5.0681c-2.136.8299-4.29 1.6661-6.463 2.5091l.362.9322c2.173-.8429 4.327-1.6793 6.463-2.5091zm-13.019 5.0509c-2.139.8285-4.295 1.6633-6.469 2.5045l.361.9327c2.174-.8413 4.33-1.6762 6.469-2.5048zm-13.03 5.0417c-2.139.8266-4.295 1.6592-6.468 2.4981l.36.9329c2.173-.8389 4.329-1.6716 6.468-2.4983zm-13.039 5.0332c-2.138.8242-4.292 1.6544-6.462 2.4904l.359.9332c2.171-.8361 4.325-1.6663 6.463-2.4905zm-13.022 5.0159c-2.144.8251-4.304 1.6558-6.48 2.4923l.359.9334c2.176-.8365 4.336-1.6674 6.48-2.4924zm-13.022 5.0064c-2.153.8271-4.322 1.6597-6.507 2.498l.359.9336c2.184-.8383 4.353-1.671 6.506-2.4981zm-13.026 4.9991c-2.166.8305-4.346 1.6664-6.542 2.5078l.358.9338c2.196-.8415 4.376-1.6774 6.542-2.5078zm-13.034 4.9945c-2.179.8343-4.373 1.6739-6.581 2.519l.357.9339c2.209-.845 4.402-1.6847 6.581-2.519zm-13.048 4.9928c-2.168.829-4.35 1.663-6.546 2.502l.357.934c2.196-.839 4.378-1.673 6.546-2.502zm-13.068 4.994c-2.155.823-4.324 1.651-6.506 2.484l.356.934c2.183-.833 4.352-1.661 6.507-2.484zm-13.093 4.997c-2.142.818-4.297 1.639-6.465 2.466l.356.934c2.168-.826 4.323-1.648 6.465-2.465zm-13.008 4.96c-2.167.826-4.347 1.656-6.539 2.492l.356.934c2.192-.835 4.372-1.666 6.539-2.491zm-13.034 4.965c-2.178.829-4.368 1.663-6.571 2.501l.356.935c2.203-.838 4.393-1.672 6.571-2.501zm-13.071 4.975c-2.16.822-4.333 1.648-6.517 2.479l.355.934c2.185-.83 4.357-1.657 6.518-2.479zm-13.107 4.984c-2.146.816-4.302 1.635-6.471 2.46l.355.934c2.169-.824 4.326-1.643 6.471-2.459zm-13.003 4.941c-2.182.829-4.375 1.662-6.58 2.5l.355.934c2.205-.837 4.398-1.67 6.58-2.499zm-13.053 4.957c-2.169.824-4.349 1.651-6.54 2.482l.355.935c2.191-.831 4.371-1.659 6.54-2.482zm-13.114 4.977c-2.148.815-4.307 1.634-6.476 2.457l.354.935c2.17-.823 4.329-1.642 6.477-2.457zm-13.017 4.938c-2.182.827-4.375 1.659-6.579 2.494l.355.935c2.203-.835 4.396-1.667 6.578-2.494zm-13.054 4.948c-2.168.822-4.347 1.648-6.536 2.477l.354.936c2.189-.83 4.368-1.656 6.537-2.478zm-13.132 4.976c-2.146.813-4.301 1.63-6.467 2.45l.354.935c2.166-.82 4.322-1.637 6.468-2.45zm-12.994 4.922c-2.186.828-4.381 1.659-6.587 2.494l.354.936c2.206-.836 4.401-1.667 6.587-2.495zm-13.079 4.952c-2.162.818-4.333 1.64-6.513 2.465l.354.936c2.18-.826 4.351-1.647 6.513-2.466zm-13.084 4.952c-1.1.416-2.202.833-3.306 1.251l.354.935c1.104-.418 2.206-.835 3.306-1.251zm-3.306 1.251c-1.071.405-2.158.819-3.261 1.242l.358.934c1.102-.423 2.187-.836 3.257-1.241zm-9.921 3.822c-2.168.848-4.39 1.725-6.662 2.63l.369.929c2.271-.904 4.491-1.78 6.657-2.628zm-13.252 5.271c-2.154.869-4.348 1.759-6.58 2.67l.378.926c2.231-.911 4.423-1.8 6.576-2.669zm-13.186 5.379c-2.171.894-4.374 1.805-6.606 2.733l.383.923c2.232-.927 4.434-1.838 6.604-2.732zm-13.147 5.459c-2.169.908-4.363 1.828-6.581 2.762l.388.921c2.217-.933 4.411-1.853 6.579-2.76zm-13.154 5.536c-2.159.913-4.338 1.837-6.536 2.772l.391.92c2.198-.934 4.376-1.858 6.534-2.771zm-13.114 5.573c-2.161.922-4.338 1.853-6.532 2.793l.394.919c2.193-.939 4.37-1.87 6.53-2.792zm-13.079 5.602c-2.171.932-4.356 1.872-6.553 2.819l.395.918c2.197-.946 4.382-1.886 6.552-2.819zm-13.079 5.634c-2.176.939-4.363 1.885-6.561 2.836l.397.917c2.197-.95 4.384-1.896 6.56-2.835zm-13.075 5.657c-2.173.942-4.355 1.889-6.545 2.839l.398.918c2.19-.951 4.372-1.897 6.544-2.839zm-13.07 5.674c-2.172.944-4.35 1.891-6.534 2.841l.399.917c2.184-.95 4.362-1.897 6.534-2.841zm-13.065 5.684c-2.172.945-4.348 1.893-6.528 2.843l.399.917c2.181-.95 4.357-1.898 6.528-2.843zm-13.061 5.689c-2.172.947-4.348 1.895-6.526 2.845l.4.916c2.178-.949 4.353-1.897 6.526-2.844zm-13.057 5.691c-2.175.948-4.351 1.896-6.527 2.845l.399.916c2.176-.948 4.352-1.896 6.527-2.844zm-13.057 5.689c-2.177.948-4.355 1.896-6.531 2.843l.399.917c2.176-.947 4.354-1.895 6.532-2.843zm-13.06 5.684c-2.18.948-4.358 1.894-6.533 2.839l.398.917c2.175-.944 4.353-1.891 6.534-2.839zm-13.066 5.675c-2.182.946-4.36 1.89-6.533 2.832l.398.917c2.173-.941 4.351-1.885 6.533-2.832zm-13.073 5.662c-2.182.943-4.359 1.884-6.529 2.82l.396.918c2.17-.936 4.347-1.877 6.53-2.82zm-13.081 5.643c-2.182.94-4.356 1.875-6.521 2.804l.395.919c2.165-.93 4.34-1.865 6.522-2.804zm-13.088 5.62c-2.19.937-4.369 1.869-6.536 2.794l.392.919c2.168-.925 4.348-1.856 6.537-2.794zm-13.097 5.588c-2.199.935-4.385 1.863-6.558 2.783l.39.921c2.173-.92 4.36-1.848 6.559-2.783zm-13.101 5.547c-2.212.933-4.409 1.856-6.588 2.77l.387.922c2.18-.914 4.376-1.837 6.589-2.77zm-13.134 5.508c-2.218.924-4.415 1.837-6.591 2.739l.383.924c2.177-.902 4.375-1.816 6.593-2.74zm-13.182 5.459c-2.208.908-4.391 1.802-6.549 2.682l.378.926c2.158-.88 4.343-1.775 6.552-2.683zm-13.183 5.375c-2.237.903-4.442 1.789-6.615 2.656l.371.929c2.174-.868 4.381-1.754 6.618-2.658zm-13.199 5.27c-2.254.888-4.469 1.755-6.641 2.598l.362.932c2.174-.844 4.39-1.711 6.646-2.6zm-13.311 5.164c-1.102.419-2.191.832-3.267 1.238l.353.935c1.077-.406 2.167-.819 3.269-1.239zm-3.267 1.238c-1.176.443-2.327.888-3.452 1.335l.369.929c1.119-.444 2.264-.887 3.436-1.329zm-9.9617 4.062c-2.2897 1.014-4.453 2.036-6.4925 3.066l.4508.893c2.0231-1.022 4.1711-2.037 6.4467-3.045zm-12.8087 6.513c-2.1841 1.294-4.1846 2.6-6.0059 3.919l.5867.81c1.7937-1.299 3.768-2.589 5.9288-3.869zm-11.5312 8.471c-1.8782 1.784-3.454 3.594-4.7359 5.429l.8197.573c1.2386-1.773 2.7688-3.533 4.6051-5.277zm-8.0209 11.906c-.763 2.359-1.0842 4.75-.9857 7.172l.9992-.04c-.0937-2.305.2114-4.578.938-6.824zm.4559 14.281c.7672 2.141 1.8289 4.299 3.1671 6.474l.8517-.524c-1.3075-2.125-2.337-4.221-3.0774-6.288zm7.3579 12.292c1.4442 1.757 3.055 3.527 4.8244 5.31l.7097-.705c-1.7502-1.763-3.3397-3.51-4.7617-5.24zm10.0464 10.213c1.7242 1.518 3.5559 3.047 5.4904 4.585l.6223-.783c-1.9227-1.529-3.7414-3.046-5.4519-4.553zm11.1787 8.922c1.8726 1.373 3.8225 2.755 5.8466 4.144l.566-.825c-2.016-1.384-3.9576-2.759-5.8213-4.125zm11.8266 8.134c1.94 1.26 3.937 2.527 5.989 3.8l.527-.85c-2.046-1.27-4.038-2.533-5.971-3.789zm12.076 7.499c2.017 1.203 4.079 2.41 6.187 3.624l.499-.867c-2.104-1.211-4.162-2.416-6.174-3.615zm12.393 7.143c2.039 1.14 4.115 2.284 6.227 3.434l.478-.879c-2.109-1.147-4.182-2.29-6.217-3.427zm12.545 6.831c2.067 1.099 4.164 2.203 6.292 3.31l.462-.887c-2.125-1.106-4.22-2.208-6.284-3.305zm12.631 6.581c2.103 1.075 4.233 2.155 6.387 3.239l.45-.894c-2.153-1.083-4.281-2.161-6.382-3.235zm12.74 6.41c2.124 1.053 4.27 2.11 6.438 3.17l.439-.898c-2.166-1.06-4.311-2.116-6.433-3.168zm12.817 6.273c2.131 1.031 4.28 2.065 6.448 3.103l.432-.902c-2.167-1.037-4.315-2.071-6.445-3.101zm12.871 6.164c2.137 1.013 4.29 2.031 6.459 3.051l.425-.905c-2.167-1.02-4.32-2.037-6.455-3.05zm12.911 6.077c2.142 1.001 4.298 2.005 6.467 3.013l.421-.907c-2.168-1.008-4.324-2.012-6.465-3.012zm12.938 6.01c2.147.992 4.306 1.987 6.477 2.986l.418-.909c-2.17-.998-4.329-1.993-6.475-2.985zm12.959 5.962c2.151.986 4.313 1.975 6.484 2.967l.416-.91c-2.171-.992-4.332-1.98-6.483-2.966zm12.972 5.928c1.086.495 2.174.99 3.264 1.487l.415-.91c-1.09-.497-2.178-.992-3.264-1.487zm3.264 1.487c1.1.501 2.195.999 3.285 1.496l.414-.91c-1.09-.497-2.184-.995-3.284-1.496zm9.762 4.449c2.139.975 4.258 1.942 6.359 2.901l.415-.91c-2.1-.958-4.22-1.926-6.359-2.901zm12.889 5.883c2.156.985 4.292 1.961 6.408 2.928l.416-.909c-2.116-.968-4.252-1.944-6.409-2.929zm12.869 5.882c2.17.992 4.319 1.976 6.448 2.95l.416-.91c-2.129-.974-4.278-1.957-6.448-2.949zm12.863 5.885c2.18.998 4.339 1.986 6.477 2.965l.416-.909c-2.138-.979-4.297-1.967-6.477-2.965zm12.866 5.889c2.186 1.001 4.351 1.992 6.495 2.973l.416-.909c-2.144-.982-4.309-1.972-6.495-2.973zm12.876 5.892c2.188 1.001 4.355 1.992 6.503 2.974l.416-.91c-2.148-.981-4.315-1.972-6.503-2.973zm12.888 5.891c2.187.999 4.354 1.988 6.502 2.968l.415-.91c-2.148-.98-4.315-1.969-6.502-2.967zm12.901 5.884c2.183.994 4.347 1.978 6.494 2.954l.414-.91c-2.147-.976-4.311-1.96-6.493-2.954zm12.913 5.868c2.177.987 4.338 1.966 6.482 2.935l.412-.911c-2.144-.969-4.304-1.947-6.481-2.935zm12.924 5.844c2.171.979 4.326 1.949 6.469 2.911l.409-.912c-2.141-.962-4.297-1.932-6.467-2.911zm12.935 5.809c2.164.969 4.317 1.929 6.458 2.883l.407-.914c-2.141-.953-4.293-1.913-6.457-2.882zm12.947 5.765c2.163.959 4.317 1.91 6.463 2.856l.403-.915c-2.145-.945-4.298-1.897-6.461-2.855zm12.964 5.712c2.169.95 4.331 1.893 6.489 2.832l.399-.917c-2.157-.938-4.319-1.882-6.486-2.831zm12.99 5.651c2.172.938 4.341 1.872 6.509 2.802l.394-.919c-2.167-.93-4.336-1.863-6.507-2.801zm13.023 5.585c2.173.924 4.347 1.846 6.524 2.764l.389-.921c-2.176-.918-4.349-1.839-6.521-2.764zm13.055 5.509c2.176.911 4.357 1.819 6.544 2.727l.383-.924c-2.186-.907-4.366-1.815-6.541-2.725zm13.086 5.429c2.182.897 4.372 1.794 6.572 2.69l.378-.926c-2.2-.896-4.389-1.792-6.57-2.689zm13.122 5.348c2.181.88 4.374 1.762 6.58 2.645l.372-.928c-2.205-.883-4.397-1.764-6.577-2.645zm13.163 5.268c2.179.864 4.372 1.73 6.582 2.598l.365-.93c-2.208-.868-4.4-1.734-6.578-2.598zm13.202 5.189c2.176.848 4.368 1.699 6.579 2.553l.36-.933c-2.21-.853-4.401-1.704-6.576-2.551zm13.234 5.114c2.173.832 4.365 1.669 6.576 2.509l.355-.935c-2.21-.84-4.401-1.676-6.573-2.508zm13.238 5.031c2.179.822 4.378 1.648 6.597 2.478l.35-.936c-2.218-.83-4.416-1.656-6.594-2.477zm13.269 4.967c2.183.811 4.386 1.626 6.61 2.447l.346-.938c-2.223-.821-4.426-1.636-6.607-2.447zm13.299 4.907c2.183.8 4.387 1.606 6.613 2.416l.342-.939c-2.225-.811-4.428-1.616-6.611-2.416zm13.329 4.855c2.18.789 4.381 1.584 6.605 2.384l.339-.941c-2.223-.8-4.424-1.594-6.604-2.383zm13.342 4.803c2.18.78 4.382 1.566 6.605 2.358l.335-.942c-2.222-.792-4.423-1.577-6.603-2.358zm13.321 4.744c2.196.778 4.413 1.562 6.653 2.352l.332-.943c-2.238-.79-4.455-1.574-6.651-2.352zm13.335 4.704c2.22.779 4.46 1.564 6.723 2.356l.33-.944c-2.262-.791-4.503-1.576-6.722-2.356zm13.36 4.672c2.233.778 4.487 1.561 6.763 2.351l.328-.945c-2.276-.789-4.53-1.573-6.762-2.35zm13.398 4.65c2.214.765 4.447 1.536 6.702 2.313l.325-.946c-2.254-.777-4.487-1.547-6.7-2.313zm13.457 4.637c2.19.752 4.399 1.51 6.629 2.273l.324-.946c-2.229-.763-4.438-1.521-6.628-2.273zm13.377 4.581c1.134.387 2.274.776 3.419 1.167l.323-.947c-1.145-.39-2.285-.779-3.419-1.166zm3.419 1.167c1.122.382 2.24.762 3.354 1.139l.32-.947c-1.113-.377-2.23-.756-3.351-1.139zm9.986 3.366c2.195.73 4.372 1.449 6.534 2.157l.311-.95c-2.16-.708-4.336-1.426-6.529-2.156zm13.19 4.316c2.229.716 4.441 1.42 6.636 2.112l.3-.954c-2.193-.691-4.403-1.394-6.63-2.11zm13.19 4.155c2.264.698 4.509 1.383 6.735 2.054l.289-.957c-2.225-.671-4.467-1.355-6.729-2.052zm13.361 4.027c2.247.66 4.475 1.306 6.684 1.939l.276-.962c-2.208-.631-4.433-1.277-6.678-1.937zm13.398 3.832c2.231.62 4.444 1.225 6.638 1.816l.26-.966c-2.192-.59-4.402-1.194-6.63-1.813zm13.431 3.613c2.245.583 4.47 1.15 6.676 1.702l.242-.97c-2.203-.551-4.425-1.118-6.666-1.7zm13.483 3.368c2.267.544 4.514 1.07 6.741 1.579l.223-.975c-2.224-.508-4.467-1.034-6.731-1.576zm13.546 3.094c2.287.496 4.552.974 6.797 1.433l.2-.98c-2.241-.458-4.502-.935-6.785-1.43zm13.619 2.783c2.302.44 4.582.861 6.841 1.261l.174-.984c-2.254-.4-4.53-.82-6.827-1.259zm13.695 2.427c2.312.376 4.603.73 6.871 1.063l.145-.989c-2.263-.333-4.548-.686-6.856-1.061zm13.767 2.019c2.318.302 4.614.581 6.888.838l.112-.994c-2.268-.256-4.558-.534-6.871-.835zm13.831 1.556c2.318.218 4.614.411 6.888.581l.074-.997c-2.267-.169-4.557-.362-6.869-.58zm13.875 1.029c2.33.124 4.636.223 6.922.296l.032-1c-2.278-.072-4.578-.17-6.9-.295zm13.898.438c2.342.02 4.662.012 6.961-.023l-.016-1c-2.29.035-4.602.043-6.936.023zm13.891-.216c2.347-.096 4.672-.22 6.978-.375l-.067-.997c-2.297.153-4.614.278-6.952.372zm13.906-.932c2.323-.219 4.627-.468 6.914-.748l-.122-.992c-2.277.278-4.572.527-6.886.744zm13.823-1.692c2.302-.348 4.588-.728 6.859-1.139l-.178-.984c-2.261.409-4.538.787-6.831 1.134zm13.689-2.476c2.278-.48 4.542-.992 6.794-1.535l-.234-.973c-2.243.541-4.498 1.051-6.767 1.53zm13.534-3.264c2.241-.608 4.471-1.248 6.692-1.919l-.289-.957c-2.212.668-4.434 1.305-6.665 1.911zm13.325-4.021c2.199-.73 4.39-1.49 6.575-2.28l-.339-.94c-2.178.787-4.361 1.544-6.551 2.27zm13.098-4.73c2.15-.839 4.297-1.707 6.443-2.603l-.386-.923c-2.138.893-4.278 1.758-6.421 2.594zm12.833-5.358c2.113-.939 4.226-1.905 6.34-2.899l-.425-.905c-2.108.991-4.215 1.954-6.321 2.89zm12.592-5.911c2.067-1.021 4.138-2.067 6.213-3.138l-.459-.889c-2.07 1.069-4.135 2.112-6.197 3.13zm12.376-6.386c2.022-1.087 4.049-2.197 6.084-3.33l-.487-.874c-2.03 1.131-4.053 2.239-6.071 3.323zm12.152-6.765c1.99-1.145 3.99-2.311 6-3.498l-.51-.861c-2.01 1.186-4 2.35-5.99 3.492zm11.96-7.068c1.97-1.196 3.95-2.412 5.95-3.648l-.53-.85c-1.99 1.234-3.97 2.449-5.94 3.643zm11.81-7.319c1.95-1.233 3.92-2.484 5.89-3.753l-.54-.842c-1.97 1.268-3.93 2.518-5.88 3.749zm11.7-7.514c1.93-1.257 3.87-2.531 5.83-3.82l-.55-.835c-1.96 1.289-3.9 2.561-5.82 3.817zm11.61-7.659c.97-.647 1.95-1.298 2.92-1.954l-.55-.83c-.98.654-1.95 1.305-2.92 1.952z" fill="#22222a"/><path d="m441.127 374.849-156.366 59.254-72.422-28.804-37.034-158.619 281.459-21.614z" fill="url(#c)" opacity=".7"/><ellipse cx="189.286" cy="316.879" fill="url(#d)" fill-opacity=".1" rx="242" ry="111.5"/><g stroke="#22222a"><path d="m200.403 379.266c27.7 13.756 57.139 23.373 85.29 35.948" stroke-linecap="round" stroke-linejoin="round"/><path d="m198.341 404.848c26.137 12.443 55.103 24.817 88.041 40.096" stroke-linecap="round" stroke-linejoin="round"/><path d="m276.752 413.139c57.089-23.504 103.861-42.17 167.14-67.748" stroke-linecap="round" stroke-linejoin="round"/><path d="m274 444.944c58.477-23.92 112.115-46.318 172.643-69.823" stroke-linecap="round" stroke-linejoin="round"/><path d="m439.766 341.246c.314 16.135 0 25.999 0 42.17" stroke-linecap="round" stroke-linejoin="round"/><path d="m203.154 374.43c.177 10.139 0 28.343 0 39.404" stroke-linecap="round" stroke-linejoin="round"/><path d="m280.19 408.305c.177 10.139 0 28.343 0 39.404" stroke-linecap="round" stroke-linejoin="round"/><path d="m196.965 382.727c28.888-11.753 38.518-15.209 72.221-28.344" stroke-linecap="round" stroke-linejoin="round"/><path d="m447.331 350.232c-17.647-5.912-53.073-19.086-77.036-27.209" stroke-linecap="round" stroke-linejoin="round"/><path d="m265.061 310.141c14.925 5.439 29.407 12.108 44.02 18.319" stroke-linecap="round" stroke-linejoin="round"/><path d="m344.847 300.113c5.437 2.09 10.934 3.801 16.507 5.531" stroke-linecap="round" stroke-linejoin="round"/><path d="m264.372 312.556c5.249-1.515 10.13-3.694 15.132-5.876" stroke-linecap="round" stroke-linejoin="round"/><path d="m268.499 309.445v62.91" stroke-linecap="round" stroke-linejoin="round"/><path d="m305.641 320.504v67.748m57.089-64.983v46.318" stroke-linecap="round" stroke-linejoin="round"/><path d="m265.061 369.586c14.581 5.18 33.767 12.948 48.147 18.665" stroke-linecap="round" stroke-linejoin="round"/><path d="m302.891 386.181c10.764-3.63 53.059-18.942 63.967-22.122" stroke-linecap="round" stroke-linejoin="round"/><path d="m302.891 324.996c.998.958 1.975 1.798 3.171 2.496 5.176 3.024 10.387 5.986 15.553 9.026 1.677.987 3.391 1.914 5.005 2.996" stroke-linecap="round" stroke-linejoin="round"/><path d="m320.773 341.247c9.251-3.919 54.553-20.691 63.968-24.196" stroke-linecap="round" stroke-linejoin="round"/><path d="m358.604 303.566c7.909 5.564 16.135 11.219 24.762 15.555" stroke-linecap="round" stroke-linejoin="round"/><path d="m301.171 328.46c24.418-8.642 41.613-14.864 67.75-23.851" stroke-linecap="round" stroke-linejoin="round"/><path d="m240.986 311.871h29.921" stroke-linecap="round" stroke-linejoin="round"/><path d="m243.05 313.596c11.693-4.148 26.825-9.679 37.83-13.826" stroke-linecap="round" stroke-linejoin="round"/><path d="m280.88 316.494c-5.712-28.216 25.449-49.218 49.523-34.7 7.385 4.985 17.195 16.591 13.756 31.109" stroke-linecap="round" stroke-linejoin="round"/><path d="m293.948 404.845c-2.938 11.46-6.197 25.936-8.941 36.64m38.276-47.068c-3.02 11.779-5.921 23.093-8.7 33.933m-35.079 8.987 8.667-33.802m12.656-1.455c-2.939 11.459-6.198 25.936-8.942 36.64m16.508-39.405c-2.939 11.459-6.198 25.936-8.942 36.639m16.508-39.404c-2.939 11.459-6.198 25.935-8.942 36.639" stroke-linecap="round" stroke-linejoin="round"/><path d="m231.599 421.502c2.12-8.271 4.312-16.818 6.573-25.637m-17.82-8.295c-2.938 11.459-4.167 15.778-6.911 26.482m6.19 1.455c1.784-6.957 3.785-15.509 5.775-23.789m.449 26.269c1.863-7.265 3.963-16.269 6.038-24.887m-17.725-7.604c-1.936 7.839-3.953 16.503-5.829 24.196m.397-26.962-6.026 23.505" stroke-linecap="round" stroke-linejoin="round"/><path d="m330.402 391.023-8.685 33.874m7.31-2.765c2.796-10.905 5.68-22.155 8.685-33.875zm15.741-37.331c-3.075 11.99-6.03 23.515-8.863 34.565z" stroke-linecap="round" stroke-linejoin="round"/><path d="m244.725 397.242-6.559 25.579m11.763 6.222 6.736-26.27c-2.316 9.033-4.562 17.791-6.736 26.27zm.51-28.344c-2.153 8.397-4.246 16.558-6.29 24.532z" stroke-linecap="round" stroke-linejoin="round"/><path d="m351.037 382.037-8.685 33.875m14.659-36.103c-3.022 11.784-5.919 23.086-8.725 34.029zm-2.535 31.955c2.837-11.063 5.792-22.588 8.863-34.566z" stroke-linecap="round" stroke-linejoin="round"/><path d="m256.119 430.427 6.556-25.567m5.766 31.789c2.177-8.49 4.423-17.248 6.736-26.27zm-6.385-2.697c2.288-8.923 4.638-18.089 7.068-27.564z" stroke-linecap="round" stroke-linejoin="round"/><path d="m369.352 375.122-8.686 33.874m6.447-1.382c2.79-10.882 5.675-22.135 8.685-33.875m6.622-3.456c-3.003 11.715-5.899 23.009-8.685 33.874" stroke-linecap="round" stroke-linejoin="round"/><path d="m274.689 440.798 4.963-19.357" stroke-linecap="round" stroke-linejoin="round"/><path d="m388.258 368.9-8.331 32.491m16.507-36.639c-3.01 11.741-5.895 22.994-8.685 33.874zm-1.296 31.109c2.841-11.081 5.796-22.606 8.863-34.566z" stroke-linecap="round" stroke-linejoin="round"/><path d="m411.132 359.222-8.508 33.183m6.879-3.456c2.732-10.656 5.559-21.683 8.508-33.183m-1.63 31.109c2.79-10.883 5.686-22.177 8.685-33.874z" stroke-linecap="round" stroke-linejoin="round"/><path d="m432.165 350.235-8.508 33.183m13.637-4.148c.939-3.663 1.981-7.647 3.06-11.752m-9.578 13.135c2.572-10.03 5.919-22.476 8.665-33.183z" stroke-linecap="round" stroke-linejoin="round"/><path d="m255.078 312.212c.236-.918.472-1.84.709-2.765zm5.586 0c.396-1.545.794-3.096 1.193-4.652z" stroke-linecap="round" stroke-linejoin="round"/><path d="m268.261 305.299-1.639 6.392m1.639 16.961c1.328-5.179 2.674-10.429 4.038-15.748m6.963-12.444c-.535 2.085-1.29 5.541-1.819 7.605m-3.195-5.531c-.655 2.559-1.305 5.093-1.949 7.605z" stroke-linecap="round" stroke-linejoin="round"/><path d="m268.291 346.09 7.977-31.11m10.805 4.149c-4.707 18.359-9.888 37.263-14.159 53.922zm-5.502-2.766c-3.928 15.317-9.747 33.923-13.28 47.701z" stroke-linecap="round" stroke-linejoin="round"/><path d="m279.506 374.434c4.22-16.458 8.682-33.86 13.472-52.539z" stroke-linecap="round" stroke-linejoin="round"/><path d="m298.697 324.496-13.689 53.392m19.259-50.466c-4.856 18.939-9.376 36.565-13.649 53.231" stroke-linecap="round" stroke-linejoin="round"/><path d="m305.213 349.547-8.508 33.183m4.811 2.074c1.692-6.598 3.043-8.987 4.815-15.9" stroke-linecap="round" stroke-linejoin="round"/><path d="m345.962 312.901c.99-3.862 1.995-7.779 3.014-11.753z" stroke-linecap="round" stroke-linejoin="round"/><path d="m357.853 308.066c.295-1.148.59-2.3.887-3.457m-7.014 6.222 2.063-7.604" stroke-linecap="round" stroke-linejoin="round"/><path d="m305.644 291.476c-11.693 5.531-16.508 7.605-24.762 11.753m2.063-6.222c6.879-3.457 10.318-5.355 19.259-9.679" stroke-linecap="round" stroke-linejoin="round"/><path d="m299.452 301.152-19.259 9.849m22.699-5.01c-4.571 2.447-16.227 8.009-20.635 10.369m21.616-5.359c-4.979 2.667-9.892 5.297-14.738 7.892" stroke-linecap="round" stroke-linejoin="round"/><path d="m307.97 316.293-10.886 5.858m13.953-2.262c-3.449 1.848-6.851 3.67-10.208 5.467" stroke-linecap="round" stroke-linejoin="round"/><path d="m335.95 307.958c2.491-1.334 4.998-2.677 7.523-4.028zm-1.962-3.708c3.502-1.876 7.053-3.777 10.657-5.707z" stroke-linecap="round" stroke-linejoin="round"/></g><path clip-rule="evenodd" d="m351.081 179.847c0 4.38-.953 8.622-2.587 12.454l-11.302-11.222c1.362-2.19 2.043-4.79 2.043-7.527.136-7.801-6.264-14.233-14.161-14.233-2.859 0-5.447.822-7.625 2.19l-10.485-10.401c3.949-1.779 8.17-2.737 12.8-2.737 17.292 0 31.317 14.096 31.317 31.476zm-48.474-26.275 11.302 11.358c-1.907 2.464-2.996 5.475-2.996 8.759 0 7.938 6.4 14.37 14.297 14.37 3.268 0 6.264-1.095 8.715-3.011l12.118 12.18c-5.719 8.485-15.25 14.096-26.279 14.096-17.293 0-31.318-14.096-31.318-31.477 0-11.085 5.583-20.665 14.161-26.275zm22.603 29.012c5.31 0 9.531-4.242 9.531-9.579 0-5.338-4.221-9.58-9.531-9.58s-9.531 4.242-9.531 9.58c0 5.337 4.221 9.579 9.531 9.579z" fill="url(#e)" fill-rule="evenodd"/><path d="m159.484 241.154c0 .52-.12 1.03-.36 1.53s-.54.97-.9 1.41-.75.85-1.17 1.23c-.42.36-.8.67-1.14.93-.36.28-.78.58-1.26.9s-.95.62-1.41.9c-.44.28-.83.54-1.17.78-.34.22-.55.37-.63.45l-.87.69c-.1.08-.22.13-.36.15-.12.02-.22.03-.3.03-.14 0-.25-.07-.33-.21-.08-.16-.12-.32-.12-.48 0-.12.11-.33.33-.63.24-.32.51-.59.81-.81s.67-.44 1.11-.66 1.04-.57 1.8-1.05c.38-.24.84-.55 1.38-.93.54-.4 1.05-.82 1.53-1.26.48-.46.89-.93 1.23-1.41.34-.5.51-.98.51-1.44 0-.18-.22-.36-.66-.54-.42-.2-1.02-.3-1.8-.3-.8 0-1.64.12-2.52.36s-1.7.5-2.46.78c-.74.28-1.38.54-1.92.78s-.87.36-.99.36c.06.46.13 1.03.21 1.71.1.66.2 1.3.3 1.92.1.72.21 1.47.33 2.25h.12c.04.2.12.49.24.87s.18.68.18.9c0 .32-.12.48-.36.48-.12 0-.26-.11-.42-.33-.14-.22-.29-.48-.45-.78-.14-.3-.27-.59-.39-.87-.1-.3-.17-.51-.21-.63-.18-.66-.36-1.42-.54-2.28-.16-.86-.31-1.72-.45-2.58-.12-.88-.22-1.7-.3-2.46-.06-.78-.09-1.42-.09-1.92 0-.14.03-.26.09-.36.08-.1.12-.2.12-.3s-.03-.17-.09-.21c-.04-.06-.06-.15-.06-.27 0-.06.01-.12.03-.18.04-.08.13-.12.27-.12.14.04.27.06.39.06.14 0 .26.03.36.09.1.04.18.12.24.24s.09.31.09.57v.18c0 .04-.01.09-.03.15v.12c0 .34.01.61.03.81s.05.3.09.3c.06 0 .27-.14.63-.42.38-.3.83-.67 1.35-1.11s1.08-.93 1.68-1.47c.62-.54 1.21-1.06 1.77-1.56.22-.2.52-.48.9-.84.38-.38.75-.78 1.11-1.2.38-.42.7-.81.96-1.17.28-.38.42-.67.42-.87s-.06-.3-.18-.3c-.16 0-.5.07-1.02.21s-1.11.33-1.77.57c-.66.22-1.34.48-2.04.78s-1.32.61-1.86.93c-.56.38-1.12.8-1.68 1.26s-1.07.9-1.53 1.32c-.44.4-.81.75-1.11 1.05-.28.28-.43.44-.45.48-.04.04-.06.08-.06.12s.01.1.03.18c.04.06.06.11.06.15 0 .06-.04.11-.12.15s-.17.06-.27.06c-.16 0-.36-.03-.6-.09-.24-.08-.36-.28-.36-.6 0-.28.16-.63.48-1.05s.73-.87 1.23-1.35c.52-.48 1.09-.95 1.71-1.41.62-.48 1.23-.92 1.83-1.32.6-.38 1.25-.74 1.95-1.08.72-.36 1.42-.67 2.1-.93.7-.26 1.36-.46 1.98-.6.62-.16 1.13-.24 1.53-.24.16 0 .34.02.54.06s.39.1.57.18.33.19.45.33c.12.12.18.27.18.45 0 .54-.16 1.1-.48 1.68-.32.56-.74 1.13-1.26 1.71s-1.11 1.17-1.77 1.77c-.64.58-1.29 1.15-1.95 1.71-.64.54-1.26 1.07-1.86 1.59-.6.5-1.1.96-1.5 1.38.22-.08.58-.21 1.08-.39.5-.2 1.04-.39 1.62-.57.6-.2 1.2-.37 1.8-.51s1.13-.21 1.59-.21c.14 0 .44.01.9.03s.94.1 1.44.24.95.37 1.35.69c.4.3.6.73.6 1.29zm12.253 4.05c0 .18-.12.37-.36.57s-.52.39-.84.57c-.32.16-.65.3-.99.42-.32.12-.56.18-.72.18-.18 0-.38-.05-.6-.15-.2-.1-.4-.22-.6-.36-.18-.14-.34-.27-.48-.39s-.23-.2-.27-.24c-.06.06-.15.18-.27.36s-.27.38-.45.6c-.16.2-.34.38-.54.54-.18.16-.37.24-.57.24-.52 0-.97-.28-1.35-.84s-.7-1.2-.96-1.92c-.24-.72-.43-1.41-.57-2.07-.12-.68-.18-1.14-.18-1.38 0-.14.07-.25.21-.33.16-.1.28-.15.36-.15.28 0 .47.1.57.3.1.18.15.38.15.6 0 .18.05.5.15.96.12.46.26.93.42 1.41s.33.91.51 1.29c.18.36.34.54.48.54.26 0 .48-.16.66-.48.2-.34.36-.72.48-1.14.12-.44.21-.85.27-1.23.06-.4.09-.66.09-.78 0-.02 0-.08 0-.18.02-.12.04-.24.06-.36s.03-.23.03-.33c.02-.1.03-.17.03-.21 0-.14-.03-.23-.09-.27-.06-.06-.09-.17-.09-.33 0-.12.06-.23.18-.33.12-.12.38-.18.78-.18.16 0 .28.05.36.15.1.08.17.18.21.3s.06.24.06.36c.02.1.03.17.03.21 0 .02-.01.16-.03.42s-.04.55-.06.87c0 .3-.01.59-.03.87s-.03.45-.03.51.03.18.09.36.13.37.21.57c.1.18.21.35.33.51.12.14.25.21.39.21.24 0 .46-.03.66-.09.22-.08.42-.16.6-.24.2-.1.38-.18.54-.24.16-.08.31-.12.45-.12.18 0 .34.04.48.12.16.08.24.18.24.3zm2.674-8.82c0 .04-.07.12-.21.24s-.31.25-.51.39c-.18.12-.37.23-.57.33s-.36.15-.48.15c-.08 0-.19 0-.33 0-.12-.02-.25-.06-.39-.12-.12-.06-.23-.14-.33-.24-.1-.12-.15-.27-.15-.45 0-.28.1-.54.3-.78.2-.26.46-.39.78-.39.06 0 .19.03.39.09.22.04.44.1.66.18s.41.17.57.27c.18.1.27.21.27.33zm.99 11.22c0 .14-.11.26-.33.36-.2.1-.35.15-.45.15-.2 0-.38-.13-.54-.39s-.3-.56-.42-.9-.22-.66-.3-.96c-.08-.32-.14-.54-.18-.66-.06-.2-.14-.44-.24-.72s-.2-.55-.3-.81c-.08-.26-.15-.49-.21-.69s-.09-.31-.09-.33c0-.28.05-.54.15-.78.12-.24.26-.36.42-.36.18 0 .37.14.57.42s.39.64.57 1.08c.2.42.38.89.54 1.41.16.5.3.98.42 1.44.12.44.21.83.27 1.17.08.32.12.51.12.57zm5.588 1.71c0 .16-.06.28-.18.36s-.26.12-.42.12c-.18 0-.37-.17-.57-.51-.18-.34-.36-.77-.54-1.29s-.35-1.08-.51-1.68c-.16-.62-.3-1.19-.42-1.71-.12-.54-.22-.99-.3-1.35-.06-.36-.09-.56-.09-.6 0-.08-.04-.29-.12-.63-.06-.34-.15-.87-.27-1.59-.1-.72-.22-1.65-.36-2.79-.12-1.16-.25-2.59-.39-4.29 0-.18.03-.41.09-.69s.2-.42.42-.42c.28 0 .49.19.63.57.16.38.28.85.36 1.41.1.56.17 1.15.21 1.77.04.6.09 1.13.15 1.59.08.64.15 1.22.21 1.74.08.52.15 1.04.21 1.56.08.5.17 1.03.27 1.59.12.56.26 1.18.42 1.86zm10.528-3.96c0 .1-.05.2-.15.3-.08.08-.13.17-.15.27 0 .22.04.43.12.63.1.2.15.44.15.72 0 .26-.08.39-.24.39-.2 0-.35.03-.45.09-.08.04-.23.08-.45.12-.12 0-.25-.11-.39-.33-.08-.1-.15-.22-.21-.36 0-.02-.06.02-.18.12-.1.1-.28.22-.54.36-.24.12-.58.24-1.02.36-.42.1-.96.15-1.62.15-.56 0-1.05-.12-1.47-.36-.42-.26-.77-.59-1.05-.99-.26-.4-.46-.85-.6-1.35-.12-.52-.18-1.04-.18-1.56 0-.48.05-.93.15-1.35.12-.44.28-.82.48-1.14.2-.34.45-.61.75-.81s.65-.3 1.05-.3c.38 0 .76.12 1.14.36s.72.5 1.02.78.54.54.72.78c.2.22.3.33.3.33-.28-1.56-.53-2.97-.75-4.23-.1-.54-.2-1.07-.3-1.59-.08-.54-.16-1.02-.24-1.44s-.15-.77-.21-1.05c-.04-.3-.06-.48-.06-.54-.02-.12-.04-.33-.06-.63-.02-.32-.04-.65-.06-.99s-.04-.65-.06-.93-.04-.46-.06-.54c-.06-.2-.14-.45-.24-.75-.08-.3-.12-.47-.12-.51 0-.1.05-.22.15-.36.1-.16.23-.24.39-.24.12 0 .23.01.33.03s.19.08.27.18.15.26.21.48c.08.2.15.49.21.87.02.2.08.58.18 1.14s.2 1.17.3 1.83.2 1.29.3 1.89.17 1.04.21 1.32c.1.76.23 1.59.39 2.49.18.88.36 1.73.54 2.55s.36 1.55.54 2.19c.18.62.34 1.04.48 1.26.04.08.12.14.24.18.12.02.2.08.24.18zm-2.22.6c-.02-.06-.15-.31-.39-.75-.22-.46-.51-.95-.87-1.47-.34-.54-.73-1.02-1.17-1.44-.42-.42-.83-.63-1.23-.63-.34 0-.62.26-.84.78-.2.52-.3 1.12-.3 1.8 0 .76.22 1.37.66 1.83.46.46.97.69 1.53.69.48 0 .98-.08 1.5-.24s.89-.35 1.11-.57z" fill="#000"/><path d="m208.471 311.01c-5.465-.942-10.897-2.443-13.79-7.368-2.94-5.007-1.139-11.363-2.505-16.891-1.046-4.228-4.04-9.986-8.829-10.849" stroke="#0b0b0d" stroke-linecap="round" stroke-linejoin="round"/><path d="m210.114 312.201c-.875.041-14.048.787-12.981-.871 1.037-1.61 3.721-2.305 5.294-3.216 1.571-.909 2.945-1.965 4.395-3.039.889-.658.689.384.801.969.403 2.097 1.386 4.365 2.562 6.093.273.401 2.957 4.098 1.193 2.124" stroke="#0b0b0d" stroke-linecap="round" stroke-linejoin="round"/></g></svg>