<svg width="105" height="177" fill="none" xmlns="http://www.w3.org/2000/svg"><path d="m56.535 102.748-5.844-1.682-12.175 5.79-.325 18.636 19.495 4.763 9.57-6.152.078-4.422 3.566 1.327-.215 12.318 18.523 4.431 9.56-5.521.33-18.951-13.966-3.719.215-12.319-17.539-4.729-11.196 5.808-.077 4.422Z" fill="#fff"/><path fill-rule="evenodd" clip-rule="evenodd" d="M70.423 110.921a.284.284 0 0 1 .278.289l-.413 23.689a.283.283 0 0 1-.567-.01l.413-23.689a.284.284 0 0 1 .289-.279Z" fill="#000"/><path fill-rule="evenodd" clip-rule="evenodd" d="M67.811 132.579a.289.289 0 0 1 .349-.204l23.667 6.043a.279.279 0 0 1 .2.344.288.288 0 0 1-.348.203l-23.668-6.043a.277.277 0 0 1-.2-.343Zm.985-18.944a.29.29 0 0 1 .351-.199l22.363 6.02a.279.279 0 0 1 .195.347.289.289 0 0 1-.351.198l-22.363-6.02a.277.277 0 0 1-.195-.346Zm10.537-5.499a.289.289 0 0 1 .349-.204l23.667 6.043a.278.278 0 0 1 .2.344.288.288 0 0 1-.348.203l-23.668-6.043a.277.277 0 0 1-.2-.343Z" fill="#000"/><path fill-rule="evenodd" clip-rule="evenodd" d="M86.655 139.633a.273.273 0 0 1 .077-.387l14.522-9.408a.294.294 0 0 1 .399.079.273.273 0 0 1-.077.387l-14.522 9.408a.294.294 0 0 1-.399-.079Zm.984-18.94a.273.273 0 0 1 .076-.387l14.522-9.408a.294.294 0 0 1 .399.079.272.272 0 0 1-.076.387l-14.522 9.408a.294.294 0 0 1-.4-.079Zm-19.383-5.326a.274.274 0 0 1 .103-.381l15.164-8.407a.293.293 0 0 1 .392.106.273.273 0 0 1-.103.381l-15.164 8.408a.293.293 0 0 1-.392-.107Z" fill="#000"/><path fill-rule="evenodd" clip-rule="evenodd" d="M89.75 115.998a.284.284 0 0 1 .278.288l-.402 23.058a.283.283 0 0 1-.567-.01l.402-23.058a.283.283 0 0 1 .289-.278Zm9.369-3.944a.284.284 0 0 1 .278.289l-.37 21.162a.283.283 0 0 1-.566-.01l.37-21.162a.283.283 0 0 1 .288-.279Z" fill="#000"/><path fill-rule="evenodd" clip-rule="evenodd" d="M99.03 119.142a.278.278 0 0 1 .2.343c-.82 2.984-1.536 5.524-2.239 8.012l-.037.131-.036.131-2.08 7.442v.001a.288.288 0 0 1-.35.2.278.278 0 0 1-.2-.343 988.574 988.574 0 0 1 2.08-7.445l2.31-8.271.001-.001a.288.288 0 0 1 .35-.2Zm-7.806-1.083c.15.043.236.199.19.349l-1.492 4.93a.287.287 0 0 1-.355.192.278.278 0 0 1-.191-.348l1.492-4.931a.289.289 0 0 1 .356-.192Zm7.953 6.572c.151.04.24.195.197.345l-2.524 8.918a.29.29 0 0 1-.352.199.279.279 0 0 1-.198-.346l2.525-8.917a.289.289 0 0 1 .352-.199Zm-.37-11.655c.152.041.24.196.196.346l-6.618 22.892a.288.288 0 0 1-.352.196.278.278 0 0 1-.196-.346l6.617-22.891a.29.29 0 0 1 .353-.197Zm-2.65 2.165a.28.28 0 0 1 .199.343c-.852 3.102-2.13 7.357-3.392 11.553l-.068.226-.07.23-3.163 10.764a.289.289 0 0 1-.351.196.279.279 0 0 1-.198-.343c.763-2.78 1.95-6.732 3.165-10.771l3.528-12.002a.289.289 0 0 1 .35-.196Zm-2.296.591a.28.28 0 0 1 .2.344l-2.222 8.101-.037.133-2.023 7.377a.289.289 0 0 1-.35.201.278.278 0 0 1-.2-.343l2.023-7.376.036-.134.037-.134 2.185-7.967a.289.289 0 0 1 .35-.202Z" fill="#000"/><path fill-rule="evenodd" clip-rule="evenodd" d="M94.564 115.985a.283.283 0 0 0-.53.134l-.109 6.238a.284.284 0 0 0 .526.153.283.283 0 0 0 .53-.134l.11-6.238a.284.284 0 0 0-.526-.153Z" fill="#000"/><path fill-rule="evenodd" clip-rule="evenodd" d="M77.01 110.608a.282.282 0 0 1 .356-.185c2.243.708 4.35 1.327 6.449 1.944l.41.121c2.235.657 4.473 1.319 6.866 2.089.356.114.71.234 1.064.353.927.312 1.85.623 2.781.84.055.013.12.024.198.038l.033.005c.09.015.192.034.292.059.175.045.452.137.576.389a.283.283 0 0 1-.508.252c.002.003-.002-.009-.04-.03a.71.71 0 0 0-.169-.061 2.772 2.772 0 0 0-.278-.055 4.175 4.175 0 0 1-.233-.045c-.959-.224-1.921-.548-2.857-.863-.349-.117-.693-.233-1.033-.342a273.395 273.395 0 0 0-7.263-2.206 332.699 332.699 0 0 1-6.459-1.948.283.283 0 0 1-.185-.355Z" fill="#000"/><path fill-rule="evenodd" clip-rule="evenodd" d="M75.38 110.579a.284.284 0 0 1 .355-.185c2.037.643 4.081 1.273 6.126 1.903 2.752.848 5.506 1.697 8.246 2.579.356.114.71.234 1.064.353.927.312 1.85.623 2.781.84a3.08 3.08 0 0 0 .231.043c.09.015.192.034.292.059.176.045.452.137.576.389a.284.284 0 0 1-.508.251c.002.004-.002-.008-.039-.029a.749.749 0 0 0-.17-.062 3.195 3.195 0 0 0-.278-.055c-.076-.013-.16-.027-.233-.044-.959-.224-1.921-.548-2.857-.863-.349-.117-.693-.233-1.033-.343-2.74-.881-5.485-1.727-8.231-2.574-2.045-.63-4.091-1.26-6.138-1.906a.284.284 0 0 1-.184-.356Zm-36.804-7.165a.284.284 0 0 1 .279.289l-.414 23.689a.283.283 0 0 1-.567-.01l.414-23.689a.284.284 0 0 1 .288-.279Z" fill="#000"/><path fill-rule="evenodd" clip-rule="evenodd" d="M35.965 125.072a.288.288 0 0 1 .348-.204l23.668 6.043a.278.278 0 0 1 .2.344.288.288 0 0 1-.348.203l-23.668-6.043a.278.278 0 0 1-.2-.343Zm-.322-18.963a.29.29 0 0 1 .349-.204l23.667 6.043a.279.279 0 0 1 .2.344.288.288 0 0 1-.348.203l-23.668-6.043a.277.277 0 0 1-.2-.343Zm10.549-6.135a.289.289 0 0 1 .349-.204l23.667 6.043a.279.279 0 0 1 .2.344.288.288 0 0 1-.348.203l-23.668-6.042a.279.279 0 0 1-.2-.344Z" fill="#000"/><path fill-rule="evenodd" clip-rule="evenodd" d="M55.132 132.127a.274.274 0 0 1 .085-.386l13.195-8.167a.293.293 0 0 1 .397.087.274.274 0 0 1-.085.386l-13.195 8.167a.293.293 0 0 1-.397-.087Zm-.657-18.984a.273.273 0 0 1 .109-.379l15.152-8.134a.293.293 0 0 1 .39.112.274.274 0 0 1-.108.38l-15.152 8.133a.293.293 0 0 1-.391-.112Zm-18.185-5.492a.275.275 0 0 1 .13-.374l15.792-7.384a.292.292 0 0 1 .383.134c.07.14.012.307-.13.373l-15.792 7.385a.293.293 0 0 1-.383-.134Z" fill="#000"/><path fill-rule="evenodd" clip-rule="evenodd" d="M57.904 108.491a.284.284 0 0 1 .279.288l-.403 23.058a.283.283 0 0 1-.567-.01l.403-23.058a.283.283 0 0 1 .288-.278Zm10.021-3.932a.282.282 0 0 1 .278.288l-.37 21.162a.284.284 0 1 1-.566-.01l.37-21.162a.283.283 0 0 1 .288-.278Zm17.481-1.897a.278.278 0 0 1 .2.343l-1.64 5.975a.289.289 0 0 1-.35.201.278.278 0 0 1-.2-.344l1.64-5.974a.287.287 0 0 1 .35-.201Zm-.949-4.44c.152.04.242.193.2.344l-2.76 10.062a.289.289 0 0 1-.35.201.278.278 0 0 1-.201-.344l2.761-10.062a.289.289 0 0 1 .35-.201Zm-3.004 1.8a.28.28 0 0 1 .2.344l-2.514 9.161a.289.289 0 0 1-.35.202.279.279 0 0 1-.2-.344l2.514-9.161a.289.289 0 0 1 .35-.202Zm-2.457.948a.278.278 0 0 1 .2.344l-2.62 9.551a.289.289 0 0 1-.35.201.278.278 0 0 1-.201-.344l2.621-9.551a.29.29 0 0 1 .35-.201Zm-16.877-1.585c.152.04.242.193.2.344l-1.21 4.411a.289.289 0 0 1-.35.201.278.278 0 0 1-.201-.344l1.21-4.41a.289.289 0 0 1 .35-.202Zm-4.428-1.016a.278.278 0 0 1 .2.343l-1.208 4.403a.29.29 0 0 1-.35.201.278.278 0 0 1-.2-.344l1.208-4.402a.289.289 0 0 1 .35-.201Zm1.93.972a.28.28 0 0 1 .2.344l-.952 3.468a.29.29 0 0 1-.35.201.278.278 0 0 1-.2-.344l.951-3.467a.289.289 0 0 1 .35-.202Z" fill="#000"/><path fill-rule="evenodd" clip-rule="evenodd" d="M68.882 101.294a.278.278 0 0 1 .2.344l-.967 3.523a.287.287 0 0 1-.35.201.278.278 0 0 1-.2-.343l.966-3.524a.289.289 0 0 1 .35-.201Zm-2.354-.573a.278.278 0 0 1 .201.343l-1.112 4.053a.289.289 0 0 1-.35.202.278.278 0 0 1-.201-.344l1.112-4.053a.287.287 0 0 1 .35-.201Zm-2.072-.452a.278.278 0 0 1 .2.344l-1.122 4.087a.289.289 0 0 1-.35.202.279.279 0 0 1-.2-.344l1.122-4.088a.29.29 0 0 1 .35-.201Zm9.062 2.332a.28.28 0 0 1 .2.344l-4.797 17.478a.29.29 0 0 1-.35.201.278.278 0 0 1-.2-.343l4.797-17.478a.289.289 0 0 1 .35-.202Zm-2.062-.483c.152.041.24.195.198.345l-3.682 13.024a.29.29 0 0 1-.351.199.278.278 0 0 1-.198-.345l3.681-13.024a.29.29 0 0 1 .352-.199Zm4.357 1.267a.278.278 0 0 1 .2.344l-2.465 8.984a.288.288 0 0 1-.35.201.278.278 0 0 1-.2-.343l2.465-8.985a.289.289 0 0 1 .35-.201Zm-13.859-8.838a.284.284 0 0 1 .355-.185c2.037.643 4.082 1.273 6.127 1.903 2.751.848 5.505 1.697 8.245 2.579.356.114.71.233 1.065.353.927.312 1.85.623 2.78.84a3.094 3.094 0 0 0 .232.043c.089.015.192.033.292.059.175.045.451.137.576.389a.284.284 0 0 1-.508.251c.001.004-.003-.009-.04-.029a.75.75 0 0 0-.17-.062 3.188 3.188 0 0 0-.278-.055c-.076-.013-.16-.027-.232-.044-.96-.224-1.922-.548-2.858-.863-.348-.117-.693-.234-1.032-.343-2.74-.881-5.485-1.727-8.232-2.574a940.58 940.58 0 0 1-6.137-1.906.283.283 0 0 1-.185-.356Z" fill="#000"/><path fill-rule="evenodd" clip-rule="evenodd" d="M63.585 94.575a.283.283 0 0 1 .356-.185 332.61 332.61 0 0 0 6.449 1.945l.41.12a280.76 280.76 0 0 1 6.866 2.09c.356.114.71.234 1.064.353.927.312 1.85.623 2.781.84.055.013.12.024.199.038l.032.005c.09.015.192.034.292.06.175.044.452.136.576.388a.283.283 0 1 1-.508.251c.002.004-.002-.008-.04-.029a.75.75 0 0 0-.169-.062 3.188 3.188 0 0 0-.278-.055 3.416 3.416 0 0 1-.233-.044c-.959-.224-1.921-.548-2.857-.863-.349-.117-.693-.233-1.033-.343a278.05 278.05 0 0 0-7.263-2.205 331.67 331.67 0 0 1-6.459-1.948.284.284 0 0 1-.185-.356Z" fill="#000"/><path fill-rule="evenodd" clip-rule="evenodd" d="M81.139 99.954a.283.283 0 0 0-.531.134l-.109 6.238a.284.284 0 0 0 .526.152.284.284 0 0 0 .53-.134l.11-6.238a.283.283 0 0 0-.526-.152ZM56.998 94.89a.284.284 0 0 1 .279.288l-.144 8.212a.283.283 0 0 1-.566-.01l.143-8.212a.283.283 0 0 1 .288-.279Z" fill="#000"/><path fill-rule="evenodd" clip-rule="evenodd" d="m56.567 103.38.088-5.054.567.01-.089 5.054-.566-.01Zm10.813 16.484a.288.288 0 0 1 .35-.203l2.598.663a.279.279 0 0 1 .2.344.29.29 0 0 1-.348.204l-2.6-.664a.279.279 0 0 1-.2-.344Z" fill="#000"/><path fill-rule="evenodd" clip-rule="evenodd" d="M54.065 97.584a.289.289 0 0 1 .349-.204l23.667 6.043a.279.279 0 0 1 .2.344.288.288 0 0 1-.348.203l-23.668-6.042a.278.278 0 0 1-.2-.344Zm11.842-5.48a.289.289 0 0 1 .35-.204l23.667 6.043a.278.278 0 0 1 .2.344.289.289 0 0 1-.349.203l-23.667-6.043a.278.278 0 0 1-.2-.343Z" fill="#000"/><path fill-rule="evenodd" clip-rule="evenodd" d="M73.758 103.926a.274.274 0 0 1 .108-.38l14.955-8.06a.293.293 0 0 1 .391.11.274.274 0 0 1-.108.38l-14.955 8.061a.292.292 0 0 1-.39-.111Zm-19.04-4.789a.274.274 0 0 1 .113-.379l15.384-8.023a.293.293 0 0 1 .39.117.274.274 0 0 1-.114.378l-15.384 8.024a.293.293 0 0 1-.39-.117Z" fill="#000"/><path fill-rule="evenodd" clip-rule="evenodd" d="M76.326 99.966a.283.283 0 0 1 .279.288l-.188 10.739a.283.283 0 1 1-.567-.009l.188-10.74a.283.283 0 0 1 .288-.278Zm9.368-3.944a.284.284 0 0 1 .279.288l-.232 13.266a.284.284 0 1 1-.567-.01l.232-13.266a.284.284 0 0 1 .288-.278Zm-26.286 14.085a.278.278 0 0 1 .201.343l-1.553 5.66a.289.289 0 0 1-.35.202.279.279 0 0 1-.2-.344l1.553-5.66a.288.288 0 0 1 .35-.201Zm8.237-4.231a.278.278 0 0 1 .2.344l-6.113 22.277a.289.289 0 0 1-.35.201.278.278 0 0 1-.2-.344l6.113-22.276a.289.289 0 0 1 .35-.202Zm-3.002 1.795a.278.278 0 0 1 .2.343l-6.041 22.011a.289.289 0 0 1-.35.202.28.28 0 0 1-.2-.344l6.04-22.011a.287.287 0 0 1 .35-.201Zm-2.532 1.219a.278.278 0 0 1 .2.344l-4.142 15.093a.287.287 0 0 1-.35.201.278.278 0 0 1-.2-.343l4.142-15.094a.289.289 0 0 1 .35-.201Zm5.699 6.323a.278.278 0 0 1 .2.343l-2.874 10.473a.289.289 0 0 1-.35.201.278.278 0 0 1-.2-.344l2.874-10.472a.288.288 0 0 1 .35-.201Z" fill="#000"/><path fill-rule="evenodd" clip-rule="evenodd" d="M43.526 103.388a.284.284 0 0 1 .355-.185 909.58 909.58 0 0 0 6.127 1.903c2.751.848 5.505 1.697 8.245 2.578.356.115.71.234 1.064.354.928.312 1.85.623 2.781.84a3.08 3.08 0 0 0 .231.043c.09.015.192.033.292.059.176.045.452.137.576.389a.284.284 0 0 1-.508.251c.002.004-.002-.009-.039-.029a.75.75 0 0 0-.17-.062 3.198 3.198 0 0 0-.278-.055c-.076-.013-.16-.027-.233-.044-.959-.224-1.921-.548-2.857-.863a68.41 68.41 0 0 0-1.033-.343c-2.74-.881-5.484-1.727-8.231-2.574a985.488 985.488 0 0 1-6.137-1.906.284.284 0 0 1-.185-.356Z" fill="#000"/><path fill-rule="evenodd" clip-rule="evenodd" d="M45.156 103.416a.284.284 0 0 1 .356-.185 325.135 325.135 0 0 0 6.859 2.066c2.235.657 4.473 1.319 6.866 2.089.355.114.71.234 1.064.353.927.312 1.85.623 2.78.84a3.094 3.094 0 0 0 .232.043c.09.015.192.034.292.059.176.045.452.137.576.389a.284.284 0 0 1-.508.251c.002.004-.003-.008-.04-.029a.749.749 0 0 0-.169-.062 3.188 3.188 0 0 0-.278-.055c-.077-.013-.16-.027-.233-.044-.959-.224-1.921-.548-2.858-.863-.348-.117-.692-.233-1.032-.343a277.642 277.642 0 0 0-7.263-2.205 332.484 332.484 0 0 1-6.459-1.948.284.284 0 0 1-.185-.356Z" fill="#000"/><path fill-rule="evenodd" clip-rule="evenodd" d="M62.71 108.795a.284.284 0 0 0-.53.133l-.109 6.239a.284.284 0 0 0 .526.152.28.28 0 0 0 .242.144.283.283 0 0 0 .288-.278l.11-6.238a.282.282 0 0 0-.28-.288.281.281 0 0 0-.246.136Z" fill="#000"/><path d="M51.033 141.315c0 10.894-8.416 19.725-19.367 19.725-10.95 0-19.827-8.831-19.827-19.725 0-10.894 8.877-19.726 19.827-19.726 7.84 0 19.367 8.832 19.367 19.726Z" fill="#fff"/><path fill-rule="evenodd" clip-rule="evenodd" d="M57.23 141.527a.435.435 0 0 1-.482.414l-15.861-1.603a.487.487 0 0 1-.432-.507.435.435 0 0 1 .482-.414l15.861 1.603a.486.486 0 0 1 .432.507Zm-3.62 3.559a.436.436 0 0 1-.465.425l-7.999-.502c-2.624-.117-5.248-.234-7.742-.486a.487.487 0 0 1-.433-.498.436.436 0 0 1 .466-.425l7.717.485.05.002.04.002c2.659.118 5.348.238 7.934.499.25.026.441.247.432.498Zm-1.699 3.992a.436.436 0 0 1-.482.414c-2.765-.28-5.372-.439-7.956-.595l-.096-.006c-2.55-.154-5.08-.308-7.703-.573a.486.486 0 0 1-.432-.507.436.436 0 0 1 .482-.414c2.606.263 5.12.416 7.674.57l.089.006c2.582.156 5.207.316 7.992.598a.486.486 0 0 1 .432.507Zm-5.674 2.838a.436.436 0 0 1-.48.419l-15.873-1.465a.486.486 0 0 1-.436-.503.435.435 0 0 1 .479-.418l15.873 1.465a.486.486 0 0 1 .437.502Zm-.537 7.049a.436.436 0 0 1-.467.426l-8.16-.537c-2.52-.13-5.022-.261-7.616-.501a.486.486 0 0 1-.436-.496.436.436 0 0 1 .466-.426l7.598.5.093.004.088.005c2.584.134 5.21.271 7.998.528.25.024.444.245.436.497Zm-.16-3.293a.436.436 0 0 1-.462.428l-8.003-.432c-2.625-.094-5.25-.188-7.746-.419a.487.487 0 0 1-.436-.494.435.435 0 0 1 .461-.428l7.72.417.051.001.04.002c2.66.095 5.35.192 7.938.43a.487.487 0 0 1 .436.495Zm13.051-18.046a.436.436 0 0 1-.47.421l-8.155-.608c-2.518-.152-5.019-.305-7.61-.567a.486.486 0 0 1-.433-.5c.01-.252.22-.44.47-.421l7.593.565.093.006.088.005c2.582.156 5.207.317 7.992.598.25.025.443.248.432.501Zm-27.162 22.466a.435.435 0 0 1-.482.414c-2.556-.258-5.219-.377-7.881-.496l-.055-.002c-2.639-.117-5.278-.234-7.786-.488a.486.486 0 0 1-.432-.507.436.436 0 0 1 .482-.414c2.483.251 5.1.367 7.75.485l.04.002c2.658.118 5.346.238 7.932.5a.486.486 0 0 1 .432.506Zm-3.762-4.039a.435.435 0 0 1-.482.414c-2.557-.258-5.219-.377-7.881-.496l-.055-.002c-2.639-.117-5.278-.235-7.786-.488a.487.487 0 0 1-.432-.507.436.436 0 0 1 .482-.414c2.483.251 5.1.367 7.75.485l.04.002c2.658.118 5.346.238 7.932.5a.486.486 0 0 1 .432.506Zm-2.071-3.519a.434.434 0 0 1-.482.414l-15.86-1.602a.487.487 0 0 1-.431-.507.436.436 0 0 1 .482-.414l15.86 1.603a.486.486 0 0 1 .43.506Z" fill="#000"/><path fill-rule="evenodd" clip-rule="evenodd" d="M18.88 125.5c3.989-3.167 9.082-4.814 15.06-4.266.32.03.635.065.944.106 2.27-.044 4.584.176 6.85.714a.46.46 0 1 1-.214.893 24.576 24.576 0 0 0-1.889-.372c3.082 1.257 5.615 3.315 8.04 6.1 2.093 2.405 3.356 5.672 3.885 9.066.53 3.396.33 6.956-.537 9.975a.487.487 0 0 1-.019.053c-2.902 6.807-7.823 10.544-13.209 12.048-5.368 1.5-11.173.774-15.874-1.286-3.364-1.475-5.972-4.183-7.737-7.176-1.759-2.982-2.702-6.284-2.707-9.004-.414-4.424 2.112-10.407 6.643-14.914 2.037-2.027 5.106-3.726 8.662-4.812a18.916 18.916 0 0 0-7.323 3.592c-3.805 3.02-6.573 7.5-8.095 12.798a.46.46 0 0 1-.886-.252c1.563-5.444 4.423-10.102 8.406-13.263Zm15.951-3.241a29.037 29.037 0 0 0-6.363.85c-4.061 1.011-7.538 2.825-9.7 4.976-4.41 4.388-6.765 10.129-6.375 14.2a.463.463 0 0 1 .002.044c0 2.536.886 5.689 2.58 8.562 1.693 2.87 4.169 5.422 7.314 6.8 4.533 1.987 10.117 2.677 15.253 1.243 5.112-1.428 9.805-4.967 12.598-11.498.821-2.876 1.014-6.29.505-9.555-.511-3.277-1.723-6.367-3.672-8.606-3.432-3.943-7.021-6.319-12.142-7.016Z" fill="#000"/><path d="M29.724 47.867c-1.009-1.008-.84-1.68-.63-1.89l24.334-31.198c-.175.004-.003-.151.248-.319l-.248.319c.262-.006 1.306-.369 4.03-1.58 5.674-2.52 8.195 1.261 8.825 2.522.63 1.26 17.65 46.014 18.28 47.274.63 1.261 1.26 3.782 0 5.043-1.009 1.008-7.144 3.362-10.086 4.412-14.497-7.774-43.744-23.574-44.753-24.583Z" fill="#EE5F54"/><path fill-rule="evenodd" clip-rule="evenodd" d="m84.796 64.21-9.455 3.783-.468-1.17 9.455-3.783.468 1.17Zm-1.89-5.672L73.45 62.32l-.469-1.17 9.455-3.783.469 1.17Zm-2.522-5.043-9.455 3.782-.468-1.17 9.455-3.782.468 1.17Zm-14.498-39.08-9.454 3.782-.469-1.17 9.455-3.783.468 1.17Zm1.892 4.412-9.455 3.782-.469-1.17 9.455-3.782.469 1.17Zm1.89 5.043-9.455 3.782-.468-1.17 9.455-3.783.468 1.17Zm1.891 5.042-9.454 3.782-.469-1.17 9.455-3.782.468 1.17Zm1.261 4.413-9.455 3.782-.468-1.17 9.455-3.783.468 1.17Zm1.891 4.412-9.455 3.782-.468-1.17 9.455-3.782.468 1.17Zm1.891 5.043-9.455 3.782-.468-1.17 9.455-3.783.468 1.17Zm2.521 5.042-9.455 3.782-.468-1.17 9.455-3.782.468 1.17Z" fill="#000"/><path fill-rule="evenodd" clip-rule="evenodd" d="M62.416 12.75c-.585-.037-1.294.103-2.237.417l-.009.003-6.312 1.894-.363-1.208 6.295-1.888c.985-.328 1.877-.53 2.706-.476.86.054 1.609.38 2.298 1.014.669.616 1.274 1.516 1.898 2.712.626 1.201 1.293 2.744 2.067 4.68.497 1.242 1.734 4.586 3.382 9.04 1.027 2.776 2.214 5.983 3.48 9.381 3.304 8.863 7.154 19.04 10.155 26.327.47 1.142.324 2.187-.264 3.094-.56.866-1.502 1.577-2.576 2.186-1.701.964-3.937 1.776-6.024 2.534-.542.196-1.073.39-1.583.58a.63.63 0 1 1-.443-1.18c.544-.204 1.1-.406 1.656-.608 2.075-.754 4.173-1.517 5.772-2.423 1.012-.574 1.744-1.163 2.14-1.774.37-.57.464-1.18.156-1.929-3.01-7.31-6.867-17.505-10.17-26.366-1.275-3.423-2.467-6.645-3.496-9.425-1.64-4.43-2.865-7.742-3.355-8.968-.771-1.928-1.419-3.423-2.015-4.566-.599-1.148-1.124-1.898-1.634-2.368-.49-.451-.97-.648-1.524-.683Z" fill="#000"/><path fill-rule="evenodd" clip-rule="evenodd" d="M75.361 70.317 55.289 15.974a1.26 1.26 0 0 0-2.174-.342L29.396 45.82a1.26 1.26 0 0 0 .383 1.883l43.79 24.155c1.023.564 2.197-.446 1.792-1.54Zm-18.89-54.78c-.682-1.849-3.129-2.234-4.347-.684L28.405 45.041a2.521 2.521 0 0 0 .765 3.766l43.79 24.155c2.046 1.128 4.393-.89 3.584-3.082L56.472 15.538Z" fill="#000"/><path d="M56.828 51.65a3.782 3.782 0 1 1-7.564 0 3.782 3.782 0 0 1 7.564 0Z" fill="#fff"/><path fill-rule="evenodd" clip-rule="evenodd" d="M53.046 54.17a2.521 2.521 0 1 0 0-5.042 2.521 2.521 0 0 0 0 5.043Zm0 1.261a3.782 3.782 0 1 0 0-7.564 3.782 3.782 0 0 0 0 7.564Z" fill="#000"/><path d="M56.828 30.848c0 4.2-.329 11.018-1.62 12.98-.636.965-1.375 1.518-2.162 1.518-.787 0-1.525-.552-2.161-1.518-1.292-1.962-1.62-9.41-1.62-13.61 0-6.266 1.394-7.564 3.781-7.564 2.387 0 3.782 1.928 3.782 8.194Z" fill="#fff"/><path fill-rule="evenodd" clip-rule="evenodd" d="M51.349 24.722c-.464.794-.824 2.384-.824 5.496 0 2.075.081 4.946.32 7.528.12 1.293.277 2.489.477 3.466.21 1.025.436 1.65.616 1.923.55.835.957.95 1.108.95.152 0 .559-.115 1.108-.95.188-.285.413-.885.62-1.839.198-.916.354-2.03.474-3.242.238-2.42.32-5.131.32-7.206 0-3.093-.354-4.887-.858-5.872-.238-.465-.486-.705-.712-.84-.229-.137-.527-.221-.952-.221-.492 0-.823.068-1.06.18-.217.102-.43.274-.637.627Zm3.858 19.106c1.292-1.962 1.621-8.78 1.621-12.98 0-6.266-1.395-8.194-3.782-8.194s-3.782 1.298-3.782 7.564c0 4.2.33 11.648 1.621 13.61.636.965 1.374 1.518 2.161 1.518.787 0 1.526-.552 2.161-1.518Z" fill="#000"/></svg>