<svg width="200" height="177" fill="none" xmlns="http://www.w3.org/2000/svg"><g clip-path="url(#a)"><path fill-rule="evenodd" clip-rule="evenodd" d="M95.992 48.309c.997.698 1.776 2.058 3.093.637 1.416.82 2.375 2.057 3.504 3.099 2.082 1.917 4.181 3.822 6.279 5.725.782.707 1.608 1.366 2.363 2.1.687.666.724 1.619.971 2.478.09.317.214.734.459.881 2.506 1.496 4.442 3.675 6.707 5.454 2.661 2.09 5.38 4.107 8.094 6.13 1.54 1.149 3.117 2.259 4.683 3.374 1.044.743 2.144 1.416 3.139 2.22 1.056.847 2.06.51 3.069.033 1.535-.726 2.434-2.043 3.121-3.525.19-.413.32-.857.449-1.295.545-1.865.32-2.406-1.216-3.565a747.074 747.074 0 0 1-8.598-6.597 694.51 694.51 0 0 1-9.272-7.298 15.83 15.83 0 0 1-2.431-2.417c-.527-.66-1.137-.96-1.89-.854-1.459.203-2.514-.404-3.571-1.323-2.173-1.887-4.419-3.692-6.66-5.495-.923-.743-1.92-1.399-2.887-2.087-1.05-.75-1.901-1.629-2.508-2.81-.353-.688-1.132-1.166-1.64-1.66.606-2.158 1.328-4.186 1.71-6.273.284-1.55.231-3.182.153-4.775-.156-3.25-1.272-6.216-2.909-9.02-1.234-2.114-2.783-3.946-4.617-5.56-.068-.06-.116-.147-.19-.196-2.474-1.638-4.768-3.538-7.508-4.765-1.507-.673-3.052-.919-4.684-.859-2.187.08-4.362-.107-6.547.487-2.111.578-4.001 1.588-5.931 2.505-2.22 1.052-4.073 2.616-5.437 4.694-.498.762-.934 1.569-1.423 2.337-1.518 2.378-1.776 5.128-2.3 7.79-.53 2.665-.568 5.378-.043 8.034.535 2.73 1.405 5.334 3.296 7.551 1.402 1.643 2.779 3.26 4.514 4.564a19.727 19.727 0 0 0 5.559 2.909c3.212 1.082 6.547 1.33 9.915 1.146.773-.043 1.547-.187 2.3-.375 1.42-.351 2.84-.711 4.228-1.167.993-.327 1.942-.795 2.89-1.244.608-.29 1.182-.66 1.766-.988Zm16.531 12.806c3.257-.495 4.587-2.68 5.128-5.536 1.004-.077 1.781.237 2.438.865.461.445.87.946 1.357 1.361a176.516 176.516 0 0 0 4.22 3.507 682.697 682.697 0 0 0 8.383 6.652c2.024 1.572 4.108 3.068 6.146 4.617 1.154.88 1.375 1.493.93 2.846-.267.814-.682 1.583-1.054 2.36-.526 1.094-1.421 1.792-2.57 2.111-.401.116-.946.125-1.298-.06-1.176-.604-2.342-1.256-3.426-2.009-2.295-1.587-4.58-3.193-6.783-4.9-3.253-2.519-6.433-5.135-9.636-7.713-.497-.4-.954-.848-1.448-1.252-.916-.747-1.9-1.437-2.387-2.85ZM61.899 32.978c.068-1.046.143-2.092.194-3.14.18-3.85 1.27-7.45 3.274-10.722 1.164-1.9 2.568-3.673 4.694-4.683a64.142 64.142 0 0 0 3.659-1.88c1.924-1.07 4.014-1.501 6.176-1.66 1.097-.08 2.204-.148 3.302-.108 1.407.046 2.834.03 4.156.7 2.048 1.043 3.968 2.262 5.854 3.579 2.91 2.026 5.305 4.455 6.897 7.64 1.512 3.028 2.432 6.203 2.409 9.605-.024 3.112-.841 6.04-2.241 8.809-.37.733-.803 1.435-1.198 2.155-1.856 3.388-4.676 5.562-8.38 6.622-1.494.428-3.002.823-4.504 1.221-.443.117-.904.284-1.348.264-1.819-.088-3.634-.28-5.456-.36-3.112-.137-5.954-1.212-8.534-2.796-2.715-1.666-4.867-4.036-6.535-6.746-1.588-2.58-2.243-5.476-2.419-8.5Zm40.74 11.673c.215.14.529.319.812.541 2.634 2.056 5.274 4.097 7.876 6.188 1.42 1.14 2.792 2.345 4.152 3.555.957.852 1.191 1.842.709 2.823-.435.884-1.125 1.552-1.99 2.011-.805.428-1.528.365-2.268-.278-1.168-1.024-2.427-1.943-3.644-2.914a12.339 12.339 0 0 1-.941-.799 1162.548 1162.548 0 0 1-6.686-6.51c-.311-.307-.541-.698-.745-.968.955-1.282 1.825-2.446 2.725-3.649Zm-5.725 3.118 3.948-5.567c1.223 1.034 1.189 1.069.712 2.332-.611 1.614-1.933 2.601-3.15 3.672-.59.518-.797.41-1.51-.437Z" fill="#000"/><path fill-rule="evenodd" clip-rule="evenodd" d="M63.42 31.091c-.062 2.517.498 4.917 1.372 7.234 1.376 3.65 3.94 6.34 7.224 8.357 2.202 1.35 4.567 2.323 7.173 2.616.494.055.973.245 1.458.379 2.156.582 4.284.232 6.393-.23 1.521-.332 3.053-.68 4.505-1.221.999-.378 2.064-.927 2.756-1.701 1.61-1.797 3.237-3.648 4.44-5.718 1.559-2.682 2.621-5.572 2.165-8.857-.359-2.592-.69-5.17-1.94-7.496-.818-1.52-1.732-3.01-2.787-4.375-2.163-2.787-4.984-4.867-8.105-6.424a13.214 13.214 0 0 0-8.02-1.245c-1.844.29-3.705.621-5.482 1.177-2.626.818-4.852 2.295-6.554 4.527-1.648 2.164-2.782 4.598-3.94 7.024a3.163 3.163 0 0 0-.28 1.051c-.147 1.634-.255 3.268-.377 4.902Zm.838-1.676c0-.637-.063-1.283.016-1.912.09-.713.181-1.47.492-2.105 1.01-2.08 1.861-4.226 3.306-6.109 1.253-1.635 2.681-3 4.386-4.09.682-.437 1.481-.734 2.268-.95 1.23-.337 2.518-.482 3.744-.834 2.709-.774 5.346-.494 7.97.35 2.172.7 3.986 1.991 5.71 3.427.633.525 1.356.965 1.917 1.557 2.874 3.038 5.105 6.42 5.761 10.662.349 2.258.553 4.506-.051 6.739-.94 3.474-2.893 6.369-5.287 9.013-1.364 1.504-2.947 2.568-4.996 2.887-.585.092-1.145.319-1.722.46-2.598.639-5.193 1.186-7.828.155-.336-.13-.714-.155-1.079-.215-2.801-.458-5.384-1.475-7.655-3.172-2.445-1.831-4.54-4.002-5.693-6.88-1.149-2.873-1.652-5.875-1.26-8.983Z" fill="#000"/><path fill-rule="evenodd" clip-rule="evenodd" d="M71.317 19.093c-1.208.544-1.162 1.502-1.2 2.324-.063 1.32.026 2.647.062 3.967.016.591.175 1.2.072 1.766-.159.883.364 1.573.503 2.366.087.502.579.655 1.307.453.095-.808.283-1.694.292-2.582.026-2.189-.065-4.38-.04-6.57.011-.831-.554-1.17-.996-1.724Zm.24 9.702-.39-.012c-.16-1.38-.546-2.781-.42-4.134.127-1.336-.544-2.777.433-4.154.177.219.408.367.412.525.114 2.596.424 5.195-.036 7.775Zm22.862 2.585c-.684.57-1.153 1.03-1.18 1.698-.087 1.854-.112 3.713-.148 5.568-.004.223.052.453.108.67.138.532.434.931 1.037.898.742-.038.665-.642.659-1.12-.017-2.224-.048-4.45-.102-6.672-.01-.283-.199-.564-.374-1.041Zm-.42 2.885c.397 1.675.524 3.348.014 5.018-.775-1.676-.13-3.345-.014-5.018Z" fill="#000"/><path d="M52.042 59.028c.184 1.161.349 1.933.68 3.963M54.134 46.8c.5-2 .5-1.5 1.345-3.768" stroke="#000" stroke-linecap="round"/></g><ellipse opacity=".5" rx="99.51" ry="44.322" transform="matrix(-1 0 -.01105 -.99994 100 132.681)" fill="url(#b)" fill-opacity=".5"/><path d="M129.862 118.099c6.968-.912 16.452-10.634 20.323-15.381-3.484-4.557-16.839-8.544-16.839-8.544 4.064-3.989 8.129-17.66-11.614-11.394-10.28 3.263-.58 14.811 4.065 13.672-1.161 4.367-3.484 14.241-3.484 18.799 0 5.696-1.161 3.987 7.549 2.848Z" fill="#fff"/><path d="M128.552 80.485c3.508-.067 6.315 1.953 7.88 5.023 1.118 2.194.396 3.85-.95 5.65-1.932 2.582-4.886 4.439-8.132 4.891-2.912.406-5.45.17-7.539-2.024-1.766-1.854-3.112-4.884-2.493-7.454.696-2.893 4.118-4.656 6.767-5.35 3.541-.93 7.228-.319 10.581.997 2.509.984 5.406 2.866 5.484 5.802.078 2.97-2.519 4.698-4.653 6.355" stroke="#000" stroke-linecap="round" stroke-linejoin="round"/><path d="M133.094 94.113c3.082.06 18.281 6.899 16.665 8.881-5.658 6.939-11.615 11.96-19.87 15.229-4.17 1.651-9.273 3.004-7.955-3.458 3.554-17.435 3.146-13.838 3.947-19.604" stroke="#000" stroke-linecap="round" stroke-linejoin="round"/><path d="M138.036 96.34c2.144-.91 3.272-2.7 4.675-4.535 1.194-1.562 2.581-3.24 3.146-5.16.356-1.213.341-2.652.327-3.903-.043-3.625-2.119-6.671-4.349-9.405-.215-.264-.994-1.601-.994-.713 0 .46.306.573.668.786m-14.158 26.861c-6.814 2.543-13.76 4.866-20.717 6.996-1.904.583-4.015 1.114-6.033 1.114-.4 0-1.019-.153-.675-.67.579-.872 2.062-1.382 2.983-1.776 1.104-.473 2.289-.991 3.465-1.259.451-.103 1.761-.475 2.189-.131.904.725-1.463 2.016-1.885 2.147-.402.125-1.499.62-1.499-.131 0-.34.679-1.386 1.039-.786.64 1.067-1.47.847-1.707 1.31" stroke="#000" stroke-linecap="round" stroke-linejoin="round"/><path d="M143.246 75.637c-.397-.6-.891-1.737-1.677-1.951-.569-.155-2.686-.577-3.102.014-.493.7 1.339 1.984 1.774 2.192.652.312 1.425.837 2.196.648.772-.19.234-1.44-.022-1.791a5.044 5.044 0 0 0-2.211-1.733c-.566-.222-.473.123-.223.524.249.4.535.784.794 1.18.24.366.864.336 1.269.393m-13.758 13.235c-5.342 4.193-9.637 3.384-10.678 2.482" stroke="#000" stroke-linecap="round" stroke-linejoin="round"/><path d="M37.986 114.132c2.713-2.953 8.862-11.18 14.459-15.839l12.673-7.388S56.3 85.6 65.323 77.79c4.15-3.593 11.204-4.373 14.055.313C85.24 87.738 75.3 92.152 75.3 92.152c-6.535 9.399 1.846 26.641.923 28.029-.922 1.389-26.65 2.879-38.237-6.049Z" fill="#fff"/><path d="M55.71 89.443c.372.745 3.261 3.725 4.66 5.121l1.397.931 2.331-1.863c-1.087-.62-3.541-2.234-4.66-3.724-1.398-1.862-1.397-4.19-1.396-6.053 0-1.49 1.244-6.21 1.866-8.383-.62-.155-2.33.56-4.196 4.658-2.332 5.123-.468 8.382-.003 9.313Z" fill="#fff"/><path d="M62.234 92.701c-2.796-1.396-4.48-4.731-4.354-6.926.137-2.396 1.174-4.595 1.944-6.83.242-.704 1.125-2.652.499-3.396-.42-.499-1.619.76-1.839.983-2.056 2.082-3.293 5.004-3.607 7.892-.436 3.996 1.68 7.251 4.91 9.325" stroke="#000" stroke-linecap="round" stroke-linejoin="round"/><path d="M64.612 91.193c-.06.275-.13.665-.268.906-20.57 5.414-23.374 23.844-23.838 24.511" stroke="#000" stroke-linecap="round" stroke-linejoin="round"/><path d="M39.108 115.676c5.135 4.092 29.859 8.717 39.642 5.586" stroke="#000" stroke-linecap="round" stroke-linejoin="round"/><path d="M74.555 93.32c-5.13 9.316-2.335 18.63 3.725 27.944M65.09 78.292c-1.035.674-2.375 1.554-3.319 2.422-1.119 1.03-1.42 3.15-1.153 4.598.649 3.523 5.214 5.807 8.285 6.75 1.471.453 3.183.826 4.732.685 1.58-.145 3.032-.936 4.282-1.868 1.762-1.314 2.807-2.922 3.468-5.012.588-1.855.832-3.49-.164-5.235-3.077-5.382-12.172-6.034-16.932-2.823-2.74 1.849-5.148 5.27-4.01 8.726 1.153 3.507 5.2 6.085 8.48 6.696" stroke="#000" stroke-linecap="round" stroke-linejoin="round"/><path d="M71.489 84.846c2.408 2.733 8.938 1.335 6.91-1.693" stroke="#000" stroke-linecap="round" stroke-linejoin="round"/><path d="M76.23 104.811c4.198-2.328 9.794-3.725 10.26-3.725.933.311 1.866 1.211-1.865 2.329-4.663 1.396-8.86 6.053-10.26 8.381-1.398 2.328-3.264 3.725-4.663 4.19-1.12.373-1.4-1.086-1.4-1.862 1.244-2.329 4.57-7.451 7.928-9.313Zm19.588-2.327-.933-2.328c1.4.465 6.063.466 7.929 0 1.492-.372 5.285-2.638 6.995-3.725 1.243-.465 3.638-1.024 3.265.466-.467 1.863-5.597 4.191-7.928 5.588-1.866 1.117-6.996.465-9.328-.001Z" fill="#fff"/><path d="M107.79 132.919c-.667 1.528-24.39 6.872-37.355.087 5.33-10.962 9.952-22.685 15.055-33.435 0 0-9.608-3.695-2.081-12.95 3.461-4.256 10.274-6.246 13.897-2.126 7.45 8.473-1.57 14.54-1.57 14.54 2.817 9.182 12.72 32.357 12.054 33.884Z" fill="#fff"/><path d="M85.041 99.945c-.011.281-.011.677-.106.939-.617 1.71-2.72 6.198-3.06 6.935-3.438 7.444-7.031 14.816-10.466 22.261-.508 1.103-.835 2.213-1.066 3.398" stroke="#000" stroke-linecap="round" stroke-linejoin="round"/><path d="M69.451 132.123c5.882 5.291 29.34 7.33 38.289-.136" stroke="#000" stroke-linecap="round" stroke-linejoin="round"/><path d="M96.043 100.418c.056.776.194 1.211.47 2.055 1.944 5.909 4.138 11.739 6.249 17.59 1.101 3.051 2.237 6.105 3.188 9.206.528 1.72 1.033 3.442 1.594 5.151.267.813.651 1.589.802 2.433m-25.077-49.7c-.903.843-2.07 1.943-2.848 2.96-.922 1.208-.85 3.348-.335 4.728 1.252 3.356 6.147 4.815 9.335 5.213 1.528.19 3.279.261 4.78-.147 1.53-.416 2.823-1.446 3.891-2.58 1.507-1.6 2.256-3.364 2.544-5.536.256-1.93.212-3.581-1.074-5.126-3.966-4.768-13.038-3.834-17.167.152-2.377 2.295-4.153 6.08-2.43 9.287 1.747 3.254 6.181 5.092 9.518 5.125m-4.393-.142c-3.264 1.397-7.943 2.925-10.726 5.588-.817.782-7.927 7.45-4.663 9.313 3.265.001 3.964-4.191 6.062-6.519 2.518-2.794 5.596-5.122 8.394-6.053" stroke="#000" stroke-linecap="round" stroke-linejoin="round"/><path d="M96.752 102.663c5.596 1.682 13.014-1.595 14.924-4.371 2.798-2.794.293-4.134-3.732-.932-2.873 2.287-6.528 4.191-12.125 2.793" stroke="#000" stroke-linecap="round" stroke-linejoin="round"/><defs><radialGradient id="b" cx="0" cy="0" r="1" gradientUnits="userSpaceOnUse" gradientTransform="scale(99.5104 44.3217) rotate(90 0 1)"><stop stop-color="#C4C4C4" stop-opacity=".5"/><stop offset="1" stop-color="#C4C4C4" stop-opacity="0"/></radialGradient><clipPath id="a"><path fill="#fff" transform="translate(46.042)" d="M0 0h94.96v96.264H0z"/></clipPath></defs></svg>