<svg width="209" height="107" fill="none" xmlns="http://www.w3.org/2000/svg"><path d="M174.488 75.563c.351 13.623-25.798 25.353-58.406 26.199-32.61.846-59.328-9.512-59.68-23.136-.351-13.622 25.798-25.352 58.406-26.198 32.609-.846 59.328 9.512 59.68 23.135Z" fill="url(#a)" fill-opacity=".2"/><path fill-rule="evenodd" clip-rule="evenodd" d="M112.646 58.556c-1.341.314-2.681.626-4.024.932a.351.351 0 0 0-.198.125l.076-.013-.122.09a.352.352 0 0 0 .4.484c1.539-.35 3.076-.71 4.612-1.068l.407-.096c.55.133 1.099.27 1.647.41a.352.352 0 0 0 .175-.682 48.877 48.877 0 0 0-.391-.1.354.354 0 0 0 .118-.351.35.35 0 0 0-.421-.264l-1.125.263c-.246-.06-.492-.118-.738-.175a.351.351 0 0 0-.416.445Zm-11.184 3.089a.353.353 0 0 1-.274.415c-.464.096-.755.151-.961.19h-.001l-.165.033.002-.004-.656-.658.319-1.065a.352.352 0 1 1 .673.203l-.235.786c.208-.04.485-.094.883-.175a.352.352 0 0 1 .415.275Zm-2.328.147-.187.797-.05.016-.488.152a.352.352 0 0 1-.208-.673l.47-.148.463-.144Zm-.941 3.897c-.198.681-.4 1.385-.626 2.198a86.475 86.475 0 0 0-1.12-.26.352.352 0 1 0-.153.689c.363.081.724.165 1.085.25l-.028.105a.352.352 0 0 0 .245.434l.006.001v5.327l-.598-.188a.353.353 0 0 0-.212.673l.815.255a.353.353 0 0 0 .595.186c2.232.693 4.48 1.362 6.728 2.03v.002c2.105.626 4.207 1.252 6.29 1.895l-.322.06a.352.352 0 0 0 .126.693l.64-.119v.125a.352.352 0 1 0 .703 0v-.258c4.138-.798 7.883-1.702 11.842-2.657h.002l2.219-.535v.278a.352.352 0 1 0 .703 0v-.445l1.135-.27a.353.353 0 0 0-.161-.687l-.974.232v-5.88c0-.134.003-.278.01-.431.372-.093.749-.188 1.132-.286a.353.353 0 0 0-.175-.682l-.909.23c.071-.851.196-1.87.325-2.918l.01-.079c.117-.956.237-1.934.314-2.807a.352.352 0 0 0 .405-.487l-1.18 1.182c-.068.647-.152 1.335-.237 2.026l-.015.122a75.762 75.762 0 0 0-.319 2.87.345.345 0 0 0-.064.202v.077c-4.763 1.165-8.76 1.905-13.548 2.794h-.002l-.513.096v-.147a.352.352 0 1 0-.703 0v.275a204.295 204.295 0 0 0-4.815-1.436l-.628-.182c-2.62-.758-5.256-1.52-7.916-2.176v-.006h-.703l.591-2.371Zm25.669-4.003.509-.583-.782-.235c-.984-.296-1.923-.578-2.62-.78l-.253.66c.684.199 1.636.484 2.64.786l.506.152Zm2.568 7.881v6.304c-.809.193-1.603.385-2.388.574l-.007.002h-.002c-3.913.944-7.6 1.834-11.666 2.621v-6.242c.667.218 1.331.443 1.992.677a.351.351 0 0 0 .449-.214.353.353 0 0 0-.214-.45 78.196 78.196 0 0 0-1.519-.522c4.704-.872 8.666-1.608 13.355-2.75Zm-16.23 2.578a.354.354 0 0 0-.2.386.351.351 0 0 0 .41.281l1.213-.225.041.013v6.086a608.218 608.218 0 0 0-6.549-1.976 592.42 592.42 0 0 1-6.81-2.057v-5.861c2.588.642 5.156 1.385 7.726 2.129l.623.18c1.187.343 2.369.686 3.546 1.044ZM20.522 43.673l.002.017c-1.193.173-2.381.34-3.57.506-1.493.21-2.986.419-4.492.642-.552.082-1.13.188-1.704.294-.443.082-.884.163-1.308.232l.018-.012a.353.353 0 0 0 .095-.49.351.351 0 0 0-.488-.095l-.72.484-.46.31c-.477.038-.95.052-1.418.028a.352.352 0 0 0-.036.704c.118.006.236.01.354.011-1.466.996-2.92 2.012-4.328 3.102a.352.352 0 0 0-.49.324v.06c-.198.157-.395.315-.59.475l-.28-.081a.353.353 0 0 0-.318.613.35.35 0 0 0 .536.436l.222-.187.43.129v5.272l-.23-.085a.352.352 0 0 0-.246.66 372.295 372.295 0 0 0 8.766 3.143.352.352 0 0 0 .383.487l.57-.098a.349.349 0 0 0 .389.075l.8.274a.352.352 0 0 0 .338-.606c4.336-.717 8.683-1.33 13.046-1.901l-.026.037a.353.353 0 0 0 .094.49c.161.109.38.066.488-.095.127-.187.254-.372.383-.555a.352.352 0 0 0 .29-.393l-.001-.012a43.64 43.64 0 0 1 3.378-4.089.352.352 0 0 0 .405-.348v-.084c.426-.45.86-.896 1.304-1.34a.354.354 0 0 0 0-.5.351.351 0 0 0-.497 0c-.272.273-.541.547-.806.82v-5.023l.31-.304c.186.054.374.108.561.16a.352.352 0 0 0 .19-.678l-.177-.05.33-.33a.351.351 0 1 0-.497-.5c-.2.203-.403.405-.607.606-.48-.141-.96-.286-1.438-.434l-.563.563c.414.129.829.256 1.244.381a.351.351 0 0 0-.057.192v.096a245.826 245.826 0 0 1-4.046 3.83.351.351 0 0 0-.109.102l-.49.454c-.511.075-1.024.15-1.536.223-4.039.585-8.095 1.171-12.1 1.95v-.31a.352.352 0 1 0-.703 0v.183c-.993-.326-1.987-.663-2.984-1-1.812-.612-3.63-1.227-5.453-1.787v-.519c1.756-1.373 3.595-2.63 5.457-3.884.476-.044.95-.11 1.418-.187.468-.076.916-.16 1.358-.241.553-.102 1.095-.202 1.652-.285a567 567 0 0 1 4.476-.64 508.282 508.282 0 0 0 5.05-.725c.894.258 1.775.547 2.663.84.473.155.948.311 1.428.464l.565.18.562.178.56-.562a855.55 855.55 0 0 1-.91-.289l-.565-.18c-.465-.147-.932-.3-1.402-.455a73.507 73.507 0 0 0-2.846-.894c-.449-.127-.819-.186-1.297-.154a.352.352 0 0 0-.327.375Zm-9.405 16.04A397.045 397.045 0 0 1 2.68 56.71v-5.32c1.742.538 3.466 1.121 5.196 1.707h.001c.859.29 1.718.581 2.582.868a.352.352 0 0 0 .377.518l.281-.057v5.289Zm18.984-6.646v-5.08a256.944 256.944 0 0 1-3.416 3.226c.741-.11 1.482-.22 2.22-.333a.352.352 0 0 1 .106.697c-.807.123-1.616.244-2.425.362v5.33a45.162 45.162 0 0 1 3.515-4.202Zm-4.218 4.606c-4.7.613-9.386 1.276-14.063 2.064v-5.329c.345.111.691.221 1.038.329a.351.351 0 1 0 .21-.673l-.036-.011c3.633-.676 7.3-1.206 10.969-1.737l.594-.086a.352.352 0 0 0 .56.402l.071-.066.003-.003.544-.504.11-.017v5.631ZM135.283 30.285c.086-.513.169-1.05.223-1.52l2.7-.266c2.697-.266 5.31-.524 7.942-.795 1.263.198 2.564.38 3.882.566 2.476.346 5.016.703 7.495 1.192.604 1.79.684 2.002.89 2.545.076.2.168.443.31.828l-1.03.158h-.003c-3.407.523-6.616 1.016-10.169 1.45v-.223a.352.352 0 1 0-.703 0v.155l-2.243-.404c-4.014-.721-6.193-1.113-9.616-1.945l.01-.045.044-.229h-.851v.077l-.266-.066a.346.346 0 0 0-.079-.01h-.013a.35.35 0 0 0-.334.266.352.352 0 0 0 .255.428l.437.109v5.602l-.286-.054a.353.353 0 0 0-.131.693 777.45 777.45 0 0 0 8.321 1.52h.002l3.161.568-.225.037a.353.353 0 0 0 .114.696c.583-.096 1.151-.19 1.707-.28a.351.351 0 0 0 .695-.036c.566.104 1.131.209 1.695.315a.352.352 0 0 0 .138-.692c3.2-.526 6.106-1.027 9.418-1.73v.136a.353.353 0 0 0 .704 0v-.287c.371-.08.748-.164 1.131-.25a.352.352 0 0 0 .266-.421.351.351 0 0 0-.42-.267l-.977.217V34.22a.353.353 0 0 0 .33-.473l-.125-.346 1.604-.243a.352.352 0 0 0-.104-.697l-1.717.26a.347.347 0 0 0-.091-.16c-.139-.376-.23-.615-.304-.81v-.001c-.187-.492-.267-.702-.747-2.126l.027.006a.352.352 0 1 0 .144-.69l-.432-.09-.01-.03a.352.352 0 0 0-.618-.094c-2.427-.47-4.932-.822-7.353-1.162-.632-.088-1.26-.176-1.878-.265a.353.353 0 0 0-.365-.48c-.558.06-1.115.117-1.67.174a87.734 87.734 0 0 1-1.047-.17.351.351 0 0 0-.405.288l-.004.031c-2.172.221-4.343.435-6.572.655l-2.574.254c.003-.062.004-.121.004-.176a.352.352 0 1 0-.703 0c0 .074-.003.156-.008.247l-1.082.107a.353.353 0 0 0 .07.702l.942-.094c-.05.403-.12.859-.196 1.31l.69.138Zm10.836 4.68-1.66-.3c-3.99-.716-6.187-1.11-9.592-1.937v5.563c2.436.457 4.874.893 7.315 1.33h.001c1.544.277 3.09.554 4.637.836v-5.218l-.31.036a.353.353 0 0 1-.391-.31Zm11.687-1.276h-.001c-3.221.495-6.275.964-9.61 1.382a.351.351 0 0 1-.383.2l-.289-.052v5.291c3.958-.645 7.311-1.195 11.25-2.036V33.54l-.967.149ZM65.567 17.883l.72.186c1.386.358 2.802.725 4.397 1.05l-.05.05v.001c-.45.453-.896.902-1.34 1.346a.352.352 0 0 0-.52.31v.08c-1.573.107-3.182.258-4.786.415l-.976.096c-1.362.135-2.714.269-4.034.378a294.044 294.044 0 0 1-4.328-.872c-.642-.133-1.284-.266-1.928-.397a42.944 42.944 0 0 0 3.035-2.107.357.357 0 0 0 .074-.075c2.485-.201 4.986-.42 7.465-.785l.295-.888-.101-.023a.352.352 0 0 0-.411.23c-2.735.397-5.504.62-8.275.841l-.825.067a.352.352 0 0 0 .057.702l.496-.04a36.21 36.21 0 0 1-2.828 1.873l-.089-.018a.352.352 0 0 0-.137.691l.21.042a.358.358 0 0 0 .02.004l.19.039v3.92a10.614 10.614 0 0 0-.324-.031.352.352 0 0 0-.054.703c.126.01.252.022.378.037v.052a.352.352 0 0 0 .7.053c.857.154 1.705.395 2.57.641.23.066.461.132.694.197l.614.168c.718.197 1.428.391 2.127.613.056.142.2.236.36.221l.24-.022.137.048a.35.35 0 0 0 .377-.095c1.314-.118 2.635-.225 3.958-.333 1.69-.137 3.383-.274 5.068-.435a.35.35 0 0 0 .127-.012l.774-.076a.352.352 0 0 0 .053-.692c.902-.915 1.354-1.421 2.515-2.876a.353.353 0 0 0-.55-.44l-.076.096v-3.52l.644.114a.352.352 0 0 0 .118-.695 32.81 32.81 0 0 1-.23-.04l.068-.068a.352.352 0 0 0-.498-.499l-.288.29a.35.35 0 0 0-.415.063c-1.634-.327-3.063-.697-4.48-1.064l-.69-.179-.248.665Zm.283-.757.268-.053a.352.352 0 0 0 .01-.69l-.278.743Zm-6.92 9.67v-4.29c-.346.03-.69.056-1.03.08a.352.352 0 0 1-.377-.357c-1.011-.201-2.021-.41-3.03-.619a676.7 676.7 0 0 0-1.892-.389v3.877c.948.162 1.873.426 2.774.682a97.878 97.878 0 0 0 1.279.357c.756.207 1.52.417 2.276.66Zm9.69-.677.194-.194a.353.353 0 0 1-.04-.165v-3.924a.35.35 0 0 1-.276-.203c-1.458.103-2.948.243-4.441.39l-.968.095h-.006c-.644.064-1.286.128-1.925.189a.353.353 0 0 1-.355.54c-.39-.069-.78-.139-1.17-.211v4.248c1.338-.121 2.671-.229 4.002-.337 1.662-.134 3.322-.269 4.986-.428Zm2.264-2.438a23.888 23.888 0 0 1-1.407 1.573V21.57c.24-.015.481-.028.72-.04a.352.352 0 0 0-.035-.704l-.192.01.913-.917v3.727l.001.036Z" fill="#000"/><path fill-rule="evenodd" clip-rule="evenodd" d="M109.682 71.24c.19.042.31.23.268.42l-1.459 6.697a.35.35 0 1 1-.686-.15l1.459-6.697a.351.351 0 0 1 .418-.27Zm2.077.709a.35.35 0 0 1 .252.428l-1.54 5.993a.35.35 0 1 1-.681-.176l1.541-5.992a.35.35 0 0 1 .428-.253Zm-4.028-.705c.187.048.301.24.252.428l-1.54 5.993a.35.35 0 1 1-.681-.176l1.541-5.992a.35.35 0 0 1 .428-.253ZM118.972 70.539c.187.048.301.24.252.43l-1.902 7.402a.352.352 0 1 1-.681-.177l1.903-7.402a.35.35 0 0 1 .428-.253Zm-2.393.572c.188.049.302.24.253.43l-1.898 7.385a.352.352 0 1 1-.681-.175l1.898-7.387a.351.351 0 0 1 .428-.253Zm-2.089.485c.188.049.302.24.253.43l-1.902 7.402a.353.353 0 0 1-.682-.176l1.903-7.403a.351.351 0 0 1 .428-.253ZM101.805 68.97a.353.353 0 0 1 .253.43l-1.581 6.15a.351.351 0 1 1-.68-.176l1.58-6.15a.352.352 0 0 1 .428-.253Zm1.834.511c.187.049.3.24.252.43l-1.631 6.345a.35.35 0 1 1-.68-.177l1.63-6.345a.353.353 0 0 1 .429-.253Zm2.063.705c.189.049.302.24.253.43l-1.631 6.345a.351.351 0 1 1-.681-.177l1.631-6.345a.351.351 0 0 1 .428-.253ZM125.571 69.481c.189.049.301.24.253.43l-1.812 7.05a.351.351 0 1 1-.681-.177l1.812-7.05a.351.351 0 0 1 .428-.253Zm-2.362.459a.353.353 0 0 1 .252.429l-1.875 7.297a.352.352 0 1 1-.681-.177l1.875-7.296a.352.352 0 0 1 .429-.254Zm-1.965 0a.353.353 0 0 1 .253.429l-1.876 7.297a.351.351 0 1 1-.68-.177l1.875-7.296a.351.351 0 0 1 .428-.254ZM99.668 68.424c.188.048.3.24.252.43l-1.54 5.992a.352.352 0 1 1-.68-.177l1.54-5.992a.351.351 0 0 1 .428-.253ZM8.88 52.545a.353.353 0 0 1 .252.43L7.68 58.63a.351.351 0 1 1-.681-.177L8.45 52.8a.351.351 0 0 1 .429-.254Zm3.933 1.074c.188.048.301.24.253.43l-1.63 6.344a.351.351 0 1 1-.682-.176l1.631-6.345a.351.351 0 0 1 .428-.253Zm-2.245 0c.188.048.301.24.253.43l-1.36 5.287a.351.351 0 1 1-.68-.177l1.359-5.287a.351.351 0 0 1 .428-.253ZM19.935 52.561c.188.049.301.24.253.43l-1.53 5.948a.351.351 0 1 1-.68-.176l1.529-5.949a.352.352 0 0 1 .428-.253Zm-2.245 0c.188.049.301.24.253.43l-1.631 6.345a.351.351 0 1 1-.681-.177l1.63-6.345a.352.352 0 0 1 .429-.253Zm-2.146.705c.188.049.301.24.253.43l-1.63 6.345a.351.351 0 1 1-.682-.177l1.631-6.345a.352.352 0 0 1 .428-.253ZM2.767 51c.188.049.301.24.253.43l-.492 1.913a.351.351 0 1 1-.68-.176l.491-1.913A.352.352 0 0 1 2.767 51Zm1.835.504c.188.048.302.24.253.43l-1.45 5.64a.351.351 0 1 1-.68-.177l1.45-5.64a.351.351 0 0 1 .427-.253Zm2.036.813a.353.353 0 0 1 .253.43l-1.41 5.486a.352.352 0 1 1-.68-.176L6.21 52.57a.352.352 0 0 1 .428-.254ZM26.535 51.504c.188.049.301.24.253.43l-1.62 6.299a.351.351 0 1 1-.68-.176l1.619-6.3a.352.352 0 0 1 .428-.253Zm-2.336.352c.188.049.302.24.253.43l-1.63 6.345a.352.352 0 1 1-.682-.177l1.631-6.345a.351.351 0 0 1 .428-.253Zm-2.055.353c.188.048.302.24.253.43l-1.63 6.344a.352.352 0 1 1-.682-.176l1.631-6.345a.352.352 0 0 1 .428-.253ZM29.331 48.405a.352.352 0 0 1 .346.358l-.09 5.303a.353.353 0 0 1-.357.347.353.353 0 0 1-.345-.358l.089-5.304a.352.352 0 0 1 .357-.346Zm-1.938 1.585a.352.352 0 0 1 .366.338l.227 5.688a.352.352 0 1 1-.703.029l-.227-5.688a.353.353 0 0 1 .337-.367ZM153.615 34.231c.189.048.301.24.254.43l-1.541 5.992a.352.352 0 1 1-.681-.176l1.54-5.993a.352.352 0 0 1 .428-.253Zm-2.245 0c.189.048.301.24.253.43l-1.54 5.992a.352.352 0 1 1-.681-.176l1.54-5.993a.352.352 0 0 1 .428-.253Zm-2.001.144c.188.049.301.241.253.43l-1.504 5.848a.35.35 0 1 1-.68-.176l1.503-5.848a.352.352 0 0 1 .428-.254ZM147.469 34.231c.187.048.301.24.252.43l-1.54 5.992a.351.351 0 1 1-.68-.176l1.539-5.993a.353.353 0 0 1 .429-.253Zm-2.245 0c.187.048.3.24.252.43l-1.358 5.287a.353.353 0 0 1-.682-.176l1.359-5.288a.353.353 0 0 1 .429-.253Zm-1.965 0c.188.048.301.24.252.43l-1.358 5.287a.352.352 0 1 1-.681-.176l1.359-5.288a.351.351 0 0 1 .428-.253ZM158.242 32.82c.188.05.301.242.253.43l-1.527 5.94a.352.352 0 1 1-.681-.175l1.527-5.94a.351.351 0 0 1 .428-.254Zm-2.145.706c.187.048.3.24.252.43l-1.45 5.64a.351.351 0 1 1-.68-.177l1.449-5.64a.352.352 0 0 1 .429-.253Zm3.484 2.82c.188.049.301.24.253.43l-.621 2.415a.352.352 0 1 1-.681-.176l.621-2.416a.352.352 0 0 1 .428-.253ZM139.077 32.82c.187.05.301.242.252.43l-1.45 5.64a.35.35 0 1 1-.68-.176l1.45-5.64a.35.35 0 0 1 .428-.253Zm2.063.706c.188.048.301.24.253.43l-1.449 5.64a.353.353 0 0 1-.682-.177l1.45-5.64a.352.352 0 0 1 .428-.253Zm-4.028-.705c.188.049.301.24.253.43l-1.45 5.64a.351.351 0 1 1-.681-.177l1.45-5.64a.351.351 0 0 1 .428-.253Zm-10.057 39.127a.353.353 0 0 1 .254.43l-.998 3.877a.35.35 0 1 1-.68-.176l.996-3.877a.352.352 0 0 1 .428-.254ZM59.958 21.893c.188.05.301.241.253.43l-1.269 4.935a.352.352 0 1 1-.68-.176l1.268-4.935a.351.351 0 0 1 .428-.253Zm-4.028-.704c.188.048.3.24.252.429l-1.13 4.4a.351.351 0 1 1-.682-.175l1.132-4.401a.351.351 0 0 1 .428-.253Zm1.783.704c.188.05.301.241.253.43l-1.088 4.23a.351.351 0 1 1-.68-.176l1.087-4.23a.351.351 0 0 1 .428-.253ZM53.72 20.836c.188.049.302.24.253.43l-1.031 4.012a.352.352 0 1 1-.681-.176l1.031-4.013a.352.352 0 0 1 .428-.253ZM66.536 21.541c.189.049.301.24.253.43l-1.19 4.633a.351.351 0 1 1-.682-.176l1.191-4.634a.352.352 0 0 1 .428-.253Zm-2.245 0c.188.049.301.24.253.43l-1.36 5.287a.351.351 0 1 1-.68-.176l1.359-5.288a.352.352 0 0 1 .428-.253Zm-2.07.415c.187.048.3.24.252.43l-1.253 4.872a.351.351 0 1 1-.68-.176l1.252-4.873a.352.352 0 0 1 .428-.253ZM71.435 19.073c.188.049.3.241.252.43l-1.63 6.345a.352.352 0 1 1-.681-.176l1.63-6.345a.352.352 0 0 1 .429-.254Zm-2.508 2.115c.188.049.3.241.252.43l-1.358 5.287a.352.352 0 1 1-.682-.176l1.36-5.287a.352.352 0 0 1 .428-.254Z" fill="#000"/><path d="M64.175 4.405h.472l1.344-1.349.067-.572a6.033 6.033 0 0 0-8.53.533 6.055 6.055 0 0 0-1.303 2.423.73.73 0 0 1 .472-.028l2.69-.445s.136-.227.207-.213a3.348 3.348 0 0 1 4.59-.35h-.01Z" fill="#EA4335"/><path d="M67.907 5.44a6.076 6.076 0 0 0-1.826-2.951L64.194 4.38a3.367 3.367 0 0 1 1.231 2.668v.336c.928 0 1.68.754 1.68 1.684 0 .93-.752 1.683-1.68 1.683h-3.359l-.335.341v2.02l.335.336h3.36a4.372 4.372 0 0 0 4.206-3.08 4.39 4.39 0 0 0-1.725-4.929Z" fill="#4285F4"/><path d="M58.702 13.43h3.36v-2.696h-3.36a1.66 1.66 0 0 1-.694-.151l-.472.146-1.354 1.348-.117.474a4.34 4.34 0 0 0 2.637.88Z" fill="#34A853"/><path d="M58.702 4.684a4.369 4.369 0 0 0-4.114 2.982 4.387 4.387 0 0 0 1.477 4.87l1.949-1.954a1.685 1.685 0 0 1-.84-2.228 1.677 1.677 0 0 1 3.062 0l1.948-1.953a4.363 4.363 0 0 0-3.482-1.717Z" fill="#FBBC05"/><path fill-rule="evenodd" clip-rule="evenodd" d="m107.445 63.125-7.031-1.41 2.109-.704C98.656 43.388 90.219 7.08 79.32 4.965c-6.23-1.209-13.71 10.928-14.765 15.51l2.46 1.058-7.03.352 1.406-2.82 1.054.705c1.64-5.052 6.47-15.58 16.875-15.862 10.407-.282 22.383 37.6 26.719 56.4l2.461-.355-1.055 3.173Zm9.493-1.363-1.407-2.82 2.813.705c.703-13.042 5.038-32.708 16.172-29.257 4.528 1.403 5.017 1.228 5.739.97.342-.124.738-.265 1.643-.265l1.407 2.82-4.571-1.058c-.469-.94-4.007-1.833-5.976-.705l-.191.109h-.002c-2.648 1.503-10.046 5.7-11.76 28.044-.017.216.694.48 1.733.864.429.16.916.34 1.431.546l-7.031.047Zm90.351 22.435 1.055 21.502-21.797-7.05 9.492-3.172a257.695 257.695 0 0 1-2.504-5.088h-.001c-6.676-13.8-16.748-34.62-37.222-38.975-17.015-3.619-34.101 16.92-34.101 16.92s1.758.353 4.219.353l-11.953 2.546 1.054-4.309 3.375.431-.914 1.332c8.438-11.202 25.102-25.45 41.133-22.913 26.016 4.119 42.539 46.883 42.539 46.883s4.219-4.7 5.625-8.46ZM99.008 61.715l3.867 3.877-5.625 3.526 1.055-3.525c-7.5-11.868-24.61-33.136-42.89-32.43-15.065.58-24.61 10.927-27.423 14.1l-2.11 3.877-4.57-3.877h4.57C31.509 40.565 45.923 31.4 54.36 31.4c10.547 0 17.93 1.058 28.828 11.28 8.72 8.178 13.36 16.215 15.82 21.503v-2.468Z" fill="url(#b)" fill-opacity=".5"/><path fill-rule="evenodd" clip-rule="evenodd" d="M135.901 52.375c-7.184 4.619-13.43 10.95-17.628 16.524a.35.35 0 0 1-.57-.412l.586-.855-2.491-.318-.846 3.457 8.777-1.87a21.094 21.094 0 0 1-1.5-.205l-.064-.011-.017-.004h-.005l.068-.347c-.27-.225-.27-.225-.269-.226l.002-.004.01-.011.038-.046.149-.173c.131-.152.324-.372.577-.651a62.152 62.152 0 0 1 2.18-2.29c1.877-1.879 4.558-4.346 7.775-6.7 6.419-4.697 15.052-9.006 23.713-7.163 11.722 2.493 20.051 10.326 26.273 19.132 4.757 6.731 8.306 14.068 11.2 20.05a256.537 256.537 0 0 0 2.493 5.064.354.354 0 0 1-.232.504l-6.781 1.614 17.247 8.483V86.522a85.886 85.886 0 0 1-2.927 4.139 87.55 87.55 0 0 1-1.596 2.061c-.04.052-.072.09-.094.117l-.024.03-.007.008-.001.003h-.001l-.272-.223-.328.127-.002-.007-.01-.022a89.335 89.335 0 0 0-.744-1.805 122.233 122.233 0 0 0-2.221-4.886c-1.951-4.064-4.822-9.523-8.502-15.11-3.681-5.587-8.166-11.291-13.342-15.852-5.177-4.561-11.028-7.963-17.445-8.98-7.896-1.25-15.981 1.631-23.169 6.253Zm65.763 40.282-.328.127a.352.352 0 0 0 .6.096l-.272-.223Zm.103-.691a94.066 94.066 0 0 0-.54-1.293 125.072 125.072 0 0 0-2.234-4.915c-1.96-4.083-4.847-9.572-8.549-15.192-3.702-5.618-8.226-11.378-13.465-15.993-5.238-4.616-11.208-8.103-17.799-9.147-8.135-1.288-16.398 1.686-23.659 6.356-6.635 4.266-12.469 9.968-16.66 15.212l-3.285-.42a.35.35 0 0 0-.386.266l-1.055 4.309a.353.353 0 0 0 .415.428l11.953-2.546a.351.351 0 0 0 .276-.38.351.351 0 0 0-.349-.317 25.811 25.811 0 0 1-3.542-.245l.351-.394a62.312 62.312 0 0 1 2.156-2.264c1.859-1.86 4.512-4.301 7.693-6.629 6.379-4.668 14.797-8.82 23.151-7.043 11.481 2.442 19.676 10.118 25.847 18.85 4.719 6.679 8.231 13.938 11.122 19.915.817 1.687 1.584 3.273 2.314 4.714l-7.298 1.736a.354.354 0 0 0-.074.66l18.633 9.165a.347.347 0 0 0 .34-.018.35.35 0 0 0 .166-.298v-21.15a.352.352 0 0 0-.648-.19 80.937 80.937 0 0 1-3.544 5.094 84.462 84.462 0 0 1-1.33 1.729Zm-79.556-23.632-.269-.226a.355.355 0 0 0-.063.344.355.355 0 0 0 .264.228l.068-.346Z" fill="#22222A"/><path fill-rule="evenodd" clip-rule="evenodd" d="M123.364 38.958c-2.802 6.074-4.319 14.215-4.669 20.708a.351.351 0 0 1-.436.323l-2.072-.519.967 1.938 4.926-.033c-.176-.065-.34-.128-.49-.187a5.735 5.735 0 0 1-.723-.328 1.187 1.187 0 0 1-.257-.19.51.51 0 0 1-.156-.392c.882-11.491 3.265-18.237 5.765-22.298 2.386-3.876 4.865-5.283 6.173-6.025l.192-.109c1.084-.622 2.557-.67 3.783-.465a6.687 6.687 0 0 1 1.66.49c.389.18.751.415.951.708l.564.245 3.129.608-.962-1.928c-.746.179-1.286.274-1.652.325a7.242 7.242 0 0 1-.572.058h-.04c-.419.012-.692-.076-1.199-.26l-.185-.069a47.01 47.01 0 0 0-2.595-.878c-2.667-.827-4.975-.271-6.975 1.234-2.016 1.517-3.725 4.006-5.127 7.044Zm16.074-7.775h.001l.019-.001.091-.005c.085-.007.22-.02.412-.046.381-.053.984-.16 1.852-.378.16-.04.326.036.4.184l1.406 2.82a.352.352 0 0 1-.381.504l-3.867-.753a.345.345 0 0 1-.073-.022l-.703-.305a.352.352 0 0 1-.175-.166c-.06-.121-.272-.31-.688-.503a5.964 5.964 0 0 0-1.482-.435c-1.152-.194-2.434-.125-3.318.381l-.193.11c-1.273.722-3.63 2.059-5.923 5.782-2.413 3.922-4.769 10.516-5.652 21.867l.053.032c.134.078.344.17.63.283.235.092.507.193.811.306l.194.072c.381.142.803.3 1.248.478a.352.352 0 0 1-.129.68l-7.031.047a.353.353 0 0 1-.317-.195l-1.406-2.82a.352.352 0 0 1 .399-.5l2.402.602c.395-6.478 1.918-14.493 4.708-20.54 1.426-3.089 3.195-5.696 5.343-7.312 2.165-1.629 4.705-2.243 7.605-1.344 1.336.414 2.117.702 2.629.89l.184.068c.502.183.664.227.94.219h.011ZM106.301 59.878l2.465-.62a.353.353 0 0 1 .412.473l-1.406 3.525a.352.352 0 0 1-.396.214l-7.031-1.41a.352.352 0 0 1-.042-.68l1.809-.604c-1.937-8.816-4.984-22.102-8.886-33.49-1.974-5.764-4.162-11.024-6.528-14.97-1.182-1.972-2.402-3.604-3.653-4.805-1.252-1.201-2.517-1.954-3.791-2.2-1.433-.279-2.974.204-4.53 1.218-1.551 1.011-3.076 2.528-4.454 4.24-2.646 3.289-4.687 7.222-5.301 9.5l2.185.939a.353.353 0 0 1-.12.676l-7.032.352a.351.351 0 0 1-.332-.51l1.406-2.82a.352.352 0 0 1 .51-.135l.671.449c.868-2.547 2.47-6.236 5.067-9.395 2.757-3.351 6.652-6.126 11.987-6.27 1.411-.04 2.815.57 4.184 1.645 1.37 1.076 2.73 2.636 4.069 4.554 2.675 3.837 5.295 9.161 7.717 15.063 4.786 11.662 8.829 25.648 11.02 35.06ZM83.061 5.755c-1.295-1.016-2.541-1.528-3.73-1.496-5.073.137-8.794 2.767-11.464 6.014-2.674 3.252-4.274 7.101-5.087 9.605a.352.352 0 0 1-.53.184l-.723-.483-.959 1.923 4.913-.246-1.065-.458a.353.353 0 0 1-.204-.403c.543-2.361 2.71-6.589 5.511-10.07 1.404-1.743 2.983-3.32 4.618-4.387 1.634-1.065 3.364-1.647 5.046-1.32 1.45.281 2.833 1.126 4.144 2.384 1.312 1.259 2.569 2.947 3.77 4.951 2.403 4.008 4.61 9.322 6.59 15.103 3.962 11.565 7.042 25.066 8.976 33.879a.354.354 0 0 1-.232.41l-.854.285 5.446 1.092 1.042-2.612-2.144.538a.349.349 0 0 1-.428-.262C103.532 51 99.458 36.848 94.631 25.085c-2.415-5.884-5.011-11.152-7.644-14.927-1.316-1.887-2.632-3.387-3.925-4.403Z" fill="#22222A"/><path fill-rule="evenodd" clip-rule="evenodd" d="M39.243 37.124c-5.34 3.116-10.313 7.058-13.091 10.365a.35.35 0 0 1-.27.126h-3.61l3.509 2.977 1.903-3.498a.33.33 0 0 1 .045-.066c2.82-3.181 12.452-13.63 27.672-14.218 9.277-.358 18.212 4.857 25.735 11.59 7.532 6.74 13.704 15.053 17.465 21.003.055.087.07.193.04.291l-.786 2.629 4.459-2.795-2.955-2.962v1.617a.353.353 0 0 1-.275.343.35.35 0 0 1-.395-.195c-2.446-5.256-7.063-13.253-15.742-21.394-5.424-5.087-9.952-7.875-14.418-9.397-4.47-1.523-8.905-1.787-14.17-1.787-4.12 0-9.766 2.25-15.116 5.371Zm-.353-.609c5.372-3.135 11.153-5.468 15.47-5.468 5.281 0 9.811.264 14.394 1.826 4.587 1.562 9.2 4.415 14.674 9.55 8.023 7.526 12.612 14.936 15.228 20.215v-.923a.353.353 0 0 1 .6-.25l3.868 3.878a.352.352 0 0 1-.063.549l-5.625 3.524a.352.352 0 0 1-.523-.4l1.008-3.37c-3.746-5.907-9.842-14.087-17.253-20.72-7.477-6.692-16.237-11.759-25.24-11.411-14.862.573-24.309 10.754-27.146 13.952l-2.09 3.842a.352.352 0 0 1-.536.1l-4.57-3.877a.354.354 0 0 1 .227-.622h4.407c2.865-3.362 7.853-7.293 13.17-10.395Z" fill="#22222A"/><path d="m121.525 40.427-5.845-5.869a6.676 6.676 0 0 0-2.418-1.465c-1.998-.667-3.985-.146-5.595 1.465l-5.859 5.869a6.669 6.669 0 0 0-1.462 2.424c-.668 2.003-.148 3.995 1.462 5.607l5.852 5.869a6.64 6.64 0 0 0 2.416 1.465c.545.185 1.117.28 1.693.283 1.404 0 2.748-.595 3.901-1.748l5.85-5.869a6.695 6.695 0 0 0 1.464-2.424c.664-2.003.145-3.993-1.464-5.607h.005Zm-9.41-4.166c.443.142.85.376 1.196.686l1.729 1.736-3.372 3.38-3.372-3.382 1.739-1.746c.466-.465 1.124-.96 2.085-.676l-.005.002Zm-8.604 7.727c.142-.444.376-.852.686-1.2l1.729-1.733 3.372 3.382-3.374 3.381-1.739-1.746c-.466-.465-.957-1.125-.677-2.089l.003.005Zm7.705 8.629a3.271 3.271 0 0 1-1.195-.686l-1.725-1.715 3.372-3.384 3.372 3.382-1.738 1.746c-.467.465-1.122.959-2.086.676v-.02Zm8.611-7.71a3.34 3.34 0 0 1-.685 1.199l-1.729 1.712-3.372-3.381 3.372-3.382 1.739 1.743c.466.466.957 1.125.677 2.09" fill="#00ABE4"/><path d="M10.844 31.694c0 .274.03.496.082.659.059.163.133.34.236.533.037.059.051.118.051.17 0 .074-.044.148-.14.222l-.465.311a.353.353 0 0 1-.192.067c-.074 0-.148-.037-.221-.104a2.28 2.28 0 0 1-.266-.348 5.72 5.72 0 0 1-.229-.437c-.576.681-1.3 1.022-2.17 1.022-.62 0-1.115-.178-1.477-.533-.362-.355-.546-.83-.546-1.421 0-.63.221-1.14.671-1.525.45-.385 1.049-.578 1.81-.578.25 0 .509.023.782.06.273.036.554.096.849.162v-.54c0-.563-.118-.955-.347-1.184-.236-.23-.635-.34-1.204-.34-.258 0-.524.029-.797.095a5.86 5.86 0 0 0-.797.252 2.115 2.115 0 0 1-.259.096.452.452 0 0 1-.118.022c-.103 0-.155-.074-.155-.23v-.362c0-.118.015-.207.052-.259a.553.553 0 0 1 .207-.155c.258-.134.568-.245.93-.333.362-.097.745-.141 1.152-.141.878 0 1.52.2 1.934.6.406.4.613 1.006.613 1.82v2.399h.014Zm-2.997 1.125c.244 0 .495-.044.76-.133.266-.089.502-.252.702-.474.118-.14.206-.296.25-.474.045-.177.075-.392.075-.644v-.31a6.153 6.153 0 0 0-.68-.126 5.55 5.55 0 0 0-.694-.045c-.494 0-.856.096-1.1.296-.243.2-.361.481-.361.852 0 .348.088.607.273.784.177.185.435.274.775.274Zm5.928.8c-.133 0-.221-.023-.28-.074-.06-.045-.11-.148-.155-.29l-1.735-5.721a1.297 1.297 0 0 1-.067-.296c0-.119.06-.185.178-.185h.723c.14 0 .236.022.288.074.059.044.103.148.148.288l1.24 4.9 1.152-4.9c.037-.148.08-.244.14-.288a.507.507 0 0 1 .295-.074h.59c.141 0 .237.022.296.074.06.044.11.148.14.288l1.167 4.96 1.277-4.96c.044-.148.096-.244.148-.288a.481.481 0 0 1 .288-.074h.686c.119 0 .185.059.185.185 0 .037-.007.074-.015.118a1.06 1.06 0 0 1-.051.185l-1.78 5.722c-.044.148-.096.245-.155.289a.472.472 0 0 1-.28.074h-.635c-.14 0-.236-.022-.296-.074-.059-.052-.11-.148-.14-.296l-1.144-4.775-1.137 4.767c-.037.149-.081.245-.14.297-.06.051-.163.074-.296.074h-.635Zm9.487.2c-.384 0-.768-.045-1.137-.134-.369-.089-.657-.185-.849-.296-.118-.066-.2-.14-.229-.207a.524.524 0 0 1-.044-.207v-.378c0-.155.06-.23.17-.23.044 0 .089.008.133.023.044.015.11.044.184.074.251.11.525.2.813.259.295.06.583.089.878.089.465 0 .827-.082 1.078-.245a.798.798 0 0 0 .384-.703.722.722 0 0 0-.2-.518c-.132-.14-.383-.267-.745-.385l-1.07-.333c-.54-.17-.938-.422-1.182-.755a1.767 1.767 0 0 1-.37-1.073c0-.311.067-.585.2-.822s.31-.444.532-.607c.221-.17.472-.296.768-.385a3.21 3.21 0 0 1 .93-.126c.162 0 .332.008.494.03.17.022.325.052.48.081.148.037.288.074.421.119.133.044.236.088.31.133.104.059.178.118.222.185a.4.4 0 0 1 .066.244V28c0 .155-.059.237-.17.237a.765.765 0 0 1-.28-.089 3.37 3.37 0 0 0-1.418-.289c-.42 0-.753.067-.982.208-.228.14-.347.355-.347.659a.7.7 0 0 0 .222.525c.148.14.42.281.812.407l1.048.333c.532.17.916.407 1.145.711.229.303.34.651.34 1.036 0 .319-.067.607-.193.86a1.99 1.99 0 0 1-.538.65 2.378 2.378 0 0 1-.82.415c-.332.104-.68.156-1.056.156Z" fill="#252F3E"/><path d="M24.657 37.416c-2.428 1.799-5.957 2.754-8.992 2.754-4.252 0-8.084-1.577-10.978-4.197-.229-.208-.022-.489.251-.326 3.13 1.821 6.992 2.924 10.986 2.924 2.694 0 5.655-.563 8.38-1.717.405-.185.752.266.354.562Zm1.012-1.155c-.31-.4-2.052-.192-2.842-.096-.237.03-.274-.178-.06-.333 1.388-.977 3.67-.696 3.936-.37.265.333-.074 2.62-1.374 3.716-.199.17-.39.081-.302-.14.295-.733.952-2.384.642-2.777Z" fill="#F90"/><path d="M148.957 18.342a.327.327 0 0 0-.209.028.343.343 0 0 0-.165.443l-.002.004.782 1.894a4.007 4.007 0 0 0 1.613-2.032l-2.015-.341-.004.004Zm-3.134.268a.344.344 0 0 0-.327-.266.347.347 0 0 0-.068.006l-.003-.004-1.997.34c.3.832.865 1.54 1.608 2.017l.774-1.875-.006-.007a.345.345 0 0 0 .019-.21Zm1.672.736a.327.327 0 0 0-.126-.132.335.335 0 0 0-.35 0 .347.347 0 0 0-.125.132h-.001l-.983 1.78a3.992 3.992 0 0 0 2.577.003l-.984-1.784h-.008Zm3.11-4.137-1.511 1.356v.005a.346.346 0 0 0-.108.334.341.341 0 0 0 .242.254l.002.008 1.957.565a4.08 4.08 0 0 0-.582-2.521Zm-2.808.152a.345.345 0 0 0 .193.293.343.343 0 0 0 .349-.032l.006.003 1.653-1.176a4.012 4.012 0 0 0-2.318-1.12l.115 2.032h.002Zm-1.751.269a.339.339 0 0 0 .485-.089.346.346 0 0 0 .057-.173l.008-.004.115-2.035a3.99 3.99 0 0 0-2.333 1.12l1.665 1.183.003-.002Zm-.887 1.537a.334.334 0 0 0 .156-.093.342.342 0 0 0-.022-.495l.002-.008-1.52-1.362a4.006 4.006 0 0 0-.565 2.529l1.947-.564.002-.007Zm1.476.6.56.27.559-.27.139-.605-.387-.485h-.622l-.389.484.14.605Z" fill="#326CE5"/><path d="m156.461 18.958-1.597-6.956a1.248 1.248 0 0 0-.669-.834l-6.465-3.095a1.241 1.241 0 0 0-1.073 0l-6.463 3.097a1.242 1.242 0 0 0-.669.834l-1.594 6.955a1.218 1.218 0 0 0 .044.692c.032.088.072.172.123.25.023.035.045.067.07.099l4.474 5.577c.02.024.041.046.063.069a1.21 1.21 0 0 0 .589.35c.103.028.208.043.315.044h.069l7.105-.002a1.19 1.19 0 0 0 .312-.042c.043-.012.085-.025.127-.041a1.274 1.274 0 0 0 .528-.379l.136-.17 4.336-5.408a1.195 1.195 0 0 0 .239-.507 1.231 1.231 0 0 0 0-.533Zm-6.706 2.705c.018.054.04.106.065.157a.305.305 0 0 0-.03.229c.094.216.208.422.343.616.075.099.144.202.207.309.016.029.036.073.051.104a.396.396 0 0 1 .053.153.398.398 0 0 1-.221.4.384.384 0 0 1-.447-.084.375.375 0 0 1-.084-.137c-.015-.03-.036-.071-.049-.1a3.38 3.38 0 0 1-.111-.355 3.647 3.647 0 0 0-.266-.653.305.305 0 0 0-.198-.12l-.082-.149a4.994 4.994 0 0 1-3.57-.01l-.088.16a.312.312 0 0 0-.167.081 2.723 2.723 0 0 0-.3.697c-.03.12-.067.24-.111.356l-.048.099-.001.001a.39.39 0 0 1-.375.258.39.39 0 0 1-.376-.438.395.395 0 0 1 .053-.152c.014-.031.034-.076.049-.105a3.05 3.05 0 0 1 .208-.31c.136-.198.253-.41.35-.63a.386.386 0 0 0-.035-.22l.071-.17a5.047 5.047 0 0 1-2.231-2.792l-.169.028a.428.428 0 0 0-.222-.078c-.231.044-.457.11-.675.199a3.266 3.266 0 0 1-.347.133c-.028.008-.068.015-.101.023l-.007.002h-.005a.39.39 0 0 1-.433-.137.378.378 0 0 1-.067-.146.38.38 0 0 1 .06-.309.388.388 0 0 1 .268-.163l.005-.002h.004c.032-.008.073-.019.103-.025.123-.017.247-.027.371-.03.234-.015.466-.053.694-.114a.534.534 0 0 0 .166-.168l.162-.047a5.025 5.025 0 0 1 .79-3.5l-.124-.11a.438.438 0 0 0-.078-.225 3.618 3.618 0 0 0-.575-.405 3.277 3.277 0 0 1-.322-.188l-.08-.065-.006-.004a.42.42 0 0 1-.165-.266.415.415 0 0 1 .071-.306.375.375 0 0 1 .308-.136c.098.004.193.04.27.102.026.02.062.048.085.068.09.085.175.176.255.271a3.6 3.6 0 0 0 .522.473.303.303 0 0 0 .229.022l.14.1a4.973 4.973 0 0 1 3.228-1.556l.009-.164a.423.423 0 0 0 .125-.201 3.68 3.68 0 0 0-.043-.704 3.525 3.525 0 0 1-.053-.369l.001-.099-.001-.01a.398.398 0 0 1 .099-.302.383.383 0 0 1 .288-.128.392.392 0 0 1 .388.429v.11c-.01.124-.029.247-.053.369a3.684 3.684 0 0 0-.044.704.31.31 0 0 0 .127.194c.001.028.005.121.009.173a5.063 5.063 0 0 1 3.211 1.556l.148-.106c.078.014.16.005.235-.025.188-.14.362-.3.521-.473.08-.096.165-.186.256-.272.023-.02.059-.047.085-.068a.384.384 0 0 1 .296-.112.383.383 0 0 1 .282.146.391.391 0 0 1 .079.308.378.378 0 0 1-.06.15.375.375 0 0 1-.115.114l-.085.07a3.224 3.224 0 0 1-.321.187 3.587 3.587 0 0 0-.576.406.309.309 0 0 0-.073.22l-.137.123a5.051 5.051 0 0 1 .806 3.491l.157.046c.038.07.096.128.166.168.227.06.46.099.694.114.124.003.248.013.371.03.032.006.079.02.112.027a.382.382 0 0 1 .269.163.4.4 0 0 1 .063.149.38.38 0 0 1-.071.307.385.385 0 0 1-.432.137l-.006-.001c-.003 0-.005-.002-.008-.003-.032-.007-.072-.014-.099-.021a3.33 3.33 0 0 1-.348-.135 3.585 3.585 0 0 0-.675-.198.306.306 0 0 0-.216.08l-.165-.029a5.048 5.048 0 0 1-2.231 2.813Z" fill="#326CE5"/><path d="m157.304 19.136-1.742-7.588a1.37 1.37 0 0 0-.73-.91l-7.053-3.376a1.35 1.35 0 0 0-1.17 0l-7.053 3.378a1.37 1.37 0 0 0-.729.91l-1.74 7.588a1.345 1.345 0 0 0 .184 1.028c.023.037.049.073.076.107l4.881 6.085a1.378 1.378 0 0 0 1.054.505l7.828-.002a1.369 1.369 0 0 0 1.054-.504l4.88-6.086a1.366 1.366 0 0 0 .26-1.134Zm-.843.356a1.252 1.252 0 0 1-.239.506l-4.336 5.408-.136.17a1.232 1.232 0 0 1-.528.379 1.321 1.321 0 0 1-.439.083l-7.105.002h-.07a1.28 1.28 0 0 1-.667-.198 1.24 1.24 0 0 1-.299-.265L138.168 20a1.224 1.224 0 0 1-.238-.506 1.218 1.218 0 0 1 .001-.535l1.594-6.955a1.26 1.26 0 0 1 .669-.834l6.463-3.096a1.245 1.245 0 0 1 1.073 0l6.465 3.094a1.243 1.243 0 0 1 .668.834l1.598 6.956c.039.176.039.358 0 .534Z" fill="#fff"/><path d="M153.674 18.4c-.033-.007-.08-.02-.112-.026a3.293 3.293 0 0 0-.371-.03 3.609 3.609 0 0 1-.694-.114.437.437 0 0 1-.167-.168l-.156-.046a5.051 5.051 0 0 0-.806-3.491l.137-.123a.309.309 0 0 1 .073-.22c.178-.154.371-.29.576-.405.11-.057.217-.12.321-.189l.085-.068a.388.388 0 0 0 .167-.427.392.392 0 0 0-.071-.145.398.398 0 0 0-.282-.147.383.383 0 0 0-.296.112c-.026.02-.062.048-.086.069a3.27 3.27 0 0 0-.255.27 3.664 3.664 0 0 1-.522.474.427.427 0 0 1-.234.025l-.148.106a5.064 5.064 0 0 0-3.211-1.556 6.011 6.011 0 0 1-.01-.173.313.313 0 0 1-.126-.194 3.603 3.603 0 0 1 .044-.704c.024-.122.042-.245.052-.369.002-.031 0-.076 0-.11a.382.382 0 0 0-.018-.16.382.382 0 0 0-.211-.236.393.393 0 0 0-.316 0 .39.39 0 0 0-.212.236c-.017.051-.022.106-.017.16l.001.011c0 .032-.002.071-.001.1.011.123.028.246.053.368.037.233.051.469.043.704a.422.422 0 0 1-.125.2l-.009.165a4.974 4.974 0 0 0-3.228 1.556 6 6 0 0 1-.14-.1.306.306 0 0 1-.23-.022 3.587 3.587 0 0 1-.521-.473 3.301 3.301 0 0 0-.255-.27c-.023-.021-.06-.049-.086-.07a.458.458 0 0 0-.27-.102.37.37 0 0 0-.307.137.415.415 0 0 0-.071.306.416.416 0 0 0 .165.266l.007.004c.025.021.056.048.079.065.104.069.21.131.321.188.204.116.397.252.576.405a.428.428 0 0 1 .077.224l.124.111a5.03 5.03 0 0 0-.789 3.5l-.163.047a.53.53 0 0 1-.165.168c-.228.06-.46.1-.694.115a3.202 3.202 0 0 0-.371.03c-.03.005-.071.016-.103.024h-.004l-.006.002a.393.393 0 0 0-.267.164.38.38 0 0 0-.06.309.379.379 0 0 0 .187.252.387.387 0 0 0 .313.031l.005-.001.007-.002c.033-.008.073-.015.101-.023.118-.038.233-.082.347-.133.218-.088.443-.155.675-.2a.432.432 0 0 1 .222.08l.169-.03a5.042 5.042 0 0 0 2.231 2.794l-.071.169a.386.386 0 0 1 .035.22 3.871 3.871 0 0 1-.35.63c-.076.1-.145.203-.208.31l-.05.105a.393.393 0 0 0 .167.552.389.389 0 0 0 .532-.22h.001v-.002l.048-.098c.044-.116.081-.235.111-.356.067-.245.168-.48.3-.697a.313.313 0 0 1 .167-.081l.087-.16a4.994 4.994 0 0 0 3.57.01l.083.149c.079.013.15.056.198.12.109.209.198.427.266.653.03.12.067.239.111.355l.048.1a.402.402 0 0 0 .217.229.39.39 0 0 0 .521-.247.393.393 0 0 0-.038-.313c-.015-.032-.035-.076-.051-.105a3.018 3.018 0 0 0-.207-.31 3.618 3.618 0 0 1-.343-.615.3.3 0 0 1 .03-.23 1.284 1.284 0 0 1-.065-.156 5.043 5.043 0 0 0 2.23-2.813c.05.008.138.023.166.03a.304.304 0 0 1 .216-.081c.231.044.457.11.675.199.113.051.229.096.348.134.027.007.067.014.099.021l.007.003h.006a.39.39 0 1 0 .172-.755Zm-3.676-3.95-1.653 1.175-.006-.003a.338.338 0 0 1-.349.032.345.345 0 0 1-.193-.293h-.001l-.116-2.032a4.012 4.012 0 0 1 2.318 1.12Zm-3.114 2.227h.622l.387.485-.139.604-.559.27-.56-.27-.14-.605.389-.484Zm-.586-3.277c.136-.03.274-.055.413-.071l-.115 2.034-.008.005a.346.346 0 0 1-.193.293.341.341 0 0 1-.349-.031l-.003.002-1.664-1.184a3.984 3.984 0 0 1 1.919-1.048Zm-2.523 1.809 1.52 1.362-.002.009a.341.341 0 0 1 .108.334.34.34 0 0 1-.242.254l-.002.006-1.947.564a4.006 4.006 0 0 1 .565-2.53Zm2.035 3.62-.774 1.874a4.016 4.016 0 0 1-1.608-2.017l1.997-.34.004.004a.33.33 0 0 1 .226.037.337.337 0 0 1 .175.27.34.34 0 0 1-.026.164l.006.008Zm2.284 2.41a3.993 3.993 0 0 1-2.184-.112l.983-1.78h.001a.348.348 0 0 1 .3-.18.337.337 0 0 1 .301.179h.008l.984 1.784c-.128.042-.259.079-.393.11Zm1.269-.528-.782-1.894.002-.003a.345.345 0 0 1 .165-.444.337.337 0 0 1 .21-.028l.003-.004 2.015.341a4.007 4.007 0 0 1-1.613 2.032Zm1.824-2.98-1.957-.565-.002-.009a.347.347 0 0 1-.242-.253.34.34 0 0 1 .108-.334v-.004l1.511-1.356a4.08 4.08 0 0 1 .582 2.52Z" fill="#fff"/><defs><radialGradient id="a" cx="0" cy="0" r="1" gradientUnits="userSpaceOnUse" gradientTransform="matrix(-.08795 18.9093 -45.7446 -.21277 115.445 77.094)"><stop stop-color="#C4C4C4"/><stop offset="1" stop-color="#C4C4C4" stop-opacity="0"/></radialGradient><radialGradient id="b" cx="0" cy="0" r="1" gradientUnits="userSpaceOnUse" gradientTransform="matrix(185.62502 78.25498 -169.99051 403.22666 33.969 45.5)"><stop offset=".438" stop-color="#BFBCBC"/><stop offset="1" stop-color="#C4C4C4" stop-opacity="0"/></radialGradient></defs></svg>