<svg width="30" height="30" viewBox="0 0 30 30" fill="none" xmlns="http://www.w3.org/2000/svg">
<g clip-path="url(#clip0)">
<path d="M7.25819 3.87109C5.39099 3.87109 3.87109 5.39099 3.87109 7.25819C3.87109 9.12539 5.39099 10.6453 7.25819 10.6453C9.12539 10.6453 10.6453 9.12539 10.6453 7.25819C10.6453 5.39099 9.12539 3.87109 7.25819 3.87109ZM7.25819 8.22593C6.72352 8.22593 6.29045 7.79286 6.29045 7.25819C6.29045 6.72352 6.72352 6.29045 7.25819 6.29045C7.79286 6.29045 8.22593 6.72352 8.22593 7.25819C8.22593 7.79286 7.79286 8.22593 7.25819 8.22593Z" fill="#F0BC5E"/>
<path d="M21.2918 16.4517C18.6237 16.4517 16.4531 18.6222 16.4531 21.2904C16.4531 23.9585 18.6237 26.1291 21.2918 26.1291C23.96 26.1291 26.1305 23.9585 26.1305 21.2904C26.1305 18.6222 23.96 16.4517 21.2918 16.4517ZM21.2918 23.7097C19.9558 23.7097 18.8725 22.6264 18.8725 21.2904C18.8725 19.9543 19.9558 18.871 21.2918 18.871C22.6279 18.871 23.7112 19.9543 23.7112 21.2904C23.7112 22.6264 22.6279 23.7097 21.2918 23.7097Z" fill="#F0BC5E"/>
<path d="M11.6139 22.879L5.98938 16.4517H4.97463L4.57888 17.6401L3.45875 17.0797L1.59674 18.9417L2.15716 20.0618L0.96875 20.4575V23.0905L2.15716 23.4862L1.59674 24.6064L3.45875 26.4684L4.57888 25.9079L4.97463 27.0968H7.60756L8.00331 25.9084L9.12344 26.4688L10.9854 24.6068L10.425 23.4867L11.6139 23.0909V22.879ZM6.29133 23.7097C5.22247 23.7097 4.35585 22.8431 4.35585 21.7742C4.35585 20.7054 5.22247 19.8388 6.29133 19.8388C7.36019 19.8388 8.22681 20.7054 8.22681 21.7742C8.22681 22.8431 7.36019 23.7097 6.29133 23.7097Z" fill="#F0BC5E"/>
<path d="M27.0983 4.97365L25.9099 4.5779L26.4703 3.45777L24.6083 1.59577L23.4882 2.15619L23.0924 0.967773H20.4595L20.0637 2.15619L18.9436 1.59577L17.0816 3.45777L17.642 4.5779L16.4531 4.97365V5.98557L22.8876 11.6129H23.0919L23.4877 10.4245L24.6078 10.9849L26.4698 9.12294L25.9094 8.0028L27.0983 7.60706V4.97365ZM21.7757 8.22584C20.7068 8.22584 19.8402 7.35922 19.8402 6.29035C19.8402 5.22149 20.7068 4.35487 21.7757 4.35487C22.8446 4.35487 23.7112 5.22149 23.7112 6.29035C23.7112 7.35922 22.8446 8.22584 21.7757 8.22584Z" fill="#F0BC5E"/>
<path d="M7.25617 12.5809V11.6131C4.85478 11.6131 2.90134 9.6597 2.90134 7.2583H1.93359C1.93359 10.1929 4.32153 12.5809 7.25617 12.5809Z" fill="black"/>
<path d="M7.2563 8.70987C8.05653 8.70987 8.70791 8.05848 8.70791 7.25825C8.70791 6.45802 8.05653 5.80664 7.2563 5.80664C6.45607 5.80664 5.80469 6.45802 5.80469 7.25825C5.80469 8.05848 6.45607 8.70987 7.2563 8.70987ZM7.2563 6.77438C7.52328 6.77438 7.74017 6.99127 7.74017 7.25825C7.74017 7.52523 7.52328 7.74212 7.2563 7.74212C6.98932 7.74212 6.77243 7.52523 6.77243 7.25825C6.77243 6.99127 6.98932 6.77438 7.2563 6.77438Z" fill="black"/>
<path d="M30 23.0855V19.4952L28.6906 19.0385C28.5437 18.5556 28.3513 18.0901 28.1158 17.6488L28.7187 16.4013L28.2514 15.934C28.035 15.6497 27.6799 15.2748 27.4112 15.0033C27.0769 14.6652 26.6913 14.2983 26.4296 14.0691L12.4689 1.86012C11.0981 0.660597 9.34027 0 7.51843 0V0.0129946C7.43125 0.0101594 7.34619 0 7.25806 0C3.25597 0 0 3.25597 0 7.25806C0 7.34619 0.0101594 7.43125 0.0129946 7.51843H0C0 9.34027 0.660597 11.0976 1.86012 12.4684L14.0677 26.4185C14.2877 26.6696 14.6177 27.0193 14.9284 27.3323C15.2226 27.6281 15.6275 28.018 15.9314 28.2497L16.4003 28.7187L17.6478 28.1158C18.0889 28.3509 18.5546 28.5437 19.0375 28.6906L19.4952 30H23.0855L23.5422 28.6906C24.0251 28.5437 24.4905 28.3513 24.9319 28.1158L26.1794 28.7187L28.7187 26.1794L28.1158 24.9319C28.3509 24.4905 28.5437 24.0251 28.6906 23.5422L30 23.0855ZM14.4649 17.6488C14.2298 18.0901 14.037 18.5556 13.89 19.0385L12.5806 19.4952V23.0855L13.89 23.5422C14.037 24.0251 14.2293 24.4905 14.4649 24.9319L14.3181 25.2352L4.43895 13.946C5.30604 14.3129 6.2589 14.5161 7.25806 14.5161C11.2602 14.5161 14.5161 11.2602 14.5161 7.25806C14.5161 6.25795 14.3129 5.30462 13.9455 4.43706L25.2416 14.3153L24.9323 14.4649C24.4912 14.2298 24.0256 14.037 23.5426 13.89L23.0855 12.5806H19.4952L19.0385 13.89C18.5556 14.037 18.0901 14.2293 17.6488 14.4649L16.4013 13.8619L13.8619 16.4013L14.4649 17.6488ZM7.25806 0.967742C10.7264 0.967742 13.5484 3.78969 13.5484 7.25806C13.5484 10.7264 10.7264 13.5484 7.25806 13.5484C3.78969 13.5484 0.967742 10.7264 0.967742 7.25806C0.967742 3.78969 3.78969 0.967742 7.25806 0.967742ZM27.8932 22.7956L27.8268 23.0429C27.673 23.6178 27.4462 24.1664 27.1525 24.6741L27.0238 24.8962L27.5478 25.9809L25.9809 27.5478L24.8962 27.0238L24.6741 27.1525C24.1664 27.4457 23.6173 27.6726 23.0429 27.8268L22.7956 27.8932L22.3984 29.0323H20.1822L19.7851 27.8932L19.5377 27.8268C18.9629 27.673 18.4143 27.4462 17.9065 27.1525L17.6844 27.0238L16.5998 27.5478L15.0328 25.9809L15.5569 24.8962L15.4281 24.6741C15.1349 24.1664 14.9081 23.6173 14.7538 23.0429L14.6874 22.7956L13.5484 22.3984V20.1822L14.6874 19.7851L14.7538 19.5377C14.9076 18.9629 15.1344 18.4143 15.4281 17.9065L15.5569 17.6844L15.0328 16.5998L16.5998 15.0328L17.6844 15.5569L17.9065 15.4281C18.4143 15.1349 18.9633 14.9081 19.5377 14.7538L19.7851 14.6874L20.1822 13.5484H22.3984L22.7956 14.6874L23.0429 14.7538C23.6178 14.9076 24.1664 15.1344 24.6741 15.4281L24.8962 15.5569L25.9809 15.0328L27.5478 16.5998L27.0238 17.6844L27.1525 17.9065C27.4457 18.4143 27.6726 18.9633 27.8268 19.5377L27.8932 19.7851L29.0323 20.1822V22.3984L27.8932 22.7956Z" fill="black"/>
<path d="M21.2899 18.3872C19.6888 18.3872 18.3867 19.6893 18.3867 21.2904C18.3867 22.8916 19.6888 24.1937 21.2899 24.1937C22.8911 24.1937 24.1932 22.8916 24.1932 21.2904C24.1932 19.6893 22.8911 18.3872 21.2899 18.3872ZM21.2899 23.2259C20.2225 23.2259 19.3545 22.3579 19.3545 21.2904C19.3545 20.223 20.2225 19.3549 21.2899 19.3549C22.3574 19.3549 23.2254 20.223 23.2254 21.2904C23.2254 22.3579 22.3574 23.2259 21.2899 23.2259Z" fill="black"/>
<path d="M21.7748 8.7098C23.1088 8.7098 24.1942 7.6244 24.1942 6.29045C24.1942 4.9565 23.1088 3.87109 21.7748 3.87109C20.4409 3.87109 19.3555 4.9565 19.3555 6.29045C19.3555 7.6244 20.4409 8.7098 21.7748 8.7098ZM21.7748 4.83884C22.5751 4.83884 23.2264 5.49022 23.2264 6.29045C23.2264 7.09068 22.5751 7.74206 21.7748 7.74206C20.9746 7.74206 20.3232 7.09068 20.3232 6.29045C20.3232 5.49022 20.9746 4.83884 21.7748 4.83884Z" fill="black"/>
<path d="M6.29045 19.355C4.9565 19.355 3.87109 20.4404 3.87109 21.7743C3.87109 23.1083 4.9565 24.1937 6.29045 24.1937C7.6244 24.1937 8.7098 23.1083 8.7098 21.7743C8.7098 20.4404 7.6244 19.355 6.29045 19.355ZM6.29045 23.2259C5.49022 23.2259 4.83884 22.5746 4.83884 21.7743C4.83884 20.9741 5.49022 20.3227 6.29045 20.3227C7.09068 20.3227 7.74206 20.9741 7.74206 21.7743C7.74206 22.5746 7.09068 23.2259 6.29045 23.2259Z" fill="black"/>
</g>
<defs>
<clipPath id="clip0">
<rect width="30" height="30" fill="white"/>
</clipPath>
</defs>
</svg>
