<svg width="29" height="31" viewBox="0 0 29 31" fill="none" xmlns="http://www.w3.org/2000/svg">
<path d="M21.7486 9.08203H3.71875V12.1094H21.7486C22.3886 12.1094 22.9097 12.6664 22.9097 13.3506V23.0684C22.9097 23.7525 22.3886 24.3096 21.7486 24.3096H6.66418H5.00098H3.71875V27.3369H21.7486C23.9508 27.3369 25.7418 25.4224 25.7418 23.0684V13.3506C25.7418 10.9965 23.9508 9.08203 21.7486 9.08203Z" fill="#8AC6DD"/>
<path d="M21.7505 8.90039H3.7207C3.62691 8.90039 3.55078 8.98164 3.55078 9.08203V12.1094C3.55078 12.2098 3.62691 12.291 3.7207 12.291H21.7505C22.2971 12.291 22.7418 12.7663 22.7418 13.3506V23.0684C22.7418 23.6526 22.2971 24.1279 21.7505 24.1279H6.66624C6.57245 24.1279 6.49632 24.2092 6.49632 24.3096C6.49632 24.41 6.57245 24.4912 6.66624 24.4912H21.7505C22.4845 24.4912 23.0816 23.8529 23.0816 23.0684V13.3506C23.0816 12.566 22.4845 11.9277 21.7505 11.9277H3.89062V9.26367H21.7505C23.8586 9.26367 25.5738 11.097 25.5738 13.3506V23.0684C25.5738 25.3219 23.8586 27.1553 21.7505 27.1553H3.89062V24.4912H5.00293C5.09673 24.4912 5.17286 24.41 5.17286 24.3096C5.17286 24.2092 5.09673 24.1279 5.00293 24.1279H3.7207C3.62691 24.1279 3.55078 24.2092 3.55078 24.3096V27.3369C3.55078 27.4373 3.62691 27.5186 3.7207 27.5186H21.7505C24.0461 27.5186 25.9136 25.5222 25.9136 23.0684V13.3506C25.9136 10.8967 24.0461 8.90039 21.7505 8.90039Z" fill="#3A312A"/>
<path d="M25.5888 3.18115C25.4784 4.58148 24.1133 4.8026 24.1133 4.8026C25.2854 4.86157 25.5774 6.50505 25.5774 6.50505C25.6025 5.33323 27.0865 4.78528 27.0865 4.78528C25.9748 4.71408 25.5888 3.18115 25.5888 3.18115Z" fill="#D7E057"/>
<path d="M27.0946 4.60408C26.1199 4.54184 25.7543 3.14805 25.7507 3.13401C25.7292 3.049 25.6545 2.99378 25.5713 3.00056C25.4892 3.00855 25.4243 3.0783 25.4174 3.1661C25.3199 4.40307 24.1358 4.61474 24.0858 4.6231C23.9994 4.63702 23.9371 4.71876 23.9416 4.81212C23.9462 4.90537 24.0161 4.97972 24.1034 4.9842C25.126 5.03566 25.4059 6.52439 25.4085 6.5394C25.4242 6.6255 25.4946 6.68678 25.5754 6.68678C25.5801 6.68678 25.5849 6.68665 25.5897 6.68617C25.6763 6.67842 25.7434 6.60225 25.7454 6.50949C25.7673 5.47911 27.1264 4.96228 27.1402 4.95719C27.2168 4.92874 27.264 4.84651 27.2528 4.76066C27.2415 4.6748 27.1755 4.60929 27.0946 4.60408ZM25.5577 5.85692C25.4041 5.47778 25.1377 5.0204 24.6982 4.78197C25.0303 4.61196 25.4243 4.30813 25.6274 3.78028C25.8031 4.15216 26.103 4.61341 26.5715 4.83646C26.2308 5.03506 25.7873 5.36988 25.5577 5.85692Z" fill="#3A312A"/>
<path d="M23.1296 5.23779C23.0515 6.22822 22.0859 6.38455 22.0859 6.38455C22.9149 6.42621 23.1216 7.58871 23.1216 7.58871C23.1392 6.75994 24.1889 6.37232 24.1889 6.37232C23.4027 6.32219 23.1296 5.23779 23.1296 5.23779Z" fill="#D7E057"/>
<path d="M24.1969 6.19093C23.5437 6.14916 23.2938 5.19978 23.2913 5.19021C23.2699 5.10521 23.1934 5.04962 23.1122 5.05677C23.03 5.06464 22.965 5.13463 22.9581 5.22243C22.8926 6.05446 22.0919 6.19917 22.0585 6.20486C21.9721 6.21878 21.9098 6.30052 21.9143 6.39389C21.9188 6.48713 21.9887 6.56148 22.0761 6.56596C22.7596 6.60035 22.9509 7.61269 22.9526 7.62262C22.968 7.70884 23.0386 7.77036 23.1195 7.77036C23.1241 7.77036 23.1289 7.77024 23.1337 7.76975C23.2203 7.76212 23.2875 7.68571 23.2895 7.59283C23.3043 6.90151 24.2333 6.54731 24.2425 6.54392C24.319 6.51558 24.3663 6.43336 24.3553 6.34751C24.3441 6.26177 24.2778 6.19614 24.1969 6.19093ZM23.1111 7.01376C23.0064 6.78538 22.846 6.53581 22.6075 6.37439C22.8176 6.24833 23.0263 6.05591 23.1591 5.77909C23.279 6.00602 23.4598 6.2579 23.7189 6.41157C23.5094 6.54489 23.267 6.74348 23.1111 7.01376Z" fill="#3A312A"/>
<path d="M23.1296 2.00928C23.0515 2.9997 22.0859 3.15616 22.0859 3.15616C22.9149 3.19781 23.1216 4.36031 23.1216 4.36031C23.1392 3.53143 24.1889 3.14393 24.1889 3.14393C23.4027 3.09355 23.1296 2.00928 23.1296 2.00928Z" fill="#D7E057"/>
<path d="M24.1969 2.96299C23.5437 2.92121 23.2938 1.97172 23.2913 1.96215C23.2699 1.87714 23.1934 1.8218 23.1122 1.8287C23.03 1.83658 22.965 1.90657 22.9581 1.99436C22.8926 2.8264 22.0919 2.97122 22.0585 2.97692C21.9721 2.99084 21.9098 3.07258 21.9143 3.16594C21.9188 3.25919 21.9887 3.33354 22.0761 3.33802C22.7596 3.37241 22.9509 4.38475 22.9526 4.39468C22.968 4.48102 23.0386 4.54242 23.1195 4.54242C23.1241 4.54242 23.1289 4.5423 23.1337 4.54181C23.2203 4.53418 23.2875 4.45777 23.2895 4.36489C23.3043 3.67357 24.2333 3.31937 24.2425 3.31598C24.319 3.28764 24.3663 3.20542 24.3553 3.11956C24.3441 3.03371 24.2778 2.9682 24.1969 2.96299ZM23.1111 3.78582C23.0064 3.55756 22.846 3.30787 22.6075 3.14645C22.8176 3.02039 23.0263 2.82809 23.1591 2.55115C23.279 2.77808 23.4598 3.02995 23.7189 3.18362C23.5094 3.31695 23.267 3.51542 23.1111 3.78582Z" fill="#3A312A"/>
<path d="M15.1716 3.92236H13.8281V5.90104H15.1716V3.92236Z" fill="#87796F"/>
<path d="M15.1736 3.74072H13.8301C13.7363 3.74072 13.6602 3.82198 13.6602 3.92236V5.90104C13.6602 6.00142 13.7363 6.08268 13.8301 6.08268H15.1736C15.2674 6.08268 15.3435 6.00142 15.3435 5.90104V3.92236C15.3435 3.82198 15.2674 3.74072 15.1736 3.74072ZM15.0037 5.71927H14V4.10388H15.0037V5.71927Z" fill="#3A312A"/>
<path d="M16.9274 2.00537H12.0762C11.581 2.00537 11.1797 2.43441 11.1797 2.96383C11.1797 3.49313 11.581 3.92228 12.0762 3.92228H16.9274C17.4225 3.92228 17.824 3.49313 17.824 2.96383C17.824 2.43453 17.4226 2.00537 16.9274 2.00537Z" fill="#87796F"/>
<path d="M16.9254 1.82373H14.9841C14.8903 1.82373 14.8142 1.90498 14.8142 2.00537C14.8142 2.10576 14.8903 2.18701 14.9841 2.18701H16.9254C17.3261 2.18701 17.6521 2.53552 17.6521 2.96383C17.6521 3.39214 17.3261 3.74064 16.9254 3.74064H12.0744C11.6737 3.74064 11.3477 3.39226 11.3477 2.96383C11.3477 2.5354 11.6737 2.18701 12.0744 2.18701H13.3361C13.4299 2.18701 13.506 2.10576 13.506 2.00537C13.506 1.90498 13.4299 1.82373 13.3361 1.82373H12.0744C11.4863 1.82373 11.0078 2.33523 11.0078 2.96383C11.0078 3.59243 11.4863 4.10393 12.0744 4.10393H16.9254C17.5134 4.10393 17.9919 3.59255 17.9919 2.96383C17.9919 2.33511 17.5136 1.82373 16.9254 1.82373Z" fill="#3A312A"/>
<path d="M20.8864 7.44531C20.3774 7.44531 19.9648 7.88634 19.9648 8.43041V12.7922C19.9648 13.3363 20.3774 13.7773 20.8864 13.7773C21.3954 13.7773 21.8079 13.3363 21.8079 12.7922V8.43041C21.808 7.88646 21.3954 7.44531 20.8864 7.44531Z" fill="#F16C7A"/>
<path d="M20.8885 7.26367C20.2866 7.26367 19.7969 7.78704 19.7969 8.43041V12.7922C19.7969 13.4356 20.2865 13.9589 20.8885 13.9589C21.4903 13.9589 21.9799 13.4356 21.9799 12.7922V8.43041C21.9799 7.78716 21.4902 7.26367 20.8885 7.26367ZM21.6401 12.7923C21.6401 13.2354 21.3028 13.5958 20.8885 13.5958C20.474 13.5958 20.1367 13.2353 20.1367 12.7923V8.43053C20.1367 7.98745 20.474 7.62707 20.8885 7.62707C21.3028 7.62707 21.6401 7.98757 21.6401 8.43053V12.7923Z" fill="#3A312A"/>
<path d="M8.11295 7.44531C7.60398 7.44531 7.19141 7.88634 7.19141 8.43041V12.7922C7.19141 13.3363 7.60398 13.7773 8.11295 13.7773C8.62192 13.7773 9.03449 13.3363 9.03449 12.7922V8.43041C9.03449 7.88646 8.62192 7.44531 8.11295 7.44531Z" fill="#F16C7A"/>
<path d="M8.11502 7.26367C7.51315 7.26367 7.02344 7.78704 7.02344 8.43041V12.7922C7.02344 13.4356 7.51304 13.9589 8.11502 13.9589C8.71688 13.9589 9.20648 13.4356 9.20648 12.7922V8.43041C9.20648 7.78716 8.71688 7.26367 8.11502 7.26367ZM8.86664 12.7923C8.86664 13.2354 8.5294 13.5958 8.11502 13.5958C7.70052 13.5958 7.36328 13.2353 7.36328 12.7923V8.43053C7.36328 7.98745 7.70052 7.62707 8.11502 7.62707C8.5294 7.62707 8.86664 7.98757 8.86664 8.43053V12.7923Z" fill="#3A312A"/>
<path d="M2.80045 7.44531C2.29148 7.44531 1.87891 7.88634 1.87891 8.43041V12.7922C1.87891 13.3363 2.29148 13.7773 2.80045 13.7773C3.30942 13.7773 3.72199 13.3363 3.72199 12.7922V8.43041C3.72199 7.88646 3.30942 7.44531 2.80045 7.44531Z" fill="#F16C7A"/>
<path d="M2.79861 7.26367C2.19675 7.26367 1.70703 7.78704 1.70703 8.43041V12.7922C1.70703 13.4356 2.19663 13.9589 2.79861 13.9589C3.40047 13.9589 3.89007 13.4356 3.89007 12.7922V8.43041C3.89007 7.78716 3.40047 7.26367 2.79861 7.26367ZM3.55023 12.7923C3.55023 13.2354 3.21299 13.5958 2.79861 13.5958C2.38411 13.5958 2.04688 13.2353 2.04688 12.7923V8.43053C2.04688 7.98745 2.38411 7.62707 2.79861 7.62707C3.21299 7.62707 3.55023 7.98757 3.55023 8.43053V12.7923Z" fill="#3A312A"/>
<path d="M2.80045 22.6626C2.29148 22.6626 1.87891 23.1036 1.87891 23.6477V28.0095C1.87891 28.5536 2.29148 28.9946 2.80045 28.9946C3.30942 28.9946 3.72199 28.5536 3.72199 28.0095V23.6477C3.72199 23.1036 3.30942 22.6626 2.80045 22.6626Z" fill="#F16C7A"/>
<path d="M2.79861 22.481C2.19675 22.481 1.70703 23.0043 1.70703 23.6477V28.0096C1.70703 28.653 2.19663 29.1764 2.79861 29.1764C3.40047 29.1764 3.89007 28.653 3.89007 28.0096V23.6477C3.89007 23.0044 3.40047 22.481 2.79861 22.481ZM3.55023 28.0096C3.55023 28.4527 3.21299 28.8131 2.79861 28.8131C2.38411 28.8131 2.04688 28.4526 2.04688 28.0096V23.6477C2.04688 23.2047 2.38411 22.8442 2.79861 22.8442C3.21299 22.8442 3.55023 23.2047 3.55023 23.6477V28.0096Z" fill="#3A312A"/>
<path d="M8.95279 22.6626C8.44382 22.6626 8.03125 23.1036 8.03125 23.6477V28.0095C8.03125 28.5536 8.44382 28.9946 8.95279 28.9946C9.46176 28.9946 9.87434 28.5536 9.87434 28.0095V23.6477C9.87445 23.1036 9.46176 22.6626 8.95279 22.6626Z" fill="#F16C7A"/>
<path d="M8.95474 22.481C8.35288 22.481 7.86328 23.0043 7.86328 23.6477V28.0096C7.86328 28.653 8.35288 29.1764 8.95474 29.1764C9.55661 29.1764 10.0463 28.653 10.0463 28.0096V23.6477C10.0463 23.0044 9.55672 22.481 8.95474 22.481ZM9.70648 28.0096C9.70648 28.4527 9.36924 28.8131 8.95474 28.8131C8.54036 28.8131 8.20312 28.4526 8.20312 28.0096V23.6477C8.20312 23.2047 8.54036 22.8442 8.95474 22.8442C9.36924 22.8442 9.70648 23.2047 9.70648 23.6477V28.0096Z" fill="#3A312A"/>
<path d="M15.109 22.6626C14.6001 22.6626 14.1875 23.1036 14.1875 23.6477V28.0095C14.1875 28.5536 14.6001 28.9946 15.109 28.9946C15.618 28.9946 16.0306 28.5536 16.0306 28.0095V23.6477C16.0306 23.1036 15.618 22.6626 15.109 22.6626Z" fill="#F16C7A"/>
<path d="M15.1072 22.481C14.5053 22.481 14.0156 23.0043 14.0156 23.6477V28.0096C14.0156 28.653 14.5052 29.1764 15.1072 29.1764C15.7091 29.1764 16.1987 28.653 16.1987 28.0096V23.6477C16.1987 23.0044 15.7091 22.481 15.1072 22.481ZM15.8588 28.0096C15.8588 28.4527 15.5216 28.8131 15.1072 28.8131C14.6927 28.8131 14.3555 28.4526 14.3555 28.0096V23.6477C14.3555 23.2047 14.6927 22.8442 15.1072 22.8442C15.5216 22.8442 15.8588 23.2047 15.8588 23.6477V28.0096Z" fill="#3A312A"/>
<path d="M21.2653 22.6626C20.7563 22.6626 20.3438 23.1036 20.3438 23.6477V28.0095C20.3438 28.5536 20.7563 28.9946 21.2653 28.9946C21.7743 28.9946 22.1868 28.5536 22.1868 28.0095V23.6477C22.1868 23.1036 21.7743 22.6626 21.2653 22.6626Z" fill="#F16C7A"/>
<path d="M21.2635 22.481C20.6616 22.481 20.1719 23.0043 20.1719 23.6477V28.0096C20.1719 28.653 20.6615 29.1764 21.2635 29.1764C21.8653 29.1764 22.3549 28.653 22.3549 28.0096V23.6477C22.3549 23.0044 21.8653 22.481 21.2635 22.481ZM22.0151 28.0096C22.0151 28.4527 21.6778 28.8131 21.2635 28.8131C20.849 28.8131 20.5117 28.4526 20.5117 28.0096V23.6477C20.5117 23.2047 20.849 22.8442 21.2635 22.8442C21.6778 22.8442 22.0151 23.2047 22.0151 23.6477V28.0096Z" fill="#3A312A"/>
<path d="M26.2012 19.9014H22.1208C21.6118 19.9014 21.1992 20.3424 21.1992 20.8865C21.1992 21.4305 21.6118 21.8716 22.1208 21.8716H26.2012C26.7101 21.8716 27.1227 21.4305 27.1227 20.8865C27.1227 20.3424 26.7101 19.9014 26.2012 19.9014Z" fill="#F16C7A"/>
<path d="M26.2032 19.7197H22.1227C21.5209 19.7197 21.0312 20.2431 21.0312 20.8865C21.0312 21.5298 21.5209 22.0532 22.1227 22.0532H26.2032C26.8051 22.0532 27.2948 21.5298 27.2948 20.8865C27.2948 20.2431 26.8051 19.7197 26.2032 19.7197ZM26.2032 21.69H22.1227C21.7083 21.69 21.3711 21.3295 21.3711 20.8866C21.3711 20.4436 21.7083 20.0831 22.1227 20.0831H26.2032C26.6177 20.0831 26.955 20.4436 26.955 20.8866C26.955 21.3295 26.6177 21.69 26.2032 21.69Z" fill="#3A312A"/>
<path d="M26.2012 14.5H22.1208C21.6118 14.5 21.1992 14.941 21.1992 15.4851C21.1992 16.0292 21.6118 16.4702 22.1208 16.4702H26.2012C26.7101 16.4702 27.1227 16.0292 27.1227 15.4851C27.1227 14.941 26.7101 14.5 26.2012 14.5Z" fill="#F16C7A"/>
<path d="M26.2032 14.3184H22.1227C21.5209 14.3184 21.0312 14.8417 21.0312 15.4851C21.0312 16.1285 21.5209 16.6518 22.1227 16.6518H26.2032C26.8051 16.6518 27.2948 16.1285 27.2948 15.4851C27.2948 14.8417 26.8051 14.3184 26.2032 14.3184ZM26.2032 16.2887H22.1227C21.7083 16.2887 21.3711 15.9282 21.3711 15.4852C21.3711 15.0423 21.7083 14.6818 22.1227 14.6818H26.2032C26.6177 14.6818 26.955 15.0423 26.955 15.4852C26.955 15.9282 26.6177 16.2887 26.2032 16.2887Z" fill="#3A312A"/>
<path d="M15.111 14.5503C17.1541 14.1959 18.5416 12.1381 18.21 9.9541C17.8784 7.77011 15.9534 6.28697 13.9103 6.64142C11.8672 6.99587 10.4797 9.05368 10.8113 11.2377C11.1429 13.4217 13.0679 14.9048 15.111 14.5503Z" fill="#D7E057"/>
<path d="M14.5114 6.4082C12.3512 6.4082 10.5938 8.28685 10.5938 10.596C10.5938 12.9051 12.3512 14.7838 14.5114 14.7838C16.6715 14.7838 18.429 12.9051 18.429 10.596C18.429 8.28685 16.6715 6.4082 14.5114 6.4082ZM14.5114 14.4206C12.5386 14.4206 10.9336 12.705 10.9336 10.5961C10.9336 8.48726 12.5386 6.77161 14.5114 6.77161C16.4841 6.77161 18.0891 8.48726 18.0891 10.5961C18.0891 12.705 16.4841 14.4206 14.5114 14.4206Z" fill="#3A312A"/>
<path d="M16.0723 5.90088H12.9254C12.5243 5.90088 12.1992 6.24842 12.1992 6.67709V7.44482H16.7984V6.67709C16.7984 6.24842 16.4732 5.90088 16.0723 5.90088Z" fill="#D7E057"/>
<path d="M16.0743 5.71924H12.9273C12.4333 5.71924 12.0312 6.14888 12.0312 6.67709V7.44482C12.0312 7.54521 12.1074 7.62646 12.2012 7.62646H16.8005C16.8943 7.62646 16.9704 7.54521 16.9704 7.44482V6.67709C16.9703 6.149 16.5683 5.71924 16.0743 5.71924ZM16.6305 7.26318H12.371V6.67709C12.371 6.34917 12.6205 6.08252 12.9272 6.08252H16.0741C16.3808 6.08252 16.6304 6.34929 16.6304 6.67709V7.26318H16.6305Z" fill="#3A312A"/>
<path d="M16.9258 2.18701H15.793C16.194 2.18701 16.5202 2.53576 16.5202 2.96322C16.5202 3.39189 16.194 3.74064 15.793 3.74064H16.9258C17.3268 3.74064 17.653 3.39189 17.653 2.96322C17.653 2.53564 17.3268 2.18701 16.9258 2.18701Z" fill="#6B5B51"/>
<path d="M16.7598 7.62646H15.627C16.4359 8.32881 16.9536 9.39807 16.9536 10.5957C16.9536 12.4993 15.6463 14.0808 13.9414 14.3726C14.1261 14.4029 14.3152 14.4198 14.5078 14.4198C16.4812 14.4198 18.0864 12.7051 18.0864 10.5957C18.0863 9.39807 17.5687 8.32893 16.7598 7.62646Z" fill="#B9BC39"/>
<path d="M16.0742 6.08252H14.9414C15.2484 6.08252 15.4976 6.34893 15.4976 6.67709V7.26318H16.6304V6.67709C16.6304 6.34893 16.3812 6.08252 16.0742 6.08252Z" fill="#B9BC39"/>
</svg>
