<svg width="30" height="30" viewBox="0 0 30 30" fill="none" xmlns="http://www.w3.org/2000/svg">
<g clip-path="url(#clip0)">
<path d="M24.625 6.64307H26.3826V10.1638H24.625V6.64307Z" fill="#EFE2DD"/>
<path d="M25.5039 6.64307H26.3827V10.1638H25.5039V6.64307Z" fill="#CDBFBA"/>
<path d="M20.1717 27.4482H5.28906V25.6906H20.1717C20.6563 25.6906 21.0505 25.2963 21.0505 24.8116C21.0505 24.327 20.6563 23.9327 20.1717 23.9327H13.2784C11.8246 23.9327 10.6419 22.75 10.6419 21.2962C10.6419 19.8424 11.8246 18.6597 13.2784 18.6597H21.9293C22.414 18.6597 22.8083 18.2655 22.8083 17.7808C22.8083 17.2962 22.414 16.9019 21.9293 16.9019H15.0361C13.5823 16.9019 12.3996 15.7192 12.3996 14.2654C12.3996 12.8117 13.5823 11.6289 15.0361 11.6289H25.5034V13.3865H15.0361C14.5515 13.3865 14.1572 13.7808 14.1572 14.2654C14.1572 14.75 14.5514 15.1443 15.0361 15.1443H21.9293C23.3831 15.1443 24.5658 16.3271 24.5658 17.7808C24.5658 19.2346 23.3831 20.4173 21.9293 20.4173H13.2784C12.7938 20.4173 12.3995 20.8116 12.3995 21.2962C12.3995 21.7808 12.7937 22.1751 13.2784 22.1751H20.1717C21.6254 22.1751 22.8081 23.3579 22.8081 24.8116C22.8081 26.2654 21.6254 27.4482 20.1717 27.4482Z" fill="#FFF04A"/>
<path d="M5.29048 11.251C2.37328 11.251 0 13.6243 0 16.5414C0 17.9518 0.814353 19.6067 2.42044 21.4602C3.55796 22.7729 4.68265 23.7085 4.72998 23.7476L5.29042 24.2117L5.85086 23.7476C5.8982 23.7085 7.02289 22.7729 8.16034 21.4602C9.76644 19.6067 10.5808 17.9518 10.5808 16.5414C10.5809 13.6243 8.20762 11.251 5.29048 11.251Z" fill="#FF4B00"/>
<path d="M5.28906 11.251V24.2117L5.8495 23.7477C5.89684 23.7085 7.02152 22.773 8.15898 21.4603C9.76507 19.6068 10.5794 17.9519 10.5794 16.5415C10.5795 13.6243 8.2062 11.251 5.28906 11.251Z" fill="#DD3400"/>
<path d="M5.28992 14.9121C4.39126 14.9121 3.66016 15.6432 3.66016 16.5419C3.66016 17.4406 4.39126 18.1717 5.28992 18.1717C6.18858 18.1717 6.91968 17.4406 6.91968 16.5419C6.91968 15.6433 6.18858 14.9121 5.28992 14.9121Z" fill="white"/>
<path d="M24.625 2.55127H29.999V7.52204H24.625V2.55127Z" fill="#FF4B00"/>
<path d="M20.1731 23.9329C20.6577 23.9329 21.052 24.3272 21.052 24.8118C21.052 25.2964 20.6578 25.6907 20.1731 25.6907H15V27.4483H20.1731C21.6269 27.4483 22.8096 26.2656 22.8096 24.8118C22.8096 23.358 21.6269 22.1753 20.1731 22.1753H15V23.9329H20.1731Z" fill="#FFCD00"/>
<path d="M15.0375 13.3865H25.5047V11.6289H15.0375C15.0249 11.6289 15.0125 11.6297 15 11.6298V13.3884C15.0125 13.3878 15.0248 13.3865 15.0375 13.3865Z" fill="#FFCD00"/>
<path d="M15.0376 16.9016H21.9308C22.4154 16.9016 22.8097 17.2958 22.8097 17.7805C22.8097 18.2651 22.4155 18.6593 21.9308 18.6593H15V20.4169H21.9308C23.3845 20.4169 24.5673 19.2342 24.5673 17.7805C24.5673 16.3268 23.3845 15.144 21.9308 15.144H15.0376C15.0249 15.144 15.0125 15.1426 15.0001 15.1421V16.9006C15.0126 16.9007 15.025 16.9016 15.0376 16.9016Z" fill="#FFCD00"/>
<path d="M25.5039 2.55127H29.9991V7.52204H25.5039V2.55127Z" fill="#DD3400"/>
</g>
<defs>
<clipPath id="clip0">
<rect width="30" height="30" fill="white"/>
</clipPath>
</defs>
</svg>
