<svg width="340" height="206" fill="none" xmlns="http://www.w3.org/2000/svg"><path opacity=".7" d="M303.768 134.379c0 39.067-67.853 70.68-151.641 70.68S.487 173.446.487 134.379c0-39.067 67.852-70.68 151.64-70.68 83.788 0 151.641 31.613 151.641 70.68z" fill="url(#a)" fill-opacity=".1"/><path fill="#fff" d="m195.951 107.343 94.415 15.274-4.194 25.598-94.414-15.274z"/><path opacity=".3" fill="#DAE0FF" d="m196.604 109.064 94.415 15.274-2.6 15.873-94.415-15.274z"/><path d="M213.986 119.203c-.031.224-.18.426-.447.605a5.826 5.826 0 0 1-.835.492 8.19 8.19 0 0 1-.853.327 9.128 9.128 0 0 1-.441.122c-.167.044-.257.106-.268.185-.007.053.041.093.145.121.119.016.31.096.573.239.151.075.313.171.485.289.174.104.33.24.469.407.14.154.248.343.325.569.078.213.097.464.057.755-.042.304-.195.579-.458.825a3.49 3.49 0 0 1-.933.62c-.347.168-.72.292-1.122.371a3.36 3.36 0 0 1-1.035.041 4.577 4.577 0 0 1-.569-.118 3.505 3.505 0 0 1-.513-.232 1.219 1.219 0 0 1-.361-.312.54.54 0 0 1-.104-.417.767.767 0 0 1 .121-.287c.084-.123.164-.213.239-.27.138.167.301.304.488.41.201.108.459.184.777.227.211.029.454.022.729-.021a4.59 4.59 0 0 0 .82-.232 2.76 2.76 0 0 0 .66-.394c.184-.163.29-.344.317-.542.039-.277-.073-.494-.334-.651a5.765 5.765 0 0 0-.87-.422 10.625 10.625 0 0 1-.871-.421c-.261-.157-.372-.374-.334-.652.026-.185.184-.351.474-.5.303-.147.631-.284.985-.411.354-.126.673-.244.958-.353.299-.121.458-.247.476-.379.013-.093-.067-.151-.239-.174a2.748 2.748 0 0 0-.707.004c-.26.032-.514.071-.763.118-.236.048-.457.092-.664.131a1.38 1.38 0 0 1-.43.042c-.185-.025-.306-.075-.363-.15-.044-.073-.055-.189-.033-.348.013-.092.091-.169.234-.23a2.45 2.45 0 0 1 .531-.19c.222-.05.456-.086.701-.106.26-.032.506-.052.736-.061.231-.022.435-.035.61-.038.189-.001.316.003.382.012.093.013.21.042.352.088.156.035.303.096.439.181.138.073.253.169.344.29a.532.532 0 0 1 .12.44zm8.977.964c-.008.052-.17.111-.489.175a64.01 64.01 0 0 1-1.795.28c-.535.075-1.07.19-1.603.346-.491.148-.86.286-1.107.414-.246.128-.389.189-.429.184a.187.187 0 0 1-.077-.031c-.022-.03-.04-.046-.053-.048a57.27 57.27 0 0 0-.361.274 1.844 1.844 0 0 0-.367.313c.023.03.06.055.111.076.051.02.109.042.173.064.064.022.136.039.215.049.132.018.353.076.663.172.31.096.62.232.932.41.312.177.577.408.793.693.231.274.321.596.27.966-.031.224-.171.407-.419.548-.235.143-.5.255-.793.336a4.77 4.77 0 0 1-.831.169 3.178 3.178 0 0 1-.507.011.933.933 0 0 1-.632-.389c-.169-.238-.236-.483-.202-.734.008-.053.051-.074.13-.063a.86.86 0 0 1 .289.1c.115.043.226.071.332.086.026.004.12.003.282-.002.164-.018.337-.048.518-.091.196-.054.366-.118.511-.192.158-.073.245-.169.262-.287.011-.08-.045-.161-.168-.245a2.446 2.446 0 0 0-.392-.236 3.18 3.18 0 0 0-.459-.183 1.945 1.945 0 0 0-.311-.083 1.492 1.492 0 0 0-.241-.013 2.845 2.845 0 0 1-.399-.034 5.366 5.366 0 0 1-.413-.077 3.13 3.13 0 0 1-.46-.184 1.128 1.128 0 0 1-.338-.329.777.777 0 0 1-.09-.517c.013-.092.114-.24.304-.443a5.34 5.34 0 0 1 .651-.617c.257-.207.51-.381.758-.522.25-.154.448-.222.593-.202.04.006.064.029.071.07.01.029.035.045.074.051a15.535 15.535 0 0 1 1.962-.459c.386-.068.763-.118 1.131-.148.369-.044.666-.051.891-.02.277.038.519.091.725.16.207.055.306.122.295.202zm.309 5.875c-.011.08-.062.153-.152.222a2.68 2.68 0 0 1-.305.16c-.1.04-.199.074-.297.101-.096.014-.15.02-.164.018a.434.434 0 0 1-.266-.117 1.785 1.785 0 0 1-.111-.217 1.766 1.766 0 0 1-.03-.226l.019-.139a.695.695 0 0 1 .067-.193.937.937 0 0 1 .361-.415.403.403 0 0 1 .271-.064c.172.024.32.118.445.283a.724.724 0 0 1 .162.587zm5.122 1.306c-.018.132-.118.226-.301.281-.169.058-.294.081-.373.071a.788.788 0 0 1-.23-.092c-.085-.066-.136-.133-.153-.203a22.623 22.623 0 0 1-.16-1.475 61.837 61.837 0 0 1-.042-1.298c.003-.417.008-.84.014-1.27.018-.428.03-.897.033-1.408a2.067 2.067 0 0 0-.449.181 11.83 11.83 0 0 0-.562.266 9.76 9.76 0 0 0-.497.235c-.131.076-.21.113-.237.109-.04-.005-.072-.064-.097-.175a1.035 1.035 0 0 1-.009-.223.488.488 0 0 1 .036-.116.834.834 0 0 1 .101-.148c.032-.036.151-.12.358-.254.222-.144.452-.301.691-.471.254-.18.481-.358.68-.532.201-.188.309-.342.326-.461.014-.105.063-.166.146-.181a.62.62 0 0 1 .164-.018.318.318 0 0 1 .241.154.928.928 0 0 1 .118.318c.023.125.032.254.027.388.01.122.009.223-.002.302a16.055 16.055 0 0 0-.161 1.755c.002.471.013.923.034 1.357-.011.469 0 .874.034 1.215.035.328.07.609.105.842.05.223.093.403.127.543a.874.874 0 0 1 .038.308zm7.466.333a.378.378 0 0 1-.244.31c-.13.063-.235.089-.314.078a.546.546 0 0 1-.269-.097 5.113 5.113 0 0 0-.179-.166.917.917 0 0 0-.258-.177 1.46 1.46 0 0 0-.468-.124 1.327 1.327 0 0 0-.741.101 6.143 6.143 0 0 0-.635.357c-.191.122-.382.237-.572.346a.884.884 0 0 1-.563.125c-.224-.031-.359-.13-.403-.298a1.621 1.621 0 0 1-.014-.627c.007-.053.12-.233.337-.54.219-.32.47-.669.751-1.048.294-.377.573-.736.835-1.077l.546-.732.422-.569.545-.733c.197-.255.362-.475.495-.659.135-.196.205-.315.211-.354.012-.093.001-.155-.035-.187a.218.218 0 0 0-.114-.056c-.092-.012-.304.013-.636.075-.318.064-.664.131-1.037.201-.36.072-.706.14-1.038.202-.318.064-.517.091-.596.08-.013-.002-.048-.04-.105-.115a15.95 15.95 0 0 0-.063-.13.387.387 0 0 1-.004-.122c.008-.052.175-.144.503-.274a10.34 10.34 0 0 1 1.201-.361c.461-.125.926-.223 1.393-.294.482-.082.869-.104 1.16-.064a.72.72 0 0 1 .434.221.532.532 0 0 1 .137.463c-.027.198-.137.459-.33.782-.193.324-.43.675-.711 1.054a34.63 34.63 0 0 1-.908 1.168c-.312.401-.605.772-.881 1.111-.274.326-.508.61-.703.852-.194.23-.301.376-.324.441.1-.041.225-.071.376-.09.153-.033.304-.06.455-.08.164-.017.314-.031.45-.039.149-.007.263-.004.342.006a3.395 3.395 0 0 1 .966.314c.178.078.326.179.443.303a.488.488 0 0 1 .143.423zm8.329-3.99c-.016.119-.088.251-.216.395-.127.144-.28.325-.459.543a11.46 11.46 0 0 0-.559.832c-.206.321-.397.733-.574 1.233-.11.308-.206.659-.287 1.051a2.877 2.877 0 0 1-.363 1.02 1.645 1.645 0 0 1-.335.379.494.494 0 0 1-.424.143c-.105-.014-.167-.103-.185-.267a2.662 2.662 0 0 1 .015-.402c.024-.171.105-.463.243-.875a23.5 23.5 0 0 1 .489-1.346c.188-.486.387-.95.596-1.392.211-.456.399-.794.564-1.013a.245.245 0 0 0-.091-.073c-.036-.032-.12-.057-.252-.075l-.342-.006a25.18 25.18 0 0 0-.762-.044 22.57 22.57 0 0 0-.86-.057c-.292-.026-.518-.05-.676-.072a11.082 11.082 0 0 1-.691-.114 2.262 2.262 0 0 1-.541-.175.849.849 0 0 1-.344-.289c-.078-.119-.104-.27-.078-.455.014-.106.057-.174.129-.205a.508.508 0 0 1 .226-.029c-.013-.002.134.052.442.161.323.098.696.176 1.119.233.739.102 1.425.155 2.057.16.647-.005 1.11-.043 1.389-.113a.846.846 0 0 1 .144-.02c.04.005.089.039.147.1.135.1.254.21.358.332.107.109.147.255.121.44zm2.556 5.557c-.011.08-.062.153-.152.222-.088.055-.19.108-.305.16-.099.04-.198.074-.296.101-.096.014-.151.02-.164.018a.437.437 0 0 1-.267-.117 2.126 2.126 0 0 1-.111-.217 1.945 1.945 0 0 1-.029-.226l.019-.139a.664.664 0 0 1 .067-.193.934.934 0 0 1 .36-.415.404.404 0 0 1 .271-.064.67.67 0 0 1 .446.283.727.727 0 0 1 .161.587zm5.733-.771a2.165 2.165 0 0 1-.316.825 4.3 4.3 0 0 1-.571.77 3.197 3.197 0 0 1-.685.572c-.235.143-.438.203-.61.179-.185-.025-.38-.119-.587-.282a1.284 1.284 0 0 1-.427-.563c-.017-.069-.039-.106-.065-.109-.053-.008-.11.018-.172.077-.047.047-.097.067-.15.06-.027-.003-.061-.048-.103-.135a8.49 8.49 0 0 1-.077-.313 11.347 11.347 0 0 0-.073-.353 1.088 1.088 0 0 1-.006-.243c.005-.04.029-.118.072-.233.058-.126.09-.21.095-.249l.137-.991c.07-.502.2-1.056.392-1.662.206-.618.447-1.191.722-1.718.288-.526.596-.955.925-1.287.33-.345.667-.494 1.011-.447.224.03.382.106.473.226.093.107.134.2.123.279a.198.198 0 0 1-.124.165 1.87 1.87 0 0 0-.217.112 3.67 3.67 0 0 0-.871.749 7.287 7.287 0 0 0-.708 1.033c-.2.377-.376.77-.527 1.18a6.194 6.194 0 0 0-.28 1.152 3.86 3.86 0 0 1 .699-.388c.144-.062.291-.109.444-.142a.986.986 0 0 1 .41-.045c.264.036.468.118.612.245.159.116.274.26.345.431.085.16.127.34.126.542a2.64 2.64 0 0 1-.017.563zm-.816-.232c.051-.37-.055-.573-.319-.609-.146-.02-.312.018-.501.113a2.52 2.52 0 0 0-.51.334 2.262 2.262 0 0 0-.42.407c-.114.146-.177.258-.188.338a.628.628 0 0 0 .044.268c.04.1.087.2.14.302.053.101.114.197.182.287.07.077.138.12.204.129.133.018.274-.03.424-.144.151-.114.29-.25.42-.407.144-.169.263-.348.357-.537.093-.189.149-.349.167-.481zm8.725-.646c-.077.555-.216 1.027-.418 1.417a3.829 3.829 0 0 1-.657.96c-.237.25-.5.449-.79.598a4.636 4.636 0 0 1-.791.316c-.25.06-.477.096-.681.109-.19.014-.325.016-.405.005a2.014 2.014 0 0 1-.844-.317 2.594 2.594 0 0 1-.654-.675 2.963 2.963 0 0 1-.4-.902 3.111 3.111 0 0 1-.033-1.074c.044-.317.126-.622.248-.915.123-.307.242-.586.358-.84.131-.264.25-.497.359-.697.108-.201.172-.367.19-.499a.31.31 0 0 0-.006-.102l.016-.119c.011-.079.046-.135.104-.167l.263-.146a.414.414 0 0 1 .226-.03 1.5 1.5 0 0 1 .385.133c.167.064.283.1.349.109l.218.029c.092.013.186.019.28.018l.322.004c.172.024.405.089.7.197.297.094.578.247.845.458.28.213.504.493.672.839.167.346.215.776.144 1.291zm-3.514 2.488c.357.048.684.019.982-.088a2.16 2.16 0 0 0 .781-.54 2.68 2.68 0 0 0 .562-.851c.142-.344.239-.708.292-1.091.04-.29.022-.549-.054-.774a1.48 1.48 0 0 0-.345-.572 1.381 1.381 0 0 0-.517-.353 2.064 2.064 0 0 0-.6-.183 3.59 3.59 0 0 0-.702-.036 3.21 3.21 0 0 1-.643-.027l-.224.454c-.093.189-.189.391-.286.607-.095.202-.184.405-.266.609a2.804 2.804 0 0 0-.133.527 6.889 6.889 0 0 0-.054.679c.005.257.046.498.122.723.077.226.198.424.362.595.178.172.419.279.723.321zm5.721 1.326c-.011.079-.062.153-.152.221-.088.056-.19.109-.305.161-.099.04-.198.073-.296.1-.096.014-.151.02-.164.018a.437.437 0 0 1-.267-.117 1.782 1.782 0 0 1-.111-.217 1.919 1.919 0 0 1-.029-.226l.019-.138a.626.626 0 0 1 .067-.193.89.89 0 0 1 .36-.415.399.399 0 0 1 .271-.064c.172.023.321.118.446.283a.726.726 0 0 1 .161.587zm8.297-4.418c-.02.145-.11.355-.269.629-.144.263-.328.622-.552 1.076-.21.442-.441.996-.695 1.661a17.19 17.19 0 0 0-.688 2.348 9.16 9.16 0 0 1-.097.411 1.8 1.8 0 0 1-.058.275 77.062 77.062 0 0 0-.066.475.68.68 0 0 0-.007.201.4.4 0 0 1 .015.184c-.042.303-.222.434-.539.39-.145-.019-.274-.111-.386-.274a.656.656 0 0 1-.093-.497c.037-.17.107-.484.211-.941.117-.455.246-.955.389-1.501.156-.544.318-1.08.485-1.609.168-.529.327-.951.478-1.267a6.215 6.215 0 0 1-1.153.307c-.218.024-.429.042-.633.055a2.792 2.792 0 0 1-.543-.014c-.555-.076-.991-.33-1.308-.764-.317-.433-.435-.941-.355-1.522.048-.343.162-.637.344-.881.195-.243.417-.435.665-.576a2.69 2.69 0 0 1 .811-.313c.277-.056.528-.069.752-.038.542.074.965.226 1.27.456.318.231.545.68.682 1.344.01.028.011.069.003.122a.308.308 0 0 1 .009.082.357.357 0 0 1-.061.153.427.427 0 0 0-.039.136.846.846 0 0 0 .02.144c.156-.06.295-.189.417-.387.135-.197.287-.372.456-.523.026.003.07.029.131.078.06.049.119.111.176.186.072.063.13.132.173.205.044.073.062.136.055.189zm-1.955.561c.016-.119.01-.268-.019-.447a1.321 1.321 0 0 0-.167-.548 1.21 1.21 0 0 0-.378-.475c-.169-.144-.392-.235-.669-.273a1.889 1.889 0 0 0-.608.018c-.208.039-.398.1-.571.184a1.427 1.427 0 0 0-.451.342.879.879 0 0 0-.205.457c-.053.383.031.657.25.821.222.151.504.251.847.297.172.024.366.03.583.02.23-.009.442-.028.634-.055.207-.039.381-.083.523-.131.143-.061.22-.131.231-.21zm6.715 6.246c-.018.132-.119.226-.301.282-.17.057-.294.081-.374.07a.766.766 0 0 1-.229-.092c-.085-.066-.137-.133-.154-.203a22.504 22.504 0 0 1-.159-1.475 69.668 69.668 0 0 1-.043-1.298l.014-1.269c.019-.428.03-.898.034-1.409a2.099 2.099 0 0 0-.449.181c-.187.082-.374.171-.562.266a10.23 10.23 0 0 0-.497.235c-.132.077-.211.113-.237.109-.04-.005-.072-.063-.097-.174a1.144 1.144 0 0 1-.01-.224.607.607 0 0 1 .036-.116.933.933 0 0 1 .102-.148c.032-.036.151-.12.358-.253.222-.145.452-.302.691-.471a8.72 8.72 0 0 0 .679-.533c.201-.188.31-.341.326-.46.015-.106.064-.167.147-.182a.616.616 0 0 1 .164-.018.322.322 0 0 1 .241.154.905.905 0 0 1 .117.319c.023.124.033.253.027.387.01.122.01.223-.001.303a16.302 16.302 0 0 0-.162 1.754c.002.471.014.923.035 1.357-.012.469 0 .875.033 1.216.036.327.071.608.106.842.05.222.092.403.127.542a.925.925 0 0 1 .038.308z" fill="#000"/><path d="M215.373 110.5c23.04 5.427 57.375 10.067 78.848 13.228m-91.136 9.837a4034.458 4034.458 0 0 0 32.441 5.682m52.892 8.565c-1.666-.246-9.914-1.529-11.758-1.811" stroke="#000" stroke-linecap="round"/><path d="M290.637 122.541c-1.707 10.346-2.731 14.586-4.437 25.44" stroke="#000" stroke-linecap="round"/><path fill="#fff" d="M174.231 140.546H276.55v32.902H174.231z"/><path opacity=".5" fill="#DAE0FF" d="m176.233 136.262 102.163 5.621-1.745 31.31-102.163-5.622z"/><path d="M191.039 154.018c.007.226-.106.45-.339.67-.22.221-.467.428-.741.623a8.11 8.11 0 0 1-.786.465 9.313 9.313 0 0 1-.414.193c-.158.071-.236.147-.233.227.002.053.056.085.163.095.12-.004.321.043.605.141.161.049.337.117.526.204.189.075.366.182.531.324a1.6 1.6 0 0 1 .416.508c.112.196.173.441.182.734.01.307-.094.604-.312.89a3.49 3.49 0 0 1-.817.766 4.604 4.604 0 0 1-1.043.552 3.325 3.325 0 0 1-1.014.211 4.27 4.27 0 0 1-.581-.022 3.59 3.59 0 0 1-.544-.143 1.218 1.218 0 0 1-.408-.248.543.543 0 0 1-.173-.395.778.778 0 0 1 .071-.302c.062-.135.126-.237.19-.306.165.142.348.25.551.323.215.074.483.106.803.096.213-.007.452-.054.716-.142.277-.102.533-.224.769-.364.235-.154.43-.32.585-.498.154-.192.228-.388.222-.587-.009-.28-.155-.476-.439-.587a5.664 5.664 0 0 0-.929-.272 10.77 10.77 0 0 1-.929-.271c-.283-.112-.429-.307-.438-.587-.006-.187.122-.377.382-.572a9.75 9.75 0 0 1 .903-.568c.328-.184.623-.353.885-.508.275-.168.41-.319.406-.452-.003-.094-.091-.138-.264-.132a2.754 2.754 0 0 0-.697.121 12.1 12.1 0 0 0-.733.243c-.224.087-.435.167-.633.239-.184.073-.323.11-.416.113-.187.006-.315-.023-.383-.088-.056-.065-.086-.178-.091-.337-.003-.094.061-.182.192-.266.13-.098.294-.19.492-.276.21-.086.435-.16.673-.221a9.18 9.18 0 0 1 .715-.182c.225-.06.423-.106.596-.138.186-.032.312-.05.378-.052.094-.002.214.007.361.029a1.4 1.4 0 0 1 .464.106c.148.049.277.125.387.228a.532.532 0 0 1 .193.415zm9.012-.538c.001.054-.149.138-.453.254-.633.22-1.207.411-1.723.574-.515.162-1.022.365-1.521.607-.46.227-.801.424-1.023.591-.221.167-.352.251-.392.253a.179.179 0 0 1-.08-.018c-.028-.026-.048-.039-.062-.038l-.31.33a1.815 1.815 0 0 0-.308.369.253.253 0 0 0 .122.057c.053.011.114.023.181.034a1.1 1.1 0 0 0 .22.013c.134-.004.361.016.682.059.322.044.651.127.989.25.337.123.636.307.897.553.274.231.417.534.429.907.007.226-.1.43-.321.61a3.12 3.12 0 0 1-.726.463 4.812 4.812 0 0 1-.791.304 3.1 3.1 0 0 1-.498.095c-.253.008-.482-.085-.689-.279-.206-.207-.313-.437-.321-.69-.002-.053.037-.081.117-.084a.847.847 0 0 1 .302.051c.121.023.234.033.341.03a3.03 3.03 0 0 0 .279-.049c.158-.045.323-.103.494-.175.185-.086.342-.177.472-.275.144-.098.214-.207.21-.326-.002-.08-.071-.152-.207-.214a3.016 3.016 0 0 0-.909-.272 1.946 1.946 0 0 0-.321-.031c-.08.003-.159.012-.239.028a2.774 2.774 0 0 1-.399.032c-.12.004-.26.001-.421-.007a3.264 3.264 0 0 1-.483-.105 1.139 1.139 0 0 1-.389-.268.778.778 0 0 1-.175-.495c-.003-.094.072-.256.225-.487.152-.245.332-.484.538-.717.219-.247.439-.461.66-.641.221-.193.405-.292.551-.297.04-.001.067.018.082.058.014.026.041.038.081.037.197-.099.46-.221.789-.364.343-.144.699-.282 1.068-.413.369-.132.733-.243 1.09-.334.357-.104.649-.16.875-.167.28-.009.527.004.742.037.214.02.322.07.325.15zm1.29 5.743c.002.08-.035.162-.113.244a2.622 2.622 0 0 1-.273.209 2.855 2.855 0 0 1-.276.148c-.092.03-.145.045-.158.045a.439.439 0 0 1-.283-.071 1.91 1.91 0 0 1-.146-.196 2.01 2.01 0 0 1-.067-.218l-.004-.14a.626.626 0 0 1 .034-.201.931.931 0 0 1 .285-.469.4.4 0 0 1 .257-.108c.173-.005.335.063.487.205.164.142.25.326.257.552zm5.269.439c.005.133-.079.242-.249.328-.158.084-.277.128-.357.131a.779.779 0 0 1-.241-.053.397.397 0 0 1-.186-.174 21.995 21.995 0 0 1-.404-1.429 59.196 59.196 0 0 1-.26-1.272c-.066-.412-.133-.83-.199-1.255-.054-.425-.121-.89-.204-1.394a2.051 2.051 0 0 0-.412.253c-.17.112-.34.23-.509.355-.17.112-.32.217-.451.314-.117.097-.189.146-.215.147-.04.001-.082-.051-.125-.156a1.091 1.091 0 0 1-.047-.219.57.57 0 0 1 .016-.12.943.943 0 0 1 .075-.163c.026-.041.129-.144.311-.309.194-.18.395-.373.602-.579a8.5 8.5 0 0 0 .58-.638c.167-.219.248-.388.245-.508-.004-.107.034-.175.113-.204a.679.679 0 0 1 .159-.045.323.323 0 0 1 .264.112.932.932 0 0 1 .169.295c.044.119.074.245.092.378.03.119.047.218.049.298.022.693.067 1.279.135 1.757.081.464.168.909.261 1.333.068.464.147.862.238 1.193.09.317.171.588.245.813.087.21.159.382.216.513a.894.894 0 0 1 .089.298zm9.039-6.661c.001.053-.149.138-.453.254a67.58 67.58 0 0 1-1.723.573c-.515.163-1.022.365-1.521.607-.46.228-.801.425-1.022.592-.222.167-.353.251-.393.252a.17.17 0 0 1-.08-.018c-.028-.025-.048-.038-.062-.038l-.309.33a1.794 1.794 0 0 0-.309.37.262.262 0 0 0 .122.056c.053.012.114.023.181.034.067.012.14.016.22.014.134-.005.361.015.683.059.321.043.65.126.988.249.337.123.636.308.897.553.274.232.417.534.429.907.007.227-.1.43-.321.61a3.12 3.12 0 0 1-.726.463c-.263.128-.527.23-.791.304a3.14 3.14 0 0 1-.497.096.935.935 0 0 1-.689-.279c-.207-.207-.314-.437-.322-.691-.002-.053.037-.081.117-.083a.868.868 0 0 1 .302.05c.121.023.235.033.341.03a3.03 3.03 0 0 0 .279-.049c.158-.044.323-.103.495-.175.184-.086.341-.177.471-.274.144-.098.214-.207.21-.327-.002-.08-.071-.151-.207-.214a2.511 2.511 0 0 0-.425-.167 3.264 3.264 0 0 0-.483-.105 2.053 2.053 0 0 0-.322-.03c-.08.002-.159.011-.239.027a2.62 2.62 0 0 1-.399.032c-.12.004-.26.002-.42-.007a3.016 3.016 0 0 1-.484-.105 1.125 1.125 0 0 1-.389-.268.778.778 0 0 1-.175-.495c-.003-.093.072-.256.225-.487.152-.245.332-.484.538-.717.219-.247.439-.46.66-.64.221-.194.405-.293.551-.298.04-.001.068.018.082.058.014.026.041.039.081.038.197-.1.46-.221.789-.365.343-.144.699-.282 1.068-.413.369-.131.733-.243 1.09-.334.357-.104.649-.16.875-.167.28-.008.527.004.742.038.214.02.322.07.325.15zm6.107 2.993c.002.067-.036.148-.113.244a.46.46 0 0 1-.214.187 1.322 1.322 0 0 1-.556.137 3.68 3.68 0 0 0-.559.057.904.904 0 0 0-.435.154c-.105.069-.154.211-.147.424.002.067.021.226.055.479.034.239.07.525.107.857.05.319.094.664.132 1.036.038.373.062.712.072 1.019a1.99 1.99 0 0 1-.012.26c-.01.107-.034.208-.071.302a.752.752 0 0 1-.152.245.38.38 0 0 1-.277.109c-.107.003-.195-.054-.265-.172a2.309 2.309 0 0 1-.152-.356 4.667 4.667 0 0 1-.071-.378l-.007-.2c0-.013-.011-.139-.031-.379-.008-.24-.023-.526-.047-.859a30.788 30.788 0 0 0-.054-1.079 23.465 23.465 0 0 0-.051-1.018c-.005-.134-.04-.199-.107-.197-.04.001-.139.017-.298.049a4.63 4.63 0 0 1-.439.033c-.067.002-.221 0-.461-.005a4.053 4.053 0 0 1-.743-.098 2.962 2.962 0 0 1-.73-.297.726.726 0 0 1-.319-.611c-.006-.186.061-.389.201-.606.14-.218.32-.444.539-.677.22-.234.453-.461.7-.682l.699-.662c.221-.207.402-.392.543-.557.142-.164.211-.3.208-.406l-.022-.7c-.002-.067.023-.114.075-.142a.452.452 0 0 1 .159-.045.312.312 0 0 1 .285.151.908.908 0 0 1 .191.354c.044.132.075.265.093.398.017.133.027.232.029.299l.028.899c.02.227.04.439.06.639.019.186.032.386.038.599.02.2.035.459.045.779.004.133.059.198.166.195a1.42 1.42 0 0 0 .239-.047c.132-.044.27-.082.416-.113.159-.045.304-.083.437-.114a1.13 1.13 0 0 1 .278-.068.456.456 0 0 1 .365.149c.11.103.167.241.173.414zm-2.939-1.19a9.782 9.782 0 0 0-.04-.639c-.006-.213-.038-.372-.095-.477-.335.357-.632.68-.89.968-.219.247-.425.493-.617.739-.18.232-.268.382-.266.448.175.062.376.096.603.102.227.006.427.007.6.001l.36-.011c.146-.017.272-.041.378-.071l-.033-1.06zm6.048 3.696c.002.08-.035.161-.113.244a2.621 2.621 0 0 1-.273.208 2.868 2.868 0 0 1-.276.149 1.454 1.454 0 0 1-.158.045.439.439 0 0 1-.283-.072 1.902 1.902 0 0 1-.146-.195 2.01 2.01 0 0 1-.067-.218l-.004-.14a.618.618 0 0 1 .034-.201.92.92 0 0 1 .285-.469.39.39 0 0 1 .257-.108c.173-.006.335.063.487.205.164.141.25.326.257.552zm6.858-5.733c.007.226-.106.45-.339.67-.22.221-.467.428-.741.623a8.356 8.356 0 0 1-.786.465 9.949 9.949 0 0 1-.414.193c-.158.071-.236.147-.233.227.001.053.056.085.163.095.12-.004.321.043.604.141.162.049.338.117.527.204.189.075.366.182.53.324.164.129.303.298.416.508.113.196.174.441.183.734.01.307-.094.604-.312.89a3.49 3.49 0 0 1-.817.766 4.604 4.604 0 0 1-1.043.552 3.325 3.325 0 0 1-1.014.211 4.27 4.27 0 0 1-.581-.022 3.634 3.634 0 0 1-.545-.143 1.204 1.204 0 0 1-.407-.248.543.543 0 0 1-.173-.395.778.778 0 0 1 .071-.302c.062-.135.126-.237.19-.306.165.142.348.25.551.323.215.074.483.106.803.096.213-.007.452-.054.716-.142.277-.102.533-.223.769-.364.235-.154.43-.32.585-.498.154-.192.228-.388.222-.587-.009-.28-.155-.476-.439-.587a5.664 5.664 0 0 0-.929-.272 10.77 10.77 0 0 1-.929-.271c-.283-.112-.429-.307-.438-.587-.006-.187.122-.377.382-.572a9.75 9.75 0 0 1 .903-.568c.328-.184.623-.353.885-.508.275-.168.41-.319.406-.452-.003-.094-.091-.138-.264-.132a2.754 2.754 0 0 0-.697.121 12.1 12.1 0 0 0-.733.243c-.224.087-.435.167-.633.239-.184.073-.323.11-.416.113-.187.006-.315-.023-.383-.088-.056-.065-.086-.178-.091-.337-.003-.094.061-.182.192-.266.13-.098.294-.19.492-.276.21-.086.435-.16.673-.22.251-.075.489-.136.715-.183.225-.06.423-.106.596-.138a3.39 3.39 0 0 1 .378-.052c.094-.002.214.007.361.029a1.4 1.4 0 0 1 .464.106c.148.049.277.125.387.228a.535.535 0 0 1 .193.415zm5.752 5.946c.004.133-.079.242-.25.327-.158.085-.276.129-.356.131a.742.742 0 0 1-.242-.052.397.397 0 0 1-.186-.174 23.342 23.342 0 0 1-.404-1.429 66.01 66.01 0 0 1-.26-1.272l-.199-1.255c-.053-.425-.121-.89-.204-1.394a2.08 2.08 0 0 0-.412.253c-.17.112-.34.23-.509.355a9.45 9.45 0 0 0-.45.314c-.118.097-.189.146-.216.147-.04.001-.082-.051-.125-.156a1.091 1.091 0 0 1-.047-.219.57.57 0 0 1 .016-.12.943.943 0 0 1 .075-.163c.026-.041.129-.144.311-.309.194-.18.395-.373.602-.579.22-.22.414-.433.581-.638.166-.219.248-.388.244-.508-.003-.107.035-.175.114-.204a.676.676 0 0 1 .158-.045.323.323 0 0 1 .264.112.914.914 0 0 1 .169.295c.044.119.075.245.092.378.03.119.047.218.049.298.022.693.067 1.279.135 1.757.081.464.168.909.262 1.333.068.464.147.862.237 1.193.09.317.172.588.245.813.087.21.159.382.216.513a.902.902 0 0 1 .09.298zm3.281-.702c.002.08-.035.162-.113.244a2.622 2.622 0 0 1-.273.209 2.855 2.855 0 0 1-.276.148c-.092.03-.145.045-.159.045a.437.437 0 0 1-.282-.071 1.91 1.91 0 0 1-.146-.196 2.01 2.01 0 0 1-.067-.218l-.004-.14a.626.626 0 0 1 .034-.201.931.931 0 0 1 .285-.469.4.4 0 0 1 .257-.108.67.67 0 0 1 .486.205.726.726 0 0 1 .258.552zm8.762-6.272c.006.173-.088.376-.281.609a4.765 4.765 0 0 1-.718.723c-.286.235-.605.472-.958.709-.34.238-.666.461-.98.671-.3.196-.562.364-.784.504a4.243 4.243 0 0 0-.413.253c.097.117.196.287.296.511.114.21.214.44.302.691.101.25.182.495.243.733.074.238.114.443.119.617.007.213-.034.414-.121.604a1.431 1.431 0 0 1-.326.47 2.099 2.099 0 0 1-.49.315 1.434 1.434 0 0 1-.517.116 3.313 3.313 0 0 1-.822-.075 2.212 2.212 0 0 1-.709-.278 1.791 1.791 0 0 1-.516-.484 1.498 1.498 0 0 1-.203-.735 1.932 1.932 0 0 1 .229-1.007c.177-.312.369-.578.575-.798.207-.233.394-.412.564-.538.182-.139.273-.228.272-.268-.001-.04-.079-.158-.231-.353-.14-.196-.301-.431-.483-.706a9.164 9.164 0 0 1-.507-.865c-.143-.315-.218-.6-.226-.853a1.3 1.3 0 0 1 .158-.685c.127-.204.289-.376.485-.515.209-.14.445-.248.71-.322.264-.075.537-.117.816-.126.28-.008.561.003.842.035.281.018.529.07.745.157.216.073.393.188.531.344.138.142.211.34.219.593a.555.555 0 0 1-.075.183 1.836 1.836 0 0 1-.171.285 2.106 2.106 0 0 1-.212.267c-.064.082-.123.123-.176.125-.08.003-.122-.063-.126-.196a.59.59 0 0 1 .016-.141.478.478 0 0 0 .035-.161c-.008-.24-.146-.402-.416-.487-.256-.099-.564-.143-.924-.132-.12.004-.266.022-.439.054-.172.032-.344.09-.515.175a1.129 1.129 0 0 0-.43.314.622.622 0 0 0-.166.465c.002.067.06.198.173.395.113.197.239.406.379.629l.4.628.271.352c.276-.156.583-.345.923-.569a11.5 11.5 0 0 1 1.139-.695c.289-.156.57-.331.844-.527a23.492 23.492 0 0 0 1.269-1.019c.143-.125.227-.187.254-.188.04-.001.068.025.083.077a.319.319 0 0 1 .043.119zm-4.08 5.828a2.719 2.719 0 0 0-.071-.338 3.288 3.288 0 0 0-.158-.575 2.139 2.139 0 0 0-.237-.553c-.086-.171-.182-.255-.288-.251-.053.001-.152.064-.294.189-.13.111-.266.248-.408.413a5.261 5.261 0 0 0-.363.531c-.102.177-.15.325-.147.445.007.226.108.443.301.651.193.207.463.306.809.295a.899.899 0 0 0 .593-.238.684.684 0 0 0 .263-.569zm12.397-6.084c.005.174-.089.377-.282.609a4.665 4.665 0 0 1-.717.723c-.287.235-.606.472-.959.71-.339.237-.666.46-.979.67-.301.196-.563.364-.785.504-.223.127-.36.212-.412.253.097.117.195.288.296.511.113.21.213.441.301.691.101.251.182.495.243.733.074.238.114.444.119.617.007.213-.033.414-.121.604a1.418 1.418 0 0 1-.325.47c-.143.125-.307.23-.491.315a1.429 1.429 0 0 1-.516.116 3.374 3.374 0 0 1-.823-.074 2.236 2.236 0 0 1-.709-.279 1.774 1.774 0 0 1-.515-.484 1.473 1.473 0 0 1-.203-.734 1.928 1.928 0 0 1 .228-1.008c.177-.312.369-.578.576-.798.206-.233.394-.412.563-.537.183-.139.273-.229.272-.269-.001-.04-.078-.158-.231-.353-.139-.196-.3-.431-.482-.706a9.147 9.147 0 0 1-.507-.864c-.144-.316-.219-.601-.227-.854a1.293 1.293 0 0 1 .159-.685c.127-.204.288-.376.484-.515.209-.14.446-.247.71-.322.265-.075.537-.117.817-.125.28-.009.56.003.841.034.281.018.529.07.746.157.215.073.392.188.53.344.138.142.211.34.219.593a.543.543 0 0 1-.074.183 1.936 1.936 0 0 1-.172.285 2.03 2.03 0 0 1-.211.267c-.064.082-.123.124-.176.125-.08.003-.123-.063-.127-.196a.577.577 0 0 1 .016-.14.463.463 0 0 0 .035-.162c-.007-.239-.146-.402-.415-.487-.257-.099-.565-.143-.925-.132-.12.004-.266.022-.438.054-.173.032-.345.09-.515.176a1.13 1.13 0 0 0-.431.313.623.623 0 0 0-.165.465c.002.067.059.199.172.395.113.197.239.406.38.629.14.222.273.432.4.628.139.182.229.3.271.352.275-.155.583-.345.922-.569.34-.237.719-.469 1.139-.695.289-.156.57-.331.844-.526.274-.209.515-.396.723-.563.221-.18.403-.332.546-.457.143-.124.228-.187.254-.188.04-.001.068.025.083.078a.316.316 0 0 1 .044.118zm-4.081 5.829a2.496 2.496 0 0 0-.071-.338 3.357 3.357 0 0 0-.157-.576 2.154 2.154 0 0 0-.238-.553c-.085-.171-.181-.254-.288-.251-.053.002-.151.065-.294.189a3.72 3.72 0 0 0-.407.413c-.129.164-.25.341-.364.531-.101.177-.15.325-.146.445.007.227.107.444.3.651.193.208.463.306.81.295a.903.903 0 0 0 .593-.238.682.682 0 0 0 .262-.568z" fill="#000"/><path d="M176.253 140.546c23.186-.616 46.377-.846 66.939-1.221m34.986-1.011c-5.656.268-11.834.477-18.421.651M276.55 136.79v36.056M181.3 174.852c33.512-1.203 65.082-2.003 97.509-2.808" stroke="#000" stroke-linecap="round"/><path d="M197.662 130.89c5.718 1.748 9.529 6.192 10.72 8.195h-33.259c2.859 0 2.84 18.574 2.474 27.861 11.269 10.653 10.445 37.149 9.07 26.496-1.374-10.653-7.146-18.028-22.264-26.496-12.094-6.774-6.322-23.4-1.924-30.866-6.157.219-23.456 15.57-31.335 23.218-16.932 13.111-35.092 12.929-42.055 11.199 15.667-1.365 26.662-7.375 31.335-20.759 3.738-10.708 12.186-18.302 15.942-20.76h-20.615c-35.623-8.085-51.492.091-54.974 5.19 2.2-6.556 13.744-12.565 19.241-14.75 13.665-6.391 34.798-3.535 46.029-.771-19.759-6.029-26.65-24.507-27.613-33.374.825-21.852 22.265-22.125 17.317-20.213-3.958 1.53-6.047 11.2-6.597 15.843 4.948 24.311 30.236 27.315 34.634 26.223 4.398-1.093 11.819.273 12.644-4.371.824-4.643-5.772-3.004-2.199-12.018 3.573-9.014 15.667-7.922 12.094-9.834-3.573-1.912-6.872-5.19 0-8.74 5.497-2.842 26.662-14.66 36.558-20.214-2.199-2.914-4.563-9.834 3.573-14.204 10.17-5.463 37.932-9.014 39.581-5.19 1.32 3.06-.549 14.204-1.649 19.394 11.215 12.674 7.788 21.124 4.673 23.764-5.717 4.59-12.461 5.372-15.118 5.19l-9.62 18.848c-5.938 12.674-14.385 14.568-17.867 13.93-1.539 9.397-6.505 15.388-8.796 17.209z" fill="#fff"/><path d="M173.074 103.396c-2.355-.172-4.476-.274-5.764 2.028-1.114 1.994-1.529 5.075-.672 7.231 2.701 6.794 11.435 5.277 14.985.525 3.809-5.099 4.772-14.518-4.323-12.839-3.595.664-7.598 2.671-9.653 5.775-1.982 2.994-1.502 5.638-1.057 8.878M153.111 104.217c.161-.227 2.049-4.936.336-3.675-2.387 1.757-2.023 6.913.072 8.734 1.829 1.59 1.706-5.517 1.465-6.3-.974-3.166-3.526-1.957-4.467.382" stroke="#000" stroke-linecap="round"/><path d="M173.916 103.817c-.404.428-2.052 1.71-1.056 2.339.556.352 1.178.201 1.488-.382.597-1.12.824-4.293-1.272-4.033-1.26.157-2.707 3.506-1.225 4.129 1.723.724 3.587-.208 3.77-2.029.224-2.228-2.787-2.524-4.226-1.479-2.156 1.565-.15 3.451 1.849 3.412 1.09-.02 3.637-2.496 1.705-2.792-1.832-.28-1.897 1.214-1.897 2.554M154.919 102.966c-.077-3.358-1.664-6.39-1.201-9.784.566-4.14 5.707-8.302 9.414-9.784 5.585-2.232 13.126-1.33 19.019-1.91.324-.031 6.777-1.288 4.755-1.288M197.454 131.296c11.923-10.284 9.204-27.26 18.845-38.21" stroke="#000" stroke-linecap="round"/><path d="M172.641 81.918c0-2.525-.377-5.327 1.681-7.23 4.296-3.972 12.239-.115 16.33 2.123 4.681 2.562 9.015 5.767 13.088 9.188 3.783 3.178 8.042 6.763 9.965 11.455" stroke="#000" stroke-linecap="round"/><path d="M166.089 82.764c-1.152-1.177-3.368-3.96-3.726-5.666-.627-2.995 3.107-4.391 5.139-5.537 19.945-11.244 40.688-21.092 60.468-32.598M207.222 113.705c3.248.366 5.316-.675 7.828-2.673 7.933-6.306 12.622-17.828 16.81-26.584 6.15-12.86 12.181-26.948 13.88-41.237.578-4.862 1.212-11.83-1.345-16.275" stroke="#000" stroke-linecap="round"/><path d="M233.157 80.63c5.726.734 15.23-1.962 17.386-8.746 2.773-8.726-3.016-15.34-6.718-22.699M203.517 52.523c-2.931-.845-7.711-10.337 0-13.752 12.582-5.572 28.778-6.943 42.458-6.943M148.003 116.283c-20.266 8.667-33.012-1.823-54.26 0-11.636.998-32.808 11.72-36.513 22.766" stroke="#000" stroke-linecap="round"/><path d="M57.491 136.521c20.027-19.65 55.265-1.763 81.124-7.996" stroke="#000" stroke-linecap="round"/><path d="M144.073 128.045c-11.289-2.088-21.717 15.868-24.935 24.034-4.773 12.115-17.344 18.327-29.921 18.327" stroke="#000" stroke-linecap="round"/><path d="M87.92 170.836c4.9.093 9.683.697 14.601.143 35.768-4.031 48.043-38.465 61.602-33.724" stroke="#000" stroke-linecap="round"/><path d="M164.374 133.513c-5.578 5.711-11.049 22.835-4.676 29.591 7.383 7.826 18.034 11.186 23.75 20.618 1.82 3.005 3.89 13.291 3.89 9.785 0-11.514-7.198-17.934-9.907-27.805-2.709-9.871 2.698-23.636-4.789-28.371" stroke="#000" stroke-linecap="round"/><path d="M151.461 105.973c-16.055 4.848-30.557-3.75-35.708-9.8-4.309-5.06-11.399-20.507 0-31.834-6.683 1.041-19.26 8.984-16.51 25.78 2.158 13.168 13.955 25.78 31.25 29.491" stroke="#000" stroke-linecap="round" stroke-linejoin="round"/><path d="M152.849 101.493c-.723.542-1.16 1.141-.871 2.067.211.677.905 1.069 1.533.598 1.693-1.269-.005-5.287-1.494-3.614-1.578 1.772.661 4.66 2.234 2.327.467-.693.614-2.206-.401-2.549-1.254-.424-1.91 1.148-1.91 2.105 0 .991.544 1.607 1.54 1.233 1.117-.419 1.813-1.63 1.803-2.794-.01-1.251-1.337-1.515-2.196-.766-.82.715-1.386 2.43-.701 3.399 1.664 2.351 4.727-1.266 2.635-2.94-2.173-1.738-3.156.572-2.866 2.45M157.007 122.602c3.004.336 5.845.454 8.73-.581 1.594-.572 1.293-.753-.183-.726-1.283.023-7.232 1.542-7.232 0M111.439 163.249c1.902.31 4.961.124 4.961-1.78 0-1.061-2.123-.938-3.083-.766M116.82 157.639c1.299.149 2.631.325 3.856-.273.953-.465 1.846-2.126.821-2.986-1.271-1.067-5.689-.363-3.919 1.75M122.007 147.364c-.552 1.532-.962 2.471.903 2.951 1.984.511 5.1-.373 5.773-2.514.638-2.028-1.869-2.22-3.278-1.901-2.306.522-3.56 1.365-4.039 3.589M171.801 147.43c-1.003.64-3.56 2.538-2.411 4.102 1.206 1.643 3.907.293 4.566-1.089.906-1.901-.549-3.188-2.484-2.94-1.835.234-1.973 1.673-1.973 3.194M172.191 157.831c-7.738 2.33 1.246 8.322 3.232 3.757.601-1.382-.032-2.959-1.735-2.959-2.078 0-2.196 1.878-2.484 3.449M175.747 166.829c-4.353.971-1.066 5.005.621 3.049 1.5-1.739-.035-3.696-1.607-1.742M211.907 78.499c1.703-2.148 3.72-4.123 5.552-6.171 1.613-1.803 2.497-2.135 2.265.98-.201 2.7-2.342 6.262-4.675 7.731-2.455 1.546-3.142.02-3.142-2.214M232.618 56.937c-2.15 1.36-4.159 3.07-5.698 5.1-.206.271-3.089 4.773-1.479 4.973 2.216.275 6.207-8.68 4.547-9.093M193.349 131.501c2.704-6.448 3.939-13.253 5.102-20.113.868-5.125.605-11.614 3.44-16.152 2.886-4.62 10.17-4.329 14.948-5.753 4.367-.618 15.249-6.573 23.841-25.446M166.804 98.674c1.036-3.78 4.005-6.153 7.681-7.218 4.782-1.386 9.537-1.085 13.774 1.457" stroke="#000" stroke-linecap="round"/><path d="M185.62 129.453c7.024-.958 16.232 1.386 23.841 10.585M236.805 34.218c5.185-1.218 10.23-2.976 15.305-4.574M100.631 95.542c6.038 9.581 18.743 12.642 27.667 16.99 2.029.988 6.037 4.203 6.037 6.881M96.457 118.053c-.482-.084-4.74-.596-3.396.978 1.541 1.804 5.137 2.722 7.397 2.24 2.688-.574 2.392-2.521.158-3.439-1.7-.698-3.503-.631-5.301-.631M111.314 118.053c-2.552 2.959 4.943 4.58 6.048 3.06 1.175-1.617-3.882-2.717-4.905-2.208M125.6 120.324c-1.588 1.065-1.656 2.019.413 2.209 2.053.187 3.77-.524 5.587-1.357M79.886 121.176c-.96.746-1.434 1.271.127 1.577 2.021.397 4.379.093 6.048-1.151.715-.533 1.417-1.55.19-1.956-1.634-.541-2.618.29-3.794 1.246M109.6 83.981c-2.704-.428-4.613 1.147-3.397 3.975.744 1.73 3.061 3.158 3.556.505.458-2.454-.719-5.745-2.667-7.35-1.232-1.017-.92 3.367-.92 3.722M113.6 93.35c-.871-.494-2.809-1.501-2.095.474.802 2.22 2.963 3.88 5.318 4.054 2.095.154-1.66-2.726-2.064-2.95-1.572-.87-3.174-2.083-3.73.127M124.172 103.572c-.119-.085-2.361-1.601-2.239-.504.209 1.863 3.521 3.411 5.191 3.296.683-.046 1.046-.593.936-1.262-.228-1.398-1.866-1.984-3.031-2.381-.883-.301-3.715-1.377-3.715.284M194.937 126.473c1.246 1.21 2.667 2.709 4.263 3.389M196.429 120.754c1.568 1.293 2.971 3.211 4.689 4.236M197.068 115.246c2.71 1.992 5.302 4.859 8.313 6.355M198.347 109.951c1.734 1.477 3.386 3.037 5.104 4.531.783.681 1.887 1.315 2.356 2.247M199.626 102.749c2.495 2.036 4.881 4.221 7.46 6.143M200.905 97.454c2.298 1.536 4.373 3.309 6.56 4.99.824.633 1.787 1.532 2.818 1.788M204.955 92.37c2.568 1.702 5.057 3.786 7.033 6.143M235.694 76.045c2.812 1.105 5.698 1.92 8.543 2.918M236.762 71.269c3.812 1.69 7.822 3.012 11.88 3.98M239.031 66.626c3.887.917 7.714 2.057 11.614 2.918M240.766 61.32c2.176.713 4.369 1.382 6.586 1.96.982.256 2.48.353 3.293.958M242.502 56.677c1.969.64 3.932 1.115 5.873 1.857M208.462 108.943c2.046 1.096 4.105 2.09 6.274 2.919M210.998 102.311c3.579 1.268 7.18 2.825 10.946 3.449M208.195 91.035c4.027 2.09 8.026 4.221 12.207 5.999 1.468.624 2.936 1.241 4.383 1.916.437.204.965.377 1.297.707M217.005 90.637c3.183.771 6.143 2.331 9.211 3.449M224.213 87.586c2.129.56 4.231 1.442 6.274 2.255M227.684 81.616c1.614.576 3.58.85 5.073 1.592" stroke="#000" stroke-linecap="round"/><path d="M107.005 106.751c2.378-.191 4.429-.526 6.562-1.586M111.439 111.157c2.409-.681 4.827-1.629 7.271-2.115M116.76 114.682c4.172-.339 7.94-2.132 12.059-2.644M124.74 118.031c2.369-.471 4.713-1.271 7.094-1.586" stroke="#000" stroke-linecap="round"/><path d="M226.716 133.652c-9.86 6.277-17.589 6.443-20.221 5.741 15.599-5.167 15.792-11.099 25.806-27.558 10.014-16.458 26.768-12.056 23.879-11.673-2.888.382-11.747 6.506-16.561 15.501-3.852 7.196-10.207 14.991-12.903 17.989z" fill="#fff"/><path d="M201.89 139.405c22.365 1.512 26.13-31.875 43.291-37.941 4.124-1.458 8.271-2.22 12.508-1.23" stroke="#000" stroke-linecap="round"/><path d="M205.113 140.189c16.481.195 23.823-6.643 32.067-20.624 2.437-5.495 10.629-17.967 21.089-20.538" stroke="#000" stroke-linecap="round"/><path d="M248.361 143.073c-3.349-5.206-12.131-4.872-16.104-4.054 10.565-7.511 20.864-4.339 24.693-1.814 7.73-4.481 11.809.214 14.923.747 2.49.427 5.475-1.671 6.656-2.774 9.276-9.645 17.822-11.273 20.935-10.882-10.564 15.534-18.358 18.99-20.935 18.777 9.705 13.315 3.185 22.12-1.288 24.858.429-14.851-9.484-22.12-14.494-23.898 4.617 8.215-4.616 23.685-9.662 28.593-4.037 3.926-9.197 1.636-11.273 0 8.911-6.615 10.736-23.045 6.549-29.553z" fill="#fff"/><path d="M243.184 173.353c11.471 8.508 27.015-23.79 16.541-33.867-10.473-10.078-24.687-2.561-29.508 0" stroke="#000" stroke-linecap="round"/><path d="M241.106 173.105c13.798-9.086 15.159-39.112-7.772-33.75M253.883 137.242c-1.758-.788-3.748-.87-1.89 1.366 1.298 1.563 4.885 4.483 7.182 3.723 2.33-.772-7.437-10.164-8.075-5.089M257.272 136.885c16.319-8.748 41.118 24.112 19.217 31.473" stroke="#000" stroke-linecap="round"/><path d="M276.489 167.398c.752-11.949-6.295-20.598-13.711-23.593M270.692 137.845c1.971.317 3.538.165 5.231-.942 2.988-1.954 5.444-4.571 8.171-6.846 2.964-2.473 6.263-4.385 10.026-5.37 2.894-.758 5.802-1.031 8.779-1.031" stroke="#000" stroke-linecap="round"/><path d="M278.422 142.753c2.687-.274 4.89-1.396 7.109-2.881 2.859-1.913 5.098-4.166 6.931-7.065 1.858-2.938 3.58-5.938 6.382-8.12 2.042-1.591 4.415-2.466 6.847-3.272M261.507 149.844c.409-.665.134-1.411-.76-1.089-1.547.557-2.11 2.983-2.279 4.369-.129 1.068.172 4.312 1.753 2.352 1.048-1.298 1.42-2.74 1.154-4.326M213.122 136.907c1.864.525 3.666 1.254 5.61 1.43M217.438 133.333c2.509.706 4.911 2.005 7.48 2.43M221.034 129.616c2.415.972 4.77 1.92 7.337 2.431M223.48 126.614c2.786 1.124 5.672 1.674 8.631 2.144M226.357 121.825c2.708.594 5.324 1.549 8.056 2.001M229.79 117.321c2.195.57 4.464 1.003 6.617 1.716M232.543 113.176c2.128.555 4.269 1.293 6.473 1.43M236.283 108.744c2.454.523 4.847 1.177 7.337 1.573M240.167 105.17c2.598.477 5.174 1.074 7.768 1.573M244.77 101.882c2.415.343 4.756.913 7.193 1.144M258.962 139.942c1.906-.536 3.304-1.375 4.961-2.485.801-.536 2.429-2.282 3.342-2.282M263.206 144.893c3.796-2.058 8.165-4.081 11.254-7.151M268.556 148.559c3.725-1.498 6.972-4.11 10.701-5.5M272.8 151.86c3.501-1.193 6.531-3.305 9.962-4.584M274.46 157.177c3.169-1.316 6.227-2.745 9.225-4.401M275.382 161.577c4.055-.66 8.242-1.194 11.993-2.934" stroke="#000" stroke-linecap="round"/><path d="M274.644 137.559c3.621.521 6.957 2.226 10.517 2.933M278.334 135.359c2.605.033 5.151.638 7.708 1.09.607.107 3.649.987 3.916.193M284.423 130.775c1.75-.316 3.559-.183 5.329-.183 1.962 0 3.998-.165 5.925.183" stroke="#000" stroke-linecap="round"/><path d="M163.204 51.642 141.93 30.905a3.196 3.196 0 0 0-4.438 0l-4.417 4.306 5.604 5.463a3.795 3.795 0 0 1 3.834.87 3.57 3.57 0 0 1 .885 3.76l5.401 5.265c1.306-.44 2.814-.155 3.858.864a3.574 3.574 0 0 1 0 5.146 3.803 3.803 0 0 1-5.282 0 3.576 3.576 0 0 1-.813-3.958l-5.036-4.91-.001 12.92c.356.172.691.4.988.688a3.576 3.576 0 0 1 0 5.148c-1.459 1.421-3.824 1.421-5.28 0a3.574 3.574 0 0 1 0-5.148c.36-.35.777-.616 1.222-.794v-13.04a3.684 3.684 0 0 1-1.222-.794 3.57 3.57 0 0 1-.805-3.979l-5.524-5.385-14.587 14.218a3.005 3.005 0 0 0 0 4.326l21.274 20.736a3.196 3.196 0 0 0 4.438 0l21.175-20.64a3.005 3.005 0 0 0 0-4.327z" fill="#DE4C36"/><defs><radialGradient id="a" cx="0" cy="0" r="1" gradientUnits="userSpaceOnUse" gradientTransform="rotate(90.994 13.716 149.636) scale(38.6173 82.8521)"><stop/><stop offset="1" stop-color="#3E7BFA" stop-opacity="0"/></radialGradient></defs></svg>