<svg fill="none" height="597" viewBox="0 0 595 597" width="595" xmlns="http://www.w3.org/2000/svg" xmlns:xlink="http://www.w3.org/1999/xlink"><filter id="a" color-interpolation-filters="sRGB" filterUnits="userSpaceOnUse" height="684.262" width="1559.63" x="-217.915" y="-28.6118"><feFlood flood-opacity="0" result="BackgroundImageFix"/><feColorMatrix in="SourceAlpha" result="hardAlpha" type="matrix" values="0 0 0 0 0 0 0 0 0 0 0 0 0 0 0 0 0 0 127 0"/><feOffset dx="-12"/><feGaussianBlur stdDeviation="5"/><feColorMatrix type="matrix" values="0 0 0 0 0 0 0 0 0 0 0 0 0 0 0 0 0 0 0.05 0"/><feBlend in2="BackgroundImageFix" mode="normal" result="effect1_dropShadow"/><feColorMatrix in="SourceAlpha" result="hardAlpha" type="matrix" values="0 0 0 0 0 0 0 0 0 0 0 0 0 0 0 0 0 0 127 0"/><feOffset dx="4"/><feGaussianBlur stdDeviation="10"/><feColorMatrix type="matrix" values="0 0 0 0 0 0 0 0 0 0 0 0 0 0 0 0 0 0 0.2 0"/><feBlend in2="effect1_dropShadow" mode="normal" result="effect2_dropShadow"/><feBlend in="SourceGraphic" in2="effect2_dropShadow" mode="normal" result="shape"/></filter><filter id="b" color-interpolation-filters="sRGB" filterUnits="userSpaceOnUse" height="715.484" width="1670.67" x="-358.789" y="-49.9224"><feFlood flood-opacity="0" result="BackgroundImageFix"/><feColorMatrix in="SourceAlpha" result="hardAlpha" type="matrix" values="0 0 0 0 0 0 0 0 0 0 0 0 0 0 0 0 0 0 127 0"/><feOffset dy="6"/><feGaussianBlur stdDeviation="5"/><feColorMatrix type="matrix" values="0 0 0 0 0 0 0 0 0 0 0 0 0 0 0 0 0 0 0.4 0"/><feBlend in2="BackgroundImageFix" mode="normal" result="effect1_dropShadow"/><feBlend in="SourceGraphic" in2="effect1_dropShadow" mode="normal" result="shape"/></filter><linearGradient id="c" gradientUnits="userSpaceOnUse" x1="-223.675" x2="39.9952" y1="593.973" y2="857.654"><stop offset=".190802" stop-color="#73dfe7"/><stop offset=".386255" stop-color="#0095f7"/><stop offset=".918673" stop-color="#0095f7" stop-opacity="0"/></linearGradient><linearGradient id="d" gradientUnits="userSpaceOnUse" x1="442.421" x2="88.2431" y1="502.911" y2="400.334"><stop offset=".046875" stop-color="#62f91f" stop-opacity=".5"/><stop offset=".57549" stop-color="#62f91f" stop-opacity="0"/></linearGradient><linearGradient id="e" gradientUnits="userSpaceOnUse" x1="368.165" x2="985.987" y1="132.347" y2="465.331"><stop offset=".281442" stop-color="#8a36ff" stop-opacity="0"/><stop offset=".567126" stop-color="#9e74ff"/><stop offset=".730011" stop-color="#8a36ff" stop-opacity=".72"/><stop offset="1" stop-color="#8a36ff" stop-opacity="0"/></linearGradient><linearGradient id="f" gradientUnits="userSpaceOnUse" x1="789.663" x2="222.227" y1="99.4634" y2="-322.618"><stop offset=".0853962" stop-color="#ffc100" stop-opacity="0"/><stop offset=".429614" stop-color="#ffc100" stop-opacity=".8"/><stop offset=".707458" stop-color="#fff" stop-opacity="0"/></linearGradient><linearGradient id="g" gradientUnits="userSpaceOnUse" x1="-387.166" x2="287.728" y1="574.166" y2="651.078"><stop offset=".242204" stop-color="#fbfcfd"/><stop offset=".66534" stop-color="#fbfcfd" stop-opacity="0"/></linearGradient><linearGradient id="h" gradientUnits="userSpaceOnUse" x1="1101.2" x2="579.766" y1="15.1079" y2="154.829"><stop offset=".230265" stop-color="#fbfcfd"/><stop offset=".281975" stop-color="#fbfcfd"/><stop offset=".642618" stop-color="#fbfcfd" stop-opacity="0"/></linearGradient><radialGradient id="i" cx="0" cy="0" gradientTransform="matrix(-1.1670018 77.03556113 -144.3694354 -2.18703399 279.984 442.307)" gradientUnits="userSpaceOnUse" r="1"><stop offset="0"/><stop offset="1" stop-color="#3e7bfa" stop-opacity="0"/></radialGradient><linearGradient id="j" gradientUnits="userSpaceOnUse" x1="296.845" x2="308.344" y1="270.977" y2="620.737"><stop offset=".09375" stop-color="#25df4e" stop-opacity="0"/><stop offset=".328038" stop-color="#25df4e" stop-opacity=".44"/><stop offset=".614583" stop-color="#25df4e" stop-opacity="0"/></linearGradient><linearGradient id="k" gradientUnits="userSpaceOnUse" x1="230.438" x2="279.219" y1="170.625" y2="263.375"><stop offset="0" stop-color="#62f91f"/><stop offset="1" stop-color="#45bd35"/></linearGradient><linearGradient id="l" gradientUnits="userSpaceOnUse" x1="98.2597" x2="98.2597" y1="359.998" y2="364.989"><stop offset="0" stop-color="#62f91f"/><stop offset="1" stop-color="#5eaa53"/></linearGradient><clipPath id="m"><path d="m0 0h595v597h-595z"/></clipPath><g clip-path="url(#m)"><g stroke-width="100"><path d="m-304.479 676.18 380.0011-211.209 177.9889 75.884 190.001-102.443" stroke="url(#c)"/><path d="m75.5225 464.969 177.9895 75.884 251.15-146.708-251.15-82.208" stroke="url(#d)"/><path d="m518.855 170.289 327.588 103.708 242.417-164.415 163.79 60.707" stroke="url(#e)"/><path d="m861.732 281.584-334.139-88.531-238.047 118.885 192.185 70.824" stroke="url(#f)"/></g><g filter="url(#a)"><path d="m-190.914 630.649c57.328-31.618 191.638679-101.405 236.409-122.678 27.8449-13.231 43.1126-14.165 86.811 6.98 103.19 49.933 129.397 42.977 167.069 30.329 37.673-12.647 152.875-94.222 196.007-123.943s19.655-51.734-12.558-62.319c-76.983-25.294-156.696-46.447-156.696-46.447s139.225-71.458 177.99-87.267c38.764-15.809 89.843 4.21 139.224 17.074 110.288 28.73 197.099 53.119 244.053 36.045s425.315-282.03433 425.315-282.03433m-857.185 400.28633-180.173-64.501" stroke="#fbfcfd" stroke-linecap="round" stroke-linejoin="round" stroke-width="10"/></g><g filter="url(#b)"><path d="m-343.788 644.56c192.185-93.589 230.403-111.398 288.277-140.384 57.8738-28.987 107.0119-58.178 131.035-58.178s75.345 24.263 108.104 38.175 67.938 31.058 115.984 5.53 126.431-68.367 154.276-89.867c21.249-16.408-91.725-36.045-162.156-61.972-20.521-7.554-35.489-38.574-4.368-57.545s109.196-55.648 166.524-84.737 64.425-36.045 176.897-6.956c59.673 15.433 82.656 20.238 121.753 29.721 38.982 9.456 61.696 16.442 101.007 13.28 39.31-3.162 88.994-42.368 141.954-77.781 52.961-35.412 208.561-134.061 301.381-194.7679" stroke="#fbfcfd" stroke-linecap="round" stroke-linejoin="round" stroke-width="10"/></g><path d="m-355.801 150.053v483.126l306.8405-130.267 99.3682-51.854h41.4945l120.1158 51.854h44.77l32.759-5.059 163.247-96.119 4.368-13.912-167.615-54.383-10.92-6.956-10.919-22.765v-7.589l15.287-12.015 40.948-24.029 173.076-79.678 24.569-5.059h26.753l246.783 55.648 52.413 3.162 44.771-8.853 422.042-268.1225-59.51-60.0745h-1610.641z" fill="#fbfcfd"/><path d="m671.733 602.826-270.805 159.355-723.969-68.295 364.7141-185.915c78.6209-39.206 111.3799 41.736 190.0009 41.736 77.529 31.618 197.644-89.163 246.237-114.458 53.739-27.974 64.425-67.03-9.828-83.472l-139.225-38.574 194.369-98.649 299.196 73.355 69.886-7.589 54.598-27.824 137.583-97.384 243.51 45.53z" fill="#fbfcfd"/><path d="m-350.34 701.741c216.208 0 821.153-324.035 821.153-324.035" stroke="url(#g)" stroke-width="260"/><path d="m1149.2-95.8921-640 461.0001" stroke="url(#h)" stroke-width="260"/><g opacity=".2" stroke="#000" stroke-dasharray="1 5" stroke-linejoin="round"><path d="m-494.478-38.3872 1806.098 409.7712"/><path d="m-490.112 80.4971 1701.272 490.7139"/><path d="m-518.502 150.057 1509.087 479.331"/><path d="m-475.916-169.919 1791.906 252.9451"/><path d="m-459.535-94.0366 144.138 25.3507m1624.837 285.7719-1504.175-264.5502"/><path d="m1235.18-61.1528-1168.3909 695.5998"/><path d="m1210.07-120.595-1584.433 796.778"/><path d="m1213.35-171.185-1641.218 746.19"/></g><path d="m1106.68 383.287c15.2-383.607668-204.854 375.181-511.48 349.149-306.626-26.033-672.028-758.0196-797.624-272.583-125.596 485.437 393.659-1055.407 538.381-568.437s507.715 284.368 581.068 108.263641c73.353-176.104641 174.465 767.214359 189.655 383.607359z" stroke="#000" stroke-dasharray="1 5" stroke-linejoin="round"/><ellipse cx="260.065" cy="433.983" fill="url(#i)" fill-opacity=".1" rx="264.254" ry="141.017"/><path d="m374.721 426.03v-26.796l-59.512-20.265-3.822 1.264v-10.117l5.46-5.692-2.392-12.647-9.074-5.019-4.368 8.813v-8.813l-6.551-5.099-12.012 7.589v10.117l-4.914 5.059h-5.459l-4.914 19.737h8.896l-3.437 7.455-68.793 34.414v25.028l71.258 32.251z" fill="#fbfcfd"/><path d="m374.501 400.146-100.897 54.706-70.759-28.113-30.138-167.919h209.656z" fill="url(#j)" opacity=".7"/><g stroke="#000" stroke-linecap="round" stroke-linejoin="round"><path d="m196.732 424.498c22.292 10.103 64.453 26.38 85.292 34.238"/><path d="m201.102 451.058c20.838 9.541 56.699 24.696 80.445 34.238"/><path d="m266.617 461.809c37.193-20.619 69.423-38.837 114.656-63.869"/><path d="m272.078 483.939c37.945-21.877 70.159-38.198 108.104-60.075"/><path d="m374.723 394.144c.221 13.1 0 16.277 0 34.238"/><path d="m203.284 424.498c.124 8.232 0 23.012 0 31.993"/><path d="m275.354 452.321c.123 8.232 0 23.012 0 31.993"/><path d="m200.009 428.495c11.086-5.384 45.02-21.739 73.707-36.511m25.661-13.649c-2.871 1.601-5.985 3.298-9.282 5.064z"/><path d="m314.663 378.967c16.477 6.174 46.95 15.565 60.773 20.902"/><path d="m261.13 449.914c-2.07 9.304-3.373 16.792-5.307 25.483m22.558-19.226c-.951 4.273-1.885 8.471-2.802 12.594m-2.625 16.221c.859-3.858 1.733-7.79 2.625-11.795m-24.118 1.083 5.599-25.423m8.455 1.849c-2.07 9.304-3.905 18.026-5.839 26.717m10.201-24.472c-2.071 9.304-3.906 18.026-5.839 26.717m10.685-25.033c-2.071 9.304-3.905 18.251-5.839 26.942"/><path d="m220.931 460.242c1.494-6.715 3.253-15.853 4.846-23.013m-12.904-5.44c-2.071 9.304-3.093 14.711-5.026 23.402m3.877 1.294c1.256-5.649 3.624-16.461 5.025-23.185m-1.149 25.478c1.313-5.899 3.877-15.936 5.816-23.794m-12.901-4.879c-1.364 6.365-3.708 16.595-5.03 22.84m1.203-25.085-3.141 16.105"/><path d="m285.842 451.379-6.666 27.503m5.65-1.653c1.97-8.854 4.791-21.082 6.908-30.598zm12.972-33.513c-2.166 9.734-4.068 20.503-6.064 29.475z"/><path d="m229.654 438.351-4.846 23.574m8.903 3.54 5.151-23.012c-1.632 7.334-3.62 16.128-5.151 23.012zm1.274-25.819c-1.517 6.818-4.375 18.05-5.816 24.524z"/><path d="m303.746 440.307-6.604 30.373m11.478-31.996c-2.128 9.567-3.989 19.93-5.966 28.814zm-.981 26.809c1.998-8.981 4.316-20.52 6.48-30.245z"/><path d="m238.071 467.538 5.151-23.574m3.531 27.675c1.534-6.894 3.562-17.245 5.192-24.57zm-4.499-2.19c1.612-7.245 3.618-15.928 5.329-23.62z"/><path d="m319.579 432.266-6.604 30.222m5.511-4.473c1.966-8.835 4.483-19.742 6.604-29.274m4.862-2.344c-2.117 9.511-4.337 20.452-6.3 29.274"/><path d="m341.419 420.705c-2.121 9.532-4.335 19.877-6.3 28.711m5.515-3.405c2.002-8.997 4.084-19.391 6.244-29.101m-11.117 6.068-6.354 28.712"/><path d="m352.338 414.381-6.307 29.089m6.306-3.795c1.925-8.651 3.627-19.119 5.705-28.456m-.813 25.606c1.966-8.836 4.46-19.271 6.573-28.768"/><path d="m369.81 404.895-6.541 28.585m9.471-5.187c.662-2.974 1.396-6.21 2.156-9.542m-6.178 11.439c1.812-8.144 4.17-18.249 6.104-26.942z"/><path d="m267.222 383.546c.867.33 1.729.534 2.631.733 3.917.863 7.857 1.573 11.786 2.354"/><path d="m269.889 364.041c.935.174 1.785.363 2.699.693 4.34 1.569 8.624 3.368 12.929 5.06"/><path d="m281.64 348.746c4.437 1.692 9.054 2.844 13.569 4.21"/><path d="m291.574 341.028c3.855 1.659 7.748 3.203 11.631 4.771"/><path d="m304.778 347.062c3.406.939 6.73 2.402 10.056 3.648"/><path d="m311.929 380.459c2.14.611 4.281 1.212 6.421 1.825"/><path d="m307.688 397.157c2.393.64 4.768 1.401 7.147 2.105"/><path d="m302.6 404.594c.095.691.154 1.313.168 2.027.077 4-.028 8.005-.047 12.005"/><path d="m292.301 411.468c.265 3.916.214 7.866.363 11.787"/><path d="m281.033 419.328c2.665-2.212 4.716-5.505 6.906-8.279"/><path d="m275.703 407.401c2.273-3.24 5.239-5.886 7.875-8.7"/><path d="m282.331 400.657c-.45-3.36-1.418-9.534-.45-15.708"/><path d="m285.76 370.355c1.211-2.386 2.907-5.052 7.269-7.858"/><path d="m292.301 351.133c-.095 5.051-.2 10.101-.242 15.154"/><path d="m301.387 345.939v12.489"/><path d="m300.175 357.306c2.059 0 4.967.701 6.421 2.946"/><path d="m305.506 359.551c.642-.558 1.194-1.13 1.777-1.785 2.984-3.353 5.925-6.76 8.884-10.142"/><path d="m311.442 370.495c.168-.439.352-.827.633-1.185 2.155-2.745 4.505-5.302 6.758-7.936"/><path d="m313.141 349.869c.601 1.249.853 2.489 1.157 3.897.646 2.989 1.122 6.064 1.898 9.012.098.371.263.72.579.842"/><path d="m311.442 369.234c.968 5.051 1.266 8.592 0 12.629"/><path d="m316.411 381.44c.848 6.315-2.06 14.734-3.514 19.224"/><path d="m301.144 405.998c3.609-3.388 5.004-5.81 6.663-10.805"/><path d="m290.969 422.414c.755-.146 1.26-.315 1.992-.725 3.625-2.028 7.082-4.47 10.608-6.712"/><path d="m283.579 420.029c3.622.555 7.145 2.034 10.783 2.385"/><path d="m283.82 420.591c-.225-1.632-.404-3.276-.605-4.912"/><path d="m276.551 386.633c-.485-5.613 1.454-15.716 4.361-19.645"/><path d="m268.312 384.529c-.136-6.938 1.938-14.173 4.846-20.347"/><path d="m277.157 366.847c1.758-1.793 3.408-3.726 5.089-5.613"/><path d="m282.487 349.167c0 3.119-.149 6.236-.228 9.354-.015.569-.037.948.107 1.45"/><path d="m280.912 360.673c3.651.705 7.389 1.45 10.904 2.807"/><path d="m301.267 355.06c1.795-3.243 3.635-6.455 5.451-9.682"/><path d="m280.549 349.448c4.422-2.959 9.149-5.446 13.69-8.139"/><path d="m290.727 352.954c2.44-1.225 4.748-2.892 7.067-4.381 2.627-1.686 5.275-3.337 7.834-5.16"/><path d="m273.886 386.211c0 3.797.484 7.574.484 11.366"/><path d="m273.643 396.315c3.41 1.283 6.909 2.49 10.176 4.21"/><path d="m267.101 405.858c.923-.756 1.65-1.742 2.436-2.682 1.744-2.087 3.471-4.192 5.196-6.299"/><path d="m266.616 405.578c3.889.682 7.839.972 11.752 1.404"/><path d="m286.971 410.348c2.597.763 5.222.966 7.875 1.122"/><path d="m275.826 406.979c1.979 3.147 3.703 6.491 5.546 9.745.591 1.043 1.185 2.382 2.087 3.165"/><path d="m266.859 405.717c2.908 3.929 5.847 8.233 8.239 11.646"/><path d="m273.159 416.521c3.284.073 6.425 1.93 9.692 2.245"/><path d="m287.213 390.421c4.361 3.508 7.269 5.753 10.177 8.56"/><path d="m288.183 393.929c.484-3.929.969-11.226 1.453-16.277"/><path d="m287.696 381.02c1.887-1.804 8.73-7.241 10.662-8.981"/><path d="m295.209 371.76c3.091 2.247 6.578 3.864 9.854 5.706.862.485 2.034.947 2.867 1.59"/><path d="m293.997 398.42c1.939-1.122 9.017-6.19 10.661-7.296"/><path d="m303.204 392.244c.969-5.051 1.454-10.103 2.423-15.154"/><path d="m299.207 376.811c-.371 2.039-.731 4.08-1.131 6.112-.362 1.843-.746 3.682-1.09 5.531-.054.293-.081.397-.081.635"/><path d="m290.12 393.157c1.271-.56 2.496-1.273 3.729-1.933 1.204-.645 2.44-1.249 3.601-1.996"/><path d="m294.966 375.407c1.938 1.122 2.907 1.684 5.331 2.806"/><path d="m298.357 378.143c2.908 0 6.668-.223 9.208-.491"/><path d="m295.813 388.738c1.84.507 3.673 1.039 5.52 1.512 1.421.365 2.843.776 4.294.944"/><path d="m294.963 391.121c2.234.571 4.495 1.149 6.785 1.735m-4.551-16.329c1.02-.438 2.381-1.048 3.979-1.811m-2.82 6.863c2.221.568 4.445 1.126 6.683 1.684m-7.842 2.04c2.303.589 4.627 1.166 6.974 1.743"/><path d="m299.095 394.854-8.008-2.048"/><path d="m292.057 418.064-7.754-1.825m7.754-2.435-5.331-.791m-9.692-2.676-7.269-1.079m2.423 3.193c2.523.592 5.126 1.177 7.753 1.77"/><path d="m301.47 353.841c2.3.737 4.196 1.615 7.065 2.483m2.906-3.534-7.901-2.563"/><path d="m278.002 404.294c-2.636-.637-5.248-1.268-7.753-1.884m10.176-.624c-2.806-.678-5.101-1.648-7.753-2.301m8.238-8.56-6.3-1.578m0 4.351c2.394.626 4.839 1.266 7.269 1.901z"/><path d="m277.277 376.531-7.975-2.007m9.187-3.469-7.27-1.848m-2.907 10.382 8.848 2.148"/><path d="m292.057 359.504c-3.394-.842-6.828-1.666-10.193-2.478m10.193-1.418-10.193-2.449m-1.437 10.597 7.996 2.457"/><path d="m284.396 346.78c2.59.662 7.668 2.604 10.57 3.368m-7.177-6.059c3.3.955 5.723 1.892 11.538 3.814z"/></g><path clip-rule="evenodd" d="m304.062 202.157c.053-6.106-3.211-11.759-8.524-14.768l-25.755-14.583c-5.18-2.933-11.525-2.906-16.68.069l-26.507 15.3c-5.155 2.976-8.351 8.456-8.403 14.409l-.255 29.596c-.053 6.105 3.211 11.759 8.524 14.767l25.755 14.583c5.18 2.933 11.525 2.907 16.68-.069l26.507-15.299c5.155-2.976 8.351-8.457 8.403-14.409zm-29.098 15.521-11.073-3.024c-5.823-1.59-12.221-3.338-14.52-3.966-4.215-1.151-8.606-.577-12.383 1.613-3.777 2.189-6.483 5.728-7.621 9.984-1.141 4.256-.572 8.703 1.608 12.535s5.699 6.569 9.916 7.72c4.215 1.152 8.606.577 12.383-1.612 3.777-2.19 6.482-5.729 7.621-9.984l.71-2.814c.22-.875-.3-1.765-1.17-2.003l-2.753-.752c-.895-.244-1.816.294-2.042 1.194l-.682 2.706c-1.469 5.477-7.08 8.728-12.504 7.248-5.407-1.478-8.611-7.11-7.15-12.569 1.451-5.419 6.96-8.661 12.334-7.293l11.073 3.021c5.824 1.591 12.222 3.338 14.52 3.966 4.215 1.152 8.607.577 12.384-1.612 3.777-2.19 6.482-5.729 7.621-9.984 1.14-4.256.572-8.703-1.608-12.535-2.18-3.833-5.7-6.57-9.916-7.721-4.215-1.151-8.606-.577-12.383 1.613-3.778 2.189-6.483 5.728-7.622 9.984l-.614 2.039c-.269.892.251 1.83 1.15 2.075l2.753.752c.866.237 1.763-.26 2.022-1.119l.627-2.079c1.469-5.477 7.08-8.727 12.503-7.247 5.408 1.478 8.612 7.109 7.151 12.569-1.451 5.419-6.961 8.664-12.335 7.295z" fill="url(#k)" fill-rule="evenodd"/><path d="m104.023 339.852c0 .68-.12 1.33-.36 1.95s-.58 1.22-1.02 1.8-.96 1.15-1.56 1.71c-.58.54-1.2197 1.07-1.9197 1.59-.74.56-1.6 1.1-2.58 1.62s-1.97.98-2.97 1.38c-.98.42-1.91.75-2.79.99s-1.59.36-2.13.36c-.36 0-.62-.05-.78-.15-.18-.08-.27-.28-.27-.6 0-.22.08-.48.24-.78s.32-.45.48-.45.28.05.36.15c.06.1.09.21.09.33v.15c-.02.04-.03.07-.03.09v.06c.76-.08 1.78-.32 3.06-.72 1.26-.38 2.77-1.05 4.53-2.01.76-.42 1.51-.91 2.25-1.47.74-.58 1.3997-1.19 1.9797-1.83.6-.66 1.08-1.34 1.44-2.04.36-.72.54-1.42.54-2.1 0-.48-.25-.97-.75-1.47-.48-.52-1.1-1-1.8597-1.44-.74-.46-1.55-.85-2.43-1.17-.88-.34-1.7-.57-2.46-.69.02.1.05.35.09.75.04.38.1.83.18 1.35s.17 1.08.27 1.68c.12.58.25 1.12.39 1.62.16.56.26.98.3 1.26.06.26.1.48.12.66.02.2.05.46.09.78.06.3.1.62.12.96.04.32.07.63.09.93.04.28.06.5.06.66 0 .18-.04.37-.12.57-.06.2-.14.3-.24.3-.24 0-.41-.08-.51-.24-.08-.18-.16-.47-.24-.87-.06-.42-.14-.96-.24-1.62s-.29-1.47-.57-2.43c-.4-1.34-.68-2.6-.84-3.78-.16-1.2-.26-2.15-.3-2.85 0 0-.05 0-.15 0-.08-.02-.2-.03-.36-.03-.14 0-.31 0-.51 0-.18-.02-.35-.03-.51-.03-.34 0-.65.07-.93.21-.28.12-.51.26-.69.42-.2.16-.36.31-.48.45-.14.12-.23.18-.27.18-.14 0-.33-.03-.57-.09-.26-.08-.39-.22-.39-.42 0-.26.13-.52.39-.78.24-.28.54-.52.9-.72.36-.22.75-.39 1.17-.51.42-.14.81-.21 1.17-.21.6 0 1.3.08 2.1.24s1.62.38 2.46.66c.86.28 1.7.62 2.52 1.02.8397.4 1.5897.84 2.2497 1.32s1.19 1 1.59 1.56.6 1.14.6 1.74zm10.568 5.85c.02.04.03.1.03.18 0 .12-.09.3-.27.54-.06.08-.19.21-.39.39s-.47.36-.81.54-.76.34-1.26.48c-.48.14-1.05.21-1.71.21-.46 0-.91-.1-1.35-.3-.44-.22-.83-.53-1.17-.93-.34-.42-.62-.93-.84-1.53-.22-.62-.33-1.34-.33-2.16 0-.78.1-1.51.3-2.19s.45-1.28.75-1.8c.32-.52.67-.93 1.05-1.23s.75-.45 1.11-.45c.32 0 .64.07.96.21.34.12.64.28.9.48.28.2.5.43.66.69.16.24.24.49.24.75 0 .3-.14.61-.42.93-.26.32-.58.62-.96.9-.38.26-.76.48-1.14.66-.38.16-.68.24-.9.24-.12 0-.23-.05-.33-.15-.08-.12-.12-.26-.12-.42 0-.28.12-.5.36-.66.26-.16.54-.3.84-.42.3-.14.57-.3.81-.48.26-.18.39-.43.39-.75 0-.04-.05-.14-.15-.3s-.37-.24-.81-.24c-.2 0-.43.12-.69.36-.26.22-.51.53-.75.93-.24.38-.44.84-.6 1.38-.16.52-.24 1.09-.24 1.71 0 .52.09.99.27 1.41.2.42.45.78.75 1.08.3.28.65.5 1.05.66s.81.24 1.23.24c.3 0 .62-.06.96-.18.36-.14.69-.28.99-.42.32-.16.59-.3.81-.42.24-.14.39-.21.45-.21s.12.03.18.09c.08.06.13.12.15.18zm11.449-5.52c0 .52-.15 1.02-.45 1.5-.28.48-.63.93-1.05 1.35-.42.4-.88.78-1.38 1.14-.5.34-.96.64-1.38.9-.4.28-.73.51-.99.69s-.39.32-.39.42c0 .26.03.63.09 1.11.06.46.13.97.21 1.53.1.54.19 1.1.27 1.68.1.58.17 1.11.21 1.59 0 .02.01.11.03.27.04.16.08.34.12.54.06.2.1.38.12.54.04.18.06.29.06.33 0 .14-.01.29-.03.45 0 .18-.03.34-.09.48-.04.16-.11.29-.21.39s-.23.15-.39.15c-.22 0-.38-.1-.48-.3-.1-.18-.15-.36-.15-.54 0-.04 0-.08 0-.12.02-.04.03-.09.03-.15 0-.22-.08-.81-.24-1.77s-.34-2.11-.54-3.45c-.2-1.32-.38-2.74-.54-4.26-.16-1.54-.24-2.99-.24-4.35 0-.1.01-.21.03-.33.02-.14.03-.26.03-.36-.2.02-.5.11-.9.27-.38.16-.76.36-1.14.6-.38.22-.72.46-1.02.72-.28.24-.42.46-.42.66h-.21c-.06 0-.13-.04-.21-.12-.1-.08-.18-.17-.24-.27-.08-.1-.15-.2-.21-.3s-.09-.17-.09-.21c0-.42.25-.81.75-1.17.5-.38 1.12-.71 1.86-.99.76-.3 1.59-.53 2.49-.69.9-.18 1.75-.27 2.55-.27.78 0 1.43.09 1.95.27.54.18.97.4 1.29.66.32.24.55.49.69.75s.21.48.21.66zm-1.47-.09c0-.2-.25-.4-.75-.6-.5-.22-1.09-.33-1.77-.33-.6 0-1.04.02-1.32.06s-.47.08-.57.12c-.04.32-.07.7-.09 1.14s-.03.89-.03 1.35c0 .48.01.95.03 1.41.04.44.08.81.12 1.11.28-.18.66-.42 1.14-.72.5-.32.99-.67 1.47-1.05.48-.4.89-.81 1.23-1.23.36-.44.54-.86.54-1.26zm6.838 7.89c0 .16-.06.28-.18.36s-.26.12-.42.12c-.18 0-.37-.17-.57-.51-.18-.34-.36-.77-.54-1.29s-.35-1.08-.51-1.68c-.16-.62-.3-1.19-.42-1.71-.12-.54-.22-.99-.3-1.35-.06-.36-.09-.56-.09-.6 0-.08-.04-.29-.12-.63-.06-.34-.15-.87-.27-1.59-.1-.72-.22-1.65-.36-2.79-.12-1.16-.25-2.59-.39-4.29 0-.18.03-.41.09-.69s.2-.42.42-.42c.28 0 .49.19.63.57.16.38.28.85.36 1.41.1.56.17 1.15.21 1.77.04.6.09 1.13.15 1.59.08.64.15 1.22.21 1.74.08.52.15 1.04.21 1.56.08.5.17 1.03.27 1.59.12.56.26 1.18.42 1.86zm7.408-5.61c0 .44-.06.86-.18 1.26s-.28.75-.48 1.05-.44.54-.72.72c-.26.16-.55.24-.87.24-.56 0-1-.16-1.32-.48s-.57-.69-.75-1.11c-.16-.42-.27-.84-.33-1.26-.04-.44-.06-.77-.06-.99 0-.36.05-.76.15-1.2.12-.46.27-.88.45-1.26.2-.38.42-.7.66-.96s.49-.39.75-.39c.06 0 .15.02.27.06.14.04.28.1.42.18s.26.18.36.3c.12.12.2.26.24.42.22.02.44.1.66.24s.34.25.36.33c.16.52.26 1.04.3 1.56.06.52.09.95.09 1.29zm-1.35-.54c0-.3-.03-.61-.09-.93-.06-.34-.18-.68-.36-1.02-.04.02-.09.03-.15.03-.08 0-.15-.01-.21-.03-.04-.02-.08-.03-.12-.03-.24 0-.43.07-.57.21-.14.12-.25.29-.33.51-.06.2-.1.42-.12.66s-.03.47-.03.69.01.47.03.75c.02.26.06.51.12.75.08.24.18.45.3.63.12.16.28.24.48.24s.37-.1.51-.3c.14-.22.25-.47.33-.75s.13-.55.15-.81c.04-.28.06-.48.06-.6zm10.358-7.02c-.26 1.38-.5 2.71-.72 3.99-.1.54-.2 1.11-.3 1.71-.1.58-.2 1.16-.3 1.74-.08.56-.16 1.1-.24 1.62-.06.5-.11.96-.15 1.38-.08.64-.14 1.37-.18 2.19s-.08 1.6-.12 2.34c-.04.86-.06 1.73-.06 2.61 0 .18-.02.38-.06.6s-.06.44-.06.66c0 .2-.05.37-.15.51-.08.14-.21.21-.39.21-.16 0-.29-.13-.39-.39-.08-.24-.15-.53-.21-.87-.06-.32-.1-.65-.12-.99-.02-.32-.03-.55-.03-.69 0-.16 0-.36 0-.6 0-.22.01-.56.03-1.02.04-.44.09-1.02.15-1.74.06-.74.15-1.7.27-2.88 0-.02-.14-.12-.42-.3-.26-.18-.59-.4-.99-.66-.38-.28-.78-.58-1.2-.9-.4-.32-.74-.63-1.02-.93-.04-.04-.1-.13-.18-.27s-.12-.31-.12-.51c0-.1.05-.2.15-.3.1-.12.21-.18.33-.18.08 0 .16.04.24.12.46.4.99.85 1.59 1.35.6.48 1.19.92 1.77 1.32.04-.36.12-.91.24-1.65.14-.74.28-1.53.42-2.37.14-.86.27-1.69.39-2.49.14-.8.24-1.44.3-1.92 0-.08.02-.21.06-.39s.1-.36.18-.54.17-.33.27-.45c.1-.14.21-.21.33-.21.06 0 .19.06.39.18.2.1.3.34.3.72zm15.217 11.22c0 .16-.05.3-.15.42s-.22.22-.36.3c-.14.06-.29.11-.45.15-.14.04-.26.06-.36.06-.42 0-.78-.22-1.08-.66-.3-.46-.55-.96-.75-1.5-.2-.56-.35-1.08-.45-1.56-.08-.48-.12-.74-.12-.78-.12.22-.25.59-.39 1.11-.12.52-.27 1.05-.45 1.59-.18.52-.41.99-.69 1.41-.26.4-.6.6-1.02.6-.2 0-.39-.12-.57-.36s-.35-.55-.51-.93-.32-.81-.48-1.29c-.14-.48-.29-.95-.45-1.41-.14-.46-.28-.89-.42-1.29-.14-.42-.28-.75-.42-.99-.12.3-.23.71-.33 1.23-.08.52-.15 1.07-.21 1.65-.06.56-.11 1.12-.15 1.68s-.06 1.05-.06 1.47c0 .28-.08.48-.24.6-.14.12-.29.18-.45.18-.22 0-.44-.14-.66-.42-.22-.3-.44-.68-.66-1.14s-.43-.98-.63-1.56c-.18-.58-.35-1.16-.51-1.74-.14-.58-.25-1.13-.33-1.65-.08-.54-.12-.99-.12-1.35 0-.26.01-.5.03-.72.02-.18.03-.35.03-.51.02-.16.03-.25.03-.27 0-.06-.02-.1-.06-.12-.02-.02-.03-.07-.03-.15 0-.06.07-.15.21-.27.16-.14.32-.21.48-.21.28 0 .46.06.54.18.1.12.15.26.15.42 0 .06-.01.15-.03.27v.81c0 .28.05.7.15 1.26s.22 1.13.36 1.71.28 1.12.42 1.62c.16.48.29.78.39.9.04-.08.06-.17.06-.27.02-.12.04-.21.06-.27l.33-2.46c.08-.62.24-1.27.48-1.95.26-.7.53-1.24.81-1.62.1-.16.21-.24.33-.24s.23.09.33.27c.34.56.59 1.12.75 1.68.18.54.33 1.08.45 1.62.14.52.29 1.05.45 1.59.18.52.45 1.05.81 1.59.16-.26.36-.68.6-1.26.24-.6.48-1.2.72-1.8.26-.6.5-1.12.72-1.56.22-.46.39-.69.51-.69.06 0 .16.01.3.03s.24.03.3.03c.18 0 .33.21.45.63.12.4.22.88.3 1.44.1.54.19 1.09.27 1.65.1.54.21.95.33 1.23.08.2.2.39.36.57s.32.35.48.51zm10.453-.33c.02.04.03.1.03.18 0 .12-.09.3-.27.54-.06.08-.19.21-.39.39s-.47.36-.81.54-.76.34-1.26.48c-.48.14-1.05.21-1.71.21-.46 0-.91-.1-1.35-.3-.44-.22-.83-.53-1.17-.93-.34-.42-.62-.93-.84-1.53-.22-.62-.33-1.34-.33-2.16 0-.78.1-1.51.3-2.19s.45-1.28.75-1.8c.32-.52.67-.93 1.05-1.23s.75-.45 1.11-.45c.32 0 .64.07.96.21.34.12.64.28.9.48.28.2.5.43.66.69.16.24.24.49.24.75 0 .3-.14.61-.42.93-.26.32-.58.62-.96.9-.38.26-.76.48-1.14.66-.38.16-.68.24-.9.24-.12 0-.23-.05-.33-.15-.08-.12-.12-.26-.12-.42 0-.28.12-.5.36-.66.26-.16.54-.3.84-.42.3-.14.57-.3.81-.48.26-.18.39-.43.39-.75 0-.04-.05-.14-.15-.3s-.37-.24-.81-.24c-.2 0-.43.12-.69.36-.26.22-.51.53-.75.93-.24.38-.44.84-.6 1.38-.16.52-.24 1.09-.24 1.71 0 .52.09.99.27 1.41.2.42.45.78.75 1.08.3.28.65.5 1.05.66s.81.24 1.23.24c.3 0 .62-.06.96-.18.36-.14.69-.28.99-.42.32-.16.59-.3.81-.42.24-.14.39-.21.45-.21s.12.03.18.09c.08.06.13.12.15.18zm10.819-.54c0 .12-.04.24-.12.36s-.18.23-.3.33c-.1.1-.22.19-.36.27-.12.06-.23.09-.33.09-.34 0-.78-.07-1.32-.21-.52-.16-.94-.4-1.26-.72-.34-.34-.64-.74-.9-1.2-.26-.48-.55-1.18-.87-2.1-.22.88-.48 1.75-.78 2.61-.28.86-.74 1.65-1.38 2.37-.04.04-.1.06-.18.06-.14 0-.29-.07-.45-.21s-.24-.28-.24-.42-.02-.46-.06-.96c-.02-.52-.05-1.09-.09-1.71-.04-.64-.08-1.28-.12-1.92-.02-.66-.03-1.2-.03-1.62 0-.2.01-.46.03-.78.02-.34.08-.63.18-.87.02-.04.09-.12.21-.24.14-.12.29-.18.45-.18.14 0 .22.09.24.27s.03.38.03.6v4.74c0 .1.01.24.03.42.04.18.09.31.15.39.22-.48.42-1.04.6-1.68.2-.66.39-1.28.57-1.86.18-.6.36-1.1.54-1.5.18-.42.36-.63.54-.63.2 0 .36.04.48.12s.22.24.3.48c.1.58.18 1.1.24 1.56.06.44.13.84.21 1.2.1.36.23.7.39 1.02.18.3.42.58.72.84.28.26.59.45.93.57.36.12.67.18.93.18.12 0 .25-.02.39-.06.14-.06.24-.09.3-.09.08 0 .15.07.21.21.08.14.12.23.12.27zm9.197-9.87c-.26.3-.63.6-1.11.9-.48.28-.96.54-1.44.78s-.9.45-1.26.63c-.36.16-.54.27-.54.33s.04.24.12.54.17.66.27 1.08c.12.4.24.82.36 1.26s.22.83.3 1.17c.04.2.09.46.15.78s.11.64.15.96c.06.32.11.61.15.87.04.24.06.37.06.39 0 .3-.05.61-.15.93s-.26.48-.48.48c-.12 0-.23-.05-.33-.15s-.19-.21-.27-.33c-.08-.14-.14-.27-.18-.39s-.06-.21-.06-.27c0-.04 0-.1 0-.18.02-.08.03-.17.03-.27 0-.38-.06-.93-.18-1.65-.04-.22-.12-.56-.24-1.02s-.24-.93-.36-1.41c-.14-.56-.3-1.17-.48-1.83-.08-.28-.13-.42-.15-.42-.14 0-.38.09-.72.27-.32.16-.69.37-1.11.63-.42.24-.86.51-1.32.81-.46.28-.89.55-1.29.81-.4.24-.74.45-1.02.63-.3.16-.48.24-.54.24-.26 0-.47-.09-.63-.27s-.24-.38-.24-.6c0-.12.17-.29.51-.51.32-.24.73-.5 1.23-.78.48-.28 1.01-.57 1.59-.87.56-.3 1.08-.57 1.56-.81.5-.24.91-.44 1.23-.6.34-.16.51-.24.51-.24-.18-.92-.33-1.74-.45-2.46-.1-.62-.2-1.19-.3-1.71-.08-.52-.12-.8-.12-.84 0-.26.05-.45.15-.57.12-.14.25-.21.39-.21.22 0 .36.15.42.45.22 1.08.42 2.04.6 2.88.2.84.39 1.52.57 2.04.18-.04.49-.15.93-.33.44-.2.9-.41 1.38-.63s.91-.41 1.29-.57c.4-.18.63-.27.69-.27.12 0 .19.04.21.12.04.08.08.15.12.21z" fill="#000"/><g stroke-linecap="round" stroke-linejoin="round"><path d="m80.9844 364.325c34.3706 1.132 68.8816-1.076 103.2666-1.267 3.669-.02 7.339-.024 11.008-.014 1.502.004 5.838-.25 4.494.256-2.308.87-6.542.613-8.988.769-5.959.379-11.92.631-17.9.711-14.713.196-29.451.106-44.165.043-11.014-.047-22.103-.057-33.0442-1.124-.7935-.078-3.1329-.311-2.3414-.399 2.2976-.256 4.6936-.28 7.0056-.398 14.452-.74 28.927-1.192 43.391-1.779 13.193-.536 26.369-.886 39.577-1.096 1.379-.022 3.327-.052 4.758 0 .498.018 1.846-.051 1.473.199-1.151.771-6.311.32-7.591.37-29.297 1.143-58.671 2.216-87.9149 3.971-2.7794.166-5.5605.364-8.346.469-.4226.016-3.3137.104-1.0196-.256 9.5948-1.504 19.8635-1.376 29.6075-1.679 25.689-.801 53.966-1.338 78.549-1.338" stroke="url(#l)"/><path d="m156.839 367.502c-.978 3.746-1.862 7.637 2.232 9.322 4.582 1.887 9.254 1.961 13.835 3.144 2.912.753 6.9 1.63 8.843 5.716 1.451 3.054 1.035 6.32.853 9.299" stroke="#000"/><path d="m188.378 383.044c-2.529 3.317-3.109 7.919-5.343 11.384-.7 1.085-.528.396-.541-.271-.034-1.714-2.229-3.634-3.283-4.307-.934-.596-7.025.161-1.051-1.521 5.8-3.094 10.865-4.553 9.825-4.736-3.306-.582-6.221 4.188-8.855 5.821-3.499 2.169 3.387-2.374 5.562-2.666" stroke="#000"/></g></g></svg>