<svg width="226" height="153" viewBox="0 0 226 153" fill="none" xmlns="http://www.w3.org/2000/svg"><path d="M86.617 51.349 74.732 47.92 49.968 59.744l-.674 38.024 39.648 9.708 19.468-12.559.159-9.023 7.253 2.704-.445 25.135 37.668 9.029 19.445-11.27.685-38.669-28.403-7.58.445-25.135-35.666-9.639-22.774 11.857-.16 9.023Z" fill="#93D6F7"/><path fill-rule="evenodd" clip-rule="evenodd" d="M114.856 68.018a.577.577 0 0 1 .566.588l-.856 48.336a.577.577 0 1 1-1.153-.02l.856-48.336a.579.579 0 0 1 .587-.568Z" fill="#000"/><path fill-rule="evenodd" clip-rule="evenodd" d="M113.963 68.581a.883.883 0 1 1 1.766.03l-.855 48.337a.885.885 0 1 1-1.767-.031l.856-48.336Zm.888-.255a.27.27 0 0 0-.274.266l-.856 48.336a.27.27 0 1 0 .539.009l.856-48.336a.27.27 0 0 0-.265-.275Z" fill="#000"/><path fill-rule="evenodd" clip-rule="evenodd" d="M109.531 112.209a.588.588 0 0 1 .71-.415l48.13 12.315a.568.568 0 0 1 .408.701.588.588 0 0 1-.71.416l-48.13-12.316a.567.567 0 0 1-.408-.701Z" fill="#000"/><path fill-rule="evenodd" clip-rule="evenodd" d="M109.859 113.207a.87.87 0 0 1-.625-1.074.9.9 0 0 1 1.088-.636l48.13 12.315a.87.87 0 0 1 .624 1.074.9.9 0 0 1-1.087.636l-48.13-12.315Zm-.03-.922a.266.266 0 0 0 .19.328l48.131 12.315a.275.275 0 0 0 .332-.194.266.266 0 0 0-.191-.328l-48.13-12.315a.274.274 0 0 0-.332.194ZM111.545 73.556a.588.588 0 0 1 .716-.406l45.477 12.27c.307.083.485.399.397.706a.587.587 0 0 1-.715.406l-45.477-12.27a.568.568 0 0 1-.398-.706Z" fill="#000"/><path fill-rule="evenodd" clip-rule="evenodd" d="M111.858 74.558a.868.868 0 0 1-.609-1.082.9.9 0 0 1 1.096-.622l45.476 12.27a.87.87 0 0 1 .61 1.082.9.9 0 0 1-1.096.622l-45.477-12.27Zm-.017-.922a.265.265 0 0 0 .186.33l45.477 12.27a.275.275 0 0 0 .335-.19.266.266 0 0 0-.186-.33l-45.477-12.27a.275.275 0 0 0-.335.19ZM132.979 62.328a.587.587 0 0 1 .71-.415l48.13 12.315a.568.568 0 0 1 .408.701.588.588 0 0 1-.71.416L133.386 63.03a.568.568 0 0 1-.407-.702Z" fill="#000"/><path fill-rule="evenodd" clip-rule="evenodd" d="M133.306 63.326a.87.87 0 0 1-.624-1.074.9.9 0 0 1 1.087-.636L181.9 73.93a.87.87 0 0 1 .624 1.074.9.9 0 0 1-1.087.636l-48.131-12.315Zm-.03-.922a.266.266 0 0 0 .191.328l48.13 12.316a.274.274 0 0 0 .332-.195.265.265 0 0 0-.19-.328L133.608 62.21a.275.275 0 0 0-.332.194ZM147.851 126.592a.558.558 0 0 1 .157-.79l29.54-19.206a.596.596 0 0 1 .812.161.559.559 0 0 1-.156.79l-29.541 19.206a.597.597 0 0 1-.812-.161Z" fill="#000"/><path fill-rule="evenodd" clip-rule="evenodd" d="M148.838 127.006a.914.914 0 0 1-1.243-.246.856.856 0 0 1 .239-1.211l29.54-19.205a.914.914 0 0 1 1.244.246.858.858 0 0 1-.239 1.211l-29.541 19.205Zm-.729-.581a.279.279 0 0 0 .38.075l29.541-19.205a.262.262 0 0 0 .073-.37.279.279 0 0 0-.38-.075l-29.541 19.205a.262.262 0 0 0-.073.37ZM149.864 87.946a.56.56 0 0 1 .156-.79l29.541-19.206a.597.597 0 0 1 .812.161.558.558 0 0 1-.157.79l-29.54 19.206a.597.597 0 0 1-.812-.16Z" fill="#000"/><path fill-rule="evenodd" clip-rule="evenodd" d="M150.85 88.36a.913.913 0 0 1-1.243-.247.855.855 0 0 1 .239-1.21l29.541-19.206a.913.913 0 0 1 1.243.247.857.857 0 0 1-.239 1.21L150.85 88.36Zm-.728-.582a.279.279 0 0 0 .38.076l29.54-19.206a.261.261 0 0 0 .073-.37.28.28 0 0 0-.38-.075l-29.54 19.206a.261.261 0 0 0-.073.37ZM110.448 77.091a.56.56 0 0 1 .21-.778l30.845-17.164a.594.594 0 0 1 .797.217.56.56 0 0 1-.21.778l-30.845 17.164a.594.594 0 0 1-.797-.217Z" fill="#000"/><path fill-rule="evenodd" clip-rule="evenodd" d="M111.401 77.573a.911.911 0 0 1-1.222-.332.858.858 0 0 1 .322-1.192l30.845-17.165a.912.912 0 0 1 1.222.333.858.858 0 0 1-.323 1.192l-30.844 17.164Zm-.686-.63a.28.28 0 0 0 .374.1l30.844-17.164a.262.262 0 0 0 .098-.364.278.278 0 0 0-.373-.101l-30.844 17.164a.262.262 0 0 0-.099.364ZM154.16 78.364a.578.578 0 0 1 .567.589L153.893 126a.577.577 0 1 1-1.152-.02l.833-47.047a.577.577 0 0 1 .586-.569Z" fill="#000"/><path fill-rule="evenodd" clip-rule="evenodd" d="M153.267 78.928a.884.884 0 0 1 .898-.87.885.885 0 0 1 .868.9l-.833 47.047a.885.885 0 1 1-1.767-.03l.834-47.047Zm.887-.255a.27.27 0 0 0-.274.266l-.833 47.047a.27.27 0 1 0 .539.009l.833-47.047a.27.27 0 0 0-.265-.275ZM173.218 70.312a.576.576 0 0 1 .566.588l-.764 43.18a.578.578 0 1 1-1.153-.02l.765-43.18a.577.577 0 0 1 .586-.568Z" fill="#000"/><path fill-rule="evenodd" clip-rule="evenodd" d="M172.324 70.874a.885.885 0 1 1 1.767.03l-.765 43.181a.884.884 0 1 1-1.766-.031l.764-43.18Zm.888-.255a.27.27 0 0 0-.274.266l-.765 43.18a.27.27 0 1 0 .54.009l.764-43.18a.27.27 0 0 0-.265-.275Z" fill="#000"/><path fill-rule="evenodd" clip-rule="evenodd" d="M173.032 84.773c.308.08.49.394.406.7-1.667 6.09-3.127 11.272-4.557 16.35l-.075.267-.075.268-4.234 15.186-.001.003a.588.588 0 0 1-.713.408.568.568 0 0 1-.406-.701c1.499-5.475 2.858-10.3 4.236-15.192l4.705-16.878.001-.003a.587.587 0 0 1 .713-.408Zm-15.876-2.204a.568.568 0 0 1 .389.712l-3.038 10.06a.588.588 0 0 1-.723.393.568.568 0 0 1-.389-.711l3.039-10.06a.587.587 0 0 1 .722-.394Zm16.171 13.405a.567.567 0 0 1 .402.704l-5.14 18.198a.588.588 0 0 1-.716.405.568.568 0 0 1-.402-.704l5.141-18.198a.587.587 0 0 1 .715-.405Z" fill="#000"/><path fill-rule="evenodd" clip-rule="evenodd" d="M172.022 85.103a.9.9 0 0 1 1.092-.626.87.87 0 0 1 .622 1.074c-1.667 6.09-3.127 11.273-4.557 16.351l-.15.534-4.234 15.186-.001.002a.9.9 0 0 1-1.092.626.869.869 0 0 1-.622-1.073 2071.895 2071.895 0 0 1 4.236-15.195l4.705-16.876.001-.003Zm.595.157-.001.001-4.705 16.879c-1.378 4.893-2.737 9.717-4.236 15.191a.266.266 0 0 0 .19.328.275.275 0 0 0 .334-.191l.001-.002 4.234-15.187.151-.535c1.43-5.078 2.889-10.26 4.556-16.348a.266.266 0 0 0-.191-.327.274.274 0 0 0-.333.19Zm-16.478-2.383a.899.899 0 0 1 1.106-.602.87.87 0 0 1 .596 1.09l-3.038 10.061a.9.9 0 0 1-1.107.602.87.87 0 0 1-.596-1.09l3.039-10.06Zm.929-.014a.275.275 0 0 0-.338.184l-3.039 10.06a.266.266 0 0 0 .182.334.275.275 0 0 0 .338-.184l3.039-10.061a.266.266 0 0 0-.182-.333ZM172.315 96.3a.9.9 0 0 1 1.096-.621.87.87 0 0 1 .616 1.078l-5.141 18.198a.898.898 0 0 1-1.096.621.87.87 0 0 1-.615-1.079l5.14-18.197Zm.929-.031a.274.274 0 0 0-.334.19l-5.141 18.197a.266.266 0 0 0 .188.33.274.274 0 0 0 .335-.19l5.141-18.198a.266.266 0 0 0-.189-.33ZM172.583 72.193c.308.084.487.4.398.707l-13.472 46.712a.588.588 0 0 1-.718.401.567.567 0 0 1-.398-.706l13.473-46.712a.587.587 0 0 1 .717-.402Zm-5.39 4.42a.567.567 0 0 1 .403.7c-1.733 6.328-4.336 15.012-6.906 23.575l-.138.46-.141.47-6.441 21.964a.587.587 0 0 1-.714.4.567.567 0 0 1-.403-.699c1.553-5.673 3.971-13.738 6.445-21.979l7.181-24.492a.587.587 0 0 1 .714-.4Zm-4.672 1.207c.31.08.492.394.408.701l-4.525 16.531-.074.272-4.12 15.052a.588.588 0 0 1-.712.412.568.568 0 0 1-.408-.701l4.12-15.052.075-.273.075-.273c1.359-4.97 2.749-10.05 4.449-16.258a.587.587 0 0 1 .712-.41Z" fill="#000"/><path fill-rule="evenodd" clip-rule="evenodd" d="M171.569 72.513a.9.9 0 0 1 1.099-.615.87.87 0 0 1 .61 1.083l-13.473 46.711a.9.9 0 0 1-1.099.616.87.87 0 0 1-.61-1.083l13.473-46.712Zm.929-.025a.275.275 0 0 0-.336.188l-13.473 46.712a.265.265 0 0 0 .187.33.274.274 0 0 0 .335-.188l13.473-46.712a.265.265 0 0 0-.186-.33Zm-6.316 4.442a.9.9 0 0 1 1.095-.613.87.87 0 0 1 .616 1.072c-1.734 6.333-4.338 15.02-6.908 23.583l-.279.928v.002l-6.44 21.963a.9.9 0 0 1-1.094.612.87.87 0 0 1-.617-1.072c1.554-5.676 3.973-13.745 6.446-21.984l7.181-24.491Zm.927-.023a.275.275 0 0 0-.334.188l-7.182 24.492v.001c-2.474 8.243-4.89 16.304-6.442 21.971a.266.266 0 0 0 .188.328.275.275 0 0 0 .334-.187l6.441-21.965v-.002l.279-.93c2.571-8.564 5.173-17.244 6.905-23.568a.266.266 0 0 0-.189-.328Zm-5.598 1.247a.9.9 0 0 1 1.091-.63.869.869 0 0 1 .624 1.074l-4.599 16.803-4.119 15.052a.9.9 0 0 1-1.091.63.87.87 0 0 1-.625-1.074c1.522-5.556 2.812-10.27 4.12-15.051l.149-.547 4.45-16.257Zm.929-.038a.274.274 0 0 0-.333.192l-4.45 16.257-.15.547-4.119 15.052c-.04.143.046.29.191.328a.276.276 0 0 0 .333-.193l4.12-15.052 4.599-16.803a.266.266 0 0 0-.191-.328Z" fill="#000"/><path fill-rule="evenodd" clip-rule="evenodd" d="M163.952 78.336a.575.575 0 0 0-1.079.273l-.226 12.73a.578.578 0 0 0 1.069.31.576.576 0 0 0 1.079-.274l.226-12.728a.578.578 0 0 0-1.069-.311Z" fill="#000"/><path fill-rule="evenodd" clip-rule="evenodd" d="M162.567 78.605a.885.885 0 0 1 1.393-.709.884.884 0 0 1 1.368.756l-.225 12.729a.885.885 0 0 1-1.394.708.885.885 0 0 1-1.368-.756l.226-12.728Zm.888-.256a.271.271 0 0 0-.275.266l-.225 12.729a.27.27 0 0 0 .5.145.308.308 0 0 1 .529.009.27.27 0 0 0 .505-.128l.226-12.728a.27.27 0 0 0-.501-.145.305.305 0 0 1-.529-.01.268.268 0 0 0-.23-.138Z" fill="#000"/><path fill-rule="evenodd" clip-rule="evenodd" d="M128.254 67.373a.576.576 0 0 1 .723-.377c4.563 1.443 8.845 2.705 13.115 3.964l.834.246c4.546 1.34 9.096 2.688 13.962 4.258.724.233 1.445.477 2.164.72 1.886.636 3.763 1.27 5.656 1.713.112.026.243.048.403.076l.067.011c.181.031.39.068.593.12.357.092.919.28 1.172.794a.58.58 0 0 1-.262.775.575.575 0 0 1-.772-.262c.004.007-.005-.018-.079-.06a1.473 1.473 0 0 0-.345-.126 6.485 6.485 0 0 0-.502-.1l-.065-.012a8.245 8.245 0 0 1-.473-.09c-1.95-.456-3.907-1.117-5.811-1.76a165.12 165.12 0 0 0-2.099-.698c-4.851-1.564-9.389-2.91-13.935-4.25l-.836-.246c-4.268-1.258-8.56-2.523-13.134-3.97a.578.578 0 0 1-.376-.726Z" fill="#000"/><path fill-rule="evenodd" clip-rule="evenodd" d="M127.961 67.281a.883.883 0 0 1 1.108-.578c4.559 1.442 8.839 2.704 13.108 3.962l.835.246c4.546 1.34 9.099 2.69 13.969 4.26.726.234 1.448.478 2.168.721 1.888.637 3.752 1.267 5.628 1.705.101.024.222.045.385.073l.067.011c.181.031.401.07.618.126.357.092 1.05.305 1.37.955a.888.888 0 0 1-.4 1.187.882.882 0 0 1-1.147-.334 1.231 1.231 0 0 0-.262-.091 6.234 6.234 0 0 0-.478-.096l-.069-.012a8.35 8.35 0 0 1-.486-.093c-1.965-.46-3.934-1.124-5.832-1.765l-.008-.003c-.708-.239-1.407-.475-2.095-.697-4.847-1.563-9.381-2.907-13.927-4.247l-.837-.246c-4.267-1.258-8.563-2.524-13.139-3.972a.886.886 0 0 1-.576-1.112Zm38.225 11.998a.269.269 0 0 0 .359.118.272.272 0 0 0 .122-.362c-.186-.379-.616-.54-.972-.632a7.29 7.29 0 0 0-.57-.115l-.073-.013a7.24 7.24 0 0 1-.415-.078c-1.907-.447-3.795-1.084-5.676-1.719l-.007-.002c-.72-.243-1.439-.486-2.161-.719-4.862-1.568-9.409-2.916-13.954-4.256l-.836-.246c-4.269-1.258-8.554-2.52-13.119-3.965a.27.27 0 0 0-.338.176.27.27 0 0 0 .176.34c4.57 1.446 8.86 2.71 13.128 3.968l.836.247c4.546 1.34 9.087 2.686 13.942 4.252.692.223 1.395.46 2.102.699 1.907.644 3.851 1.3 5.784 1.752.138.032.298.06.455.086l.065.011c.181.032.36.064.526.106.168.043.31.094.42.156a.624.624 0 0 1 .163.13c.016.019.029.04.04.062l-.004-.008c0-.002-.001-.004-.003-.005h.001l.009.017Zm-.003-.004-.549.273a.08.08 0 0 0 .007.014l.004.008.006.009.009.013.02.024.005.005a.102.102 0 0 0 .008.008l-.007-.005m.488-.366-.001-.003.001.003Z" fill="#000"/><path fill-rule="evenodd" clip-rule="evenodd" d="M124.938 67.317a.576.576 0 0 1 .723-.378c4.142 1.31 8.299 2.595 12.459 3.88 5.596 1.728 11.196 3.458 16.768 5.255.723.234 1.444.477 2.164.72 1.885.637 3.763 1.27 5.655 1.713.112.026.243.049.404.076l.066.012c.181.03.391.068.594.12.357.092.918.28 1.171.793a.58.58 0 0 1-.261.775.575.575 0 0 1-.772-.262c.003.007-.005-.017-.08-.06a1.445 1.445 0 0 0-.344-.125 6.612 6.612 0 0 0-.503-.101l-.064-.011a8.246 8.246 0 0 1-.473-.09c-1.951-.457-3.908-1.117-5.811-1.76-.709-.239-1.41-.476-2.1-.698-5.572-1.797-11.154-3.522-16.739-5.247-4.159-1.285-8.32-2.57-12.481-3.887a.578.578 0 0 1-.376-.725Z" fill="#000"/><path fill-rule="evenodd" clip-rule="evenodd" d="M124.645 67.224a.883.883 0 0 1 1.108-.579c4.141 1.31 8.297 2.594 12.456 3.88 5.596 1.728 11.198 3.458 16.772 5.256.725.234 1.448.478 2.167.72 1.888.638 3.753 1.267 5.628 1.706.102.024.222.045.386.073l.066.01c.182.032.402.071.618.127.358.091 1.051.305 1.371.954a.888.888 0 0 1-.401 1.188.881.881 0 0 1-1.146-.335 1.289 1.289 0 0 0-.262-.09 6.17 6.17 0 0 0-.479-.096l-.068-.012c-.152-.026-.329-.056-.487-.093-1.964-.46-3.933-1.124-5.832-1.765l-.007-.003c-.709-.239-1.408-.475-2.096-.697-5.57-1.796-11.15-3.52-16.736-5.245-4.158-1.285-8.32-2.57-12.482-3.888a.886.886 0 0 1-.576-1.111Zm39.54 12.665c.067.13.227.184.359.118a.271.271 0 0 0 .123-.363c-.187-.378-.617-.54-.973-.631a7.314 7.314 0 0 0-.569-.116l-.066-.01-.008-.002c-.154-.026-.293-.05-.414-.079-1.907-.446-3.796-1.083-5.677-1.718l-.007-.003c-.72-.243-1.439-.485-2.16-.718-5.57-1.796-11.168-3.526-16.765-5.255-4.158-1.284-8.317-2.569-12.46-3.88a.27.27 0 0 0-.162.516 1905.84 1905.84 0 0 0 12.478 3.886h.001c5.585 1.726 11.168 3.45 16.742 5.248.693.224 1.395.46 2.103.7 1.906.643 3.85 1.3 5.784 1.752.138.032.297.06.455.086l.064.011c.181.031.361.064.527.106.167.043.309.094.419.156a.66.66 0 0 1 .164.13.302.302 0 0 1 .04.061l-.007-.012.001.001.008.016ZM50.092 52.72a.577.577 0 0 1 .566.588l-.855 48.336a.578.578 0 0 1-.587.569.578.578 0 0 1-.566-.589l.856-48.336a.578.578 0 0 1 .586-.568Z" fill="#000"/><path fill-rule="evenodd" clip-rule="evenodd" d="M49.2 53.283a.884.884 0 1 1 1.766.03l-.856 48.337a.886.886 0 0 1-.899.871.885.885 0 0 1-.867-.901l.856-48.337Zm.887-.255a.27.27 0 0 0-.274.266l-.856 48.336a.27.27 0 1 0 .54.009l.855-48.336a.27.27 0 0 0-.264-.275Z" fill="#000"/><path fill-rule="evenodd" clip-rule="evenodd" d="M44.768 96.912a.587.587 0 0 1 .71-.416l48.13 12.315c.308.079.49.393.407.701a.587.587 0 0 1-.71.416l-48.13-12.315a.568.568 0 0 1-.407-.701Z" fill="#000"/><path fill-rule="evenodd" clip-rule="evenodd" d="M45.095 97.91a.87.87 0 0 1-.624-1.075.9.9 0 0 1 1.087-.636l48.13 12.315a.87.87 0 0 1 .625 1.074.9.9 0 0 1-1.087.636l-48.13-12.315Zm-.03-.923a.266.266 0 0 0 .19.328l48.131 12.315a.275.275 0 0 0 .333-.194.266.266 0 0 0-.191-.328l-48.13-12.315a.275.275 0 0 0-.333.194ZM44.124 58.22a.587.587 0 0 1 .71-.415l48.13 12.315c.31.079.492.393.408.701a.587.587 0 0 1-.71.415l-48.13-12.315a.568.568 0 0 1-.407-.7Z" fill="#000"/><path fill-rule="evenodd" clip-rule="evenodd" d="M44.452 59.218a.87.87 0 0 1-.624-1.074.9.9 0 0 1 1.087-.636l48.13 12.315a.87.87 0 0 1 .624 1.074.9.9 0 0 1-1.087.636l-48.13-12.315Zm-.03-.922a.266.266 0 0 0 .19.328l48.131 12.315a.275.275 0 0 0 .332-.194.266.266 0 0 0-.19-.328L44.754 58.1a.275.275 0 0 0-.332.195ZM65.583 45.696a.587.587 0 0 1 .71-.416l48.13 12.315a.567.567 0 0 1 .407.702.586.586 0 0 1-.709.415l-48.13-12.315a.568.568 0 0 1-.408-.701Z" fill="#000"/><path fill-rule="evenodd" clip-rule="evenodd" d="M65.91 46.694a.87.87 0 0 1-.624-1.075.9.9 0 0 1 1.087-.636l48.131 12.315a.87.87 0 0 1 .624 1.074.9.9 0 0 1-1.087.637l-48.13-12.316Zm-.03-.923a.266.266 0 0 0 .19.329l48.131 12.315a.276.276 0 0 0 .333-.195.266.266 0 0 0-.191-.328l-48.13-12.315a.275.275 0 0 0-.333.194ZM83.745 111.296a.56.56 0 0 1 .172-.787l26.842-16.673a.596.596 0 0 1 .808.177.56.56 0 0 1-.173.787l-26.841 16.674a.597.597 0 0 1-.808-.178Z" fill="#000"/><path fill-rule="evenodd" clip-rule="evenodd" d="M84.723 111.731a.914.914 0 0 1-1.238-.273.856.856 0 0 1 .264-1.205l26.841-16.674a.913.913 0 0 1 1.238.273.856.856 0 0 1-.264 1.205l-26.841 16.674Zm-.716-.597a.278.278 0 0 0 .378.083l26.841-16.673a.262.262 0 0 0 .081-.368.279.279 0 0 0-.378-.084l-26.842 16.674a.261.261 0 0 0-.08.368ZM82.421 72.562a.56.56 0 0 1 .222-.776l30.821-16.604a.595.595 0 0 1 .795.228.56.56 0 0 1-.221.775L83.216 72.79a.595.595 0 0 1-.795-.228Z" fill="#000"/><path fill-rule="evenodd" clip-rule="evenodd" d="M83.368 73.057a.912.912 0 0 1-1.217-.349.858.858 0 0 1 .34-1.188l30.821-16.605a.911.911 0 0 1 1.217.35.858.858 0 0 1-.339 1.187L83.368 73.057Zm-.676-.64c.074.13.24.177.372.106l30.821-16.604a.262.262 0 0 0 .104-.363.279.279 0 0 0-.372-.107L82.795 72.054a.262.262 0 0 0-.103.363ZM45.44 61.367a.562.562 0 0 1 .265-.763l32.122-15.077a.594.594 0 0 1 .78.272.562.562 0 0 1-.265.763L46.22 61.639a.594.594 0 0 1-.78-.273Z" fill="#000"/><path fill-rule="evenodd" clip-rule="evenodd" d="M46.358 61.913a.91.91 0 0 1-1.195-.416.86.86 0 0 1 .406-1.169L77.69 45.252a.91.91 0 0 1 1.194.417.86.86 0 0 1-.405 1.168L46.357 61.913Zm-.64-.677c.067.133.23.19.365.127l32.123-15.077a.263.263 0 0 0 .123-.357.278.278 0 0 0-.364-.127L45.842 60.879a.263.263 0 0 0-.123.357ZM89.398 63.067a.577.577 0 0 1 .566.588l-.833 47.047a.577.577 0 1 1-1.153-.02l.834-47.047a.578.578 0 0 1 .586-.568Z" fill="#000"/><path fill-rule="evenodd" clip-rule="evenodd" d="M88.505 63.63a.884.884 0 1 1 1.766.03l-.833 47.048a.884.884 0 1 1-1.766-.031l.833-47.047Zm.888-.255a.27.27 0 0 0-.274.266l-.833 47.047a.27.27 0 1 0 .54.009l.832-47.047a.27.27 0 0 0-.265-.275ZM109.78 55.037a.576.576 0 0 1 .566.589l-.764 43.18a.577.577 0 1 1-1.153-.02l.765-43.18a.577.577 0 0 1 .586-.569Z" fill="#000"/><path fill-rule="evenodd" clip-rule="evenodd" d="M108.888 55.6a.884.884 0 0 1 .898-.87.885.885 0 0 1 .868.9l-.765 43.18a.884.884 0 1 1-1.766-.03l.765-43.18Zm.887-.256a.27.27 0 0 0-.274.266l-.765 43.18a.27.27 0 1 0 .54.01l.764-43.18a.27.27 0 0 0-.265-.276ZM145.334 51.155c.309.08.492.394.408.7l-3.339 12.192a.587.587 0 0 1-.712.411.568.568 0 0 1-.408-.7l3.339-12.192a.587.587 0 0 1 .712-.411Z" fill="#000"/><path fill-rule="evenodd" clip-rule="evenodd" d="M144.324 51.49a.9.9 0 0 1 1.091-.63.87.87 0 0 1 .625 1.074l-3.339 12.19a.9.9 0 0 1-1.091.63.87.87 0 0 1-.625-1.073l3.339-12.192Zm.929-.039a.274.274 0 0 0-.333.193l-3.339 12.191a.266.266 0 0 0 .191.328.274.274 0 0 0 .333-.192l3.339-12.192a.266.266 0 0 0-.191-.328ZM143.408 42.097c.309.08.492.393.407.7l-5.622 20.533a.588.588 0 0 1-.713.412.568.568 0 0 1-.407-.701l5.623-20.533a.587.587 0 0 1 .712-.411Zm-6.112 3.675c.309.08.492.394.408.701l-5.12 18.695a.587.587 0 0 1-.712.411.568.568 0 0 1-.407-.7l5.119-18.696a.587.587 0 0 1 .712-.41Zm-4.997 1.936c.31.08.492.393.408.7l-5.337 19.49a.587.587 0 0 1-.712.411.567.567 0 0 1-.408-.7l5.337-19.49a.587.587 0 0 1 .712-.411Z" fill="#000"/><path fill-rule="evenodd" clip-rule="evenodd" d="M142.398 42.43a.9.9 0 0 1 1.091-.63.87.87 0 0 1 .625 1.074l-5.623 20.533a.9.9 0 0 1-1.091.63.87.87 0 0 1-.625-1.074l5.623-20.533Zm.929-.038a.274.274 0 0 0-.333.193l-5.623 20.532a.266.266 0 0 0 .191.329.275.275 0 0 0 .333-.193l5.623-20.533a.266.266 0 0 0-.191-.328Zm-7.04 3.714a.899.899 0 0 1 1.09-.63.87.87 0 0 1 .625 1.074l-5.12 18.695a.9.9 0 0 1-1.091.63.87.87 0 0 1-.624-1.074l5.12-18.695Zm.929-.038a.276.276 0 0 0-.334.192l-5.119 18.695c-.04.144.046.29.19.328a.276.276 0 0 0 .334-.192l5.119-18.695a.265.265 0 0 0-.19-.328Zm-5.926 1.973a.9.9 0 0 1 1.091-.63.87.87 0 0 1 .624 1.074l-5.337 19.49a.9.9 0 0 1-1.091.63.87.87 0 0 1-.625-1.074l5.338-19.49Zm.929-.038a.276.276 0 0 0-.334.193l-5.337 19.49a.266.266 0 0 0 .191.327.274.274 0 0 0 .333-.192l5.337-19.49a.265.265 0 0 0-.19-.328ZM97.975 44.484c.31.08.492.394.408.701l-2.465 9.002a.587.587 0 0 1-.712.41.568.568 0 0 1-.408-.7l2.465-9.002a.587.587 0 0 1 .712-.41Zm-9.004-2.07c.309.08.491.393.407.7l-2.46 8.984a.587.587 0 0 1-.712.41.568.568 0 0 1-.408-.7l2.46-8.983a.587.587 0 0 1 .713-.412Zm3.923 1.983c.31.08.492.394.408.7l-1.938 7.077a.587.587 0 0 1-.712.411.568.568 0 0 1-.408-.7l1.938-7.077a.587.587 0 0 1 .712-.411Z" fill="#000"/><path fill-rule="evenodd" clip-rule="evenodd" d="M96.966 44.818a.9.9 0 0 1 1.09-.63.87.87 0 0 1 .625 1.074l-2.465 9.001a.9.9 0 0 1-1.09.63.87.87 0 0 1-.625-1.074l2.465-9.001Zm.928-.038a.275.275 0 0 0-.333.192l-2.465 9.002c-.04.143.046.29.191.328a.275.275 0 0 0 .333-.193l2.465-9.001a.266.266 0 0 0-.19-.328Zm-9.933-2.033a.9.9 0 0 1 1.09-.63.87.87 0 0 1 .625 1.074l-2.46 8.983a.9.9 0 0 1-1.09.63.87.87 0 0 1-.625-1.074l2.46-8.983Zm.929-.038a.275.275 0 0 0-.334.192l-2.46 8.984c-.039.143.046.29.191.328a.275.275 0 0 0 .333-.193l2.46-8.983a.266.266 0 0 0-.19-.328Zm2.995 2.022a.9.9 0 0 1 1.09-.63.87.87 0 0 1 .625 1.074l-1.938 7.076a.9.9 0 0 1-1.09.63.87.87 0 0 1-.625-1.074l1.938-7.076Zm.928-.038a.275.275 0 0 0-.333.192l-1.938 7.076c-.04.144.046.29.191.328a.275.275 0 0 0 .333-.192l1.938-7.077a.266.266 0 0 0-.19-.328ZM111.728 48.375c.309.08.492.394.408.7l-1.969 7.19a.588.588 0 0 1-.713.412.568.568 0 0 1-.407-.701l1.969-7.19a.587.587 0 0 1 .712-.411Zm-4.785-1.169c.309.08.492.394.408.701l-2.266 8.271a.587.587 0 0 1-.712.411.568.568 0 0 1-.407-.7l2.265-8.272a.587.587 0 0 1 .712-.41Zm-4.215-.92c.309.08.492.394.408.7l-2.285 8.342a.587.587 0 0 1-.712.411.568.568 0 0 1-.407-.7l2.284-8.342a.587.587 0 0 1 .712-.411Z" fill="#000"/><path fill-rule="evenodd" clip-rule="evenodd" d="M110.718 48.709a.9.9 0 0 1 1.091-.63.87.87 0 0 1 .625 1.074l-1.969 7.19a.9.9 0 0 1-1.091.63.87.87 0 0 1-.625-1.074l1.969-7.19Zm.929-.039a.275.275 0 0 0-.333.193l-1.969 7.19a.266.266 0 0 0 .191.328.275.275 0 0 0 .333-.193l1.969-7.19a.266.266 0 0 0-.191-.328Zm-5.714-1.13a.9.9 0 0 1 1.091-.63.87.87 0 0 1 .625 1.074l-2.265 8.271a.9.9 0 0 1-1.091.63.87.87 0 0 1-.625-1.074l2.265-8.271Zm.929-.038a.274.274 0 0 0-.333.192l-2.265 8.271a.266.266 0 0 0 .191.328.275.275 0 0 0 .333-.192l2.265-8.271a.266.266 0 0 0-.191-.328Zm-5.144-.882a.9.9 0 0 1 1.091-.63.87.87 0 0 1 .625 1.074l-2.285 8.341a.9.9 0 0 1-1.091.63.87.87 0 0 1-.624-1.074l2.284-8.341Zm.929-.038a.275.275 0 0 0-.333.192l-2.284 8.341c-.04.144.046.291.19.328a.276.276 0 0 0 .334-.192l2.284-8.341a.266.266 0 0 0-.191-.328ZM121.157 51.04c.309.08.492.394.407.701l-9.766 35.665a.588.588 0 0 1-.713.411.568.568 0 0 1-.407-.7l9.767-35.666a.587.587 0 0 1 .712-.41Zm-4.193-.984a.567.567 0 0 1 .402.704l-7.496 26.576a.587.587 0 0 1-.715.406.567.567 0 0 1-.402-.704l7.496-26.577a.587.587 0 0 1 .715-.405Zm8.86 2.582c.31.08.492.394.408.7l-5.021 18.334a.587.587 0 0 1-.712.411.568.568 0 0 1-.407-.7l5.02-18.334a.587.587 0 0 1 .712-.411Z" fill="#000"/><path fill-rule="evenodd" clip-rule="evenodd" d="M120.147 51.374a.9.9 0 0 1 1.091-.63.87.87 0 0 1 .625 1.074l-9.767 35.665a.9.9 0 0 1-1.091.63.87.87 0 0 1-.625-1.074l9.767-35.665Zm.929-.038a.274.274 0 0 0-.333.192l-9.767 35.665a.266.266 0 0 0 .191.328.274.274 0 0 0 .333-.192l9.767-35.665a.266.266 0 0 0-.191-.328Zm-5.124-.954a.9.9 0 0 1 1.096-.622.87.87 0 0 1 .616 1.079l-7.496 26.576a.9.9 0 0 1-1.096.622.869.869 0 0 1-.616-1.079l7.496-26.576Zm.929-.031a.276.276 0 0 0-.335.19l-7.496 26.576a.266.266 0 0 0 .188.33.275.275 0 0 0 .335-.19l7.496-26.577a.265.265 0 0 0-.188-.33Zm7.934 2.62a.9.9 0 0 1 1.091-.63.87.87 0 0 1 .624 1.075l-5.02 18.333a.9.9 0 0 1-1.091.63.87.87 0 0 1-.625-1.074l5.021-18.334Zm.929-.038a.276.276 0 0 0-.334.193l-5.02 18.333a.266.266 0 0 0 .191.328.275.275 0 0 0 .333-.192l5.02-18.334a.265.265 0 0 0-.19-.328ZM97.644 34.613a.576.576 0 0 1 .723-.378c4.142 1.31 8.299 2.595 12.458 3.88 5.597 1.728 11.196 3.458 16.768 5.255.724.234 1.445.477 2.165.72 1.885.637 3.763 1.27 5.655 1.713a6.998 6.998 0 0 0 .47.088c.181.03.391.068.594.12.357.092.918.28 1.171.793a.58.58 0 0 1-.261.775.575.575 0 0 1-.772-.262c.003.007-.005-.018-.08-.06a1.439 1.439 0 0 0-.345-.125 6.485 6.485 0 0 0-.502-.101l-.064-.011c-.155-.027-.325-.056-.473-.09-1.951-.457-3.908-1.117-5.811-1.76-.709-.24-1.41-.476-2.1-.698-5.572-1.797-11.154-3.522-16.74-5.247-4.158-1.285-8.319-2.57-12.48-3.887a.578.578 0 0 1-.376-.725Z" fill="#000"/><path fill-rule="evenodd" clip-rule="evenodd" d="M97.35 34.52a.883.883 0 0 1 1.11-.579c4.14 1.31 8.296 2.594 12.455 3.88 5.596 1.728 11.198 3.458 16.772 5.256.725.234 1.448.478 2.167.72 1.889.638 3.753 1.267 5.628 1.706.102.024.222.044.386.072l.066.012c.182.03.402.07.619.125.357.092 1.05.306 1.37.955a.888.888 0 0 1-.401 1.188.881.881 0 0 1-1.146-.335 1.289 1.289 0 0 0-.262-.09 6.17 6.17 0 0 0-.479-.096l-.068-.012c-.152-.026-.329-.056-.487-.093-1.964-.46-3.933-1.124-5.832-1.765l-.007-.003c-.709-.24-1.408-.475-2.096-.697-5.57-1.796-11.149-3.52-16.735-5.245-4.159-1.285-8.321-2.57-12.483-3.888a.886.886 0 0 1-.576-1.111Zm39.541 12.665c.067.13.227.184.359.118a.271.271 0 0 0 .123-.363c-.187-.378-.617-.54-.973-.631a7.267 7.267 0 0 0-.569-.116l-.066-.011-.008-.001c-.154-.027-.293-.05-.414-.079-1.907-.446-3.796-1.083-5.677-1.718l-.007-.003c-.72-.243-1.439-.486-2.16-.718-5.57-1.796-11.168-3.526-16.764-5.255-4.159-1.285-8.318-2.57-12.46-3.88a.27.27 0 0 0-.163.516c4.16 1.317 8.32 2.602 12.478 3.886h.002c5.585 1.726 11.168 3.45 16.741 5.248.693.224 1.396.46 2.103.7 1.906.643 3.85 1.3 5.784 1.752.138.032.298.06.455.086l.064.011c.182.031.361.063.527.106.167.043.309.093.419.156a.66.66 0 0 1 .164.13.302.302 0 0 1 .04.061l-.007-.013.001.002.008.016Z" fill="#000"/><path fill-rule="evenodd" clip-rule="evenodd" d="M100.961 34.67a.576.576 0 0 1 .723-.378c4.563 1.443 8.845 2.705 13.115 3.964l.834.245c4.546 1.34 9.096 2.69 13.962 4.259.724.233 1.445.476 2.164.72 1.886.636 3.763 1.27 5.656 1.713a7.095 7.095 0 0 0 .47.087c.181.031.39.068.593.12.357.092.919.28 1.172.794a.58.58 0 0 1-.262.774.575.575 0 0 1-.772-.261c.004.007-.005-.018-.079-.06a1.478 1.478 0 0 0-.345-.126 6.44 6.44 0 0 0-.502-.1l-.065-.012a8.245 8.245 0 0 1-.473-.09c-1.95-.456-3.907-1.117-5.811-1.76a165.12 165.12 0 0 0-2.099-.698c-4.851-1.564-9.389-2.91-13.935-4.25l-.836-.246c-4.268-1.258-8.56-2.523-13.134-3.97a.578.578 0 0 1-.376-.726Z" fill="#000"/><path fill-rule="evenodd" clip-rule="evenodd" d="M100.669 34.576a.884.884 0 0 1 1.109-.578c4.559 1.442 8.838 2.704 13.108 3.962l.835.246c4.545 1.34 9.099 2.69 13.969 4.26.726.234 1.448.478 2.167.72 1.888.638 3.753 1.267 5.629 1.706.101.024.222.045.385.073l.067.011c.181.031.401.07.618.126.357.092 1.05.305 1.37.955a.887.887 0 0 1-.401 1.187.881.881 0 0 1-1.146-.334 1.258 1.258 0 0 0-.262-.091 6.234 6.234 0 0 0-.478-.096l-.069-.012c-.152-.026-.329-.056-.487-.093-1.964-.46-3.933-1.124-5.832-1.765l-.007-.003c-.708-.239-1.407-.475-2.095-.697-4.847-1.563-9.382-2.907-13.927-4.247l-.837-.246c-4.267-1.258-8.563-2.524-13.139-3.972a.887.887 0 0 1-.577-1.112Zm38.225 11.998a.27.27 0 0 0 .482-.244c-.187-.379-.617-.54-.973-.632a7.222 7.222 0 0 0-.569-.115l-.073-.013a7.154 7.154 0 0 1-.415-.078c-1.907-.447-3.796-1.084-5.676-1.719l-.008-.003c-.72-.243-1.439-.485-2.16-.718-4.862-1.568-9.409-2.916-13.955-4.256l-.835-.246c-4.269-1.258-8.554-2.52-13.119-3.965a.27.27 0 0 0-.163.516c4.571 1.446 8.86 2.71 13.128 3.968l.837.247c4.546 1.34 9.087 2.686 13.942 4.252.692.223 1.395.46 2.102.699 1.906.643 3.85 1.3 5.784 1.752.138.032.298.06.455.086l.064.011c.182.031.361.064.527.106.167.043.31.094.419.156a.66.66 0 0 1 .164.13c.015.018.029.04.04.062l-.004-.008a.142.142 0 0 1-.003-.006l.001.002a.391.391 0 0 1 .008.016Zm-.002-.004-.55.273a.225.225 0 0 0 .008.014l.004.008.006.009.009.013a.14.14 0 0 0 .02.024l.005.005a.11.11 0 0 0 .008.007l-.007-.004m.488-.366-.002-.003.002.003Z" fill="#000"/><path fill-rule="evenodd" clip-rule="evenodd" d="M136.658 45.633a.578.578 0 0 0-1.08.273l-.225 12.729a.577.577 0 0 0 1.069.31.575.575 0 0 0 1.079-.273l.225-12.729a.576.576 0 0 0-1.068-.31Z" fill="#000"/><path fill-rule="evenodd" clip-rule="evenodd" d="M135.271 45.9a.886.886 0 0 1 1.394-.708.883.883 0 0 1 1.367.756l-.225 12.729a.885.885 0 0 1-1.394.708.883.883 0 0 1-1.367-.756l.225-12.728Zm.888-.255a.271.271 0 0 0-.275.266l-.225 12.729a.27.27 0 0 0 .5.145.308.308 0 0 1 .53.009.267.267 0 0 0 .23.138.271.271 0 0 0 .275-.266l.225-12.728a.27.27 0 0 0-.5-.146.308.308 0 0 1-.529-.009.27.27 0 0 0-.231-.138ZM87.564 35.314a.577.577 0 0 1 .566.588l-.296 16.756a.577.577 0 1 1-1.153-.02l.297-16.756a.578.578 0 0 1 .586-.568Z" fill="#000"/><path fill-rule="evenodd" clip-rule="evenodd" d="M86.672 35.877a.884.884 0 1 1 1.766.03l-.297 16.757a.884.884 0 1 1-1.766-.03l.297-16.757Zm.887-.255a.27.27 0 0 0-.274.266l-.297 16.756a.27.27 0 1 0 .54.01l.296-16.757a.27.27 0 0 0-.265-.275Z" fill="#000"/><path fill-rule="evenodd" clip-rule="evenodd" d="m86.68 52.639.183-10.312 1.153.02-.182 10.312-1.153-.02Z" fill="#000"/><path fill-rule="evenodd" clip-rule="evenodd" d="m86.563 42.015 1.766.03-.194 10.927-1.766-.03.194-10.927Zm.602.626-.172 9.696.54.01.172-9.697-.54-.01ZM108.664 86.267a.587.587 0 0 1 .709-.415l5.286 1.352a.568.568 0 0 1 .407.701.587.587 0 0 1-.71.415l-5.285-1.352a.568.568 0 0 1-.407-.701Z" fill="#000"/><path fill-rule="evenodd" clip-rule="evenodd" d="M108.991 87.266a.87.87 0 0 1-.625-1.074.9.9 0 0 1 1.088-.637l5.285 1.353a.87.87 0 0 1 .624 1.074.9.9 0 0 1-1.087.636l-5.285-1.352Zm-.03-.922a.266.266 0 0 0 .19.328l5.286 1.352a.275.275 0 0 0 .332-.194.266.266 0 0 0-.191-.328l-5.285-1.353a.274.274 0 0 0-.332.195ZM81.596 40.814a.587.587 0 0 1 .71-.416l48.13 12.316a.568.568 0 0 1 .408.7.588.588 0 0 1-.71.416l-48.13-12.315a.568.568 0 0 1-.408-.701Z" fill="#000"/><path fill-rule="evenodd" clip-rule="evenodd" d="M81.924 41.812a.87.87 0 0 1-.625-1.075.9.9 0 0 1 1.087-.636l48.131 12.315a.87.87 0 0 1 .624 1.075.9.9 0 0 1-1.087.636l-48.13-12.315Zm-.03-.922a.266.266 0 0 0 .19.328l48.131 12.315a.275.275 0 0 0 .332-.195.265.265 0 0 0-.191-.328l-48.13-12.315a.275.275 0 0 0-.332.195ZM105.685 29.624a.587.587 0 0 1 .71-.415l48.13 12.315a.568.568 0 0 1 .408.701.588.588 0 0 1-.71.416l-48.131-12.315a.568.568 0 0 1-.407-.702Z" fill="#000"/><path fill-rule="evenodd" clip-rule="evenodd" d="M106.012 30.622a.87.87 0 0 1-.624-1.074.9.9 0 0 1 1.087-.636l48.131 12.315a.87.87 0 0 1 .624 1.074.9.9 0 0 1-1.087.636l-48.131-12.315Zm-.03-.922a.266.266 0 0 0 .191.328l48.13 12.315a.275.275 0 0 0 .333-.194.266.266 0 0 0-.191-.328l-48.131-12.315a.275.275 0 0 0-.332.194Z" fill="#000"/><path fill-rule="evenodd" clip-rule="evenodd" d="M121.645 53.743a.56.56 0 0 1 .22-.776l30.42-16.457a.595.595 0 0 1 .795.227.56.56 0 0 1-.22.776L122.44 53.97a.595.595 0 0 1-.795-.227Z" fill="#000"/><path fill-rule="evenodd" clip-rule="evenodd" d="M122.593 54.236a.911.911 0 0 1-1.218-.347.857.857 0 0 1 .337-1.189l30.42-16.457a.912.912 0 0 1 1.218.347.858.858 0 0 1-.338 1.189l-30.419 16.457Zm-.678-.64c.074.13.24.177.372.106l30.42-16.457a.263.263 0 0 0 .103-.363.28.28 0 0 0-.373-.106l-30.419 16.457a.261.261 0 0 0-.103.363ZM82.923 43.983a.56.56 0 0 1 .23-.773l31.293-16.38a.595.595 0 0 1 .792.238.56.56 0 0 1-.231.772L83.714 44.22a.595.595 0 0 1-.791-.237Z" fill="#000"/><path fill-rule="evenodd" clip-rule="evenodd" d="M83.864 44.49a.911.911 0 0 1-1.213-.364.859.859 0 0 1 .354-1.184l31.293-16.38a.912.912 0 0 1 1.213.363.86.86 0 0 1-.354 1.184l-31.293 16.38Zm-.669-.65c.073.131.239.181.37.112l31.294-16.38a.263.263 0 0 0 .108-.362.28.28 0 0 0-.371-.111l-31.293 16.38a.262.262 0 0 0-.108.362ZM126.87 45.661a.577.577 0 0 1 .566.588l-.388 21.913a.578.578 0 1 1-1.153-.02l.388-21.912a.579.579 0 0 1 .587-.569Z" fill="#000"/><path fill-rule="evenodd" clip-rule="evenodd" d="M125.977 46.224a.883.883 0 1 1 1.766.03l-.388 21.913a.884.884 0 0 1-.898.87.885.885 0 0 1-.868-.9l.388-21.913Zm.888-.256a.271.271 0 0 0-.275.266l-.388 21.913a.27.27 0 1 0 .54.009l.388-21.912a.27.27 0 0 0-.265-.276ZM145.925 37.608a.577.577 0 0 1 .566.588l-.479 27.068a.577.577 0 1 1-1.153-.02l.479-27.068a.579.579 0 0 1 .587-.568Z" fill="#000"/><path fill-rule="evenodd" clip-rule="evenodd" d="M145.032 38.17a.883.883 0 1 1 1.766.03l-.479 27.069a.883.883 0 1 1-1.766-.03l.479-27.069Zm.888-.255a.271.271 0 0 0-.275.266l-.479 27.068a.27.27 0 1 0 .54.01l.479-27.07a.27.27 0 0 0-.265-.274ZM92.458 66.363c.31.08.492.394.408.7l-3.163 11.55a.587.587 0 0 1-.712.411.568.568 0 0 1-.408-.7l3.163-11.55a.587.587 0 0 1 .712-.411Z" fill="#000"/><path fill-rule="evenodd" clip-rule="evenodd" d="M91.448 66.697a.9.9 0 0 1 1.091-.63.87.87 0 0 1 .625 1.074L90 78.69a.9.9 0 0 1-1.091.629.87.87 0 0 1-.624-1.074l3.162-11.55Zm.93-.039a.275.275 0 0 0-.334.193L88.881 78.4c-.04.143.046.29.191.328a.275.275 0 0 0 .333-.193l3.163-11.55a.266.266 0 0 0-.19-.328ZM109.212 57.725c.309.08.492.394.407.701l-12.448 45.458a.586.586 0 0 1-.712.411.567.567 0 0 1-.408-.7L108.5 58.136a.587.587 0 0 1 .712-.41Zm-6.108 3.663c.309.08.491.394.407.702l-12.3 44.915a.587.587 0 0 1-.712.411.568.568 0 0 1-.407-.701l12.3-44.915a.587.587 0 0 1 .712-.411Zm-5.15 2.49c.31.08.493.394.408.702l-8.434 30.799a.587.587 0 0 1-.712.411.568.568 0 0 1-.408-.7l8.435-30.8a.587.587 0 0 1 .712-.411Z" fill="#000"/><path fill-rule="evenodd" clip-rule="evenodd" d="M108.202 58.06a.9.9 0 0 1 1.091-.63.869.869 0 0 1 .624 1.073l-12.448 45.458a.899.899 0 0 1-1.091.63.87.87 0 0 1-.625-1.074l12.449-45.458Zm.929-.039a.274.274 0 0 0-.333.193L96.349 103.67a.267.267 0 0 0 .19.329.275.275 0 0 0 .334-.193l12.449-45.458a.266.266 0 0 0-.191-.328Zm-7.037 3.701a.9.9 0 0 1 1.091-.63.87.87 0 0 1 .624 1.074l-12.3 44.916a.899.899 0 0 1-1.09.63.87.87 0 0 1-.625-1.074l12.3-44.916Zm.929-.038a.276.276 0 0 0-.334.193l-12.3 44.915a.265.265 0 0 0 .191.328.274.274 0 0 0 .333-.192l12.3-44.916a.265.265 0 0 0-.19-.328Zm-6.078 2.528a.9.9 0 0 1 1.09-.63.87.87 0 0 1 .625 1.074l-8.434 30.8a.9.9 0 0 1-1.091.63.87.87 0 0 1-.624-1.074l8.434-30.8Zm.929-.038a.275.275 0 0 0-.333.193l-8.435 30.799c-.04.144.046.29.191.328a.275.275 0 0 0 .333-.192l8.435-30.8a.266.266 0 0 0-.191-.328ZM109.54 76.776c.31.08.492.394.408.7l-5.852 21.37a.587.587 0 0 1-.712.411.568.568 0 0 1-.408-.7l5.852-21.37a.587.587 0 0 1 .712-.411Z" fill="#000"/><path fill-rule="evenodd" clip-rule="evenodd" d="M108.53 77.11a.9.9 0 0 1 1.091-.63.87.87 0 0 1 .625 1.074l-5.852 21.37a.9.9 0 0 1-1.091.629.87.87 0 0 1-.625-1.074l5.852-21.37Zm.929-.039a.275.275 0 0 0-.333.193l-5.852 21.37a.266.266 0 0 0 .191.327.274.274 0 0 0 .333-.192l5.852-21.37a.265.265 0 0 0-.191-.328ZM60.16 52.663a.576.576 0 0 1 .723-.377c4.142 1.31 8.3 2.595 12.458 3.88 5.596 1.728 11.196 3.458 16.768 5.255.724.233 1.445.477 2.165.72 1.885.636 3.762 1.27 5.655 1.713.112.026.243.049.404.076l.066.011c.181.031.39.069.594.12.357.092.918.28 1.171.794a.58.58 0 0 1-.261.775.575.575 0 0 1-.773-.262c.004.007-.004-.018-.08-.06a1.458 1.458 0 0 0-.344-.126 6.471 6.471 0 0 0-.502-.1l-.065-.011c-.154-.027-.324-.056-.473-.09-1.95-.457-3.907-1.118-5.81-1.76-.709-.24-1.41-.476-2.1-.699-5.572-1.797-11.154-3.52-16.74-5.246a1913.03 1913.03 0 0 1-12.48-3.887.578.578 0 0 1-.376-.726Z" fill="#000"/><path fill-rule="evenodd" clip-rule="evenodd" d="M59.867 52.57a.883.883 0 0 1 1.108-.578c4.14 1.31 8.297 2.594 12.456 3.879 5.596 1.728 11.198 3.46 16.772 5.257.725.234 1.448.478 2.167.72 1.888.638 3.752 1.267 5.628 1.706.102.023.222.044.386.072l.066.012c.182.03.402.07.618.125.358.092 1.051.306 1.371.955a.888.888 0 0 1-.401 1.187.881.881 0 0 1-1.146-.334 1.248 1.248 0 0 0-.263-.09 6.173 6.173 0 0 0-.478-.097l-.068-.011c-.152-.026-.329-.056-.487-.093-1.964-.46-3.933-1.125-5.832-1.766l-.007-.002c-.709-.24-1.408-.475-2.096-.697-5.57-1.797-11.15-3.52-16.736-5.246-4.158-1.284-8.32-2.57-12.482-3.887a.886.886 0 0 1-.576-1.112Zm39.54 12.665a.27.27 0 0 0 .36.119.271.271 0 0 0 .122-.363c-.187-.379-.617-.54-.973-.632a7.25 7.25 0 0 0-.57-.115l-.066-.011-.007-.001c-.154-.027-.293-.05-.414-.079-1.907-.446-3.796-1.084-5.677-1.719l-.007-.002c-.72-.243-1.439-.486-2.16-.718-5.57-1.797-11.168-3.526-16.765-5.255-4.159-1.285-8.317-2.57-12.46-3.88a.27.27 0 0 0-.163.516c4.16 1.316 8.32 2.601 12.48 3.886 5.585 1.726 11.168 3.45 16.742 5.248.693.223 1.395.46 2.103.7 1.906.643 3.85 1.299 5.784 1.751.138.033.297.06.454.087l.065.01c.181.032.36.064.527.107.167.043.31.093.42.155a.644.644 0 0 1 .163.13.307.307 0 0 1 .04.062l-.007-.013.001.002a.248.248 0 0 1 .008.015Z" fill="#000"/><path fill-rule="evenodd" clip-rule="evenodd" d="M63.476 52.72a.576.576 0 0 1 .723-.378c4.562 1.444 8.845 2.706 13.114 3.964l.835.246c4.545 1.34 9.096 2.69 13.962 4.258.723.234 1.444.477 2.164.72 1.886.637 3.763 1.27 5.655 1.713.113.026.244.049.404.076l.066.012c.182.03.391.068.594.12.357.092.918.28 1.172.793a.58.58 0 0 1-.262.775.575.575 0 0 1-.772-.262c.003.007-.005-.017-.08-.06a1.445 1.445 0 0 0-.344-.125 6.42 6.42 0 0 0-.567-.112c-.155-.027-.324-.055-.473-.09-1.95-.457-3.908-1.117-5.811-1.76-.709-.239-1.41-.476-2.1-.698-4.85-1.565-9.388-2.91-13.934-4.25l-.837-.246c-4.267-1.258-8.56-2.523-13.133-3.97a.578.578 0 0 1-.376-.726Z" fill="#000"/><path fill-rule="evenodd" clip-rule="evenodd" d="M63.183 52.627a.883.883 0 0 1 1.108-.579c4.56 1.443 8.839 2.704 13.109 3.963l.834.246c4.546 1.34 9.1 2.69 13.97 4.26.725.234 1.448.478 2.167.72 1.888.638 3.752 1.267 5.628 1.706.101.024.222.045.386.073l.066.01c.181.032.402.071.618.127.358.091 1.05.305 1.37.954a.888.888 0 0 1-.4 1.188.882.882 0 0 1-1.147-.335 1.237 1.237 0 0 0-.262-.09 6.234 6.234 0 0 0-.478-.096l-.069-.012c-.151-.026-.328-.056-.486-.093-1.965-.46-3.933-1.124-5.832-1.765l-.007-.003c-.71-.239-1.408-.475-2.096-.697-4.847-1.563-9.381-2.907-13.927-4.247l-.836-.247c-4.267-1.257-8.564-2.523-13.14-3.971a.886.886 0 0 1-.576-1.112Zm38.225 11.998a.269.269 0 0 0 .359.118.27.27 0 0 0 .122-.363c-.186-.378-.616-.54-.972-.631a7.29 7.29 0 0 0-.57-.116l-.073-.012a7.26 7.26 0 0 1-.415-.079c-1.906-.446-3.795-1.083-5.676-1.718l-.007-.003c-.72-.243-1.44-.485-2.16-.718-4.863-1.568-9.41-2.916-13.955-4.256l-.836-.246c-4.269-1.258-8.553-2.521-13.119-3.966a.27.27 0 0 0-.163.516c4.571 1.447 8.86 2.711 13.129 3.969l.836.246c4.546 1.34 9.087 2.687 13.942 4.252.692.224 1.395.46 2.103.7 1.906.643 3.85 1.3 5.783 1.752a7.9 7.9 0 0 0 .455.086l.065.011c.181.031.36.064.527.106.167.043.309.094.419.156a.624.624 0 0 1 .163.13.328.328 0 0 1 .037.054l-.003-.006v.002l.009.016Zm-.002-.004-.55.272a.086.086 0 0 0 .007.014l.005.008.005.01.009.013.02.024.005.005.009.007-.008-.005m.488-.366-.001-.002.001.002Z" fill="#000"/><path fill-rule="evenodd" clip-rule="evenodd" d="M99.174 63.683a.576.576 0 0 0-1.08.273l-.225 12.729a.577.577 0 0 0 1.069.31.576.576 0 0 0 1.079-.273l.225-12.729a.576.576 0 0 0-1.068-.31Z" fill="#000"/><path fill-rule="evenodd" clip-rule="evenodd" d="M97.788 63.951a.885.885 0 0 1 1.394-.708.883.883 0 0 1 1.367.756l-.225 12.728a.885.885 0 0 1-1.394.709.884.884 0 0 1-1.368-.756l.226-12.729Zm.888-.255a.27.27 0 0 0-.275.266l-.225 12.728a.27.27 0 0 0 .5.146.306.306 0 0 1 .53.009.27.27 0 0 0 .505-.128l.225-12.729a.27.27 0 0 0-.5-.145.307.307 0 0 1-.53-.009.27.27 0 0 0-.23-.138Z" fill="currentColor"/></svg>