<svg viewBox="0 0 285 90" fill="none" xmlns="http://www.w3.org/2000/svg"><path d="M18.04 84.656h1.845v-4.325h4.23v-1.546h-4.23V76.02h4.678v-1.547H18.04v10.182Zm8.015 0h1.8v-4.49c0-.969.73-1.655 1.72-1.655.303 0 .68.055.835.105V76.96a4.325 4.325 0 0 0-.647-.05c-.875 0-1.605.498-1.884 1.383h-.08V77.02h-1.744v7.636Zm8.617.15c1.78 0 3.002-.87 3.32-2.198l-1.68-.189c-.243.646-.84.984-1.615.984-1.164 0-1.934-.765-1.95-2.073h5.32v-.552c0-2.68-1.61-3.858-3.49-3.858-2.187 0-3.614 1.606-3.614 3.963 0 2.396 1.407 3.922 3.709 3.922Zm-1.92-4.689c.055-.974.776-1.795 1.85-1.795 1.034 0 1.73.756 1.74 1.795h-3.59Zm10.218 4.688c1.78 0 3.003-.87 3.322-2.197l-1.68-.189c-.245.646-.841.984-1.617.984-1.163 0-1.934-.765-1.949-2.073h5.32v-.552c0-2.68-1.61-3.858-3.49-3.858-2.188 0-3.614 1.606-3.614 3.963 0 2.396 1.407 3.922 3.708 3.922Zm-1.919-4.688c.055-.974.776-1.795 1.85-1.795 1.034 0 1.73.756 1.74 1.795h-3.59Z" fill="#30841F"/><path d="M12.293 22.176c-2.754-3.774 1.377-5.147 4.13-5.833 12.669 0 11.159 8.922 5.995 10.833 4.594 0 6.43 4.718 6.43 9.125 2.755 6.862 3.03 14.052 0 10.758-3.786-4.118-5.21-6.765-8.308-6.079-3.098.686-8.95 12.431-10.328 8.657-1.103-3.02-.95-7.195.656-12.456 0-.685-10.477-3.843 4.41-11.856-.295-.001-1.142-.622-2.985-3.149Z" fill="#fff"/><path fill-rule="evenodd" clip-rule="evenodd" d="M18.783 15.912c-1.564-.206-3.166-.188-4.721.191-1.143.28-2.661.837-3.1 2.318-.11.374-.151.758-.137 1.143-.142 1.207.278 2.35 1.004 3.357.732 1.015 1.79 1.912 2.966 2.638a14.536 14.536 0 0 0 3.741 1.633c1.248.34 2.47.466 3.46.284a6.725 6.725 0 0 0 1.902-.671c.118-.048.233-.1.347-.155.353-.173.665-.414.938-.702.141-.117.278-.24.41-.367 1.007-.974 1.741-2.261 1.832-3.71.102-1.625-.852-2.817-2.03-3.653-.752-.536-1.623-.947-2.44-1.257-.991-.444-2.078-.698-3.213-.894-.317-.06-.637-.112-.959-.155Zm.839.944a42.618 42.618 0 0 0-.948-.153c-1.485-.195-2.983-.176-4.422.176-1.15.28-2.223.755-2.522 1.768-.258.872-.033 1.898.47 2.9a8.797 8.797 0 0 0 1.924 2.507c1.118.994 2.858 1.818 4.69 2.212 1.694.364 3.407.349 4.746-.185.374-.2.735-.44 1.07-.713.475-.515.83-1.245 1.033-2.046.298-1.177.23-2.348-.128-2.979-.751-1.322-1.725-2.12-2.886-2.644-.424-.16-.836-.294-1.212-.403a19.74 19.74 0 0 0-1.815-.44ZM13.403 28.908a.4.4 0 0 0-.514.236c-2.829 7.635-3.723 13.418-3.645 17.07.04 1.813.319 3.153.765 3.93.222.386.525.7.923.79.419.094.805-.086 1.115-.384.93-.895 1.77-2.038 2.554-3.224.392-.594.773-1.204 1.144-1.801l.123-.197c.33-.531.652-1.05.972-1.546.724-1.117 1.417-2.078 2.118-2.73.7-.651 1.347-.939 1.995-.846.701.1 1.536.608 2.448 1.39.898.77 1.815 1.756 2.68 2.726l.676.765c.604.686 1.171 1.33 1.66 1.82.332.336.649.622.932.807.142.092.295.172.451.214a.78.78 0 0 0 .498-.02c.383-.113.649-.391.825-.727.178-.34.28-.764.334-1.224.107-.921.03-2.092-.147-3.284a27.923 27.923 0 0 0-.766-3.522c-.308-1.072-.654-2.009-.97-2.576a.4.4 0 0 0-.699.388c.27.486.596 1.351.9 2.407.3 1.05.572 2.26.744 3.42.172 1.165.239 2.255.143 3.075-.047.411-.133.727-.248.945-.111.213-.233.304-.354.336a.42.42 0 0 0-.041.014.835.835 0 0 1-.232-.114c-.21-.137-.479-.374-.802-.7-.47-.473-1.013-1.088-1.61-1.767-.225-.255-.458-.52-.697-.788-.867-.972-1.813-1.992-2.756-2.8-.93-.798-1.913-1.441-2.856-1.575-.994-.142-1.875.328-2.654 1.053-.779.724-1.517 1.758-2.244 2.88-.324.502-.651 1.028-.98 1.558l-.123.197a77.622 77.622 0 0 1-1.133 1.783c-.773 1.171-1.575 2.256-2.44 3.088-.197.19-.32.194-.383.18-.083-.019-.233-.108-.406-.409-.344-.598-.62-1.774-.659-3.549-.076-3.523.79-9.204 3.595-16.777a.399.399 0 0 0-.236-.512Z" fill="#000"/><path fill-rule="evenodd" clip-rule="evenodd" d="M24.749 20.605a.4.4 0 0 0-.506.252c-.433 1.294-1.915 1.96-3.76 2-1.825.042-3.785-.541-4.895-1.49a.4.4 0 0 0-.564.043.398.398 0 0 0 .044.563c1.299 1.11 3.47 1.727 5.432 1.683 1.942-.044 3.902-.752 4.502-2.546a.399.399 0 0 0-.253-.505ZM15.01 24.858a.399.399 0 0 1-.124.55c-3.801 2.39-5.858 4.303-6.784 5.807-.46.746-.628 1.371-.614 1.893.014.516.208.97.545 1.376.69.834 1.96 1.446 3.362 1.87a19.82 19.82 0 0 0 3.782.72.4.4 0 1 1-.072.795 20.622 20.622 0 0 1-3.943-.751c-1.435-.435-2.9-1.103-3.746-2.126-.432-.522-.708-1.142-.727-1.863-.02-.716.215-1.492.731-2.331 1.025-1.666 3.211-3.658 7.039-6.064a.4.4 0 0 1 .552.124Z" fill="#000"/><path d="m31.864 24.837-6.807.468-10.798.936 1.174 7.721h-4.695l4.695 3.51 17.135-1.17-.704-11.465Z" fill="#5FB34E"/><path fill-rule="evenodd" clip-rule="evenodd" d="M10.186 33.72a.4.4 0 0 1 .56-.074c.299.227 1.522 1.099 2.683 1.921l1.55 1.097.685.482a.398.398 0 1 1-.462.652l.206-.29-.206.29-.685-.483-1.551-1.097c-1.152-.816-2.393-1.7-2.706-1.939a.398.398 0 0 1-.074-.559Z" fill="#000"/><path fill-rule="evenodd" clip-rule="evenodd" d="M12.915 34.362h-2.411a.4.4 0 1 1 0-.798h4.694a.4.4 0 1 1 0 .798h-2.283Z" fill="#000"/><path fill-rule="evenodd" clip-rule="evenodd" d="M13.968 25.145a.4.4 0 0 1 .453.339l-.396.056-.396.057a.4.4 0 0 1 .34-.452Zm.057.395-.396.057.07.493a2488.23 2488.23 0 0 1 .752 5.296c.205 1.462.41 2.939.564 4.078.077.57.141 1.055.186 1.411a30.748 30.748 0 0 1 .067.597c0 .002 0 .002 0 0a.4.4 0 0 0 .8 0c0-.056-.01-.153-.02-.254l-.053-.442c-.046-.36-.11-.848-.187-1.419-.154-1.141-.36-2.619-.565-4.081a2162.326 2162.326 0 0 0-.751-5.299l-.071-.493-.396.056Z" fill="#000"/><path fill-rule="evenodd" clip-rule="evenodd" d="M32.733 24.807a.4.4 0 0 1-.369.428L14.056 26.64a.4.4 0 1 1-.062-.796l18.31-1.403a.4.4 0 0 1 .429.367Z" fill="#000"/><path fill-rule="evenodd" clip-rule="evenodd" d="M31.84 23.972a.4.4 0 0 1 .423.374l.704 11.698a.4.4 0 0 1-.798.048l-.704-11.698a.4.4 0 0 1 .375-.422Z" fill="#000"/><path fill-rule="evenodd" clip-rule="evenodd" d="M33.202 36.275a.4.4 0 0 1-.372.425l-17.135 1.17a.4.4 0 1 1-.055-.796l17.135-1.17a.4.4 0 0 1 .427.371Z" fill="#000"/><path d="M51.253 46.102c-.238 2.1-10.872 2.259-13.301.695l-.92-12.74-.749-4.611c5.655 2.726 15.182 1.352 15.596-.715-1.104 6.089.004 11.825-.626 17.371Z" fill="#5FB34E"/><path d="M52.02 28.762c-1.192 1.886-3.755 2.47-7.543 2.47-5.082 0-7.338-.84-8.057-1.729 3.685-3.095 11.915-1.618 15.6-.74Z" fill="#5FB34E"/><path fill-rule="evenodd" clip-rule="evenodd" d="M43.246 26.98c2.076-.064 5.146-.004 6.972.543.076.022.14.066.189.122.355.09.76.215 1.1.375.168.079.333.172.473.283.137.108.276.253.35.442.08.208.07.43-.037.639-.097.192-.266.355-.47.497-.96.667-2.186 1.022-3.408 1.226-1.216.203-2.467.262-3.508.312l-.028.001c-1.161.055-2.588.104-3.996.002-1.404-.101-2.826-.353-3.964-.921-.429-.214-.815-.55-.925-.997-.122-.498.134-.95.604-1.283.353-.249.846-.438 1.381-.587.543-.15 1.163-.268 1.792-.36a32.306 32.306 0 0 1 3.475-.295Zm-4.732 1.34c-.11.027-.217.054-.32.083-.507.14-.894.3-1.134.47-.312.22-.305.375-.289.441.03.117.169.304.506.473 1 .499 2.3.74 3.663.84 1.358.097 2.744.051 3.9-.004h.01c1.052-.05 2.264-.108 3.433-.303 1.175-.197 2.266-.526 3.083-1.094.145-.1.197-.171.213-.2a.413.413 0 0 0-.096-.098 1.669 1.669 0 0 0-.317-.186c-.553-.26-1.364-.426-1.64-.464-3.315-.458-7.29-.361-10.53.367a.4.4 0 0 1-.482-.325Z" fill="#000"/><path fill-rule="evenodd" clip-rule="evenodd" d="M37.14 27.733a.398.398 0 0 1 0 .565c-.404.403-.448.532-.456.618a.914.914 0 0 0 .038.28 9.418 9.418 0 0 0 .066.258c.026.099.055.212.085.34a.398.398 0 0 1 .01.068l.003.057c.374 6.532.783 13.67 1.192 16.86a.4.4 0 0 1-.794.102c-.412-3.22-.822-10.37-1.194-16.87l-.004-.07c-.025-.104-.05-.198-.072-.287L36 29.607l-.057-.226a1.656 1.656 0 0 1-.056-.538c.037-.404.293-.717.687-1.11a.4.4 0 0 1 .566 0ZM51.975 28.613a.4.4 0 0 1 .396.404l-.4-.005.4.005-.002.148a501.952 501.952 0 0 1-.027 1.961c-.02 1.291-.053 3.057-.101 4.954-.096 3.787-.254 8.124-.503 10.249a.4.4 0 0 1-.795-.093c.244-2.08.402-6.378.498-10.176a538.067 538.067 0 0 0 .123-6.483l.005-.422.002-.146.398.003-.398-.003a.4.4 0 0 1 .404-.396Z" fill="#000"/><path fill-rule="evenodd" clip-rule="evenodd" d="M52.02 41.142c.172.138.199.39.06.56-.592.73-1.659 1.272-2.9 1.644-1.257.376-2.753.595-4.274.634-1.52.038-3.08-.104-4.46-.46-1.375-.355-2.609-.932-3.437-1.792a.398.398 0 0 1 .01-.564.4.4 0 0 1 .566.011c.686.711 1.76 1.236 3.061 1.572 1.295.335 2.778.472 4.24.435 1.462-.037 2.887-.248 4.064-.6 1.192-.358 2.07-.842 2.508-1.381a.4.4 0 0 1 .563-.06Z" fill="#000"/><path fill-rule="evenodd" clip-rule="evenodd" d="M52.02 43.462c.172.14.199.39.06.562-.592.728-1.659 1.271-2.9 1.643-1.257.376-2.753.595-4.274.634-1.52.038-3.08-.104-4.46-.46-1.375-.355-2.609-.932-3.437-1.792a.398.398 0 0 1 .01-.564.4.4 0 0 1 .566.011c.686.711 1.76 1.236 3.061 1.572 1.295.335 2.778.472 4.24.435 1.462-.037 2.887-.248 4.064-.6 1.192-.358 2.07-.842 2.508-1.381a.4.4 0 0 1 .563-.06ZM38.639 27.984a.376.376 0 0 1 .264.483l-.626 1.957a.424.424 0 0 1-.507.278.376.376 0 0 1-.264-.483l.625-1.956a.424.424 0 0 1 .508-.279ZM49.164 27.728a.376.376 0 0 1 .288.47 196.03 196.03 0 0 0-.336 1.259c-.074.282-.115.436-.3 1.107a.424.424 0 0 1-.496.298.376.376 0 0 1-.285-.471c.185-.67.224-.818.297-1.095.059-.223.14-.53.338-1.267a.424.424 0 0 1 .494-.301ZM46.834 26.951a.376.376 0 0 1 .291.467l-.943 3.624a.424.424 0 0 1-.492.305.376.376 0 0 1-.291-.468l.943-3.623a.424.424 0 0 1 .492-.305ZM43.918 27.034a.376.376 0 0 1 .266.482 52.692 52.692 0 0 0-.751 2.622c-.084.315-.169.635-.266.988a.424.424 0 0 1-.496.298.376.376 0 0 1-.285-.472c.094-.34.178-.655.26-.966.208-.784.411-1.55.765-2.672a.424.424 0 0 1 .507-.28ZM41 27.706a.376.376 0 0 1 .275.476l-.82 2.78a.424.424 0 0 1-.501.29.376.376 0 0 1-.276-.476l.82-2.781a.424.424 0 0 1 .502-.29Z" fill="#000"/><path d="M48.806 21.462c0 1.027-.65 1.86-1.451 1.86s-1.45-.833-1.45-1.86c0-1.026.649-1.858 1.45-1.858.801 0 1.45.832 1.45 1.858Z" fill="#fff"/><path fill-rule="evenodd" clip-rule="evenodd" d="M47.355 22.523c.184 0 .65-.277.65-1.06 0-.784-.466-1.062-.65-1.062s-.65.278-.65 1.061c0 .784.465 1.061.65 1.061Zm0 .798c.801 0 1.45-.832 1.45-1.859 0-1.026-.649-1.858-1.45-1.858-.801 0-1.45.832-1.45 1.858 0 1.027.649 1.86 1.45 1.86Z" fill="#000"/><path d="M42.663 14.692c0 .985-.65 1.783-1.45 1.783-.802 0-1.451-.798-1.451-1.783 0-.985.65-1.784 1.45-1.784.801 0 1.451.799 1.451 1.784Z" fill="#fff"/><path fill-rule="evenodd" clip-rule="evenodd" d="M41.212 15.677c.211 0 .651-.277.651-.985 0-.709-.44-.986-.65-.986-.212 0-.651.277-.651.986 0 .708.44.985.65.985Zm0 .798c.801 0 1.451-.798 1.451-1.783 0-.985-.65-1.784-1.45-1.784-.802 0-1.451.799-1.451 1.784s.65 1.783 1.45 1.783Z" fill="#000"/><path d="M40.477 25.475c0 1.035-.65 1.874-1.451 1.874s-1.45-.84-1.45-1.874c0-1.035.649-1.874 1.45-1.874.801 0 1.45.839 1.45 1.874Z" fill="#fff"/><path fill-rule="evenodd" clip-rule="evenodd" d="M39.026 26.55c.18 0 .65-.277.65-1.075 0-.798-.47-1.076-.65-1.076-.18 0-.65.278-.65 1.076s.47 1.076.65 1.076Zm0 .799c.801 0 1.45-.84 1.45-1.874 0-1.035-.649-1.874-1.45-1.874-.801 0-1.45.839-1.45 1.874 0 1.035.649 1.874 1.45 1.874ZM47.642 14.521a.4.4 0 0 1 .4.4v2.538a.4.4 0 0 1-.8 0V14.92a.4.4 0 0 1 .4-.399Zm-10.645.483a.4.4 0 0 1 .4.4v2.539a.4.4 0 0 1-.8 0v-2.54a.4.4 0 0 1 .4-.399Zm6.651 2.54a.4.4 0 0 1 .4.399v2.539a.4.4 0 0 1-.8 0v-2.54a.4.4 0 0 1 .4-.398Zm-4.367 1.09a.4.4 0 0 1 .4.4v2.538a.4.4 0 0 1-.8 0v-2.539c0-.22.18-.399.4-.399Zm10.987 2.97a.4.4 0 0 1 .4.4v2.539a.4.4 0 0 1-.8 0v-2.54a.4.4 0 0 1 .4-.398Zm-6.173 1.31a.4.4 0 0 1 .4.399v2.54a.4.4 0 0 1-.8 0v-2.54a.4.4 0 0 1 .4-.399Z" fill="#000"/><mask id="a" style="mask-type:alpha" maskUnits="userSpaceOnUse" x="36" y="27" width="17" height="5"><path d="M52.334 28.762c-1.192 1.886-3.755 2.47-7.543 2.47-5.081 0-7.337-.84-8.057-1.729 3.686-3.095 11.915-1.618 15.6-.74Z" fill="#5FB34E"/></mask><g mask="url(#a)"><path d="M41.799 30.351a1.33 1.33 0 0 1-1.323 1.34c-.73 0-1.323-.6-1.323-1.34 0-.74.593-1.339 1.323-1.339s1.323.6 1.323 1.34Z" fill="#fff"/><path fill-rule="evenodd" clip-rule="evenodd" d="M40.476 30.892a.532.532 0 0 0 .523-.54c0-.31-.245-.542-.523-.542a.532.532 0 0 0-.523.541c0 .31.245.541.523.541Zm0 .798c.73 0 1.323-.6 1.323-1.339a1.33 1.33 0 0 0-1.323-1.339c-.73 0-1.323.6-1.323 1.34 0 .739.593 1.338 1.323 1.338Z" fill="#000"/><path d="M47.956 29.673c0 .861-.592 1.56-1.323 1.56-.73 0-1.323-.699-1.323-1.56 0-.862.593-1.56 1.323-1.56s1.323.698 1.323 1.56Z" fill="#fff"/><path fill-rule="evenodd" clip-rule="evenodd" d="M46.633 30.434c.169 0 .523-.21.523-.761s-.354-.762-.523-.762c-.168 0-.523.21-.523.762 0 .55.355.761.523.761Zm0 .798c.73 0 1.323-.698 1.323-1.56 0-.86-.592-1.559-1.323-1.559-.73 0-1.323.698-1.323 1.56 0 .861.593 1.56 1.323 1.56Z" fill="#000"/></g><path fill-rule="evenodd" clip-rule="evenodd" d="M51.9 29.272c.127.18.083.43-.099.555-.96.667-2.186 1.022-3.408 1.226-1.216.203-2.467.263-3.508.312l-.028.002c-1.161.055-2.587.103-3.996.002-1.403-.102-2.826-.354-3.963-.922a.398.398 0 1 1 .357-.713c1 .498 2.3.74 3.663.839 1.358.098 2.744.052 3.9-.004h.01c1.052-.05 2.264-.108 3.433-.303 1.175-.196 2.266-.525 3.083-1.093a.4.4 0 0 1 .557.099ZM51.825 46.084a.398.398 0 0 1-.148.544c-1.969 1.13-4.632 1.722-7.271 1.742-2.638.02-5.307-.532-7.279-1.748a.398.398 0 1 1 .421-.679c1.804 1.113 4.31 1.648 6.852 1.629 2.54-.02 5.059-.591 6.878-1.635a.4.4 0 0 1 .547.147ZM57.45 43.584a.5.5 0 0 1 .034.706l-3.309 3.63a.5.5 0 1 1-.739-.674l3.309-3.63a.5.5 0 0 1 .706-.032ZM42.32 35.121a.37.37 0 0 0-.491-.172c-.744.355-2.395 1.103-3.412 1.557a.368.368 0 0 0 .029.683l.116.041.004.001c.876.307 2.085.732 3.429 1.054a.368.368 0 1 0 .172-.716c-.959-.23-1.85-.514-2.603-.77.933-.421 2.016-.915 2.584-1.187a.368.368 0 0 0 .173-.491ZM46.51 35.197a.37.37 0 0 1 .492-.172c.744.356 2.395 1.103 3.412 1.558a.368.368 0 0 1-.029.683l-.116.04-.003.002c-.877.307-2.086.731-3.43 1.053a.369.369 0 0 1-.172-.715c.959-.23 1.85-.514 2.603-.771-.933-.421-2.016-.915-2.584-1.187a.368.368 0 0 1-.173-.49Z" fill="#000"/><path d="M120.038 76.02h3.147v8.636h1.83v-8.635h3.147v-1.547h-8.124v1.547Zm11.884 8.785c1.779 0 3.002-.87 3.321-2.197l-1.681-.189c-.243.646-.84.984-1.616.984-1.163 0-1.933-.765-1.948-2.073h5.319v-.552c0-2.68-1.611-3.858-3.49-3.858-2.187 0-3.614 1.606-3.614 3.963 0 2.396 1.407 3.922 3.709 3.922Zm-1.919-4.688c.054-.974.775-1.795 1.849-1.795 1.034 0 1.73.756 1.74 1.795h-3.589Zm9.034 4.693c1.198 0 1.914-.561 2.242-1.203h.06v1.05h1.73v-5.111c0-2.019-1.645-2.626-3.102-2.626-1.606 0-2.839.716-3.237 2.108l1.681.239c.179-.522.686-.97 1.566-.97.835 0 1.292.428 1.292 1.179v.03c0 .517-.541.542-1.889.686-1.481.159-2.898.601-2.898 2.322 0 1.5 1.099 2.296 2.555 2.296Zm.468-1.322c-.751 0-1.288-.343-1.288-1.004 0-.691.601-.98 1.407-1.094.472-.065 1.417-.184 1.65-.373v.9c0 .85-.686 1.57-1.769 1.57Zm5.374 1.168h1.8v-4.643c0-.94.626-1.576 1.402-1.576.76 0 1.282.512 1.282 1.297v4.922h1.765v-4.763c0-.86.512-1.456 1.382-1.456.726 0 1.303.427 1.303 1.372v4.847h1.804V79.53c0-1.705-.984-2.61-2.386-2.61-1.109 0-1.954.547-2.292 1.397h-.079c-.294-.865-1.034-1.396-2.064-1.396-1.024 0-1.789.526-2.108 1.396h-.089V77.02h-1.72v7.636Z" fill="#30841F"/><path d="M137.5 42.553c-.4.4-1.167 2.494-1.5 3.492l-6-15.96 3.5-1.996c-2-3.491 1.5-6.484 6-6.484 3.6 0 6.5 1.995 8 5.486.5-1.995 1-4.927 6.5-4.489 8 .639 7 6.485 5 8.979 2.333 3.49 7.4 10.573 7 10.973-.4.398-9.5-6.983-10-5.986 2.167 6.152 6.4 18.455 6 18.455-.5 0-10-10.474-11-10.973-.8-.4-3 1.164-4 1.995.333 1.33.8 4.39 0 5.985-1 1.995-1.5-.498-2-.498s-4-5.487-5-7.482-2-1.995-2.5-1.496Z" fill="#fff"/><path d="M115.524 53.656c-.511-1.531 2.985-13.398 4.797-19.14-4.605 1.021-5.117 7.444-4.797 10.527-1.919-1.595-5.309-5.55-3.518-8.613 1.791-3.062 7.142-5.316 9.593-6.06-2.025-3.297-9.593-9.57 2.878-8.294 8.46.865 6.183 6.486 4.157 8.294 1.173-.107 2.686-.702 5.756 2.87 3.07 3.573 3.057 8.535.714 10.18 0 0-.479-3.152-1.042-4.935-.745-2.358-3.384-4.76-3.384-4.76 3.384 7.617 6.074 15.581 6.074 15.581s1.302 7.531-7.115-2.337c-1.891-2.216-6.865.095-8.038 1.583-1.812 2.34-5.563 6.635-6.075 5.104Z" fill="#fff"/><path d="m117.5 35.57-2-1.496 5.878-3.909c-.059-.059.011-.08.122-.08l-.122.08c.118.119.755.385 2.622.917 3.5.997 3.5-.998 5.5-.998 1.6 0 4 2.328 5 3.492l-3.5.997 2.5 6.484-16.5 1.497 2.5-7.98-2 .997ZM133.5 21.605l-.5 2.494 13.5.997-1-2.494-12-.997ZM160.5 33.576l-3.5 2.493 2.5 1.996 3-1.995-2-2.494Z" fill="#5FB34E"/><path fill-rule="evenodd" clip-rule="evenodd" d="M124.186 21.32c-1.393-.18-2.821-.164-4.209.168-.525.126-1.115.31-1.623.622-.515.314-.964.77-1.164 1.432a3.1 3.1 0 0 0-.125 1.01c-.127 1.069.254 2.078.903 2.961.656.89 1.602 1.677 2.649 2.311a13.077 13.077 0 0 0 3.335 1.428c1.112.297 2.204.409 3.09.249a6.098 6.098 0 0 0 1.701-.588c.104-.042.207-.087.308-.136.318-.153.6-.366.845-.62.125-.102.247-.208.364-.32.902-.854 1.563-1.988 1.644-3.268.093-1.446-.774-2.5-1.825-3.232-.672-.469-1.449-.829-2.176-1.1-.886-.389-1.856-.61-2.865-.782a15.663 15.663 0 0 0-.852-.134Zm.736.925a39.9 39.9 0 0 0-.843-.134c-1.315-.17-2.642-.152-3.915.153-.494.118-.989.28-1.392.526-.398.243-.688.557-.816.981-.223.74-.03 1.618.415 2.486a7.626 7.626 0 0 0 1.697 2.17c.987.86 2.525 1.576 4.149 1.918 1.5.317 3.013.302 4.192-.159.329-.172.646-.378.94-.613.413-.441.723-1.067.902-1.758.264-1.019.2-2.022-.108-2.553-.661-1.142-1.517-1.831-2.541-2.285-.375-.139-.74-.255-1.073-.35a17.74 17.74 0 0 0-1.607-.382ZM134.626 33.954l-3 .998-.253-.757 3-.998.253.757Zm-17.409 1.899-2-1.995.565-.565 2 1.995-.565.565Zm16.32 5.602-16 1.496-.075-.795 16-1.496.075.795Z" fill="#000"/><path fill-rule="evenodd" clip-rule="evenodd" d="M130.327 33.045a.398.398 0 0 0-.197.529c1.306 2.849 2.028 4.665 2.83 6.684.56 1.409 1.159 2.916 2.023 4.941.221.519.788 1.979 1.133 3.435.173.73.284 1.437.276 2.016-.007.536-.116.87-.274 1.044-.314.047-.719-.08-1.242-.422-.56-.366-1.169-.924-1.814-1.56-.227-.224-.461-.46-.696-.698-.419-.422-.845-.853-1.261-1.242-.65-.61-1.319-1.166-1.971-1.49-1.71-.854-3.392-.829-4.995-.09-1.584.73-3.072 2.146-4.461 4.038-.644.878-1.329 1.783-2.189 2.4-.839.602-1.844.928-3.157.636a.4.4 0 0 0-.174.78c1.565.346 2.799-.052 3.798-.768.979-.703 1.733-1.711 2.368-2.576 1.35-1.84 2.741-3.135 4.15-3.785 1.389-.64 2.815-.664 4.302.078.542.27 1.14.757 1.781 1.358.407.381.812.791 1.223 1.205.238.24.478.483.72.722.647.637 1.305 1.245 1.937 1.66.621.406 1.307.686 1.977.506a.404.404 0 0 0 .148-.075c.483-.39.621-1.06.63-1.71.009-.674-.119-1.455-.298-2.21-.358-1.517-.944-3.022-1.175-3.564-.846-1.982-1.442-3.483-2.003-4.893-.812-2.042-1.549-3.896-2.859-6.752a.4.4 0 0 0-.53-.197Z" fill="#000"/><path fill-rule="evenodd" clip-rule="evenodd" d="M120.144 34.463a.4.4 0 0 0-.516.23c-.531 1.383-1.878 4.962-2.961 8.89-.542 1.964-1.019 4.023-1.294 5.943-.275 1.913-.352 3.718-.076 5.162a.4.4 0 0 0 .786-.15c-.252-1.316-.188-3.018.082-4.9.268-1.874.737-3.898 1.273-5.843 1.072-3.89 2.409-7.44 2.937-8.817a.399.399 0 0 0-.231-.515Z" fill="#000"/><path fill-rule="evenodd" clip-rule="evenodd" d="M121.821 29.795a.4.4 0 0 0-.55-.131c-.365.223-.732.445-1.098.666-2.167 1.311-4.335 2.622-6.258 4.378-1.804 1.647-2.831 3.683-2.596 5.709.238 2.038 1.737 3.925 4.677 5.3a.4.4 0 0 0 .34-.723c-2.79-1.304-4.028-3-4.222-4.67-.196-1.683.651-3.484 2.341-5.027 1.861-1.699 3.952-2.964 6.123-4.278.368-.223.739-.447 1.111-.675a.4.4 0 0 0 .132-.549ZM129.108 30.002a.4.4 0 0 0 .309.473c2.894.607 5.294 2.817 6.43 5.422 1.001 2.297.999 4.84-.451 6.832-.177-2.622-1.11-6.298-4.572-9.464a.4.4 0 0 0-.541.588c3.726 3.407 4.347 7.428 4.347 9.914a.4.4 0 0 0 .683.282c2.373-2.368 2.494-5.658 1.267-8.47-1.224-2.808-3.816-5.217-6.998-5.885a.4.4 0 0 0-.474.308ZM129.981 25.692a.4.4 0 0 0-.506.252c-.396 1.186-1.756 1.802-3.467 1.84-1.689.04-3.502-.502-4.527-1.378a.4.4 0 0 0-.564.043.398.398 0 0 0 .044.563c1.213 1.037 3.237 1.612 5.066 1.57 1.806-.04 3.644-.7 4.207-2.385a.398.398 0 0 0-.253-.505Z" fill="#000"/><path fill-rule="evenodd" clip-rule="evenodd" d="M121.925 33.936a.4.4 0 0 0-.495-.274c-2.291.653-4.636 1.972-5.907 4.043-1.292 2.105-1.42 4.895.554 8.341a.4.4 0 0 0 .694-.396c-1.863-3.252-1.672-5.725-.566-7.528 1.128-1.837 3.26-3.07 5.445-3.693a.398.398 0 0 0 .275-.493ZM139.507 19.21c-3.697-.125-5.905 1.02-6.849 2.811-.931 1.767-.536 3.996.592 5.844 1.133 1.857 3.056 3.42 5.344 3.859 2.311.443 4.924-.273 7.378-2.85l.014-.015.012-.016c.944-1.21 1.184-2.451.938-3.625-.241-1.154-.944-2.203-1.811-3.078-.869-.877-1.929-1.604-2.932-2.113-.987-.5-1.969-.814-2.686-.816Zm5.872 9.128c-2.291 2.398-4.633 2.986-6.634 2.602-2.027-.389-3.774-1.79-4.812-3.49-1.043-1.708-1.32-3.628-.566-5.058.74-1.406 2.57-2.505 6.119-2.383H139.499c.532 0 1.382.248 2.332.73a10.793 10.793 0 0 1 2.725 1.962c.804.811 1.398 1.729 1.597 2.68.194.93.022 1.928-.774 2.957Z" fill="#000"/><path fill-rule="evenodd" clip-rule="evenodd" d="M135.476 26.261a.4.4 0 0 1 .549.137c.674 1.12 2.084 1.938 3.608 2.138 1.514.199 3.053-.223 4.021-1.463a.4.4 0 0 1 .631.49c-1.186 1.521-3.041 1.99-4.757 1.764-1.706-.224-3.362-1.144-4.189-2.519a.4.4 0 0 1 .137-.547ZM153.801 22.204c1.602-.01 3.221.315 4.53 1.004 1.024.54 1.786 1.266 2.244 2.179.457.912.592 1.978.422 3.17-.164 1.149-.842 2.224-1.718 3.066-.879.844-1.991 1.488-3.083 1.753-1.457.355-2.981.08-4.35-.57a.402.402 0 0 1-.434.036c-1.548-.826-3.198-2.574-3.926-4.42-.367-.928-.514-1.917-.258-2.84.259-.936.915-1.75 2.046-2.34 1.309-.683 2.925-1.028 4.527-1.038Zm-4.449 1.911a.732.732 0 0 1-.018.014c-1.016.722-1.399 1.646-1.361 2.62.039.997.524 2.083 1.323 3.065 1.611 1.982 4.342 3.364 6.71 2.787.937-.228 1.927-.793 2.718-1.553.792-.76 1.35-1.683 1.481-2.604.152-1.066.024-1.962-.346-2.7-.37-.739-.997-1.354-1.901-1.83-1.169-.616-2.651-.922-4.152-.912-1.5.009-2.986.334-4.161.947-.103.054-.2.11-.293.166Z" fill="#000"/><path fill-rule="evenodd" clip-rule="evenodd" d="M150.573 28.14a.4.4 0 0 1 .527.206c.38.87 1.22 1.574 2.285 1.941a5.01 5.01 0 0 0 3.466-.075.399.399 0 1 1 .297.741 5.81 5.81 0 0 1-4.024.088c-1.226-.423-2.269-1.257-2.758-2.376a.4.4 0 0 1 .207-.525ZM133.879 27.963a.398.398 0 0 1-.253.505c-1.202.4-2.549 1.117-3.808 1.788-.389.207-.77.41-1.135.597a.398.398 0 1 1-.366-.71c.339-.173.701-.366 1.077-.567 1.27-.677 2.706-1.442 3.979-1.866a.4.4 0 0 1 .506.253ZM147.833 28.865a.4.4 0 0 1-.111.554c-1.062.706-2.233 2.04-2.788 2.75.521 2.147 1.556 7.413 2.163 12.058.313 2.39.515 4.64.471 6.22-.022.779-.104 1.45-.295 1.896-.096.223-.243.45-.483.573-.261.135-.538.1-.781-.017-.495-.238-.98-.662-1.432-1.157-.456-.5-.9-1.096-1.311-1.707-.822-1.22-1.528-2.527-1.937-3.293l-.003-.006-.003-.007c-.668-1.368-1.252-2.403-1.77-3.099-.259-.348-.492-.597-.699-.76-.208-.162-.367-.22-.485-.229-.197-.014-.496.115-.876.8-.367.661-.732 1.711-1.105 3.2a.4.4 0 0 1-.776-.194c.377-1.504.762-2.637 1.181-3.393.407-.733.932-1.259 1.633-1.209.331.024.639.177.922.398.284.223.564.532.847.91.563.757 1.172 1.843 1.844 3.22.408.765 1.096 2.037 1.891 3.218.399.592.819 1.153 1.239 1.614.425.465.828.803 1.187.975a.225.225 0 0 0 .071.025.19.19 0 0 0 .03-.031.668.668 0 0 0 .08-.144c.127-.298.209-.837.231-1.605.043-1.514-.152-3.71-.464-6.095-.622-4.76-1.697-10.176-2.192-12.154l-.047-.184.115-.152c.507-.674 1.84-2.249 3.098-3.085a.401.401 0 0 1 .555.11Zm-1.398 23.339h-.006.006Z" fill="#000"/><path fill-rule="evenodd" clip-rule="evenodd" d="M158.754 31.265a.4.4 0 0 1 .561.07c1.17 1.5 2.925 3.826 4.388 5.928.732 1.05 1.394 2.052 1.876 2.869.24.408.44.777.58 1.088.132.292.241.59.241.835 0 .188-.032.382-.134.545a.678.678 0 0 1-.475.315 1.05 1.05 0 0 1-.485-.05 2.395 2.395 0 0 1-.441-.201c-.556-.315-1.195-.876-1.62-1.297-.75-.5-1.622-1.125-2.497-1.755l-.233-.168c-.812-.585-1.617-1.165-2.329-1.652-.706-.482-1.295-.855-1.698-1.05.274.742.747 1.943 1.316 3.39a505 505 0 0 1 2.186 5.623c.752 1.98 1.475 3.957 2.011 5.597.268.82.491 1.56.647 2.178.153.607.251 1.128.251 1.493 0 .185-.043.506-.349.644a.629.629 0 0 1-.38.039 1.127 1.127 0 0 1-.296-.108c-.344-.175-.789-.559-1.28-1.034-.98-.952-2.292-2.43-3.647-3.956l-.083-.093c-1.392-1.567-2.827-3.18-4.024-4.365-.6-.594-1.127-1.067-1.55-1.372a2.653 2.653 0 0 0-.515-.305c-.106-.043-.151-.042-.156-.042-.676.226-1.129.562-1.547.92a33.15 33.15 0 0 0-.224.195c-.342.302-.713.628-1.169.856a.4.4 0 0 1-.537-.179.398.398 0 0 1 .179-.535c.354-.177.63-.419.967-.714l.264-.23c.455-.39 1.001-.8 1.821-1.073.247-.082.501-.02.704.063.214.087.444.227.681.397.475.342 1.037.85 1.646 1.452 1.219 1.207 2.672 2.842 4.059 4.403l.064.072c1.37 1.543 2.667 3.003 3.625 3.934.396.384.71.653.933.804a8.143 8.143 0 0 0-.213-1.071 33.914 33.914 0 0 0-.631-2.126c-.53-1.622-1.249-3.585-1.999-5.561a521.038 521.038 0 0 0-2.173-5.59c-.663-1.686-1.2-3.05-1.447-3.747a.95.95 0 0 1-.062-.415.527.527 0 0 1 .322-.436.722.722 0 0 1 .422-.025c.117.024.241.068.365.12.483.208 1.188.655 1.969 1.189.721.492 1.534 1.078 2.344 1.662l.235.169a86.74 86.74 0 0 0 2.505 1.76l.033.022.028.028c.409.408 1.003.926 1.477 1.195a1.616 1.616 0 0 0 .337.148.547.547 0 0 0 .003-.063c0-.056-.038-.215-.17-.507a11.08 11.08 0 0 0-.541-1.012c-.466-.791-1.116-1.773-1.843-2.817a147.049 147.049 0 0 0-4.362-5.894.398.398 0 0 1 .07-.56Zm3.342 23.81.001-.01a.024.024 0 0 1-.001.01Zm-5.978-18.472h.003-.003ZM144.966 23l-11.5-.998.069-.795 11.5.998-.069.795Zm-11.936.7 13.5.998-.059.796-13.5-.997.059-.796Z" fill="#000"/><path fill-rule="evenodd" clip-rule="evenodd" d="m160.76 33.879-3.5 2.992-.521-.606 3.5-2.992.521.605Zm-1.51 3.874 2.5-1.995.499.623-2.5 1.995-.499-.623Z" fill="#000"/><path d="M214.477 84.656h6.662V83.11h-4.818v-2.779h4.435v-1.546h-4.435V76.02h4.778v-1.547h-6.622v10.182Zm10.224-4.474c0-1.104.666-1.74 1.616-1.74.929 0 1.486.611 1.486 1.63v4.584h1.8v-4.862c.005-1.83-1.039-2.873-2.615-2.873-1.144 0-1.929.546-2.277 1.396h-.09V77.02h-1.72v7.636h1.8v-4.474Zm10.545-3.162h-1.507v-1.83h-1.799v1.83h-1.084v1.392h1.084v4.246c-.01 1.436 1.034 2.142 2.386 2.103a3.623 3.623 0 0 0 1.059-.18l-.303-1.406c-.1.025-.304.07-.527.07-.453 0-.816-.16-.816-.886v-3.947h1.507V77.02Zm4.804 7.785c1.779 0 3.002-.87 3.321-2.197l-1.681-.189c-.243.646-.84.984-1.616.984-1.163 0-1.934-.765-1.948-2.073h5.319v-.552c0-2.68-1.611-3.858-3.49-3.858-2.187 0-3.614 1.606-3.614 3.963 0 2.396 1.407 3.922 3.709 3.922Zm-1.919-4.688c.054-.974.775-1.795 1.849-1.795 1.034 0 1.73.756 1.74 1.795h-3.589Zm6.837 4.54h1.799v-4.49c0-.97.731-1.656 1.721-1.656.303 0 .681.055.835.105V76.96a4.333 4.333 0 0 0-.647-.05c-.875 0-1.605.498-1.884 1.383h-.079V77.02h-1.745v7.636Zm5.55 2.863h1.8v-4.067h.075c.283.557.875 1.337 2.187 1.337 1.8 0 3.147-1.426 3.147-3.942 0-2.545-1.387-3.927-3.152-3.927-1.347 0-1.909.81-2.182 1.362h-.105V77.02h-1.77v10.5Zm1.765-6.682c0-1.481.637-2.441 1.795-2.441 1.198 0 1.815 1.02 1.815 2.441 0 1.432-.627 2.476-1.815 2.476-1.148 0-1.795-.994-1.795-2.476Zm6.985 3.818h1.8v-4.49c0-.969.731-1.655 1.72-1.655.304 0 .681.055.836.105V76.96a4.333 4.333 0 0 0-.647-.05c-.875 0-1.606.498-1.884 1.383h-.08V77.02h-1.745v7.636Zm5.551 0h1.8V77.02h-1.8v7.636Zm.905-8.72c.572 0 1.039-.437 1.039-.974 0-.542-.467-.98-1.039-.98-.577 0-1.044.438-1.044.98 0 .537.467.974 1.044.974Zm8.781 3.102c-.248-1.292-1.283-2.117-3.072-2.117-1.84 0-3.093.904-3.088 2.316-.005 1.114.681 1.85 2.148 2.153l1.303.273c.701.154 1.029.438 1.029.87 0 .522-.567.915-1.422.915-.825 0-1.362-.358-1.516-1.044l-1.755.17c.223 1.401 1.402 2.231 3.276 2.231 1.909 0 3.256-.989 3.261-2.436-.005-1.088-.706-1.755-2.148-2.068l-1.302-.278c-.776-.174-1.084-.443-1.079-.885-.005-.517.567-.875 1.318-.875.83 0 1.267.452 1.407.954l1.64-.179Zm5.029 5.767c1.78 0 3.003-.87 3.321-2.197l-1.68-.189c-.244.646-.841.984-1.616.984-1.164 0-1.934-.765-1.949-2.073h5.32v-.552c0-2.68-1.611-3.858-3.491-3.858-2.187 0-3.614 1.606-3.614 3.963 0 2.396 1.407 3.922 3.709 3.922Zm-1.919-4.688c.055-.974.775-1.795 1.849-1.795 1.034 0 1.73.756 1.74 1.795h-3.589Z" fill="#30841F"/><path d="m224.71 5.046-3.6 3.192v17.557c1.467 3.059 4.628 9.576 8.8 9.576 5.6 0 10-3.325 12-5.985V16.218l-17.2-11.172Z" fill="#5FB34E"/><path fill-rule="evenodd" clip-rule="evenodd" d="M221.111 5.464a.4.4 0 0 1 .4.399c0 3.081-.002 5.614-.004 7.854-.003 3.788-.006 6.738.004 10.081a.4.4 0 0 1-.8.003c-.01-3.345-.007-6.297-.004-10.086.002-2.24.004-4.773.004-7.852a.4.4 0 0 1 .4-.4Z" fill="#000"/><path fill-rule="evenodd" clip-rule="evenodd" d="M221.083 22.604a.4.4 0 0 1 .427.37c.194 2.71 1.364 5.732 3.074 8.072 1.72 2.353 3.916 3.926 6.127 3.926a.4.4 0 1 1 0 .798c-2.589 0-4.993-1.818-6.773-4.254-1.79-2.448-3.02-5.61-3.226-8.486a.4.4 0 0 1 .371-.427Z" fill="#000"/><path fill-rule="evenodd" clip-rule="evenodd" d="M238.004 31.082a.397.397 0 0 1 .035.563c-.935 1.057-2.457 1.984-4.178 2.647-1.727.666-3.694 1.08-5.55 1.08a.4.4 0 1 1 0-.799c1.744 0 3.614-.39 5.262-1.025 1.654-.637 3.047-1.505 3.867-2.431a.4.4 0 0 1 .564-.035Z" fill="#000"/><path fill-rule="evenodd" clip-rule="evenodd" d="M241.516 30.007a.398.398 0 0 1 .035.563l-.219.25c-.833.948-1.878 2.138-3.559 3.108-1.838 1.06-4.406 1.842-8.263 1.842a.4.4 0 1 1 0-.798c3.744 0 6.168-.758 7.862-1.735 1.563-.901 2.528-2 3.363-2.949l.217-.246a.4.4 0 0 1 .564-.035ZM223.975 4.482a.401.401 0 0 1 .554-.116l1.621 1.053c6.44 4.183 9.003 5.847 17.075 10.948a.398.398 0 1 1-.428.674c-8.076-5.103-10.642-6.77-17.084-10.954l-1.621-1.053a.399.399 0 0 1-.117-.552ZM219.967 7.69a.4.4 0 0 1 .548-.14c2.894 1.718 5.42 3.29 7.964 4.872 3.379 2.102 6.79 4.223 11.133 6.731a.4.4 0 1 1-.401.69c-4.337-2.504-7.781-4.646-11.181-6.76-2.547-1.584-5.07-3.152-7.924-4.847a.398.398 0 0 1-.139-.547Z" fill="#000"/><path fill-rule="evenodd" clip-rule="evenodd" d="M237.8 16.99a.4.4 0 0 1 .4.399v14.652a.4.4 0 0 1-.8 0V17.39a.4.4 0 0 1 .4-.399ZM241.511 15.021a.4.4 0 0 1 .4.4v14.652a.4.4 0 0 1-.8 0V15.42a.4.4 0 0 1 .4-.399ZM225.031 5.205a.398.398 0 0 1-.08.559c-1.61 1.205-2.819 2.008-4.422 3.044a.401.401 0 0 1-.554-.118.398.398 0 0 1 .119-.552c1.596-1.031 2.788-1.824 4.377-3.013a.4.4 0 0 1 .56.08Z" fill="#000"/><path fill-rule="evenodd" clip-rule="evenodd" d="M243.031 14.782a.399.399 0 0 1-.08.558c-1.612 1.206-4.021 2.808-5.623 3.843a.398.398 0 1 1-.434-.67c1.598-1.033 3.989-2.623 5.577-3.811a.4.4 0 0 1 .56.08ZM239.015 13.964a.399.399 0 0 1-.045.563 26.138 26.138 0 0 1-2.182 1.667c-.315.221-.649.457-1.04.744a.401.401 0 0 1-.56-.084.398.398 0 0 1 .085-.558c.417-.306.762-.55 1.081-.773.679-.478 1.235-.87 2.097-1.603a.4.4 0 0 1 .564.044ZM235.815 12.368a.398.398 0 0 1-.044.563c-.891.758-1.488 1.178-2.182 1.667-.315.221-.65.457-1.041.744a.398.398 0 1 1-.474-.642c.417-.306.762-.55 1.08-.773.68-.478 1.235-.87 2.097-1.604a.4.4 0 0 1 .564.045ZM233.415 10.772a.399.399 0 0 1-.045.562 26.138 26.138 0 0 1-2.182 1.668c-.314.221-.649.457-1.04.744a.4.4 0 0 1-.475-.642c.417-.307.763-.55 1.081-.774.679-.478 1.235-.869 2.097-1.603a.4.4 0 0 1 .564.045ZM231.015 9.176a.399.399 0 0 1-.045.562 26.115 26.115 0 0 1-2.182 1.668c-.315.221-.649.457-1.04.744a.401.401 0 0 1-.56-.084.398.398 0 0 1 .085-.558c.417-.307.762-.55 1.081-.774.679-.478 1.235-.869 2.097-1.603a.4.4 0 0 1 .564.045ZM228.615 7.58a.398.398 0 0 1-.044.562c-.891.758-1.488 1.179-2.182 1.668-.315.221-.65.457-1.041.744a.398.398 0 1 1-.474-.642c.416-.307.762-.55 1.08-.774.679-.478 1.235-.869 2.097-1.603a.4.4 0 0 1 .564.045ZM226.215 5.984a.399.399 0 0 1-.045.562 26.129 26.129 0 0 1-2.182 1.667c-.314.222-.649.458-1.04.745a.4.4 0 0 1-.475-.642c.417-.307.762-.55 1.081-.774.679-.478 1.235-.869 2.097-1.603a.4.4 0 0 1 .564.045ZM241.872 29.613a.399.399 0 0 1-.189.532c-.574.273-1.091.553-1.58.818l-.537.29c-.635.336-1.244.633-1.834.776a.4.4 0 0 1-.189-.776c.483-.117 1.012-.369 1.647-.705l.514-.277c.494-.268 1.04-.564 1.635-.846a.4.4 0 0 1 .533.188ZM242.146 26.022a.398.398 0 0 1-.19.532c-.574.273-1.091.553-1.58.818a62.03 62.03 0 0 1-.537.289c-.635.337-1.243.633-1.834.776a.4.4 0 1 1-.188-.775c.482-.117 1.012-.369 1.646-.706.165-.087.337-.18.515-.276.494-.268 1.04-.564 1.635-.847a.4.4 0 0 1 .533.19ZM241.469 22.824a.399.399 0 0 1-.181.535c-.472.233-.896.473-1.3.7-.151.086-.299.17-.446.25-.524.29-1.034.55-1.533.675a.4.4 0 1 1-.196-.774c.388-.097.817-.309 1.342-.599.135-.074.276-.154.423-.237.408-.23.862-.486 1.355-.73a.4.4 0 0 1 .536.18ZM241.469 19.632a.399.399 0 0 1-.181.535c-.472.233-.896.473-1.3.7-.151.086-.299.17-.446.25-.524.29-1.034.55-1.533.675a.4.4 0 1 1-.196-.774c.388-.097.817-.31 1.342-.599.135-.074.276-.154.423-.237.408-.23.862-.486 1.355-.73a.4.4 0 0 1 .536.18Z" fill="#000"/><path d="M235.605 23.711c.009 3.052-2.428 5.533-5.443 5.542-3.016.008-5.467-2.459-5.476-5.51-.009-3.052 2.428-5.534 5.444-5.542 3.015-.009 5.467 2.458 5.475 5.51Z" fill="#fff"/><path fill-rule="evenodd" clip-rule="evenodd" d="M233.868 17.209a.398.398 0 0 1-.125.55c-3.468 2.178-4.869 4.8-5.426 6.732a8.66 8.66 0 0 0-.352 2.263c-.002.141.002.255.007.338a.5.5 0 0 1 .019.086l.007.095a.53.53 0 0 1-.007.134.39.39 0 0 1-.131.224.715.715 0 0 1-.183.09.706.706 0 0 1-.223-.02c-.109-.04-.165-.116-.181-.137a.407.407 0 0 1-.067-.147.73.73 0 0 1-.023-.156c-.515-1.396-1.291-2.404-2.236-3.335a.398.398 0 0 1-.004-.564.401.401 0 0 1 .566-.004c.663.653 1.262 1.357 1.756 2.204.058-.386.148-.821.283-1.29.606-2.106 2.12-4.897 5.769-7.188a.4.4 0 0 1 .551.125Z" fill="#000"/><path fill-rule="evenodd" clip-rule="evenodd" d="M226.569 18.466c1.476-.595 3.384-.566 4.804-.015.9.35 2.017 1.256 2.722 2.51.715 1.27 1.018 2.92.231 4.722-.706 1.616-1.889 2.82-3.328 3.402-1.444.583-3.113.525-4.751-.326-1.666-.866-2.716-2.37-3.046-4.25a5.055 5.055 0 0 1 .41-3.006.4.4 0 0 1-.365-.61c.722-1.154 2.091-1.93 3.323-2.427Zm3.369.432a.4.4 0 0 1-.393.329c-2.419.007-3.881.804-4.699 1.807-.826 1.014-1.04 2.292-.857 3.338.29 1.652 1.197 2.936 2.628 3.68 1.443.748 2.867.783 4.081.293 1.219-.492 2.26-1.529 2.894-2.98.672-1.54.417-2.926-.195-4.014-.621-1.105-1.6-1.879-2.315-2.156a5.388 5.388 0 0 0-1.144-.297Z" fill="#000"/><path d="m244.53 51.828.629-36.921 14.404-8.411 13.701 8.41.703 37.5-14.404 8.243-15.033-8.82Z" fill="#fff"/><path d="m259.563 22.492 14.404-8.411.001 38.325-14.404 8.243-.001-38.157Z" fill="#5FB34E"/><path fill-rule="evenodd" clip-rule="evenodd" d="M259.177 21.867a.4.4 0 0 1 .4.4l.001 38.693a.4.4 0 0 1-.8 0l-.001-38.694c0-.22.18-.399.4-.399ZM273.824 13.457a.4.4 0 0 1 .4.398v38.886a.4.4 0 0 1-.8 0V13.855a.4.4 0 0 1 .4-.399ZM245.103 13.824a.4.4 0 0 1 .397.402l-.292 38.183a.4.4 0 0 1-.8-.006l.292-38.183a.4.4 0 0 1 .403-.396Z" fill="#000"/><path fill-rule="evenodd" clip-rule="evenodd" d="M243.405 14.01a.4.4 0 0 1 .545-.152l16.161 9.113a.398.398 0 1 1-.394.694l-16.16-9.112a.4.4 0 0 1-.152-.543ZM257 5.245a.4.4 0 0 1 .546-.146l17.805 10.26a.4.4 0 0 1-.4.691L257.146 5.79a.398.398 0 0 1-.146-.545ZM242.353 50.715a.401.401 0 0 1 .547-.146l17.804 10.26a.399.399 0 1 1-.4.691L242.5 51.26a.399.399 0 0 1-.147-.545Z" fill="#000"/><path fill-rule="evenodd" clip-rule="evenodd" d="M244.181 14.86a.399.399 0 0 1 .156-.542l16.087-8.872a.4.4 0 0 1 .387.698l-16.087 8.873a.4.4 0 0 1-.543-.156ZM258.832 22.998a.4.4 0 0 1 .141-.547l15.141-8.939a.4.4 0 0 1 .548.14c.113.19.05.435-.14.547l-15.142 8.939a.4.4 0 0 1-.548-.14ZM258.163 61.367a.398.398 0 0 1 .146-.545l16.23-9.34a.4.4 0 0 1 .4.692l-16.23 9.34a.4.4 0 0 1-.546-.147Z" fill="#000"/><path fill-rule="evenodd" clip-rule="evenodd" d="M272.255 15.116a.399.399 0 0 1 .281.49L260.3 60.553a.4.4 0 0 1-.772-.209l12.236-44.949a.4.4 0 0 1 .491-.28Zm-4.728 2.56a.398.398 0 0 1 .283.488l-8.564 31.903a.4.4 0 0 1-.772-.206l8.564-31.903a.4.4 0 0 1 .489-.282Zm-4.651 2.804c.214.057.34.277.282.49l-3.912 14.368a.4.4 0 0 1-.772-.21l3.912-14.368a.399.399 0 0 1 .49-.28Zm11.023 2.102a.399.399 0 0 1 .281.49l-9.639 35.407a.4.4 0 0 1-.772-.209l9.639-35.407a.4.4 0 0 1 .491-.28Zm.178 12.267a.4.4 0 0 1 .281.49l-5.538 20.176a.4.4 0 0 1-.771-.21l5.537-20.177a.4.4 0 0 1 .491-.28Zm.165 10.863c.213.058.34.277.282.49l-1.988 7.36a.4.4 0 0 1-.772-.209l1.988-7.36a.4.4 0 0 1 .49-.28ZM253.2 25.795a.4.4 0 0 1 .4.399v3.292a.4.4 0 0 1-.8 0v-3.292a.4.4 0 0 1 .4-.4Z" fill="#000"/><path fill-rule="evenodd" clip-rule="evenodd" d="M252.76 25.985a.4.4 0 0 1 .55-.131c.638.391 1.042.69 1.373.935l.043.032c.336.248.587.429.953.612a.398.398 0 0 1 .179.535.4.4 0 0 1-.537.179c-.433-.217-.732-.434-1.071-.685a5.606 5.606 0 0 1-.042-.03c-.327-.242-.709-.525-1.317-.898a.398.398 0 0 1-.131-.55ZM252.767 29.564a.401.401 0 0 1 .555-.111c.461.306.835.556 1.154.77.514.343.885.59 1.243.824a.398.398 0 1 1-.438.668c-.361-.236-.737-.487-1.255-.833l-1.148-.765a.4.4 0 0 1-.111-.553Z" fill="#000"/><path fill-rule="evenodd" clip-rule="evenodd" d="M255.5 27.39a.4.4 0 0 1 .4.4v3.59a.4.4 0 0 1-.8 0v-3.59a.4.4 0 0 1 .4-.4ZM248.4 22.602a.4.4 0 0 1 .4.4v3.291a.4.4 0 0 1-.8 0v-3.292a.4.4 0 0 1 .4-.399Z" fill="#000"/><path fill-rule="evenodd" clip-rule="evenodd" d="M247.96 22.792a.4.4 0 0 1 .55-.13c.638.391 1.043.69 1.373.935l.043.031c.336.248.587.43.953.613a.398.398 0 1 1-.357.713c-.434-.216-.733-.434-1.072-.684l-.042-.031c-.327-.242-.709-.524-1.317-.898a.398.398 0 0 1-.131-.549ZM247.968 26.371a.4.4 0 0 1 .554-.11l1.154.769c.515.343.885.59 1.243.825a.398.398 0 1 1-.438.668c-.361-.236-.737-.488-1.255-.833l-1.147-.765a.398.398 0 0 1-.111-.554Z" fill="#000"/><path fill-rule="evenodd" clip-rule="evenodd" d="M250.7 24.198a.4.4 0 0 1 .4.4v3.59a.4.4 0 0 1-.8 0v-3.59a.4.4 0 0 1 .4-.4ZM253.2 32.977a.4.4 0 0 1 .4.399v3.292a.4.4 0 0 1-.8 0v-3.292a.4.4 0 0 1 .4-.399Z" fill="#000"/><path fill-rule="evenodd" clip-rule="evenodd" d="M252.76 33.167a.4.4 0 0 1 .55-.13c.638.39 1.042.69 1.373.934l.043.032c.336.248.587.43.953.612a.398.398 0 0 1 .179.535.4.4 0 0 1-.537.179c-.433-.216-.732-.434-1.071-.685l-.042-.03c-.327-.242-.709-.525-1.317-.898a.397.397 0 0 1-.131-.55ZM252.767 36.746a.401.401 0 0 1 .555-.11l1.154.768c.514.344.885.591 1.243.825a.398.398 0 1 1-.438.668c-.361-.236-.737-.487-1.255-.833l-1.148-.765a.4.4 0 0 1-.111-.553Z" fill="#000"/><path fill-rule="evenodd" clip-rule="evenodd" d="M255.5 34.573a.4.4 0 0 1 .4.4v3.59a.4.4 0 0 1-.8 0v-3.59a.4.4 0 0 1 .4-.4ZM248.4 29.785a.4.4 0 0 1 .4.399v3.292a.4.4 0 0 1-.8 0v-3.292a.4.4 0 0 1 .4-.4Z" fill="#000"/><path fill-rule="evenodd" clip-rule="evenodd" d="M247.96 29.975a.4.4 0 0 1 .55-.131c.638.392 1.043.69 1.373.935l.043.032c.336.248.587.43.953.612a.4.4 0 0 1-.357.714c-.434-.216-.733-.434-1.072-.685l-.042-.03c-.327-.242-.709-.525-1.317-.898a.398.398 0 0 1-.131-.55ZM247.968 33.554a.4.4 0 0 1 .554-.111c.461.306.835.556 1.154.77.515.343.885.59 1.243.824a.398.398 0 1 1-.438.668c-.361-.236-.737-.487-1.255-.833l-1.147-.765a.398.398 0 0 1-.111-.553Z" fill="#000"/><path fill-rule="evenodd" clip-rule="evenodd" d="M250.7 31.38a.4.4 0 0 1 .4.4v3.591a.4.4 0 0 1-.8 0V31.78a.4.4 0 0 1 .4-.4ZM253.2 40.16a.4.4 0 0 1 .4.398v3.292a.4.4 0 0 1-.8 0v-3.292a.4.4 0 0 1 .4-.399Z" fill="#000"/><path fill-rule="evenodd" clip-rule="evenodd" d="M252.76 40.35a.4.4 0 0 1 .55-.132c.638.392 1.042.691 1.373.936l.043.031c.336.248.587.43.953.613a.398.398 0 0 1 .179.535.4.4 0 0 1-.537.178c-.433-.216-.732-.434-1.071-.684l-.042-.031c-.327-.242-.709-.524-1.317-.898a.397.397 0 0 1-.131-.549ZM252.767 43.928a.401.401 0 0 1 .555-.11l1.154.769c.514.343.885.59 1.243.825a.398.398 0 1 1-.438.668c-.361-.236-.737-.488-1.255-.833l-1.148-.765a.4.4 0 0 1-.111-.554Z" fill="#000"/><path fill-rule="evenodd" clip-rule="evenodd" d="M255.5 41.755a.4.4 0 0 1 .4.4v3.59a.4.4 0 0 1-.8 0v-3.59a.4.4 0 0 1 .4-.4ZM248.4 36.967a.4.4 0 0 1 .4.4v3.291a.4.4 0 0 1-.8 0v-3.292a.4.4 0 0 1 .4-.399Z" fill="#000"/><path fill-rule="evenodd" clip-rule="evenodd" d="M247.96 37.157a.4.4 0 0 1 .55-.13c.638.391 1.043.69 1.373.935l.043.031c.336.248.587.43.953.612a.398.398 0 1 1-.357.714c-.434-.216-.733-.434-1.072-.684a5.626 5.626 0 0 1-.042-.031c-.327-.242-.709-.524-1.317-.898a.398.398 0 0 1-.131-.549ZM247.968 40.736a.4.4 0 0 1 .554-.11l1.154.769c.515.343.885.59 1.243.825a.398.398 0 1 1-.438.667c-.361-.236-.737-.487-1.255-.833l-1.147-.765a.398.398 0 0 1-.111-.553Z" fill="#000"/><path fill-rule="evenodd" clip-rule="evenodd" d="M250.7 38.563a.4.4 0 0 1 .4.4v3.59a.4.4 0 0 1-.8 0v-3.59a.4.4 0 0 1 .4-.4ZM253.2 47.342a.4.4 0 0 1 .4.399v3.292a.4.4 0 0 1-.8 0V47.74a.4.4 0 0 1 .4-.4Z" fill="#000"/><path fill-rule="evenodd" clip-rule="evenodd" d="M252.76 47.532a.4.4 0 0 1 .55-.131c.638.392 1.042.69 1.373.935l.043.032c.336.248.587.43.953.612a.398.398 0 0 1 .179.535.4.4 0 0 1-.537.179c-.433-.216-.732-.434-1.071-.685a5.606 5.606 0 0 1-.042-.03c-.327-.242-.709-.525-1.317-.898a.397.397 0 0 1-.131-.55ZM252.767 51.11a.401.401 0 0 1 .555-.11c.461.306.835.556 1.154.77.514.343.885.59 1.243.824a.398.398 0 1 1-.438.668c-.361-.236-.737-.487-1.255-.833l-1.148-.765a.4.4 0 0 1-.111-.553Z" fill="#000"/><path fill-rule="evenodd" clip-rule="evenodd" d="M255.5 48.938a.4.4 0 0 1 .4.399v3.591a.4.4 0 0 1-.8 0v-3.591a.4.4 0 0 1 .4-.4ZM248.4 44.15a.4.4 0 0 1 .4.399v3.292a.4.4 0 0 1-.8 0v-3.292a.4.4 0 0 1 .4-.4Z" fill="#000"/><path fill-rule="evenodd" clip-rule="evenodd" d="M247.96 44.34a.4.4 0 0 1 .55-.131c.638.391 1.043.69 1.373.935l.043.032c.336.248.587.429.953.612a.398.398 0 1 1-.357.714c-.434-.217-.733-.434-1.072-.685l-.042-.03c-.327-.243-.709-.525-1.317-.899a.398.398 0 0 1-.131-.548ZM247.968 47.918a.4.4 0 0 1 .554-.11c.461.306.835.556 1.154.77.515.342.885.59 1.243.824a.398.398 0 1 1-.438.668c-.361-.236-.737-.487-1.255-.833l-1.147-.765a.398.398 0 0 1-.111-.554Z" fill="#000"/><path fill-rule="evenodd" clip-rule="evenodd" d="M250.7 45.746a.4.4 0 0 1 .4.399v3.59a.4.4 0 0 1-.8 0v-3.59a.4.4 0 0 1 .4-.4Z" fill="#000"/></svg>