<svg width="67" height="90" viewBox="0 0 67 90" fill="none" xmlns="http://www.w3.org/2000/svg">
<path d="M3.30112 82.894L2.82227 74.8322C5.59872 72.556 10.6345 72.6319 8.94953 72.556C7.26455 72.4801 4.48185 69.6791 3.30112 68.288C3.1415 67.4028 2.91804 64.3235 3.30112 59.0881C3.68421 53.8526 11.375 50.4572 15.1724 49.4139V23.0471L19.3849 21.9089L24.3632 23.0471V48.5603L29.1501 47.9912V16.977L34.1284 15.9337L38.2451 16.977V47.9912L40.9258 48.5603V14.7954H47.4359L50.0208 15.9337V49.4139C60.2838 51.2349 63.8708 55.3574 64.3814 57.191V66.7704C61.2412 73.7511 49.0953 76.8239 43.4149 77.4878L34.1284 64.8735L29.1501 66.7704L38.8195 79.9538L38.2451 87.9208C23.1569 91.4111 8.66238 86.0239 3.30112 82.894Z" fill="white"/>
<path fill-rule="evenodd" clip-rule="evenodd" d="M14.2239 22.6097C14.2708 22.4803 14.4147 22.4131 14.5454 22.4596C16.5788 23.1834 18.6183 23.8092 20.6881 24.4373C20.8208 24.4775 20.8955 24.6168 20.8548 24.7482C20.8142 24.8797 20.6736 24.9537 20.5409 24.9134C18.4715 24.2854 16.4215 23.6566 14.3754 22.9282C14.2448 22.8817 14.1769 22.7391 14.2239 22.6097Z" fill="black"/>
<path fill-rule="evenodd" clip-rule="evenodd" d="M14.2239 55.6082C14.2708 55.4788 14.4147 55.4116 14.5454 55.4581C16.5788 56.182 18.6183 56.8077 20.6881 57.4358C20.8208 57.4761 20.8955 57.6153 20.8548 57.7468C20.8142 57.8783 20.6736 57.9522 20.5409 57.9119C18.4715 57.2839 16.4215 56.6551 14.3754 55.9267C14.2448 55.8802 14.1769 55.7376 14.2239 55.6082Z" fill="black"/>
<path fill-rule="evenodd" clip-rule="evenodd" d="M18.6793 21.7189C18.7128 21.5854 18.8491 21.5041 18.9838 21.5372C19.6215 21.694 20.2558 21.8613 20.889 22.0284C22.3734 22.4201 23.8512 22.81 25.3495 23.0574C25.4864 23.08 25.5789 23.2083 25.5561 23.344C25.5333 23.4796 25.4038 23.5712 25.2668 23.5486C23.7439 23.2972 22.2286 22.8974 20.7338 22.503C20.1062 22.3374 19.4822 22.1728 18.8627 22.0205C18.728 21.9874 18.6459 21.8523 18.6793 21.7189Z" fill="black"/>
<path fill-rule="evenodd" clip-rule="evenodd" d="M24.4716 22.9248C24.5127 23.0561 24.4386 23.1956 24.306 23.2364C22.1514 23.8988 19.9403 24.2758 17.7314 24.6164C17.5943 24.6375 17.4658 24.5445 17.4444 24.4086C17.4231 24.2727 17.517 24.1455 17.6541 24.1243C19.8614 23.784 22.0406 23.4115 24.157 22.7608C24.2896 22.72 24.4304 22.7934 24.4716 22.9248Z" fill="black"/>
<path fill-rule="evenodd" clip-rule="evenodd" d="M25.5356 56.1715C25.5771 56.3027 25.5033 56.4424 25.3709 56.4835C23.354 57.1093 21.2794 57.4824 19.2065 57.823C19.0695 57.8455 18.9401 57.7537 18.9174 57.6181C18.8947 57.4824 18.9873 57.3542 19.1242 57.3317C21.1957 56.9913 23.2401 56.6228 25.2206 56.0083C25.3531 55.9672 25.4941 56.0402 25.5356 56.1715Z" fill="black"/>
<path fill-rule="evenodd" clip-rule="evenodd" d="M21.0169 21.2808C21.0397 21.4165 20.9472 21.5448 20.8103 21.5674C20.2501 21.6599 19.7136 21.8028 19.1516 21.9525C19.0944 21.9677 19.037 21.983 18.9792 21.9984C17.3956 22.4186 15.7904 22.7407 14.1941 23.0609C14.1459 23.0706 14.0976 23.0803 14.0493 23.09C13.9133 23.1173 13.7807 23.0302 13.7531 22.8954C13.7255 22.7606 13.8135 22.6292 13.9495 22.6019C13.9959 22.5926 14.0422 22.5833 14.0885 22.574C15.6891 22.2529 17.2808 21.9335 18.8491 21.5174C18.9072 21.502 18.9652 21.4865 19.0233 21.471C19.5816 21.3222 20.1419 21.1729 20.7276 21.0762C20.8646 21.0536 20.9941 21.1452 21.0169 21.2808Z" fill="black"/>
<path fill-rule="evenodd" clip-rule="evenodd" d="M15.1537 20.6919C15.2925 20.6919 15.405 20.8034 15.405 20.9409V58.131C15.405 58.2685 15.2925 58.38 15.1537 58.38C15.0149 58.38 14.9023 58.2685 14.9023 58.131V20.9409C14.9023 20.8034 15.0149 20.6919 15.1537 20.6919ZM24.3849 20.6919C24.5237 20.6919 24.6362 20.8034 24.6362 20.9409V58.131C24.6362 58.2685 24.5237 58.38 24.3849 58.38C24.246 58.38 24.1335 58.2685 24.1335 58.131V20.9409C24.1335 20.8034 24.246 20.6919 24.3849 20.6919ZM19.4616 22.5209C19.6004 22.5209 19.7129 22.6324 19.7129 22.7699V58.131C19.7129 58.2685 19.6004 58.38 19.4616 58.38C19.3228 58.38 19.2102 58.2685 19.2102 58.131V22.7699C19.2102 22.6324 19.3228 22.5209 19.4616 22.5209Z" fill="black"/>
<path fill-rule="evenodd" clip-rule="evenodd" d="M27.5325 16.5892C27.5794 16.4598 27.7233 16.3926 27.854 16.4391C29.8874 17.1629 31.9269 17.7886 33.9967 18.4167C34.1294 18.457 34.2041 18.5963 34.1634 18.7277C34.1228 18.8592 33.9822 18.9332 33.8495 18.8929C31.78 18.2649 29.7301 17.6361 27.684 16.9077C27.5534 16.8612 27.4855 16.7186 27.5325 16.5892Z" fill="black"/>
<path fill-rule="evenodd" clip-rule="evenodd" d="M28.3285 53.1499C28.3866 53.025 28.5359 52.9704 28.662 53.0279C30.6244 53.9237 32.6014 54.7222 34.6085 55.5257C34.7372 55.5772 34.7994 55.7223 34.7474 55.8498C34.6954 55.9773 34.5489 56.0389 34.4202 55.9874C32.4135 55.1841 30.4263 54.3816 28.4516 53.4802C28.3255 53.4227 28.2704 53.2748 28.3285 53.1499Z" fill="black"/>
<path fill-rule="evenodd" clip-rule="evenodd" d="M32.4489 15.3942C32.4823 15.2607 32.6186 15.1793 32.7533 15.2125C33.391 15.3692 34.0254 15.5366 34.6585 15.7037C36.1429 16.0954 37.6207 16.4853 39.119 16.7327C39.2559 16.7553 39.3484 16.8836 39.3256 17.0192C39.3028 17.1549 39.1733 17.2465 39.0364 17.2239C37.5134 16.9725 35.9981 16.5727 34.5034 16.1783C33.8757 16.0127 33.2517 15.8481 32.6323 15.6958C32.4975 15.6627 32.4154 15.5276 32.4489 15.3942Z" fill="black"/>
<path fill-rule="evenodd" clip-rule="evenodd" d="M40.6299 16.6193C40.66 16.7536 40.5746 16.8866 40.4391 16.9164C38.0939 17.4327 35.5676 17.8147 33.5123 18.1254C33.1316 18.183 32.7671 18.2381 32.4228 18.2912C32.2857 18.3123 32.1572 18.2193 32.1358 18.0834C32.1145 17.9475 32.2084 17.8202 32.3455 17.7991C32.6923 17.7456 33.0587 17.6902 33.4406 17.6325C35.4965 17.3216 38.0031 16.9426 40.33 16.4303C40.4655 16.4005 40.5998 16.4851 40.6299 16.6193Z" fill="black"/>
<path fill-rule="evenodd" clip-rule="evenodd" d="M39.7007 53.784C39.7452 53.9143 39.6747 54.0556 39.5432 54.0997C36.9099 54.9819 34.207 55.4842 31.5043 55.9383C31.3675 55.9613 31.2377 55.87 31.2145 55.7345C31.1913 55.5989 31.2834 55.4703 31.4203 55.4473C34.1209 54.9936 36.7897 54.4965 39.3821 53.6279C39.5136 53.5839 39.6563 53.6538 39.7007 53.784Z" fill="black"/>
<path fill-rule="evenodd" clip-rule="evenodd" d="M35.5124 16.0154C35.5233 16.1525 35.4199 16.2723 35.2815 16.2831C34.7154 16.3272 34.1684 16.4236 33.5955 16.5245C33.5372 16.5348 33.4786 16.5451 33.4197 16.5554C31.8053 16.8382 30.1779 17.0214 28.5597 17.2036C28.5108 17.2091 28.4618 17.2146 28.4129 17.2201C28.275 17.2356 28.1505 17.1374 28.1348 17.0008C28.1191 16.8642 28.2182 16.7408 28.3561 16.7253C28.4031 16.72 28.4501 16.7147 28.4971 16.7094C30.1197 16.5268 31.7333 16.3451 33.3321 16.0651C33.3913 16.0547 33.4505 16.0443 33.5097 16.0338C34.0789 15.9335 34.6501 15.8328 35.2421 15.7867C35.3805 15.7759 35.5015 15.8783 35.5124 16.0154Z" fill="black"/>
<path fill-rule="evenodd" clip-rule="evenodd" d="M28.9232 14.9004C29.062 14.9004 29.1745 15.0119 29.1745 15.1494V55.0831C29.1745 55.2206 29.062 55.3321 28.9232 55.3321C28.7844 55.3321 28.6719 55.2206 28.6719 55.0831V15.1494C28.6719 15.0119 28.7844 14.9004 28.9232 14.9004ZM38.1544 15.8149C38.2932 15.8149 38.4057 15.9264 38.4057 16.0639V55.0831C38.4057 55.2206 38.2932 55.3321 38.1544 55.3321C38.0156 55.3321 37.9031 55.2206 37.9031 55.0831V16.0639C37.9031 15.9264 38.0156 15.8149 38.1544 15.8149ZM33.2311 17.6439C33.3699 17.6439 33.4824 17.7554 33.4824 17.8929V55.0831C33.4824 55.2206 33.3699 55.3321 33.2311 55.3321C33.0923 55.3321 32.9798 55.2206 32.9798 55.0831V17.8929C32.9798 17.7554 33.0923 17.6439 33.2311 17.6439Z" fill="black"/>
<path fill-rule="evenodd" clip-rule="evenodd" d="M45.3801 14.1502C45.4271 14.0208 45.571 13.9536 45.7016 14.0001C47.7351 14.724 49.7745 15.3497 51.8444 15.9778C51.9771 16.0181 52.0517 16.1573 52.0111 16.2888C51.9704 16.4203 51.8299 16.4942 51.6971 16.4539C49.6277 15.8259 47.5777 15.1971 45.5316 14.4687C45.401 14.4222 45.3332 14.2796 45.3801 14.1502Z" fill="black"/>
<path fill-rule="evenodd" clip-rule="evenodd" d="M39.8951 56.7403C39.9906 56.6405 40.1496 56.6363 40.2504 56.7309C41.6703 58.0639 43.0946 59.2165 44.5433 60.376C44.6513 60.4624 44.6681 60.6191 44.5809 60.7261C44.4937 60.8331 44.3354 60.8497 44.2274 60.7633C42.7786 59.6038 41.3404 58.4403 39.9046 57.0923C39.8039 56.9977 39.7996 56.8401 39.8951 56.7403Z" fill="black"/>
<path fill-rule="evenodd" clip-rule="evenodd" d="M39.4332 14.7523C39.4842 14.6245 39.6303 14.5618 39.7593 14.6124C40.3703 14.8517 40.9766 15.1011 41.5817 15.3501C43.0004 15.9338 44.4128 16.5149 45.8646 16.9573C45.9972 16.9978 46.0717 17.1371 46.0309 17.2685C45.9901 17.4 45.8494 17.4737 45.7168 17.4333C44.2411 16.9835 42.7928 16.3878 41.3643 15.8001C40.7644 15.5533 40.168 15.308 39.5745 15.0754C39.4454 15.0249 39.3822 14.8802 39.4332 14.7523Z" fill="black"/>
<path fill-rule="evenodd" clip-rule="evenodd" d="M51.5217 15.9619C51.5321 16.099 51.4283 16.2185 51.2899 16.2288C48.8942 16.4066 46.3387 16.4258 44.2597 16.4415C43.8746 16.4444 43.5058 16.4471 43.1575 16.4508C43.0187 16.4522 42.905 16.3419 42.9035 16.2044C42.9021 16.0669 43.0134 15.9543 43.1522 15.9528C43.5031 15.9491 43.8737 15.9464 44.26 15.9434C46.3397 15.9278 48.8752 15.9087 51.2523 15.7322C51.3907 15.7219 51.5113 15.8247 51.5217 15.9619Z" fill="black"/>
<path fill-rule="evenodd" clip-rule="evenodd" d="M51.4048 59.3215C51.4207 59.4582 51.3218 59.5817 51.1839 59.5974C47.171 60.0561 45.6221 60.0563 42.847 60.0563C42.7082 60.0563 42.5957 59.9448 42.5957 59.8073C42.5957 59.6698 42.7082 59.5583 42.847 59.5583H42.8503C45.6119 59.5583 47.1405 59.5583 51.1263 59.1027C51.2642 59.087 51.3889 59.1849 51.4048 59.3215Z" fill="black"/>
<path fill-rule="evenodd" clip-rule="evenodd" d="M48.9459 14.8434C48.9463 14.9809 48.8341 15.0927 48.6953 15.0931L40.2795 15.1163C40.1407 15.1167 40.0278 15.0055 40.0274 14.868C40.027 14.7305 40.1393 14.6187 40.2781 14.6183L48.6939 14.5951C48.8327 14.5947 48.9455 14.7059 48.9459 14.8434Z" fill="black"/>
<path fill-rule="evenodd" clip-rule="evenodd" d="M40.6927 13.6807C40.8315 13.6807 40.9441 13.7921 40.9441 13.9297V57.5214C40.9441 57.6589 40.8315 57.7704 40.6927 57.7704C40.5539 57.7704 40.4414 57.6589 40.4414 57.5214V13.9297C40.4414 13.7921 40.5539 13.6807 40.6927 13.6807ZM50.2316 13.6807C50.3704 13.6807 50.483 13.7921 50.483 13.9297V59.0456C50.483 59.1831 50.3704 59.2946 50.2316 59.2946C50.0928 59.2946 49.9803 59.1831 49.9803 59.0456V13.9297C49.9803 13.7921 50.0928 13.6807 50.2316 13.6807ZM43.4621 15.5097C43.6009 15.5097 43.7134 15.6212 43.7134 15.7587V60.2649C43.7134 60.4024 43.6009 60.5139 43.4621 60.5139C43.3233 60.5139 43.2108 60.4024 43.2108 60.2649V15.7587C43.2108 15.6212 43.3233 15.5097 43.4621 15.5097Z" fill="black"/>
<path fill-rule="evenodd" clip-rule="evenodd" d="M34.778 57.4423C34.8222 57.5727 34.7513 57.7138 34.6197 57.7576C32.7157 58.3907 30.8155 59.0334 28.9152 59.6761C22.6556 61.7934 16.3949 63.911 9.99103 65.6871C9.85736 65.7241 9.71867 65.6468 9.68124 65.5144C9.64382 65.382 9.72185 65.2446 9.85551 65.2075C16.2445 63.4355 22.487 61.3241 28.7439 59.2078C30.6463 58.5644 32.5501 57.9204 34.4598 57.2855C34.5914 57.2417 34.7338 57.3119 34.778 57.4423Z" fill="black"/>
<path fill-rule="evenodd" clip-rule="evenodd" d="M33.1432 57.3335C33.248 57.2433 33.4067 57.2544 33.4977 57.3582C33.8972 57.8139 34.2947 58.2682 34.6909 58.721C38.147 62.6712 41.5063 66.5105 45.2555 70.2248C45.3536 70.322 45.3536 70.4797 45.2555 70.5769C45.1573 70.6741 44.9982 70.6741 44.9 70.5769C41.1374 66.8493 37.7662 62.9963 34.3116 59.0478C33.9151 58.5947 33.5176 58.1403 33.1182 57.6847C33.0272 57.5809 33.0384 57.4236 33.1432 57.3335Z" fill="black"/>
<path fill-rule="evenodd" clip-rule="evenodd" d="M33.7733 64.7903C33.8848 64.7083 34.0422 64.7313 34.125 64.8417C38.1249 70.176 40.8926 73.8319 44.2751 78.0968C44.3609 78.2049 44.3419 78.3615 44.2328 78.4464C44.1237 78.5314 43.9657 78.5126 43.8799 78.4045C40.4929 74.134 37.7219 70.4737 33.7215 65.1387C33.6387 65.0283 33.6619 64.8723 33.7733 64.7903Z" fill="black"/>
<path fill-rule="evenodd" clip-rule="evenodd" d="M49.9884 49.5316C50.0242 49.3987 50.1619 49.3197 50.2961 49.3551C50.7674 49.4797 51.2308 49.5998 51.6864 49.7179C55.6712 50.7509 59.0657 51.6309 62.0792 53.9724C63.9937 55.4599 64.678 57.0653 64.4544 58.6624C64.2343 60.2348 63.1415 61.7325 61.6576 63.0435C58.6917 65.6636 54.0213 67.6622 50.8977 68.1302C49.8469 68.4042 48.1334 68.643 46.4338 68.8459C45.5771 68.9481 44.7266 69.0409 43.9578 69.1248C43.1808 69.2096 42.4872 69.2852 41.955 69.3523C41.8173 69.3697 41.6914 69.2732 41.6739 69.1368C41.6564 69.0004 41.7538 68.8757 41.8915 68.8584C42.4212 68.7916 43.1245 68.7148 43.9091 68.6291C44.6812 68.5448 45.5321 68.4519 46.3737 68.3514C48.0861 68.1471 49.7722 67.9104 50.7823 67.6453C50.7913 67.643 50.8003 67.6411 50.8094 67.6398C53.8399 67.1894 58.4284 65.2291 61.3231 62.6718C62.7717 61.3921 63.7605 59.9941 63.9565 58.594C64.1491 57.2185 63.5841 55.7745 61.769 54.3642C58.8423 52.0902 55.5525 51.2363 51.5516 50.198C51.0992 50.0805 50.6376 49.9608 50.1665 49.8363C50.0324 49.8009 49.9527 49.6644 49.9884 49.5316Z" fill="black"/>
<path fill-rule="evenodd" clip-rule="evenodd" d="M64.4156 57.5875C64.5487 57.6265 64.6247 57.7651 64.5852 57.8969C64.5566 57.9928 64.5297 58.2079 64.509 58.5425C64.489 58.8675 64.4759 59.2805 64.4667 59.7541C64.4551 60.351 64.4498 61.0378 64.4443 61.7589C64.441 62.1833 64.4377 62.6195 64.4329 63.0564C64.42 64.2322 64.3968 65.4099 64.3367 66.3512C64.3067 66.8215 64.2672 67.2381 64.2141 67.5684C64.1875 67.7334 64.1569 67.8814 64.1208 68.006C64.086 68.1263 64.0411 68.2434 63.9775 68.3334C61.6541 71.623 58.0665 73.9343 53.9923 75.461C49.917 76.9881 45.3391 77.7363 41.0103 77.8895C40.8716 77.8944 40.7551 77.7869 40.7502 77.6495C40.7452 77.5121 40.8536 77.3967 40.9924 77.3918C45.2794 77.2401 49.8012 76.4991 53.8144 74.9952C57.8287 73.491 61.3183 71.2298 63.5656 68.0479C63.5814 68.0257 63.6079 67.9715 63.6376 67.8688C63.6661 67.7705 63.6929 67.6439 63.7177 67.49C63.7671 67.1824 63.8055 66.7837 63.8351 66.3198C63.8942 65.3928 63.9174 64.2266 63.9302 63.051C63.935 62.6182 63.9383 62.1837 63.9416 61.76C63.9472 61.0363 63.9525 60.3439 63.9641 59.7445C63.9733 59.2688 63.9866 58.8476 64.0073 58.5121C64.0274 58.1862 64.0557 57.9145 64.1033 57.7555C64.1427 57.6236 64.2826 57.5484 64.4156 57.5875Z" fill="black"/>
<path fill-rule="evenodd" clip-rule="evenodd" d="M29.542 64.4397C29.5938 64.5672 29.5315 64.7123 29.4028 64.7637C22.0906 67.6829 16.169 69.8364 9.66923 72.2001C7.00265 73.1699 4.23876 74.175 1.24161 75.2829C1.11156 75.331 0.966796 75.2655 0.91827 75.1367C0.869745 75.0078 0.935832 74.8644 1.06588 74.8164C4.06826 73.7065 6.83484 72.7004 9.50268 71.7302C15.9993 69.3676 21.9103 67.218 29.2149 64.3018C29.3436 64.2504 29.4901 64.3121 29.542 64.4397Z" fill="black"/>
<path fill-rule="evenodd" clip-rule="evenodd" d="M27.3147 64.1793C27.4271 64.0986 27.5842 64.1233 27.6657 64.2346C28.258 65.0434 28.8525 65.8511 29.4472 66.6592C32.7052 71.0859 35.9698 75.5214 38.9067 80.1766C38.9802 80.2932 38.9445 80.4469 38.8268 80.5197C38.709 80.5926 38.554 80.5572 38.4804 80.4406C35.5539 75.8018 32.3015 71.3827 29.0433 66.9557C28.448 66.1469 27.8526 65.3378 27.2589 64.5271C27.1773 64.4158 27.2023 64.2601 27.3147 64.1793Z" fill="black"/>
<path fill-rule="evenodd" clip-rule="evenodd" d="M0.781205 73.5547C0.850072 73.4353 1.0036 73.3938 1.12412 73.462C3.25492 74.6683 6.7249 75.9453 8.46018 76.4892C18.9018 79.7621 32.5672 81.4547 41.5556 79.2286C41.6903 79.1952 41.8268 79.2763 41.8604 79.4097C41.8941 79.5432 41.8122 79.6783 41.6776 79.7117C32.5602 81.9698 18.791 80.2496 8.30855 76.964C6.56165 76.4164 3.0518 75.1269 0.874727 73.8944C0.754208 73.8262 0.712337 73.6741 0.781205 73.5547Z" fill="black"/>
<path fill-rule="evenodd" clip-rule="evenodd" d="M2.83205 72.7435C2.97067 72.7364 3.08888 72.8419 3.09608 72.9792C3.40408 78.853 3.40413 80.6866 3.40413 85.2619C3.40413 85.3994 3.2916 85.5108 3.15279 85.5108C3.01399 85.5108 2.90146 85.3994 2.90146 85.2619V85.2599C2.90146 80.6915 2.90146 78.8667 2.59409 73.0051C2.58689 72.8677 2.69343 72.7506 2.83205 72.7435Z" fill="black"/>
<path fill-rule="evenodd" clip-rule="evenodd" d="M38.6194 77.5445C38.7582 77.5461 38.8694 77.6589 38.8677 77.7964C38.8491 79.3472 38.7615 81.1094 38.6749 82.8541C38.67 82.9509 38.6652 83.0476 38.6604 83.1443C38.5691 84.986 38.4831 86.7934 38.4831 88.3103C38.4831 88.4478 38.3706 88.5593 38.2318 88.5593C38.093 88.5593 37.9805 88.4478 37.9805 88.3103C37.9805 86.7789 38.0672 84.9589 38.1584 83.1199C38.1631 83.0243 38.1679 82.9287 38.1726 82.8331C38.2595 81.0852 38.3466 79.3316 38.3651 77.7905C38.3668 77.653 38.4806 77.5428 38.6194 77.5445Z" fill="black"/>
<path fill-rule="evenodd" clip-rule="evenodd" d="M1.71871 82.0686C1.79939 81.9567 1.95636 81.9308 2.06931 82.0108C6.33344 85.0282 12.7273 87.1967 19.6152 88.2061C26.5003 89.2151 33.8501 89.0615 40.015 87.4596C40.1492 87.4247 40.2866 87.5043 40.3219 87.6373C40.3571 87.7703 40.2768 87.9064 40.1425 87.9413C33.8982 89.5639 26.4781 89.7152 19.5416 88.6987C12.6081 87.6826 6.12878 85.4953 1.77714 82.416C1.66419 82.336 1.63803 82.1805 1.71871 82.0686Z" fill="black"/>
<path fill-rule="evenodd" clip-rule="evenodd" d="M34.1593 64.7487C34.2091 64.8771 34.1444 65.0211 34.0148 65.0704C33.2835 65.3485 32.695 65.5782 32.1825 65.7783C31.0176 66.2331 30.2448 66.5348 29.0779 66.9041C28.9457 66.946 28.8042 66.8737 28.762 66.7427C28.7197 66.6117 28.7927 66.4716 28.9249 66.4298C30.0754 66.0656 30.8283 65.7717 31.9838 65.3206C32.4976 65.12 33.0911 64.8883 33.8346 64.6055C33.9642 64.5562 34.1096 64.6203 34.1593 64.7487Z" fill="black"/>
<path fill-rule="evenodd" clip-rule="evenodd" d="M3.14247 67.1953C3.2726 67.1475 3.41725 67.2132 3.46554 67.3421C4.34327 69.685 6.51821 71.4867 8.85884 72.3786C8.9884 72.428 9.05303 72.572 9.0032 72.7004C8.95337 72.8287 8.80795 72.8927 8.6784 72.8434C6.24078 71.9146 3.93474 70.0258 2.99429 67.5154C2.94599 67.3865 3.01233 67.2432 3.14247 67.1953Z" fill="black"/>
<path fill-rule="evenodd" clip-rule="evenodd" d="M3.46526 59.1016C3.60403 59.1045 3.71419 59.2183 3.7113 59.3557C3.64954 62.2927 3.66726 63.842 3.68776 65.6331C3.6991 66.6244 3.71129 67.6897 3.71131 69.1053C3.71132 69.2429 3.59879 69.3543 3.45998 69.3543C3.32118 69.3543 3.20865 69.2429 3.20865 69.1053C3.20862 67.7006 3.19649 66.6384 3.18518 65.6476C3.16467 63.8509 3.14684 62.2892 3.20874 59.3454C3.21163 59.2079 3.32648 59.0988 3.46526 59.1016Z" fill="black"/>
<path fill-rule="evenodd" clip-rule="evenodd" d="M33.9301 57.2725C34.0689 57.2754 34.179 57.3892 34.1761 57.5266C34.1155 60.4085 34.1315 61.5888 34.1515 63.0686C34.1631 63.9319 34.1762 64.8972 34.1762 66.3617C34.1762 66.4993 34.0637 66.6107 33.9249 66.6107C33.7861 66.6107 33.6735 66.4993 33.6735 66.3617C33.6735 64.9101 33.6605 63.9476 33.6489 63.0841C33.6289 61.5976 33.6128 60.4049 33.6736 57.5163C33.6765 57.3788 33.7913 57.2697 33.9301 57.2725Z" fill="black"/>
<path fill-rule="evenodd" clip-rule="evenodd" d="M43.8188 68.2466C43.9575 68.2495 44.0677 68.3633 44.0648 68.5008C44.0042 71.3826 44.0201 72.5629 44.0401 74.0427C44.0518 74.9061 44.0649 75.8713 44.0649 77.3359C44.0649 77.4734 43.9524 77.5849 43.8136 77.5849C43.6747 77.5849 43.5622 77.4734 43.5622 77.3359C43.5622 75.8842 43.5492 74.9217 43.5376 74.0583C43.5176 72.5717 43.5015 71.3791 43.5622 68.4904C43.5651 68.3529 43.68 68.2438 43.8188 68.2466Z" fill="black"/>
<path fill-rule="evenodd" clip-rule="evenodd" d="M10.5863 64.2837C10.7251 64.2866 10.8352 64.4004 10.8323 64.5379C10.7752 67.2525 10.786 67.6996 10.8042 68.4524C10.8166 68.9663 10.8324 69.6225 10.8324 71.2391C10.8324 71.3766 10.7199 71.4881 10.5811 71.4881C10.4423 71.4881 10.3298 71.3766 10.3298 71.2391C10.3297 69.6483 10.3141 68.9916 10.3018 68.4739C10.2835 67.7093 10.2726 67.2479 10.3298 64.5275C10.3327 64.39 10.4475 64.2809 10.5863 64.2837Z" fill="black"/>
<path fill-rule="evenodd" clip-rule="evenodd" d="M2.5091 57.2742C2.64696 57.2581 2.77186 57.3558 2.78808 57.4924C2.91943 58.5985 3.48739 59.6602 4.26098 60.6179C5.03336 61.5742 5.99837 62.4114 6.89698 63.0662C8.60237 64.309 10.5271 65.3605 12.6054 65.2747C12.7441 65.269 12.8612 65.3757 12.8669 65.5131C12.8727 65.6505 12.765 65.7665 12.6263 65.7722C10.3677 65.8655 8.32343 64.7239 6.59913 63.4674C5.67736 62.7957 4.6764 61.9293 3.8685 60.9291C3.06181 59.9303 2.43517 58.7827 2.28886 57.5506C2.27264 57.414 2.37124 57.2903 2.5091 57.2742Z" fill="black"/>
<path fill-rule="evenodd" clip-rule="evenodd" d="M15.3974 49.7944C15.4322 49.9275 15.3516 50.0634 15.2172 50.098C12.0535 50.9114 8.96967 52.043 6.64469 54.2714C5.47896 55.3887 4.35746 56.8513 3.90767 58.3791C3.62033 59.3551 3.81073 60.2831 4.23 61.2325C4.28564 61.3585 4.22765 61.5053 4.10048 61.5604C3.97331 61.6156 3.82512 61.5581 3.76948 61.4321C3.32466 60.4249 3.09227 59.3702 3.42512 58.2396C3.90945 56.5945 5.09909 55.0599 6.29518 53.9135C8.71652 51.5928 11.9057 50.435 15.0909 49.616C15.2253 49.5814 15.3625 49.6613 15.3974 49.7944Z" fill="black"/>
<path d="M24.386 48.3765C25.5676 48.1886 27.1237 48.0045 28.6939 47.8818L24.386 48.3765Z" fill="#22222A"/>
<path fill-rule="evenodd" clip-rule="evenodd" d="M28.9424 47.8577C28.9557 47.9928 28.8573 48.1135 28.7212 48.1291L24.4133 48.6239C24.2776 48.6395 24.1541 48.5447 24.1354 48.4106C24.1167 48.2765 24.2096 48.1522 24.3446 48.1307C25.5336 47.9416 27.0965 47.7568 28.6725 47.6336C28.8091 47.6229 28.9292 47.7226 28.9424 47.8577Z" fill="black"/>
<path fill-rule="evenodd" clip-rule="evenodd" d="M37.9815 48.0495C37.9939 47.9125 38.116 47.8115 38.2543 47.8238C38.6066 47.8551 38.8714 47.8738 39.1174 47.8912C39.5726 47.9235 39.9633 47.9511 40.7246 48.0454C40.8624 48.0625 40.9601 48.1869 40.9429 48.3234C40.9256 48.4598 40.8 48.5566 40.6623 48.5395C39.9126 48.4467 39.5416 48.4205 39.0957 48.3891C38.8488 48.3716 38.5791 48.3526 38.2094 48.3198C38.0711 48.3075 37.9691 48.1865 37.9815 48.0495Z" fill="black"/>
<path fill-rule="evenodd" clip-rule="evenodd" d="M23.7395 22.8341C23.8739 22.8684 23.9548 23.0042 23.9201 23.1374L19.876 38.6841C19.8414 38.8172 19.7043 38.8974 19.5699 38.863C19.4355 38.8287 19.3546 38.693 19.3893 38.5598L23.4334 23.0131C23.468 22.8799 23.6051 22.7998 23.7395 22.8341ZM24.3487 27.1018C24.4831 27.1361 24.564 27.2719 24.5294 27.4051L20.0888 44.476C20.0541 44.6091 19.9171 44.6893 19.7827 44.6549C19.6482 44.6206 19.5674 44.4849 19.602 44.3517L24.0426 27.2808C24.0772 27.1476 24.2143 27.0675 24.3487 27.1018ZM24.4476 34.4179C24.582 34.4522 24.6629 34.588 24.6283 34.7212C23.7579 38.067 22.9594 41.1011 22.1784 44.068L22.1296 44.2533C21.3655 47.1558 20.6172 49.9985 19.8335 53.0114C19.7988 53.1446 19.6618 53.2247 19.5274 53.1904C19.3929 53.1561 19.3121 53.0203 19.3467 52.8871C20.1306 49.8737 20.879 47.0305 21.643 44.1284L21.692 43.9423C22.473 40.9754 23.2714 37.9419 24.1415 34.5969C24.1762 34.4637 24.3132 34.3836 24.4476 34.4179ZM17.0662 63.0736C17.2001 63.1098 17.279 63.2468 17.2424 63.3794L15.3919 70.0858C15.3553 70.2185 15.2171 70.2966 15.0832 70.2603C14.9493 70.2241 14.8704 70.0872 14.907 69.9545L16.7575 63.2481C16.7941 63.1154 16.9323 63.0373 17.0662 63.0736ZM14.7135 64.142C14.848 64.1763 14.9288 64.3121 14.8942 64.4452L13.19 70.9968C13.1553 71.13 13.0183 71.2101 12.8839 71.1758C12.7494 71.1415 12.6686 71.0057 12.7032 70.8725L14.4074 64.321C14.4421 64.1878 14.5791 64.1077 14.7135 64.142ZM12.9942 64.142C13.1286 64.1763 13.2095 64.3121 13.1748 64.4452L11.4706 70.9968C11.4359 71.13 11.2989 71.2101 11.1645 71.1758C11.0301 71.1415 10.9492 71.0057 10.9838 70.8725L12.6881 64.321C12.7227 64.1878 12.8598 64.1077 12.9942 64.142ZM9.74791 76.6215C9.88232 76.6558 9.96321 76.7916 9.92857 76.9247L7.74365 85.3242C7.70901 85.4573 7.57197 85.5375 7.43755 85.5031C7.30314 85.4688 7.22225 85.3331 7.25689 85.1999L9.44181 76.8005C9.47645 76.6673 9.61349 76.5872 9.74791 76.6215ZM11.2899 77.3033C11.4243 77.3376 11.5052 77.4734 11.4706 77.6066L9.46303 85.3242C9.42839 85.4573 9.29134 85.5375 9.15692 85.5031C9.02251 85.4688 8.94162 85.3331 8.97626 85.1999L10.9838 77.4823C11.0185 77.3491 11.1555 77.269 11.2899 77.3033ZM13.0093 78.2476C13.1437 78.2819 13.2246 78.4176 13.19 78.5508L11.1901 86.2387C11.1555 86.3718 11.0185 86.452 10.884 86.4177C10.7496 86.3833 10.6687 86.2476 10.7034 86.1144L12.7032 78.4265C12.7378 78.2934 12.8749 78.2132 13.0093 78.2476Z" fill="black"/>
<path d="M5.92209 75.8118C5.55398 77.2269 5.22228 78.4726 4.89288 79.7099L3.90993 83.4327C4.25615 82.1018 4.57343 80.9098 4.89288 79.7099L5.92209 75.8118Z" fill="#22222A"/>
<path fill-rule="evenodd" clip-rule="evenodd" d="M21.4014 23.7484C21.5359 23.7827 21.6167 23.9185 21.5821 24.0516L19.6171 31.6056C19.5825 31.7388 19.4454 31.8189 19.311 31.7846C19.1766 31.7503 19.0957 31.6145 19.1303 31.4813L21.0953 23.9274C21.13 23.7942 21.267 23.7141 21.4014 23.7484ZM7.40852 63.3772C7.54294 63.4115 7.62382 63.5473 7.58918 63.6805L5.85873 70.3328C5.8241 70.4659 5.68705 70.5461 5.55263 70.5118C5.41822 70.4774 5.33733 70.3417 5.37197 70.2085L7.10242 63.5562C7.13706 63.423 7.27411 63.3429 7.40852 63.3772ZM10.855 64.2917C10.9894 64.326 11.0703 64.4618 11.0357 64.595L9.07067 72.149C9.03603 72.2821 8.89898 72.3623 8.76457 72.3279C8.63015 72.2936 8.54926 72.1579 8.5839 72.0247L10.5489 64.4707C10.5835 64.3375 10.7206 64.2574 10.855 64.2917ZM8.89 64.2917C9.02442 64.3261 9.1053 64.4618 9.07066 64.595L7.16755 71.9111C7.13291 72.0442 6.99587 72.1244 6.86145 72.09C6.72704 72.0557 6.64615 71.92 6.68079 71.7868L8.5839 64.4707C8.61854 64.3375 8.75559 64.2574 8.89 64.2917ZM4.39525 74.961C4.52967 74.9954 4.61055 75.1311 4.57591 75.2643L3.38647 79.8368C3.35183 79.97 3.21478 80.0501 3.08037 80.0158C2.94595 79.9815 2.86507 79.8457 2.89971 79.7126L4.08915 75.14C4.12379 75.0068 4.26084 74.9267 4.39525 74.961ZM5.98622 75.5708C6.1204 75.6053 6.20103 75.741 6.16644 75.874C5.80091 77.2792 5.47127 78.5173 5.14434 79.7454L5.13701 79.7729L5.13688 79.7734L4.15428 83.4949L4.15405 83.4958C4.11897 83.6286 3.98192 83.7083 3.84774 83.6738C3.71356 83.6392 3.63293 83.5036 3.66752 83.3706C4.01392 82.039 4.33135 80.8464 4.65076 79.6466C4.65079 79.6466 4.65081 79.6465 4.65083 79.6464L5.67968 75.7497L5.67991 75.7488C5.71499 75.616 5.85204 75.5363 5.98622 75.5708ZM7.68314 76.4852C7.81756 76.5195 7.89844 76.6553 7.8638 76.7885L5.85873 84.4965C5.82409 84.6297 5.68705 84.7098 5.55263 84.6755C5.41822 84.6412 5.33733 84.5054 5.37197 84.3722L7.37704 76.6642C7.41168 76.531 7.54873 76.4509 7.68314 76.4852Z" fill="black"/>
<path fill-rule="evenodd" clip-rule="evenodd" d="M4.44065 61.2433C4.57506 61.2776 4.65595 61.4134 4.62131 61.5465L3.74905 64.8997C3.71441 65.0329 3.57736 65.113 3.44295 65.0787C3.30853 65.0444 3.22765 64.9086 3.26229 64.7755L4.13455 61.4223C4.16919 61.2891 4.30623 61.209 4.44065 61.2433ZM6.08846 62.4626C6.22288 62.4969 6.30376 62.6327 6.26912 62.7659L4.62131 69.1005C4.58667 69.2337 4.44962 69.3138 4.31521 69.2795C4.18079 69.2452 4.09991 69.1094 4.13455 68.9762L5.78236 62.6416C5.817 62.5084 5.95405 62.4283 6.08846 62.4626Z" fill="black"/>
<path fill-rule="evenodd" clip-rule="evenodd" d="M34.1632 17.347C34.2976 17.3813 34.3785 17.5171 34.3438 17.6503L33.6301 20.3938C33.5955 20.527 33.4585 20.6071 33.324 20.5728C33.1896 20.5385 33.1087 20.4027 33.1434 20.2695L33.8571 17.526C33.8917 17.3928 34.0287 17.3127 34.1632 17.347ZM24.373 40.8195C24.5074 40.8538 24.5883 40.9896 24.5536 41.1227L20.3509 57.2791C20.3163 57.4123 20.1792 57.4924 20.0448 57.4581C19.9104 57.4238 19.8295 57.288 19.8641 57.1548L24.0669 40.9985C24.1015 40.8653 24.2385 40.7852 24.373 40.8195ZM24.373 47.4292C24.5074 47.4635 24.5883 47.5993 24.5536 47.7325L22.0703 57.2791C22.0356 57.4123 21.8986 57.4924 21.7642 57.4581C21.6298 57.4238 21.5489 57.288 21.5835 57.1548L24.0669 47.6082C24.1015 47.475 24.2385 47.3949 24.373 47.4292ZM24.6476 53.9275C24.782 53.9618 24.8629 54.0976 24.8282 54.2307L24.1407 56.874C24.106 57.0071 23.969 57.0872 23.8346 57.0529C23.7001 57.0186 23.6193 56.8828 23.6539 56.7497L24.3415 54.1065C24.3761 53.9733 24.5132 53.8932 24.6476 53.9275ZM22.6652 61.5484C22.7996 61.5827 22.8805 61.7185 22.8458 61.8517L21.2599 67.9484C21.2253 68.0816 21.0882 68.1617 20.9538 68.1274C20.8194 68.0931 20.7385 67.9573 20.7731 67.8241L22.3591 61.7274C22.3937 61.5942 22.5307 61.5141 22.6652 61.5484ZM20.5825 62.0007C20.7169 62.035 20.7978 62.1708 20.7632 62.304L18.9777 69.1678C18.9431 69.3009 18.806 69.3811 18.6716 69.3467C18.5372 69.3124 18.4563 69.1767 18.491 69.0435L20.2764 62.1797C20.3111 62.0465 20.4481 61.9664 20.5825 62.0007ZM18.6636 62.7678C18.798 62.8021 18.8789 62.9379 18.8443 63.071L17.2583 69.1678C17.2237 69.3009 17.0867 69.3811 16.9522 69.3467C16.8178 69.3124 16.7369 69.1767 16.7716 69.0435L18.3575 62.9468C18.3921 62.8136 18.5292 62.7335 18.6636 62.7678ZM16.4182 78.0096C16.5526 78.044 16.6335 78.1797 16.5988 78.3129C16.1868 79.8969 15.8576 81.2076 15.5309 82.5084L15.5093 82.5948C15.1755 83.9239 14.8424 85.2487 14.4247 86.8485C14.39 86.9817 14.2529 87.0617 14.1185 87.0273C13.9841 86.9928 13.9033 86.857 13.9381 86.7239C14.3551 85.1264 14.6877 83.8037 15.0215 82.4745L15.0433 82.3876C15.3699 81.0871 15.6995 79.7746 16.1121 78.1886C16.1467 78.0554 16.2837 77.9753 16.4182 78.0096ZM18.2246 78.6193C18.359 78.6536 18.4399 78.7894 18.4052 78.9226C17.9852 80.5373 17.5394 82.2143 17.1009 83.8641C16.7465 85.1973 16.3969 86.5128 16.0693 87.7632C16.0345 87.8964 15.8973 87.9763 15.7629 87.9417C15.6286 87.9072 15.5479 87.7713 15.5828 87.6382C15.9117 86.3824 16.2615 85.0666 16.6157 83.7339C17.0535 82.087 17.498 80.4145 17.9185 78.7983C17.9531 78.6651 18.0901 78.585 18.2246 78.6193ZM14.6988 78.0096C14.8332 78.044 14.9141 78.1797 14.8794 78.3129L12.6591 86.8483C12.6245 86.9815 12.4875 87.0616 12.353 87.0273C12.2186 86.993 12.1377 86.8572 12.1724 86.7241L14.3927 78.1886C14.4273 78.0555 14.5644 77.9753 14.6988 78.0096Z" fill="black"/>
<path fill-rule="evenodd" clip-rule="evenodd" d="M37.4377 16.7374C37.5721 16.7717 37.653 16.9075 37.6184 17.0407L33.7328 31.9777C33.6982 32.1109 33.5612 32.191 33.4267 32.1567C33.2923 32.1224 33.2114 31.9866 33.2461 31.8534L37.1316 16.9164C37.1663 16.7832 37.3033 16.7031 37.4377 16.7374ZM35.7183 16.7374C35.8528 16.7717 35.9336 16.9075 35.899 17.0407L33.5515 26.0653C33.5168 26.1984 33.3798 26.2785 33.2454 26.2442C33.1109 26.2099 33.0301 26.0741 33.0647 25.941L35.4122 16.9164C35.4469 16.7832 35.5839 16.7031 35.7183 16.7374ZM38.2133 21.31C38.3477 21.3443 38.4286 21.4801 38.3939 21.6132L33.5515 40.229C33.5168 40.3621 33.3798 40.4423 33.2454 40.408C33.1109 40.3736 33.0301 40.2379 33.0647 40.1047L37.9072 21.489C37.9418 21.3558 38.0788 21.2757 38.2133 21.31ZM28.3012 59.4147C28.4356 59.449 28.5165 59.5847 28.4819 59.7179L26.9752 65.5098C26.9406 65.643 26.8035 65.7231 26.6691 65.6888C26.5347 65.6545 26.4538 65.5187 26.4885 65.3855L27.9951 59.5936C28.0297 59.4605 28.1668 59.3803 28.3012 59.4147ZM26.0983 60.3292C26.2327 60.3635 26.3136 60.4993 26.279 60.6324L24.7723 66.4243C24.7377 66.5575 24.6007 66.6376 24.4662 66.6033C24.3318 66.569 24.2509 66.4332 24.2856 66.3L25.7922 60.5081C25.8269 60.375 25.9639 60.2949 26.0983 60.3292ZM24.2204 60.9388C24.3548 60.9732 24.4357 61.1089 24.401 61.2421L22.8151 67.3388C22.7804 67.472 22.6434 67.5521 22.509 67.5178C22.3746 67.4835 22.2937 67.3477 22.3283 67.2146L23.9143 61.1178C23.9489 60.9846 24.0859 60.9045 24.2204 60.9388ZM21.1819 79.2291C21.3164 79.2634 21.3972 79.3992 21.3626 79.5323L18.9837 88.6774C18.9491 88.8106 18.812 88.8907 18.6776 88.8564C18.5432 88.8221 18.4623 88.6863 18.4969 88.5532L20.8758 79.408C20.9105 79.2749 21.0475 79.1948 21.1819 79.2291ZM22.9883 79.8387C23.1228 79.8731 23.2036 80.0088 23.169 80.142C22.7686 81.6814 22.3481 83.296 21.9341 84.8861C21.5961 86.1843 21.2623 87.4661 20.9471 88.6775C20.9124 88.8106 20.7754 88.8907 20.641 88.8564C20.5066 88.8221 20.4257 88.6863 20.4603 88.5532C20.7756 87.3415 21.1094 86.0596 21.4474 84.7614C21.8614 83.1715 22.2818 81.5572 22.6822 80.0177C22.7169 79.8846 22.8539 79.8044 22.9883 79.8387ZM19.4626 79.2291C19.597 79.2634 19.6779 79.3992 19.6432 79.5323L17.4229 88.0678C17.3883 88.2009 17.2512 88.2811 17.1168 88.2467C16.9824 88.2124 16.9015 88.0767 16.9362 87.9435L19.1565 79.4081C19.1911 79.2749 19.3282 79.1948 19.4626 79.2291Z" fill="black"/>
<path fill-rule="evenodd" clip-rule="evenodd" d="M41.8117 15.213C41.9462 15.2473 42.027 15.3831 41.9924 15.5163L41.0408 19.1743C41.0062 19.3075 40.8692 19.3876 40.7347 19.3533C40.6003 19.319 40.5194 19.1832 40.5541 19.05L41.5056 15.392C41.5403 15.2588 41.6773 15.1787 41.8117 15.213ZM43.3725 15.8227C43.5069 15.857 43.5878 15.9928 43.5532 16.1259L41.0408 25.7841C41.0062 25.9172 40.8692 25.9973 40.7347 25.963C40.6003 25.9287 40.5194 25.7929 40.5541 25.6598L43.0664 16.0017C43.1011 15.8685 43.2381 15.7884 43.3725 15.8227ZM43.3725 23.3767C43.5069 23.411 43.5878 23.5468 43.5532 23.6799L41.0408 33.338C41.0062 33.4712 40.8692 33.5513 40.7347 33.517C40.6003 33.4827 40.5194 33.3469 40.5541 33.2138L43.0664 23.5557C43.1011 23.4225 43.2381 23.3424 43.3725 23.3767ZM38.0055 29.8452C38.1399 29.8795 38.2208 30.0153 38.1862 30.1485L33.5077 48.1339C33.473 48.267 33.336 48.3471 33.2016 48.3128C33.0672 48.2785 32.9863 48.1427 33.0209 48.0096L37.6994 30.0242C37.734 29.891 37.8711 29.8109 38.0055 29.8452ZM38.2975 35.3323C38.432 35.3666 38.5128 35.5024 38.4782 35.6355L33.5077 54.7436C33.473 54.8768 33.336 54.9569 33.2016 54.9226C33.0672 54.8883 32.9863 54.7525 33.0209 54.6193L37.9914 35.5113C38.0261 35.3781 38.1631 35.298 38.2975 35.3323ZM38.2975 42.8863C38.432 42.9206 38.5128 43.0564 38.4782 43.1895L35.4727 54.7436C35.438 54.8768 35.301 54.9569 35.1666 54.9226C35.0322 54.8883 34.9513 54.7525 34.9859 54.6193L37.9914 43.0652C38.0261 42.9321 38.1631 42.852 38.2975 42.8863ZM34.3153 58.1951C34.4497 58.2294 34.5306 58.3652 34.496 58.4983L32.7514 65.2047C32.7168 65.3379 32.5798 65.418 32.4453 65.3837C32.3109 65.3494 32.23 65.2136 32.2647 65.0805L34.0092 58.3741C34.0438 58.2409 34.1809 58.1608 34.3153 58.1951ZM32.3503 58.1951C32.4847 58.2294 32.5656 58.3652 32.531 58.4983L30.4693 66.4241C30.4346 66.5573 30.2976 66.6374 30.1632 66.6031C30.0287 66.5688 29.9479 66.433 29.9825 66.2998L32.0442 58.374C32.0788 58.2409 32.2159 58.1608 32.3503 58.1951ZM30.4723 58.8047C30.6068 58.8391 30.6876 58.9748 30.653 59.108L28.9085 65.8144C28.8738 65.9476 28.7368 66.0277 28.6024 65.9934C28.468 65.9591 28.3871 65.8233 28.4217 65.6901L30.1662 58.9837C30.2009 58.8506 30.3379 58.7704 30.4723 58.8047ZM28.6853 79.8385C28.8197 79.8728 28.9006 80.0086 28.8659 80.1418L26.4077 89.5917C26.3731 89.7249 26.236 89.805 26.1016 89.7707C25.9672 89.7364 25.8863 89.6006 25.921 89.4675L28.3792 80.0175C28.4138 79.8843 28.5508 79.8042 28.6853 79.8385ZM26.7203 79.8385C26.8547 79.8728 26.9356 80.0086 26.9009 80.1418L24.6013 88.9821C24.5667 89.1152 24.4296 89.1953 24.2952 89.161C24.1608 89.1267 24.0799 88.9909 24.1146 88.8578L26.4142 80.0175C26.4488 79.8843 26.5858 79.8042 26.7203 79.8385ZM25.0009 79.8385C25.1353 79.8728 25.2162 80.0086 25.1815 80.1418L22.8819 88.9821C22.8473 89.1152 22.7103 89.1953 22.5758 89.161C22.4414 89.1267 22.3605 88.9909 22.3952 88.8578L24.6948 80.0175C24.7294 79.8843 24.8665 79.8042 25.0009 79.8385Z" fill="black"/>
<path fill-rule="evenodd" clip-rule="evenodd" d="M43.386 29.8453C43.5204 29.8797 43.6013 30.0154 43.5666 30.1486L40.7912 40.8179C40.7566 40.9511 40.6196 41.0312 40.4851 40.9969C40.3507 40.9626 40.2698 40.8268 40.3045 40.6936L43.0799 30.0243C43.1145 29.8912 43.2515 29.811 43.386 29.8453ZM43.5987 35.6372C43.7331 35.6716 43.814 35.8073 43.7794 35.9405L40.9247 46.9146C40.89 47.0478 40.753 47.1279 40.6186 47.0936C40.4842 47.0593 40.4033 46.9235 40.4379 46.7904L43.2926 35.8162C43.3272 35.6831 43.4643 35.6029 43.5987 35.6372ZM43.5987 43.1912C43.7331 43.2255 43.814 43.3613 43.7794 43.4945L40.9247 54.4686C40.89 54.6018 40.753 54.6819 40.6186 54.6476C40.4842 54.6133 40.4033 54.4775 40.4379 54.3444L43.2926 43.3702C43.3272 43.237 43.4643 43.1569 43.5987 43.1912ZM38.2317 49.6598C38.3661 49.6941 38.447 49.8298 38.4123 49.963L37.2229 54.5356C37.1883 54.6687 37.0512 54.7489 36.9168 54.7145C36.7824 54.6802 36.7015 54.5445 36.7361 54.4113L37.9256 49.8387C37.9602 49.7056 38.0973 49.6254 38.2317 49.6598ZM35.5356 60.0242C35.67 60.0585 35.7509 60.1943 35.7163 60.3275L34.3682 65.5097C34.3336 65.6429 34.1965 65.723 34.0621 65.6887C33.9277 65.6544 33.8468 65.5186 33.8815 65.3854L35.2295 60.2032C35.2641 60.07 35.4012 59.9899 35.5356 60.0242ZM37.0422 60.8421C37.1767 60.8764 37.2575 61.0121 37.2229 61.1453L35.7163 66.9372C35.6816 67.0704 35.5446 67.1505 35.4102 67.1162C35.2758 67.0819 35.1949 66.9461 35.2295 66.8129L36.7361 61.021C36.7708 60.8879 36.9078 60.8077 37.0422 60.8421ZM38.5063 62.7678C38.6407 62.8021 38.7216 62.9378 38.687 63.071L37.2229 68.6993C37.1883 68.8325 37.0512 68.9126 36.9168 68.8783C36.7824 68.844 36.7015 68.7082 36.7361 68.575L38.2002 62.9467C38.2349 62.8136 38.3719 62.7334 38.5063 62.7678ZM33.9864 80.1435C34.1208 80.1778 34.2017 80.3136 34.1671 80.4467L31.9468 88.9822C31.9121 89.1153 31.7751 89.1955 31.6407 89.1611C31.5063 89.1268 31.4254 88.9911 31.46 88.8579L33.6803 80.3225C33.715 80.1893 33.852 80.1092 33.9864 80.1435ZM32.0214 80.1435C32.1558 80.1778 32.2367 80.3136 32.2021 80.4467L29.8232 89.5918C29.7885 89.725 29.6515 89.8051 29.5171 89.7708C29.3827 89.7365 29.3018 89.6007 29.3364 89.4676L31.7153 80.3225C31.75 80.1893 31.887 80.1092 32.0214 80.1435ZM30.302 80.1435C30.4365 80.1778 30.5173 80.3136 30.4827 80.4467L28.2624 88.9822C28.2278 89.1153 28.0907 89.1955 27.9563 89.1611C27.8219 89.1268 27.741 88.9911 27.7756 88.8579L29.9959 80.3225C30.0306 80.1893 30.1676 80.1092 30.302 80.1435Z" fill="black"/>
<path fill-rule="evenodd" clip-rule="evenodd" d="M43.5246 51.2125C43.659 51.2468 43.7399 51.3826 43.7053 51.5158L41.8889 58.4984C41.8543 58.6315 41.7172 58.7117 41.5828 58.6774C41.4484 58.643 41.3675 58.5073 41.4022 58.3741L43.2185 51.3915C43.2532 51.2583 43.3902 51.1782 43.5246 51.2125ZM43.6655 57.2806C43.7999 57.3149 43.8808 57.4507 43.8462 57.5839L43.2911 59.7177C43.2565 59.8509 43.1194 59.931 42.985 59.8967C42.8506 59.8624 42.7697 59.7266 42.8044 59.5935L43.3594 57.4596C43.3941 57.3264 43.5311 57.2463 43.6655 57.2806ZM39.9637 64.9016C40.0982 64.9359 40.179 65.0716 40.1444 65.2048L38.6378 70.9967C38.6031 71.1299 38.4661 71.21 38.3317 71.1757C38.1973 71.1414 38.1164 71.0056 38.151 70.8724L39.6576 65.0805C39.6923 64.9474 39.8293 64.8672 39.9637 64.9016ZM41.2866 66.4257C41.421 66.4601 41.5019 66.5958 41.4673 66.729L39.9607 72.5209C39.926 72.6541 39.789 72.7342 39.6546 72.6999C39.5201 72.6656 39.4393 72.5298 39.4739 72.3966L40.9805 66.6047C41.0152 66.4716 41.1522 66.3914 41.2866 66.4257ZM43.0137 67.3403C43.1482 67.3746 43.229 67.5103 43.1944 67.6435L41.3706 74.6548C41.3359 74.7879 41.1989 74.8681 41.0645 74.8337C40.9301 74.7994 40.8492 74.6637 40.8838 74.5305L42.7076 67.5192C42.7423 67.3861 42.8793 67.3059 43.0137 67.3403ZM37.7183 80.1434C37.8527 80.1777 37.9336 80.3135 37.899 80.4467L35.6787 88.9821C35.644 89.1153 35.507 89.1954 35.3726 89.1611C35.2381 89.1268 35.1573 88.991 35.1919 88.8579L37.4122 80.3224C37.4468 80.1892 37.5839 80.1091 37.7183 80.1434ZM35.9989 80.1434C36.1333 80.1777 36.2142 80.3135 36.1796 80.4467L33.9593 88.9821C33.9246 89.1153 33.7876 89.1954 33.6532 89.1611C33.5188 89.1268 33.4379 88.991 33.4725 88.8578L35.6928 80.3224C35.7275 80.1892 35.8645 80.1091 35.9989 80.1434ZM38.6524 84.1063C38.7869 84.1406 38.8677 84.2764 38.8331 84.4096L37.8022 88.3725C37.7676 88.5056 37.6306 88.5857 37.4961 88.5514C37.3617 88.5171 37.2808 88.3813 37.3155 88.2482L38.3463 84.2853C38.381 84.1521 38.518 84.072 38.6524 84.1063Z" fill="black"/>
<path fill-rule="evenodd" clip-rule="evenodd" d="M48.4542 68.2547C48.5886 68.289 48.6695 68.4248 48.6348 68.558L46.3352 77.3983C46.3006 77.5314 46.1635 77.6115 46.0291 77.5772C45.8947 77.5429 45.8138 77.4071 45.8485 77.274L48.1481 68.4337C48.1827 68.3005 48.3198 68.2204 48.4542 68.2547ZM46.4892 68.2547C46.6236 68.289 46.7045 68.4248 46.6698 68.558L44.3702 77.3983C44.3356 77.5314 44.1985 77.6115 44.0641 77.5772C43.9297 77.5429 43.8488 77.4071 43.8835 77.274L46.1831 68.4337C46.2177 68.3005 46.3548 68.2204 46.4892 68.2547ZM44.7698 68.2547C44.9042 68.289 44.9851 68.4248 44.9505 68.558L43.9989 72.216C43.9643 72.3492 43.8272 72.4293 43.6928 72.395C43.5584 72.3607 43.4775 72.2249 43.5121 72.0917L44.4637 68.4337C44.4983 68.3005 44.6354 68.2204 44.7698 68.2547Z" fill="black"/>
<path fill-rule="evenodd" clip-rule="evenodd" d="M54.6026 66.5223C54.737 66.5566 54.8179 66.6924 54.7833 66.8256L52.4296 75.8737C52.395 76.0069 52.2579 76.087 52.1235 76.0527C51.9891 76.0184 51.9082 75.8826 51.9428 75.7494L54.2965 66.7013C54.3311 66.5681 54.4682 66.488 54.6026 66.5223ZM52.3218 67.7363C52.4562 67.7707 52.5371 67.9064 52.5025 68.0396L50.2267 76.7882C50.1921 76.9214 50.055 77.0015 49.9206 76.9672C49.7862 76.9329 49.7053 76.7971 49.74 76.6639L52.0157 67.9153C52.0503 67.7822 52.1874 67.702 52.3218 67.7363ZM50.6024 67.7363C50.7368 67.7707 50.8177 67.9064 50.7831 68.0396L48.5073 76.7882C48.4727 76.9214 48.3357 77.0015 48.2012 76.9672C48.0668 76.9329 47.9859 76.7971 48.0206 76.6639L50.2963 67.9153C50.331 67.7822 50.468 67.702 50.6024 67.7363Z" fill="black"/>
<path fill-rule="evenodd" clip-rule="evenodd" d="M61.4952 63.0726C61.6296 63.1069 61.7105 63.2427 61.6758 63.3758L59.2177 72.8258C59.183 72.959 59.046 73.0391 58.9116 73.0048C58.7771 72.9705 58.6963 72.8347 58.7309 72.7015L61.1891 63.2516C61.2237 63.1184 61.3608 63.0383 61.4952 63.0726ZM59.1337 64.5968C59.2681 64.6311 59.349 64.7669 59.3144 64.9L56.9355 74.0451C56.9008 74.1783 56.7638 74.2584 56.6294 74.2241C56.495 74.1898 56.4141 74.054 56.4487 73.9209L58.8276 64.7758C58.8622 64.6426 58.9993 64.5625 59.1337 64.5968ZM57.1764 65.5113C57.3109 65.5456 57.3917 65.6814 57.3571 65.8145L54.9782 74.9597C54.9436 75.0928 54.8065 75.1729 54.6721 75.1386C54.5377 75.1043 54.4568 74.9685 54.4914 74.8354L56.8703 65.6903C56.905 65.5571 57.042 65.477 57.1764 65.5113Z" fill="black"/>
<path fill-rule="evenodd" clip-rule="evenodd" d="M64.4485 58.8468C64.5829 58.8811 64.6638 59.0169 64.6291 59.1501L61.4682 71.3016C61.4335 71.4348 61.2965 71.5149 61.1621 71.4806C61.0276 71.4463 60.9468 71.3105 60.9814 71.1773L64.1424 59.0258C64.177 58.8926 64.314 58.8125 64.4485 58.8468ZM64.4485 65.4565C64.5829 65.4909 64.6638 65.6266 64.6291 65.7598L63.8219 68.8629C63.7873 68.9961 63.6502 69.0762 63.5158 69.0419C63.3814 69.0076 63.3005 68.8718 63.3352 68.7386L64.1424 65.6355C64.177 65.5024 64.314 65.4222 64.4485 65.4565Z" fill="black"/>
<path d="M58.8646 26.4106C56.366 26.4106 54.8043 31.9801 53.8673 34.7648C52.9304 37.5496 52.0123 39.4859 56.366 39.406C59.591 39.3261 67.6809 40.5249 65.4234 36.9307C63.7303 34.215 61.0509 26.4107 58.8646 26.4106Z" fill="#EE5F54"/>
<path fill-rule="evenodd" clip-rule="evenodd" d="M56.9737 27.158C57.509 26.5671 58.1377 26.1616 58.8639 26.1616C59.2139 26.1616 59.548 26.3173 59.8577 26.5542C60.1684 26.792 60.4746 27.1269 60.7742 27.5232C61.3734 28.316 61.9744 29.3931 62.5531 30.541C63.003 31.4332 63.4438 32.3775 63.8626 33.2746C63.9833 33.5331 64.1022 33.7878 64.219 34.0361C64.7436 35.1521 65.2224 36.1355 65.6366 36.7998L65.4228 36.9306L65.6362 36.7991C65.9317 37.2697 66.0792 37.694 66.0652 38.0748C66.0507 38.4682 65.8652 38.7804 65.5716 39.016C65.2861 39.2452 64.8987 39.4027 64.4617 39.5135C64.0217 39.6251 63.5128 39.694 62.9688 39.7345C61.8813 39.8154 60.6255 39.7847 59.4489 39.7398C59.2009 39.7303 58.9569 39.7202 58.7187 39.7103C57.8182 39.6731 57.0008 39.6393 56.3716 39.6549L56.37 39.6549C55.2698 39.6751 54.4688 39.5696 53.9087 39.3355C53.3321 39.0945 53.0069 38.7141 52.8875 38.2173C52.7738 37.744 52.8544 37.1933 53.0063 36.6135C53.1251 36.1598 53.2957 35.661 53.4746 35.1378C53.5255 34.9891 53.577 34.8383 53.6282 34.6861L53.8656 34.7644L53.6282 34.6861C53.7149 34.4285 53.8074 34.1454 53.9059 33.844C54.3351 32.5305 54.8786 30.8676 55.5519 29.4381C55.9661 28.5589 56.4372 27.7503 56.9737 27.158ZM54.3884 33.9847C54.2886 34.29 54.1943 34.5786 54.1051 34.8435C54.0516 35.0026 53.9985 35.1578 53.9468 35.3092C53.7691 35.8289 53.6066 36.3041 53.4929 36.7386C53.3451 37.3025 53.2927 37.7531 53.3765 38.102C53.4547 38.4273 53.6577 38.6901 54.1041 38.8767C54.567 39.0701 55.2837 39.1767 56.3599 39.157C57.0075 39.141 57.8479 39.1758 58.7505 39.2132C58.9863 39.223 59.2263 39.2329 59.4682 39.2421C60.645 39.2871 61.8752 39.3165 62.9311 39.2379C63.4588 39.1986 63.936 39.1328 64.337 39.0311C64.7409 38.9286 65.0495 38.7942 65.2552 38.629C65.453 38.4703 65.5544 38.2859 65.5628 38.0566C65.5718 37.8147 65.4782 37.4902 65.2094 37.0622L65.209 37.0615C64.7766 36.368 64.2856 35.3575 63.7633 34.2463C63.6453 33.9954 63.5256 33.739 63.4044 33.4793C62.986 32.5833 62.5495 31.6483 62.1035 30.7635C61.5274 29.6209 60.9428 28.5771 60.3718 27.8217C60.0863 27.444 59.8112 27.1479 59.5504 26.9483C59.2884 26.7478 59.0606 26.6596 58.8639 26.6596C58.3408 26.6596 57.8373 26.9503 57.3478 27.4906C56.8595 28.0297 56.4131 28.7875 56.0074 29.6487C55.3488 31.047 54.8178 32.6713 54.3884 33.9847Z" fill="black"/>
<path d="M57.9961 28.4038C58.4798 30.161 58.238 31.9981 58.9636 33.7553C59.2055 34.3144 59.1248 33.5955 59.1248 33.4358C59.1248 32.3974 59.1248 31.3591 58.9636 30.3207C58.883 29.9214 58.6411 29.1227 58.8023 28.7233C58.883 28.5636 59.6892 29.9214 59.6892 30.0013C60.1729 31.1195 60.3342 32.5572 59.9311 33.6754" fill="#EE5F54"/>
<path fill-rule="evenodd" clip-rule="evenodd" d="M57.9314 28.1636C58.0653 28.1274 58.2034 28.2057 58.24 28.3383C58.4538 29.1149 58.5299 29.9075 58.6038 30.6775C58.6159 30.8039 58.628 30.9297 58.6406 31.0548C58.6941 31.5841 58.7573 32.1036 58.8719 32.6139C58.8637 31.8574 58.8328 31.11 58.7174 30.3642C58.7057 30.3066 58.6881 30.2307 58.668 30.1442C58.6282 29.9725 58.5787 29.759 58.5457 29.563C58.5194 29.4065 58.4997 29.2427 58.4982 29.0875C58.4968 28.935 58.5128 28.7735 58.5704 28.6309C58.573 28.6244 58.5758 28.6181 58.5789 28.612C58.599 28.5723 58.6344 28.526 58.6925 28.4944C58.751 28.4626 58.8101 28.4579 58.856 28.4632C58.9346 28.4722 58.9918 28.5122 59.0153 28.5295C59.0717 28.5712 59.1262 28.6323 59.1715 28.6875C59.2677 28.8049 59.3823 28.9719 59.4894 29.1388C59.5978 29.3074 59.7035 29.4836 59.7827 29.6238C59.8221 29.6937 59.8562 29.7567 59.8811 29.8065C59.8933 29.831 59.9049 29.8554 59.914 29.8774C59.9185 29.8882 59.9238 29.9019 59.9285 29.9167L59.9286 29.9173C59.9291 29.919 59.9299 29.9215 59.9309 29.9247C60.4254 31.0813 60.5963 32.5743 60.1692 33.7592C60.1225 33.8887 59.9787 33.9561 59.8479 33.9099C59.7172 33.8636 59.6491 33.7212 59.6958 33.5917C60.0722 32.5474 59.9254 31.1762 59.4596 30.0994C59.4542 30.0869 59.4498 30.074 59.4466 30.0609C59.4433 30.0536 59.4382 30.0426 59.4305 30.0273C59.411 29.9881 59.3814 29.9333 59.344 29.867C59.2695 29.7352 59.1687 29.567 59.0654 29.4061C59.0502 29.3825 59.035 29.3591 59.02 29.3362C59.026 29.3834 59.0333 29.4318 59.0416 29.4811C59.0731 29.6684 59.1132 29.8401 59.1502 29.9981C59.1727 30.0943 59.194 30.1854 59.2114 30.2719L59.2136 30.2829L59.2134 30.2829C59.3776 31.3401 59.3776 32.3944 59.3776 33.4268V33.4358C59.3776 33.456 59.3792 33.4869 59.3815 33.5296C59.3829 33.5554 59.3845 33.5856 59.3861 33.6202C59.3899 33.7006 59.3933 33.8021 59.3869 33.8842C59.3841 33.9206 59.3778 33.9794 59.3558 34.0341C59.3453 34.0602 59.3198 34.1154 59.262 34.1591C59.1883 34.2148 59.0952 34.2271 59.0127 34.1999C58.9477 34.1784 58.9056 34.138 58.8853 34.1163C58.8619 34.0912 58.8428 34.064 58.8276 34.0396C58.7971 33.9907 58.7662 33.9278 58.734 33.8534L58.7323 33.8496L58.7324 33.8496C58.3548 32.9352 58.2314 32.0056 58.1405 31.1043C58.1274 30.975 58.115 30.8464 58.1027 30.7185C58.0283 29.9465 57.9565 29.2012 57.755 28.4694C57.7185 28.3367 57.7974 28.1998 57.9314 28.1636Z" fill="black"/>
<path d="M59.5295 35.9914C59.3682 37.2694 60.9001 37.2694 60.9001 36.2311C60.9001 35.4323 59.7713 35.7518 59.6907 36.1512C59.6101 36.87 60.9807 35.4323 60.4163 35.5921C60.0938 35.672 59.6907 36.2311 59.6907 36.1512" fill="#EE5F54"/>
<path fill-rule="evenodd" clip-rule="evenodd" d="M59.8958 36.5897C59.9698 36.6767 60.0699 36.7231 60.1745 36.7317C60.3958 36.75 60.6481 36.5996 60.6481 36.231C60.6481 36.1332 60.6253 36.0816 60.6019 36.0527C60.5425 36.1257 60.4751 36.1973 60.4085 36.2607C60.3359 36.3299 60.2568 36.3965 60.1777 36.4516C60.1019 36.5045 60.0119 36.5569 59.9189 36.5837C59.9118 36.5857 59.9041 36.5878 59.8958 36.5897ZM60.7995 35.5803C60.823 35.593 60.846 35.6073 60.8683 35.6231C61.054 35.7551 61.1507 35.9681 61.1507 36.231C61.1507 36.9008 60.6371 37.2696 60.1328 37.228C59.8835 37.2074 59.6388 37.0864 59.4722 36.8612C59.3054 36.6356 59.233 36.3284 59.2794 35.9605C59.2966 35.8241 59.4222 35.7273 59.56 35.7443C59.5912 35.7482 59.6204 35.7576 59.6467 35.7714C59.6892 35.7332 59.7344 35.7002 59.7784 35.6726C59.8262 35.6425 59.8778 35.6154 59.9318 35.5917C59.9587 35.5692 59.9863 35.547 60.0145 35.5259C60.1065 35.4568 60.2228 35.3841 60.3505 35.3515C60.3986 35.3382 60.4573 35.327 60.5187 35.3316C60.5846 35.3366 60.68 35.3632 60.7461 35.4527C60.7777 35.4955 60.793 35.5401 60.7995 35.5803Z" fill="black"/>
<path d="M21.974 1C19.4754 0.999979 17.9137 6.56946 16.9767 9.3542C16.0398 12.1389 15.1217 14.0752 19.4754 13.9954C22.7003 13.9155 30.7903 15.1143 28.5328 11.52C26.8397 8.80438 24.1603 1.00002 21.974 1Z" fill="#EE5F54"/>
<path fill-rule="evenodd" clip-rule="evenodd" d="M20.0831 1.74739C20.6184 1.15647 21.2471 0.75097 21.9733 0.750977C22.3232 0.75098 22.6574 0.906654 22.967 1.14357C23.2778 1.38138 23.584 1.71628 23.8836 2.1126C24.4828 2.9054 25.0838 3.98241 25.6625 5.13037C26.1123 6.02257 26.5532 6.96681 26.972 7.86394C27.0927 8.12249 27.2116 8.37712 27.3283 8.62547C27.8529 9.74141 28.3318 10.7248 28.746 11.3892L28.5322 11.52L28.7456 11.3885C29.0411 11.859 29.1886 12.2834 29.1746 12.6641C29.1601 13.0576 28.9746 13.3698 28.681 13.6053C28.3954 13.8345 28.0081 13.992 27.571 14.1029C27.1311 14.2145 26.6222 14.2834 26.0782 14.3238C24.9907 14.4048 23.7348 14.3741 22.5582 14.3291C22.3103 14.3196 22.0663 14.3095 21.828 14.2997C20.9276 14.2625 20.1102 14.2287 19.481 14.2442L19.4794 14.2443C18.3791 14.2645 17.5782 14.1589 17.0181 13.9248C16.4415 13.6838 16.1163 13.3035 15.9969 12.8066C15.8831 12.3333 15.9638 11.7827 16.1157 11.2028C16.2345 10.7491 16.4051 10.2503 16.584 9.72719C16.6348 9.57841 16.6864 9.42766 16.7376 9.27543L16.975 9.3538L16.7376 9.27543C16.8243 9.01784 16.9168 8.7348 17.0153 8.43335C17.4445 7.11986 17.9879 5.45695 18.6613 4.02749C19.0755 3.14823 19.5466 2.33963 20.0831 1.74739ZM17.4978 8.57403C17.398 8.87938 17.3036 9.16792 17.2145 9.4329C17.161 9.59196 17.1079 9.74716 17.0561 9.89859C16.8785 10.4182 16.716 10.8935 16.6022 11.3279C16.4545 11.8918 16.4021 12.3425 16.4859 12.6913C16.5641 13.0167 16.7671 13.2794 17.2135 13.466C17.6764 13.6595 18.3931 13.7661 19.4692 13.7464C20.1168 13.7304 20.9573 13.7652 21.8599 13.8026C22.0957 13.8123 22.3357 13.8222 22.5776 13.8315C23.7543 13.8765 24.9845 13.9059 26.0405 13.8273C26.5682 13.788 27.0453 13.7222 27.4464 13.6205C27.8503 13.518 28.1588 13.3835 28.3646 13.2184C28.5624 13.0597 28.6638 12.8752 28.6722 12.646C28.6811 12.404 28.5876 12.0795 28.3188 11.6515L28.3183 11.6508C27.886 10.9573 27.395 9.94685 26.8727 8.8357C26.7547 8.58474 26.635 8.32835 26.5138 8.06869C26.0954 7.17263 25.6589 6.2377 25.2128 5.35288C24.6368 4.21028 24.0522 3.16647 23.4812 2.41108C23.1956 2.03331 22.9206 1.73728 22.6597 1.53767C22.3977 1.33717 22.1699 1.24896 21.9733 1.24896C21.4502 1.24895 20.9467 1.53963 20.4572 2.08C19.9689 2.61906 19.5225 3.37687 19.1168 4.23808C18.4581 5.63638 17.9271 7.26067 17.4978 8.57403Z" fill="black"/>
<path d="M21.1055 2.99268C21.5892 4.74987 21.3474 6.58693 22.073 8.34412C22.3148 8.90323 22.2342 8.18438 22.2342 8.02463C22.2342 6.98629 22.2342 5.94795 22.073 4.90961C21.9923 4.51025 21.7505 3.71153 21.9117 3.31217C21.9923 3.15242 22.7986 4.51025 22.7986 4.59012C23.2823 5.70834 23.4436 7.14604 23.0405 8.26425" fill="#EE5F54"/>
<path fill-rule="evenodd" clip-rule="evenodd" d="M21.0407 2.75249C21.1747 2.71631 21.3128 2.79452 21.3493 2.92719C21.5631 3.70376 21.6392 4.4964 21.7132 5.26635C21.7253 5.39278 21.7374 5.51861 21.75 5.64365C21.8034 6.173 21.8667 6.69246 21.9813 7.20278C21.973 6.44626 21.9422 5.6989 21.8268 4.95311C21.815 4.89543 21.7975 4.81957 21.7774 4.7331C21.7376 4.56141 21.6881 4.34791 21.6551 4.15185C21.6288 3.99541 21.609 3.8316 21.6076 3.67638C21.6062 3.52387 21.6222 3.36235 21.6797 3.21972C21.6823 3.21331 21.6852 3.20702 21.6883 3.20084C21.7084 3.16112 21.7437 3.11485 21.8019 3.08326C21.8604 3.05148 21.9195 3.04674 21.9654 3.05202C22.044 3.06107 22.1011 3.10102 22.1246 3.1184C22.1811 3.1601 22.2356 3.22112 22.2808 3.27633C22.3771 3.3938 22.4916 3.56079 22.5988 3.72764C22.7071 3.89627 22.8129 4.07252 22.8921 4.21271C22.9315 4.28253 22.9656 4.34557 22.9904 4.39534C23.0027 4.41984 23.0143 4.4443 23.0234 4.4663C23.0279 4.47711 23.0332 4.49079 23.0378 4.50561L23.038 4.50616C23.0385 4.50784 23.0393 4.51034 23.0402 4.51355C23.5348 5.6702 23.7057 7.16316 23.2785 8.34802C23.2319 8.47752 23.088 8.54501 22.9573 8.49876C22.8266 8.45251 22.7585 8.31004 22.8052 8.18053C23.1816 7.13631 23.0348 5.76505 22.569 4.68823C22.5636 4.67576 22.5592 4.66289 22.556 4.64978C22.5527 4.64248 22.5475 4.63143 22.5399 4.61617C22.5203 4.57701 22.4908 4.52212 22.4534 4.45591C22.3789 4.32404 22.2781 4.15584 22.1747 3.99499C22.1595 3.97133 22.1444 3.94799 22.1293 3.92508C22.1354 3.97226 22.1427 4.02069 22.1509 4.06998C22.1824 4.25724 22.2226 4.42892 22.2596 4.587C22.282 4.68316 22.3033 4.77428 22.3208 4.86081L22.323 4.87174L22.3228 4.87178C22.4869 5.92894 22.4869 6.98323 22.4869 8.01563V8.02466C22.4869 8.04485 22.4886 8.07578 22.4909 8.11844C22.4923 8.14429 22.4939 8.17444 22.4955 8.20912C22.4992 8.28949 22.5027 8.39101 22.4963 8.47307C22.4935 8.50943 22.4872 8.56823 22.4652 8.623C22.4547 8.64905 22.4292 8.70426 22.3714 8.74794C22.2977 8.80362 22.2046 8.81601 22.1221 8.78878C22.0571 8.76731 22.015 8.72691 21.9947 8.7052C21.9712 8.6801 21.9522 8.65282 21.937 8.62849C21.9064 8.57956 21.8755 8.51664 21.8434 8.44223L21.8417 8.43844L21.8417 8.43843C21.4642 7.52406 21.3408 6.59447 21.2498 5.6932C21.2368 5.56383 21.2244 5.43525 21.2121 5.3074C21.1377 4.53537 21.0659 3.79012 20.8644 3.05822C20.8279 2.92555 20.9068 2.78867 21.0407 2.75249Z" fill="black"/>
<path d="M22.6388 10.5808C22.4776 11.8588 24.0095 11.8588 24.0095 10.8204C24.0095 10.0217 22.8807 10.3412 22.8001 10.7405C22.7195 11.4594 24.0901 10.0217 23.5257 10.1814C23.2032 10.2613 22.8001 10.8204 22.8001 10.7405" fill="#EE5F54"/>
<path fill-rule="evenodd" clip-rule="evenodd" d="M23.0052 11.1791C23.0792 11.266 23.1792 11.3124 23.2839 11.3211C23.5051 11.3393 23.7575 11.189 23.7575 10.8204C23.7575 10.7226 23.7347 10.6709 23.7113 10.6421C23.6518 10.715 23.5845 10.7866 23.5178 10.8501C23.4453 10.9192 23.3661 10.9859 23.287 11.041C23.2113 11.0938 23.1212 11.1463 23.0283 11.173C23.0212 11.1751 23.0134 11.1771 23.0052 11.1791ZM23.9089 10.1697C23.9324 10.1824 23.9554 10.1966 23.9777 10.2125C24.1634 10.3445 24.2601 10.5575 24.2601 10.8204C24.2601 11.4901 23.7465 11.859 23.2421 11.8173C22.9928 11.7967 22.7482 11.6758 22.5816 11.4505C22.4147 11.225 22.3424 10.9178 22.3888 10.5499C22.406 10.4134 22.5316 10.3166 22.6694 10.3337C22.7006 10.3376 22.7298 10.347 22.756 10.3608C22.7986 10.3225 22.8438 10.2896 22.8878 10.2619C22.9356 10.2319 22.9872 10.2047 23.0412 10.1811C23.068 10.1585 23.0957 10.1364 23.1238 10.1152C23.2159 10.0461 23.3322 9.97348 23.4599 9.9409C23.5079 9.92757 23.5666 9.91636 23.6281 9.92098C23.6939 9.92594 23.7894 9.95253 23.8555 10.0421C23.8871 10.0849 23.9024 10.1294 23.9089 10.1697Z" fill="black"/>
</svg>
