<svg width="140" height="124" viewBox="0 0 140 124" fill="none" xmlns="http://www.w3.org/2000/svg">
<g clip-path="url(#clip0_2785_8610)">
<path fill-rule="evenodd" clip-rule="evenodd" d="M67.1955 33.8435C67.893 34.3329 68.4385 35.2851 69.3603 34.2901C70.3516 34.865 71.0225 35.7309 71.8128 36.4607C73.2706 37.8039 74.7396 39.1386 76.2086 40.4716C76.7558 40.967 77.3339 41.429 77.8622 41.9424C78.3433 42.4095 78.3691 43.0769 78.5426 43.6792C78.6053 43.9008 78.6921 44.1934 78.8639 44.296C80.618 45.3441 81.9727 46.8705 83.5585 48.117C85.4209 49.5818 87.3246 50.9944 89.2239 52.412C90.302 53.2163 91.4059 53.994 92.502 54.7751C93.2331 55.2953 94.0028 55.7667 94.6995 56.3297C95.4391 56.9235 96.1418 56.6882 96.8479 56.3537C97.9226 55.8446 98.5514 54.9223 99.0325 53.8836C99.1656 53.5944 99.2567 53.2839 99.3469 52.9767C99.7283 51.6703 99.5711 51.2912 98.4956 50.4793C96.4768 48.9547 94.4735 47.4112 92.4771 45.8575C90.302 44.1669 88.1312 42.4711 85.9871 40.7446C85.3651 40.2423 84.781 39.6734 84.2853 39.0514C83.9159 38.5894 83.489 38.3789 82.9624 38.4533C81.941 38.5953 81.2022 38.1701 80.4625 37.5267C78.9412 36.2049 77.3691 34.9403 75.8005 33.6766C75.1545 33.1565 74.4561 32.697 73.7792 32.2145C73.0447 31.69 72.4485 31.074 72.0242 30.2458C71.7768 29.7641 71.2313 29.4296 70.8756 29.0839C71.3 27.5713 71.8051 26.151 72.0731 24.6888C72.2716 23.6022 72.2346 22.4592 72.1796 21.3435C72.0705 19.066 71.2897 16.9886 70.1437 15.0242C69.2795 13.5432 68.1954 12.2599 66.912 11.1288C66.8639 11.0869 66.8304 11.0261 66.7788 10.9919C65.047 9.84458 63.4415 8.51331 61.5232 7.65345C60.4683 7.18203 59.3868 7.01006 58.2442 7.05198C56.7134 7.10845 55.1912 6.97669 53.6612 7.39336C52.1837 7.79805 50.8608 8.50561 49.5095 9.14814C47.9563 9.88479 46.6583 10.9808 45.7039 12.4361C45.3552 12.97 45.0502 13.5355 44.7074 14.0737C43.6448 15.7395 43.4644 17.6663 43.0976 19.5314C42.7273 21.3983 42.6998 23.2985 43.0675 25.1594C43.4421 27.0716 44.0511 28.8965 45.3749 30.4494C46.3559 31.6002 47.3198 32.7338 48.5345 33.6467C49.7234 34.5374 51.03 35.215 52.4259 35.6847C54.6741 36.4427 57.0089 36.6164 59.3661 36.4872C59.9073 36.4573 60.4494 36.3563 60.9769 36.2245C61.9708 35.979 62.9647 35.7266 63.9363 35.4075C64.6312 35.1782 65.2953 34.8505 65.9585 34.5356C66.3845 34.3329 66.7866 34.0728 67.1955 33.8435ZM78.7668 42.815C81.0467 42.4685 81.9779 40.9371 82.3567 38.9367C83.0594 38.8828 83.6032 39.1027 84.0628 39.5425C84.3858 39.8548 84.6719 40.2055 85.0129 40.4964C85.9871 41.3272 86.9681 42.1528 87.9671 42.9528C89.9146 44.5185 91.8646 46.0791 93.8353 47.6131C95.2518 48.7142 96.7105 49.7623 98.1374 50.848C98.9449 51.4641 99.0995 51.8936 98.7885 52.8415C98.6012 53.4122 98.3109 53.9504 98.0506 54.4954C97.6821 55.2611 97.0558 55.7505 96.2518 55.9738C95.9709 56.0551 95.5894 56.0611 95.3429 55.9319C94.5199 55.5084 93.7038 55.0515 92.9444 54.5245C91.338 53.4122 89.7385 52.2871 88.1965 51.091C85.9192 49.3268 83.6934 47.4942 81.4513 45.6881C81.1034 45.4083 80.7838 45.0943 80.4376 44.8111C79.7968 44.2875 79.1078 43.8041 78.7668 42.815ZM43.3304 23.1034C43.3776 22.3702 43.43 21.6378 43.4661 20.9029C43.5924 18.2061 44.3544 15.6839 45.758 13.3918C46.5724 12.0614 47.5552 10.8191 49.0439 10.1115C49.9107 9.70085 50.7663 9.26022 51.6047 8.79479C52.9517 8.04531 54.4146 7.74243 55.9283 7.63121C56.6962 7.57474 57.4711 7.52768 58.2391 7.55592C59.2244 7.58757 60.2235 7.57645 61.1487 8.04616C62.5824 8.77682 63.926 9.63069 65.2463 10.553C67.284 11.9724 68.9599 13.6741 70.0741 15.9063C71.1325 18.0273 71.7768 20.251 71.7604 22.6346C71.7441 24.8146 71.172 26.8654 70.1918 28.8058C69.9324 29.3192 69.63 29.8112 69.3534 30.3159C68.0545 32.6893 66.0804 34.2122 63.487 34.9549C62.4415 35.2543 61.3858 35.5315 60.3343 35.8104C60.0242 35.8917 59.702 36.0089 59.3911 35.9953C58.118 35.9336 56.8474 35.7993 55.5718 35.7429C53.3932 35.647 51.4037 34.8941 49.598 33.7844C47.6978 32.6166 46.191 30.9568 45.0236 29.0582C43.912 27.2504 43.4532 25.2218 43.3304 23.1034ZM71.8481 31.281C71.9984 31.3794 72.2183 31.5043 72.4167 31.6601C74.2602 33.1 76.1081 34.5305 77.9301 35.9953C78.924 36.7935 79.8844 37.638 80.8362 38.4858C81.5063 39.0822 81.6695 39.776 81.3328 40.4631C81.0278 41.0825 80.545 41.5505 79.9394 41.8722C79.3759 42.1717 78.8699 42.128 78.3519 41.6771C77.5341 40.9602 76.6527 40.3159 75.8014 39.6357C75.5737 39.4569 75.3495 39.2755 75.1425 39.0762C73.5773 37.5601 72.0156 36.044 70.4624 34.5151C70.2442 34.3004 70.0836 34.0266 69.941 33.8375C70.6093 32.9391 71.2184 32.1238 71.8481 31.281ZM67.8406 33.4653C68.7907 32.1246 69.6962 30.8473 70.6042 29.5656C71.4606 30.2894 71.4366 30.3142 71.1024 31.1989C70.6746 32.33 69.7494 33.0213 68.8972 33.7716C68.4849 34.1344 68.3397 34.0591 67.8406 33.4653Z" fill="black"/>
<path fill-rule="evenodd" clip-rule="evenodd" d="M44.3948 21.7813C44.351 23.5447 44.7428 25.2259 45.3544 26.8489C46.3182 29.4054 48.1128 31.2902 50.4116 32.7036C51.9527 33.6499 53.6081 34.3309 55.4327 34.5363C55.778 34.5748 56.1139 34.7082 56.4532 34.8015C57.9626 35.2096 59.4522 34.964 60.928 34.6406C61.9932 34.4079 63.0653 34.1641 64.0815 33.7851C64.7808 33.5207 65.5265 33.1357 66.011 32.5932C67.138 31.3347 68.2771 30.0376 69.119 28.5874C70.21 26.7086 70.9539 24.6843 70.6343 22.3828C70.3835 20.5673 70.1516 18.7611 69.2762 17.1313C68.7041 16.0661 68.0641 15.0223 67.3253 14.0666C65.8117 12.1142 63.8367 10.6571 61.6522 9.56627C59.9195 8.70214 57.9901 8.38473 56.0383 8.69359C54.7472 8.89722 53.4449 9.12908 52.201 9.51836C50.3626 10.0916 48.8043 11.126 47.6128 12.69C46.4591 14.2061 45.6654 15.9112 44.8553 17.6104C44.747 17.838 44.6809 18.0981 44.6586 18.347C44.5563 19.4918 44.4807 20.6366 44.3948 21.7813ZM44.9807 20.6066C44.9807 20.1609 44.9369 19.7083 44.9919 19.2676C45.0546 18.768 45.119 18.2375 45.3364 17.7926C46.0434 16.3356 46.6395 14.8323 47.6506 13.513C48.5277 12.3674 49.5276 11.4118 50.7208 10.6477C51.1985 10.3414 51.7577 10.1335 52.3084 9.98208C53.17 9.74595 54.0711 9.64413 54.9293 9.39773C56.8252 8.85529 58.6713 9.05207 60.5088 9.64328C62.0284 10.1335 63.2981 11.0379 64.5059 12.044C64.9483 12.4119 65.4543 12.7199 65.8469 13.1349C67.8588 15.2627 69.4205 17.6326 69.8801 20.6041C70.1241 22.186 70.2667 23.7611 69.844 25.3251C69.186 27.7592 67.8192 29.787 66.1432 31.6393C65.1889 32.6933 64.0807 33.4386 62.6461 33.6619C62.2363 33.726 61.8446 33.8852 61.4408 33.9844C59.6223 34.4319 57.8054 34.8152 55.961 34.0931C55.7256 34.0024 55.461 33.9844 55.2059 33.9425C53.2447 33.6216 51.4373 32.909 49.8472 31.7197C48.136 30.4372 46.6696 28.916 45.8621 26.9002C45.058 24.8871 44.7058 22.7841 44.9807 20.6066Z" fill="black"/>
<path fill-rule="evenodd" clip-rule="evenodd" d="M49.9221 13.376C49.0768 13.7567 49.1086 14.4283 49.082 15.0041C49.0381 15.929 49.1 16.8582 49.1258 17.783C49.1369 18.1971 49.2477 18.6232 49.1756 19.0202C49.0648 19.6388 49.4307 20.1222 49.5278 20.6775C49.5888 21.0291 49.9333 21.1369 50.4427 20.9949C50.5097 20.4293 50.6411 19.8082 50.6471 19.1862C50.6652 17.653 50.6016 16.1181 50.6188 14.5841C50.6274 14.0014 50.2314 13.7636 49.9221 13.376ZM50.0896 20.1727C49.9994 20.1701 49.9084 20.1667 49.8173 20.1641C49.7048 19.1973 49.435 18.216 49.5226 17.268C49.612 16.332 49.1421 15.3224 49.8259 14.3582C49.9504 14.5113 50.1119 14.6148 50.1145 14.7261C50.1944 16.5442 50.4118 18.3648 50.0896 20.1727Z" fill="black"/>
<path fill-rule="evenodd" clip-rule="evenodd" d="M66.0948 21.9844C65.6163 22.3831 65.2881 22.7056 65.2684 23.1736C65.2082 24.4724 65.1902 25.7746 65.1653 27.0742C65.1627 27.2308 65.2014 27.3916 65.2409 27.5439C65.3371 27.9161 65.545 28.1959 65.9668 28.1728C66.4865 28.1462 66.4324 27.7227 66.4281 27.3882C66.416 25.8302 66.3946 24.2705 66.3568 22.7142C66.3499 22.5157 66.2176 22.3189 66.0948 21.9844ZM65.801 24.0052C66.0784 25.1782 66.1678 26.3504 65.8104 27.5208C65.2684 26.3461 65.7202 25.1774 65.801 24.0052Z" fill="black"/>
<path d="M38.2316 59.0275C38.4156 60.1891 38.5802 60.9614 38.9106 62.9911" stroke="black" stroke-linecap="round"/>
<path d="M40.3222 46.7994C40.8227 44.7994 40.8223 45.2998 41.6675 43.0324" stroke="black" stroke-linecap="round"/>
</g>
<ellipse opacity="0.5" rx="69.6573" ry="31.0502" transform="matrix(-1 0 -0.0110375 -0.999939 70 92.9517)" fill="url(#paint0_radial_2785_8610)" fill-opacity="0.5"/>
<path d="M90.9047 82.736C95.7822 82.0975 102.421 75.2864 105.131 71.9607C102.692 68.7682 93.3435 65.9748 93.3435 65.9748C96.1887 63.1807 99.0339 53.6031 85.2142 57.9928C78.0182 60.2786 84.8077 68.3692 88.0594 67.5708C87.2465 70.6304 85.6207 77.5479 85.6207 80.7406C85.6207 84.7314 84.8077 83.5342 90.9047 82.736Z" fill="white"/>
<path d="M89.9858 56.3849C92.4413 56.3377 94.4065 57.7527 95.502 59.9038C96.2846 61.4407 95.7792 62.6015 94.8371 63.8613C93.4842 65.6707 91.4165 66.9714 89.1443 67.2884C87.1064 67.5729 85.3297 67.4075 83.8671 65.8707C82.6309 64.5718 81.6891 62.4486 82.1218 60.6484C82.6091 58.6215 85.0045 57.3868 86.8589 56.9C89.3377 56.2494 91.9187 56.6769 94.2658 57.5987C96.0218 58.2883 98.0498 59.6065 98.1042 61.6633C98.1593 63.7438 96.3411 64.9545 94.8475 66.1155" stroke="black" stroke-linecap="round" stroke-linejoin="round"/>
<path d="M93.1664 65.9321C95.3237 65.9737 105.963 70.7656 104.832 72.154C100.871 77.0151 96.7015 80.5329 90.9225 82.8229C88.0037 83.9795 84.4319 84.9275 85.354 80.4005C87.8421 68.186 87.5567 70.7056 88.1173 66.6665" stroke="black" stroke-linecap="round" stroke-linejoin="round"/>
<path d="M96.6267 67.4927C98.1275 66.8541 98.9167 65.6014 99.899 64.3155C100.735 63.221 101.706 62.045 102.101 60.6997C102.351 59.8508 102.34 58.8423 102.33 57.9661C102.3 55.4265 100.847 53.2925 99.2861 51.3771C99.1353 51.1921 98.5901 50.2556 98.5901 50.8773C98.5901 51.2005 98.8042 51.2789 99.0575 51.4281" stroke="black" stroke-linecap="round" stroke-linejoin="round"/>
<path d="M89.1465 70.2466C84.3768 72.0275 79.5144 73.6551 74.6444 75.1475C73.3118 75.5559 71.8343 75.9278 70.4216 75.9278C70.1417 75.9278 69.7086 75.8204 69.9489 75.4586C70.3546 74.8479 71.3928 74.4904 72.0369 74.2143C72.8098 73.883 73.6392 73.5197 74.4626 73.332C74.7782 73.2601 75.6952 72.9995 75.9949 73.2402C76.6277 73.7486 74.9706 74.6527 74.6756 74.7447C74.3943 74.8323 73.6264 75.1792 73.6264 74.6529C73.6264 74.4147 74.1018 73.6818 74.3535 74.1021C74.8014 74.8497 73.3243 74.6953 73.1589 75.0201" stroke="black" stroke-linecap="round" stroke-linejoin="round"/>
<path d="M100.273 52.9883C99.9958 52.5679 99.6497 51.7711 99.0996 51.6216C98.7016 51.5133 97.2196 51.2177 96.9284 51.6318C96.5834 52.1224 97.8657 53.0212 98.1698 53.1668C98.6267 53.3856 99.1675 53.7532 99.7073 53.6207C100.248 53.488 99.8709 52.6124 99.6917 52.3661C99.3006 51.8286 98.7641 51.396 98.1438 51.1524C97.7478 50.9968 97.8128 51.2381 97.988 51.5196C98.1623 51.7996 98.3623 52.0686 98.5438 52.3457C98.7116 52.6021 99.1485 52.5814 99.432 52.6211" stroke="black" stroke-linecap="round" stroke-linejoin="round"/>
<path d="M89.8008 61.8931C86.061 64.8306 83.0551 64.264 82.3258 63.6321" stroke="black" stroke-linecap="round" stroke-linejoin="round"/>
<path d="M26.5916 79.955C28.4903 77.8867 32.7947 72.1236 36.7123 68.8603L45.5837 63.6853C45.5837 63.6853 39.4101 59.9694 45.7263 54.4979C48.6311 51.9815 53.5701 51.4357 55.5662 54.7186C59.6701 61.4681 52.7121 64.5597 52.7121 64.5597C48.1379 71.1436 54.006 83.2222 53.3602 84.195C52.7144 85.1678 34.7031 86.2099 26.5916 79.955Z" fill="white"/>
<path d="M38.9976 62.6606C39.2586 63.1826 41.282 65.2704 42.261 66.2491L43.2401 66.9015L44.8722 65.5963C44.1107 65.1613 42.3918 64.0305 41.6086 62.9866C40.6296 61.6816 40.6298 60.0503 40.63 58.7453C40.6301 57.7013 41.5009 54.395 41.9362 52.8724C41.5011 52.7637 40.3043 53.2641 38.9984 56.1354C37.366 59.7245 38.6713 62.0081 38.9976 62.6606Z" fill="white"/>
<path d="M43.567 64.9441C41.6089 63.9655 40.4293 61.6286 40.5169 60.0913C40.6125 58.4126 41.339 56.8723 41.8774 55.3059C42.0469 54.8129 42.6653 53.4482 42.2267 52.9269C41.9329 52.5776 41.0932 53.4599 40.9393 53.6158C39.4994 55.0741 38.6338 57.1207 38.4137 59.1445C38.1093 61.9438 39.5911 64.2247 41.8535 65.6784" stroke="black" stroke-linecap="round" stroke-linejoin="round"/>
<path d="M45.2296 63.8884C45.1871 64.0807 45.1389 64.3539 45.042 64.5228C30.6411 68.3141 28.68 81.2247 28.3553 81.6923" stroke="black" stroke-linecap="round" stroke-linejoin="round"/>
<path d="M27.377 81.0386C30.9718 83.905 48.2788 87.1449 55.1266 84.9533" stroke="black" stroke-linecap="round" stroke-linejoin="round"/>
<path d="M52.1891 65.3768C48.5981 71.9027 50.556 78.4283 54.7992 84.9536" stroke="black" stroke-linecap="round" stroke-linejoin="round"/>
<path d="M45.5642 54.849C44.8392 55.3208 43.901 55.9377 43.2406 56.5456C42.4574 57.2667 42.2468 58.7515 42.4336 59.7662C42.8879 62.2339 46.0843 63.8346 48.234 64.4957C49.2639 64.8125 50.4624 65.0744 51.5464 64.9751C52.6524 64.8737 53.6692 64.3199 54.544 63.667C55.7771 62.7468 56.5086 61.6206 56.9718 60.1567C57.383 58.8568 57.554 57.7116 56.856 56.4897C54.7022 52.7189 48.3348 52.2619 45.0028 54.5107C43.0844 55.8055 41.3995 58.2014 42.1959 60.6228C43.004 63.08 45.8373 64.8861 48.1334 65.3144" stroke="black" stroke-linecap="round" stroke-linejoin="round"/>
<path d="M50.0429 59.44C51.7293 61.3554 56.2998 60.3765 54.8802 58.2541" stroke="black" stroke-linecap="round" stroke-linejoin="round"/>
<path d="M53.3626 73.4274C56.3008 71.7962 60.2184 70.8176 60.5449 70.8176C61.1978 71.0351 61.8508 71.6659 59.239 72.4488C55.9744 73.4275 53.0363 76.69 52.0569 78.3213C51.0776 79.9525 49.7717 80.9312 48.7923 81.2575C48.0088 81.5184 47.8129 80.4962 47.8129 79.9524C48.6834 78.3211 51.0121 74.7324 53.3626 73.4274Z" fill="white"/>
<path d="M67.0743 71.7966L66.4213 70.1653C67.4007 70.4915 70.6654 70.4916 71.9712 70.1654C73.0159 69.9045 75.6711 68.3168 76.8682 67.5555C77.7387 67.2293 79.4146 66.8378 79.1535 67.8818C78.827 69.1869 75.2359 70.818 73.6036 71.7968C72.2978 72.5797 68.7066 72.1229 67.0743 71.7966Z" fill="white"/>
<path d="M75.4536 93.1178C74.9867 94.1878 58.3802 97.9324 49.3043 93.1798C53.0359 85.4998 56.2713 77.2877 59.8441 69.7566C59.8441 69.7566 53.1181 67.1681 58.3873 60.6843C60.8107 57.7024 65.5799 56.3081 68.1164 59.1948C73.3314 65.1298 67.0163 69.3811 67.0163 69.3811C68.9883 75.8126 75.9205 92.0478 75.4536 93.1178Z" fill="white"/>
<path d="M59.5308 70.0185C59.5224 70.2153 59.5224 70.4927 59.4563 70.6759C59.0243 71.8737 57.5525 75.018 57.314 75.5347C54.9068 80.7494 52.391 85.9137 49.9868 91.1295C49.6307 91.9023 49.402 92.68 49.24 93.5102" stroke="black" stroke-linecap="round" stroke-linejoin="round"/>
<path d="M48.6172 92.5615C52.7346 96.2673 69.1555 97.695 75.4195 92.4654" stroke="black" stroke-linecap="round" stroke-linejoin="round"/>
<path d="M67.2305 70.3496C67.2701 70.8932 67.3661 71.1981 67.5602 71.789C68.9202 75.9289 70.4564 80.0132 71.9342 84.1119C72.7048 86.2492 73.4996 88.3885 74.1658 90.5615C74.5351 91.7658 74.8888 92.9723 75.2813 94.1697C75.4681 94.7395 75.7373 95.2827 75.8429 95.8738" stroke="black" stroke-linecap="round" stroke-linejoin="round"/>
<path d="M58.2888 61.0574C57.6567 61.6478 56.84 62.418 56.2954 63.1313C55.6494 63.9772 55.7001 65.4759 56.0605 66.4427C56.9368 68.7941 60.363 69.816 62.595 70.0941C63.6644 70.2274 64.8903 70.2775 65.9405 69.9916C67.0121 69.6999 67.9173 68.9781 68.6653 68.1835C69.7197 67.0633 70.2443 65.8275 70.446 64.3055C70.6251 62.9541 70.5943 61.7967 69.6946 60.7144C66.918 57.3747 60.5676 58.0291 57.6771 60.8217C56.0128 62.4295 54.7699 65.0811 55.9752 67.3276C57.1983 69.6071 60.3026 70.8942 62.6383 70.9178" stroke="black" stroke-linecap="round" stroke-linejoin="round"/>
<path d="M59.565 70.8177C57.2798 71.7965 54.0045 72.8672 52.0565 74.7327C51.4845 75.2805 46.5068 79.9529 48.7921 81.258C51.0774 81.2581 51.5669 78.3217 53.0359 76.6904C54.7988 74.7328 56.9534 73.1015 58.9122 72.4491" stroke="black" stroke-linecap="round" stroke-linejoin="round"/>
<path d="M67.7273 71.9228C71.645 73.101 76.8374 70.8048 78.1742 68.8599C80.1329 66.9024 78.3799 65.9632 75.5624 68.2073C73.5508 69.8095 70.992 71.1435 67.0743 70.1646" stroke="black" stroke-linecap="round" stroke-linejoin="round"/>
<defs>
<radialGradient id="paint0_radial_2785_8610" cx="0" cy="0" r="1" gradientUnits="userSpaceOnUse" gradientTransform="translate(69.6573 31.0502) rotate(90) scale(31.0502 69.6573)">
<stop stop-color="#C4C4C4" stop-opacity="0.5"/>
<stop offset="1" stop-color="#C4C4C4" stop-opacity="0"/>
</radialGradient>
<clipPath id="clip0_2785_8610">
<rect width="66.4722" height="67.4395" fill="white" transform="translate(32.2305)"/>
</clipPath>
</defs>
</svg>
