<svg width="202" height="92" viewBox="0 0 202 92" fill="none" xmlns="http://www.w3.org/2000/svg">
<path opacity="0.5" d="M85.9161 51.1564C85.9161 70.0178 70.675 85.308 51.8741 85.308C33.0732 85.308 17.832 70.0178 17.832 51.1564C17.832 32.2951 33.0732 17.0049 51.8741 17.0049C70.675 17.0049 85.9161 32.2951 85.9161 51.1564Z" fill="#01C9CC"/>
<path d="M45.3669 55.6761L31.3496 77.272C42.163 88.1201 62.2211 84.8054 70.8985 81.792C66.226 73.589 57.582 56.8815 60.3855 55.6761C63.8898 54.1695 70.666 47.4086 67.3941 40.6093C60.3855 26.0446 47.4437 27.0066 39.3595 36.5914C33.8527 43.1205 40.027 51.8257 45.3669 55.6761Z" fill="white"/>
<path fill-rule="evenodd" clip-rule="evenodd" d="M53.7684 29.6935C48.7069 29.316 43.4938 31.9213 39.4736 36.6878C36.7686 39.8949 36.9246 43.6376 38.4325 47.0777C39.9424 50.5221 42.8013 53.6413 45.4541 55.5541L45.57 55.6376L31.5411 77.2513C36.9046 82.5706 44.5348 84.4302 51.9275 84.5797C59.261 84.728 66.3371 83.1926 70.6781 81.7087C68.3457 77.6041 65.068 71.4619 62.701 66.1708C61.5029 63.4925 60.5351 61.0256 60.0427 59.1494C59.7969 58.2128 59.6665 57.4122 59.6902 56.8017C59.7136 56.1989 59.8915 55.7246 60.3257 55.538C62.0468 54.798 64.5946 52.7529 66.3035 50.047C68.0101 47.3447 68.8642 44.011 67.2584 40.6739C63.7707 33.4262 58.8234 30.0705 53.7684 29.6935ZM53.7908 29.3943C58.9799 29.7813 64.0078 33.2269 67.5287 40.5439C69.1948 44.0061 68.2968 47.4525 66.5572 50.2072C64.8198 52.9581 62.2274 55.0469 60.4442 55.8136C60.1775 55.9282 60.0122 56.2398 59.99 56.8134C59.968 57.3793 60.0895 58.1459 60.3329 59.0733C60.8188 60.925 61.7784 63.3737 62.9749 66.0483C65.3668 71.3951 68.6933 77.6182 71.0283 81.7174L71.1175 81.8742L70.9471 81.9334C66.5945 83.4449 59.3928 85.0308 51.9214 84.8797C44.4519 84.7286 36.6884 82.8406 31.2428 77.3775L31.1572 77.2916L45.1631 55.7135C42.5088 53.7693 39.6713 50.651 38.1578 47.1981C36.6203 43.6907 36.4425 39.8163 39.2443 36.4944C43.3083 31.6759 48.6082 29.0078 53.7908 29.3943Z" fill="black"/>
<path fill-rule="evenodd" clip-rule="evenodd" d="M52.6943 29.5654C58.1867 29.6878 63.7001 32.1156 66.7134 36.8562C68.6986 39.9795 68.8093 44.9723 67.4198 49.1426C66.0331 53.3046 63.0535 56.9042 58.6284 56.9143C53.2593 57.3089 49.126 56.8602 45.9812 55.6882C46.1741 55.7789 46.3685 55.8664 46.564 55.9505C46.8182 56.0597 46.9359 56.355 46.827 56.6099C46.7181 56.8649 46.4238 56.983 46.1696 56.8737C42.3544 55.2334 38.916 52.3437 37.1857 48.717C35.4413 45.0609 35.4571 40.6999 38.4895 36.2381C41.6254 31.6241 47.2022 29.4431 52.6943 29.5654ZM39.7105 50.8481C38.1307 48.4401 37.3856 45.4572 37.1299 42.1131C36.797 44.3215 37.193 46.4058 38.0888 48.2833C38.5197 49.1866 39.0681 50.0451 39.7105 50.8481ZM38.0236 39.1072C38.024 44.595 38.9829 49.064 41.9507 52.0221C44.9136 54.9752 50.0039 56.5437 58.573 55.9112C58.5852 55.9103 58.5975 55.9099 58.6097 55.9099C62.4065 55.9099 65.1379 52.8231 66.4702 48.8242C67.8018 44.8277 67.6371 40.1776 65.8692 37.3963C63.0758 33.0017 57.9131 30.6864 52.6721 30.5696C47.4307 30.4529 42.2168 32.5369 39.3167 36.804C38.7899 37.5792 38.3615 38.3479 38.0236 39.1072Z" fill="black"/>
<path fill-rule="evenodd" clip-rule="evenodd" d="M38.3651 36.1534C41.5362 31.4875 47.1675 29.2919 52.6972 29.4151C58.2275 29.5382 63.7934 31.983 66.8396 36.7754C68.8572 39.9496 68.9598 44.9935 67.5617 49.1896C66.1673 53.3747 63.1518 57.0507 58.6337 57.0639C53.8277 57.4167 49.9982 57.0962 46.9749 56.1807C47.0324 56.3331 47.0335 56.507 46.9645 56.6685C46.8231 56.9994 46.4406 57.1533 46.11 57.0111C42.2694 55.3599 38.7993 52.4479 37.0499 48.7812C35.2824 45.0765 35.303 40.6589 38.3651 36.1534ZM52.6906 29.715C47.2362 29.5935 41.7138 31.7599 38.6132 36.3221C35.6105 40.7402 35.5995 45.0445 37.3207 48.652C39.0319 52.2388 42.4387 55.1061 46.2285 56.7355C46.4061 56.8119 46.6122 56.7295 46.6886 56.5506C46.7652 56.3714 46.6823 56.1643 46.5044 56.0879C46.3073 56.0031 46.1114 55.915 45.917 55.8236C45.8442 55.7893 45.8114 55.7038 45.8426 55.6297C45.8737 55.5555 45.9578 55.5192 46.0332 55.5473C49.1504 56.709 53.26 57.158 58.617 56.7643L58.6276 56.7635L58.6276 56.7639C62.9568 56.754 65.8986 53.2322 67.2771 49.0948C68.658 44.9503 68.5392 40.0085 66.5864 36.9363C63.606 32.2474 58.1451 29.8365 52.6906 29.715ZM52.6683 30.7192C47.4647 30.6033 42.3052 32.6727 39.4404 36.8879C38.925 37.6464 38.5053 38.3976 38.1732 39.1387C38.1774 44.6014 39.138 49.0068 42.0562 51.9154C44.9734 54.823 50.0093 56.3925 58.5616 55.7612C58.5775 55.7601 58.5934 55.7595 58.6093 55.7595C62.3104 55.7595 65.0036 52.75 66.3275 48.7764C67.6504 44.8058 67.4777 40.2067 65.7422 37.4764C62.9817 33.1334 57.8715 30.8351 52.6683 30.7192ZM39.1923 36.7193C42.1276 32.4004 47.3958 30.3017 52.675 30.4193C57.9539 30.5369 63.1692 32.8692 65.9954 37.3154C67.7957 40.1477 67.9523 44.8488 66.6121 48.8712C65.2714 52.8953 62.5019 56.0595 58.6093 56.0595C58.6008 56.0595 58.5922 56.0598 58.5836 56.0604C49.9978 56.6942 44.8531 55.1266 41.8444 52.1279C38.8328 49.1261 37.8737 44.6049 37.8732 39.1068C37.8732 39.0858 37.8776 39.065 37.8861 39.0458C38.228 38.2779 38.6607 37.5014 39.1923 36.7193ZM37.135 41.9628C37.2112 41.9656 37.2732 42.0252 37.279 42.1012C37.5338 45.4318 38.2749 48.3867 39.8355 50.7655C39.8794 50.8324 39.863 50.9221 39.7982 50.9691C39.7333 51.0162 39.643 51.004 39.5929 50.9414C38.944 50.1303 38.3893 49.262 37.953 48.3475C37.0457 46.4459 36.6434 44.3314 36.9811 42.0903C36.9925 42.0149 37.0587 41.96 37.135 41.9628ZM37.1648 43.8756C37.3751 45.4093 37.7109 46.8557 38.2104 48.1903C37.5739 46.8471 37.1972 45.3988 37.1648 43.8756Z" fill="black"/>
<path fill-rule="evenodd" clip-rule="evenodd" d="M45.1691 55.7793C45.3886 55.9479 45.4303 56.2631 45.2622 56.4833C42.4044 60.228 40.4055 63.4738 38.4635 66.7749C38.1043 67.3855 37.7468 67.9985 37.386 68.6171C35.7971 71.3412 34.1445 74.1746 32.0031 77.3971C31.8498 77.6278 31.539 77.6902 31.3089 77.5363C31.0789 77.3825 31.0167 77.0707 31.1701 76.8399C33.2937 73.6442 34.9293 70.8401 36.5171 68.1178C36.8792 67.497 37.2389 66.8804 37.6013 66.2644C39.5517 62.9489 41.574 59.6638 44.4672 55.8727C44.6353 55.6525 44.9495 55.6106 45.1691 55.7793Z" fill="black"/>
<path fill-rule="evenodd" clip-rule="evenodd" d="M44.3476 55.7823C44.566 55.4962 44.9746 55.4416 45.2601 55.6609C45.5452 55.8799 45.5992 56.2891 45.3811 56.5749C42.5286 60.3127 40.5331 63.5526 38.5924 66.8515C38.2334 67.4619 37.876 68.0746 37.5152 68.6933L37.5145 68.6944C35.926 71.418 34.2715 74.2546 32.1277 77.4807C31.9285 77.7805 31.5243 77.8617 31.2251 77.6616C30.9262 77.4617 30.8457 77.057 31.0448 76.7575C33.1657 73.5658 34.7992 70.7652 36.3872 68.0428C36.7493 67.422 37.109 66.8052 37.4716 66.1889C39.4233 62.8712 41.4491 59.5803 44.3476 55.7823ZM45.0773 55.8988C44.9237 55.7808 44.7039 55.81 44.5861 55.9643C41.6982 59.7485 39.6793 63.0277 37.7302 66.341C37.3679 66.9567 37.0084 67.5731 36.6463 68.194L36.6457 68.195C35.0581 70.9169 33.4207 73.7241 31.2946 76.9235C31.1869 77.0856 31.2307 77.3045 31.3919 77.4123C31.5528 77.5199 31.7703 77.4764 31.8778 77.3146C34.0165 74.0963 35.6671 71.2664 37.256 68.5422L37.256 68.5421C37.6168 67.9235 37.9745 67.3103 38.3339 66.6994C40.2771 63.3962 42.2795 60.1445 45.1426 56.3929C45.2606 56.2383 45.2312 56.017 45.0773 55.8988Z" fill="black"/>
<path fill-rule="evenodd" clip-rule="evenodd" d="M59.6433 56.3134C59.9022 56.216 60.1908 56.3476 60.2879 56.6073C63.4753 65.1346 66.7942 73.2842 71.1173 81.2354C71.2497 81.4789 71.1603 81.784 70.9176 81.9168C70.6749 82.0496 70.3708 81.9599 70.2384 81.7164C65.8816 73.7032 62.5434 65.502 59.3504 56.96C59.2533 56.7002 59.3845 56.4108 59.6433 56.3134Z" fill="black"/>
<path fill-rule="evenodd" clip-rule="evenodd" d="M59.5911 56.1736C59.928 56.0469 60.303 56.2183 60.429 56.5554C63.6156 65.0805 66.9316 73.2224 71.2497 81.1644C71.4215 81.4804 71.3057 81.8764 70.9902 82.0491C70.6744 82.2218 70.2791 82.1049 70.1072 81.7887C65.7454 73.7663 62.4043 65.5573 59.2105 57.0131C59.0846 56.6762 59.2545 56.3002 59.5911 56.1736ZM60.148 56.6604C60.0798 56.4781 59.8777 56.3863 59.6968 56.4544C59.5156 56.5225 59.4233 56.7255 59.4915 56.9081C62.6837 65.4479 66.019 73.6415 70.3708 81.6454C70.4636 81.8162 70.6765 81.8787 70.8462 81.7859C71.0162 81.6929 71.0792 81.4788 70.9862 81.3077C66.658 73.3472 63.3363 65.1899 60.148 56.6604Z" fill="black"/>
<path fill-rule="evenodd" clip-rule="evenodd" d="M35.1675 20.0541C47.8013 14.9843 58.819 15.009 70.6343 21.4018C70.6492 21.4099 70.6637 21.4187 70.6777 21.4282C81.8788 29.0499 87.8243 37.0041 90.057 44.6687C92.292 52.3409 90.7853 59.65 87.2268 65.9268C83.6725 72.1962 78.0666 77.4484 72.0614 81.0527C66.0636 84.6525 59.611 86.6416 54.3457 86.3114C33.6304 85.0125 18.3524 71.586 17.3329 53.6962C17.3324 53.6866 17.3321 53.6771 17.3321 53.6675C17.3316 43.4401 23.9383 29.2087 38.1163 21.4036C38.3586 21.2701 38.663 21.3591 38.796 21.6023C38.929 21.8454 38.8403 22.1507 38.5979 22.2842C24.748 29.9087 18.3391 43.7923 18.3333 53.6532C19.3246 70.9124 34.0796 84.0342 54.4081 85.3089C59.4051 85.6222 65.6555 83.7269 71.5474 80.1907C77.4318 76.659 82.9021 71.5235 86.3565 65.4302C89.8068 59.3441 91.2414 52.3151 89.096 44.9504C86.9498 37.5827 81.1994 29.8062 70.1367 22.2738C58.6354 16.0583 47.9461 16.0152 35.57 20.9744C27.6567 25.4466 22.2178 31.2337 18.2572 37.5909C18.1107 37.8261 17.8018 37.8976 17.5674 37.7506C17.3329 37.6036 17.2617 37.2938 17.4082 37.0586C21.4523 30.5672 27.0171 24.6484 35.108 20.0827C35.1271 20.0719 35.147 20.0623 35.1675 20.0541Z" fill="black"/>
<path fill-rule="evenodd" clip-rule="evenodd" d="M35.1112 19.9145C47.7806 14.8305 58.8456 14.8527 70.7053 21.2695C70.7247 21.28 70.7435 21.2914 70.7617 21.3038L70.678 21.4269L70.7617 21.3038C81.9815 28.9382 87.9553 36.9182 90.2007 44.6263C92.449 52.3443 90.9315 59.6951 87.357 66.0003C83.7878 72.2961 78.1616 77.5658 72.1382 81.1809C66.1246 84.7902 59.6416 86.7934 54.3359 86.4607C33.5632 85.1582 18.2076 71.6869 17.1828 53.7043C17.1821 53.6919 17.1817 53.6796 17.1817 53.6671C17.1812 43.3854 23.8174 29.1034 38.0435 21.2718C38.3589 21.0982 38.7545 21.2141 38.9272 21.5299C39.0998 21.8454 38.9849 22.2417 38.6699 22.4152C24.8701 30.0121 18.4905 43.8422 18.483 53.6485C19.4712 70.8129 34.1479 83.8878 54.4171 85.1588C59.3737 85.4696 65.5938 83.5884 71.4698 80.0617C77.3361 76.5408 82.7861 71.4229 86.2257 65.3558C89.6598 59.2982 91.0836 52.3109 88.9516 44.992C86.8185 37.6692 81.098 29.92 70.0582 22.4017C58.6067 16.2154 47.9689 16.1693 35.6347 21.1095C27.7504 25.5673 22.3315 31.3338 18.3842 37.6698C18.1939 37.9753 17.7923 38.0685 17.4873 37.8773C17.1827 37.6863 17.0904 37.2841 17.2805 36.9788C21.3364 30.4686 26.9187 24.5311 35.0339 19.9516C35.0588 19.9376 35.0846 19.9252 35.1112 19.9145ZM70.5626 21.5334C58.7917 15.1646 47.8212 15.1374 35.2229 20.1929C35.2086 20.1987 35.1947 20.2053 35.1813 20.2129C27.1147 24.765 21.5675 30.6649 17.5351 37.1375C17.4322 37.3027 17.4824 37.5202 17.6467 37.6231C17.8107 37.7259 18.0268 37.6761 18.1295 37.5112C22.1018 31.1351 27.5583 25.3293 35.4959 20.8434C35.5017 20.8401 35.5077 20.8372 35.5139 20.8348C47.9255 15.8613 58.6619 15.902 70.2076 22.1414C70.2121 22.1439 70.2165 22.1465 70.2207 22.1494C81.3021 29.6945 87.0807 37.4968 89.2397 44.9081C91.3983 52.3186 89.9531 59.3893 86.4866 65.5038C83.0173 71.6234 77.5267 76.7763 71.6242 80.3189C65.7164 83.8647 59.4356 85.7741 54.3983 85.4582C34.0123 84.1799 19.1798 71.0132 18.1832 53.6614L18.1827 53.6527H18.183C18.1887 43.7375 24.6271 29.8034 38.5252 22.1524C38.695 22.0589 38.7574 21.8447 38.664 21.6738C38.5707 21.5033 38.3577 21.4413 38.1882 21.5346C24.0584 29.3132 17.4812 43.4941 17.4817 53.6671C17.4817 53.6738 17.4819 53.6806 17.4823 53.6872C18.4965 71.4842 33.6969 84.866 54.3547 86.1613C59.5797 86.4889 66.0019 84.5139 71.9838 80.9237C77.9709 77.3303 83.5566 72.0956 87.096 65.8524C90.6383 59.604 92.1343 52.3367 89.9127 44.7102C87.6926 37.0892 81.7753 29.1607 70.5929 21.5518L70.6773 21.4278L70.5929 21.5518C70.5831 21.5452 70.573 21.539 70.5626 21.5334L70.6339 21.4014L70.5626 21.5334Z" fill="black"/>
<path fill-rule="evenodd" clip-rule="evenodd" d="M63.2311 43.4897C63.4612 43.6435 63.5233 43.9554 63.37 44.1861C62.5548 45.4128 61.7064 46.4883 60.6457 47.289C59.5744 48.0979 58.3084 48.6102 56.6851 48.7478C53.06 49.0551 50.6971 47.7257 48.0049 45.7201C47.783 45.5547 47.7366 45.2401 47.9015 45.0175C48.0663 44.7948 48.3799 44.7483 48.6018 44.9137C51.224 46.8671 53.3393 48.0234 56.6008 47.7469C58.0435 47.6246 59.1285 47.1774 60.0437 46.4864C60.9696 45.7874 61.7434 44.823 62.5369 43.629C62.6902 43.3982 63.0011 43.3358 63.2311 43.4897Z" fill="black"/>
<path fill-rule="evenodd" clip-rule="evenodd" d="M62.4116 43.5456C62.6108 43.2458 63.0149 43.1645 63.3141 43.3646C63.613 43.5645 63.6935 43.9693 63.4945 44.2688C62.6762 45.5003 61.8166 46.5924 60.7357 47.4084C59.6409 48.2349 58.3478 48.757 56.6974 48.8969C53.0176 49.2089 50.6176 47.8534 47.9149 45.84C47.6266 45.6252 47.5666 45.2169 47.7805 44.9278C47.9947 44.6385 48.4024 44.578 48.6911 44.793C51.3028 46.7386 53.3809 47.869 56.5878 47.5971C58.0033 47.4771 59.0611 47.0396 59.9529 46.3664C60.8586 45.6826 61.6213 44.7348 62.4116 43.5456ZM63.1473 43.614C62.9864 43.5064 62.7689 43.5498 62.6614 43.7116C61.8647 44.9105 61.0798 45.8916 60.1337 46.6058C59.1951 47.3144 58.083 47.7714 56.6131 47.896C53.2969 48.1771 51.1445 46.9948 48.5118 45.0336C48.3566 44.9179 48.1372 44.9503 48.0216 45.1063C47.9059 45.2627 47.9386 45.4835 48.0942 45.5994C50.7759 47.5972 53.1016 48.9007 56.6721 48.598C58.2682 48.4626 59.507 47.9601 60.555 47.1689C61.5955 46.3834 62.4328 45.3245 63.2446 44.1028C63.3523 43.9407 63.3085 43.7218 63.1473 43.614Z" fill="black"/>
<path fill-rule="evenodd" clip-rule="evenodd" d="M9.4403 11.7357C8.9897 11.8479 8.50954 12.1388 8.01548 12.7088C7.28072 13.5565 6.49176 14.235 5.53502 14.6399C7.98541 15.4155 10.388 16.3123 12.7771 17.2041L12.9255 17.2595C14.0495 17.679 15.1707 18.0969 16.2947 18.501C15.6312 17.2282 14.8503 15.9073 14.0036 14.765C12.9703 13.371 11.89 12.3141 10.8615 11.8854C10.3603 11.6765 9.88911 11.6239 9.4403 11.7357ZM17.6601 18.9837C16.8857 17.3963 15.9023 15.6432 14.8071 14.1657C13.7481 12.737 12.5335 11.4946 11.2457 10.9578C10.5887 10.684 9.89644 10.5872 9.19907 10.7609C8.50348 10.9341 7.85477 11.3634 7.25994 12.0497C6.18439 13.2905 5.0989 14.0127 3.52122 14.0485C3.25478 13.9868 3.02127 13.946 2.82542 13.9212C2.66882 13.9013 2.53208 13.8911 2.41904 13.8894C2.32348 13.8879 2.19504 13.8909 2.08389 13.9233C2.0531 13.9323 1.99751 13.9508 1.93788 13.9883C1.8871 14.0203 1.75804 14.1135 1.71076 14.2983C1.65651 14.5104 1.74853 14.6759 1.81416 14.755C1.87433 14.8275 1.94057 14.8673 1.97146 14.8844C2.08316 14.9465 2.2222 14.9735 2.3142 14.989C2.54166 15.0271 2.89932 15.0543 3.39707 15.0543C3.40113 15.0543 3.40519 15.0543 3.40924 15.0543C3.51905 15.0815 3.63571 15.1128 3.75881 15.1487C6.69546 16.0058 9.55891 17.0746 12.4428 18.1511L12.5764 18.2009C14.0227 18.7407 15.4744 19.2816 16.9392 19.7956C17.56 21.1023 18.0238 22.262 18.266 22.9908C18.3534 23.2539 18.6369 23.3961 18.8992 23.3084C19.1615 23.2207 19.3033 22.9363 19.2158 22.6731C19.0197 22.083 18.6878 21.2294 18.2495 20.2463C19.316 20.605 20.3905 20.9452 21.4761 21.2563C21.7419 21.3325 22.019 21.1781 22.095 20.9114C22.1709 20.6447 22.017 20.3667 21.7511 20.2905C20.374 19.8958 19.0135 19.4532 17.6601 18.9837Z" fill="black"/>
<path fill-rule="evenodd" clip-rule="evenodd" d="M9.16256 10.6159C9.89732 10.4329 10.6228 10.5364 11.3031 10.82C12.6299 11.373 13.8646 12.6432 14.9273 14.0769C16.0171 15.5471 16.9948 17.2853 17.7675 18.8629C19.0997 19.3242 20.4382 19.7588 21.7922 20.1469C22.138 20.246 22.3375 20.6072 22.239 20.9531C22.1404 21.2992 21.7804 21.5003 21.4345 21.4011C20.4555 21.1205 19.4857 20.8164 18.5232 20.4966C18.8956 21.3521 19.181 22.0939 19.3579 22.6264C19.4713 22.9678 19.2876 23.3372 18.9465 23.4513C18.6052 23.5654 18.2368 23.3802 18.1234 23.0387C17.8871 22.3275 17.4357 21.1965 16.8302 19.917C15.3838 19.4087 13.9504 18.8746 12.5237 18.3421L12.3901 18.2922C9.50533 17.2154 6.64702 16.1486 3.71653 15.2933C3.602 15.2599 3.49326 15.2306 3.39065 15.2049C2.89196 15.2047 2.52712 15.1774 2.28913 15.1375C2.19713 15.1221 2.03488 15.092 1.89836 15.0162C1.86012 14.9949 1.77564 14.9444 1.69846 14.8514C1.61505 14.7509 1.49478 14.5369 1.56518 14.2617C1.62638 14.0225 1.79352 13.9024 1.85771 13.862C1.93375 13.8141 2.00401 13.7909 2.04163 13.7799C2.17587 13.7408 2.32362 13.7385 2.42109 13.74C2.54086 13.7419 2.68326 13.7526 2.84402 13.773C3.04069 13.7979 3.27291 13.8383 3.53622 13.8987C5.04674 13.8589 6.09138 13.1691 7.14634 11.952C7.7562 11.2484 8.43015 10.7983 9.16256 10.6159ZM11.1877 11.0969C10.5541 10.8327 9.89504 10.7426 9.23506 10.907C8.57629 11.0711 7.95283 11.4796 7.37303 12.1485C6.28122 13.4081 5.15914 14.1619 3.52437 14.1991C3.51184 14.1993 3.49932 14.198 3.48711 14.1952C3.2252 14.1345 2.9967 14.0947 2.8063 14.0706C2.65386 14.0513 2.52278 14.0416 2.41647 14.04C2.32281 14.0385 2.2137 14.0422 2.12563 14.0679C2.10168 14.0749 2.06075 14.0886 2.01754 14.1158C1.98016 14.1394 1.88917 14.2057 1.85582 14.3361C1.81773 14.485 1.8815 14.6022 1.92934 14.6598C1.97249 14.7118 2.02049 14.7408 2.04405 14.7539C2.13092 14.8022 2.24674 14.8262 2.33874 14.8416C2.5547 14.8778 2.90317 14.9049 3.39681 14.9049L3.40871 14.9049C3.42094 14.9049 3.43312 14.9064 3.445 14.9093C3.55684 14.937 3.6755 14.9688 3.80057 15.0053C6.74251 15.8639 9.61025 16.9343 12.4924 18.0102L12.6286 18.061C14.075 18.6009 15.5254 19.1413 16.9886 19.6547C17.0263 19.6679 17.0572 19.6957 17.0744 19.7319C17.6972 21.0426 18.1635 22.208 18.4081 22.9441C18.4695 23.1288 18.6681 23.2281 18.8514 23.1668C19.0349 23.1054 19.1347 22.906 19.0732 22.721C18.8791 22.1367 18.5491 21.2879 18.1122 20.3079C18.088 20.2536 18.0982 20.19 18.1383 20.146C18.1783 20.1019 18.2406 20.0857 18.2971 20.1047C19.3619 20.4628 20.4342 20.8023 21.5171 21.1128C21.7029 21.166 21.8971 21.0582 21.9504 20.8709C22.0038 20.6834 21.8955 20.4886 21.7095 20.4353C20.3291 20.0396 18.9659 19.5961 17.6107 19.126C17.5732 19.1131 17.5425 19.0857 17.5251 19.0501C16.7529 17.4675 15.7741 15.7232 14.6863 14.2556C13.6312 12.8321 12.4367 11.6175 11.1877 11.0969ZM10.8036 12.0244C10.3258 11.8253 9.88779 11.7794 9.47628 11.8819C9.06245 11.9849 8.60755 12.255 8.12857 12.8076C7.4759 13.5606 6.77419 14.1896 5.94535 14.6142C8.27298 15.3634 10.5582 16.2165 12.8276 17.0635L12.9777 17.1196C13.9802 17.4938 14.9798 17.8663 15.9809 18.229C15.3605 17.0685 14.6481 15.8873 13.8829 14.855C12.8533 13.466 11.7931 12.4369 10.8036 12.0244ZM9.40379 11.5908C9.88991 11.4697 10.3943 11.5288 10.919 11.7475C11.9863 12.1924 13.0868 13.2772 14.1239 14.6763C14.9767 15.8269 15.7617 17.1551 16.4274 18.4322C16.456 18.487 16.448 18.5537 16.4074 18.6002C16.3668 18.6468 16.3018 18.6636 16.2437 18.6427C15.1187 18.2383 13.9967 17.8201 12.8728 17.4006L12.7244 17.3452C10.3347 16.4532 7.93566 15.5578 5.4895 14.7836C5.42961 14.7646 5.38788 14.7103 5.38493 14.6476C5.38198 14.5848 5.41845 14.5269 5.47629 14.5024C6.40423 14.1096 7.17547 13.4492 7.90188 12.6111C8.41101 12.0237 8.91643 11.7121 9.40379 11.5908Z" fill="black"/>
<path fill-rule="evenodd" clip-rule="evenodd" d="M46.4911 1.36439C46.567 1.63109 46.4131 1.90906 46.1472 1.98526C42.5869 3.00578 38.8105 5.47594 36.8092 8.59048C36.7988 8.60667 36.7885 8.62314 36.7782 8.63987C37.0058 8.73843 37.2216 8.84254 37.4228 8.95067C37.9081 9.21148 38.4353 9.81612 38.8834 10.4828C39.3459 11.1708 39.7802 12.0093 40.0515 12.8243C40.3147 13.615 40.4595 14.4861 40.2119 15.1788C40.0809 15.5455 39.8396 15.8605 39.4676 16.0642C39.1056 16.2625 38.6618 16.3326 38.1563 16.2988C37.1456 16.2312 36.3868 15.7897 35.8669 15.1203C35.3594 14.4668 35.1018 13.6267 35.0075 12.7747C34.8754 11.5819 35.0536 10.2682 35.4206 9.20884C34.7845 9.01256 34.0914 8.86772 33.3979 8.80636C32.0743 8.68927 30.8341 8.88277 29.9788 9.50305C29.1571 10.0989 28.7722 11.112 28.6021 12.3317C28.4833 13.1839 28.4769 14.0513 28.4709 14.8691C28.4682 15.2348 28.4656 15.5905 28.453 15.9306C28.4428 16.2078 28.2105 16.4242 27.9342 16.4139C27.658 16.4037 27.4423 16.1706 27.4525 15.8934C27.463 15.6094 27.4655 15.2875 27.4681 14.9421C27.4746 14.0978 27.4822 13.1126 27.6105 12.1926C27.7932 10.8826 28.2362 9.52736 29.3922 8.68901C30.5259 7.86682 32.0496 7.67873 33.4858 7.80579C34.2892 7.87686 35.0918 8.04859 35.8262 8.28374C35.872 8.20099 35.9192 8.12172 35.9677 8.04625C38.126 4.68737 42.1277 2.09275 45.8722 1.01945C46.138 0.943253 46.4151 1.09768 46.4911 1.36439ZM36.3612 9.55335C36.0523 10.4531 35.8857 11.608 36.0026 12.6638C36.0845 13.4031 36.3004 14.0441 36.6567 14.503C37.0007 14.9459 37.4961 15.2479 38.2229 15.2966C38.6059 15.3222 38.8435 15.2616 38.9878 15.1826C39.1221 15.1091 39.2121 15.0002 39.2695 14.8398C39.3986 14.4785 39.3484 13.8831 39.1019 13.1425C38.8634 12.4263 38.4732 11.669 38.0533 11.0444C37.6191 10.3984 37.2059 9.97361 36.95 9.83608C36.7678 9.73811 36.5705 9.64331 36.3612 9.55335Z" fill="black"/>
<path fill-rule="evenodd" clip-rule="evenodd" d="M45.8305 0.874918C46.1764 0.775757 46.5364 0.976859 46.6349 1.32296C46.7335 1.66887 46.5339 2.03001 46.1882 2.12911C42.693 3.13095 38.9923 5.54132 36.9986 8.57346C37.1711 8.65206 37.3365 8.73386 37.4935 8.8182C38.0131 9.09746 38.5573 9.72895 39.0075 10.3987C39.4764 11.0963 39.9172 11.9469 40.1935 12.7766C40.4592 13.5748 40.618 14.4869 40.3528 15.229C40.2108 15.6263 39.947 15.9722 39.5392 16.1955C39.1445 16.4116 38.6698 16.4832 38.1459 16.4481C37.0925 16.3777 36.2942 15.9152 35.7481 15.2119C35.218 14.5294 34.9542 13.6596 34.858 12.7908C34.7294 11.6293 34.889 10.3589 35.2288 9.30766C34.6429 9.13669 34.0133 9.01108 33.3843 8.95544C32.0777 8.83985 30.88 9.03412 30.0665 9.62413C29.2948 10.1838 28.9185 11.1458 28.7503 12.3521C28.633 13.1929 28.6265 14.0505 28.6205 14.8699L28.6205 14.8712C28.6178 15.2359 28.6152 15.5935 28.6026 15.9358C28.5893 16.2953 28.2878 16.5768 27.9283 16.5635C27.5688 16.5501 27.2889 16.2471 27.3022 15.8876C27.3126 15.6061 27.3151 15.2866 27.3177 14.9406L27.3178 14.9362C27.3243 14.0946 27.3319 13.1013 27.4616 12.1715C27.6461 10.8483 28.0977 9.44188 29.3038 8.56724C30.4793 7.71476 32.0455 7.52747 33.4987 7.65603C34.2718 7.72443 35.0433 7.88456 35.7555 8.10407C35.7835 8.05647 35.8121 8.01003 35.8411 7.96482C38.0229 4.56944 42.0583 1.95615 45.8305 0.874918ZM46.3464 1.40513C46.2931 1.21783 46.0989 1.11007 45.9131 1.16331C42.1963 2.22867 38.2283 4.80462 36.0935 8.127C36.0469 8.19953 36.0014 8.27597 35.957 8.35605C35.9224 8.41868 35.8483 8.44808 35.7801 8.42625C35.0553 8.19419 34.2636 8.02487 33.4722 7.95486C32.0529 7.8293 30.5718 8.0182 29.4799 8.8101C28.3739 9.61216 27.9395 10.9163 27.7587 12.2129C27.632 13.1216 27.6242 14.0969 27.6177 14.9429L27.6177 14.9445C27.6151 15.2887 27.6126 15.6124 27.602 15.8986C27.5948 16.0935 27.7464 16.2565 27.9394 16.2637C28.1325 16.2709 28.2956 16.1196 28.3028 15.9247C28.3152 15.5873 28.3178 15.2338 28.3205 14.8677L28.3205 14.8632C28.3265 14.0482 28.3329 13.1726 28.4531 12.3107C28.6251 11.0775 29.0187 10.0134 29.8903 9.38128C30.7874 8.73073 32.0701 8.538 33.4107 8.6566C34.1158 8.71898 34.8193 8.86608 35.4644 9.06516C35.5033 9.07716 35.5356 9.10442 35.554 9.1407C35.5724 9.17698 35.5753 9.21917 35.5619 9.2576C35.2016 10.2977 35.0268 11.589 35.1562 12.7578C35.2487 13.5931 35.5001 14.4035 35.985 15.0279C36.4786 15.6635 37.1979 16.084 38.1659 16.1488C38.6531 16.1814 39.0658 16.1127 39.3951 15.9323C39.7315 15.7481 39.9502 15.464 40.0703 15.128C40.3002 14.4846 40.1695 13.6545 39.9088 12.8714C39.6424 12.0711 39.2147 11.2447 38.7585 10.5661C38.3125 9.90261 37.8024 9.32482 37.3514 9.08245C37.1542 8.97647 36.9423 8.87418 36.7182 8.77718C36.6783 8.75989 36.6478 8.72612 36.6347 8.68462C36.6217 8.64312 36.6272 8.59798 36.65 8.56092C36.6608 8.5434 36.6717 8.52611 36.6827 8.50905C38.7074 5.35803 42.5175 2.86919 46.1055 1.84073C46.2915 1.78743 46.3998 1.59262 46.3464 1.40513ZM36.3 9.41586C36.3382 9.39895 36.3817 9.39871 36.42 9.4152C36.633 9.50674 36.8342 9.60341 37.0207 9.70361C37.1703 9.78403 37.3509 9.93881 37.5443 10.1472C37.7401 10.358 37.9567 10.632 38.1774 10.9604C38.6036 11.5944 39.0005 12.3639 39.2438 13.0948C39.4928 13.8428 39.5571 14.4792 39.4103 14.8899C39.342 15.0812 39.2293 15.2208 39.0595 15.3138C38.8826 15.4107 38.614 15.4727 38.2125 15.4459C37.443 15.3944 36.9081 15.0714 36.5379 14.5946C36.159 14.1067 35.9368 13.436 35.8531 12.6799C35.7335 11.5997 35.9036 10.4225 36.2189 9.50429C36.2325 9.46481 36.2619 9.43277 36.3 9.41586ZM36.4516 9.75709C36.1822 10.6136 36.0437 11.6753 36.1513 12.6469C36.2313 13.3695 36.4411 13.9808 36.7748 14.4106C37.0925 14.8197 37.5484 15.1008 38.2325 15.1466C38.597 15.1709 38.8037 15.1119 38.9154 15.0507C39.0142 14.9966 39.0815 14.9185 39.1278 14.789C39.2393 14.477 39.2032 13.9227 38.9592 13.1896C38.7256 12.4881 38.3419 11.7428 37.9284 11.1277C37.7149 10.8101 37.5078 10.5487 37.3245 10.3513C37.1388 10.1514 36.9849 10.025 36.8786 9.96786C36.7445 9.89577 36.6017 9.82527 36.4516 9.75709Z" fill="black"/>
<path fill-rule="evenodd" clip-rule="evenodd" d="M7.75199 73.9353C5.06965 73.905 2.8905 73.9058 1.54439 74.0242C1.26897 74.0485 1.02611 73.8441 1.00195 73.5678C0.977785 73.2915 1.18148 73.0479 1.4569 73.0236C2.86222 72.9 5.09477 72.9007 7.76328 72.9309C8.50719 72.9393 9.28629 72.9501 10.0932 72.9612C12.1941 72.9901 14.4837 73.0217 16.8321 73.0217C17.1086 73.0217 17.3327 73.2465 17.3327 73.5239C17.3327 73.8013 17.1086 74.0261 16.8321 74.0261C14.4764 74.0261 12.1758 73.9944 10.0728 73.9655C9.26757 73.9544 8.49131 73.9437 7.75199 73.9353Z" fill="black"/>
<path fill-rule="evenodd" clip-rule="evenodd" d="M1.44337 72.8738C2.85759 72.7494 5.09815 72.7504 7.76459 72.7806C8.50869 72.789 9.28795 72.7997 10.0948 72.8108L10.0949 72.8108C12.196 72.8398 14.4846 72.8713 16.8317 72.8713C17.1915 72.8713 17.4823 73.1637 17.4823 73.5235C17.4823 73.8833 17.1915 74.1757 16.8317 74.1757C14.475 74.1757 12.1736 74.144 10.0708 74.1151L10.0703 74.1151L10.0703 74.1151C9.26506 74.104 8.489 74.0933 7.74991 74.0849C5.06548 74.0546 2.89436 74.0556 1.55716 74.1733C1.19873 74.2048 0.883472 73.9389 0.852132 73.5805C0.820797 73.2221 1.08501 72.9054 1.44337 72.8738ZM7.7612 73.0805C5.09062 73.0503 2.86609 73.0498 1.46967 73.1727C1.27718 73.1896 1.13401 73.3601 1.15099 73.5544C1.16797 73.7486 1.33844 73.8914 1.53086 73.8744C2.88587 73.7552 5.07305 73.7546 7.75331 73.7849C8.49276 73.7933 9.26913 73.804 10.0742 73.8151L10.0745 73.8151C12.1776 73.8441 14.4772 73.8757 16.8317 73.8757C17.0249 73.8757 17.1823 73.7185 17.1823 73.5235C17.1823 73.3285 17.0249 73.1713 16.8317 73.1713C14.4823 73.1713 12.1919 73.1397 10.0912 73.1108L10.0908 73.1108C9.28381 73.0997 8.50489 73.0889 7.7612 73.0805Z" fill="black"/>
<path fill-rule="evenodd" clip-rule="evenodd" d="M20.5255 79.6869C20.7625 79.8296 20.8394 80.1381 20.6972 80.3759C20.1988 81.2092 18.4882 83.462 16.7936 85.6556C16.0155 86.6628 15.2362 87.6634 14.5651 88.525C13.7593 89.5595 13.1094 90.3939 12.8047 90.7994C12.6383 91.0209 12.3244 91.0651 12.1036 90.8981C11.8828 90.7312 11.8388 90.4163 12.0052 90.1948C12.3137 89.7842 12.9741 88.9364 13.7877 87.8918C14.4587 87.0302 15.2341 86.0347 16.0022 85.0403C17.7194 82.8175 19.3795 80.6269 19.8386 79.8591C19.9809 79.6213 20.2884 79.5442 20.5255 79.6869Z" fill="black"/>
<path fill-rule="evenodd" clip-rule="evenodd" d="M19.7105 79.7828C19.8952 79.4739 20.295 79.3734 20.6034 79.559C20.9115 79.7444 21.0111 80.1449 20.8265 80.4535C20.3223 81.2965 18.6041 83.5587 16.9129 85.7479C16.1348 86.7553 15.3554 87.7558 14.6844 88.6174C13.878 89.6526 13.2289 90.4859 12.9252 90.8901C12.709 91.1779 12.3008 91.2355 12.0137 91.0184C11.7269 90.8015 11.6698 90.3928 11.8859 90.1053C12.1951 89.6937 12.8558 88.8455 13.668 87.8027L13.6699 87.8002C14.341 86.9386 15.1162 85.9433 15.8841 84.9492C17.6047 82.722 19.2572 80.5407 19.7105 79.7828ZM20.4487 79.816C20.2829 79.7162 20.0677 79.77 19.9679 79.9368C19.5029 80.7143 17.8353 82.9142 16.1215 85.1326C15.3532 86.1273 14.5777 87.123 13.9066 87.9846C13.0924 89.0299 12.4332 89.8763 12.1257 90.2855C12.0088 90.441 12.0399 90.6621 12.1947 90.7791C12.3491 90.8959 12.5687 90.8651 12.6854 90.7099C12.9909 90.3034 13.6411 89.4685 14.4455 88.4358L14.4474 88.4335C15.1185 87.5718 15.8977 86.5714 16.6755 85.5645C18.3734 83.3666 20.0765 81.123 20.569 80.2996C20.669 80.1325 20.6148 79.916 20.4487 79.816Z" fill="black"/>
<path fill-rule="evenodd" clip-rule="evenodd" d="M104.079 51.1562C104.079 50.8801 104.303 50.6562 104.579 50.6562H201C201.276 50.6562 201.5 50.8801 201.5 51.1562C201.5 51.4324 201.276 51.6562 201 51.6562H104.579C104.303 51.6562 104.079 51.4324 104.079 51.1562ZM104.079 61.4317C104.079 61.1556 104.303 60.9317 104.579 60.9317H178.043C178.319 60.9317 178.543 61.1556 178.543 61.4317C178.543 61.7078 178.319 61.9317 178.043 61.9317H104.579C104.303 61.9317 104.079 61.7078 104.079 61.4317ZM104.079 72.7701C104.079 72.494 104.303 72.2701 104.579 72.2701H178.043C178.319 72.2701 178.543 72.494 178.543 72.7701C178.543 73.0463 178.319 73.2701 178.043 73.2701H104.579C104.303 73.2701 104.079 73.0463 104.079 72.7701Z" fill="black"/>
<path fill-rule="evenodd" clip-rule="evenodd" d="M111.041 34.5C111.041 34.2239 110.817 34 110.541 34L105.885 33.9997C105.609 33.9997 105.385 34.2235 105.385 34.4997C105.385 34.7758 105.609 34.9997 105.885 34.9997L110.541 35C110.817 35 111.041 34.7762 111.041 34.5Z" fill="black"/>
<path fill-rule="evenodd" clip-rule="evenodd" d="M123.291 34.4873C123.291 34.2112 123.067 33.9873 122.791 33.9873L118.126 33.9873C117.85 33.9873 117.626 34.2112 117.626 34.4873C117.626 34.7634 117.85 34.9873 118.126 34.9873L122.791 34.9873C123.067 34.9873 123.291 34.7634 123.291 34.4873Z" fill="black"/>
<path fill-rule="evenodd" clip-rule="evenodd" d="M112.829 34.4876C112.829 35.3133 113.495 35.9772 114.31 35.9772C115.126 35.9772 115.792 35.3133 115.792 34.4876C115.792 33.6619 115.126 32.998 114.31 32.998C113.495 32.998 112.829 33.6619 112.829 34.4876ZM111.829 34.4876C111.829 35.8626 112.94 36.9772 114.31 36.9772C115.681 36.9772 116.792 35.8626 116.792 34.4876C116.792 33.1127 115.681 31.998 114.31 31.998C112.94 31.998 111.829 33.1127 111.829 34.4876Z" fill="black"/>
</svg>
