<svg fill="none" viewBox="0 0 17 19" xmlns="http://www.w3.org/2000/svg"><g fill="#a4c639"><path d="m5.66781 11.7451c.61646 0 1.1162.4999 1.1162 1.1164v4.7892c0 .6166-.49974 1.1163-1.1162 1.1163-.61637 0-1.11611-.4997-1.11611-1.1163v-4.7892c0-.6165.49974-1.1163 1.11611-1.1163z"/><path d="m3.12 5.99023c-.00369.04234-.0069.08514-.0069.12842v7.25605c0 .7803.61755 1.409 1.38417 1.409h7.37733c.7667 0 1.3843-.6288 1.3843-1.409v-7.25605c0-.04328-.0016-.08624-.0052-.12842z"/><path d="m10.7035 11.7454c.6164 0 1.1162.4998 1.1162 1.1164v4.7892c0 .6165-.4998 1.1163-1.1162 1.1163s-1.11613-.4998-1.11613-1.1163v-4.7892c0-.6165.49973-1.1163 1.11613-1.1163zm-9.38418-5.11216c.61637 0 1.11612.49984 1.11612 1.11642v4.78914c0 .6166-.49975 1.1164-1.11612 1.1164-.616451 0-1.116195-.4998-1.116195-1.1163v-4.78916c-.000078-.61658.499666-1.1165 1.116195-1.1165zm13.73268 0c.6164 0 1.1161.49984 1.1161 1.11642v4.78914c0 .6166-.4997 1.1164-1.1161 1.1164s-1.1162-.4998-1.1162-1.1163v-4.78916c0-.61658.4998-1.1165 1.1162-1.1165zm-11.89979-1.12238c.03104-2.22877 1.97594-4.05616 4.47247-4.29699h1.12176c2.49666.24091 4.44146 2.06837 4.47246 4.29699z"/></g><path d="m12.8315 1-1.1775 2.03984m-8.11305-2.03984 1.17741 2.03984z" stroke="#a4c639" stroke-linecap="round" stroke-linejoin="round" stroke-width=".764435"/><path d="m6.6858 3.51394c.00094.31154-.25685.56484-.57585.5657-.31885.00079-.57812-.25102-.57906-.56256v-.00314c-.00087-.31162.25692-.56483.57585-.5657.31884-.00086.57812.25087.57906.56257zm4.3105 0c.001.31154-.2568.56484-.5758.5657-.3189.00079-.57814-.25102-.57908-.56256v-.00314c-.00086-.31162.25688-.56483.57588-.5657.3188-.00086.5781.25087.579.56257z" fill="#fff"/></svg>