<svg enable-background="new 0 0 512 512" viewBox="0 0 512 512" xmlns="http://www.w3.org/2000/svg"><path d="m67.6 161.4v186.7h21.8v-135c.2-8.5-.2-17.1-1.1-25.6h.8c1.6 4.1 3.6 8 5.9 11.7l96 148.8h26.8v-186.6h-21.7v131.2c-.3 9.2.3 18.3 1.3 27.4h-.5c-1.2-2.3-3.7-6.4-7.6-12.5l-93.4-146.1zm198.6 0v186.7h99.2l.1-20.5h-77v-64.8h67.5v-19.7h-67.4v-62h72.3v-19.7zm116 0v19.7h53.7v166.9h21.8v-166.9h54.3v-19.7zm-368.3 160c-3.7.1-7.2 1.7-9.7 4.4-2.7 2.7-4.2 6.4-4.2 10.3-.1 3.8 1.5 7.5 4.2 10.3 2.7 2.7 6.4 4.3 10.2 4.3 3.9 0 7.6-1.5 10.3-4.3 2.7-2.7 4.3-6.4 4.3-10.3 0-3.8-1.6-7.6-4.3-10.3-2.7-2.8-6.3-4.4-10.3-4.4z"/></svg>