<svg enable-background="new 0 0 500 500" viewBox="0 0 500 500" xmlns="http://www.w3.org/2000/svg"><path d="m80.3 152.8c0 4-2.4 7-6.6 7-3.5 0-6.1-3-6.1-7 0-3.8 2.8-7 6.5-7s6.2 3.1 6.2 7zm-9.7 210v-160.7h6.6v160.6h-6.6z"/><path d="m296.2 248.3c0 81-45 117.8-94.2 117.8-50.3 0-91-39.8-91-114.5 0-76.6 42.1-117.8 94.5-117.8 51.4.1 90.7 40.6 90.7 114.5zm-178.5 1.7c0 61.4 29.8 109.1 84.6 109.1 55.2 0 86.9-49.2 86.9-109.8 0-56.2-25.4-107.6-83.3-107.6s-88.2 48.4-88.2 108.3z"/><path d="m320.4 345.4c11 7.4 30.1 14.5 46.5 14.5 31.1 0 58.8-21.8 58.8-53.8 0-29.7-18.4-45.3-49.7-58.6-28-11.9-53.2-24.9-53.2-56.7 0-33.1 26.1-56.6 61.6-56.6 19.1 0 33.5 5.4 40.2 10l-2.7 5.8c-5.7-4-21.1-9.1-37.8-9.1-37.5 0-53.8 28.3-53.8 49.2 0 28.8 22.3 38.4 51.1 52.2 33.5 16.4 51.2 30.9 51.2 62.3 0 33.8-24.1 61.2-66.9 61.2-17.7 0-38.2-6-48.2-13.7z"/></svg>