<svg fill="none" viewBox="0 0 22 23" xmlns="http://www.w3.org/2000/svg"><path d="m0 .597656h22v22.000044h-22z" fill="#f0db4f"/><path d="m20.0284 17.0911c-.1596-1.0268-.8083-1.8889-2.7296-2.6932-.6674-.3166-1.4115-.5433-1.6333-1.0653-.0787-.3038-.0891-.4749-.0394-.6589.143-.5968.8332-.7829 1.3804-.6118.3524.1219.6861.4022.8871.8493.941-.6289.9389-.6247 1.5959-1.0568-.2404-.385-.3689-.5626-.5264-.7273-.5658-.6525-1.3369-.9883-2.5701-.9626-.2135.0278-.429.0577-.6425.0855-.6156.1605-1.2021.4942-1.5462.9413-1.0322 1.2086-.7379 3.3242.5182 4.1949 1.2373.9584 3.055 1.1766 3.2872 2.0729.2259 1.0974-.7814 1.4525-1.7825 1.3263-.7379-.1583-1.1482-.5455-1.5918-1.2493-.8166.4877-.8166.4877-1.656.9862.199.4492.4083.6524.742 1.0418 1.5793 1.6536 5.5319 1.5723 6.2407-.9306.029-.0856.2197-.6589.0663-1.5424zm-8.1662-6.794h-2.03947c0 1.8183-.00827 3.6238-.00827 5.4421 0 1.1573.05804 2.2183-.12436 2.5435-.29846.6396-1.07155.5604-1.4239.4363-.35857-.1818-.54096-.4406-.75237-.8064-.05804-.1048-.10156-.1861-.11609-.1925-.55338.3486-1.10472.6994-1.65812 1.0482.27569.584.6819 1.0909 1.20214 1.4204.77724.4813 1.82185.6289 2.91415.37.71089-.2139 1.32439-.6567 1.64569-1.3305.4642-.8835.3648-1.9531.3606-3.1361.0104-1.9295 0-3.8591 0-5.795z" fill="#323330"/></svg>