<svg fill="none" viewBox="0 0 95 137" xmlns="http://www.w3.org/2000/svg"><g opacity=".7"><path d="m47.5 135.5c-16.8.8-36.6667-6-44.5-9.5l32.5-78c.6667 0 4 .3 12 1.5s15.3333-.5 18-1.5l26.5 78c-7.8333 2.833-27.7 8.7-44.5 9.5z" fill="#f3f3fa"/><g stroke-linecap="round" stroke-linejoin="round" stroke-width="1.54701"><g stroke="#000"><path d="m42.021 5.02681c-25.6095 13.53659-12.948 32.26389-11.1701 34.45679 6.7314 8.3024 19.0649 9.2938 29.6959 9.7764 9.3818.4259 14.8233-5.9463 17.4022-14.3912 3.0049-9.84 1.3583-21.0569-6.8621-27.80807-7.881-6.472352-15.6942-7.210207-25.2762-4.78479-9.3207 2.35931-18.9979 10.04866-22.0674 19.68956-3.4085 10.7053 2.164 19.6943 11.0574 24.9017 9.2504 5.4164 29.4241 4.9223 37.5821-2.034"/><path d="m36.8846 48.1794c-10.6154 31.5686-21.2308 54.6376-35.3846 82.5646"/><path d="m65.1921 43.4617c.1357.587.1933.8997.3825 1.4701 9.8851 29.8002 16.347 51.1453 27.9252 83.4532"/></g><path d="m64.5 51c.115.4908.1639.7522.3243 1.2291 8.3808 24.9145 13.8594 42.76 23.6757 69.7709" stroke="#6b6d85"/><path d="m1.5 124.846c17.6923 12.975 69.5897 16.513 92 1.18" stroke="#000"/><path d="m34.2912 29.6738c1.803 5.0529 5.5563 8.3924 11.0632 9.2231 4.3538.6567 8.5882-.9523 11.1796-4.3563" stroke="#000"/></g></g></svg>